{"asset":{"version":"2.0","generator":"microscope_builder_4 scripts/catalog/dedupe-mounted-lens-housings.mjs"},"scene":0,"scenes":[{"nodes":[0]}],"nodes":[{"mesh":0}],"meshes":[{"primitives":[{"attributes":{"POSITION":1,"NORMAL":2},"indices":0,"mode":4},{"attributes":{"POSITION":4,"NORMAL":5},"indices":3,"mode":4},{"attributes":{"POSITION":7,"NORMAL":8},"indices":6,"mode":4}]}],"buffers":[{"uri":"ac050-008-b-ml.bin","byteLength":89412}],"bufferViews":[{"buffer":0,"byteOffset":0,"byteLength":1440,"target":34963},{"buffer":0,"byteOffset":1440,"byteLength":1464,"target":34962},{"buffer":0,"byteOffset":2904,"byteLength":1464,"target":34962},{"buffer":0,"byteOffset":4368,"byteLength":1224,"target":34963},{"buffer":0,"byteOffset":5592,"byteLength":1248,"target":34962},{"buffer":0,"byteOffset":6840,"byteLength":1248,"target":34962},{"buffer":0,"byteOffset":8088,"byteLength":27108,"target":34963},{"buffer":0,"byteOffset":35196,"byteLength":27108,"target":34962},{"buffer":0,"byteOffset":62304,"byteLength":27108,"target":34962}],"accessors":[{"bufferView":0,"componentType":5123,"count":720,"type":"SCALAR"},{"bufferView":1,"componentType":5126,"count":122,"type":"VEC3","min":[-2.5,-2.5,-0.8169999718666077],"max":[2.5,2.5,1.9830000400543213]},{"bufferView":2,"componentType":5126,"count":122,"type":"VEC3"},{"bufferView":3,"componentType":5123,"count":612,"type":"SCALAR"},{"bufferView":4,"componentType":5126,"count":104,"type":"VEC3","min":[-2.5,-2.5,-2.617000102996826],"max":[2.5,2.5,0.09000000357627869]},{"bufferView":5,"componentType":5126,"count":104,"type":"VEC3"},{"bufferView":6,"componentType":5123,"count":13554,"type":"SCALAR"},{"bufferView":7,"componentType":5126,"count":2259,"type":"VEC3","min":[-4.61899995803833,-4.61899995803833,-3.174999952316284],"max":[4.61899995803833,4.61899995803833,3.174999952316284]},{"bufferView":8,"componentType":5126,"count":2259,"type":"VEC3"}]}
