{"asset":{"version":"2.0","generator":"microscope_builder_4 scripts/catalog/dedupe-mounted-lens-housings.mjs"},"scene":0,"scenes":[{"nodes":[0]}],"nodes":[{"mesh":0}],"meshes":[{"primitives":[{"attributes":{"POSITION":1,"NORMAL":2},"indices":0,"mode":4},{"attributes":{"POSITION":4,"NORMAL":5},"indices":3,"mode":4},{"attributes":{"POSITION":7,"NORMAL":8},"indices":6,"mode":4},{"attributes":{"POSITION":10,"NORMAL":11},"indices":9,"mode":4}]}],"buffers":[{"uri":"ac080-030-a-ml.bin","byteLength":110544}],"bufferViews":[{"buffer":0,"byteOffset":0,"byteLength":28968,"target":34963},{"buffer":0,"byteOffset":28968,"byteLength":28968,"target":34962},{"buffer":0,"byteOffset":57936,"byteLength":28968,"target":34962},{"buffer":0,"byteOffset":86904,"byteLength":1992,"target":34963},{"buffer":0,"byteOffset":88896,"byteLength":2016,"target":34962},{"buffer":0,"byteOffset":90912,"byteLength":2016,"target":34962},{"buffer":0,"byteOffset":92928,"byteLength":1920,"target":34963},{"buffer":0,"byteOffset":94848,"byteLength":1944,"target":34962},{"buffer":0,"byteOffset":96792,"byteLength":1944,"target":34962},{"buffer":0,"byteOffset":98736,"byteLength":3912,"target":34963},{"buffer":0,"byteOffset":102648,"byteLength":3948,"target":34962},{"buffer":0,"byteOffset":106596,"byteLength":3948,"target":34962}],"accessors":[{"bufferView":0,"componentType":5123,"count":14484,"type":"SCALAR"},{"bufferView":1,"componentType":5126,"count":2414,"type":"VEC3","min":[-6.119999885559082,-6.119999885559082,-4.000999927520752],"max":[6.119999885559082,6.119999885559082,4.000999927520752]},{"bufferView":2,"componentType":5126,"count":2414,"type":"VEC3"},{"bufferView":3,"componentType":5123,"count":996,"type":"SCALAR"},{"bufferView":4,"componentType":5126,"count":168,"type":"VEC3","min":[-4,-4,-1.9910000562667847],"max":[4,4,0.5090000033378601]},{"bufferView":5,"componentType":5126,"count":168,"type":"VEC3"},{"bufferView":6,"componentType":5123,"count":960,"type":"SCALAR"},{"bufferView":7,"componentType":5126,"count":162,"type":"VEC3","min":[-4,-4,-3.490999937057495],"max":[4,4,-1.4299999475479126]},{"bufferView":8,"componentType":5126,"count":162,"type":"VEC3"},{"bufferView":9,"componentType":5123,"count":1956,"type":"SCALAR"},{"bufferView":10,"componentType":5126,"count":329,"type":"VEC3","min":[-4,-4,-3.490999937057495],"max":[4,4,0.5090000033378601]},{"bufferView":11,"componentType":5126,"count":329,"type":"VEC3"}]}
