{"asset":{"version":"2.0","generator":"microscope_builder_4 scripts/catalog/dedupe-mounted-lens-housings.mjs"},"scene":0,"scenes":[{"nodes":[0]}],"nodes":[{"mesh":0}],"meshes":[{"primitives":[{"attributes":{"POSITION":1,"NORMAL":2},"indices":0,"mode":4},{"attributes":{"POSITION":4,"NORMAL":5},"indices":3,"mode":4},{"attributes":{"POSITION":7,"NORMAL":8},"indices":6,"mode":4}]}],"buffers":[{"uri":"ac080-016-b-ml.bin","byteLength":86712}],"bufferViews":[{"buffer":0,"byteOffset":0,"byteLength":1248,"target":34963},{"buffer":0,"byteOffset":1248,"byteLength":1272,"target":34962},{"buffer":0,"byteOffset":2520,"byteLength":1272,"target":34962},{"buffer":0,"byteOffset":3792,"byteLength":1152,"target":34963},{"buffer":0,"byteOffset":4944,"byteLength":1176,"target":34962},{"buffer":0,"byteOffset":6120,"byteLength":1176,"target":34962},{"buffer":0,"byteOffset":7296,"byteLength":26472,"target":34963},{"buffer":0,"byteOffset":33768,"byteLength":26472,"target":34962},{"buffer":0,"byteOffset":60240,"byteLength":26472,"target":34962}],"accessors":[{"bufferView":0,"componentType":5123,"count":624,"type":"SCALAR"},{"bufferView":1,"componentType":5126,"count":106,"type":"VEC3","min":[-4,-4,-2.0739998817443848],"max":[4,4,0.4259999990463257]},{"bufferView":2,"componentType":5126,"count":106,"type":"VEC3"},{"bufferView":3,"componentType":5123,"count":576,"type":"SCALAR"},{"bufferView":4,"componentType":5126,"count":98,"type":"VEC3","min":[-4,-4,-3.5739998817443848],"max":[4,4,-1.0870000123977661]},{"bufferView":5,"componentType":5126,"count":98,"type":"VEC3"},{"bufferView":6,"componentType":5123,"count":13236,"type":"SCALAR"},{"bufferView":7,"componentType":5126,"count":2206,"type":"VEC3","min":[-6.119999885559082,-6.119999885559082,-4.000999927520752],"max":[6.119999885559082,6.119999885559082,4.000999927520752]},{"bufferView":8,"componentType":5126,"count":2206,"type":"VEC3"}]}
