{"asset":{"version":"2.0","generator":"microscope_builder_4 scripts/catalog/dedupe-mounted-lens-housings.mjs"},"scene":0,"scenes":[{"nodes":[0]}],"nodes":[{"mesh":0}],"meshes":[{"primitives":[{"attributes":{"POSITION":1,"NORMAL":2},"indices":0,"mode":4},{"attributes":{"POSITION":4,"NORMAL":5},"indices":3,"mode":4},{"attributes":{"POSITION":7,"NORMAL":8},"indices":6,"mode":4},{"attributes":{"POSITION":10,"NORMAL":11},"indices":9,"mode":4},{"attributes":{"POSITION":13,"NORMAL":14},"indices":12,"mode":4}]}],"buffers":[{"uri":"ac127-075-a-ml.bin","byteLength":190548}],"bufferViews":[{"buffer":0,"byteOffset":0,"byteLength":41028,"target":34963},{"buffer":0,"byteOffset":41028,"byteLength":41028,"target":34962},{"buffer":0,"byteOffset":82056,"byteLength":41028,"target":34962},{"buffer":0,"byteOffset":123084,"byteLength":1968,"target":34963},{"buffer":0,"byteOffset":125052,"byteLength":1992,"target":34962},{"buffer":0,"byteOffset":127044,"byteLength":1992,"target":34962},{"buffer":0,"byteOffset":129036,"byteLength":7572,"target":34963},{"buffer":0,"byteOffset":136608,"byteLength":7596,"target":34962},{"buffer":0,"byteOffset":144204,"byteLength":7596,"target":34962},{"buffer":0,"byteOffset":151800,"byteLength":3720,"target":34963},{"buffer":0,"byteOffset":155520,"byteLength":3720,"target":34962},{"buffer":0,"byteOffset":159240,"byteLength":3720,"target":34962},{"buffer":0,"byteOffset":162960,"byteLength":9540,"target":34963},{"buffer":0,"byteOffset":172500,"byteLength":9024,"target":34962},{"buffer":0,"byteOffset":181524,"byteLength":9024,"target":34962}],"accessors":[{"bufferView":0,"componentType":5123,"count":20514,"type":"SCALAR"},{"bufferView":1,"componentType":5126,"count":3419,"type":"VEC3","min":[-4.879000186920166,-8.890000343322754,-8.890000343322754],"max":[5.715000152587891,8.890000343322754,8.890000343322754]},{"bufferView":2,"componentType":5126,"count":3419,"type":"VEC3"},{"bufferView":3,"componentType":5123,"count":984,"type":"SCALAR"},{"bufferView":4,"componentType":5126,"count":166,"type":"VEC3","min":[-0.7039999961853027,-6.34499979019165,-6.34499979019165],"max":[1.7960000038146973,6.34499979019165,6.34499979019165]},{"bufferView":5,"componentType":5126,"count":166,"type":"VEC3"},{"bufferView":6,"componentType":5123,"count":3786,"type":"SCALAR"},{"bufferView":7,"componentType":5126,"count":633,"type":"VEC3","min":[-2.2039999961853027,-6.34499979019165,-6.34499979019165],"max":[-0.13199999928474426,6.348999977111816,6.34499979019165]},{"bufferView":8,"componentType":5126,"count":633,"type":"VEC3"},{"bufferView":9,"componentType":5123,"count":1860,"type":"SCALAR"},{"bufferView":10,"componentType":5126,"count":310,"type":"VEC3","min":[1.4160000085830688,-6.794000148773193,-6.794000148773193],"max":[3.066999912261963,6.794000148773193,6.794000148773193]},{"bufferView":11,"componentType":5126,"count":310,"type":"VEC3"},{"bufferView":12,"componentType":5123,"count":4770,"type":"SCALAR"},{"bufferView":13,"componentType":5126,"count":752,"type":"VEC3","min":[-2.2039999961853027,-6.34499979019165,-6.34499979019165],"max":[1.7960000038146973,6.348999977111816,6.34499979019165]},{"bufferView":14,"componentType":5126,"count":752,"type":"VEC3"}]}
