{"asset":{"version":"2.0","generator":"microscope_builder_4 scripts/catalog/dedupe-mounted-lens-housings.mjs"},"scene":0,"scenes":[{"nodes":[0]}],"nodes":[{"mesh":0}],"meshes":[{"primitives":[{"attributes":{"POSITION":1,"NORMAL":2},"indices":0,"mode":4},{"attributes":{"POSITION":4,"NORMAL":5},"indices":3,"mode":4},{"attributes":{"POSITION":7,"NORMAL":8},"indices":6,"mode":4},{"attributes":{"POSITION":10,"NORMAL":11},"indices":9,"mode":4},{"attributes":{"POSITION":13,"NORMAL":14},"indices":12,"mode":4}]}],"buffers":[{"uri":"ac127-019-ab-ml.bin","byteLength":204468}],"bufferViews":[{"buffer":0,"byteOffset":0,"byteLength":42192,"target":34963},{"buffer":0,"byteOffset":42192,"byteLength":42192,"target":34962},{"buffer":0,"byteOffset":84384,"byteLength":42192,"target":34962},{"buffer":0,"byteOffset":126576,"byteLength":2220,"target":34963},{"buffer":0,"byteOffset":128796,"byteLength":2244,"target":34962},{"buffer":0,"byteOffset":131040,"byteLength":2244,"target":34962},{"buffer":0,"byteOffset":133284,"byteLength":9312,"target":34963},{"buffer":0,"byteOffset":142596,"byteLength":9336,"target":34962},{"buffer":0,"byteOffset":151932,"byteLength":9336,"target":34962},{"buffer":0,"byteOffset":161268,"byteLength":2844,"target":34963},{"buffer":0,"byteOffset":164112,"byteLength":2844,"target":34962},{"buffer":0,"byteOffset":166956,"byteLength":2844,"target":34962},{"buffer":0,"byteOffset":169800,"byteLength":11532,"target":34963},{"buffer":0,"byteOffset":181332,"byteLength":11568,"target":34962},{"buffer":0,"byteOffset":192900,"byteLength":11568,"target":34962}],"accessors":[{"bufferView":0,"componentType":5123,"count":21096,"type":"SCALAR"},{"bufferView":1,"componentType":5126,"count":3516,"type":"VEC3","min":[-5.177000045776367,-8.890000343322754,-8.878999710083008],"max":[5.236999988555908,8.890000343322754,8.878999710083008]},{"bufferView":2,"componentType":5126,"count":3516,"type":"VEC3"},{"bufferView":3,"componentType":5123,"count":1110,"type":"SCALAR"},{"bufferView":4,"componentType":5126,"count":187,"type":"VEC3","min":[-1.621000051498413,-6.348999977111816,-6.348999977111816],"max":[2.378999948501587,6.348999977111816,6.348999977111816]},{"bufferView":5,"componentType":5126,"count":187,"type":"VEC3"},{"bufferView":6,"componentType":5123,"count":4656,"type":"SCALAR"},{"bufferView":7,"componentType":5126,"count":778,"type":"VEC3","min":[-2.621000051498413,-6.348999977111816,-6.348999977111816],"max":[-0.07999999821186066,6.349999904632568,6.348999977111816]},{"bufferView":8,"componentType":5126,"count":778,"type":"VEC3"},{"bufferView":9,"componentType":5123,"count":1422,"type":"SCALAR"},{"bufferView":10,"componentType":5126,"count":237,"type":"VEC3","min":[0.8880000114440918,-6.794000148773193,-6.776000022888184],"max":[2.5390000343322754,6.794000148773193,6.776000022888184]},{"bufferView":11,"componentType":5126,"count":237,"type":"VEC3"},{"bufferView":12,"componentType":5123,"count":5766,"type":"SCALAR"},{"bufferView":13,"componentType":5126,"count":964,"type":"VEC3","min":[-2.621000051498413,-6.348999977111816,-6.348999977111816],"max":[2.378999948501587,6.349999904632568,6.348999977111816]},{"bufferView":14,"componentType":5126,"count":964,"type":"VEC3"}]}
