{"asset":{"version":"2.0","generator":"microscope_builder_4 scripts/catalog/dedupe-mounted-lens-housings.mjs"},"scene":0,"scenes":[{"nodes":[0]}],"nodes":[{"mesh":0}],"meshes":[{"primitives":[{"attributes":{"POSITION":1,"NORMAL":2},"indices":0,"mode":4},{"attributes":{"POSITION":4,"NORMAL":5},"indices":3,"mode":4},{"attributes":{"POSITION":7,"NORMAL":8},"indices":6,"mode":4},{"attributes":{"POSITION":10,"NORMAL":11},"indices":9,"mode":4},{"attributes":{"POSITION":13,"NORMAL":14},"indices":12,"mode":4}]}],"buffers":[{"uri":"ac127-075-b-ml.bin","byteLength":206616}],"bufferViews":[{"buffer":0,"byteOffset":0,"byteLength":44352,"target":34963},{"buffer":0,"byteOffset":44352,"byteLength":44352,"target":34962},{"buffer":0,"byteOffset":88704,"byteLength":44352,"target":34962},{"buffer":0,"byteOffset":133056,"byteLength":3720,"target":34963},{"buffer":0,"byteOffset":136776,"byteLength":3720,"target":34962},{"buffer":0,"byteOffset":140496,"byteLength":3720,"target":34962},{"buffer":0,"byteOffset":144216,"byteLength":1968,"target":34963},{"buffer":0,"byteOffset":146184,"byteLength":1992,"target":34962},{"buffer":0,"byteOffset":148176,"byteLength":1992,"target":34962},{"buffer":0,"byteOffset":150168,"byteLength":8556,"target":34963},{"buffer":0,"byteOffset":158724,"byteLength":8580,"target":34962},{"buffer":0,"byteOffset":167304,"byteLength":8580,"target":34962},{"buffer":0,"byteOffset":175884,"byteLength":10524,"target":34963},{"buffer":0,"byteOffset":186408,"byteLength":10104,"target":34962},{"buffer":0,"byteOffset":196512,"byteLength":10104,"target":34962}],"accessors":[{"bufferView":0,"componentType":5123,"count":22176,"type":"SCALAR"},{"bufferView":1,"componentType":5126,"count":3696,"type":"VEC3","min":[-4.879000186920166,-8.890000343322754,-8.890000343322754],"max":[5.715000152587891,8.890000343322754,8.890000343322754]},{"bufferView":2,"componentType":5126,"count":3696,"type":"VEC3"},{"bufferView":3,"componentType":5123,"count":1860,"type":"SCALAR"},{"bufferView":4,"componentType":5126,"count":310,"type":"VEC3","min":[1.5299999713897705,-6.794000148773193,-6.794000148773193],"max":[3.180999994277954,6.794000148773193,6.794000148773193]},{"bufferView":5,"componentType":5126,"count":310,"type":"VEC3"},{"bufferView":6,"componentType":5123,"count":984,"type":"SCALAR"},{"bufferView":7,"componentType":5126,"count":166,"type":"VEC3","min":[-0.5370000004768372,-6.3429999351501465,-6.3429999351501465],"max":[1.9630000591278076,6.3429999351501465,6.3429999351501465]},{"bufferView":8,"componentType":5126,"count":166,"type":"VEC3"},{"bufferView":9,"componentType":5123,"count":4278,"type":"SCALAR"},{"bufferView":10,"componentType":5126,"count":715,"type":"VEC3","min":[-2.0850000381469727,-6.349999904632568,-6.3429999351501465],"max":[-0.0560000017285347,6.3429999351501465,6.349999904632568]},{"bufferView":11,"componentType":5126,"count":715,"type":"VEC3"},{"bufferView":12,"componentType":5123,"count":5262,"type":"SCALAR"},{"bufferView":13,"componentType":5126,"count":842,"type":"VEC3","min":[-2.0850000381469727,-6.349999904632568,-6.3429999351501465],"max":[1.9630000591278076,6.3429999351501465,6.349999904632568]},{"bufferView":14,"componentType":5126,"count":842,"type":"VEC3"}]}
