{"asset":{"version":"2.0","generator":"microscope_builder_4 scripts/catalog/dedupe-mounted-lens-housings.mjs"},"scene":0,"scenes":[{"nodes":[0]}],"nodes":[{"mesh":0}],"meshes":[{"primitives":[{"attributes":{"POSITION":1,"NORMAL":2},"indices":0,"mode":4},{"attributes":{"POSITION":4,"NORMAL":5},"indices":3,"mode":4},{"attributes":{"POSITION":7,"NORMAL":8},"indices":6,"mode":4},{"attributes":{"POSITION":10,"NORMAL":11},"indices":9,"mode":4}]}],"buffers":[{"uri":"ac127-019-b-ml.bin","byteLength":135444}],"bufferViews":[{"buffer":0,"byteOffset":0,"byteLength":264,"target":34963},{"buffer":0,"byteOffset":264,"byteLength":492,"target":34962},{"buffer":0,"byteOffset":756,"byteLength":492,"target":34962},{"buffer":0,"byteOffset":1248,"byteLength":480,"target":34963},{"buffer":0,"byteOffset":1728,"byteLength":708,"target":34962},{"buffer":0,"byteOffset":2436,"byteLength":708,"target":34962},{"buffer":0,"byteOffset":3144,"byteLength":1932,"target":34963},{"buffer":0,"byteOffset":5076,"byteLength":2436,"target":34962},{"buffer":0,"byteOffset":7512,"byteLength":2436,"target":34962},{"buffer":0,"byteOffset":9948,"byteLength":41544,"target":34963},{"buffer":0,"byteOffset":51492,"byteLength":41976,"target":34962},{"buffer":0,"byteOffset":93468,"byteLength":41976,"target":34962}],"accessors":[{"bufferView":0,"componentType":5123,"count":132,"type":"SCALAR"},{"bufferView":1,"componentType":5126,"count":41,"type":"VEC3","min":[-3.131999969482422,-6.349999904632568,-6.349999904632568],"max":[-2.871000051498413,6.349999904632568,6.349999904632568]},{"bufferView":2,"componentType":5126,"count":41,"type":"VEC3"},{"bufferView":3,"componentType":5123,"count":240,"type":"SCALAR"},{"bufferView":4,"componentType":5126,"count":59,"type":"VEC3","min":[1.0779999494552612,-6.349999904632568,-6.349999904632568],"max":[2.868000030517578,6.349999904632568,6.349999904632568]},{"bufferView":5,"componentType":5126,"count":59,"type":"VEC3"},{"bufferView":6,"componentType":5123,"count":966,"type":"SCALAR"},{"bufferView":7,"componentType":5126,"count":203,"type":"VEC3","min":[1.5080000162124634,-6.515999794006348,-6.791999816894531],"max":[3.1589999198913574,6.515999794006348,6.791999816894531]},{"bufferView":8,"componentType":5126,"count":203,"type":"VEC3"},{"bufferView":9,"componentType":5123,"count":20772,"type":"SCALAR"},{"bufferView":10,"componentType":5126,"count":3498,"type":"VEC3","min":[-5.715000152587891,-8.890000343322754,-8.890000343322754],"max":[5.715000152587891,8.890000343322754,8.890000343322754]},{"bufferView":11,"componentType":5126,"count":3498,"type":"VEC3"}]}
