{"asset":{"version":"2.0","generator":"microscope_builder_4 scripts/catalog/dedupe-mounted-lens-housings.mjs"},"scene":0,"scenes":[{"nodes":[0]}],"nodes":[{"mesh":0}],"meshes":[{"primitives":[{"attributes":{"POSITION":1,"NORMAL":2},"indices":0,"mode":4},{"attributes":{"POSITION":4,"NORMAL":5},"indices":3,"mode":4},{"attributes":{"POSITION":7,"NORMAL":8},"indices":6,"mode":4},{"attributes":{"POSITION":10,"NORMAL":11},"indices":9,"mode":4},{"attributes":{"POSITION":13,"NORMAL":14},"indices":12,"mode":4}]}],"buffers":[{"uri":"ac254-040-c-ml.bin","byteLength":220056}],"bufferViews":[{"buffer":0,"byteOffset":0,"byteLength":40296,"target":34963},{"buffer":0,"byteOffset":40296,"byteLength":40296,"target":34962},{"buffer":0,"byteOffset":80592,"byteLength":40296,"target":34962},{"buffer":0,"byteOffset":120888,"byteLength":2304,"target":34963},{"buffer":0,"byteOffset":123192,"byteLength":2328,"target":34962},{"buffer":0,"byteOffset":125520,"byteLength":2328,"target":34962},{"buffer":0,"byteOffset":127848,"byteLength":9420,"target":34963},{"buffer":0,"byteOffset":137268,"byteLength":9444,"target":34962},{"buffer":0,"byteOffset":146712,"byteLength":9444,"target":34962},{"buffer":0,"byteOffset":156156,"byteLength":9984,"target":34963},{"buffer":0,"byteOffset":166140,"byteLength":9984,"target":34962},{"buffer":0,"byteOffset":176124,"byteLength":9984,"target":34962},{"buffer":0,"byteOffset":186108,"byteLength":11724,"target":34963},{"buffer":0,"byteOffset":197832,"byteLength":11112,"target":34962},{"buffer":0,"byteOffset":208944,"byteLength":11112,"target":34962}],"accessors":[{"bufferView":0,"componentType":5123,"count":20148,"type":"SCALAR"},{"bufferView":1,"componentType":5126,"count":3358,"type":"VEC3","min":[-19.884000778198242,-11.814000129699707,-12.28600025177002],"max":[-1.3739999532699585,18.666000366210938,18.194000244140625]},{"bufferView":2,"componentType":5126,"count":3358,"type":"VEC3"},{"bufferView":3,"componentType":5123,"count":1152,"type":"SCALAR"},{"bufferView":4,"componentType":5126,"count":194,"type":"VEC3","min":[-14.774999618530273,-9.272000312805176,-9.744000434875488],"max":[-4.775000095367432,16.125,15.652999877929688]},{"bufferView":5,"componentType":5126,"count":194,"type":"VEC3"},{"bufferView":6,"componentType":5123,"count":4710,"type":"SCALAR"},{"bufferView":7,"componentType":5126,"count":787,"type":"VEC3","min":[-16.575000762939453,-9.272000312805176,-9.744000434875488],"max":[-10.628000259399414,16.125999450683594,15.652999877929688]},{"bufferView":8,"componentType":5126,"count":787,"type":"VEC3"},{"bufferView":9,"componentType":5123,"count":4992,"type":"SCALAR"},{"bufferView":10,"componentType":5126,"count":832,"type":"VEC3","min":[-7.763999938964844,-9.718000411987305,-10.185999870300293],"max":[-5.73199987411499,16.570999145507812,16.099000930786133]},{"bufferView":11,"componentType":5126,"count":832,"type":"VEC3"},{"bufferView":12,"componentType":5123,"count":5862,"type":"SCALAR"},{"bufferView":13,"componentType":5126,"count":926,"type":"VEC3","min":[-16.575000762939453,-9.272000312805176,-9.744000434875488],"max":[-4.775000095367432,16.125999450683594,15.652999877929688]},{"bufferView":14,"componentType":5126,"count":926,"type":"VEC3"}]}
