{"asset":{"version":"2.0","generator":"microscope_builder_4 scripts/catalog/dedupe-mounted-lens-housings.mjs"},"scene":0,"scenes":[{"nodes":[0]}],"nodes":[{"mesh":0}],"meshes":[{"primitives":[{"attributes":{"POSITION":1,"NORMAL":2},"indices":0,"mode":4},{"attributes":{"POSITION":4,"NORMAL":5},"indices":3,"mode":4},{"attributes":{"POSITION":7,"NORMAL":8},"indices":6,"mode":4},{"attributes":{"POSITION":10,"NORMAL":11},"indices":9,"mode":4}]}],"buffers":[{"uri":"ac254-200-b-ml.bin","byteLength":176280}],"bufferViews":[{"buffer":0,"byteOffset":0,"byteLength":1968,"target":34963},{"buffer":0,"byteOffset":1968,"byteLength":1992,"target":34962},{"buffer":0,"byteOffset":3960,"byteLength":1992,"target":34962},{"buffer":0,"byteOffset":5952,"byteLength":3936,"target":34963},{"buffer":0,"byteOffset":9888,"byteLength":3936,"target":34962},{"buffer":0,"byteOffset":13824,"byteLength":3936,"target":34962},{"buffer":0,"byteOffset":17760,"byteLength":9252,"target":34963},{"buffer":0,"byteOffset":27012,"byteLength":9276,"target":34962},{"buffer":0,"byteOffset":36288,"byteLength":9276,"target":34962},{"buffer":0,"byteOffset":45564,"byteLength":43572,"target":34963},{"buffer":0,"byteOffset":89136,"byteLength":43572,"target":34962},{"buffer":0,"byteOffset":132708,"byteLength":43572,"target":34962}],"accessors":[{"bufferView":0,"componentType":5123,"count":984,"type":"SCALAR"},{"bufferView":1,"componentType":5126,"count":166,"type":"VEC3","min":[-0.164000004529953,-12.682999610900879,-12.682999610900879],"max":[3.8359999656677246,12.682999610900879,12.682999610900879]},{"bufferView":2,"componentType":5126,"count":166,"type":"VEC3"},{"bufferView":3,"componentType":5123,"count":1968,"type":"SCALAR"},{"bufferView":4,"componentType":5126,"count":328,"type":"VEC3","min":[3.190000057220459,-13.144000053405762,-13.144000053405762],"max":[5.2220001220703125,13.144000053405762,13.144000053405762]},{"bufferView":5,"componentType":5126,"count":328,"type":"VEC3"},{"bufferView":6,"componentType":5123,"count":4626,"type":"SCALAR"},{"bufferView":7,"componentType":5126,"count":773,"type":"VEC3","min":[-4.203000068664551,-12.682999610900879,-12.699999809265137],"max":[0.656000018119812,12.682999610900879,12.682999610900879]},{"bufferView":8,"componentType":5126,"count":773,"type":"VEC3"},{"bufferView":9,"componentType":5123,"count":21786,"type":"SCALAR"},{"bufferView":10,"componentType":5126,"count":3631,"type":"VEC3","min":[-7.973999977111816,-15.239999771118164,-15.239999771118164],"max":[8.63599967956543,15.239999771118164,15.239999771118164]},{"bufferView":11,"componentType":5126,"count":3631,"type":"VEC3"}]}
