{"asset":{"version":"2.0","generator":"microscope_builder_4 scripts/catalog/dedupe-mounted-lens-housings.mjs"},"scene":0,"scenes":[{"nodes":[0]}],"nodes":[{"mesh":0}],"meshes":[{"primitives":[{"attributes":{"POSITION":1,"NORMAL":2},"indices":0,"mode":4},{"attributes":{"POSITION":4,"NORMAL":5},"indices":3,"mode":4},{"attributes":{"POSITION":7,"NORMAL":8},"indices":6,"mode":4},{"attributes":{"POSITION":10,"NORMAL":11},"indices":9,"mode":4},{"attributes":{"POSITION":13,"NORMAL":14},"indices":12,"mode":4}]}],"buffers":[{"uri":"ac254-050-b-ml.bin","byteLength":231204}],"bufferViews":[{"buffer":0,"byteOffset":0,"byteLength":42612,"target":34963},{"buffer":0,"byteOffset":42612,"byteLength":42612,"target":34962},{"buffer":0,"byteOffset":85224,"byteLength":42612,"target":34962},{"buffer":0,"byteOffset":127836,"byteLength":9984,"target":34963},{"buffer":0,"byteOffset":137820,"byteLength":9984,"target":34962},{"buffer":0,"byteOffset":147804,"byteLength":9984,"target":34962},{"buffer":0,"byteOffset":157788,"byteLength":2208,"target":34963},{"buffer":0,"byteOffset":159996,"byteLength":2232,"target":34962},{"buffer":0,"byteOffset":162228,"byteLength":2232,"target":34962},{"buffer":0,"byteOffset":164460,"byteLength":10224,"target":34963},{"buffer":0,"byteOffset":174684,"byteLength":10248,"target":34962},{"buffer":0,"byteOffset":184932,"byteLength":10248,"target":34962},{"buffer":0,"byteOffset":195180,"byteLength":12432,"target":34963},{"buffer":0,"byteOffset":207612,"byteLength":11796,"target":34962},{"buffer":0,"byteOffset":219408,"byteLength":11796,"target":34962}],"accessors":[{"bufferView":0,"componentType":5123,"count":21306,"type":"SCALAR"},{"bufferView":1,"componentType":5126,"count":3551,"type":"VEC3","min":[-7.810999870300293,-15.239999771118164,-15.239999771118164],"max":[7.810999870300293,15.239999771118164,15.239999771118164]},{"bufferView":2,"componentType":5126,"count":3551,"type":"VEC3"},{"bufferView":3,"componentType":5123,"count":4992,"type":"SCALAR"},{"bufferView":4,"componentType":5126,"count":832,"type":"VEC3","min":[2.615000009536743,-13.144000053405762,-13.144000053405762],"max":[4.646999835968018,13.144000053405762,13.140999794006348]},{"bufferView":5,"componentType":5126,"count":832,"type":"VEC3"},{"bufferView":6,"componentType":5123,"count":1104,"type":"SCALAR"},{"bufferView":7,"componentType":5126,"count":186,"type":"VEC3","min":[-2.7750000953674316,-12.656000137329102,-12.656000137329102],"max":[4.724999904632568,12.656000137329102,12.656000137329102]},{"bufferView":8,"componentType":5126,"count":186,"type":"VEC3"},{"bufferView":9,"componentType":5123,"count":5112,"type":"SCALAR"},{"bufferView":10,"componentType":5126,"count":854,"type":"VEC3","min":[-4.574999809265137,-12.656000137329102,-12.656000137329102],"max":[0.31700000166893005,12.656000137329102,12.699999809265137]},{"bufferView":11,"componentType":5126,"count":854,"type":"VEC3"},{"bufferView":12,"componentType":5123,"count":6216,"type":"SCALAR"},{"bufferView":13,"componentType":5126,"count":983,"type":"VEC3","min":[-4.574999809265137,-12.656000137329102,-12.656000137329102],"max":[4.724999904632568,12.656000137329102,12.699999809265137]},{"bufferView":14,"componentType":5126,"count":983,"type":"VEC3"}]}
