{"asset":{"version":"2.0","generator":"microscope_builder_4 scripts/catalog/dedupe-mounted-lens-housings.mjs"},"scene":0,"scenes":[{"nodes":[0]}],"nodes":[{"mesh":0}],"meshes":[{"primitives":[{"attributes":{"POSITION":1,"NORMAL":2},"indices":0,"mode":4},{"attributes":{"POSITION":4,"NORMAL":5},"indices":3,"mode":4},{"attributes":{"POSITION":7,"NORMAL":8},"indices":6,"mode":4},{"attributes":{"POSITION":10,"NORMAL":11},"indices":9,"mode":4},{"attributes":{"POSITION":13,"NORMAL":14},"indices":12,"mode":4}]}],"buffers":[{"uri":"ac254-040-a-ml.bin","byteLength":210324}],"bufferViews":[{"buffer":0,"byteOffset":0,"byteLength":38556,"target":34963},{"buffer":0,"byteOffset":38556,"byteLength":38556,"target":34962},{"buffer":0,"byteOffset":77112,"byteLength":38556,"target":34962},{"buffer":0,"byteOffset":115668,"byteLength":2304,"target":34963},{"buffer":0,"byteOffset":117972,"byteLength":2328,"target":34962},{"buffer":0,"byteOffset":120300,"byteLength":2328,"target":34962},{"buffer":0,"byteOffset":122628,"byteLength":8700,"target":34963},{"buffer":0,"byteOffset":131328,"byteLength":8724,"target":34962},{"buffer":0,"byteOffset":140052,"byteLength":8724,"target":34962},{"buffer":0,"byteOffset":148776,"byteLength":9984,"target":34963},{"buffer":0,"byteOffset":158760,"byteLength":9984,"target":34962},{"buffer":0,"byteOffset":168744,"byteLength":9984,"target":34962},{"buffer":0,"byteOffset":178728,"byteLength":11004,"target":34963},{"buffer":0,"byteOffset":189732,"byteLength":10296,"target":34962},{"buffer":0,"byteOffset":200028,"byteLength":10296,"target":34962}],"accessors":[{"bufferView":0,"componentType":5123,"count":19278,"type":"SCALAR"},{"bufferView":1,"componentType":5126,"count":3213,"type":"VEC3","min":[-21.700000762939453,-15.951000213623047,-8.517000198364258],"max":[-3.190000057220459,14.529000282287598,21.96299934387207]},{"bufferView":2,"componentType":5126,"count":3213,"type":"VEC3"},{"bufferView":3,"componentType":5123,"count":1152,"type":"SCALAR"},{"bufferView":4,"componentType":5126,"count":194,"type":"VEC3","min":[-16.773000717163086,-13.383999824523926,-5.948999881744385],"max":[-6.7729997634887695,11.961999893188477,19.395999908447266]},{"bufferView":5,"componentType":5126,"count":194,"type":"VEC3"},{"bufferView":6,"componentType":5123,"count":4350,"type":"SCALAR"},{"bufferView":7,"componentType":5126,"count":727,"type":"VEC3","min":[-19.273000717163086,-13.383999824523926,-5.948999881744385],"max":[-12.36400032043457,11.961999893188477,19.395999908447266]},{"bufferView":8,"componentType":5126,"count":727,"type":"VEC3"},{"bufferView":9,"componentType":5123,"count":4992,"type":"SCALAR"},{"bufferView":10,"componentType":5126,"count":832,"type":"VEC3","min":[-9.87399959564209,-13.855999946594238,-6.421000003814697],"max":[-7.8420000076293945,12.432999610900879,19.86400032043457]},{"bufferView":11,"componentType":5126,"count":832,"type":"VEC3"},{"bufferView":12,"componentType":5123,"count":5502,"type":"SCALAR"},{"bufferView":13,"componentType":5126,"count":858,"type":"VEC3","min":[-19.273000717163086,-13.383999824523926,-5.948999881744385],"max":[-6.7729997634887695,11.961999893188477,19.395999908447266]},{"bufferView":14,"componentType":5126,"count":858,"type":"VEC3"}]}
