{"asset":{"version":"2.0","generator":"microscope_builder_4 scripts/catalog/dedupe-mounted-lens-housings.mjs"},"scene":0,"scenes":[{"nodes":[0]}],"nodes":[{"mesh":0}],"meshes":[{"primitives":[{"attributes":{"POSITION":1,"NORMAL":2},"indices":0,"mode":4},{"attributes":{"POSITION":4,"NORMAL":5},"indices":3,"mode":4},{"attributes":{"POSITION":7,"NORMAL":8},"indices":6,"mode":4},{"attributes":{"POSITION":10,"NORMAL":11},"indices":9,"mode":4},{"attributes":{"POSITION":13,"NORMAL":14},"indices":12,"mode":4}]}],"buffers":[{"uri":"ac254-400-a-ml.bin","byteLength":188868}],"bufferViews":[{"buffer":0,"byteOffset":0,"byteLength":39084,"target":34963},{"buffer":0,"byteOffset":39084,"byteLength":39084,"target":34962},{"buffer":0,"byteOffset":78168,"byteLength":39084,"target":34962},{"buffer":0,"byteOffset":117252,"byteLength":1824,"target":34963},{"buffer":0,"byteOffset":119076,"byteLength":1848,"target":34962},{"buffer":0,"byteOffset":120924,"byteLength":1848,"target":34962},{"buffer":0,"byteOffset":122772,"byteLength":8244,"target":34963},{"buffer":0,"byteOffset":131016,"byteLength":8268,"target":34962},{"buffer":0,"byteOffset":139284,"byteLength":8268,"target":34962},{"buffer":0,"byteOffset":147552,"byteLength":3936,"target":34963},{"buffer":0,"byteOffset":151488,"byteLength":3936,"target":34962},{"buffer":0,"byteOffset":155424,"byteLength":3936,"target":34962},{"buffer":0,"byteOffset":159360,"byteLength":10068,"target":34963},{"buffer":0,"byteOffset":169428,"byteLength":9720,"target":34962},{"buffer":0,"byteOffset":179148,"byteLength":9720,"target":34962}],"accessors":[{"bufferView":0,"componentType":5123,"count":19542,"type":"SCALAR"},{"bufferView":1,"componentType":5126,"count":3257,"type":"VEC3","min":[-6.173999786376953,-15.239999771118164,-15.239999771118164],"max":[8.63599967956543,15.239999771118164,15.239999771118164]},{"bufferView":2,"componentType":5126,"count":3257,"type":"VEC3"},{"bufferView":3,"componentType":5123,"count":912,"type":"SCALAR"},{"bufferView":4,"componentType":5126,"count":154,"type":"VEC3","min":[-0.47099998593330383,-12.682000160217285,-12.682000160217285],"max":[3.5290000438690186,12.682000160217285,12.682000160217285]},{"bufferView":5,"componentType":5126,"count":154,"type":"VEC3"},{"bufferView":6,"componentType":5123,"count":4122,"type":"SCALAR"},{"bufferView":7,"componentType":5126,"count":689,"type":"VEC3","min":[-2.4709999561309814,-12.682000160217285,-12.6899995803833],"max":[-0.035999998450279236,12.682000160217285,12.682000160217285]},{"bufferView":8,"componentType":5126,"count":689,"type":"VEC3"},{"bufferView":9,"componentType":5123,"count":1968,"type":"SCALAR"},{"bufferView":10,"componentType":5126,"count":328,"type":"VEC3","min":[3.2170000076293945,-13.144000053405762,-13.144000053405762],"max":[5.249000072479248,13.144000053405762,13.144000053405762]},{"bufferView":11,"componentType":5126,"count":328,"type":"VEC3"},{"bufferView":12,"componentType":5123,"count":5034,"type":"SCALAR"},{"bufferView":13,"componentType":5126,"count":810,"type":"VEC3","min":[-2.4709999561309814,-12.682000160217285,-12.6899995803833],"max":[3.5290000438690186,12.682000160217285,12.682000160217285]},{"bufferView":14,"componentType":5126,"count":810,"type":"VEC3"}]}
