{"asset":{"version":"2.0","generator":"microscope_builder_4 scripts/catalog/dedupe-mounted-lens-housings.mjs"},"scene":0,"scenes":[{"nodes":[0]}],"nodes":[{"mesh":0}],"meshes":[{"primitives":[{"attributes":{"POSITION":1,"NORMAL":2},"indices":0,"mode":4},{"attributes":{"POSITION":4,"NORMAL":5},"indices":3,"mode":4},{"attributes":{"POSITION":7,"NORMAL":8},"indices":6,"mode":4},{"attributes":{"POSITION":10,"NORMAL":11},"indices":9,"mode":4},{"attributes":{"POSITION":13,"NORMAL":14},"indices":12,"mode":4}]}],"buffers":[{"uri":"ac254-150-c-ml.bin","byteLength":219192}],"bufferViews":[{"buffer":0,"byteOffset":0,"byteLength":41040,"target":34963},{"buffer":0,"byteOffset":41040,"byteLength":41040,"target":34962},{"buffer":0,"byteOffset":82080,"byteLength":41040,"target":34962},{"buffer":0,"byteOffset":123120,"byteLength":2016,"target":34963},{"buffer":0,"byteOffset":125136,"byteLength":2040,"target":34962},{"buffer":0,"byteOffset":127176,"byteLength":2040,"target":34962},{"buffer":0,"byteOffset":129216,"byteLength":9168,"target":34963},{"buffer":0,"byteOffset":138384,"byteLength":9192,"target":34962},{"buffer":0,"byteOffset":147576,"byteLength":9192,"target":34962},{"buffer":0,"byteOffset":156768,"byteLength":9984,"target":34963},{"buffer":0,"byteOffset":166752,"byteLength":9984,"target":34962},{"buffer":0,"byteOffset":176736,"byteLength":9984,"target":34962},{"buffer":0,"byteOffset":186720,"byteLength":11184,"target":34963},{"buffer":0,"byteOffset":197904,"byteLength":10644,"target":34962},{"buffer":0,"byteOffset":208548,"byteLength":10644,"target":34962}],"accessors":[{"bufferView":0,"componentType":5123,"count":20520,"type":"SCALAR"},{"bufferView":1,"componentType":5126,"count":3420,"type":"VEC3","min":[-19.63599967956543,-15.951000213623047,-8.517000198364258],"max":[-4.014999866485596,14.529000282287598,21.96299934387207]},{"bufferView":2,"componentType":5126,"count":3420,"type":"VEC3"},{"bufferView":3,"componentType":5123,"count":1008,"type":"SCALAR"},{"bufferView":4,"componentType":5126,"count":170,"type":"VEC3","min":[-12.616999626159668,-13.36400032043457,-5.929999828338623],"max":[-7.617000102996826,11.942000389099121,19.375999450683594]},{"bufferView":5,"componentType":5126,"count":170,"type":"VEC3"},{"bufferView":6,"componentType":5123,"count":4584,"type":"SCALAR"},{"bufferView":7,"componentType":5126,"count":766,"type":"VEC3","min":[-15.826000213623047,-13.41100025177002,-5.929999828338623],"max":[-11.07699966430664,11.942000389099121,19.375999450683594]},{"bufferView":8,"componentType":5126,"count":766,"type":"VEC3"},{"bufferView":9,"componentType":5123,"count":4992,"type":"SCALAR"},{"bufferView":10,"componentType":5126,"count":832,"type":"VEC3","min":[-9.253999710083008,-13.855999946594238,-6.421000003814697],"max":[-7.2220001220703125,12.432999610900879,19.86400032043457]},{"bufferView":11,"componentType":5126,"count":832,"type":"VEC3"},{"bufferView":12,"componentType":5123,"count":5592,"type":"SCALAR"},{"bufferView":13,"componentType":5126,"count":887,"type":"VEC3","min":[-15.826000213623047,-13.41100025177002,-5.929999828338623],"max":[-7.617000102996826,11.942000389099121,19.375999450683594]},{"bufferView":14,"componentType":5126,"count":887,"type":"VEC3"}]}
