{"asset":{"version":"2.0","generator":"microscope_builder_4 scripts/catalog/dedupe-mounted-lens-housings.mjs"},"scene":0,"scenes":[{"nodes":[0]}],"nodes":[{"mesh":0}],"meshes":[{"primitives":[{"attributes":{"POSITION":1,"NORMAL":2},"indices":0,"mode":4},{"attributes":{"POSITION":4,"NORMAL":5},"indices":3,"mode":4},{"attributes":{"POSITION":7,"NORMAL":8},"indices":6,"mode":4},{"attributes":{"POSITION":10,"NORMAL":11},"indices":9,"mode":4},{"attributes":{"POSITION":13,"NORMAL":14},"indices":12,"mode":4}]}],"buffers":[{"uri":"ac254-045-b-ml.bin","byteLength":223164}],"bufferViews":[{"buffer":0,"byteOffset":0,"byteLength":41316,"target":34963},{"buffer":0,"byteOffset":41316,"byteLength":41316,"target":34962},{"buffer":0,"byteOffset":82632,"byteLength":41316,"target":34962},{"buffer":0,"byteOffset":123948,"byteLength":9984,"target":34963},{"buffer":0,"byteOffset":133932,"byteLength":9984,"target":34962},{"buffer":0,"byteOffset":143916,"byteLength":9984,"target":34962},{"buffer":0,"byteOffset":153900,"byteLength":2232,"target":34963},{"buffer":0,"byteOffset":156132,"byteLength":2256,"target":34962},{"buffer":0,"byteOffset":158388,"byteLength":2256,"target":34962},{"buffer":0,"byteOffset":160644,"byteLength":9516,"target":34963},{"buffer":0,"byteOffset":170160,"byteLength":9540,"target":34962},{"buffer":0,"byteOffset":179700,"byteLength":9540,"target":34962},{"buffer":0,"byteOffset":189240,"byteLength":11748,"target":34963},{"buffer":0,"byteOffset":200988,"byteLength":11088,"target":34962},{"buffer":0,"byteOffset":212076,"byteLength":11088,"target":34962}],"accessors":[{"bufferView":0,"componentType":5123,"count":20658,"type":"SCALAR"},{"bufferView":1,"componentType":5126,"count":3443,"type":"VEC3","min":[-7.073999881744385,-15.239999771118164,-15.239999771118164],"max":[8.63599967956543,15.239999771118164,15.239999771118164]},{"bufferView":2,"componentType":5126,"count":3443,"type":"VEC3"},{"bufferView":3,"componentType":5123,"count":4992,"type":"SCALAR"},{"bufferView":4,"componentType":5126,"count":832,"type":"VEC3","min":[3.134000062942505,-13.144000053405762,-13.144000053405762],"max":[5.165999889373779,13.144000053405762,13.140999794006348]},{"bufferView":5,"componentType":5126,"count":832,"type":"VEC3"},{"bufferView":6,"componentType":5123,"count":1116,"type":"SCALAR"},{"bufferView":7,"componentType":5126,"count":188,"type":"VEC3","min":[-2.2320001125335693,-12.656000137329102,-12.656000137329102],"max":[5.567999839782715,12.656000137329102,12.656000137329102]},{"bufferView":8,"componentType":5126,"count":188,"type":"VEC3"},{"bufferView":9,"componentType":5123,"count":4758,"type":"SCALAR"},{"bufferView":10,"componentType":5126,"count":795,"type":"VEC3","min":[-3.8320000171661377,-12.656000137329102,-12.656000137329102],"max":[1.1430000066757202,12.656000137329102,12.699999809265137]},{"bufferView":11,"componentType":5126,"count":795,"type":"VEC3"},{"bufferView":12,"componentType":5123,"count":5874,"type":"SCALAR"},{"bufferView":13,"componentType":5126,"count":924,"type":"VEC3","min":[-3.8320000171661377,-12.656000137329102,-12.656000137329102],"max":[5.567999839782715,12.656000137329102,12.699999809265137]},{"bufferView":14,"componentType":5126,"count":924,"type":"VEC3"}]}
