{"asset":{"version":"2.0","generator":"microscope_builder_4 scripts/catalog/dedupe-mounted-lens-housings.mjs"},"scene":0,"scenes":[{"nodes":[0]}],"nodes":[{"mesh":0}],"meshes":[{"primitives":[{"attributes":{"POSITION":1,"NORMAL":2},"indices":0,"mode":4},{"attributes":{"POSITION":4,"NORMAL":5},"indices":3,"mode":4},{"attributes":{"POSITION":7,"NORMAL":8},"indices":6,"mode":4},{"attributes":{"POSITION":10,"NORMAL":11},"indices":9,"mode":4},{"attributes":{"POSITION":13,"NORMAL":14},"indices":12,"mode":4}]}],"buffers":[{"uri":"ac254-060-a-ml.bin","byteLength":221988}],"bufferViews":[{"buffer":0,"byteOffset":0,"byteLength":40716,"target":34963},{"buffer":0,"byteOffset":40716,"byteLength":40716,"target":34962},{"buffer":0,"byteOffset":81432,"byteLength":40716,"target":34962},{"buffer":0,"byteOffset":122148,"byteLength":2112,"target":34963},{"buffer":0,"byteOffset":124260,"byteLength":2136,"target":34962},{"buffer":0,"byteOffset":126396,"byteLength":2136,"target":34962},{"buffer":0,"byteOffset":128532,"byteLength":9732,"target":34963},{"buffer":0,"byteOffset":138264,"byteLength":9756,"target":34962},{"buffer":0,"byteOffset":148020,"byteLength":9756,"target":34962},{"buffer":0,"byteOffset":157776,"byteLength":9984,"target":34963},{"buffer":0,"byteOffset":167760,"byteLength":9984,"target":34962},{"buffer":0,"byteOffset":177744,"byteLength":9984,"target":34962},{"buffer":0,"byteOffset":187728,"byteLength":11844,"target":34963},{"buffer":0,"byteOffset":199572,"byteLength":11208,"target":34962},{"buffer":0,"byteOffset":210780,"byteLength":11208,"target":34962}],"accessors":[{"bufferView":0,"componentType":5123,"count":20358,"type":"SCALAR"},{"bufferView":1,"componentType":5126,"count":3393,"type":"VEC3","min":[-9.173999786376953,-15.239999771118164,-15.239999771118164],"max":[8.63599967956543,15.239999771118164,15.239999771118164]},{"bufferView":2,"componentType":5126,"count":3393,"type":"VEC3"},{"bufferView":3,"componentType":5123,"count":1056,"type":"SCALAR"},{"bufferView":4,"componentType":5126,"count":178,"type":"VEC3","min":[-3.1760001182556152,-12.699999809265137,-12.699999809265137],"max":[4.823999881744385,12.699999809265137,12.699999809265137]},{"bufferView":5,"componentType":5126,"count":178,"type":"VEC3"},{"bufferView":6,"componentType":5123,"count":4866,"type":"SCALAR"},{"bufferView":7,"componentType":5126,"count":813,"type":"VEC3","min":[-5.676000118255615,-12.699999809265137,-12.699999809265137],"max":[0.07500000298023224,12.699999809265137,12.699999809265137]},{"bufferView":8,"componentType":5126,"count":813,"type":"VEC3"},{"bufferView":9,"componentType":5123,"count":4992,"type":"SCALAR"},{"bufferView":10,"componentType":5126,"count":832,"type":"VEC3","min":[3.1449999809265137,-13.144000053405762,-13.144000053405762],"max":[5.177000045776367,13.144000053405762,13.140999794006348]},{"bufferView":11,"componentType":5126,"count":832,"type":"VEC3"},{"bufferView":12,"componentType":5123,"count":5922,"type":"SCALAR"},{"bufferView":13,"componentType":5126,"count":934,"type":"VEC3","min":[-5.676000118255615,-12.699999809265137,-12.699999809265137],"max":[4.823999881744385,12.699999809265137,12.699999809265137]},{"bufferView":14,"componentType":5126,"count":934,"type":"VEC3"}]}
