#VRML V2.0 utf8
WorldInfo {
  title "Exported triangle mesh to VRML97"
  info ["Created by FreeCAD"
        "<https://www.freecad.org>"]
}

Transform {
  scale 1 1 1
  rotation 0 0 1 0
  scaleOrientation 0 0 1 0
  center 0.000 0.000 0.000
  translation 0.000 0.000 0.000
  children
    Shape { 
      appearance
      Appearance {
        material
        Material {
          diffuseColor 0.8 0.8 0.8
        }
      }
      geometry
      IndexedFaceSet {
        coord
        Coordinate {
          point [
            1.065 0.375 1.445,
            0.993 0.324 1.495,
            0.993 0.374 1.445,
            1.067 0.325 1.495,
            1.137 0.381 1.445,
            1.142 0.331 1.495,
            1.209 0.390 1.445,
            1.216 0.340 1.495,
            1.280 0.402 1.445,
            1.290 0.353 1.495,
            1.350 0.418 1.445,
            1.363 0.370 1.495,
            1.420 0.438 1.445,
            1.435 0.390 1.495,
            1.489 0.461 1.445,
            1.506 0.414 1.495,
            1.556 0.487 1.445,
            1.575 0.441 1.495,
            1.622 0.517 1.445,
            1.643 0.472 1.495,
            1.686 0.550 1.445,
            1.710 0.506 1.495,
            1.749 0.586 1.445,
            1.775 0.544 1.495,
            1.809 0.625 1.445,
            1.838 0.584 1.495,
            1.868 0.668 1.445,
            1.898 0.628 1.495,
            1.925 0.713 1.445,
            1.957 0.674 1.495,
            1.979 0.761 1.445,
            2.013 0.724 1.495,
            2.031 0.811 1.445,
            2.066 0.776 1.495,
            2.080 0.864 1.445,
            2.117 0.831 1.495,
            2.126 0.919 1.445,
            2.165 0.888 1.495,
            2.170 0.977 1.445,
            2.211 0.948 1.495,
            2.211 1.037 1.445,
            2.253 1.010 1.495,
            2.248 1.099 1.445,
            2.292 1.074 1.495,
            2.283 1.162 1.445,
            2.327 1.139 1.495,
            2.314 1.227 1.445,
            2.360 1.207 1.495,
            2.342 1.294 1.445,
            2.389 1.275 1.495,
            2.367 1.362 1.445,
            2.415 1.346 1.495,
            2.388 1.431 1.445,
            2.437 1.417 1.495,
            2.406 1.501 1.445,
            2.455 1.490 1.495,
            2.421 1.572 1.445,
            2.470 1.563 1.495,
            2.431 1.643 1.445,
            2.481 1.637 1.495,
            2.439 1.715 1.445,
            2.488 1.711 1.495,
            2.492 1.786 1.495,
            2.442 1.787 1.445,
            2.442 1.860 1.445,
            2.492 1.861 1.495,
            2.439 1.932 1.445,
            2.488 1.936 1.495,
            2.431 2.004 1.445,
            2.481 2.010 1.495,
            2.421 2.075 1.445,
            2.470 2.084 1.495,
            2.406 2.146 1.445,
            2.455 2.157 1.495,
            2.437 2.230 1.495,
            2.388 2.216 1.445,
            2.367 2.285 1.445,
            2.415 2.301 1.495,
            2.389 2.372 1.495,
            2.342 2.353 1.445,
            2.360 2.440 1.495,
            2.314 2.420 1.445,
            2.327 2.508 1.495,
            2.283 2.485 1.445,
            2.292 2.574 1.495,
            2.248 2.549 1.445,
            2.253 2.637 1.495,
            2.211 2.610 1.445,
            2.170 2.670 1.445,
            2.211 2.699 1.495,
            2.165 2.759 1.495,
            2.126 2.728 1.445,
            2.080 2.783 1.445,
            2.117 2.816 1.495,
            2.066 2.871 1.495,
            2.031 2.836 1.445,
            2.013 2.923 1.495,
            1.979 2.886 1.445,
            1.957 2.973 1.495,
            1.925 2.934 1.445,
            1.898 3.019 1.495,
            1.868 2.979 1.445,
            1.838 3.063 1.495,
            1.809 3.022 1.445,
            1.775 3.103 1.495,
            1.749 3.061 1.445,
            1.710 3.141 1.495,
            1.686 3.097 1.445,
            1.643 3.175 1.495,
            1.622 3.130 1.445,
            1.575 3.206 1.495,
            1.556 3.160 1.445,
            1.506 3.233 1.495,
            1.489 3.186 1.445,
            1.435 3.257 1.495,
            1.420 3.209 1.445,
            1.350 3.229 1.445,
            1.363 3.277 1.495,
            1.290 3.294 1.495,
            1.280 3.245 1.445,
            1.216 3.307 1.495,
            1.209 3.257 1.445,
            1.137 3.266 1.445,
            1.142 3.316 1.495,
            1.067 3.322 1.495,
            1.065 3.272 1.445,
            0.993 3.324 1.495,
            0.993 3.274 1.445,
            0.993 0.509 2.652,
            0.920 0.375 2.585,
            0.993 0.374 2.585,
            0.848 0.381 2.585,
            0.920 3.272 2.585,
            0.993 3.138 2.652,
            0.993 3.274 2.585,
            0.848 3.266 2.585,
            0.777 0.473 2.627,
            0.635 0.418 2.585,
            0.705 0.402 2.585,
            0.777 0.390 2.585,
            0.777 0.669 2.714,
            0.993 0.647 2.713,
            0.993 0.788 2.766,
            0.563 0.579 2.651,
            0.429 0.487 2.585,
            0.497 0.461 2.585,
            0.565 0.438 2.585,
            0.777 0.872 2.787,
            0.993 0.931 2.813,
            0.563 0.778 2.731,
            0.777 1.078 2.846,
            0.993 1.077 2.853,
            0.993 1.224 2.886,
            0.351 0.692 2.658,
            0.176 0.625 2.585,
            0.237 0.586 2.585,
            0.299 0.550 2.585,
            0.364 0.517 2.585,
            0.563 0.981 2.797,
            0.777 1.289 2.891,
            0.993 1.372 2.912,
            0.351 0.890 2.730,
            0.563 1.188 2.848,
            0.142 0.808 2.647,
            -0.045 0.811 2.585,
            0.006 0.761 2.585,
            0.061 0.713 2.585,
            0.117 0.668 2.585,
            0.777 1.502 2.920,
            0.993 1.522 2.930,
            0.993 1.673 2.941,
            0.351 1.093 2.788,
            0.563 1.398 2.885,
            0.142 1.005 2.711,
            0.777 1.716 2.935,
            0.993 1.824 2.945,
            0.351 1.299 2.832,
            -0.063 0.926 2.618,
            -0.185 0.977 2.585,
            -0.141 0.919 2.585,
            -0.095 0.864 2.585,
            0.563 1.610 2.907,
            0.142 1.206 2.761,
            0.777 1.931 2.935,
            0.993 1.974 2.941,
            0.351 1.508 2.861,
            -0.063 1.121 2.673,
            -0.263 1.099 2.585,
            -0.225 1.037 2.585,
            0.563 1.824 2.915,
            0.142 1.410 2.797,
            0.777 2.145 2.920,
            0.993 2.125 2.930,
            0.993 2.275 2.912,
            0.351 1.718 2.876,
            -0.063 1.319 2.715,
            0.563 2.037 2.907,
            0.142 1.616 2.818,
            -0.263 1.237 2.618,
            -0.357 1.294 2.585,
            -0.329 1.227 2.585,
            -0.298 1.162 2.585,
            0.777 2.358 2.891,
            0.993 2.423 2.886,
            0.351 1.929 2.876,
            -0.063 1.520 2.744,
            0.563 2.249 2.885,
            0.142 1.824 2.826,
            -0.263 1.431 2.652,
            -0.421 1.501 2.585,
            -0.403 1.431 2.585,
            -0.382 1.362 2.585,
            0.777 2.569 2.846,
            0.993 2.571 2.853,
            0.993 2.716 2.813,
            0.351 2.139 2.861,
            -0.063 1.722 2.758,
            0.563 2.459 2.848,
            0.142 2.031 2.818,
            -0.263 1.627 2.672,
            -0.453 1.715 2.585,
            -0.446 1.643 2.585,
            -0.435 1.572 2.585,
            0.777 2.775 2.787,
            0.993 2.859 2.766,
            0.351 2.348 2.832,
            -0.063 1.925 2.758,
            0.563 2.666 2.797,
            0.142 2.237 2.797,
            -0.263 1.824 2.679,
            -0.453 1.932 2.585,
            -0.457 1.860 2.585,
            -0.457 1.787 2.585,
            0.777 2.978 2.714,
            0.993 3.000 2.713,
            0.351 2.554 2.788,
            -0.063 2.127 2.744,
            0.563 2.869 2.731,
            0.142 2.441 2.761,
            -0.263 2.020 2.672,
            -0.421 2.146 2.585,
            -0.435 2.075 2.585,
            -0.446 2.004 2.585,
            0.777 3.174 2.627,
            0.777 3.257 2.585,
            0.705 3.245 2.585,
            0.635 3.229 2.585,
            0.351 2.757 2.730,
            -0.063 2.328 2.715,
            0.563 3.068 2.651,
            0.565 3.209 2.585,
            0.497 3.186 2.585,
            0.429 3.160 2.585,
            0.142 2.642 2.711,
            -0.263 2.216 2.652,
            -0.357 2.353 2.585,
            -0.382 2.285 2.585,
            -0.403 2.216 2.585,
            0.351 2.955 2.658,
            0.364 3.130 2.585,
            0.299 3.097 2.585,
            0.237 3.061 2.585,
            0.176 3.022 2.585,
            -0.063 2.526 2.673,
            -0.185 2.670 2.585,
            -0.225 2.610 2.585,
            -0.263 2.549 2.585,
            0.142 2.839 2.647,
            0.117 2.979 2.585,
            0.061 2.934 2.585,
            0.006 2.886 2.585,
            -0.045 2.836 2.585,
            -0.263 2.410 2.618,
            -0.298 2.485 2.585,
            -0.329 2.420 2.585,
            -0.063 2.721 2.618,
            -0.095 2.783 2.585,
            -0.141 2.728 2.585,
            1.067 3.322 2.535,
            0.993 3.324 2.535,
            1.065 3.272 2.585,
            1.142 3.316 2.535,
            1.137 3.266 2.585,
            1.216 3.307 2.535,
            1.209 3.257 2.585,
            1.290 3.294 2.535,
            1.280 3.245 2.585,
            1.363 3.277 2.535,
            1.350 3.229 2.585,
            1.435 3.257 2.535,
            1.420 3.209 2.585,
            1.506 3.233 2.535,
            1.489 3.186 2.585,
            1.575 3.206 2.535,
            1.556 3.160 2.585,
            1.643 3.175 2.535,
            1.622 3.130 2.585,
            1.710 3.141 2.535,
            1.686 3.097 2.585,
            1.775 3.103 2.535,
            1.749 3.061 2.585,
            1.838 3.063 2.535,
            1.809 3.022 2.585,
            1.898 3.019 2.535,
            1.868 2.979 2.585,
            1.957 2.973 2.535,
            1.925 2.934 2.585,
            2.013 2.923 2.535,
            1.979 2.886 2.585,
            2.066 2.871 2.535,
            2.031 2.836 2.585,
            2.117 2.816 2.535,
            2.080 2.783 2.585,
            2.126 2.728 2.585,
            2.165 2.759 2.535,
            2.211 2.699 2.535,
            2.170 2.670 2.585,
            2.253 2.637 2.535,
            2.211 2.610 2.585,
            2.248 2.549 2.585,
            2.292 2.574 2.535,
            2.327 2.508 2.535,
            2.283 2.485 2.585,
            2.314 2.420 2.585,
            2.360 2.440 2.535,
            2.389 2.372 2.535,
            2.342 2.353 2.585,
            2.367 2.285 2.585,
            2.415 2.301 2.535,
            2.437 2.230 2.535,
            2.388 2.216 2.585,
            2.406 2.146 2.585,
            2.455 2.157 2.535,
            2.470 2.084 2.535,
            2.421 2.075 2.585,
            2.481 2.010 2.535,
            2.431 2.004 2.585,
            2.439 1.932 2.585,
            2.488 1.936 2.535,
            2.492 1.861 2.535,
            2.442 1.860 2.585,
            2.492 1.786 2.535,
            2.442 1.787 2.585,
            2.488 1.711 2.535,
            2.439 1.715 2.585,
            2.431 1.643 2.585,
            2.481 1.637 2.535,
            2.470 1.563 2.535,
            2.421 1.572 2.585,
            2.455 1.490 2.535,
            2.406 1.501 2.585,
            2.437 1.417 2.535,
            2.388 1.431 2.585,
            2.367 1.362 2.585,
            2.415 1.346 2.535,
            2.389 1.275 2.535,
            2.342 1.294 2.585,
            2.360 1.207 2.535,
            2.314 1.227 2.585,
            2.327 1.139 2.535,
            2.283 1.162 2.585,
            2.292 1.074 2.535,
            2.248 1.099 2.585,
            2.253 1.010 2.535,
            2.211 1.037 2.585,
            2.211 0.948 2.535,
            2.170 0.977 2.585,
            2.165 0.888 2.535,
            2.126 0.919 2.585,
            2.117 0.831 2.535,
            2.080 0.864 2.585,
            2.066 0.776 2.535,
            2.031 0.811 2.585,
            2.013 0.724 2.535,
            1.979 0.761 2.585,
            1.957 0.674 2.535,
            1.925 0.713 2.585,
            1.898 0.628 2.535,
            1.868 0.668 2.585,
            1.838 0.584 2.535,
            1.809 0.625 2.585,
            1.775 0.544 2.535,
            1.749 0.586 2.585,
            1.710 0.506 2.535,
            1.686 0.550 2.585,
            1.643 0.472 2.535,
            1.622 0.517 2.585,
            1.575 0.441 2.535,
            1.556 0.487 2.585,
            1.506 0.414 2.535,
            1.489 0.461 2.585,
            1.435 0.390 2.535,
            1.420 0.438 2.585,
            1.350 0.418 2.585,
            1.363 0.370 2.535,
            1.280 0.402 2.585,
            1.290 0.353 2.535,
            1.216 0.340 2.535,
            1.209 0.390 2.585,
            1.142 0.331 2.535,
            1.137 0.381 2.585,
            1.065 0.375 2.585,
            1.067 0.325 2.535,
            0.993 0.324 2.535,
            0.117 2.979 1.445,
            0.176 3.022 1.445,
            0.061 2.934 1.445,
            -0.141 2.728 1.445,
            -0.225 2.610 1.445,
            -0.185 2.670 1.445,
            -0.095 2.783 1.445,
            -0.045 2.836 1.445,
            0.635 3.229 1.445,
            0.006 2.886 1.445,
            0.237 3.061 1.445,
            0.299 3.097 1.445,
            0.364 3.130 1.445,
            0.429 3.160 1.445,
            0.497 3.186 1.445,
            0.565 3.209 1.445,
            -0.382 2.285 1.445,
            -0.421 2.146 1.445,
            -0.403 2.216 1.445,
            -0.357 2.353 1.445,
            -0.329 2.420 1.445,
            0.705 3.245 1.445,
            0.777 3.257 1.445,
            -0.446 2.004 1.445,
            -0.457 1.860 1.445,
            -0.453 1.932 1.445,
            -0.435 2.075 1.445,
            -0.457 1.787 1.445,
            -0.446 1.643 1.445,
            -0.453 1.715 1.445,
            -0.421 1.501 1.445,
            -0.382 1.362 1.445,
            -0.403 1.431 1.445,
            -0.435 1.572 1.445,
            -0.329 1.227 1.445,
            -0.357 1.294 1.445,
            -0.263 1.099 1.445,
            -0.298 1.162 1.445,
            -0.225 1.037 1.445,
            -0.185 0.977 1.445,
            -0.298 2.485 1.445,
            -0.263 2.549 1.445,
            0.006 0.761 1.445,
            0.117 0.668 1.445,
            0.061 0.713 1.445,
            -0.045 0.811 1.445,
            -0.095 0.864 1.445,
            -0.141 0.919 1.445,
            0.237 0.586 1.445,
            0.176 0.625 1.445,
            0.848 3.266 1.445,
            0.920 3.272 1.445,
            0.299 0.550 1.445,
            0.705 0.402 1.445,
            0.565 0.438 1.445,
            0.635 0.418 1.445,
            0.497 0.461 1.445,
            0.429 0.487 1.445,
            0.364 0.517 1.445,
            0.777 0.390 1.445,
            0.848 0.381 1.445,
            0.920 0.375 1.445,
            0.918 3.322 2.535,
            0.918 3.322 1.495,
            0.843 3.316 2.535,
            0.843 3.316 1.495,
            0.769 3.307 2.535,
            0.769 3.307 1.495,
            0.695 3.294 2.535,
            0.695 3.294 1.495,
            0.623 3.277 2.535,
            0.623 3.277 1.495,
            0.551 3.257 1.495,
            0.551 3.257 2.535,
            0.480 3.233 2.535,
            0.480 3.233 1.495,
            0.410 3.206 1.495,
            0.410 3.206 2.535,
            0.342 3.175 1.495,
            0.342 3.175 2.535,
            0.275 3.141 2.535,
            0.275 3.141 1.495,
            0.211 3.103 2.535,
            0.211 3.103 1.495,
            0.148 3.063 2.535,
            0.148 3.063 1.495,
            0.087 3.019 2.535,
            0.087 3.019 1.495,
            0.028 2.973 2.535,
            0.028 2.973 1.495,
            -0.028 2.923 2.535,
            -0.028 2.923 1.495,
            -0.081 2.871 2.535,
            -0.081 2.871 1.495,
            -0.132 2.816 2.535,
            -0.132 2.816 1.495,
            -0.180 2.759 1.495,
            -0.180 2.759 2.535,
            -0.225 2.699 2.535,
            -0.225 2.699 1.495,
            -0.267 2.637 2.535,
            -0.267 2.637 1.495,
            -0.306 2.574 2.535,
            -0.306 2.574 1.495,
            -0.342 2.508 2.535,
            -0.342 2.508 1.495,
            -0.375 2.440 2.535,
            -0.375 2.440 1.495,
            -0.404 2.372 1.495,
            -0.404 2.372 2.535,
            -0.429 2.301 1.495,
            -0.429 2.301 2.535,
            -0.451 2.230 2.535,
            -0.451 2.230 1.495,
            -0.470 2.157 1.495,
            -0.470 2.157 2.535,
            -0.485 2.084 2.535,
            -0.485 2.084 1.495,
            -0.496 2.010 1.495,
            -0.496 2.010 2.535,
            -0.503 1.936 1.495,
            -0.503 1.936 2.535,
            -0.507 1.861 2.535,
            -0.507 1.861 1.495,
            -0.507 1.786 1.495,
            -0.507 1.786 2.535,
            -0.503 1.711 2.535,
            -0.503 1.711 1.495,
            -0.496 1.637 2.535,
            -0.496 1.637 1.495,
            -0.485 1.563 2.535,
            -0.485 1.563 1.495,
            -0.470 1.490 2.535,
            -0.470 1.490 1.495,
            -0.451 1.417 2.535,
            -0.451 1.417 1.495,
            -0.429 1.346 2.535,
            -0.429 1.346 1.495,
            -0.404 1.275 2.535,
            -0.404 1.275 1.495,
            -0.375 1.207 2.535,
            -0.375 1.207 1.495,
            -0.342 1.139 2.535,
            -0.342 1.139 1.495,
            -0.306 1.074 2.535,
            -0.306 1.074 1.495,
            -0.267 1.010 2.535,
            -0.267 1.010 1.495,
            -0.225 0.948 2.535,
            -0.225 0.948 1.495,
            -0.180 0.888 2.535,
            -0.180 0.888 1.495,
            -0.132 0.831 2.535,
            -0.132 0.831 1.495,
            -0.081 0.776 2.535,
            -0.081 0.776 1.495,
            -0.028 0.724 2.535,
            -0.028 0.724 1.495,
            0.028 0.674 2.535,
            0.028 0.674 1.495,
            0.087 0.628 2.535,
            0.087 0.628 1.495,
            0.148 0.584 2.535,
            0.148 0.584 1.495,
            0.211 0.544 2.535,
            0.211 0.544 1.495,
            0.275 0.506 2.535,
            0.275 0.506 1.495,
            0.342 0.472 2.535,
            0.342 0.472 1.495,
            0.410 0.441 2.535,
            0.410 0.441 1.495,
            0.480 0.414 2.535,
            0.480 0.414 1.495,
            0.551 0.390 2.535,
            0.551 0.390 1.495,
            0.623 0.370 2.535,
            0.623 0.370 1.495,
            0.695 0.353 2.535,
            0.695 0.353 1.495,
            0.769 0.340 2.535,
            0.769 0.340 1.495,
            0.843 0.331 2.535,
            0.843 0.331 1.495,
            0.918 0.325 2.535,
            0.918 0.325 1.495,
            2.248 1.140 2.596,
            1.843 0.711 2.610,
            2.048 1.023 2.647,
            1.634 0.595 2.617,
            2.248 1.333 2.636,
            1.843 0.906 2.681,
            1.422 0.483 2.607,
            2.048 1.220 2.696,
            1.634 0.790 2.696,
            2.248 1.528 2.664,
            1.843 1.105 2.738,
            1.422 0.678 2.693,
            2.048 1.419 2.731,
            1.634 0.991 2.761,
            1.208 0.570 2.672,
            2.248 1.725 2.677,
            1.843 1.308 2.781,
            1.422 0.878 2.766,
            2.048 1.621 2.752,
            1.634 1.195 2.812,
            1.208 0.770 2.752,
            2.248 1.922 2.677,
            1.843 1.513 2.809,
            1.422 1.084 2.824,
            2.048 1.824 2.759,
            1.634 1.403 2.848,
            1.208 0.974 2.818,
            2.248 2.119 2.664,
            1.843 1.720 2.824,
            1.422 1.293 2.868,
            2.048 2.026 2.752,
            1.634 1.613 2.870,
            1.208 1.183 2.870,
            2.248 2.314 2.636,
            1.843 1.927 2.824,
            1.422 1.504 2.898,
            2.048 2.228 2.731,
            1.634 1.824 2.877,
            1.208 1.395 2.907,
            2.248 2.507 2.596,
            1.843 2.134 2.809,
            1.422 1.717 2.913,
            2.048 2.427 2.696,
            1.634 2.034 2.870,
            1.208 1.609 2.930,
            1.843 2.339 2.781,
            1.422 1.930 2.913,
            2.048 2.624 2.647,
            1.634 2.244 2.848,
            1.208 1.824 2.937,
            1.843 2.542 2.738,
            1.422 2.143 2.898,
            1.634 2.452 2.812,
            1.208 2.038 2.930,
            1.843 2.741 2.681,
            1.422 2.354 2.868,
            1.634 2.656 2.761,
            1.208 2.252 2.907,
            1.843 2.936 2.610,
            1.422 2.563 2.824,
            1.634 2.857 2.696,
            1.208 2.464 2.870,
            1.422 2.769 2.766,
            1.634 3.052 2.617,
            1.208 2.673 2.818,
            1.422 2.969 2.693,
            1.208 2.877 2.752,
            1.422 3.164 2.607,
            1.208 3.077 2.672
          ]
        }
        coordIndex [
          0, 1, 2, -1,
          3, 1, 0, -1,
          4, 3, 0, -1,
          5, 3, 4, -1,
          6, 5, 4, -1,
          7, 5, 6, -1,
          8, 7, 6, -1,
          9, 7, 8, -1,
          10, 9, 8, -1,
          11, 9, 10, -1,
          12, 11, 10, -1,
          13, 11, 12, -1,
          14, 13, 12, -1,
          15, 13, 14, -1,
          16, 15, 14, -1,
          17, 15, 16, -1,
          18, 17, 16, -1,
          19, 17, 18, -1,
          20, 19, 18, -1,
          21, 19, 20, -1,
          22, 21, 20, -1,
          23, 21, 22, -1,
          24, 23, 22, -1,
          25, 23, 24, -1,
          26, 25, 24, -1,
          27, 25, 26, -1,
          28, 27, 26, -1,
          29, 27, 28, -1,
          30, 29, 28, -1,
          31, 29, 30, -1,
          32, 31, 30, -1,
          33, 31, 32, -1,
          34, 33, 32, -1,
          35, 33, 34, -1,
          36, 35, 34, -1,
          37, 35, 36, -1,
          38, 37, 36, -1,
          39, 37, 38, -1,
          40, 39, 38, -1,
          41, 39, 40, -1,
          42, 41, 40, -1,
          43, 41, 42, -1,
          44, 43, 42, -1,
          45, 43, 44, -1,
          46, 45, 44, -1,
          47, 45, 46, -1,
          48, 47, 46, -1,
          49, 47, 48, -1,
          50, 49, 48, -1,
          51, 49, 50, -1,
          52, 51, 50, -1,
          53, 51, 52, -1,
          54, 53, 52, -1,
          55, 53, 54, -1,
          56, 55, 54, -1,
          57, 55, 56, -1,
          58, 57, 56, -1,
          59, 57, 58, -1,
          60, 59, 58, -1,
          61, 59, 60, -1,
          62, 60, 63, -1,
          62, 61, 60, -1,
          64, 62, 63, -1,
          65, 62, 64, -1,
          66, 65, 64, -1,
          67, 65, 66, -1,
          68, 67, 66, -1,
          69, 67, 68, -1,
          70, 69, 68, -1,
          71, 69, 70, -1,
          72, 71, 70, -1,
          73, 71, 72, -1,
          74, 72, 75, -1,
          74, 73, 72, -1,
          76, 74, 75, -1,
          77, 74, 76, -1,
          78, 76, 79, -1,
          78, 77, 76, -1,
          80, 79, 81, -1,
          80, 78, 79, -1,
          82, 81, 83, -1,
          82, 80, 81, -1,
          84, 83, 85, -1,
          84, 82, 83, -1,
          86, 85, 87, -1,
          86, 84, 85, -1,
          88, 86, 87, -1,
          89, 86, 88, -1,
          90, 89, 88, -1,
          90, 88, 91, -1,
          92, 90, 91, -1,
          93, 90, 92, -1,
          94, 93, 92, -1,
          94, 92, 95, -1,
          96, 95, 97, -1,
          96, 94, 95, -1,
          98, 97, 99, -1,
          98, 96, 97, -1,
          100, 99, 101, -1,
          100, 98, 99, -1,
          102, 101, 103, -1,
          102, 100, 101, -1,
          104, 103, 105, -1,
          104, 102, 103, -1,
          106, 105, 107, -1,
          106, 104, 105, -1,
          108, 107, 109, -1,
          108, 106, 107, -1,
          110, 109, 111, -1,
          110, 108, 109, -1,
          112, 111, 113, -1,
          112, 110, 111, -1,
          114, 113, 115, -1,
          114, 112, 113, -1,
          116, 114, 115, -1,
          117, 114, 116, -1,
          118, 116, 119, -1,
          118, 117, 116, -1,
          120, 119, 121, -1,
          120, 118, 119, -1,
          122, 120, 121, -1,
          123, 120, 122, -1,
          124, 122, 125, -1,
          124, 123, 122, -1,
          126, 125, 127, -1,
          126, 124, 125, -1,
          128, 129, 130, -1,
          131, 129, 128, -1,
          132, 133, 134, -1,
          135, 133, 132, -1,
          136, 137, 138, -1,
          136, 138, 139, -1,
          136, 139, 131, -1,
          136, 131, 128, -1,
          140, 136, 128, -1,
          140, 128, 141, -1,
          140, 141, 142, -1,
          143, 137, 136, -1,
          143, 136, 140, -1,
          143, 144, 145, -1,
          143, 145, 146, -1,
          143, 146, 137, -1,
          147, 140, 142, -1,
          147, 142, 148, -1,
          149, 140, 147, -1,
          149, 143, 140, -1,
          150, 147, 148, -1,
          150, 148, 151, -1,
          150, 151, 152, -1,
          153, 144, 143, -1,
          153, 154, 155, -1,
          153, 155, 156, -1,
          153, 156, 157, -1,
          153, 157, 144, -1,
          153, 143, 149, -1,
          158, 149, 147, -1,
          158, 147, 150, -1,
          159, 150, 152, -1,
          159, 152, 160, -1,
          161, 149, 158, -1,
          161, 153, 149, -1,
          162, 150, 159, -1,
          162, 158, 150, -1,
          163, 154, 153, -1,
          163, 153, 161, -1,
          163, 164, 165, -1,
          163, 165, 166, -1,
          163, 166, 167, -1,
          163, 167, 154, -1,
          168, 159, 160, -1,
          168, 160, 169, -1,
          168, 169, 170, -1,
          171, 158, 162, -1,
          171, 161, 158, -1,
          172, 159, 168, -1,
          172, 162, 159, -1,
          173, 161, 171, -1,
          173, 163, 161, -1,
          174, 168, 170, -1,
          174, 170, 175, -1,
          176, 171, 162, -1,
          176, 162, 172, -1,
          177, 178, 179, -1,
          177, 179, 180, -1,
          177, 180, 164, -1,
          177, 164, 163, -1,
          177, 163, 173, -1,
          181, 172, 168, -1,
          181, 168, 174, -1,
          182, 173, 171, -1,
          182, 171, 176, -1,
          183, 175, 184, -1,
          183, 174, 175, -1,
          185, 172, 181, -1,
          185, 176, 172, -1,
          186, 178, 177, -1,
          186, 173, 182, -1,
          186, 187, 188, -1,
          186, 188, 178, -1,
          186, 177, 173, -1,
          189, 174, 183, -1,
          189, 181, 174, -1,
          190, 182, 176, -1,
          190, 176, 185, -1,
          191, 183, 184, -1,
          191, 192, 193, -1,
          191, 184, 192, -1,
          194, 185, 181, -1,
          194, 181, 189, -1,
          195, 186, 182, -1,
          195, 182, 190, -1,
          196, 183, 191, -1,
          196, 189, 183, -1,
          197, 185, 194, -1,
          197, 190, 185, -1,
          198, 199, 200, -1,
          198, 200, 201, -1,
          198, 201, 187, -1,
          198, 186, 195, -1,
          198, 187, 186, -1,
          202, 191, 193, -1,
          202, 193, 203, -1,
          204, 189, 196, -1,
          204, 194, 189, -1,
          205, 190, 197, -1,
          205, 195, 190, -1,
          206, 191, 202, -1,
          206, 196, 191, -1,
          207, 197, 194, -1,
          207, 194, 204, -1,
          208, 209, 210, -1,
          208, 210, 211, -1,
          208, 211, 199, -1,
          208, 198, 195, -1,
          208, 195, 205, -1,
          208, 199, 198, -1,
          212, 202, 203, -1,
          212, 213, 214, -1,
          212, 203, 213, -1,
          215, 204, 196, -1,
          215, 196, 206, -1,
          216, 197, 207, -1,
          216, 205, 197, -1,
          217, 202, 212, -1,
          217, 206, 202, -1,
          218, 207, 204, -1,
          218, 204, 215, -1,
          219, 209, 208, -1,
          219, 220, 221, -1,
          219, 221, 222, -1,
          219, 222, 209, -1,
          219, 208, 205, -1,
          219, 205, 216, -1,
          223, 214, 224, -1,
          223, 212, 214, -1,
          225, 215, 206, -1,
          225, 206, 217, -1,
          226, 207, 218, -1,
          226, 216, 207, -1,
          227, 217, 212, -1,
          227, 212, 223, -1,
          228, 218, 215, -1,
          228, 215, 225, -1,
          229, 216, 226, -1,
          229, 230, 231, -1,
          229, 231, 232, -1,
          229, 232, 220, -1,
          229, 220, 219, -1,
          229, 219, 216, -1,
          233, 234, 133, -1,
          233, 224, 234, -1,
          233, 223, 224, -1,
          235, 217, 227, -1,
          235, 225, 217, -1,
          236, 218, 228, -1,
          236, 226, 218, -1,
          237, 227, 223, -1,
          237, 223, 233, -1,
          238, 225, 235, -1,
          238, 228, 225, -1,
          239, 226, 236, -1,
          239, 240, 241, -1,
          239, 241, 242, -1,
          239, 242, 230, -1,
          239, 229, 226, -1,
          239, 230, 229, -1,
          243, 135, 244, -1,
          243, 244, 245, -1,
          243, 245, 246, -1,
          243, 233, 133, -1,
          243, 133, 135, -1,
          247, 235, 227, -1,
          247, 227, 237, -1,
          248, 236, 228, -1,
          248, 228, 238, -1,
          249, 246, 250, -1,
          249, 250, 251, -1,
          249, 251, 252, -1,
          249, 237, 233, -1,
          249, 243, 246, -1,
          249, 233, 243, -1,
          253, 235, 247, -1,
          253, 238, 235, -1,
          254, 239, 236, -1,
          254, 236, 248, -1,
          254, 255, 256, -1,
          254, 256, 257, -1,
          254, 257, 240, -1,
          254, 240, 239, -1,
          258, 252, 259, -1,
          258, 259, 260, -1,
          258, 260, 261, -1,
          258, 261, 262, -1,
          258, 247, 237, -1,
          258, 237, 249, -1,
          258, 249, 252, -1,
          263, 264, 265, -1,
          263, 265, 266, -1,
          263, 248, 238, -1,
          263, 238, 253, -1,
          267, 262, 268, -1,
          267, 268, 269, -1,
          267, 269, 270, -1,
          267, 270, 271, -1,
          267, 253, 247, -1,
          267, 258, 262, -1,
          267, 247, 258, -1,
          272, 266, 273, -1,
          272, 273, 274, -1,
          272, 274, 255, -1,
          272, 254, 248, -1,
          272, 248, 263, -1,
          272, 263, 266, -1,
          272, 255, 254, -1,
          275, 264, 263, -1,
          275, 271, 276, -1,
          275, 276, 277, -1,
          275, 277, 264, -1,
          275, 267, 271, -1,
          275, 253, 267, -1,
          275, 263, 253, -1,
          278, 279, 134, -1,
          278, 134, 280, -1,
          281, 278, 280, -1,
          281, 280, 282, -1,
          283, 281, 282, -1,
          283, 282, 284, -1,
          285, 283, 284, -1,
          285, 284, 286, -1,
          287, 285, 286, -1,
          287, 286, 288, -1,
          289, 287, 288, -1,
          289, 288, 290, -1,
          291, 290, 292, -1,
          291, 289, 290, -1,
          293, 292, 294, -1,
          293, 291, 292, -1,
          295, 294, 296, -1,
          295, 293, 294, -1,
          297, 296, 298, -1,
          297, 295, 296, -1,
          299, 298, 300, -1,
          299, 297, 298, -1,
          301, 300, 302, -1,
          301, 299, 300, -1,
          303, 302, 304, -1,
          303, 301, 302, -1,
          305, 304, 306, -1,
          305, 303, 304, -1,
          307, 306, 308, -1,
          307, 305, 306, -1,
          309, 308, 310, -1,
          309, 307, 308, -1,
          311, 310, 312, -1,
          311, 309, 310, -1,
          313, 311, 312, -1,
          314, 311, 313, -1,
          315, 314, 313, -1,
          315, 313, 316, -1,
          317, 315, 316, -1,
          317, 316, 318, -1,
          319, 317, 318, -1,
          320, 317, 319, -1,
          321, 320, 319, -1,
          321, 319, 322, -1,
          323, 321, 322, -1,
          324, 321, 323, -1,
          325, 324, 323, -1,
          325, 323, 326, -1,
          327, 325, 326, -1,
          328, 325, 327, -1,
          329, 328, 327, -1,
          329, 327, 330, -1,
          331, 329, 330, -1,
          332, 329, 331, -1,
          333, 331, 334, -1,
          333, 332, 331, -1,
          335, 334, 336, -1,
          335, 333, 334, -1,
          337, 335, 336, -1,
          338, 335, 337, -1,
          339, 337, 340, -1,
          339, 338, 337, -1,
          341, 340, 342, -1,
          341, 339, 340, -1,
          343, 342, 344, -1,
          343, 341, 342, -1,
          345, 343, 344, -1,
          346, 343, 345, -1,
          347, 345, 348, -1,
          347, 346, 345, -1,
          349, 348, 350, -1,
          349, 347, 348, -1,
          351, 350, 352, -1,
          351, 349, 350, -1,
          353, 351, 352, -1,
          354, 351, 353, -1,
          355, 353, 356, -1,
          355, 354, 353, -1,
          357, 356, 358, -1,
          357, 355, 356, -1,
          359, 358, 360, -1,
          359, 357, 358, -1,
          361, 360, 362, -1,
          361, 359, 360, -1,
          363, 362, 364, -1,
          363, 361, 362, -1,
          365, 363, 364, -1,
          365, 364, 366, -1,
          367, 365, 366, -1,
          367, 366, 368, -1,
          369, 367, 368, -1,
          369, 368, 370, -1,
          371, 369, 370, -1,
          371, 370, 372, -1,
          373, 372, 374, -1,
          373, 371, 372, -1,
          375, 374, 376, -1,
          375, 373, 374, -1,
          377, 376, 378, -1,
          377, 375, 376, -1,
          379, 378, 380, -1,
          379, 377, 378, -1,
          381, 380, 382, -1,
          381, 379, 380, -1,
          383, 382, 384, -1,
          383, 381, 382, -1,
          385, 384, 386, -1,
          385, 383, 384, -1,
          387, 386, 388, -1,
          387, 385, 386, -1,
          389, 388, 390, -1,
          389, 387, 388, -1,
          391, 390, 392, -1,
          391, 389, 390, -1,
          393, 391, 392, -1,
          394, 391, 393, -1,
          395, 394, 393, -1,
          396, 394, 395, -1,
          397, 395, 398, -1,
          397, 396, 395, -1,
          399, 398, 400, -1,
          399, 397, 398, -1,
          401, 399, 400, -1,
          402, 399, 401, -1,
          403, 401, 130, -1,
          403, 402, 401, -1,
          402, 1, 3, -1,
          402, 403, 1, -1,
          399, 3, 5, -1,
          399, 402, 3, -1,
          397, 5, 7, -1,
          397, 399, 5, -1,
          396, 7, 9, -1,
          396, 397, 7, -1,
          394, 9, 11, -1,
          394, 396, 9, -1,
          391, 11, 13, -1,
          391, 394, 11, -1,
          389, 13, 15, -1,
          389, 15, 17, -1,
          389, 391, 13, -1,
          387, 389, 17, -1,
          385, 17, 19, -1,
          385, 19, 21, -1,
          385, 387, 17, -1,
          383, 385, 21, -1,
          381, 21, 23, -1,
          381, 23, 25, -1,
          381, 383, 21, -1,
          379, 381, 25, -1,
          377, 25, 27, -1,
          377, 27, 29, -1,
          377, 379, 25, -1,
          375, 377, 29, -1,
          373, 29, 31, -1,
          373, 375, 29, -1,
          371, 31, 33, -1,
          371, 33, 35, -1,
          371, 373, 31, -1,
          369, 371, 35, -1,
          367, 369, 35, -1,
          367, 35, 37, -1,
          367, 37, 39, -1,
          365, 367, 39, -1,
          363, 365, 39, -1,
          363, 39, 41, -1,
          363, 41, 43, -1,
          361, 363, 43, -1,
          359, 361, 43, -1,
          359, 43, 45, -1,
          359, 45, 47, -1,
          357, 359, 47, -1,
          355, 357, 47, -1,
          355, 47, 49, -1,
          355, 49, 51, -1,
          354, 355, 51, -1,
          351, 51, 53, -1,
          351, 53, 55, -1,
          351, 354, 51, -1,
          349, 55, 57, -1,
          349, 351, 55, -1,
          347, 349, 57, -1,
          346, 57, 59, -1,
          346, 59, 61, -1,
          346, 347, 57, -1,
          343, 346, 61, -1,
          341, 61, 62, -1,
          341, 343, 61, -1,
          339, 62, 65, -1,
          339, 341, 62, -1,
          338, 65, 67, -1,
          338, 339, 65, -1,
          335, 67, 69, -1,
          335, 338, 67, -1,
          333, 69, 71, -1,
          333, 335, 69, -1,
          332, 71, 73, -1,
          332, 333, 71, -1,
          329, 73, 74, -1,
          329, 332, 73, -1,
          328, 74, 77, -1,
          328, 77, 78, -1,
          328, 329, 74, -1,
          325, 328, 78, -1,
          324, 78, 80, -1,
          324, 80, 82, -1,
          324, 325, 78, -1,
          321, 324, 82, -1,
          320, 82, 84, -1,
          320, 321, 82, -1,
          317, 320, 84, -1,
          317, 84, 86, -1,
          315, 317, 86, -1,
          315, 86, 89, -1,
          314, 315, 89, -1,
          314, 89, 90, -1,
          311, 314, 90, -1,
          311, 90, 93, -1,
          309, 311, 93, -1,
          309, 93, 94, -1,
          307, 309, 94, -1,
          307, 94, 96, -1,
          305, 307, 96, -1,
          305, 96, 98, -1,
          303, 305, 98, -1,
          303, 98, 100, -1,
          301, 303, 100, -1,
          301, 100, 102, -1,
          299, 301, 102, -1,
          299, 102, 104, -1,
          297, 299, 104, -1,
          297, 104, 106, -1,
          295, 297, 106, -1,
          295, 106, 108, -1,
          293, 295, 108, -1,
          293, 108, 110, -1,
          291, 110, 112, -1,
          291, 293, 110, -1,
          289, 112, 114, -1,
          289, 291, 112, -1,
          287, 114, 117, -1,
          287, 289, 114, -1,
          285, 117, 118, -1,
          285, 287, 117, -1,
          283, 118, 120, -1,
          283, 285, 118, -1,
          281, 120, 123, -1,
          281, 283, 120, -1,
          278, 123, 124, -1,
          278, 281, 123, -1,
          279, 124, 126, -1,
          279, 278, 124, -1,
          404, 405, 406, -1,
          407, 408, 409, -1,
          410, 408, 407, -1,
          411, 412, 410, -1,
          413, 412, 411, -1,
          406, 412, 413, -1,
          414, 412, 405, -1,
          415, 412, 414, -1,
          416, 412, 415, -1,
          417, 412, 416, -1,
          418, 412, 417, -1,
          419, 412, 418, -1,
          405, 412, 406, -1,
          420, 421, 422, -1,
          423, 421, 420, -1,
          424, 421, 423, -1,
          425, 426, 412, -1,
          427, 428, 429, -1,
          430, 428, 427, -1,
          421, 428, 430, -1,
          431, 432, 433, -1,
          121, 116, 122, -1,
          119, 116, 121, -1,
          434, 435, 436, -1,
          437, 435, 434, -1,
          115, 113, 116, -1,
          435, 438, 439, -1,
          438, 440, 441, -1,
          435, 442, 438, -1,
          438, 442, 440, -1,
          105, 103, 107, -1,
          431, 443, 432, -1,
          444, 443, 424, -1,
          445, 443, 444, -1,
          408, 443, 445, -1,
          437, 443, 435, -1,
          435, 443, 442, -1,
          424, 443, 421, -1,
          421, 443, 428, -1,
          432, 443, 437, -1,
          428, 443, 431, -1,
          111, 97, 113, -1,
          109, 97, 111, -1,
          107, 97, 109, -1,
          101, 97, 103, -1,
          99, 97, 101, -1,
          103, 97, 107, -1,
          95, 92, 97, -1,
          97, 92, 113, -1,
          446, 447, 448, -1,
          449, 447, 446, -1,
          450, 447, 449, -1,
          451, 447, 450, -1,
          91, 88, 92, -1,
          447, 452, 453, -1,
          125, 85, 127, -1,
          122, 85, 125, -1,
          116, 85, 122, -1,
          87, 85, 88, -1,
          454, 85, 426, -1,
          455, 85, 454, -1,
          127, 85, 455, -1,
          88, 85, 92, -1,
          92, 85, 113, -1,
          426, 85, 412, -1,
          113, 85, 116, -1,
          447, 456, 452, -1,
          81, 76, 83, -1,
          79, 76, 81, -1,
          83, 75, 85, -1,
          76, 75, 83, -1,
          451, 457, 447, -1,
          458, 457, 459, -1,
          460, 457, 458, -1,
          461, 457, 460, -1,
          462, 457, 461, -1,
          456, 457, 462, -1,
          447, 457, 456, -1,
          443, 457, 451, -1,
          72, 70, 75, -1,
          443, 463, 457, -1,
          70, 68, 75, -1,
          443, 2, 463, -1,
          464, 2, 465, -1,
          463, 2, 464, -1,
          66, 63, 68, -1,
          64, 63, 66, -1,
          75, 63, 85, -1,
          85, 63, 412, -1,
          68, 63, 75, -1,
          4, 8, 6, -1,
          0, 8, 4, -1,
          0, 10, 8, -1,
          56, 52, 58, -1,
          54, 52, 56, -1,
          10, 14, 12, -1,
          48, 46, 50, -1,
          10, 18, 14, -1,
          14, 18, 16, -1,
          46, 44, 50, -1,
          50, 44, 52, -1,
          0, 20, 10, -1,
          10, 20, 18, -1,
          2, 20, 0, -1,
          52, 40, 58, -1,
          58, 40, 60, -1,
          42, 40, 44, -1,
          44, 40, 52, -1,
          20, 24, 22, -1,
          40, 38, 60, -1,
          408, 36, 443, -1,
          63, 36, 412, -1,
          38, 36, 60, -1,
          60, 36, 63, -1,
          410, 36, 408, -1,
          24, 36, 26, -1,
          2, 36, 20, -1,
          443, 36, 2, -1,
          20, 36, 24, -1,
          412, 36, 410, -1,
          26, 30, 28, -1,
          34, 32, 36, -1,
          36, 32, 26, -1,
          26, 32, 30, -1,
          466, 279, 126, -1,
          466, 126, 467, -1,
          468, 467, 469, -1,
          468, 466, 467, -1,
          470, 469, 471, -1,
          470, 468, 469, -1,
          472, 471, 473, -1,
          472, 470, 471, -1,
          474, 473, 475, -1,
          474, 475, 476, -1,
          474, 472, 473, -1,
          477, 474, 476, -1,
          478, 476, 479, -1,
          478, 479, 480, -1,
          478, 477, 476, -1,
          481, 480, 482, -1,
          481, 478, 480, -1,
          483, 481, 482, -1,
          484, 482, 485, -1,
          484, 483, 482, -1,
          486, 485, 487, -1,
          486, 484, 485, -1,
          488, 487, 489, -1,
          488, 486, 487, -1,
          490, 489, 491, -1,
          490, 488, 489, -1,
          492, 491, 493, -1,
          492, 490, 491, -1,
          494, 493, 495, -1,
          494, 492, 493, -1,
          496, 495, 497, -1,
          496, 494, 495, -1,
          498, 497, 499, -1,
          498, 499, 500, -1,
          498, 496, 497, -1,
          501, 498, 500, -1,
          502, 501, 500, -1,
          502, 500, 503, -1,
          504, 502, 503, -1,
          504, 503, 505, -1,
          506, 504, 505, -1,
          506, 505, 507, -1,
          508, 506, 507, -1,
          508, 507, 509, -1,
          510, 509, 511, -1,
          510, 508, 509, -1,
          510, 511, 512, -1,
          513, 512, 514, -1,
          513, 510, 512, -1,
          515, 513, 514, -1,
          516, 514, 517, -1,
          516, 517, 518, -1,
          516, 515, 514, -1,
          519, 516, 518, -1,
          520, 518, 521, -1,
          520, 521, 522, -1,
          520, 519, 518, -1,
          523, 522, 524, -1,
          523, 520, 522, -1,
          525, 523, 524, -1,
          526, 524, 527, -1,
          526, 527, 528, -1,
          526, 525, 524, -1,
          529, 526, 528, -1,
          530, 528, 531, -1,
          530, 529, 528, -1,
          532, 531, 533, -1,
          532, 530, 531, -1,
          534, 533, 535, -1,
          534, 532, 533, -1,
          536, 535, 537, -1,
          536, 534, 535, -1,
          538, 537, 539, -1,
          538, 536, 537, -1,
          540, 539, 541, -1,
          540, 538, 539, -1,
          542, 541, 543, -1,
          542, 540, 541, -1,
          544, 543, 545, -1,
          544, 542, 543, -1,
          546, 545, 547, -1,
          546, 544, 545, -1,
          548, 547, 549, -1,
          548, 546, 547, -1,
          550, 548, 549, -1,
          550, 549, 551, -1,
          552, 550, 551, -1,
          552, 551, 553, -1,
          554, 552, 553, -1,
          554, 553, 555, -1,
          556, 554, 555, -1,
          556, 555, 557, -1,
          558, 556, 557, -1,
          558, 557, 559, -1,
          560, 558, 559, -1,
          560, 559, 561, -1,
          562, 560, 561, -1,
          562, 561, 563, -1,
          564, 562, 563, -1,
          564, 563, 565, -1,
          566, 564, 565, -1,
          566, 565, 567, -1,
          568, 566, 567, -1,
          568, 567, 569, -1,
          570, 568, 569, -1,
          570, 569, 571, -1,
          572, 570, 571, -1,
          572, 571, 573, -1,
          574, 572, 573, -1,
          574, 573, 575, -1,
          576, 574, 575, -1,
          576, 575, 577, -1,
          578, 577, 579, -1,
          578, 576, 577, -1,
          580, 579, 581, -1,
          580, 578, 579, -1,
          582, 581, 583, -1,
          582, 580, 581, -1,
          584, 583, 585, -1,
          584, 582, 583, -1,
          586, 585, 587, -1,
          586, 584, 585, -1,
          588, 587, 589, -1,
          588, 589, 1, -1,
          588, 586, 587, -1,
          403, 588, 1, -1,
          588, 403, 130, -1,
          588, 130, 129, -1,
          586, 588, 129, -1,
          586, 129, 131, -1,
          584, 586, 131, -1,
          584, 131, 139, -1,
          582, 584, 139, -1,
          582, 139, 138, -1,
          580, 582, 138, -1,
          580, 138, 137, -1,
          578, 580, 137, -1,
          578, 137, 146, -1,
          576, 146, 145, -1,
          576, 578, 146, -1,
          574, 145, 144, -1,
          574, 576, 145, -1,
          572, 144, 157, -1,
          572, 574, 144, -1,
          570, 157, 156, -1,
          570, 572, 157, -1,
          568, 156, 155, -1,
          568, 570, 156, -1,
          566, 155, 154, -1,
          566, 568, 155, -1,
          564, 154, 167, -1,
          564, 566, 154, -1,
          562, 167, 166, -1,
          562, 564, 167, -1,
          560, 166, 165, -1,
          560, 562, 166, -1,
          164, 560, 165, -1,
          558, 560, 164, -1,
          180, 558, 164, -1,
          556, 558, 180, -1,
          554, 180, 179, -1,
          554, 556, 180, -1,
          178, 554, 179, -1,
          552, 554, 178, -1,
          188, 552, 178, -1,
          550, 552, 188, -1,
          548, 550, 188, -1,
          548, 188, 187, -1,
          201, 548, 187, -1,
          546, 548, 201, -1,
          544, 546, 201, -1,
          544, 201, 200, -1,
          199, 544, 200, -1,
          542, 544, 199, -1,
          211, 542, 199, -1,
          540, 542, 211, -1,
          538, 540, 211, -1,
          538, 211, 210, -1,
          209, 538, 210, -1,
          536, 538, 209, -1,
          534, 209, 222, -1,
          534, 536, 209, -1,
          532, 222, 221, -1,
          532, 534, 222, -1,
          220, 532, 221, -1,
          530, 532, 220, -1,
          529, 220, 232, -1,
          529, 530, 220, -1,
          231, 529, 232, -1,
          526, 529, 231, -1,
          525, 231, 230, -1,
          525, 526, 231, -1,
          242, 525, 230, -1,
          523, 525, 242, -1,
          520, 242, 241, -1,
          520, 523, 242, -1,
          240, 520, 241, -1,
          519, 520, 240, -1,
          516, 240, 257, -1,
          516, 519, 240, -1,
          256, 516, 257, -1,
          515, 516, 256, -1,
          255, 515, 256, -1,
          513, 515, 255, -1,
          510, 255, 274, -1,
          510, 513, 255, -1,
          508, 274, 273, -1,
          508, 510, 274, -1,
          506, 273, 266, -1,
          506, 508, 273, -1,
          504, 266, 265, -1,
          504, 506, 266, -1,
          502, 504, 265, -1,
          502, 265, 264, -1,
          501, 502, 264, -1,
          501, 264, 277, -1,
          498, 501, 277, -1,
          498, 277, 276, -1,
          496, 498, 276, -1,
          496, 276, 271, -1,
          494, 271, 270, -1,
          494, 496, 271, -1,
          492, 270, 269, -1,
          492, 494, 270, -1,
          490, 269, 268, -1,
          490, 492, 269, -1,
          488, 268, 262, -1,
          488, 490, 268, -1,
          486, 262, 261, -1,
          486, 488, 262, -1,
          484, 261, 260, -1,
          484, 486, 261, -1,
          483, 260, 259, -1,
          483, 484, 260, -1,
          481, 259, 252, -1,
          481, 483, 259, -1,
          478, 252, 251, -1,
          478, 481, 252, -1,
          477, 251, 250, -1,
          477, 478, 251, -1,
          246, 477, 250, -1,
          474, 477, 246, -1,
          245, 474, 246, -1,
          472, 474, 245, -1,
          470, 245, 244, -1,
          470, 472, 245, -1,
          468, 244, 135, -1,
          468, 470, 244, -1,
          466, 135, 132, -1,
          466, 468, 135, -1,
          134, 466, 132, -1,
          279, 466, 134, -1,
          128, 130, 401, -1,
          128, 401, 400, -1,
          280, 133, 282, -1,
          134, 133, 280, -1,
          590, 364, 362, -1,
          590, 362, 360, -1,
          590, 360, 358, -1,
          591, 382, 380, -1,
          591, 380, 378, -1,
          591, 378, 376, -1,
          591, 376, 374, -1,
          592, 370, 368, -1,
          592, 368, 366, -1,
          592, 366, 364, -1,
          592, 364, 590, -1,
          593, 388, 386, -1,
          593, 386, 384, -1,
          593, 384, 382, -1,
          594, 358, 356, -1,
          594, 356, 353, -1,
          594, 353, 352, -1,
          594, 590, 358, -1,
          595, 591, 374, -1,
          595, 370, 592, -1,
          595, 374, 372, -1,
          595, 372, 370, -1,
          596, 393, 392, -1,
          596, 392, 390, -1,
          596, 390, 388, -1,
          597, 590, 594, -1,
          597, 592, 590, -1,
          598, 382, 591, -1,
          598, 591, 595, -1,
          598, 593, 382, -1,
          599, 594, 352, -1,
          599, 352, 350, -1,
          599, 350, 348, -1,
          599, 348, 345, -1,
          600, 595, 592, -1,
          600, 592, 597, -1,
          601, 388, 593, -1,
          601, 596, 388, -1,
          601, 593, 598, -1,
          602, 594, 599, -1,
          602, 597, 594, -1,
          603, 595, 600, -1,
          603, 598, 595, -1,
          604, 141, 128, -1,
          604, 400, 398, -1,
          604, 398, 395, -1,
          604, 395, 393, -1,
          604, 128, 400, -1,
          604, 393, 596, -1,
          604, 596, 601, -1,
          605, 345, 344, -1,
          605, 344, 342, -1,
          605, 599, 345, -1,
          606, 600, 597, -1,
          606, 597, 602, -1,
          607, 598, 603, -1,
          607, 601, 598, -1,
          608, 602, 599, -1,
          608, 599, 605, -1,
          609, 600, 606, -1,
          609, 603, 600, -1,
          610, 142, 141, -1,
          610, 148, 142, -1,
          610, 601, 607, -1,
          610, 604, 601, -1,
          610, 141, 604, -1,
          611, 605, 342, -1,
          611, 342, 340, -1,
          611, 340, 337, -1,
          611, 337, 336, -1,
          612, 606, 602, -1,
          612, 602, 608, -1,
          613, 603, 609, -1,
          613, 607, 603, -1,
          614, 608, 605, -1,
          614, 605, 611, -1,
          615, 606, 612, -1,
          615, 609, 606, -1,
          616, 151, 148, -1,
          616, 610, 607, -1,
          616, 148, 610, -1,
          616, 607, 613, -1,
          617, 336, 334, -1,
          617, 334, 331, -1,
          617, 331, 330, -1,
          617, 611, 336, -1,
          618, 608, 614, -1,
          618, 612, 608, -1,
          619, 613, 609, -1,
          619, 609, 615, -1,
          620, 614, 611, -1,
          620, 611, 617, -1,
          621, 615, 612, -1,
          621, 612, 618, -1,
          622, 152, 151, -1,
          622, 151, 616, -1,
          622, 613, 619, -1,
          622, 616, 613, -1,
          623, 330, 327, -1,
          623, 327, 326, -1,
          623, 326, 323, -1,
          623, 617, 330, -1,
          624, 618, 614, -1,
          624, 614, 620, -1,
          625, 615, 621, -1,
          625, 619, 615, -1,
          626, 617, 623, -1,
          626, 620, 617, -1,
          627, 618, 624, -1,
          627, 621, 618, -1,
          628, 160, 152, -1,
          628, 169, 160, -1,
          628, 622, 619, -1,
          628, 619, 625, -1,
          628, 152, 622, -1,
          629, 623, 323, -1,
          629, 323, 322, -1,
          629, 322, 319, -1,
          629, 319, 318, -1,
          630, 624, 620, -1,
          630, 620, 626, -1,
          631, 621, 627, -1,
          631, 625, 621, -1,
          632, 623, 629, -1,
          632, 626, 623, -1,
          633, 624, 630, -1,
          633, 627, 624, -1,
          634, 170, 169, -1,
          634, 169, 628, -1,
          634, 628, 625, -1,
          634, 625, 631, -1,
          635, 630, 626, -1,
          635, 626, 632, -1,
          636, 631, 627, -1,
          636, 627, 633, -1,
          637, 632, 629, -1,
          637, 629, 318, -1,
          637, 318, 316, -1,
          637, 316, 313, -1,
          637, 313, 312, -1,
          638, 633, 630, -1,
          638, 630, 635, -1,
          639, 175, 170, -1,
          639, 170, 634, -1,
          639, 631, 636, -1,
          639, 184, 175, -1,
          639, 634, 631, -1,
          640, 632, 637, -1,
          640, 635, 632, -1,
          641, 636, 633, -1,
          641, 633, 638, -1,
          642, 635, 640, -1,
          642, 638, 635, -1,
          643, 636, 641, -1,
          643, 184, 639, -1,
          643, 192, 184, -1,
          643, 639, 636, -1,
          644, 640, 637, -1,
          644, 312, 310, -1,
          644, 310, 308, -1,
          644, 637, 312, -1,
          645, 638, 642, -1,
          645, 641, 638, -1,
          646, 642, 640, -1,
          646, 640, 644, -1,
          647, 641, 645, -1,
          647, 643, 641, -1,
          647, 192, 643, -1,
          647, 203, 193, -1,
          647, 193, 192, -1,
          648, 644, 308, -1,
          648, 308, 306, -1,
          648, 306, 304, -1,
          648, 304, 302, -1,
          648, 302, 300, -1,
          649, 645, 642, -1,
          649, 642, 646, -1,
          650, 644, 648, -1,
          650, 646, 644, -1,
          650, 648, 300, -1,
          651, 647, 645, -1,
          651, 203, 647, -1,
          651, 645, 649, -1,
          651, 213, 203, -1,
          652, 649, 646, -1,
          652, 646, 650, -1,
          653, 300, 298, -1,
          653, 298, 296, -1,
          653, 296, 294, -1,
          653, 650, 300, -1,
          654, 649, 652, -1,
          654, 651, 649, -1,
          654, 213, 651, -1,
          654, 214, 213, -1,
          655, 652, 650, -1,
          655, 650, 653, -1,
          655, 653, 294, -1,
          656, 654, 652, -1,
          656, 652, 655, -1,
          656, 214, 654, -1,
          656, 234, 224, -1,
          656, 224, 214, -1,
          657, 655, 294, -1,
          657, 294, 292, -1,
          657, 292, 290, -1,
          657, 290, 288, -1,
          658, 656, 655, -1,
          658, 282, 133, -1,
          658, 655, 657, -1,
          658, 234, 656, -1,
          658, 657, 288, -1,
          658, 288, 286, -1,
          658, 286, 284, -1,
          658, 284, 282, -1,
          658, 133, 234, -1,
          455, 126, 127, -1,
          467, 126, 455, -1,
          454, 467, 455, -1,
          469, 467, 454, -1,
          426, 469, 454, -1,
          471, 469, 426, -1,
          425, 471, 426, -1,
          473, 471, 425, -1,
          412, 473, 425, -1,
          475, 473, 412, -1,
          419, 475, 412, -1,
          476, 475, 419, -1,
          418, 476, 419, -1,
          479, 476, 418, -1,
          417, 479, 418, -1,
          480, 479, 417, -1,
          416, 480, 417, -1,
          482, 480, 416, -1,
          415, 482, 416, -1,
          485, 482, 415, -1,
          414, 485, 415, -1,
          487, 485, 414, -1,
          405, 487, 414, -1,
          489, 487, 405, -1,
          404, 489, 405, -1,
          491, 489, 404, -1,
          406, 491, 404, -1,
          493, 491, 406, -1,
          413, 493, 406, -1,
          495, 493, 413, -1,
          411, 495, 413, -1,
          497, 495, 411, -1,
          410, 497, 411, -1,
          499, 497, 410, -1,
          407, 499, 410, -1,
          500, 499, 407, -1,
          503, 500, 407, -1,
          503, 407, 409, -1,
          408, 503, 409, -1,
          505, 503, 408, -1,
          445, 505, 408, -1,
          507, 505, 445, -1,
          444, 507, 445, -1,
          509, 507, 444, -1,
          424, 509, 444, -1,
          511, 509, 424, -1,
          423, 511, 424, -1,
          512, 511, 423, -1,
          420, 512, 423, -1,
          514, 512, 420, -1,
          422, 514, 420, -1,
          517, 514, 422, -1,
          421, 517, 422, -1,
          518, 517, 421, -1,
          430, 518, 421, -1,
          521, 518, 430, -1,
          427, 521, 430, -1,
          522, 521, 427, -1,
          429, 522, 427, -1,
          524, 522, 429, -1,
          428, 524, 429, -1,
          527, 524, 428, -1,
          528, 428, 431, -1,
          528, 527, 428, -1,
          433, 528, 431, -1,
          531, 528, 433, -1,
          432, 531, 433, -1,
          533, 531, 432, -1,
          437, 533, 432, -1,
          535, 533, 437, -1,
          434, 535, 437, -1,
          537, 535, 434, -1,
          436, 537, 434, -1,
          539, 537, 436, -1,
          435, 539, 436, -1,
          541, 539, 435, -1,
          439, 541, 435, -1,
          543, 541, 439, -1,
          438, 543, 439, -1,
          545, 543, 438, -1,
          547, 438, 441, -1,
          547, 545, 438, -1,
          440, 547, 441, -1,
          549, 547, 440, -1,
          551, 549, 440, -1,
          551, 440, 442, -1,
          443, 551, 442, -1,
          553, 551, 443, -1,
          451, 553, 443, -1,
          555, 553, 451, -1,
          450, 555, 451, -1,
          557, 555, 450, -1,
          449, 557, 450, -1,
          559, 557, 449, -1,
          446, 559, 449, -1,
          561, 559, 446, -1,
          448, 561, 446, -1,
          563, 561, 448, -1,
          565, 448, 447, -1,
          565, 563, 448, -1,
          453, 565, 447, -1,
          567, 565, 453, -1,
          569, 453, 452, -1,
          569, 567, 453, -1,
          456, 569, 452, -1,
          571, 569, 456, -1,
          462, 571, 456, -1,
          573, 571, 462, -1,
          575, 462, 461, -1,
          575, 573, 462, -1,
          460, 575, 461, -1,
          577, 575, 460, -1,
          579, 460, 458, -1,
          579, 577, 460, -1,
          459, 579, 458, -1,
          581, 579, 459, -1,
          583, 459, 457, -1,
          583, 581, 459, -1,
          585, 457, 463, -1,
          585, 583, 457, -1,
          464, 585, 463, -1,
          587, 585, 464, -1,
          465, 587, 464, -1,
          589, 587, 465, -1,
          2, 589, 465, -1,
          1, 589, 2, -1
        ]
      }
    }
}
