#VRML V2.0 utf8
WorldInfo {
  title "Exported triangle mesh to VRML97"
  info ["Created by FreeCAD"
        "<https://www.freecad.org>"]
}

Transform {
  scale 1 1 1
  rotation 0 0 1 0
  scaleOrientation 0 0 1 0
  center 0.000 0.000 0.000
  translation 0.000 0.000 0.000
  children
    Shape { 
      appearance
      Appearance {
        material
        Material {
          diffuseColor 0.8 0.8 0.8
        }
      }
      geometry
      IndexedFaceSet {
        coord
        Coordinate {
          point [
            14.982 0.736 0.132,
            15.000 0.000 -2.365,
            14.981 0.748 -2.365,
            15.000 0.000 0.132,
            14.928 1.470 0.132,
            14.925 1.494 -2.365,
            14.838 2.201 0.132,
            14.832 2.236 -2.365,
            14.712 2.926 0.132,
            14.703 2.972 -2.365,
            14.550 3.645 0.132,
            14.536 3.701 -2.365,
            14.354 4.354 0.132,
            14.334 4.421 -2.365,
            14.123 5.053 0.132,
            14.095 5.130 -2.365,
            13.858 5.740 0.132,
            13.822 5.827 -2.365,
            13.560 6.413 0.132,
            13.515 6.508 -2.365,
            13.229 7.071 0.132,
            13.173 7.174 -2.365,
            12.866 7.712 0.132,
            12.799 7.822 -2.365,
            12.472 8.334 0.132,
            12.394 8.450 -2.365,
            12.048 8.935 0.132,
            11.957 9.057 -2.365,
            11.595 9.516 0.132,
            11.491 9.642 -2.365,
            11.114 10.073 0.132,
            10.996 10.203 -2.365,
            10.607 10.607 0.132,
            10.474 10.738 -2.365,
            10.073 11.114 0.132,
            9.925 11.247 -2.365,
            9.516 11.595 0.132,
            9.352 11.727 -2.365,
            8.935 12.048 0.132,
            8.756 12.179 -2.365,
            8.334 12.472 0.132,
            8.138 12.600 -2.365,
            7.712 12.866 0.132,
            7.500 12.990 -2.365,
            7.071 13.229 0.132,
            6.843 13.348 -2.365,
            6.413 13.560 0.132,
            6.169 13.673 -2.365,
            5.740 13.858 0.132,
            5.480 13.963 -2.365,
            5.053 14.123 0.132,
            4.777 14.219 -2.365,
            4.354 14.354 0.132,
            4.063 14.439 -2.365,
            3.645 14.550 0.132,
            3.338 14.624 -2.365,
            2.926 14.712 0.132,
            2.605 14.772 -2.365,
            2.201 14.838 0.132,
            1.865 14.884 -2.365,
            1.470 14.928 0.132,
            1.121 14.958 -2.365,
            0.736 14.982 0.132,
            0.374 14.995 -2.365,
            0.000 15.000 0.132,
            -0.374 14.995 -2.365,
            -0.736 14.982 0.132,
            -1.121 14.958 -2.365,
            -1.470 14.928 0.132,
            -1.865 14.884 -2.365,
            -2.201 14.838 0.132,
            -2.605 14.772 -2.365,
            -2.926 14.712 0.132,
            -3.338 14.624 -2.365,
            -3.645 14.550 0.132,
            -4.063 14.439 -2.365,
            -4.354 14.354 0.132,
            -4.777 14.219 -2.365,
            -5.053 14.123 0.132,
            -5.480 13.963 -2.365,
            -5.740 13.858 0.132,
            -6.169 13.673 -2.365,
            -6.413 13.560 0.132,
            -6.843 13.348 -2.365,
            -7.071 13.229 0.132,
            -7.500 12.990 -2.365,
            -7.712 12.866 0.132,
            -8.138 12.600 -2.365,
            -8.334 12.472 0.132,
            -8.756 12.179 -2.365,
            -8.935 12.048 0.132,
            -9.352 11.727 -2.365,
            -9.516 11.595 0.132,
            -9.925 11.247 -2.365,
            -10.073 11.114 0.132,
            -10.474 10.738 -2.365,
            -10.607 10.607 0.132,
            -10.996 10.203 -2.365,
            -11.114 10.073 0.132,
            -11.491 9.642 -2.365,
            -11.595 9.516 0.132,
            -11.957 9.057 -2.365,
            -12.048 8.935 0.132,
            -12.394 8.450 -2.365,
            -12.472 8.334 0.132,
            -12.799 7.822 -2.365,
            -12.866 7.712 0.132,
            -13.173 7.174 -2.365,
            -13.229 7.071 0.132,
            -13.515 6.508 -2.365,
            -13.560 6.413 0.132,
            -13.822 5.827 -2.365,
            -13.858 5.740 0.132,
            -14.095 5.130 -2.365,
            -14.123 5.053 0.132,
            -14.334 4.421 -2.365,
            -14.354 4.354 0.132,
            -14.536 3.701 -2.365,
            -14.550 3.645 0.132,
            -14.703 2.972 -2.365,
            -14.712 2.926 0.132,
            -14.832 2.236 -2.365,
            -14.838 2.201 0.132,
            -14.925 1.494 -2.365,
            -14.928 1.470 0.132,
            -14.981 0.748 -2.365,
            -14.982 0.736 0.132,
            -15.000 0.000 -2.365,
            -15.000 0.000 0.132,
            -0.000 -12.556 0.811,
            -1.470 -14.928 0.132,
            -0.736 -14.982 0.132,
            -0.000 -15.000 0.132,
            0.000 12.556 0.811,
            -3.042 -13.351 0.511,
            -5.053 -14.123 0.132,
            -4.354 -14.354 0.132,
            -3.645 -14.550 0.132,
            -2.926 -14.712 0.132,
            -2.201 -14.838 0.132,
            -3.042 -10.064 1.280,
            -0.000 -10.082 1.369,
            -0.000 -7.583 1.804,
            -6.074 -11.652 0.660,
            -8.334 -12.472 0.132,
            -7.712 -12.866 0.132,
            -7.071 -13.229 0.132,
            -6.413 -13.560 0.132,
            -5.740 -13.858 0.132,
            -3.042 -6.734 1.832,
            -0.000 -5.065 2.115,
            -6.074 -8.359 1.318,
            -9.085 -9.923 0.577,
            -11.595 -9.516 0.132,
            -11.114 -10.073 0.132,
            -10.607 -10.607 0.132,
            -10.073 -11.114 0.132,
            -9.516 -11.595 0.132,
            -8.935 -12.048 0.132,
            -3.042 -3.374 2.164,
            -0.000 -2.536 2.303,
            -6.074 -5.030 1.758,
            -9.085 -6.640 1.121,
            -3.042 -0.000 2.275,
            0.000 0.000 2.365,
            0.000 2.536 2.303,
            -12.063 -8.184 0.259,
            -13.229 -7.071 0.132,
            -12.866 -7.712 0.132,
            -12.472 -8.334 0.132,
            -12.048 -8.935 0.132,
            -6.074 -1.679 1.978,
            -9.085 -3.327 1.448,
            -3.042 3.374 2.164,
            0.000 5.065 2.115,
            -12.063 -4.924 0.689,
            -14.550 -3.645 0.132,
            -14.354 -4.354 0.132,
            -14.123 -5.053 0.132,
            -13.858 -5.740 0.132,
            -13.560 -6.413 0.132,
            -6.074 1.679 1.978,
            -9.085 -0.000 1.557,
            -3.042 6.734 1.832,
            0.000 7.583 1.804,
            -12.063 -1.644 0.905,
            -14.982 -0.736 0.132,
            -14.928 -1.470 0.132,
            -14.838 -2.201 0.132,
            -14.712 -2.926 0.132,
            -6.074 5.030 1.758,
            -9.085 3.327 1.448,
            -3.042 10.064 1.280,
            0.000 10.082 1.369,
            -12.063 1.644 0.905,
            -6.074 8.359 1.318,
            -9.085 6.640 1.121,
            -3.042 13.351 0.511,
            -12.063 4.924 0.689,
            -6.074 11.652 0.660,
            -9.085 9.923 0.577,
            -12.063 8.184 0.259,
            0.736 -14.982 0.132,
            1.470 -14.928 0.132,
            2.201 -14.838 0.132,
            9.085 -11.550 0.224,
            8.334 -12.472 0.132,
            8.935 -12.048 0.132,
            9.516 -11.595 0.132,
            10.073 -11.114 0.132,
            6.074 -13.281 0.251,
            5.053 -14.123 0.132,
            5.740 -13.858 0.132,
            6.413 -13.560 0.132,
            7.071 -13.229 0.132,
            12.063 -6.558 0.501,
            12.048 -8.935 0.132,
            12.472 -8.334 0.132,
            12.866 -7.712 0.132,
            13.229 -7.071 0.132,
            13.560 -6.413 0.132,
            13.858 -5.740 0.132,
            9.085 -8.286 0.876,
            10.607 -10.607 0.132,
            11.114 -10.073 0.132,
            11.595 -9.516 0.132,
            6.074 -10.011 1.016,
            7.712 -12.866 0.132,
            12.063 -3.286 0.824,
            14.123 -5.053 0.132,
            14.354 -4.354 0.132,
            14.550 -3.645 0.132,
            14.712 -2.926 0.132,
            14.838 -2.201 0.132,
            3.042 -11.714 0.923,
            2.926 -14.712 0.132,
            3.645 -14.550 0.132,
            4.354 -14.354 0.132,
            9.085 -4.986 1.312,
            6.074 -6.698 1.565,
            12.063 -0.000 0.932,
            14.928 -1.470 0.132,
            14.982 -0.736 0.132,
            3.042 -8.403 1.584,
            9.085 -1.664 1.530,
            6.074 -3.356 1.895,
            12.063 3.286 0.824,
            3.042 -5.056 2.026,
            9.085 1.664 1.530,
            6.074 -0.000 2.006,
            12.063 6.558 0.501,
            3.042 -1.688 2.247,
            9.085 4.986 1.312,
            6.074 3.356 1.895,
            3.042 1.688 2.247,
            9.085 8.286 0.876,
            6.074 6.698 1.565,
            3.042 5.056 2.026,
            9.085 11.550 0.224,
            6.074 10.011 1.016,
            3.042 8.403 1.584,
            6.074 13.281 0.251,
            3.042 11.714 0.923,
            -14.981 -0.748 -2.365,
            -14.925 -1.494 -2.365,
            -14.832 -2.236 -2.365,
            -14.703 -2.972 -2.365,
            -14.536 -3.701 -2.365,
            -14.334 -4.421 -2.365,
            -14.095 -5.130 -2.365,
            -13.822 -5.827 -2.365,
            -13.515 -6.508 -2.365,
            -13.173 -7.174 -2.365,
            -12.799 -7.822 -2.365,
            -12.394 -8.450 -2.365,
            -11.957 -9.057 -2.365,
            -11.491 -9.642 -2.365,
            -10.996 -10.203 -2.365,
            -10.474 -10.738 -2.365,
            -9.925 -11.247 -2.365,
            -9.352 -11.727 -2.365,
            -8.756 -12.179 -2.365,
            -8.138 -12.600 -2.365,
            -7.500 -12.990 -2.365,
            -6.843 -13.348 -2.365,
            -6.169 -13.673 -2.365,
            -5.480 -13.963 -2.365,
            -4.777 -14.219 -2.365,
            -4.063 -14.439 -2.365,
            -3.338 -14.624 -2.365,
            -2.605 -14.772 -2.365,
            -1.865 -14.884 -2.365,
            -1.121 -14.958 -2.365,
            -0.374 -14.995 -2.365,
            0.374 -14.995 -2.365,
            1.121 -14.958 -2.365,
            1.865 -14.884 -2.365,
            2.605 -14.772 -2.365,
            3.338 -14.624 -2.365,
            4.063 -14.439 -2.365,
            4.777 -14.219 -2.365,
            5.480 -13.963 -2.365,
            6.169 -13.673 -2.365,
            6.843 -13.348 -2.365,
            7.500 -12.990 -2.365,
            8.138 -12.600 -2.365,
            8.756 -12.179 -2.365,
            9.352 -11.727 -2.365,
            9.925 -11.247 -2.365,
            10.474 -10.738 -2.365,
            10.996 -10.203 -2.365,
            11.491 -9.642 -2.365,
            11.957 -9.057 -2.365,
            12.394 -8.450 -2.365,
            12.799 -7.822 -2.365,
            13.173 -7.174 -2.365,
            13.515 -6.508 -2.365,
            13.822 -5.827 -2.365,
            14.095 -5.130 -2.365,
            14.334 -4.421 -2.365,
            14.536 -3.701 -2.365,
            14.703 -2.972 -2.365,
            14.832 -2.236 -2.365,
            14.925 -1.494 -2.365,
            14.981 -0.748 -2.365
          ]
        }
        coordIndex [
          0, 1, 2, -1,
          0, 3, 1, -1,
          4, 2, 5, -1,
          4, 0, 2, -1,
          6, 5, 7, -1,
          6, 4, 5, -1,
          8, 7, 9, -1,
          8, 6, 7, -1,
          10, 9, 11, -1,
          10, 8, 9, -1,
          12, 11, 13, -1,
          12, 10, 11, -1,
          14, 13, 15, -1,
          14, 12, 13, -1,
          16, 15, 17, -1,
          16, 14, 15, -1,
          18, 17, 19, -1,
          18, 16, 17, -1,
          20, 19, 21, -1,
          20, 18, 19, -1,
          22, 21, 23, -1,
          22, 20, 21, -1,
          24, 23, 25, -1,
          24, 22, 23, -1,
          26, 25, 27, -1,
          26, 24, 25, -1,
          28, 27, 29, -1,
          28, 26, 27, -1,
          30, 29, 31, -1,
          30, 28, 29, -1,
          32, 31, 33, -1,
          32, 30, 31, -1,
          34, 33, 35, -1,
          34, 32, 33, -1,
          36, 34, 35, -1,
          36, 35, 37, -1,
          38, 36, 37, -1,
          38, 37, 39, -1,
          40, 38, 39, -1,
          40, 39, 41, -1,
          42, 40, 41, -1,
          42, 41, 43, -1,
          44, 42, 43, -1,
          44, 43, 45, -1,
          46, 45, 47, -1,
          46, 44, 45, -1,
          48, 47, 49, -1,
          48, 46, 47, -1,
          50, 49, 51, -1,
          50, 48, 49, -1,
          52, 51, 53, -1,
          52, 50, 51, -1,
          54, 53, 55, -1,
          54, 52, 53, -1,
          56, 55, 57, -1,
          56, 54, 55, -1,
          58, 57, 59, -1,
          58, 56, 57, -1,
          60, 59, 61, -1,
          60, 58, 59, -1,
          62, 61, 63, -1,
          62, 60, 61, -1,
          64, 63, 65, -1,
          64, 62, 63, -1,
          66, 65, 67, -1,
          66, 64, 65, -1,
          68, 67, 69, -1,
          68, 66, 67, -1,
          70, 69, 71, -1,
          70, 68, 69, -1,
          72, 71, 73, -1,
          72, 70, 71, -1,
          74, 73, 75, -1,
          74, 72, 73, -1,
          76, 75, 77, -1,
          76, 74, 75, -1,
          78, 77, 79, -1,
          78, 76, 77, -1,
          80, 79, 81, -1,
          80, 78, 79, -1,
          82, 81, 83, -1,
          82, 80, 81, -1,
          84, 83, 85, -1,
          84, 82, 83, -1,
          86, 84, 85, -1,
          86, 85, 87, -1,
          88, 86, 87, -1,
          88, 87, 89, -1,
          90, 88, 89, -1,
          90, 89, 91, -1,
          92, 90, 91, -1,
          92, 91, 93, -1,
          94, 92, 93, -1,
          94, 93, 95, -1,
          96, 94, 95, -1,
          96, 95, 97, -1,
          98, 96, 97, -1,
          98, 97, 99, -1,
          100, 98, 99, -1,
          100, 99, 101, -1,
          102, 100, 101, -1,
          102, 101, 103, -1,
          104, 102, 103, -1,
          104, 103, 105, -1,
          106, 104, 105, -1,
          106, 105, 107, -1,
          108, 106, 107, -1,
          108, 107, 109, -1,
          110, 108, 109, -1,
          110, 109, 111, -1,
          112, 111, 113, -1,
          112, 110, 111, -1,
          114, 113, 115, -1,
          114, 112, 113, -1,
          116, 115, 117, -1,
          116, 114, 115, -1,
          118, 117, 119, -1,
          118, 116, 117, -1,
          120, 119, 121, -1,
          120, 118, 119, -1,
          122, 121, 123, -1,
          122, 120, 121, -1,
          124, 123, 125, -1,
          124, 122, 123, -1,
          126, 125, 127, -1,
          126, 124, 125, -1,
          128, 126, 127, -1,
          129, 130, 131, -1,
          129, 131, 132, -1,
          66, 133, 64, -1,
          68, 133, 66, -1,
          134, 135, 136, -1,
          134, 136, 137, -1,
          134, 137, 138, -1,
          134, 138, 139, -1,
          134, 139, 130, -1,
          134, 130, 129, -1,
          140, 129, 141, -1,
          140, 141, 142, -1,
          140, 134, 129, -1,
          143, 144, 145, -1,
          143, 145, 146, -1,
          143, 134, 140, -1,
          143, 146, 147, -1,
          143, 147, 148, -1,
          143, 148, 135, -1,
          143, 135, 134, -1,
          149, 140, 142, -1,
          149, 142, 150, -1,
          151, 143, 140, -1,
          151, 140, 149, -1,
          152, 143, 151, -1,
          152, 144, 143, -1,
          152, 153, 154, -1,
          152, 154, 155, -1,
          152, 155, 156, -1,
          152, 156, 157, -1,
          152, 157, 158, -1,
          152, 158, 144, -1,
          159, 149, 150, -1,
          159, 150, 160, -1,
          161, 149, 159, -1,
          161, 151, 149, -1,
          162, 151, 161, -1,
          162, 152, 151, -1,
          163, 159, 160, -1,
          163, 160, 164, -1,
          163, 164, 165, -1,
          166, 153, 152, -1,
          166, 167, 168, -1,
          166, 168, 169, -1,
          166, 169, 170, -1,
          166, 170, 153, -1,
          166, 152, 162, -1,
          171, 161, 159, -1,
          171, 159, 163, -1,
          172, 161, 171, -1,
          172, 162, 161, -1,
          173, 165, 174, -1,
          173, 163, 165, -1,
          175, 176, 177, -1,
          175, 177, 178, -1,
          175, 178, 179, -1,
          175, 179, 180, -1,
          175, 180, 167, -1,
          175, 162, 172, -1,
          175, 167, 166, -1,
          175, 166, 162, -1,
          181, 163, 173, -1,
          181, 171, 163, -1,
          182, 172, 171, -1,
          182, 171, 181, -1,
          183, 173, 174, -1,
          183, 174, 184, -1,
          185, 172, 182, -1,
          185, 128, 186, -1,
          185, 186, 187, -1,
          185, 187, 188, -1,
          185, 188, 189, -1,
          185, 189, 176, -1,
          185, 175, 172, -1,
          185, 176, 175, -1,
          190, 181, 173, -1,
          190, 173, 183, -1,
          191, 181, 190, -1,
          191, 182, 181, -1,
          192, 183, 184, -1,
          192, 193, 133, -1,
          192, 184, 193, -1,
          194, 128, 185, -1,
          194, 118, 120, -1,
          194, 120, 122, -1,
          194, 122, 124, -1,
          194, 124, 126, -1,
          194, 126, 128, -1,
          194, 185, 182, -1,
          194, 182, 191, -1,
          195, 183, 192, -1,
          195, 190, 183, -1,
          196, 190, 195, -1,
          196, 191, 190, -1,
          197, 68, 70, -1,
          197, 70, 72, -1,
          197, 72, 74, -1,
          197, 74, 76, -1,
          197, 76, 78, -1,
          197, 192, 133, -1,
          197, 133, 68, -1,
          198, 118, 194, -1,
          198, 194, 191, -1,
          198, 191, 196, -1,
          198, 108, 110, -1,
          198, 110, 112, -1,
          198, 112, 114, -1,
          198, 114, 116, -1,
          198, 116, 118, -1,
          199, 78, 80, -1,
          199, 195, 192, -1,
          199, 80, 82, -1,
          199, 82, 84, -1,
          199, 84, 86, -1,
          199, 86, 88, -1,
          199, 197, 78, -1,
          199, 192, 197, -1,
          200, 196, 195, -1,
          200, 88, 90, -1,
          200, 90, 92, -1,
          200, 92, 94, -1,
          200, 94, 96, -1,
          200, 96, 98, -1,
          200, 98, 100, -1,
          200, 199, 88, -1,
          200, 195, 199, -1,
          201, 196, 200, -1,
          201, 100, 102, -1,
          201, 102, 104, -1,
          201, 104, 106, -1,
          201, 106, 108, -1,
          201, 108, 198, -1,
          201, 198, 196, -1,
          201, 200, 100, -1,
          129, 132, 202, -1,
          129, 202, 203, -1,
          129, 203, 204, -1,
          60, 133, 58, -1,
          62, 133, 60, -1,
          64, 133, 62, -1,
          205, 206, 207, -1,
          205, 207, 208, -1,
          205, 208, 209, -1,
          210, 211, 212, -1,
          210, 212, 213, -1,
          210, 213, 214, -1,
          215, 216, 217, -1,
          215, 217, 218, -1,
          215, 218, 219, -1,
          215, 219, 220, -1,
          215, 220, 221, -1,
          222, 209, 223, -1,
          222, 223, 224, -1,
          222, 224, 225, -1,
          222, 225, 216, -1,
          222, 205, 209, -1,
          222, 216, 215, -1,
          226, 210, 214, -1,
          226, 214, 227, -1,
          226, 227, 206, -1,
          226, 206, 205, -1,
          226, 205, 222, -1,
          228, 215, 221, -1,
          228, 221, 229, -1,
          228, 229, 230, -1,
          228, 230, 231, -1,
          228, 231, 232, -1,
          228, 232, 233, -1,
          234, 141, 129, -1,
          234, 204, 235, -1,
          234, 235, 236, -1,
          234, 236, 237, -1,
          234, 211, 210, -1,
          234, 237, 211, -1,
          234, 129, 204, -1,
          234, 210, 226, -1,
          238, 215, 228, -1,
          238, 222, 215, -1,
          239, 226, 222, -1,
          239, 222, 238, -1,
          240, 233, 241, -1,
          240, 241, 242, -1,
          240, 242, 3, -1,
          240, 3, 0, -1,
          240, 0, 4, -1,
          240, 4, 6, -1,
          240, 228, 233, -1,
          243, 142, 141, -1,
          243, 234, 226, -1,
          243, 141, 234, -1,
          243, 226, 239, -1,
          244, 228, 240, -1,
          244, 238, 228, -1,
          245, 239, 238, -1,
          245, 238, 244, -1,
          246, 6, 8, -1,
          246, 8, 10, -1,
          246, 10, 12, -1,
          246, 12, 14, -1,
          246, 14, 16, -1,
          246, 240, 6, -1,
          247, 150, 142, -1,
          247, 160, 150, -1,
          247, 239, 245, -1,
          247, 243, 239, -1,
          247, 142, 243, -1,
          248, 240, 246, -1,
          248, 244, 240, -1,
          249, 245, 244, -1,
          249, 244, 248, -1,
          250, 16, 18, -1,
          250, 18, 20, -1,
          250, 20, 22, -1,
          250, 22, 24, -1,
          250, 24, 26, -1,
          250, 246, 16, -1,
          251, 245, 249, -1,
          251, 164, 160, -1,
          251, 247, 245, -1,
          251, 160, 247, -1,
          252, 246, 250, -1,
          252, 248, 246, -1,
          253, 248, 252, -1,
          253, 249, 248, -1,
          254, 251, 249, -1,
          254, 249, 253, -1,
          254, 165, 164, -1,
          254, 164, 251, -1,
          255, 252, 250, -1,
          255, 26, 28, -1,
          255, 28, 30, -1,
          255, 30, 32, -1,
          255, 32, 34, -1,
          255, 250, 26, -1,
          256, 252, 255, -1,
          256, 253, 252, -1,
          257, 253, 256, -1,
          257, 165, 254, -1,
          257, 184, 174, -1,
          257, 174, 165, -1,
          257, 254, 253, -1,
          258, 255, 34, -1,
          258, 34, 36, -1,
          258, 36, 38, -1,
          258, 38, 40, -1,
          259, 258, 40, -1,
          259, 256, 255, -1,
          259, 40, 42, -1,
          259, 42, 44, -1,
          259, 255, 258, -1,
          260, 257, 256, -1,
          260, 184, 257, -1,
          260, 193, 184, -1,
          260, 256, 259, -1,
          261, 44, 46, -1,
          261, 46, 48, -1,
          261, 48, 50, -1,
          261, 259, 44, -1,
          262, 259, 261, -1,
          262, 58, 133, -1,
          262, 193, 260, -1,
          262, 261, 50, -1,
          262, 50, 52, -1,
          262, 52, 54, -1,
          262, 54, 56, -1,
          262, 56, 58, -1,
          262, 133, 193, -1,
          262, 260, 259, -1,
          186, 128, 127, -1,
          186, 127, 263, -1,
          187, 263, 264, -1,
          187, 186, 263, -1,
          188, 264, 265, -1,
          188, 187, 264, -1,
          189, 265, 266, -1,
          189, 188, 265, -1,
          176, 266, 267, -1,
          176, 189, 266, -1,
          177, 267, 268, -1,
          177, 176, 267, -1,
          178, 268, 269, -1,
          178, 177, 268, -1,
          179, 269, 270, -1,
          179, 178, 269, -1,
          180, 270, 271, -1,
          180, 179, 270, -1,
          167, 271, 272, -1,
          167, 180, 271, -1,
          168, 272, 273, -1,
          168, 167, 272, -1,
          169, 273, 274, -1,
          169, 168, 273, -1,
          170, 274, 275, -1,
          170, 169, 274, -1,
          153, 275, 276, -1,
          153, 170, 275, -1,
          154, 276, 277, -1,
          154, 153, 276, -1,
          155, 277, 278, -1,
          155, 154, 277, -1,
          156, 278, 279, -1,
          156, 155, 278, -1,
          157, 156, 279, -1,
          157, 279, 280, -1,
          158, 157, 280, -1,
          158, 280, 281, -1,
          144, 158, 281, -1,
          144, 281, 282, -1,
          145, 144, 282, -1,
          145, 282, 283, -1,
          146, 145, 283, -1,
          146, 283, 284, -1,
          147, 284, 285, -1,
          147, 146, 284, -1,
          148, 285, 286, -1,
          148, 147, 285, -1,
          135, 286, 287, -1,
          135, 148, 286, -1,
          136, 287, 288, -1,
          136, 135, 287, -1,
          137, 288, 289, -1,
          137, 136, 288, -1,
          138, 289, 290, -1,
          138, 137, 289, -1,
          139, 290, 291, -1,
          139, 138, 290, -1,
          130, 291, 292, -1,
          130, 139, 291, -1,
          131, 292, 293, -1,
          131, 130, 292, -1,
          132, 293, 294, -1,
          132, 131, 293, -1,
          202, 294, 295, -1,
          202, 132, 294, -1,
          203, 295, 296, -1,
          203, 202, 295, -1,
          204, 296, 297, -1,
          204, 203, 296, -1,
          235, 297, 298, -1,
          235, 204, 297, -1,
          236, 298, 299, -1,
          236, 235, 298, -1,
          237, 299, 300, -1,
          237, 236, 299, -1,
          211, 300, 301, -1,
          211, 237, 300, -1,
          212, 301, 302, -1,
          212, 211, 301, -1,
          213, 302, 303, -1,
          213, 212, 302, -1,
          214, 303, 304, -1,
          214, 213, 303, -1,
          227, 214, 304, -1,
          227, 304, 305, -1,
          206, 227, 305, -1,
          206, 305, 306, -1,
          207, 206, 306, -1,
          207, 306, 307, -1,
          208, 207, 307, -1,
          208, 307, 308, -1,
          209, 208, 308, -1,
          209, 308, 309, -1,
          223, 209, 309, -1,
          223, 309, 310, -1,
          224, 223, 310, -1,
          224, 310, 311, -1,
          225, 224, 311, -1,
          225, 311, 312, -1,
          216, 225, 312, -1,
          216, 312, 313, -1,
          217, 216, 313, -1,
          217, 313, 314, -1,
          218, 217, 314, -1,
          218, 314, 315, -1,
          219, 218, 315, -1,
          219, 315, 316, -1,
          220, 219, 316, -1,
          220, 316, 317, -1,
          221, 220, 317, -1,
          221, 317, 318, -1,
          229, 318, 319, -1,
          229, 221, 318, -1,
          230, 319, 320, -1,
          230, 229, 319, -1,
          231, 320, 321, -1,
          231, 230, 320, -1,
          232, 321, 322, -1,
          232, 231, 321, -1,
          233, 322, 323, -1,
          233, 232, 322, -1,
          241, 323, 324, -1,
          241, 233, 323, -1,
          242, 324, 1, -1,
          242, 241, 324, -1,
          3, 242, 1, -1,
          277, 276, 278, -1,
          278, 280, 279, -1,
          278, 281, 280, -1,
          274, 273, 275, -1,
          275, 273, 276, -1,
          281, 283, 282, -1,
          272, 271, 273, -1,
          276, 271, 278, -1,
          281, 271, 283, -1,
          278, 271, 281, -1,
          273, 271, 276, -1,
          283, 285, 284, -1,
          271, 285, 283, -1,
          270, 269, 271, -1,
          268, 267, 269, -1,
          285, 289, 286, -1,
          286, 289, 287, -1,
          287, 289, 288, -1,
          289, 291, 290, -1,
          263, 127, 264, -1,
          264, 127, 265, -1,
          265, 127, 266, -1,
          266, 127, 267, -1,
          269, 127, 271, -1,
          267, 127, 269, -1,
          291, 294, 292, -1,
          292, 294, 293, -1,
          125, 123, 127, -1,
          123, 121, 127, -1,
          294, 297, 295, -1,
          295, 297, 296, -1,
          291, 297, 294, -1,
          289, 297, 291, -1,
          121, 119, 127, -1,
          127, 119, 271, -1,
          289, 301, 297, -1,
          297, 301, 298, -1,
          298, 301, 299, -1,
          299, 301, 300, -1,
          285, 301, 289, -1,
          113, 111, 115, -1,
          115, 111, 117, -1,
          117, 111, 119, -1,
          111, 107, 119, -1,
          109, 107, 111, -1,
          285, 305, 301, -1,
          301, 305, 302, -1,
          302, 305, 303, -1,
          303, 305, 304, -1,
          103, 101, 105, -1,
          105, 101, 107, -1,
          99, 97, 101, -1,
          101, 95, 107, -1,
          97, 95, 101, -1,
          285, 310, 305, -1,
          305, 310, 306, -1,
          306, 310, 307, -1,
          307, 310, 308, -1,
          308, 310, 309, -1,
          93, 91, 95, -1,
          89, 87, 91, -1,
          91, 87, 95, -1,
          119, 314, 271, -1,
          310, 314, 311, -1,
          311, 314, 312, -1,
          285, 314, 310, -1,
          312, 314, 313, -1,
          271, 314, 285, -1,
          95, 85, 107, -1,
          87, 85, 95, -1,
          119, 315, 314, -1,
          83, 81, 85, -1,
          315, 317, 316, -1,
          315, 318, 317, -1,
          119, 318, 315, -1,
          77, 75, 79, -1,
          79, 75, 81, -1,
          85, 75, 107, -1,
          81, 75, 85, -1,
          319, 321, 320, -1,
          73, 71, 75, -1,
          318, 323, 319, -1,
          321, 323, 322, -1,
          319, 323, 321, -1,
          71, 65, 75, -1,
          67, 65, 69, -1,
          69, 65, 71, -1,
          65, 63, 75, -1,
          323, 9, 324, -1,
          324, 9, 1, -1,
          1, 9, 2, -1,
          2, 9, 5, -1,
          5, 9, 7, -1,
          57, 55, 59, -1,
          55, 53, 59, -1,
          59, 53, 61, -1,
          9, 13, 11, -1,
          53, 51, 61, -1,
          61, 51, 63, -1,
          9, 15, 13, -1,
          323, 15, 9, -1,
          51, 49, 63, -1,
          15, 19, 17, -1,
          323, 21, 15, -1,
          15, 21, 19, -1,
          49, 43, 63, -1,
          45, 43, 47, -1,
          47, 43, 49, -1,
          323, 25, 21, -1,
          21, 25, 23, -1,
          323, 27, 25, -1,
          39, 37, 41, -1,
          37, 35, 41, -1,
          318, 33, 323, -1,
          63, 33, 75, -1,
          107, 33, 119, -1,
          43, 33, 63, -1,
          323, 33, 27, -1,
          35, 33, 41, -1,
          27, 33, 29, -1,
          29, 33, 31, -1,
          75, 33, 107, -1,
          41, 33, 43, -1,
          119, 33, 318, -1
        ]
      }
    }
}
