#VRML V2.0 utf8
WorldInfo {
  title "Exported triangle mesh to VRML97"
  info ["Created by FreeCAD"
        "<https://www.freecad.org>"]
}

Transform {
  scale 1 1 1
  rotation 0 0 1 0
  scaleOrientation 0 0 1 0
  center 0.000 0.000 0.000
  translation 0.000 0.000 0.000
  children
    Shape { 
      appearance
      Appearance {
        material
        Material {
          diffuseColor 0.8 0.8 0.8
        }
      }
      geometry
      IndexedFaceSet {
        coord
        Coordinate {
          point [
            0.523 0.206 1.093,
            0.523 0.256 1.043,
            0.570 0.257 1.043,
            0.573 0.207 1.093,
            0.618 0.260 1.043,
            0.623 0.211 1.093,
            0.665 0.266 1.043,
            0.672 0.217 1.093,
            0.711 0.274 1.043,
            0.721 0.225 1.093,
            0.758 0.285 1.043,
            0.770 0.237 1.093,
            0.803 0.298 1.043,
            0.818 0.250 1.093,
            0.848 0.313 1.043,
            0.865 0.266 1.093,
            0.892 0.330 1.043,
            0.912 0.284 1.093,
            0.935 0.350 1.043,
            0.957 0.305 1.093,
            0.977 0.371 1.043,
            1.001 0.327 1.093,
            1.018 0.395 1.043,
            1.045 0.352 1.093,
            1.058 0.421 1.043,
            1.086 0.379 1.093,
            1.097 0.448 1.043,
            1.127 0.409 1.093,
            1.134 0.478 1.043,
            1.166 0.440 1.093,
            1.169 0.509 1.043,
            1.203 0.473 1.093,
            1.203 0.542 1.043,
            1.239 0.507 1.093,
            1.235 0.577 1.043,
            1.273 0.544 1.093,
            1.266 0.613 1.043,
            1.305 0.582 1.093,
            1.294 0.651 1.043,
            1.335 0.622 1.093,
            1.321 0.690 1.043,
            1.363 0.663 1.093,
            1.346 0.731 1.043,
            1.389 0.706 1.093,
            1.368 0.772 1.043,
            1.413 0.749 1.093,
            1.435 0.794 1.093,
            1.389 0.815 1.043,
            1.407 0.859 1.043,
            1.454 0.840 1.093,
            1.424 0.903 1.043,
            1.471 0.887 1.093,
            1.486 0.935 1.093,
            1.438 0.948 1.043,
            1.449 0.994 1.043,
            1.498 0.983 1.093,
            1.459 1.041 1.043,
            1.508 1.032 1.093,
            1.466 1.088 1.043,
            1.515 1.081 1.093,
            1.520 1.131 1.093,
            1.470 1.135 1.043,
            1.473 1.182 1.043,
            1.523 1.181 1.093,
            1.473 1.229 1.043,
            1.523 1.231 1.093,
            1.470 1.277 1.043,
            1.520 1.280 1.093,
            1.515 1.330 1.093,
            1.466 1.324 1.043,
            1.459 1.371 1.043,
            1.508 1.379 1.093,
            1.449 1.417 1.043,
            1.498 1.428 1.093,
            1.438 1.463 1.043,
            1.486 1.476 1.093,
            1.471 1.524 1.093,
            1.424 1.508 1.043,
            1.407 1.553 1.043,
            1.454 1.571 1.093,
            1.389 1.596 1.043,
            1.435 1.617 1.093,
            1.368 1.639 1.043,
            1.413 1.662 1.093,
            1.346 1.681 1.043,
            1.389 1.706 1.093,
            1.321 1.721 1.043,
            1.363 1.748 1.093,
            1.294 1.760 1.043,
            1.335 1.789 1.093,
            1.266 1.798 1.043,
            1.305 1.829 1.093,
            1.235 1.834 1.043,
            1.273 1.867 1.093,
            1.203 1.869 1.043,
            1.239 1.904 1.093,
            1.203 1.939 1.093,
            1.169 1.902 1.043,
            1.134 1.933 1.043,
            1.166 1.972 1.093,
            1.097 1.963 1.043,
            1.127 2.003 1.093,
            1.058 1.991 1.043,
            1.086 2.032 1.093,
            1.018 2.016 1.043,
            1.045 2.059 1.093,
            0.977 2.040 1.043,
            1.001 2.084 1.093,
            0.957 2.107 1.093,
            0.935 2.062 1.043,
            0.892 2.081 1.043,
            0.912 2.127 1.093,
            0.848 2.098 1.043,
            0.865 2.145 1.093,
            0.818 2.161 1.093,
            0.803 2.113 1.043,
            0.758 2.126 1.043,
            0.770 2.175 1.093,
            0.711 2.137 1.043,
            0.721 2.186 1.093,
            0.672 2.194 1.093,
            0.665 2.145 1.043,
            0.623 2.201 1.093,
            0.618 2.151 1.043,
            0.570 2.154 1.043,
            0.573 2.204 1.093,
            0.523 2.156 1.043,
            0.523 2.206 1.093,
            0.523 2.067 1.855,
            0.570 2.154 1.812,
            0.523 2.156 1.812,
            0.618 2.151 1.812,
            0.570 0.257 1.812,
            0.523 0.344 1.855,
            0.523 0.256 1.812,
            0.618 0.260 1.812,
            0.664 2.090 1.839,
            0.665 2.145 1.812,
            0.711 2.137 1.812,
            0.758 2.126 1.812,
            0.664 1.961 1.895,
            0.523 1.976 1.894,
            0.523 1.884 1.929,
            0.804 2.021 1.855,
            0.803 2.113 1.812,
            0.848 2.098 1.812,
            0.892 2.081 1.812,
            0.664 1.829 1.942,
            0.523 1.790 1.959,
            0.804 1.891 1.906,
            0.664 1.693 1.980,
            0.523 1.695 1.984,
            0.523 1.598 2.005,
            0.943 1.947 1.859,
            0.935 2.062 1.812,
            0.977 2.040 1.812,
            1.018 2.016 1.812,
            1.058 1.991 1.812,
            0.804 1.758 1.948,
            0.664 1.556 2.008,
            0.523 1.501 2.022,
            0.943 1.817 1.905,
            0.804 1.622 1.981,
            1.080 1.872 1.852,
            1.097 1.963 1.812,
            1.134 1.933 1.812,
            1.169 1.902 1.812,
            1.203 1.869 1.812,
            0.664 1.416 2.027,
            0.523 1.403 2.034,
            0.523 1.304 2.041,
            0.943 1.684 1.943,
            0.804 1.484 2.005,
            1.080 1.742 1.893,
            0.664 1.276 2.037,
            0.523 1.206 2.043,
            0.943 1.549 1.971,
            1.214 1.794 1.833,
            1.235 1.834 1.812,
            1.266 1.798 1.812,
            1.294 1.760 1.812,
            0.804 1.345 2.019,
            1.080 1.610 1.925,
            0.664 1.135 2.037,
            0.523 1.107 2.041,
            0.943 1.412 1.989,
            1.214 1.666 1.869,
            1.321 1.721 1.812,
            1.346 1.681 1.812,
            0.804 1.206 2.024,
            1.080 1.476 1.948,
            0.664 0.995 2.027,
            0.523 1.009 2.034,
            0.523 0.911 2.022,
            0.943 1.275 1.999,
            1.214 1.536 1.896,
            0.804 1.066 2.019,
            1.080 1.341 1.962,
            1.346 1.591 1.833,
            1.368 1.639 1.812,
            1.389 1.596 1.812,
            1.407 1.553 1.812,
            0.664 0.856 2.008,
            0.523 0.813 2.005,
            0.943 1.137 1.999,
            1.214 1.405 1.914,
            0.804 0.927 2.005,
            1.080 1.206 1.967,
            1.346 1.464 1.855,
            1.424 1.508 1.812,
            1.438 1.463 1.812,
            1.449 1.417 1.812,
            0.664 0.718 1.980,
            0.523 0.717 1.984,
            0.523 0.621 1.959,
            0.943 0.999 1.989,
            1.214 1.272 1.923,
            0.804 0.789 1.981,
            1.080 1.070 1.962,
            1.346 1.335 1.868,
            1.459 1.371 1.812,
            1.466 1.324 1.812,
            1.470 1.277 1.812,
            0.664 0.582 1.942,
            0.523 0.527 1.929,
            0.943 0.862 1.971,
            1.214 1.139 1.923,
            0.804 0.654 1.948,
            1.080 0.935 1.948,
            1.346 1.206 1.872,
            1.473 1.229 1.812,
            1.473 1.182 1.812,
            1.470 1.135 1.812,
            0.664 0.450 1.895,
            0.523 0.435 1.894,
            0.943 0.727 1.943,
            1.214 1.007 1.914,
            0.804 0.521 1.906,
            1.080 0.801 1.925,
            1.346 1.076 1.868,
            1.466 1.088 1.812,
            1.459 1.041 1.812,
            1.449 0.994 1.812,
            0.664 0.321 1.839,
            0.711 0.274 1.812,
            0.758 0.285 1.812,
            0.665 0.266 1.812,
            0.943 0.594 1.905,
            1.214 0.875 1.896,
            0.804 0.391 1.855,
            0.848 0.313 1.812,
            0.892 0.330 1.812,
            0.803 0.298 1.812,
            1.080 0.669 1.893,
            1.346 0.948 1.855,
            1.438 0.948 1.812,
            1.424 0.903 1.812,
            1.407 0.859 1.812,
            0.943 0.464 1.859,
            1.018 0.395 1.812,
            1.058 0.421 1.812,
            0.977 0.371 1.812,
            0.935 0.350 1.812,
            1.214 0.745 1.869,
            1.321 0.690 1.812,
            1.346 0.731 1.812,
            1.294 0.651 1.812,
            1.080 0.540 1.852,
            1.169 0.509 1.812,
            1.203 0.542 1.812,
            1.134 0.478 1.812,
            1.097 0.448 1.812,
            1.346 0.820 1.833,
            1.389 0.815 1.812,
            1.368 0.772 1.812,
            1.214 0.617 1.833,
            1.266 0.613 1.812,
            1.235 0.577 1.812,
            0.573 2.204 1.762,
            0.523 2.206 1.762,
            0.623 2.201 1.762,
            0.672 2.194 1.762,
            0.721 2.186 1.762,
            0.770 2.175 1.762,
            0.818 2.161 1.762,
            0.865 2.145 1.762,
            0.912 2.127 1.762,
            0.957 2.107 1.762,
            1.001 2.084 1.762,
            1.045 2.059 1.762,
            1.086 2.032 1.762,
            1.127 2.003 1.762,
            1.166 1.972 1.762,
            1.203 1.939 1.762,
            1.239 1.904 1.762,
            1.273 1.867 1.762,
            1.305 1.829 1.762,
            1.335 1.789 1.762,
            1.363 1.748 1.762,
            1.389 1.706 1.762,
            1.413 1.662 1.762,
            1.435 1.617 1.762,
            1.454 1.571 1.762,
            1.471 1.524 1.762,
            1.486 1.476 1.762,
            1.498 1.428 1.762,
            1.508 1.379 1.762,
            1.515 1.330 1.762,
            1.520 1.280 1.762,
            1.523 1.231 1.762,
            1.523 1.181 1.762,
            1.520 1.131 1.762,
            1.515 1.081 1.762,
            1.508 1.032 1.762,
            1.498 0.983 1.762,
            1.486 0.935 1.762,
            1.471 0.887 1.762,
            1.454 0.840 1.762,
            1.435 0.794 1.762,
            1.413 0.749 1.762,
            1.389 0.706 1.762,
            1.363 0.663 1.762,
            1.335 0.622 1.762,
            1.305 0.582 1.762,
            1.273 0.544 1.762,
            1.239 0.507 1.762,
            1.203 0.473 1.762,
            1.166 0.440 1.762,
            1.127 0.409 1.762,
            1.086 0.379 1.762,
            1.045 0.352 1.762,
            1.001 0.327 1.762,
            0.957 0.305 1.762,
            0.912 0.284 1.762,
            0.865 0.266 1.762,
            0.818 0.250 1.762,
            0.770 0.237 1.762,
            0.721 0.225 1.762,
            0.672 0.217 1.762,
            0.623 0.211 1.762,
            0.573 0.207 1.762,
            0.523 0.206 1.762,
            -0.275 0.690 1.043,
            -0.220 0.613 1.043,
            -0.248 0.651 1.043,
            -0.343 0.815 1.043,
            -0.300 0.731 1.043,
            -0.322 0.772 1.043,
            -0.403 0.994 1.043,
            -0.377 0.903 1.043,
            -0.391 0.948 1.043,
            0.335 0.274 1.043,
            0.289 0.285 1.043,
            0.243 0.298 1.043,
            -0.420 1.088 1.043,
            -0.412 1.041 1.043,
            -0.420 1.324 1.043,
            -0.427 1.229 1.043,
            -0.424 1.277 1.043,
            -0.391 1.463 1.043,
            -0.412 1.371 1.043,
            -0.403 1.417 1.043,
            -0.377 1.508 1.043,
            -0.322 1.639 1.043,
            -0.361 1.553 1.043,
            -0.343 1.596 1.043,
            -0.300 1.681 1.043,
            -0.275 1.721 1.043,
            0.476 0.257 1.043,
            0.429 0.260 1.043,
            0.382 0.266 1.043,
            0.198 0.313 1.043,
            0.154 0.330 1.043,
            0.111 0.350 1.043,
            0.069 0.371 1.043,
            0.028 0.395 1.043,
            -0.012 0.421 1.043,
            -0.050 0.448 1.043,
            -0.088 0.478 1.043,
            -0.123 0.509 1.043,
            -0.157 0.542 1.043,
            -0.220 1.798 1.043,
            -0.248 1.760 1.043,
            -0.189 1.834 1.043,
            -0.123 1.902 1.043,
            -0.157 1.869 1.043,
            -0.088 1.933 1.043,
            -0.050 1.963 1.043,
            -0.012 1.991 1.043,
            0.069 2.040 1.043,
            0.028 2.016 1.043,
            0.154 2.081 1.043,
            0.111 2.062 1.043,
            0.243 2.113 1.043,
            0.198 2.098 1.043,
            0.289 2.126 1.043,
            0.335 2.137 1.043,
            -0.424 1.135 1.043,
            -0.427 1.182 1.043,
            0.429 2.151 1.043,
            0.476 2.154 1.043,
            0.382 2.145 1.043,
            -0.189 0.577 1.043,
            -0.361 0.859 1.043,
            0.473 0.207 1.093,
            0.473 0.207 1.762,
            0.424 0.211 1.093,
            0.424 0.211 1.762,
            0.374 0.217 1.093,
            0.374 0.217 1.762,
            0.325 0.225 1.093,
            0.325 0.225 1.762,
            0.276 0.237 1.093,
            0.276 0.237 1.762,
            0.228 0.250 1.093,
            0.228 0.250 1.762,
            0.181 0.266 1.093,
            0.181 0.266 1.762,
            0.135 0.284 1.093,
            0.135 0.284 1.762,
            0.089 0.305 1.093,
            0.089 0.305 1.762,
            0.045 0.327 1.093,
            0.045 0.327 1.762,
            0.002 0.352 1.093,
            0.002 0.352 1.762,
            -0.040 0.379 1.093,
            -0.040 0.379 1.762,
            -0.081 0.409 1.093,
            -0.081 0.409 1.762,
            -0.120 0.440 1.093,
            -0.120 0.440 1.762,
            -0.157 0.473 1.093,
            -0.157 0.473 1.762,
            -0.193 0.507 1.093,
            -0.193 0.507 1.762,
            -0.227 0.544 1.093,
            -0.227 0.544 1.762,
            -0.259 0.582 1.093,
            -0.259 0.582 1.762,
            -0.289 0.622 1.093,
            -0.289 0.622 1.762,
            -0.317 0.663 1.093,
            -0.317 0.663 1.762,
            -0.343 0.706 1.093,
            -0.343 0.706 1.762,
            -0.367 0.749 1.093,
            -0.367 0.749 1.762,
            -0.388 0.794 1.093,
            -0.388 0.794 1.762,
            -0.408 0.840 1.093,
            -0.408 0.840 1.762,
            -0.425 0.887 1.093,
            -0.425 0.887 1.762,
            -0.440 0.935 1.093,
            -0.440 0.935 1.762,
            -0.452 0.983 1.093,
            -0.452 0.983 1.762,
            -0.462 1.032 1.093,
            -0.462 1.032 1.762,
            -0.469 1.081 1.093,
            -0.469 1.081 1.762,
            -0.474 1.131 1.093,
            -0.474 1.131 1.762,
            -0.477 1.181 1.093,
            -0.477 1.181 1.762,
            -0.477 1.231 1.093,
            -0.477 1.231 1.762,
            -0.474 1.280 1.093,
            -0.474 1.280 1.762,
            -0.469 1.330 1.093,
            -0.469 1.330 1.762,
            -0.462 1.379 1.093,
            -0.462 1.379 1.762,
            -0.452 1.428 1.093,
            -0.452 1.428 1.762,
            -0.440 1.476 1.093,
            -0.440 1.476 1.762,
            -0.425 1.524 1.093,
            -0.425 1.524 1.762,
            -0.408 1.571 1.093,
            -0.408 1.571 1.762,
            -0.388 1.617 1.093,
            -0.388 1.617 1.762,
            -0.367 1.662 1.093,
            -0.367 1.662 1.762,
            -0.343 1.706 1.093,
            -0.343 1.706 1.762,
            -0.317 1.748 1.093,
            -0.317 1.748 1.762,
            -0.289 1.789 1.093,
            -0.289 1.789 1.762,
            -0.259 1.829 1.093,
            -0.259 1.829 1.762,
            -0.227 1.867 1.093,
            -0.227 1.867 1.762,
            -0.193 1.904 1.093,
            -0.193 1.904 1.762,
            -0.157 1.939 1.093,
            -0.157 1.939 1.762,
            -0.120 1.972 1.093,
            -0.120 1.972 1.762,
            -0.081 2.003 1.093,
            -0.081 2.003 1.762,
            -0.040 2.032 1.093,
            -0.040 2.032 1.762,
            0.002 2.059 1.093,
            0.002 2.059 1.762,
            0.045 2.084 1.093,
            0.045 2.084 1.762,
            0.089 2.107 1.093,
            0.089 2.107 1.762,
            0.135 2.127 1.093,
            0.135 2.127 1.762,
            0.181 2.145 1.093,
            0.181 2.145 1.762,
            0.228 2.161 1.093,
            0.228 2.161 1.762,
            0.276 2.175 1.093,
            0.276 2.175 1.762,
            0.325 2.186 1.093,
            0.325 2.186 1.762,
            0.374 2.194 1.093,
            0.374 2.194 1.762,
            0.424 2.201 1.762,
            0.424 2.201 1.093,
            0.473 2.204 1.093,
            0.473 2.204 1.762,
            0.476 0.257 1.812,
            0.429 0.260 1.812,
            0.382 0.266 1.812,
            0.335 0.274 1.812,
            0.289 0.285 1.812,
            0.243 0.298 1.812,
            0.198 0.313 1.812,
            0.154 0.330 1.812,
            0.111 0.350 1.812,
            0.069 0.371 1.812,
            0.028 0.395 1.812,
            -0.012 0.421 1.812,
            -0.050 0.448 1.812,
            -0.088 0.478 1.812,
            -0.123 0.509 1.812,
            -0.157 0.542 1.812,
            -0.189 0.577 1.812,
            -0.220 0.613 1.812,
            -0.248 0.651 1.812,
            -0.275 0.690 1.812,
            -0.300 0.731 1.812,
            -0.322 0.772 1.812,
            -0.343 0.815 1.812,
            -0.361 0.859 1.812,
            -0.377 0.903 1.812,
            -0.391 0.948 1.812,
            -0.403 0.994 1.812,
            -0.412 1.041 1.812,
            -0.420 1.088 1.812,
            -0.424 1.135 1.812,
            -0.427 1.182 1.812,
            -0.427 1.229 1.812,
            -0.424 1.277 1.812,
            -0.420 1.324 1.812,
            -0.412 1.371 1.812,
            -0.403 1.417 1.812,
            -0.391 1.463 1.812,
            -0.377 1.508 1.812,
            -0.361 1.553 1.812,
            -0.343 1.596 1.812,
            -0.322 1.639 1.812,
            -0.300 1.681 1.812,
            -0.275 1.721 1.812,
            -0.248 1.760 1.812,
            -0.220 1.798 1.812,
            -0.189 1.834 1.812,
            -0.157 1.869 1.812,
            -0.123 1.902 1.812,
            -0.088 1.933 1.812,
            -0.050 1.963 1.812,
            -0.012 1.991 1.812,
            0.028 2.016 1.812,
            0.069 2.040 1.812,
            0.111 2.062 1.812,
            0.154 2.081 1.812,
            0.198 2.098 1.812,
            0.243 2.113 1.812,
            0.289 2.126 1.812,
            0.335 2.137 1.812,
            0.382 2.145 1.812,
            0.429 2.151 1.812,
            0.476 2.154 1.812,
            -0.299 1.654 1.819,
            -0.034 1.935 1.828,
            -0.168 1.731 1.852,
            0.103 2.011 1.833,
            -0.299 1.528 1.845,
            -0.034 1.807 1.874,
            0.242 2.084 1.826,
            -0.168 1.602 1.883,
            0.103 1.883 1.883,
            -0.299 1.399 1.862,
            -0.034 1.676 1.910,
            0.242 1.956 1.881,
            -0.168 1.471 1.906,
            0.103 1.751 1.925,
            0.382 2.026 1.868,
            -0.299 1.270 1.871,
            -0.034 1.543 1.938,
            0.242 1.824 1.928,
            -0.168 1.338 1.920,
            0.103 1.617 1.958,
            0.382 1.896 1.919,
            -0.299 1.141 1.871,
            -0.034 1.409 1.956,
            0.242 1.690 1.966,
            -0.168 1.206 1.924,
            0.103 1.481 1.981,
            0.382 1.761 1.962,
            -0.299 1.012 1.862,
            -0.034 1.274 1.965,
            0.242 1.553 1.994,
            -0.168 1.073 1.920,
            0.103 1.344 1.995,
            0.382 1.625 1.995,
            -0.299 0.884 1.845,
            -0.034 1.138 1.965,
            0.242 1.415 2.013,
            -0.168 0.941 1.906,
            0.103 1.206 2.000,
            0.382 1.486 2.019,
            -0.299 0.757 1.819,
            -0.034 1.002 1.956,
            0.242 1.275 2.023,
            -0.168 0.810 1.883,
            0.103 1.068 1.995,
            0.382 1.346 2.033,
            -0.034 0.868 1.938,
            0.242 1.136 2.023,
            -0.168 0.681 1.852,
            0.103 0.930 1.981,
            0.382 1.206 2.038,
            -0.034 0.735 1.910,
            0.242 0.996 2.013,
            0.103 0.794 1.958,
            0.382 1.065 2.033,
            -0.034 0.604 1.874,
            0.242 0.858 1.994,
            0.103 0.660 1.925,
            0.382 0.925 2.019,
            -0.034 0.476 1.828,
            0.242 0.721 1.966,
            0.103 0.529 1.883,
            0.382 0.787 1.995,
            0.242 0.587 1.928,
            0.103 0.400 1.833,
            0.382 0.650 1.962,
            0.242 0.455 1.881,
            0.382 0.516 1.919,
            0.242 0.327 1.826,
            0.382 0.385 1.868
          ]
        }
        coordIndex [
          0, 1, 2, -1,
          3, 0, 2, -1,
          3, 2, 4, -1,
          5, 3, 4, -1,
          5, 4, 6, -1,
          7, 5, 6, -1,
          7, 6, 8, -1,
          9, 7, 8, -1,
          9, 8, 10, -1,
          11, 9, 10, -1,
          11, 10, 12, -1,
          13, 12, 14, -1,
          13, 11, 12, -1,
          15, 14, 16, -1,
          15, 13, 14, -1,
          17, 16, 18, -1,
          17, 15, 16, -1,
          19, 18, 20, -1,
          19, 17, 18, -1,
          21, 20, 22, -1,
          21, 19, 20, -1,
          23, 22, 24, -1,
          23, 21, 22, -1,
          25, 24, 26, -1,
          25, 23, 24, -1,
          27, 26, 28, -1,
          27, 25, 26, -1,
          29, 28, 30, -1,
          29, 27, 28, -1,
          31, 30, 32, -1,
          31, 29, 30, -1,
          33, 32, 34, -1,
          33, 31, 32, -1,
          35, 34, 36, -1,
          35, 33, 34, -1,
          37, 35, 36, -1,
          37, 36, 38, -1,
          39, 37, 38, -1,
          39, 38, 40, -1,
          41, 39, 40, -1,
          41, 40, 42, -1,
          43, 41, 42, -1,
          43, 42, 44, -1,
          45, 43, 44, -1,
          46, 45, 44, -1,
          46, 47, 48, -1,
          46, 44, 47, -1,
          49, 46, 48, -1,
          49, 48, 50, -1,
          51, 49, 50, -1,
          52, 51, 50, -1,
          52, 53, 54, -1,
          52, 50, 53, -1,
          55, 54, 56, -1,
          55, 52, 54, -1,
          57, 56, 58, -1,
          57, 55, 56, -1,
          59, 57, 58, -1,
          60, 61, 62, -1,
          60, 58, 61, -1,
          60, 59, 58, -1,
          63, 62, 64, -1,
          63, 60, 62, -1,
          65, 64, 66, -1,
          65, 63, 64, -1,
          67, 65, 66, -1,
          68, 69, 70, -1,
          68, 66, 69, -1,
          68, 67, 66, -1,
          71, 70, 72, -1,
          71, 68, 70, -1,
          73, 72, 74, -1,
          73, 71, 72, -1,
          75, 73, 74, -1,
          76, 77, 78, -1,
          76, 74, 77, -1,
          76, 75, 74, -1,
          79, 78, 80, -1,
          79, 76, 78, -1,
          81, 80, 82, -1,
          81, 79, 80, -1,
          83, 82, 84, -1,
          83, 81, 82, -1,
          85, 84, 86, -1,
          85, 83, 84, -1,
          87, 85, 86, -1,
          87, 86, 88, -1,
          89, 87, 88, -1,
          89, 88, 90, -1,
          91, 89, 90, -1,
          91, 90, 92, -1,
          93, 91, 92, -1,
          93, 92, 94, -1,
          95, 93, 94, -1,
          96, 97, 98, -1,
          96, 94, 97, -1,
          96, 95, 94, -1,
          99, 98, 100, -1,
          99, 96, 98, -1,
          101, 100, 102, -1,
          101, 99, 100, -1,
          103, 102, 104, -1,
          103, 101, 102, -1,
          105, 104, 106, -1,
          105, 103, 104, -1,
          107, 105, 106, -1,
          108, 109, 110, -1,
          108, 106, 109, -1,
          108, 107, 106, -1,
          111, 110, 112, -1,
          111, 108, 110, -1,
          113, 111, 112, -1,
          114, 115, 116, -1,
          114, 112, 115, -1,
          114, 113, 112, -1,
          117, 116, 118, -1,
          117, 114, 116, -1,
          119, 117, 118, -1,
          120, 118, 121, -1,
          120, 119, 118, -1,
          122, 123, 124, -1,
          122, 121, 123, -1,
          122, 120, 121, -1,
          125, 124, 126, -1,
          125, 122, 124, -1,
          127, 125, 126, -1,
          128, 129, 130, -1,
          131, 129, 128, -1,
          132, 133, 134, -1,
          135, 133, 132, -1,
          136, 137, 131, -1,
          136, 138, 137, -1,
          136, 139, 138, -1,
          136, 131, 128, -1,
          140, 141, 142, -1,
          140, 128, 141, -1,
          140, 136, 128, -1,
          143, 144, 139, -1,
          143, 145, 144, -1,
          143, 146, 145, -1,
          143, 136, 140, -1,
          143, 139, 136, -1,
          147, 142, 148, -1,
          147, 140, 142, -1,
          149, 140, 147, -1,
          149, 143, 140, -1,
          150, 151, 152, -1,
          150, 148, 151, -1,
          150, 147, 148, -1,
          153, 146, 143, -1,
          153, 154, 146, -1,
          153, 155, 154, -1,
          153, 156, 155, -1,
          153, 157, 156, -1,
          153, 143, 149, -1,
          158, 149, 147, -1,
          158, 147, 150, -1,
          159, 152, 160, -1,
          159, 150, 152, -1,
          161, 149, 158, -1,
          161, 153, 149, -1,
          162, 158, 150, -1,
          162, 150, 159, -1,
          163, 164, 157, -1,
          163, 165, 164, -1,
          163, 166, 165, -1,
          163, 167, 166, -1,
          163, 153, 161, -1,
          163, 157, 153, -1,
          168, 169, 170, -1,
          168, 160, 169, -1,
          168, 159, 160, -1,
          171, 158, 162, -1,
          171, 161, 158, -1,
          172, 162, 159, -1,
          172, 159, 168, -1,
          173, 161, 171, -1,
          173, 163, 161, -1,
          174, 170, 175, -1,
          174, 168, 170, -1,
          176, 171, 162, -1,
          176, 162, 172, -1,
          177, 178, 167, -1,
          177, 179, 178, -1,
          177, 180, 179, -1,
          177, 167, 163, -1,
          177, 163, 173, -1,
          181, 168, 174, -1,
          181, 172, 168, -1,
          182, 171, 176, -1,
          182, 173, 171, -1,
          183, 175, 184, -1,
          183, 174, 175, -1,
          185, 172, 181, -1,
          185, 176, 172, -1,
          186, 173, 182, -1,
          186, 187, 180, -1,
          186, 188, 187, -1,
          186, 180, 177, -1,
          186, 177, 173, -1,
          189, 181, 174, -1,
          189, 174, 183, -1,
          190, 182, 176, -1,
          190, 176, 185, -1,
          191, 184, 192, -1,
          191, 192, 193, -1,
          191, 183, 184, -1,
          194, 185, 181, -1,
          194, 181, 189, -1,
          195, 182, 190, -1,
          195, 186, 182, -1,
          196, 189, 183, -1,
          196, 183, 191, -1,
          197, 185, 194, -1,
          197, 190, 185, -1,
          198, 199, 188, -1,
          198, 200, 199, -1,
          198, 201, 200, -1,
          198, 188, 186, -1,
          198, 186, 195, -1,
          202, 191, 193, -1,
          202, 193, 203, -1,
          204, 194, 189, -1,
          204, 189, 196, -1,
          205, 195, 190, -1,
          205, 190, 197, -1,
          206, 196, 191, -1,
          206, 191, 202, -1,
          207, 197, 194, -1,
          207, 194, 204, -1,
          208, 201, 198, -1,
          208, 195, 205, -1,
          208, 209, 201, -1,
          208, 210, 209, -1,
          208, 211, 210, -1,
          208, 198, 195, -1,
          212, 203, 213, -1,
          212, 213, 214, -1,
          212, 202, 203, -1,
          215, 196, 206, -1,
          215, 204, 196, -1,
          216, 205, 197, -1,
          216, 197, 207, -1,
          217, 206, 202, -1,
          217, 202, 212, -1,
          218, 204, 215, -1,
          218, 207, 204, -1,
          219, 208, 205, -1,
          219, 220, 211, -1,
          219, 221, 220, -1,
          219, 222, 221, -1,
          219, 205, 216, -1,
          219, 211, 208, -1,
          223, 214, 224, -1,
          223, 212, 214, -1,
          225, 206, 217, -1,
          225, 215, 206, -1,
          226, 207, 218, -1,
          226, 216, 207, -1,
          227, 212, 223, -1,
          227, 217, 212, -1,
          228, 218, 215, -1,
          228, 215, 225, -1,
          229, 216, 226, -1,
          229, 230, 222, -1,
          229, 231, 230, -1,
          229, 232, 231, -1,
          229, 222, 219, -1,
          229, 219, 216, -1,
          233, 224, 234, -1,
          233, 234, 133, -1,
          233, 223, 224, -1,
          235, 225, 217, -1,
          235, 217, 227, -1,
          236, 218, 228, -1,
          236, 226, 218, -1,
          237, 223, 233, -1,
          237, 227, 223, -1,
          238, 225, 235, -1,
          238, 228, 225, -1,
          239, 226, 236, -1,
          239, 240, 232, -1,
          239, 241, 240, -1,
          239, 242, 241, -1,
          239, 229, 226, -1,
          239, 232, 229, -1,
          243, 233, 133, -1,
          243, 244, 245, -1,
          243, 246, 244, -1,
          243, 135, 246, -1,
          243, 133, 135, -1,
          247, 227, 237, -1,
          247, 235, 227, -1,
          248, 236, 228, -1,
          248, 228, 238, -1,
          249, 237, 233, -1,
          249, 233, 243, -1,
          249, 243, 245, -1,
          249, 250, 251, -1,
          249, 252, 250, -1,
          249, 245, 252, -1,
          253, 238, 235, -1,
          253, 235, 247, -1,
          254, 236, 248, -1,
          254, 242, 239, -1,
          254, 255, 242, -1,
          254, 256, 255, -1,
          254, 239, 236, -1,
          254, 257, 256, -1,
          258, 247, 237, -1,
          258, 237, 249, -1,
          258, 249, 251, -1,
          258, 259, 260, -1,
          258, 261, 259, -1,
          258, 262, 261, -1,
          258, 251, 262, -1,
          263, 248, 238, -1,
          263, 264, 265, -1,
          263, 266, 264, -1,
          263, 238, 253, -1,
          267, 253, 247, -1,
          267, 247, 258, -1,
          267, 258, 260, -1,
          267, 268, 269, -1,
          267, 270, 268, -1,
          267, 271, 270, -1,
          267, 260, 271, -1,
          272, 248, 263, -1,
          272, 263, 265, -1,
          272, 257, 254, -1,
          272, 273, 257, -1,
          272, 274, 273, -1,
          272, 265, 274, -1,
          272, 254, 248, -1,
          275, 253, 267, -1,
          275, 266, 263, -1,
          275, 276, 266, -1,
          275, 277, 276, -1,
          275, 269, 277, -1,
          275, 267, 269, -1,
          275, 263, 253, -1,
          278, 130, 129, -1,
          278, 279, 130, -1,
          280, 129, 131, -1,
          280, 278, 129, -1,
          281, 131, 137, -1,
          281, 280, 131, -1,
          282, 137, 138, -1,
          282, 281, 137, -1,
          283, 138, 139, -1,
          283, 282, 138, -1,
          284, 139, 144, -1,
          284, 283, 139, -1,
          285, 144, 145, -1,
          285, 284, 144, -1,
          286, 145, 146, -1,
          286, 285, 145, -1,
          287, 146, 154, -1,
          287, 286, 146, -1,
          288, 154, 155, -1,
          288, 287, 154, -1,
          289, 155, 156, -1,
          289, 288, 155, -1,
          290, 156, 157, -1,
          290, 289, 156, -1,
          291, 157, 164, -1,
          291, 290, 157, -1,
          292, 164, 165, -1,
          292, 291, 164, -1,
          293, 165, 166, -1,
          293, 292, 165, -1,
          294, 166, 167, -1,
          294, 293, 166, -1,
          295, 167, 178, -1,
          295, 294, 167, -1,
          296, 295, 178, -1,
          296, 178, 179, -1,
          297, 296, 179, -1,
          297, 179, 180, -1,
          298, 297, 180, -1,
          298, 180, 187, -1,
          299, 298, 187, -1,
          299, 187, 188, -1,
          300, 299, 188, -1,
          300, 188, 199, -1,
          301, 199, 200, -1,
          301, 300, 199, -1,
          302, 200, 201, -1,
          302, 301, 200, -1,
          303, 201, 209, -1,
          303, 302, 201, -1,
          304, 209, 210, -1,
          304, 303, 209, -1,
          305, 210, 211, -1,
          305, 304, 210, -1,
          306, 211, 220, -1,
          306, 305, 211, -1,
          307, 220, 221, -1,
          307, 306, 220, -1,
          308, 221, 222, -1,
          308, 222, 230, -1,
          308, 307, 221, -1,
          309, 230, 231, -1,
          309, 308, 230, -1,
          310, 309, 231, -1,
          311, 231, 232, -1,
          311, 232, 240, -1,
          311, 310, 231, -1,
          312, 311, 240, -1,
          313, 240, 241, -1,
          313, 312, 240, -1,
          314, 241, 242, -1,
          314, 313, 241, -1,
          315, 242, 255, -1,
          315, 314, 242, -1,
          316, 255, 256, -1,
          316, 315, 255, -1,
          317, 256, 257, -1,
          317, 316, 256, -1,
          318, 257, 273, -1,
          318, 317, 257, -1,
          319, 273, 274, -1,
          319, 318, 273, -1,
          320, 274, 265, -1,
          320, 319, 274, -1,
          321, 320, 265, -1,
          321, 265, 264, -1,
          322, 321, 264, -1,
          322, 264, 266, -1,
          323, 322, 266, -1,
          323, 266, 276, -1,
          324, 323, 276, -1,
          324, 276, 277, -1,
          325, 324, 277, -1,
          325, 277, 269, -1,
          325, 269, 268, -1,
          326, 325, 268, -1,
          327, 326, 268, -1,
          327, 268, 270, -1,
          327, 270, 271, -1,
          328, 327, 271, -1,
          329, 328, 271, -1,
          329, 271, 260, -1,
          330, 329, 260, -1,
          330, 260, 259, -1,
          330, 259, 261, -1,
          331, 330, 261, -1,
          331, 261, 262, -1,
          332, 331, 262, -1,
          333, 332, 262, -1,
          333, 262, 251, -1,
          333, 251, 250, -1,
          334, 333, 250, -1,
          335, 250, 252, -1,
          335, 334, 250, -1,
          335, 252, 245, -1,
          336, 335, 245, -1,
          337, 245, 244, -1,
          337, 336, 245, -1,
          338, 244, 246, -1,
          338, 337, 244, -1,
          339, 246, 135, -1,
          339, 135, 132, -1,
          339, 338, 246, -1,
          340, 339, 132, -1,
          341, 132, 134, -1,
          341, 340, 132, -1,
          125, 279, 278, -1,
          125, 127, 279, -1,
          122, 278, 280, -1,
          122, 125, 278, -1,
          120, 280, 281, -1,
          120, 122, 280, -1,
          119, 281, 282, -1,
          119, 120, 281, -1,
          117, 282, 283, -1,
          117, 119, 282, -1,
          114, 283, 284, -1,
          114, 117, 283, -1,
          113, 284, 285, -1,
          113, 114, 284, -1,
          111, 285, 286, -1,
          111, 113, 285, -1,
          108, 286, 287, -1,
          108, 111, 286, -1,
          107, 287, 288, -1,
          107, 108, 287, -1,
          105, 288, 289, -1,
          105, 107, 288, -1,
          103, 289, 290, -1,
          103, 105, 289, -1,
          101, 290, 291, -1,
          101, 103, 290, -1,
          99, 291, 292, -1,
          99, 101, 291, -1,
          96, 292, 293, -1,
          96, 99, 292, -1,
          95, 293, 294, -1,
          95, 96, 293, -1,
          93, 294, 295, -1,
          93, 95, 294, -1,
          91, 295, 296, -1,
          91, 93, 295, -1,
          89, 91, 296, -1,
          89, 296, 297, -1,
          87, 89, 297, -1,
          87, 297, 298, -1,
          85, 87, 298, -1,
          85, 298, 299, -1,
          83, 85, 299, -1,
          83, 299, 300, -1,
          81, 300, 301, -1,
          81, 83, 300, -1,
          79, 301, 302, -1,
          79, 81, 301, -1,
          76, 302, 303, -1,
          76, 79, 302, -1,
          75, 303, 304, -1,
          75, 76, 303, -1,
          73, 304, 305, -1,
          73, 75, 304, -1,
          71, 305, 306, -1,
          71, 73, 305, -1,
          68, 306, 307, -1,
          68, 71, 306, -1,
          67, 307, 308, -1,
          67, 68, 307, -1,
          65, 308, 309, -1,
          65, 67, 308, -1,
          63, 309, 310, -1,
          63, 65, 309, -1,
          60, 310, 311, -1,
          60, 63, 310, -1,
          59, 311, 312, -1,
          59, 60, 311, -1,
          57, 312, 313, -1,
          57, 59, 312, -1,
          55, 313, 314, -1,
          55, 57, 313, -1,
          52, 314, 315, -1,
          52, 55, 314, -1,
          51, 315, 316, -1,
          51, 52, 315, -1,
          49, 316, 317, -1,
          49, 51, 316, -1,
          46, 317, 318, -1,
          46, 49, 317, -1,
          45, 318, 319, -1,
          45, 46, 318, -1,
          43, 319, 320, -1,
          43, 45, 319, -1,
          41, 43, 320, -1,
          41, 320, 321, -1,
          39, 41, 321, -1,
          39, 321, 322, -1,
          37, 39, 322, -1,
          37, 322, 323, -1,
          35, 37, 323, -1,
          35, 323, 324, -1,
          33, 35, 324, -1,
          33, 324, 325, -1,
          31, 33, 325, -1,
          31, 325, 326, -1,
          29, 31, 326, -1,
          29, 326, 327, -1,
          27, 29, 327, -1,
          27, 327, 328, -1,
          25, 27, 328, -1,
          25, 328, 329, -1,
          25, 329, 330, -1,
          23, 25, 330, -1,
          21, 23, 330, -1,
          21, 330, 331, -1,
          21, 331, 332, -1,
          19, 21, 332, -1,
          17, 19, 332, -1,
          17, 332, 333, -1,
          15, 333, 334, -1,
          15, 17, 333, -1,
          13, 334, 335, -1,
          13, 15, 334, -1,
          11, 335, 336, -1,
          11, 13, 335, -1,
          9, 336, 337, -1,
          9, 337, 338, -1,
          9, 11, 336, -1,
          7, 9, 338, -1,
          5, 338, 339, -1,
          5, 7, 338, -1,
          3, 339, 340, -1,
          3, 340, 341, -1,
          3, 5, 339, -1,
          0, 3, 341, -1,
          342, 343, 344, -1,
          345, 346, 347, -1,
          348, 349, 350, -1,
          351, 352, 353, -1,
          354, 348, 355, -1,
          356, 357, 358, -1,
          359, 360, 361, -1,
          362, 360, 359, -1,
          14, 12, 10, -1,
          14, 10, 8, -1,
          363, 362, 364, -1,
          363, 364, 365, -1,
          20, 18, 16, -1,
          20, 16, 14, -1,
          366, 362, 363, -1,
          367, 362, 366, -1,
          24, 1, 368, -1,
          24, 368, 369, -1,
          24, 369, 370, -1,
          24, 370, 351, -1,
          24, 353, 371, -1,
          24, 371, 372, -1,
          24, 372, 373, -1,
          24, 373, 374, -1,
          24, 14, 8, -1,
          24, 374, 375, -1,
          24, 375, 376, -1,
          24, 376, 377, -1,
          24, 377, 378, -1,
          24, 22, 20, -1,
          24, 378, 379, -1,
          24, 379, 380, -1,
          24, 8, 6, -1,
          24, 6, 4, -1,
          24, 4, 2, -1,
          24, 2, 1, -1,
          24, 351, 353, -1,
          24, 20, 14, -1,
          381, 367, 382, -1,
          28, 26, 24, -1,
          383, 367, 381, -1,
          30, 28, 24, -1,
          384, 367, 383, -1,
          384, 383, 385, -1,
          386, 367, 384, -1,
          387, 367, 386, -1,
          38, 36, 34, -1,
          388, 367, 387, -1,
          389, 362, 367, -1,
          389, 356, 360, -1,
          389, 360, 362, -1,
          389, 388, 390, -1,
          389, 367, 388, -1,
          391, 389, 392, -1,
          50, 48, 47, -1,
          50, 47, 44, -1,
          50, 44, 42, -1,
          393, 391, 394, -1,
          393, 389, 391, -1,
          53, 50, 42, -1,
          395, 389, 393, -1,
          396, 356, 389, -1,
          396, 354, 397, -1,
          396, 397, 398, -1,
          396, 398, 357, -1,
          396, 389, 395, -1,
          396, 357, 356, -1,
          58, 56, 54, -1,
          62, 61, 58, -1,
          126, 399, 400, -1,
          124, 399, 126, -1,
          124, 396, 401, -1,
          124, 401, 399, -1,
          69, 66, 64, -1,
          118, 123, 121, -1,
          116, 123, 118, -1,
          116, 124, 123, -1,
          74, 72, 70, -1,
          112, 124, 116, -1,
          112, 116, 115, -1,
          78, 69, 64, -1,
          78, 74, 70, -1,
          78, 77, 74, -1,
          78, 70, 69, -1,
          109, 112, 110, -1,
          109, 124, 112, -1,
          84, 82, 80, -1,
          86, 84, 80, -1,
          86, 80, 78, -1,
          102, 106, 104, -1,
          100, 106, 102, -1,
          90, 86, 78, -1,
          90, 88, 86, -1,
          98, 106, 100, -1,
          98, 109, 106, -1,
          92, 62, 58, -1,
          92, 42, 40, -1,
          92, 58, 54, -1,
          92, 78, 64, -1,
          92, 90, 78, -1,
          92, 64, 62, -1,
          92, 53, 42, -1,
          92, 54, 53, -1,
          94, 40, 38, -1,
          94, 34, 32, -1,
          94, 32, 30, -1,
          94, 396, 124, -1,
          94, 380, 402, -1,
          94, 402, 343, -1,
          94, 342, 346, -1,
          94, 345, 403, -1,
          94, 403, 349, -1,
          94, 343, 342, -1,
          94, 346, 345, -1,
          94, 30, 24, -1,
          94, 92, 40, -1,
          94, 38, 34, -1,
          94, 349, 348, -1,
          94, 354, 396, -1,
          94, 348, 354, -1,
          94, 109, 98, -1,
          94, 98, 97, -1,
          94, 24, 380, -1,
          94, 124, 109, -1,
          404, 0, 341, -1,
          404, 341, 405, -1,
          406, 405, 407, -1,
          406, 404, 405, -1,
          408, 407, 409, -1,
          408, 406, 407, -1,
          410, 409, 411, -1,
          410, 408, 409, -1,
          412, 411, 413, -1,
          412, 410, 411, -1,
          414, 413, 415, -1,
          414, 412, 413, -1,
          416, 415, 417, -1,
          416, 414, 415, -1,
          418, 417, 419, -1,
          418, 416, 417, -1,
          420, 419, 421, -1,
          420, 418, 419, -1,
          422, 421, 423, -1,
          422, 420, 421, -1,
          424, 423, 425, -1,
          424, 422, 423, -1,
          426, 425, 427, -1,
          426, 424, 425, -1,
          428, 427, 429, -1,
          428, 426, 427, -1,
          430, 429, 431, -1,
          430, 428, 429, -1,
          432, 431, 433, -1,
          432, 430, 431, -1,
          434, 433, 435, -1,
          434, 432, 433, -1,
          436, 435, 437, -1,
          436, 434, 435, -1,
          438, 437, 439, -1,
          438, 436, 437, -1,
          440, 438, 439, -1,
          440, 439, 441, -1,
          442, 440, 441, -1,
          442, 441, 443, -1,
          444, 442, 443, -1,
          444, 443, 445, -1,
          446, 444, 445, -1,
          446, 445, 447, -1,
          448, 447, 449, -1,
          448, 446, 447, -1,
          450, 449, 451, -1,
          450, 448, 449, -1,
          452, 451, 453, -1,
          452, 450, 451, -1,
          454, 453, 455, -1,
          454, 452, 453, -1,
          456, 455, 457, -1,
          456, 454, 455, -1,
          458, 457, 459, -1,
          458, 456, 457, -1,
          460, 459, 461, -1,
          460, 458, 459, -1,
          462, 461, 463, -1,
          462, 460, 461, -1,
          464, 463, 465, -1,
          464, 462, 463, -1,
          466, 465, 467, -1,
          466, 464, 465, -1,
          468, 467, 469, -1,
          468, 466, 467, -1,
          470, 469, 471, -1,
          470, 468, 469, -1,
          472, 471, 473, -1,
          472, 470, 471, -1,
          474, 473, 475, -1,
          474, 472, 473, -1,
          476, 475, 477, -1,
          476, 474, 475, -1,
          478, 477, 479, -1,
          478, 476, 477, -1,
          480, 479, 481, -1,
          480, 478, 479, -1,
          482, 481, 483, -1,
          482, 480, 481, -1,
          484, 483, 485, -1,
          484, 482, 483, -1,
          486, 485, 487, -1,
          486, 484, 485, -1,
          488, 486, 487, -1,
          488, 487, 489, -1,
          490, 488, 489, -1,
          490, 489, 491, -1,
          492, 490, 491, -1,
          492, 491, 493, -1,
          494, 492, 493, -1,
          494, 493, 495, -1,
          496, 494, 495, -1,
          496, 495, 497, -1,
          498, 496, 497, -1,
          498, 497, 499, -1,
          500, 498, 499, -1,
          500, 499, 501, -1,
          502, 500, 501, -1,
          502, 501, 503, -1,
          504, 502, 503, -1,
          504, 503, 505, -1,
          506, 504, 505, -1,
          506, 505, 507, -1,
          508, 506, 507, -1,
          508, 507, 509, -1,
          510, 508, 509, -1,
          510, 509, 511, -1,
          512, 510, 511, -1,
          512, 511, 513, -1,
          514, 512, 513, -1,
          514, 513, 515, -1,
          516, 515, 517, -1,
          516, 514, 515, -1,
          518, 517, 519, -1,
          518, 516, 517, -1,
          520, 519, 521, -1,
          520, 518, 519, -1,
          522, 521, 523, -1,
          522, 523, 524, -1,
          522, 520, 521, -1,
          525, 522, 524, -1,
          526, 524, 527, -1,
          526, 527, 279, -1,
          526, 525, 524, -1,
          127, 526, 279, -1,
          405, 341, 134, -1,
          405, 134, 528, -1,
          407, 528, 529, -1,
          407, 405, 528, -1,
          409, 529, 530, -1,
          409, 407, 529, -1,
          411, 530, 531, -1,
          411, 409, 530, -1,
          413, 531, 532, -1,
          413, 411, 531, -1,
          415, 532, 533, -1,
          415, 413, 532, -1,
          417, 533, 534, -1,
          417, 415, 533, -1,
          419, 534, 535, -1,
          419, 417, 534, -1,
          421, 535, 536, -1,
          421, 419, 535, -1,
          423, 536, 537, -1,
          423, 421, 536, -1,
          425, 537, 538, -1,
          425, 423, 537, -1,
          427, 538, 539, -1,
          427, 425, 538, -1,
          429, 539, 540, -1,
          429, 540, 541, -1,
          429, 427, 539, -1,
          431, 429, 541, -1,
          433, 541, 542, -1,
          433, 542, 543, -1,
          433, 431, 541, -1,
          435, 433, 543, -1,
          437, 543, 544, -1,
          437, 544, 545, -1,
          437, 435, 543, -1,
          439, 437, 545, -1,
          441, 439, 545, -1,
          441, 545, 546, -1,
          443, 441, 546, -1,
          443, 546, 547, -1,
          443, 547, 548, -1,
          445, 443, 548, -1,
          447, 445, 548, -1,
          447, 548, 549, -1,
          447, 549, 550, -1,
          449, 447, 550, -1,
          451, 449, 550, -1,
          451, 550, 551, -1,
          453, 551, 552, -1,
          453, 451, 551, -1,
          455, 552, 553, -1,
          455, 453, 552, -1,
          457, 553, 554, -1,
          457, 455, 553, -1,
          459, 554, 555, -1,
          459, 457, 554, -1,
          461, 555, 556, -1,
          461, 459, 555, -1,
          463, 556, 557, -1,
          463, 461, 556, -1,
          465, 557, 558, -1,
          465, 558, 559, -1,
          465, 463, 557, -1,
          467, 465, 559, -1,
          469, 559, 560, -1,
          469, 560, 561, -1,
          469, 467, 559, -1,
          471, 469, 561, -1,
          473, 561, 562, -1,
          473, 562, 563, -1,
          473, 471, 561, -1,
          475, 473, 563, -1,
          477, 563, 564, -1,
          477, 475, 563, -1,
          479, 564, 565, -1,
          479, 477, 564, -1,
          481, 565, 566, -1,
          481, 479, 565, -1,
          483, 566, 567, -1,
          483, 567, 568, -1,
          483, 481, 566, -1,
          485, 483, 568, -1,
          487, 568, 569, -1,
          487, 485, 568, -1,
          489, 487, 569, -1,
          489, 569, 570, -1,
          491, 489, 570, -1,
          491, 570, 571, -1,
          491, 571, 572, -1,
          493, 491, 572, -1,
          495, 493, 572, -1,
          495, 572, 573, -1,
          497, 495, 573, -1,
          497, 573, 574, -1,
          497, 574, 575, -1,
          499, 497, 575, -1,
          499, 575, 576, -1,
          501, 499, 576, -1,
          503, 501, 576, -1,
          503, 576, 577, -1,
          505, 503, 577, -1,
          505, 577, 578, -1,
          505, 578, 579, -1,
          507, 505, 579, -1,
          509, 507, 579, -1,
          509, 579, 580, -1,
          511, 509, 580, -1,
          511, 580, 581, -1,
          511, 581, 582, -1,
          513, 511, 582, -1,
          515, 513, 582, -1,
          515, 582, 583, -1,
          517, 583, 584, -1,
          517, 515, 583, -1,
          519, 584, 585, -1,
          519, 517, 584, -1,
          521, 585, 586, -1,
          521, 519, 585, -1,
          523, 586, 587, -1,
          523, 521, 586, -1,
          524, 587, 588, -1,
          524, 523, 587, -1,
          527, 588, 589, -1,
          527, 524, 588, -1,
          279, 589, 130, -1,
          279, 527, 589, -1,
          128, 589, 588, -1,
          128, 130, 589, -1,
          528, 133, 529, -1,
          134, 133, 528, -1,
          590, 568, 567, -1,
          590, 569, 568, -1,
          590, 570, 569, -1,
          591, 576, 575, -1,
          591, 577, 576, -1,
          591, 578, 577, -1,
          591, 579, 578, -1,
          592, 570, 590, -1,
          592, 571, 570, -1,
          592, 572, 571, -1,
          592, 573, 572, -1,
          592, 574, 573, -1,
          593, 580, 579, -1,
          593, 581, 580, -1,
          593, 582, 581, -1,
          594, 590, 567, -1,
          594, 565, 564, -1,
          594, 566, 565, -1,
          594, 567, 566, -1,
          595, 591, 575, -1,
          595, 575, 574, -1,
          595, 574, 592, -1,
          596, 583, 582, -1,
          596, 584, 583, -1,
          596, 585, 584, -1,
          597, 590, 594, -1,
          597, 592, 590, -1,
          598, 579, 591, -1,
          598, 591, 595, -1,
          598, 593, 579, -1,
          599, 562, 561, -1,
          599, 563, 562, -1,
          599, 564, 563, -1,
          599, 594, 564, -1,
          600, 592, 597, -1,
          600, 595, 592, -1,
          601, 593, 598, -1,
          601, 582, 593, -1,
          601, 596, 582, -1,
          602, 597, 594, -1,
          602, 594, 599, -1,
          603, 595, 600, -1,
          603, 598, 595, -1,
          604, 596, 601, -1,
          604, 141, 128, -1,
          604, 585, 596, -1,
          604, 128, 588, -1,
          604, 586, 585, -1,
          604, 587, 586, -1,
          604, 588, 587, -1,
          605, 599, 561, -1,
          605, 559, 558, -1,
          605, 560, 559, -1,
          605, 561, 560, -1,
          606, 597, 602, -1,
          606, 600, 597, -1,
          607, 598, 603, -1,
          607, 601, 598, -1,
          608, 602, 599, -1,
          608, 599, 605, -1,
          609, 603, 600, -1,
          609, 600, 606, -1,
          610, 601, 607, -1,
          610, 148, 142, -1,
          610, 142, 141, -1,
          610, 141, 604, -1,
          610, 604, 601, -1,
          611, 605, 558, -1,
          611, 557, 556, -1,
          611, 558, 557, -1,
          612, 602, 608, -1,
          612, 606, 602, -1,
          613, 607, 603, -1,
          613, 603, 609, -1,
          614, 608, 605, -1,
          614, 605, 611, -1,
          615, 609, 606, -1,
          615, 606, 612, -1,
          616, 151, 148, -1,
          616, 148, 610, -1,
          616, 610, 607, -1,
          616, 607, 613, -1,
          617, 611, 556, -1,
          617, 554, 553, -1,
          617, 555, 554, -1,
          617, 556, 555, -1,
          618, 608, 614, -1,
          618, 612, 608, -1,
          619, 609, 615, -1,
          619, 613, 609, -1,
          620, 611, 617, -1,
          620, 614, 611, -1,
          621, 615, 612, -1,
          621, 612, 618, -1,
          622, 152, 151, -1,
          622, 613, 619, -1,
          622, 616, 613, -1,
          622, 151, 616, -1,
          623, 617, 553, -1,
          623, 551, 550, -1,
          623, 552, 551, -1,
          623, 553, 552, -1,
          624, 614, 620, -1,
          624, 618, 614, -1,
          625, 615, 621, -1,
          625, 619, 615, -1,
          626, 617, 623, -1,
          626, 620, 617, -1,
          627, 621, 618, -1,
          627, 618, 624, -1,
          628, 169, 160, -1,
          628, 160, 152, -1,
          628, 622, 619, -1,
          628, 619, 625, -1,
          628, 152, 622, -1,
          629, 623, 550, -1,
          629, 548, 547, -1,
          629, 549, 548, -1,
          629, 550, 549, -1,
          630, 624, 620, -1,
          630, 620, 626, -1,
          631, 625, 621, -1,
          631, 621, 627, -1,
          632, 623, 629, -1,
          632, 626, 623, -1,
          633, 624, 630, -1,
          633, 627, 624, -1,
          634, 170, 169, -1,
          634, 169, 628, -1,
          634, 628, 625, -1,
          634, 625, 631, -1,
          635, 630, 626, -1,
          635, 626, 632, -1,
          636, 627, 633, -1,
          636, 631, 627, -1,
          637, 544, 543, -1,
          637, 545, 544, -1,
          637, 546, 545, -1,
          637, 547, 546, -1,
          637, 629, 547, -1,
          637, 632, 629, -1,
          638, 633, 630, -1,
          638, 630, 635, -1,
          639, 184, 175, -1,
          639, 631, 636, -1,
          639, 175, 170, -1,
          639, 170, 634, -1,
          639, 634, 631, -1,
          640, 632, 637, -1,
          640, 635, 632, -1,
          641, 633, 638, -1,
          641, 636, 633, -1,
          642, 638, 635, -1,
          642, 635, 640, -1,
          643, 192, 184, -1,
          643, 636, 641, -1,
          643, 184, 639, -1,
          643, 639, 636, -1,
          644, 543, 542, -1,
          644, 640, 637, -1,
          644, 637, 543, -1,
          645, 641, 638, -1,
          645, 638, 642, -1,
          646, 640, 644, -1,
          646, 642, 640, -1,
          647, 193, 192, -1,
          647, 203, 193, -1,
          647, 192, 643, -1,
          647, 643, 641, -1,
          647, 641, 645, -1,
          648, 644, 542, -1,
          648, 539, 538, -1,
          648, 540, 539, -1,
          648, 541, 540, -1,
          648, 542, 541, -1,
          649, 645, 642, -1,
          649, 642, 646, -1,
          650, 644, 648, -1,
          650, 648, 538, -1,
          650, 646, 644, -1,
          651, 213, 203, -1,
          651, 647, 645, -1,
          651, 203, 647, -1,
          651, 645, 649, -1,
          652, 649, 646, -1,
          652, 646, 650, -1,
          653, 536, 535, -1,
          653, 537, 536, -1,
          653, 538, 537, -1,
          653, 650, 538, -1,
          654, 214, 213, -1,
          654, 213, 651, -1,
          654, 651, 649, -1,
          654, 649, 652, -1,
          655, 652, 650, -1,
          655, 653, 535, -1,
          655, 650, 653, -1,
          656, 224, 214, -1,
          656, 234, 224, -1,
          656, 652, 655, -1,
          656, 214, 654, -1,
          656, 654, 652, -1,
          657, 533, 532, -1,
          657, 534, 533, -1,
          657, 535, 534, -1,
          657, 655, 535, -1,
          658, 133, 234, -1,
          658, 530, 529, -1,
          658, 531, 530, -1,
          658, 532, 531, -1,
          658, 657, 532, -1,
          658, 234, 656, -1,
          658, 529, 133, -1,
          658, 656, 655, -1,
          658, 655, 657, -1,
          127, 126, 400, -1,
          526, 127, 400, -1,
          526, 400, 399, -1,
          525, 526, 399, -1,
          525, 399, 401, -1,
          522, 525, 401, -1,
          522, 401, 396, -1,
          520, 522, 396, -1,
          520, 396, 395, -1,
          518, 520, 395, -1,
          518, 395, 393, -1,
          516, 518, 393, -1,
          516, 393, 394, -1,
          514, 394, 391, -1,
          514, 516, 394, -1,
          512, 391, 392, -1,
          512, 514, 391, -1,
          510, 392, 389, -1,
          510, 512, 392, -1,
          508, 389, 390, -1,
          508, 510, 389, -1,
          506, 390, 388, -1,
          506, 508, 390, -1,
          504, 388, 387, -1,
          504, 506, 388, -1,
          502, 387, 386, -1,
          502, 504, 387, -1,
          500, 386, 384, -1,
          500, 502, 386, -1,
          498, 384, 385, -1,
          498, 500, 384, -1,
          496, 385, 383, -1,
          496, 498, 385, -1,
          494, 383, 381, -1,
          494, 496, 383, -1,
          492, 494, 381, -1,
          492, 381, 382, -1,
          490, 492, 382, -1,
          490, 382, 367, -1,
          488, 490, 367, -1,
          488, 367, 366, -1,
          486, 488, 366, -1,
          486, 366, 363, -1,
          484, 486, 363, -1,
          484, 363, 365, -1,
          482, 484, 365, -1,
          482, 365, 364, -1,
          480, 482, 364, -1,
          480, 364, 362, -1,
          478, 480, 362, -1,
          478, 362, 359, -1,
          476, 478, 359, -1,
          476, 359, 361, -1,
          474, 361, 360, -1,
          474, 476, 361, -1,
          472, 360, 356, -1,
          472, 474, 360, -1,
          470, 356, 358, -1,
          470, 472, 356, -1,
          468, 358, 357, -1,
          468, 470, 358, -1,
          466, 357, 398, -1,
          466, 468, 357, -1,
          464, 398, 397, -1,
          464, 466, 398, -1,
          462, 397, 354, -1,
          462, 464, 397, -1,
          460, 354, 355, -1,
          460, 462, 354, -1,
          458, 460, 355, -1,
          456, 348, 350, -1,
          456, 355, 348, -1,
          456, 458, 355, -1,
          454, 456, 350, -1,
          452, 350, 349, -1,
          452, 454, 350, -1,
          450, 403, 345, -1,
          450, 349, 403, -1,
          450, 452, 349, -1,
          448, 345, 347, -1,
          448, 450, 345, -1,
          446, 347, 346, -1,
          446, 448, 347, -1,
          444, 346, 342, -1,
          444, 446, 346, -1,
          442, 444, 342, -1,
          440, 442, 342, -1,
          440, 344, 343, -1,
          440, 342, 344, -1,
          438, 440, 343, -1,
          438, 343, 402, -1,
          436, 438, 402, -1,
          436, 402, 380, -1,
          434, 436, 380, -1,
          432, 379, 378, -1,
          432, 380, 379, -1,
          432, 434, 380, -1,
          430, 378, 377, -1,
          430, 432, 378, -1,
          428, 430, 377, -1,
          426, 377, 376, -1,
          426, 428, 377, -1,
          424, 375, 374, -1,
          424, 376, 375, -1,
          424, 426, 376, -1,
          422, 374, 373, -1,
          422, 424, 374, -1,
          420, 373, 372, -1,
          420, 422, 373, -1,
          418, 420, 372, -1,
          416, 371, 353, -1,
          416, 372, 371, -1,
          416, 418, 372, -1,
          414, 416, 353, -1,
          412, 352, 351, -1,
          412, 353, 352, -1,
          412, 414, 353, -1,
          410, 412, 351, -1,
          408, 351, 370, -1,
          408, 410, 351, -1,
          406, 369, 368, -1,
          406, 370, 369, -1,
          406, 408, 370, -1,
          404, 406, 368, -1,
          0, 368, 1, -1,
          0, 404, 368, -1
        ]
      }
    }
}
