{"asset":{"version":"2.0","generator":"microscope_builder_4 scripts/catalog/dedupe-mounted-lens-housings.mjs"},"scene":0,"scenes":[{"nodes":[0]}],"nodes":[{"mesh":0}],"meshes":[{"primitives":[{"attributes":{"POSITION":1,"NORMAL":2},"indices":0,"mode":4},{"attributes":{"POSITION":4,"NORMAL":5},"indices":3,"mode":4},{"attributes":{"POSITION":7,"NORMAL":8},"indices":6,"mode":4}]}],"buffers":[{"uri":"../shared/lens-components/5f/5f7c145d92c62b8ae903324994f5930485034b67baf5220747023ba8d6f08988.bin","byteLength":8532},{"uri":"la1074-b-ml.bin","byteLength":174300}],"bufferViews":[{"buffer":0,"byteOffset":0,"byteLength":2844,"target":34963},{"buffer":0,"byteOffset":2844,"byteLength":2844,"target":34962},{"buffer":0,"byteOffset":5688,"byteLength":2844,"target":34962},{"buffer":1,"byteOffset":0,"byteLength":56904,"target":34963},{"buffer":1,"byteOffset":56904,"byteLength":56928,"target":34962},{"buffer":1,"byteOffset":113832,"byteLength":56928,"target":34962},{"buffer":1,"byteOffset":170760,"byteLength":1164,"target":34963},{"buffer":1,"byteOffset":171924,"byteLength":1188,"target":34962},{"buffer":1,"byteOffset":173112,"byteLength":1188,"target":34962}],"accessors":[{"bufferView":0,"componentType":5123,"count":1422,"type":"SCALAR"},{"bufferView":1,"componentType":5126,"count":237,"type":"VEC3","min":[-0.03999999910593033,-6.794000148773193,-6.794000148773193],"max":[1.6109999418258667,6.794000148773193,6.794000148773193]},{"bufferView":2,"componentType":5126,"count":237,"type":"VEC3"},{"bufferView":3,"componentType":5123,"count":28452,"type":"SCALAR"},{"bufferView":4,"componentType":5126,"count":4744,"type":"VEC3","min":[-5.206999778747559,-8.890000343322754,-8.890000343322754],"max":[5.206999778747559,8.890000343322754,8.890000343322754]},{"bufferView":5,"componentType":5126,"count":4744,"type":"VEC3"},{"bufferView":6,"componentType":5123,"count":582,"type":"SCALAR"},{"bufferView":7,"componentType":5126,"count":99,"type":"VEC3","min":[-2.4130001068115234,-6.329999923706055,-6.329999923706055],"max":[1.5670000314712524,6.329999923706055,6.329999923706055]},{"bufferView":8,"componentType":5126,"count":99,"type":"VEC3"}]}
