#VRML V2.0 utf8
WorldInfo {
  title "Exported triangle mesh to VRML97"
  info ["Created by FreeCAD"
        "<https://www.freecad.org>"]
}

Transform {
  scale 1 1 1
  rotation 0 0 1 0
  scaleOrientation 0 0 1 0
  center 0.000 0.000 0.000
  translation 0.000 0.000 0.000
  children
    Shape { 
      appearance
      Appearance {
        material
        Material {
          diffuseColor 0.8 0.8 0.8
        }
      }
      geometry
      IndexedFaceSet {
        coord
        Coordinate {
          point [
            8.989 0.442 -0.547,
            9.000 0.000 -2.345,
            8.989 0.449 -2.345,
            9.000 0.000 -0.547,
            8.957 0.882 -0.547,
            8.955 0.896 -2.345,
            8.903 1.321 -0.547,
            8.899 1.341 -2.345,
            8.827 1.756 -0.547,
            8.822 1.783 -2.345,
            8.730 2.187 -0.547,
            8.722 2.221 -2.345,
            8.612 2.613 -0.547,
            8.600 2.653 -2.345,
            8.474 3.032 -0.547,
            8.457 3.078 -2.345,
            8.315 3.444 -0.547,
            8.293 3.496 -2.345,
            8.136 3.848 -0.547,
            8.109 3.905 -2.345,
            7.937 4.243 -0.547,
            7.904 4.304 -2.345,
            7.720 4.627 -0.547,
            7.680 4.693 -2.345,
            7.483 5.000 -0.547,
            7.436 5.070 -2.345,
            7.229 5.361 -0.547,
            7.174 5.434 -2.345,
            6.957 5.710 -0.547,
            6.894 5.785 -2.345,
            6.669 6.044 -0.547,
            6.597 6.122 -2.345,
            6.364 6.364 -0.547,
            6.284 6.443 -2.345,
            6.044 6.669 -0.547,
            5.955 6.748 -2.345,
            5.710 6.957 -0.547,
            5.611 7.036 -2.345,
            5.361 7.229 -0.547,
            5.254 7.307 -2.345,
            5.000 7.483 -0.547,
            4.883 7.560 -2.345,
            4.627 7.720 -0.547,
            4.500 7.794 -2.345,
            4.243 7.937 -0.547,
            4.106 8.009 -2.345,
            3.848 8.136 -0.547,
            3.702 8.204 -2.345,
            3.444 8.315 -0.547,
            3.288 8.378 -2.345,
            3.032 8.474 -0.547,
            2.866 8.531 -2.345,
            2.613 8.612 -0.547,
            2.438 8.664 -2.345,
            2.187 8.730 -0.547,
            2.003 8.774 -2.345,
            1.756 8.827 -0.547,
            1.563 8.863 -2.345,
            1.321 8.903 -0.547,
            1.119 8.930 -2.345,
            0.882 8.957 -0.547,
            0.673 8.975 -2.345,
            0.442 8.989 -0.547,
            0.224 8.997 -2.345,
            0.000 9.000 -0.547,
            -0.224 8.997 -2.345,
            -0.442 8.989 -0.547,
            -0.673 8.975 -2.345,
            -0.882 8.957 -0.547,
            -1.119 8.930 -2.345,
            -1.321 8.903 -0.547,
            -1.563 8.863 -2.345,
            -1.756 8.827 -0.547,
            -2.003 8.774 -2.345,
            -2.187 8.730 -0.547,
            -2.438 8.664 -2.345,
            -2.613 8.612 -0.547,
            -2.866 8.531 -2.345,
            -3.032 8.474 -0.547,
            -3.288 8.378 -2.345,
            -3.444 8.315 -0.547,
            -3.702 8.204 -2.345,
            -3.848 8.136 -0.547,
            -4.106 8.009 -2.345,
            -4.243 7.937 -0.547,
            -4.500 7.794 -2.345,
            -4.627 7.720 -0.547,
            -4.883 7.560 -2.345,
            -5.000 7.483 -0.547,
            -5.254 7.307 -2.345,
            -5.361 7.229 -0.547,
            -5.611 7.036 -2.345,
            -5.710 6.957 -0.547,
            -5.955 6.748 -2.345,
            -6.044 6.669 -0.547,
            -6.284 6.443 -2.345,
            -6.364 6.364 -0.547,
            -6.597 6.122 -2.345,
            -6.669 6.044 -0.547,
            -6.894 5.785 -2.345,
            -6.957 5.710 -0.547,
            -7.174 5.434 -2.345,
            -7.229 5.361 -0.547,
            -7.436 5.070 -2.345,
            -7.483 5.000 -0.547,
            -7.680 4.693 -2.345,
            -7.720 4.627 -0.547,
            -7.904 4.304 -2.345,
            -7.937 4.243 -0.547,
            -8.109 3.905 -2.345,
            -8.136 3.848 -0.547,
            -8.293 3.496 -2.345,
            -8.315 3.444 -0.547,
            -8.457 3.078 -2.345,
            -8.474 3.032 -0.547,
            -8.600 2.653 -2.345,
            -8.612 2.613 -0.547,
            -8.722 2.221 -2.345,
            -8.730 2.187 -0.547,
            -8.822 1.783 -2.345,
            -8.827 1.756 -0.547,
            -8.899 1.341 -2.345,
            -8.903 1.321 -0.547,
            -8.955 0.896 -2.345,
            -8.957 0.882 -0.547,
            -8.989 0.449 -2.345,
            -8.989 0.442 -0.547,
            -9.000 0.000 -2.345,
            -9.000 0.000 -0.547,
            -0.000 -8.389 -0.131,
            -0.442 -8.989 -0.547,
            -0.000 -9.000 -0.547,
            0.000 8.389 -0.131,
            -1.067 -8.540 -0.274,
            -1.756 -8.827 -0.547,
            -1.321 -8.903 -0.547,
            -0.882 -8.957 -0.547,
            -1.067 -7.634 0.285,
            -0.000 -7.759 0.255,
            -0.000 -7.112 0.611,
            -2.128 -8.034 -0.081,
            -3.032 -8.474 -0.547,
            -2.613 -8.612 -0.547,
            -2.187 -8.730 -0.547,
            -1.067 -6.692 0.780,
            -0.000 -6.448 0.935,
            -2.128 -7.116 0.443,
            -1.067 -5.717 1.209,
            -0.000 -5.769 1.228,
            -0.000 -5.077 1.487,
            -3.180 -7.489 0.029,
            -3.848 -8.136 -0.547,
            -3.444 -8.315 -0.547,
            -2.128 -6.164 0.902,
            -4.216 -7.804 -0.455,
            -4.627 -7.720 -0.547,
            -4.243 -7.937 -0.547,
            -1.067 -4.715 1.569,
            -0.000 -4.374 1.713,
            -3.180 -6.564 0.515,
            -2.128 -5.182 1.294,
            -4.216 -6.912 0.054,
            -5.000 -7.483 -0.547,
            -1.067 -3.691 1.860,
            -0.000 -3.660 1.905,
            -0.000 -2.938 2.063,
            -3.180 -5.608 0.936,
            -5.232 -7.200 -0.476,
            -5.710 -6.957 -0.547,
            -5.361 -7.229 -0.547,
            -2.128 -4.176 1.617,
            -4.216 -5.987 0.500,
            -1.067 -2.649 2.079,
            -0.000 -2.209 2.186,
            -3.180 -4.625 1.289,
            -5.232 -6.311 -0.009,
            -6.044 -6.669 -0.547,
            -2.128 -3.149 1.870,
            -4.216 -5.033 0.881,
            -1.067 -1.595 2.225,
            -0.000 -1.476 2.274,
            -0.000 -0.739 2.327,
            -3.180 -3.621 1.574,
            -5.232 -5.392 0.395,
            -2.128 -2.108 2.052,
            -4.216 -4.056 1.195,
            -6.223 -5.696 -0.162,
            -6.957 -5.710 -0.547,
            -6.669 -6.044 -0.547,
            -6.364 -6.364 -0.547,
            -1.067 -0.532 2.299,
            0.000 0.000 2.345,
            -3.180 -2.599 1.789,
            -5.232 -4.447 0.735,
            -2.128 -1.056 2.161,
            -4.216 -3.059 1.441,
            -6.223 -4.789 0.201,
            -1.067 0.532 2.299,
            0.000 0.739 2.327,
            -3.180 -1.564 1.933,
            -5.232 -3.481 1.009,
            -7.184 -5.074 -0.403,
            -7.720 -4.627 -0.547,
            -7.483 -5.000 -0.547,
            -7.229 -5.361 -0.547,
            -2.128 -0.000 2.198,
            -4.216 -2.047 1.617,
            -6.223 -3.859 0.500,
            -1.067 1.595 2.225,
            0.000 1.476 2.274,
            0.000 2.209 2.186,
            -3.180 -0.522 2.005,
            -5.232 -2.499 1.216,
            -7.184 -4.185 -0.083,
            -8.136 -3.848 -0.547,
            -7.937 -4.243 -0.547,
            -2.128 1.056 2.161,
            -4.216 -1.026 1.723,
            -6.223 -2.910 0.734,
            -1.067 2.649 2.079,
            0.000 2.938 2.063,
            -3.180 0.522 2.005,
            -5.232 -1.504 1.354,
            -7.184 -3.276 0.175,
            -2.128 2.108 2.052,
            -4.216 -0.000 1.759,
            -6.223 -1.948 0.902,
            -1.067 3.691 1.860,
            0.000 3.660 1.905,
            0.000 4.374 1.713,
            -8.112 -3.588 -0.455,
            -8.315 -3.444 -0.547,
            -3.180 1.564 1.933,
            -5.232 -0.502 1.424,
            -7.184 -2.351 0.369,
            -2.128 3.149 1.870,
            -4.216 1.026 1.723,
            -6.223 -0.976 1.003,
            -1.067 4.715 1.569,
            0.000 5.077 1.487,
            -8.112 -2.706 -0.237,
            -8.730 -2.187 -0.547,
            -8.612 -2.613 -0.547,
            -8.474 -3.032 -0.547,
            -3.180 2.599 1.789,
            -5.232 0.502 1.424,
            -7.184 -1.415 0.500,
            -2.128 4.176 1.617,
            -4.216 2.047 1.617,
            -6.223 -0.000 1.036,
            -1.067 5.717 1.209,
            0.000 5.769 1.228,
            0.000 6.448 0.935,
            -8.112 -1.811 -0.081,
            -8.903 -1.321 -0.547,
            -8.827 -1.756 -0.547,
            -3.180 3.621 1.574,
            -5.232 1.504 1.354,
            -7.184 -0.472 0.565,
            -2.128 5.182 1.294,
            -4.216 3.059 1.441,
            -6.223 0.976 1.003,
            -1.067 6.692 0.780,
            0.000 7.112 0.611,
            -8.112 -0.908 0.013,
            -8.989 -0.442 -0.547,
            -8.957 -0.882 -0.547,
            -3.180 4.625 1.289,
            -5.232 2.499 1.216,
            -7.184 0.472 0.565,
            -2.128 6.164 0.902,
            -4.216 4.056 1.195,
            -6.223 1.948 0.902,
            -1.067 7.634 0.285,
            0.000 7.759 0.255,
            -8.112 -0.000 0.044,
            -3.180 5.608 0.936,
            -5.232 3.481 1.009,
            -7.184 1.415 0.500,
            -2.128 7.116 0.443,
            -4.216 5.033 0.881,
            -6.223 2.910 0.734,
            -1.067 8.540 -0.274,
            -8.112 0.908 0.013,
            -3.180 6.564 0.515,
            -5.232 4.447 0.735,
            -7.184 2.351 0.369,
            -2.128 8.034 -0.081,
            -4.216 5.987 0.500,
            -6.223 3.859 0.500,
            -8.112 1.811 -0.081,
            -3.180 7.489 0.029,
            -5.232 5.392 0.395,
            -7.184 3.276 0.175,
            -4.216 6.912 0.054,
            -6.223 4.789 0.201,
            -8.112 2.706 -0.237,
            -5.232 6.311 -0.009,
            -7.184 4.185 -0.083,
            -4.216 7.804 -0.455,
            -6.223 5.696 -0.162,
            -8.112 3.588 -0.455,
            -5.232 7.200 -0.476,
            -7.184 5.074 -0.403,
            0.442 -8.989 -0.547,
            6.223 -6.140 -0.366,
            6.044 -6.669 -0.547,
            6.364 -6.364 -0.547,
            6.669 -6.044 -0.547,
            7.184 -4.632 -0.235,
            7.229 -5.361 -0.547,
            7.483 -5.000 -0.547,
            7.720 -4.627 -0.547,
            7.937 -4.243 -0.547,
            5.232 -6.760 -0.235,
            5.000 -7.483 -0.547,
            5.361 -7.229 -0.547,
            5.710 -6.957 -0.547,
            8.112 -3.149 -0.338,
            8.136 -3.848 -0.547,
            8.315 -3.444 -0.547,
            8.474 -3.032 -0.547,
            8.612 -2.613 -0.547,
            6.223 -5.245 0.028,
            6.957 -5.710 -0.547,
            4.216 -7.362 -0.193,
            3.848 -8.136 -0.547,
            4.243 -7.937 -0.547,
            4.627 -7.720 -0.547,
            7.184 -3.732 0.054,
            5.232 -5.855 0.201,
            3.180 -7.938 -0.237,
            2.613 -8.612 -0.547,
            3.032 -8.474 -0.547,
            3.444 -8.315 -0.547,
            8.112 -2.260 -0.151,
            8.730 -2.187 -0.547,
            8.827 -1.756 -0.547,
            6.223 -4.326 0.358,
            4.216 -6.453 0.285,
            2.128 -8.479 -0.366,
            1.756 -8.827 -0.547,
            2.187 -8.730 -0.547,
            7.184 -2.815 0.280,
            5.232 -4.923 0.573,
            3.180 -7.031 0.280,
            8.112 -1.360 -0.026,
            8.903 -1.321 -0.547,
            8.957 -0.882 -0.547,
            6.223 -3.386 0.625,
            4.216 -5.513 0.698,
            2.128 -7.580 0.189,
            7.184 -1.884 0.443,
            5.232 -3.967 0.881,
            3.180 -6.090 0.734,
            8.112 -0.454 0.036,
            8.989 -0.442 -0.547,
            1.067 -8.092 0.013,
            0.882 -8.957 -0.547,
            1.321 -8.903 -0.547,
            6.223 -2.431 0.826,
            4.216 -4.547 1.046,
            2.128 -6.644 0.680,
            7.184 -0.944 0.540,
            5.232 -2.992 1.121,
            3.180 -5.120 1.121,
            8.112 0.454 0.036,
            1.067 -7.167 0.540,
            6.223 -1.463 0.960,
            4.216 -3.559 1.326,
            2.128 -5.676 1.106,
            7.184 -0.000 0.573,
            5.232 -2.002 1.294,
            3.180 -4.126 1.441,
            8.112 1.360 -0.026,
            1.067 -6.208 1.003,
            6.223 -0.488 1.028,
            4.216 -2.555 1.538,
            2.128 -4.682 1.464,
            7.184 0.944 0.540,
            5.232 -1.004 1.398,
            3.180 -3.111 1.691,
            8.112 2.260 -0.151,
            1.067 -5.219 1.398,
            6.223 0.488 1.028,
            4.216 -1.538 1.679,
            2.128 -3.665 1.752,
            7.184 1.884 0.443,
            5.232 -0.000 1.432,
            3.180 -2.083 1.870,
            8.112 3.149 -0.338,
            1.067 -4.206 1.723,
            6.223 1.463 0.960,
            4.216 -0.513 1.750,
            2.128 -2.630 1.970,
            7.184 2.815 0.280,
            5.232 1.004 1.398,
            3.180 -1.044 1.978,
            1.067 -3.172 1.978,
            6.223 2.431 0.826,
            4.216 0.513 1.750,
            2.128 -1.583 2.116,
            7.184 3.732 0.054,
            5.232 2.002 1.294,
            3.180 -0.000 2.014,
            1.067 -2.123 2.161,
            6.223 3.386 0.625,
            4.216 1.538 1.679,
            2.128 -0.529 2.189,
            7.184 4.632 -0.235,
            5.232 2.992 1.121,
            3.180 1.044 1.978,
            1.067 -1.064 2.271,
            6.223 4.326 0.358,
            4.216 2.555 1.538,
            2.128 0.529 2.189,
            5.232 3.967 0.881,
            3.180 2.083 1.870,
            1.067 -0.000 2.308,
            6.223 5.245 0.028,
            4.216 3.559 1.326,
            2.128 1.583 2.116,
            5.232 4.923 0.573,
            3.180 3.111 1.691,
            1.067 1.064 2.271,
            6.223 6.140 -0.366,
            4.216 4.547 1.046,
            2.128 2.630 1.970,
            5.232 5.855 0.201,
            3.180 4.126 1.441,
            1.067 2.123 2.161,
            4.216 5.513 0.698,
            2.128 3.665 1.752,
            5.232 6.760 -0.235,
            3.180 5.120 1.121,
            1.067 3.172 1.978,
            4.216 6.453 0.285,
            2.128 4.682 1.464,
            3.180 6.090 0.734,
            1.067 4.206 1.723,
            4.216 7.362 -0.193,
            2.128 5.676 1.106,
            3.180 7.031 0.280,
            1.067 5.219 1.398,
            2.128 6.644 0.680,
            3.180 7.938 -0.237,
            1.067 6.208 1.003,
            2.128 7.580 0.189,
            1.067 7.167 0.540,
            2.128 8.479 -0.366,
            1.067 8.092 0.013,
            -8.989 -0.449 -2.345,
            -8.955 -0.896 -2.345,
            -8.899 -1.341 -2.345,
            -8.822 -1.783 -2.345,
            -8.722 -2.221 -2.345,
            -8.600 -2.653 -2.345,
            -8.457 -3.078 -2.345,
            -8.293 -3.496 -2.345,
            -8.109 -3.905 -2.345,
            -7.904 -4.304 -2.345,
            -7.680 -4.693 -2.345,
            -7.436 -5.070 -2.345,
            -7.174 -5.434 -2.345,
            -6.894 -5.785 -2.345,
            -6.597 -6.122 -2.345,
            -6.284 -6.443 -2.345,
            -5.955 -6.748 -2.345,
            -5.611 -7.036 -2.345,
            -5.254 -7.307 -2.345,
            -4.883 -7.560 -2.345,
            -4.500 -7.794 -2.345,
            -4.106 -8.009 -2.345,
            -3.702 -8.204 -2.345,
            -3.288 -8.378 -2.345,
            -2.866 -8.531 -2.345,
            -2.438 -8.664 -2.345,
            -2.003 -8.774 -2.345,
            -1.563 -8.863 -2.345,
            -1.119 -8.930 -2.345,
            -0.673 -8.975 -2.345,
            -0.224 -8.997 -2.345,
            0.224 -8.997 -2.345,
            0.673 -8.975 -2.345,
            1.119 -8.930 -2.345,
            1.563 -8.863 -2.345,
            2.003 -8.774 -2.345,
            2.438 -8.664 -2.345,
            2.866 -8.531 -2.345,
            3.288 -8.378 -2.345,
            3.702 -8.204 -2.345,
            4.106 -8.009 -2.345,
            4.500 -7.794 -2.345,
            4.883 -7.560 -2.345,
            5.254 -7.307 -2.345,
            5.611 -7.036 -2.345,
            5.955 -6.748 -2.345,
            6.284 -6.443 -2.345,
            6.597 -6.122 -2.345,
            6.894 -5.785 -2.345,
            7.174 -5.434 -2.345,
            7.436 -5.070 -2.345,
            7.680 -4.693 -2.345,
            7.904 -4.304 -2.345,
            8.109 -3.905 -2.345,
            8.293 -3.496 -2.345,
            8.457 -3.078 -2.345,
            8.600 -2.653 -2.345,
            8.722 -2.221 -2.345,
            8.822 -1.783 -2.345,
            8.899 -1.341 -2.345,
            8.955 -0.896 -2.345,
            8.989 -0.449 -2.345
          ]
        }
        coordIndex [
          0, 1, 2, -1,
          0, 3, 1, -1,
          4, 2, 5, -1,
          4, 0, 2, -1,
          6, 5, 7, -1,
          6, 4, 5, -1,
          8, 7, 9, -1,
          8, 6, 7, -1,
          10, 9, 11, -1,
          10, 8, 9, -1,
          12, 11, 13, -1,
          12, 10, 11, -1,
          14, 13, 15, -1,
          14, 12, 13, -1,
          16, 15, 17, -1,
          16, 14, 15, -1,
          18, 17, 19, -1,
          18, 16, 17, -1,
          20, 19, 21, -1,
          20, 18, 19, -1,
          22, 21, 23, -1,
          22, 20, 21, -1,
          24, 23, 25, -1,
          24, 22, 23, -1,
          26, 25, 27, -1,
          26, 24, 25, -1,
          28, 27, 29, -1,
          28, 26, 27, -1,
          30, 29, 31, -1,
          30, 28, 29, -1,
          32, 31, 33, -1,
          32, 30, 31, -1,
          34, 33, 35, -1,
          34, 32, 33, -1,
          36, 34, 35, -1,
          36, 35, 37, -1,
          38, 36, 37, -1,
          38, 37, 39, -1,
          40, 38, 39, -1,
          40, 39, 41, -1,
          42, 40, 41, -1,
          42, 41, 43, -1,
          44, 42, 43, -1,
          44, 43, 45, -1,
          46, 45, 47, -1,
          46, 44, 45, -1,
          48, 47, 49, -1,
          48, 46, 47, -1,
          50, 49, 51, -1,
          50, 48, 49, -1,
          52, 51, 53, -1,
          52, 50, 51, -1,
          54, 53, 55, -1,
          54, 52, 53, -1,
          56, 55, 57, -1,
          56, 54, 55, -1,
          58, 57, 59, -1,
          58, 56, 57, -1,
          60, 59, 61, -1,
          60, 58, 59, -1,
          62, 61, 63, -1,
          62, 60, 61, -1,
          64, 63, 65, -1,
          64, 62, 63, -1,
          66, 65, 67, -1,
          66, 64, 65, -1,
          68, 67, 69, -1,
          68, 66, 67, -1,
          70, 69, 71, -1,
          70, 68, 69, -1,
          72, 71, 73, -1,
          72, 70, 71, -1,
          74, 73, 75, -1,
          74, 72, 73, -1,
          76, 75, 77, -1,
          76, 74, 75, -1,
          78, 77, 79, -1,
          78, 76, 77, -1,
          80, 79, 81, -1,
          80, 78, 79, -1,
          82, 81, 83, -1,
          82, 80, 81, -1,
          84, 83, 85, -1,
          84, 82, 83, -1,
          86, 84, 85, -1,
          86, 85, 87, -1,
          88, 86, 87, -1,
          88, 87, 89, -1,
          90, 88, 89, -1,
          90, 89, 91, -1,
          92, 90, 91, -1,
          92, 91, 93, -1,
          94, 92, 93, -1,
          94, 93, 95, -1,
          96, 94, 95, -1,
          96, 95, 97, -1,
          98, 96, 97, -1,
          98, 97, 99, -1,
          100, 98, 99, -1,
          100, 99, 101, -1,
          102, 100, 101, -1,
          102, 101, 103, -1,
          104, 102, 103, -1,
          104, 103, 105, -1,
          106, 104, 105, -1,
          106, 105, 107, -1,
          108, 106, 107, -1,
          108, 107, 109, -1,
          110, 108, 109, -1,
          110, 109, 111, -1,
          112, 111, 113, -1,
          112, 110, 111, -1,
          114, 113, 115, -1,
          114, 112, 113, -1,
          116, 115, 117, -1,
          116, 114, 115, -1,
          118, 117, 119, -1,
          118, 116, 117, -1,
          120, 119, 121, -1,
          120, 118, 119, -1,
          122, 121, 123, -1,
          122, 120, 121, -1,
          124, 123, 125, -1,
          124, 122, 123, -1,
          126, 125, 127, -1,
          126, 124, 125, -1,
          128, 126, 127, -1,
          129, 130, 131, -1,
          66, 132, 64, -1,
          133, 134, 135, -1,
          133, 135, 136, -1,
          133, 136, 130, -1,
          133, 130, 129, -1,
          137, 133, 129, -1,
          137, 129, 138, -1,
          137, 138, 139, -1,
          140, 134, 133, -1,
          140, 133, 137, -1,
          140, 141, 142, -1,
          140, 142, 143, -1,
          140, 143, 134, -1,
          144, 137, 139, -1,
          144, 139, 145, -1,
          146, 140, 137, -1,
          146, 137, 144, -1,
          147, 144, 145, -1,
          147, 145, 148, -1,
          147, 148, 149, -1,
          150, 140, 146, -1,
          150, 151, 152, -1,
          150, 152, 141, -1,
          150, 141, 140, -1,
          153, 146, 144, -1,
          153, 144, 147, -1,
          154, 151, 150, -1,
          154, 155, 156, -1,
          154, 156, 151, -1,
          157, 149, 158, -1,
          157, 147, 149, -1,
          159, 150, 146, -1,
          159, 146, 153, -1,
          160, 153, 147, -1,
          160, 147, 157, -1,
          161, 154, 150, -1,
          161, 150, 159, -1,
          161, 162, 155, -1,
          161, 155, 154, -1,
          163, 157, 158, -1,
          163, 158, 164, -1,
          163, 164, 165, -1,
          166, 159, 153, -1,
          166, 153, 160, -1,
          167, 162, 161, -1,
          167, 168, 169, -1,
          167, 169, 162, -1,
          170, 160, 157, -1,
          170, 157, 163, -1,
          171, 161, 159, -1,
          171, 159, 166, -1,
          172, 163, 165, -1,
          172, 165, 173, -1,
          174, 160, 170, -1,
          174, 166, 160, -1,
          175, 167, 161, -1,
          175, 168, 167, -1,
          175, 176, 168, -1,
          175, 161, 171, -1,
          177, 170, 163, -1,
          177, 163, 172, -1,
          178, 166, 174, -1,
          178, 171, 166, -1,
          179, 172, 173, -1,
          179, 173, 180, -1,
          179, 180, 181, -1,
          182, 170, 177, -1,
          182, 174, 170, -1,
          183, 171, 178, -1,
          183, 175, 171, -1,
          184, 177, 172, -1,
          184, 172, 179, -1,
          185, 178, 174, -1,
          185, 174, 182, -1,
          186, 176, 175, -1,
          186, 187, 188, -1,
          186, 188, 189, -1,
          186, 189, 176, -1,
          186, 175, 183, -1,
          190, 181, 191, -1,
          190, 179, 181, -1,
          192, 177, 184, -1,
          192, 182, 177, -1,
          193, 178, 185, -1,
          193, 183, 178, -1,
          194, 179, 190, -1,
          194, 184, 179, -1,
          195, 182, 192, -1,
          195, 185, 182, -1,
          196, 183, 193, -1,
          196, 186, 183, -1,
          197, 190, 191, -1,
          197, 191, 198, -1,
          199, 192, 184, -1,
          199, 184, 194, -1,
          200, 193, 185, -1,
          200, 185, 195, -1,
          201, 186, 196, -1,
          201, 187, 186, -1,
          201, 202, 203, -1,
          201, 203, 204, -1,
          201, 204, 187, -1,
          205, 194, 190, -1,
          205, 190, 197, -1,
          206, 192, 199, -1,
          206, 195, 192, -1,
          207, 196, 193, -1,
          207, 193, 200, -1,
          208, 197, 198, -1,
          208, 209, 210, -1,
          208, 198, 209, -1,
          211, 194, 205, -1,
          211, 199, 194, -1,
          212, 200, 195, -1,
          212, 195, 206, -1,
          213, 201, 196, -1,
          213, 214, 215, -1,
          213, 215, 202, -1,
          213, 196, 207, -1,
          213, 202, 201, -1,
          216, 197, 208, -1,
          216, 205, 197, -1,
          217, 199, 211, -1,
          217, 206, 199, -1,
          218, 207, 200, -1,
          218, 200, 212, -1,
          219, 208, 210, -1,
          219, 210, 220, -1,
          221, 211, 205, -1,
          221, 205, 216, -1,
          222, 212, 206, -1,
          222, 206, 217, -1,
          223, 213, 207, -1,
          223, 207, 218, -1,
          224, 216, 208, -1,
          224, 208, 219, -1,
          225, 211, 221, -1,
          225, 217, 211, -1,
          226, 212, 222, -1,
          226, 218, 212, -1,
          227, 219, 220, -1,
          227, 228, 229, -1,
          227, 220, 228, -1,
          230, 213, 223, -1,
          230, 231, 214, -1,
          230, 214, 213, -1,
          232, 221, 216, -1,
          232, 216, 224, -1,
          233, 217, 225, -1,
          233, 222, 217, -1,
          234, 218, 226, -1,
          234, 223, 218, -1,
          235, 219, 227, -1,
          235, 224, 219, -1,
          236, 225, 221, -1,
          236, 221, 232, -1,
          237, 226, 222, -1,
          237, 222, 233, -1,
          238, 227, 229, -1,
          238, 229, 239, -1,
          240, 230, 223, -1,
          240, 241, 242, -1,
          240, 242, 243, -1,
          240, 243, 231, -1,
          240, 223, 234, -1,
          240, 231, 230, -1,
          244, 232, 224, -1,
          244, 224, 235, -1,
          245, 233, 225, -1,
          245, 225, 236, -1,
          246, 226, 237, -1,
          246, 234, 226, -1,
          247, 227, 238, -1,
          247, 235, 227, -1,
          248, 236, 232, -1,
          248, 232, 244, -1,
          249, 237, 233, -1,
          249, 233, 245, -1,
          250, 238, 239, -1,
          250, 251, 252, -1,
          250, 239, 251, -1,
          253, 254, 255, -1,
          253, 255, 241, -1,
          253, 241, 240, -1,
          253, 240, 234, -1,
          253, 234, 246, -1,
          256, 244, 235, -1,
          256, 235, 247, -1,
          257, 245, 236, -1,
          257, 236, 248, -1,
          258, 246, 237, -1,
          258, 237, 249, -1,
          259, 238, 250, -1,
          259, 247, 238, -1,
          260, 248, 244, -1,
          260, 244, 256, -1,
          261, 245, 257, -1,
          261, 249, 245, -1,
          262, 252, 263, -1,
          262, 250, 252, -1,
          264, 254, 253, -1,
          264, 265, 266, -1,
          264, 266, 254, -1,
          264, 246, 258, -1,
          264, 253, 246, -1,
          267, 247, 259, -1,
          267, 256, 247, -1,
          268, 248, 260, -1,
          268, 257, 248, -1,
          269, 258, 249, -1,
          269, 249, 261, -1,
          270, 259, 250, -1,
          270, 250, 262, -1,
          271, 256, 267, -1,
          271, 260, 256, -1,
          272, 257, 268, -1,
          272, 261, 257, -1,
          273, 262, 263, -1,
          273, 274, 132, -1,
          273, 263, 274, -1,
          275, 258, 269, -1,
          275, 264, 258, -1,
          275, 126, 128, -1,
          275, 128, 265, -1,
          275, 265, 264, -1,
          276, 267, 259, -1,
          276, 259, 270, -1,
          277, 260, 271, -1,
          277, 268, 260, -1,
          278, 261, 272, -1,
          278, 269, 261, -1,
          279, 262, 273, -1,
          279, 270, 262, -1,
          280, 271, 267, -1,
          280, 267, 276, -1,
          281, 268, 277, -1,
          281, 272, 268, -1,
          282, 66, 68, -1,
          282, 68, 70, -1,
          282, 70, 72, -1,
          282, 273, 132, -1,
          282, 132, 66, -1,
          283, 275, 269, -1,
          283, 122, 124, -1,
          283, 124, 126, -1,
          283, 126, 275, -1,
          283, 269, 278, -1,
          284, 276, 270, -1,
          284, 270, 279, -1,
          285, 277, 271, -1,
          285, 271, 280, -1,
          286, 278, 272, -1,
          286, 272, 281, -1,
          287, 72, 74, -1,
          287, 74, 76, -1,
          287, 76, 78, -1,
          287, 279, 273, -1,
          287, 282, 72, -1,
          287, 273, 282, -1,
          288, 280, 276, -1,
          288, 276, 284, -1,
          289, 277, 285, -1,
          289, 281, 277, -1,
          290, 118, 120, -1,
          290, 120, 122, -1,
          290, 283, 278, -1,
          290, 122, 283, -1,
          290, 278, 286, -1,
          291, 78, 80, -1,
          291, 80, 82, -1,
          291, 279, 287, -1,
          291, 287, 78, -1,
          291, 284, 279, -1,
          292, 285, 280, -1,
          292, 280, 288, -1,
          293, 286, 281, -1,
          293, 281, 289, -1,
          294, 86, 88, -1,
          294, 288, 284, -1,
          294, 284, 291, -1,
          295, 289, 285, -1,
          295, 285, 292, -1,
          296, 118, 290, -1,
          296, 112, 114, -1,
          296, 114, 116, -1,
          296, 116, 118, -1,
          296, 290, 286, -1,
          296, 286, 293, -1,
          297, 92, 94, -1,
          297, 292, 288, -1,
          297, 288, 294, -1,
          298, 289, 295, -1,
          298, 106, 108, -1,
          298, 108, 110, -1,
          298, 293, 289, -1,
          299, 82, 84, -1,
          299, 84, 86, -1,
          299, 86, 294, -1,
          299, 294, 291, -1,
          299, 291, 82, -1,
          300, 292, 297, -1,
          300, 94, 96, -1,
          300, 96, 98, -1,
          300, 98, 100, -1,
          300, 295, 292, -1,
          300, 297, 94, -1,
          301, 298, 110, -1,
          301, 293, 298, -1,
          301, 110, 112, -1,
          301, 296, 293, -1,
          301, 112, 296, -1,
          302, 297, 294, -1,
          302, 88, 90, -1,
          302, 90, 92, -1,
          302, 294, 88, -1,
          302, 92, 297, -1,
          303, 300, 100, -1,
          303, 295, 300, -1,
          303, 100, 102, -1,
          303, 102, 104, -1,
          303, 104, 106, -1,
          303, 298, 295, -1,
          303, 106, 298, -1,
          129, 131, 304, -1,
          64, 132, 62, -1,
          305, 306, 307, -1,
          305, 307, 308, -1,
          309, 310, 311, -1,
          309, 311, 312, -1,
          309, 312, 313, -1,
          314, 306, 305, -1,
          314, 315, 316, -1,
          314, 316, 317, -1,
          314, 317, 306, -1,
          318, 319, 320, -1,
          318, 320, 321, -1,
          318, 321, 322, -1,
          323, 305, 308, -1,
          323, 310, 309, -1,
          323, 308, 324, -1,
          323, 324, 310, -1,
          325, 326, 327, -1,
          325, 327, 328, -1,
          325, 328, 315, -1,
          325, 315, 314, -1,
          329, 309, 313, -1,
          329, 313, 319, -1,
          329, 319, 318, -1,
          330, 305, 323, -1,
          330, 314, 305, -1,
          331, 332, 333, -1,
          331, 333, 334, -1,
          331, 334, 326, -1,
          331, 326, 325, -1,
          335, 322, 336, -1,
          335, 336, 337, -1,
          335, 318, 322, -1,
          338, 309, 329, -1,
          338, 323, 309, -1,
          339, 314, 330, -1,
          339, 325, 314, -1,
          340, 341, 342, -1,
          340, 342, 332, -1,
          340, 332, 331, -1,
          343, 318, 335, -1,
          343, 329, 318, -1,
          344, 323, 338, -1,
          344, 330, 323, -1,
          345, 331, 325, -1,
          345, 325, 339, -1,
          346, 337, 347, -1,
          346, 347, 348, -1,
          346, 335, 337, -1,
          349, 329, 343, -1,
          349, 338, 329, -1,
          350, 339, 330, -1,
          350, 330, 344, -1,
          351, 340, 331, -1,
          351, 331, 345, -1,
          352, 335, 346, -1,
          352, 343, 335, -1,
          353, 344, 338, -1,
          353, 338, 349, -1,
          354, 339, 350, -1,
          354, 345, 339, -1,
          355, 348, 356, -1,
          355, 356, 3, -1,
          355, 346, 348, -1,
          357, 138, 129, -1,
          357, 304, 358, -1,
          357, 358, 359, -1,
          357, 359, 341, -1,
          357, 129, 304, -1,
          357, 341, 340, -1,
          357, 340, 351, -1,
          360, 343, 352, -1,
          360, 349, 343, -1,
          361, 344, 353, -1,
          361, 350, 344, -1,
          362, 345, 354, -1,
          362, 351, 345, -1,
          363, 352, 346, -1,
          363, 346, 355, -1,
          364, 353, 349, -1,
          364, 349, 360, -1,
          365, 350, 361, -1,
          365, 354, 350, -1,
          366, 355, 3, -1,
          366, 3, 0, -1,
          366, 0, 4, -1,
          367, 139, 138, -1,
          367, 145, 139, -1,
          367, 357, 351, -1,
          367, 138, 357, -1,
          367, 351, 362, -1,
          368, 360, 352, -1,
          368, 352, 363, -1,
          369, 361, 353, -1,
          369, 353, 364, -1,
          370, 354, 365, -1,
          370, 362, 354, -1,
          371, 363, 355, -1,
          371, 355, 366, -1,
          372, 360, 368, -1,
          372, 364, 360, -1,
          373, 365, 361, -1,
          373, 361, 369, -1,
          374, 366, 4, -1,
          374, 4, 6, -1,
          374, 6, 8, -1,
          375, 148, 145, -1,
          375, 367, 362, -1,
          375, 145, 367, -1,
          375, 362, 370, -1,
          376, 368, 363, -1,
          376, 363, 371, -1,
          377, 364, 372, -1,
          377, 369, 364, -1,
          378, 365, 373, -1,
          378, 370, 365, -1,
          379, 371, 366, -1,
          379, 366, 374, -1,
          380, 372, 368, -1,
          380, 368, 376, -1,
          381, 369, 377, -1,
          381, 373, 369, -1,
          382, 374, 8, -1,
          382, 8, 10, -1,
          382, 10, 12, -1,
          383, 149, 148, -1,
          383, 370, 378, -1,
          383, 148, 375, -1,
          383, 375, 370, -1,
          384, 376, 371, -1,
          384, 371, 379, -1,
          385, 377, 372, -1,
          385, 372, 380, -1,
          386, 378, 373, -1,
          386, 373, 381, -1,
          387, 379, 374, -1,
          387, 374, 382, -1,
          388, 376, 384, -1,
          388, 380, 376, -1,
          389, 377, 385, -1,
          389, 381, 377, -1,
          390, 12, 14, -1,
          390, 14, 16, -1,
          390, 16, 18, -1,
          390, 382, 12, -1,
          391, 383, 378, -1,
          391, 158, 149, -1,
          391, 164, 158, -1,
          391, 149, 383, -1,
          391, 378, 386, -1,
          392, 384, 379, -1,
          392, 379, 387, -1,
          393, 385, 380, -1,
          393, 380, 388, -1,
          394, 386, 381, -1,
          394, 381, 389, -1,
          395, 382, 390, -1,
          395, 387, 382, -1,
          396, 384, 392, -1,
          396, 388, 384, -1,
          397, 389, 385, -1,
          397, 385, 393, -1,
          398, 165, 164, -1,
          398, 164, 391, -1,
          398, 391, 386, -1,
          398, 386, 394, -1,
          399, 387, 395, -1,
          399, 392, 387, -1,
          400, 388, 396, -1,
          400, 393, 388, -1,
          401, 389, 397, -1,
          401, 394, 389, -1,
          402, 395, 390, -1,
          402, 390, 18, -1,
          402, 18, 20, -1,
          403, 396, 392, -1,
          403, 392, 399, -1,
          404, 397, 393, -1,
          404, 393, 400, -1,
          405, 173, 165, -1,
          405, 180, 173, -1,
          405, 165, 398, -1,
          405, 398, 394, -1,
          405, 394, 401, -1,
          406, 399, 395, -1,
          406, 395, 402, -1,
          407, 396, 403, -1,
          407, 400, 396, -1,
          408, 401, 397, -1,
          408, 397, 404, -1,
          409, 402, 20, -1,
          409, 20, 22, -1,
          409, 22, 24, -1,
          409, 24, 26, -1,
          410, 403, 399, -1,
          410, 399, 406, -1,
          411, 404, 400, -1,
          411, 400, 407, -1,
          412, 181, 180, -1,
          412, 180, 405, -1,
          412, 401, 408, -1,
          412, 405, 401, -1,
          413, 402, 409, -1,
          413, 406, 402, -1,
          414, 407, 403, -1,
          414, 403, 410, -1,
          415, 404, 411, -1,
          415, 408, 404, -1,
          416, 406, 413, -1,
          416, 410, 406, -1,
          417, 411, 407, -1,
          417, 407, 414, -1,
          418, 408, 415, -1,
          418, 412, 408, -1,
          418, 191, 181, -1,
          418, 181, 412, -1,
          418, 198, 191, -1,
          419, 26, 28, -1,
          419, 28, 30, -1,
          419, 413, 409, -1,
          419, 409, 26, -1,
          420, 410, 416, -1,
          420, 414, 410, -1,
          421, 411, 417, -1,
          421, 415, 411, -1,
          422, 413, 419, -1,
          422, 416, 413, -1,
          423, 417, 414, -1,
          423, 414, 420, -1,
          424, 415, 421, -1,
          424, 418, 415, -1,
          424, 198, 418, -1,
          424, 209, 198, -1,
          425, 30, 32, -1,
          425, 32, 34, -1,
          425, 419, 30, -1,
          426, 420, 416, -1,
          426, 416, 422, -1,
          427, 421, 417, -1,
          427, 417, 423, -1,
          428, 419, 425, -1,
          428, 422, 419, -1,
          429, 423, 420, -1,
          429, 420, 426, -1,
          430, 424, 421, -1,
          430, 421, 427, -1,
          430, 209, 424, -1,
          430, 220, 210, -1,
          430, 210, 209, -1,
          431, 426, 422, -1,
          431, 422, 428, -1,
          432, 427, 423, -1,
          432, 423, 429, -1,
          433, 428, 425, -1,
          433, 425, 34, -1,
          433, 34, 36, -1,
          433, 36, 38, -1,
          433, 38, 40, -1,
          434, 429, 426, -1,
          434, 426, 431, -1,
          435, 427, 432, -1,
          435, 220, 430, -1,
          435, 228, 220, -1,
          435, 430, 427, -1,
          436, 431, 428, -1,
          436, 428, 433, -1,
          437, 432, 429, -1,
          437, 429, 434, -1,
          438, 431, 436, -1,
          438, 434, 431, -1,
          439, 435, 432, -1,
          439, 432, 437, -1,
          439, 228, 435, -1,
          439, 229, 228, -1,
          440, 436, 433, -1,
          440, 40, 42, -1,
          440, 42, 44, -1,
          440, 44, 46, -1,
          440, 433, 40, -1,
          441, 437, 434, -1,
          441, 434, 438, -1,
          442, 438, 436, -1,
          442, 436, 440, -1,
          443, 439, 437, -1,
          443, 437, 441, -1,
          443, 251, 239, -1,
          443, 239, 229, -1,
          443, 229, 439, -1,
          444, 441, 438, -1,
          444, 438, 442, -1,
          445, 46, 48, -1,
          445, 48, 50, -1,
          445, 50, 52, -1,
          445, 440, 46, -1,
          445, 442, 440, -1,
          446, 443, 441, -1,
          446, 252, 251, -1,
          446, 441, 444, -1,
          446, 251, 443, -1,
          447, 444, 442, -1,
          447, 442, 445, -1,
          448, 446, 444, -1,
          448, 252, 446, -1,
          448, 274, 263, -1,
          448, 263, 252, -1,
          448, 444, 447, -1,
          449, 445, 52, -1,
          449, 447, 445, -1,
          449, 52, 54, -1,
          449, 54, 56, -1,
          450, 274, 448, -1,
          450, 449, 56, -1,
          450, 447, 449, -1,
          450, 448, 447, -1,
          450, 62, 132, -1,
          450, 56, 58, -1,
          450, 58, 60, -1,
          450, 60, 62, -1,
          450, 132, 274, -1,
          265, 128, 127, -1,
          265, 127, 451, -1,
          266, 451, 452, -1,
          266, 265, 451, -1,
          254, 452, 453, -1,
          254, 266, 452, -1,
          255, 453, 454, -1,
          255, 254, 453, -1,
          241, 454, 455, -1,
          241, 255, 454, -1,
          242, 455, 456, -1,
          242, 241, 455, -1,
          243, 456, 457, -1,
          243, 242, 456, -1,
          231, 457, 458, -1,
          231, 243, 457, -1,
          214, 458, 459, -1,
          214, 231, 458, -1,
          215, 459, 460, -1,
          215, 214, 459, -1,
          202, 460, 461, -1,
          202, 215, 460, -1,
          203, 461, 462, -1,
          203, 202, 461, -1,
          204, 462, 463, -1,
          204, 203, 462, -1,
          187, 463, 464, -1,
          187, 204, 463, -1,
          188, 464, 465, -1,
          188, 187, 464, -1,
          189, 465, 466, -1,
          189, 188, 465, -1,
          176, 466, 467, -1,
          176, 189, 466, -1,
          168, 176, 467, -1,
          168, 467, 468, -1,
          169, 168, 468, -1,
          169, 468, 469, -1,
          162, 169, 469, -1,
          162, 469, 470, -1,
          155, 162, 470, -1,
          155, 470, 471, -1,
          156, 155, 471, -1,
          156, 471, 472, -1,
          151, 472, 473, -1,
          151, 156, 472, -1,
          152, 473, 474, -1,
          152, 151, 473, -1,
          141, 474, 475, -1,
          141, 152, 474, -1,
          142, 475, 476, -1,
          142, 141, 475, -1,
          143, 476, 477, -1,
          143, 142, 476, -1,
          134, 477, 478, -1,
          134, 143, 477, -1,
          135, 478, 479, -1,
          135, 134, 478, -1,
          136, 479, 480, -1,
          136, 135, 479, -1,
          130, 480, 481, -1,
          130, 136, 480, -1,
          131, 481, 482, -1,
          131, 130, 481, -1,
          304, 482, 483, -1,
          304, 131, 482, -1,
          358, 483, 484, -1,
          358, 304, 483, -1,
          359, 484, 485, -1,
          359, 358, 484, -1,
          341, 485, 486, -1,
          341, 359, 485, -1,
          342, 486, 487, -1,
          342, 341, 486, -1,
          332, 487, 488, -1,
          332, 342, 487, -1,
          333, 488, 489, -1,
          333, 332, 488, -1,
          334, 489, 490, -1,
          334, 333, 489, -1,
          326, 490, 491, -1,
          326, 334, 490, -1,
          327, 491, 492, -1,
          327, 326, 491, -1,
          328, 327, 492, -1,
          328, 492, 493, -1,
          315, 328, 493, -1,
          315, 493, 494, -1,
          316, 315, 494, -1,
          316, 494, 495, -1,
          317, 316, 495, -1,
          317, 495, 496, -1,
          306, 317, 496, -1,
          306, 496, 497, -1,
          307, 306, 497, -1,
          307, 497, 498, -1,
          308, 307, 498, -1,
          308, 498, 499, -1,
          324, 308, 499, -1,
          324, 499, 500, -1,
          310, 324, 500, -1,
          310, 500, 501, -1,
          311, 310, 501, -1,
          311, 501, 502, -1,
          312, 311, 502, -1,
          312, 502, 503, -1,
          313, 312, 503, -1,
          313, 503, 504, -1,
          319, 313, 504, -1,
          319, 504, 505, -1,
          320, 319, 505, -1,
          320, 505, 506, -1,
          321, 506, 507, -1,
          321, 320, 506, -1,
          322, 507, 508, -1,
          322, 321, 507, -1,
          336, 508, 509, -1,
          336, 322, 508, -1,
          337, 509, 510, -1,
          337, 336, 509, -1,
          347, 510, 511, -1,
          347, 337, 510, -1,
          348, 511, 512, -1,
          348, 347, 511, -1,
          356, 512, 1, -1,
          356, 348, 512, -1,
          3, 356, 1, -1,
          463, 462, 464, -1,
          464, 462, 465, -1,
          465, 462, 466, -1,
          466, 462, 467, -1,
          467, 462, 468, -1,
          468, 471, 469, -1,
          469, 471, 470, -1,
          461, 460, 462, -1,
          471, 473, 472, -1,
          459, 458, 460, -1,
          460, 458, 462, -1,
          468, 474, 471, -1,
          471, 474, 473, -1,
          455, 454, 456, -1,
          456, 454, 457, -1,
          475, 479, 476, -1,
          476, 479, 477, -1,
          477, 479, 478, -1,
          453, 452, 454, -1,
          479, 481, 480, -1,
          451, 127, 452, -1,
          452, 127, 454, -1,
          479, 482, 481, -1,
          482, 484, 483, -1,
          457, 121, 458, -1,
          123, 121, 125, -1,
          125, 121, 127, -1,
          454, 121, 457, -1,
          127, 121, 454, -1,
          482, 486, 484, -1,
          484, 486, 485, -1,
          486, 488, 487, -1,
          121, 113, 458, -1,
          115, 113, 117, -1,
          117, 113, 119, -1,
          119, 113, 121, -1,
          489, 491, 490, -1,
          109, 107, 111, -1,
          111, 107, 113, -1,
          105, 103, 107, -1,
          491, 494, 492, -1,
          492, 494, 493, -1,
          103, 101, 107, -1,
          489, 495, 491, -1,
          491, 495, 494, -1,
          107, 99, 113, -1,
          101, 99, 107, -1,
          488, 496, 489, -1,
          489, 496, 495, -1,
          486, 497, 488, -1,
          488, 497, 496, -1,
          95, 93, 97, -1,
          97, 93, 99, -1,
          93, 91, 99, -1,
          498, 500, 499, -1,
          482, 89, 486, -1,
          113, 89, 458, -1,
          486, 89, 497, -1,
          474, 89, 475, -1,
          99, 89, 113, -1,
          462, 89, 468, -1,
          91, 89, 99, -1,
          468, 89, 474, -1,
          458, 89, 462, -1,
          475, 89, 479, -1,
          479, 89, 482, -1,
          497, 501, 498, -1,
          498, 501, 500, -1,
          87, 85, 89, -1,
          89, 85, 497, -1,
          501, 503, 502, -1,
          83, 81, 85, -1,
          503, 505, 504, -1,
          497, 505, 501, -1,
          501, 505, 503, -1,
          81, 79, 85, -1,
          505, 507, 506, -1,
          505, 508, 507, -1,
          75, 73, 77, -1,
          77, 73, 79, -1,
          73, 71, 79, -1,
          508, 510, 509, -1,
          508, 511, 510, -1,
          505, 511, 508, -1,
          67, 65, 69, -1,
          1, 5, 2, -1,
          61, 59, 63, -1,
          65, 57, 69, -1,
          59, 57, 63, -1,
          63, 57, 65, -1,
          69, 57, 71, -1,
          505, 9, 511, -1,
          1, 9, 5, -1,
          511, 9, 512, -1,
          512, 9, 1, -1,
          5, 9, 7, -1,
          57, 53, 71, -1,
          85, 53, 497, -1,
          79, 53, 85, -1,
          55, 53, 57, -1,
          71, 53, 79, -1,
          9, 13, 11, -1,
          505, 19, 9, -1,
          9, 19, 13, -1,
          13, 19, 15, -1,
          15, 19, 17, -1,
          47, 45, 49, -1,
          49, 45, 51, -1,
          51, 45, 53, -1,
          45, 43, 53, -1,
          53, 43, 497, -1,
          19, 23, 21, -1,
          41, 39, 43, -1,
          19, 27, 23, -1,
          23, 27, 25, -1,
          39, 37, 43, -1,
          43, 37, 497, -1,
          497, 37, 505, -1,
          19, 29, 27, -1,
          505, 33, 19, -1,
          37, 33, 505, -1,
          19, 33, 29, -1,
          29, 33, 31, -1,
          35, 33, 37, -1
        ]
      }
    }
}
