#VRML V2.0 utf8
WorldInfo {
  title "Exported triangle mesh to VRML97"
  info ["Created by FreeCAD"
        "<https://www.freecad.org>"]
}

Transform {
  scale 1 1 1
  rotation 0 0 1 0
  scaleOrientation 0 0 1 0
  center 0.000 0.000 0.000
  translation 0.000 0.000 0.000
  children
    Shape { 
      appearance
      Appearance {
        material
        Material {
          diffuseColor 0.8 0.8 0.8
        }
      }
      geometry
      IndexedFaceSet {
        coord
        Coordinate {
          point [
            -13.935 23.069 -4.179,
            -13.618 23.453 -4.472,
            -13.935 23.460 -4.472,
            -13.618 10.768 -4.472,
            -13.935 11.152 -4.179,
            -13.935 10.760 -4.472,
            -13.252 23.160 -4.273,
            -13.303 23.429 -4.472,
            -12.989 23.389 -4.472,
            -13.252 22.564 -3.871,
            -13.935 22.663 -3.906,
            -13.935 22.246 -3.653,
            -12.571 22.827 -4.123,
            -12.677 23.334 -4.472,
            -12.368 23.264 -4.472,
            -12.063 23.178 -4.472,
            -13.252 21.942 -3.511,
            -13.935 21.816 -3.419,
            -11.897 23.053 -4.419,
            -11.763 23.077 -4.472,
            -12.571 22.223 -3.744,
            -13.252 21.297 -3.195,
            -13.935 21.377 -3.206,
            -13.935 20.927 -3.014,
            -11.897 22.468 -4.024,
            -11.468 22.962 -4.472,
            -12.571 21.593 -3.408,
            -11.231 22.676 -4.347,
            -11.180 22.832 -4.472,
            -10.898 22.687 -4.472,
            -13.252 20.631 -2.926,
            -13.935 20.469 -2.844,
            -11.897 21.857 -3.670,
            -12.571 20.941 -3.118,
            -11.231 22.087 -3.978,
            -13.252 19.948 -2.703,
            -13.935 20.003 -2.696,
            -13.935 19.531 -2.570,
            -11.897 21.223 -3.361,
            -10.578 22.278 -4.328,
            -10.624 22.529 -4.472,
            -10.358 22.357 -4.472,
            -10.101 22.172 -4.472,
            -12.571 20.270 -2.873,
            -11.231 21.474 -3.652,
            -13.252 19.251 -2.529,
            -13.935 19.054 -2.466,
            -11.897 20.569 -3.096,
            -10.578 21.689 -3.987,
            -12.571 19.584 -2.676,
            -11.231 20.839 -3.368,
            -9.939 21.864 -4.364,
            -9.853 21.975 -4.472,
            -9.616 21.765 -4.472,
            -13.252 18.543 -2.404,
            -13.935 18.572 -2.385,
            -13.935 18.086 -2.328,
            -11.897 19.898 -2.877,
            -10.578 21.077 -3.688,
            -12.571 18.886 -2.528,
            -11.231 20.186 -3.130,
            -9.939 21.278 -4.052,
            -9.389 21.544 -4.472,
            -13.252 17.828 -2.329,
            -13.935 17.599 -2.293,
            -11.897 19.213 -2.706,
            -10.578 20.446 -3.433,
            -12.571 18.179 -2.428,
            -11.231 19.519 -2.939,
            -9.939 20.672 -3.782,
            -13.252 17.110 -2.304,
            -13.935 17.110 -2.281,
            -13.935 16.622 -2.293,
            -11.897 18.518 -2.584,
            -10.578 19.799 -3.222,
            -9.318 20.861 -4.173,
            -9.174 21.312 -4.472,
            -8.970 21.070 -4.472,
            -8.779 20.817 -4.472,
            -12.571 17.467 -2.378,
            -11.231 18.839 -2.794,
            -9.939 20.049 -3.554,
            -13.252 16.392 -2.329,
            -13.935 16.134 -2.328,
            -11.897 17.816 -2.510,
            -10.578 19.138 -3.057,
            -9.318 20.264 -3.931,
            -12.571 16.754 -2.378,
            -11.231 18.151 -2.697,
            -9.939 19.411 -3.371,
            -8.717 20.442 -4.350,
            -8.601 20.556 -4.472,
            -8.436 20.285 -4.472,
            -13.252 15.678 -2.404,
            -13.935 15.649 -2.385,
            -13.935 15.167 -2.466,
            -11.897 17.110 -2.485,
            -10.578 18.468 -2.939,
            -9.318 19.652 -3.732,
            -12.571 16.042 -2.428,
            -11.231 17.458 -2.649,
            -9.939 18.762 -3.233,
            -8.717 19.859 -4.137,
            -8.284 20.007 -4.472,
            -8.147 19.722 -4.472,
            -13.252 14.970 -2.529,
            -13.935 14.690 -2.570,
            -11.897 16.405 -2.510,
            -10.578 17.791 -2.868,
            -9.318 19.028 -3.576,
            -12.571 15.335 -2.528,
            -11.231 16.763 -2.649,
            -9.939 18.104 -3.140,
            -8.717 19.262 -3.965,
            -13.252 14.273 -2.703,
            -13.935 14.217 -2.696,
            -13.935 13.752 -2.844,
            -11.897 15.703 -2.584,
            -10.578 17.110 -2.844,
            -9.318 18.394 -3.464,
            -8.139 19.461 -4.398,
            -8.024 19.430 -4.472,
            -7.916 19.133 -4.472,
            -12.571 14.637 -2.676,
            -11.231 16.070 -2.697,
            -9.939 17.442 -3.094,
            -8.717 18.655 -3.836,
            -13.252 13.590 -2.926,
            -13.935 13.294 -3.014,
            -11.897 15.008 -2.706,
            -10.578 16.430 -2.868,
            -9.318 17.754 -3.397,
            -8.139 18.883 -4.253,
            -7.822 18.830 -4.472,
            -7.744 18.523 -4.472,
            -12.571 13.951 -2.873,
            -11.231 15.382 -2.794,
            -9.939 16.779 -3.094,
            -8.717 18.040 -3.750,
            -13.252 12.924 -3.195,
            -13.935 12.844 -3.206,
            -13.935 12.404 -3.419,
            -11.897 14.323 -2.877,
            -10.578 15.753 -2.939,
            -9.318 17.110 -3.374,
            -8.139 18.297 -4.150,
            -7.681 18.213 -4.472,
            -7.634 17.900 -4.472,
            -12.571 13.280 -3.118,
            -11.231 14.702 -2.939,
            -9.939 16.116 -3.140,
            -8.717 17.421 -3.706,
            -13.252 12.278 -3.511,
            -13.935 11.975 -3.653,
            -11.897 13.652 -3.096,
            -10.578 15.083 -3.057,
            -9.318 16.467 -3.397,
            -8.139 17.705 -4.087,
            -7.603 17.585 -4.472,
            -7.587 17.269 -4.472,
            -12.571 12.628 -3.408,
            -11.231 14.034 -3.130,
            -9.939 15.459 -3.233,
            -8.717 16.800 -3.706,
            -13.252 11.656 -3.871,
            -13.935 11.557 -3.906,
            -11.897 12.998 -3.361,
            -10.578 14.422 -3.222,
            -9.318 15.827 -3.464,
            -8.139 17.110 -4.067,
            -7.587 16.952 -4.472,
            -12.571 11.998 -3.744,
            -11.231 13.382 -3.368,
            -9.939 14.810 -3.371,
            -8.717 16.181 -3.750,
            -13.252 11.061 -4.273,
            -13.303 10.792 -4.472,
            -12.989 10.831 -4.472,
            -11.897 12.363 -3.670,
            -10.578 13.775 -3.433,
            -9.318 15.193 -3.576,
            -8.139 16.515 -4.087,
            -7.603 16.636 -4.472,
            -7.634 16.321 -4.472,
            -12.571 11.393 -4.123,
            -12.368 10.957 -4.472,
            -12.063 11.043 -4.472,
            -12.677 10.886 -4.472,
            -11.231 12.747 -3.652,
            -9.939 14.172 -3.554,
            -8.717 15.566 -3.836,
            -11.897 11.752 -4.024,
            -11.763 11.143 -4.472,
            -11.468 11.259 -4.472,
            -10.578 13.144 -3.688,
            -9.318 14.569 -3.732,
            -8.139 15.923 -4.150,
            -7.681 16.008 -4.472,
            -7.744 15.697 -4.472,
            -11.231 12.134 -3.978,
            -9.939 13.549 -3.782,
            -8.717 14.959 -3.965,
            -11.897 11.168 -4.419,
            -10.578 12.532 -3.987,
            -9.318 13.956 -3.931,
            -8.139 15.337 -4.253,
            -7.822 15.391 -4.472,
            -7.916 15.088 -4.472,
            -11.231 11.545 -4.347,
            -10.898 11.534 -4.472,
            -11.180 11.389 -4.472,
            -9.939 12.943 -4.052,
            -9.616 12.456 -4.472,
            -9.389 12.677 -4.472,
            -8.717 14.362 -4.137,
            -8.284 14.213 -4.472,
            -8.147 14.499 -4.472,
            -8.436 13.935 -4.472,
            -10.578 11.943 -4.328,
            -10.101 12.049 -4.472,
            -10.358 11.864 -4.472,
            -10.624 11.692 -4.472,
            -9.318 13.360 -4.173,
            -8.970 13.151 -4.472,
            -8.779 13.404 -4.472,
            -9.174 12.909 -4.472,
            -8.139 14.760 -4.398,
            -8.024 14.790 -4.472,
            -9.939 12.357 -4.364,
            -9.853 12.246 -4.472,
            -8.717 13.779 -4.350,
            -8.601 13.665 -4.472,
            -13.618 23.453 -6.120,
            -13.935 23.460 -6.120,
            -13.303 23.429 -6.120,
            -12.989 23.389 -6.120,
            -12.677 23.334 -6.120,
            -12.368 23.264 -6.120,
            -12.063 23.178 -6.120,
            -11.763 23.077 -6.120,
            -11.468 22.962 -6.120,
            -11.180 22.832 -6.120,
            -10.898 22.687 -6.120,
            -10.624 22.529 -6.120,
            -10.358 22.357 -6.120,
            -10.101 22.172 -6.120,
            -9.853 21.975 -6.120,
            -9.616 21.765 -6.120,
            -9.389 21.544 -6.120,
            -9.174 21.312 -6.120,
            -8.970 21.070 -6.120,
            -8.779 20.817 -6.120,
            -8.601 20.556 -6.120,
            -8.436 20.285 -6.120,
            -8.284 20.007 -6.120,
            -8.147 19.722 -6.120,
            -8.024 19.430 -6.120,
            -7.916 19.133 -6.120,
            -7.822 18.830 -6.120,
            -7.744 18.523 -6.120,
            -7.681 18.213 -6.120,
            -7.634 17.900 -6.120,
            -7.603 17.585 -6.120,
            -7.587 17.269 -6.120,
            -7.587 16.952 -6.120,
            -7.603 16.636 -6.120,
            -7.634 16.321 -6.120,
            -7.681 16.008 -6.120,
            -7.744 15.697 -6.120,
            -7.822 15.391 -6.120,
            -7.916 15.088 -6.120,
            -8.024 14.790 -6.120,
            -8.147 14.499 -6.120,
            -8.284 14.213 -6.120,
            -8.436 13.935 -6.120,
            -8.601 13.665 -6.120,
            -8.779 13.404 -6.120,
            -8.970 13.151 -6.120,
            -9.174 12.909 -6.120,
            -9.389 12.677 -6.120,
            -9.616 12.456 -6.120,
            -9.853 12.246 -6.120,
            -10.101 12.049 -6.120,
            -10.358 11.864 -6.120,
            -10.624 11.692 -6.120,
            -10.898 11.534 -6.120,
            -11.180 11.389 -6.120,
            -11.468 11.259 -6.120,
            -11.763 11.143 -6.120,
            -12.063 11.043 -6.120,
            -12.368 10.957 -6.120,
            -12.677 10.886 -6.120,
            -12.989 10.831 -6.120,
            -13.303 10.792 -6.120,
            -13.618 10.768 -6.120,
            -13.935 10.760 -6.120,
            -13.935 10.902 -6.261,
            -13.626 10.910 -6.261,
            -13.317 10.933 -6.261,
            -13.010 10.971 -6.261,
            -12.705 11.025 -6.261,
            -12.403 11.094 -6.261,
            -12.105 11.178 -6.261,
            -11.812 11.276 -6.261,
            -11.523 11.389 -6.261,
            -11.241 11.517 -6.261,
            -10.966 11.658 -6.261,
            -10.698 11.813 -6.261,
            -10.438 11.981 -6.261,
            -10.186 12.161 -6.261,
            -9.944 12.354 -6.261,
            -9.712 12.559 -6.261,
            -9.490 12.775 -6.261,
            -9.280 13.002 -6.261,
            -9.081 13.239 -6.261,
            -8.894 13.486 -6.261,
            -8.720 13.742 -6.261,
            -8.558 14.006 -6.261,
            -8.410 14.278 -6.261,
            -8.276 14.557 -6.261,
            -8.156 14.842 -6.261,
            -8.050 15.133 -6.261,
            -7.958 15.429 -6.261,
            -7.882 15.729 -6.261,
            -7.821 16.032 -6.261,
            -7.775 16.338 -6.261,
            -7.744 16.646 -6.261,
            -7.728 16.956 -6.261,
            -7.728 17.265 -6.261,
            -7.744 17.574 -6.261,
            -7.775 17.882 -6.261,
            -7.821 18.189 -6.261,
            -7.882 18.492 -6.261,
            -7.958 18.792 -6.261,
            -8.050 19.088 -6.261,
            -8.156 19.379 -6.261,
            -8.276 19.664 -6.261,
            -8.410 19.943 -6.261,
            -8.558 20.215 -6.261,
            -8.720 20.479 -6.261,
            -8.894 20.735 -6.261,
            -9.081 20.981 -6.261,
            -9.280 21.219 -6.261,
            -9.490 21.445 -6.261,
            -9.712 21.662 -6.261,
            -9.944 21.866 -6.261,
            -10.186 22.059 -6.261,
            -10.438 22.240 -6.261,
            -10.698 22.408 -6.261,
            -10.966 22.563 -6.261,
            -11.241 22.704 -6.261,
            -11.523 22.831 -6.261,
            -11.812 22.945 -6.261,
            -12.105 23.043 -6.261,
            -12.403 23.127 -6.261,
            -12.705 23.196 -6.261,
            -13.010 23.250 -6.261,
            -13.317 23.288 -6.261,
            -13.626 23.311 -6.261,
            -13.935 23.319 -6.261,
            -18.976 13.486 -6.261,
            -18.590 13.002 -6.261,
            -18.789 13.239 -6.261,
            -17.432 11.981 -6.261,
            -17.684 12.161 -6.261,
            -17.926 12.354 -6.261,
            -18.158 12.559 -6.261,
            -18.379 12.775 -6.261,
            -19.312 14.006 -6.261,
            -19.150 13.742 -6.261,
            -16.904 11.658 -6.261,
            -17.172 11.813 -6.261,
            -19.594 14.557 -6.261,
            -19.460 14.278 -6.261,
            -15.765 11.178 -6.261,
            -16.058 11.276 -6.261,
            -16.347 11.389 -6.261,
            -15.467 11.094 -6.261,
            -16.629 11.517 -6.261,
            -19.714 14.842 -6.261,
            -19.988 15.729 -6.261,
            -19.820 15.133 -6.261,
            -19.912 15.429 -6.261,
            -14.860 10.971 -6.261,
            -15.165 11.025 -6.261,
            -20.126 16.646 -6.261,
            -20.049 16.032 -6.261,
            -20.095 16.338 -6.261,
            -14.244 10.910 -6.261,
            -14.553 10.933 -6.261,
            -20.049 18.189 -6.261,
            -20.126 17.574 -6.261,
            -20.095 17.882 -6.261,
            -19.988 18.492 -6.261,
            -20.142 16.956 -6.261,
            -20.142 17.265 -6.261,
            -19.714 19.379 -6.261,
            -19.912 18.792 -6.261,
            -19.820 19.088 -6.261,
            -18.976 20.735 -6.261,
            -19.594 19.664 -6.261,
            -19.460 19.943 -6.261,
            -19.312 20.215 -6.261,
            -19.150 20.479 -6.261,
            -18.158 21.662 -6.261,
            -18.590 21.219 -6.261,
            -18.379 21.445 -6.261,
            -17.432 22.240 -6.261,
            -18.789 20.981 -6.261,
            -17.926 21.866 -6.261,
            -17.684 22.059 -6.261,
            -16.629 22.704 -6.261,
            -17.172 22.408 -6.261,
            -16.904 22.563 -6.261,
            -16.347 22.831 -6.261,
            -15.467 23.127 -6.261,
            -16.058 22.945 -6.261,
            -15.765 23.043 -6.261,
            -15.165 23.196 -6.261,
            -14.244 23.311 -6.261,
            -14.860 23.250 -6.261,
            -14.553 23.288 -6.261,
            -14.252 23.453 -6.120,
            -14.567 23.429 -6.120,
            -14.881 23.389 -6.120,
            -15.193 23.334 -6.120,
            -15.502 23.264 -6.120,
            -15.807 23.178 -6.120,
            -16.107 23.077 -6.120,
            -16.402 22.962 -6.120,
            -16.690 22.832 -6.120,
            -16.972 22.687 -6.120,
            -17.246 22.529 -6.120,
            -17.512 22.357 -6.120,
            -17.769 22.172 -6.120,
            -18.017 21.975 -6.120,
            -18.254 21.765 -6.120,
            -18.481 21.544 -6.120,
            -18.696 21.312 -6.120,
            -18.900 21.070 -6.120,
            -19.091 20.817 -6.120,
            -19.269 20.556 -6.120,
            -19.434 20.285 -6.120,
            -19.586 20.007 -6.120,
            -19.723 19.722 -6.120,
            -19.846 19.430 -6.120,
            -19.954 19.133 -6.120,
            -20.048 18.830 -6.120,
            -20.126 18.523 -6.120,
            -20.189 18.213 -6.120,
            -20.236 17.900 -6.120,
            -20.267 17.585 -6.120,
            -20.283 17.269 -6.120,
            -20.283 16.952 -6.120,
            -20.267 16.636 -6.120,
            -20.236 16.321 -6.120,
            -20.189 16.008 -6.120,
            -20.126 15.697 -6.120,
            -20.048 15.391 -6.120,
            -19.954 15.088 -6.120,
            -19.846 14.790 -6.120,
            -19.723 14.499 -6.120,
            -19.586 14.213 -6.120,
            -19.434 13.935 -6.120,
            -19.269 13.665 -6.120,
            -19.091 13.404 -6.120,
            -18.900 13.151 -6.120,
            -18.696 12.909 -6.120,
            -18.481 12.677 -6.120,
            -18.254 12.456 -6.120,
            -18.017 12.246 -6.120,
            -17.769 12.049 -6.120,
            -17.512 11.864 -6.120,
            -17.246 11.692 -6.120,
            -16.972 11.534 -6.120,
            -16.690 11.389 -6.120,
            -16.402 11.259 -6.120,
            -16.107 11.143 -6.120,
            -15.807 11.043 -6.120,
            -15.502 10.957 -6.120,
            -15.193 10.886 -6.120,
            -14.881 10.831 -6.120,
            -14.567 10.792 -6.120,
            -14.252 10.768 -6.120,
            -14.252 10.768 -4.472,
            -14.567 10.792 -4.472,
            -14.881 10.831 -4.472,
            -15.193 10.886 -4.472,
            -15.502 10.957 -4.472,
            -15.807 11.043 -4.472,
            -16.107 11.143 -4.472,
            -16.402 11.259 -4.472,
            -16.690 11.389 -4.472,
            -16.972 11.534 -4.472,
            -17.246 11.692 -4.472,
            -17.512 11.864 -4.472,
            -17.769 12.049 -4.472,
            -18.017 12.246 -4.472,
            -18.254 12.456 -4.472,
            -18.481 12.677 -4.472,
            -18.696 12.909 -4.472,
            -18.900 13.151 -4.472,
            -19.091 13.404 -4.472,
            -19.269 13.665 -4.472,
            -19.434 13.935 -4.472,
            -19.586 14.213 -4.472,
            -19.723 14.499 -4.472,
            -19.846 14.790 -4.472,
            -19.954 15.088 -4.472,
            -20.048 15.391 -4.472,
            -20.126 15.697 -4.472,
            -20.189 16.008 -4.472,
            -20.236 16.321 -4.472,
            -20.267 16.636 -4.472,
            -20.283 16.952 -4.472,
            -20.283 17.269 -4.472,
            -20.267 17.585 -4.472,
            -20.236 17.900 -4.472,
            -20.189 18.213 -4.472,
            -20.126 18.523 -4.472,
            -20.048 18.830 -4.472,
            -19.954 19.133 -4.472,
            -19.846 19.430 -4.472,
            -19.723 19.722 -4.472,
            -19.586 20.007 -4.472,
            -19.434 20.285 -4.472,
            -19.269 20.556 -4.472,
            -19.091 20.817 -4.472,
            -18.900 21.070 -4.472,
            -18.696 21.312 -4.472,
            -18.481 21.544 -4.472,
            -18.254 21.765 -4.472,
            -18.017 21.975 -4.472,
            -17.769 22.172 -4.472,
            -17.512 22.357 -4.472,
            -17.246 22.529 -4.472,
            -16.972 22.687 -4.472,
            -16.690 22.832 -4.472,
            -16.402 22.962 -4.472,
            -16.107 23.077 -4.472,
            -15.807 23.178 -4.472,
            -15.502 23.264 -4.472,
            -15.193 23.334 -4.472,
            -14.881 23.389 -4.472,
            -14.567 23.429 -4.472,
            -14.252 23.453 -4.472,
            -19.153 20.442 -4.350,
            -17.931 21.864 -4.364,
            -19.731 19.461 -4.398,
            -18.552 20.861 -4.173,
            -17.292 22.278 -4.328,
            -19.153 19.859 -4.137,
            -17.931 21.278 -4.052,
            -16.639 22.676 -4.347,
            -19.731 18.883 -4.253,
            -18.552 20.264 -3.931,
            -17.292 21.689 -3.987,
            -15.973 23.053 -4.419,
            -19.153 19.262 -3.965,
            -17.931 20.672 -3.782,
            -16.639 22.087 -3.978,
            -19.731 18.297 -4.150,
            -18.552 19.652 -3.732,
            -17.292 21.077 -3.688,
            -15.973 22.468 -4.024,
            -19.153 18.655 -3.836,
            -17.931 20.049 -3.554,
            -16.639 21.474 -3.652,
            -15.299 22.827 -4.123,
            -19.731 17.705 -4.087,
            -18.552 19.028 -3.576,
            -17.292 20.446 -3.433,
            -15.973 21.857 -3.670,
            -14.618 23.160 -4.273,
            -19.153 18.040 -3.750,
            -17.931 19.411 -3.371,
            -16.639 20.839 -3.368,
            -15.299 22.223 -3.744,
            -19.731 17.110 -4.067,
            -18.552 18.394 -3.464,
            -17.292 19.799 -3.222,
            -15.973 21.223 -3.361,
            -14.618 22.564 -3.871,
            -19.153 17.421 -3.706,
            -17.931 18.762 -3.233,
            -16.639 20.186 -3.130,
            -15.299 21.593 -3.408,
            -19.731 16.515 -4.087,
            -18.552 17.754 -3.397,
            -17.292 19.138 -3.057,
            -15.973 20.569 -3.096,
            -14.618 21.942 -3.511,
            -19.153 16.800 -3.706,
            -17.931 18.104 -3.140,
            -16.639 19.519 -2.939,
            -15.299 20.941 -3.118,
            -19.731 15.923 -4.150,
            -18.552 17.110 -3.374,
            -17.292 18.468 -2.939,
            -15.973 19.898 -2.877,
            -14.618 21.297 -3.195,
            -19.153 16.181 -3.750,
            -17.931 17.442 -3.094,
            -16.639 18.839 -2.794,
            -15.299 20.270 -2.873,
            -19.731 15.337 -4.253,
            -18.552 16.467 -3.397,
            -17.292 17.791 -2.868,
            -15.973 19.213 -2.706,
            -14.618 20.631 -2.926,
            -19.153 15.566 -3.836,
            -17.931 16.779 -3.094,
            -16.639 18.151 -2.697,
            -15.299 19.584 -2.676,
            -19.731 14.760 -4.398,
            -18.552 15.827 -3.464,
            -17.292 17.110 -2.844,
            -15.973 18.518 -2.584,
            -14.618 19.948 -2.703,
            -19.153 14.959 -3.965,
            -17.931 16.116 -3.140,
            -16.639 17.458 -2.649,
            -15.299 18.886 -2.528,
            -18.552 15.193 -3.576,
            -17.292 16.430 -2.868,
            -15.973 17.816 -2.510,
            -14.618 19.251 -2.529,
            -19.153 14.362 -4.137,
            -17.931 15.459 -3.233,
            -16.639 16.763 -2.649,
            -15.299 18.179 -2.428,
            -18.552 14.569 -3.732,
            -17.292 15.753 -2.939,
            -15.973 17.110 -2.485,
            -14.618 18.543 -2.404,
            -19.153 13.779 -4.350,
            -17.931 14.810 -3.371,
            -16.639 16.070 -2.697,
            -15.299 17.467 -2.378,
            -18.552 13.956 -3.931,
            -17.292 15.083 -3.057,
            -15.973 16.405 -2.510,
            -14.618 17.828 -2.329,
            -17.931 14.172 -3.554,
            -16.639 15.382 -2.794,
            -15.299 16.754 -2.378,
            -18.552 13.360 -4.173,
            -17.292 14.422 -3.222,
            -15.973 15.703 -2.584,
            -14.618 17.110 -2.304,
            -17.931 13.549 -3.782,
            -16.639 14.702 -2.939,
            -15.299 16.042 -2.428,
            -17.292 13.775 -3.433,
            -15.973 15.008 -2.706,
            -14.618 16.392 -2.329,
            -17.931 12.943 -4.052,
            -16.639 14.034 -3.130,
            -15.299 15.335 -2.528,
            -17.292 13.144 -3.688,
            -15.973 14.323 -2.877,
            -14.618 15.678 -2.404,
            -17.931 12.357 -4.364,
            -16.639 13.382 -3.368,
            -15.299 14.637 -2.676,
            -17.292 12.532 -3.987,
            -15.973 13.652 -3.096,
            -14.618 14.970 -2.529,
            -16.639 12.747 -3.652,
            -15.299 13.951 -2.873,
            -17.292 11.943 -4.328,
            -15.973 12.998 -3.361,
            -14.618 14.273 -2.703,
            -16.639 12.134 -3.978,
            -15.299 13.280 -3.118,
            -15.973 12.363 -3.670,
            -14.618 13.590 -2.926,
            -16.639 11.545 -4.347,
            -15.299 12.628 -3.408,
            -15.973 11.752 -4.024,
            -14.618 12.924 -3.195,
            -15.299 11.998 -3.744,
            -15.973 11.168 -4.419,
            -14.618 12.278 -3.511,
            -15.299 11.393 -4.123,
            -14.618 11.656 -3.871,
            -14.618 11.061 -4.273
          ]
        }
        coordIndex [
          0, 1, 2, -1,
          3, 4, 5, -1,
          6, 7, 1, -1,
          6, 8, 7, -1,
          6, 1, 0, -1,
          9, 10, 11, -1,
          9, 0, 10, -1,
          9, 6, 0, -1,
          12, 8, 6, -1,
          12, 13, 8, -1,
          12, 14, 13, -1,
          12, 15, 14, -1,
          12, 6, 9, -1,
          16, 9, 11, -1,
          16, 11, 17, -1,
          18, 15, 12, -1,
          18, 19, 15, -1,
          20, 9, 16, -1,
          20, 12, 9, -1,
          21, 22, 23, -1,
          21, 17, 22, -1,
          21, 16, 17, -1,
          24, 25, 19, -1,
          24, 12, 20, -1,
          24, 18, 12, -1,
          24, 19, 18, -1,
          26, 16, 21, -1,
          26, 20, 16, -1,
          27, 25, 24, -1,
          27, 28, 25, -1,
          27, 29, 28, -1,
          30, 23, 31, -1,
          30, 21, 23, -1,
          32, 20, 26, -1,
          32, 24, 20, -1,
          33, 26, 21, -1,
          33, 21, 30, -1,
          34, 29, 27, -1,
          34, 24, 32, -1,
          34, 27, 24, -1,
          35, 36, 37, -1,
          35, 31, 36, -1,
          35, 30, 31, -1,
          38, 26, 33, -1,
          38, 32, 26, -1,
          39, 40, 29, -1,
          39, 41, 40, -1,
          39, 42, 41, -1,
          39, 29, 34, -1,
          43, 30, 35, -1,
          43, 33, 30, -1,
          44, 34, 32, -1,
          44, 32, 38, -1,
          45, 37, 46, -1,
          45, 35, 37, -1,
          47, 33, 43, -1,
          47, 38, 33, -1,
          48, 39, 34, -1,
          48, 34, 44, -1,
          48, 42, 39, -1,
          49, 43, 35, -1,
          49, 35, 45, -1,
          50, 38, 47, -1,
          50, 44, 38, -1,
          51, 42, 48, -1,
          51, 52, 42, -1,
          51, 53, 52, -1,
          54, 55, 56, -1,
          54, 46, 55, -1,
          54, 45, 46, -1,
          57, 47, 43, -1,
          57, 43, 49, -1,
          58, 44, 50, -1,
          58, 48, 44, -1,
          59, 45, 54, -1,
          59, 49, 45, -1,
          60, 50, 47, -1,
          60, 47, 57, -1,
          61, 51, 48, -1,
          61, 53, 51, -1,
          61, 48, 58, -1,
          61, 62, 53, -1,
          63, 56, 64, -1,
          63, 54, 56, -1,
          65, 57, 49, -1,
          65, 49, 59, -1,
          66, 50, 60, -1,
          66, 58, 50, -1,
          67, 59, 54, -1,
          67, 54, 63, -1,
          68, 60, 57, -1,
          68, 57, 65, -1,
          69, 61, 58, -1,
          69, 58, 66, -1,
          70, 64, 71, -1,
          70, 71, 72, -1,
          70, 63, 64, -1,
          73, 65, 59, -1,
          73, 59, 67, -1,
          74, 60, 68, -1,
          74, 66, 60, -1,
          75, 62, 61, -1,
          75, 76, 62, -1,
          75, 77, 76, -1,
          75, 78, 77, -1,
          75, 61, 69, -1,
          79, 63, 70, -1,
          79, 67, 63, -1,
          80, 68, 65, -1,
          80, 65, 73, -1,
          81, 69, 66, -1,
          81, 66, 74, -1,
          82, 70, 72, -1,
          82, 72, 83, -1,
          84, 67, 79, -1,
          84, 73, 67, -1,
          85, 74, 68, -1,
          85, 68, 80, -1,
          86, 75, 69, -1,
          86, 69, 81, -1,
          87, 70, 82, -1,
          87, 79, 70, -1,
          88, 73, 84, -1,
          88, 80, 73, -1,
          89, 74, 85, -1,
          89, 81, 74, -1,
          90, 75, 86, -1,
          90, 91, 78, -1,
          90, 92, 91, -1,
          90, 78, 75, -1,
          93, 83, 94, -1,
          93, 94, 95, -1,
          93, 82, 83, -1,
          96, 79, 87, -1,
          96, 84, 79, -1,
          97, 85, 80, -1,
          97, 80, 88, -1,
          98, 81, 89, -1,
          98, 86, 81, -1,
          99, 82, 93, -1,
          99, 87, 82, -1,
          100, 88, 84, -1,
          100, 84, 96, -1,
          101, 85, 97, -1,
          101, 89, 85, -1,
          102, 92, 90, -1,
          102, 86, 98, -1,
          102, 103, 92, -1,
          102, 104, 103, -1,
          102, 90, 86, -1,
          105, 93, 95, -1,
          105, 95, 106, -1,
          107, 87, 99, -1,
          107, 96, 87, -1,
          108, 97, 88, -1,
          108, 88, 100, -1,
          109, 98, 89, -1,
          109, 89, 101, -1,
          110, 99, 93, -1,
          110, 93, 105, -1,
          111, 100, 96, -1,
          111, 96, 107, -1,
          112, 97, 108, -1,
          112, 101, 97, -1,
          113, 98, 109, -1,
          113, 102, 98, -1,
          114, 106, 115, -1,
          114, 115, 116, -1,
          114, 105, 106, -1,
          117, 107, 99, -1,
          117, 99, 110, -1,
          118, 108, 100, -1,
          118, 100, 111, -1,
          119, 109, 101, -1,
          119, 101, 112, -1,
          120, 121, 104, -1,
          120, 122, 121, -1,
          120, 104, 102, -1,
          120, 102, 113, -1,
          123, 105, 114, -1,
          123, 110, 105, -1,
          124, 107, 117, -1,
          124, 111, 107, -1,
          125, 112, 108, -1,
          125, 108, 118, -1,
          126, 113, 109, -1,
          126, 109, 119, -1,
          127, 116, 128, -1,
          127, 114, 116, -1,
          129, 110, 123, -1,
          129, 117, 110, -1,
          130, 111, 124, -1,
          130, 118, 111, -1,
          131, 119, 112, -1,
          131, 112, 125, -1,
          132, 122, 120, -1,
          132, 133, 122, -1,
          132, 134, 133, -1,
          132, 120, 113, -1,
          132, 113, 126, -1,
          135, 114, 127, -1,
          135, 123, 114, -1,
          136, 124, 117, -1,
          136, 117, 129, -1,
          137, 125, 118, -1,
          137, 118, 130, -1,
          138, 126, 119, -1,
          138, 119, 131, -1,
          139, 128, 140, -1,
          139, 140, 141, -1,
          139, 127, 128, -1,
          142, 123, 135, -1,
          142, 129, 123, -1,
          143, 130, 124, -1,
          143, 124, 136, -1,
          144, 125, 137, -1,
          144, 131, 125, -1,
          145, 134, 132, -1,
          145, 132, 126, -1,
          145, 146, 134, -1,
          145, 147, 146, -1,
          145, 126, 138, -1,
          148, 127, 139, -1,
          148, 135, 127, -1,
          149, 129, 142, -1,
          149, 136, 129, -1,
          150, 137, 130, -1,
          150, 130, 143, -1,
          151, 138, 131, -1,
          151, 131, 144, -1,
          152, 141, 153, -1,
          152, 139, 141, -1,
          154, 135, 148, -1,
          154, 142, 135, -1,
          155, 136, 149, -1,
          155, 143, 136, -1,
          156, 144, 137, -1,
          156, 137, 150, -1,
          157, 138, 151, -1,
          157, 147, 145, -1,
          157, 145, 138, -1,
          157, 158, 147, -1,
          157, 159, 158, -1,
          160, 139, 152, -1,
          160, 148, 139, -1,
          161, 149, 142, -1,
          161, 142, 154, -1,
          162, 143, 155, -1,
          162, 150, 143, -1,
          163, 151, 144, -1,
          163, 144, 156, -1,
          164, 153, 165, -1,
          164, 165, 4, -1,
          164, 152, 153, -1,
          166, 154, 148, -1,
          166, 148, 160, -1,
          167, 149, 161, -1,
          167, 155, 149, -1,
          168, 150, 162, -1,
          168, 156, 150, -1,
          169, 157, 151, -1,
          169, 151, 163, -1,
          169, 170, 159, -1,
          169, 159, 157, -1,
          171, 152, 164, -1,
          171, 160, 152, -1,
          172, 154, 166, -1,
          172, 161, 154, -1,
          173, 162, 155, -1,
          173, 155, 167, -1,
          174, 163, 156, -1,
          174, 156, 168, -1,
          175, 4, 3, -1,
          175, 164, 4, -1,
          175, 176, 177, -1,
          175, 3, 176, -1,
          178, 160, 171, -1,
          178, 166, 160, -1,
          179, 161, 172, -1,
          179, 167, 161, -1,
          180, 168, 162, -1,
          180, 162, 173, -1,
          181, 169, 163, -1,
          181, 163, 174, -1,
          181, 182, 170, -1,
          181, 183, 182, -1,
          181, 170, 169, -1,
          184, 175, 177, -1,
          184, 171, 164, -1,
          184, 185, 186, -1,
          184, 187, 185, -1,
          184, 177, 187, -1,
          184, 164, 175, -1,
          188, 172, 166, -1,
          188, 166, 178, -1,
          189, 173, 167, -1,
          189, 167, 179, -1,
          190, 174, 168, -1,
          190, 168, 180, -1,
          191, 171, 184, -1,
          191, 192, 193, -1,
          191, 178, 171, -1,
          194, 179, 172, -1,
          194, 172, 188, -1,
          195, 180, 173, -1,
          195, 173, 189, -1,
          196, 183, 181, -1,
          196, 197, 183, -1,
          196, 198, 197, -1,
          196, 174, 190, -1,
          196, 181, 174, -1,
          199, 178, 191, -1,
          199, 188, 178, -1,
          200, 179, 194, -1,
          200, 189, 179, -1,
          201, 180, 195, -1,
          201, 190, 180, -1,
          202, 191, 184, -1,
          202, 184, 186, -1,
          202, 192, 191, -1,
          202, 186, 192, -1,
          203, 194, 188, -1,
          203, 188, 199, -1,
          204, 195, 189, -1,
          204, 189, 200, -1,
          205, 196, 190, -1,
          205, 198, 196, -1,
          205, 206, 198, -1,
          205, 207, 206, -1,
          205, 190, 201, -1,
          208, 199, 191, -1,
          208, 191, 193, -1,
          208, 209, 199, -1,
          208, 210, 209, -1,
          208, 193, 210, -1,
          211, 200, 194, -1,
          211, 212, 213, -1,
          211, 194, 203, -1,
          214, 201, 195, -1,
          214, 195, 204, -1,
          214, 215, 216, -1,
          214, 217, 215, -1,
          218, 203, 199, -1,
          218, 199, 209, -1,
          218, 219, 203, -1,
          218, 220, 219, -1,
          218, 221, 220, -1,
          218, 209, 221, -1,
          222, 204, 200, -1,
          222, 223, 224, -1,
          222, 225, 223, -1,
          222, 213, 225, -1,
          222, 211, 213, -1,
          222, 200, 211, -1,
          226, 205, 201, -1,
          226, 214, 216, -1,
          226, 227, 207, -1,
          226, 216, 227, -1,
          226, 201, 214, -1,
          226, 207, 205, -1,
          228, 211, 203, -1,
          228, 203, 219, -1,
          228, 229, 212, -1,
          228, 219, 229, -1,
          228, 212, 211, -1,
          230, 214, 204, -1,
          230, 204, 222, -1,
          230, 222, 224, -1,
          230, 231, 217, -1,
          230, 224, 231, -1,
          230, 217, 214, -1,
          232, 2, 1, -1,
          232, 233, 2, -1,
          234, 1, 7, -1,
          234, 232, 1, -1,
          235, 7, 8, -1,
          235, 8, 13, -1,
          235, 234, 7, -1,
          236, 235, 13, -1,
          237, 13, 14, -1,
          237, 236, 13, -1,
          238, 14, 15, -1,
          238, 237, 14, -1,
          239, 15, 19, -1,
          239, 19, 25, -1,
          239, 238, 15, -1,
          240, 239, 25, -1,
          241, 25, 28, -1,
          241, 240, 25, -1,
          242, 28, 29, -1,
          242, 29, 40, -1,
          242, 241, 28, -1,
          243, 40, 41, -1,
          243, 242, 40, -1,
          244, 243, 41, -1,
          245, 41, 42, -1,
          245, 42, 52, -1,
          245, 244, 41, -1,
          246, 245, 52, -1,
          247, 52, 53, -1,
          247, 246, 52, -1,
          248, 53, 62, -1,
          248, 62, 76, -1,
          248, 247, 53, -1,
          249, 248, 76, -1,
          250, 249, 76, -1,
          250, 76, 77, -1,
          250, 77, 78, -1,
          251, 250, 78, -1,
          251, 78, 91, -1,
          252, 251, 91, -1,
          253, 252, 91, -1,
          253, 91, 92, -1,
          253, 92, 103, -1,
          254, 253, 103, -1,
          255, 103, 104, -1,
          255, 254, 103, -1,
          256, 104, 121, -1,
          256, 121, 122, -1,
          256, 255, 104, -1,
          257, 256, 122, -1,
          258, 122, 133, -1,
          258, 133, 134, -1,
          258, 257, 122, -1,
          259, 134, 146, -1,
          259, 258, 134, -1,
          260, 259, 146, -1,
          261, 146, 147, -1,
          261, 260, 146, -1,
          262, 147, 158, -1,
          262, 261, 147, -1,
          263, 158, 159, -1,
          263, 159, 170, -1,
          263, 262, 158, -1,
          264, 170, 182, -1,
          264, 263, 170, -1,
          265, 264, 182, -1,
          266, 182, 183, -1,
          266, 183, 197, -1,
          266, 265, 182, -1,
          267, 266, 197, -1,
          268, 197, 198, -1,
          268, 267, 197, -1,
          269, 198, 206, -1,
          269, 268, 198, -1,
          270, 206, 207, -1,
          270, 269, 206, -1,
          271, 207, 227, -1,
          271, 270, 207, -1,
          272, 227, 216, -1,
          272, 216, 215, -1,
          272, 271, 227, -1,
          273, 272, 215, -1,
          274, 215, 217, -1,
          274, 217, 231, -1,
          274, 273, 215, -1,
          275, 274, 231, -1,
          276, 275, 231, -1,
          276, 231, 224, -1,
          277, 276, 224, -1,
          277, 224, 223, -1,
          277, 223, 225, -1,
          278, 277, 225, -1,
          279, 278, 225, -1,
          279, 225, 213, -1,
          280, 279, 213, -1,
          280, 213, 212, -1,
          281, 280, 212, -1,
          281, 212, 229, -1,
          281, 229, 219, -1,
          282, 281, 219, -1,
          283, 282, 219, -1,
          283, 219, 220, -1,
          284, 283, 220, -1,
          284, 220, 221, -1,
          284, 221, 209, -1,
          285, 284, 209, -1,
          286, 285, 209, -1,
          286, 209, 210, -1,
          287, 286, 210, -1,
          287, 210, 193, -1,
          288, 193, 192, -1,
          288, 287, 193, -1,
          289, 192, 186, -1,
          289, 288, 192, -1,
          290, 186, 185, -1,
          290, 185, 187, -1,
          290, 289, 186, -1,
          291, 290, 187, -1,
          292, 187, 177, -1,
          292, 291, 187, -1,
          293, 177, 176, -1,
          293, 176, 3, -1,
          293, 292, 177, -1,
          294, 293, 3, -1,
          295, 3, 5, -1,
          295, 294, 3, -1,
          294, 295, 296, -1,
          294, 296, 297, -1,
          293, 294, 297, -1,
          293, 297, 298, -1,
          292, 293, 298, -1,
          292, 298, 299, -1,
          291, 292, 299, -1,
          291, 299, 300, -1,
          290, 291, 300, -1,
          290, 300, 301, -1,
          289, 290, 301, -1,
          289, 301, 302, -1,
          288, 302, 303, -1,
          288, 289, 302, -1,
          304, 288, 303, -1,
          287, 288, 304, -1,
          305, 287, 304, -1,
          286, 287, 305, -1,
          285, 305, 306, -1,
          285, 286, 305, -1,
          284, 306, 307, -1,
          284, 285, 306, -1,
          283, 307, 308, -1,
          283, 284, 307, -1,
          309, 283, 308, -1,
          282, 283, 309, -1,
          281, 309, 310, -1,
          281, 282, 309, -1,
          280, 310, 311, -1,
          280, 281, 310, -1,
          279, 311, 312, -1,
          279, 280, 311, -1,
          278, 312, 313, -1,
          278, 279, 312, -1,
          277, 278, 313, -1,
          277, 313, 314, -1,
          276, 277, 314, -1,
          276, 314, 315, -1,
          275, 276, 315, -1,
          275, 315, 316, -1,
          274, 275, 316, -1,
          274, 316, 317, -1,
          318, 274, 317, -1,
          273, 274, 318, -1,
          319, 273, 318, -1,
          272, 273, 319, -1,
          271, 272, 319, -1,
          271, 319, 320, -1,
          321, 271, 320, -1,
          270, 271, 321, -1,
          322, 270, 321, -1,
          269, 270, 322, -1,
          268, 322, 323, -1,
          268, 269, 322, -1,
          267, 323, 324, -1,
          267, 268, 323, -1,
          266, 324, 325, -1,
          266, 267, 324, -1,
          265, 325, 326, -1,
          265, 266, 325, -1,
          264, 326, 327, -1,
          264, 265, 326, -1,
          263, 327, 328, -1,
          263, 264, 327, -1,
          262, 328, 329, -1,
          262, 263, 328, -1,
          261, 329, 330, -1,
          261, 262, 329, -1,
          260, 330, 331, -1,
          260, 261, 330, -1,
          259, 331, 332, -1,
          259, 260, 331, -1,
          258, 332, 333, -1,
          258, 259, 332, -1,
          334, 258, 333, -1,
          257, 258, 334, -1,
          256, 334, 335, -1,
          256, 257, 334, -1,
          255, 335, 336, -1,
          255, 256, 335, -1,
          254, 336, 337, -1,
          254, 255, 336, -1,
          253, 337, 338, -1,
          253, 254, 337, -1,
          252, 338, 339, -1,
          252, 253, 338, -1,
          251, 252, 339, -1,
          251, 339, 340, -1,
          250, 251, 340, -1,
          250, 340, 341, -1,
          249, 250, 341, -1,
          249, 341, 342, -1,
          248, 249, 342, -1,
          248, 342, 343, -1,
          344, 248, 343, -1,
          247, 248, 344, -1,
          246, 344, 345, -1,
          246, 247, 344, -1,
          245, 345, 346, -1,
          245, 246, 345, -1,
          347, 245, 346, -1,
          244, 245, 347, -1,
          348, 244, 347, -1,
          243, 244, 348, -1,
          242, 348, 349, -1,
          242, 243, 348, -1,
          241, 349, 350, -1,
          241, 242, 349, -1,
          240, 350, 351, -1,
          240, 241, 350, -1,
          239, 351, 352, -1,
          239, 240, 351, -1,
          353, 239, 352, -1,
          238, 239, 353, -1,
          237, 353, 354, -1,
          237, 238, 353, -1,
          236, 354, 355, -1,
          236, 237, 354, -1,
          235, 355, 356, -1,
          235, 236, 355, -1,
          234, 356, 357, -1,
          234, 235, 356, -1,
          232, 357, 358, -1,
          232, 234, 357, -1,
          233, 358, 359, -1,
          233, 232, 358, -1,
          360, 361, 362, -1,
          363, 364, 365, -1,
          363, 365, 366, -1,
          363, 366, 367, -1,
          368, 360, 369, -1,
          368, 361, 360, -1,
          370, 371, 363, -1,
          370, 367, 361, -1,
          370, 363, 367, -1,
          370, 361, 368, -1,
          372, 368, 373, -1,
          374, 375, 376, -1,
          377, 376, 378, -1,
          377, 378, 370, -1,
          377, 372, 379, -1,
          377, 370, 368, -1,
          377, 368, 372, -1,
          377, 374, 376, -1,
          380, 381, 382, -1,
          383, 384, 377, -1,
          385, 380, 386, -1,
          385, 386, 387, -1,
          296, 388, 389, -1,
          298, 297, 296, -1,
          299, 296, 389, -1,
          299, 298, 296, -1,
          390, 391, 392, -1,
          300, 389, 383, -1,
          300, 383, 377, -1,
          300, 299, 389, -1,
          393, 391, 390, -1,
          393, 379, 381, -1,
          393, 385, 394, -1,
          393, 394, 395, -1,
          393, 395, 391, -1,
          393, 381, 380, -1,
          393, 380, 385, -1,
          301, 300, 377, -1,
          396, 393, 397, -1,
          396, 397, 398, -1,
          305, 304, 303, -1,
          305, 303, 302, -1,
          307, 305, 302, -1,
          307, 306, 305, -1,
          399, 393, 396, -1,
          399, 396, 400, -1,
          399, 400, 401, -1,
          399, 401, 402, -1,
          399, 402, 403, -1,
          309, 308, 307, -1,
          309, 302, 301, -1,
          309, 307, 302, -1,
          404, 405, 406, -1,
          314, 313, 312, -1,
          314, 312, 311, -1,
          314, 311, 310, -1,
          314, 310, 309, -1,
          315, 309, 301, -1,
          315, 314, 309, -1,
          407, 408, 405, -1,
          407, 404, 409, -1,
          407, 409, 410, -1,
          407, 405, 404, -1,
          317, 316, 315, -1,
          411, 393, 399, -1,
          411, 399, 408, -1,
          411, 407, 412, -1,
          411, 412, 413, -1,
          411, 408, 407, -1,
          411, 379, 393, -1,
          414, 379, 411, -1,
          321, 320, 319, -1,
          321, 319, 318, -1,
          321, 318, 317, -1,
          321, 317, 315, -1,
          415, 414, 416, -1,
          415, 416, 417, -1,
          418, 377, 379, -1,
          418, 379, 414, -1,
          418, 414, 415, -1,
          324, 322, 321, -1,
          324, 321, 315, -1,
          324, 323, 322, -1,
          419, 418, 420, -1,
          419, 420, 421, -1,
          419, 377, 418, -1,
          358, 419, 359, -1,
          329, 328, 327, -1,
          329, 327, 326, -1,
          330, 329, 326, -1,
          330, 326, 325, -1,
          330, 325, 324, -1,
          333, 330, 324, -1,
          333, 332, 331, -1,
          333, 331, 330, -1,
          352, 356, 355, -1,
          352, 355, 354, -1,
          352, 354, 353, -1,
          350, 419, 358, -1,
          350, 356, 352, -1,
          350, 358, 357, -1,
          350, 357, 356, -1,
          350, 377, 419, -1,
          350, 352, 351, -1,
          350, 301, 377, -1,
          337, 336, 335, -1,
          337, 335, 334, -1,
          339, 337, 334, -1,
          339, 338, 337, -1,
          347, 350, 349, -1,
          347, 349, 348, -1,
          340, 333, 324, -1,
          340, 301, 350, -1,
          340, 339, 334, -1,
          340, 315, 301, -1,
          340, 334, 333, -1,
          340, 324, 315, -1,
          342, 341, 340, -1,
          344, 350, 347, -1,
          344, 340, 350, -1,
          344, 347, 346, -1,
          344, 346, 345, -1,
          343, 342, 340, -1,
          343, 340, 344, -1,
          422, 233, 359, -1,
          422, 359, 419, -1,
          423, 422, 419, -1,
          423, 419, 421, -1,
          424, 423, 421, -1,
          424, 421, 420, -1,
          425, 424, 420, -1,
          425, 420, 418, -1,
          426, 425, 418, -1,
          426, 418, 415, -1,
          417, 426, 415, -1,
          427, 426, 417, -1,
          428, 417, 416, -1,
          428, 427, 417, -1,
          429, 416, 414, -1,
          429, 428, 416, -1,
          430, 414, 411, -1,
          430, 429, 414, -1,
          431, 411, 413, -1,
          431, 430, 411, -1,
          432, 413, 412, -1,
          432, 431, 413, -1,
          433, 412, 407, -1,
          433, 432, 412, -1,
          434, 407, 410, -1,
          434, 433, 407, -1,
          435, 410, 409, -1,
          435, 434, 410, -1,
          436, 409, 404, -1,
          436, 435, 409, -1,
          437, 404, 406, -1,
          437, 436, 404, -1,
          438, 406, 405, -1,
          438, 437, 406, -1,
          439, 438, 405, -1,
          439, 405, 408, -1,
          440, 439, 408, -1,
          440, 408, 399, -1,
          441, 440, 399, -1,
          441, 399, 403, -1,
          402, 441, 403, -1,
          442, 441, 402, -1,
          443, 442, 402, -1,
          443, 402, 401, -1,
          400, 443, 401, -1,
          444, 443, 400, -1,
          445, 444, 400, -1,
          445, 400, 396, -1,
          446, 445, 396, -1,
          446, 396, 398, -1,
          447, 446, 398, -1,
          447, 398, 397, -1,
          448, 447, 397, -1,
          448, 397, 393, -1,
          449, 393, 390, -1,
          449, 448, 393, -1,
          450, 390, 392, -1,
          450, 449, 390, -1,
          451, 392, 391, -1,
          451, 450, 392, -1,
          452, 391, 395, -1,
          452, 451, 391, -1,
          453, 395, 394, -1,
          453, 452, 395, -1,
          454, 394, 385, -1,
          454, 453, 394, -1,
          455, 385, 387, -1,
          455, 454, 385, -1,
          456, 387, 386, -1,
          456, 455, 387, -1,
          457, 386, 380, -1,
          457, 456, 386, -1,
          458, 380, 382, -1,
          458, 457, 380, -1,
          381, 458, 382, -1,
          459, 458, 381, -1,
          460, 381, 379, -1,
          460, 459, 381, -1,
          461, 379, 372, -1,
          461, 460, 379, -1,
          462, 372, 373, -1,
          462, 461, 372, -1,
          463, 373, 368, -1,
          463, 462, 373, -1,
          464, 368, 369, -1,
          464, 463, 368, -1,
          465, 464, 369, -1,
          465, 369, 360, -1,
          362, 465, 360, -1,
          466, 465, 362, -1,
          467, 466, 362, -1,
          467, 362, 361, -1,
          367, 467, 361, -1,
          468, 467, 367, -1,
          469, 367, 366, -1,
          469, 468, 367, -1,
          470, 366, 365, -1,
          470, 469, 366, -1,
          471, 365, 364, -1,
          471, 470, 365, -1,
          472, 364, 363, -1,
          472, 471, 364, -1,
          473, 363, 371, -1,
          473, 472, 363, -1,
          474, 371, 370, -1,
          474, 473, 371, -1,
          475, 370, 378, -1,
          475, 474, 370, -1,
          476, 378, 376, -1,
          476, 475, 378, -1,
          477, 376, 375, -1,
          477, 476, 376, -1,
          374, 477, 375, -1,
          478, 477, 374, -1,
          479, 374, 377, -1,
          479, 478, 374, -1,
          480, 377, 384, -1,
          480, 479, 377, -1,
          481, 384, 383, -1,
          481, 480, 384, -1,
          482, 383, 389, -1,
          482, 481, 383, -1,
          483, 389, 388, -1,
          483, 482, 389, -1,
          295, 388, 296, -1,
          295, 483, 388, -1,
          483, 295, 5, -1,
          483, 5, 484, -1,
          482, 484, 485, -1,
          482, 483, 484, -1,
          481, 485, 486, -1,
          481, 486, 487, -1,
          481, 482, 485, -1,
          480, 481, 487, -1,
          479, 487, 488, -1,
          479, 480, 487, -1,
          478, 488, 489, -1,
          478, 489, 490, -1,
          478, 479, 488, -1,
          477, 490, 491, -1,
          477, 478, 490, -1,
          476, 477, 491, -1,
          475, 491, 492, -1,
          475, 492, 493, -1,
          475, 476, 491, -1,
          474, 475, 493, -1,
          473, 493, 494, -1,
          473, 474, 493, -1,
          472, 494, 495, -1,
          472, 495, 496, -1,
          472, 473, 494, -1,
          471, 472, 496, -1,
          470, 496, 497, -1,
          470, 471, 496, -1,
          469, 497, 498, -1,
          469, 470, 497, -1,
          468, 498, 499, -1,
          468, 499, 500, -1,
          468, 469, 498, -1,
          467, 468, 500, -1,
          466, 467, 500, -1,
          466, 500, 501, -1,
          465, 466, 501, -1,
          465, 501, 502, -1,
          465, 502, 503, -1,
          464, 465, 503, -1,
          463, 464, 503, -1,
          463, 503, 504, -1,
          463, 504, 505, -1,
          462, 463, 505, -1,
          461, 505, 506, -1,
          461, 462, 505, -1,
          460, 506, 507, -1,
          460, 461, 506, -1,
          460, 507, 508, -1,
          459, 460, 508, -1,
          458, 508, 509, -1,
          458, 459, 508, -1,
          457, 509, 510, -1,
          457, 510, 511, -1,
          457, 458, 509, -1,
          456, 457, 511, -1,
          455, 511, 512, -1,
          455, 456, 511, -1,
          454, 512, 513, -1,
          454, 455, 512, -1,
          453, 513, 514, -1,
          453, 454, 513, -1,
          452, 514, 515, -1,
          452, 453, 514, -1,
          451, 515, 516, -1,
          451, 452, 515, -1,
          450, 516, 517, -1,
          450, 451, 516, -1,
          449, 517, 518, -1,
          449, 450, 517, -1,
          448, 518, 519, -1,
          448, 519, 520, -1,
          448, 449, 518, -1,
          447, 448, 520, -1,
          446, 520, 521, -1,
          446, 521, 522, -1,
          446, 447, 520, -1,
          445, 522, 523, -1,
          445, 446, 522, -1,
          444, 445, 523, -1,
          443, 523, 524, -1,
          443, 524, 525, -1,
          443, 444, 523, -1,
          442, 525, 526, -1,
          442, 443, 525, -1,
          441, 442, 526, -1,
          441, 526, 527, -1,
          440, 441, 527, -1,
          439, 440, 527, -1,
          439, 527, 528, -1,
          439, 528, 529, -1,
          438, 439, 529, -1,
          437, 438, 529, -1,
          437, 529, 530, -1,
          436, 437, 530, -1,
          436, 530, 531, -1,
          436, 531, 532, -1,
          435, 436, 532, -1,
          434, 435, 532, -1,
          434, 532, 533, -1,
          433, 434, 533, -1,
          433, 533, 534, -1,
          432, 433, 534, -1,
          432, 534, 535, -1,
          431, 432, 535, -1,
          431, 535, 536, -1,
          430, 431, 536, -1,
          430, 536, 537, -1,
          430, 537, 538, -1,
          429, 430, 538, -1,
          428, 429, 538, -1,
          428, 538, 539, -1,
          428, 539, 540, -1,
          427, 540, 541, -1,
          427, 428, 540, -1,
          426, 427, 541, -1,
          425, 541, 542, -1,
          425, 426, 541, -1,
          424, 542, 543, -1,
          424, 425, 542, -1,
          423, 543, 544, -1,
          423, 424, 543, -1,
          422, 544, 545, -1,
          422, 423, 544, -1,
          233, 545, 2, -1,
          233, 422, 545, -1,
          0, 2, 545, -1,
          5, 4, 484, -1,
          546, 526, 525, -1,
          546, 527, 526, -1,
          547, 532, 531, -1,
          547, 533, 532, -1,
          548, 522, 521, -1,
          548, 523, 522, -1,
          549, 527, 546, -1,
          549, 528, 527, -1,
          549, 529, 528, -1,
          549, 530, 529, -1,
          550, 534, 533, -1,
          550, 535, 534, -1,
          550, 536, 535, -1,
          551, 523, 548, -1,
          551, 546, 525, -1,
          551, 524, 523, -1,
          551, 525, 524, -1,
          552, 547, 531, -1,
          552, 531, 530, -1,
          552, 530, 549, -1,
          553, 537, 536, -1,
          553, 538, 537, -1,
          554, 548, 521, -1,
          554, 520, 519, -1,
          554, 521, 520, -1,
          555, 549, 546, -1,
          555, 546, 551, -1,
          556, 533, 547, -1,
          556, 550, 533, -1,
          556, 547, 552, -1,
          557, 540, 539, -1,
          558, 548, 554, -1,
          558, 551, 548, -1,
          559, 549, 555, -1,
          559, 552, 549, -1,
          560, 550, 556, -1,
          560, 536, 550, -1,
          560, 553, 536, -1,
          561, 554, 519, -1,
          561, 518, 517, -1,
          561, 519, 518, -1,
          562, 551, 558, -1,
          562, 555, 551, -1,
          563, 552, 559, -1,
          563, 556, 552, -1,
          564, 553, 560, -1,
          564, 538, 553, -1,
          564, 557, 539, -1,
          564, 539, 538, -1,
          565, 554, 561, -1,
          565, 558, 554, -1,
          566, 559, 555, -1,
          566, 555, 562, -1,
          567, 560, 556, -1,
          567, 556, 563, -1,
          568, 540, 557, -1,
          568, 557, 564, -1,
          568, 541, 540, -1,
          568, 542, 541, -1,
          568, 543, 542, -1,
          569, 561, 517, -1,
          569, 516, 515, -1,
          569, 517, 516, -1,
          570, 562, 558, -1,
          570, 558, 565, -1,
          571, 563, 559, -1,
          571, 559, 566, -1,
          572, 560, 567, -1,
          572, 564, 560, -1,
          573, 543, 568, -1,
          573, 0, 545, -1,
          573, 544, 543, -1,
          573, 545, 544, -1,
          574, 561, 569, -1,
          574, 565, 561, -1,
          575, 562, 570, -1,
          575, 566, 562, -1,
          576, 563, 571, -1,
          576, 567, 563, -1,
          577, 568, 564, -1,
          577, 564, 572, -1,
          578, 569, 515, -1,
          578, 515, 514, -1,
          579, 570, 565, -1,
          579, 565, 574, -1,
          580, 566, 575, -1,
          580, 571, 566, -1,
          581, 567, 576, -1,
          581, 572, 567, -1,
          582, 568, 577, -1,
          582, 11, 10, -1,
          582, 10, 0, -1,
          582, 573, 568, -1,
          582, 0, 573, -1,
          583, 569, 578, -1,
          583, 574, 569, -1,
          584, 575, 570, -1,
          584, 570, 579, -1,
          585, 576, 571, -1,
          585, 571, 580, -1,
          586, 577, 572, -1,
          586, 572, 581, -1,
          587, 513, 512, -1,
          587, 514, 513, -1,
          587, 578, 514, -1,
          588, 579, 574, -1,
          588, 574, 583, -1,
          589, 575, 584, -1,
          589, 580, 575, -1,
          590, 581, 576, -1,
          590, 576, 585, -1,
          591, 582, 577, -1,
          591, 17, 11, -1,
          591, 11, 582, -1,
          591, 577, 586, -1,
          592, 578, 587, -1,
          592, 583, 578, -1,
          593, 579, 588, -1,
          593, 584, 579, -1,
          594, 580, 589, -1,
          594, 585, 580, -1,
          595, 581, 590, -1,
          595, 586, 581, -1,
          596, 511, 510, -1,
          596, 512, 511, -1,
          596, 587, 512, -1,
          597, 588, 583, -1,
          597, 583, 592, -1,
          598, 584, 593, -1,
          598, 589, 584, -1,
          599, 590, 585, -1,
          599, 585, 594, -1,
          600, 586, 595, -1,
          600, 17, 591, -1,
          600, 591, 586, -1,
          600, 23, 22, -1,
          600, 22, 17, -1,
          601, 587, 596, -1,
          601, 592, 587, -1,
          602, 588, 597, -1,
          602, 593, 588, -1,
          603, 589, 598, -1,
          603, 594, 589, -1,
          604, 590, 599, -1,
          604, 595, 590, -1,
          605, 596, 510, -1,
          605, 509, 508, -1,
          605, 510, 509, -1,
          606, 597, 592, -1,
          606, 592, 601, -1,
          607, 598, 593, -1,
          607, 593, 602, -1,
          608, 599, 594, -1,
          608, 594, 603, -1,
          609, 31, 23, -1,
          609, 600, 595, -1,
          609, 23, 600, -1,
          609, 595, 604, -1,
          610, 596, 605, -1,
          610, 601, 596, -1,
          611, 597, 606, -1,
          611, 602, 597, -1,
          612, 598, 607, -1,
          612, 603, 598, -1,
          613, 604, 599, -1,
          613, 599, 608, -1,
          614, 507, 506, -1,
          614, 508, 507, -1,
          614, 605, 508, -1,
          615, 606, 601, -1,
          615, 601, 610, -1,
          616, 607, 602, -1,
          616, 602, 611, -1,
          617, 608, 603, -1,
          617, 603, 612, -1,
          618, 37, 36, -1,
          618, 36, 31, -1,
          618, 31, 609, -1,
          618, 609, 604, -1,
          618, 604, 613, -1,
          619, 610, 605, -1,
          619, 605, 614, -1,
          620, 606, 615, -1,
          620, 611, 606, -1,
          621, 607, 616, -1,
          621, 612, 607, -1,
          622, 613, 608, -1,
          622, 608, 617, -1,
          623, 615, 610, -1,
          623, 610, 619, -1,
          624, 616, 611, -1,
          624, 611, 620, -1,
          625, 612, 621, -1,
          625, 617, 612, -1,
          626, 613, 622, -1,
          626, 46, 37, -1,
          626, 37, 618, -1,
          626, 618, 613, -1,
          627, 505, 504, -1,
          627, 506, 505, -1,
          627, 614, 506, -1,
          627, 619, 614, -1,
          628, 620, 615, -1,
          628, 615, 623, -1,
          629, 621, 616, -1,
          629, 616, 624, -1,
          630, 617, 625, -1,
          630, 622, 617, -1,
          631, 619, 627, -1,
          631, 623, 619, -1,
          632, 620, 628, -1,
          632, 624, 620, -1,
          633, 625, 621, -1,
          633, 621, 629, -1,
          634, 46, 626, -1,
          634, 56, 55, -1,
          634, 55, 46, -1,
          634, 622, 630, -1,
          634, 626, 622, -1,
          635, 503, 502, -1,
          635, 504, 503, -1,
          635, 627, 504, -1,
          636, 628, 623, -1,
          636, 623, 631, -1,
          637, 624, 632, -1,
          637, 629, 624, -1,
          638, 630, 625, -1,
          638, 625, 633, -1,
          639, 631, 627, -1,
          639, 627, 635, -1,
          640, 632, 628, -1,
          640, 628, 636, -1,
          641, 633, 629, -1,
          641, 629, 637, -1,
          642, 630, 638, -1,
          642, 64, 56, -1,
          642, 634, 630, -1,
          642, 56, 634, -1,
          643, 631, 639, -1,
          643, 636, 631, -1,
          644, 637, 632, -1,
          644, 632, 640, -1,
          645, 638, 633, -1,
          645, 633, 641, -1,
          646, 635, 502, -1,
          646, 500, 499, -1,
          646, 501, 500, -1,
          646, 502, 501, -1,
          646, 639, 635, -1,
          647, 636, 643, -1,
          647, 640, 636, -1,
          648, 641, 637, -1,
          648, 637, 644, -1,
          649, 72, 71, -1,
          649, 71, 64, -1,
          649, 642, 638, -1,
          649, 64, 642, -1,
          649, 638, 645, -1,
          650, 643, 639, -1,
          650, 639, 646, -1,
          651, 644, 640, -1,
          651, 640, 647, -1,
          652, 645, 641, -1,
          652, 641, 648, -1,
          653, 647, 643, -1,
          653, 643, 650, -1,
          654, 648, 644, -1,
          654, 644, 651, -1,
          655, 83, 72, -1,
          655, 645, 652, -1,
          655, 72, 649, -1,
          655, 649, 645, -1,
          656, 499, 498, -1,
          656, 646, 499, -1,
          656, 650, 646, -1,
          657, 651, 647, -1,
          657, 647, 653, -1,
          658, 648, 654, -1,
          658, 652, 648, -1,
          659, 650, 656, -1,
          659, 653, 650, -1,
          660, 651, 657, -1,
          660, 654, 651, -1,
          661, 655, 652, -1,
          661, 94, 83, -1,
          661, 95, 94, -1,
          661, 652, 658, -1,
          661, 83, 655, -1,
          662, 497, 496, -1,
          662, 498, 497, -1,
          662, 656, 498, -1,
          663, 657, 653, -1,
          663, 653, 659, -1,
          664, 658, 654, -1,
          664, 654, 660, -1,
          665, 662, 496, -1,
          665, 656, 662, -1,
          665, 659, 656, -1,
          666, 660, 657, -1,
          666, 657, 663, -1,
          667, 106, 95, -1,
          667, 658, 664, -1,
          667, 95, 661, -1,
          667, 661, 658, -1,
          668, 663, 659, -1,
          668, 659, 665, -1,
          669, 664, 660, -1,
          669, 660, 666, -1,
          670, 665, 496, -1,
          670, 494, 493, -1,
          670, 495, 494, -1,
          670, 496, 495, -1,
          671, 666, 663, -1,
          671, 663, 668, -1,
          672, 115, 106, -1,
          672, 116, 115, -1,
          672, 106, 667, -1,
          672, 667, 664, -1,
          672, 664, 669, -1,
          673, 665, 670, -1,
          673, 668, 665, -1,
          673, 670, 493, -1,
          674, 669, 666, -1,
          674, 666, 671, -1,
          675, 671, 668, -1,
          675, 668, 673, -1,
          676, 128, 116, -1,
          676, 116, 672, -1,
          676, 672, 669, -1,
          676, 669, 674, -1,
          677, 492, 491, -1,
          677, 493, 492, -1,
          677, 673, 493, -1,
          678, 674, 671, -1,
          678, 671, 675, -1,
          679, 491, 490, -1,
          679, 677, 491, -1,
          679, 675, 673, -1,
          679, 673, 677, -1,
          680, 140, 128, -1,
          680, 141, 140, -1,
          680, 128, 676, -1,
          680, 676, 674, -1,
          680, 674, 678, -1,
          681, 678, 675, -1,
          681, 675, 679, -1,
          682, 490, 489, -1,
          682, 679, 490, -1,
          683, 153, 141, -1,
          683, 141, 680, -1,
          683, 680, 678, -1,
          683, 678, 681, -1,
          684, 487, 486, -1,
          684, 488, 487, -1,
          684, 489, 488, -1,
          684, 681, 679, -1,
          684, 682, 489, -1,
          684, 679, 682, -1,
          685, 165, 153, -1,
          685, 4, 165, -1,
          685, 153, 683, -1,
          685, 683, 681, -1,
          685, 681, 684, -1,
          686, 485, 484, -1,
          686, 486, 485, -1,
          686, 4, 685, -1,
          686, 684, 486, -1,
          686, 484, 4, -1,
          686, 685, 684, -1
        ]
      }
    }
}
