#VRML V2.0 utf8
WorldInfo {
  title "Exported triangle mesh to VRML97"
  info ["Created by FreeCAD"
        "<https://www.freecad.org>"]
}

Transform {
  scale 1 1 1
  rotation 0 0 1 0
  scaleOrientation 0 0 1 0
  center 0.000 0.000 0.000
  translation 0.000 0.000 0.000
  children
    Shape { 
      appearance
      Appearance {
        material
        Material {
          diffuseColor 0.8 0.8 0.8
        }
      }
      geometry
      IndexedFaceSet {
        coord
        Coordinate {
          point [
            6.342 0.312 -0.200,
            6.350 0.000 -1.990,
            6.342 0.317 -1.990,
            6.350 0.000 -0.200,
            6.319 0.622 -0.200,
            6.318 0.632 -1.990,
            6.281 0.932 -0.200,
            6.279 0.946 -1.990,
            6.228 1.239 -0.200,
            6.224 1.258 -1.990,
            6.160 1.543 -0.200,
            6.154 1.567 -1.990,
            6.077 1.843 -0.200,
            6.068 1.872 -1.990,
            5.979 2.139 -0.200,
            5.967 2.172 -1.990,
            5.867 2.430 -0.200,
            5.851 2.467 -1.990,
            5.740 2.715 -0.200,
            5.721 2.755 -1.990,
            5.600 2.993 -0.200,
            5.577 3.037 -1.990,
            5.447 3.265 -0.200,
            5.418 3.311 -1.990,
            5.280 3.528 -0.200,
            5.247 3.577 -1.990,
            5.100 3.783 -0.200,
            5.062 3.834 -1.990,
            4.909 4.028 -0.200,
            4.864 4.082 -1.990,
            4.705 4.264 -0.200,
            4.655 4.319 -1.990,
            4.490 4.490 -0.200,
            4.434 4.546 -1.990,
            4.264 4.705 -0.200,
            4.202 4.761 -1.990,
            4.028 4.909 -0.200,
            3.959 4.965 -1.990,
            3.783 5.100 -0.200,
            3.707 5.156 -1.990,
            3.528 5.280 -0.200,
            3.445 5.334 -1.990,
            3.265 5.447 -0.200,
            3.175 5.499 -1.990,
            2.993 5.600 -0.200,
            2.897 5.651 -1.990,
            2.715 5.740 -0.200,
            2.612 5.788 -1.990,
            2.430 5.867 -0.200,
            2.320 5.911 -1.990,
            2.139 5.979 -0.200,
            2.022 6.019 -1.990,
            1.843 6.077 -0.200,
            1.720 6.113 -1.990,
            1.543 6.160 -0.200,
            1.413 6.191 -1.990,
            1.239 6.228 -0.200,
            1.103 6.254 -1.990,
            0.932 6.281 -0.200,
            0.790 6.301 -1.990,
            0.622 6.319 -0.200,
            0.475 6.332 -1.990,
            0.312 6.342 -0.200,
            0.158 6.348 -1.990,
            0.000 6.350 -0.200,
            -0.158 6.348 -1.990,
            -0.312 6.342 -0.200,
            -0.475 6.332 -1.990,
            -0.622 6.319 -0.200,
            -0.790 6.301 -1.990,
            -0.932 6.281 -0.200,
            -1.103 6.254 -1.990,
            -1.239 6.228 -0.200,
            -1.413 6.191 -1.990,
            -1.543 6.160 -0.200,
            -1.720 6.113 -1.990,
            -1.843 6.077 -0.200,
            -2.022 6.019 -1.990,
            -2.139 5.979 -0.200,
            -2.320 5.911 -1.990,
            -2.430 5.867 -0.200,
            -2.612 5.788 -1.990,
            -2.715 5.740 -0.200,
            -2.897 5.651 -1.990,
            -2.993 5.600 -0.200,
            -3.175 5.499 -1.990,
            -3.265 5.447 -0.200,
            -3.445 5.334 -1.990,
            -3.528 5.280 -0.200,
            -3.707 5.156 -1.990,
            -3.783 5.100 -0.200,
            -3.959 4.965 -1.990,
            -4.028 4.909 -0.200,
            -4.202 4.761 -1.990,
            -4.264 4.705 -0.200,
            -4.434 4.546 -1.990,
            -4.490 4.490 -0.200,
            -4.655 4.319 -1.990,
            -4.705 4.264 -0.200,
            -4.864 4.082 -1.990,
            -4.909 4.028 -0.200,
            -5.062 3.834 -1.990,
            -5.100 3.783 -0.200,
            -5.247 3.577 -1.990,
            -5.280 3.528 -0.200,
            -5.418 3.311 -1.990,
            -5.447 3.265 -0.200,
            -5.577 3.037 -1.990,
            -5.600 2.993 -0.200,
            -5.721 2.755 -1.990,
            -5.740 2.715 -0.200,
            -5.851 2.467 -1.990,
            -5.867 2.430 -0.200,
            -5.967 2.172 -1.990,
            -5.979 2.139 -0.200,
            -6.068 1.872 -1.990,
            -6.077 1.843 -0.200,
            -6.154 1.567 -1.990,
            -6.160 1.543 -0.200,
            -6.224 1.258 -1.990,
            -6.228 1.239 -0.200,
            -6.279 0.946 -1.990,
            -6.281 0.932 -0.200,
            -6.318 0.632 -1.990,
            -6.319 0.622 -0.200,
            -6.342 0.317 -1.990,
            -6.342 0.312 -0.200,
            -6.350 0.000 -1.990,
            -6.350 0.000 -0.200,
            -0.000 -5.958 0.092,
            -0.312 -6.342 -0.200,
            -0.000 -6.350 -0.200,
            0.000 5.958 0.092,
            -0.684 -6.049 -0.002,
            -1.239 -6.228 -0.200,
            -0.932 -6.281 -0.200,
            -0.622 -6.319 -0.200,
            -0.684 -5.454 0.401,
            -0.000 -5.553 0.365,
            -0.000 -5.135 0.619,
            -1.364 -5.717 0.148,
            -1.843 -6.077 -0.200,
            -1.543 -6.160 -0.200,
            -0.684 -4.832 0.760,
            -0.000 -4.706 0.852,
            -2.039 -5.943 -0.148,
            -2.430 -5.867 -0.200,
            -2.139 -5.979 -0.200,
            -1.364 -5.112 0.527,
            -0.684 -4.186 1.076,
            -0.000 -4.266 1.065,
            -0.000 -3.817 1.257,
            -2.039 -5.358 0.247,
            -1.364 -4.482 0.863,
            -2.705 -5.565 -0.076,
            -2.993 -5.600 -0.200,
            -2.715 -5.740 -0.200,
            -0.684 -3.520 1.346,
            -0.000 -3.359 1.427,
            -2.039 -4.747 0.601,
            -1.364 -3.830 1.153,
            -2.705 -4.977 0.293,
            -0.684 -2.837 1.568,
            -0.000 -2.893 1.575,
            -0.000 -2.421 1.701,
            -2.039 -4.113 0.911,
            -3.359 -5.167 -0.057,
            -3.783 -5.100 -0.200,
            -3.528 -5.280 -0.200,
            -3.265 -5.447 -0.200,
            -1.364 -3.160 1.398,
            -2.705 -4.363 0.619,
            -0.684 -2.140 1.742,
            -0.000 -1.943 1.805,
            -2.039 -3.458 1.175,
            -3.359 -4.578 0.284,
            -1.364 -2.474 1.595,
            -2.705 -3.729 0.903,
            -3.998 -4.753 -0.093,
            -4.264 -4.705 -0.200,
            -4.028 -4.909 -0.200,
            -0.684 -1.433 1.867,
            -0.000 -1.461 1.886,
            -0.000 -0.976 1.944,
            -2.039 -2.787 1.394,
            -3.359 -3.966 0.583,
            -1.364 -1.776 1.744,
            -2.705 -3.076 1.141,
            -3.998 -4.168 0.219,
            -4.705 -4.264 -0.200,
            -4.490 -4.490 -0.200,
            -0.684 -0.718 1.942,
            -0.000 -0.489 1.978,
            -2.039 -2.102 1.565,
            -3.359 -3.335 0.838,
            -1.364 -1.069 1.843,
            -2.705 -2.408 1.332,
            -3.998 -3.561 0.489,
            -0.684 0.000 1.967,
            0.000 0.000 1.990,
            0.000 0.489 1.978,
            -2.039 -1.407 1.688,
            -3.359 -2.688 1.049,
            -4.619 -3.750 0.098,
            -5.100 -3.783 -0.200,
            -4.909 -4.028 -0.200,
            -1.364 -0.357 1.893,
            -2.705 -1.729 1.477,
            -3.998 -2.938 0.717,
            -0.684 0.718 1.942,
            0.000 0.976 1.944,
            -2.039 -0.705 1.761,
            -3.359 -2.028 1.214,
            -4.619 -3.154 0.339,
            -1.364 0.357 1.893,
            -2.705 -1.041 1.574,
            -3.998 -2.300 0.900,
            -5.220 -3.331 -0.079,
            -5.600 -2.993 -0.200,
            -5.447 -3.265 -0.200,
            -5.280 -3.528 -0.200,
            -0.684 1.433 1.867,
            0.000 1.461 1.886,
            0.000 1.943 1.805,
            -2.039 0.000 1.786,
            -3.359 -1.357 1.332,
            -4.619 -2.542 0.539,
            -1.364 1.069 1.843,
            -2.705 -0.347 1.622,
            -3.998 -1.651 1.038,
            -5.220 -2.748 0.133,
            -5.740 -2.715 -0.200,
            -0.684 2.140 1.742,
            0.000 2.421 1.701,
            -2.039 0.705 1.761,
            -3.359 -0.680 1.403,
            -4.619 -1.917 0.695,
            -1.364 1.776 1.744,
            -2.705 0.347 1.622,
            -3.998 -0.994 1.130,
            -5.220 -2.152 0.305,
            -0.684 2.837 1.568,
            0.000 2.893 1.575,
            0.000 3.359 1.427,
            -2.039 1.407 1.688,
            -3.359 0.000 1.427,
            -4.619 -1.283 0.806,
            -5.798 -2.350 -0.128,
            -5.979 -2.139 -0.200,
            -5.867 -2.430 -0.200,
            -1.364 2.474 1.595,
            -2.705 1.041 1.574,
            -3.998 -0.332 1.177,
            -5.220 -1.544 0.434,
            -0.684 3.520 1.346,
            0.000 3.817 1.257,
            -2.039 2.102 1.565,
            -3.359 0.680 1.403,
            -4.619 -0.643 0.874,
            -5.798 -1.773 0.017,
            -6.160 -1.543 -0.200,
            -6.077 -1.843 -0.200,
            -1.364 3.160 1.398,
            -2.705 1.729 1.477,
            -3.998 0.332 1.177,
            -5.220 -0.930 0.521,
            -0.684 4.186 1.076,
            0.000 4.266 1.065,
            0.000 4.706 0.852,
            -2.039 2.787 1.394,
            -3.359 1.357 1.332,
            -4.619 0.000 0.896,
            -5.798 -1.187 0.120,
            -6.281 -0.932 -0.200,
            -6.228 -1.239 -0.200,
            -1.364 3.830 1.153,
            -2.705 2.408 1.332,
            -3.998 0.994 1.130,
            -5.220 -0.310 0.564,
            -0.684 4.832 0.760,
            0.000 5.135 0.619,
            -2.039 3.458 1.175,
            -3.359 2.028 1.214,
            -4.619 0.643 0.874,
            -5.798 -0.595 0.183,
            -6.342 -0.312 -0.200,
            -6.319 -0.622 -0.200,
            -1.364 4.482 0.863,
            -2.705 3.076 1.141,
            -3.998 1.651 1.038,
            -5.220 0.310 0.564,
            -0.684 5.454 0.401,
            0.000 5.553 0.365,
            -2.039 4.113 0.911,
            -3.359 2.688 1.049,
            -4.619 1.283 0.806,
            -5.798 0.000 0.203,
            -1.364 5.112 0.527,
            -2.705 3.729 0.903,
            -3.998 2.300 0.900,
            -5.220 0.930 0.521,
            -0.684 6.049 -0.002,
            -2.039 4.747 0.601,
            -3.359 3.335 0.838,
            -4.619 1.917 0.695,
            -5.798 0.595 0.183,
            -1.364 5.717 0.148,
            -2.705 4.363 0.619,
            -3.998 2.938 0.717,
            -5.220 1.544 0.434,
            -2.039 5.358 0.247,
            -3.359 3.966 0.583,
            -4.619 2.542 0.539,
            -5.798 1.187 0.120,
            -2.705 4.977 0.293,
            -3.998 3.561 0.489,
            -5.220 2.152 0.305,
            -2.039 5.943 -0.148,
            -3.359 4.578 0.284,
            -4.619 3.154 0.339,
            -5.798 1.773 0.017,
            -2.705 5.565 -0.076,
            -3.998 4.168 0.219,
            -5.220 2.748 0.133,
            -3.359 5.167 -0.057,
            -4.619 3.750 0.098,
            -5.798 2.350 -0.128,
            -3.998 4.753 -0.093,
            -5.220 3.331 -0.079,
            0.312 -6.342 -0.200,
            5.220 -3.331 -0.079,
            5.100 -3.783 -0.200,
            5.280 -3.528 -0.200,
            5.447 -3.265 -0.200,
            5.600 -2.993 -0.200,
            3.998 -4.753 -0.093,
            3.783 -5.100 -0.200,
            4.028 -4.909 -0.200,
            4.264 -4.705 -0.200,
            5.798 -2.350 -0.128,
            5.740 -2.715 -0.200,
            5.867 -2.430 -0.200,
            5.979 -2.139 -0.200,
            4.619 -3.750 0.098,
            4.705 -4.264 -0.200,
            4.909 -4.028 -0.200,
            3.359 -5.167 -0.057,
            2.993 -5.600 -0.200,
            3.265 -5.447 -0.200,
            3.528 -5.280 -0.200,
            5.220 -2.748 0.133,
            3.998 -4.168 0.219,
            4.490 -4.490 -0.200,
            2.705 -5.565 -0.076,
            2.430 -5.867 -0.200,
            2.715 -5.740 -0.200,
            5.798 -1.773 0.017,
            6.077 -1.843 -0.200,
            6.160 -1.543 -0.200,
            4.619 -3.154 0.339,
            3.359 -4.578 0.284,
            2.039 -5.943 -0.148,
            1.843 -6.077 -0.200,
            2.139 -5.979 -0.200,
            5.220 -2.152 0.305,
            3.998 -3.561 0.489,
            2.705 -4.977 0.293,
            5.798 -1.187 0.120,
            6.228 -1.239 -0.200,
            6.281 -0.932 -0.200,
            4.619 -2.542 0.539,
            3.359 -3.966 0.583,
            2.039 -5.358 0.247,
            5.220 -1.544 0.434,
            3.998 -2.938 0.717,
            2.705 -4.363 0.619,
            1.364 -5.717 0.148,
            1.239 -6.228 -0.200,
            1.543 -6.160 -0.200,
            5.798 -0.595 0.183,
            6.319 -0.622 -0.200,
            6.342 -0.312 -0.200,
            4.619 -1.917 0.695,
            3.359 -3.335 0.838,
            2.039 -4.747 0.601,
            0.684 -6.049 -0.002,
            0.622 -6.319 -0.200,
            0.932 -6.281 -0.200,
            5.220 -0.930 0.521,
            3.998 -2.300 0.900,
            2.705 -3.729 0.903,
            1.364 -5.112 0.527,
            5.798 0.000 0.203,
            4.619 -1.283 0.806,
            3.359 -2.688 1.049,
            2.039 -4.113 0.911,
            0.684 -5.454 0.401,
            5.220 -0.310 0.564,
            3.998 -1.651 1.038,
            2.705 -3.076 1.141,
            1.364 -4.482 0.863,
            5.798 0.595 0.183,
            4.619 -0.643 0.874,
            3.359 -2.028 1.214,
            2.039 -3.458 1.175,
            0.684 -4.832 0.760,
            5.220 0.310 0.564,
            3.998 -0.994 1.130,
            2.705 -2.408 1.332,
            1.364 -3.830 1.153,
            5.798 1.187 0.120,
            4.619 0.000 0.896,
            3.359 -1.357 1.332,
            2.039 -2.787 1.394,
            0.684 -4.186 1.076,
            5.220 0.930 0.521,
            3.998 -0.332 1.177,
            2.705 -1.729 1.477,
            1.364 -3.160 1.398,
            5.798 1.773 0.017,
            4.619 0.643 0.874,
            3.359 -0.680 1.403,
            2.039 -2.102 1.565,
            0.684 -3.520 1.346,
            5.220 1.544 0.434,
            3.998 0.332 1.177,
            2.705 -1.041 1.574,
            1.364 -2.474 1.595,
            5.798 2.350 -0.128,
            4.619 1.283 0.806,
            3.359 0.000 1.427,
            2.039 -1.407 1.688,
            0.684 -2.837 1.568,
            5.220 2.152 0.305,
            3.998 0.994 1.130,
            2.705 -0.347 1.622,
            1.364 -1.776 1.744,
            4.619 1.917 0.695,
            3.359 0.680 1.403,
            2.039 -0.705 1.761,
            0.684 -2.140 1.742,
            5.220 2.748 0.133,
            3.998 1.651 1.038,
            2.705 0.347 1.622,
            1.364 -1.069 1.843,
            4.619 2.542 0.539,
            3.359 1.357 1.332,
            2.039 0.000 1.786,
            0.684 -1.433 1.867,
            5.220 3.331 -0.079,
            3.998 2.300 0.900,
            2.705 1.041 1.574,
            1.364 -0.357 1.893,
            4.619 3.154 0.339,
            3.359 2.028 1.214,
            2.039 0.705 1.761,
            0.684 -0.718 1.942,
            3.998 2.938 0.717,
            2.705 1.729 1.477,
            1.364 0.357 1.893,
            4.619 3.750 0.098,
            3.359 2.688 1.049,
            2.039 1.407 1.688,
            0.684 0.000 1.967,
            3.998 3.561 0.489,
            2.705 2.408 1.332,
            1.364 1.069 1.843,
            3.359 3.335 0.838,
            2.039 2.102 1.565,
            0.684 0.718 1.942,
            3.998 4.168 0.219,
            2.705 3.076 1.141,
            1.364 1.776 1.744,
            3.359 3.966 0.583,
            2.039 2.787 1.394,
            0.684 1.433 1.867,
            3.998 4.753 -0.093,
            2.705 3.729 0.903,
            1.364 2.474 1.595,
            3.359 4.578 0.284,
            2.039 3.458 1.175,
            0.684 2.140 1.742,
            2.705 4.363 0.619,
            1.364 3.160 1.398,
            3.359 5.167 -0.057,
            2.039 4.113 0.911,
            0.684 2.837 1.568,
            2.705 4.977 0.293,
            1.364 3.830 1.153,
            2.039 4.747 0.601,
            0.684 3.520 1.346,
            2.705 5.565 -0.076,
            1.364 4.482 0.863,
            2.039 5.358 0.247,
            0.684 4.186 1.076,
            1.364 5.112 0.527,
            2.039 5.943 -0.148,
            0.684 4.832 0.760,
            1.364 5.717 0.148,
            0.684 5.454 0.401,
            0.684 6.049 -0.002,
            -6.342 -0.317 -1.990,
            -6.318 -0.632 -1.990,
            -6.279 -0.946 -1.990,
            -6.224 -1.258 -1.990,
            -6.154 -1.567 -1.990,
            -6.068 -1.872 -1.990,
            -5.967 -2.172 -1.990,
            -5.851 -2.467 -1.990,
            -5.721 -2.755 -1.990,
            -5.577 -3.037 -1.990,
            -5.418 -3.311 -1.990,
            -5.247 -3.577 -1.990,
            -5.062 -3.834 -1.990,
            -4.864 -4.082 -1.990,
            -4.655 -4.319 -1.990,
            -4.434 -4.546 -1.990,
            -4.202 -4.761 -1.990,
            -3.959 -4.965 -1.990,
            -3.707 -5.156 -1.990,
            -3.445 -5.334 -1.990,
            -3.175 -5.499 -1.990,
            -2.897 -5.651 -1.990,
            -2.612 -5.788 -1.990,
            -2.320 -5.911 -1.990,
            -2.022 -6.019 -1.990,
            -1.720 -6.113 -1.990,
            -1.413 -6.191 -1.990,
            -1.103 -6.254 -1.990,
            -0.790 -6.301 -1.990,
            -0.475 -6.332 -1.990,
            -0.158 -6.348 -1.990,
            0.158 -6.348 -1.990,
            0.475 -6.332 -1.990,
            0.790 -6.301 -1.990,
            1.103 -6.254 -1.990,
            1.413 -6.191 -1.990,
            1.720 -6.113 -1.990,
            2.022 -6.019 -1.990,
            2.320 -5.911 -1.990,
            2.612 -5.788 -1.990,
            2.897 -5.651 -1.990,
            3.175 -5.499 -1.990,
            3.445 -5.334 -1.990,
            3.707 -5.156 -1.990,
            3.959 -4.965 -1.990,
            4.202 -4.761 -1.990,
            4.434 -4.546 -1.990,
            4.655 -4.319 -1.990,
            4.864 -4.082 -1.990,
            5.062 -3.834 -1.990,
            5.247 -3.577 -1.990,
            5.418 -3.311 -1.990,
            5.577 -3.037 -1.990,
            5.721 -2.755 -1.990,
            5.851 -2.467 -1.990,
            5.967 -2.172 -1.990,
            6.068 -1.872 -1.990,
            6.154 -1.567 -1.990,
            6.224 -1.258 -1.990,
            6.279 -0.946 -1.990,
            6.318 -0.632 -1.990,
            6.342 -0.317 -1.990
          ]
        }
        coordIndex [
          0, 1, 2, -1,
          0, 3, 1, -1,
          4, 2, 5, -1,
          4, 0, 2, -1,
          6, 5, 7, -1,
          6, 4, 5, -1,
          8, 7, 9, -1,
          8, 6, 7, -1,
          10, 9, 11, -1,
          10, 8, 9, -1,
          12, 11, 13, -1,
          12, 10, 11, -1,
          14, 13, 15, -1,
          14, 12, 13, -1,
          16, 15, 17, -1,
          16, 14, 15, -1,
          18, 17, 19, -1,
          18, 16, 17, -1,
          20, 19, 21, -1,
          20, 18, 19, -1,
          22, 21, 23, -1,
          22, 20, 21, -1,
          24, 23, 25, -1,
          24, 22, 23, -1,
          26, 25, 27, -1,
          26, 24, 25, -1,
          28, 27, 29, -1,
          28, 26, 27, -1,
          30, 29, 31, -1,
          30, 28, 29, -1,
          32, 31, 33, -1,
          32, 30, 31, -1,
          34, 33, 35, -1,
          34, 32, 33, -1,
          36, 34, 35, -1,
          36, 35, 37, -1,
          38, 36, 37, -1,
          38, 37, 39, -1,
          40, 38, 39, -1,
          40, 39, 41, -1,
          42, 40, 41, -1,
          42, 41, 43, -1,
          44, 42, 43, -1,
          44, 43, 45, -1,
          46, 45, 47, -1,
          46, 44, 45, -1,
          48, 47, 49, -1,
          48, 46, 47, -1,
          50, 49, 51, -1,
          50, 48, 49, -1,
          52, 51, 53, -1,
          52, 50, 51, -1,
          54, 53, 55, -1,
          54, 52, 53, -1,
          56, 55, 57, -1,
          56, 54, 55, -1,
          58, 57, 59, -1,
          58, 56, 57, -1,
          60, 59, 61, -1,
          60, 58, 59, -1,
          62, 61, 63, -1,
          62, 60, 61, -1,
          64, 63, 65, -1,
          64, 62, 63, -1,
          66, 65, 67, -1,
          66, 64, 65, -1,
          68, 67, 69, -1,
          68, 66, 67, -1,
          70, 69, 71, -1,
          70, 68, 69, -1,
          72, 71, 73, -1,
          72, 70, 71, -1,
          74, 73, 75, -1,
          74, 72, 73, -1,
          76, 75, 77, -1,
          76, 74, 75, -1,
          78, 77, 79, -1,
          78, 76, 77, -1,
          80, 79, 81, -1,
          80, 78, 79, -1,
          82, 81, 83, -1,
          82, 80, 81, -1,
          84, 83, 85, -1,
          84, 82, 83, -1,
          86, 84, 85, -1,
          86, 85, 87, -1,
          88, 86, 87, -1,
          88, 87, 89, -1,
          90, 88, 89, -1,
          90, 89, 91, -1,
          92, 90, 91, -1,
          92, 91, 93, -1,
          94, 92, 93, -1,
          94, 93, 95, -1,
          96, 94, 95, -1,
          96, 95, 97, -1,
          98, 96, 97, -1,
          98, 97, 99, -1,
          100, 98, 99, -1,
          100, 99, 101, -1,
          102, 100, 101, -1,
          102, 101, 103, -1,
          104, 102, 103, -1,
          104, 103, 105, -1,
          106, 104, 105, -1,
          106, 105, 107, -1,
          108, 106, 107, -1,
          108, 107, 109, -1,
          110, 108, 109, -1,
          110, 109, 111, -1,
          112, 111, 113, -1,
          112, 110, 111, -1,
          114, 113, 115, -1,
          114, 112, 113, -1,
          116, 115, 117, -1,
          116, 114, 115, -1,
          118, 117, 119, -1,
          118, 116, 117, -1,
          120, 119, 121, -1,
          120, 118, 119, -1,
          122, 121, 123, -1,
          122, 120, 121, -1,
          124, 123, 125, -1,
          124, 122, 123, -1,
          126, 125, 127, -1,
          126, 124, 125, -1,
          128, 126, 127, -1,
          129, 130, 131, -1,
          66, 132, 64, -1,
          133, 134, 135, -1,
          133, 135, 136, -1,
          133, 136, 130, -1,
          133, 130, 129, -1,
          137, 133, 129, -1,
          137, 129, 138, -1,
          137, 138, 139, -1,
          140, 134, 133, -1,
          140, 133, 137, -1,
          140, 141, 142, -1,
          140, 142, 134, -1,
          143, 137, 139, -1,
          143, 139, 144, -1,
          145, 141, 140, -1,
          145, 146, 147, -1,
          145, 147, 141, -1,
          148, 140, 137, -1,
          148, 137, 143, -1,
          149, 143, 144, -1,
          149, 144, 150, -1,
          149, 150, 151, -1,
          152, 140, 148, -1,
          152, 145, 140, -1,
          152, 146, 145, -1,
          153, 148, 143, -1,
          153, 143, 149, -1,
          154, 155, 156, -1,
          154, 156, 146, -1,
          154, 146, 152, -1,
          157, 149, 151, -1,
          157, 151, 158, -1,
          159, 148, 153, -1,
          159, 152, 148, -1,
          160, 149, 157, -1,
          160, 153, 149, -1,
          161, 154, 152, -1,
          161, 152, 159, -1,
          162, 157, 158, -1,
          162, 158, 163, -1,
          162, 163, 164, -1,
          165, 153, 160, -1,
          165, 159, 153, -1,
          166, 154, 161, -1,
          166, 167, 168, -1,
          166, 168, 169, -1,
          166, 169, 155, -1,
          166, 155, 154, -1,
          170, 160, 157, -1,
          170, 157, 162, -1,
          171, 159, 165, -1,
          171, 161, 159, -1,
          172, 164, 173, -1,
          172, 162, 164, -1,
          174, 160, 170, -1,
          174, 165, 160, -1,
          175, 167, 166, -1,
          175, 166, 161, -1,
          175, 161, 171, -1,
          176, 170, 162, -1,
          176, 162, 172, -1,
          177, 171, 165, -1,
          177, 165, 174, -1,
          178, 167, 175, -1,
          178, 179, 180, -1,
          178, 180, 167, -1,
          181, 172, 173, -1,
          181, 173, 182, -1,
          181, 182, 183, -1,
          184, 170, 176, -1,
          184, 174, 170, -1,
          185, 175, 171, -1,
          185, 171, 177, -1,
          186, 176, 172, -1,
          186, 172, 181, -1,
          187, 174, 184, -1,
          187, 177, 174, -1,
          188, 175, 185, -1,
          188, 179, 178, -1,
          188, 189, 190, -1,
          188, 190, 179, -1,
          188, 178, 175, -1,
          191, 181, 183, -1,
          191, 183, 192, -1,
          193, 184, 176, -1,
          193, 176, 186, -1,
          194, 177, 187, -1,
          194, 185, 177, -1,
          195, 186, 181, -1,
          195, 181, 191, -1,
          196, 184, 193, -1,
          196, 187, 184, -1,
          197, 185, 194, -1,
          197, 188, 185, -1,
          198, 191, 192, -1,
          198, 192, 199, -1,
          198, 199, 200, -1,
          201, 193, 186, -1,
          201, 186, 195, -1,
          202, 194, 187, -1,
          202, 187, 196, -1,
          203, 189, 188, -1,
          203, 188, 197, -1,
          203, 204, 205, -1,
          203, 205, 189, -1,
          206, 191, 198, -1,
          206, 195, 191, -1,
          207, 196, 193, -1,
          207, 193, 201, -1,
          208, 197, 194, -1,
          208, 194, 202, -1,
          209, 200, 210, -1,
          209, 198, 200, -1,
          211, 195, 206, -1,
          211, 201, 195, -1,
          212, 196, 207, -1,
          212, 202, 196, -1,
          213, 197, 208, -1,
          213, 203, 197, -1,
          214, 206, 198, -1,
          214, 198, 209, -1,
          215, 207, 201, -1,
          215, 201, 211, -1,
          216, 202, 212, -1,
          216, 208, 202, -1,
          217, 204, 203, -1,
          217, 203, 213, -1,
          217, 218, 219, -1,
          217, 219, 220, -1,
          217, 220, 204, -1,
          221, 209, 210, -1,
          221, 222, 223, -1,
          221, 210, 222, -1,
          224, 211, 206, -1,
          224, 206, 214, -1,
          225, 207, 215, -1,
          225, 212, 207, -1,
          226, 213, 208, -1,
          226, 208, 216, -1,
          227, 214, 209, -1,
          227, 209, 221, -1,
          228, 211, 224, -1,
          228, 215, 211, -1,
          229, 212, 225, -1,
          229, 216, 212, -1,
          230, 213, 226, -1,
          230, 218, 217, -1,
          230, 231, 218, -1,
          230, 217, 213, -1,
          232, 221, 223, -1,
          232, 223, 233, -1,
          234, 224, 214, -1,
          234, 214, 227, -1,
          235, 225, 215, -1,
          235, 215, 228, -1,
          236, 226, 216, -1,
          236, 216, 229, -1,
          237, 221, 232, -1,
          237, 227, 221, -1,
          238, 228, 224, -1,
          238, 224, 234, -1,
          239, 229, 225, -1,
          239, 225, 235, -1,
          240, 230, 226, -1,
          240, 226, 236, -1,
          241, 232, 233, -1,
          241, 242, 243, -1,
          241, 233, 242, -1,
          244, 234, 227, -1,
          244, 227, 237, -1,
          245, 228, 238, -1,
          245, 235, 228, -1,
          246, 236, 229, -1,
          246, 229, 239, -1,
          247, 248, 249, -1,
          247, 249, 231, -1,
          247, 231, 230, -1,
          247, 230, 240, -1,
          250, 232, 241, -1,
          250, 237, 232, -1,
          251, 234, 244, -1,
          251, 238, 234, -1,
          252, 239, 235, -1,
          252, 235, 245, -1,
          253, 236, 246, -1,
          253, 240, 236, -1,
          254, 241, 243, -1,
          254, 243, 255, -1,
          256, 244, 237, -1,
          256, 237, 250, -1,
          257, 238, 251, -1,
          257, 245, 238, -1,
          258, 239, 252, -1,
          258, 246, 239, -1,
          259, 240, 253, -1,
          259, 260, 261, -1,
          259, 261, 248, -1,
          259, 247, 240, -1,
          259, 248, 247, -1,
          262, 241, 254, -1,
          262, 250, 241, -1,
          263, 244, 256, -1,
          263, 251, 244, -1,
          264, 245, 257, -1,
          264, 252, 245, -1,
          265, 253, 246, -1,
          265, 246, 258, -1,
          266, 254, 255, -1,
          266, 267, 268, -1,
          266, 255, 267, -1,
          269, 256, 250, -1,
          269, 250, 262, -1,
          270, 251, 263, -1,
          270, 257, 251, -1,
          271, 258, 252, -1,
          271, 252, 264, -1,
          272, 260, 259, -1,
          272, 253, 265, -1,
          272, 273, 274, -1,
          272, 274, 260, -1,
          272, 259, 253, -1,
          275, 254, 266, -1,
          275, 262, 254, -1,
          276, 263, 256, -1,
          276, 256, 269, -1,
          277, 264, 257, -1,
          277, 257, 270, -1,
          278, 265, 258, -1,
          278, 258, 271, -1,
          279, 266, 268, -1,
          279, 268, 280, -1,
          281, 269, 262, -1,
          281, 262, 275, -1,
          282, 270, 263, -1,
          282, 263, 276, -1,
          283, 271, 264, -1,
          283, 264, 277, -1,
          284, 285, 286, -1,
          284, 286, 273, -1,
          284, 265, 278, -1,
          284, 273, 272, -1,
          284, 272, 265, -1,
          287, 266, 279, -1,
          287, 275, 266, -1,
          288, 276, 269, -1,
          288, 269, 281, -1,
          289, 270, 282, -1,
          289, 277, 270, -1,
          290, 271, 283, -1,
          290, 278, 271, -1,
          291, 279, 280, -1,
          291, 292, 132, -1,
          291, 280, 292, -1,
          293, 281, 275, -1,
          293, 275, 287, -1,
          294, 282, 276, -1,
          294, 276, 288, -1,
          295, 283, 277, -1,
          295, 277, 289, -1,
          296, 126, 128, -1,
          296, 128, 285, -1,
          296, 284, 278, -1,
          296, 285, 284, -1,
          296, 278, 290, -1,
          297, 279, 291, -1,
          297, 287, 279, -1,
          298, 288, 281, -1,
          298, 281, 293, -1,
          299, 289, 282, -1,
          299, 282, 294, -1,
          300, 290, 283, -1,
          300, 283, 295, -1,
          301, 132, 66, -1,
          301, 66, 68, -1,
          301, 68, 70, -1,
          301, 70, 72, -1,
          301, 291, 132, -1,
          302, 293, 287, -1,
          302, 287, 297, -1,
          303, 288, 298, -1,
          303, 294, 288, -1,
          304, 289, 299, -1,
          304, 295, 289, -1,
          305, 296, 290, -1,
          305, 122, 124, -1,
          305, 124, 126, -1,
          305, 290, 300, -1,
          305, 126, 296, -1,
          306, 72, 74, -1,
          306, 74, 76, -1,
          306, 301, 72, -1,
          306, 291, 301, -1,
          306, 297, 291, -1,
          307, 293, 302, -1,
          307, 298, 293, -1,
          308, 294, 303, -1,
          308, 299, 294, -1,
          309, 300, 295, -1,
          309, 295, 304, -1,
          310, 297, 306, -1,
          310, 302, 297, -1,
          311, 303, 298, -1,
          311, 298, 307, -1,
          312, 299, 308, -1,
          312, 304, 299, -1,
          313, 300, 309, -1,
          313, 118, 120, -1,
          313, 120, 122, -1,
          313, 305, 300, -1,
          313, 122, 305, -1,
          314, 307, 302, -1,
          314, 302, 310, -1,
          315, 308, 303, -1,
          315, 303, 311, -1,
          316, 309, 304, -1,
          316, 304, 312, -1,
          317, 76, 78, -1,
          317, 78, 80, -1,
          317, 80, 310, -1,
          317, 306, 76, -1,
          317, 310, 306, -1,
          318, 307, 314, -1,
          318, 311, 307, -1,
          319, 312, 308, -1,
          319, 308, 315, -1,
          320, 114, 116, -1,
          320, 116, 118, -1,
          320, 118, 313, -1,
          320, 309, 316, -1,
          320, 313, 309, -1,
          321, 80, 82, -1,
          321, 82, 84, -1,
          321, 310, 80, -1,
          321, 314, 310, -1,
          322, 94, 96, -1,
          322, 96, 98, -1,
          322, 315, 311, -1,
          322, 311, 318, -1,
          323, 108, 110, -1,
          323, 316, 312, -1,
          323, 312, 319, -1,
          324, 84, 86, -1,
          324, 90, 318, -1,
          324, 86, 88, -1,
          324, 88, 90, -1,
          324, 318, 314, -1,
          324, 321, 84, -1,
          324, 314, 321, -1,
          325, 98, 100, -1,
          325, 100, 102, -1,
          325, 322, 98, -1,
          325, 319, 315, -1,
          325, 315, 322, -1,
          326, 110, 112, -1,
          326, 112, 114, -1,
          326, 114, 320, -1,
          326, 320, 316, -1,
          326, 323, 110, -1,
          326, 316, 323, -1,
          327, 318, 90, -1,
          327, 90, 92, -1,
          327, 92, 94, -1,
          327, 94, 322, -1,
          327, 322, 318, -1,
          328, 102, 104, -1,
          328, 104, 106, -1,
          328, 106, 108, -1,
          328, 325, 102, -1,
          328, 108, 323, -1,
          328, 323, 319, -1,
          328, 319, 325, -1,
          129, 131, 329, -1,
          64, 132, 62, -1,
          330, 331, 332, -1,
          330, 332, 333, -1,
          330, 333, 334, -1,
          335, 336, 337, -1,
          335, 337, 338, -1,
          339, 340, 341, -1,
          339, 341, 342, -1,
          343, 331, 330, -1,
          343, 344, 345, -1,
          343, 345, 331, -1,
          346, 347, 348, -1,
          346, 348, 349, -1,
          346, 349, 336, -1,
          350, 330, 334, -1,
          350, 334, 340, -1,
          350, 340, 339, -1,
          351, 335, 338, -1,
          351, 338, 352, -1,
          351, 352, 344, -1,
          351, 344, 343, -1,
          353, 347, 346, -1,
          353, 354, 355, -1,
          353, 355, 347, -1,
          356, 339, 342, -1,
          356, 342, 357, -1,
          356, 357, 358, -1,
          359, 343, 330, -1,
          359, 330, 350, -1,
          360, 346, 336, -1,
          360, 336, 335, -1,
          360, 335, 351, -1,
          361, 362, 363, -1,
          361, 363, 354, -1,
          364, 339, 356, -1,
          364, 350, 339, -1,
          365, 351, 343, -1,
          365, 343, 359, -1,
          366, 346, 360, -1,
          366, 353, 346, -1,
          367, 356, 358, -1,
          367, 358, 368, -1,
          367, 368, 369, -1,
          370, 359, 350, -1,
          370, 350, 364, -1,
          371, 351, 365, -1,
          371, 360, 351, -1,
          372, 361, 354, -1,
          372, 353, 366, -1,
          372, 354, 353, -1,
          373, 364, 356, -1,
          373, 356, 367, -1,
          374, 359, 370, -1,
          374, 365, 359, -1,
          375, 360, 371, -1,
          375, 366, 360, -1,
          376, 362, 361, -1,
          376, 377, 378, -1,
          376, 378, 362, -1,
          376, 361, 372, -1,
          379, 367, 369, -1,
          379, 369, 380, -1,
          379, 380, 381, -1,
          382, 364, 373, -1,
          382, 370, 364, -1,
          383, 365, 374, -1,
          383, 371, 365, -1,
          384, 366, 375, -1,
          384, 372, 366, -1,
          385, 329, 386, -1,
          385, 386, 387, -1,
          385, 387, 377, -1,
          385, 377, 376, -1,
          385, 129, 329, -1,
          388, 367, 379, -1,
          388, 373, 367, -1,
          389, 374, 370, -1,
          389, 370, 382, -1,
          390, 375, 371, -1,
          390, 371, 383, -1,
          391, 372, 384, -1,
          391, 376, 372, -1,
          392, 379, 381, -1,
          392, 381, 3, -1,
          392, 3, 0, -1,
          393, 373, 388, -1,
          393, 382, 373, -1,
          394, 383, 374, -1,
          394, 374, 389, -1,
          395, 375, 390, -1,
          395, 384, 375, -1,
          396, 138, 129, -1,
          396, 139, 138, -1,
          396, 385, 376, -1,
          396, 376, 391, -1,
          396, 129, 385, -1,
          397, 379, 392, -1,
          397, 388, 379, -1,
          398, 389, 382, -1,
          398, 382, 393, -1,
          399, 383, 394, -1,
          399, 390, 383, -1,
          400, 384, 395, -1,
          400, 391, 384, -1,
          401, 392, 0, -1,
          401, 0, 4, -1,
          401, 4, 6, -1,
          402, 388, 397, -1,
          402, 393, 388, -1,
          403, 389, 398, -1,
          403, 394, 389, -1,
          404, 395, 390, -1,
          404, 390, 399, -1,
          405, 391, 400, -1,
          405, 144, 139, -1,
          405, 396, 391, -1,
          405, 139, 396, -1,
          406, 392, 401, -1,
          406, 397, 392, -1,
          407, 393, 402, -1,
          407, 398, 393, -1,
          408, 394, 403, -1,
          408, 399, 394, -1,
          409, 395, 404, -1,
          409, 400, 395, -1,
          410, 401, 6, -1,
          410, 6, 8, -1,
          410, 8, 10, -1,
          411, 397, 406, -1,
          411, 402, 397, -1,
          412, 398, 407, -1,
          412, 403, 398, -1,
          413, 404, 399, -1,
          413, 399, 408, -1,
          414, 150, 144, -1,
          414, 151, 150, -1,
          414, 144, 405, -1,
          414, 400, 409, -1,
          414, 405, 400, -1,
          415, 401, 410, -1,
          415, 406, 401, -1,
          416, 407, 402, -1,
          416, 402, 411, -1,
          417, 403, 412, -1,
          417, 408, 403, -1,
          418, 404, 413, -1,
          418, 409, 404, -1,
          419, 410, 10, -1,
          419, 10, 12, -1,
          419, 12, 14, -1,
          420, 406, 415, -1,
          420, 411, 406, -1,
          421, 407, 416, -1,
          421, 412, 407, -1,
          422, 413, 408, -1,
          422, 408, 417, -1,
          423, 158, 151, -1,
          423, 414, 409, -1,
          423, 151, 414, -1,
          423, 409, 418, -1,
          424, 410, 419, -1,
          424, 415, 410, -1,
          425, 411, 420, -1,
          425, 416, 411, -1,
          426, 417, 412, -1,
          426, 412, 421, -1,
          427, 413, 422, -1,
          427, 418, 413, -1,
          428, 14, 16, -1,
          428, 16, 18, -1,
          428, 419, 14, -1,
          429, 415, 424, -1,
          429, 420, 415, -1,
          430, 421, 416, -1,
          430, 416, 425, -1,
          431, 417, 426, -1,
          431, 422, 417, -1,
          432, 163, 158, -1,
          432, 164, 163, -1,
          432, 158, 423, -1,
          432, 423, 418, -1,
          432, 418, 427, -1,
          433, 424, 419, -1,
          433, 419, 428, -1,
          434, 425, 420, -1,
          434, 420, 429, -1,
          435, 426, 421, -1,
          435, 421, 430, -1,
          436, 427, 422, -1,
          436, 422, 431, -1,
          437, 424, 433, -1,
          437, 429, 424, -1,
          438, 425, 434, -1,
          438, 430, 425, -1,
          439, 431, 426, -1,
          439, 426, 435, -1,
          440, 427, 436, -1,
          440, 173, 164, -1,
          440, 164, 432, -1,
          440, 432, 427, -1,
          441, 433, 428, -1,
          441, 18, 20, -1,
          441, 428, 18, -1,
          442, 429, 437, -1,
          442, 434, 429, -1,
          443, 430, 438, -1,
          443, 435, 430, -1,
          444, 436, 431, -1,
          444, 431, 439, -1,
          445, 433, 441, -1,
          445, 437, 433, -1,
          446, 434, 442, -1,
          446, 438, 434, -1,
          447, 435, 443, -1,
          447, 439, 435, -1,
          448, 182, 173, -1,
          448, 183, 182, -1,
          448, 173, 440, -1,
          448, 436, 444, -1,
          448, 440, 436, -1,
          449, 441, 20, -1,
          449, 20, 22, -1,
          449, 22, 24, -1,
          449, 24, 26, -1,
          450, 437, 445, -1,
          450, 442, 437, -1,
          451, 438, 446, -1,
          451, 443, 438, -1,
          452, 439, 447, -1,
          452, 444, 439, -1,
          453, 441, 449, -1,
          453, 445, 441, -1,
          454, 446, 442, -1,
          454, 442, 450, -1,
          455, 443, 451, -1,
          455, 447, 443, -1,
          456, 192, 183, -1,
          456, 448, 444, -1,
          456, 444, 452, -1,
          456, 183, 448, -1,
          457, 450, 445, -1,
          457, 445, 453, -1,
          458, 446, 454, -1,
          458, 451, 446, -1,
          459, 447, 455, -1,
          459, 452, 447, -1,
          460, 449, 26, -1,
          460, 453, 449, -1,
          460, 26, 28, -1,
          460, 28, 30, -1,
          461, 450, 457, -1,
          461, 454, 450, -1,
          462, 455, 451, -1,
          462, 451, 458, -1,
          463, 199, 192, -1,
          463, 192, 456, -1,
          463, 456, 452, -1,
          463, 452, 459, -1,
          463, 200, 199, -1,
          464, 453, 460, -1,
          464, 457, 453, -1,
          465, 458, 454, -1,
          465, 454, 461, -1,
          466, 459, 455, -1,
          466, 455, 462, -1,
          467, 457, 464, -1,
          467, 461, 457, -1,
          468, 462, 458, -1,
          468, 458, 465, -1,
          469, 459, 466, -1,
          469, 463, 459, -1,
          469, 200, 463, -1,
          469, 210, 200, -1,
          470, 30, 32, -1,
          470, 32, 34, -1,
          470, 464, 460, -1,
          470, 460, 30, -1,
          471, 461, 467, -1,
          471, 465, 461, -1,
          472, 466, 462, -1,
          472, 462, 468, -1,
          473, 464, 470, -1,
          473, 467, 464, -1,
          474, 465, 471, -1,
          474, 468, 465, -1,
          475, 210, 469, -1,
          475, 469, 466, -1,
          475, 223, 222, -1,
          475, 222, 210, -1,
          475, 466, 472, -1,
          476, 34, 36, -1,
          476, 36, 38, -1,
          476, 470, 34, -1,
          477, 467, 473, -1,
          477, 471, 467, -1,
          478, 472, 468, -1,
          478, 468, 474, -1,
          479, 470, 476, -1,
          479, 473, 470, -1,
          479, 476, 38, -1,
          480, 474, 471, -1,
          480, 471, 477, -1,
          481, 223, 475, -1,
          481, 233, 223, -1,
          481, 472, 478, -1,
          481, 475, 472, -1,
          482, 477, 473, -1,
          482, 473, 479, -1,
          483, 474, 480, -1,
          483, 478, 474, -1,
          484, 479, 38, -1,
          484, 38, 40, -1,
          484, 40, 42, -1,
          484, 42, 44, -1,
          485, 477, 482, -1,
          485, 480, 477, -1,
          486, 481, 478, -1,
          486, 478, 483, -1,
          486, 233, 481, -1,
          486, 243, 242, -1,
          486, 242, 233, -1,
          487, 479, 484, -1,
          487, 482, 479, -1,
          488, 483, 480, -1,
          488, 480, 485, -1,
          489, 485, 482, -1,
          489, 482, 487, -1,
          490, 486, 483, -1,
          490, 483, 488, -1,
          490, 243, 486, -1,
          490, 255, 243, -1,
          491, 484, 44, -1,
          491, 487, 484, -1,
          491, 44, 46, -1,
          491, 46, 48, -1,
          492, 488, 485, -1,
          492, 485, 489, -1,
          493, 489, 487, -1,
          493, 487, 491, -1,
          493, 491, 48, -1,
          494, 488, 492, -1,
          494, 490, 488, -1,
          494, 255, 490, -1,
          494, 268, 267, -1,
          494, 267, 255, -1,
          495, 492, 489, -1,
          495, 489, 493, -1,
          496, 493, 48, -1,
          496, 48, 50, -1,
          496, 50, 52, -1,
          497, 492, 495, -1,
          497, 494, 492, -1,
          497, 268, 494, -1,
          497, 280, 268, -1,
          498, 52, 54, -1,
          498, 495, 493, -1,
          498, 54, 56, -1,
          498, 493, 496, -1,
          498, 496, 52, -1,
          499, 495, 498, -1,
          499, 132, 292, -1,
          499, 292, 280, -1,
          499, 497, 495, -1,
          499, 280, 497, -1,
          500, 132, 499, -1,
          500, 498, 56, -1,
          500, 499, 498, -1,
          500, 62, 132, -1,
          500, 56, 58, -1,
          500, 58, 60, -1,
          500, 60, 62, -1,
          285, 128, 127, -1,
          285, 127, 501, -1,
          286, 501, 502, -1,
          286, 285, 501, -1,
          273, 502, 503, -1,
          273, 286, 502, -1,
          274, 503, 504, -1,
          274, 273, 503, -1,
          260, 504, 505, -1,
          260, 274, 504, -1,
          261, 505, 506, -1,
          261, 260, 505, -1,
          248, 506, 507, -1,
          248, 261, 506, -1,
          249, 507, 508, -1,
          249, 248, 507, -1,
          231, 508, 509, -1,
          231, 249, 508, -1,
          218, 509, 510, -1,
          218, 231, 509, -1,
          219, 510, 511, -1,
          219, 218, 510, -1,
          220, 511, 512, -1,
          220, 219, 511, -1,
          204, 512, 513, -1,
          204, 220, 512, -1,
          205, 513, 514, -1,
          205, 204, 513, -1,
          189, 514, 515, -1,
          189, 205, 514, -1,
          190, 515, 516, -1,
          190, 189, 515, -1,
          179, 516, 517, -1,
          179, 190, 516, -1,
          180, 179, 517, -1,
          180, 517, 518, -1,
          167, 180, 518, -1,
          167, 518, 519, -1,
          168, 167, 519, -1,
          168, 519, 520, -1,
          169, 168, 520, -1,
          169, 520, 521, -1,
          155, 169, 521, -1,
          155, 521, 522, -1,
          156, 522, 523, -1,
          156, 155, 522, -1,
          146, 523, 524, -1,
          146, 156, 523, -1,
          147, 524, 525, -1,
          147, 146, 524, -1,
          141, 525, 526, -1,
          141, 147, 525, -1,
          142, 526, 527, -1,
          142, 141, 526, -1,
          134, 527, 528, -1,
          134, 142, 527, -1,
          135, 528, 529, -1,
          135, 134, 528, -1,
          136, 529, 530, -1,
          136, 135, 529, -1,
          130, 530, 531, -1,
          130, 136, 530, -1,
          131, 531, 532, -1,
          131, 130, 531, -1,
          329, 532, 533, -1,
          329, 131, 532, -1,
          386, 533, 534, -1,
          386, 329, 533, -1,
          387, 534, 535, -1,
          387, 386, 534, -1,
          377, 535, 536, -1,
          377, 387, 535, -1,
          378, 536, 537, -1,
          378, 377, 536, -1,
          362, 537, 538, -1,
          362, 378, 537, -1,
          363, 538, 539, -1,
          363, 362, 538, -1,
          354, 539, 540, -1,
          354, 363, 539, -1,
          355, 540, 541, -1,
          355, 354, 540, -1,
          347, 541, 542, -1,
          347, 355, 541, -1,
          348, 347, 542, -1,
          348, 542, 543, -1,
          349, 348, 543, -1,
          349, 543, 544, -1,
          336, 349, 544, -1,
          336, 544, 545, -1,
          337, 336, 545, -1,
          337, 545, 546, -1,
          338, 337, 546, -1,
          338, 546, 547, -1,
          352, 338, 547, -1,
          352, 547, 548, -1,
          344, 352, 548, -1,
          344, 548, 549, -1,
          345, 344, 549, -1,
          345, 549, 550, -1,
          331, 345, 550, -1,
          331, 550, 551, -1,
          332, 331, 551, -1,
          332, 551, 552, -1,
          333, 332, 552, -1,
          333, 552, 553, -1,
          334, 333, 553, -1,
          334, 553, 554, -1,
          340, 334, 554, -1,
          340, 554, 555, -1,
          341, 340, 555, -1,
          341, 555, 556, -1,
          342, 556, 557, -1,
          342, 341, 556, -1,
          357, 557, 558, -1,
          357, 342, 557, -1,
          358, 558, 559, -1,
          358, 357, 558, -1,
          368, 559, 560, -1,
          368, 358, 559, -1,
          369, 560, 561, -1,
          369, 368, 560, -1,
          380, 561, 562, -1,
          380, 369, 561, -1,
          381, 562, 1, -1,
          381, 380, 562, -1,
          3, 381, 1, -1,
          513, 512, 514, -1,
          514, 512, 515, -1,
          515, 512, 516, -1,
          517, 521, 518, -1,
          518, 521, 519, -1,
          519, 521, 520, -1,
          510, 509, 511, -1,
          511, 509, 512, -1,
          516, 523, 517, -1,
          521, 523, 522, -1,
          517, 523, 521, -1,
          525, 527, 526, -1,
          505, 504, 506, -1,
          506, 504, 507, -1,
          507, 504, 508, -1,
          508, 504, 509, -1,
          523, 529, 524, -1,
          524, 529, 525, -1,
          527, 529, 528, -1,
          525, 529, 527, -1,
          503, 502, 504, -1,
          502, 501, 504, -1,
          529, 531, 530, -1,
          532, 534, 533, -1,
          531, 536, 532, -1,
          534, 536, 535, -1,
          529, 536, 531, -1,
          523, 536, 529, -1,
          532, 536, 534, -1,
          127, 115, 501, -1,
          117, 115, 119, -1,
          119, 115, 121, -1,
          121, 115, 123, -1,
          123, 115, 125, -1,
          125, 115, 127, -1,
          509, 115, 512, -1,
          504, 115, 509, -1,
          501, 115, 504, -1,
          536, 539, 537, -1,
          537, 539, 538, -1,
          113, 111, 115, -1,
          111, 109, 115, -1,
          539, 541, 540, -1,
          539, 542, 541, -1,
          107, 105, 109, -1,
          542, 544, 543, -1,
          539, 546, 542, -1,
          542, 546, 544, -1,
          544, 546, 545, -1,
          99, 97, 101, -1,
          101, 97, 103, -1,
          539, 548, 546, -1,
          546, 548, 547, -1,
          548, 550, 549, -1,
          89, 87, 91, -1,
          91, 87, 93, -1,
          93, 87, 95, -1,
          95, 87, 97, -1,
          523, 552, 536, -1,
          536, 552, 539, -1,
          539, 552, 548, -1,
          516, 552, 523, -1,
          550, 552, 551, -1,
          548, 552, 550, -1,
          516, 553, 552, -1,
          85, 83, 87, -1,
          97, 83, 103, -1,
          87, 83, 97, -1,
          516, 554, 553, -1,
          103, 81, 105, -1,
          105, 81, 109, -1,
          83, 81, 103, -1,
          516, 555, 554, -1,
          555, 557, 556, -1,
          516, 557, 555, -1,
          77, 75, 79, -1,
          79, 75, 81, -1,
          557, 559, 558, -1,
          516, 559, 557, -1,
          73, 71, 75, -1,
          516, 560, 559, -1,
          81, 69, 109, -1,
          75, 69, 81, -1,
          71, 69, 75, -1,
          67, 65, 69, -1,
          516, 1, 560, -1,
          560, 1, 561, -1,
          561, 1, 562, -1,
          65, 63, 69, -1,
          63, 61, 69, -1,
          61, 59, 69, -1,
          1, 7, 2, -1,
          2, 7, 5, -1,
          55, 53, 57, -1,
          7, 13, 9, -1,
          9, 13, 11, -1,
          53, 51, 57, -1,
          57, 51, 59, -1,
          51, 49, 59, -1,
          1, 17, 7, -1,
          7, 17, 13, -1,
          13, 17, 15, -1,
          59, 45, 69, -1,
          49, 45, 59, -1,
          47, 45, 49, -1,
          1, 23, 17, -1,
          17, 23, 19, -1,
          19, 23, 21, -1,
          45, 41, 69, -1,
          43, 41, 45, -1,
          516, 25, 1, -1,
          115, 25, 512, -1,
          109, 25, 115, -1,
          512, 25, 516, -1,
          1, 25, 23, -1,
          109, 27, 25, -1,
          109, 29, 27, -1,
          41, 33, 69, -1,
          109, 33, 29, -1,
          29, 33, 31, -1,
          69, 33, 109, -1,
          35, 33, 37, -1,
          37, 33, 39, -1,
          39, 33, 41, -1
        ]
      }
    }
}
