{"asset":{"version":"2.0","generator":"microscope_builder_4 scripts/catalog/dedupe-mounted-lens-housings.mjs"},"scene":0,"scenes":[{"nodes":[0]}],"nodes":[{"mesh":0}],"meshes":[{"primitives":[{"attributes":{"POSITION":1,"NORMAL":2},"indices":0,"mode":4},{"attributes":{"POSITION":4,"NORMAL":5},"indices":3,"mode":4},{"attributes":{"POSITION":7,"NORMAL":8},"indices":6,"mode":4}]}],"buffers":[{"uri":"la1027-b-ml.bin","byteLength":148836}],"bufferViews":[{"buffer":0,"byteOffset":0,"byteLength":44280,"target":34963},{"buffer":0,"byteOffset":44280,"byteLength":44280,"target":34962},{"buffer":0,"byteOffset":88560,"byteLength":44280,"target":34962},{"buffer":0,"byteOffset":132840,"byteLength":1380,"target":34963},{"buffer":0,"byteOffset":134220,"byteLength":1404,"target":34962},{"buffer":0,"byteOffset":135624,"byteLength":1404,"target":34962},{"buffer":0,"byteOffset":137028,"byteLength":3936,"target":34963},{"buffer":0,"byteOffset":140964,"byteLength":3936,"target":34962},{"buffer":0,"byteOffset":144900,"byteLength":3936,"target":34962}],"accessors":[{"bufferView":0,"componentType":5123,"count":22140,"type":"SCALAR"},{"bufferView":1,"componentType":5126,"count":3690,"type":"VEC3","min":[0,-15.239999771118164,-15.239999771118164],"max":[12.192000389099121,15.239999771118164,15.239999771118164]},{"bufferView":2,"componentType":5126,"count":3690,"type":"VEC3"},{"bufferView":3,"componentType":5123,"count":690,"type":"SCALAR"},{"bufferView":4,"componentType":5126,"count":117,"type":"VEC3","min":[3.809999942779541,-12.684000015258789,-12.684000015258789],"max":[11.039999961853027,12.684000015258789,12.684000015258789]},{"bufferView":5,"componentType":5126,"count":117,"type":"VEC3"},{"bufferView":6,"componentType":5123,"count":1968,"type":"SCALAR"},{"bufferView":7,"componentType":5126,"count":328,"type":"VEC3","min":[6.7170000076293945,-13.144000053405762,-13.144000053405762],"max":[8.74899959564209,13.144000053405762,13.144000053405762]},{"bufferView":8,"componentType":5126,"count":328,"type":"VEC3"}]}
