#VRML V2.0 utf8
WorldInfo {
  title "Exported triangle mesh to VRML97"
  info ["Created by FreeCAD"
        "<https://www.freecad.org>"]
}

Transform {
  scale 1 1 1
  rotation 0 0 1 0
  scaleOrientation 0 0 1 0
  center 0.000 0.000 0.000
  translation 0.000 0.000 0.000
  children
    Shape { 
      appearance
      Appearance {
        material
        Material {
          diffuseColor 0.8 0.8 0.8
        }
      }
      geometry
      IndexedFaceSet {
        coord
        Coordinate {
          point [
            25.369 1.246 -3.265,
            25.400 0.000 -6.260,
            25.368 1.266 -6.260,
            25.400 0.000 -3.265,
            25.278 2.490 -3.265,
            25.274 2.529 -6.260,
            25.125 3.727 -3.265,
            25.116 3.786 -6.260,
            24.912 4.955 -3.265,
            24.896 5.033 -6.260,
            24.639 6.172 -3.265,
            24.615 6.268 -6.260,
            24.306 7.373 -3.265,
            24.272 7.487 -6.260,
            23.915 8.557 -3.265,
            23.868 8.687 -6.260,
            23.467 9.720 -3.265,
            23.405 9.866 -6.260,
            22.961 10.860 -3.265,
            22.885 11.021 -6.260,
            22.401 11.973 -3.265,
            22.307 12.148 -6.260,
            21.786 13.058 -3.265,
            21.674 13.244 -6.260,
            21.119 14.111 -3.265,
            20.986 14.308 -6.260,
            20.401 15.131 -3.265,
            20.247 15.337 -6.260,
            19.634 16.114 -3.265,
            19.458 16.327 -6.260,
            18.820 17.058 -3.265,
            18.620 17.276 -6.260,
            17.961 17.961 -3.265,
            17.735 18.183 -6.260,
            17.058 18.820 -3.265,
            16.807 19.044 -6.260,
            16.114 19.634 -3.265,
            15.837 19.859 -6.260,
            15.131 20.401 -3.265,
            14.827 20.623 -6.260,
            14.111 21.119 -3.265,
            13.781 21.337 -6.260,
            13.058 21.786 -3.265,
            12.700 21.997 -6.260,
            11.973 22.401 -3.265,
            11.588 22.603 -6.260,
            10.860 22.961 -3.265,
            10.447 23.152 -6.260,
            9.720 23.467 -3.265,
            9.280 23.644 -6.260,
            8.557 23.915 -3.265,
            8.090 24.077 -6.260,
            7.373 24.306 -3.265,
            6.879 24.451 -6.260,
            6.172 24.639 -3.265,
            5.652 24.763 -6.260,
            4.955 24.912 -3.265,
            4.411 25.014 -6.260,
            3.727 25.125 -3.265,
            3.158 25.203 -6.260,
            2.490 25.278 -3.265,
            1.898 25.329 -6.260,
            1.246 25.369 -3.265,
            0.633 25.392 -6.260,
            0.000 25.400 -3.265,
            -0.633 25.392 -6.260,
            -1.246 25.369 -3.265,
            -1.898 25.329 -6.260,
            -2.490 25.278 -3.265,
            -3.158 25.203 -6.260,
            -3.727 25.125 -3.265,
            -4.411 25.014 -6.260,
            -4.955 24.912 -3.265,
            -5.652 24.763 -6.260,
            -6.172 24.639 -3.265,
            -6.879 24.451 -6.260,
            -7.373 24.306 -3.265,
            -8.090 24.077 -6.260,
            -8.557 23.915 -3.265,
            -9.280 23.644 -6.260,
            -9.720 23.467 -3.265,
            -10.447 23.152 -6.260,
            -10.860 22.961 -3.265,
            -11.588 22.603 -6.260,
            -11.973 22.401 -3.265,
            -12.700 21.997 -6.260,
            -13.058 21.786 -3.265,
            -13.781 21.337 -6.260,
            -14.111 21.119 -3.265,
            -14.827 20.623 -6.260,
            -15.131 20.401 -3.265,
            -15.837 19.859 -6.260,
            -16.114 19.634 -3.265,
            -16.807 19.044 -6.260,
            -17.058 18.820 -3.265,
            -17.735 18.183 -6.260,
            -17.961 17.961 -3.265,
            -18.620 17.276 -6.260,
            -18.820 17.058 -3.265,
            -19.458 16.327 -6.260,
            -19.634 16.114 -3.265,
            -20.247 15.337 -6.260,
            -20.401 15.131 -3.265,
            -20.986 14.308 -6.260,
            -21.119 14.111 -3.265,
            -21.674 13.244 -6.260,
            -21.786 13.058 -3.265,
            -22.307 12.148 -6.260,
            -22.401 11.973 -3.265,
            -22.885 11.021 -6.260,
            -22.961 10.860 -3.265,
            -23.405 9.866 -6.260,
            -23.467 9.720 -3.265,
            -23.868 8.687 -6.260,
            -23.915 8.557 -3.265,
            -24.272 7.487 -6.260,
            -24.306 7.373 -3.265,
            -24.615 6.268 -6.260,
            -24.639 6.172 -3.265,
            -24.896 5.033 -6.260,
            -24.912 4.955 -3.265,
            -25.116 3.786 -6.260,
            -25.125 3.727 -3.265,
            -25.274 2.529 -6.260,
            -25.278 2.490 -3.265,
            -25.368 1.266 -6.260,
            -25.369 1.246 -3.265,
            -25.400 0.000 -6.260,
            -25.400 0.000 -3.265,
            -0.000 -23.979 -2.083,
            -1.246 -25.369 -3.265,
            -0.000 -25.400 -3.265,
            0.000 23.979 -2.083,
            -2.518 -24.339 -2.478,
            -3.727 -25.125 -3.265,
            -2.490 -25.278 -3.265,
            -2.518 -22.241 -0.886,
            -0.000 -22.504 -0.972,
            -0.000 -20.976 0.069,
            -5.025 -23.155 -1.860,
            -6.172 -24.639 -3.265,
            -4.955 -24.912 -3.265,
            -2.518 -20.039 0.560,
            -0.000 -19.401 1.035,
            -7.511 -23.925 -2.986,
            -8.557 -23.915 -3.265,
            -7.373 -24.306 -3.265,
            -5.025 -21.018 -0.350,
            -2.518 -17.744 1.851,
            -0.000 -17.782 1.924,
            -0.000 -16.122 2.735,
            -7.511 -21.863 -1.421,
            -5.025 -18.782 1.010,
            -9.965 -22.563 -2.640,
            -11.973 -22.401 -3.265,
            -10.860 -22.961 -3.265,
            -9.720 -23.467 -3.265,
            -2.518 -15.366 2.983,
            -0.000 -14.425 3.466,
            -7.511 -19.699 -0.000,
            -5.025 -16.459 2.215,
            -9.965 -20.480 -1.169,
            -2.518 -12.916 3.950,
            -0.000 -12.695 4.115,
            -0.000 -10.936 4.680,
            -7.511 -17.443 1.269,
            -12.377 -21.114 -2.482,
            -14.111 -21.119 -3.265,
            -13.058 -21.786 -3.265,
            -5.025 -14.059 3.258,
            -9.965 -18.302 0.157,
            -2.518 -10.406 4.747,
            -0.000 -9.151 5.160,
            -7.511 -15.105 2.382,
            -12.377 -19.023 -1.110,
            -5.025 -11.593 4.135,
            -9.965 -16.038 1.331,
            -14.736 -19.595 -2.517,
            -16.114 -19.634 -3.265,
            -15.131 -20.401 -3.265,
            -2.518 -7.847 5.371,
            -0.000 -7.346 5.555,
            -7.511 -12.697 3.332,
            -12.377 -16.845 0.116,
            -5.025 -9.074 4.841,
            -9.965 -13.700 2.347,
            -14.736 -17.511 -1.249,
            -2.518 -5.252 5.818,
            -0.000 -5.525 5.863,
            -0.000 -3.690 6.083,
            -7.511 -10.229 4.116,
            -12.377 -14.587 1.191,
            -17.032 -18.025 -2.751,
            -18.820 -17.058 -3.265,
            -17.961 -17.961 -3.265,
            -17.058 -18.820 -3.265,
            -5.025 -6.512 5.374,
            -9.965 -11.297 3.202,
            -14.736 -15.345 -0.126,
            -2.518 -2.632 6.088,
            -0.000 -1.847 6.216,
            -7.511 -7.714 4.729,
            -12.377 -12.261 2.108,
            -17.032 -15.960 -1.589,
            -19.634 -16.114 -3.265,
            -5.025 -3.919 5.731,
            -9.965 -8.842 3.890,
            -14.736 -13.107 0.846,
            -2.518 0.000 6.178,
            0.000 0.000 6.260,
            0.000 1.847 6.216,
            -7.511 -5.163 5.169,
            -12.377 -9.878 2.865,
            -17.032 -13.821 -0.571,
            -5.025 -1.308 5.909,
            -9.965 -6.345 4.409,
            -14.736 -10.809 1.664,
            -19.256 -14.391 -2.131,
            -21.119 -14.111 -3.265,
            -20.401 -15.131 -3.265,
            -2.518 2.632 6.088,
            0.000 3.690 6.083,
            -7.511 -2.587 5.434,
            -12.377 -7.449 3.457,
            -17.032 -11.618 0.298,
            -5.025 1.308 5.909,
            -9.965 -3.819 4.757,
            -14.736 -8.459 2.323,
            -19.256 -12.292 -1.219,
            -2.518 5.252 5.818,
            0.000 5.525 5.863,
            0.000 7.346 5.555,
            -7.511 0.000 5.523,
            -12.377 -4.986 3.882,
            -17.032 -9.360 1.015,
            -21.398 -12.821 -2.874,
            -22.401 -11.973 -3.265,
            -21.786 -13.058 -3.265,
            -5.025 3.919 5.731,
            -9.965 -1.275 4.931,
            -14.736 -6.071 2.819,
            -19.256 -10.137 -0.452,
            -2.518 7.847 5.371,
            0.000 9.151 5.160,
            -7.511 2.587 5.434,
            -12.377 -2.499 4.138,
            -17.032 -7.058 1.576,
            -21.398 -10.777 -2.067,
            -23.467 -9.720 -3.265,
            -22.961 -10.860 -3.265,
            -5.025 6.512 5.374,
            -9.965 1.275 4.931,
            -14.736 -3.654 3.152,
            -19.256 -7.933 0.165,
            -2.518 10.406 4.747,
            0.000 10.936 4.680,
            -7.511 5.163 5.169,
            -12.377 0.000 4.224,
            -17.032 -4.724 1.979,
            -21.398 -8.682 -1.402,
            -23.915 -8.557 -3.265,
            -5.025 9.074 4.841,
            -9.965 3.819 4.757,
            -14.736 -1.220 3.318,
            -19.256 -5.693 0.631,
            -2.518 12.916 3.950,
            0.000 12.695 4.115,
            0.000 14.425 3.466,
            -7.511 7.714 4.729,
            -12.377 2.499 4.138,
            -17.032 -2.368 2.222,
            -21.398 -6.547 -0.881,
            -5.025 11.593 4.135,
            -9.965 6.345 4.409,
            -14.736 1.220 3.318,
            -19.256 -3.427 0.943,
            -2.518 15.366 2.983,
            0.000 16.122 2.735,
            -23.449 -7.273 -2.545,
            -24.639 -6.172 -3.265,
            -24.306 -7.373 -3.265,
            -7.511 10.229 4.116,
            -12.377 4.986 3.882,
            -17.032 0.000 2.303,
            -21.398 -4.382 -0.508,
            -5.025 14.059 3.258,
            -9.965 8.842 3.890,
            -14.736 3.654 3.152,
            -19.256 -1.144 1.099,
            -2.518 17.744 1.851,
            0.000 17.782 1.924,
            0.000 19.401 1.035,
            -23.449 -5.219 -2.118,
            -25.125 -3.727 -3.265,
            -24.912 -4.955 -3.265,
            -7.511 12.697 3.332,
            -12.377 7.449 3.457,
            -17.032 2.368 2.222,
            -21.398 -2.196 -0.283,
            -5.025 16.459 2.215,
            -9.965 11.297 3.202,
            -14.736 6.071 2.819,
            -19.256 1.144 1.099,
            -2.518 20.039 0.560,
            0.000 20.976 0.069,
            -23.449 -3.141 -1.832,
            -25.278 -2.490 -3.265,
            -7.511 15.105 2.382,
            -12.377 9.878 2.865,
            -17.032 4.724 1.979,
            -21.398 0.000 -0.208,
            -5.025 18.782 1.010,
            -9.965 13.700 2.347,
            -14.736 8.459 2.323,
            -19.256 3.427 0.943,
            -2.518 22.241 -0.886,
            0.000 22.504 -0.972,
            -23.449 -1.049 -1.689,
            -25.369 -1.246 -3.265,
            -7.511 17.443 1.269,
            -12.377 12.261 2.108,
            -17.032 7.058 1.576,
            -21.398 2.196 -0.283,
            -5.025 21.018 -0.350,
            -9.965 16.038 1.331,
            -14.736 10.809 1.664,
            -19.256 5.693 0.631,
            -2.518 24.339 -2.478,
            -23.449 1.049 -1.689,
            -7.511 19.699 -0.000,
            -12.377 14.587 1.191,
            -17.032 9.360 1.015,
            -21.398 4.382 -0.508,
            -5.025 23.155 -1.860,
            -9.965 18.302 0.157,
            -14.736 13.107 0.846,
            -19.256 7.933 0.165,
            -23.449 3.141 -1.832,
            -7.511 21.863 -1.421,
            -12.377 16.845 0.116,
            -17.032 11.618 0.298,
            -21.398 6.547 -0.881,
            -9.965 20.480 -1.169,
            -14.736 15.345 -0.126,
            -19.256 10.137 -0.452,
            -23.449 5.219 -2.118,
            -7.511 23.925 -2.986,
            -12.377 19.023 -1.110,
            -17.032 13.821 -0.571,
            -21.398 8.682 -1.402,
            -9.965 22.563 -2.640,
            -14.736 17.511 -1.249,
            -19.256 12.292 -1.219,
            -23.449 7.273 -2.545,
            -12.377 21.114 -2.482,
            -17.032 15.960 -1.589,
            -21.398 10.777 -2.067,
            -14.736 19.595 -2.517,
            -19.256 14.391 -2.131,
            -17.032 18.025 -2.751,
            -21.398 12.821 -2.874,
            1.246 -25.369 -3.265,
            19.256 -15.415 -2.640,
            18.820 -17.058 -3.265,
            19.634 -16.114 -3.265,
            20.401 -15.131 -3.265,
            21.398 -11.805 -2.453,
            21.786 -13.058 -3.265,
            22.401 -11.973 -3.265,
            22.961 -10.860 -3.265,
            17.032 -17.002 -2.152,
            17.058 -18.820 -3.265,
            17.961 -17.961 -3.265,
            23.449 -8.287 -2.811,
            23.467 -9.720 -3.265,
            23.915 -8.557 -3.265,
            24.306 -7.373 -3.265,
            19.256 -13.349 -1.657,
            21.119 -14.111 -3.265,
            14.736 -18.564 -1.865,
            14.111 -21.119 -3.265,
            15.131 -20.401 -3.265,
            16.114 -19.634 -3.265,
            21.398 -9.735 -1.717,
            17.032 -14.899 -1.062,
            12.377 -20.080 -1.778,
            11.973 -22.401 -3.265,
            13.058 -21.786 -3.265,
            23.449 -6.250 -2.314,
            24.639 -6.172 -3.265,
            24.912 -4.955 -3.265,
            19.256 -11.221 -0.817,
            14.736 -16.437 -0.669,
            9.965 -21.534 -1.886,
            9.720 -23.467 -3.265,
            10.860 -22.961 -3.265,
            21.398 -7.619 -1.123,
            17.032 -12.727 -0.118,
            12.377 -17.944 -0.478,
            7.511 -22.908 -2.186,
            6.172 -24.639 -3.265,
            7.373 -24.306 -3.265,
            8.557 -23.915 -3.265,
            23.449 -4.183 -1.957,
            25.125 -3.727 -3.265,
            19.256 -9.040 -0.125,
            14.736 -14.234 0.379,
            9.965 -19.402 -0.487,
            5.025 -24.184 -2.669,
            3.727 -25.125 -3.265,
            4.955 -24.912 -3.265,
            21.398 -5.468 -0.676,
            17.032 -10.495 0.676,
            12.377 -15.725 0.673,
            7.511 -20.793 -0.692,
            23.449 -2.096 -1.743,
            25.278 -2.490 -3.265,
            25.369 -1.246 -3.265,
            19.256 -6.817 0.417,
            14.736 -11.965 1.275,
            9.965 -17.180 0.763,
            5.025 -22.099 -1.087,
            21.398 -3.291 -0.377,
            17.032 -8.214 1.316,
            12.377 -13.432 1.669,
            7.511 -18.582 0.654,
            23.449 0.000 -1.671,
            2.518 -23.304 -1.664,
            2.490 -25.278 -3.265,
            19.256 -4.563 0.806,
            14.736 -9.640 2.013,
            9.965 -14.878 1.859,
            5.025 -19.911 0.349,
            21.398 -1.099 -0.227,
            17.032 -5.895 1.798,
            12.377 -11.076 2.507,
            7.511 -16.283 1.846,
            23.449 2.096 -1.743,
            2.518 -21.153 -0.144,
            19.256 -2.287 1.040,
            14.736 -7.269 2.591,
            9.965 -12.506 2.795,
            5.025 -17.631 1.633,
            21.398 1.099 -0.227,
            17.032 -3.548 2.121,
            12.377 -8.669 3.182,
            7.511 -13.909 2.878,
            23.449 4.183 -1.957,
            2.518 -18.903 1.225,
            19.256 0.000 1.119,
            14.736 -4.865 3.006,
            9.965 -10.075 3.567,
            5.025 -15.268 2.757,
            21.398 3.291 -0.377,
            17.032 -1.184 2.282,
            12.377 -6.221 3.691,
            7.511 -11.470 3.745,
            23.449 6.250 -2.314,
            2.518 -16.565 2.437,
            19.256 2.287 1.040,
            14.736 -2.438 3.256,
            9.965 -7.598 4.171,
            5.025 -12.834 3.718,
            21.398 5.468 -0.676,
            17.032 1.184 2.282,
            12.377 -3.744 4.032,
            7.511 -8.977 4.444,
            23.449 8.287 -2.811,
            2.518 -14.149 3.487,
            19.256 4.563 0.806,
            14.736 0.000 3.339,
            9.965 -5.085 4.604,
            5.025 -10.340 4.510,
            21.398 7.619 -1.123,
            17.032 3.548 2.121,
            12.377 -1.250 4.202,
            7.511 -6.442 4.971,
            2.518 -11.668 4.370,
            19.256 6.817 0.417,
            14.736 2.438 3.256,
            9.965 -2.548 4.865,
            5.025 -7.797 5.130,
            21.398 9.735 -1.717,
            17.032 5.895 1.798,
            12.377 1.250 4.202,
            7.511 -3.877 5.324,
            2.518 -9.132 5.081,
            19.256 9.040 -0.125,
            14.736 4.865 3.006,
            9.965 0.000 4.953,
            5.025 -5.218 5.575,
            21.398 11.805 -2.453,
            17.032 8.214 1.316,
            12.377 3.744 4.032,
            7.511 -1.294 5.501,
            2.518 -6.553 5.617,
            19.256 11.221 -0.817,
            14.736 7.269 2.591,
            9.965 2.548 4.865,
            5.025 -2.615 5.842,
            17.032 10.495 0.676,
            12.377 6.221 3.691,
            7.511 1.294 5.501,
            2.518 -3.944 5.976,
            19.256 13.349 -1.657,
            14.736 9.640 2.013,
            9.965 5.085 4.604,
            5.025 0.000 5.932,
            17.032 12.727 -0.118,
            12.377 8.669 3.182,
            7.511 3.877 5.324,
            2.518 -1.317 6.155,
            19.256 15.415 -2.640,
            14.736 11.965 1.275,
            9.965 7.598 4.171,
            5.025 2.615 5.842,
            17.032 14.899 -1.062,
            12.377 11.076 2.507,
            7.511 6.442 4.971,
            2.518 1.317 6.155,
            14.736 14.234 0.379,
            9.965 10.075 3.567,
            5.025 5.218 5.575,
            17.032 17.002 -2.152,
            12.377 13.432 1.669,
            7.511 8.977 4.444,
            2.518 3.944 5.976,
            14.736 16.437 -0.669,
            9.965 12.506 2.795,
            5.025 7.797 5.130,
            12.377 15.725 0.673,
            7.511 11.470 3.745,
            2.518 6.553 5.617,
            14.736 18.564 -1.865,
            9.965 14.878 1.859,
            5.025 10.340 4.510,
            12.377 17.944 -0.478,
            7.511 13.909 2.878,
            2.518 9.132 5.081,
            9.965 17.180 0.763,
            5.025 12.834 3.718,
            12.377 20.080 -1.778,
            7.511 16.283 1.846,
            2.518 11.668 4.370,
            9.965 19.402 -0.487,
            5.025 15.268 2.757,
            7.511 18.582 0.654,
            2.518 14.149 3.487,
            9.965 21.534 -1.886,
            5.025 17.631 1.633,
            7.511 20.793 -0.692,
            2.518 16.565 2.437,
            5.025 19.911 0.349,
            7.511 22.908 -2.186,
            2.518 18.903 1.225,
            5.025 22.099 -1.087,
            2.518 21.153 -0.144,
            5.025 24.184 -2.669,
            2.518 23.304 -1.664,
            -25.368 -1.266 -6.260,
            -25.274 -2.529 -6.260,
            -25.116 -3.786 -6.260,
            -24.896 -5.033 -6.260,
            -24.615 -6.268 -6.260,
            -24.272 -7.487 -6.260,
            -23.868 -8.687 -6.260,
            -23.405 -9.866 -6.260,
            -22.885 -11.021 -6.260,
            -22.307 -12.148 -6.260,
            -21.674 -13.244 -6.260,
            -20.986 -14.308 -6.260,
            -20.247 -15.337 -6.260,
            -19.458 -16.327 -6.260,
            -18.620 -17.276 -6.260,
            -17.735 -18.183 -6.260,
            -16.807 -19.044 -6.260,
            -15.837 -19.859 -6.260,
            -14.827 -20.623 -6.260,
            -13.781 -21.337 -6.260,
            -12.700 -21.997 -6.260,
            -11.588 -22.603 -6.260,
            -10.447 -23.152 -6.260,
            -9.280 -23.644 -6.260,
            -8.090 -24.077 -6.260,
            -6.879 -24.451 -6.260,
            -5.652 -24.763 -6.260,
            -4.411 -25.014 -6.260,
            -3.158 -25.203 -6.260,
            -1.898 -25.329 -6.260,
            -0.633 -25.392 -6.260,
            0.633 -25.392 -6.260,
            1.898 -25.329 -6.260,
            3.158 -25.203 -6.260,
            4.411 -25.014 -6.260,
            5.652 -24.763 -6.260,
            6.879 -24.451 -6.260,
            8.090 -24.077 -6.260,
            9.280 -23.644 -6.260,
            10.447 -23.152 -6.260,
            11.588 -22.603 -6.260,
            12.700 -21.997 -6.260,
            13.781 -21.337 -6.260,
            14.827 -20.623 -6.260,
            15.837 -19.859 -6.260,
            16.807 -19.044 -6.260,
            17.735 -18.183 -6.260,
            18.620 -17.276 -6.260,
            19.458 -16.327 -6.260,
            20.247 -15.337 -6.260,
            20.986 -14.308 -6.260,
            21.674 -13.244 -6.260,
            22.307 -12.148 -6.260,
            22.885 -11.021 -6.260,
            23.405 -9.866 -6.260,
            23.868 -8.687 -6.260,
            24.272 -7.487 -6.260,
            24.615 -6.268 -6.260,
            24.896 -5.033 -6.260,
            25.116 -3.786 -6.260,
            25.274 -2.529 -6.260,
            25.368 -1.266 -6.260
          ]
        }
        coordIndex [
          0, 1, 2, -1,
          0, 3, 1, -1,
          4, 2, 5, -1,
          4, 0, 2, -1,
          6, 5, 7, -1,
          6, 4, 5, -1,
          8, 7, 9, -1,
          8, 6, 7, -1,
          10, 9, 11, -1,
          10, 8, 9, -1,
          12, 11, 13, -1,
          12, 10, 11, -1,
          14, 13, 15, -1,
          14, 12, 13, -1,
          16, 15, 17, -1,
          16, 14, 15, -1,
          18, 17, 19, -1,
          18, 16, 17, -1,
          20, 19, 21, -1,
          20, 18, 19, -1,
          22, 21, 23, -1,
          22, 20, 21, -1,
          24, 23, 25, -1,
          24, 22, 23, -1,
          26, 25, 27, -1,
          26, 24, 25, -1,
          28, 27, 29, -1,
          28, 26, 27, -1,
          30, 29, 31, -1,
          30, 28, 29, -1,
          32, 31, 33, -1,
          32, 30, 31, -1,
          34, 33, 35, -1,
          34, 32, 33, -1,
          36, 34, 35, -1,
          36, 35, 37, -1,
          38, 36, 37, -1,
          38, 37, 39, -1,
          40, 38, 39, -1,
          40, 39, 41, -1,
          42, 40, 41, -1,
          42, 41, 43, -1,
          44, 42, 43, -1,
          44, 43, 45, -1,
          46, 45, 47, -1,
          46, 44, 45, -1,
          48, 47, 49, -1,
          48, 46, 47, -1,
          50, 49, 51, -1,
          50, 48, 49, -1,
          52, 51, 53, -1,
          52, 50, 51, -1,
          54, 53, 55, -1,
          54, 52, 53, -1,
          56, 55, 57, -1,
          56, 54, 55, -1,
          58, 57, 59, -1,
          58, 56, 57, -1,
          60, 59, 61, -1,
          60, 58, 59, -1,
          62, 61, 63, -1,
          62, 60, 61, -1,
          64, 63, 65, -1,
          64, 62, 63, -1,
          66, 65, 67, -1,
          66, 64, 65, -1,
          68, 67, 69, -1,
          68, 66, 67, -1,
          70, 69, 71, -1,
          70, 68, 69, -1,
          72, 71, 73, -1,
          72, 70, 71, -1,
          74, 73, 75, -1,
          74, 72, 73, -1,
          76, 75, 77, -1,
          76, 74, 75, -1,
          78, 77, 79, -1,
          78, 76, 77, -1,
          80, 79, 81, -1,
          80, 78, 79, -1,
          82, 81, 83, -1,
          82, 80, 81, -1,
          84, 83, 85, -1,
          84, 82, 83, -1,
          86, 84, 85, -1,
          86, 85, 87, -1,
          88, 86, 87, -1,
          88, 87, 89, -1,
          90, 88, 89, -1,
          90, 89, 91, -1,
          92, 90, 91, -1,
          92, 91, 93, -1,
          94, 92, 93, -1,
          94, 93, 95, -1,
          96, 94, 95, -1,
          96, 95, 97, -1,
          98, 96, 97, -1,
          98, 97, 99, -1,
          100, 98, 99, -1,
          100, 99, 101, -1,
          102, 100, 101, -1,
          102, 101, 103, -1,
          104, 102, 103, -1,
          104, 103, 105, -1,
          106, 104, 105, -1,
          106, 105, 107, -1,
          108, 106, 107, -1,
          108, 107, 109, -1,
          110, 108, 109, -1,
          110, 109, 111, -1,
          112, 111, 113, -1,
          112, 110, 111, -1,
          114, 113, 115, -1,
          114, 112, 113, -1,
          116, 115, 117, -1,
          116, 114, 115, -1,
          118, 117, 119, -1,
          118, 116, 117, -1,
          120, 119, 121, -1,
          120, 118, 119, -1,
          122, 121, 123, -1,
          122, 120, 121, -1,
          124, 123, 125, -1,
          124, 122, 123, -1,
          126, 125, 127, -1,
          126, 124, 125, -1,
          128, 126, 127, -1,
          129, 130, 131, -1,
          66, 132, 64, -1,
          133, 130, 129, -1,
          133, 134, 135, -1,
          133, 135, 130, -1,
          136, 133, 129, -1,
          136, 129, 137, -1,
          136, 137, 138, -1,
          139, 134, 133, -1,
          139, 133, 136, -1,
          139, 140, 141, -1,
          139, 141, 134, -1,
          142, 138, 143, -1,
          142, 136, 138, -1,
          144, 140, 139, -1,
          144, 145, 146, -1,
          144, 146, 140, -1,
          147, 139, 136, -1,
          147, 136, 142, -1,
          148, 143, 149, -1,
          148, 149, 150, -1,
          148, 142, 143, -1,
          151, 139, 147, -1,
          151, 145, 144, -1,
          151, 144, 139, -1,
          152, 147, 142, -1,
          152, 142, 148, -1,
          153, 154, 155, -1,
          153, 155, 156, -1,
          153, 156, 145, -1,
          153, 145, 151, -1,
          157, 148, 150, -1,
          157, 150, 158, -1,
          159, 151, 147, -1,
          159, 147, 152, -1,
          160, 148, 157, -1,
          160, 152, 148, -1,
          161, 153, 151, -1,
          161, 151, 159, -1,
          162, 157, 158, -1,
          162, 158, 163, -1,
          162, 163, 164, -1,
          165, 152, 160, -1,
          165, 159, 152, -1,
          166, 154, 153, -1,
          166, 167, 168, -1,
          166, 168, 154, -1,
          166, 153, 161, -1,
          169, 160, 157, -1,
          169, 157, 162, -1,
          170, 161, 159, -1,
          170, 159, 165, -1,
          171, 162, 164, -1,
          171, 164, 172, -1,
          173, 165, 160, -1,
          173, 160, 169, -1,
          174, 166, 161, -1,
          174, 161, 170, -1,
          175, 162, 171, -1,
          175, 169, 162, -1,
          176, 165, 173, -1,
          176, 170, 165, -1,
          177, 178, 179, -1,
          177, 179, 167, -1,
          177, 166, 174, -1,
          177, 167, 166, -1,
          180, 171, 172, -1,
          180, 172, 181, -1,
          182, 169, 175, -1,
          182, 173, 169, -1,
          183, 170, 176, -1,
          183, 174, 170, -1,
          184, 171, 180, -1,
          184, 175, 171, -1,
          185, 173, 182, -1,
          185, 176, 173, -1,
          186, 174, 183, -1,
          186, 177, 174, -1,
          187, 180, 181, -1,
          187, 181, 188, -1,
          187, 188, 189, -1,
          190, 175, 184, -1,
          190, 182, 175, -1,
          191, 183, 176, -1,
          191, 176, 185, -1,
          192, 177, 186, -1,
          192, 178, 177, -1,
          192, 193, 194, -1,
          192, 194, 195, -1,
          192, 195, 178, -1,
          196, 180, 187, -1,
          196, 184, 180, -1,
          197, 182, 190, -1,
          197, 185, 182, -1,
          198, 183, 191, -1,
          198, 186, 183, -1,
          199, 187, 189, -1,
          199, 189, 200, -1,
          201, 190, 184, -1,
          201, 184, 196, -1,
          202, 191, 185, -1,
          202, 185, 197, -1,
          203, 192, 186, -1,
          203, 204, 193, -1,
          203, 186, 198, -1,
          203, 193, 192, -1,
          205, 196, 187, -1,
          205, 187, 199, -1,
          206, 190, 201, -1,
          206, 197, 190, -1,
          207, 191, 202, -1,
          207, 198, 191, -1,
          208, 199, 200, -1,
          208, 200, 209, -1,
          208, 209, 210, -1,
          211, 201, 196, -1,
          211, 196, 205, -1,
          212, 197, 206, -1,
          212, 202, 197, -1,
          213, 198, 207, -1,
          213, 203, 198, -1,
          214, 205, 199, -1,
          214, 199, 208, -1,
          215, 206, 201, -1,
          215, 201, 211, -1,
          216, 202, 212, -1,
          216, 207, 202, -1,
          217, 204, 203, -1,
          217, 218, 219, -1,
          217, 219, 204, -1,
          217, 203, 213, -1,
          220, 208, 210, -1,
          220, 210, 221, -1,
          222, 205, 214, -1,
          222, 211, 205, -1,
          223, 212, 206, -1,
          223, 206, 215, -1,
          224, 207, 216, -1,
          224, 213, 207, -1,
          225, 208, 220, -1,
          225, 214, 208, -1,
          226, 215, 211, -1,
          226, 211, 222, -1,
          227, 212, 223, -1,
          227, 216, 212, -1,
          228, 217, 213, -1,
          228, 213, 224, -1,
          229, 220, 221, -1,
          229, 230, 231, -1,
          229, 221, 230, -1,
          232, 222, 214, -1,
          232, 214, 225, -1,
          233, 223, 215, -1,
          233, 215, 226, -1,
          234, 216, 227, -1,
          234, 224, 216, -1,
          235, 217, 228, -1,
          235, 218, 217, -1,
          235, 236, 237, -1,
          235, 237, 218, -1,
          238, 220, 229, -1,
          238, 225, 220, -1,
          239, 226, 222, -1,
          239, 222, 232, -1,
          240, 223, 233, -1,
          240, 227, 223, -1,
          241, 228, 224, -1,
          241, 224, 234, -1,
          242, 229, 231, -1,
          242, 231, 243, -1,
          244, 232, 225, -1,
          244, 225, 238, -1,
          245, 226, 239, -1,
          245, 233, 226, -1,
          246, 234, 227, -1,
          246, 227, 240, -1,
          247, 235, 228, -1,
          247, 248, 249, -1,
          247, 249, 236, -1,
          247, 236, 235, -1,
          247, 228, 241, -1,
          250, 229, 242, -1,
          250, 238, 229, -1,
          251, 239, 232, -1,
          251, 232, 244, -1,
          252, 240, 233, -1,
          252, 233, 245, -1,
          253, 234, 246, -1,
          253, 241, 234, -1,
          254, 243, 255, -1,
          254, 242, 243, -1,
          256, 244, 238, -1,
          256, 238, 250, -1,
          257, 239, 251, -1,
          257, 245, 239, -1,
          258, 246, 240, -1,
          258, 240, 252, -1,
          259, 247, 241, -1,
          259, 260, 248, -1,
          259, 248, 247, -1,
          259, 241, 253, -1,
          261, 250, 242, -1,
          261, 242, 254, -1,
          262, 244, 256, -1,
          262, 251, 244, -1,
          263, 252, 245, -1,
          263, 245, 257, -1,
          264, 246, 258, -1,
          264, 253, 246, -1,
          265, 254, 255, -1,
          265, 266, 267, -1,
          265, 255, 266, -1,
          268, 250, 261, -1,
          268, 256, 250, -1,
          269, 251, 262, -1,
          269, 257, 251, -1,
          270, 258, 252, -1,
          270, 252, 263, -1,
          271, 253, 264, -1,
          271, 259, 253, -1,
          272, 254, 265, -1,
          272, 261, 254, -1,
          273, 256, 268, -1,
          273, 262, 256, -1,
          274, 263, 257, -1,
          274, 257, 269, -1,
          275, 264, 258, -1,
          275, 258, 270, -1,
          276, 265, 267, -1,
          276, 267, 277, -1,
          278, 259, 271, -1,
          278, 260, 259, -1,
          278, 279, 280, -1,
          278, 280, 260, -1,
          281, 268, 261, -1,
          281, 261, 272, -1,
          282, 269, 262, -1,
          282, 262, 273, -1,
          283, 270, 263, -1,
          283, 263, 274, -1,
          284, 271, 264, -1,
          284, 264, 275, -1,
          285, 265, 276, -1,
          285, 272, 265, -1,
          286, 273, 268, -1,
          286, 268, 281, -1,
          287, 274, 269, -1,
          287, 269, 282, -1,
          288, 275, 270, -1,
          288, 270, 283, -1,
          289, 276, 277, -1,
          289, 290, 291, -1,
          289, 277, 290, -1,
          292, 293, 294, -1,
          292, 294, 279, -1,
          292, 278, 271, -1,
          292, 279, 278, -1,
          292, 271, 284, -1,
          295, 281, 272, -1,
          295, 272, 285, -1,
          296, 282, 273, -1,
          296, 273, 286, -1,
          297, 283, 274, -1,
          297, 274, 287, -1,
          298, 275, 288, -1,
          298, 284, 275, -1,
          299, 276, 289, -1,
          299, 285, 276, -1,
          300, 281, 295, -1,
          300, 286, 281, -1,
          301, 282, 296, -1,
          301, 287, 282, -1,
          302, 283, 297, -1,
          302, 288, 283, -1,
          303, 289, 291, -1,
          303, 291, 304, -1,
          305, 292, 284, -1,
          305, 306, 293, -1,
          305, 293, 292, -1,
          305, 284, 298, -1,
          307, 285, 299, -1,
          307, 295, 285, -1,
          308, 286, 300, -1,
          308, 296, 286, -1,
          309, 297, 287, -1,
          309, 287, 301, -1,
          310, 288, 302, -1,
          310, 298, 288, -1,
          311, 299, 289, -1,
          311, 289, 303, -1,
          312, 295, 307, -1,
          312, 300, 295, -1,
          313, 296, 308, -1,
          313, 301, 296, -1,
          314, 302, 297, -1,
          314, 297, 309, -1,
          315, 303, 304, -1,
          315, 316, 132, -1,
          315, 304, 316, -1,
          317, 128, 318, -1,
          317, 318, 306, -1,
          317, 306, 305, -1,
          317, 298, 310, -1,
          317, 305, 298, -1,
          319, 299, 311, -1,
          319, 307, 299, -1,
          320, 308, 300, -1,
          320, 300, 312, -1,
          321, 309, 301, -1,
          321, 301, 313, -1,
          322, 310, 302, -1,
          322, 302, 314, -1,
          323, 311, 303, -1,
          323, 303, 315, -1,
          324, 312, 307, -1,
          324, 307, 319, -1,
          325, 313, 308, -1,
          325, 308, 320, -1,
          326, 314, 309, -1,
          326, 309, 321, -1,
          327, 66, 68, -1,
          327, 132, 66, -1,
          327, 68, 70, -1,
          327, 315, 132, -1,
          328, 310, 322, -1,
          328, 124, 126, -1,
          328, 126, 128, -1,
          328, 128, 317, -1,
          328, 317, 310, -1,
          329, 319, 311, -1,
          329, 311, 323, -1,
          330, 320, 312, -1,
          330, 312, 324, -1,
          331, 321, 313, -1,
          331, 313, 325, -1,
          332, 322, 314, -1,
          332, 314, 326, -1,
          333, 70, 72, -1,
          333, 72, 74, -1,
          333, 323, 315, -1,
          333, 327, 70, -1,
          333, 315, 327, -1,
          334, 319, 329, -1,
          334, 324, 319, -1,
          335, 320, 330, -1,
          335, 325, 320, -1,
          336, 321, 331, -1,
          336, 326, 321, -1,
          337, 322, 332, -1,
          337, 122, 124, -1,
          337, 124, 328, -1,
          337, 328, 322, -1,
          338, 323, 333, -1,
          338, 329, 323, -1,
          339, 324, 334, -1,
          339, 330, 324, -1,
          340, 331, 325, -1,
          340, 325, 335, -1,
          341, 326, 336, -1,
          341, 332, 326, -1,
          342, 334, 329, -1,
          342, 329, 338, -1,
          343, 335, 330, -1,
          343, 330, 339, -1,
          344, 331, 340, -1,
          344, 336, 331, -1,
          345, 332, 341, -1,
          345, 122, 337, -1,
          345, 118, 120, -1,
          345, 120, 122, -1,
          345, 337, 332, -1,
          346, 74, 76, -1,
          346, 76, 78, -1,
          346, 338, 333, -1,
          346, 78, 338, -1,
          346, 333, 74, -1,
          347, 339, 334, -1,
          347, 334, 342, -1,
          348, 335, 343, -1,
          348, 340, 335, -1,
          349, 112, 114, -1,
          349, 336, 344, -1,
          349, 341, 336, -1,
          350, 78, 80, -1,
          350, 80, 82, -1,
          350, 82, 84, -1,
          350, 338, 78, -1,
          350, 342, 338, -1,
          351, 339, 347, -1,
          351, 343, 339, -1,
          352, 344, 340, -1,
          352, 340, 348, -1,
          353, 114, 116, -1,
          353, 116, 118, -1,
          353, 345, 341, -1,
          353, 118, 345, -1,
          353, 349, 114, -1,
          353, 341, 349, -1,
          354, 84, 86, -1,
          354, 86, 88, -1,
          354, 347, 342, -1,
          354, 350, 84, -1,
          354, 342, 350, -1,
          355, 98, 100, -1,
          355, 348, 343, -1,
          355, 343, 351, -1,
          356, 108, 110, -1,
          356, 110, 112, -1,
          356, 349, 344, -1,
          356, 112, 349, -1,
          356, 344, 352, -1,
          357, 88, 90, -1,
          357, 90, 92, -1,
          357, 354, 88, -1,
          357, 347, 354, -1,
          357, 351, 347, -1,
          358, 100, 102, -1,
          358, 102, 104, -1,
          358, 355, 100, -1,
          358, 352, 348, -1,
          358, 348, 355, -1,
          359, 92, 94, -1,
          359, 94, 96, -1,
          359, 96, 98, -1,
          359, 98, 355, -1,
          359, 355, 351, -1,
          359, 351, 357, -1,
          359, 357, 92, -1,
          360, 104, 106, -1,
          360, 106, 108, -1,
          360, 108, 356, -1,
          360, 358, 104, -1,
          360, 356, 352, -1,
          360, 352, 358, -1,
          129, 131, 361, -1,
          64, 132, 62, -1,
          362, 363, 364, -1,
          362, 364, 365, -1,
          366, 367, 368, -1,
          366, 368, 369, -1,
          370, 363, 362, -1,
          370, 371, 372, -1,
          370, 372, 363, -1,
          373, 374, 375, -1,
          373, 375, 376, -1,
          377, 362, 365, -1,
          377, 367, 366, -1,
          377, 365, 378, -1,
          377, 378, 367, -1,
          379, 380, 381, -1,
          379, 381, 382, -1,
          379, 382, 371, -1,
          379, 371, 370, -1,
          383, 366, 369, -1,
          383, 369, 374, -1,
          383, 374, 373, -1,
          384, 362, 377, -1,
          384, 370, 362, -1,
          385, 386, 387, -1,
          385, 387, 380, -1,
          385, 380, 379, -1,
          388, 376, 389, -1,
          388, 389, 390, -1,
          388, 373, 376, -1,
          391, 366, 383, -1,
          391, 377, 366, -1,
          392, 379, 370, -1,
          392, 370, 384, -1,
          393, 394, 395, -1,
          393, 395, 386, -1,
          393, 386, 385, -1,
          396, 373, 388, -1,
          396, 383, 373, -1,
          397, 377, 391, -1,
          397, 384, 377, -1,
          398, 385, 379, -1,
          398, 379, 392, -1,
          399, 400, 401, -1,
          399, 401, 402, -1,
          399, 402, 394, -1,
          399, 394, 393, -1,
          403, 390, 404, -1,
          403, 388, 390, -1,
          405, 383, 396, -1,
          405, 391, 383, -1,
          406, 392, 384, -1,
          406, 384, 397, -1,
          407, 385, 398, -1,
          407, 393, 385, -1,
          408, 409, 410, -1,
          408, 410, 400, -1,
          408, 400, 399, -1,
          411, 396, 388, -1,
          411, 388, 403, -1,
          412, 397, 391, -1,
          412, 391, 405, -1,
          413, 392, 406, -1,
          413, 398, 392, -1,
          414, 399, 393, -1,
          414, 393, 407, -1,
          415, 403, 404, -1,
          415, 404, 416, -1,
          415, 416, 417, -1,
          418, 405, 396, -1,
          418, 396, 411, -1,
          419, 397, 412, -1,
          419, 406, 397, -1,
          420, 398, 413, -1,
          420, 407, 398, -1,
          421, 408, 399, -1,
          421, 399, 414, -1,
          422, 411, 403, -1,
          422, 403, 415, -1,
          423, 412, 405, -1,
          423, 405, 418, -1,
          424, 413, 406, -1,
          424, 406, 419, -1,
          425, 407, 420, -1,
          425, 414, 407, -1,
          426, 415, 417, -1,
          426, 417, 3, -1,
          426, 3, 0, -1,
          427, 137, 129, -1,
          427, 409, 408, -1,
          427, 361, 428, -1,
          427, 428, 409, -1,
          427, 129, 361, -1,
          427, 408, 421, -1,
          429, 418, 411, -1,
          429, 411, 422, -1,
          430, 412, 423, -1,
          430, 419, 412, -1,
          431, 420, 413, -1,
          431, 413, 424, -1,
          432, 421, 414, -1,
          432, 414, 425, -1,
          433, 415, 426, -1,
          433, 422, 415, -1,
          434, 423, 418, -1,
          434, 418, 429, -1,
          435, 424, 419, -1,
          435, 419, 430, -1,
          436, 420, 431, -1,
          436, 425, 420, -1,
          437, 0, 4, -1,
          437, 4, 6, -1,
          437, 426, 0, -1,
          438, 138, 137, -1,
          438, 143, 138, -1,
          438, 421, 432, -1,
          438, 137, 427, -1,
          438, 427, 421, -1,
          439, 422, 433, -1,
          439, 429, 422, -1,
          440, 423, 434, -1,
          440, 430, 423, -1,
          441, 431, 424, -1,
          441, 424, 435, -1,
          442, 425, 436, -1,
          442, 432, 425, -1,
          443, 433, 426, -1,
          443, 426, 437, -1,
          444, 434, 429, -1,
          444, 429, 439, -1,
          445, 435, 430, -1,
          445, 430, 440, -1,
          446, 436, 431, -1,
          446, 431, 441, -1,
          447, 6, 8, -1,
          447, 437, 6, -1,
          448, 149, 143, -1,
          448, 438, 432, -1,
          448, 432, 442, -1,
          448, 143, 438, -1,
          449, 433, 443, -1,
          449, 439, 433, -1,
          450, 434, 444, -1,
          450, 440, 434, -1,
          451, 441, 435, -1,
          451, 435, 445, -1,
          452, 442, 436, -1,
          452, 436, 446, -1,
          453, 437, 447, -1,
          453, 443, 437, -1,
          454, 439, 449, -1,
          454, 444, 439, -1,
          455, 440, 450, -1,
          455, 445, 440, -1,
          456, 446, 441, -1,
          456, 441, 451, -1,
          457, 447, 8, -1,
          457, 8, 10, -1,
          457, 10, 12, -1,
          458, 150, 149, -1,
          458, 149, 448, -1,
          458, 448, 442, -1,
          458, 442, 452, -1,
          459, 443, 453, -1,
          459, 449, 443, -1,
          460, 444, 454, -1,
          460, 450, 444, -1,
          461, 445, 455, -1,
          461, 451, 445, -1,
          462, 452, 446, -1,
          462, 446, 456, -1,
          463, 447, 457, -1,
          463, 453, 447, -1,
          464, 449, 459, -1,
          464, 454, 449, -1,
          465, 455, 450, -1,
          465, 450, 460, -1,
          466, 456, 451, -1,
          466, 451, 461, -1,
          467, 12, 14, -1,
          467, 14, 16, -1,
          467, 457, 12, -1,
          468, 158, 150, -1,
          468, 163, 158, -1,
          468, 150, 458, -1,
          468, 458, 452, -1,
          468, 452, 462, -1,
          469, 459, 453, -1,
          469, 453, 463, -1,
          470, 460, 454, -1,
          470, 454, 464, -1,
          471, 461, 455, -1,
          471, 455, 465, -1,
          472, 456, 466, -1,
          472, 462, 456, -1,
          473, 457, 467, -1,
          473, 463, 457, -1,
          474, 464, 459, -1,
          474, 459, 469, -1,
          475, 460, 470, -1,
          475, 465, 460, -1,
          476, 466, 461, -1,
          476, 461, 471, -1,
          477, 164, 163, -1,
          477, 468, 462, -1,
          477, 462, 472, -1,
          477, 163, 468, -1,
          478, 469, 463, -1,
          478, 463, 473, -1,
          479, 464, 474, -1,
          479, 470, 464, -1,
          480, 465, 475, -1,
          480, 471, 465, -1,
          481, 472, 466, -1,
          481, 466, 476, -1,
          482, 467, 16, -1,
          482, 473, 467, -1,
          482, 16, 18, -1,
          483, 474, 469, -1,
          483, 469, 478, -1,
          484, 475, 470, -1,
          484, 470, 479, -1,
          485, 476, 471, -1,
          485, 471, 480, -1,
          486, 172, 164, -1,
          486, 181, 172, -1,
          486, 164, 477, -1,
          486, 472, 481, -1,
          486, 477, 472, -1,
          487, 478, 473, -1,
          487, 473, 482, -1,
          488, 474, 483, -1,
          488, 479, 474, -1,
          489, 475, 484, -1,
          489, 480, 475, -1,
          490, 476, 485, -1,
          490, 481, 476, -1,
          491, 482, 18, -1,
          491, 18, 20, -1,
          491, 20, 22, -1,
          492, 478, 487, -1,
          492, 483, 478, -1,
          493, 484, 479, -1,
          493, 479, 488, -1,
          494, 485, 480, -1,
          494, 480, 489, -1,
          495, 181, 486, -1,
          495, 188, 181, -1,
          495, 486, 481, -1,
          495, 481, 490, -1,
          496, 482, 491, -1,
          496, 487, 482, -1,
          497, 483, 492, -1,
          497, 488, 483, -1,
          498, 484, 493, -1,
          498, 489, 484, -1,
          499, 490, 485, -1,
          499, 485, 494, -1,
          500, 487, 496, -1,
          500, 492, 487, -1,
          501, 488, 497, -1,
          501, 493, 488, -1,
          502, 494, 489, -1,
          502, 489, 498, -1,
          503, 189, 188, -1,
          503, 200, 189, -1,
          503, 188, 495, -1,
          503, 490, 499, -1,
          503, 495, 490, -1,
          504, 496, 491, -1,
          504, 22, 24, -1,
          504, 24, 26, -1,
          504, 491, 22, -1,
          505, 492, 500, -1,
          505, 497, 492, -1,
          506, 493, 501, -1,
          506, 498, 493, -1,
          507, 499, 494, -1,
          507, 494, 502, -1,
          508, 500, 496, -1,
          508, 496, 504, -1,
          509, 497, 505, -1,
          509, 501, 497, -1,
          510, 498, 506, -1,
          510, 502, 498, -1,
          511, 209, 200, -1,
          511, 503, 499, -1,
          511, 200, 503, -1,
          511, 499, 507, -1,
          512, 26, 28, -1,
          512, 28, 30, -1,
          512, 504, 26, -1,
          513, 500, 508, -1,
          513, 505, 500, -1,
          514, 506, 501, -1,
          514, 501, 509, -1,
          515, 502, 510, -1,
          515, 507, 502, -1,
          516, 504, 512, -1,
          516, 508, 504, -1,
          517, 509, 505, -1,
          517, 505, 513, -1,
          518, 506, 514, -1,
          518, 510, 506, -1,
          519, 209, 511, -1,
          519, 507, 515, -1,
          519, 511, 507, -1,
          519, 210, 209, -1,
          520, 508, 516, -1,
          520, 513, 508, -1,
          521, 514, 509, -1,
          521, 509, 517, -1,
          522, 510, 518, -1,
          522, 515, 510, -1,
          523, 516, 512, -1,
          523, 512, 30, -1,
          523, 30, 32, -1,
          523, 32, 34, -1,
          524, 517, 513, -1,
          524, 513, 520, -1,
          525, 514, 521, -1,
          525, 518, 514, -1,
          526, 515, 522, -1,
          526, 519, 515, -1,
          526, 210, 519, -1,
          526, 230, 221, -1,
          526, 221, 210, -1,
          527, 516, 523, -1,
          527, 520, 516, -1,
          528, 521, 517, -1,
          528, 517, 524, -1,
          529, 518, 525, -1,
          529, 522, 518, -1,
          530, 524, 520, -1,
          530, 520, 527, -1,
          531, 525, 521, -1,
          531, 521, 528, -1,
          532, 522, 529, -1,
          532, 526, 522, -1,
          532, 230, 526, -1,
          532, 231, 230, -1,
          533, 34, 36, -1,
          533, 36, 38, -1,
          533, 38, 40, -1,
          533, 523, 34, -1,
          533, 527, 523, -1,
          534, 528, 524, -1,
          534, 524, 530, -1,
          535, 529, 525, -1,
          535, 525, 531, -1,
          536, 530, 527, -1,
          536, 527, 533, -1,
          537, 531, 528, -1,
          537, 528, 534, -1,
          538, 231, 532, -1,
          538, 532, 529, -1,
          538, 529, 535, -1,
          538, 255, 243, -1,
          538, 243, 231, -1,
          539, 530, 536, -1,
          539, 534, 530, -1,
          540, 531, 537, -1,
          540, 535, 531, -1,
          541, 533, 40, -1,
          541, 40, 42, -1,
          541, 42, 44, -1,
          541, 536, 533, -1,
          542, 534, 539, -1,
          542, 537, 534, -1,
          543, 535, 540, -1,
          543, 255, 538, -1,
          543, 266, 255, -1,
          543, 538, 535, -1,
          544, 539, 536, -1,
          544, 536, 541, -1,
          545, 537, 542, -1,
          545, 540, 537, -1,
          546, 542, 539, -1,
          546, 539, 544, -1,
          547, 543, 540, -1,
          547, 266, 543, -1,
          547, 277, 267, -1,
          547, 267, 266, -1,
          547, 540, 545, -1,
          548, 541, 44, -1,
          548, 544, 541, -1,
          548, 44, 46, -1,
          548, 46, 48, -1,
          549, 545, 542, -1,
          549, 542, 546, -1,
          550, 544, 548, -1,
          550, 546, 544, -1,
          551, 545, 549, -1,
          551, 547, 545, -1,
          551, 277, 547, -1,
          551, 290, 277, -1,
          552, 549, 546, -1,
          552, 546, 550, -1,
          553, 550, 548, -1,
          553, 548, 48, -1,
          553, 48, 50, -1,
          553, 50, 52, -1,
          553, 52, 54, -1,
          554, 549, 552, -1,
          554, 551, 549, -1,
          554, 290, 551, -1,
          554, 291, 290, -1,
          555, 552, 550, -1,
          555, 550, 553, -1,
          556, 552, 555, -1,
          556, 554, 552, -1,
          556, 291, 554, -1,
          556, 316, 304, -1,
          556, 304, 291, -1,
          557, 555, 553, -1,
          557, 553, 54, -1,
          557, 54, 56, -1,
          557, 56, 58, -1,
          558, 556, 555, -1,
          558, 316, 556, -1,
          558, 555, 557, -1,
          558, 557, 58, -1,
          558, 58, 60, -1,
          558, 60, 62, -1,
          558, 62, 132, -1,
          558, 132, 316, -1,
          318, 128, 127, -1,
          318, 127, 559, -1,
          306, 559, 560, -1,
          306, 318, 559, -1,
          293, 560, 561, -1,
          293, 306, 560, -1,
          294, 561, 562, -1,
          294, 293, 561, -1,
          279, 562, 563, -1,
          279, 294, 562, -1,
          280, 563, 564, -1,
          280, 279, 563, -1,
          260, 564, 565, -1,
          260, 280, 564, -1,
          248, 565, 566, -1,
          248, 260, 565, -1,
          249, 566, 567, -1,
          249, 248, 566, -1,
          236, 567, 568, -1,
          236, 249, 567, -1,
          237, 568, 569, -1,
          237, 236, 568, -1,
          218, 569, 570, -1,
          218, 237, 569, -1,
          219, 570, 571, -1,
          219, 218, 570, -1,
          204, 571, 572, -1,
          204, 219, 571, -1,
          193, 572, 573, -1,
          193, 204, 572, -1,
          194, 573, 574, -1,
          194, 193, 573, -1,
          195, 574, 575, -1,
          195, 194, 574, -1,
          178, 195, 575, -1,
          178, 575, 576, -1,
          179, 178, 576, -1,
          179, 576, 577, -1,
          167, 179, 577, -1,
          167, 577, 578, -1,
          168, 167, 578, -1,
          168, 578, 579, -1,
          154, 168, 579, -1,
          154, 579, 580, -1,
          155, 580, 581, -1,
          155, 154, 580, -1,
          156, 581, 582, -1,
          156, 155, 581, -1,
          145, 582, 583, -1,
          145, 156, 582, -1,
          146, 583, 584, -1,
          146, 145, 583, -1,
          140, 584, 585, -1,
          140, 146, 584, -1,
          141, 585, 586, -1,
          141, 140, 585, -1,
          134, 586, 587, -1,
          134, 141, 586, -1,
          135, 587, 588, -1,
          135, 134, 587, -1,
          130, 588, 589, -1,
          130, 135, 588, -1,
          131, 589, 590, -1,
          131, 130, 589, -1,
          361, 590, 591, -1,
          361, 131, 590, -1,
          428, 591, 592, -1,
          428, 361, 591, -1,
          409, 592, 593, -1,
          409, 428, 592, -1,
          410, 593, 594, -1,
          410, 409, 593, -1,
          400, 594, 595, -1,
          400, 410, 594, -1,
          401, 595, 596, -1,
          401, 400, 595, -1,
          402, 596, 597, -1,
          402, 401, 596, -1,
          394, 597, 598, -1,
          394, 402, 597, -1,
          395, 598, 599, -1,
          395, 394, 598, -1,
          386, 599, 600, -1,
          386, 395, 599, -1,
          387, 386, 600, -1,
          387, 600, 601, -1,
          380, 387, 601, -1,
          380, 601, 602, -1,
          381, 380, 602, -1,
          381, 602, 603, -1,
          382, 381, 603, -1,
          382, 603, 604, -1,
          371, 382, 604, -1,
          371, 604, 605, -1,
          372, 371, 605, -1,
          372, 605, 606, -1,
          363, 372, 606, -1,
          363, 606, 607, -1,
          364, 363, 607, -1,
          364, 607, 608, -1,
          365, 364, 608, -1,
          365, 608, 609, -1,
          378, 365, 609, -1,
          378, 609, 610, -1,
          367, 378, 610, -1,
          367, 610, 611, -1,
          368, 367, 611, -1,
          368, 611, 612, -1,
          369, 368, 612, -1,
          369, 612, 613, -1,
          374, 369, 613, -1,
          374, 613, 614, -1,
          375, 614, 615, -1,
          375, 374, 614, -1,
          376, 615, 616, -1,
          376, 375, 615, -1,
          389, 616, 617, -1,
          389, 376, 616, -1,
          390, 617, 618, -1,
          390, 389, 617, -1,
          404, 618, 619, -1,
          404, 390, 618, -1,
          416, 619, 620, -1,
          416, 404, 619, -1,
          417, 620, 1, -1,
          417, 416, 620, -1,
          3, 417, 1, -1,
          574, 576, 575, -1,
          576, 578, 577, -1,
          574, 579, 576, -1,
          576, 579, 578, -1,
          569, 568, 570, -1,
          570, 568, 571, -1,
          571, 568, 572, -1,
          572, 568, 573, -1,
          573, 567, 574, -1,
          568, 567, 573, -1,
          579, 581, 580, -1,
          579, 582, 581, -1,
          579, 583, 582, -1,
          565, 564, 566, -1,
          566, 564, 567, -1,
          583, 585, 584, -1,
          574, 585, 579, -1,
          579, 585, 583, -1,
          563, 562, 564, -1,
          564, 562, 567, -1,
          585, 587, 586, -1,
          561, 560, 562, -1,
          560, 559, 562, -1,
          127, 121, 559, -1,
          123, 121, 125, -1,
          125, 121, 127, -1,
          587, 594, 588, -1,
          588, 594, 589, -1,
          589, 594, 590, -1,
          590, 594, 591, -1,
          591, 594, 592, -1,
          592, 594, 593, -1,
          567, 594, 574, -1,
          574, 594, 585, -1,
          585, 594, 587, -1,
          567, 595, 594, -1,
          567, 115, 595, -1,
          117, 115, 119, -1,
          119, 115, 121, -1,
          562, 115, 567, -1,
          559, 115, 562, -1,
          121, 115, 559, -1,
          595, 597, 596, -1,
          115, 598, 595, -1,
          595, 598, 597, -1,
          111, 109, 113, -1,
          113, 107, 115, -1,
          109, 107, 113, -1,
          598, 601, 599, -1,
          599, 601, 600, -1,
          105, 103, 107, -1,
          598, 602, 601, -1,
          101, 99, 103, -1,
          107, 97, 115, -1,
          103, 97, 107, -1,
          99, 97, 103, -1,
          602, 605, 603, -1,
          603, 605, 604, -1,
          95, 93, 97, -1,
          91, 89, 93, -1,
          93, 89, 97, -1,
          607, 609, 608, -1,
          87, 85, 89, -1,
          605, 611, 606, -1,
          606, 611, 607, -1,
          609, 611, 610, -1,
          607, 611, 609, -1,
          83, 81, 85, -1,
          611, 613, 612, -1,
          605, 613, 611, -1,
          115, 614, 598, -1,
          602, 614, 605, -1,
          598, 614, 602, -1,
          97, 614, 115, -1,
          89, 614, 97, -1,
          85, 614, 89, -1,
          605, 614, 613, -1,
          77, 75, 79, -1,
          79, 73, 81, -1,
          75, 73, 79, -1,
          81, 71, 85, -1,
          85, 71, 614, -1,
          73, 71, 81, -1,
          615, 619, 616, -1,
          616, 619, 617, -1,
          617, 619, 618, -1,
          67, 65, 69, -1,
          69, 65, 71, -1,
          619, 1, 620, -1,
          615, 2, 619, -1,
          619, 2, 1, -1,
          614, 2, 615, -1,
          63, 61, 65, -1,
          614, 5, 2, -1,
          61, 57, 65, -1,
          59, 57, 61, -1,
          65, 55, 71, -1,
          57, 55, 65, -1,
          5, 11, 7, -1,
          7, 11, 9, -1,
          5, 13, 11, -1,
          53, 51, 55, -1,
          5, 15, 13, -1,
          15, 21, 17, -1,
          17, 21, 19, -1,
          45, 43, 47, -1,
          47, 43, 49, -1,
          49, 43, 51, -1,
          15, 23, 21, -1,
          51, 41, 55, -1,
          43, 41, 51, -1,
          15, 25, 23, -1,
          15, 27, 25, -1,
          614, 37, 5, -1,
          55, 37, 71, -1,
          5, 37, 15, -1,
          41, 37, 55, -1,
          39, 37, 41, -1,
          71, 37, 614, -1,
          15, 29, 27, -1,
          15, 33, 29, -1,
          37, 33, 15, -1,
          29, 33, 31, -1,
          35, 33, 37, -1
        ]
      }
    }
}
