#VRML V2.0 utf8
WorldInfo {
  title "Exported triangle mesh to VRML97"
  info ["Created by FreeCAD"
        "<https://www.freecad.org>"]
}

Transform {
  scale 1 1 1
  rotation 0 0 1 0
  scaleOrientation 0 0 1 0
  center 0.000 0.000 0.000
  translation 0.000 0.000 0.000
  children
    Shape { 
      appearance
      Appearance {
        material
        Material {
          diffuseColor 0.8 0.8 0.8
        }
      }
      geometry
      IndexedFaceSet {
        coord
        Coordinate {
          point [
            0.013 5.533 15.821,
            -0.230 5.102 15.486,
            0.003 5.102 15.821,
            -0.219 5.551 15.486,
            0.045 5.962 15.821,
            -0.186 5.999 15.486,
            0.098 6.389 15.821,
            -0.130 6.444 15.486,
            0.171 6.813 15.821,
            -0.052 6.886 15.486,
            0.265 7.233 15.821,
            0.048 7.323 15.486,
            0.380 7.647 15.821,
            0.169 7.755 15.486,
            0.515 8.056 15.821,
            0.312 8.181 15.486,
            0.670 8.457 15.821,
            0.476 8.598 15.486,
            0.844 8.851 15.821,
            0.661 9.007 15.486,
            1.038 9.235 15.821,
            0.866 9.407 15.486,
            1.250 9.610 15.821,
            1.090 9.795 15.486,
            1.480 9.973 15.821,
            1.333 10.172 15.486,
            1.728 10.325 15.821,
            1.595 10.537 15.486,
            1.993 10.664 15.821,
            1.875 10.887 15.486,
            2.274 10.990 15.821,
            2.172 11.224 15.486,
            2.570 11.302 15.821,
            2.485 11.545 15.486,
            2.882 11.598 15.821,
            2.814 11.850 15.486,
            3.208 11.879 15.821,
            3.158 12.139 15.486,
            3.547 12.144 15.821,
            3.516 12.410 15.486,
            3.899 12.392 15.821,
            3.887 12.663 15.486,
            4.262 12.622 15.821,
            4.270 12.897 15.486,
            4.637 12.834 15.821,
            4.664 13.111 15.486,
            5.021 13.028 15.821,
            5.068 13.306 15.486,
            5.415 13.202 15.821,
            5.482 13.480 15.486,
            5.816 13.357 15.821,
            5.903 13.634 15.486,
            6.225 13.492 15.821,
            6.332 13.766 15.486,
            6.639 13.607 15.821,
            6.767 13.877 15.486,
            7.059 13.701 15.821,
            7.207 13.966 15.486,
            7.483 13.774 15.821,
            7.650 14.033 15.486,
            7.910 13.827 15.821,
            8.097 14.077 15.486,
            8.339 13.859 15.821,
            8.545 14.100 15.486,
            8.770 13.869 15.821,
            8.994 14.100 15.486,
            9.200 13.859 15.821,
            9.442 14.077 15.486,
            9.629 13.827 15.821,
            9.889 14.033 15.486,
            10.056 13.774 15.821,
            10.332 13.966 15.486,
            10.480 13.701 15.821,
            10.772 13.877 15.486,
            10.900 13.607 15.821,
            11.207 13.766 15.486,
            11.315 13.492 15.821,
            11.636 13.634 15.486,
            11.723 13.357 15.821,
            12.058 13.480 15.486,
            12.125 13.202 15.821,
            12.471 13.306 15.486,
            12.518 13.028 15.821,
            12.875 13.111 15.486,
            12.902 12.834 15.821,
            13.270 12.897 15.486,
            13.277 12.622 15.821,
            13.653 12.663 15.486,
            13.640 12.392 15.821,
            14.023 12.410 15.486,
            13.992 12.144 15.821,
            14.381 12.139 15.486,
            14.331 11.879 15.821,
            14.725 11.850 15.486,
            14.657 11.598 15.821,
            15.054 11.545 15.486,
            14.969 11.302 15.821,
            15.367 11.224 15.486,
            15.265 10.990 15.821,
            15.664 10.887 15.486,
            15.547 10.664 15.821,
            15.944 10.537 15.486,
            15.811 10.325 15.821,
            16.206 10.172 15.486,
            16.059 9.973 15.821,
            16.449 9.795 15.486,
            16.289 9.610 15.821,
            16.674 9.407 15.486,
            16.501 9.235 15.821,
            16.878 9.007 15.486,
            16.695 8.851 15.821,
            17.063 8.598 15.486,
            16.869 8.457 15.821,
            17.227 8.181 15.486,
            17.024 8.056 15.821,
            17.370 7.755 15.486,
            17.159 7.647 15.821,
            17.491 7.323 15.486,
            17.274 7.233 15.821,
            17.591 6.886 15.486,
            17.368 6.813 15.821,
            17.669 6.444 15.486,
            17.442 6.389 15.821,
            17.725 5.999 15.486,
            17.494 5.962 15.821,
            17.758 5.551 15.486,
            17.526 5.533 15.821,
            17.770 5.102 15.486,
            17.537 5.102 15.821,
            17.509 5.539 13.940,
            17.770 5.102 14.190,
            17.520 5.102 13.940,
            17.758 5.551 14.190,
            17.476 5.974 13.940,
            17.725 5.999 14.190,
            17.422 6.407 13.940,
            17.669 6.444 14.190,
            17.346 6.836 13.940,
            17.591 6.886 14.190,
            17.249 7.262 13.940,
            17.491 7.323 14.190,
            17.131 7.682 13.940,
            17.370 7.755 14.190,
            16.992 8.095 13.940,
            17.227 8.181 14.190,
            16.833 8.501 13.940,
            17.063 8.598 14.190,
            16.653 8.899 13.940,
            16.878 9.007 14.190,
            16.454 9.287 13.940,
            16.674 9.407 14.190,
            16.236 9.665 13.940,
            16.449 9.795 14.190,
            15.999 10.031 13.940,
            16.206 10.172 14.190,
            15.745 10.386 13.940,
            15.944 10.537 14.190,
            15.472 10.727 13.940,
            15.664 10.887 14.190,
            15.184 11.054 13.940,
            15.367 11.224 14.190,
            14.879 11.366 13.940,
            15.054 11.545 14.190,
            14.559 11.663 13.940,
            14.725 11.850 14.190,
            14.225 11.943 13.940,
            14.381 12.139 14.190,
            13.877 12.207 13.940,
            14.023 12.410 14.190,
            13.517 12.453 13.940,
            13.653 12.663 14.190,
            13.145 12.680 13.940,
            13.270 12.897 14.190,
            12.761 12.889 13.940,
            12.875 13.111 14.190,
            12.368 13.078 13.940,
            12.471 13.306 14.190,
            11.966 13.248 13.940,
            12.058 13.480 14.190,
            11.556 13.397 13.940,
            11.636 13.634 14.190,
            11.139 13.525 13.940,
            11.207 13.766 14.190,
            10.717 13.633 13.940,
            10.772 13.877 14.190,
            10.289 13.719 13.940,
            10.332 13.966 14.190,
            9.858 13.784 13.940,
            9.889 14.033 14.190,
            9.423 13.828 13.940,
            9.442 14.077 14.190,
            8.988 13.850 13.940,
            8.994 14.100 14.190,
            8.551 13.850 13.940,
            8.545 14.100 14.190,
            8.116 13.828 13.940,
            8.097 14.077 14.190,
            7.682 13.784 13.940,
            7.650 14.033 14.190,
            7.250 13.719 13.940,
            7.207 13.966 14.190,
            6.823 13.633 13.940,
            6.767 13.877 14.190,
            6.400 13.525 13.940,
            6.332 13.766 14.190,
            5.983 13.397 13.940,
            5.903 13.634 14.190,
            5.482 13.480 14.190,
            5.573 13.248 13.940,
            5.171 13.078 13.940,
            5.068 13.306 14.190,
            4.778 12.889 13.940,
            4.664 13.111 14.190,
            4.395 12.680 13.940,
            4.270 12.897 14.190,
            4.022 12.453 13.940,
            3.887 12.663 14.190,
            3.516 12.410 14.190,
            3.662 12.207 13.940,
            3.158 12.139 14.190,
            3.314 11.943 13.940,
            2.980 11.663 13.940,
            2.814 11.850 14.190,
            2.660 11.366 13.940,
            2.485 11.545 14.190,
            2.172 11.224 14.190,
            2.355 11.054 13.940,
            2.067 10.727 13.940,
            1.875 10.887 14.190,
            1.595 10.537 14.190,
            1.795 10.386 13.940,
            1.540 10.031 13.940,
            1.333 10.172 14.190,
            1.090 9.795 14.190,
            1.303 9.665 13.940,
            1.085 9.287 13.940,
            0.866 9.407 14.190,
            0.661 9.007 14.190,
            0.886 8.899 13.940,
            0.707 8.501 13.940,
            0.476 8.598 14.190,
            0.312 8.181 14.190,
            0.547 8.095 13.940,
            0.169 7.755 14.190,
            0.408 7.682 13.940,
            0.048 7.323 14.190,
            0.290 7.262 13.940,
            -0.052 6.886 14.190,
            0.193 6.836 13.940,
            -0.130 6.444 14.190,
            0.117 6.407 13.940,
            0.063 5.974 13.940,
            -0.186 5.999 14.190,
            -0.219 5.551 14.190,
            0.030 5.539 13.940,
            -0.230 5.102 14.190,
            0.020 5.102 13.940,
            8.770 -2.453 16.226,
            7.910 -3.622 15.821,
            8.339 -3.654 15.821,
            8.770 -3.665 15.821,
            8.770 12.657 16.226,
            6.982 -2.799 16.052,
            5.816 -3.152 15.821,
            6.225 -3.287 15.821,
            6.639 -3.402 15.821,
            7.059 -3.496 15.821,
            7.483 -3.570 15.821,
            6.982 -1.083 16.542,
            8.770 -1.222 16.571,
            8.770 0.024 16.854,
            5.203 -1.894 16.133,
            3.899 -2.187 15.821,
            4.262 -2.417 15.821,
            4.637 -2.629 15.821,
            5.021 -2.823 15.821,
            5.415 -2.997 15.821,
            6.982 0.663 16.911,
            8.770 1.283 17.075,
            5.203 -0.175 16.559,
            6.982 2.430 17.158,
            8.770 2.551 17.233,
            8.770 3.825 17.328,
            3.441 -0.964 16.061,
            2.274 -0.785 15.821,
            2.570 -1.097 15.821,
            2.882 -1.393 15.821,
            3.208 -1.675 15.821,
            3.547 -1.939 15.821,
            5.203 1.570 16.866,
            6.982 4.210 17.282,
            8.770 5.102 17.360,
            3.441 0.748 16.423,
            1.480 0.232 15.821,
            1.728 -0.120 15.821,
            1.993 -0.459 15.821,
            5.203 3.332 17.050,
            6.982 5.995 17.282,
            8.770 6.380 17.328,
            3.441 2.481 16.666,
            5.203 5.102 17.111,
            1.705 1.672 16.133,
            0.515 2.149 15.821,
            0.670 1.747 15.821,
            0.844 1.354 15.821,
            1.038 0.970 15.821,
            1.250 0.595 15.821,
            6.982 7.775 17.158,
            8.770 7.654 17.233,
            8.770 8.922 17.075,
            3.441 4.227 16.787,
            5.203 6.873 17.050,
            1.705 3.383 16.312,
            0.045 4.243 15.821,
            0.098 3.816 15.821,
            0.171 3.392 15.821,
            0.265 2.972 15.821,
            0.380 2.557 15.821,
            6.982 9.542 16.911,
            8.770 10.181 16.854,
            3.441 5.977 16.787,
            5.203 8.635 16.866,
            1.705 5.102 16.372,
            0.013 4.672 15.821,
            6.982 11.288 16.542,
            8.770 11.427 16.571,
            3.441 7.723 16.666,
            5.203 10.380 16.559,
            1.705 6.822 16.312,
            6.982 13.004 16.052,
            3.441 9.457 16.423,
            5.203 12.099 16.133,
            1.705 8.532 16.133,
            3.441 11.169 16.061,
            11.389 13.713 14.538,
            11.269 13.748 14.538,
            11.148 13.782 14.538,
            11.027 13.815 14.538,
            10.958 13.832 14.538,
            11.027 13.815 14.619,
            10.932 13.839 14.538,
            10.907 13.845 14.538,
            10.882 13.851 14.538,
            11.389 13.713 15.331,
            11.321 13.733 15.331,
            11.321 13.733 14.619,
            11.223 13.762 14.619,
            11.125 13.789 14.619,
            11.366 13.720 15.331,
            11.344 13.726 15.331,
            10.647 13.904 14.792,
            10.765 13.879 14.792,
            10.530 13.929 14.792,
            10.297 13.972 14.538,
            10.271 13.976 14.538,
            10.246 13.981 14.538,
            10.412 13.951 14.792,
            10.220 13.985 14.538,
            10.587 13.917 15.331,
            10.590 13.916 15.331,
            10.584 13.918 15.331,
            10.581 13.918 15.331,
            9.928 14.027 14.538,
            9.905 14.031 14.538,
            9.881 14.033 14.538,
            9.858 14.036 14.538,
            10.049 14.011 15.250,
            10.009 14.017 15.250,
            9.969 14.022 15.250,
            10.003 14.017 15.331,
            9.928 14.027 15.250,
            9.321 14.086 14.538,
            9.297 14.087 14.538,
            9.273 14.088 14.538,
            9.249 14.090 14.538,
            9.955 14.024 15.331,
            9.906 14.030 15.331,
            9.858 14.036 15.331,
            9.442 14.077 15.250,
            9.402 14.080 15.250,
            9.361 14.083 15.250,
            9.321 14.086 15.250,
            9.396 14.081 15.331,
            9.347 14.084 15.331,
            9.298 14.087 15.331,
            8.710 14.102 14.538,
            9.249 14.090 15.331,
            8.687 14.102 14.538,
            8.663 14.102 14.538,
            8.639 14.101 14.538,
            8.832 14.102 15.250,
            8.792 14.102 15.250,
            8.751 14.102 15.250,
            8.786 14.102 15.331,
            8.710 14.102 15.250,
            8.228 14.086 14.557,
            8.171 14.082 14.517,
            8.300 14.090 14.986,
            8.294 14.090 14.976,
            8.286 14.089 14.966,
            8.306 14.090 14.995,
            8.276 14.089 14.955,
            8.314 14.091 15.012,
            8.265 14.088 14.943,
            8.320 14.091 15.027,
            8.252 14.088 14.931,
            8.324 14.091 15.040,
            8.238 14.087 14.920,
            8.327 14.092 15.051,
            8.221 14.086 14.909,
            8.213 14.085 14.903,
            8.203 14.085 14.899,
            8.193 14.084 14.894,
            8.334 14.092 15.098,
            8.639 14.101 15.331,
            8.333 14.092 15.087,
            8.182 14.083 14.889,
            8.334 14.092 15.109,
            8.171 14.082 14.886,
            8.160 14.082 14.882,
            8.333 14.092 15.133,
            8.148 14.081 14.880,
            8.331 14.092 15.146,
            8.330 14.092 15.158,
            8.129 14.080 14.876,
            8.327 14.091 15.170,
            8.737 14.102 15.331,
            8.688 14.102 15.331,
            8.323 14.091 15.182,
            8.319 14.091 15.194,
            8.315 14.091 15.206,
            8.309 14.091 15.217,
            8.304 14.090 15.227,
            8.298 14.090 15.237,
            8.292 14.090 15.246,
            8.286 14.089 15.254,
            8.274 14.089 15.269,
            8.261 14.088 15.282,
            8.249 14.087 15.292,
            8.237 14.087 15.301,
            8.226 14.086 15.309,
            7.736 14.043 14.802,
            7.904 14.061 14.912,
            7.928 14.063 14.875,
            7.736 14.043 14.884,
            7.845 14.055 15.042,
            7.851 14.055 15.022,
            7.857 14.056 15.005,
            7.865 14.057 14.983,
            7.874 14.058 14.965,
            7.884 14.059 14.945,
            7.842 14.054 15.057,
            7.839 14.054 15.075,
            7.838 14.054 15.087,
            7.635 14.031 14.802,
            7.837 14.054 15.108,
            8.177 14.083 15.334,
            8.162 14.082 15.339,
            8.149 14.081 15.343,
            8.129 14.080 15.348,
            8.110 14.078 15.350,
            8.096 14.077 15.351,
            8.082 14.076 15.352,
            8.055 14.074 15.350,
            8.042 14.073 15.349,
            8.030 14.072 15.347,
            8.018 14.071 15.344,
            8.005 14.070 15.340,
            8.215 14.085 15.316,
            8.205 14.085 15.322,
            8.195 14.084 15.326,
            7.993 14.069 15.336,
            7.981 14.068 15.331,
            7.971 14.067 15.326,
            7.961 14.066 15.321,
            7.635 14.031 14.884,
            7.838 14.054 15.130,
            7.363 13.992 14.538,
            7.534 14.017 14.802,
            7.337 13.988 14.538,
            7.312 13.984 14.538,
            7.286 13.979 14.538,
            7.433 14.003 14.802,
            7.951 14.065 15.316,
            7.943 14.064 15.310,
            7.927 14.063 15.299,
            7.913 14.062 15.287,
            7.902 14.060 15.275,
            7.892 14.059 15.264,
            7.883 14.059 15.252,
            7.876 14.058 15.242,
            7.870 14.057 15.232,
            7.865 14.057 15.222,
            7.856 14.056 15.204,
            7.850 14.055 15.189,
            7.846 14.055 15.176,
            7.844 14.055 15.165,
            7.840 14.054 15.149,
            7.534 14.017 14.884,
            7.433 14.003 14.884,
            7.049 13.936 14.792,
            7.167 13.959 14.792,
            6.932 13.913 14.792,
            6.700 13.861 14.538,
            6.675 13.855 14.538,
            6.650 13.849 14.538,
            6.814 13.887 14.792,
            6.625 13.843 14.538,
            6.506 13.813 14.538,
            6.989 13.924 15.331,
            6.992 13.925 15.331,
            6.986 13.924 15.331,
            6.437 13.795 14.538,
            6.368 13.776 14.538,
            6.299 13.757 14.538,
            6.284 13.752 14.538,
            6.269 13.748 14.539,
            6.250 13.742 14.541,
            6.231 13.737 14.545,
            6.219 13.733 14.548,
            6.205 13.729 14.552,
            6.188 13.724 14.559,
            6.178 13.721 14.563,
            6.158 13.715 14.574,
            6.168 13.718 14.568,
            6.982 13.923 15.331,
            6.147 13.712 14.582,
            6.136 13.708 14.591,
            6.124 13.705 14.601,
            6.112 13.701 14.614,
            6.099 13.697 14.629,
            6.093 13.695 14.638,
            6.088 13.694 14.647,
            6.082 13.692 14.656,
            6.077 13.690 14.667,
            6.072 13.689 14.677,
            6.068 13.687 14.688,
            6.065 13.686 14.700,
            6.062 13.685 14.711,
            6.060 13.685 14.723,
            6.057 13.684 14.744,
            6.188 13.724 14.976,
            6.203 13.729 14.966,
            6.179 13.722 14.956,
            6.176 13.721 14.986,
            6.161 13.716 14.947,
            6.167 13.718 14.995,
            6.160 13.716 15.002,
            6.148 13.712 14.939,
            6.153 13.714 15.011,
            6.134 13.708 14.930,
            6.145 13.711 15.023,
            6.122 13.704 14.920,
            6.137 13.709 15.038,
            6.112 13.701 14.910,
            6.129 13.706 15.056,
            6.103 13.698 14.900,
            6.125 13.705 15.066,
            6.096 13.696 14.891,
            6.122 13.704 15.077,
            6.089 13.694 14.882,
            6.119 13.703 15.089,
            6.084 13.692 14.873,
            6.117 13.703 15.103,
            6.076 13.690 14.856,
            6.116 13.702 15.115,
            6.057 13.684 14.779,
            6.057 13.684 14.763,
            6.506 13.813 15.331,
            6.456 13.800 15.331,
            6.407 13.787 15.331,
            6.357 13.773 15.331,
            6.325 13.764 15.331,
            6.299 13.757 15.328,
            6.278 13.751 15.326,
            6.262 13.746 15.323,
            6.251 13.743 15.320,
            6.241 13.740 15.318,
            6.223 13.735 15.311,
            6.208 13.730 15.303,
            6.194 13.726 15.295,
            6.182 13.722 15.285,
            6.171 13.719 15.276,
            6.163 13.717 15.267,
            6.155 13.714 15.258,
            6.149 13.712 15.249,
            6.144 13.711 15.241,
            6.135 13.708 15.225,
            6.129 13.706 15.210,
            6.124 13.705 15.198,
            6.121 13.704 15.188,
            6.118 13.703 15.171,
            6.116 13.702 15.155,
            6.115 13.702 15.135,
            6.069 13.688 14.840,
            6.066 13.687 14.829,
            6.061 13.685 14.809,
            6.059 13.684 14.795,
            8.008 14.070 14.880,
            8.036 14.072 14.876,
            8.064 14.075 14.874,
            8.091 14.077 14.873,
            8.110 14.078 14.874,
            8.331 14.092 15.068,
            -0.219 4.654 15.486,
            -0.219 4.654 14.190,
            -0.186 4.206 15.486,
            -0.186 4.206 14.190,
            -0.130 3.761 15.486,
            -0.130 3.761 14.190,
            -0.052 3.319 15.486,
            -0.052 3.319 14.190,
            0.048 2.882 15.486,
            0.048 2.882 14.190,
            0.169 2.450 15.486,
            0.169 2.450 14.190,
            0.312 2.024 15.486,
            0.312 2.024 14.190,
            0.476 1.606 15.486,
            0.476 1.606 14.190,
            0.661 1.197 15.486,
            0.661 1.197 14.190,
            0.866 0.798 15.486,
            0.866 0.798 14.190,
            1.090 0.409 15.486,
            1.090 0.409 14.190,
            1.333 0.033 15.486,
            1.333 0.033 14.190,
            1.595 -0.332 15.486,
            1.595 -0.332 14.190,
            1.875 -0.683 15.486,
            1.875 -0.683 14.190,
            2.172 -1.019 15.486,
            2.172 -1.019 14.190,
            2.485 -1.340 15.486,
            2.485 -1.340 14.190,
            2.814 -1.646 15.486,
            2.814 -1.646 14.190,
            3.158 -1.934 15.486,
            3.158 -1.934 14.190,
            3.516 -2.205 15.486,
            3.516 -2.205 14.190,
            3.887 -2.458 15.486,
            3.887 -2.458 14.190,
            4.270 -2.692 15.486,
            4.270 -2.692 14.190,
            4.664 -2.906 15.486,
            4.664 -2.906 14.190,
            5.068 -3.101 15.486,
            5.068 -3.101 14.190,
            5.482 -3.275 15.486,
            5.482 -3.275 14.190,
            5.903 -3.429 15.486,
            5.903 -3.429 14.190,
            6.332 -3.561 15.486,
            6.332 -3.561 14.190,
            6.767 -3.672 15.486,
            6.767 -3.672 14.190,
            7.207 -3.761 15.486,
            7.207 -3.761 14.190,
            7.650 -3.828 15.486,
            7.650 -3.828 14.190,
            8.097 -3.872 15.486,
            8.097 -3.872 14.190,
            8.545 -3.895 15.486,
            8.545 -3.895 14.190,
            8.994 -3.895 15.486,
            8.994 -3.895 14.190,
            9.442 -3.872 15.486,
            9.442 -3.872 14.190,
            9.889 -3.828 15.486,
            9.889 -3.828 14.190,
            10.332 -3.761 15.486,
            10.332 -3.761 14.190,
            10.772 -3.672 15.486,
            10.772 -3.672 14.190,
            11.207 -3.561 15.486,
            11.207 -3.561 14.190,
            11.636 -3.429 15.486,
            11.636 -3.429 14.190,
            12.058 -3.275 15.486,
            12.058 -3.275 14.190,
            12.471 -3.101 15.486,
            12.471 -3.101 14.190,
            12.875 -2.906 15.486,
            12.875 -2.906 14.190,
            13.270 -2.692 15.486,
            13.270 -2.692 14.190,
            13.653 -2.458 15.486,
            13.653 -2.458 14.190,
            14.023 -2.205 15.486,
            14.023 -2.205 14.190,
            14.381 -1.934 15.486,
            14.381 -1.934 14.190,
            14.725 -1.646 15.486,
            14.725 -1.646 14.190,
            15.054 -1.340 15.486,
            15.054 -1.340 14.190,
            15.367 -1.019 15.486,
            15.367 -1.019 14.190,
            15.664 -0.683 15.486,
            15.664 -0.683 14.190,
            15.944 -0.332 15.486,
            15.944 -0.332 14.190,
            16.206 0.033 15.486,
            16.206 0.033 14.190,
            16.449 0.409 15.486,
            16.449 0.409 14.190,
            16.674 0.798 15.486,
            16.674 0.798 14.190,
            16.878 1.197 15.486,
            16.878 1.197 14.190,
            17.063 1.606 15.486,
            17.063 1.606 14.190,
            17.227 2.024 15.486,
            17.227 2.024 14.190,
            17.370 2.450 15.486,
            17.370 2.450 14.190,
            17.491 2.882 15.486,
            17.491 2.882 14.190,
            17.591 3.319 15.486,
            17.591 3.319 14.190,
            17.669 3.761 15.486,
            17.669 3.761 14.190,
            17.725 4.206 15.486,
            17.725 4.206 14.190,
            17.758 4.654 15.486,
            17.758 4.654 14.190,
            10.586 13.917 15.177,
            10.727 13.887 14.873,
            10.634 13.907 14.873,
            10.542 13.926 14.873,
            10.449 13.944 14.873,
            8.059 14.074 14.956,
            8.111 14.078 14.957,
            8.095 14.077 14.956,
            8.078 14.076 14.955,
            8.042 14.073 14.958,
            8.010 14.070 14.966,
            8.157 14.082 14.969,
            8.145 14.081 14.965,
            8.125 14.079 14.960,
            8.025 14.072 14.961,
            7.995 14.069 14.972,
            8.172 14.083 14.977,
            7.983 14.068 14.979,
            7.972 14.067 14.986,
            8.189 14.084 14.986,
            7.962 14.066 14.994,
            8.198 14.084 14.992,
            7.954 14.065 15.002,
            8.207 14.085 15.000,
            7.946 14.065 15.010,
            8.226 14.086 15.018,
            8.217 14.085 15.008,
            7.935 14.064 15.024,
            8.236 14.087 15.030,
            7.927 14.063 15.037,
            8.245 14.087 15.044,
            7.921 14.062 15.049,
            8.252 14.088 15.059,
            7.917 14.062 15.059,
            7.913 14.062 15.072,
            8.258 14.088 15.077,
            7.910 14.061 15.084,
            8.261 14.088 15.094,
            7.909 14.061 15.097,
            8.263 14.088 15.113,
            7.908 14.061 15.113,
            8.261 14.088 15.132,
            7.909 14.061 15.131,
            7.911 14.061 15.146,
            8.258 14.088 15.150,
            7.917 14.062 15.164,
            8.252 14.088 15.167,
            7.924 14.063 15.180,
            8.242 14.087 15.188,
            8.248 14.087 15.177,
            7.932 14.063 15.193,
            8.233 14.086 15.201,
            7.941 14.064 15.205,
            8.221 14.086 15.215,
            7.951 14.065 15.216,
            8.213 14.085 15.222,
            7.960 14.066 15.224,
            8.204 14.085 15.230,
            7.969 14.067 15.232,
            8.193 14.084 15.238,
            8.069 14.075 15.269,
            8.086 14.076 15.270,
            8.104 14.078 15.269,
            7.977 14.067 15.238,
            8.182 14.083 15.245,
            8.054 14.074 15.268,
            8.122 14.079 15.267,
            7.993 14.069 15.248,
            8.169 14.082 15.252,
            8.039 14.073 15.265,
            8.139 14.080 15.263,
            8.008 14.070 15.255,
            8.155 14.081 15.258,
            8.020 14.071 15.260,
            6.988 13.924 15.177,
            7.129 13.952 14.873,
            7.036 13.934 14.873,
            6.944 13.915 14.873,
            6.851 13.896 14.873,
            6.437 13.795 14.619,
            6.405 13.786 14.619,
            6.372 13.777 14.619,
            6.340 13.768 14.619,
            6.292 13.755 14.621,
            6.270 13.748 14.623,
            6.258 13.745 14.624,
            6.240 13.740 14.628,
            6.224 13.735 14.632,
            6.212 13.731 14.636,
            6.201 13.728 14.641,
            6.190 13.725 14.647,
            6.181 13.722 14.654,
            6.173 13.720 14.660,
            6.437 13.795 14.914,
            6.159 13.715 14.674,
            6.149 13.712 14.686,
            6.142 13.710 14.698,
            6.437 13.795 14.996,
            6.422 13.791 14.914,
            6.422 13.791 14.996,
            6.407 13.787 14.914,
            6.137 13.709 14.708,
            6.407 13.787 14.996,
            6.392 13.783 14.914,
            6.391 13.782 14.996,
            6.344 13.769 14.913,
            6.130 13.707 14.724,
            6.126 13.706 14.743,
            6.345 13.770 14.997,
            6.125 13.705 14.763,
            6.321 13.763 14.999,
            6.303 13.758 14.911,
            6.310 13.760 15.001,
            6.125 13.705 14.777,
            6.292 13.755 15.004,
            6.275 13.750 14.909,
            6.127 13.706 14.790,
            6.278 13.750 15.008,
            6.261 13.746 14.907,
            6.131 13.707 14.805,
            6.136 13.708 14.817,
            6.141 13.710 14.829,
            6.266 13.747 15.012,
            6.249 13.742 14.905,
            6.233 13.737 14.900,
            6.219 13.733 14.895,
            6.255 13.744 15.017,
            6.147 13.712 14.839,
            6.207 13.730 14.890,
            6.245 13.741 15.023,
            6.198 13.727 14.885,
            6.153 13.714 14.847,
            6.188 13.724 14.879,
            6.166 13.718 14.861,
            6.177 13.721 14.871,
            6.236 13.738 15.029,
            6.228 13.736 15.035,
            6.215 13.732 15.048,
            6.437 13.795 15.250,
            6.205 13.729 15.060,
            6.199 13.727 15.071,
            6.194 13.726 15.080,
            6.188 13.724 15.096,
            6.406 13.787 15.250,
            6.375 13.778 15.250,
            6.185 13.723 15.114,
            6.344 13.769 15.250,
            6.183 13.723 15.133,
            6.323 13.764 15.249,
            6.184 13.723 15.150,
            6.304 13.758 15.248,
            6.187 13.724 15.165,
            6.287 13.753 15.245,
            6.192 13.725 15.181,
            6.277 13.750 15.243,
            6.266 13.747 15.240,
            6.199 13.727 15.194,
            6.254 13.744 15.237,
            6.207 13.730 15.205,
            6.240 13.740 15.231,
            6.215 13.732 15.214,
            6.224 13.735 15.221,
            9.200 -3.654 15.821,
            9.629 -3.622 15.821,
            10.056 -3.570 15.821,
            15.834 0.823 15.999,
            15.811 -0.120 15.821,
            16.059 0.232 15.821,
            16.289 0.595 15.821,
            16.501 0.970 15.821,
            16.695 1.354 15.821,
            12.336 -2.742 15.875,
            11.723 -3.152 15.821,
            12.125 -2.997 15.821,
            12.518 -2.823 15.821,
            12.902 -2.629 15.821,
            14.098 -0.111 16.257,
            13.992 -1.939 15.821,
            14.331 -1.675 15.821,
            14.657 -1.393 15.821,
            14.969 -1.097 15.821,
            15.265 -0.785 15.821,
            15.547 -0.459 15.821,
            15.834 2.526 16.237,
            16.869 1.747 15.821,
            17.024 2.149 15.821,
            17.159 2.557 15.821,
            17.274 2.972 15.821,
            17.368 3.392 15.821,
            12.336 -1.038 16.361,
            13.277 -2.417 15.821,
            13.640 -2.187 15.821,
            14.098 1.613 16.559,
            10.557 -1.945 16.312,
            10.480 -3.496 15.821,
            10.900 -3.402 15.821,
            11.315 -3.287 15.821,
            15.834 4.242 16.357,
            17.442 3.816 15.821,
            17.494 4.243 15.821,
            17.526 4.672 15.821,
            12.336 0.695 16.728,
            14.098 3.353 16.741,
            10.557 -0.213 16.741,
            15.834 5.962 16.357,
            12.336 2.449 16.973,
            14.098 5.102 16.802,
            10.557 1.544 17.050,
            15.834 7.678 16.237,
            12.336 4.217 17.096,
            14.098 6.851 16.741,
            10.557 3.319 17.236,
            15.834 9.382 15.999,
            12.336 5.988 17.096,
            14.098 8.592 16.559,
            10.557 5.102 17.298,
            12.336 7.755 16.973,
            14.098 10.316 16.257,
            10.557 6.886 17.236,
            12.336 9.510 16.728,
            10.557 8.661 17.050,
            12.336 11.243 16.361,
            10.557 10.418 16.741,
            12.336 12.947 15.875,
            10.557 12.150 16.312,
            2.660 -1.161 13.940,
            2.067 -0.522 13.940,
            2.980 -1.458 13.940,
            2.355 -0.849 13.940,
            3.662 -2.002 13.940,
            3.314 -1.739 13.940,
            1.795 -0.181 13.940,
            1.540 0.173 13.940,
            1.303 0.540 13.940,
            1.085 0.918 13.940,
            4.022 -2.248 13.940,
            4.778 -2.684 13.940,
            4.395 -2.475 13.940,
            0.886 1.306 13.940,
            5.171 -2.873 13.940,
            5.983 -3.192 13.940,
            5.573 -3.043 13.940,
            0.707 1.704 13.940,
            0.408 2.523 13.940,
            0.547 2.110 13.940,
            7.250 -3.515 13.940,
            6.400 -3.321 13.940,
            6.823 -3.428 13.940,
            7.682 -3.580 13.940,
            8.551 -3.645 13.940,
            8.116 -3.623 13.940,
            0.193 3.369 13.940,
            0.290 2.943 13.940,
            0.117 3.798 13.940,
            0.063 4.231 13.940,
            0.030 4.666 13.940,
            9.423 -3.623 13.940,
            8.988 -3.645 13.940,
            9.858 -3.580 13.940,
            10.717 -3.428 13.940,
            10.289 -3.515 13.940,
            11.556 -3.192 13.940,
            11.139 -3.321 13.940,
            11.966 -3.043 13.940,
            12.761 -2.684 13.940,
            12.368 -2.873 13.940,
            13.517 -2.248 13.940,
            13.145 -2.475 13.940,
            13.877 -2.002 13.940,
            14.559 -1.458 13.940,
            14.225 -1.739 13.940,
            14.879 -1.161 13.940,
            15.184 -0.849 13.940,
            15.745 -0.181 13.940,
            16.236 0.540 13.940,
            15.999 0.173 13.940,
            15.472 -0.522 13.940,
            16.454 0.918 13.940,
            16.833 1.704 13.940,
            16.653 1.306 13.940,
            16.992 2.110 13.940,
            17.131 2.523 13.940,
            17.346 3.369 13.940,
            17.249 2.943 13.940,
            17.422 3.798 13.940,
            17.509 4.666 13.940,
            17.476 4.231 13.940
          ]
        }
        coordIndex [
          0, 1, 2, -1,
          3, 1, 0, -1,
          4, 3, 0, -1,
          5, 3, 4, -1,
          6, 5, 4, -1,
          7, 5, 6, -1,
          8, 7, 6, -1,
          9, 8, 10, -1,
          9, 7, 8, -1,
          11, 10, 12, -1,
          11, 9, 10, -1,
          13, 12, 14, -1,
          13, 11, 12, -1,
          15, 14, 16, -1,
          15, 13, 14, -1,
          17, 16, 18, -1,
          17, 15, 16, -1,
          19, 18, 20, -1,
          19, 17, 18, -1,
          21, 20, 22, -1,
          21, 19, 20, -1,
          23, 22, 24, -1,
          23, 21, 22, -1,
          25, 24, 26, -1,
          25, 23, 24, -1,
          27, 26, 28, -1,
          27, 25, 26, -1,
          29, 28, 30, -1,
          29, 27, 28, -1,
          31, 30, 32, -1,
          31, 29, 30, -1,
          33, 32, 34, -1,
          33, 31, 32, -1,
          35, 33, 34, -1,
          35, 34, 36, -1,
          37, 35, 36, -1,
          37, 36, 38, -1,
          39, 37, 38, -1,
          39, 38, 40, -1,
          41, 40, 42, -1,
          41, 39, 40, -1,
          43, 42, 44, -1,
          43, 41, 42, -1,
          45, 44, 46, -1,
          45, 43, 44, -1,
          47, 46, 48, -1,
          47, 45, 46, -1,
          49, 48, 50, -1,
          49, 47, 48, -1,
          51, 50, 52, -1,
          51, 49, 50, -1,
          53, 52, 54, -1,
          53, 51, 52, -1,
          55, 54, 56, -1,
          55, 53, 54, -1,
          57, 56, 58, -1,
          57, 55, 56, -1,
          59, 57, 58, -1,
          59, 58, 60, -1,
          61, 59, 60, -1,
          61, 60, 62, -1,
          63, 61, 62, -1,
          63, 62, 64, -1,
          65, 64, 66, -1,
          65, 63, 64, -1,
          67, 66, 68, -1,
          67, 65, 66, -1,
          69, 68, 70, -1,
          69, 67, 68, -1,
          71, 70, 72, -1,
          71, 69, 70, -1,
          73, 72, 74, -1,
          73, 71, 72, -1,
          75, 74, 76, -1,
          75, 73, 74, -1,
          77, 76, 78, -1,
          77, 75, 76, -1,
          79, 78, 80, -1,
          79, 77, 78, -1,
          81, 80, 82, -1,
          81, 79, 80, -1,
          83, 82, 84, -1,
          83, 81, 82, -1,
          85, 84, 86, -1,
          85, 83, 84, -1,
          87, 86, 88, -1,
          87, 85, 86, -1,
          89, 87, 88, -1,
          89, 88, 90, -1,
          91, 89, 90, -1,
          91, 90, 92, -1,
          93, 91, 92, -1,
          93, 92, 94, -1,
          95, 94, 96, -1,
          95, 93, 94, -1,
          97, 96, 98, -1,
          97, 95, 96, -1,
          99, 98, 100, -1,
          99, 97, 98, -1,
          101, 100, 102, -1,
          101, 99, 100, -1,
          103, 102, 104, -1,
          103, 101, 102, -1,
          105, 104, 106, -1,
          105, 103, 104, -1,
          107, 106, 108, -1,
          107, 105, 106, -1,
          109, 108, 110, -1,
          109, 107, 108, -1,
          111, 110, 112, -1,
          111, 109, 110, -1,
          113, 112, 114, -1,
          113, 111, 112, -1,
          115, 114, 116, -1,
          115, 113, 114, -1,
          117, 116, 118, -1,
          117, 115, 116, -1,
          119, 118, 120, -1,
          119, 117, 118, -1,
          121, 120, 122, -1,
          121, 119, 120, -1,
          123, 122, 124, -1,
          123, 121, 122, -1,
          125, 124, 126, -1,
          125, 123, 124, -1,
          127, 126, 128, -1,
          127, 125, 126, -1,
          129, 130, 131, -1,
          132, 130, 129, -1,
          133, 132, 129, -1,
          134, 132, 133, -1,
          135, 134, 133, -1,
          136, 134, 135, -1,
          137, 136, 135, -1,
          138, 136, 137, -1,
          139, 138, 137, -1,
          140, 138, 139, -1,
          141, 140, 139, -1,
          142, 140, 141, -1,
          143, 142, 141, -1,
          144, 142, 143, -1,
          145, 144, 143, -1,
          146, 144, 145, -1,
          147, 146, 145, -1,
          148, 146, 147, -1,
          149, 148, 147, -1,
          150, 148, 149, -1,
          151, 150, 149, -1,
          152, 150, 151, -1,
          153, 152, 151, -1,
          154, 152, 153, -1,
          155, 154, 153, -1,
          156, 154, 155, -1,
          157, 156, 155, -1,
          158, 156, 157, -1,
          159, 158, 157, -1,
          160, 158, 159, -1,
          161, 160, 159, -1,
          162, 160, 161, -1,
          163, 162, 161, -1,
          164, 162, 163, -1,
          165, 164, 163, -1,
          166, 164, 165, -1,
          167, 166, 165, -1,
          168, 166, 167, -1,
          169, 168, 167, -1,
          170, 168, 169, -1,
          171, 170, 169, -1,
          172, 170, 171, -1,
          173, 172, 171, -1,
          174, 172, 173, -1,
          175, 174, 173, -1,
          176, 174, 175, -1,
          177, 176, 175, -1,
          178, 176, 177, -1,
          179, 178, 177, -1,
          180, 178, 179, -1,
          181, 180, 179, -1,
          182, 180, 181, -1,
          183, 182, 181, -1,
          184, 182, 183, -1,
          185, 184, 183, -1,
          186, 184, 185, -1,
          187, 186, 185, -1,
          188, 186, 187, -1,
          189, 188, 187, -1,
          190, 188, 189, -1,
          191, 190, 189, -1,
          192, 190, 191, -1,
          193, 192, 191, -1,
          194, 192, 193, -1,
          195, 194, 193, -1,
          196, 194, 195, -1,
          197, 196, 195, -1,
          198, 196, 197, -1,
          199, 198, 197, -1,
          200, 198, 199, -1,
          201, 200, 199, -1,
          202, 200, 201, -1,
          203, 202, 201, -1,
          204, 202, 203, -1,
          205, 204, 203, -1,
          206, 204, 205, -1,
          207, 205, 208, -1,
          207, 206, 205, -1,
          209, 207, 208, -1,
          210, 207, 209, -1,
          211, 210, 209, -1,
          212, 210, 211, -1,
          213, 212, 211, -1,
          214, 212, 213, -1,
          215, 214, 213, -1,
          216, 214, 215, -1,
          217, 216, 215, -1,
          217, 215, 218, -1,
          219, 217, 218, -1,
          219, 218, 220, -1,
          221, 219, 220, -1,
          222, 219, 221, -1,
          223, 222, 221, -1,
          224, 222, 223, -1,
          225, 223, 226, -1,
          225, 224, 223, -1,
          227, 225, 226, -1,
          228, 225, 227, -1,
          229, 227, 230, -1,
          229, 228, 227, -1,
          231, 229, 230, -1,
          232, 229, 231, -1,
          233, 231, 234, -1,
          233, 232, 231, -1,
          235, 233, 234, -1,
          236, 233, 235, -1,
          237, 235, 238, -1,
          237, 236, 235, -1,
          239, 237, 238, -1,
          240, 237, 239, -1,
          241, 239, 242, -1,
          241, 240, 239, -1,
          243, 242, 244, -1,
          243, 241, 242, -1,
          245, 244, 246, -1,
          245, 243, 244, -1,
          247, 246, 248, -1,
          247, 245, 246, -1,
          249, 248, 250, -1,
          249, 247, 248, -1,
          251, 249, 250, -1,
          252, 249, 251, -1,
          253, 251, 254, -1,
          253, 252, 251, -1,
          255, 254, 256, -1,
          255, 253, 254, -1,
          257, 258, 259, -1,
          257, 259, 260, -1,
          62, 261, 64, -1,
          60, 261, 62, -1,
          262, 263, 264, -1,
          262, 264, 265, -1,
          262, 265, 266, -1,
          262, 266, 267, -1,
          262, 267, 258, -1,
          262, 258, 257, -1,
          268, 262, 257, -1,
          268, 257, 269, -1,
          268, 269, 270, -1,
          271, 262, 268, -1,
          271, 272, 273, -1,
          271, 273, 274, -1,
          271, 274, 275, -1,
          271, 275, 276, -1,
          271, 276, 263, -1,
          271, 263, 262, -1,
          277, 270, 278, -1,
          277, 268, 270, -1,
          279, 271, 268, -1,
          279, 268, 277, -1,
          280, 278, 281, -1,
          280, 281, 282, -1,
          280, 277, 278, -1,
          283, 271, 279, -1,
          283, 272, 271, -1,
          283, 284, 285, -1,
          283, 285, 286, -1,
          283, 286, 287, -1,
          283, 287, 288, -1,
          283, 288, 272, -1,
          289, 277, 280, -1,
          289, 279, 277, -1,
          290, 282, 291, -1,
          290, 280, 282, -1,
          292, 283, 279, -1,
          292, 284, 283, -1,
          292, 293, 294, -1,
          292, 294, 295, -1,
          292, 295, 284, -1,
          292, 279, 289, -1,
          296, 289, 280, -1,
          296, 280, 290, -1,
          297, 291, 298, -1,
          297, 290, 291, -1,
          299, 292, 289, -1,
          299, 289, 296, -1,
          300, 296, 290, -1,
          300, 290, 297, -1,
          301, 292, 299, -1,
          301, 302, 303, -1,
          301, 303, 304, -1,
          301, 304, 305, -1,
          301, 305, 306, -1,
          301, 306, 293, -1,
          301, 293, 292, -1,
          307, 308, 309, -1,
          307, 298, 308, -1,
          307, 297, 298, -1,
          310, 299, 296, -1,
          310, 296, 300, -1,
          311, 300, 297, -1,
          311, 297, 307, -1,
          312, 299, 310, -1,
          312, 313, 314, -1,
          312, 314, 315, -1,
          312, 315, 316, -1,
          312, 316, 317, -1,
          312, 317, 302, -1,
          312, 302, 301, -1,
          312, 301, 299, -1,
          318, 307, 309, -1,
          318, 309, 319, -1,
          320, 300, 311, -1,
          320, 310, 300, -1,
          321, 307, 318, -1,
          321, 311, 307, -1,
          322, 310, 320, -1,
          322, 312, 310, -1,
          322, 4, 0, -1,
          322, 0, 2, -1,
          322, 2, 323, -1,
          322, 323, 313, -1,
          322, 313, 312, -1,
          324, 318, 319, -1,
          324, 325, 261, -1,
          324, 319, 325, -1,
          326, 311, 321, -1,
          326, 320, 311, -1,
          327, 318, 324, -1,
          327, 321, 318, -1,
          328, 320, 326, -1,
          328, 14, 12, -1,
          328, 12, 10, -1,
          328, 10, 8, -1,
          328, 8, 6, -1,
          328, 6, 4, -1,
          328, 322, 320, -1,
          328, 4, 322, -1,
          329, 60, 58, -1,
          329, 58, 56, -1,
          329, 56, 54, -1,
          329, 54, 52, -1,
          329, 52, 50, -1,
          329, 261, 60, -1,
          329, 324, 261, -1,
          330, 321, 327, -1,
          330, 30, 28, -1,
          330, 28, 26, -1,
          330, 26, 24, -1,
          330, 326, 321, -1,
          331, 50, 48, -1,
          331, 48, 46, -1,
          331, 46, 44, -1,
          331, 44, 42, -1,
          331, 327, 324, -1,
          331, 42, 40, -1,
          331, 329, 50, -1,
          331, 324, 329, -1,
          332, 14, 328, -1,
          332, 24, 22, -1,
          332, 22, 20, -1,
          332, 20, 18, -1,
          332, 18, 16, -1,
          332, 16, 14, -1,
          332, 326, 330, -1,
          332, 330, 24, -1,
          332, 328, 326, -1,
          333, 40, 38, -1,
          333, 38, 36, -1,
          333, 36, 34, -1,
          333, 34, 32, -1,
          333, 32, 30, -1,
          333, 331, 40, -1,
          333, 30, 330, -1,
          333, 330, 327, -1,
          333, 327, 331, -1,
          125, 130, 132, -1,
          125, 127, 130, -1,
          123, 132, 134, -1,
          123, 125, 132, -1,
          121, 134, 136, -1,
          121, 123, 134, -1,
          119, 136, 138, -1,
          119, 121, 136, -1,
          117, 138, 140, -1,
          117, 119, 138, -1,
          115, 140, 142, -1,
          115, 117, 140, -1,
          113, 142, 144, -1,
          113, 115, 142, -1,
          111, 144, 146, -1,
          111, 113, 144, -1,
          109, 146, 148, -1,
          109, 111, 146, -1,
          107, 148, 150, -1,
          107, 109, 148, -1,
          105, 150, 152, -1,
          105, 107, 150, -1,
          103, 152, 154, -1,
          103, 105, 152, -1,
          101, 154, 156, -1,
          101, 103, 154, -1,
          99, 156, 158, -1,
          99, 158, 160, -1,
          99, 101, 156, -1,
          97, 99, 160, -1,
          95, 160, 162, -1,
          95, 162, 164, -1,
          95, 97, 160, -1,
          93, 164, 166, -1,
          93, 95, 164, -1,
          91, 166, 168, -1,
          91, 93, 166, -1,
          89, 91, 168, -1,
          87, 168, 170, -1,
          87, 170, 172, -1,
          87, 89, 168, -1,
          85, 172, 174, -1,
          85, 87, 172, -1,
          83, 85, 174, -1,
          81, 174, 176, -1,
          81, 176, 178, -1,
          81, 83, 174, -1,
          79, 81, 178, -1,
          334, 180, 182, -1,
          335, 334, 182, -1,
          336, 335, 182, -1,
          337, 336, 182, -1,
          77, 180, 334, -1,
          77, 178, 180, -1,
          77, 79, 178, -1,
          338, 337, 182, -1,
          338, 182, 184, -1,
          338, 339, 337, -1,
          340, 338, 184, -1,
          341, 340, 184, -1,
          342, 341, 184, -1,
          343, 77, 334, -1,
          344, 345, 346, -1,
          344, 346, 347, -1,
          344, 347, 339, -1,
          75, 344, 339, -1,
          75, 343, 348, -1,
          75, 348, 349, -1,
          75, 349, 344, -1,
          75, 77, 343, -1,
          350, 342, 184, -1,
          350, 351, 342, -1,
          352, 184, 186, -1,
          352, 350, 184, -1,
          353, 352, 186, -1,
          354, 353, 186, -1,
          355, 354, 186, -1,
          356, 352, 353, -1,
          357, 355, 186, -1,
          188, 357, 186, -1,
          358, 73, 359, -1,
          360, 73, 358, -1,
          361, 73, 360, -1,
          362, 357, 188, -1,
          363, 362, 188, -1,
          364, 363, 188, -1,
          365, 364, 188, -1,
          190, 365, 188, -1,
          71, 73, 361, -1,
          366, 357, 362, -1,
          367, 366, 362, -1,
          368, 367, 362, -1,
          369, 71, 366, -1,
          370, 368, 362, -1,
          371, 365, 190, -1,
          372, 371, 190, -1,
          373, 372, 190, -1,
          374, 373, 190, -1,
          192, 374, 190, -1,
          69, 369, 375, -1,
          69, 375, 376, -1,
          69, 376, 377, -1,
          69, 71, 369, -1,
          378, 377, 365, -1,
          378, 365, 371, -1,
          379, 378, 371, -1,
          380, 379, 371, -1,
          381, 380, 371, -1,
          67, 377, 378, -1,
          67, 378, 382, -1,
          67, 382, 383, -1,
          67, 69, 377, -1,
          384, 67, 383, -1,
          385, 374, 192, -1,
          385, 192, 194, -1,
          386, 67, 384, -1,
          387, 385, 194, -1,
          388, 387, 194, -1,
          389, 388, 194, -1,
          390, 374, 385, -1,
          390, 386, 374, -1,
          65, 67, 386, -1,
          65, 386, 390, -1,
          391, 390, 385, -1,
          392, 391, 385, -1,
          393, 65, 390, -1,
          394, 392, 385, -1,
          395, 194, 196, -1,
          395, 389, 194, -1,
          396, 395, 196, -1,
          397, 389, 398, -1,
          399, 389, 395, -1,
          399, 398, 389, -1,
          400, 389, 397, -1,
          401, 399, 395, -1,
          402, 389, 400, -1,
          403, 401, 395, -1,
          404, 389, 402, -1,
          405, 403, 395, -1,
          406, 389, 404, -1,
          407, 405, 395, -1,
          408, 389, 406, -1,
          409, 407, 395, -1,
          410, 409, 395, -1,
          411, 410, 395, -1,
          412, 411, 395, -1,
          413, 414, 415, -1,
          416, 412, 395, -1,
          417, 414, 413, -1,
          418, 416, 395, -1,
          419, 418, 395, -1,
          420, 414, 417, -1,
          421, 419, 395, -1,
          422, 414, 420, -1,
          423, 414, 422, -1,
          424, 421, 395, -1,
          425, 414, 423, -1,
          63, 393, 426, -1,
          63, 426, 427, -1,
          63, 427, 414, -1,
          63, 65, 393, -1,
          428, 63, 414, -1,
          428, 414, 425, -1,
          429, 63, 428, -1,
          430, 63, 429, -1,
          431, 63, 430, -1,
          432, 63, 431, -1,
          433, 63, 432, -1,
          434, 63, 433, -1,
          435, 63, 434, -1,
          436, 63, 435, -1,
          437, 63, 436, -1,
          438, 63, 437, -1,
          439, 63, 438, -1,
          440, 63, 439, -1,
          441, 196, 198, -1,
          441, 442, 443, -1,
          441, 443, 396, -1,
          441, 396, 196, -1,
          444, 442, 441, -1,
          444, 445, 446, -1,
          444, 446, 447, -1,
          444, 447, 448, -1,
          444, 448, 449, -1,
          444, 449, 450, -1,
          444, 450, 442, -1,
          451, 445, 444, -1,
          452, 451, 444, -1,
          453, 452, 444, -1,
          454, 441, 198, -1,
          455, 453, 444, -1,
          61, 456, 457, -1,
          61, 457, 458, -1,
          61, 458, 459, -1,
          61, 459, 460, -1,
          61, 460, 461, -1,
          61, 461, 462, -1,
          61, 462, 463, -1,
          61, 463, 464, -1,
          61, 464, 465, -1,
          61, 465, 466, -1,
          61, 466, 467, -1,
          61, 63, 440, -1,
          61, 440, 468, -1,
          61, 468, 469, -1,
          61, 469, 470, -1,
          61, 470, 456, -1,
          471, 61, 467, -1,
          472, 61, 471, -1,
          473, 61, 472, -1,
          474, 61, 473, -1,
          475, 455, 444, -1,
          475, 476, 455, -1,
          477, 198, 200, -1,
          478, 198, 477, -1,
          478, 454, 198, -1,
          479, 477, 200, -1,
          480, 479, 200, -1,
          481, 480, 200, -1,
          482, 478, 477, -1,
          59, 474, 483, -1,
          59, 483, 484, -1,
          59, 484, 485, -1,
          59, 485, 486, -1,
          59, 486, 487, -1,
          59, 487, 488, -1,
          59, 488, 489, -1,
          59, 489, 490, -1,
          59, 490, 491, -1,
          59, 491, 492, -1,
          59, 492, 493, -1,
          59, 493, 494, -1,
          59, 494, 495, -1,
          59, 495, 496, -1,
          59, 496, 497, -1,
          59, 497, 476, -1,
          59, 61, 474, -1,
          59, 475, 498, -1,
          59, 498, 499, -1,
          59, 476, 475, -1,
          500, 501, 481, -1,
          500, 481, 200, -1,
          502, 200, 202, -1,
          502, 500, 200, -1,
          503, 502, 202, -1,
          504, 503, 202, -1,
          505, 504, 202, -1,
          506, 502, 503, -1,
          507, 505, 202, -1,
          57, 59, 499, -1,
          508, 507, 202, -1,
          508, 202, 204, -1,
          509, 57, 510, -1,
          511, 57, 509, -1,
          512, 508, 204, -1,
          513, 512, 204, -1,
          514, 513, 204, -1,
          515, 514, 204, -1,
          516, 515, 204, -1,
          517, 516, 204, -1,
          518, 517, 204, -1,
          519, 518, 204, -1,
          520, 519, 204, -1,
          521, 520, 204, -1,
          522, 521, 204, -1,
          206, 523, 524, -1,
          206, 524, 522, -1,
          206, 522, 204, -1,
          55, 57, 511, -1,
          55, 511, 525, -1,
          526, 523, 206, -1,
          527, 526, 206, -1,
          528, 527, 206, -1,
          529, 528, 206, -1,
          530, 529, 206, -1,
          531, 530, 206, -1,
          532, 531, 206, -1,
          533, 532, 206, -1,
          534, 533, 206, -1,
          535, 534, 206, -1,
          536, 535, 206, -1,
          537, 536, 206, -1,
          538, 537, 206, -1,
          539, 538, 206, -1,
          540, 539, 206, -1,
          541, 542, 543, -1,
          544, 541, 543, -1,
          544, 543, 545, -1,
          546, 544, 545, -1,
          547, 546, 545, -1,
          547, 545, 548, -1,
          549, 547, 548, -1,
          549, 548, 550, -1,
          551, 549, 550, -1,
          551, 550, 552, -1,
          553, 551, 552, -1,
          553, 552, 554, -1,
          555, 553, 554, -1,
          555, 554, 556, -1,
          557, 555, 556, -1,
          557, 556, 558, -1,
          559, 557, 558, -1,
          559, 558, 560, -1,
          561, 559, 560, -1,
          561, 560, 562, -1,
          563, 562, 564, -1,
          563, 561, 562, -1,
          565, 563, 564, -1,
          207, 540, 206, -1,
          207, 566, 567, -1,
          207, 567, 540, -1,
          53, 568, 569, -1,
          53, 569, 570, -1,
          53, 570, 571, -1,
          53, 571, 572, -1,
          53, 572, 573, -1,
          53, 573, 574, -1,
          53, 574, 575, -1,
          53, 575, 576, -1,
          53, 576, 577, -1,
          53, 577, 578, -1,
          53, 55, 568, -1,
          579, 53, 578, -1,
          51, 565, 564, -1,
          51, 579, 580, -1,
          51, 580, 581, -1,
          51, 581, 582, -1,
          51, 582, 583, -1,
          51, 583, 584, -1,
          51, 584, 585, -1,
          51, 585, 586, -1,
          51, 586, 587, -1,
          51, 587, 588, -1,
          51, 588, 589, -1,
          51, 589, 590, -1,
          51, 590, 591, -1,
          51, 591, 592, -1,
          51, 592, 593, -1,
          51, 593, 565, -1,
          51, 53, 579, -1,
          51, 564, 594, -1,
          51, 594, 595, -1,
          51, 595, 596, -1,
          49, 207, 210, -1,
          49, 566, 207, -1,
          49, 596, 597, -1,
          49, 597, 566, -1,
          49, 51, 596, -1,
          47, 49, 210, -1,
          45, 47, 210, -1,
          45, 210, 212, -1,
          43, 45, 212, -1,
          43, 212, 214, -1,
          43, 214, 216, -1,
          41, 43, 216, -1,
          41, 216, 217, -1,
          39, 41, 217, -1,
          37, 39, 217, -1,
          37, 217, 219, -1,
          35, 37, 219, -1,
          35, 219, 222, -1,
          33, 35, 222, -1,
          33, 222, 224, -1,
          31, 33, 224, -1,
          31, 224, 225, -1,
          29, 31, 225, -1,
          29, 225, 228, -1,
          27, 29, 228, -1,
          27, 228, 229, -1,
          25, 27, 229, -1,
          25, 229, 232, -1,
          23, 25, 232, -1,
          23, 232, 233, -1,
          21, 23, 233, -1,
          21, 233, 236, -1,
          19, 21, 236, -1,
          19, 236, 237, -1,
          19, 237, 240, -1,
          17, 19, 240, -1,
          15, 240, 241, -1,
          15, 17, 240, -1,
          13, 241, 243, -1,
          13, 15, 241, -1,
          11, 243, 245, -1,
          11, 13, 243, -1,
          9, 245, 247, -1,
          9, 11, 245, -1,
          7, 247, 249, -1,
          7, 9, 247, -1,
          5, 249, 252, -1,
          5, 7, 249, -1,
          3, 252, 253, -1,
          3, 253, 255, -1,
          3, 5, 252, -1,
          1, 3, 255, -1,
          477, 510, 482, -1,
          482, 510, 499, -1,
          499, 510, 57, -1,
          525, 507, 508, -1,
          525, 508, 55, -1,
          55, 508, 568, -1,
          395, 598, 599, -1,
          395, 599, 600, -1,
          395, 600, 601, -1,
          395, 601, 602, -1,
          395, 602, 424, -1,
          414, 389, 415, -1,
          415, 389, 603, -1,
          603, 389, 408, -1,
          338, 359, 339, -1,
          339, 359, 73, -1,
          339, 73, 75, -1,
          361, 357, 71, -1,
          71, 357, 366, -1,
          604, 1, 255, -1,
          604, 255, 605, -1,
          606, 605, 607, -1,
          606, 604, 605, -1,
          608, 607, 609, -1,
          608, 606, 607, -1,
          610, 609, 611, -1,
          610, 608, 609, -1,
          612, 611, 613, -1,
          612, 610, 611, -1,
          614, 613, 615, -1,
          614, 612, 613, -1,
          616, 615, 617, -1,
          616, 614, 615, -1,
          618, 617, 619, -1,
          618, 616, 617, -1,
          620, 619, 621, -1,
          620, 618, 619, -1,
          622, 621, 623, -1,
          622, 620, 621, -1,
          624, 623, 625, -1,
          624, 622, 623, -1,
          626, 625, 627, -1,
          626, 624, 625, -1,
          628, 627, 629, -1,
          628, 626, 627, -1,
          630, 629, 631, -1,
          630, 628, 629, -1,
          632, 631, 633, -1,
          632, 630, 631, -1,
          634, 633, 635, -1,
          634, 632, 633, -1,
          636, 635, 637, -1,
          636, 634, 635, -1,
          638, 637, 639, -1,
          638, 636, 637, -1,
          640, 638, 639, -1,
          640, 639, 641, -1,
          642, 640, 641, -1,
          642, 641, 643, -1,
          644, 642, 643, -1,
          644, 643, 645, -1,
          646, 644, 645, -1,
          646, 645, 647, -1,
          648, 647, 649, -1,
          648, 646, 647, -1,
          650, 649, 651, -1,
          650, 648, 649, -1,
          652, 651, 653, -1,
          652, 650, 651, -1,
          654, 653, 655, -1,
          654, 652, 653, -1,
          656, 655, 657, -1,
          656, 654, 655, -1,
          658, 657, 659, -1,
          658, 656, 657, -1,
          660, 659, 661, -1,
          660, 658, 659, -1,
          662, 661, 663, -1,
          662, 660, 661, -1,
          664, 663, 665, -1,
          664, 662, 663, -1,
          666, 665, 667, -1,
          666, 664, 665, -1,
          668, 667, 669, -1,
          668, 666, 667, -1,
          670, 669, 671, -1,
          670, 668, 669, -1,
          672, 671, 673, -1,
          672, 670, 671, -1,
          674, 673, 675, -1,
          674, 672, 673, -1,
          676, 675, 677, -1,
          676, 674, 675, -1,
          678, 677, 679, -1,
          678, 676, 677, -1,
          680, 679, 681, -1,
          680, 678, 679, -1,
          682, 681, 683, -1,
          682, 680, 681, -1,
          684, 683, 685, -1,
          684, 682, 683, -1,
          686, 685, 687, -1,
          686, 684, 685, -1,
          688, 686, 687, -1,
          688, 687, 689, -1,
          690, 688, 689, -1,
          690, 689, 691, -1,
          692, 690, 691, -1,
          692, 691, 693, -1,
          694, 692, 693, -1,
          694, 693, 695, -1,
          696, 694, 695, -1,
          696, 695, 697, -1,
          698, 696, 697, -1,
          698, 697, 699, -1,
          700, 698, 699, -1,
          700, 699, 701, -1,
          702, 700, 701, -1,
          702, 701, 703, -1,
          704, 702, 703, -1,
          704, 703, 705, -1,
          706, 704, 705, -1,
          706, 705, 707, -1,
          708, 706, 707, -1,
          708, 707, 709, -1,
          710, 708, 709, -1,
          710, 709, 711, -1,
          712, 710, 711, -1,
          712, 711, 713, -1,
          714, 712, 713, -1,
          714, 713, 715, -1,
          716, 715, 717, -1,
          716, 714, 715, -1,
          718, 717, 719, -1,
          718, 716, 717, -1,
          720, 719, 721, -1,
          720, 718, 719, -1,
          722, 721, 723, -1,
          722, 720, 721, -1,
          724, 723, 725, -1,
          724, 722, 723, -1,
          726, 725, 727, -1,
          726, 724, 725, -1,
          127, 727, 130, -1,
          127, 726, 727, -1,
          728, 729, 730, -1,
          728, 730, 731, -1,
          728, 731, 732, -1,
          345, 334, 335, -1,
          346, 335, 336, -1,
          346, 345, 335, -1,
          347, 346, 336, -1,
          337, 347, 336, -1,
          339, 347, 337, -1,
          343, 334, 345, -1,
          348, 343, 345, -1,
          349, 348, 345, -1,
          344, 349, 345, -1,
          351, 338, 340, -1,
          351, 340, 341, -1,
          351, 341, 342, -1,
          729, 351, 350, -1,
          729, 338, 351, -1,
          730, 729, 350, -1,
          352, 730, 350, -1,
          731, 730, 352, -1,
          356, 353, 354, -1,
          356, 354, 355, -1,
          356, 355, 357, -1,
          732, 352, 356, -1,
          732, 356, 357, -1,
          732, 731, 352, -1,
          359, 729, 728, -1,
          359, 338, 729, -1,
          358, 359, 728, -1,
          360, 358, 728, -1,
          361, 728, 732, -1,
          361, 360, 728, -1,
          361, 732, 357, -1,
          370, 362, 363, -1,
          370, 363, 364, -1,
          370, 364, 365, -1,
          369, 366, 367, -1,
          369, 367, 368, -1,
          375, 368, 370, -1,
          375, 369, 368, -1,
          376, 375, 370, -1,
          377, 370, 365, -1,
          377, 376, 370, -1,
          381, 371, 372, -1,
          381, 372, 373, -1,
          381, 373, 374, -1,
          382, 378, 379, -1,
          382, 379, 380, -1,
          383, 380, 381, -1,
          383, 382, 380, -1,
          384, 383, 381, -1,
          386, 381, 374, -1,
          386, 384, 381, -1,
          733, 734, 735, -1,
          733, 735, 736, -1,
          737, 734, 733, -1,
          738, 739, 740, -1,
          738, 740, 741, -1,
          738, 741, 734, -1,
          738, 737, 742, -1,
          738, 734, 737, -1,
          743, 744, 739, -1,
          743, 739, 738, -1,
          745, 744, 743, -1,
          746, 747, 744, -1,
          746, 744, 745, -1,
          748, 747, 746, -1,
          748, 749, 747, -1,
          750, 749, 748, -1,
          750, 751, 749, -1,
          752, 751, 750, -1,
          752, 753, 754, -1,
          752, 754, 751, -1,
          755, 753, 752, -1,
          755, 756, 753, -1,
          757, 758, 756, -1,
          757, 756, 755, -1,
          759, 760, 758, -1,
          759, 758, 757, -1,
          761, 760, 759, -1,
          762, 763, 760, -1,
          762, 760, 761, -1,
          764, 765, 763, -1,
          764, 763, 762, -1,
          766, 767, 765, -1,
          766, 765, 764, -1,
          768, 769, 767, -1,
          768, 767, 766, -1,
          770, 769, 768, -1,
          771, 772, 769, -1,
          771, 769, 770, -1,
          773, 774, 772, -1,
          773, 772, 771, -1,
          775, 776, 777, -1,
          775, 777, 774, -1,
          775, 774, 773, -1,
          778, 779, 776, -1,
          778, 776, 775, -1,
          780, 781, 779, -1,
          780, 779, 778, -1,
          782, 783, 781, -1,
          782, 781, 780, -1,
          784, 785, 783, -1,
          784, 783, 782, -1,
          786, 787, 785, -1,
          786, 785, 784, -1,
          788, 789, 790, -1,
          791, 792, 787, -1,
          791, 787, 786, -1,
          793, 790, 794, -1,
          793, 788, 790, -1,
          795, 796, 792, -1,
          795, 792, 791, -1,
          797, 794, 798, -1,
          797, 793, 794, -1,
          799, 796, 795, -1,
          799, 800, 796, -1,
          801, 798, 800, -1,
          801, 797, 798, -1,
          801, 800, 799, -1,
          394, 385, 387, -1,
          394, 387, 388, -1,
          394, 388, 389, -1,
          393, 390, 391, -1,
          393, 391, 392, -1,
          426, 392, 394, -1,
          426, 393, 392, -1,
          427, 426, 394, -1,
          414, 394, 389, -1,
          414, 427, 394, -1,
          754, 399, 401, -1,
          751, 401, 403, -1,
          751, 754, 401, -1,
          753, 398, 399, -1,
          753, 397, 398, -1,
          753, 399, 754, -1,
          749, 751, 403, -1,
          749, 403, 405, -1,
          747, 749, 405, -1,
          747, 405, 407, -1,
          756, 397, 753, -1,
          756, 400, 397, -1,
          758, 400, 756, -1,
          758, 402, 400, -1,
          758, 404, 402, -1,
          744, 747, 407, -1,
          744, 410, 411, -1,
          744, 409, 410, -1,
          744, 407, 409, -1,
          739, 744, 411, -1,
          739, 412, 416, -1,
          739, 411, 412, -1,
          760, 404, 758, -1,
          760, 406, 404, -1,
          760, 408, 406, -1,
          740, 739, 416, -1,
          740, 418, 419, -1,
          740, 416, 418, -1,
          763, 408, 760, -1,
          763, 603, 408, -1,
          741, 740, 419, -1,
          741, 421, 424, -1,
          741, 419, 421, -1,
          765, 415, 603, -1,
          765, 413, 415, -1,
          765, 603, 763, -1,
          734, 741, 424, -1,
          734, 424, 602, -1,
          735, 734, 602, -1,
          735, 602, 601, -1,
          767, 420, 417, -1,
          767, 413, 765, -1,
          767, 417, 413, -1,
          736, 735, 601, -1,
          736, 601, 600, -1,
          769, 422, 420, -1,
          769, 423, 422, -1,
          769, 420, 767, -1,
          733, 736, 600, -1,
          733, 600, 599, -1,
          772, 425, 423, -1,
          772, 428, 425, -1,
          772, 423, 769, -1,
          737, 733, 599, -1,
          737, 599, 598, -1,
          774, 428, 772, -1,
          774, 429, 428, -1,
          742, 737, 598, -1,
          443, 598, 396, -1,
          777, 430, 429, -1,
          777, 431, 430, -1,
          777, 429, 774, -1,
          738, 742, 598, -1,
          776, 432, 431, -1,
          776, 431, 777, -1,
          743, 738, 598, -1,
          779, 433, 432, -1,
          779, 434, 433, -1,
          779, 432, 776, -1,
          435, 434, 779, -1,
          442, 745, 743, -1,
          442, 598, 443, -1,
          442, 743, 598, -1,
          781, 435, 779, -1,
          746, 745, 442, -1,
          436, 435, 781, -1,
          783, 436, 781, -1,
          437, 436, 783, -1,
          785, 437, 783, -1,
          450, 748, 746, -1,
          450, 750, 748, -1,
          450, 746, 442, -1,
          438, 785, 787, -1,
          438, 437, 785, -1,
          439, 787, 792, -1,
          439, 438, 787, -1,
          449, 750, 450, -1,
          449, 752, 750, -1,
          440, 439, 792, -1,
          448, 752, 449, -1,
          448, 755, 752, -1,
          468, 792, 796, -1,
          468, 440, 792, -1,
          469, 468, 796, -1,
          447, 757, 755, -1,
          447, 755, 448, -1,
          470, 796, 800, -1,
          470, 469, 796, -1,
          446, 759, 757, -1,
          446, 757, 447, -1,
          456, 800, 798, -1,
          456, 470, 800, -1,
          445, 761, 759, -1,
          445, 759, 446, -1,
          457, 456, 798, -1,
          451, 762, 761, -1,
          451, 761, 445, -1,
          458, 798, 794, -1,
          458, 457, 798, -1,
          452, 762, 451, -1,
          452, 764, 762, -1,
          459, 794, 790, -1,
          459, 458, 794, -1,
          453, 766, 764, -1,
          453, 764, 452, -1,
          460, 459, 790, -1,
          455, 766, 453, -1,
          455, 768, 766, -1,
          461, 790, 789, -1,
          461, 460, 790, -1,
          462, 461, 789, -1,
          462, 789, 788, -1,
          476, 768, 455, -1,
          476, 770, 768, -1,
          497, 771, 770, -1,
          497, 770, 476, -1,
          463, 788, 793, -1,
          463, 462, 788, -1,
          464, 463, 793, -1,
          496, 771, 497, -1,
          465, 793, 797, -1,
          465, 464, 793, -1,
          495, 773, 771, -1,
          495, 771, 496, -1,
          466, 465, 797, -1,
          494, 775, 773, -1,
          494, 773, 495, -1,
          467, 466, 797, -1,
          467, 797, 801, -1,
          493, 775, 494, -1,
          471, 467, 801, -1,
          492, 778, 775, -1,
          492, 775, 493, -1,
          472, 801, 799, -1,
          472, 471, 801, -1,
          491, 778, 492, -1,
          473, 472, 799, -1,
          490, 778, 491, -1,
          490, 780, 778, -1,
          474, 799, 795, -1,
          474, 473, 799, -1,
          483, 474, 795, -1,
          489, 780, 490, -1,
          489, 782, 780, -1,
          484, 795, 791, -1,
          484, 483, 795, -1,
          488, 782, 489, -1,
          488, 784, 782, -1,
          487, 784, 488, -1,
          485, 484, 791, -1,
          486, 786, 784, -1,
          486, 791, 786, -1,
          486, 784, 487, -1,
          486, 485, 791, -1,
          598, 395, 396, -1,
          802, 803, 804, -1,
          802, 804, 805, -1,
          802, 805, 806, -1,
          475, 444, 441, -1,
          475, 441, 454, -1,
          498, 454, 478, -1,
          498, 475, 454, -1,
          499, 478, 482, -1,
          499, 498, 478, -1,
          807, 508, 512, -1,
          808, 512, 513, -1,
          808, 807, 512, -1,
          809, 808, 513, -1,
          810, 513, 514, -1,
          810, 809, 513, -1,
          811, 515, 516, -1,
          811, 514, 515, -1,
          811, 810, 514, -1,
          812, 516, 517, -1,
          812, 811, 516, -1,
          813, 517, 518, -1,
          813, 812, 517, -1,
          814, 813, 518, -1,
          814, 519, 520, -1,
          814, 518, 519, -1,
          815, 520, 521, -1,
          815, 814, 520, -1,
          816, 815, 521, -1,
          816, 522, 524, -1,
          816, 521, 522, -1,
          817, 816, 524, -1,
          817, 523, 526, -1,
          817, 524, 523, -1,
          818, 526, 527, -1,
          818, 817, 526, -1,
          819, 818, 527, -1,
          528, 819, 527, -1,
          820, 819, 528, -1,
          529, 820, 528, -1,
          821, 508, 807, -1,
          822, 820, 529, -1,
          530, 822, 529, -1,
          531, 822, 530, -1,
          531, 823, 822, -1,
          532, 823, 531, -1,
          533, 823, 532, -1,
          533, 824, 823, -1,
          825, 821, 826, -1,
          534, 824, 533, -1,
          827, 825, 826, -1,
          827, 826, 828, -1,
          535, 824, 534, -1,
          535, 829, 824, -1,
          830, 827, 828, -1,
          830, 828, 831, -1,
          536, 829, 535, -1,
          832, 830, 831, -1,
          832, 831, 833, -1,
          537, 834, 829, -1,
          537, 829, 536, -1,
          538, 834, 537, -1,
          539, 835, 834, -1,
          539, 834, 538, -1,
          836, 832, 833, -1,
          540, 837, 835, -1,
          540, 835, 539, -1,
          838, 836, 833, -1,
          838, 833, 839, -1,
          567, 837, 540, -1,
          840, 838, 839, -1,
          566, 837, 567, -1,
          566, 841, 837, -1,
          842, 839, 843, -1,
          842, 840, 839, -1,
          597, 841, 566, -1,
          597, 844, 841, -1,
          845, 843, 846, -1,
          845, 842, 843, -1,
          596, 844, 597, -1,
          596, 847, 844, -1,
          595, 848, 847, -1,
          595, 847, 596, -1,
          594, 849, 848, -1,
          594, 848, 595, -1,
          542, 850, 845, -1,
          542, 846, 851, -1,
          542, 845, 846, -1,
          542, 852, 853, -1,
          542, 851, 852, -1,
          854, 850, 542, -1,
          564, 849, 594, -1,
          564, 855, 849, -1,
          543, 853, 856, -1,
          543, 542, 853, -1,
          562, 855, 564, -1,
          857, 854, 542, -1,
          545, 543, 856, -1,
          545, 856, 858, -1,
          560, 859, 855, -1,
          560, 855, 562, -1,
          541, 857, 542, -1,
          558, 859, 560, -1,
          548, 858, 860, -1,
          548, 545, 858, -1,
          556, 861, 859, -1,
          556, 859, 558, -1,
          550, 860, 862, -1,
          550, 548, 860, -1,
          554, 861, 556, -1,
          552, 862, 861, -1,
          552, 861, 554, -1,
          552, 550, 862, -1,
          863, 857, 541, -1,
          864, 541, 544, -1,
          864, 863, 541, -1,
          546, 864, 544, -1,
          865, 864, 546, -1,
          547, 865, 546, -1,
          568, 825, 866, -1,
          549, 865, 547, -1,
          867, 865, 549, -1,
          551, 867, 549, -1,
          553, 868, 867, -1,
          553, 867, 551, -1,
          569, 568, 866, -1,
          555, 869, 868, -1,
          555, 868, 553, -1,
          557, 869, 555, -1,
          557, 870, 869, -1,
          570, 569, 866, -1,
          570, 866, 871, -1,
          570, 871, 872, -1,
          559, 870, 557, -1,
          561, 873, 870, -1,
          561, 870, 559, -1,
          563, 873, 561, -1,
          571, 570, 872, -1,
          571, 872, 874, -1,
          565, 875, 873, -1,
          565, 873, 563, -1,
          593, 875, 565, -1,
          572, 874, 876, -1,
          572, 571, 874, -1,
          592, 875, 593, -1,
          592, 877, 875, -1,
          573, 876, 878, -1,
          573, 572, 876, -1,
          591, 877, 592, -1,
          591, 879, 877, -1,
          574, 878, 880, -1,
          574, 573, 878, -1,
          590, 879, 591, -1,
          590, 881, 879, -1,
          575, 880, 882, -1,
          575, 574, 880, -1,
          589, 881, 590, -1,
          576, 882, 883, -1,
          576, 575, 882, -1,
          588, 881, 589, -1,
          588, 884, 881, -1,
          577, 576, 883, -1,
          587, 884, 588, -1,
          578, 577, 883, -1,
          578, 883, 885, -1,
          586, 884, 587, -1,
          586, 886, 884, -1,
          579, 578, 885, -1,
          579, 885, 887, -1,
          585, 886, 586, -1,
          585, 888, 886, -1,
          584, 888, 585, -1,
          580, 579, 887, -1,
          583, 889, 888, -1,
          583, 888, 584, -1,
          581, 580, 887, -1,
          581, 887, 889, -1,
          582, 581, 889, -1,
          582, 889, 583, -1,
          568, 508, 821, -1,
          568, 821, 825, -1,
          814, 812, 813, -1,
          815, 811, 812, -1,
          815, 812, 814, -1,
          817, 815, 816, -1,
          817, 811, 815, -1,
          818, 810, 811, -1,
          818, 811, 817, -1,
          819, 810, 818, -1,
          820, 809, 810, -1,
          820, 810, 819, -1,
          822, 809, 820, -1,
          823, 808, 809, -1,
          823, 809, 822, -1,
          824, 807, 808, -1,
          824, 808, 823, -1,
          829, 807, 824, -1,
          834, 807, 829, -1,
          835, 807, 834, -1,
          837, 807, 835, -1,
          821, 837, 841, -1,
          821, 841, 844, -1,
          821, 844, 847, -1,
          821, 807, 837, -1,
          848, 821, 847, -1,
          849, 821, 848, -1,
          855, 821, 849, -1,
          855, 826, 821, -1,
          859, 828, 826, -1,
          859, 831, 828, -1,
          859, 826, 855, -1,
          861, 833, 831, -1,
          861, 831, 859, -1,
          862, 833, 861, -1,
          860, 833, 862, -1,
          858, 833, 860, -1,
          858, 839, 833, -1,
          856, 839, 858, -1,
          853, 839, 856, -1,
          852, 839, 853, -1,
          852, 851, 846, -1,
          852, 846, 843, -1,
          852, 843, 839, -1,
          501, 477, 479, -1,
          501, 479, 480, -1,
          501, 480, 481, -1,
          803, 501, 500, -1,
          803, 477, 501, -1,
          804, 803, 500, -1,
          502, 804, 500, -1,
          805, 804, 502, -1,
          506, 503, 504, -1,
          506, 504, 505, -1,
          506, 505, 507, -1,
          806, 502, 506, -1,
          806, 506, 507, -1,
          806, 805, 502, -1,
          510, 803, 802, -1,
          510, 477, 803, -1,
          509, 510, 802, -1,
          511, 509, 802, -1,
          525, 802, 806, -1,
          525, 511, 802, -1,
          525, 806, 507, -1,
          257, 260, 890, -1,
          257, 890, 891, -1,
          257, 891, 892, -1,
          68, 261, 70, -1,
          66, 261, 68, -1,
          64, 261, 66, -1,
          893, 894, 895, -1,
          893, 895, 896, -1,
          893, 896, 897, -1,
          893, 897, 898, -1,
          899, 900, 901, -1,
          899, 901, 902, -1,
          899, 902, 903, -1,
          904, 905, 906, -1,
          904, 906, 907, -1,
          904, 907, 908, -1,
          904, 908, 909, -1,
          904, 909, 910, -1,
          904, 910, 894, -1,
          904, 894, 893, -1,
          911, 893, 898, -1,
          911, 898, 912, -1,
          911, 912, 913, -1,
          911, 913, 914, -1,
          911, 914, 915, -1,
          911, 915, 916, -1,
          917, 903, 918, -1,
          917, 918, 919, -1,
          917, 919, 905, -1,
          917, 905, 904, -1,
          917, 899, 903, -1,
          920, 904, 893, -1,
          920, 893, 911, -1,
          921, 269, 257, -1,
          921, 892, 922, -1,
          921, 922, 923, -1,
          921, 923, 924, -1,
          921, 924, 900, -1,
          921, 257, 892, -1,
          921, 900, 899, -1,
          921, 899, 917, -1,
          925, 916, 926, -1,
          925, 926, 927, -1,
          925, 927, 928, -1,
          925, 928, 128, -1,
          925, 911, 916, -1,
          929, 917, 904, -1,
          929, 904, 920, -1,
          930, 911, 925, -1,
          930, 920, 911, -1,
          931, 270, 269, -1,
          931, 917, 929, -1,
          931, 921, 917, -1,
          931, 269, 921, -1,
          932, 128, 126, -1,
          932, 126, 124, -1,
          932, 124, 122, -1,
          932, 122, 120, -1,
          932, 925, 128, -1,
          933, 929, 920, -1,
          933, 920, 930, -1,
          934, 930, 925, -1,
          934, 925, 932, -1,
          935, 931, 929, -1,
          935, 278, 270, -1,
          935, 281, 278, -1,
          935, 270, 931, -1,
          935, 929, 933, -1,
          936, 120, 118, -1,
          936, 118, 116, -1,
          936, 116, 114, -1,
          936, 114, 112, -1,
          936, 112, 110, -1,
          936, 932, 120, -1,
          937, 930, 934, -1,
          937, 933, 930, -1,
          938, 934, 932, -1,
          938, 932, 936, -1,
          939, 282, 281, -1,
          939, 933, 937, -1,
          939, 935, 933, -1,
          939, 281, 935, -1,
          940, 936, 110, -1,
          940, 110, 108, -1,
          940, 108, 106, -1,
          940, 106, 104, -1,
          940, 104, 102, -1,
          941, 937, 934, -1,
          941, 934, 938, -1,
          942, 936, 940, -1,
          942, 938, 936, -1,
          943, 937, 941, -1,
          943, 291, 282, -1,
          943, 282, 939, -1,
          943, 298, 291, -1,
          943, 939, 937, -1,
          944, 938, 942, -1,
          944, 941, 938, -1,
          945, 942, 940, -1,
          945, 102, 100, -1,
          945, 100, 98, -1,
          945, 98, 96, -1,
          945, 96, 94, -1,
          945, 94, 92, -1,
          945, 92, 90, -1,
          945, 940, 102, -1,
          946, 298, 943, -1,
          946, 941, 944, -1,
          946, 308, 298, -1,
          946, 943, 941, -1,
          947, 942, 945, -1,
          947, 944, 942, -1,
          948, 946, 944, -1,
          948, 944, 947, -1,
          948, 309, 308, -1,
          948, 308, 946, -1,
          949, 947, 945, -1,
          949, 945, 90, -1,
          949, 90, 88, -1,
          949, 88, 86, -1,
          949, 86, 84, -1,
          950, 948, 947, -1,
          950, 325, 319, -1,
          950, 319, 309, -1,
          950, 309, 948, -1,
          950, 947, 949, -1,
          951, 949, 84, -1,
          951, 84, 82, -1,
          951, 82, 80, -1,
          951, 80, 78, -1,
          952, 950, 949, -1,
          952, 70, 261, -1,
          952, 949, 951, -1,
          952, 325, 950, -1,
          952, 951, 78, -1,
          952, 78, 76, -1,
          952, 76, 74, -1,
          952, 74, 72, -1,
          952, 72, 70, -1,
          952, 261, 325, -1,
          842, 838, 840, -1,
          845, 836, 838, -1,
          845, 838, 842, -1,
          850, 836, 845, -1,
          854, 836, 850, -1,
          857, 832, 836, -1,
          857, 836, 854, -1,
          863, 830, 832, -1,
          863, 832, 857, -1,
          864, 827, 830, -1,
          864, 830, 863, -1,
          865, 825, 827, -1,
          865, 827, 864, -1,
          867, 825, 865, -1,
          868, 825, 867, -1,
          869, 825, 868, -1,
          870, 825, 869, -1,
          873, 825, 870, -1,
          866, 873, 875, -1,
          866, 875, 877, -1,
          866, 877, 879, -1,
          866, 825, 873, -1,
          881, 866, 879, -1,
          884, 871, 866, -1,
          884, 866, 881, -1,
          886, 871, 884, -1,
          888, 872, 871, -1,
          888, 871, 886, -1,
          889, 872, 888, -1,
          887, 874, 872, -1,
          887, 872, 889, -1,
          882, 880, 878, -1,
          882, 878, 876, -1,
          885, 874, 887, -1,
          883, 874, 885, -1,
          883, 882, 876, -1,
          883, 876, 874, -1,
          953, 954, 955, -1,
          956, 954, 953, -1,
          955, 957, 958, -1,
          954, 957, 955, -1,
          959, 960, 954, -1,
          961, 962, 960, -1,
          963, 964, 965, -1,
          957, 964, 963, -1,
          960, 966, 954, -1,
          954, 966, 957, -1,
          962, 966, 960, -1,
          967, 968, 969, -1,
          964, 968, 967, -1,
          970, 971, 966, -1,
          972, 971, 970, -1,
          966, 971, 957, -1,
          968, 973, 974, -1,
          957, 973, 964, -1,
          964, 973, 968, -1,
          974, 973, 975, -1,
          976, 977, 978, -1,
          973, 977, 976, -1,
          979, 256, 980, -1,
          981, 256, 979, -1,
          982, 256, 981, -1,
          983, 256, 982, -1,
          980, 254, 971, -1,
          971, 254, 957, -1,
          957, 254, 973, -1,
          256, 254, 980, -1,
          977, 984, 985, -1,
          251, 248, 254, -1,
          250, 248, 251, -1,
          986, 987, 988, -1,
          984, 987, 986, -1,
          977, 987, 984, -1,
          977, 989, 987, -1,
          973, 989, 977, -1,
          987, 989, 990, -1,
          254, 989, 973, -1,
          244, 242, 246, -1,
          246, 239, 248, -1,
          242, 239, 246, -1,
          991, 992, 993, -1,
          991, 994, 992, -1,
          992, 994, 995, -1,
          234, 231, 235, -1,
          991, 996, 994, -1,
          989, 996, 991, -1,
          235, 230, 238, -1,
          231, 230, 235, -1,
          996, 997, 998, -1,
          248, 999, 254, -1,
          254, 999, 989, -1,
          989, 999, 996, -1,
          996, 999, 997, -1,
          238, 223, 239, -1,
          227, 223, 230, -1,
          226, 223, 227, -1,
          239, 223, 248, -1,
          230, 223, 238, -1,
          248, 1000, 999, -1,
          221, 220, 223, -1,
          218, 215, 220, -1,
          223, 215, 248, -1,
          220, 215, 223, -1,
          1001, 1002, 1003, -1,
          1004, 1002, 1001, -1,
          1004, 1005, 1002, -1,
          1000, 1005, 1004, -1,
          213, 211, 215, -1,
          211, 209, 215, -1,
          1005, 1006, 1007, -1,
          1000, 1008, 1005, -1,
          1005, 1008, 1006, -1,
          208, 205, 209, -1,
          1009, 1010, 1011, -1,
          201, 199, 203, -1,
          1008, 1012, 1009, -1,
          1009, 1012, 1010, -1,
          199, 197, 203, -1,
          248, 1013, 1000, -1,
          1012, 1013, 1014, -1,
          215, 1013, 248, -1,
          1000, 1013, 1008, -1,
          209, 1013, 215, -1,
          1008, 1013, 1012, -1,
          197, 191, 203, -1,
          195, 191, 197, -1,
          193, 191, 195, -1,
          1013, 129, 131, -1,
          1013, 133, 129, -1,
          189, 187, 191, -1,
          187, 183, 191, -1,
          185, 183, 187, -1,
          1013, 139, 133, -1,
          135, 139, 137, -1,
          133, 139, 135, -1,
          183, 181, 191, -1,
          1013, 141, 139, -1,
          191, 177, 203, -1,
          203, 177, 205, -1,
          181, 177, 191, -1,
          179, 177, 181, -1,
          205, 177, 209, -1,
          175, 171, 177, -1,
          173, 171, 175, -1,
          1013, 151, 141, -1,
          147, 151, 149, -1,
          145, 151, 147, -1,
          143, 151, 145, -1,
          141, 151, 143, -1,
          171, 169, 177, -1,
          209, 167, 1013, -1,
          1013, 167, 151, -1,
          177, 167, 209, -1,
          169, 167, 177, -1,
          151, 155, 153, -1,
          151, 157, 155, -1,
          151, 159, 157, -1,
          165, 161, 167, -1,
          163, 161, 165, -1,
          167, 161, 151, -1,
          151, 161, 159, -1,
          983, 255, 256, -1,
          605, 255, 983, -1,
          982, 605, 983, -1,
          607, 605, 982, -1,
          981, 607, 982, -1,
          609, 607, 981, -1,
          979, 609, 981, -1,
          611, 609, 979, -1,
          980, 611, 979, -1,
          613, 611, 980, -1,
          971, 613, 980, -1,
          615, 613, 971, -1,
          972, 615, 971, -1,
          617, 615, 972, -1,
          970, 617, 972, -1,
          619, 617, 970, -1,
          966, 619, 970, -1,
          621, 619, 966, -1,
          962, 621, 966, -1,
          623, 621, 962, -1,
          961, 623, 962, -1,
          625, 623, 961, -1,
          960, 625, 961, -1,
          627, 625, 960, -1,
          959, 627, 960, -1,
          629, 627, 959, -1,
          954, 629, 959, -1,
          631, 629, 954, -1,
          956, 631, 954, -1,
          633, 631, 956, -1,
          953, 633, 956, -1,
          635, 633, 953, -1,
          955, 635, 953, -1,
          637, 635, 955, -1,
          958, 637, 955, -1,
          639, 637, 958, -1,
          957, 639, 958, -1,
          641, 639, 957, -1,
          963, 641, 957, -1,
          643, 641, 963, -1,
          965, 643, 963, -1,
          645, 643, 965, -1,
          964, 645, 965, -1,
          647, 645, 964, -1,
          967, 647, 964, -1,
          649, 647, 967, -1,
          969, 649, 967, -1,
          651, 649, 969, -1,
          968, 651, 969, -1,
          653, 651, 968, -1,
          974, 653, 968, -1,
          655, 653, 974, -1,
          975, 655, 974, -1,
          657, 655, 975, -1,
          973, 657, 975, -1,
          659, 657, 973, -1,
          976, 659, 973, -1,
          661, 659, 976, -1,
          978, 661, 976, -1,
          663, 661, 978, -1,
          665, 978, 977, -1,
          665, 663, 978, -1,
          985, 665, 977, -1,
          667, 665, 985, -1,
          984, 667, 985, -1,
          669, 667, 984, -1,
          986, 669, 984, -1,
          671, 669, 986, -1,
          988, 671, 986, -1,
          673, 671, 988, -1,
          987, 673, 988, -1,
          675, 673, 987, -1,
          990, 675, 987, -1,
          677, 675, 990, -1,
          989, 677, 990, -1,
          679, 677, 989, -1,
          991, 679, 989, -1,
          681, 679, 991, -1,
          993, 681, 991, -1,
          683, 681, 993, -1,
          685, 993, 992, -1,
          685, 683, 993, -1,
          995, 685, 992, -1,
          687, 685, 995, -1,
          994, 687, 995, -1,
          689, 687, 994, -1,
          996, 689, 994, -1,
          691, 689, 996, -1,
          998, 691, 996, -1,
          693, 691, 998, -1,
          997, 693, 998, -1,
          695, 693, 997, -1,
          999, 695, 997, -1,
          697, 695, 999, -1,
          1000, 697, 999, -1,
          699, 697, 1000, -1,
          1004, 699, 1000, -1,
          701, 699, 1004, -1,
          1001, 701, 1004, -1,
          703, 701, 1001, -1,
          1003, 703, 1001, -1,
          705, 703, 1003, -1,
          1002, 705, 1003, -1,
          707, 705, 1002, -1,
          1005, 707, 1002, -1,
          709, 707, 1005, -1,
          711, 1005, 1007, -1,
          711, 709, 1005, -1,
          1006, 711, 1007, -1,
          713, 711, 1006, -1,
          715, 1006, 1008, -1,
          715, 713, 1006, -1,
          1009, 715, 1008, -1,
          717, 715, 1009, -1,
          1011, 717, 1009, -1,
          719, 717, 1011, -1,
          721, 1011, 1010, -1,
          721, 719, 1011, -1,
          723, 1010, 1012, -1,
          723, 721, 1010, -1,
          725, 1012, 1014, -1,
          725, 723, 1012, -1,
          1013, 725, 1014, -1,
          727, 725, 1013, -1,
          130, 1013, 131, -1,
          130, 727, 1013, -1,
          928, 127, 128, -1,
          726, 127, 928, -1,
          927, 726, 928, -1,
          724, 726, 927, -1,
          926, 724, 927, -1,
          722, 724, 926, -1,
          916, 722, 926, -1,
          720, 916, 915, -1,
          720, 722, 916, -1,
          718, 915, 914, -1,
          718, 720, 915, -1,
          716, 914, 913, -1,
          716, 718, 914, -1,
          714, 913, 912, -1,
          714, 716, 913, -1,
          712, 912, 898, -1,
          712, 714, 912, -1,
          710, 898, 897, -1,
          710, 712, 898, -1,
          708, 897, 896, -1,
          708, 710, 897, -1,
          706, 896, 895, -1,
          706, 708, 896, -1,
          704, 895, 894, -1,
          704, 706, 895, -1,
          702, 894, 910, -1,
          702, 704, 894, -1,
          700, 910, 909, -1,
          700, 702, 910, -1,
          698, 909, 908, -1,
          698, 700, 909, -1,
          696, 908, 907, -1,
          696, 698, 908, -1,
          694, 696, 907, -1,
          694, 907, 906, -1,
          692, 694, 906, -1,
          692, 906, 905, -1,
          690, 692, 905, -1,
          690, 905, 919, -1,
          688, 690, 919, -1,
          688, 919, 918, -1,
          686, 918, 903, -1,
          686, 688, 918, -1,
          684, 903, 902, -1,
          684, 686, 903, -1,
          682, 902, 901, -1,
          682, 684, 902, -1,
          680, 901, 900, -1,
          680, 682, 901, -1,
          678, 900, 924, -1,
          678, 680, 900, -1,
          676, 924, 923, -1,
          676, 678, 924, -1,
          674, 923, 922, -1,
          674, 676, 923, -1,
          672, 922, 892, -1,
          672, 674, 922, -1,
          670, 892, 891, -1,
          670, 672, 892, -1,
          668, 891, 890, -1,
          668, 670, 891, -1,
          666, 890, 260, -1,
          666, 668, 890, -1,
          664, 666, 260, -1,
          664, 260, 259, -1,
          662, 259, 258, -1,
          662, 664, 259, -1,
          660, 258, 267, -1,
          660, 662, 258, -1,
          658, 267, 266, -1,
          658, 660, 267, -1,
          656, 266, 265, -1,
          656, 658, 266, -1,
          654, 265, 264, -1,
          654, 656, 265, -1,
          652, 264, 263, -1,
          652, 654, 264, -1,
          650, 263, 276, -1,
          650, 652, 263, -1,
          648, 276, 275, -1,
          648, 650, 276, -1,
          646, 275, 274, -1,
          646, 648, 275, -1,
          644, 646, 274, -1,
          644, 274, 273, -1,
          642, 273, 272, -1,
          642, 644, 273, -1,
          640, 642, 272, -1,
          640, 272, 288, -1,
          638, 640, 288, -1,
          638, 288, 287, -1,
          636, 638, 287, -1,
          636, 287, 286, -1,
          634, 636, 286, -1,
          634, 286, 285, -1,
          632, 634, 285, -1,
          632, 285, 284, -1,
          630, 632, 284, -1,
          630, 284, 295, -1,
          628, 630, 295, -1,
          628, 295, 294, -1,
          626, 628, 294, -1,
          626, 294, 293, -1,
          624, 626, 293, -1,
          624, 293, 306, -1,
          622, 624, 306, -1,
          622, 306, 305, -1,
          620, 305, 304, -1,
          620, 622, 305, -1,
          618, 304, 303, -1,
          618, 620, 304, -1,
          616, 303, 302, -1,
          616, 618, 303, -1,
          614, 302, 317, -1,
          614, 616, 302, -1,
          612, 317, 316, -1,
          612, 614, 317, -1,
          610, 316, 315, -1,
          610, 612, 316, -1,
          608, 315, 314, -1,
          608, 610, 315, -1,
          606, 314, 313, -1,
          606, 608, 314, -1,
          604, 313, 323, -1,
          604, 606, 313, -1,
          1, 323, 2, -1,
          1, 604, 323, -1
        ]
      }
    }
}
