{"asset":{"version":"2.0","generator":"microscope_builder_4 scripts/catalog/dedupe-mounted-lens-housings.mjs"},"scene":0,"scenes":[{"nodes":[0]}],"nodes":[{"mesh":0}],"meshes":[{"primitives":[{"attributes":{"POSITION":1,"NORMAL":2},"indices":0,"mode":4},{"attributes":{"POSITION":4,"NORMAL":5},"indices":3,"mode":4},{"attributes":{"POSITION":7,"NORMAL":8},"indices":6,"mode":4}]}],"buffers":[{"uri":"la1134-ml.bin","byteLength":106968}],"bufferViews":[{"buffer":0,"byteOffset":0,"byteLength":30600,"target":34963},{"buffer":0,"byteOffset":30600,"byteLength":30600,"target":34962},{"buffer":0,"byteOffset":61200,"byteLength":30600,"target":34962},{"buffer":0,"byteOffset":91800,"byteLength":1104,"target":34963},{"buffer":0,"byteOffset":92904,"byteLength":1128,"target":34962},{"buffer":0,"byteOffset":94032,"byteLength":1128,"target":34962},{"buffer":0,"byteOffset":95160,"byteLength":3936,"target":34963},{"buffer":0,"byteOffset":99096,"byteLength":3936,"target":34962},{"buffer":0,"byteOffset":103032,"byteLength":3936,"target":34962}],"accessors":[{"bufferView":0,"componentType":5123,"count":15300,"type":"SCALAR"},{"bufferView":1,"componentType":5126,"count":2550,"type":"VEC3","min":[-5.715000152587891,-15.239999771118164,-15.239999771118164],"max":[5.715000152587891,15.239999771118164,15.239999771118164]},{"bufferView":2,"componentType":5126,"count":2550,"type":"VEC3"},{"bufferView":3,"componentType":5123,"count":552,"type":"SCALAR"},{"bufferView":4,"componentType":5126,"count":94,"type":"VEC3","min":[-1.9049999713897705,-12.699000358581543,-12.696999549865723],"max":[2.825000047683716,12.696999549865723,12.696999549865723]},{"bufferView":5,"componentType":5126,"count":94,"type":"VEC3"},{"bufferView":6,"componentType":5123,"count":1968,"type":"SCALAR"},{"bufferView":7,"componentType":5126,"count":328,"type":"VEC3","min":[0.5199999809265137,-13.144000053405762,-13.144000053405762],"max":[2.552000045776367,13.144000053405762,13.144000053405762]},{"bufferView":8,"componentType":5126,"count":328,"type":"VEC3"}]}
