{"asset":{"version":"2.0","generator":"microscope_builder_4 scripts/catalog/dedupe-mounted-lens-housings.mjs"},"scene":0,"scenes":[{"nodes":[0]}],"nodes":[{"mesh":0}],"meshes":[{"primitives":[{"attributes":{"POSITION":1,"NORMAL":2},"indices":0,"mode":4},{"attributes":{"POSITION":4,"NORMAL":5},"indices":3,"mode":4},{"attributes":{"POSITION":7,"NORMAL":8},"indices":6,"mode":4}]}],"buffers":[{"uri":"la1145-ab-ml.bin","byteLength":141492}],"bufferViews":[{"buffer":0,"byteOffset":0,"byteLength":37368,"target":34963},{"buffer":0,"byteOffset":37368,"byteLength":37368,"target":34962},{"buffer":0,"byteOffset":74736,"byteLength":37368,"target":34962},{"buffer":0,"byteOffset":112104,"byteLength":6036,"target":34963},{"buffer":0,"byteOffset":118140,"byteLength":6060,"target":34962},{"buffer":0,"byteOffset":124200,"byteLength":6060,"target":34962},{"buffer":0,"byteOffset":130260,"byteLength":3744,"target":34963},{"buffer":0,"byteOffset":134004,"byteLength":3744,"target":34962},{"buffer":0,"byteOffset":137748,"byteLength":3744,"target":34962}],"accessors":[{"bufferView":0,"componentType":5123,"count":18684,"type":"SCALAR"},{"bufferView":1,"componentType":5126,"count":3114,"type":"VEC3","min":[-46.0359992980957,-35.18600082397461,4.797999858856201],"max":[9.843999862670898,20.694000244140625,21.308000564575195]},{"bufferView":2,"componentType":5126,"count":3114,"type":"VEC3"},{"bufferView":3,"componentType":5123,"count":3018,"type":"SCALAR"},{"bufferView":4,"componentType":5126,"count":505,"type":"VEC3","min":[-43.49599838256836,-32.645999908447266,4.978000164031982],"max":[7.303999900817871,18.15399932861328,17.49799919128418]},{"bufferView":5,"componentType":5126,"count":505,"type":"VEC3"},{"bufferView":6,"componentType":5123,"count":1872,"type":"SCALAR"},{"bufferView":7,"componentType":5126,"count":312,"type":"VEC3","min":[-43.941001892089844,-33.090999603271484,11.258999824523926],"max":[7.748000144958496,18.597999572753906,13.798999786376953]},{"bufferView":8,"componentType":5126,"count":312,"type":"VEC3"}]}
