#VRML V2.0 utf8
WorldInfo {
  title "Exported triangle mesh to VRML97"
  info ["Created by FreeCAD"
        "<https://www.freecad.org>"]
}

Transform {
  scale 1 1 1
  rotation 0 0 1 0
  scaleOrientation 0 0 1 0
  center 0.000 0.000 0.000
  translation 0.000 0.000 0.000
  children
    Shape { 
      appearance
      Appearance {
        material
        Material {
          diffuseColor 0.8 0.8 0.8
        }
      }
      geometry
      IndexedFaceSet {
        coord
        Coordinate {
          point [
            12.685 0.623 0.546,
            12.700 0.000 -1.445,
            12.684 0.633 -1.445,
            12.700 0.000 0.546,
            12.639 1.245 0.546,
            12.637 1.265 -1.445,
            12.563 1.863 0.546,
            12.558 1.893 -1.445,
            12.456 2.478 0.546,
            12.448 2.516 -1.445,
            12.319 3.086 0.546,
            12.307 3.134 -1.445,
            12.153 3.687 0.546,
            12.136 3.743 -1.445,
            11.958 4.279 0.546,
            11.934 4.344 -1.445,
            11.733 4.860 0.546,
            11.703 4.933 -1.445,
            11.481 5.430 0.546,
            11.442 5.510 -1.445,
            11.200 5.987 0.546,
            11.153 6.074 -1.445,
            10.893 6.529 0.546,
            10.837 6.622 -1.445,
            10.560 7.056 0.546,
            10.493 7.154 -1.445,
            10.201 7.565 0.546,
            10.124 7.668 -1.445,
            9.817 8.057 0.546,
            9.729 8.163 -1.445,
            9.410 8.529 0.546,
            9.310 8.638 -1.445,
            8.980 8.980 0.546,
            8.868 9.092 -1.445,
            8.529 9.410 0.546,
            8.403 9.522 -1.445,
            8.057 9.817 0.546,
            7.918 9.929 -1.445,
            7.565 10.201 0.546,
            7.414 10.312 -1.445,
            7.056 10.560 0.546,
            6.890 10.668 -1.445,
            6.529 10.893 0.546,
            6.350 10.999 -1.445,
            5.987 11.200 0.546,
            5.794 11.301 -1.445,
            5.430 11.481 0.546,
            5.223 11.576 -1.445,
            4.860 11.733 0.546,
            4.640 11.822 -1.445,
            4.279 11.958 0.546,
            4.045 12.039 -1.445,
            3.687 12.153 0.546,
            3.440 12.225 -1.445,
            3.086 12.319 0.546,
            2.826 12.382 -1.445,
            2.478 12.456 0.546,
            2.205 12.507 -1.445,
            1.863 12.563 0.546,
            1.579 12.601 -1.445,
            1.245 12.639 0.546,
            0.949 12.664 -1.445,
            0.623 12.685 0.546,
            0.317 12.696 -1.445,
            0.000 12.700 0.546,
            -0.317 12.696 -1.445,
            -0.623 12.685 0.546,
            -0.949 12.664 -1.445,
            -1.245 12.639 0.546,
            -1.579 12.601 -1.445,
            -1.863 12.563 0.546,
            -2.205 12.507 -1.445,
            -2.478 12.456 0.546,
            -2.826 12.382 -1.445,
            -3.086 12.319 0.546,
            -3.440 12.225 -1.445,
            -3.687 12.153 0.546,
            -4.045 12.039 -1.445,
            -4.279 11.958 0.546,
            -4.640 11.822 -1.445,
            -4.860 11.733 0.546,
            -5.223 11.576 -1.445,
            -5.430 11.481 0.546,
            -5.794 11.301 -1.445,
            -5.987 11.200 0.546,
            -6.350 10.999 -1.445,
            -6.529 10.893 0.546,
            -6.890 10.668 -1.445,
            -7.056 10.560 0.546,
            -7.414 10.312 -1.445,
            -7.565 10.201 0.546,
            -7.918 9.929 -1.445,
            -8.057 9.817 0.546,
            -8.403 9.522 -1.445,
            -8.529 9.410 0.546,
            -8.868 9.092 -1.445,
            -8.980 8.980 0.546,
            -9.310 8.638 -1.445,
            -9.410 8.529 0.546,
            -9.729 8.163 -1.445,
            -9.817 8.057 0.546,
            -10.124 7.668 -1.445,
            -10.201 7.565 0.546,
            -10.493 7.154 -1.445,
            -10.560 7.056 0.546,
            -10.837 6.622 -1.445,
            -10.893 6.529 0.546,
            -11.153 6.074 -1.445,
            -11.200 5.987 0.546,
            -11.442 5.510 -1.445,
            -11.481 5.430 0.546,
            -11.703 4.933 -1.445,
            -11.733 4.860 0.546,
            -11.934 4.344 -1.445,
            -11.958 4.279 0.546,
            -12.136 3.743 -1.445,
            -12.153 3.687 0.546,
            -12.307 3.134 -1.445,
            -12.319 3.086 0.546,
            -12.448 2.516 -1.445,
            -12.456 2.478 0.546,
            -12.558 1.893 -1.445,
            -12.563 1.863 0.546,
            -12.637 1.265 -1.445,
            -12.639 1.245 0.546,
            -12.684 0.633 -1.445,
            -12.685 0.623 0.546,
            -12.700 0.000 -1.445,
            -12.700 0.000 0.546,
            -0.000 -8.482 1.045,
            -2.478 -12.456 0.546,
            -1.863 -12.563 0.546,
            -1.245 -12.639 0.546,
            -0.623 -12.685 0.546,
            -0.000 -12.700 0.546,
            0.000 8.482 1.045,
            -4.246 -10.161 0.770,
            -7.565 -10.201 0.546,
            -7.056 -10.560 0.546,
            -6.529 -10.893 0.546,
            -5.987 -11.200 0.546,
            -5.430 -11.481 0.546,
            -4.860 -11.733 0.546,
            -4.279 -11.958 0.546,
            -3.687 -12.153 0.546,
            -3.086 -12.319 0.546,
            -4.246 -5.089 1.201,
            -0.000 -4.246 1.345,
            -8.482 -7.602 0.722,
            -10.893 -6.529 0.546,
            -10.560 -7.056 0.546,
            -10.201 -7.565 0.546,
            -9.817 -8.057 0.546,
            -9.410 -8.529 0.546,
            -8.980 -8.980 0.546,
            -8.529 -9.410 0.546,
            -8.057 -9.817 0.546,
            -4.246 -0.000 1.345,
            0.000 0.000 1.445,
            0.000 4.246 1.345,
            -8.482 -2.537 1.009,
            -12.685 -0.623 0.546,
            -12.639 -1.245 0.546,
            -12.563 -1.863 0.546,
            -12.456 -2.478 0.546,
            -12.319 -3.086 0.546,
            -12.153 -3.687 0.546,
            -11.958 -4.279 0.546,
            -11.733 -4.860 0.546,
            -11.481 -5.430 0.546,
            -11.200 -5.987 0.546,
            -4.246 5.089 1.201,
            -8.482 2.537 1.009,
            -4.246 10.161 0.770,
            -8.482 7.602 0.722,
            0.623 -12.685 0.546,
            1.245 -12.639 0.546,
            1.863 -12.563 0.546,
            2.478 -12.456 0.546,
            3.086 -12.319 0.546,
            8.482 -5.072 0.902,
            8.529 -9.410 0.546,
            8.980 -8.980 0.546,
            9.410 -8.529 0.546,
            9.817 -8.057 0.546,
            10.201 -7.565 0.546,
            10.560 -7.056 0.546,
            10.893 -6.529 0.546,
            11.200 -5.987 0.546,
            11.481 -5.430 0.546,
            11.733 -4.860 0.546,
            11.958 -4.279 0.546,
            12.153 -3.687 0.546,
            12.319 -3.086 0.546,
            4.246 -7.628 1.021,
            3.687 -12.153 0.546,
            4.279 -11.958 0.546,
            4.860 -11.733 0.546,
            5.430 -11.481 0.546,
            5.987 -11.200 0.546,
            6.529 -10.893 0.546,
            7.056 -10.560 0.546,
            7.565 -10.201 0.546,
            8.057 -9.817 0.546,
            8.482 -0.000 1.045,
            12.456 -2.478 0.546,
            12.563 -1.863 0.546,
            12.639 -1.245 0.546,
            12.685 -0.623 0.546,
            4.246 -2.545 1.309,
            8.482 5.072 0.902,
            4.246 2.545 1.309,
            4.246 7.628 1.021,
            -12.684 -0.633 -1.445,
            -12.637 -1.265 -1.445,
            -12.558 -1.893 -1.445,
            -12.448 -2.516 -1.445,
            -12.307 -3.134 -1.445,
            -12.136 -3.743 -1.445,
            -11.934 -4.344 -1.445,
            -11.703 -4.933 -1.445,
            -11.442 -5.510 -1.445,
            -11.153 -6.074 -1.445,
            -10.837 -6.622 -1.445,
            -10.493 -7.154 -1.445,
            -10.124 -7.668 -1.445,
            -9.729 -8.163 -1.445,
            -9.310 -8.638 -1.445,
            -8.868 -9.092 -1.445,
            -8.403 -9.522 -1.445,
            -7.918 -9.929 -1.445,
            -7.414 -10.312 -1.445,
            -6.890 -10.668 -1.445,
            -6.350 -10.999 -1.445,
            -5.794 -11.301 -1.445,
            -5.223 -11.576 -1.445,
            -4.640 -11.822 -1.445,
            -4.045 -12.039 -1.445,
            -3.440 -12.225 -1.445,
            -2.826 -12.382 -1.445,
            -2.205 -12.507 -1.445,
            -1.579 -12.601 -1.445,
            -0.949 -12.664 -1.445,
            -0.317 -12.696 -1.445,
            0.317 -12.696 -1.445,
            0.949 -12.664 -1.445,
            1.579 -12.601 -1.445,
            2.205 -12.507 -1.445,
            2.826 -12.382 -1.445,
            3.440 -12.225 -1.445,
            4.045 -12.039 -1.445,
            4.640 -11.822 -1.445,
            5.223 -11.576 -1.445,
            5.794 -11.301 -1.445,
            6.350 -10.999 -1.445,
            6.890 -10.668 -1.445,
            7.414 -10.312 -1.445,
            7.918 -9.929 -1.445,
            8.403 -9.522 -1.445,
            8.868 -9.092 -1.445,
            9.310 -8.638 -1.445,
            9.729 -8.163 -1.445,
            10.124 -7.668 -1.445,
            10.493 -7.154 -1.445,
            10.837 -6.622 -1.445,
            11.153 -6.074 -1.445,
            11.442 -5.510 -1.445,
            11.703 -4.933 -1.445,
            11.934 -4.344 -1.445,
            12.136 -3.743 -1.445,
            12.307 -3.134 -1.445,
            12.448 -2.516 -1.445,
            12.558 -1.893 -1.445,
            12.637 -1.265 -1.445,
            12.684 -0.633 -1.445
          ]
        }
        coordIndex [
          0, 1, 2, -1,
          0, 3, 1, -1,
          4, 2, 5, -1,
          4, 0, 2, -1,
          6, 5, 7, -1,
          6, 4, 5, -1,
          8, 7, 9, -1,
          8, 6, 7, -1,
          10, 9, 11, -1,
          10, 8, 9, -1,
          12, 11, 13, -1,
          12, 10, 11, -1,
          14, 13, 15, -1,
          14, 12, 13, -1,
          16, 15, 17, -1,
          16, 14, 15, -1,
          18, 17, 19, -1,
          18, 16, 17, -1,
          20, 19, 21, -1,
          20, 18, 19, -1,
          22, 21, 23, -1,
          22, 20, 21, -1,
          24, 23, 25, -1,
          24, 22, 23, -1,
          26, 25, 27, -1,
          26, 24, 25, -1,
          28, 27, 29, -1,
          28, 26, 27, -1,
          30, 29, 31, -1,
          30, 28, 29, -1,
          32, 31, 33, -1,
          32, 30, 31, -1,
          34, 33, 35, -1,
          34, 32, 33, -1,
          36, 34, 35, -1,
          36, 35, 37, -1,
          38, 36, 37, -1,
          38, 37, 39, -1,
          40, 38, 39, -1,
          40, 39, 41, -1,
          42, 40, 41, -1,
          42, 41, 43, -1,
          44, 42, 43, -1,
          44, 43, 45, -1,
          46, 45, 47, -1,
          46, 44, 45, -1,
          48, 47, 49, -1,
          48, 46, 47, -1,
          50, 49, 51, -1,
          50, 48, 49, -1,
          52, 51, 53, -1,
          52, 50, 51, -1,
          54, 53, 55, -1,
          54, 52, 53, -1,
          56, 55, 57, -1,
          56, 54, 55, -1,
          58, 57, 59, -1,
          58, 56, 57, -1,
          60, 59, 61, -1,
          60, 58, 59, -1,
          62, 61, 63, -1,
          62, 60, 61, -1,
          64, 63, 65, -1,
          64, 62, 63, -1,
          66, 65, 67, -1,
          66, 64, 65, -1,
          68, 67, 69, -1,
          68, 66, 67, -1,
          70, 69, 71, -1,
          70, 68, 69, -1,
          72, 71, 73, -1,
          72, 70, 71, -1,
          74, 73, 75, -1,
          74, 72, 73, -1,
          76, 75, 77, -1,
          76, 74, 75, -1,
          78, 77, 79, -1,
          78, 76, 77, -1,
          80, 79, 81, -1,
          80, 78, 79, -1,
          82, 81, 83, -1,
          82, 80, 81, -1,
          84, 83, 85, -1,
          84, 82, 83, -1,
          86, 84, 85, -1,
          86, 85, 87, -1,
          88, 86, 87, -1,
          88, 87, 89, -1,
          90, 88, 89, -1,
          90, 89, 91, -1,
          92, 90, 91, -1,
          92, 91, 93, -1,
          94, 92, 93, -1,
          94, 93, 95, -1,
          96, 94, 95, -1,
          96, 95, 97, -1,
          98, 96, 97, -1,
          98, 97, 99, -1,
          100, 98, 99, -1,
          100, 99, 101, -1,
          102, 100, 101, -1,
          102, 101, 103, -1,
          104, 102, 103, -1,
          104, 103, 105, -1,
          106, 104, 105, -1,
          106, 105, 107, -1,
          108, 106, 107, -1,
          108, 107, 109, -1,
          110, 108, 109, -1,
          110, 109, 111, -1,
          112, 111, 113, -1,
          112, 110, 111, -1,
          114, 113, 115, -1,
          114, 112, 113, -1,
          116, 115, 117, -1,
          116, 114, 115, -1,
          118, 117, 119, -1,
          118, 116, 117, -1,
          120, 119, 121, -1,
          120, 118, 119, -1,
          122, 121, 123, -1,
          122, 120, 121, -1,
          124, 123, 125, -1,
          124, 122, 123, -1,
          126, 125, 127, -1,
          126, 124, 125, -1,
          128, 126, 127, -1,
          129, 130, 131, -1,
          129, 131, 132, -1,
          129, 132, 133, -1,
          129, 133, 134, -1,
          66, 135, 64, -1,
          68, 135, 66, -1,
          70, 135, 68, -1,
          72, 135, 70, -1,
          136, 137, 138, -1,
          136, 138, 139, -1,
          136, 139, 140, -1,
          136, 140, 141, -1,
          136, 141, 142, -1,
          136, 142, 143, -1,
          136, 143, 144, -1,
          136, 144, 145, -1,
          136, 145, 130, -1,
          136, 130, 129, -1,
          146, 136, 129, -1,
          146, 129, 147, -1,
          148, 136, 146, -1,
          148, 149, 150, -1,
          148, 150, 151, -1,
          148, 151, 152, -1,
          148, 152, 153, -1,
          148, 153, 154, -1,
          148, 154, 155, -1,
          148, 155, 156, -1,
          148, 156, 137, -1,
          148, 137, 136, -1,
          157, 146, 147, -1,
          157, 147, 158, -1,
          157, 158, 159, -1,
          160, 149, 148, -1,
          160, 148, 146, -1,
          160, 128, 161, -1,
          160, 161, 162, -1,
          160, 162, 163, -1,
          160, 163, 164, -1,
          160, 164, 165, -1,
          160, 165, 166, -1,
          160, 166, 167, -1,
          160, 167, 168, -1,
          160, 168, 169, -1,
          160, 169, 170, -1,
          160, 170, 149, -1,
          160, 146, 157, -1,
          171, 159, 135, -1,
          171, 157, 159, -1,
          172, 106, 108, -1,
          172, 108, 110, -1,
          172, 110, 112, -1,
          172, 112, 114, -1,
          172, 114, 116, -1,
          172, 116, 118, -1,
          172, 128, 160, -1,
          172, 118, 120, -1,
          172, 120, 122, -1,
          172, 122, 124, -1,
          172, 124, 126, -1,
          172, 126, 128, -1,
          172, 157, 171, -1,
          172, 160, 157, -1,
          173, 72, 74, -1,
          173, 74, 76, -1,
          173, 76, 78, -1,
          173, 78, 80, -1,
          173, 80, 82, -1,
          173, 82, 84, -1,
          173, 84, 86, -1,
          173, 86, 88, -1,
          173, 88, 90, -1,
          173, 171, 135, -1,
          173, 135, 72, -1,
          174, 173, 90, -1,
          174, 90, 92, -1,
          174, 92, 94, -1,
          174, 94, 96, -1,
          174, 96, 98, -1,
          174, 98, 100, -1,
          174, 100, 102, -1,
          174, 102, 104, -1,
          174, 104, 106, -1,
          174, 172, 171, -1,
          174, 106, 172, -1,
          174, 171, 173, -1,
          129, 134, 175, -1,
          129, 175, 176, -1,
          129, 176, 177, -1,
          129, 177, 178, -1,
          129, 178, 179, -1,
          56, 135, 54, -1,
          58, 135, 56, -1,
          60, 135, 58, -1,
          62, 135, 60, -1,
          64, 135, 62, -1,
          180, 181, 182, -1,
          180, 182, 183, -1,
          180, 183, 184, -1,
          180, 184, 185, -1,
          180, 185, 186, -1,
          180, 186, 187, -1,
          180, 187, 188, -1,
          180, 188, 189, -1,
          180, 189, 190, -1,
          180, 190, 191, -1,
          180, 191, 192, -1,
          180, 192, 193, -1,
          194, 147, 129, -1,
          194, 179, 195, -1,
          194, 195, 196, -1,
          194, 196, 197, -1,
          194, 181, 180, -1,
          194, 197, 198, -1,
          194, 198, 199, -1,
          194, 199, 200, -1,
          194, 200, 201, -1,
          194, 201, 202, -1,
          194, 202, 203, -1,
          194, 203, 181, -1,
          194, 129, 179, -1,
          204, 193, 205, -1,
          204, 205, 206, -1,
          204, 206, 207, -1,
          204, 207, 208, -1,
          204, 208, 3, -1,
          204, 3, 0, -1,
          204, 0, 4, -1,
          204, 4, 6, -1,
          204, 6, 8, -1,
          204, 8, 10, -1,
          204, 180, 193, -1,
          209, 158, 147, -1,
          209, 147, 194, -1,
          209, 194, 180, -1,
          209, 180, 204, -1,
          210, 10, 12, -1,
          210, 12, 14, -1,
          210, 14, 16, -1,
          210, 16, 18, -1,
          210, 18, 20, -1,
          210, 20, 22, -1,
          210, 22, 24, -1,
          210, 24, 26, -1,
          210, 26, 28, -1,
          210, 28, 30, -1,
          210, 30, 32, -1,
          210, 32, 34, -1,
          210, 204, 10, -1,
          211, 209, 204, -1,
          211, 159, 158, -1,
          211, 158, 209, -1,
          211, 204, 210, -1,
          212, 210, 34, -1,
          212, 34, 36, -1,
          212, 36, 38, -1,
          212, 38, 40, -1,
          212, 40, 42, -1,
          212, 42, 44, -1,
          212, 44, 46, -1,
          212, 46, 48, -1,
          212, 48, 50, -1,
          212, 159, 211, -1,
          212, 50, 52, -1,
          212, 52, 54, -1,
          212, 135, 159, -1,
          212, 211, 210, -1,
          212, 54, 135, -1,
          161, 128, 127, -1,
          161, 127, 213, -1,
          162, 213, 214, -1,
          162, 161, 213, -1,
          163, 214, 215, -1,
          163, 162, 214, -1,
          164, 215, 216, -1,
          164, 163, 215, -1,
          165, 216, 217, -1,
          165, 164, 216, -1,
          166, 217, 218, -1,
          166, 165, 217, -1,
          167, 218, 219, -1,
          167, 166, 218, -1,
          168, 219, 220, -1,
          168, 167, 219, -1,
          169, 220, 221, -1,
          169, 168, 220, -1,
          170, 221, 222, -1,
          170, 169, 221, -1,
          149, 222, 223, -1,
          149, 170, 222, -1,
          150, 223, 224, -1,
          150, 149, 223, -1,
          151, 224, 225, -1,
          151, 150, 224, -1,
          152, 225, 226, -1,
          152, 151, 225, -1,
          153, 226, 227, -1,
          153, 152, 226, -1,
          154, 227, 228, -1,
          154, 153, 227, -1,
          155, 228, 229, -1,
          155, 154, 228, -1,
          156, 155, 229, -1,
          156, 229, 230, -1,
          137, 156, 230, -1,
          137, 230, 231, -1,
          138, 137, 231, -1,
          138, 231, 232, -1,
          139, 138, 232, -1,
          139, 232, 233, -1,
          140, 139, 233, -1,
          140, 233, 234, -1,
          141, 234, 235, -1,
          141, 140, 234, -1,
          142, 235, 236, -1,
          142, 141, 235, -1,
          143, 236, 237, -1,
          143, 142, 236, -1,
          144, 237, 238, -1,
          144, 143, 237, -1,
          145, 238, 239, -1,
          145, 144, 238, -1,
          130, 239, 240, -1,
          130, 145, 239, -1,
          131, 240, 241, -1,
          131, 130, 240, -1,
          132, 241, 242, -1,
          132, 131, 241, -1,
          133, 242, 243, -1,
          133, 132, 242, -1,
          134, 243, 244, -1,
          134, 133, 243, -1,
          175, 244, 245, -1,
          175, 134, 244, -1,
          176, 245, 246, -1,
          176, 175, 245, -1,
          177, 246, 247, -1,
          177, 176, 246, -1,
          178, 247, 248, -1,
          178, 177, 247, -1,
          179, 248, 249, -1,
          179, 178, 248, -1,
          195, 249, 250, -1,
          195, 179, 249, -1,
          196, 250, 251, -1,
          196, 195, 250, -1,
          197, 251, 252, -1,
          197, 196, 251, -1,
          198, 252, 253, -1,
          198, 197, 252, -1,
          199, 253, 254, -1,
          199, 198, 253, -1,
          200, 199, 254, -1,
          200, 254, 255, -1,
          201, 200, 255, -1,
          201, 255, 256, -1,
          202, 201, 256, -1,
          202, 256, 257, -1,
          203, 202, 257, -1,
          203, 257, 258, -1,
          181, 203, 258, -1,
          181, 258, 259, -1,
          182, 181, 259, -1,
          182, 259, 260, -1,
          183, 182, 260, -1,
          183, 260, 261, -1,
          184, 183, 261, -1,
          184, 261, 262, -1,
          185, 184, 262, -1,
          185, 262, 263, -1,
          186, 185, 263, -1,
          186, 263, 264, -1,
          187, 186, 264, -1,
          187, 264, 265, -1,
          188, 187, 265, -1,
          188, 265, 266, -1,
          189, 188, 266, -1,
          189, 266, 267, -1,
          190, 189, 267, -1,
          190, 267, 268, -1,
          191, 268, 269, -1,
          191, 190, 268, -1,
          192, 269, 270, -1,
          192, 191, 269, -1,
          193, 270, 271, -1,
          193, 192, 270, -1,
          205, 271, 272, -1,
          205, 193, 271, -1,
          206, 272, 273, -1,
          206, 205, 272, -1,
          207, 273, 274, -1,
          207, 206, 273, -1,
          208, 274, 1, -1,
          208, 207, 274, -1,
          3, 208, 1, -1,
          228, 230, 229, -1,
          225, 224, 226, -1,
          230, 232, 231, -1,
          228, 233, 230, -1,
          230, 233, 232, -1,
          223, 222, 224, -1,
          226, 222, 227, -1,
          224, 222, 226, -1,
          222, 221, 227, -1,
          233, 235, 234, -1,
          220, 219, 221, -1,
          235, 237, 236, -1,
          227, 218, 228, -1,
          221, 218, 227, -1,
          219, 218, 221, -1,
          237, 239, 238, -1,
          217, 216, 218, -1,
          218, 216, 228, -1,
          239, 241, 240, -1,
          215, 214, 216, -1,
          214, 213, 216, -1,
          241, 243, 242, -1,
          239, 243, 241, -1,
          239, 244, 243, -1,
          127, 121, 213, -1,
          123, 121, 125, -1,
          125, 121, 127, -1,
          246, 249, 247, -1,
          247, 249, 248, -1,
          117, 115, 119, -1,
          119, 115, 121, -1,
          244, 115, 245, -1,
          228, 115, 233, -1,
          237, 115, 239, -1,
          233, 115, 235, -1,
          235, 115, 237, -1,
          216, 115, 228, -1,
          239, 115, 244, -1,
          213, 115, 216, -1,
          121, 115, 213, -1,
          245, 251, 246, -1,
          249, 251, 250, -1,
          246, 251, 249, -1,
          109, 107, 111, -1,
          111, 107, 113, -1,
          113, 107, 115, -1,
          252, 255, 253, -1,
          253, 255, 254, -1,
          105, 103, 107, -1,
          252, 256, 255, -1,
          101, 99, 103, -1,
          251, 258, 252, -1,
          252, 258, 256, -1,
          256, 258, 257, -1,
          107, 97, 115, -1,
          103, 97, 107, -1,
          99, 97, 103, -1,
          95, 93, 97, -1,
          251, 262, 258, -1,
          258, 262, 259, -1,
          259, 262, 260, -1,
          260, 262, 261, -1,
          251, 263, 262, -1,
          89, 87, 91, -1,
          91, 87, 93, -1,
          93, 87, 97, -1,
          83, 81, 85, -1,
          85, 81, 87, -1,
          87, 81, 97, -1,
          263, 267, 264, -1,
          264, 267, 265, -1,
          265, 267, 266, -1,
          81, 79, 97, -1,
          251, 268, 263, -1,
          263, 268, 267, -1,
          77, 75, 79, -1,
          268, 271, 269, -1,
          269, 271, 270, -1,
          97, 71, 115, -1,
          79, 71, 97, -1,
          75, 71, 79, -1,
          73, 71, 75, -1,
          268, 272, 271, -1,
          67, 65, 69, -1,
          69, 65, 71, -1,
          273, 1, 274, -1,
          273, 2, 1, -1,
          63, 61, 65, -1,
          273, 9, 2, -1,
          268, 9, 272, -1,
          272, 9, 273, -1,
          2, 9, 5, -1,
          5, 9, 7, -1,
          251, 9, 268, -1,
          65, 55, 71, -1,
          61, 55, 65, -1,
          57, 55, 59, -1,
          59, 55, 61, -1,
          53, 51, 55, -1,
          251, 15, 9, -1,
          9, 15, 11, -1,
          11, 15, 13, -1,
          71, 47, 115, -1,
          51, 47, 55, -1,
          55, 47, 71, -1,
          49, 47, 51, -1,
          15, 19, 17, -1,
          47, 43, 115, -1,
          45, 43, 47, -1,
          19, 23, 21, -1,
          19, 25, 23, -1,
          15, 25, 19, -1,
          41, 39, 43, -1,
          15, 27, 25, -1,
          115, 37, 245, -1,
          43, 37, 115, -1,
          39, 37, 43, -1,
          251, 29, 15, -1,
          15, 29, 27, -1,
          245, 33, 251, -1,
          251, 33, 29, -1,
          37, 33, 245, -1,
          29, 33, 31, -1,
          35, 33, 37, -1
        ]
      }
    }
}
