{"asset":{"version":"2.0","generator":"microscope_builder_4 scripts/catalog/dedupe-mounted-lens-housings.mjs"},"scene":0,"scenes":[{"nodes":[0]}],"nodes":[{"mesh":0}],"meshes":[{"primitives":[{"attributes":{"POSITION":1,"NORMAL":2},"indices":0,"mode":4},{"attributes":{"POSITION":4,"NORMAL":5},"indices":3,"mode":4},{"attributes":{"POSITION":7,"NORMAL":8},"indices":6,"mode":4}]}],"buffers":[{"uri":"la1256-c-ml.bin","byteLength":142140}],"bufferViews":[{"buffer":0,"byteOffset":0,"byteLength":41784,"target":34963},{"buffer":0,"byteOffset":41784,"byteLength":41784,"target":34962},{"buffer":0,"byteOffset":83568,"byteLength":41784,"target":34962},{"buffer":0,"byteOffset":125352,"byteLength":1836,"target":34963},{"buffer":0,"byteOffset":127188,"byteLength":1860,"target":34962},{"buffer":0,"byteOffset":129048,"byteLength":1860,"target":34962},{"buffer":0,"byteOffset":130908,"byteLength":3744,"target":34963},{"buffer":0,"byteOffset":134652,"byteLength":3744,"target":34962},{"buffer":0,"byteOffset":138396,"byteLength":3744,"target":34962}],"accessors":[{"bufferView":0,"componentType":5123,"count":20892,"type":"SCALAR"},{"bufferView":1,"componentType":5126,"count":3482,"type":"VEC3","min":[-6.4770002365112305,-27.940000534057617,-27.940000534057617],"max":[6.4770002365112305,27.940000534057617,27.940000534057617]},{"bufferView":2,"componentType":5126,"count":3482,"type":"VEC3"},{"bufferView":3,"componentType":5123,"count":918,"type":"SCALAR"},{"bufferView":4,"componentType":5126,"count":155,"type":"VEC3","min":[-2.6670000553131104,-25.399999618530273,-25.399999618530273],"max":[2.433000087738037,25.399999618530273,25.399999618530273]},{"bufferView":5,"componentType":5126,"count":155,"type":"VEC3"},{"bufferView":6,"componentType":5123,"count":1872,"type":"SCALAR"},{"bufferView":7,"componentType":5126,"count":312,"type":"VEC3","min":[0.46700000762939453,-25.8439998626709,-25.8439998626709],"max":[3.006999969482422,25.8439998626709,25.8439998626709]},{"bufferView":8,"componentType":5126,"count":312,"type":"VEC3"}]}
