{"asset":{"version":"2.0","generator":"microscope_builder_4 scripts/catalog/dedupe-mounted-lens-housings.mjs"},"scene":0,"scenes":[{"nodes":[0]}],"nodes":[{"mesh":0}],"meshes":[{"primitives":[{"attributes":{"POSITION":1,"NORMAL":2},"indices":0,"mode":4},{"attributes":{"POSITION":4,"NORMAL":5},"indices":3,"mode":4},{"attributes":{"POSITION":7,"NORMAL":8},"indices":6,"mode":4}]}],"buffers":[{"uri":"../shared/lens-components/8a/8ad5dc4435248c3d82d63fc1dae639f1a2e3133f5f2540ba7af7bfe5c8068e6b.bin","byteLength":8532},{"uri":"la1213-c-ml.bin","byteLength":176172}],"bufferViews":[{"buffer":0,"byteOffset":0,"byteLength":2844,"target":34963},{"buffer":0,"byteOffset":2844,"byteLength":2844,"target":34962},{"buffer":0,"byteOffset":5688,"byteLength":2844,"target":34962},{"buffer":1,"byteOffset":0,"byteLength":56856,"target":34963},{"buffer":1,"byteOffset":56856,"byteLength":56880,"target":34962},{"buffer":1,"byteOffset":113736,"byteLength":56880,"target":34962},{"buffer":1,"byteOffset":170616,"byteLength":1836,"target":34963},{"buffer":1,"byteOffset":172452,"byteLength":1860,"target":34962},{"buffer":1,"byteOffset":174312,"byteLength":1860,"target":34962}],"accessors":[{"bufferView":0,"componentType":5123,"count":1422,"type":"SCALAR"},{"bufferView":1,"componentType":5126,"count":237,"type":"VEC3","min":[-0.4230000078678131,-6.794000148773193,-6.794000148773193],"max":[1.2280000448226929,6.794000148773193,6.794000148773193]},{"bufferView":2,"componentType":5126,"count":237,"type":"VEC3"},{"bufferView":3,"componentType":5123,"count":28428,"type":"SCALAR"},{"bufferView":4,"componentType":5126,"count":4740,"type":"VEC3","min":[-5.206999778747559,-8.890000343322754,-8.890000343322754],"max":[5.206999778747559,8.890000343322754,8.890000343322754]},{"bufferView":5,"componentType":5126,"count":4740,"type":"VEC3"},{"bufferView":6,"componentType":5123,"count":918,"type":"SCALAR"},{"bufferView":7,"componentType":5126,"count":155,"type":"VEC3","min":[-2.4130001068115234,-6.349999904632568,-6.349999904632568],"max":[0.1770000010728836,6.349999904632568,6.349999904632568]},{"bufferView":8,"componentType":5126,"count":155,"type":"VEC3"}]}
