{"asset":{"version":"2.0","generator":"microscope_builder_4 scripts/catalog/dedupe-mounted-lens-housings.mjs"},"scene":0,"scenes":[{"nodes":[0]}],"nodes":[{"mesh":0}],"meshes":[{"primitives":[{"attributes":{"POSITION":1,"NORMAL":2},"indices":0,"mode":4},{"attributes":{"POSITION":4,"NORMAL":5},"indices":3,"mode":4},{"attributes":{"POSITION":7,"NORMAL":8},"indices":6,"mode":4}]}],"buffers":[{"uri":"la1385-b-ml.bin","byteLength":167484}],"bufferViews":[{"buffer":0,"byteOffset":0,"byteLength":45468,"target":34963},{"buffer":0,"byteOffset":45468,"byteLength":45468,"target":34962},{"buffer":0,"byteOffset":90936,"byteLength":45468,"target":34962},{"buffer":0,"byteOffset":136404,"byteLength":7488,"target":34963},{"buffer":0,"byteOffset":143892,"byteLength":7512,"target":34962},{"buffer":0,"byteOffset":151404,"byteLength":7512,"target":34962},{"buffer":0,"byteOffset":158916,"byteLength":2856,"target":34963},{"buffer":0,"byteOffset":161772,"byteLength":2856,"target":34962},{"buffer":0,"byteOffset":164628,"byteLength":2856,"target":34962}],"accessors":[{"bufferView":0,"componentType":5123,"count":22734,"type":"SCALAR"},{"bufferView":1,"componentType":5126,"count":3789,"type":"VEC3","min":[-0.39100000262260437,0.2980000078678131,16.349000930786133],"max":[16.118999481201172,43.47800064086914,59.52899932861328]},{"bufferView":2,"componentType":5126,"count":3789,"type":"VEC3"},{"bufferView":3,"componentType":5123,"count":3744,"type":"SCALAR"},{"bufferView":4,"componentType":5126,"count":626,"type":"VEC3","min":[3.4189999103546143,2.8499999046325684,18.900999069213867],"max":[14.298999786376953,40.92599868774414,56.97700119018555]},{"bufferView":5,"componentType":5126,"count":626,"type":"VEC3"},{"bufferView":6,"componentType":5123,"count":1428,"type":"SCALAR"},{"bufferView":7,"componentType":5126,"count":238,"type":"VEC3","min":[7.50600004196167,2.3929998874664307,18.444000244140625],"max":[10.045999526977539,41.38199996948242,57.43299865722656]},{"bufferView":8,"componentType":5126,"count":238,"type":"VEC3"}]}
