{"asset":{"version":"2.0","generator":"microscope_builder_4 scripts/catalog/dedupe-mounted-lens-housings.mjs"},"scene":0,"scenes":[{"nodes":[0]}],"nodes":[{"mesh":0}],"meshes":[{"primitives":[{"attributes":{"POSITION":1,"NORMAL":2},"indices":0,"mode":4},{"attributes":{"POSITION":4,"NORMAL":5},"indices":3,"mode":4},{"attributes":{"POSITION":7,"NORMAL":8},"indices":6,"mode":4}]}],"buffers":[{"uri":"la1385-a-ml.bin","byteLength":160824}],"bufferViews":[{"buffer":0,"byteOffset":0,"byteLength":43848,"target":34963},{"buffer":0,"byteOffset":43848,"byteLength":43848,"target":34962},{"buffer":0,"byteOffset":87696,"byteLength":43848,"target":34962},{"buffer":0,"byteOffset":131544,"byteLength":6888,"target":34963},{"buffer":0,"byteOffset":138432,"byteLength":6912,"target":34962},{"buffer":0,"byteOffset":145344,"byteLength":6912,"target":34962},{"buffer":0,"byteOffset":152256,"byteLength":2856,"target":34963},{"buffer":0,"byteOffset":155112,"byteLength":2856,"target":34962},{"buffer":0,"byteOffset":157968,"byteLength":2856,"target":34962}],"accessors":[{"bufferView":0,"componentType":5123,"count":21924,"type":"SCALAR"},{"bufferView":1,"componentType":5126,"count":3654,"type":"VEC3","min":[4.071000099182129,1.9859999418258667,12.847000122070312],"max":[20.58099937438965,45.16600036621094,56.027000427246094]},{"bufferView":2,"componentType":5126,"count":3654,"type":"VEC3"},{"bufferView":3,"componentType":5123,"count":3444,"type":"SCALAR"},{"bufferView":4,"componentType":5126,"count":576,"type":"VEC3","min":[7.88100004196167,4.526000022888184,15.39799976348877],"max":[18.76099967956543,42.6150016784668,53.47600173950195]},{"bufferView":5,"componentType":5126,"count":576,"type":"VEC3"},{"bufferView":6,"componentType":5123,"count":1428,"type":"SCALAR"},{"bufferView":7,"componentType":5126,"count":238,"type":"VEC3","min":[11.968000411987305,4.080999851226807,14.942999839782715],"max":[14.508000373840332,43.06999969482422,53.93199920654297]},{"bufferView":8,"componentType":5126,"count":238,"type":"VEC3"}]}
