#VRML V2.0 utf8
WorldInfo {
  title "Exported triangle mesh to VRML97"
  info ["Created by FreeCAD"
        "<https://www.freecad.org>"]
}

Transform {
  scale 1 1 1
  rotation 0 0 1 0
  scaleOrientation 0 0 1 0
  center 0.000 0.000 0.000
  translation 0.000 0.000 0.000
  children
    Shape { 
      appearance
      Appearance {
        material
        Material {
          diffuseColor 0.8 0.8 0.8
        }
      }
      geometry
      IndexedFaceSet {
        coord
        Coordinate {
          point [
            25.369 1.246 0.230,
            25.400 0.000 -2.760,
            25.368 1.266 -2.760,
            25.400 0.000 0.230,
            25.278 2.490 0.230,
            25.274 2.529 -2.760,
            25.125 3.727 0.230,
            25.116 3.786 -2.760,
            24.912 4.955 0.230,
            24.896 5.033 -2.760,
            24.639 6.172 0.230,
            24.615 6.268 -2.760,
            24.306 7.373 0.230,
            24.272 7.487 -2.760,
            23.915 8.557 0.230,
            23.868 8.687 -2.760,
            23.467 9.720 0.230,
            23.405 9.866 -2.760,
            22.961 10.860 0.230,
            22.885 11.021 -2.760,
            22.401 11.973 0.230,
            22.307 12.148 -2.760,
            21.786 13.058 0.230,
            21.674 13.244 -2.760,
            21.119 14.111 0.230,
            20.986 14.308 -2.760,
            20.401 15.131 0.230,
            20.247 15.337 -2.760,
            19.634 16.114 0.230,
            19.458 16.327 -2.760,
            18.820 17.058 0.230,
            18.620 17.276 -2.760,
            17.961 17.961 0.230,
            17.735 18.183 -2.760,
            17.058 18.820 0.230,
            16.807 19.044 -2.760,
            16.114 19.634 0.230,
            15.837 19.859 -2.760,
            15.131 20.401 0.230,
            14.827 20.623 -2.760,
            14.111 21.119 0.230,
            13.781 21.337 -2.760,
            13.058 21.786 0.230,
            12.700 21.997 -2.760,
            11.973 22.401 0.230,
            11.588 22.603 -2.760,
            10.860 22.961 0.230,
            10.447 23.152 -2.760,
            9.720 23.467 0.230,
            9.280 23.644 -2.760,
            8.557 23.915 0.230,
            8.090 24.077 -2.760,
            7.373 24.306 0.230,
            6.879 24.451 -2.760,
            6.172 24.639 0.230,
            5.652 24.763 -2.760,
            4.955 24.912 0.230,
            4.411 25.014 -2.760,
            3.727 25.125 0.230,
            3.158 25.203 -2.760,
            2.490 25.278 0.230,
            1.898 25.329 -2.760,
            1.246 25.369 0.230,
            0.633 25.392 -2.760,
            0.000 25.400 0.230,
            -0.633 25.392 -2.760,
            -1.246 25.369 0.230,
            -1.898 25.329 -2.760,
            -2.490 25.278 0.230,
            -3.158 25.203 -2.760,
            -3.727 25.125 0.230,
            -4.411 25.014 -2.760,
            -4.955 24.912 0.230,
            -5.652 24.763 -2.760,
            -6.172 24.639 0.230,
            -6.879 24.451 -2.760,
            -7.373 24.306 0.230,
            -8.090 24.077 -2.760,
            -8.557 23.915 0.230,
            -9.280 23.644 -2.760,
            -9.720 23.467 0.230,
            -10.447 23.152 -2.760,
            -10.860 22.961 0.230,
            -11.588 22.603 -2.760,
            -11.973 22.401 0.230,
            -12.700 21.997 -2.760,
            -13.058 21.786 0.230,
            -13.781 21.337 -2.760,
            -14.111 21.119 0.230,
            -14.827 20.623 -2.760,
            -15.131 20.401 0.230,
            -15.837 19.859 -2.760,
            -16.114 19.634 0.230,
            -16.807 19.044 -2.760,
            -17.058 18.820 0.230,
            -17.735 18.183 -2.760,
            -17.961 17.961 0.230,
            -18.620 17.276 -2.760,
            -18.820 17.058 0.230,
            -19.458 16.327 -2.760,
            -19.634 16.114 0.230,
            -20.247 15.337 -2.760,
            -20.401 15.131 0.230,
            -20.986 14.308 -2.760,
            -21.119 14.111 0.230,
            -21.674 13.244 -2.760,
            -21.786 13.058 0.230,
            -22.307 12.148 -2.760,
            -22.401 11.973 0.230,
            -22.885 11.021 -2.760,
            -22.961 10.860 0.230,
            -23.405 9.866 -2.760,
            -23.467 9.720 0.230,
            -23.868 8.687 -2.760,
            -23.915 8.557 0.230,
            -24.272 7.487 -2.760,
            -24.306 7.373 0.230,
            -24.615 6.268 -2.760,
            -24.639 6.172 0.230,
            -24.896 5.033 -2.760,
            -24.912 4.955 0.230,
            -25.116 3.786 -2.760,
            -25.125 3.727 0.230,
            -25.274 2.529 -2.760,
            -25.278 2.490 0.230,
            -25.368 1.266 -2.760,
            -25.369 1.246 0.230,
            -25.400 0.000 -2.760,
            -25.400 0.000 0.230,
            -0.000 -19.105 1.335,
            -3.727 -25.125 0.230,
            -2.490 -25.278 0.230,
            -1.246 -25.369 0.230,
            -0.000 -25.400 0.230,
            0.000 19.105 1.335,
            -6.389 -22.232 0.665,
            -10.860 -22.961 0.230,
            -9.720 -23.467 0.230,
            -8.557 -23.915 0.230,
            -7.373 -24.306 0.230,
            -6.172 -24.639 0.230,
            -4.955 -24.912 0.230,
            -6.389 -15.919 1.612,
            -0.000 -12.763 2.126,
            -12.763 -19.011 0.708,
            -17.058 -18.820 0.230,
            -16.114 -19.634 0.230,
            -15.131 -20.401 0.230,
            -14.111 -21.119 0.230,
            -13.058 -21.786 0.230,
            -11.973 -22.401 0.230,
            -6.389 -9.567 2.245,
            -0.000 -6.389 2.601,
            -12.763 -12.700 1.495,
            -17.961 -17.961 0.230,
            -6.389 -3.192 2.562,
            0.000 0.000 2.760,
            -19.105 -15.762 0.356,
            -21.119 -14.111 0.230,
            -20.401 -15.131 0.230,
            -19.634 -16.114 0.230,
            -18.820 -17.058 0.230,
            -12.763 -6.358 1.968,
            -6.389 3.192 2.562,
            0.000 6.389 2.601,
            -19.105 -9.473 0.982,
            -24.306 -7.373 0.230,
            -23.915 -8.557 0.230,
            -23.467 -9.720 0.230,
            -22.961 -10.860 0.230,
            -22.401 -11.973 0.230,
            -21.786 -13.058 0.230,
            -12.763 0.000 2.126,
            -6.389 9.567 2.245,
            0.000 12.763 2.126,
            -19.105 -3.160 1.296,
            -25.369 -1.246 0.230,
            -25.278 -2.490 0.230,
            -25.125 -3.727 0.230,
            -24.912 -4.955 0.230,
            -24.639 -6.172 0.230,
            -12.763 6.358 1.968,
            -6.389 15.919 1.612,
            -19.105 3.160 1.296,
            -12.763 12.700 1.495,
            -6.389 22.232 0.665,
            -19.105 9.473 0.982,
            -12.763 19.011 0.708,
            -19.105 15.762 0.356,
            1.246 -25.369 0.230,
            2.490 -25.278 0.230,
            3.727 -25.125 0.230,
            19.105 -15.762 0.356,
            17.961 -17.961 0.230,
            18.820 -17.058 0.230,
            19.634 -16.114 0.230,
            20.401 -15.131 0.230,
            21.119 -14.111 0.230,
            12.763 -19.011 0.708,
            10.860 -22.961 0.230,
            11.973 -22.401 0.230,
            13.058 -21.786 0.230,
            14.111 -21.119 0.230,
            15.131 -20.401 0.230,
            16.114 -19.634 0.230,
            17.058 -18.820 0.230,
            19.105 -9.473 0.982,
            21.786 -13.058 0.230,
            22.401 -11.973 0.230,
            22.961 -10.860 0.230,
            23.467 -9.720 0.230,
            23.915 -8.557 0.230,
            24.306 -7.373 0.230,
            6.389 -22.232 0.665,
            4.955 -24.912 0.230,
            6.172 -24.639 0.230,
            7.373 -24.306 0.230,
            8.557 -23.915 0.230,
            9.720 -23.467 0.230,
            12.763 -12.700 1.495,
            19.105 -3.160 1.296,
            24.639 -6.172 0.230,
            24.912 -4.955 0.230,
            25.125 -3.727 0.230,
            25.278 -2.490 0.230,
            25.369 -1.246 0.230,
            6.389 -15.919 1.612,
            12.763 -6.358 1.968,
            19.105 3.160 1.296,
            6.389 -9.567 2.245,
            12.763 -0.000 2.126,
            19.105 9.473 0.982,
            6.389 -3.192 2.562,
            12.763 6.358 1.968,
            19.105 15.762 0.356,
            6.389 3.192 2.562,
            12.763 12.700 1.495,
            6.389 9.567 2.245,
            12.763 19.011 0.708,
            6.389 15.919 1.612,
            6.389 22.232 0.665,
            -25.368 -1.266 -2.760,
            -25.274 -2.529 -2.760,
            -25.116 -3.786 -2.760,
            -24.896 -5.033 -2.760,
            -24.615 -6.268 -2.760,
            -24.272 -7.487 -2.760,
            -23.868 -8.687 -2.760,
            -23.405 -9.866 -2.760,
            -22.885 -11.021 -2.760,
            -22.307 -12.148 -2.760,
            -21.674 -13.244 -2.760,
            -20.986 -14.308 -2.760,
            -20.247 -15.337 -2.760,
            -19.458 -16.327 -2.760,
            -18.620 -17.276 -2.760,
            -17.735 -18.183 -2.760,
            -16.807 -19.044 -2.760,
            -15.837 -19.859 -2.760,
            -14.827 -20.623 -2.760,
            -13.781 -21.337 -2.760,
            -12.700 -21.997 -2.760,
            -11.588 -22.603 -2.760,
            -10.447 -23.152 -2.760,
            -9.280 -23.644 -2.760,
            -8.090 -24.077 -2.760,
            -6.879 -24.451 -2.760,
            -5.652 -24.763 -2.760,
            -4.411 -25.014 -2.760,
            -3.158 -25.203 -2.760,
            -1.898 -25.329 -2.760,
            -0.633 -25.392 -2.760,
            0.633 -25.392 -2.760,
            1.898 -25.329 -2.760,
            3.158 -25.203 -2.760,
            4.411 -25.014 -2.760,
            5.652 -24.763 -2.760,
            6.879 -24.451 -2.760,
            8.090 -24.077 -2.760,
            9.280 -23.644 -2.760,
            10.447 -23.152 -2.760,
            11.588 -22.603 -2.760,
            12.700 -21.997 -2.760,
            13.781 -21.337 -2.760,
            14.827 -20.623 -2.760,
            15.837 -19.859 -2.760,
            16.807 -19.044 -2.760,
            17.735 -18.183 -2.760,
            18.620 -17.276 -2.760,
            19.458 -16.327 -2.760,
            20.247 -15.337 -2.760,
            20.986 -14.308 -2.760,
            21.674 -13.244 -2.760,
            22.307 -12.148 -2.760,
            22.885 -11.021 -2.760,
            23.405 -9.866 -2.760,
            23.868 -8.687 -2.760,
            24.272 -7.487 -2.760,
            24.615 -6.268 -2.760,
            24.896 -5.033 -2.760,
            25.116 -3.786 -2.760,
            25.274 -2.529 -2.760,
            25.368 -1.266 -2.760
          ]
        }
        coordIndex [
          0, 1, 2, -1,
          0, 3, 1, -1,
          4, 2, 5, -1,
          4, 0, 2, -1,
          6, 5, 7, -1,
          6, 4, 5, -1,
          8, 7, 9, -1,
          8, 6, 7, -1,
          10, 9, 11, -1,
          10, 8, 9, -1,
          12, 11, 13, -1,
          12, 10, 11, -1,
          14, 13, 15, -1,
          14, 12, 13, -1,
          16, 15, 17, -1,
          16, 14, 15, -1,
          18, 17, 19, -1,
          18, 16, 17, -1,
          20, 19, 21, -1,
          20, 18, 19, -1,
          22, 21, 23, -1,
          22, 20, 21, -1,
          24, 23, 25, -1,
          24, 22, 23, -1,
          26, 25, 27, -1,
          26, 24, 25, -1,
          28, 27, 29, -1,
          28, 26, 27, -1,
          30, 29, 31, -1,
          30, 28, 29, -1,
          32, 31, 33, -1,
          32, 30, 31, -1,
          34, 33, 35, -1,
          34, 32, 33, -1,
          36, 34, 35, -1,
          36, 35, 37, -1,
          38, 36, 37, -1,
          38, 37, 39, -1,
          40, 38, 39, -1,
          40, 39, 41, -1,
          42, 40, 41, -1,
          42, 41, 43, -1,
          44, 42, 43, -1,
          44, 43, 45, -1,
          46, 45, 47, -1,
          46, 44, 45, -1,
          48, 47, 49, -1,
          48, 46, 47, -1,
          50, 49, 51, -1,
          50, 48, 49, -1,
          52, 51, 53, -1,
          52, 50, 51, -1,
          54, 53, 55, -1,
          54, 52, 53, -1,
          56, 55, 57, -1,
          56, 54, 55, -1,
          58, 57, 59, -1,
          58, 56, 57, -1,
          60, 59, 61, -1,
          60, 58, 59, -1,
          62, 61, 63, -1,
          62, 60, 61, -1,
          64, 63, 65, -1,
          64, 62, 63, -1,
          66, 65, 67, -1,
          66, 64, 65, -1,
          68, 67, 69, -1,
          68, 66, 67, -1,
          70, 69, 71, -1,
          70, 68, 69, -1,
          72, 71, 73, -1,
          72, 70, 71, -1,
          74, 73, 75, -1,
          74, 72, 73, -1,
          76, 75, 77, -1,
          76, 74, 75, -1,
          78, 77, 79, -1,
          78, 76, 77, -1,
          80, 79, 81, -1,
          80, 78, 79, -1,
          82, 81, 83, -1,
          82, 80, 81, -1,
          84, 83, 85, -1,
          84, 82, 83, -1,
          86, 84, 85, -1,
          86, 85, 87, -1,
          88, 86, 87, -1,
          88, 87, 89, -1,
          90, 88, 89, -1,
          90, 89, 91, -1,
          92, 90, 91, -1,
          92, 91, 93, -1,
          94, 92, 93, -1,
          94, 93, 95, -1,
          96, 94, 95, -1,
          96, 95, 97, -1,
          98, 96, 97, -1,
          98, 97, 99, -1,
          100, 98, 99, -1,
          100, 99, 101, -1,
          102, 100, 101, -1,
          102, 101, 103, -1,
          104, 102, 103, -1,
          104, 103, 105, -1,
          106, 104, 105, -1,
          106, 105, 107, -1,
          108, 106, 107, -1,
          108, 107, 109, -1,
          110, 108, 109, -1,
          110, 109, 111, -1,
          112, 111, 113, -1,
          112, 110, 111, -1,
          114, 113, 115, -1,
          114, 112, 113, -1,
          116, 115, 117, -1,
          116, 114, 115, -1,
          118, 117, 119, -1,
          118, 116, 117, -1,
          120, 119, 121, -1,
          120, 118, 119, -1,
          122, 121, 123, -1,
          122, 120, 121, -1,
          124, 123, 125, -1,
          124, 122, 123, -1,
          126, 125, 127, -1,
          126, 124, 125, -1,
          128, 126, 127, -1,
          129, 130, 131, -1,
          129, 131, 132, -1,
          129, 132, 133, -1,
          66, 134, 64, -1,
          68, 134, 66, -1,
          70, 134, 68, -1,
          135, 136, 137, -1,
          135, 137, 138, -1,
          135, 138, 139, -1,
          135, 139, 140, -1,
          135, 140, 141, -1,
          135, 141, 130, -1,
          135, 130, 129, -1,
          142, 135, 129, -1,
          142, 129, 143, -1,
          144, 145, 146, -1,
          144, 146, 147, -1,
          144, 147, 148, -1,
          144, 148, 149, -1,
          144, 149, 150, -1,
          144, 150, 136, -1,
          144, 136, 135, -1,
          144, 135, 142, -1,
          151, 142, 143, -1,
          151, 143, 152, -1,
          153, 142, 151, -1,
          153, 144, 142, -1,
          153, 145, 144, -1,
          153, 154, 145, -1,
          155, 151, 152, -1,
          155, 152, 156, -1,
          157, 158, 159, -1,
          157, 159, 160, -1,
          157, 160, 161, -1,
          157, 161, 154, -1,
          157, 154, 153, -1,
          162, 153, 151, -1,
          162, 151, 155, -1,
          163, 155, 156, -1,
          163, 156, 164, -1,
          165, 153, 162, -1,
          165, 166, 167, -1,
          165, 167, 168, -1,
          165, 168, 169, -1,
          165, 169, 170, -1,
          165, 170, 171, -1,
          165, 171, 158, -1,
          165, 157, 153, -1,
          165, 158, 157, -1,
          172, 162, 155, -1,
          172, 155, 163, -1,
          173, 163, 164, -1,
          173, 164, 174, -1,
          175, 165, 162, -1,
          175, 128, 176, -1,
          175, 176, 177, -1,
          175, 177, 178, -1,
          175, 178, 179, -1,
          175, 179, 180, -1,
          175, 180, 166, -1,
          175, 166, 165, -1,
          175, 162, 172, -1,
          181, 163, 173, -1,
          181, 172, 163, -1,
          182, 173, 174, -1,
          182, 174, 134, -1,
          183, 175, 172, -1,
          183, 128, 175, -1,
          183, 172, 181, -1,
          183, 116, 118, -1,
          183, 118, 120, -1,
          183, 120, 122, -1,
          183, 122, 124, -1,
          183, 124, 126, -1,
          183, 126, 128, -1,
          184, 173, 182, -1,
          184, 94, 96, -1,
          184, 181, 173, -1,
          185, 70, 72, -1,
          185, 72, 74, -1,
          185, 74, 76, -1,
          185, 76, 78, -1,
          185, 78, 80, -1,
          185, 80, 82, -1,
          185, 182, 134, -1,
          185, 134, 70, -1,
          186, 181, 184, -1,
          186, 116, 183, -1,
          186, 104, 106, -1,
          186, 106, 108, -1,
          186, 108, 110, -1,
          186, 110, 112, -1,
          186, 112, 114, -1,
          186, 114, 116, -1,
          186, 183, 181, -1,
          187, 82, 84, -1,
          187, 84, 86, -1,
          187, 86, 88, -1,
          187, 88, 90, -1,
          187, 90, 92, -1,
          187, 92, 94, -1,
          187, 94, 184, -1,
          187, 184, 182, -1,
          187, 182, 185, -1,
          187, 185, 82, -1,
          188, 96, 98, -1,
          188, 98, 100, -1,
          188, 100, 102, -1,
          188, 102, 104, -1,
          188, 104, 186, -1,
          188, 184, 96, -1,
          188, 186, 184, -1,
          129, 133, 189, -1,
          129, 189, 190, -1,
          129, 190, 191, -1,
          60, 134, 58, -1,
          62, 134, 60, -1,
          64, 134, 62, -1,
          192, 193, 194, -1,
          192, 194, 195, -1,
          192, 195, 196, -1,
          192, 196, 197, -1,
          198, 199, 200, -1,
          198, 200, 201, -1,
          198, 201, 202, -1,
          198, 202, 203, -1,
          198, 203, 204, -1,
          198, 204, 205, -1,
          206, 192, 197, -1,
          206, 197, 207, -1,
          206, 207, 208, -1,
          206, 208, 209, -1,
          206, 209, 210, -1,
          206, 210, 211, -1,
          206, 211, 212, -1,
          213, 191, 214, -1,
          213, 214, 215, -1,
          213, 215, 216, -1,
          213, 216, 217, -1,
          213, 217, 218, -1,
          213, 218, 199, -1,
          213, 129, 191, -1,
          213, 199, 198, -1,
          219, 192, 206, -1,
          219, 205, 193, -1,
          219, 193, 192, -1,
          219, 198, 205, -1,
          220, 212, 221, -1,
          220, 221, 222, -1,
          220, 222, 223, -1,
          220, 223, 224, -1,
          220, 224, 225, -1,
          220, 225, 3, -1,
          220, 206, 212, -1,
          226, 143, 129, -1,
          226, 198, 219, -1,
          226, 129, 213, -1,
          226, 213, 198, -1,
          227, 206, 220, -1,
          227, 219, 206, -1,
          228, 3, 0, -1,
          228, 0, 4, -1,
          228, 4, 6, -1,
          228, 6, 8, -1,
          228, 220, 3, -1,
          228, 8, 10, -1,
          228, 10, 12, -1,
          229, 152, 143, -1,
          229, 219, 227, -1,
          229, 226, 219, -1,
          229, 143, 226, -1,
          230, 220, 228, -1,
          230, 227, 220, -1,
          231, 12, 14, -1,
          231, 14, 16, -1,
          231, 16, 18, -1,
          231, 18, 20, -1,
          231, 20, 22, -1,
          231, 22, 24, -1,
          231, 228, 12, -1,
          232, 156, 152, -1,
          232, 152, 229, -1,
          232, 229, 227, -1,
          232, 227, 230, -1,
          233, 230, 228, -1,
          233, 228, 231, -1,
          234, 24, 26, -1,
          234, 26, 28, -1,
          234, 28, 30, -1,
          234, 30, 32, -1,
          234, 231, 24, -1,
          235, 230, 233, -1,
          235, 164, 156, -1,
          235, 232, 230, -1,
          235, 156, 232, -1,
          236, 233, 231, -1,
          236, 234, 32, -1,
          236, 32, 34, -1,
          236, 231, 234, -1,
          237, 233, 236, -1,
          237, 164, 235, -1,
          237, 174, 164, -1,
          237, 235, 233, -1,
          238, 236, 34, -1,
          238, 34, 36, -1,
          238, 36, 38, -1,
          238, 38, 40, -1,
          238, 40, 42, -1,
          238, 42, 44, -1,
          238, 44, 46, -1,
          239, 237, 236, -1,
          239, 236, 238, -1,
          239, 134, 174, -1,
          239, 174, 237, -1,
          240, 58, 134, -1,
          240, 134, 239, -1,
          240, 239, 238, -1,
          240, 46, 48, -1,
          240, 48, 50, -1,
          240, 50, 52, -1,
          240, 52, 54, -1,
          240, 54, 56, -1,
          240, 56, 58, -1,
          240, 238, 46, -1,
          176, 128, 127, -1,
          176, 127, 241, -1,
          177, 241, 242, -1,
          177, 176, 241, -1,
          178, 242, 243, -1,
          178, 177, 242, -1,
          179, 243, 244, -1,
          179, 178, 243, -1,
          180, 244, 245, -1,
          180, 179, 244, -1,
          166, 245, 246, -1,
          166, 180, 245, -1,
          167, 246, 247, -1,
          167, 166, 246, -1,
          168, 247, 248, -1,
          168, 167, 247, -1,
          169, 248, 249, -1,
          169, 168, 248, -1,
          170, 249, 250, -1,
          170, 169, 249, -1,
          171, 250, 251, -1,
          171, 170, 250, -1,
          158, 251, 252, -1,
          158, 171, 251, -1,
          159, 252, 253, -1,
          159, 158, 252, -1,
          160, 253, 254, -1,
          160, 159, 253, -1,
          161, 254, 255, -1,
          161, 160, 254, -1,
          154, 255, 256, -1,
          154, 161, 255, -1,
          145, 256, 257, -1,
          145, 154, 256, -1,
          146, 145, 257, -1,
          146, 257, 258, -1,
          147, 146, 258, -1,
          147, 258, 259, -1,
          148, 147, 259, -1,
          148, 259, 260, -1,
          149, 148, 260, -1,
          149, 260, 261, -1,
          150, 149, 261, -1,
          150, 261, 262, -1,
          136, 262, 263, -1,
          136, 150, 262, -1,
          137, 263, 264, -1,
          137, 136, 263, -1,
          138, 264, 265, -1,
          138, 137, 264, -1,
          139, 265, 266, -1,
          139, 138, 265, -1,
          140, 266, 267, -1,
          140, 139, 266, -1,
          141, 267, 268, -1,
          141, 140, 267, -1,
          130, 268, 269, -1,
          130, 141, 268, -1,
          131, 269, 270, -1,
          131, 130, 269, -1,
          132, 270, 271, -1,
          132, 131, 270, -1,
          133, 271, 272, -1,
          133, 132, 271, -1,
          189, 272, 273, -1,
          189, 133, 272, -1,
          190, 273, 274, -1,
          190, 189, 273, -1,
          191, 274, 275, -1,
          191, 190, 274, -1,
          214, 275, 276, -1,
          214, 191, 275, -1,
          215, 276, 277, -1,
          215, 214, 276, -1,
          216, 277, 278, -1,
          216, 215, 277, -1,
          217, 278, 279, -1,
          217, 216, 278, -1,
          218, 279, 280, -1,
          218, 217, 279, -1,
          199, 280, 281, -1,
          199, 218, 280, -1,
          200, 281, 282, -1,
          200, 199, 281, -1,
          201, 200, 282, -1,
          201, 282, 283, -1,
          202, 201, 283, -1,
          202, 283, 284, -1,
          203, 202, 284, -1,
          203, 284, 285, -1,
          204, 203, 285, -1,
          204, 285, 286, -1,
          205, 204, 286, -1,
          205, 286, 287, -1,
          193, 205, 287, -1,
          193, 287, 288, -1,
          194, 193, 288, -1,
          194, 288, 289, -1,
          195, 194, 289, -1,
          195, 289, 290, -1,
          196, 195, 290, -1,
          196, 290, 291, -1,
          197, 196, 291, -1,
          197, 291, 292, -1,
          207, 197, 292, -1,
          207, 292, 293, -1,
          208, 207, 293, -1,
          208, 293, 294, -1,
          209, 208, 294, -1,
          209, 294, 295, -1,
          210, 209, 295, -1,
          210, 295, 296, -1,
          211, 296, 297, -1,
          211, 210, 296, -1,
          212, 297, 298, -1,
          212, 211, 297, -1,
          221, 298, 299, -1,
          221, 212, 298, -1,
          222, 299, 300, -1,
          222, 221, 299, -1,
          223, 300, 301, -1,
          223, 222, 300, -1,
          224, 301, 302, -1,
          224, 223, 301, -1,
          225, 302, 1, -1,
          225, 224, 302, -1,
          3, 225, 1, -1,
          256, 258, 257, -1,
          253, 252, 254, -1,
          258, 260, 259, -1,
          256, 261, 258, -1,
          258, 261, 260, -1,
          251, 250, 252, -1,
          254, 250, 255, -1,
          252, 250, 254, -1,
          250, 249, 255, -1,
          261, 263, 262, -1,
          248, 247, 249, -1,
          263, 265, 264, -1,
          255, 246, 256, -1,
          249, 246, 255, -1,
          247, 246, 249, -1,
          265, 267, 266, -1,
          245, 244, 246, -1,
          246, 244, 256, -1,
          267, 269, 268, -1,
          243, 242, 244, -1,
          242, 241, 244, -1,
          269, 271, 270, -1,
          267, 271, 269, -1,
          267, 272, 271, -1,
          127, 121, 241, -1,
          123, 121, 125, -1,
          125, 121, 127, -1,
          274, 277, 275, -1,
          275, 277, 276, -1,
          117, 115, 119, -1,
          119, 115, 121, -1,
          272, 115, 273, -1,
          256, 115, 261, -1,
          265, 115, 267, -1,
          261, 115, 263, -1,
          263, 115, 265, -1,
          244, 115, 256, -1,
          267, 115, 272, -1,
          241, 115, 244, -1,
          121, 115, 241, -1,
          273, 279, 274, -1,
          277, 279, 278, -1,
          274, 279, 277, -1,
          109, 107, 111, -1,
          111, 107, 113, -1,
          113, 107, 115, -1,
          280, 283, 281, -1,
          281, 283, 282, -1,
          105, 103, 107, -1,
          280, 284, 283, -1,
          101, 99, 103, -1,
          279, 286, 280, -1,
          280, 286, 284, -1,
          284, 286, 285, -1,
          107, 97, 115, -1,
          103, 97, 107, -1,
          99, 97, 103, -1,
          95, 93, 97, -1,
          279, 290, 286, -1,
          286, 290, 287, -1,
          287, 290, 288, -1,
          288, 290, 289, -1,
          279, 291, 290, -1,
          89, 87, 91, -1,
          91, 87, 93, -1,
          93, 87, 97, -1,
          83, 81, 85, -1,
          85, 81, 87, -1,
          87, 81, 97, -1,
          291, 295, 292, -1,
          292, 295, 293, -1,
          293, 295, 294, -1,
          81, 79, 97, -1,
          279, 296, 291, -1,
          291, 296, 295, -1,
          77, 75, 79, -1,
          296, 299, 297, -1,
          297, 299, 298, -1,
          97, 71, 115, -1,
          79, 71, 97, -1,
          75, 71, 79, -1,
          73, 71, 75, -1,
          296, 300, 299, -1,
          67, 65, 69, -1,
          69, 65, 71, -1,
          301, 1, 302, -1,
          301, 2, 1, -1,
          63, 61, 65, -1,
          301, 9, 2, -1,
          296, 9, 300, -1,
          300, 9, 301, -1,
          2, 9, 5, -1,
          5, 9, 7, -1,
          279, 9, 296, -1,
          65, 55, 71, -1,
          61, 55, 65, -1,
          57, 55, 59, -1,
          59, 55, 61, -1,
          53, 51, 55, -1,
          279, 15, 9, -1,
          9, 15, 11, -1,
          11, 15, 13, -1,
          71, 47, 115, -1,
          51, 47, 55, -1,
          55, 47, 71, -1,
          49, 47, 51, -1,
          15, 19, 17, -1,
          47, 43, 115, -1,
          45, 43, 47, -1,
          19, 23, 21, -1,
          19, 25, 23, -1,
          15, 25, 19, -1,
          41, 39, 43, -1,
          15, 27, 25, -1,
          115, 37, 273, -1,
          43, 37, 115, -1,
          39, 37, 43, -1,
          279, 29, 15, -1,
          15, 29, 27, -1,
          273, 33, 279, -1,
          279, 33, 29, -1,
          37, 33, 273, -1,
          29, 33, 31, -1,
          35, 33, 37, -1
        ]
      }
    }
}
