{"asset":{"version":"2.0","generator":"microscope_builder_4 scripts/catalog/dedupe-mounted-lens-housings.mjs"},"scene":0,"scenes":[{"nodes":[0]}],"nodes":[{"mesh":0}],"meshes":[{"primitives":[{"attributes":{"POSITION":1,"NORMAL":2},"indices":0,"mode":4},{"attributes":{"POSITION":4,"NORMAL":5},"indices":3,"mode":4},{"attributes":{"POSITION":7,"NORMAL":8},"indices":6,"mode":4}]}],"buffers":[{"uri":"la1386-ab-ml.bin","byteLength":164064}],"bufferViews":[{"buffer":0,"byteOffset":0,"byteLength":43824,"target":34963},{"buffer":0,"byteOffset":43824,"byteLength":43824,"target":34962},{"buffer":0,"byteOffset":87648,"byteLength":43824,"target":34962},{"buffer":0,"byteOffset":131472,"byteLength":7992,"target":34963},{"buffer":0,"byteOffset":139464,"byteLength":8016,"target":34962},{"buffer":0,"byteOffset":147480,"byteLength":8016,"target":34962},{"buffer":0,"byteOffset":155496,"byteLength":2856,"target":34963},{"buffer":0,"byteOffset":158352,"byteLength":2856,"target":34962},{"buffer":0,"byteOffset":161208,"byteLength":2856,"target":34962}],"accessors":[{"bufferView":0,"componentType":5123,"count":21912,"type":"SCALAR"},{"bufferView":1,"componentType":5126,"count":3652,"type":"VEC3","min":[-8.255000114440918,-21.59000015258789,-21.59000015258789],"max":[8.255000114440918,21.59000015258789,21.59000015258789]},{"bufferView":2,"componentType":5126,"count":3652,"type":"VEC3"},{"bufferView":3,"componentType":5123,"count":3996,"type":"SCALAR"},{"bufferView":4,"componentType":5126,"count":668,"type":"VEC3","min":[-4.445000171661377,-19.03700065612793,-19.049999237060547],"max":[3.055000066757202,19.03700065612793,19.03700065612793]},{"bufferView":5,"componentType":5126,"count":668,"type":"VEC3"},{"bufferView":6,"componentType":5123,"count":1428,"type":"SCALAR"},{"bufferView":7,"componentType":5126,"count":238,"type":"VEC3","min":[-1.1019999980926514,-19.493999481201172,-19.493999481201172],"max":[1.437999963760376,19.493999481201172,19.493999481201172]},{"bufferView":8,"componentType":5126,"count":238,"type":"VEC3"}]}
