{"asset":{"version":"2.0","generator":"microscope_builder_4 scripts/catalog/dedupe-mounted-lens-housings.mjs"},"scene":0,"scenes":[{"nodes":[0]}],"nodes":[{"mesh":0}],"meshes":[{"primitives":[{"attributes":{"POSITION":1,"NORMAL":2},"indices":0,"mode":4},{"attributes":{"POSITION":4,"NORMAL":5},"indices":3,"mode":4},{"attributes":{"POSITION":7,"NORMAL":8},"indices":6,"mode":4}]}],"buffers":[{"uri":"la1388-a-ml.bin","byteLength":163488}],"bufferViews":[{"buffer":0,"byteOffset":0,"byteLength":44652,"target":34963},{"buffer":0,"byteOffset":44652,"byteLength":44652,"target":34962},{"buffer":0,"byteOffset":89304,"byteLength":44652,"target":34962},{"buffer":0,"byteOffset":133956,"byteLength":6972,"target":34963},{"buffer":0,"byteOffset":140928,"byteLength":6996,"target":34962},{"buffer":0,"byteOffset":147924,"byteLength":6996,"target":34962},{"buffer":0,"byteOffset":154920,"byteLength":2856,"target":34963},{"buffer":0,"byteOffset":157776,"byteLength":2856,"target":34962},{"buffer":0,"byteOffset":160632,"byteLength":2856,"target":34962}],"accessors":[{"bufferView":0,"componentType":5123,"count":22326,"type":"SCALAR"},{"bufferView":1,"componentType":5126,"count":3721,"type":"VEC3","min":[4.504000186920166,-1.1089999675750732,14.722000122070312],"max":[21.013999938964844,42.07099914550781,57.902000427246094]},{"bufferView":2,"componentType":5126,"count":3721,"type":"VEC3"},{"bufferView":3,"componentType":5123,"count":3486,"type":"SCALAR"},{"bufferView":4,"componentType":5126,"count":583,"type":"VEC3","min":[8.314000129699707,1.430999994277954,17.261999130249023],"max":[13.194000244140625,39.53099822998047,55.36199951171875]},{"bufferView":5,"componentType":5126,"count":583,"type":"VEC3"},{"bufferView":6,"componentType":5123,"count":1428,"type":"SCALAR"},{"bufferView":7,"componentType":5126,"count":238,"type":"VEC3","min":[11.201000213623047,0.9860000014305115,16.816999435424805],"max":[13.741000175476074,39.974998474121094,55.805999755859375]},{"bufferView":8,"componentType":5126,"count":238,"type":"VEC3"}]}
