#VRML V2.0 utf8
WorldInfo {
  title "Exported triangle mesh to VRML97"
  info ["Created by FreeCAD"
        "<https://www.freecad.org>"]
}

Transform {
  scale 1 1 1
  rotation 0 0 1 0
  scaleOrientation 0 0 1 0
  center 0.000 0.000 0.000
  translation 0.000 0.000 0.000
  children
    Shape { 
      appearance
      Appearance {
        material
        Material {
          diffuseColor 0.8 0.8 0.8
        }
      }
      geometry
      IndexedFaceSet {
        coord
        Coordinate {
          point [
            4.495 0.221 0.230,
            4.500 0.000 -1.265,
            4.494 0.224 -1.265,
            4.500 0.000 0.230,
            4.478 0.441 0.230,
            4.478 0.448 -1.265,
            4.451 0.660 0.230,
            4.450 0.671 -1.265,
            4.414 0.878 0.230,
            4.411 0.892 -1.265,
            4.365 1.093 0.230,
            4.361 1.110 -1.265,
            4.306 1.306 0.230,
            4.300 1.326 -1.265,
            4.237 1.516 0.230,
            4.229 1.539 -1.265,
            4.157 1.722 0.230,
            4.147 1.748 -1.265,
            4.068 1.924 0.230,
            4.054 1.952 -1.265,
            3.969 2.121 0.230,
            3.952 2.152 -1.265,
            3.860 2.313 0.230,
            3.840 2.346 -1.265,
            3.742 2.500 0.230,
            3.718 2.535 -1.265,
            3.614 2.681 0.230,
            3.587 2.717 -1.265,
            3.479 2.855 0.230,
            3.447 2.893 -1.265,
            3.334 3.022 0.230,
            3.299 3.061 -1.265,
            3.182 3.182 0.230,
            3.142 3.221 -1.265,
            3.022 3.334 0.230,
            2.978 3.374 -1.265,
            2.855 3.479 0.230,
            2.806 3.518 -1.265,
            2.681 3.614 0.230,
            2.627 3.654 -1.265,
            2.500 3.742 0.230,
            2.441 3.780 -1.265,
            2.313 3.860 0.230,
            2.250 3.897 -1.265,
            2.121 3.969 0.230,
            2.053 4.004 -1.265,
            1.924 4.068 0.230,
            1.851 4.102 -1.265,
            1.722 4.157 0.230,
            1.644 4.189 -1.265,
            1.516 4.237 0.230,
            1.433 4.266 -1.265,
            1.306 4.306 0.230,
            1.219 4.332 -1.265,
            1.093 4.365 0.230,
            1.001 4.387 -1.265,
            0.878 4.414 0.230,
            0.781 4.432 -1.265,
            0.660 4.451 0.230,
            0.560 4.465 -1.265,
            0.441 4.478 0.230,
            0.336 4.487 -1.265,
            0.221 4.495 0.230,
            0.112 4.499 -1.265,
            0.000 4.500 0.230,
            -0.112 4.499 -1.265,
            -0.221 4.495 0.230,
            -0.336 4.487 -1.265,
            -0.441 4.478 0.230,
            -0.560 4.465 -1.265,
            -0.660 4.451 0.230,
            -0.781 4.432 -1.265,
            -0.878 4.414 0.230,
            -1.001 4.387 -1.265,
            -1.093 4.365 0.230,
            -1.219 4.332 -1.265,
            -1.306 4.306 0.230,
            -1.433 4.266 -1.265,
            -1.516 4.237 0.230,
            -1.644 4.189 -1.265,
            -1.722 4.157 0.230,
            -1.851 4.102 -1.265,
            -1.924 4.068 0.230,
            -2.053 4.004 -1.265,
            -2.121 3.969 0.230,
            -2.250 3.897 -1.265,
            -2.313 3.860 0.230,
            -2.441 3.780 -1.265,
            -2.500 3.742 0.230,
            -2.627 3.654 -1.265,
            -2.681 3.614 0.230,
            -2.806 3.518 -1.265,
            -2.855 3.479 0.230,
            -2.978 3.374 -1.265,
            -3.022 3.334 0.230,
            -3.142 3.221 -1.265,
            -3.182 3.182 0.230,
            -3.299 3.061 -1.265,
            -3.334 3.022 0.230,
            -3.447 2.893 -1.265,
            -3.479 2.855 0.230,
            -3.587 2.717 -1.265,
            -3.614 2.681 0.230,
            -3.718 2.535 -1.265,
            -3.742 2.500 0.230,
            -3.840 2.346 -1.265,
            -3.860 2.313 0.230,
            -3.952 2.152 -1.265,
            -3.969 2.121 0.230,
            -4.054 1.952 -1.265,
            -4.068 1.924 0.230,
            -4.147 1.748 -1.265,
            -4.157 1.722 0.230,
            -4.229 1.539 -1.265,
            -4.237 1.516 0.230,
            -4.300 1.326 -1.265,
            -4.306 1.306 0.230,
            -4.361 1.110 -1.265,
            -4.365 1.093 0.230,
            -4.411 0.892 -1.265,
            -4.414 0.878 0.230,
            -4.450 0.671 -1.265,
            -4.451 0.660 0.230,
            -4.478 0.448 -1.265,
            -4.478 0.441 0.230,
            -4.494 0.224 -1.265,
            -4.495 0.221 0.230,
            -4.500 0.000 -1.265,
            -4.500 0.000 0.230,
            -0.000 -4.077 0.424,
            -0.221 -4.495 0.230,
            -0.000 -4.500 0.230,
            -0.441 -4.478 0.230,
            0.000 4.077 0.424,
            -0.665 -4.166 0.361,
            -1.093 -4.365 0.230,
            -0.878 -4.414 0.230,
            -0.660 -4.451 0.230,
            -0.000 -3.645 0.599,
            -0.665 -3.503 0.628,
            -0.000 -3.206 0.753,
            -1.327 -3.813 0.441,
            -1.924 -4.068 0.230,
            -1.722 -4.157 0.230,
            -1.516 -4.237 0.230,
            -1.306 -4.306 0.230,
            -0.665 -2.823 0.848,
            -0.000 -2.760 0.888,
            -0.000 -2.309 1.003,
            -1.327 -3.145 0.683,
            -1.983 -3.445 0.467,
            -2.500 -3.742 0.230,
            -2.313 -3.860 0.230,
            -2.121 -3.969 0.230,
            -0.665 -2.129 1.021,
            -0.000 -1.853 1.097,
            -1.327 -2.462 0.878,
            -1.983 -2.776 0.684,
            -0.665 -1.425 1.144,
            -0.000 -1.393 1.170,
            -0.000 -0.930 1.223,
            -2.632 -3.066 0.439,
            -3.182 -3.182 0.230,
            -3.022 -3.334 0.230,
            -2.855 -3.479 0.230,
            -2.681 -3.614 0.230,
            -1.327 -1.767 1.025,
            -1.983 -2.094 0.853,
            -0.665 -0.714 1.219,
            -0.000 -0.466 1.254,
            -2.632 -2.401 0.629,
            -1.327 -1.064 1.124,
            -3.269 -2.683 0.357,
            -3.742 -2.500 0.230,
            -3.614 -2.681 0.230,
            -3.479 -2.855 0.230,
            -3.334 -3.022 0.230,
            -1.983 -1.402 0.975,
            -0.665 -0.000 1.244,
            0.000 0.000 1.265,
            0.000 0.466 1.254,
            -2.632 -1.723 0.773,
            -1.327 -0.355 1.173,
            -3.269 -2.024 0.521,
            -3.969 -2.121 0.230,
            -3.860 -2.313 0.230,
            -1.983 -0.702 1.048,
            -0.665 0.714 1.219,
            0.000 0.930 1.223,
            -2.632 -1.037 0.869,
            -1.327 0.355 1.173,
            -3.269 -1.354 0.638,
            -1.983 -0.000 1.072,
            -0.665 1.425 1.144,
            0.000 1.393 1.170,
            0.000 1.853 1.097,
            -3.893 -1.650 0.357,
            -4.306 -1.306 0.230,
            -4.237 -1.516 0.230,
            -4.157 -1.722 0.230,
            -4.068 -1.924 0.230,
            -2.632 -0.346 0.917,
            -1.327 1.064 1.124,
            -3.269 -0.679 0.709,
            -1.983 0.702 1.048,
            -0.665 2.129 1.021,
            0.000 2.309 1.003,
            -3.893 -0.993 0.449,
            -4.451 -0.660 0.230,
            -4.414 -0.878 0.230,
            -4.365 -1.093 0.230,
            -2.632 0.346 0.917,
            -1.327 1.767 1.025,
            -3.269 -0.000 0.732,
            -1.983 1.402 0.975,
            -0.665 2.823 0.848,
            0.000 2.760 0.888,
            0.000 3.206 0.753,
            -3.893 -0.332 0.495,
            -4.495 -0.221 0.230,
            -4.478 -0.441 0.230,
            -2.632 1.037 0.869,
            -1.327 2.462 0.878,
            -3.269 0.679 0.709,
            -1.983 2.094 0.853,
            -0.665 3.503 0.628,
            0.000 3.645 0.599,
            -3.893 0.332 0.495,
            -2.632 1.723 0.773,
            -1.327 3.145 0.683,
            -3.269 1.354 0.638,
            -1.983 2.776 0.684,
            -0.665 4.166 0.361,
            -3.893 0.993 0.449,
            -2.632 2.401 0.629,
            -1.327 3.813 0.441,
            -3.269 2.024 0.521,
            -1.983 3.445 0.467,
            -3.893 1.650 0.357,
            -2.632 3.066 0.439,
            -3.269 2.683 0.357,
            0.221 -4.495 0.230,
            0.441 -4.478 0.230,
            3.269 -3.008 0.258,
            3.182 -3.182 0.230,
            3.334 -3.022 0.230,
            3.479 -2.855 0.230,
            2.632 -3.394 0.327,
            2.500 -3.742 0.230,
            2.681 -3.614 0.230,
            2.855 -3.479 0.230,
            3.022 -3.334 0.230,
            3.893 -1.976 0.294,
            3.860 -2.313 0.230,
            3.969 -2.121 0.230,
            4.068 -1.924 0.230,
            4.157 -1.722 0.230,
            1.983 -3.773 0.342,
            1.722 -4.157 0.230,
            1.924 -4.068 0.230,
            2.121 -3.969 0.230,
            2.313 -3.860 0.230,
            3.269 -2.355 0.444,
            3.614 -2.681 0.230,
            3.742 -2.500 0.230,
            1.327 -4.140 0.302,
            1.093 -4.365 0.230,
            1.306 -4.306 0.230,
            1.516 -4.237 0.230,
            2.632 -2.735 0.540,
            3.893 -1.322 0.409,
            4.237 -1.516 0.230,
            4.306 -1.306 0.230,
            4.365 -1.093 0.230,
            1.983 -3.112 0.581,
            3.269 -1.690 0.585,
            1.327 -3.481 0.568,
            2.632 -2.063 0.707,
            3.893 -0.663 0.478,
            4.414 -0.878 0.230,
            4.451 -0.660 0.230,
            4.478 -0.441 0.230,
            0.665 -3.837 0.500,
            0.660 -4.451 0.230,
            0.878 -4.414 0.230,
            1.983 -2.436 0.774,
            3.269 -1.017 0.679,
            1.327 -2.805 0.786,
            2.632 -1.381 0.827,
            3.893 -0.000 0.501,
            4.495 -0.221 0.230,
            0.665 -3.165 0.744,
            1.983 -1.749 0.920,
            3.269 -0.340 0.727,
            1.327 -2.116 0.958,
            2.632 -0.692 0.899,
            3.893 0.663 0.478,
            0.665 -2.478 0.940,
            1.983 -1.053 1.017,
            3.269 0.340 0.727,
            1.327 -1.416 1.080,
            2.632 -0.000 0.923,
            3.893 1.322 0.409,
            0.665 -1.778 1.088,
            1.983 -0.351 1.066,
            3.269 1.017 0.679,
            1.327 -0.710 1.154,
            2.632 0.692 0.899,
            3.893 1.976 0.294,
            0.665 -1.071 1.188,
            1.983 0.351 1.066,
            3.269 1.690 0.585,
            1.327 -0.000 1.179,
            2.632 1.381 0.827,
            0.665 -0.357 1.237,
            1.983 1.053 1.017,
            3.269 2.355 0.444,
            1.327 0.710 1.154,
            2.632 2.063 0.707,
            0.665 0.357 1.237,
            1.983 1.749 0.920,
            3.269 3.008 0.258,
            1.327 1.416 1.080,
            2.632 2.735 0.540,
            0.665 1.071 1.188,
            1.983 2.436 0.774,
            1.327 2.116 0.958,
            2.632 3.394 0.327,
            0.665 1.778 1.088,
            1.983 3.112 0.581,
            1.327 2.805 0.786,
            0.665 2.478 0.940,
            1.983 3.773 0.342,
            1.327 3.481 0.568,
            0.665 3.165 0.744,
            1.327 4.140 0.302,
            0.665 3.837 0.500,
            -4.494 -0.224 -1.265,
            -4.478 -0.448 -1.265,
            -4.450 -0.671 -1.265,
            -4.411 -0.892 -1.265,
            -4.361 -1.110 -1.265,
            -4.300 -1.326 -1.265,
            -4.229 -1.539 -1.265,
            -4.147 -1.748 -1.265,
            -4.054 -1.952 -1.265,
            -3.952 -2.152 -1.265,
            -3.840 -2.346 -1.265,
            -3.718 -2.535 -1.265,
            -3.587 -2.717 -1.265,
            -3.447 -2.893 -1.265,
            -3.299 -3.061 -1.265,
            -3.142 -3.221 -1.265,
            -2.978 -3.374 -1.265,
            -2.806 -3.518 -1.265,
            -2.627 -3.654 -1.265,
            -2.441 -3.780 -1.265,
            -2.250 -3.897 -1.265,
            -2.053 -4.004 -1.265,
            -1.851 -4.102 -1.265,
            -1.644 -4.189 -1.265,
            -1.433 -4.266 -1.265,
            -1.219 -4.332 -1.265,
            -1.001 -4.387 -1.265,
            -0.781 -4.432 -1.265,
            -0.560 -4.465 -1.265,
            -0.336 -4.487 -1.265,
            -0.112 -4.499 -1.265,
            0.112 -4.499 -1.265,
            0.336 -4.487 -1.265,
            0.560 -4.465 -1.265,
            0.781 -4.432 -1.265,
            1.001 -4.387 -1.265,
            1.219 -4.332 -1.265,
            1.433 -4.266 -1.265,
            1.644 -4.189 -1.265,
            1.851 -4.102 -1.265,
            2.053 -4.004 -1.265,
            2.250 -3.897 -1.265,
            2.441 -3.780 -1.265,
            2.627 -3.654 -1.265,
            2.806 -3.518 -1.265,
            2.978 -3.374 -1.265,
            3.142 -3.221 -1.265,
            3.299 -3.061 -1.265,
            3.447 -2.893 -1.265,
            3.587 -2.717 -1.265,
            3.718 -2.535 -1.265,
            3.840 -2.346 -1.265,
            3.952 -2.152 -1.265,
            4.054 -1.952 -1.265,
            4.147 -1.748 -1.265,
            4.229 -1.539 -1.265,
            4.300 -1.326 -1.265,
            4.361 -1.110 -1.265,
            4.411 -0.892 -1.265,
            4.450 -0.671 -1.265,
            4.478 -0.448 -1.265,
            4.494 -0.224 -1.265
          ]
        }
        coordIndex [
          0, 1, 2, -1,
          0, 3, 1, -1,
          4, 2, 5, -1,
          4, 0, 2, -1,
          6, 5, 7, -1,
          6, 4, 5, -1,
          8, 7, 9, -1,
          8, 6, 7, -1,
          10, 9, 11, -1,
          10, 8, 9, -1,
          12, 11, 13, -1,
          12, 10, 11, -1,
          14, 13, 15, -1,
          14, 12, 13, -1,
          16, 15, 17, -1,
          16, 14, 15, -1,
          18, 17, 19, -1,
          18, 16, 17, -1,
          20, 19, 21, -1,
          20, 18, 19, -1,
          22, 21, 23, -1,
          22, 20, 21, -1,
          24, 23, 25, -1,
          24, 22, 23, -1,
          26, 25, 27, -1,
          26, 24, 25, -1,
          28, 27, 29, -1,
          28, 26, 27, -1,
          30, 29, 31, -1,
          30, 28, 29, -1,
          32, 31, 33, -1,
          32, 30, 31, -1,
          34, 33, 35, -1,
          34, 32, 33, -1,
          36, 34, 35, -1,
          36, 35, 37, -1,
          38, 36, 37, -1,
          38, 37, 39, -1,
          40, 38, 39, -1,
          40, 39, 41, -1,
          42, 40, 41, -1,
          42, 41, 43, -1,
          44, 42, 43, -1,
          44, 43, 45, -1,
          46, 45, 47, -1,
          46, 44, 45, -1,
          48, 47, 49, -1,
          48, 46, 47, -1,
          50, 49, 51, -1,
          50, 48, 49, -1,
          52, 51, 53, -1,
          52, 50, 51, -1,
          54, 53, 55, -1,
          54, 52, 53, -1,
          56, 55, 57, -1,
          56, 54, 55, -1,
          58, 57, 59, -1,
          58, 56, 57, -1,
          60, 59, 61, -1,
          60, 58, 59, -1,
          62, 61, 63, -1,
          62, 60, 61, -1,
          64, 63, 65, -1,
          64, 62, 63, -1,
          66, 65, 67, -1,
          66, 64, 65, -1,
          68, 67, 69, -1,
          68, 66, 67, -1,
          70, 69, 71, -1,
          70, 68, 69, -1,
          72, 71, 73, -1,
          72, 70, 71, -1,
          74, 73, 75, -1,
          74, 72, 73, -1,
          76, 75, 77, -1,
          76, 74, 75, -1,
          78, 77, 79, -1,
          78, 76, 77, -1,
          80, 79, 81, -1,
          80, 78, 79, -1,
          82, 81, 83, -1,
          82, 80, 81, -1,
          84, 83, 85, -1,
          84, 82, 83, -1,
          86, 84, 85, -1,
          86, 85, 87, -1,
          88, 86, 87, -1,
          88, 87, 89, -1,
          90, 88, 89, -1,
          90, 89, 91, -1,
          92, 90, 91, -1,
          92, 91, 93, -1,
          94, 92, 93, -1,
          94, 93, 95, -1,
          96, 94, 95, -1,
          96, 95, 97, -1,
          98, 96, 97, -1,
          98, 97, 99, -1,
          100, 98, 99, -1,
          100, 99, 101, -1,
          102, 100, 101, -1,
          102, 101, 103, -1,
          104, 102, 103, -1,
          104, 103, 105, -1,
          106, 104, 105, -1,
          106, 105, 107, -1,
          108, 106, 107, -1,
          108, 107, 109, -1,
          110, 108, 109, -1,
          110, 109, 111, -1,
          112, 111, 113, -1,
          112, 110, 111, -1,
          114, 113, 115, -1,
          114, 112, 113, -1,
          116, 115, 117, -1,
          116, 114, 115, -1,
          118, 117, 119, -1,
          118, 116, 117, -1,
          120, 119, 121, -1,
          120, 118, 119, -1,
          122, 121, 123, -1,
          122, 120, 121, -1,
          124, 123, 125, -1,
          124, 122, 123, -1,
          126, 125, 127, -1,
          126, 124, 125, -1,
          128, 126, 127, -1,
          129, 130, 131, -1,
          132, 130, 129, -1,
          66, 133, 64, -1,
          68, 133, 66, -1,
          134, 135, 136, -1,
          134, 136, 137, -1,
          134, 137, 132, -1,
          134, 129, 138, -1,
          134, 132, 129, -1,
          139, 134, 138, -1,
          139, 138, 140, -1,
          141, 135, 134, -1,
          141, 134, 139, -1,
          141, 142, 143, -1,
          141, 143, 144, -1,
          141, 144, 145, -1,
          141, 145, 135, -1,
          146, 139, 140, -1,
          146, 140, 147, -1,
          146, 147, 148, -1,
          149, 139, 146, -1,
          149, 141, 139, -1,
          150, 151, 152, -1,
          150, 152, 153, -1,
          150, 153, 142, -1,
          150, 141, 149, -1,
          150, 142, 141, -1,
          154, 146, 148, -1,
          154, 148, 155, -1,
          156, 146, 154, -1,
          156, 149, 146, -1,
          157, 149, 156, -1,
          157, 150, 149, -1,
          158, 154, 155, -1,
          158, 155, 159, -1,
          158, 159, 160, -1,
          161, 150, 157, -1,
          161, 151, 150, -1,
          161, 162, 163, -1,
          161, 163, 164, -1,
          161, 164, 165, -1,
          161, 165, 151, -1,
          166, 156, 154, -1,
          166, 154, 158, -1,
          167, 157, 156, -1,
          167, 156, 166, -1,
          168, 158, 160, -1,
          168, 160, 169, -1,
          170, 157, 167, -1,
          170, 161, 157, -1,
          171, 158, 168, -1,
          171, 166, 158, -1,
          172, 161, 170, -1,
          172, 173, 174, -1,
          172, 174, 175, -1,
          172, 175, 176, -1,
          172, 176, 162, -1,
          172, 162, 161, -1,
          177, 166, 171, -1,
          177, 167, 166, -1,
          178, 168, 169, -1,
          178, 169, 179, -1,
          178, 179, 180, -1,
          181, 170, 167, -1,
          181, 167, 177, -1,
          182, 171, 168, -1,
          182, 168, 178, -1,
          183, 184, 185, -1,
          183, 185, 173, -1,
          183, 170, 181, -1,
          183, 172, 170, -1,
          183, 173, 172, -1,
          186, 177, 171, -1,
          186, 171, 182, -1,
          187, 178, 180, -1,
          187, 180, 188, -1,
          189, 177, 186, -1,
          189, 181, 177, -1,
          190, 178, 187, -1,
          190, 182, 178, -1,
          191, 181, 189, -1,
          191, 183, 181, -1,
          192, 182, 190, -1,
          192, 186, 182, -1,
          193, 187, 188, -1,
          193, 194, 195, -1,
          193, 188, 194, -1,
          196, 184, 183, -1,
          196, 197, 198, -1,
          196, 198, 199, -1,
          196, 199, 200, -1,
          196, 200, 184, -1,
          196, 183, 191, -1,
          201, 189, 186, -1,
          201, 186, 192, -1,
          202, 187, 193, -1,
          202, 190, 187, -1,
          203, 191, 189, -1,
          203, 189, 201, -1,
          204, 190, 202, -1,
          204, 192, 190, -1,
          205, 193, 195, -1,
          205, 195, 206, -1,
          207, 197, 196, -1,
          207, 208, 209, -1,
          207, 209, 210, -1,
          207, 210, 197, -1,
          207, 196, 191, -1,
          207, 191, 203, -1,
          211, 192, 204, -1,
          211, 201, 192, -1,
          212, 202, 193, -1,
          212, 193, 205, -1,
          213, 203, 201, -1,
          213, 201, 211, -1,
          214, 202, 212, -1,
          214, 204, 202, -1,
          215, 205, 206, -1,
          215, 216, 217, -1,
          215, 206, 216, -1,
          218, 128, 219, -1,
          218, 219, 220, -1,
          218, 220, 208, -1,
          218, 207, 203, -1,
          218, 203, 213, -1,
          218, 208, 207, -1,
          221, 211, 204, -1,
          221, 204, 214, -1,
          222, 205, 215, -1,
          222, 212, 205, -1,
          223, 213, 211, -1,
          223, 211, 221, -1,
          224, 214, 212, -1,
          224, 212, 222, -1,
          225, 217, 226, -1,
          225, 215, 217, -1,
          227, 122, 124, -1,
          227, 124, 126, -1,
          227, 126, 128, -1,
          227, 128, 218, -1,
          227, 218, 213, -1,
          227, 213, 223, -1,
          228, 221, 214, -1,
          228, 214, 224, -1,
          229, 215, 225, -1,
          229, 222, 215, -1,
          230, 221, 228, -1,
          230, 223, 221, -1,
          231, 222, 229, -1,
          231, 224, 222, -1,
          232, 68, 70, -1,
          232, 70, 72, -1,
          232, 72, 74, -1,
          232, 133, 68, -1,
          232, 226, 133, -1,
          232, 225, 226, -1,
          233, 227, 223, -1,
          233, 223, 230, -1,
          233, 116, 118, -1,
          233, 118, 120, -1,
          233, 120, 122, -1,
          233, 122, 227, -1,
          234, 228, 224, -1,
          234, 224, 231, -1,
          235, 74, 76, -1,
          235, 76, 78, -1,
          235, 78, 80, -1,
          235, 80, 82, -1,
          235, 225, 232, -1,
          235, 232, 74, -1,
          235, 229, 225, -1,
          236, 228, 234, -1,
          236, 104, 106, -1,
          236, 106, 108, -1,
          236, 230, 228, -1,
          237, 82, 84, -1,
          237, 84, 86, -1,
          237, 86, 88, -1,
          237, 235, 82, -1,
          237, 229, 235, -1,
          237, 231, 229, -1,
          238, 108, 110, -1,
          238, 110, 112, -1,
          238, 112, 114, -1,
          238, 114, 116, -1,
          238, 236, 108, -1,
          238, 230, 236, -1,
          238, 233, 230, -1,
          238, 116, 233, -1,
          239, 88, 90, -1,
          239, 90, 92, -1,
          239, 92, 94, -1,
          239, 94, 96, -1,
          239, 234, 231, -1,
          239, 231, 237, -1,
          239, 237, 88, -1,
          240, 96, 98, -1,
          240, 98, 100, -1,
          240, 100, 102, -1,
          240, 102, 104, -1,
          240, 236, 234, -1,
          240, 104, 236, -1,
          240, 239, 96, -1,
          240, 234, 239, -1,
          129, 131, 241, -1,
          129, 241, 242, -1,
          62, 133, 60, -1,
          64, 133, 62, -1,
          243, 244, 245, -1,
          243, 245, 246, -1,
          247, 248, 249, -1,
          247, 249, 250, -1,
          247, 250, 251, -1,
          252, 253, 254, -1,
          252, 254, 255, -1,
          252, 255, 256, -1,
          257, 258, 259, -1,
          257, 248, 247, -1,
          257, 259, 260, -1,
          257, 260, 261, -1,
          257, 261, 248, -1,
          262, 246, 263, -1,
          262, 263, 264, -1,
          262, 264, 253, -1,
          262, 243, 246, -1,
          262, 253, 252, -1,
          265, 266, 267, -1,
          265, 267, 268, -1,
          265, 268, 258, -1,
          269, 247, 251, -1,
          269, 251, 244, -1,
          269, 243, 262, -1,
          269, 244, 243, -1,
          270, 252, 256, -1,
          270, 256, 271, -1,
          270, 271, 272, -1,
          270, 272, 273, -1,
          274, 247, 269, -1,
          274, 257, 247, -1,
          275, 252, 270, -1,
          275, 262, 252, -1,
          276, 257, 274, -1,
          276, 265, 258, -1,
          276, 258, 257, -1,
          277, 262, 275, -1,
          277, 269, 262, -1,
          278, 273, 279, -1,
          278, 279, 280, -1,
          278, 280, 281, -1,
          278, 270, 273, -1,
          282, 138, 129, -1,
          282, 242, 283, -1,
          282, 283, 284, -1,
          282, 284, 266, -1,
          282, 266, 265, -1,
          282, 129, 242, -1,
          282, 265, 276, -1,
          285, 269, 277, -1,
          285, 274, 269, -1,
          286, 270, 278, -1,
          286, 275, 270, -1,
          287, 274, 285, -1,
          287, 276, 274, -1,
          288, 277, 275, -1,
          288, 275, 286, -1,
          289, 281, 290, -1,
          289, 290, 3, -1,
          289, 3, 0, -1,
          289, 0, 4, -1,
          289, 278, 281, -1,
          291, 140, 138, -1,
          291, 147, 140, -1,
          291, 282, 276, -1,
          291, 138, 282, -1,
          291, 276, 287, -1,
          292, 285, 277, -1,
          292, 277, 288, -1,
          293, 278, 289, -1,
          293, 286, 278, -1,
          294, 287, 285, -1,
          294, 285, 292, -1,
          295, 288, 286, -1,
          295, 286, 293, -1,
          296, 289, 4, -1,
          296, 4, 6, -1,
          296, 6, 8, -1,
          296, 8, 10, -1,
          297, 148, 147, -1,
          297, 287, 294, -1,
          297, 291, 287, -1,
          297, 147, 291, -1,
          298, 292, 288, -1,
          298, 288, 295, -1,
          299, 289, 296, -1,
          299, 293, 289, -1,
          300, 292, 298, -1,
          300, 294, 292, -1,
          301, 293, 299, -1,
          301, 295, 293, -1,
          302, 296, 10, -1,
          302, 10, 12, -1,
          302, 12, 14, -1,
          302, 14, 16, -1,
          303, 155, 148, -1,
          303, 159, 155, -1,
          303, 148, 297, -1,
          303, 294, 300, -1,
          303, 297, 294, -1,
          304, 295, 301, -1,
          304, 298, 295, -1,
          305, 296, 302, -1,
          305, 299, 296, -1,
          306, 298, 304, -1,
          306, 300, 298, -1,
          307, 301, 299, -1,
          307, 299, 305, -1,
          308, 302, 16, -1,
          308, 16, 18, -1,
          308, 18, 20, -1,
          308, 20, 22, -1,
          309, 160, 159, -1,
          309, 303, 300, -1,
          309, 300, 306, -1,
          309, 159, 303, -1,
          310, 304, 301, -1,
          310, 301, 307, -1,
          311, 305, 302, -1,
          311, 302, 308, -1,
          312, 304, 310, -1,
          312, 306, 304, -1,
          313, 307, 305, -1,
          313, 305, 311, -1,
          314, 169, 160, -1,
          314, 179, 169, -1,
          314, 160, 309, -1,
          314, 309, 306, -1,
          314, 306, 312, -1,
          315, 310, 307, -1,
          315, 307, 313, -1,
          316, 311, 308, -1,
          316, 22, 24, -1,
          316, 24, 26, -1,
          316, 26, 28, -1,
          316, 308, 22, -1,
          317, 310, 315, -1,
          317, 312, 310, -1,
          318, 313, 311, -1,
          318, 311, 316, -1,
          319, 179, 314, -1,
          319, 312, 317, -1,
          319, 188, 180, -1,
          319, 180, 179, -1,
          319, 314, 312, -1,
          320, 313, 318, -1,
          320, 315, 313, -1,
          321, 28, 30, -1,
          321, 30, 32, -1,
          321, 316, 28, -1,
          322, 315, 320, -1,
          322, 317, 315, -1,
          323, 321, 32, -1,
          323, 316, 321, -1,
          323, 32, 34, -1,
          323, 318, 316, -1,
          324, 319, 317, -1,
          324, 188, 319, -1,
          324, 194, 188, -1,
          324, 317, 322, -1,
          325, 318, 323, -1,
          325, 320, 318, -1,
          326, 322, 320, -1,
          326, 320, 325, -1,
          327, 34, 36, -1,
          327, 36, 38, -1,
          327, 38, 40, -1,
          327, 323, 34, -1,
          328, 324, 322, -1,
          328, 194, 324, -1,
          328, 322, 326, -1,
          328, 206, 195, -1,
          328, 195, 194, -1,
          329, 323, 327, -1,
          329, 325, 323, -1,
          330, 325, 329, -1,
          330, 326, 325, -1,
          331, 326, 330, -1,
          331, 328, 326, -1,
          331, 206, 328, -1,
          331, 216, 206, -1,
          332, 329, 327, -1,
          332, 327, 40, -1,
          332, 40, 42, -1,
          332, 42, 44, -1,
          332, 44, 46, -1,
          332, 46, 48, -1,
          333, 330, 329, -1,
          333, 329, 332, -1,
          333, 332, 48, -1,
          334, 330, 333, -1,
          334, 331, 330, -1,
          334, 216, 331, -1,
          334, 226, 217, -1,
          334, 217, 216, -1,
          335, 333, 48, -1,
          335, 48, 50, -1,
          335, 50, 52, -1,
          335, 52, 54, -1,
          336, 334, 333, -1,
          336, 60, 133, -1,
          336, 333, 335, -1,
          336, 226, 334, -1,
          336, 335, 54, -1,
          336, 54, 56, -1,
          336, 56, 58, -1,
          336, 58, 60, -1,
          336, 133, 226, -1,
          219, 128, 127, -1,
          219, 127, 337, -1,
          220, 337, 338, -1,
          220, 219, 337, -1,
          208, 338, 339, -1,
          208, 220, 338, -1,
          209, 339, 340, -1,
          209, 208, 339, -1,
          210, 340, 341, -1,
          210, 209, 340, -1,
          197, 341, 342, -1,
          197, 210, 341, -1,
          198, 342, 343, -1,
          198, 197, 342, -1,
          199, 343, 344, -1,
          199, 198, 343, -1,
          200, 344, 345, -1,
          200, 199, 344, -1,
          184, 345, 346, -1,
          184, 200, 345, -1,
          185, 346, 347, -1,
          185, 184, 346, -1,
          173, 347, 348, -1,
          173, 185, 347, -1,
          174, 348, 349, -1,
          174, 173, 348, -1,
          175, 349, 350, -1,
          175, 174, 349, -1,
          176, 350, 351, -1,
          176, 175, 350, -1,
          162, 351, 352, -1,
          162, 176, 351, -1,
          163, 352, 353, -1,
          163, 162, 352, -1,
          164, 163, 353, -1,
          164, 353, 354, -1,
          165, 164, 354, -1,
          165, 354, 355, -1,
          151, 165, 355, -1,
          151, 355, 356, -1,
          152, 151, 356, -1,
          152, 356, 357, -1,
          153, 152, 357, -1,
          153, 357, 358, -1,
          142, 358, 359, -1,
          142, 153, 358, -1,
          143, 359, 360, -1,
          143, 142, 359, -1,
          144, 360, 361, -1,
          144, 143, 360, -1,
          145, 361, 362, -1,
          145, 144, 361, -1,
          135, 362, 363, -1,
          135, 145, 362, -1,
          136, 363, 364, -1,
          136, 135, 363, -1,
          137, 364, 365, -1,
          137, 136, 364, -1,
          132, 365, 366, -1,
          132, 137, 365, -1,
          130, 366, 367, -1,
          130, 132, 366, -1,
          131, 367, 368, -1,
          131, 130, 367, -1,
          241, 368, 369, -1,
          241, 131, 368, -1,
          242, 369, 370, -1,
          242, 241, 369, -1,
          283, 370, 371, -1,
          283, 242, 370, -1,
          284, 371, 372, -1,
          284, 283, 371, -1,
          266, 372, 373, -1,
          266, 284, 372, -1,
          267, 373, 374, -1,
          267, 266, 373, -1,
          268, 374, 375, -1,
          268, 267, 374, -1,
          258, 375, 376, -1,
          258, 268, 375, -1,
          259, 376, 377, -1,
          259, 258, 376, -1,
          260, 377, 378, -1,
          260, 259, 377, -1,
          261, 260, 378, -1,
          261, 378, 379, -1,
          248, 261, 379, -1,
          248, 379, 380, -1,
          249, 248, 380, -1,
          249, 380, 381, -1,
          250, 249, 381, -1,
          250, 381, 382, -1,
          251, 250, 382, -1,
          251, 382, 383, -1,
          244, 251, 383, -1,
          244, 383, 384, -1,
          245, 244, 384, -1,
          245, 384, 385, -1,
          246, 245, 385, -1,
          246, 385, 386, -1,
          263, 246, 386, -1,
          263, 386, 387, -1,
          264, 263, 387, -1,
          264, 387, 388, -1,
          253, 264, 388, -1,
          253, 388, 389, -1,
          254, 253, 389, -1,
          254, 389, 390, -1,
          255, 254, 390, -1,
          255, 390, 391, -1,
          256, 255, 391, -1,
          256, 391, 392, -1,
          271, 392, 393, -1,
          271, 256, 392, -1,
          272, 393, 394, -1,
          272, 271, 393, -1,
          273, 394, 395, -1,
          273, 272, 394, -1,
          279, 395, 396, -1,
          279, 273, 395, -1,
          280, 396, 397, -1,
          280, 279, 396, -1,
          281, 397, 398, -1,
          281, 280, 397, -1,
          290, 398, 1, -1,
          290, 281, 398, -1,
          3, 290, 1, -1,
          349, 348, 350, -1,
          350, 348, 351, -1,
          351, 348, 352, -1,
          352, 348, 353, -1,
          355, 357, 356, -1,
          357, 359, 358, -1,
          345, 344, 346, -1,
          346, 344, 347, -1,
          347, 344, 348, -1,
          353, 344, 354, -1,
          348, 344, 353, -1,
          354, 360, 355, -1,
          355, 360, 357, -1,
          357, 360, 359, -1,
          342, 341, 343, -1,
          361, 364, 362, -1,
          362, 364, 363, -1,
          360, 365, 361, -1,
          354, 365, 360, -1,
          361, 365, 364, -1,
          365, 367, 366, -1,
          365, 368, 367, -1,
          127, 121, 337, -1,
          123, 121, 125, -1,
          125, 121, 127, -1,
          368, 372, 369, -1,
          369, 372, 370, -1,
          370, 372, 371, -1,
          121, 115, 337, -1,
          337, 115, 338, -1,
          338, 115, 339, -1,
          339, 115, 340, -1,
          340, 115, 341, -1,
          117, 115, 119, -1,
          119, 115, 121, -1,
          341, 115, 343, -1,
          368, 375, 372, -1,
          372, 375, 373, -1,
          373, 375, 374, -1,
          113, 111, 115, -1,
          368, 376, 375, -1,
          368, 378, 376, -1,
          376, 378, 377, -1,
          105, 103, 107, -1,
          378, 380, 379, -1,
          107, 101, 109, -1,
          103, 101, 107, -1,
          99, 97, 101, -1,
          109, 97, 111, -1,
          101, 97, 109, -1,
          111, 97, 115, -1,
          380, 383, 381, -1,
          381, 383, 382, -1,
          368, 384, 378, -1,
          378, 384, 380, -1,
          380, 384, 383, -1,
          354, 384, 365, -1,
          365, 384, 368, -1,
          95, 93, 97, -1,
          384, 386, 385, -1,
          91, 89, 93, -1,
          93, 89, 97, -1,
          89, 87, 97, -1,
          386, 388, 387, -1,
          384, 389, 386, -1,
          386, 389, 388, -1,
          83, 81, 85, -1,
          85, 81, 87, -1,
          87, 79, 97, -1,
          81, 79, 87, -1,
          343, 392, 344, -1,
          384, 392, 389, -1,
          389, 392, 390, -1,
          344, 392, 354, -1,
          390, 392, 391, -1,
          354, 392, 384, -1,
          115, 392, 343, -1,
          115, 393, 392, -1,
          77, 75, 79, -1,
          97, 71, 115, -1,
          75, 71, 79, -1,
          79, 71, 97, -1,
          73, 71, 75, -1,
          394, 396, 395, -1,
          394, 398, 396, -1,
          393, 398, 394, -1,
          396, 398, 397, -1,
          115, 398, 393, -1,
          65, 63, 67, -1,
          67, 63, 69, -1,
          69, 63, 71, -1,
          398, 2, 1, -1,
          61, 59, 63, -1,
          115, 57, 398, -1,
          63, 57, 71, -1,
          398, 57, 2, -1,
          59, 57, 63, -1,
          2, 57, 5, -1,
          71, 57, 115, -1,
          5, 11, 7, -1,
          7, 11, 9, -1,
          55, 53, 57, -1,
          53, 51, 57, -1,
          5, 15, 11, -1,
          11, 15, 13, -1,
          49, 47, 51, -1,
          47, 45, 51, -1,
          15, 21, 17, -1,
          17, 21, 19, -1,
          45, 43, 51, -1,
          5, 23, 15, -1,
          15, 23, 21, -1,
          51, 39, 57, -1,
          43, 39, 51, -1,
          41, 39, 43, -1,
          23, 29, 25, -1,
          25, 29, 27, -1,
          37, 35, 39, -1,
          23, 31, 29, -1,
          57, 33, 5, -1,
          5, 33, 23, -1,
          23, 33, 31, -1,
          39, 33, 57, -1,
          35, 33, 39, -1
        ]
      }
    }
}
