{"asset":{"version":"2.0","generator":"microscope_builder_4 scripts/catalog/dedupe-mounted-lens-housings.mjs"},"scene":0,"scenes":[{"nodes":[0]}],"nodes":[{"mesh":0}],"meshes":[{"primitives":[{"attributes":{"POSITION":1,"NORMAL":2},"indices":0,"mode":4},{"attributes":{"POSITION":4,"NORMAL":5},"indices":3,"mode":4},{"attributes":{"POSITION":7,"NORMAL":8},"indices":6,"mode":4}]}],"buffers":[{"uri":"la1401-a-ml.bin","byteLength":139764}],"bufferViews":[{"buffer":0,"byteOffset":0,"byteLength":41340,"target":34963},{"buffer":0,"byteOffset":41340,"byteLength":41340,"target":34962},{"buffer":0,"byteOffset":82680,"byteLength":41340,"target":34962},{"buffer":0,"byteOffset":124020,"byteLength":3744,"target":34963},{"buffer":0,"byteOffset":127764,"byteLength":3744,"target":34962},{"buffer":0,"byteOffset":131508,"byteLength":3744,"target":34962},{"buffer":0,"byteOffset":135252,"byteLength":1488,"target":34963},{"buffer":0,"byteOffset":136740,"byteLength":1512,"target":34962},{"buffer":0,"byteOffset":138252,"byteLength":1512,"target":34962}],"accessors":[{"bufferView":0,"componentType":5123,"count":20670,"type":"SCALAR"},{"bufferView":1,"componentType":5126,"count":3445,"type":"VEC3","min":[-10.286999702453613,-27.940000534057617,-27.940000534057617],"max":[10.286999702453613,27.940000534057617,27.940000534057617]},{"bufferView":2,"componentType":5126,"count":3445,"type":"VEC3"},{"bufferView":3,"componentType":5123,"count":1872,"type":"SCALAR"},{"bufferView":4,"componentType":5126,"count":312,"type":"VEC3","min":[-2.0390000343322754,-25.8439998626709,-25.8439998626709],"max":[0.5009999871253967,25.8439998626709,25.8439998626709]},{"bufferView":5,"componentType":5126,"count":312,"type":"VEC3"},{"bufferView":6,"componentType":5123,"count":744,"type":"SCALAR"},{"bufferView":7,"componentType":5126,"count":126,"type":"VEC3","min":[-6.4770002365112305,-25.38800048828125,-25.38800048828125],"max":[9.812999725341797,25.38800048828125,25.38800048828125]},{"bufferView":8,"componentType":5126,"count":126,"type":"VEC3"}]}
