{"asset":{"version":"2.0","generator":"microscope_builder_4 scripts/catalog/dedupe-mounted-lens-housings.mjs"},"scene":0,"scenes":[{"nodes":[0]}],"nodes":[{"mesh":0}],"meshes":[{"primitives":[{"attributes":{"POSITION":1,"NORMAL":2},"indices":0,"mode":4},{"attributes":{"POSITION":4,"NORMAL":5},"indices":3,"mode":4},{"attributes":{"POSITION":7,"NORMAL":8},"indices":6,"mode":4}]}],"buffers":[{"uri":"../shared/lens-components/ef/ef9a5f7d85d6e4128efd6b72738a3710b1251ce3e47689b9af24d05a23a78a98.bin","byteLength":11808},{"uri":"la1484-b-ml.bin","byteLength":138756}],"bufferViews":[{"buffer":0,"byteOffset":0,"byteLength":3936,"target":34963},{"buffer":0,"byteOffset":3936,"byteLength":3936,"target":34962},{"buffer":0,"byteOffset":7872,"byteLength":3936,"target":34962},{"buffer":1,"byteOffset":0,"byteLength":45336,"target":34963},{"buffer":1,"byteOffset":45336,"byteLength":45336,"target":34962},{"buffer":1,"byteOffset":90672,"byteLength":45336,"target":34962},{"buffer":1,"byteOffset":136008,"byteLength":900,"target":34963},{"buffer":1,"byteOffset":136908,"byteLength":924,"target":34962},{"buffer":1,"byteOffset":137832,"byteLength":924,"target":34962}],"accessors":[{"bufferView":0,"componentType":5123,"count":1968,"type":"SCALAR"},{"bufferView":1,"componentType":5126,"count":328,"type":"VEC3","min":[-5.544000148773193,-13.144000053405762,-13.144000053405762],"max":[-3.51200008392334,13.144000053405762,13.144000053405762]},{"bufferView":2,"componentType":5126,"count":328,"type":"VEC3"},{"bufferView":3,"componentType":5123,"count":22668,"type":"SCALAR"},{"bufferView":4,"componentType":5126,"count":3778,"type":"VEC3","min":[-11.430000305175781,-15.239999771118164,-15.239999771118164],"max":[0,15.239999771118164,15.239999771118164]},{"bufferView":5,"componentType":5126,"count":3778,"type":"VEC3"},{"bufferView":6,"componentType":5123,"count":450,"type":"SCALAR"},{"bufferView":7,"componentType":5126,"count":77,"type":"VEC3","min":[-7.619999885559082,-12.699999809265137,-12.699999809265137],"max":[-5.099999904632568,12.699999809265137,12.699999809265137]},{"bufferView":8,"componentType":5126,"count":77,"type":"VEC3"}]}
