{"asset":{"version":"2.0","generator":"microscope_builder_4 scripts/catalog/dedupe-mounted-lens-housings.mjs"},"scene":0,"scenes":[{"nodes":[0]}],"nodes":[{"mesh":0}],"meshes":[{"primitives":[{"attributes":{"POSITION":1,"NORMAL":2},"indices":0,"mode":4},{"attributes":{"POSITION":4,"NORMAL":5},"indices":3,"mode":4},{"attributes":{"POSITION":7,"NORMAL":8},"indices":6,"mode":4}]}],"buffers":[{"uri":"la1433-ab-ml.bin","byteLength":171480}],"bufferViews":[{"buffer":0,"byteOffset":0,"byteLength":45324,"target":34963},{"buffer":0,"byteOffset":45324,"byteLength":45324,"target":34962},{"buffer":0,"byteOffset":90648,"byteLength":45324,"target":34962},{"buffer":0,"byteOffset":135972,"byteLength":3936,"target":34963},{"buffer":0,"byteOffset":139908,"byteLength":3936,"target":34962},{"buffer":0,"byteOffset":143844,"byteLength":3936,"target":34962},{"buffer":0,"byteOffset":147780,"byteLength":7884,"target":34963},{"buffer":0,"byteOffset":155664,"byteLength":7908,"target":34962},{"buffer":0,"byteOffset":163572,"byteLength":7908,"target":34962}],"accessors":[{"bufferView":0,"componentType":5123,"count":22662,"type":"SCALAR"},{"bufferView":1,"componentType":5126,"count":3777,"type":"VEC3","min":[-5.335000038146973,-3.049999952316284,-19.864999771118164],"max":[6.09499979019165,27.43000030517578,10.614999771118164]},{"bufferView":2,"componentType":5126,"count":3777,"type":"VEC3"},{"bufferView":3,"componentType":5123,"count":1968,"type":"SCALAR"},{"bufferView":4,"componentType":5126,"count":328,"type":"VEC3","min":[0.6330000162124634,-0.9539999961853027,-17.770000457763672],"max":[2.6649999618530273,25.334999084472656,8.519000053405762]},{"bufferView":5,"componentType":5126,"count":328,"type":"VEC3"},{"bufferView":6,"componentType":5123,"count":3942,"type":"SCALAR"},{"bufferView":7,"componentType":5126,"count":659,"type":"VEC3","min":[-1.524999976158142,-0.5099999904632568,-17.325000762939453],"max":[1.524999976158142,24.889999389648438,8.074999809265137]},{"bufferView":8,"componentType":5126,"count":659,"type":"VEC3"}]}
