#VRML V2.0 utf8
WorldInfo {
  title "Exported triangle mesh to VRML97"
  info ["Created by FreeCAD"
        "<https://www.freecad.org>"]
}

Transform {
  scale 1 1 1
  rotation 0 0 1 0
  scaleOrientation 0 0 1 0
  center 0.000 0.000 0.000
  translation 0.000 0.000 0.000
  children
    Shape { 
      appearance
      Appearance {
        material
        Material {
          diffuseColor 0.8 0.8 0.8
        }
      }
      geometry
      IndexedFaceSet {
        coord
        Coordinate {
          point [
            25.369 1.246 -0.650,
            25.400 0.000 -3.645,
            25.368 1.266 -3.645,
            25.400 0.000 -0.650,
            25.278 2.490 -0.650,
            25.274 2.529 -3.645,
            25.125 3.727 -0.650,
            25.116 3.786 -3.645,
            24.912 4.955 -0.650,
            24.896 5.033 -3.645,
            24.639 6.172 -0.650,
            24.615 6.268 -3.645,
            24.306 7.373 -0.650,
            24.272 7.487 -3.645,
            23.915 8.557 -0.650,
            23.868 8.687 -3.645,
            23.467 9.720 -0.650,
            23.405 9.866 -3.645,
            22.961 10.860 -0.650,
            22.885 11.021 -3.645,
            22.401 11.973 -0.650,
            22.307 12.148 -3.645,
            21.786 13.058 -0.650,
            21.674 13.244 -3.645,
            21.119 14.111 -0.650,
            20.986 14.308 -3.645,
            20.401 15.131 -0.650,
            20.247 15.337 -3.645,
            19.634 16.114 -0.650,
            19.458 16.327 -3.645,
            18.820 17.058 -0.650,
            18.620 17.276 -3.645,
            17.961 17.961 -0.650,
            17.735 18.183 -3.645,
            17.058 18.820 -0.650,
            16.807 19.044 -3.645,
            16.114 19.634 -0.650,
            15.837 19.859 -3.645,
            15.131 20.401 -0.650,
            14.827 20.623 -3.645,
            14.111 21.119 -0.650,
            13.781 21.337 -3.645,
            13.058 21.786 -0.650,
            12.700 21.997 -3.645,
            11.973 22.401 -0.650,
            11.588 22.603 -3.645,
            10.860 22.961 -0.650,
            10.447 23.152 -3.645,
            9.720 23.467 -0.650,
            9.280 23.644 -3.645,
            8.557 23.915 -0.650,
            8.090 24.077 -3.645,
            7.373 24.306 -0.650,
            6.879 24.451 -3.645,
            6.172 24.639 -0.650,
            5.652 24.763 -3.645,
            4.955 24.912 -0.650,
            4.411 25.014 -3.645,
            3.727 25.125 -0.650,
            3.158 25.203 -3.645,
            2.490 25.278 -0.650,
            1.898 25.329 -3.645,
            1.246 25.369 -0.650,
            0.633 25.392 -3.645,
            0.000 25.400 -0.650,
            -0.633 25.392 -3.645,
            -1.246 25.369 -0.650,
            -1.898 25.329 -3.645,
            -2.490 25.278 -0.650,
            -3.158 25.203 -3.645,
            -3.727 25.125 -0.650,
            -4.411 25.014 -3.645,
            -4.955 24.912 -0.650,
            -5.652 24.763 -3.645,
            -6.172 24.639 -0.650,
            -6.879 24.451 -3.645,
            -7.373 24.306 -0.650,
            -8.090 24.077 -3.645,
            -8.557 23.915 -0.650,
            -9.280 23.644 -3.645,
            -9.720 23.467 -0.650,
            -10.447 23.152 -3.645,
            -10.860 22.961 -0.650,
            -11.588 22.603 -3.645,
            -11.973 22.401 -0.650,
            -12.700 21.997 -3.645,
            -13.058 21.786 -0.650,
            -13.781 21.337 -3.645,
            -14.111 21.119 -0.650,
            -14.827 20.623 -3.645,
            -15.131 20.401 -0.650,
            -15.837 19.859 -3.645,
            -16.114 19.634 -0.650,
            -16.807 19.044 -3.645,
            -17.058 18.820 -0.650,
            -17.735 18.183 -3.645,
            -17.961 17.961 -0.650,
            -18.620 17.276 -3.645,
            -18.820 17.058 -0.650,
            -19.458 16.327 -3.645,
            -19.634 16.114 -0.650,
            -20.247 15.337 -3.645,
            -20.401 15.131 -0.650,
            -20.986 14.308 -3.645,
            -21.119 14.111 -0.650,
            -21.674 13.244 -3.645,
            -21.786 13.058 -0.650,
            -22.307 12.148 -3.645,
            -22.401 11.973 -0.650,
            -22.885 11.021 -3.645,
            -22.961 10.860 -0.650,
            -23.405 9.866 -3.645,
            -23.467 9.720 -0.650,
            -23.868 8.687 -3.645,
            -23.915 8.557 -0.650,
            -24.272 7.487 -3.645,
            -24.306 7.373 -0.650,
            -24.615 6.268 -3.645,
            -24.639 6.172 -0.650,
            -24.896 5.033 -3.645,
            -24.912 4.955 -0.650,
            -25.116 3.786 -3.645,
            -25.125 3.727 -0.650,
            -25.274 2.529 -3.645,
            -25.278 2.490 -0.650,
            -25.368 1.266 -3.645,
            -25.369 1.246 -0.650,
            -25.400 0.000 -3.645,
            -25.400 0.000 -0.650,
            -0.000 -21.880 0.482,
            -2.490 -25.278 -0.650,
            -1.246 -25.369 -0.650,
            -0.000 -25.400 -0.650,
            0.000 21.880 0.482,
            -5.172 -22.890 -0.005,
            -8.557 -23.915 -0.650,
            -7.373 -24.306 -0.650,
            -6.172 -24.639 -0.650,
            -4.955 -24.912 -0.650,
            -3.727 -25.125 -0.650,
            -5.172 -17.911 1.362,
            -0.000 -18.311 1.444,
            -0.000 -14.699 2.234,
            -10.322 -20.275 0.219,
            -14.111 -21.119 -0.650,
            -13.058 -21.786 -0.650,
            -11.973 -22.401 -0.650,
            -10.860 -22.961 -0.650,
            -9.720 -23.467 -0.650,
            -5.172 -12.851 2.393,
            -0.000 -11.054 2.850,
            -10.322 -15.286 1.411,
            -5.172 -7.734 3.083,
            -0.000 -7.383 3.291,
            -0.000 -3.696 3.557,
            -15.424 -17.590 0.018,
            -18.820 -17.058 -0.650,
            -17.961 -17.961 -0.650,
            -17.058 -18.820 -0.650,
            -16.114 -19.634 -0.650,
            -15.131 -20.401 -0.650,
            -10.322 -10.229 2.266,
            -5.172 -2.582 3.428,
            0.000 0.000 3.645,
            -15.424 -12.621 1.030,
            -21.119 -14.111 -0.650,
            -20.401 -15.131 -0.650,
            -19.634 -16.114 -0.650,
            -10.322 -5.126 2.781,
            -5.172 2.582 3.428,
            0.000 3.696 3.557,
            -15.424 -7.595 1.708,
            -10.322 0.000 2.952,
            -20.458 -9.953 0.219,
            -23.915 -8.557 -0.650,
            -23.467 -9.720 -0.650,
            -22.961 -10.860 -0.650,
            -22.401 -11.973 -0.650,
            -21.786 -13.058 -0.650,
            -5.172 7.734 3.083,
            0.000 7.383 3.291,
            0.000 11.054 2.850,
            -15.424 -2.536 2.047,
            -10.322 5.126 2.781,
            -20.458 -4.988 0.720,
            -25.278 -2.490 -0.650,
            -25.125 -3.727 -0.650,
            -24.912 -4.955 -0.650,
            -24.639 -6.172 -0.650,
            -24.306 -7.373 -0.650,
            -5.172 12.851 2.393,
            0.000 14.699 2.234,
            -15.424 2.536 2.047,
            -10.322 10.229 2.266,
            -20.458 0.000 0.887,
            -25.369 -1.246 -0.650,
            -5.172 17.911 1.362,
            0.000 18.311 1.444,
            -15.424 7.595 1.708,
            -10.322 15.286 1.411,
            -20.458 4.988 0.720,
            -5.172 22.890 -0.005,
            -15.424 12.621 1.030,
            -10.322 20.275 0.219,
            -20.458 9.953 0.219,
            -15.424 17.590 0.018,
            1.246 -25.369 -0.650,
            2.490 -25.278 -0.650,
            3.727 -25.125 -0.650,
            20.458 -12.420 -0.155,
            20.401 -15.131 -0.650,
            21.119 -14.111 -0.650,
            21.786 -13.058 -0.650,
            22.401 -11.973 -0.650,
            22.961 -10.860 -0.650,
            10.322 -22.736 -0.501,
            8.557 -23.915 -0.650,
            9.720 -23.467 -0.650,
            10.860 -22.961 -0.650,
            11.973 -22.401 -0.650,
            15.424 -15.114 0.566,
            15.131 -20.401 -0.650,
            16.114 -19.634 -0.650,
            17.058 -18.820 -0.650,
            17.961 -17.961 -0.650,
            18.820 -17.058 -0.650,
            19.634 -16.114 -0.650,
            20.458 -7.475 0.511,
            23.467 -9.720 -0.650,
            23.915 -8.557 -0.650,
            24.306 -7.373 -0.650,
            24.639 -6.172 -0.650,
            24.912 -4.955 -0.650,
            10.322 -17.790 0.857,
            13.058 -21.786 -0.650,
            14.111 -21.119 -0.650,
            15.424 -10.114 1.411,
            5.172 -20.412 0.720,
            4.955 -24.912 -0.650,
            6.172 -24.639 -0.650,
            7.373 -24.306 -0.650,
            20.458 -2.495 0.845,
            25.125 -3.727 -0.650,
            25.278 -2.490 -0.650,
            25.369 -1.246 -0.650,
            10.322 -12.765 1.881,
            15.424 -5.068 1.920,
            5.172 -15.390 1.920,
            20.458 2.495 0.845,
            10.322 -7.682 2.566,
            15.424 0.000 2.090,
            5.172 -10.298 2.781,
            20.458 7.475 0.511,
            10.322 -2.564 2.909,
            15.424 5.068 1.920,
            5.172 -5.161 3.299,
            20.458 12.420 -0.155,
            10.322 2.564 2.909,
            15.424 10.114 1.411,
            5.172 0.000 3.472,
            10.322 7.682 2.566,
            15.424 15.114 0.566,
            5.172 5.161 3.299,
            10.322 12.765 1.881,
            5.172 10.298 2.781,
            10.322 17.790 0.857,
            5.172 15.390 1.920,
            10.322 22.736 -0.501,
            5.172 20.412 0.720,
            -25.368 -1.266 -3.645,
            -25.274 -2.529 -3.645,
            -25.116 -3.786 -3.645,
            -24.896 -5.033 -3.645,
            -24.615 -6.268 -3.645,
            -24.272 -7.487 -3.645,
            -23.868 -8.687 -3.645,
            -23.405 -9.866 -3.645,
            -22.885 -11.021 -3.645,
            -22.307 -12.148 -3.645,
            -21.674 -13.244 -3.645,
            -20.986 -14.308 -3.645,
            -20.247 -15.337 -3.645,
            -19.458 -16.327 -3.645,
            -18.620 -17.276 -3.645,
            -17.735 -18.183 -3.645,
            -16.807 -19.044 -3.645,
            -15.837 -19.859 -3.645,
            -14.827 -20.623 -3.645,
            -13.781 -21.337 -3.645,
            -12.700 -21.997 -3.645,
            -11.588 -22.603 -3.645,
            -10.447 -23.152 -3.645,
            -9.280 -23.644 -3.645,
            -8.090 -24.077 -3.645,
            -6.879 -24.451 -3.645,
            -5.652 -24.763 -3.645,
            -4.411 -25.014 -3.645,
            -3.158 -25.203 -3.645,
            -1.898 -25.329 -3.645,
            -0.633 -25.392 -3.645,
            0.633 -25.392 -3.645,
            1.898 -25.329 -3.645,
            3.158 -25.203 -3.645,
            4.411 -25.014 -3.645,
            5.652 -24.763 -3.645,
            6.879 -24.451 -3.645,
            8.090 -24.077 -3.645,
            9.280 -23.644 -3.645,
            10.447 -23.152 -3.645,
            11.588 -22.603 -3.645,
            12.700 -21.997 -3.645,
            13.781 -21.337 -3.645,
            14.827 -20.623 -3.645,
            15.837 -19.859 -3.645,
            16.807 -19.044 -3.645,
            17.735 -18.183 -3.645,
            18.620 -17.276 -3.645,
            19.458 -16.327 -3.645,
            20.247 -15.337 -3.645,
            20.986 -14.308 -3.645,
            21.674 -13.244 -3.645,
            22.307 -12.148 -3.645,
            22.885 -11.021 -3.645,
            23.405 -9.866 -3.645,
            23.868 -8.687 -3.645,
            24.272 -7.487 -3.645,
            24.615 -6.268 -3.645,
            24.896 -5.033 -3.645,
            25.116 -3.786 -3.645,
            25.274 -2.529 -3.645,
            25.368 -1.266 -3.645
          ]
        }
        coordIndex [
          0, 1, 2, -1,
          0, 3, 1, -1,
          4, 2, 5, -1,
          4, 0, 2, -1,
          6, 5, 7, -1,
          6, 4, 5, -1,
          8, 7, 9, -1,
          8, 6, 7, -1,
          10, 9, 11, -1,
          10, 8, 9, -1,
          12, 11, 13, -1,
          12, 10, 11, -1,
          14, 13, 15, -1,
          14, 12, 13, -1,
          16, 15, 17, -1,
          16, 14, 15, -1,
          18, 17, 19, -1,
          18, 16, 17, -1,
          20, 19, 21, -1,
          20, 18, 19, -1,
          22, 21, 23, -1,
          22, 20, 21, -1,
          24, 23, 25, -1,
          24, 22, 23, -1,
          26, 25, 27, -1,
          26, 24, 25, -1,
          28, 27, 29, -1,
          28, 26, 27, -1,
          30, 29, 31, -1,
          30, 28, 29, -1,
          32, 31, 33, -1,
          32, 30, 31, -1,
          34, 33, 35, -1,
          34, 32, 33, -1,
          36, 34, 35, -1,
          36, 35, 37, -1,
          38, 36, 37, -1,
          38, 37, 39, -1,
          40, 38, 39, -1,
          40, 39, 41, -1,
          42, 40, 41, -1,
          42, 41, 43, -1,
          44, 42, 43, -1,
          44, 43, 45, -1,
          46, 45, 47, -1,
          46, 44, 45, -1,
          48, 47, 49, -1,
          48, 46, 47, -1,
          50, 49, 51, -1,
          50, 48, 49, -1,
          52, 51, 53, -1,
          52, 50, 51, -1,
          54, 53, 55, -1,
          54, 52, 53, -1,
          56, 55, 57, -1,
          56, 54, 55, -1,
          58, 57, 59, -1,
          58, 56, 57, -1,
          60, 59, 61, -1,
          60, 58, 59, -1,
          62, 61, 63, -1,
          62, 60, 61, -1,
          64, 63, 65, -1,
          64, 62, 63, -1,
          66, 65, 67, -1,
          66, 64, 65, -1,
          68, 67, 69, -1,
          68, 66, 67, -1,
          70, 69, 71, -1,
          70, 68, 69, -1,
          72, 71, 73, -1,
          72, 70, 71, -1,
          74, 73, 75, -1,
          74, 72, 73, -1,
          76, 75, 77, -1,
          76, 74, 75, -1,
          78, 77, 79, -1,
          78, 76, 77, -1,
          80, 79, 81, -1,
          80, 78, 79, -1,
          82, 81, 83, -1,
          82, 80, 81, -1,
          84, 83, 85, -1,
          84, 82, 83, -1,
          86, 84, 85, -1,
          86, 85, 87, -1,
          88, 86, 87, -1,
          88, 87, 89, -1,
          90, 88, 89, -1,
          90, 89, 91, -1,
          92, 90, 91, -1,
          92, 91, 93, -1,
          94, 92, 93, -1,
          94, 93, 95, -1,
          96, 94, 95, -1,
          96, 95, 97, -1,
          98, 96, 97, -1,
          98, 97, 99, -1,
          100, 98, 99, -1,
          100, 99, 101, -1,
          102, 100, 101, -1,
          102, 101, 103, -1,
          104, 102, 103, -1,
          104, 103, 105, -1,
          106, 104, 105, -1,
          106, 105, 107, -1,
          108, 106, 107, -1,
          108, 107, 109, -1,
          110, 108, 109, -1,
          110, 109, 111, -1,
          112, 111, 113, -1,
          112, 110, 111, -1,
          114, 113, 115, -1,
          114, 112, 113, -1,
          116, 115, 117, -1,
          116, 114, 115, -1,
          118, 117, 119, -1,
          118, 116, 117, -1,
          120, 119, 121, -1,
          120, 118, 119, -1,
          122, 121, 123, -1,
          122, 120, 121, -1,
          124, 123, 125, -1,
          124, 122, 123, -1,
          126, 125, 127, -1,
          126, 124, 125, -1,
          128, 126, 127, -1,
          129, 130, 131, -1,
          129, 131, 132, -1,
          66, 133, 64, -1,
          68, 133, 66, -1,
          134, 135, 136, -1,
          134, 136, 137, -1,
          134, 137, 138, -1,
          134, 138, 139, -1,
          134, 139, 130, -1,
          134, 130, 129, -1,
          140, 134, 129, -1,
          140, 129, 141, -1,
          140, 141, 142, -1,
          143, 134, 140, -1,
          143, 144, 145, -1,
          143, 145, 146, -1,
          143, 146, 147, -1,
          143, 147, 148, -1,
          143, 148, 135, -1,
          143, 135, 134, -1,
          149, 142, 150, -1,
          149, 140, 142, -1,
          151, 143, 140, -1,
          151, 140, 149, -1,
          152, 150, 153, -1,
          152, 153, 154, -1,
          152, 149, 150, -1,
          155, 143, 151, -1,
          155, 144, 143, -1,
          155, 156, 157, -1,
          155, 157, 158, -1,
          155, 158, 159, -1,
          155, 159, 160, -1,
          155, 160, 144, -1,
          161, 149, 152, -1,
          161, 151, 149, -1,
          162, 152, 154, -1,
          162, 154, 163, -1,
          164, 155, 151, -1,
          164, 156, 155, -1,
          164, 165, 166, -1,
          164, 166, 167, -1,
          164, 167, 156, -1,
          164, 151, 161, -1,
          168, 152, 162, -1,
          168, 161, 152, -1,
          169, 163, 170, -1,
          169, 162, 163, -1,
          171, 161, 168, -1,
          171, 164, 161, -1,
          172, 162, 169, -1,
          172, 168, 162, -1,
          173, 174, 175, -1,
          173, 175, 176, -1,
          173, 176, 177, -1,
          173, 177, 178, -1,
          173, 178, 165, -1,
          173, 165, 164, -1,
          173, 164, 171, -1,
          179, 180, 181, -1,
          179, 170, 180, -1,
          179, 169, 170, -1,
          182, 168, 172, -1,
          182, 171, 168, -1,
          183, 169, 179, -1,
          183, 172, 169, -1,
          184, 173, 171, -1,
          184, 174, 173, -1,
          184, 185, 186, -1,
          184, 186, 187, -1,
          184, 187, 188, -1,
          184, 188, 189, -1,
          184, 189, 174, -1,
          184, 171, 182, -1,
          190, 179, 181, -1,
          190, 181, 191, -1,
          192, 172, 183, -1,
          192, 182, 172, -1,
          193, 179, 190, -1,
          193, 183, 179, -1,
          194, 182, 192, -1,
          194, 185, 184, -1,
          194, 124, 126, -1,
          194, 126, 128, -1,
          194, 128, 195, -1,
          194, 195, 185, -1,
          194, 184, 182, -1,
          196, 190, 191, -1,
          196, 197, 133, -1,
          196, 191, 197, -1,
          198, 183, 193, -1,
          198, 192, 183, -1,
          199, 190, 196, -1,
          199, 193, 190, -1,
          200, 192, 198, -1,
          200, 114, 116, -1,
          200, 116, 118, -1,
          200, 118, 120, -1,
          200, 120, 122, -1,
          200, 122, 124, -1,
          200, 194, 192, -1,
          200, 124, 194, -1,
          201, 68, 70, -1,
          201, 70, 72, -1,
          201, 72, 74, -1,
          201, 74, 76, -1,
          201, 76, 78, -1,
          201, 196, 133, -1,
          201, 133, 68, -1,
          202, 98, 100, -1,
          202, 100, 102, -1,
          202, 102, 104, -1,
          202, 193, 199, -1,
          202, 198, 193, -1,
          203, 78, 80, -1,
          203, 80, 82, -1,
          203, 82, 84, -1,
          203, 84, 86, -1,
          203, 86, 88, -1,
          203, 199, 196, -1,
          203, 196, 201, -1,
          203, 201, 78, -1,
          204, 114, 200, -1,
          204, 104, 106, -1,
          204, 200, 198, -1,
          204, 106, 108, -1,
          204, 108, 110, -1,
          204, 110, 112, -1,
          204, 112, 114, -1,
          204, 198, 202, -1,
          204, 202, 104, -1,
          205, 88, 90, -1,
          205, 90, 92, -1,
          205, 92, 94, -1,
          205, 94, 96, -1,
          205, 96, 98, -1,
          205, 203, 88, -1,
          205, 202, 199, -1,
          205, 199, 203, -1,
          205, 98, 202, -1,
          129, 132, 206, -1,
          129, 206, 207, -1,
          129, 207, 208, -1,
          60, 133, 58, -1,
          62, 133, 60, -1,
          64, 133, 62, -1,
          209, 210, 211, -1,
          209, 211, 212, -1,
          209, 212, 213, -1,
          209, 213, 214, -1,
          215, 216, 217, -1,
          215, 217, 218, -1,
          215, 218, 219, -1,
          220, 221, 222, -1,
          220, 222, 223, -1,
          220, 223, 224, -1,
          220, 224, 225, -1,
          220, 225, 226, -1,
          220, 226, 210, -1,
          220, 210, 209, -1,
          227, 209, 214, -1,
          227, 214, 228, -1,
          227, 228, 229, -1,
          227, 229, 230, -1,
          227, 230, 231, -1,
          227, 231, 232, -1,
          233, 221, 220, -1,
          233, 219, 234, -1,
          233, 234, 235, -1,
          233, 235, 221, -1,
          233, 215, 219, -1,
          236, 220, 209, -1,
          236, 209, 227, -1,
          237, 141, 129, -1,
          237, 208, 238, -1,
          237, 238, 239, -1,
          237, 239, 240, -1,
          237, 240, 216, -1,
          237, 129, 208, -1,
          237, 216, 215, -1,
          237, 215, 233, -1,
          241, 232, 242, -1,
          241, 242, 243, -1,
          241, 243, 244, -1,
          241, 244, 3, -1,
          241, 227, 232, -1,
          245, 233, 220, -1,
          245, 220, 236, -1,
          246, 227, 241, -1,
          246, 236, 227, -1,
          247, 142, 141, -1,
          247, 150, 142, -1,
          247, 233, 245, -1,
          247, 237, 233, -1,
          247, 141, 237, -1,
          248, 3, 0, -1,
          248, 0, 4, -1,
          248, 4, 6, -1,
          248, 6, 8, -1,
          248, 241, 3, -1,
          249, 245, 236, -1,
          249, 236, 246, -1,
          250, 241, 248, -1,
          250, 246, 241, -1,
          251, 153, 150, -1,
          251, 245, 249, -1,
          251, 247, 245, -1,
          251, 150, 247, -1,
          252, 248, 8, -1,
          252, 8, 10, -1,
          252, 10, 12, -1,
          252, 12, 14, -1,
          252, 14, 16, -1,
          252, 16, 18, -1,
          253, 246, 250, -1,
          253, 249, 246, -1,
          254, 248, 252, -1,
          254, 250, 248, -1,
          255, 154, 153, -1,
          255, 249, 253, -1,
          255, 153, 251, -1,
          255, 251, 249, -1,
          256, 18, 20, -1,
          256, 20, 22, -1,
          256, 22, 24, -1,
          256, 24, 26, -1,
          256, 252, 18, -1,
          257, 253, 250, -1,
          257, 250, 254, -1,
          258, 254, 252, -1,
          258, 252, 256, -1,
          259, 253, 257, -1,
          259, 163, 154, -1,
          259, 154, 255, -1,
          259, 170, 163, -1,
          259, 255, 253, -1,
          260, 254, 258, -1,
          260, 257, 254, -1,
          261, 258, 256, -1,
          261, 26, 28, -1,
          261, 28, 30, -1,
          261, 30, 32, -1,
          261, 32, 34, -1,
          261, 34, 36, -1,
          261, 36, 38, -1,
          261, 256, 26, -1,
          262, 180, 170, -1,
          262, 257, 260, -1,
          262, 259, 257, -1,
          262, 170, 259, -1,
          263, 258, 261, -1,
          263, 260, 258, -1,
          264, 262, 260, -1,
          264, 180, 262, -1,
          264, 191, 181, -1,
          264, 181, 180, -1,
          264, 260, 263, -1,
          265, 263, 261, -1,
          265, 261, 38, -1,
          265, 38, 40, -1,
          265, 40, 42, -1,
          265, 42, 44, -1,
          266, 191, 264, -1,
          266, 264, 263, -1,
          266, 263, 265, -1,
          266, 197, 191, -1,
          267, 265, 44, -1,
          267, 44, 46, -1,
          267, 46, 48, -1,
          267, 48, 50, -1,
          268, 58, 133, -1,
          268, 265, 267, -1,
          268, 197, 266, -1,
          268, 267, 50, -1,
          268, 266, 265, -1,
          268, 50, 52, -1,
          268, 52, 54, -1,
          268, 54, 56, -1,
          268, 56, 58, -1,
          268, 133, 197, -1,
          195, 128, 127, -1,
          195, 127, 269, -1,
          185, 269, 270, -1,
          185, 195, 269, -1,
          186, 270, 271, -1,
          186, 185, 270, -1,
          187, 271, 272, -1,
          187, 186, 271, -1,
          188, 272, 273, -1,
          188, 187, 272, -1,
          189, 273, 274, -1,
          189, 188, 273, -1,
          174, 274, 275, -1,
          174, 189, 274, -1,
          175, 275, 276, -1,
          175, 174, 275, -1,
          176, 276, 277, -1,
          176, 175, 276, -1,
          177, 277, 278, -1,
          177, 176, 277, -1,
          178, 278, 279, -1,
          178, 177, 278, -1,
          165, 279, 280, -1,
          165, 178, 279, -1,
          166, 280, 281, -1,
          166, 165, 280, -1,
          167, 281, 282, -1,
          167, 166, 281, -1,
          156, 282, 283, -1,
          156, 167, 282, -1,
          157, 283, 284, -1,
          157, 156, 283, -1,
          158, 284, 285, -1,
          158, 157, 284, -1,
          159, 158, 285, -1,
          159, 285, 286, -1,
          160, 159, 286, -1,
          160, 286, 287, -1,
          144, 160, 287, -1,
          144, 287, 288, -1,
          145, 144, 288, -1,
          145, 288, 289, -1,
          146, 145, 289, -1,
          146, 289, 290, -1,
          147, 290, 291, -1,
          147, 146, 290, -1,
          148, 291, 292, -1,
          148, 147, 291, -1,
          135, 292, 293, -1,
          135, 148, 292, -1,
          136, 293, 294, -1,
          136, 135, 293, -1,
          137, 294, 295, -1,
          137, 136, 294, -1,
          138, 295, 296, -1,
          138, 137, 295, -1,
          139, 296, 297, -1,
          139, 138, 296, -1,
          130, 297, 298, -1,
          130, 139, 297, -1,
          131, 298, 299, -1,
          131, 130, 298, -1,
          132, 299, 300, -1,
          132, 131, 299, -1,
          206, 300, 301, -1,
          206, 132, 300, -1,
          207, 301, 302, -1,
          207, 206, 301, -1,
          208, 302, 303, -1,
          208, 207, 302, -1,
          238, 303, 304, -1,
          238, 208, 303, -1,
          239, 304, 305, -1,
          239, 238, 304, -1,
          240, 305, 306, -1,
          240, 239, 305, -1,
          216, 306, 307, -1,
          216, 240, 306, -1,
          217, 307, 308, -1,
          217, 216, 307, -1,
          218, 308, 309, -1,
          218, 217, 308, -1,
          219, 309, 310, -1,
          219, 218, 309, -1,
          234, 219, 310, -1,
          234, 310, 311, -1,
          235, 234, 311, -1,
          235, 311, 312, -1,
          221, 235, 312, -1,
          221, 312, 313, -1,
          222, 221, 313, -1,
          222, 313, 314, -1,
          223, 222, 314, -1,
          223, 314, 315, -1,
          224, 223, 315, -1,
          224, 315, 316, -1,
          225, 224, 316, -1,
          225, 316, 317, -1,
          226, 225, 317, -1,
          226, 317, 318, -1,
          210, 226, 318, -1,
          210, 318, 319, -1,
          211, 210, 319, -1,
          211, 319, 320, -1,
          212, 211, 320, -1,
          212, 320, 321, -1,
          213, 212, 321, -1,
          213, 321, 322, -1,
          214, 213, 322, -1,
          214, 322, 323, -1,
          228, 214, 323, -1,
          228, 323, 324, -1,
          229, 324, 325, -1,
          229, 228, 324, -1,
          230, 325, 326, -1,
          230, 229, 325, -1,
          231, 326, 327, -1,
          231, 230, 326, -1,
          232, 327, 328, -1,
          232, 231, 327, -1,
          242, 328, 329, -1,
          242, 232, 328, -1,
          243, 329, 330, -1,
          243, 242, 329, -1,
          244, 330, 1, -1,
          244, 243, 330, -1,
          3, 244, 1, -1,
          284, 286, 285, -1,
          281, 280, 282, -1,
          286, 288, 287, -1,
          284, 289, 286, -1,
          286, 289, 288, -1,
          279, 278, 280, -1,
          282, 278, 283, -1,
          280, 278, 282, -1,
          278, 277, 283, -1,
          289, 291, 290, -1,
          276, 275, 277, -1,
          291, 293, 292, -1,
          275, 274, 277, -1,
          274, 273, 277, -1,
          293, 295, 294, -1,
          283, 272, 284, -1,
          277, 272, 283, -1,
          273, 272, 277, -1,
          295, 297, 296, -1,
          271, 270, 272, -1,
          270, 269, 272, -1,
          123, 121, 125, -1,
          125, 121, 127, -1,
          127, 119, 269, -1,
          121, 119, 127, -1,
          300, 304, 301, -1,
          301, 304, 302, -1,
          302, 304, 303, -1,
          297, 305, 298, -1,
          298, 305, 299, -1,
          299, 305, 300, -1,
          300, 305, 304, -1,
          119, 115, 269, -1,
          117, 115, 119, -1,
          284, 115, 289, -1,
          289, 115, 291, -1,
          291, 115, 293, -1,
          272, 115, 284, -1,
          269, 115, 272, -1,
          297, 307, 305, -1,
          305, 307, 306, -1,
          109, 107, 111, -1,
          111, 107, 113, -1,
          113, 107, 115, -1,
          308, 311, 309, -1,
          309, 311, 310, -1,
          105, 103, 107, -1,
          308, 312, 311, -1,
          101, 99, 103, -1,
          107, 97, 115, -1,
          103, 97, 107, -1,
          99, 97, 103, -1,
          312, 315, 313, -1,
          313, 315, 314, -1,
          95, 93, 97, -1,
          315, 318, 316, -1,
          316, 318, 317, -1,
          312, 318, 315, -1,
          87, 85, 89, -1,
          89, 85, 91, -1,
          91, 85, 93, -1,
          93, 85, 97, -1,
          83, 81, 85, -1,
          85, 81, 97, -1,
          319, 323, 320, -1,
          320, 323, 321, -1,
          321, 323, 322, -1,
          115, 79, 293, -1,
          97, 79, 115, -1,
          81, 79, 97, -1,
          293, 79, 295, -1,
          319, 324, 323, -1,
          308, 324, 312, -1,
          318, 324, 319, -1,
          312, 324, 318, -1,
          77, 75, 79, -1,
          307, 326, 308, -1,
          324, 326, 325, -1,
          308, 326, 324, -1,
          307, 327, 326, -1,
          297, 71, 307, -1,
          295, 71, 297, -1,
          75, 71, 79, -1,
          79, 71, 295, -1,
          73, 71, 75, -1,
          327, 330, 328, -1,
          328, 330, 329, -1,
          67, 65, 69, -1,
          69, 65, 71, -1,
          307, 2, 327, -1,
          327, 2, 330, -1,
          330, 2, 1, -1,
          63, 61, 65, -1,
          71, 5, 307, -1,
          307, 5, 2, -1,
          61, 57, 65, -1,
          59, 57, 61, -1,
          71, 9, 5, -1,
          5, 9, 7, -1,
          65, 55, 71, -1,
          57, 55, 65, -1,
          53, 51, 55, -1,
          11, 15, 13, -1,
          11, 19, 15, -1,
          9, 19, 11, -1,
          15, 19, 17, -1,
          9, 21, 19, -1,
          45, 43, 47, -1,
          47, 43, 49, -1,
          49, 43, 51, -1,
          9, 23, 21, -1,
          9, 25, 23, -1,
          43, 39, 51, -1,
          41, 39, 43, -1,
          9, 29, 25, -1,
          25, 29, 27, -1,
          55, 33, 71, -1,
          71, 33, 9, -1,
          51, 33, 55, -1,
          39, 33, 51, -1,
          9, 33, 29, -1,
          29, 33, 31, -1,
          35, 33, 37, -1,
          37, 33, 39, -1
        ]
      }
    }
}
