#VRML V2.0 utf8
WorldInfo {
  title "Exported triangle mesh to VRML97"
  info ["Created by FreeCAD"
        "<https://www.freecad.org>"]
}

Transform {
  scale 1 1 1
  rotation 0 0 1 0
  scaleOrientation 0 0 1 0
  center 0.000 0.000 0.000
  translation 0.000 0.000 0.000
  children
    Shape { 
      appearance
      Appearance {
        material
        Material {
          diffuseColor 0.8 0.8 0.8
        }
      }
      geometry
      IndexedFaceSet {
        coord
        Coordinate {
          point [
            12.685 0.623 0.205,
            12.700 0.000 -1.795,
            12.684 0.633 -1.795,
            12.700 0.000 0.205,
            12.639 1.245 0.205,
            12.637 1.265 -1.795,
            12.563 1.863 0.205,
            12.558 1.893 -1.795,
            12.456 2.478 0.205,
            12.448 2.516 -1.795,
            12.319 3.086 0.205,
            12.307 3.134 -1.795,
            12.153 3.687 0.205,
            12.136 3.743 -1.795,
            11.958 4.279 0.205,
            11.934 4.344 -1.795,
            11.733 4.860 0.205,
            11.703 4.933 -1.795,
            11.481 5.430 0.205,
            11.442 5.510 -1.795,
            11.200 5.987 0.205,
            11.153 6.074 -1.795,
            10.893 6.529 0.205,
            10.837 6.622 -1.795,
            10.560 7.056 0.205,
            10.493 7.154 -1.795,
            10.201 7.565 0.205,
            10.124 7.668 -1.795,
            9.817 8.057 0.205,
            9.729 8.163 -1.795,
            9.410 8.529 0.205,
            9.310 8.638 -1.795,
            8.980 8.980 0.205,
            8.868 9.092 -1.795,
            8.529 9.410 0.205,
            8.403 9.522 -1.795,
            8.057 9.817 0.205,
            7.918 9.929 -1.795,
            7.565 10.201 0.205,
            7.414 10.312 -1.795,
            7.056 10.560 0.205,
            6.890 10.668 -1.795,
            6.529 10.893 0.205,
            6.350 10.999 -1.795,
            5.987 11.200 0.205,
            5.794 11.301 -1.795,
            5.430 11.481 0.205,
            5.223 11.576 -1.795,
            4.860 11.733 0.205,
            4.640 11.822 -1.795,
            4.279 11.958 0.205,
            4.045 12.039 -1.795,
            3.687 12.153 0.205,
            3.440 12.225 -1.795,
            3.086 12.319 0.205,
            2.826 12.382 -1.795,
            2.478 12.456 0.205,
            2.205 12.507 -1.795,
            1.863 12.563 0.205,
            1.579 12.601 -1.795,
            1.245 12.639 0.205,
            0.949 12.664 -1.795,
            0.623 12.685 0.205,
            0.317 12.696 -1.795,
            0.000 12.700 0.205,
            -0.317 12.696 -1.795,
            -0.623 12.685 0.205,
            -0.949 12.664 -1.795,
            -1.245 12.639 0.205,
            -1.579 12.601 -1.795,
            -1.863 12.563 0.205,
            -2.205 12.507 -1.795,
            -2.478 12.456 0.205,
            -2.826 12.382 -1.795,
            -3.086 12.319 0.205,
            -3.440 12.225 -1.795,
            -3.687 12.153 0.205,
            -4.045 12.039 -1.795,
            -4.279 11.958 0.205,
            -4.640 11.822 -1.795,
            -4.860 11.733 0.205,
            -5.223 11.576 -1.795,
            -5.430 11.481 0.205,
            -5.794 11.301 -1.795,
            -5.987 11.200 0.205,
            -6.350 10.999 -1.795,
            -6.529 10.893 0.205,
            -6.890 10.668 -1.795,
            -7.056 10.560 0.205,
            -7.414 10.312 -1.795,
            -7.565 10.201 0.205,
            -7.918 9.929 -1.795,
            -8.057 9.817 0.205,
            -8.403 9.522 -1.795,
            -8.529 9.410 0.205,
            -8.868 9.092 -1.795,
            -8.980 8.980 0.205,
            -9.310 8.638 -1.795,
            -9.410 8.529 0.205,
            -9.729 8.163 -1.795,
            -9.817 8.057 0.205,
            -10.124 7.668 -1.795,
            -10.201 7.565 0.205,
            -10.493 7.154 -1.795,
            -10.560 7.056 0.205,
            -10.837 6.622 -1.795,
            -10.893 6.529 0.205,
            -11.153 6.074 -1.795,
            -11.200 5.987 0.205,
            -11.442 5.510 -1.795,
            -11.481 5.430 0.205,
            -11.703 4.933 -1.795,
            -11.733 4.860 0.205,
            -11.934 4.344 -1.795,
            -11.958 4.279 0.205,
            -12.136 3.743 -1.795,
            -12.153 3.687 0.205,
            -12.307 3.134 -1.795,
            -12.319 3.086 0.205,
            -12.448 2.516 -1.795,
            -12.456 2.478 0.205,
            -12.558 1.893 -1.795,
            -12.563 1.863 0.205,
            -12.637 1.265 -1.795,
            -12.639 1.245 0.205,
            -12.684 0.633 -1.795,
            -12.685 0.623 0.205,
            -12.700 0.000 -1.795,
            -12.700 0.000 0.205,
            -0.000 -10.198 0.775,
            -1.863 -12.563 0.205,
            -1.245 -12.639 0.205,
            -0.623 -12.685 0.205,
            -0.000 -12.700 0.205,
            0.000 10.198 0.775,
            -3.206 -11.118 0.478,
            -5.430 -11.481 0.205,
            -4.860 -11.733 0.205,
            -4.279 -11.958 0.205,
            -3.687 -12.153 0.205,
            -3.086 -12.319 0.205,
            -2.478 -12.456 0.205,
            -3.206 -7.972 1.073,
            -0.000 -7.671 1.221,
            -6.400 -9.494 0.506,
            -8.529 -9.410 0.205,
            -8.057 -9.817 0.205,
            -7.565 -10.201 0.205,
            -7.056 -10.560 0.205,
            -6.529 -10.893 0.205,
            -5.987 -11.200 0.205,
            -3.206 -4.796 1.471,
            -0.000 -5.124 1.539,
            -0.000 -2.565 1.731,
            -6.400 -6.350 1.000,
            -8.980 -8.980 0.205,
            -3.206 -1.601 1.670,
            0.000 0.000 1.795,
            -9.568 -7.849 0.286,
            -10.560 -7.056 0.205,
            -10.201 -7.565 0.205,
            -9.817 -8.057 0.205,
            -9.410 -8.529 0.205,
            -6.400 -3.181 1.297,
            -3.206 1.601 1.670,
            0.000 2.565 1.731,
            -9.568 -4.721 0.678,
            -12.153 -3.687 0.205,
            -11.958 -4.279 0.205,
            -11.733 -4.860 0.205,
            -11.481 -5.430 0.205,
            -11.200 -5.987 0.205,
            -10.893 -6.529 0.205,
            -6.400 -0.000 1.396,
            -3.206 4.796 1.471,
            0.000 5.124 1.539,
            -9.568 -1.576 0.874,
            -12.685 -0.623 0.205,
            -12.639 -1.245 0.205,
            -12.563 -1.863 0.205,
            -12.456 -2.478 0.205,
            -12.319 -3.086 0.205,
            -6.400 3.181 1.297,
            -3.206 7.972 1.073,
            0.000 7.671 1.221,
            -9.568 1.576 0.874,
            -6.400 6.350 1.000,
            -3.206 11.118 0.478,
            -9.568 4.721 0.678,
            -6.400 9.494 0.506,
            -9.568 7.849 0.286,
            0.623 -12.685 0.205,
            1.245 -12.639 0.205,
            1.863 -12.563 0.205,
            9.568 -7.849 0.286,
            8.980 -8.980 0.205,
            9.410 -8.529 0.205,
            9.817 -8.057 0.205,
            10.201 -7.565 0.205,
            10.560 -7.056 0.205,
            6.400 -9.494 0.506,
            5.430 -11.481 0.205,
            5.987 -11.200 0.205,
            6.529 -10.893 0.205,
            7.056 -10.560 0.205,
            7.565 -10.201 0.205,
            8.057 -9.817 0.205,
            8.529 -9.410 0.205,
            9.568 -4.721 0.678,
            10.893 -6.529 0.205,
            11.200 -5.987 0.205,
            11.481 -5.430 0.205,
            11.733 -4.860 0.205,
            11.958 -4.279 0.205,
            12.153 -3.687 0.205,
            3.206 -11.118 0.478,
            2.478 -12.456 0.205,
            3.086 -12.319 0.205,
            3.687 -12.153 0.205,
            4.279 -11.958 0.205,
            4.860 -11.733 0.205,
            6.400 -6.350 1.000,
            9.568 -1.576 0.874,
            12.319 -3.086 0.205,
            12.456 -2.478 0.205,
            12.563 -1.863 0.205,
            12.639 -1.245 0.205,
            12.685 -0.623 0.205,
            3.206 -7.972 1.073,
            6.400 -3.181 1.297,
            9.568 1.576 0.874,
            3.206 -4.796 1.471,
            6.400 -0.000 1.396,
            9.568 4.721 0.678,
            3.206 -1.601 1.670,
            6.400 3.181 1.297,
            9.568 7.849 0.286,
            3.206 1.601 1.670,
            6.400 6.350 1.000,
            3.206 4.796 1.471,
            6.400 9.494 0.506,
            3.206 7.972 1.073,
            3.206 11.118 0.478,
            -12.684 -0.633 -1.795,
            -12.637 -1.265 -1.795,
            -12.558 -1.893 -1.795,
            -12.448 -2.516 -1.795,
            -12.307 -3.134 -1.795,
            -12.136 -3.743 -1.795,
            -11.934 -4.344 -1.795,
            -11.703 -4.933 -1.795,
            -11.442 -5.510 -1.795,
            -11.153 -6.074 -1.795,
            -10.837 -6.622 -1.795,
            -10.493 -7.154 -1.795,
            -10.124 -7.668 -1.795,
            -9.729 -8.163 -1.795,
            -9.310 -8.638 -1.795,
            -8.868 -9.092 -1.795,
            -8.403 -9.522 -1.795,
            -7.918 -9.929 -1.795,
            -7.414 -10.312 -1.795,
            -6.890 -10.668 -1.795,
            -6.350 -10.999 -1.795,
            -5.794 -11.301 -1.795,
            -5.223 -11.576 -1.795,
            -4.640 -11.822 -1.795,
            -4.045 -12.039 -1.795,
            -3.440 -12.225 -1.795,
            -2.826 -12.382 -1.795,
            -2.205 -12.507 -1.795,
            -1.579 -12.601 -1.795,
            -0.949 -12.664 -1.795,
            -0.317 -12.696 -1.795,
            0.317 -12.696 -1.795,
            0.949 -12.664 -1.795,
            1.579 -12.601 -1.795,
            2.205 -12.507 -1.795,
            2.826 -12.382 -1.795,
            3.440 -12.225 -1.795,
            4.045 -12.039 -1.795,
            4.640 -11.822 -1.795,
            5.223 -11.576 -1.795,
            5.794 -11.301 -1.795,
            6.350 -10.999 -1.795,
            6.890 -10.668 -1.795,
            7.414 -10.312 -1.795,
            7.918 -9.929 -1.795,
            8.403 -9.522 -1.795,
            8.868 -9.092 -1.795,
            9.310 -8.638 -1.795,
            9.729 -8.163 -1.795,
            10.124 -7.668 -1.795,
            10.493 -7.154 -1.795,
            10.837 -6.622 -1.795,
            11.153 -6.074 -1.795,
            11.442 -5.510 -1.795,
            11.703 -4.933 -1.795,
            11.934 -4.344 -1.795,
            12.136 -3.743 -1.795,
            12.307 -3.134 -1.795,
            12.448 -2.516 -1.795,
            12.558 -1.893 -1.795,
            12.637 -1.265 -1.795,
            12.684 -0.633 -1.795
          ]
        }
        coordIndex [
          0, 1, 2, -1,
          0, 3, 1, -1,
          4, 2, 5, -1,
          4, 0, 2, -1,
          6, 5, 7, -1,
          6, 4, 5, -1,
          8, 7, 9, -1,
          8, 6, 7, -1,
          10, 9, 11, -1,
          10, 8, 9, -1,
          12, 11, 13, -1,
          12, 10, 11, -1,
          14, 13, 15, -1,
          14, 12, 13, -1,
          16, 15, 17, -1,
          16, 14, 15, -1,
          18, 17, 19, -1,
          18, 16, 17, -1,
          20, 19, 21, -1,
          20, 18, 19, -1,
          22, 21, 23, -1,
          22, 20, 21, -1,
          24, 23, 25, -1,
          24, 22, 23, -1,
          26, 25, 27, -1,
          26, 24, 25, -1,
          28, 27, 29, -1,
          28, 26, 27, -1,
          30, 29, 31, -1,
          30, 28, 29, -1,
          32, 31, 33, -1,
          32, 30, 31, -1,
          34, 33, 35, -1,
          34, 32, 33, -1,
          36, 34, 35, -1,
          36, 35, 37, -1,
          38, 36, 37, -1,
          38, 37, 39, -1,
          40, 38, 39, -1,
          40, 39, 41, -1,
          42, 40, 41, -1,
          42, 41, 43, -1,
          44, 42, 43, -1,
          44, 43, 45, -1,
          46, 45, 47, -1,
          46, 44, 45, -1,
          48, 47, 49, -1,
          48, 46, 47, -1,
          50, 49, 51, -1,
          50, 48, 49, -1,
          52, 51, 53, -1,
          52, 50, 51, -1,
          54, 53, 55, -1,
          54, 52, 53, -1,
          56, 55, 57, -1,
          56, 54, 55, -1,
          58, 57, 59, -1,
          58, 56, 57, -1,
          60, 59, 61, -1,
          60, 58, 59, -1,
          62, 61, 63, -1,
          62, 60, 61, -1,
          64, 63, 65, -1,
          64, 62, 63, -1,
          66, 65, 67, -1,
          66, 64, 65, -1,
          68, 67, 69, -1,
          68, 66, 67, -1,
          70, 69, 71, -1,
          70, 68, 69, -1,
          72, 71, 73, -1,
          72, 70, 71, -1,
          74, 73, 75, -1,
          74, 72, 73, -1,
          76, 75, 77, -1,
          76, 74, 75, -1,
          78, 77, 79, -1,
          78, 76, 77, -1,
          80, 79, 81, -1,
          80, 78, 79, -1,
          82, 81, 83, -1,
          82, 80, 81, -1,
          84, 83, 85, -1,
          84, 82, 83, -1,
          86, 84, 85, -1,
          86, 85, 87, -1,
          88, 86, 87, -1,
          88, 87, 89, -1,
          90, 88, 89, -1,
          90, 89, 91, -1,
          92, 90, 91, -1,
          92, 91, 93, -1,
          94, 92, 93, -1,
          94, 93, 95, -1,
          96, 94, 95, -1,
          96, 95, 97, -1,
          98, 96, 97, -1,
          98, 97, 99, -1,
          100, 98, 99, -1,
          100, 99, 101, -1,
          102, 100, 101, -1,
          102, 101, 103, -1,
          104, 102, 103, -1,
          104, 103, 105, -1,
          106, 104, 105, -1,
          106, 105, 107, -1,
          108, 106, 107, -1,
          108, 107, 109, -1,
          110, 108, 109, -1,
          110, 109, 111, -1,
          112, 111, 113, -1,
          112, 110, 111, -1,
          114, 113, 115, -1,
          114, 112, 113, -1,
          116, 115, 117, -1,
          116, 114, 115, -1,
          118, 117, 119, -1,
          118, 116, 117, -1,
          120, 119, 121, -1,
          120, 118, 119, -1,
          122, 121, 123, -1,
          122, 120, 121, -1,
          124, 123, 125, -1,
          124, 122, 123, -1,
          126, 125, 127, -1,
          126, 124, 125, -1,
          128, 126, 127, -1,
          129, 130, 131, -1,
          129, 131, 132, -1,
          129, 132, 133, -1,
          66, 134, 64, -1,
          68, 134, 66, -1,
          70, 134, 68, -1,
          135, 136, 137, -1,
          135, 137, 138, -1,
          135, 138, 139, -1,
          135, 139, 140, -1,
          135, 140, 141, -1,
          135, 141, 130, -1,
          135, 130, 129, -1,
          142, 135, 129, -1,
          142, 129, 143, -1,
          144, 135, 142, -1,
          144, 145, 146, -1,
          144, 146, 147, -1,
          144, 147, 148, -1,
          144, 148, 149, -1,
          144, 149, 150, -1,
          144, 150, 136, -1,
          144, 136, 135, -1,
          151, 142, 143, -1,
          151, 143, 152, -1,
          151, 152, 153, -1,
          154, 145, 144, -1,
          154, 144, 142, -1,
          154, 155, 145, -1,
          154, 142, 151, -1,
          156, 151, 153, -1,
          156, 153, 157, -1,
          158, 159, 160, -1,
          158, 160, 161, -1,
          158, 161, 162, -1,
          158, 162, 155, -1,
          158, 155, 154, -1,
          163, 151, 156, -1,
          163, 154, 151, -1,
          164, 156, 157, -1,
          164, 157, 165, -1,
          166, 167, 168, -1,
          166, 168, 169, -1,
          166, 169, 170, -1,
          166, 170, 171, -1,
          166, 171, 172, -1,
          166, 172, 159, -1,
          166, 154, 163, -1,
          166, 158, 154, -1,
          166, 159, 158, -1,
          173, 163, 156, -1,
          173, 156, 164, -1,
          174, 164, 165, -1,
          174, 165, 175, -1,
          176, 167, 166, -1,
          176, 128, 177, -1,
          176, 177, 178, -1,
          176, 178, 179, -1,
          176, 179, 180, -1,
          176, 180, 181, -1,
          176, 181, 167, -1,
          176, 166, 163, -1,
          176, 163, 173, -1,
          182, 173, 164, -1,
          182, 164, 174, -1,
          183, 174, 175, -1,
          183, 184, 134, -1,
          183, 175, 184, -1,
          185, 176, 173, -1,
          185, 116, 118, -1,
          185, 118, 120, -1,
          185, 120, 122, -1,
          185, 122, 124, -1,
          185, 124, 126, -1,
          185, 126, 128, -1,
          185, 173, 182, -1,
          185, 128, 176, -1,
          186, 94, 96, -1,
          186, 174, 183, -1,
          186, 182, 174, -1,
          187, 183, 134, -1,
          187, 70, 72, -1,
          187, 72, 74, -1,
          187, 74, 76, -1,
          187, 76, 78, -1,
          187, 78, 80, -1,
          187, 80, 82, -1,
          187, 134, 70, -1,
          188, 116, 185, -1,
          188, 182, 186, -1,
          188, 185, 182, -1,
          188, 104, 106, -1,
          188, 106, 108, -1,
          188, 108, 110, -1,
          188, 110, 112, -1,
          188, 112, 114, -1,
          188, 114, 116, -1,
          189, 82, 84, -1,
          189, 84, 86, -1,
          189, 86, 88, -1,
          189, 88, 90, -1,
          189, 90, 92, -1,
          189, 92, 94, -1,
          189, 186, 183, -1,
          189, 183, 187, -1,
          189, 94, 186, -1,
          189, 187, 82, -1,
          190, 96, 98, -1,
          190, 98, 100, -1,
          190, 100, 102, -1,
          190, 102, 104, -1,
          190, 188, 186, -1,
          190, 104, 188, -1,
          190, 186, 96, -1,
          129, 133, 191, -1,
          129, 191, 192, -1,
          129, 192, 193, -1,
          60, 134, 58, -1,
          62, 134, 60, -1,
          64, 134, 62, -1,
          194, 195, 196, -1,
          194, 196, 197, -1,
          194, 197, 198, -1,
          194, 198, 199, -1,
          200, 201, 202, -1,
          200, 202, 203, -1,
          200, 203, 204, -1,
          200, 204, 205, -1,
          200, 205, 206, -1,
          200, 206, 207, -1,
          208, 194, 199, -1,
          208, 199, 209, -1,
          208, 209, 210, -1,
          208, 210, 211, -1,
          208, 211, 212, -1,
          208, 212, 213, -1,
          208, 213, 214, -1,
          215, 193, 216, -1,
          215, 216, 217, -1,
          215, 217, 218, -1,
          215, 218, 219, -1,
          215, 219, 220, -1,
          215, 220, 201, -1,
          215, 129, 193, -1,
          215, 201, 200, -1,
          221, 194, 208, -1,
          221, 207, 195, -1,
          221, 195, 194, -1,
          221, 200, 207, -1,
          222, 214, 223, -1,
          222, 223, 224, -1,
          222, 224, 225, -1,
          222, 225, 226, -1,
          222, 226, 227, -1,
          222, 227, 3, -1,
          222, 208, 214, -1,
          228, 143, 129, -1,
          228, 200, 221, -1,
          228, 129, 215, -1,
          228, 215, 200, -1,
          229, 221, 208, -1,
          229, 208, 222, -1,
          230, 3, 0, -1,
          230, 0, 4, -1,
          230, 4, 6, -1,
          230, 6, 8, -1,
          230, 222, 3, -1,
          230, 8, 10, -1,
          230, 10, 12, -1,
          231, 152, 143, -1,
          231, 153, 152, -1,
          231, 143, 228, -1,
          231, 228, 221, -1,
          231, 221, 229, -1,
          232, 229, 222, -1,
          232, 222, 230, -1,
          233, 12, 14, -1,
          233, 14, 16, -1,
          233, 16, 18, -1,
          233, 18, 20, -1,
          233, 20, 22, -1,
          233, 22, 24, -1,
          233, 230, 12, -1,
          234, 157, 153, -1,
          234, 153, 231, -1,
          234, 229, 232, -1,
          234, 231, 229, -1,
          235, 230, 233, -1,
          235, 232, 230, -1,
          236, 24, 26, -1,
          236, 26, 28, -1,
          236, 28, 30, -1,
          236, 30, 32, -1,
          236, 233, 24, -1,
          237, 234, 232, -1,
          237, 165, 157, -1,
          237, 157, 234, -1,
          237, 232, 235, -1,
          238, 235, 233, -1,
          238, 233, 236, -1,
          238, 32, 34, -1,
          238, 236, 32, -1,
          239, 237, 235, -1,
          239, 235, 238, -1,
          239, 165, 237, -1,
          239, 175, 165, -1,
          240, 34, 36, -1,
          240, 36, 38, -1,
          240, 38, 40, -1,
          240, 40, 42, -1,
          240, 42, 44, -1,
          240, 44, 46, -1,
          240, 238, 34, -1,
          241, 175, 239, -1,
          241, 134, 184, -1,
          241, 184, 175, -1,
          241, 238, 240, -1,
          241, 239, 238, -1,
          242, 241, 240, -1,
          242, 58, 134, -1,
          242, 46, 48, -1,
          242, 48, 50, -1,
          242, 50, 52, -1,
          242, 52, 54, -1,
          242, 54, 56, -1,
          242, 56, 58, -1,
          242, 134, 241, -1,
          242, 240, 46, -1,
          177, 128, 127, -1,
          177, 127, 243, -1,
          178, 243, 244, -1,
          178, 177, 243, -1,
          179, 244, 245, -1,
          179, 178, 244, -1,
          180, 245, 246, -1,
          180, 179, 245, -1,
          181, 246, 247, -1,
          181, 180, 246, -1,
          167, 247, 248, -1,
          167, 181, 247, -1,
          168, 248, 249, -1,
          168, 167, 248, -1,
          169, 249, 250, -1,
          169, 168, 249, -1,
          170, 250, 251, -1,
          170, 169, 250, -1,
          171, 251, 252, -1,
          171, 170, 251, -1,
          172, 252, 253, -1,
          172, 171, 252, -1,
          159, 253, 254, -1,
          159, 172, 253, -1,
          160, 254, 255, -1,
          160, 159, 254, -1,
          161, 255, 256, -1,
          161, 160, 255, -1,
          162, 256, 257, -1,
          162, 161, 256, -1,
          155, 257, 258, -1,
          155, 162, 257, -1,
          145, 258, 259, -1,
          145, 155, 258, -1,
          146, 145, 259, -1,
          146, 259, 260, -1,
          147, 146, 260, -1,
          147, 260, 261, -1,
          148, 147, 261, -1,
          148, 261, 262, -1,
          149, 148, 262, -1,
          149, 262, 263, -1,
          150, 149, 263, -1,
          150, 263, 264, -1,
          136, 264, 265, -1,
          136, 150, 264, -1,
          137, 265, 266, -1,
          137, 136, 265, -1,
          138, 266, 267, -1,
          138, 137, 266, -1,
          139, 267, 268, -1,
          139, 138, 267, -1,
          140, 268, 269, -1,
          140, 139, 268, -1,
          141, 269, 270, -1,
          141, 140, 269, -1,
          130, 270, 271, -1,
          130, 141, 270, -1,
          131, 271, 272, -1,
          131, 130, 271, -1,
          132, 272, 273, -1,
          132, 131, 272, -1,
          133, 273, 274, -1,
          133, 132, 273, -1,
          191, 274, 275, -1,
          191, 133, 274, -1,
          192, 275, 276, -1,
          192, 191, 275, -1,
          193, 276, 277, -1,
          193, 192, 276, -1,
          216, 277, 278, -1,
          216, 193, 277, -1,
          217, 278, 279, -1,
          217, 216, 278, -1,
          218, 279, 280, -1,
          218, 217, 279, -1,
          219, 280, 281, -1,
          219, 218, 280, -1,
          220, 281, 282, -1,
          220, 219, 281, -1,
          201, 282, 283, -1,
          201, 220, 282, -1,
          202, 283, 284, -1,
          202, 201, 283, -1,
          203, 202, 284, -1,
          203, 284, 285, -1,
          204, 203, 285, -1,
          204, 285, 286, -1,
          205, 204, 286, -1,
          205, 286, 287, -1,
          206, 205, 287, -1,
          206, 287, 288, -1,
          207, 206, 288, -1,
          207, 288, 289, -1,
          195, 207, 289, -1,
          195, 289, 290, -1,
          196, 195, 290, -1,
          196, 290, 291, -1,
          197, 196, 291, -1,
          197, 291, 292, -1,
          198, 197, 292, -1,
          198, 292, 293, -1,
          199, 198, 293, -1,
          199, 293, 294, -1,
          209, 199, 294, -1,
          209, 294, 295, -1,
          210, 209, 295, -1,
          210, 295, 296, -1,
          211, 210, 296, -1,
          211, 296, 297, -1,
          212, 211, 297, -1,
          212, 297, 298, -1,
          213, 298, 299, -1,
          213, 212, 298, -1,
          214, 299, 300, -1,
          214, 213, 299, -1,
          223, 300, 301, -1,
          223, 214, 300, -1,
          224, 301, 302, -1,
          224, 223, 301, -1,
          225, 302, 303, -1,
          225, 224, 302, -1,
          226, 303, 304, -1,
          226, 225, 303, -1,
          227, 304, 1, -1,
          227, 226, 304, -1,
          3, 227, 1, -1,
          258, 260, 259, -1,
          255, 254, 256, -1,
          260, 262, 261, -1,
          258, 263, 260, -1,
          260, 263, 262, -1,
          253, 252, 254, -1,
          256, 252, 257, -1,
          254, 252, 256, -1,
          252, 251, 257, -1,
          263, 265, 264, -1,
          250, 249, 251, -1,
          265, 267, 266, -1,
          257, 248, 258, -1,
          251, 248, 257, -1,
          249, 248, 251, -1,
          267, 269, 268, -1,
          247, 246, 248, -1,
          248, 246, 258, -1,
          269, 271, 270, -1,
          245, 244, 246, -1,
          244, 243, 246, -1,
          271, 273, 272, -1,
          269, 273, 271, -1,
          269, 274, 273, -1,
          127, 121, 243, -1,
          123, 121, 125, -1,
          125, 121, 127, -1,
          276, 279, 277, -1,
          277, 279, 278, -1,
          117, 115, 119, -1,
          119, 115, 121, -1,
          274, 115, 275, -1,
          258, 115, 263, -1,
          267, 115, 269, -1,
          263, 115, 265, -1,
          265, 115, 267, -1,
          246, 115, 258, -1,
          269, 115, 274, -1,
          243, 115, 246, -1,
          121, 115, 243, -1,
          275, 281, 276, -1,
          279, 281, 280, -1,
          276, 281, 279, -1,
          109, 107, 111, -1,
          111, 107, 113, -1,
          113, 107, 115, -1,
          282, 285, 283, -1,
          283, 285, 284, -1,
          105, 103, 107, -1,
          282, 286, 285, -1,
          101, 99, 103, -1,
          281, 288, 282, -1,
          282, 288, 286, -1,
          286, 288, 287, -1,
          107, 97, 115, -1,
          103, 97, 107, -1,
          99, 97, 103, -1,
          95, 93, 97, -1,
          281, 292, 288, -1,
          288, 292, 289, -1,
          289, 292, 290, -1,
          290, 292, 291, -1,
          281, 293, 292, -1,
          89, 87, 91, -1,
          91, 87, 93, -1,
          93, 87, 97, -1,
          83, 81, 85, -1,
          85, 81, 87, -1,
          87, 81, 97, -1,
          293, 297, 294, -1,
          294, 297, 295, -1,
          295, 297, 296, -1,
          81, 79, 97, -1,
          281, 298, 293, -1,
          293, 298, 297, -1,
          77, 75, 79, -1,
          298, 301, 299, -1,
          299, 301, 300, -1,
          97, 71, 115, -1,
          79, 71, 97, -1,
          75, 71, 79, -1,
          73, 71, 75, -1,
          298, 302, 301, -1,
          67, 65, 69, -1,
          69, 65, 71, -1,
          303, 1, 304, -1,
          303, 2, 1, -1,
          63, 61, 65, -1,
          303, 9, 2, -1,
          298, 9, 302, -1,
          302, 9, 303, -1,
          2, 9, 5, -1,
          5, 9, 7, -1,
          281, 9, 298, -1,
          65, 55, 71, -1,
          61, 55, 65, -1,
          57, 55, 59, -1,
          59, 55, 61, -1,
          53, 51, 55, -1,
          281, 15, 9, -1,
          9, 15, 11, -1,
          11, 15, 13, -1,
          71, 47, 115, -1,
          51, 47, 55, -1,
          55, 47, 71, -1,
          49, 47, 51, -1,
          15, 19, 17, -1,
          47, 43, 115, -1,
          45, 43, 47, -1,
          19, 23, 21, -1,
          19, 25, 23, -1,
          15, 25, 19, -1,
          41, 39, 43, -1,
          15, 27, 25, -1,
          115, 37, 275, -1,
          43, 37, 115, -1,
          39, 37, 43, -1,
          281, 29, 15, -1,
          15, 29, 27, -1,
          275, 33, 281, -1,
          281, 33, 29, -1,
          37, 33, 275, -1,
          29, 33, 31, -1,
          35, 33, 37, -1
        ]
      }
    }
}
