{"asset":{"version":"2.0","generator":"microscope_builder_4 scripts/catalog/dedupe-mounted-lens-housings.mjs"},"scene":0,"scenes":[{"nodes":[0]}],"nodes":[{"mesh":0}],"meshes":[{"primitives":[{"attributes":{"POSITION":1,"NORMAL":2},"indices":0,"mode":4},{"attributes":{"POSITION":4,"NORMAL":5},"indices":3,"mode":4},{"attributes":{"POSITION":7,"NORMAL":8},"indices":6,"mode":4}]}],"buffers":[{"uri":"../shared/lens-components/7d/7d211fdd01b08e71eb99c422baee0b397e9f045d9d45235cb1f430ff26006d95.bin","byteLength":8532},{"uri":"la1560-ab-ml.bin","byteLength":200328}],"bufferViews":[{"buffer":0,"byteOffset":0,"byteLength":2844,"target":34963},{"buffer":0,"byteOffset":2844,"byteLength":2844,"target":34962},{"buffer":0,"byteOffset":5688,"byteLength":2844,"target":34962},{"buffer":1,"byteOffset":0,"byteLength":57144,"target":34963},{"buffer":1,"byteOffset":57144,"byteLength":57168,"target":34962},{"buffer":1,"byteOffset":114312,"byteLength":57168,"target":34962},{"buffer":1,"byteOffset":171480,"byteLength":9600,"target":34963},{"buffer":1,"byteOffset":181080,"byteLength":9624,"target":34962},{"buffer":1,"byteOffset":190704,"byteLength":9624,"target":34962}],"accessors":[{"bufferView":0,"componentType":5123,"count":1422,"type":"SCALAR"},{"bufferView":1,"componentType":5126,"count":237,"type":"VEC3","min":[-0.1889999955892563,-6.794000148773193,-6.794000148773193],"max":[1.4620000123977661,6.794000148773193,6.794000148773193]},{"bufferView":2,"componentType":5126,"count":237,"type":"VEC3"},{"bufferView":3,"componentType":5123,"count":28572,"type":"SCALAR"},{"bufferView":4,"componentType":5126,"count":4764,"type":"VEC3","min":[-5.206999778747559,-8.890000343322754,-8.890000343322754],"max":[5.206999778747559,8.890000343322754,8.890000343322754]},{"bufferView":5,"componentType":5126,"count":4764,"type":"VEC3"},{"bufferView":6,"componentType":5123,"count":4800,"type":"SCALAR"},{"bufferView":7,"componentType":5126,"count":802,"type":"VEC3","min":[-2.4130001068115234,-6.349999904632568,-6.349999904632568],"max":[1.0570000410079956,6.349999904632568,6.349999904632568]},{"bufferView":8,"componentType":5126,"count":802,"type":"VEC3"}]}
