#VRML V2.0 utf8
WorldInfo {
  title "Exported triangle mesh to VRML97"
  info ["Created by FreeCAD"
        "<https://www.freecad.org>"]
}

Transform {
  scale 1 1 1
  rotation 0 0 1 0
  scaleOrientation 0 0 1 0
  center 0.000 0.000 0.000
  translation 0.000 0.000 0.000
  children
    Shape { 
      appearance
      Appearance {
        material
        Material {
          diffuseColor 0.8 0.8 0.8
        }
      }
      geometry
      IndexedFaceSet {
        coord
        Coordinate {
          point [
            -0.121 -6.350 0.000,
            0.175 -6.177 0.000,
            0.175 -6.170 0.308,
            -0.121 -6.342 0.317,
            0.175 -6.147 0.615,
            -0.121 -6.318 0.632,
            0.175 -6.108 0.921,
            -0.121 -6.279 0.946,
            0.175 -6.055 1.224,
            -0.121 -6.224 1.258,
            0.175 -5.986 1.524,
            -0.121 -6.154 1.567,
            0.175 -5.903 1.821,
            -0.121 -6.068 1.872,
            0.175 -5.805 2.113,
            -0.121 -5.967 2.172,
            0.175 -5.692 2.400,
            -0.121 -5.851 2.467,
            0.175 -5.566 2.680,
            -0.121 -5.721 2.755,
            0.175 -5.425 2.954,
            -0.121 -5.577 3.037,
            0.175 -5.271 3.221,
            -0.121 -5.418 3.311,
            0.175 -5.104 3.480,
            -0.121 -5.247 3.577,
            0.175 -4.924 3.730,
            -0.121 -5.062 3.834,
            0.175 -4.732 3.971,
            -0.121 -4.864 4.082,
            0.175 -4.528 4.202,
            -0.121 -4.655 4.319,
            0.175 -4.313 4.422,
            -0.121 -4.434 4.546,
            0.175 -4.088 4.632,
            -0.121 -4.202 4.761,
            0.175 -3.852 4.830,
            -0.121 -3.959 4.965,
            0.175 -3.606 5.016,
            -0.121 -3.707 5.156,
            0.175 -3.352 5.189,
            -0.121 -3.445 5.334,
            0.175 -3.089 5.350,
            -0.121 -3.175 5.499,
            0.175 -2.818 5.497,
            -0.121 -2.897 5.651,
            0.175 -2.541 5.631,
            -0.121 -2.612 5.788,
            0.175 -2.257 5.750,
            -0.121 -2.320 5.911,
            0.175 -1.967 5.856,
            -0.121 -2.022 6.019,
            0.175 -1.673 5.947,
            -0.121 -1.720 6.113,
            0.175 -1.375 6.023,
            -0.121 -1.413 6.191,
            0.175 -1.073 6.084,
            -0.121 -1.103 6.254,
            -0.121 -0.790 6.301,
            0.175 -0.768 6.129,
            0.175 -0.462 6.160,
            -0.121 -0.475 6.332,
            0.175 -0.154 6.175,
            -0.121 -0.158 6.348,
            0.175 0.154 6.175,
            -0.121 0.158 6.348,
            0.175 0.462 6.160,
            -0.121 0.475 6.332,
            -0.121 0.790 6.301,
            0.175 0.768 6.129,
            -0.121 1.103 6.254,
            0.175 1.073 6.084,
            -0.121 1.413 6.191,
            0.175 1.375 6.023,
            -0.121 1.720 6.113,
            0.175 1.673 5.947,
            0.175 1.967 5.856,
            -0.121 2.022 6.019,
            0.175 2.257 5.750,
            -0.121 2.320 5.911,
            0.175 2.541 5.631,
            -0.121 2.612 5.788,
            0.175 2.818 5.497,
            -0.121 2.897 5.651,
            0.175 3.089 5.350,
            -0.121 3.175 5.499,
            0.175 3.352 5.189,
            -0.121 3.445 5.334,
            -0.121 3.707 5.156,
            0.175 3.606 5.016,
            -0.121 3.959 4.965,
            0.175 3.852 4.830,
            -0.121 4.202 4.761,
            0.175 4.088 4.632,
            0.175 4.313 4.422,
            -0.121 4.434 4.546,
            0.175 4.528 4.202,
            -0.121 4.655 4.319,
            -0.121 4.864 4.082,
            0.175 4.732 3.971,
            0.175 4.924 3.730,
            -0.121 5.062 3.834,
            0.175 5.104 3.480,
            -0.121 5.247 3.577,
            -0.121 5.418 3.311,
            0.175 5.271 3.221,
            -0.121 5.577 3.037,
            0.175 5.425 2.954,
            0.175 5.566 2.680,
            -0.121 5.721 2.755,
            0.175 5.692 2.400,
            -0.121 5.851 2.467,
            -0.121 5.967 2.172,
            0.175 5.805 2.113,
            -0.121 6.068 1.872,
            0.175 5.903 1.821,
            0.175 5.986 1.524,
            -0.121 6.154 1.567,
            -0.121 6.224 1.258,
            0.175 6.055 1.224,
            -0.121 6.279 0.946,
            0.175 6.108 0.921,
            -0.121 6.318 0.632,
            0.175 6.147 0.615,
            -0.121 6.342 0.317,
            0.175 6.170 0.308,
            0.175 6.177 0.000,
            -0.121 6.350 0.000,
            -1.750 6.142 0.307,
            -1.550 6.350 0.000,
            -1.750 6.150 0.000,
            -1.550 6.342 0.317,
            -1.750 6.119 0.612,
            -1.550 6.318 0.632,
            -1.750 6.081 0.917,
            -1.550 6.279 0.946,
            -1.750 6.028 1.219,
            -1.550 6.224 1.258,
            -1.750 5.960 1.518,
            -1.550 6.154 1.567,
            -1.750 5.877 1.813,
            -1.550 6.068 1.872,
            -1.750 5.779 2.103,
            -1.550 5.967 2.172,
            -1.750 5.667 2.389,
            -1.550 5.851 2.467,
            -1.750 5.541 2.668,
            -1.550 5.721 2.755,
            -1.750 5.401 2.941,
            -1.550 5.577 3.037,
            -1.750 5.248 3.207,
            -1.550 5.418 3.311,
            -1.750 5.081 3.464,
            -1.550 5.247 3.577,
            -1.750 4.902 3.713,
            -1.550 5.062 3.834,
            -1.750 4.711 3.953,
            -1.550 4.864 4.082,
            -1.750 4.508 4.183,
            -1.550 4.655 4.319,
            -1.750 4.294 4.403,
            -1.550 4.434 4.546,
            -1.750 4.069 4.611,
            -1.550 4.202 4.761,
            -1.750 3.834 4.808,
            -1.550 3.959 4.965,
            -1.750 3.590 4.993,
            -1.550 3.707 5.156,
            -1.750 3.337 5.166,
            -1.550 3.445 5.334,
            -1.750 3.075 5.326,
            -1.550 3.175 5.499,
            -1.750 2.806 5.473,
            -1.550 2.897 5.651,
            -1.750 2.529 5.606,
            -1.550 2.612 5.788,
            -1.750 2.247 5.725,
            -1.550 2.320 5.911,
            -1.750 1.959 5.830,
            -1.550 2.022 6.019,
            -1.750 1.666 5.920,
            -1.550 1.720 6.113,
            -1.750 1.369 5.996,
            -1.550 1.413 6.191,
            -1.750 1.068 6.057,
            -1.550 1.103 6.254,
            -1.750 0.765 6.102,
            -1.550 0.790 6.301,
            -1.550 0.475 6.332,
            -1.750 0.460 6.133,
            -1.750 0.153 6.148,
            -1.550 0.158 6.348,
            -1.750 -0.153 6.148,
            -1.550 -0.158 6.348,
            -1.750 -0.460 6.133,
            -1.550 -0.475 6.332,
            -1.550 -0.790 6.301,
            -1.750 -0.765 6.102,
            -1.550 -1.103 6.254,
            -1.750 -1.068 6.057,
            -1.750 -1.369 5.996,
            -1.550 -1.413 6.191,
            -1.550 -1.720 6.113,
            -1.750 -1.666 5.920,
            -1.750 -1.959 5.830,
            -1.550 -2.022 6.019,
            -1.750 -2.247 5.725,
            -1.550 -2.320 5.911,
            -1.750 -2.529 5.606,
            -1.550 -2.612 5.788,
            -1.550 -2.897 5.651,
            -1.750 -2.806 5.473,
            -1.750 -3.075 5.326,
            -1.550 -3.175 5.499,
            -1.750 -3.337 5.166,
            -1.550 -3.445 5.334,
            -1.750 -3.590 4.993,
            -1.550 -3.707 5.156,
            -1.750 -3.834 4.808,
            -1.550 -3.959 4.965,
            -1.550 -4.202 4.761,
            -1.750 -4.069 4.611,
            -1.750 -4.294 4.403,
            -1.550 -4.434 4.546,
            -1.750 -4.508 4.183,
            -1.550 -4.655 4.319,
            -1.750 -4.711 3.953,
            -1.550 -4.864 4.082,
            -1.750 -4.902 3.713,
            -1.550 -5.062 3.834,
            -1.550 -5.247 3.577,
            -1.750 -5.081 3.464,
            -1.550 -5.418 3.311,
            -1.750 -5.248 3.207,
            -1.550 -5.577 3.037,
            -1.750 -5.401 2.941,
            -1.750 -5.541 2.668,
            -1.550 -5.721 2.755,
            -1.750 -5.667 2.389,
            -1.550 -5.851 2.467,
            -1.750 -5.779 2.103,
            -1.550 -5.967 2.172,
            -1.550 -6.068 1.872,
            -1.750 -5.877 1.813,
            -1.750 -5.960 1.518,
            -1.550 -6.154 1.567,
            -1.750 -6.028 1.219,
            -1.550 -6.224 1.258,
            -1.550 -6.279 0.946,
            -1.750 -6.081 0.917,
            -1.750 -6.119 0.612,
            -1.550 -6.318 0.632,
            -1.550 -6.342 0.317,
            -1.750 -6.142 0.307,
            -1.550 -6.350 0.000,
            -1.750 -6.150 0.000,
            0.469 -5.604 0.000,
            0.469 5.604 0.000,
            0.352 -5.786 0.804,
            0.711 -5.008 0.804,
            0.734 -5.017 0.000,
            0.970 -4.418 0.000,
            0.470 -5.368 1.606,
            1.018 -4.207 0.804,
            1.175 -3.808 0.000,
            0.801 -4.583 1.606,
            0.527 -4.930 2.401,
            1.271 -3.389 0.804,
            1.350 -3.188 0.000,
            0.198 -5.243 3.186,
            1.079 -3.778 1.606,
            0.829 -4.142 2.401,
            1.469 -2.555 0.804,
            1.494 -2.560 0.000,
            1.606 -1.925 0.000,
            0.521 -4.476 3.186,
            1.304 -2.956 1.606,
            1.078 -3.336 2.401,
            1.611 -1.709 0.804,
            1.686 -1.286 0.000,
            0.793 -3.690 3.186,
            1.473 -2.121 1.606,
            0.453 -4.012 3.960,
            1.273 -2.515 2.401,
            1.696 -0.857 0.804,
            1.734 -0.644 0.000,
            1.012 -2.887 3.186,
            1.586 -1.276 1.606,
            0.694 -3.231 3.960,
            1.412 -1.683 2.401,
            1.725 0.000 0.804,
            1.750 0.000 0.000,
            1.734 0.644 0.000,
            0.321 -3.544 4.718,
            1.177 -2.071 3.186,
            1.643 -0.426 1.606,
            0.883 -2.436 3.960,
            1.497 -0.843 2.401,
            1.696 0.857 0.804,
            1.686 1.286 0.000,
            0.532 -2.773 4.718,
            1.288 -1.246 3.186,
            1.643 0.426 1.606,
            1.019 -1.630 3.960,
            1.525 0.000 2.401,
            1.611 1.709 0.804,
            1.606 1.925 0.000,
            0.690 -1.989 4.718,
            1.343 -0.416 3.186,
            1.586 1.276 1.606,
            0.306 -2.319 5.457,
            1.100 -0.817 3.960,
            1.497 0.843 2.401,
            1.469 2.555 0.804,
            1.494 2.560 0.000,
            1.350 3.188 0.000,
            0.797 -1.197 4.718,
            1.343 0.416 3.186,
            1.473 2.121 1.606,
            0.435 -1.552 5.457,
            1.127 0.000 3.960,
            1.412 1.683 2.401,
            1.271 3.389 0.804,
            1.175 3.808 0.000,
            0.850 -0.400 4.718,
            1.288 1.246 3.186,
            1.304 2.956 1.606,
            0.513 -0.778 5.457,
            1.100 0.817 3.960,
            1.273 2.515 2.401,
            1.018 4.207 0.804,
            0.970 4.418 0.000,
            0.850 0.400 4.718,
            1.177 2.071 3.186,
            1.079 3.778 1.606,
            0.539 0.000 5.457,
            1.019 1.630 3.960,
            1.078 3.336 2.401,
            0.711 5.008 0.804,
            0.734 5.017 0.000,
            0.797 1.197 4.718,
            1.012 2.887 3.186,
            0.801 4.583 1.606,
            0.513 0.778 5.457,
            0.883 2.436 3.960,
            0.829 4.142 2.401,
            0.352 5.786 0.804,
            0.690 1.989 4.718,
            0.793 3.690 3.186,
            0.470 5.368 1.606,
            0.435 1.552 5.457,
            0.694 3.231 3.960,
            0.527 4.930 2.401,
            0.532 2.773 4.718,
            0.521 4.476 3.186,
            0.306 2.319 5.457,
            0.453 4.012 3.960,
            0.321 3.544 4.718,
            0.198 5.243 3.186,
            -1.750 -4.508 -4.183,
            -1.750 -4.902 -3.713,
            -1.750 -4.294 -4.403,
            -1.750 -4.711 -3.953,
            -1.750 -5.081 -3.464,
            -1.750 -5.248 -3.207,
            -1.750 -3.337 -5.166,
            -1.750 -2.806 -5.473,
            -1.750 -3.075 -5.326,
            -1.750 -4.069 -4.611,
            -1.750 -5.541 -2.668,
            -1.750 -3.834 -4.808,
            -1.750 -5.401 -2.941,
            -1.750 -3.590 -4.993,
            -1.750 -2.529 -5.606,
            -1.750 -2.247 -5.725,
            -1.750 -5.779 -2.103,
            -1.750 -5.877 -1.813,
            -1.750 -5.667 -2.389,
            -1.750 -1.666 -5.920,
            -1.750 -1.959 -5.830,
            -1.750 -5.960 -1.518,
            -1.750 -6.028 -1.219,
            -1.750 -6.081 -0.917,
            -1.750 -0.765 -6.102,
            -1.750 -1.369 -5.996,
            -1.750 -1.068 -6.057,
            -1.750 -6.119 -0.612,
            -1.750 -6.142 -0.307,
            -1.750 -0.153 -6.148,
            -1.750 0.460 -6.133,
            -1.750 0.153 -6.148,
            -1.750 -0.460 -6.133,
            -1.750 1.068 -6.057,
            -1.750 0.765 -6.102,
            -1.750 1.369 -5.996,
            -1.750 1.959 -5.830,
            -1.750 1.666 -5.920,
            -1.750 2.529 -5.606,
            -1.750 2.247 -5.725,
            -1.750 2.806 -5.473,
            -1.750 3.337 -5.166,
            -1.750 3.075 -5.326,
            -1.750 3.590 -4.993,
            -1.750 3.834 -4.808,
            -1.750 4.294 -4.403,
            -1.750 4.069 -4.611,
            -1.750 4.508 -4.183,
            -1.750 4.902 -3.713,
            -1.750 4.711 -3.953,
            -1.750 5.081 -3.464,
            -1.750 5.401 -2.941,
            -1.750 5.248 -3.207,
            -1.750 5.779 -2.103,
            -1.750 5.960 -1.518,
            -1.750 5.877 -1.813,
            -1.750 5.667 -2.389,
            -1.750 6.028 -1.219,
            -1.750 5.541 -2.668,
            -1.750 6.142 -0.307,
            -1.750 6.119 -0.612,
            -1.750 6.081 -0.917,
            0.175 -6.170 -0.308,
            0.175 6.170 -0.308,
            0.198 -5.243 -3.186,
            0.175 -5.425 -2.954,
            0.175 -5.271 -3.221,
            0.175 -5.104 -3.480,
            0.321 -3.544 -4.718,
            0.175 -4.088 -4.632,
            0.175 -3.852 -4.830,
            0.175 -3.606 -5.016,
            0.175 -3.352 -5.189,
            0.453 -4.012 -3.960,
            0.175 -4.732 -3.971,
            0.175 -4.528 -4.202,
            0.175 -4.313 -4.422,
            0.306 -2.319 -5.457,
            0.175 -2.818 -5.497,
            0.175 -2.541 -5.631,
            0.175 -2.257 -5.750,
            0.175 -1.967 -5.856,
            0.521 -4.476 -3.186,
            0.175 -4.924 -3.730,
            0.532 -2.773 -4.718,
            0.175 -3.089 -5.350,
            0.527 -4.930 -2.401,
            0.175 -5.805 -2.113,
            0.175 -5.692 -2.400,
            0.175 -5.566 -2.680,
            0.694 -3.231 -3.960,
            0.435 -1.552 -5.457,
            0.175 -1.673 -5.947,
            0.175 -1.375 -6.023,
            0.175 -1.073 -6.084,
            0.470 -5.368 -1.606,
            0.175 -6.055 -1.224,
            0.175 -5.986 -1.524,
            0.175 -5.903 -1.821,
            0.793 -3.690 -3.186,
            0.690 -1.989 -4.718,
            0.352 -5.786 -0.804,
            0.175 -6.147 -0.615,
            0.175 -6.108 -0.921,
            0.829 -4.142 -2.401,
            0.883 -2.436 -3.960,
            0.513 -0.778 -5.457,
            0.175 -0.768 -6.129,
            0.175 -0.462 -6.160,
            0.801 -4.583 -1.606,
            1.012 -2.887 -3.186,
            0.797 -1.197 -4.718,
            0.711 -5.008 -0.804,
            1.078 -3.336 -2.401,
            1.019 -1.630 -3.960,
            0.539 0.000 -5.457,
            0.175 -0.154 -6.175,
            0.175 0.154 -6.175,
            0.175 0.462 -6.160,
            1.079 -3.778 -1.606,
            1.177 -2.071 -3.186,
            0.850 -0.400 -4.718,
            1.018 -4.207 -0.804,
            1.273 -2.515 -2.401,
            1.100 -0.817 -3.960,
            0.513 0.778 -5.457,
            0.175 0.768 -6.129,
            0.175 1.073 -6.084,
            1.304 -2.956 -1.606,
            1.288 -1.246 -3.186,
            0.850 0.400 -4.718,
            1.271 -3.389 -0.804,
            1.412 -1.683 -2.401,
            1.127 0.000 -3.960,
            0.435 1.552 -5.457,
            0.175 1.375 -6.023,
            0.175 1.673 -5.947,
            0.175 1.967 -5.856,
            1.473 -2.121 -1.606,
            1.343 -0.416 -3.186,
            0.797 1.197 -4.718,
            1.469 -2.555 -0.804,
            1.497 -0.843 -2.401,
            1.100 0.817 -3.960,
            0.306 2.319 -5.457,
            0.175 2.257 -5.750,
            0.175 2.541 -5.631,
            0.175 2.818 -5.497,
            1.586 -1.276 -1.606,
            1.343 0.416 -3.186,
            0.690 1.989 -4.718,
            1.611 -1.709 -0.804,
            1.525 0.000 -2.401,
            1.019 1.630 -3.960,
            1.643 -0.426 -1.606,
            1.288 1.246 -3.186,
            0.532 2.773 -4.718,
            0.175 3.089 -5.350,
            0.175 3.352 -5.189,
            1.696 -0.857 -0.804,
            1.497 0.843 -2.401,
            0.883 2.436 -3.960,
            1.643 0.426 -1.606,
            1.177 2.071 -3.186,
            0.321 3.544 -4.718,
            0.175 3.606 -5.016,
            0.175 3.852 -4.830,
            0.175 4.088 -4.632,
            1.725 0.000 -0.804,
            1.412 1.683 -2.401,
            0.694 3.231 -3.960,
            1.586 1.276 -1.606,
            1.012 2.887 -3.186,
            1.696 0.857 -0.804,
            1.273 2.515 -2.401,
            0.453 4.012 -3.960,
            0.175 4.313 -4.422,
            0.175 4.528 -4.202,
            0.175 4.732 -3.971,
            1.473 2.121 -1.606,
            0.793 3.690 -3.186,
            1.611 1.709 -0.804,
            1.078 3.336 -2.401,
            1.304 2.956 -1.606,
            0.521 4.476 -3.186,
            0.175 4.924 -3.730,
            0.175 5.104 -3.480,
            1.469 2.555 -0.804,
            0.829 4.142 -2.401,
            1.079 3.778 -1.606,
            0.198 5.243 -3.186,
            0.175 5.271 -3.221,
            0.175 5.425 -2.954,
            1.271 3.389 -0.804,
            0.527 4.930 -2.401,
            0.175 5.566 -2.680,
            0.175 5.692 -2.400,
            0.175 5.805 -2.113,
            0.801 4.583 -1.606,
            1.018 4.207 -0.804,
            0.470 5.368 -1.606,
            0.175 5.903 -1.821,
            0.175 5.986 -1.524,
            0.175 6.055 -1.224,
            0.711 5.008 -0.804,
            0.352 5.786 -0.804,
            0.175 6.108 -0.921,
            0.175 6.147 -0.615,
            -1.550 6.342 -0.317,
            -0.121 6.342 -0.317,
            -1.550 6.318 -0.632,
            -0.121 6.318 -0.632,
            -1.550 6.279 -0.946,
            -0.121 6.279 -0.946,
            -1.550 6.224 -1.258,
            -0.121 6.224 -1.258,
            -1.550 6.154 -1.567,
            -0.121 6.154 -1.567,
            -1.550 6.068 -1.872,
            -0.121 6.068 -1.872,
            -1.550 5.967 -2.172,
            -0.121 5.967 -2.172,
            -1.550 5.851 -2.467,
            -0.121 5.851 -2.467,
            -1.550 5.721 -2.755,
            -0.121 5.721 -2.755,
            -1.550 5.577 -3.037,
            -0.121 5.577 -3.037,
            -1.550 5.418 -3.311,
            -0.121 5.418 -3.311,
            -1.550 5.247 -3.577,
            -0.121 5.247 -3.577,
            -1.550 5.062 -3.834,
            -0.121 5.062 -3.834,
            -1.550 4.864 -4.082,
            -0.121 4.864 -4.082,
            -1.550 4.655 -4.319,
            -0.121 4.655 -4.319,
            -1.550 4.434 -4.546,
            -0.121 4.434 -4.546,
            -1.550 4.202 -4.761,
            -0.121 4.202 -4.761,
            -1.550 3.959 -4.965,
            -0.121 3.959 -4.965,
            -1.550 3.707 -5.156,
            -0.121 3.707 -5.156,
            -1.550 3.445 -5.334,
            -0.121 3.445 -5.334,
            -1.550 3.175 -5.499,
            -0.121 3.175 -5.499,
            -1.550 2.897 -5.651,
            -0.121 2.897 -5.651,
            -1.550 2.612 -5.788,
            -0.121 2.612 -5.788,
            -1.550 2.320 -5.911,
            -0.121 2.320 -5.911,
            -1.550 2.022 -6.019,
            -0.121 2.022 -6.019,
            -1.550 1.720 -6.113,
            -0.121 1.720 -6.113,
            -1.550 1.413 -6.191,
            -0.121 1.413 -6.191,
            -1.550 1.103 -6.254,
            -0.121 1.103 -6.254,
            -1.550 0.790 -6.301,
            -0.121 0.790 -6.301,
            -1.550 0.475 -6.332,
            -0.121 0.475 -6.332,
            -1.550 0.158 -6.348,
            -0.121 0.158 -6.348,
            -1.550 -0.158 -6.348,
            -0.121 -0.158 -6.348,
            -1.550 -0.475 -6.332,
            -0.121 -0.475 -6.332,
            -1.550 -0.790 -6.301,
            -0.121 -0.790 -6.301,
            -1.550 -1.103 -6.254,
            -0.121 -1.103 -6.254,
            -1.550 -1.413 -6.191,
            -0.121 -1.413 -6.191,
            -1.550 -1.720 -6.113,
            -0.121 -1.720 -6.113,
            -1.550 -2.022 -6.019,
            -0.121 -2.022 -6.019,
            -1.550 -2.320 -5.911,
            -0.121 -2.320 -5.911,
            -1.550 -2.612 -5.788,
            -0.121 -2.612 -5.788,
            -1.550 -2.897 -5.651,
            -0.121 -2.897 -5.651,
            -1.550 -3.175 -5.499,
            -0.121 -3.175 -5.499,
            -1.550 -3.445 -5.334,
            -0.121 -3.445 -5.334,
            -1.550 -3.707 -5.156,
            -0.121 -3.707 -5.156,
            -1.550 -3.959 -4.965,
            -0.121 -3.959 -4.965,
            -1.550 -4.202 -4.761,
            -0.121 -4.202 -4.761,
            -1.550 -4.434 -4.546,
            -0.121 -4.434 -4.546,
            -1.550 -4.655 -4.319,
            -0.121 -4.655 -4.319,
            -1.550 -4.864 -4.082,
            -0.121 -4.864 -4.082,
            -1.550 -5.062 -3.834,
            -0.121 -5.062 -3.834,
            -1.550 -5.247 -3.577,
            -0.121 -5.247 -3.577,
            -1.550 -5.418 -3.311,
            -0.121 -5.418 -3.311,
            -1.550 -5.577 -3.037,
            -0.121 -5.577 -3.037,
            -1.550 -5.721 -2.755,
            -0.121 -5.721 -2.755,
            -1.550 -5.851 -2.467,
            -0.121 -5.851 -2.467,
            -1.550 -5.967 -2.172,
            -0.121 -5.967 -2.172,
            -1.550 -6.068 -1.872,
            -0.121 -6.068 -1.872,
            -1.550 -6.154 -1.567,
            -0.121 -6.154 -1.567,
            -1.550 -6.224 -1.258,
            -0.121 -6.224 -1.258,
            -1.550 -6.279 -0.946,
            -0.121 -6.279 -0.946,
            -1.550 -6.318 -0.632,
            -0.121 -6.318 -0.632,
            -1.550 -6.342 -0.317,
            -0.121 -6.342 -0.317
          ]
        }
        coordIndex [
          0, 1, 2, -1,
          3, 0, 2, -1,
          3, 2, 4, -1,
          5, 3, 4, -1,
          5, 4, 6, -1,
          7, 5, 6, -1,
          7, 6, 8, -1,
          9, 7, 8, -1,
          9, 8, 10, -1,
          11, 9, 10, -1,
          11, 10, 12, -1,
          13, 12, 14, -1,
          13, 11, 12, -1,
          15, 14, 16, -1,
          15, 13, 14, -1,
          17, 16, 18, -1,
          17, 15, 16, -1,
          19, 18, 20, -1,
          19, 17, 18, -1,
          21, 20, 22, -1,
          21, 19, 20, -1,
          23, 22, 24, -1,
          23, 21, 22, -1,
          25, 24, 26, -1,
          25, 23, 24, -1,
          27, 26, 28, -1,
          27, 25, 26, -1,
          29, 28, 30, -1,
          29, 27, 28, -1,
          31, 30, 32, -1,
          31, 29, 30, -1,
          33, 32, 34, -1,
          33, 31, 32, -1,
          35, 34, 36, -1,
          35, 33, 34, -1,
          37, 35, 36, -1,
          37, 36, 38, -1,
          39, 37, 38, -1,
          39, 38, 40, -1,
          41, 39, 40, -1,
          41, 40, 42, -1,
          43, 41, 42, -1,
          43, 42, 44, -1,
          45, 43, 44, -1,
          45, 44, 46, -1,
          47, 45, 46, -1,
          47, 46, 48, -1,
          49, 47, 48, -1,
          49, 48, 50, -1,
          51, 49, 50, -1,
          51, 50, 52, -1,
          53, 51, 52, -1,
          53, 52, 54, -1,
          55, 54, 56, -1,
          55, 53, 54, -1,
          57, 55, 56, -1,
          58, 59, 60, -1,
          58, 56, 59, -1,
          58, 57, 56, -1,
          61, 60, 62, -1,
          61, 58, 60, -1,
          63, 62, 64, -1,
          63, 61, 62, -1,
          65, 64, 66, -1,
          65, 63, 64, -1,
          67, 65, 66, -1,
          68, 66, 69, -1,
          68, 67, 66, -1,
          70, 69, 71, -1,
          70, 68, 69, -1,
          72, 71, 73, -1,
          72, 70, 71, -1,
          74, 75, 76, -1,
          74, 73, 75, -1,
          74, 72, 73, -1,
          77, 76, 78, -1,
          77, 74, 76, -1,
          79, 78, 80, -1,
          79, 77, 78, -1,
          81, 80, 82, -1,
          81, 79, 80, -1,
          83, 82, 84, -1,
          83, 81, 82, -1,
          85, 84, 86, -1,
          85, 83, 84, -1,
          87, 85, 86, -1,
          88, 87, 86, -1,
          88, 86, 89, -1,
          90, 88, 89, -1,
          90, 89, 91, -1,
          92, 90, 91, -1,
          92, 93, 94, -1,
          92, 91, 93, -1,
          95, 94, 96, -1,
          95, 92, 94, -1,
          97, 95, 96, -1,
          98, 99, 100, -1,
          98, 96, 99, -1,
          98, 97, 96, -1,
          101, 100, 102, -1,
          101, 98, 100, -1,
          103, 101, 102, -1,
          104, 102, 105, -1,
          104, 103, 102, -1,
          106, 107, 108, -1,
          106, 105, 107, -1,
          106, 104, 105, -1,
          109, 108, 110, -1,
          109, 106, 108, -1,
          111, 109, 110, -1,
          112, 110, 113, -1,
          112, 111, 110, -1,
          114, 115, 116, -1,
          114, 113, 115, -1,
          114, 112, 113, -1,
          117, 114, 116, -1,
          118, 116, 119, -1,
          118, 117, 116, -1,
          120, 119, 121, -1,
          120, 118, 119, -1,
          122, 121, 123, -1,
          122, 120, 121, -1,
          124, 125, 126, -1,
          124, 123, 125, -1,
          124, 122, 123, -1,
          127, 124, 126, -1,
          128, 129, 130, -1,
          131, 129, 128, -1,
          132, 131, 128, -1,
          133, 131, 132, -1,
          134, 133, 132, -1,
          135, 133, 134, -1,
          136, 135, 134, -1,
          137, 135, 136, -1,
          138, 137, 136, -1,
          139, 137, 138, -1,
          140, 139, 138, -1,
          141, 139, 140, -1,
          142, 141, 140, -1,
          143, 141, 142, -1,
          144, 143, 142, -1,
          145, 143, 144, -1,
          146, 145, 144, -1,
          147, 145, 146, -1,
          148, 147, 146, -1,
          149, 147, 148, -1,
          150, 149, 148, -1,
          151, 149, 150, -1,
          152, 151, 150, -1,
          153, 151, 152, -1,
          154, 153, 152, -1,
          155, 153, 154, -1,
          156, 155, 154, -1,
          157, 155, 156, -1,
          158, 157, 156, -1,
          159, 157, 158, -1,
          160, 159, 158, -1,
          161, 159, 160, -1,
          162, 161, 160, -1,
          163, 161, 162, -1,
          164, 163, 162, -1,
          165, 163, 164, -1,
          166, 165, 164, -1,
          167, 165, 166, -1,
          168, 167, 166, -1,
          169, 167, 168, -1,
          170, 169, 168, -1,
          171, 169, 170, -1,
          172, 171, 170, -1,
          173, 171, 172, -1,
          174, 173, 172, -1,
          175, 173, 174, -1,
          176, 175, 174, -1,
          177, 175, 176, -1,
          178, 177, 176, -1,
          179, 177, 178, -1,
          180, 179, 178, -1,
          181, 179, 180, -1,
          182, 181, 180, -1,
          183, 181, 182, -1,
          184, 183, 182, -1,
          185, 183, 184, -1,
          186, 185, 184, -1,
          187, 185, 186, -1,
          188, 186, 189, -1,
          188, 187, 186, -1,
          190, 188, 189, -1,
          191, 188, 190, -1,
          192, 191, 190, -1,
          193, 191, 192, -1,
          194, 193, 192, -1,
          195, 193, 194, -1,
          196, 194, 197, -1,
          196, 195, 194, -1,
          198, 197, 199, -1,
          198, 196, 197, -1,
          200, 198, 199, -1,
          201, 198, 200, -1,
          202, 200, 203, -1,
          202, 201, 200, -1,
          204, 202, 203, -1,
          205, 202, 204, -1,
          206, 205, 204, -1,
          207, 205, 206, -1,
          208, 207, 206, -1,
          209, 207, 208, -1,
          210, 208, 211, -1,
          210, 209, 208, -1,
          212, 210, 211, -1,
          213, 210, 212, -1,
          214, 213, 212, -1,
          215, 213, 214, -1,
          216, 215, 214, -1,
          217, 215, 216, -1,
          218, 217, 216, -1,
          219, 217, 218, -1,
          220, 219, 218, -1,
          220, 218, 221, -1,
          222, 220, 221, -1,
          223, 220, 222, -1,
          224, 223, 222, -1,
          225, 223, 224, -1,
          226, 225, 224, -1,
          227, 225, 226, -1,
          228, 227, 226, -1,
          229, 227, 228, -1,
          230, 228, 231, -1,
          230, 229, 228, -1,
          232, 231, 233, -1,
          232, 230, 231, -1,
          234, 233, 235, -1,
          234, 232, 233, -1,
          236, 234, 235, -1,
          237, 234, 236, -1,
          238, 237, 236, -1,
          239, 237, 238, -1,
          240, 239, 238, -1,
          241, 239, 240, -1,
          242, 240, 243, -1,
          242, 241, 240, -1,
          244, 242, 243, -1,
          245, 242, 244, -1,
          246, 245, 244, -1,
          247, 245, 246, -1,
          248, 246, 249, -1,
          248, 247, 246, -1,
          250, 248, 249, -1,
          251, 248, 250, -1,
          252, 250, 253, -1,
          252, 251, 250, -1,
          254, 253, 255, -1,
          254, 252, 253, -1,
          252, 0, 3, -1,
          252, 254, 0, -1,
          251, 3, 5, -1,
          251, 252, 3, -1,
          248, 5, 7, -1,
          248, 251, 5, -1,
          247, 7, 9, -1,
          247, 248, 7, -1,
          245, 9, 11, -1,
          245, 247, 9, -1,
          242, 11, 13, -1,
          242, 245, 11, -1,
          241, 13, 15, -1,
          241, 242, 13, -1,
          239, 15, 17, -1,
          239, 241, 15, -1,
          237, 17, 19, -1,
          237, 239, 17, -1,
          234, 19, 21, -1,
          234, 237, 19, -1,
          232, 21, 23, -1,
          232, 234, 21, -1,
          230, 23, 25, -1,
          230, 232, 23, -1,
          229, 25, 27, -1,
          229, 230, 25, -1,
          227, 27, 29, -1,
          227, 229, 27, -1,
          225, 29, 31, -1,
          225, 227, 29, -1,
          223, 31, 33, -1,
          223, 225, 31, -1,
          220, 33, 35, -1,
          220, 35, 37, -1,
          220, 223, 33, -1,
          219, 220, 37, -1,
          219, 37, 39, -1,
          217, 219, 39, -1,
          215, 217, 39, -1,
          215, 39, 41, -1,
          215, 41, 43, -1,
          213, 215, 43, -1,
          210, 213, 43, -1,
          210, 43, 45, -1,
          210, 45, 47, -1,
          209, 210, 47, -1,
          207, 209, 47, -1,
          207, 47, 49, -1,
          207, 49, 51, -1,
          205, 51, 53, -1,
          205, 207, 51, -1,
          202, 205, 53, -1,
          201, 53, 55, -1,
          201, 202, 53, -1,
          198, 55, 57, -1,
          198, 201, 55, -1,
          196, 57, 58, -1,
          196, 198, 57, -1,
          195, 58, 61, -1,
          195, 196, 58, -1,
          193, 61, 63, -1,
          193, 195, 61, -1,
          191, 63, 65, -1,
          191, 193, 63, -1,
          188, 65, 67, -1,
          188, 67, 68, -1,
          188, 191, 65, -1,
          187, 188, 68, -1,
          185, 68, 70, -1,
          185, 70, 72, -1,
          185, 187, 68, -1,
          183, 185, 72, -1,
          181, 72, 74, -1,
          181, 74, 77, -1,
          181, 183, 72, -1,
          179, 77, 79, -1,
          179, 181, 77, -1,
          177, 79, 81, -1,
          177, 179, 79, -1,
          175, 177, 81, -1,
          173, 81, 83, -1,
          173, 83, 85, -1,
          173, 175, 81, -1,
          171, 173, 85, -1,
          169, 171, 85, -1,
          169, 85, 87, -1,
          169, 87, 88, -1,
          167, 169, 88, -1,
          165, 167, 88, -1,
          165, 88, 90, -1,
          163, 165, 90, -1,
          163, 90, 92, -1,
          161, 163, 92, -1,
          161, 92, 95, -1,
          159, 161, 95, -1,
          159, 95, 97, -1,
          157, 159, 97, -1,
          157, 97, 98, -1,
          157, 98, 101, -1,
          155, 157, 101, -1,
          153, 155, 101, -1,
          153, 101, 103, -1,
          151, 153, 103, -1,
          151, 103, 104, -1,
          149, 151, 104, -1,
          149, 104, 106, -1,
          147, 149, 106, -1,
          147, 106, 109, -1,
          145, 147, 109, -1,
          145, 109, 111, -1,
          143, 111, 112, -1,
          143, 145, 111, -1,
          141, 112, 114, -1,
          141, 143, 112, -1,
          139, 114, 117, -1,
          139, 141, 114, -1,
          137, 117, 118, -1,
          137, 139, 117, -1,
          135, 118, 120, -1,
          135, 137, 118, -1,
          133, 120, 122, -1,
          133, 122, 124, -1,
          133, 135, 120, -1,
          131, 133, 124, -1,
          129, 124, 127, -1,
          129, 131, 124, -1,
          256, 2, 1, -1,
          125, 257, 126, -1,
          258, 8, 6, -1,
          258, 6, 4, -1,
          258, 4, 2, -1,
          258, 2, 256, -1,
          259, 260, 261, -1,
          259, 256, 260, -1,
          259, 258, 256, -1,
          262, 8, 258, -1,
          262, 258, 259, -1,
          262, 14, 12, -1,
          262, 12, 10, -1,
          262, 10, 8, -1,
          263, 261, 264, -1,
          263, 259, 261, -1,
          265, 262, 259, -1,
          265, 259, 263, -1,
          266, 14, 262, -1,
          266, 262, 265, -1,
          266, 20, 18, -1,
          266, 18, 16, -1,
          266, 16, 14, -1,
          267, 264, 268, -1,
          267, 263, 264, -1,
          269, 24, 22, -1,
          269, 22, 20, -1,
          269, 20, 266, -1,
          270, 265, 263, -1,
          270, 263, 267, -1,
          271, 266, 265, -1,
          271, 265, 270, -1,
          272, 273, 274, -1,
          272, 268, 273, -1,
          272, 267, 268, -1,
          275, 269, 266, -1,
          275, 266, 271, -1,
          275, 24, 269, -1,
          275, 28, 26, -1,
          275, 26, 24, -1,
          276, 267, 272, -1,
          276, 270, 267, -1,
          277, 271, 270, -1,
          277, 270, 276, -1,
          278, 274, 279, -1,
          278, 272, 274, -1,
          280, 271, 277, -1,
          280, 275, 271, -1,
          281, 272, 278, -1,
          281, 276, 272, -1,
          282, 28, 275, -1,
          282, 34, 32, -1,
          282, 32, 30, -1,
          282, 30, 28, -1,
          282, 275, 280, -1,
          283, 276, 281, -1,
          283, 277, 276, -1,
          284, 279, 285, -1,
          284, 278, 279, -1,
          286, 277, 283, -1,
          286, 280, 277, -1,
          287, 281, 278, -1,
          287, 278, 284, -1,
          288, 280, 286, -1,
          288, 282, 280, -1,
          289, 283, 281, -1,
          289, 281, 287, -1,
          290, 285, 291, -1,
          290, 284, 285, -1,
          290, 291, 292, -1,
          293, 40, 38, -1,
          293, 38, 36, -1,
          293, 36, 34, -1,
          293, 34, 282, -1,
          293, 282, 288, -1,
          294, 286, 283, -1,
          294, 283, 289, -1,
          295, 287, 284, -1,
          295, 284, 290, -1,
          296, 286, 294, -1,
          296, 288, 286, -1,
          297, 287, 295, -1,
          297, 289, 287, -1,
          298, 292, 299, -1,
          298, 290, 292, -1,
          300, 288, 296, -1,
          300, 40, 293, -1,
          300, 44, 42, -1,
          300, 42, 40, -1,
          300, 293, 288, -1,
          301, 294, 289, -1,
          301, 289, 297, -1,
          302, 290, 298, -1,
          302, 295, 290, -1,
          303, 294, 301, -1,
          303, 296, 294, -1,
          304, 297, 295, -1,
          304, 295, 302, -1,
          305, 299, 306, -1,
          305, 298, 299, -1,
          307, 300, 296, -1,
          307, 296, 303, -1,
          308, 297, 304, -1,
          308, 301, 297, -1,
          309, 302, 298, -1,
          309, 298, 305, -1,
          310, 44, 300, -1,
          310, 50, 48, -1,
          310, 48, 46, -1,
          310, 46, 44, -1,
          310, 300, 307, -1,
          311, 301, 308, -1,
          311, 303, 301, -1,
          312, 304, 302, -1,
          312, 302, 309, -1,
          313, 306, 314, -1,
          313, 314, 315, -1,
          313, 305, 306, -1,
          316, 307, 303, -1,
          316, 303, 311, -1,
          317, 308, 304, -1,
          317, 304, 312, -1,
          318, 305, 313, -1,
          318, 309, 305, -1,
          319, 50, 310, -1,
          319, 56, 54, -1,
          319, 54, 52, -1,
          319, 52, 50, -1,
          319, 310, 307, -1,
          319, 307, 316, -1,
          320, 311, 308, -1,
          320, 308, 317, -1,
          321, 309, 318, -1,
          321, 312, 309, -1,
          322, 315, 323, -1,
          322, 313, 315, -1,
          324, 311, 320, -1,
          324, 316, 311, -1,
          325, 312, 321, -1,
          325, 317, 312, -1,
          326, 313, 322, -1,
          326, 318, 313, -1,
          327, 316, 324, -1,
          327, 60, 59, -1,
          327, 59, 56, -1,
          327, 56, 319, -1,
          327, 319, 316, -1,
          328, 320, 317, -1,
          328, 317, 325, -1,
          329, 321, 318, -1,
          329, 318, 326, -1,
          330, 323, 331, -1,
          330, 322, 323, -1,
          332, 320, 328, -1,
          332, 324, 320, -1,
          333, 321, 329, -1,
          333, 325, 321, -1,
          334, 322, 330, -1,
          334, 326, 322, -1,
          335, 324, 332, -1,
          335, 327, 324, -1,
          335, 66, 64, -1,
          335, 64, 62, -1,
          335, 62, 60, -1,
          335, 60, 327, -1,
          336, 328, 325, -1,
          336, 325, 333, -1,
          337, 329, 326, -1,
          337, 326, 334, -1,
          338, 331, 339, -1,
          338, 339, 257, -1,
          338, 330, 331, -1,
          340, 332, 328, -1,
          340, 328, 336, -1,
          341, 329, 337, -1,
          341, 333, 329, -1,
          342, 334, 330, -1,
          342, 330, 338, -1,
          343, 335, 332, -1,
          343, 66, 335, -1,
          343, 332, 340, -1,
          343, 71, 69, -1,
          343, 69, 66, -1,
          344, 336, 333, -1,
          344, 333, 341, -1,
          345, 337, 334, -1,
          345, 334, 342, -1,
          346, 338, 257, -1,
          346, 125, 123, -1,
          346, 123, 121, -1,
          346, 121, 119, -1,
          346, 257, 125, -1,
          347, 340, 336, -1,
          347, 336, 344, -1,
          348, 341, 337, -1,
          348, 337, 345, -1,
          349, 119, 116, -1,
          349, 116, 115, -1,
          349, 115, 113, -1,
          349, 338, 346, -1,
          349, 342, 338, -1,
          349, 346, 119, -1,
          350, 340, 347, -1,
          350, 76, 75, -1,
          350, 75, 73, -1,
          350, 73, 71, -1,
          350, 343, 340, -1,
          350, 71, 343, -1,
          351, 344, 341, -1,
          351, 341, 348, -1,
          352, 113, 110, -1,
          352, 110, 108, -1,
          352, 108, 107, -1,
          352, 345, 342, -1,
          352, 342, 349, -1,
          352, 349, 113, -1,
          353, 86, 84, -1,
          353, 84, 82, -1,
          353, 347, 344, -1,
          353, 344, 351, -1,
          354, 345, 352, -1,
          354, 102, 100, -1,
          354, 100, 99, -1,
          354, 348, 345, -1,
          355, 82, 80, -1,
          355, 80, 78, -1,
          355, 78, 76, -1,
          355, 347, 353, -1,
          355, 76, 350, -1,
          355, 350, 347, -1,
          355, 353, 82, -1,
          356, 99, 96, -1,
          356, 96, 94, -1,
          356, 94, 93, -1,
          356, 351, 348, -1,
          356, 354, 99, -1,
          356, 348, 354, -1,
          357, 351, 356, -1,
          357, 93, 91, -1,
          357, 91, 89, -1,
          357, 89, 86, -1,
          357, 356, 93, -1,
          357, 86, 353, -1,
          357, 353, 351, -1,
          358, 102, 354, -1,
          358, 107, 105, -1,
          358, 105, 102, -1,
          358, 354, 352, -1,
          358, 352, 107, -1,
          359, 360, 361, -1,
          362, 360, 359, -1,
          363, 364, 360, -1,
          365, 366, 367, -1,
          368, 369, 370, -1,
          361, 369, 368, -1,
          371, 369, 364, -1,
          364, 369, 360, -1,
          360, 369, 361, -1,
          372, 373, 365, -1,
          365, 373, 366, -1,
          372, 374, 373, -1,
          375, 376, 377, -1,
          374, 378, 379, -1,
          376, 380, 377, -1,
          381, 382, 380, -1,
          380, 382, 377, -1,
          370, 383, 372, -1,
          372, 383, 374, -1,
          374, 383, 378, -1,
          384, 383, 385, -1,
          378, 383, 384, -1,
          386, 255, 382, -1,
          387, 255, 386, -1,
          388, 389, 390, -1,
          391, 389, 388, -1,
          383, 389, 391, -1,
          253, 249, 255, -1,
          250, 249, 253, -1,
          389, 392, 393, -1,
          383, 392, 389, -1,
          246, 243, 249, -1,
          244, 243, 246, -1,
          394, 395, 396, -1,
          392, 395, 394, -1,
          240, 238, 243, -1,
          392, 397, 395, -1,
          395, 397, 398, -1,
          236, 235, 238, -1,
          238, 235, 243, -1,
          235, 233, 243, -1,
          399, 400, 401, -1,
          397, 400, 399, -1,
          392, 402, 397, -1,
          383, 402, 392, -1,
          397, 402, 400, -1,
          370, 402, 383, -1,
          231, 228, 233, -1,
          226, 224, 228, -1,
          403, 404, 405, -1,
          402, 404, 403, -1,
          233, 222, 243, -1,
          228, 222, 233, -1,
          224, 222, 228, -1,
          402, 406, 404, -1,
          402, 407, 406, -1,
          406, 407, 408, -1,
          402, 409, 407, -1,
          218, 214, 221, -1,
          216, 214, 218, -1,
          221, 212, 222, -1,
          214, 212, 221, -1,
          409, 410, 411, -1,
          211, 206, 212, -1,
          208, 206, 211, -1,
          412, 413, 414, -1,
          415, 413, 412, -1,
          370, 416, 402, -1,
          369, 416, 370, -1,
          402, 416, 409, -1,
          417, 416, 415, -1,
          415, 416, 413, -1,
          410, 416, 417, -1,
          409, 416, 410, -1,
          203, 199, 204, -1,
          200, 199, 203, -1,
          204, 197, 206, -1,
          199, 197, 204, -1,
          212, 197, 222, -1,
          206, 197, 212, -1,
          194, 190, 197, -1,
          192, 190, 194, -1,
          418, 128, 130, -1,
          419, 128, 418, -1,
          420, 128, 419, -1,
          416, 128, 420, -1,
          189, 184, 190, -1,
          186, 184, 189, -1,
          243, 136, 249, -1,
          377, 136, 369, -1,
          222, 136, 243, -1,
          416, 136, 128, -1,
          132, 136, 134, -1,
          128, 136, 132, -1,
          382, 136, 377, -1,
          255, 136, 382, -1,
          249, 136, 255, -1,
          197, 136, 222, -1,
          369, 136, 416, -1,
          184, 180, 190, -1,
          182, 180, 184, -1,
          136, 140, 138, -1,
          190, 176, 197, -1,
          180, 176, 190, -1,
          178, 176, 180, -1,
          140, 144, 142, -1,
          174, 172, 176, -1,
          144, 148, 146, -1,
          144, 150, 148, -1,
          136, 152, 140, -1,
          140, 152, 144, -1,
          144, 152, 150, -1,
          168, 166, 170, -1,
          136, 154, 152, -1,
          170, 164, 172, -1,
          166, 164, 170, -1,
          136, 156, 154, -1,
          164, 162, 172, -1,
          136, 158, 156, -1,
          197, 160, 136, -1,
          176, 160, 197, -1,
          136, 160, 158, -1,
          172, 160, 176, -1,
          162, 160, 172, -1,
          256, 1, 421, -1,
          126, 257, 422, -1,
          423, 424, 425, -1,
          423, 425, 426, -1,
          427, 428, 429, -1,
          427, 429, 430, -1,
          427, 430, 431, -1,
          432, 433, 434, -1,
          432, 434, 435, -1,
          432, 435, 428, -1,
          432, 428, 427, -1,
          436, 437, 438, -1,
          436, 438, 439, -1,
          436, 439, 440, -1,
          441, 423, 426, -1,
          441, 426, 442, -1,
          441, 442, 433, -1,
          441, 433, 432, -1,
          443, 437, 436, -1,
          443, 431, 444, -1,
          443, 444, 437, -1,
          443, 427, 431, -1,
          445, 424, 423, -1,
          445, 446, 447, -1,
          445, 447, 448, -1,
          445, 448, 424, -1,
          445, 423, 441, -1,
          449, 427, 443, -1,
          449, 432, 427, -1,
          450, 436, 440, -1,
          450, 440, 451, -1,
          450, 451, 452, -1,
          450, 452, 453, -1,
          454, 455, 456, -1,
          454, 456, 457, -1,
          454, 457, 446, -1,
          454, 446, 445, -1,
          458, 441, 432, -1,
          458, 432, 449, -1,
          459, 443, 436, -1,
          459, 436, 450, -1,
          460, 455, 454, -1,
          460, 421, 461, -1,
          460, 461, 462, -1,
          460, 462, 455, -1,
          460, 256, 421, -1,
          463, 441, 458, -1,
          463, 445, 441, -1,
          464, 443, 459, -1,
          464, 449, 443, -1,
          465, 453, 466, -1,
          465, 466, 467, -1,
          465, 450, 453, -1,
          468, 454, 445, -1,
          468, 445, 463, -1,
          469, 449, 464, -1,
          469, 458, 449, -1,
          470, 459, 450, -1,
          470, 450, 465, -1,
          471, 261, 260, -1,
          471, 260, 256, -1,
          471, 460, 454, -1,
          471, 256, 460, -1,
          471, 454, 468, -1,
          472, 458, 469, -1,
          472, 463, 458, -1,
          473, 464, 459, -1,
          473, 459, 470, -1,
          474, 467, 475, -1,
          474, 475, 476, -1,
          474, 476, 477, -1,
          474, 465, 467, -1,
          478, 463, 472, -1,
          478, 468, 463, -1,
          479, 464, 473, -1,
          479, 469, 464, -1,
          480, 465, 474, -1,
          480, 470, 465, -1,
          481, 261, 471, -1,
          481, 264, 261, -1,
          481, 468, 478, -1,
          481, 471, 468, -1,
          482, 472, 469, -1,
          482, 469, 479, -1,
          483, 473, 470, -1,
          483, 470, 480, -1,
          484, 474, 477, -1,
          484, 477, 485, -1,
          484, 485, 486, -1,
          487, 478, 472, -1,
          487, 472, 482, -1,
          488, 473, 483, -1,
          488, 479, 473, -1,
          489, 474, 484, -1,
          489, 480, 474, -1,
          490, 478, 487, -1,
          490, 268, 264, -1,
          490, 264, 481, -1,
          490, 481, 478, -1,
          491, 479, 488, -1,
          491, 482, 479, -1,
          492, 483, 480, -1,
          492, 480, 489, -1,
          493, 486, 494, -1,
          493, 494, 495, -1,
          493, 495, 496, -1,
          493, 484, 486, -1,
          497, 482, 491, -1,
          497, 487, 482, -1,
          498, 483, 492, -1,
          498, 488, 483, -1,
          499, 484, 493, -1,
          499, 489, 484, -1,
          500, 487, 497, -1,
          500, 274, 273, -1,
          500, 273, 268, -1,
          500, 490, 487, -1,
          500, 268, 490, -1,
          501, 491, 488, -1,
          501, 488, 498, -1,
          502, 492, 489, -1,
          502, 489, 499, -1,
          503, 493, 496, -1,
          503, 496, 504, -1,
          503, 504, 505, -1,
          503, 505, 506, -1,
          507, 497, 491, -1,
          507, 491, 501, -1,
          508, 492, 502, -1,
          508, 498, 492, -1,
          509, 499, 493, -1,
          509, 493, 503, -1,
          510, 279, 274, -1,
          510, 500, 497, -1,
          510, 274, 500, -1,
          510, 497, 507, -1,
          511, 501, 498, -1,
          511, 498, 508, -1,
          512, 499, 509, -1,
          512, 502, 499, -1,
          513, 501, 511, -1,
          513, 507, 501, -1,
          514, 508, 502, -1,
          514, 502, 512, -1,
          515, 506, 516, -1,
          515, 516, 517, -1,
          515, 509, 503, -1,
          515, 503, 506, -1,
          518, 507, 513, -1,
          518, 510, 507, -1,
          518, 285, 279, -1,
          518, 279, 510, -1,
          519, 508, 514, -1,
          519, 511, 508, -1,
          520, 509, 515, -1,
          520, 512, 509, -1,
          521, 513, 511, -1,
          521, 511, 519, -1,
          522, 512, 520, -1,
          522, 514, 512, -1,
          523, 515, 517, -1,
          523, 517, 524, -1,
          523, 524, 525, -1,
          523, 525, 526, -1,
          527, 292, 291, -1,
          527, 291, 285, -1,
          527, 285, 518, -1,
          527, 518, 513, -1,
          527, 513, 521, -1,
          528, 514, 522, -1,
          528, 519, 514, -1,
          529, 520, 515, -1,
          529, 515, 523, -1,
          530, 521, 519, -1,
          530, 519, 528, -1,
          531, 520, 529, -1,
          531, 522, 520, -1,
          532, 299, 292, -1,
          532, 292, 527, -1,
          532, 527, 521, -1,
          532, 521, 530, -1,
          533, 522, 531, -1,
          533, 528, 522, -1,
          534, 529, 523, -1,
          534, 523, 526, -1,
          534, 526, 535, -1,
          534, 535, 536, -1,
          534, 536, 537, -1,
          538, 530, 528, -1,
          538, 528, 533, -1,
          539, 531, 529, -1,
          539, 529, 534, -1,
          540, 306, 299, -1,
          540, 299, 532, -1,
          540, 532, 530, -1,
          540, 530, 538, -1,
          541, 533, 531, -1,
          541, 531, 539, -1,
          542, 533, 541, -1,
          542, 538, 533, -1,
          543, 539, 534, -1,
          543, 534, 537, -1,
          543, 537, 544, -1,
          543, 544, 545, -1,
          546, 314, 306, -1,
          546, 315, 314, -1,
          546, 306, 540, -1,
          546, 540, 538, -1,
          546, 538, 542, -1,
          547, 541, 539, -1,
          547, 539, 543, -1,
          548, 541, 547, -1,
          548, 542, 541, -1,
          549, 543, 545, -1,
          549, 545, 550, -1,
          549, 550, 551, -1,
          552, 323, 315, -1,
          552, 315, 546, -1,
          552, 546, 542, -1,
          552, 542, 548, -1,
          553, 547, 543, -1,
          553, 543, 549, -1,
          553, 551, 554, -1,
          553, 554, 555, -1,
          553, 555, 556, -1,
          553, 549, 551, -1,
          557, 547, 553, -1,
          557, 548, 547, -1,
          558, 331, 323, -1,
          558, 323, 552, -1,
          558, 552, 548, -1,
          558, 548, 557, -1,
          559, 556, 560, -1,
          559, 560, 561, -1,
          559, 561, 562, -1,
          559, 553, 556, -1,
          559, 557, 553, -1,
          563, 558, 557, -1,
          563, 339, 331, -1,
          563, 257, 339, -1,
          563, 557, 559, -1,
          563, 331, 558, -1,
          564, 559, 562, -1,
          564, 257, 563, -1,
          564, 422, 257, -1,
          564, 562, 565, -1,
          564, 565, 566, -1,
          564, 566, 422, -1,
          564, 563, 559, -1,
          567, 129, 127, -1,
          567, 127, 568, -1,
          569, 568, 570, -1,
          569, 567, 568, -1,
          571, 570, 572, -1,
          571, 569, 570, -1,
          573, 572, 574, -1,
          573, 571, 572, -1,
          575, 574, 576, -1,
          575, 573, 574, -1,
          577, 576, 578, -1,
          577, 575, 576, -1,
          579, 578, 580, -1,
          579, 577, 578, -1,
          581, 580, 582, -1,
          581, 579, 580, -1,
          583, 582, 584, -1,
          583, 581, 582, -1,
          585, 584, 586, -1,
          585, 583, 584, -1,
          587, 586, 588, -1,
          587, 585, 586, -1,
          589, 588, 590, -1,
          589, 587, 588, -1,
          591, 590, 592, -1,
          591, 589, 590, -1,
          593, 592, 594, -1,
          593, 591, 592, -1,
          595, 594, 596, -1,
          595, 593, 594, -1,
          597, 596, 598, -1,
          597, 595, 596, -1,
          599, 598, 600, -1,
          599, 597, 598, -1,
          601, 600, 602, -1,
          601, 599, 600, -1,
          603, 601, 602, -1,
          603, 602, 604, -1,
          605, 603, 604, -1,
          605, 604, 606, -1,
          607, 605, 606, -1,
          607, 606, 608, -1,
          609, 607, 608, -1,
          609, 608, 610, -1,
          611, 610, 612, -1,
          611, 609, 610, -1,
          613, 612, 614, -1,
          613, 611, 612, -1,
          615, 614, 616, -1,
          615, 613, 614, -1,
          617, 616, 618, -1,
          617, 615, 616, -1,
          619, 618, 620, -1,
          619, 617, 618, -1,
          621, 620, 622, -1,
          621, 619, 620, -1,
          623, 622, 624, -1,
          623, 621, 622, -1,
          625, 624, 626, -1,
          625, 623, 624, -1,
          627, 626, 628, -1,
          627, 625, 626, -1,
          629, 628, 630, -1,
          629, 627, 628, -1,
          631, 630, 632, -1,
          631, 629, 630, -1,
          633, 632, 634, -1,
          633, 631, 632, -1,
          635, 634, 636, -1,
          635, 633, 634, -1,
          637, 636, 638, -1,
          637, 635, 636, -1,
          639, 638, 640, -1,
          639, 637, 638, -1,
          641, 640, 642, -1,
          641, 639, 640, -1,
          643, 642, 644, -1,
          643, 641, 642, -1,
          645, 644, 646, -1,
          645, 643, 644, -1,
          647, 646, 648, -1,
          647, 645, 646, -1,
          649, 648, 650, -1,
          649, 647, 648, -1,
          651, 649, 650, -1,
          651, 650, 652, -1,
          653, 651, 652, -1,
          653, 652, 654, -1,
          655, 653, 654, -1,
          655, 654, 656, -1,
          657, 655, 656, -1,
          657, 656, 658, -1,
          659, 657, 658, -1,
          659, 658, 660, -1,
          661, 659, 660, -1,
          661, 660, 662, -1,
          663, 661, 662, -1,
          663, 662, 664, -1,
          665, 663, 664, -1,
          665, 664, 666, -1,
          667, 665, 666, -1,
          667, 666, 668, -1,
          669, 667, 668, -1,
          669, 668, 670, -1,
          671, 669, 670, -1,
          671, 670, 672, -1,
          673, 671, 672, -1,
          673, 672, 674, -1,
          675, 673, 674, -1,
          675, 674, 676, -1,
          677, 675, 676, -1,
          677, 676, 678, -1,
          679, 678, 680, -1,
          679, 677, 678, -1,
          681, 680, 682, -1,
          681, 679, 680, -1,
          683, 682, 684, -1,
          683, 681, 682, -1,
          685, 684, 686, -1,
          685, 683, 684, -1,
          687, 686, 688, -1,
          687, 685, 686, -1,
          689, 688, 690, -1,
          689, 687, 688, -1,
          254, 690, 0, -1,
          254, 689, 690, -1,
          387, 254, 255, -1,
          689, 254, 387, -1,
          386, 689, 387, -1,
          687, 689, 386, -1,
          382, 687, 386, -1,
          685, 687, 382, -1,
          381, 685, 382, -1,
          683, 685, 381, -1,
          380, 683, 381, -1,
          681, 683, 380, -1,
          376, 681, 380, -1,
          679, 681, 376, -1,
          375, 679, 376, -1,
          677, 679, 375, -1,
          377, 677, 375, -1,
          675, 677, 377, -1,
          369, 675, 377, -1,
          673, 675, 369, -1,
          371, 673, 369, -1,
          671, 673, 371, -1,
          364, 671, 371, -1,
          669, 671, 364, -1,
          363, 669, 364, -1,
          667, 669, 363, -1,
          360, 667, 363, -1,
          665, 667, 360, -1,
          362, 665, 360, -1,
          663, 665, 362, -1,
          359, 663, 362, -1,
          661, 663, 359, -1,
          361, 661, 359, -1,
          659, 661, 361, -1,
          368, 659, 361, -1,
          657, 659, 368, -1,
          370, 657, 368, -1,
          655, 657, 370, -1,
          372, 655, 370, -1,
          653, 655, 372, -1,
          365, 653, 372, -1,
          651, 653, 365, -1,
          367, 651, 365, -1,
          649, 651, 367, -1,
          366, 649, 367, -1,
          647, 649, 366, -1,
          373, 647, 366, -1,
          645, 647, 373, -1,
          374, 645, 373, -1,
          643, 645, 374, -1,
          379, 643, 374, -1,
          641, 643, 379, -1,
          378, 641, 379, -1,
          639, 641, 378, -1,
          384, 639, 378, -1,
          637, 639, 384, -1,
          385, 637, 384, -1,
          635, 637, 385, -1,
          633, 385, 383, -1,
          633, 635, 385, -1,
          391, 633, 383, -1,
          631, 633, 391, -1,
          629, 391, 388, -1,
          629, 631, 391, -1,
          627, 388, 390, -1,
          627, 629, 388, -1,
          389, 627, 390, -1,
          625, 627, 389, -1,
          393, 625, 389, -1,
          623, 625, 393, -1,
          392, 623, 393, -1,
          621, 623, 392, -1,
          394, 621, 392, -1,
          619, 621, 394, -1,
          617, 394, 396, -1,
          617, 619, 394, -1,
          395, 617, 396, -1,
          615, 617, 395, -1,
          613, 395, 398, -1,
          613, 615, 395, -1,
          397, 613, 398, -1,
          611, 613, 397, -1,
          399, 611, 397, -1,
          609, 611, 399, -1,
          401, 609, 399, -1,
          607, 609, 401, -1,
          400, 607, 401, -1,
          605, 607, 400, -1,
          402, 605, 400, -1,
          603, 605, 402, -1,
          403, 603, 402, -1,
          601, 603, 403, -1,
          405, 601, 403, -1,
          599, 601, 405, -1,
          404, 599, 405, -1,
          597, 599, 404, -1,
          406, 597, 404, -1,
          595, 597, 406, -1,
          593, 406, 408, -1,
          593, 595, 406, -1,
          407, 593, 408, -1,
          591, 593, 407, -1,
          589, 407, 409, -1,
          589, 591, 407, -1,
          411, 589, 409, -1,
          587, 589, 411, -1,
          410, 587, 411, -1,
          585, 587, 410, -1,
          417, 585, 410, -1,
          583, 585, 417, -1,
          415, 583, 417, -1,
          581, 583, 415, -1,
          412, 581, 415, -1,
          579, 581, 412, -1,
          577, 412, 414, -1,
          577, 579, 412, -1,
          575, 414, 413, -1,
          575, 577, 414, -1,
          573, 413, 416, -1,
          573, 575, 413, -1,
          571, 416, 420, -1,
          571, 573, 416, -1,
          419, 571, 420, -1,
          569, 571, 419, -1,
          567, 419, 418, -1,
          567, 569, 419, -1,
          129, 418, 130, -1,
          129, 567, 418, -1,
          127, 126, 422, -1,
          568, 127, 422, -1,
          568, 422, 566, -1,
          570, 568, 566, -1,
          570, 566, 565, -1,
          572, 570, 565, -1,
          572, 565, 562, -1,
          574, 572, 562, -1,
          574, 562, 561, -1,
          576, 574, 561, -1,
          576, 561, 560, -1,
          578, 576, 560, -1,
          578, 560, 556, -1,
          580, 556, 555, -1,
          580, 578, 556, -1,
          582, 555, 554, -1,
          582, 580, 555, -1,
          584, 554, 551, -1,
          584, 582, 554, -1,
          586, 551, 550, -1,
          586, 584, 551, -1,
          588, 550, 545, -1,
          588, 586, 550, -1,
          590, 545, 544, -1,
          590, 588, 545, -1,
          592, 544, 537, -1,
          592, 590, 544, -1,
          594, 537, 536, -1,
          594, 592, 537, -1,
          596, 536, 535, -1,
          596, 594, 536, -1,
          598, 535, 526, -1,
          598, 596, 535, -1,
          600, 526, 525, -1,
          600, 598, 526, -1,
          602, 600, 525, -1,
          602, 525, 524, -1,
          604, 602, 524, -1,
          604, 524, 517, -1,
          606, 604, 517, -1,
          606, 517, 516, -1,
          608, 606, 516, -1,
          608, 516, 506, -1,
          610, 608, 506, -1,
          610, 506, 505, -1,
          612, 610, 505, -1,
          612, 505, 504, -1,
          614, 612, 504, -1,
          614, 504, 496, -1,
          616, 614, 496, -1,
          616, 496, 495, -1,
          618, 616, 495, -1,
          618, 495, 494, -1,
          620, 494, 486, -1,
          620, 618, 494, -1,
          622, 486, 485, -1,
          622, 620, 486, -1,
          624, 485, 477, -1,
          624, 622, 485, -1,
          626, 477, 476, -1,
          626, 624, 477, -1,
          628, 476, 475, -1,
          628, 626, 476, -1,
          630, 475, 467, -1,
          630, 628, 475, -1,
          632, 467, 466, -1,
          632, 630, 467, -1,
          634, 632, 466, -1,
          636, 466, 453, -1,
          636, 634, 466, -1,
          638, 452, 451, -1,
          638, 453, 452, -1,
          638, 636, 453, -1,
          640, 451, 440, -1,
          640, 638, 451, -1,
          642, 440, 439, -1,
          642, 640, 440, -1,
          644, 439, 438, -1,
          644, 642, 439, -1,
          646, 438, 437, -1,
          646, 644, 438, -1,
          648, 437, 444, -1,
          648, 646, 437, -1,
          650, 444, 431, -1,
          650, 648, 444, -1,
          652, 650, 431, -1,
          652, 431, 430, -1,
          654, 652, 430, -1,
          656, 654, 430, -1,
          656, 429, 428, -1,
          656, 430, 429, -1,
          658, 656, 428, -1,
          658, 428, 435, -1,
          660, 435, 434, -1,
          660, 658, 435, -1,
          662, 434, 433, -1,
          662, 660, 434, -1,
          664, 433, 442, -1,
          664, 662, 433, -1,
          666, 442, 426, -1,
          666, 664, 442, -1,
          668, 426, 425, -1,
          668, 666, 426, -1,
          670, 668, 425, -1,
          672, 424, 448, -1,
          672, 425, 424, -1,
          672, 670, 425, -1,
          674, 672, 448, -1,
          676, 448, 447, -1,
          676, 674, 448, -1,
          678, 446, 457, -1,
          678, 447, 446, -1,
          678, 676, 447, -1,
          680, 457, 456, -1,
          680, 678, 457, -1,
          682, 456, 455, -1,
          682, 680, 456, -1,
          684, 455, 462, -1,
          684, 682, 455, -1,
          686, 684, 462, -1,
          688, 461, 421, -1,
          688, 462, 461, -1,
          688, 686, 462, -1,
          690, 688, 421, -1,
          0, 421, 1, -1,
          0, 690, 421, -1
        ]
      }
    }
}
