#VRML V2.0 utf8
WorldInfo {
  title "Exported triangle mesh to VRML97"
  info ["Created by FreeCAD"
        "<https://www.freecad.org>"]
}

Transform {
  scale 1 1 1
  rotation 0 0 1 0
  scaleOrientation 0 0 1 0
  center 0.000 0.000 0.000
  translation 0.000 0.000 0.000
  children
    Shape { 
      appearance
      Appearance {
        material
        Material {
          diffuseColor 0.8 0.8 0.8
        }
      }
      geometry
      IndexedFaceSet {
        coord
        Coordinate {
          point [
            -29.812 30.796 2.458,
            -29.186 33.256 1.900,
            -29.812 33.271 1.900,
            -28.562 33.209 1.900,
            -27.940 33.131 1.900,
            -29.186 8.170 1.900,
            -29.812 10.629 2.458,
            -29.812 8.154 1.900,
            -28.562 8.216 1.900,
            -27.940 8.294 1.900,
            -26.643 31.707 2.167,
            -27.324 33.022 1.900,
            -26.713 32.883 1.900,
            -26.110 32.713 1.900,
            -25.517 32.514 1.900,
            -24.934 32.285 1.900,
            -24.363 32.027 1.900,
            -26.643 28.595 2.749,
            -29.812 28.297 2.893,
            -23.487 30.102 2.195,
            -23.806 31.742 1.900,
            -23.263 31.429 1.900,
            -22.737 31.089 1.900,
            -22.229 30.723 1.900,
            -21.739 30.333 1.900,
            -21.270 29.919 1.900,
            -26.643 25.454 3.138,
            -29.812 25.779 3.205,
            -29.812 23.249 3.392,
            -23.487 26.992 2.677,
            -20.822 29.481 1.900,
            -26.643 22.295 3.333,
            -29.812 20.713 3.455,
            -20.354 28.476 1.980,
            -20.396 29.022 1.900,
            -19.993 28.543 1.900,
            -19.615 28.044 1.900,
            -23.487 23.858 2.968,
            -26.643 19.130 3.333,
            -29.812 18.176 3.392,
            -20.354 25.382 2.363,
            -19.262 27.526 1.900,
            -18.936 26.992 1.900,
            -18.636 26.442 1.900,
            -18.365 25.878 1.900,
            -18.121 25.301 1.900,
            -17.907 24.712 1.900,
            -17.723 24.114 1.900,
            -23.487 20.713 3.065,
            -26.643 15.971 3.138,
            -29.812 15.646 3.205,
            -29.812 13.128 2.893,
            -20.354 22.271 2.555,
            -17.568 23.507 1.900,
            -17.444 22.893 1.900,
            -17.351 22.274 1.900,
            -17.288 21.651 1.900,
            -17.257 21.026 1.900,
            -17.257 20.399 1.900,
            -23.487 17.567 2.968,
            -26.643 12.830 2.749,
            -20.354 19.154 2.555,
            -17.288 19.774 1.900,
            -17.351 19.151 1.900,
            -17.444 18.532 1.900,
            -17.568 17.918 1.900,
            -17.723 17.311 1.900,
            -23.487 14.433 2.677,
            -21.270 11.506 1.900,
            -20.822 11.944 1.900,
            -26.643 9.719 2.167,
            -24.934 9.140 1.900,
            -24.363 9.398 1.900,
            -25.517 8.911 1.900,
            -26.110 8.712 1.900,
            -26.713 8.542 1.900,
            -27.324 8.403 1.900,
            -20.354 16.043 2.363,
            -17.907 16.713 1.900,
            -18.121 16.124 1.900,
            -18.365 15.547 1.900,
            -18.636 14.983 1.900,
            -18.936 14.433 1.900,
            -19.262 13.899 1.900,
            -19.615 13.382 1.900,
            -23.487 11.323 2.195,
            -21.739 11.092 1.900,
            -22.229 10.702 1.900,
            -22.737 10.336 1.900,
            -23.263 9.996 1.900,
            -23.806 9.683 1.900,
            -20.354 12.949 1.980,
            -19.993 12.882 1.900,
            -20.396 12.403 1.900,
            -29.812 33.413 1.758,
            -29.179 33.397 1.758,
            -28.547 33.349 1.758,
            -27.919 33.271 1.758,
            -27.295 33.161 1.758,
            -26.678 33.020 1.758,
            -26.069 32.848 1.758,
            -25.468 32.647 1.758,
            -24.879 32.415 1.758,
            -24.302 32.155 1.758,
            -23.738 31.866 1.758,
            -23.190 31.549 1.758,
            -22.658 31.206 1.758,
            -22.144 30.836 1.758,
            -21.649 30.441 1.758,
            -21.174 30.022 1.758,
            -20.720 29.580 1.758,
            -20.290 29.116 1.758,
            -19.883 28.631 1.758,
            -19.500 28.126 1.758,
            -19.144 27.603 1.758,
            -18.813 27.063 1.758,
            -18.511 26.506 1.758,
            -18.236 25.936 1.758,
            -17.990 25.352 1.758,
            -17.773 24.757 1.758,
            -17.587 24.152 1.758,
            -17.430 23.539 1.758,
            -17.305 22.918 1.758,
            -17.211 22.292 1.758,
            -17.147 21.662 1.758,
            -17.116 21.029 1.758,
            -17.116 20.396 1.758,
            -17.147 19.764 1.758,
            -17.211 19.133 1.758,
            -17.305 18.507 1.758,
            -17.430 17.887 1.758,
            -17.587 17.273 1.758,
            -17.773 16.668 1.758,
            -17.990 16.073 1.758,
            -18.236 15.489 1.758,
            -18.511 14.919 1.758,
            -18.813 14.363 1.758,
            -19.144 13.822 1.758,
            -19.500 13.299 1.758,
            -19.883 12.794 1.758,
            -20.290 12.309 1.758,
            -20.720 11.845 1.758,
            -21.174 11.403 1.758,
            -21.649 10.984 1.758,
            -22.144 10.589 1.758,
            -22.658 10.219 1.758,
            -23.190 9.876 1.758,
            -23.738 9.559 1.758,
            -24.302 9.270 1.758,
            -24.879 9.010 1.758,
            -25.468 8.778 1.758,
            -26.069 8.577 1.758,
            -26.678 8.405 1.758,
            -27.295 8.264 1.758,
            -27.919 8.154 1.758,
            -28.547 8.076 1.758,
            -29.179 8.028 1.758,
            -29.812 8.013 1.758,
            -29.179 33.397 0.006,
            -29.812 33.413 0.006,
            -28.547 33.349 0.006,
            -27.919 33.271 0.006,
            -27.295 33.161 0.006,
            -26.678 33.020 0.006,
            -26.069 32.848 0.006,
            -25.468 32.647 0.006,
            -24.879 32.415 0.006,
            -24.302 32.155 0.006,
            -23.738 31.866 0.006,
            -23.190 31.549 0.006,
            -22.658 31.206 0.006,
            -22.144 30.836 0.006,
            -21.649 30.441 0.006,
            -21.174 30.022 0.006,
            -20.720 29.580 0.006,
            -20.290 29.116 0.006,
            -19.883 28.631 0.006,
            -19.500 28.126 0.006,
            -19.144 27.603 0.006,
            -18.813 27.063 0.006,
            -18.511 26.506 0.006,
            -18.236 25.936 0.006,
            -17.990 25.352 0.006,
            -17.773 24.757 0.006,
            -17.587 24.152 0.006,
            -17.430 23.539 0.006,
            -17.305 22.918 0.006,
            -17.211 22.292 0.006,
            -17.147 21.662 0.006,
            -17.116 21.029 0.006,
            -17.116 20.396 0.006,
            -17.147 19.764 0.006,
            -17.211 19.133 0.006,
            -17.305 18.507 0.006,
            -17.430 17.887 0.006,
            -17.587 17.273 0.006,
            -17.773 16.668 0.006,
            -17.990 16.073 0.006,
            -18.236 15.489 0.006,
            -18.511 14.919 0.006,
            -18.813 14.363 0.006,
            -19.144 13.822 0.006,
            -19.500 13.299 0.006,
            -19.883 12.794 0.006,
            -20.290 12.309 0.006,
            -20.720 11.845 0.006,
            -21.174 11.403 0.006,
            -21.649 10.984 0.006,
            -22.144 10.589 0.006,
            -22.658 10.219 0.006,
            -23.190 9.876 0.006,
            -23.738 9.559 0.006,
            -24.302 9.270 0.006,
            -24.879 9.010 0.006,
            -25.468 8.778 0.006,
            -26.069 8.577 0.006,
            -26.678 8.405 0.006,
            -27.295 8.264 0.006,
            -27.919 8.154 0.006,
            -28.547 8.076 0.006,
            -29.179 8.028 0.006,
            -29.812 8.013 0.006,
            -29.186 8.170 -0.135,
            -29.812 8.154 -0.135,
            -28.562 8.216 -0.135,
            -27.940 8.294 -0.135,
            -27.324 8.403 -0.135,
            -26.713 8.542 -0.135,
            -26.110 8.712 -0.135,
            -25.517 8.911 -0.135,
            -24.934 9.140 -0.135,
            -24.363 9.398 -0.135,
            -23.806 9.683 -0.135,
            -23.263 9.996 -0.135,
            -22.737 10.336 -0.135,
            -22.229 10.702 -0.135,
            -21.739 11.092 -0.135,
            -21.270 11.506 -0.135,
            -20.822 11.944 -0.135,
            -20.396 12.403 -0.135,
            -19.993 12.882 -0.135,
            -19.615 13.382 -0.135,
            -19.262 13.899 -0.135,
            -18.936 14.433 -0.135,
            -18.636 14.983 -0.135,
            -18.365 15.547 -0.135,
            -18.121 16.124 -0.135,
            -17.907 16.713 -0.135,
            -17.723 17.311 -0.135,
            -17.568 17.918 -0.135,
            -17.444 18.532 -0.135,
            -17.351 19.151 -0.135,
            -17.288 19.774 -0.135,
            -17.257 20.399 -0.135,
            -17.257 21.026 -0.135,
            -17.288 21.651 -0.135,
            -17.351 22.274 -0.135,
            -17.444 22.893 -0.135,
            -17.568 23.507 -0.135,
            -17.723 24.114 -0.135,
            -17.907 24.712 -0.135,
            -18.121 25.301 -0.135,
            -18.365 25.878 -0.135,
            -18.636 26.442 -0.135,
            -18.936 26.992 -0.135,
            -19.262 27.526 -0.135,
            -19.615 28.044 -0.135,
            -19.993 28.543 -0.135,
            -20.396 29.022 -0.135,
            -20.822 29.481 -0.135,
            -21.270 29.919 -0.135,
            -21.739 30.333 -0.135,
            -22.229 30.723 -0.135,
            -22.737 31.089 -0.135,
            -23.263 31.429 -0.135,
            -23.806 31.742 -0.135,
            -24.363 32.027 -0.135,
            -24.934 32.285 -0.135,
            -25.517 32.514 -0.135,
            -26.110 32.713 -0.135,
            -26.713 32.883 -0.135,
            -27.324 33.022 -0.135,
            -27.940 33.131 -0.135,
            -28.562 33.209 -0.135,
            -29.186 33.256 -0.135,
            -29.812 33.271 -0.135,
            -39.631 12.882 -0.135,
            -38.802 11.944 -0.135,
            -39.228 12.403 -0.135,
            -37.395 10.702 -0.135,
            -37.884 11.092 -0.135,
            -38.354 11.506 -0.135,
            -36.886 10.336 -0.135,
            -36.360 9.996 -0.135,
            -41.259 15.547 -0.135,
            -40.009 13.382 -0.135,
            -40.361 13.899 -0.135,
            -40.688 14.433 -0.135,
            -40.987 14.983 -0.135,
            -34.107 8.911 -0.135,
            -34.690 9.140 -0.135,
            -35.261 9.398 -0.135,
            -35.818 9.683 -0.135,
            -32.911 8.542 -0.135,
            -33.514 8.712 -0.135,
            -42.056 17.918 -0.135,
            -41.502 16.124 -0.135,
            -41.717 16.713 -0.135,
            -41.901 17.311 -0.135,
            -30.438 8.170 -0.135,
            -31.062 8.216 -0.135,
            -31.684 8.294 -0.135,
            -32.300 8.403 -0.135,
            -42.180 22.893 -0.135,
            -42.335 19.774 -0.135,
            -42.367 20.399 -0.135,
            -42.367 21.026 -0.135,
            -42.335 21.651 -0.135,
            -42.273 22.274 -0.135,
            -42.056 23.507 -0.135,
            -42.180 18.532 -0.135,
            -42.273 19.151 -0.135,
            -41.717 24.712 -0.135,
            -41.901 24.114 -0.135,
            -41.502 25.301 -0.135,
            -40.987 26.442 -0.135,
            -41.259 25.878 -0.135,
            -40.009 28.044 -0.135,
            -40.688 26.992 -0.135,
            -40.361 27.526 -0.135,
            -38.354 29.919 -0.135,
            -39.631 28.543 -0.135,
            -39.228 29.022 -0.135,
            -38.802 29.481 -0.135,
            -36.886 31.089 -0.135,
            -37.884 30.333 -0.135,
            -37.395 30.723 -0.135,
            -36.360 31.429 -0.135,
            -34.690 32.285 -0.135,
            -35.818 31.742 -0.135,
            -35.261 32.027 -0.135,
            -34.107 32.514 -0.135,
            -32.911 32.883 -0.135,
            -33.514 32.713 -0.135,
            -30.438 33.256 -0.135,
            -32.300 33.022 -0.135,
            -31.684 33.131 -0.135,
            -31.062 33.209 -0.135,
            -30.445 33.397 0.006,
            -31.076 33.349 0.006,
            -31.705 33.271 0.006,
            -32.328 33.161 0.006,
            -32.946 33.020 0.006,
            -33.555 32.848 0.006,
            -34.156 32.647 0.006,
            -34.745 32.415 0.006,
            -35.322 32.155 0.006,
            -35.886 31.866 0.006,
            -36.434 31.549 0.006,
            -36.966 31.206 0.006,
            -37.480 30.836 0.006,
            -37.975 30.441 0.006,
            -38.450 30.022 0.006,
            -38.903 29.580 0.006,
            -39.334 29.116 0.006,
            -39.741 28.631 0.006,
            -40.124 28.126 0.006,
            -40.480 27.603 0.006,
            -40.810 27.063 0.006,
            -41.113 26.506 0.006,
            -41.388 25.936 0.006,
            -41.634 25.352 0.006,
            -41.851 24.757 0.006,
            -42.037 24.152 0.006,
            -42.194 23.539 0.006,
            -42.319 22.918 0.006,
            -42.413 22.292 0.006,
            -42.476 21.662 0.006,
            -42.508 21.029 0.006,
            -42.508 20.396 0.006,
            -42.476 19.764 0.006,
            -42.413 19.133 0.006,
            -42.319 18.507 0.006,
            -42.194 17.887 0.006,
            -42.037 17.273 0.006,
            -41.851 16.668 0.006,
            -41.634 16.073 0.006,
            -41.388 15.489 0.006,
            -41.113 14.919 0.006,
            -40.810 14.363 0.006,
            -40.480 13.822 0.006,
            -40.124 13.299 0.006,
            -39.741 12.794 0.006,
            -39.334 12.309 0.006,
            -38.903 11.845 0.006,
            -38.450 11.403 0.006,
            -37.975 10.984 0.006,
            -37.480 10.589 0.006,
            -36.966 10.219 0.006,
            -36.434 9.876 0.006,
            -35.886 9.559 0.006,
            -35.322 9.270 0.006,
            -34.745 9.010 0.006,
            -34.156 8.778 0.006,
            -33.555 8.577 0.006,
            -32.946 8.405 0.006,
            -32.328 8.264 0.006,
            -31.705 8.154 0.006,
            -31.076 8.076 0.006,
            -30.445 8.028 0.006,
            -30.445 8.028 1.758,
            -31.076 8.076 1.758,
            -31.705 8.154 1.758,
            -32.328 8.264 1.758,
            -32.946 8.405 1.758,
            -33.555 8.577 1.758,
            -34.156 8.778 1.758,
            -34.745 9.010 1.758,
            -35.322 9.270 1.758,
            -35.886 9.559 1.758,
            -36.434 9.876 1.758,
            -36.966 10.219 1.758,
            -37.480 10.589 1.758,
            -37.975 10.984 1.758,
            -38.450 11.403 1.758,
            -38.903 11.845 1.758,
            -39.334 12.309 1.758,
            -39.741 12.794 1.758,
            -40.124 13.299 1.758,
            -40.480 13.822 1.758,
            -40.810 14.363 1.758,
            -41.113 14.919 1.758,
            -41.388 15.489 1.758,
            -41.634 16.073 1.758,
            -41.851 16.668 1.758,
            -42.037 17.273 1.758,
            -42.194 17.887 1.758,
            -42.319 18.507 1.758,
            -42.413 19.133 1.758,
            -42.476 19.764 1.758,
            -42.508 20.396 1.758,
            -42.508 21.029 1.758,
            -42.476 21.662 1.758,
            -42.413 22.292 1.758,
            -42.319 22.918 1.758,
            -42.194 23.539 1.758,
            -42.037 24.152 1.758,
            -41.851 24.757 1.758,
            -41.634 25.352 1.758,
            -41.388 25.936 1.758,
            -41.113 26.506 1.758,
            -40.810 27.063 1.758,
            -40.480 27.603 1.758,
            -40.124 28.126 1.758,
            -39.741 28.631 1.758,
            -39.334 29.116 1.758,
            -38.903 29.580 1.758,
            -38.450 30.022 1.758,
            -37.975 30.441 1.758,
            -37.480 30.836 1.758,
            -36.966 31.206 1.758,
            -36.434 31.549 1.758,
            -35.886 31.866 1.758,
            -35.322 32.155 1.758,
            -34.745 32.415 1.758,
            -34.156 32.647 1.758,
            -33.555 32.848 1.758,
            -32.946 33.020 1.758,
            -32.328 33.161 1.758,
            -31.705 33.271 1.758,
            -31.076 33.349 1.758,
            -30.445 33.397 1.758,
            -30.438 8.170 1.900,
            -31.062 8.216 1.900,
            -31.684 8.294 1.900,
            -32.300 8.403 1.900,
            -32.911 8.542 1.900,
            -33.514 8.712 1.900,
            -34.107 8.911 1.900,
            -34.690 9.140 1.900,
            -35.261 9.398 1.900,
            -35.818 9.683 1.900,
            -36.360 9.996 1.900,
            -36.886 10.336 1.900,
            -37.395 10.702 1.900,
            -37.884 11.092 1.900,
            -38.354 11.506 1.900,
            -38.802 11.944 1.900,
            -39.228 12.403 1.900,
            -39.631 12.882 1.900,
            -40.009 13.382 1.900,
            -40.361 13.899 1.900,
            -40.688 14.433 1.900,
            -40.987 14.983 1.900,
            -41.259 15.547 1.900,
            -41.502 16.124 1.900,
            -41.717 16.713 1.900,
            -41.901 17.311 1.900,
            -42.056 17.918 1.900,
            -42.180 18.532 1.900,
            -42.273 19.151 1.900,
            -42.335 19.774 1.900,
            -42.367 20.399 1.900,
            -42.367 21.026 1.900,
            -42.335 21.651 1.900,
            -42.273 22.274 1.900,
            -42.180 22.893 1.900,
            -42.056 23.507 1.900,
            -41.901 24.114 1.900,
            -41.717 24.712 1.900,
            -41.502 25.301 1.900,
            -41.259 25.878 1.900,
            -40.987 26.442 1.900,
            -40.688 26.992 1.900,
            -40.361 27.526 1.900,
            -40.009 28.044 1.900,
            -39.631 28.543 1.900,
            -39.228 29.022 1.900,
            -38.802 29.481 1.900,
            -38.354 29.919 1.900,
            -37.884 30.333 1.900,
            -37.395 30.723 1.900,
            -36.886 31.089 1.900,
            -36.360 31.429 1.900,
            -35.818 31.742 1.900,
            -35.261 32.027 1.900,
            -34.690 32.285 1.900,
            -34.107 32.514 1.900,
            -33.514 32.713 1.900,
            -32.911 32.883 1.900,
            -32.300 33.022 1.900,
            -31.684 33.131 1.900,
            -31.062 33.209 1.900,
            -30.438 33.256 1.900,
            -39.270 28.476 1.980,
            -36.137 30.102 2.195,
            -39.270 25.382 2.363,
            -32.981 31.707 2.167,
            -36.137 26.992 2.677,
            -39.270 22.271 2.555,
            -32.981 28.595 2.749,
            -36.137 23.858 2.968,
            -39.270 19.154 2.555,
            -32.981 25.454 3.138,
            -36.137 20.713 3.065,
            -39.270 16.043 2.363,
            -32.981 22.295 3.333,
            -36.137 17.567 2.968,
            -39.270 12.949 1.980,
            -32.981 19.130 3.333,
            -36.137 14.433 2.677,
            -32.981 15.971 3.138,
            -36.137 11.323 2.195,
            -32.981 12.830 2.749,
            -32.981 9.719 2.167
          ]
        }
        coordIndex [
          0, 1, 2, -1,
          0, 3, 1, -1,
          0, 4, 3, -1,
          5, 6, 7, -1,
          8, 6, 5, -1,
          9, 6, 8, -1,
          10, 11, 4, -1,
          10, 12, 11, -1,
          10, 13, 12, -1,
          10, 14, 13, -1,
          10, 15, 14, -1,
          10, 16, 15, -1,
          10, 4, 0, -1,
          17, 0, 18, -1,
          17, 10, 0, -1,
          19, 20, 16, -1,
          19, 21, 20, -1,
          19, 22, 21, -1,
          19, 23, 22, -1,
          19, 24, 23, -1,
          19, 25, 24, -1,
          19, 10, 17, -1,
          19, 16, 10, -1,
          26, 27, 28, -1,
          26, 18, 27, -1,
          26, 17, 18, -1,
          29, 30, 25, -1,
          29, 19, 17, -1,
          29, 17, 26, -1,
          29, 25, 19, -1,
          31, 28, 32, -1,
          31, 26, 28, -1,
          33, 34, 30, -1,
          33, 35, 34, -1,
          33, 36, 35, -1,
          33, 30, 29, -1,
          37, 26, 31, -1,
          37, 29, 26, -1,
          38, 32, 39, -1,
          38, 31, 32, -1,
          40, 33, 29, -1,
          40, 41, 36, -1,
          40, 42, 41, -1,
          40, 43, 42, -1,
          40, 29, 37, -1,
          40, 44, 43, -1,
          40, 45, 44, -1,
          40, 46, 45, -1,
          40, 47, 46, -1,
          40, 36, 33, -1,
          48, 31, 38, -1,
          48, 37, 31, -1,
          49, 39, 50, -1,
          49, 50, 51, -1,
          49, 38, 39, -1,
          52, 37, 48, -1,
          52, 53, 47, -1,
          52, 54, 53, -1,
          52, 55, 54, -1,
          52, 40, 37, -1,
          52, 56, 55, -1,
          52, 57, 56, -1,
          52, 58, 57, -1,
          52, 47, 40, -1,
          59, 38, 49, -1,
          59, 48, 38, -1,
          60, 51, 6, -1,
          60, 49, 51, -1,
          61, 58, 52, -1,
          61, 62, 58, -1,
          61, 63, 62, -1,
          61, 64, 63, -1,
          61, 65, 64, -1,
          61, 66, 65, -1,
          61, 52, 48, -1,
          61, 48, 59, -1,
          67, 49, 60, -1,
          67, 68, 69, -1,
          67, 59, 49, -1,
          70, 71, 72, -1,
          70, 73, 71, -1,
          70, 74, 73, -1,
          70, 75, 74, -1,
          70, 6, 9, -1,
          70, 76, 75, -1,
          70, 9, 76, -1,
          70, 60, 6, -1,
          77, 66, 61, -1,
          77, 78, 66, -1,
          77, 79, 78, -1,
          77, 80, 79, -1,
          77, 81, 80, -1,
          77, 82, 81, -1,
          77, 83, 82, -1,
          77, 84, 83, -1,
          77, 61, 59, -1,
          77, 59, 67, -1,
          85, 70, 72, -1,
          85, 68, 67, -1,
          85, 86, 68, -1,
          85, 87, 86, -1,
          85, 88, 87, -1,
          85, 89, 88, -1,
          85, 90, 89, -1,
          85, 72, 90, -1,
          85, 67, 60, -1,
          85, 60, 70, -1,
          91, 84, 77, -1,
          91, 67, 69, -1,
          91, 77, 67, -1,
          91, 92, 84, -1,
          91, 93, 92, -1,
          91, 69, 93, -1,
          1, 94, 2, -1,
          95, 94, 1, -1,
          96, 1, 3, -1,
          96, 95, 1, -1,
          97, 3, 4, -1,
          97, 96, 3, -1,
          11, 97, 4, -1,
          98, 97, 11, -1,
          99, 11, 12, -1,
          99, 98, 11, -1,
          100, 12, 13, -1,
          100, 99, 12, -1,
          101, 13, 14, -1,
          101, 100, 13, -1,
          102, 14, 15, -1,
          102, 101, 14, -1,
          103, 15, 16, -1,
          103, 102, 15, -1,
          104, 16, 20, -1,
          104, 103, 16, -1,
          105, 20, 21, -1,
          105, 104, 20, -1,
          106, 21, 22, -1,
          106, 105, 21, -1,
          107, 22, 23, -1,
          107, 106, 22, -1,
          108, 23, 24, -1,
          108, 107, 23, -1,
          109, 24, 25, -1,
          109, 108, 24, -1,
          110, 25, 30, -1,
          110, 109, 25, -1,
          111, 30, 34, -1,
          111, 110, 30, -1,
          112, 34, 35, -1,
          112, 111, 34, -1,
          113, 112, 35, -1,
          113, 35, 36, -1,
          114, 113, 36, -1,
          114, 36, 41, -1,
          115, 114, 41, -1,
          115, 41, 42, -1,
          116, 115, 42, -1,
          116, 42, 43, -1,
          117, 116, 43, -1,
          117, 43, 44, -1,
          45, 117, 44, -1,
          118, 117, 45, -1,
          119, 45, 46, -1,
          119, 118, 45, -1,
          120, 46, 47, -1,
          120, 119, 46, -1,
          121, 47, 53, -1,
          121, 120, 47, -1,
          122, 53, 54, -1,
          122, 121, 53, -1,
          123, 54, 55, -1,
          123, 122, 54, -1,
          124, 55, 56, -1,
          124, 123, 55, -1,
          125, 56, 57, -1,
          125, 124, 56, -1,
          126, 57, 58, -1,
          126, 125, 57, -1,
          127, 58, 62, -1,
          127, 126, 58, -1,
          128, 62, 63, -1,
          128, 127, 62, -1,
          129, 63, 64, -1,
          129, 128, 63, -1,
          130, 64, 65, -1,
          130, 129, 64, -1,
          66, 130, 65, -1,
          131, 130, 66, -1,
          78, 131, 66, -1,
          132, 131, 78, -1,
          133, 78, 79, -1,
          133, 132, 78, -1,
          134, 79, 80, -1,
          134, 133, 79, -1,
          135, 80, 81, -1,
          135, 134, 80, -1,
          136, 81, 82, -1,
          136, 135, 81, -1,
          83, 136, 82, -1,
          137, 136, 83, -1,
          138, 137, 83, -1,
          138, 83, 84, -1,
          92, 138, 84, -1,
          139, 138, 92, -1,
          93, 139, 92, -1,
          140, 139, 93, -1,
          69, 140, 93, -1,
          141, 140, 69, -1,
          68, 141, 69, -1,
          142, 141, 68, -1,
          143, 142, 68, -1,
          143, 68, 86, -1,
          144, 143, 86, -1,
          144, 86, 87, -1,
          88, 144, 87, -1,
          145, 144, 88, -1,
          89, 145, 88, -1,
          146, 145, 89, -1,
          147, 146, 89, -1,
          147, 89, 90, -1,
          72, 147, 90, -1,
          148, 147, 72, -1,
          71, 148, 72, -1,
          149, 148, 71, -1,
          150, 149, 71, -1,
          150, 71, 73, -1,
          74, 150, 73, -1,
          151, 150, 74, -1,
          152, 74, 75, -1,
          152, 151, 74, -1,
          76, 152, 75, -1,
          153, 152, 76, -1,
          9, 153, 76, -1,
          154, 153, 9, -1,
          8, 154, 9, -1,
          155, 154, 8, -1,
          156, 8, 5, -1,
          156, 155, 8, -1,
          7, 156, 5, -1,
          157, 156, 7, -1,
          158, 94, 95, -1,
          158, 159, 94, -1,
          160, 95, 96, -1,
          160, 158, 95, -1,
          161, 96, 97, -1,
          161, 160, 96, -1,
          162, 97, 98, -1,
          162, 161, 97, -1,
          163, 98, 99, -1,
          163, 99, 100, -1,
          163, 162, 98, -1,
          164, 100, 101, -1,
          164, 163, 100, -1,
          165, 164, 101, -1,
          166, 101, 102, -1,
          166, 165, 101, -1,
          167, 102, 103, -1,
          167, 166, 102, -1,
          168, 103, 104, -1,
          168, 167, 103, -1,
          169, 104, 105, -1,
          169, 105, 106, -1,
          169, 168, 104, -1,
          170, 169, 106, -1,
          171, 106, 107, -1,
          171, 170, 106, -1,
          172, 107, 108, -1,
          172, 171, 107, -1,
          173, 108, 109, -1,
          173, 172, 108, -1,
          174, 109, 110, -1,
          174, 173, 109, -1,
          175, 110, 111, -1,
          175, 174, 110, -1,
          176, 111, 112, -1,
          176, 175, 111, -1,
          177, 176, 112, -1,
          177, 112, 113, -1,
          178, 177, 113, -1,
          178, 113, 114, -1,
          179, 178, 114, -1,
          179, 114, 115, -1,
          179, 115, 116, -1,
          180, 179, 116, -1,
          181, 116, 117, -1,
          181, 180, 116, -1,
          182, 117, 118, -1,
          182, 181, 117, -1,
          183, 118, 119, -1,
          183, 182, 118, -1,
          184, 119, 120, -1,
          184, 183, 119, -1,
          185, 120, 121, -1,
          185, 121, 122, -1,
          185, 184, 120, -1,
          186, 122, 123, -1,
          186, 185, 122, -1,
          187, 186, 123, -1,
          188, 123, 124, -1,
          188, 124, 125, -1,
          188, 187, 123, -1,
          189, 125, 126, -1,
          189, 188, 125, -1,
          190, 126, 127, -1,
          190, 189, 126, -1,
          191, 190, 127, -1,
          192, 127, 128, -1,
          192, 128, 129, -1,
          192, 191, 127, -1,
          193, 129, 130, -1,
          193, 192, 129, -1,
          194, 193, 130, -1,
          195, 130, 131, -1,
          195, 131, 132, -1,
          195, 194, 130, -1,
          196, 195, 132, -1,
          197, 132, 133, -1,
          197, 133, 134, -1,
          197, 196, 132, -1,
          198, 197, 134, -1,
          199, 134, 135, -1,
          199, 198, 134, -1,
          200, 135, 136, -1,
          200, 136, 137, -1,
          200, 199, 135, -1,
          201, 200, 137, -1,
          202, 201, 137, -1,
          202, 137, 138, -1,
          202, 138, 139, -1,
          203, 202, 139, -1,
          204, 203, 139, -1,
          204, 139, 140, -1,
          205, 204, 140, -1,
          205, 140, 141, -1,
          206, 205, 141, -1,
          206, 141, 142, -1,
          206, 142, 143, -1,
          207, 206, 143, -1,
          208, 207, 143, -1,
          208, 143, 144, -1,
          209, 208, 144, -1,
          209, 144, 145, -1,
          210, 209, 145, -1,
          210, 145, 146, -1,
          211, 210, 146, -1,
          211, 146, 147, -1,
          212, 211, 147, -1,
          212, 147, 148, -1,
          213, 212, 148, -1,
          213, 148, 149, -1,
          214, 149, 150, -1,
          214, 213, 149, -1,
          215, 150, 151, -1,
          215, 214, 150, -1,
          216, 151, 152, -1,
          216, 215, 151, -1,
          217, 152, 153, -1,
          217, 216, 152, -1,
          218, 153, 154, -1,
          218, 217, 153, -1,
          219, 154, 155, -1,
          219, 218, 154, -1,
          220, 155, 156, -1,
          220, 219, 155, -1,
          221, 156, 157, -1,
          221, 220, 156, -1,
          222, 221, 223, -1,
          220, 221, 222, -1,
          219, 220, 222, -1,
          219, 222, 224, -1,
          218, 219, 224, -1,
          218, 224, 225, -1,
          217, 218, 225, -1,
          217, 225, 226, -1,
          216, 217, 226, -1,
          216, 226, 227, -1,
          215, 216, 227, -1,
          215, 227, 228, -1,
          214, 228, 229, -1,
          214, 215, 228, -1,
          213, 229, 230, -1,
          213, 214, 229, -1,
          212, 230, 231, -1,
          212, 213, 230, -1,
          211, 231, 232, -1,
          211, 212, 231, -1,
          210, 232, 233, -1,
          210, 211, 232, -1,
          209, 233, 234, -1,
          209, 210, 233, -1,
          208, 234, 235, -1,
          208, 209, 234, -1,
          207, 235, 236, -1,
          207, 208, 235, -1,
          237, 207, 236, -1,
          206, 207, 237, -1,
          238, 206, 237, -1,
          205, 206, 238, -1,
          204, 238, 239, -1,
          204, 205, 238, -1,
          203, 204, 239, -1,
          203, 239, 240, -1,
          241, 203, 240, -1,
          202, 203, 241, -1,
          242, 202, 241, -1,
          201, 202, 242, -1,
          200, 201, 242, -1,
          200, 242, 243, -1,
          244, 200, 243, -1,
          199, 200, 244, -1,
          198, 199, 244, -1,
          198, 244, 245, -1,
          197, 198, 245, -1,
          197, 245, 246, -1,
          196, 197, 246, -1,
          196, 246, 247, -1,
          248, 196, 247, -1,
          195, 196, 248, -1,
          194, 248, 249, -1,
          194, 195, 248, -1,
          193, 249, 250, -1,
          193, 194, 249, -1,
          192, 250, 251, -1,
          192, 193, 250, -1,
          191, 251, 252, -1,
          191, 192, 251, -1,
          190, 252, 253, -1,
          190, 191, 252, -1,
          189, 253, 254, -1,
          189, 190, 253, -1,
          188, 254, 255, -1,
          188, 189, 254, -1,
          256, 188, 255, -1,
          187, 188, 256, -1,
          186, 256, 257, -1,
          186, 187, 256, -1,
          185, 257, 258, -1,
          185, 186, 257, -1,
          259, 185, 258, -1,
          184, 185, 259, -1,
          183, 259, 260, -1,
          183, 184, 259, -1,
          261, 183, 260, -1,
          182, 183, 261, -1,
          262, 182, 261, -1,
          181, 182, 262, -1,
          180, 262, 263, -1,
          180, 181, 262, -1,
          179, 263, 264, -1,
          179, 180, 263, -1,
          178, 264, 265, -1,
          178, 179, 264, -1,
          266, 178, 265, -1,
          177, 178, 266, -1,
          176, 177, 266, -1,
          176, 266, 267, -1,
          268, 176, 267, -1,
          175, 176, 268, -1,
          269, 175, 268, -1,
          174, 175, 269, -1,
          270, 174, 269, -1,
          173, 174, 270, -1,
          271, 173, 270, -1,
          172, 173, 271, -1,
          171, 271, 272, -1,
          171, 172, 271, -1,
          273, 171, 272, -1,
          170, 171, 273, -1,
          169, 273, 274, -1,
          169, 170, 273, -1,
          168, 274, 275, -1,
          168, 169, 274, -1,
          167, 275, 276, -1,
          167, 168, 275, -1,
          277, 167, 276, -1,
          166, 167, 277, -1,
          278, 166, 277, -1,
          165, 166, 278, -1,
          279, 165, 278, -1,
          164, 165, 279, -1,
          280, 164, 279, -1,
          163, 164, 280, -1,
          162, 280, 281, -1,
          162, 163, 280, -1,
          282, 162, 281, -1,
          161, 162, 282, -1,
          283, 161, 282, -1,
          160, 161, 283, -1,
          284, 160, 283, -1,
          158, 160, 284, -1,
          159, 284, 285, -1,
          159, 158, 284, -1,
          286, 287, 288, -1,
          289, 290, 291, -1,
          289, 291, 287, -1,
          292, 289, 287, -1,
          293, 287, 286, -1,
          293, 292, 287, -1,
          294, 286, 295, -1,
          294, 295, 296, -1,
          294, 296, 297, -1,
          294, 297, 298, -1,
          299, 300, 301, -1,
          299, 301, 302, -1,
          299, 302, 293, -1,
          299, 293, 286, -1,
          303, 304, 299, -1,
          305, 306, 307, -1,
          305, 307, 308, -1,
          309, 310, 311, -1,
          309, 311, 312, -1,
          309, 312, 303, -1,
          309, 299, 286, -1,
          309, 303, 299, -1,
          223, 294, 306, -1,
          223, 286, 294, -1,
          223, 309, 286, -1,
          224, 222, 223, -1,
          313, 314, 315, -1,
          313, 315, 316, -1,
          313, 316, 317, -1,
          313, 317, 318, -1,
          226, 225, 224, -1,
          319, 305, 320, -1,
          319, 320, 321, -1,
          319, 321, 314, -1,
          319, 314, 313, -1,
          227, 224, 223, -1,
          227, 223, 306, -1,
          227, 226, 224, -1,
          322, 319, 323, -1,
          229, 228, 227, -1,
          324, 319, 322, -1,
          325, 319, 324, -1,
          325, 324, 326, -1,
          233, 232, 231, -1,
          327, 325, 328, -1,
          327, 328, 329, -1,
          235, 234, 233, -1,
          235, 233, 231, -1,
          238, 237, 236, -1,
          238, 236, 235, -1,
          238, 235, 231, -1,
          330, 319, 325, -1,
          330, 325, 327, -1,
          330, 327, 331, -1,
          330, 331, 332, -1,
          330, 332, 333, -1,
          240, 239, 238, -1,
          240, 238, 231, -1,
          241, 231, 230, -1,
          241, 240, 231, -1,
          334, 335, 336, -1,
          337, 330, 335, -1,
          337, 335, 334, -1,
          243, 242, 241, -1,
          245, 244, 243, -1,
          245, 227, 306, -1,
          245, 229, 227, -1,
          245, 230, 229, -1,
          245, 243, 241, -1,
          245, 241, 230, -1,
          338, 337, 339, -1,
          338, 339, 340, -1,
          246, 245, 306, -1,
          341, 330, 337, -1,
          341, 337, 338, -1,
          342, 319, 330, -1,
          342, 330, 341, -1,
          342, 341, 343, -1,
          249, 248, 247, -1,
          249, 247, 246, -1,
          249, 246, 306, -1,
          344, 345, 346, -1,
          344, 346, 347, -1,
          253, 306, 305, -1,
          253, 249, 306, -1,
          253, 252, 251, -1,
          253, 251, 250, -1,
          253, 250, 249, -1,
          284, 344, 285, -1,
          257, 256, 255, -1,
          257, 255, 254, -1,
          281, 284, 283, -1,
          281, 283, 282, -1,
          280, 345, 344, -1,
          280, 284, 281, -1,
          280, 344, 284, -1,
          280, 342, 345, -1,
          259, 257, 254, -1,
          259, 258, 257, -1,
          259, 254, 253, -1,
          278, 342, 280, -1,
          278, 280, 279, -1,
          278, 319, 342, -1,
          261, 259, 253, -1,
          261, 260, 259, -1,
          262, 253, 305, -1,
          262, 261, 253, -1,
          275, 277, 276, -1,
          264, 263, 262, -1,
          273, 277, 275, -1,
          273, 275, 274, -1,
          266, 319, 278, -1,
          266, 262, 305, -1,
          266, 264, 262, -1,
          266, 265, 264, -1,
          266, 305, 319, -1,
          271, 273, 272, -1,
          268, 267, 266, -1,
          270, 277, 273, -1,
          270, 273, 271, -1,
          269, 266, 278, -1,
          269, 268, 266, -1,
          269, 278, 277, -1,
          269, 277, 270, -1,
          348, 159, 285, -1,
          348, 285, 344, -1,
          349, 348, 344, -1,
          349, 344, 347, -1,
          350, 349, 347, -1,
          350, 347, 346, -1,
          351, 350, 346, -1,
          351, 346, 345, -1,
          352, 351, 345, -1,
          352, 345, 342, -1,
          353, 352, 342, -1,
          353, 342, 343, -1,
          354, 343, 341, -1,
          354, 353, 343, -1,
          355, 341, 338, -1,
          355, 354, 341, -1,
          356, 338, 340, -1,
          356, 355, 338, -1,
          357, 340, 339, -1,
          357, 356, 340, -1,
          358, 339, 337, -1,
          358, 357, 339, -1,
          359, 337, 334, -1,
          359, 358, 337, -1,
          360, 334, 336, -1,
          360, 359, 334, -1,
          361, 336, 335, -1,
          361, 360, 336, -1,
          362, 335, 330, -1,
          362, 361, 335, -1,
          363, 330, 333, -1,
          363, 362, 330, -1,
          364, 333, 332, -1,
          364, 363, 333, -1,
          331, 364, 332, -1,
          365, 364, 331, -1,
          327, 365, 331, -1,
          366, 365, 327, -1,
          367, 366, 327, -1,
          367, 327, 329, -1,
          328, 367, 329, -1,
          368, 367, 328, -1,
          325, 368, 328, -1,
          369, 368, 325, -1,
          326, 369, 325, -1,
          370, 369, 326, -1,
          371, 370, 326, -1,
          371, 326, 324, -1,
          372, 371, 324, -1,
          372, 324, 322, -1,
          323, 372, 322, -1,
          373, 372, 323, -1,
          374, 323, 319, -1,
          374, 373, 323, -1,
          375, 319, 313, -1,
          375, 374, 319, -1,
          376, 313, 318, -1,
          376, 375, 313, -1,
          377, 318, 317, -1,
          377, 376, 318, -1,
          378, 317, 316, -1,
          378, 377, 317, -1,
          379, 316, 315, -1,
          379, 378, 316, -1,
          380, 315, 314, -1,
          380, 379, 315, -1,
          321, 380, 314, -1,
          381, 380, 321, -1,
          382, 321, 320, -1,
          382, 381, 321, -1,
          383, 320, 305, -1,
          383, 382, 320, -1,
          384, 305, 308, -1,
          384, 383, 305, -1,
          307, 384, 308, -1,
          385, 384, 307, -1,
          306, 385, 307, -1,
          386, 385, 306, -1,
          294, 386, 306, -1,
          387, 386, 294, -1,
          388, 294, 298, -1,
          388, 387, 294, -1,
          389, 298, 297, -1,
          389, 388, 298, -1,
          390, 297, 296, -1,
          390, 389, 297, -1,
          295, 390, 296, -1,
          391, 390, 295, -1,
          392, 391, 295, -1,
          392, 295, 286, -1,
          288, 392, 286, -1,
          393, 392, 288, -1,
          287, 393, 288, -1,
          394, 393, 287, -1,
          291, 394, 287, -1,
          395, 394, 291, -1,
          290, 395, 291, -1,
          396, 395, 290, -1,
          289, 396, 290, -1,
          397, 396, 289, -1,
          398, 289, 292, -1,
          398, 397, 289, -1,
          293, 398, 292, -1,
          399, 398, 293, -1,
          302, 399, 293, -1,
          400, 399, 302, -1,
          401, 302, 301, -1,
          401, 400, 302, -1,
          300, 401, 301, -1,
          402, 401, 300, -1,
          403, 300, 299, -1,
          403, 402, 300, -1,
          404, 299, 304, -1,
          404, 403, 299, -1,
          405, 304, 303, -1,
          405, 404, 304, -1,
          406, 303, 312, -1,
          406, 405, 303, -1,
          311, 406, 312, -1,
          407, 406, 311, -1,
          310, 407, 311, -1,
          408, 407, 310, -1,
          409, 310, 309, -1,
          409, 408, 310, -1,
          221, 309, 223, -1,
          221, 409, 309, -1,
          409, 221, 157, -1,
          409, 157, 410, -1,
          408, 410, 411, -1,
          408, 409, 410, -1,
          407, 411, 412, -1,
          407, 412, 413, -1,
          407, 408, 411, -1,
          406, 407, 413, -1,
          405, 413, 414, -1,
          405, 406, 413, -1,
          404, 414, 415, -1,
          404, 405, 414, -1,
          403, 415, 416, -1,
          403, 404, 415, -1,
          402, 416, 417, -1,
          402, 403, 416, -1,
          401, 417, 418, -1,
          401, 418, 419, -1,
          401, 402, 417, -1,
          400, 401, 419, -1,
          399, 419, 420, -1,
          399, 400, 419, -1,
          398, 420, 421, -1,
          398, 399, 420, -1,
          397, 421, 422, -1,
          397, 398, 421, -1,
          396, 422, 423, -1,
          396, 397, 422, -1,
          395, 423, 424, -1,
          395, 396, 423, -1,
          394, 424, 425, -1,
          394, 395, 424, -1,
          393, 425, 426, -1,
          393, 394, 425, -1,
          392, 426, 427, -1,
          392, 393, 426, -1,
          391, 392, 427, -1,
          391, 427, 428, -1,
          390, 391, 428, -1,
          390, 428, 429, -1,
          389, 390, 429, -1,
          389, 429, 430, -1,
          388, 389, 430, -1,
          388, 430, 431, -1,
          387, 431, 432, -1,
          387, 388, 431, -1,
          387, 432, 433, -1,
          386, 387, 433, -1,
          385, 433, 434, -1,
          385, 386, 433, -1,
          384, 434, 435, -1,
          384, 435, 436, -1,
          384, 385, 434, -1,
          383, 384, 436, -1,
          382, 436, 437, -1,
          382, 437, 438, -1,
          382, 383, 436, -1,
          381, 438, 439, -1,
          381, 382, 438, -1,
          380, 381, 439, -1,
          379, 439, 440, -1,
          379, 440, 441, -1,
          379, 380, 439, -1,
          378, 379, 441, -1,
          377, 441, 442, -1,
          377, 442, 443, -1,
          377, 378, 441, -1,
          376, 377, 443, -1,
          375, 443, 444, -1,
          375, 444, 445, -1,
          375, 376, 443, -1,
          374, 375, 445, -1,
          373, 445, 446, -1,
          373, 374, 445, -1,
          372, 446, 447, -1,
          372, 447, 448, -1,
          372, 373, 446, -1,
          371, 448, 449, -1,
          371, 372, 448, -1,
          370, 371, 449, -1,
          369, 449, 450, -1,
          369, 370, 449, -1,
          368, 450, 451, -1,
          368, 451, 452, -1,
          368, 369, 450, -1,
          367, 368, 452, -1,
          367, 452, 453, -1,
          366, 367, 453, -1,
          365, 366, 453, -1,
          365, 453, 454, -1,
          364, 365, 454, -1,
          364, 454, 455, -1,
          364, 455, 456, -1,
          363, 364, 456, -1,
          362, 363, 456, -1,
          362, 456, 457, -1,
          362, 457, 458, -1,
          361, 362, 458, -1,
          361, 458, 459, -1,
          360, 361, 459, -1,
          359, 360, 459, -1,
          359, 459, 460, -1,
          359, 460, 461, -1,
          358, 359, 461, -1,
          358, 461, 462, -1,
          357, 358, 462, -1,
          356, 357, 462, -1,
          356, 462, 463, -1,
          355, 356, 463, -1,
          355, 463, 464, -1,
          354, 355, 464, -1,
          354, 464, 465, -1,
          353, 465, 466, -1,
          353, 354, 465, -1,
          352, 466, 467, -1,
          352, 353, 466, -1,
          351, 467, 468, -1,
          351, 352, 467, -1,
          350, 468, 469, -1,
          350, 351, 468, -1,
          349, 469, 470, -1,
          349, 350, 469, -1,
          348, 470, 471, -1,
          348, 471, 94, -1,
          348, 349, 470, -1,
          159, 348, 94, -1,
          410, 157, 7, -1,
          410, 7, 472, -1,
          411, 472, 473, -1,
          411, 410, 472, -1,
          412, 473, 474, -1,
          412, 411, 473, -1,
          475, 412, 474, -1,
          413, 412, 475, -1,
          414, 475, 476, -1,
          414, 413, 475, -1,
          415, 476, 477, -1,
          415, 414, 476, -1,
          416, 477, 478, -1,
          416, 415, 477, -1,
          417, 478, 479, -1,
          417, 416, 478, -1,
          418, 479, 480, -1,
          418, 417, 479, -1,
          481, 418, 480, -1,
          419, 418, 481, -1,
          482, 419, 481, -1,
          420, 419, 482, -1,
          421, 482, 483, -1,
          421, 420, 482, -1,
          484, 421, 483, -1,
          422, 421, 484, -1,
          423, 484, 485, -1,
          423, 422, 484, -1,
          424, 485, 486, -1,
          424, 423, 485, -1,
          425, 486, 487, -1,
          425, 424, 486, -1,
          426, 487, 488, -1,
          426, 425, 487, -1,
          427, 488, 489, -1,
          427, 426, 488, -1,
          490, 427, 489, -1,
          428, 427, 490, -1,
          429, 428, 490, -1,
          429, 490, 491, -1,
          430, 429, 491, -1,
          430, 491, 492, -1,
          431, 430, 492, -1,
          431, 492, 493, -1,
          494, 431, 493, -1,
          432, 431, 494, -1,
          495, 432, 494, -1,
          433, 432, 495, -1,
          434, 495, 496, -1,
          434, 433, 495, -1,
          435, 496, 497, -1,
          435, 434, 496, -1,
          436, 497, 498, -1,
          436, 435, 497, -1,
          437, 498, 499, -1,
          437, 436, 498, -1,
          438, 499, 500, -1,
          438, 437, 499, -1,
          439, 500, 501, -1,
          439, 438, 500, -1,
          440, 501, 502, -1,
          440, 439, 501, -1,
          441, 502, 503, -1,
          441, 440, 502, -1,
          442, 503, 504, -1,
          442, 441, 503, -1,
          443, 504, 505, -1,
          443, 442, 504, -1,
          506, 443, 505, -1,
          444, 443, 506, -1,
          507, 444, 506, -1,
          445, 444, 507, -1,
          446, 507, 508, -1,
          446, 445, 507, -1,
          509, 446, 508, -1,
          447, 446, 509, -1,
          448, 509, 510, -1,
          448, 447, 509, -1,
          511, 448, 510, -1,
          449, 448, 511, -1,
          512, 449, 511, -1,
          450, 449, 512, -1,
          513, 450, 512, -1,
          451, 450, 513, -1,
          452, 451, 513, -1,
          452, 513, 514, -1,
          515, 452, 514, -1,
          453, 452, 515, -1,
          516, 453, 515, -1,
          454, 453, 516, -1,
          455, 454, 516, -1,
          455, 516, 517, -1,
          518, 455, 517, -1,
          456, 455, 518, -1,
          457, 456, 518, -1,
          457, 518, 519, -1,
          520, 457, 519, -1,
          458, 457, 520, -1,
          459, 458, 520, -1,
          459, 520, 521, -1,
          460, 459, 521, -1,
          460, 521, 522, -1,
          523, 460, 522, -1,
          461, 460, 523, -1,
          524, 461, 523, -1,
          462, 461, 524, -1,
          525, 462, 524, -1,
          463, 462, 525, -1,
          526, 463, 525, -1,
          464, 463, 526, -1,
          527, 464, 526, -1,
          465, 464, 527, -1,
          466, 465, 527, -1,
          466, 527, 528, -1,
          467, 528, 529, -1,
          467, 466, 528, -1,
          468, 529, 530, -1,
          468, 467, 529, -1,
          531, 468, 530, -1,
          469, 468, 531, -1,
          470, 531, 532, -1,
          470, 469, 531, -1,
          533, 470, 532, -1,
          471, 470, 533, -1,
          2, 471, 533, -1,
          94, 471, 2, -1,
          0, 532, 531, -1,
          0, 533, 532, -1,
          0, 2, 533, -1,
          473, 6, 474, -1,
          472, 6, 473, -1,
          7, 6, 472, -1,
          534, 516, 515, -1,
          534, 517, 516, -1,
          534, 518, 517, -1,
          535, 520, 519, -1,
          535, 521, 520, -1,
          535, 522, 521, -1,
          535, 523, 522, -1,
          535, 524, 523, -1,
          535, 525, 524, -1,
          536, 509, 508, -1,
          536, 510, 509, -1,
          536, 511, 510, -1,
          536, 512, 511, -1,
          536, 513, 512, -1,
          536, 514, 513, -1,
          536, 515, 514, -1,
          536, 534, 515, -1,
          537, 526, 525, -1,
          537, 527, 526, -1,
          537, 528, 527, -1,
          537, 529, 528, -1,
          537, 530, 529, -1,
          537, 531, 530, -1,
          537, 0, 531, -1,
          537, 525, 535, -1,
          538, 518, 534, -1,
          538, 519, 518, -1,
          538, 534, 536, -1,
          538, 535, 519, -1,
          539, 536, 508, -1,
          539, 503, 502, -1,
          539, 504, 503, -1,
          539, 505, 504, -1,
          539, 506, 505, -1,
          539, 507, 506, -1,
          539, 508, 507, -1,
          540, 537, 535, -1,
          540, 18, 0, -1,
          540, 535, 538, -1,
          540, 0, 537, -1,
          541, 538, 536, -1,
          541, 536, 539, -1,
          542, 539, 502, -1,
          542, 498, 497, -1,
          542, 499, 498, -1,
          542, 500, 499, -1,
          542, 501, 500, -1,
          542, 502, 501, -1,
          543, 28, 27, -1,
          543, 27, 18, -1,
          543, 18, 540, -1,
          543, 538, 541, -1,
          543, 540, 538, -1,
          544, 541, 539, -1,
          544, 539, 542, -1,
          545, 491, 490, -1,
          545, 492, 491, -1,
          545, 493, 492, -1,
          545, 494, 493, -1,
          545, 495, 494, -1,
          545, 496, 495, -1,
          545, 497, 496, -1,
          545, 542, 497, -1,
          546, 32, 28, -1,
          546, 541, 544, -1,
          546, 28, 543, -1,
          546, 543, 541, -1,
          547, 542, 545, -1,
          547, 544, 542, -1,
          548, 488, 487, -1,
          548, 489, 488, -1,
          548, 490, 489, -1,
          548, 545, 490, -1,
          549, 39, 32, -1,
          549, 544, 547, -1,
          549, 32, 546, -1,
          549, 546, 544, -1,
          550, 545, 548, -1,
          550, 487, 486, -1,
          550, 547, 545, -1,
          550, 548, 487, -1,
          551, 50, 39, -1,
          551, 51, 50, -1,
          551, 39, 549, -1,
          551, 547, 550, -1,
          551, 549, 547, -1,
          552, 481, 480, -1,
          552, 482, 481, -1,
          552, 483, 482, -1,
          552, 484, 483, -1,
          552, 485, 484, -1,
          552, 486, 485, -1,
          552, 550, 486, -1,
          553, 6, 51, -1,
          553, 551, 550, -1,
          553, 51, 551, -1,
          553, 550, 552, -1,
          554, 474, 6, -1,
          554, 475, 474, -1,
          554, 476, 475, -1,
          554, 477, 476, -1,
          554, 478, 477, -1,
          554, 479, 478, -1,
          554, 480, 479, -1,
          554, 552, 480, -1,
          554, 6, 553, -1,
          554, 553, 552, -1
        ]
      }
    }
}
