#VRML V2.0 utf8
WorldInfo {
  title "Exported triangle mesh to VRML97"
  info ["Created by FreeCAD"
        "<https://www.freecad.org>"]
}

Transform {
  scale 1 1 1
  rotation 0 0 1 0
  scaleOrientation 0 0 1 0
  center 0.000 0.000 0.000
  translation 0.000 0.000 0.000
  children
    Shape { 
      appearance
      Appearance {
        material
        Material {
          diffuseColor 0.8 0.8 0.8
        }
      }
      geometry
      IndexedFaceSet {
        coord
        Coordinate {
          point [
            -1.618 7.214 10.515,
            -1.772 6.910 10.335,
            -1.625 6.910 10.515,
            -1.764 7.226 10.335,
            -1.595 7.518 10.515,
            -1.740 7.542 10.335,
            -1.558 7.820 10.515,
            -1.701 7.856 10.335,
            -1.506 8.120 10.515,
            -1.646 8.168 10.335,
            -1.439 8.417 10.515,
            -1.575 8.477 10.335,
            -1.358 8.711 10.515,
            -1.489 8.781 10.335,
            -1.262 9.000 10.515,
            -1.389 9.082 10.335,
            -1.153 9.284 10.515,
            -1.273 9.376 10.335,
            -1.029 9.562 10.515,
            -1.143 9.665 10.335,
            -0.893 9.834 10.515,
            -0.998 9.947 10.335,
            -0.743 10.099 10.515,
            -0.840 10.221 10.335,
            -0.580 10.356 10.515,
            -0.668 10.487 10.335,
            -0.404 10.605 10.515,
            -0.483 10.744 10.335,
            -0.217 10.845 10.515,
            -0.286 10.991 10.335,
            -0.018 11.076 10.515,
            -0.076 11.229 10.335,
            0.192 11.296 10.515,
            0.145 11.456 10.335,
            0.412 11.506 10.515,
            0.377 11.671 10.335,
            0.643 11.705 10.515,
            0.619 11.874 10.335,
            0.883 11.892 10.515,
            0.872 12.066 10.335,
            1.132 12.068 10.515,
            1.133 12.244 10.335,
            1.389 12.231 10.515,
            1.403 12.409 10.335,
            1.654 12.381 10.515,
            1.681 12.560 10.335,
            1.926 12.518 10.515,
            1.967 12.698 10.335,
            2.204 12.641 10.515,
            2.259 12.821 10.335,
            2.489 12.751 10.515,
            2.556 12.929 10.335,
            2.778 12.846 10.515,
            2.859 13.022 10.335,
            3.071 12.927 10.515,
            3.165 13.101 10.335,
            3.368 12.994 10.515,
            3.476 13.163 10.335,
            3.668 13.046 10.515,
            3.789 13.210 10.335,
            3.970 13.083 10.515,
            4.104 13.242 10.335,
            4.274 13.106 10.515,
            4.420 13.258 10.335,
            4.578 13.113 10.515,
            4.737 13.258 10.335,
            4.883 13.106 10.515,
            5.053 13.242 10.335,
            5.186 13.083 10.515,
            5.368 13.210 10.335,
            5.489 13.046 10.515,
            5.681 13.163 10.335,
            5.789 12.994 10.515,
            5.991 13.101 10.335,
            6.086 12.927 10.515,
            6.298 13.022 10.335,
            6.379 12.846 10.515,
            6.601 12.929 10.335,
            6.668 12.751 10.515,
            6.898 12.821 10.335,
            6.952 12.641 10.515,
            7.190 12.698 10.335,
            7.231 12.518 10.515,
            7.475 12.560 10.335,
            7.503 12.381 10.515,
            7.753 12.409 10.335,
            7.768 12.231 10.515,
            8.024 12.244 10.335,
            8.025 12.068 10.515,
            8.285 12.066 10.335,
            8.274 11.892 10.515,
            8.538 11.874 10.335,
            8.514 11.705 10.515,
            8.780 11.671 10.335,
            8.744 11.506 10.515,
            9.012 11.456 10.335,
            8.965 11.296 10.515,
            9.233 11.229 10.335,
            9.175 11.076 10.515,
            9.443 10.991 10.335,
            9.374 10.845 10.515,
            9.640 10.744 10.335,
            9.561 10.605 10.515,
            9.825 10.487 10.335,
            9.736 10.356 10.515,
            9.997 10.221 10.335,
            9.899 10.099 10.515,
            10.155 9.947 10.335,
            10.049 9.834 10.515,
            10.300 9.665 10.335,
            10.186 9.562 10.515,
            10.430 9.376 10.335,
            10.310 9.284 10.515,
            10.545 9.082 10.335,
            10.419 9.000 10.515,
            10.646 8.781 10.335,
            10.515 8.711 10.515,
            10.732 8.477 10.335,
            10.596 8.417 10.515,
            10.803 8.168 10.335,
            10.663 8.120 10.515,
            10.858 7.856 10.335,
            10.715 7.820 10.515,
            10.897 7.542 10.335,
            10.752 7.518 10.515,
            10.921 7.226 10.335,
            10.775 7.214 10.515,
            10.928 6.910 10.335,
            10.782 6.910 10.515,
            10.771 7.219 8.142,
            10.928 6.910 8.292,
            10.778 6.910 8.142,
            10.921 7.226 8.292,
            10.748 7.527 8.142,
            10.897 7.542 8.292,
            10.709 7.834 8.142,
            10.858 7.856 8.292,
            10.656 8.138 8.142,
            10.803 8.168 8.292,
            10.587 8.440 8.142,
            10.732 8.477 8.292,
            10.503 8.737 8.142,
            10.646 8.781 8.292,
            10.405 9.030 8.142,
            10.545 9.082 8.292,
            10.292 9.318 8.142,
            10.430 9.376 8.292,
            10.164 9.600 8.142,
            10.300 9.665 8.292,
            10.023 9.875 8.142,
            10.155 9.947 8.292,
            9.869 10.143 8.142,
            9.997 10.221 8.292,
            9.701 10.402 8.142,
            9.825 10.487 8.292,
            9.521 10.653 8.142,
            9.640 10.744 8.292,
            9.328 10.895 8.142,
            9.443 10.991 8.292,
            9.123 11.127 8.142,
            9.233 11.229 8.292,
            8.908 11.348 8.142,
            9.012 11.456 8.292,
            8.681 11.558 8.142,
            8.780 11.671 8.292,
            8.444 11.757 8.142,
            8.538 11.874 8.292,
            8.198 11.944 8.142,
            8.285 12.066 8.292,
            7.942 12.118 8.142,
            8.024 12.244 8.292,
            7.678 12.279 8.142,
            7.753 12.409 8.292,
            7.407 12.427 8.142,
            7.475 12.560 8.292,
            7.128 12.561 8.142,
            7.190 12.698 8.292,
            6.844 12.681 8.142,
            6.898 12.821 8.292,
            6.553 12.787 8.142,
            6.601 12.929 8.292,
            6.258 12.878 8.142,
            6.298 13.022 8.292,
            5.958 12.954 8.142,
            5.991 13.101 8.292,
            5.655 13.016 8.142,
            5.681 13.163 8.292,
            5.349 13.062 8.142,
            5.368 13.210 8.292,
            5.042 13.092 8.142,
            5.053 13.242 8.292,
            4.733 13.108 8.142,
            4.737 13.258 8.292,
            4.424 13.108 8.142,
            4.420 13.258 8.292,
            4.115 13.092 8.142,
            4.104 13.242 8.292,
            3.808 13.062 8.142,
            3.789 13.210 8.292,
            3.476 13.163 8.292,
            3.502 13.016 8.142,
            3.199 12.954 8.142,
            3.165 13.101 8.292,
            2.899 12.878 8.142,
            2.859 13.022 8.292,
            2.604 12.787 8.142,
            2.556 12.929 8.292,
            2.313 12.681 8.142,
            2.259 12.821 8.292,
            2.028 12.561 8.142,
            1.967 12.698 8.292,
            1.681 12.560 8.292,
            1.750 12.427 8.142,
            1.478 12.279 8.142,
            1.403 12.409 8.292,
            1.215 12.118 8.142,
            1.133 12.244 8.292,
            0.959 11.944 8.142,
            0.872 12.066 8.292,
            0.713 11.757 8.142,
            0.619 11.874 8.292,
            0.476 11.558 8.142,
            0.377 11.671 8.292,
            0.145 11.456 8.292,
            0.249 11.348 8.142,
            0.034 11.127 8.142,
            -0.076 11.229 8.292,
            -0.171 10.895 8.142,
            -0.286 10.991 8.292,
            -0.483 10.744 8.292,
            -0.364 10.653 8.142,
            -0.544 10.402 8.142,
            -0.668 10.487 8.292,
            -0.840 10.221 8.292,
            -0.712 10.143 8.142,
            -0.998 9.947 8.292,
            -0.867 9.875 8.142,
            -1.143 9.665 8.292,
            -1.008 9.600 8.142,
            -1.273 9.376 8.292,
            -1.135 9.318 8.142,
            -1.248 9.030 8.142,
            -1.389 9.082 8.292,
            -1.489 8.781 8.292,
            -1.346 8.737 8.142,
            -1.575 8.477 8.292,
            -1.430 8.440 8.142,
            -1.646 8.168 8.292,
            -1.499 8.138 8.142,
            -1.701 7.856 8.292,
            -1.552 7.834 8.142,
            -1.740 7.542 8.292,
            -1.591 7.527 8.142,
            -1.764 7.226 8.292,
            -1.614 7.219 8.142,
            -1.622 6.910 8.142,
            -1.772 6.910 8.292,
            4.578 1.935 10.740,
            3.668 0.773 10.515,
            3.970 0.736 10.515,
            4.274 0.714 10.515,
            4.578 0.706 10.515,
            3.368 0.825 10.515,
            4.578 11.885 10.740,
            2.498 1.741 10.638,
            1.132 1.752 10.515,
            1.389 1.589 10.515,
            1.654 1.439 10.515,
            1.926 1.302 10.515,
            2.204 1.178 10.515,
            2.489 1.069 10.515,
            2.778 0.973 10.515,
            3.071 0.892 10.515,
            4.578 3.171 10.916,
            2.498 3.799 10.916,
            0.883 1.927 10.515,
            4.578 4.414 11.042,
            0.427 2.796 10.586,
            -0.404 3.214 10.515,
            -0.217 2.974 10.515,
            -0.018 2.744 10.515,
            0.192 2.523 10.515,
            0.412 2.313 10.515,
            0.643 2.114 10.515,
            2.498 5.871 11.055,
            4.578 5.661 11.117,
            4.578 6.910 11.142,
            0.427 4.848 10.794,
            -1.506 5.700 10.515,
            -1.439 5.402 10.515,
            -1.358 5.109 10.515,
            -1.262 4.820 10.515,
            -1.153 4.536 10.515,
            -1.029 4.257 10.515,
            -0.893 3.985 10.515,
            -0.743 3.720 10.515,
            -0.580 3.463 10.515,
            2.498 7.948 11.055,
            4.578 8.159 11.117,
            4.578 9.405 11.042,
            0.427 6.910 10.863,
            -1.618 6.605 10.515,
            -1.595 6.302 10.515,
            -1.558 6.000 10.515,
            2.498 10.020 10.916,
            4.578 10.648 10.916,
            0.427 8.971 10.794,
            2.498 12.078 10.638,
            0.427 11.024 10.586,
            7.167 12.708 9.092,
            7.090 12.742 9.092,
            7.167 12.708 9.621,
            7.013 12.774 9.092,
            7.124 12.727 9.621,
            7.124 12.727 9.146,
            7.061 12.754 9.146,
            6.999 12.780 9.146,
            6.936 12.806 9.092,
            6.936 12.806 9.146,
            6.892 12.823 9.092,
            6.876 12.830 9.092,
            6.859 12.836 9.092,
            6.843 12.842 9.092,
            7.153 12.715 9.621,
            7.138 12.721 9.621,
            6.693 12.897 9.262,
            6.768 12.870 9.262,
            6.617 12.924 9.262,
            6.467 12.973 9.092,
            6.541 12.949 9.262,
            6.450 12.978 9.092,
            6.434 12.983 9.092,
            6.417 12.988 9.092,
            6.656 12.910 9.621,
            6.654 12.911 9.621,
            6.652 12.912 9.621,
            6.650 12.912 9.621,
            6.228 13.042 9.092,
            6.213 13.046 9.092,
            6.198 13.050 9.092,
            6.182 13.054 9.092,
            6.307 13.020 9.567,
            6.281 13.027 9.567,
            6.254 13.035 9.567,
            6.228 13.042 9.567,
            5.954 13.109 9.181,
            5.960 13.108 9.199,
            5.950 13.110 9.171,
            5.963 13.107 9.219,
            5.944 13.111 9.159,
            6.277 13.028 9.621,
            6.245 13.037 9.621,
            6.214 13.046 9.621,
            6.182 13.054 9.621,
            5.964 13.107 9.229,
            5.936 13.113 9.145,
            5.965 13.107 9.240,
            5.963 13.107 9.259,
            5.924 13.116 9.130,
            5.917 13.117 9.122,
            5.962 13.107 9.271,
            5.959 13.108 9.282,
            5.908 13.119 9.114,
            5.957 13.108 9.292,
            5.898 13.121 9.107,
            5.951 13.110 9.311,
            5.886 13.124 9.099,
            5.946 13.111 9.324,
            5.873 13.126 9.092,
            5.937 13.113 9.341,
            5.858 13.130 9.086,
            5.841 13.133 9.082,
            5.826 13.136 9.080,
            5.808 13.140 9.079,
            5.788 13.143 9.080,
            5.772 13.147 9.082,
            5.756 13.150 9.087,
            5.746 13.152 9.090,
            5.734 13.154 9.096,
            5.720 13.156 9.103,
            5.705 13.159 9.114,
            5.697 13.160 9.120,
            5.690 13.162 9.128,
            5.682 13.163 9.136,
            5.674 13.165 9.147,
            5.666 13.166 9.159,
            5.659 13.167 9.173,
            5.927 13.115 9.361,
            5.917 13.117 9.377,
            5.907 13.119 9.393,
            5.752 13.150 9.635,
            5.716 13.157 9.606,
            5.751 13.151 9.390,
            5.736 13.153 9.384,
            5.723 13.156 9.378,
            5.712 13.158 9.370,
            5.702 13.160 9.363,
            5.693 13.161 9.355,
            5.685 13.163 9.347,
            5.679 13.164 9.339,
            5.668 13.166 9.324,
            5.661 13.167 9.312,
            5.431 13.202 9.092,
            5.645 13.169 9.241,
            5.646 13.169 9.222,
            5.648 13.169 9.207,
            5.653 13.168 9.190,
            5.415 13.204 9.092,
            5.399 13.206 9.092,
            5.384 13.209 9.092,
            5.511 13.191 9.567,
            5.656 13.168 9.301,
            5.651 13.169 9.283,
            5.649 13.169 9.273,
            5.647 13.169 9.263,
            5.646 13.169 9.252,
            5.484 13.195 9.567,
            5.458 13.199 9.567,
            5.481 13.195 9.621,
            5.431 13.202 9.567,
            5.026 13.244 9.092,
            5.010 13.245 9.092,
            4.994 13.246 9.092,
            5.448 13.200 9.621,
            5.416 13.204 9.621,
            5.384 13.209 9.621,
            4.978 13.247 9.092,
            5.107 13.238 9.567,
            5.080 13.240 9.567,
            5.053 13.242 9.567,
            5.026 13.244 9.567,
            4.782 13.256 9.269,
            4.782 13.256 9.323,
            4.978 13.247 9.621,
            5.076 13.240 9.621,
            5.044 13.243 9.621,
            5.011 13.245 9.621,
            4.714 13.258 9.269,
            4.646 13.259 9.269,
            4.531 13.260 9.092,
            4.578 13.260 9.269,
            4.514 13.259 9.092,
            4.496 13.259 9.092,
            4.479 13.259 9.092,
            4.714 13.258 9.323,
            4.646 13.259 9.323,
            4.578 13.260 9.323,
            4.319 13.254 9.262,
            4.399 13.257 9.262,
            4.239 13.251 9.262,
            4.081 13.240 9.092,
            4.159 13.246 9.262,
            4.064 13.239 9.092,
            4.047 13.237 9.092,
            4.280 13.253 9.621,
            4.278 13.253 9.621,
            4.276 13.253 9.621,
            4.273 13.252 9.621,
            4.030 13.236 9.092,
            3.641 13.190 8.936,
            3.652 13.192 8.936,
            3.630 13.189 8.936,
            3.619 13.187 8.936,
            3.760 13.207 9.438,
            3.760 13.207 9.466,
            3.738 13.204 9.449,
            3.719 13.201 9.460,
            3.700 13.199 9.471,
            3.681 13.196 9.484,
            3.652 13.192 9.506,
            3.644 13.191 9.615,
            3.654 13.192 9.594,
            3.649 13.191 9.604,
            3.589 13.182 9.482,
            3.605 13.185 9.494,
            3.574 13.180 9.472,
            3.555 13.177 9.460,
            3.534 13.173 9.449,
            3.724 13.202 9.502,
            3.702 13.199 9.525,
            3.686 13.197 9.545,
            3.675 13.195 9.560,
            3.665 13.194 9.575,
            3.659 13.193 9.584,
            3.639 13.190 9.615,
            3.634 13.189 9.615,
            3.512 13.169 9.438,
            3.271 13.124 9.243,
            3.275 13.124 9.254,
            3.278 13.125 9.266,
            3.268 13.123 9.233,
            3.281 13.126 9.278,
            3.260 13.121 9.215,
            3.285 13.127 9.297,
            3.253 13.120 9.201,
            3.287 13.127 9.317,
            3.247 13.119 9.190,
            3.241 13.117 9.181,
            3.287 13.127 9.337,
            3.287 13.127 9.349,
            3.231 13.115 9.167,
            3.286 13.127 9.368,
            3.512 13.169 9.466,
            3.219 13.113 9.153,
            3.284 13.126 9.387,
            3.207 13.110 9.140,
            3.280 13.126 9.405,
            3.195 13.107 9.129,
            3.186 13.105 9.123,
            3.275 13.125 9.423,
            3.178 13.103 9.117,
            3.272 13.124 9.434,
            3.162 13.100 9.107,
            3.149 13.097 9.100,
            3.137 13.094 9.094,
            3.127 13.092 9.090,
            3.109 13.087 9.085,
            3.629 13.188 9.615,
            3.621 13.187 9.598,
            3.612 13.186 9.582,
            3.602 13.184 9.567,
            3.591 13.183 9.551,
            3.578 13.180 9.534,
            3.561 13.178 9.515,
            3.538 13.174 9.492,
            3.252 13.120 9.477,
            3.247 13.119 9.486,
            3.261 13.122 9.460,
            3.267 13.123 9.446,
            3.091 13.083 9.080,
            3.072 13.079 9.076,
            3.053 13.074 9.074,
            3.042 13.071 9.074,
            3.030 13.068 9.074,
            3.018 13.065 9.074,
            3.006 13.062 9.075,
            2.992 13.058 9.076,
            2.977 13.054 9.079,
            2.961 13.050 9.083,
            2.943 13.046 9.088,
            2.926 13.041 9.094,
            2.914 13.038 9.099,
            2.896 13.033 9.108,
            2.880 13.028 9.117,
            2.863 13.024 9.127,
            2.844 13.018 9.141,
            2.824 13.012 9.156,
            3.226 13.114 9.515,
            3.214 13.111 9.528,
            3.233 13.116 9.505,
            3.240 13.117 9.495,
            3.062 13.076 9.609,
            3.044 13.072 9.611,
            3.074 13.079 9.607,
            3.092 13.083 9.602,
            3.103 13.086 9.599,
            3.114 13.088 9.595,
            3.123 13.091 9.591,
            3.139 13.095 9.584,
            3.153 13.098 9.577,
            3.164 13.100 9.570,
            3.173 13.102 9.564,
            3.187 13.105 9.553,
            3.201 13.108 9.541,
            3.028 13.068 9.612,
            3.012 13.064 9.612,
            2.803 13.006 9.174,
            2.773 12.998 9.202,
            2.679 12.969 9.234,
            2.737 12.987 9.239,
            2.710 12.979 9.266,
            2.640 12.957 9.195,
            2.609 12.947 9.165,
            2.684 12.970 9.447,
            2.740 12.988 9.450,
            2.710 12.979 9.420,
            2.584 12.939 9.145,
            2.566 12.932 9.131,
            2.658 12.963 9.473,
            2.777 12.999 9.487,
            2.549 12.927 9.119,
            2.538 12.923 9.113,
            2.523 12.918 9.104,
            2.508 12.913 9.097,
            2.497 12.909 9.092,
            3.000 13.060 9.611,
            2.982 13.056 9.610,
            2.839 13.017 9.542,
            2.814 13.010 9.522,
            2.858 13.022 9.556,
            2.875 13.027 9.568,
            2.886 13.030 9.574,
            2.901 13.034 9.582,
            2.917 13.038 9.590,
            2.927 13.041 9.594,
            2.945 13.046 9.601,
            2.963 13.051 9.606,
            2.797 13.005 9.506,
            2.480 12.903 9.086,
            2.462 12.897 9.081,
            2.444 12.890 9.076,
            2.428 12.885 9.075,
            2.418 12.881 9.074,
            2.405 12.876 9.074,
            2.383 12.868 9.075,
            2.366 12.862 9.076,
            2.349 12.855 9.080,
            2.337 12.851 9.083,
            2.326 12.847 9.086,
            2.316 12.843 9.090,
            2.307 12.840 9.094,
            2.291 12.833 9.101,
            2.278 12.828 9.108,
            2.267 12.824 9.115,
            2.259 12.821 9.121,
            2.245 12.816 9.132,
            2.232 12.810 9.144,
            2.219 12.805 9.157,
            2.583 12.938 9.541,
            2.564 12.932 9.555,
            2.600 12.944 9.527,
            2.617 12.949 9.512,
            2.420 12.882 9.611,
            2.408 12.877 9.612,
            2.636 12.955 9.494,
            2.435 12.887 9.609,
            2.449 12.892 9.606,
            2.464 12.897 9.603,
            2.481 12.903 9.597,
            2.498 12.909 9.591,
            2.514 12.915 9.584,
            2.523 12.918 9.579,
            2.532 12.921 9.575,
            2.547 12.926 9.566,
            2.207 12.800 9.171,
            2.200 12.798 9.181,
            2.194 12.795 9.190,
            2.189 12.793 9.198,
            2.180 12.789 9.214,
            2.174 12.787 9.228,
            2.169 12.785 9.240,
            2.165 12.783 9.250,
            2.160 12.781 9.268,
            2.155 12.779 9.286,
            2.152 12.778 9.304,
            2.150 12.777 9.321,
            2.149 12.777 9.338,
            2.380 12.867 9.612,
            2.362 12.860 9.611,
            2.397 12.873 9.612,
            2.233 12.811 9.552,
            2.220 12.805 9.539,
            2.242 12.814 9.560,
            2.251 12.818 9.566,
            2.259 12.821 9.572,
            2.274 12.827 9.582,
            2.288 12.832 9.589,
            2.299 12.837 9.594,
            2.309 12.840 9.598,
            2.326 12.847 9.603,
            2.344 12.854 9.607,
            2.199 12.797 9.513,
            2.190 12.794 9.499,
            2.209 12.801 9.526,
            2.184 12.791 9.489,
            2.176 12.788 9.472,
            2.153 12.778 9.394,
            2.151 12.777 9.376,
            2.155 12.779 9.406,
            2.158 12.780 9.418,
            2.163 12.782 9.437,
            2.169 12.785 9.455,
            2.150 12.777 9.356,
            3.619 13.187 9.506,
            5.853 13.130 9.392,
            5.834 13.134 9.395,
            5.817 13.138 9.397,
            5.800 13.141 9.397,
            5.782 13.145 9.396,
            5.767 13.147 9.394,
            3.036 13.070 9.183,
            3.078 13.080 9.191,
            3.068 13.077 9.188,
            3.052 13.074 9.184,
            3.019 13.065 9.183,
            3.000 13.060 9.185,
            2.987 13.057 9.187,
            3.095 13.084 9.199,
            2.969 13.052 9.192,
            3.105 13.086 9.204,
            2.951 13.048 9.199,
            3.114 13.089 9.211,
            2.942 13.045 9.203,
            3.123 13.091 9.218,
            2.933 13.043 9.207,
            3.131 13.093 9.226,
            2.917 13.039 9.216,
            3.144 13.096 9.241,
            2.902 13.034 9.227,
            3.154 13.098 9.256,
            2.885 13.030 9.239,
            3.162 13.100 9.273,
            2.868 13.025 9.253,
            3.170 13.102 9.296,
            3.166 13.101 9.283,
            2.850 13.020 9.269,
            3.173 13.102 9.310,
            2.828 13.014 9.290,
            3.176 13.103 9.346,
            3.176 13.103 9.336,
            3.175 13.103 9.326,
            2.789 13.002 9.354,
            2.794 13.004 9.325,
            2.779 12.999 9.343,
            2.816 13.010 9.381,
            3.174 13.103 9.366,
            3.037 13.070 9.502,
            3.047 13.072 9.501,
            3.058 13.075 9.499,
            3.024 13.066 9.503,
            3.070 13.078 9.495,
            3.083 13.081 9.490,
            2.854 13.021 9.419,
            3.162 13.100 9.409,
            3.167 13.101 9.396,
            3.170 13.102 9.385,
            2.876 13.027 9.440,
            3.154 13.098 9.424,
            2.994 13.059 9.501,
            3.003 13.061 9.503,
            2.894 13.032 9.454,
            3.144 13.096 9.440,
            2.977 13.055 9.498,
            2.902 13.034 9.460,
            3.137 13.094 9.449,
            2.910 13.037 9.466,
            3.129 13.092 9.457,
            2.961 13.050 9.493,
            3.096 13.084 9.483,
            2.923 13.040 9.474,
            3.120 13.090 9.466,
            2.944 13.046 9.486,
            3.109 13.087 9.475,
            2.935 13.043 9.481,
            2.398 12.874 9.185,
            2.424 12.883 9.186,
            2.415 12.880 9.185,
            2.382 12.868 9.187,
            2.436 12.887 9.188,
            2.366 12.862 9.190,
            2.350 12.856 9.196,
            2.450 12.893 9.192,
            2.340 12.852 9.201,
            2.466 12.898 9.198,
            2.326 12.847 9.210,
            2.483 12.904 9.206,
            2.611 12.947 9.373,
            2.639 12.956 9.343,
            2.613 12.948 9.316,
            2.314 12.842 9.220,
            2.508 12.913 9.220,
            2.493 12.907 9.211,
            2.301 12.837 9.231,
            2.293 12.834 9.240,
            2.522 12.918 9.231,
            2.586 12.939 9.398,
            2.286 12.832 9.250,
            2.537 12.923 9.243,
            2.280 12.829 9.258,
            2.272 12.826 9.274,
            2.551 12.927 9.255,
            2.266 12.824 9.291,
            2.568 12.933 9.271,
            2.261 12.822 9.310,
            2.259 12.821 9.323,
            2.258 12.820 9.336,
            2.258 12.820 9.350,
            2.258 12.821 9.364,
            2.261 12.822 9.381,
            2.564 12.932 9.419,
            2.265 12.823 9.396,
            2.546 12.926 9.436,
            2.270 12.825 9.411,
            2.536 12.922 9.444,
            2.275 12.827 9.422,
            2.527 12.919 9.451,
            2.280 12.829 9.431,
            2.512 12.914 9.462,
            2.289 12.833 9.445,
            2.299 12.837 9.458,
            2.487 12.905 9.477,
            2.496 12.909 9.472,
            2.368 12.863 9.497,
            2.386 12.869 9.500,
            2.399 12.874 9.501,
            2.413 12.879 9.500,
            2.429 12.885 9.498,
            2.312 12.841 9.469,
            2.475 12.901 9.483,
            2.352 12.857 9.492,
            2.440 12.889 9.496,
            2.326 12.847 9.480,
            2.458 12.895 9.490,
            2.337 12.851 9.486,
            2.449 12.892 9.493,
            -1.764 6.593 10.335,
            -1.764 6.593 8.292,
            -1.740 6.277 10.335,
            -1.740 6.277 8.292,
            -1.701 5.963 10.335,
            -1.701 5.963 8.292,
            -1.646 5.652 10.335,
            -1.646 5.652 8.292,
            -1.575 5.343 10.335,
            -1.575 5.343 8.292,
            -1.489 5.038 10.335,
            -1.489 5.038 8.292,
            -1.389 4.738 10.335,
            -1.389 4.738 8.292,
            -1.273 4.443 10.335,
            -1.273 4.443 8.292,
            -1.143 4.155 10.335,
            -1.143 4.155 8.292,
            -0.998 3.873 10.335,
            -0.998 3.873 8.292,
            -0.840 3.599 10.335,
            -0.840 3.599 8.292,
            -0.668 3.333 10.335,
            -0.668 3.333 8.292,
            -0.483 3.076 10.335,
            -0.483 3.076 8.292,
            -0.286 2.828 10.335,
            -0.286 2.828 8.292,
            -0.076 2.591 10.335,
            -0.076 2.591 8.292,
            0.145 2.364 10.335,
            0.145 2.364 8.292,
            0.377 2.149 10.335,
            0.377 2.149 8.292,
            0.619 1.945 10.335,
            0.619 1.945 8.292,
            0.872 1.754 10.335,
            0.872 1.754 8.292,
            1.133 1.576 10.335,
            1.133 1.576 8.292,
            1.403 1.410 10.335,
            1.403 1.410 8.292,
            1.681 1.259 10.335,
            1.681 1.259 8.292,
            1.967 1.122 10.335,
            1.967 1.122 8.292,
            2.259 0.999 10.335,
            2.259 0.999 8.292,
            2.556 0.890 10.335,
            2.556 0.890 8.292,
            2.859 0.797 10.335,
            2.859 0.797 8.292,
            3.165 0.719 10.335,
            3.165 0.719 8.292,
            3.476 0.656 10.335,
            3.476 0.656 8.292,
            3.789 0.609 10.335,
            3.789 0.609 8.292,
            4.104 0.578 10.335,
            4.104 0.578 8.292,
            4.420 0.562 10.335,
            4.420 0.562 8.292,
            4.737 0.562 10.335,
            4.737 0.562 8.292,
            5.053 0.578 10.335,
            5.053 0.578 8.292,
            5.368 0.609 10.335,
            5.368 0.609 8.292,
            5.681 0.656 10.335,
            5.681 0.656 8.292,
            5.991 0.719 10.335,
            5.991 0.719 8.292,
            6.298 0.797 10.335,
            6.298 0.797 8.292,
            6.601 0.890 10.335,
            6.601 0.890 8.292,
            6.898 0.999 10.335,
            6.898 0.999 8.292,
            7.190 1.122 10.335,
            7.190 1.122 8.292,
            7.475 1.259 10.335,
            7.475 1.259 8.292,
            7.753 1.410 10.335,
            7.753 1.410 8.292,
            8.024 1.576 10.335,
            8.024 1.576 8.292,
            8.285 1.754 10.335,
            8.285 1.754 8.292,
            8.538 1.945 10.335,
            8.538 1.945 8.292,
            8.780 2.149 10.335,
            8.780 2.149 8.292,
            9.012 2.364 10.335,
            9.012 2.364 8.292,
            9.233 2.591 10.335,
            9.233 2.591 8.292,
            9.443 2.828 10.335,
            9.443 2.828 8.292,
            9.640 3.076 10.335,
            9.640 3.076 8.292,
            9.825 3.333 10.335,
            9.825 3.333 8.292,
            9.997 3.599 10.335,
            9.997 3.599 8.292,
            10.155 3.873 10.335,
            10.155 3.873 8.292,
            10.300 4.155 10.335,
            10.300 4.155 8.292,
            10.430 4.443 10.335,
            10.430 4.443 8.292,
            10.545 4.738 10.335,
            10.545 4.738 8.292,
            10.646 5.038 10.335,
            10.646 5.038 8.292,
            10.732 5.343 10.335,
            10.732 5.343 8.292,
            10.803 5.652 10.335,
            10.803 5.652 8.292,
            10.858 5.963 10.335,
            10.858 5.963 8.292,
            10.897 6.277 10.335,
            10.897 6.277 8.292,
            10.921 6.593 10.335,
            10.921 6.593 8.292,
            6.653 12.911 9.518,
            6.744 12.879 9.316,
            6.684 12.900 9.316,
            6.625 12.921 9.316,
            6.565 12.941 9.316,
            5.786 13.144 9.134,
            5.826 13.136 9.135,
            5.805 13.140 9.133,
            5.774 13.146 9.137,
            5.843 13.132 9.139,
            5.763 13.148 9.140,
            5.860 13.129 9.145,
            5.754 13.150 9.144,
            5.869 13.127 9.151,
            5.737 13.153 9.154,
            5.880 13.125 9.159,
            5.724 13.156 9.165,
            5.892 13.122 9.171,
            5.714 13.157 9.175,
            5.904 13.120 9.186,
            5.708 13.159 9.184,
            5.909 13.119 9.195,
            5.699 13.160 9.200,
            5.913 13.118 9.206,
            5.694 13.161 9.218,
            5.918 13.117 9.238,
            5.916 13.117 9.218,
            5.692 13.161 9.238,
            5.918 13.117 9.249,
            5.694 13.161 9.258,
            5.916 13.117 9.259,
            5.698 13.160 9.270,
            5.911 13.118 9.278,
            5.702 13.160 9.281,
            5.707 13.159 9.290,
            5.902 13.120 9.295,
            5.720 13.156 9.306,
            5.885 13.124 9.315,
            5.895 13.122 9.305,
            5.732 13.154 9.317,
            5.799 13.141 9.343,
            5.809 13.139 9.343,
            5.822 13.137 9.342,
            5.744 13.152 9.325,
            5.872 13.127 9.326,
            5.789 13.143 9.342,
            5.833 13.135 9.341,
            5.845 13.132 9.338,
            5.754 13.150 9.331,
            5.855 13.130 9.335,
            5.771 13.147 9.338,
            4.277 13.253 9.518,
            4.373 13.256 9.316,
            4.310 13.254 9.316,
            4.247 13.251 9.316,
            4.184 13.247 9.316,
            4.883 0.714 10.515,
            5.186 0.736 10.515,
            5.489 0.773 10.515,
            5.789 0.825 10.515,
            6.086 0.892 10.515,
            8.730 3.820 10.707,
            8.514 2.114 10.515,
            8.744 2.313 10.515,
            8.965 2.523 10.515,
            9.175 2.744 10.515,
            9.374 2.974 10.515,
            9.561 3.214 10.515,
            9.736 3.463 10.515,
            9.899 3.720 10.515,
            10.049 3.985 10.515,
            10.186 4.257 10.515,
            10.310 4.536 10.515,
            6.659 2.768 10.794,
            6.379 0.973 10.515,
            6.668 1.069 10.515,
            6.952 1.178 10.515,
            7.231 1.302 10.515,
            7.503 1.439 10.515,
            7.768 1.589 10.515,
            8.025 1.752 10.515,
            8.274 1.927 10.515,
            8.730 5.878 10.846,
            10.419 4.820 10.515,
            10.515 5.109 10.515,
            10.596 5.402 10.515,
            10.663 5.700 10.515,
            10.715 6.000 10.515,
            10.752 6.302 10.515,
            10.775 6.605 10.515,
            6.659 4.834 11.003,
            8.730 7.941 10.846,
            6.659 6.910 11.072,
            8.730 9.999 10.707,
            6.659 8.985 11.003,
            6.659 11.052 10.794,
            0.476 2.261 8.142,
            0.959 1.876 8.142,
            0.713 2.062 8.142,
            0.249 2.471 8.142,
            0.034 2.693 8.142,
            -0.171 2.924 8.142,
            -0.544 3.417 8.142,
            -0.364 3.166 8.142,
            1.478 1.540 8.142,
            1.215 1.702 8.142,
            -0.712 3.677 8.142,
            -0.867 3.945 8.142,
            1.750 1.393 8.142,
            -1.008 4.220 8.142,
            -1.135 4.501 8.142,
            -1.248 4.789 8.142,
            2.313 1.138 8.142,
            2.899 0.941 8.142,
            2.604 1.033 8.142,
            2.028 1.258 8.142,
            -1.346 5.082 8.142,
            -1.430 5.380 8.142,
            3.502 0.804 8.142,
            3.199 0.865 8.142,
            -1.499 5.681 8.142,
            -1.552 5.986 8.142,
            4.115 0.727 8.142,
            3.808 0.758 8.142,
            -1.591 6.292 8.142,
            -1.614 6.601 8.142,
            4.733 0.712 8.142,
            4.424 0.712 8.142,
            5.349 0.758 8.142,
            5.042 0.727 8.142,
            5.655 0.804 8.142,
            6.258 0.941 8.142,
            5.958 0.865 8.142,
            6.553 1.033 8.142,
            7.128 1.258 8.142,
            6.844 1.138 8.142,
            7.407 1.393 8.142,
            7.942 1.702 8.142,
            7.678 1.540 8.142,
            8.444 2.062 8.142,
            8.198 1.876 8.142,
            8.681 2.261 8.142,
            8.908 2.471 8.142,
            9.328 2.924 8.142,
            9.123 2.693 8.142,
            9.521 3.166 8.142,
            9.869 3.677 8.142,
            9.701 3.417 8.142,
            10.164 4.220 8.142,
            10.023 3.945 8.142,
            10.292 4.501 8.142,
            10.587 5.380 8.142,
            10.405 4.789 8.142,
            10.503 5.082 8.142,
            10.748 6.292 8.142,
            10.656 5.681 8.142,
            10.709 5.986 8.142,
            10.771 6.601 8.142
          ]
        }
        coordIndex [
          0, 1, 2, -1,
          3, 1, 0, -1,
          4, 3, 0, -1,
          5, 3, 4, -1,
          6, 5, 4, -1,
          7, 5, 6, -1,
          8, 7, 6, -1,
          9, 7, 8, -1,
          10, 9, 8, -1,
          11, 9, 10, -1,
          12, 11, 10, -1,
          13, 11, 12, -1,
          14, 13, 12, -1,
          15, 13, 14, -1,
          16, 15, 14, -1,
          17, 15, 16, -1,
          18, 17, 16, -1,
          19, 17, 18, -1,
          20, 19, 18, -1,
          21, 19, 20, -1,
          22, 21, 20, -1,
          23, 21, 22, -1,
          24, 23, 22, -1,
          25, 23, 24, -1,
          26, 25, 24, -1,
          27, 25, 26, -1,
          28, 27, 26, -1,
          29, 27, 28, -1,
          30, 29, 28, -1,
          31, 29, 30, -1,
          32, 31, 30, -1,
          33, 32, 34, -1,
          33, 31, 32, -1,
          35, 33, 34, -1,
          35, 34, 36, -1,
          37, 35, 36, -1,
          37, 36, 38, -1,
          39, 37, 38, -1,
          39, 38, 40, -1,
          41, 40, 42, -1,
          41, 39, 40, -1,
          43, 42, 44, -1,
          43, 41, 42, -1,
          45, 44, 46, -1,
          45, 43, 44, -1,
          47, 46, 48, -1,
          47, 45, 46, -1,
          49, 48, 50, -1,
          49, 47, 48, -1,
          51, 50, 52, -1,
          51, 49, 50, -1,
          53, 52, 54, -1,
          53, 51, 52, -1,
          55, 54, 56, -1,
          55, 53, 54, -1,
          57, 56, 58, -1,
          57, 55, 56, -1,
          59, 57, 58, -1,
          59, 58, 60, -1,
          61, 59, 60, -1,
          61, 60, 62, -1,
          63, 61, 62, -1,
          63, 62, 64, -1,
          65, 64, 66, -1,
          65, 63, 64, -1,
          67, 66, 68, -1,
          67, 65, 66, -1,
          69, 68, 70, -1,
          69, 67, 68, -1,
          71, 70, 72, -1,
          71, 69, 70, -1,
          73, 72, 74, -1,
          73, 71, 72, -1,
          75, 74, 76, -1,
          75, 73, 74, -1,
          77, 76, 78, -1,
          77, 75, 76, -1,
          79, 78, 80, -1,
          79, 77, 78, -1,
          81, 80, 82, -1,
          81, 79, 80, -1,
          83, 82, 84, -1,
          83, 81, 82, -1,
          85, 84, 86, -1,
          85, 83, 84, -1,
          87, 86, 88, -1,
          87, 85, 86, -1,
          89, 87, 88, -1,
          89, 88, 90, -1,
          91, 89, 90, -1,
          91, 90, 92, -1,
          93, 91, 92, -1,
          93, 92, 94, -1,
          95, 94, 96, -1,
          95, 93, 94, -1,
          97, 96, 98, -1,
          97, 95, 96, -1,
          99, 98, 100, -1,
          99, 97, 98, -1,
          101, 100, 102, -1,
          101, 99, 100, -1,
          103, 102, 104, -1,
          103, 101, 102, -1,
          105, 104, 106, -1,
          105, 103, 104, -1,
          107, 106, 108, -1,
          107, 105, 106, -1,
          109, 108, 110, -1,
          109, 107, 108, -1,
          111, 110, 112, -1,
          111, 109, 110, -1,
          113, 112, 114, -1,
          113, 111, 112, -1,
          115, 114, 116, -1,
          115, 113, 114, -1,
          117, 116, 118, -1,
          117, 115, 116, -1,
          119, 118, 120, -1,
          119, 117, 118, -1,
          121, 120, 122, -1,
          121, 119, 120, -1,
          123, 122, 124, -1,
          123, 121, 122, -1,
          125, 124, 126, -1,
          125, 123, 124, -1,
          127, 126, 128, -1,
          127, 125, 126, -1,
          129, 130, 131, -1,
          132, 130, 129, -1,
          133, 132, 129, -1,
          134, 132, 133, -1,
          135, 134, 133, -1,
          136, 134, 135, -1,
          137, 136, 135, -1,
          138, 136, 137, -1,
          139, 138, 137, -1,
          140, 138, 139, -1,
          141, 140, 139, -1,
          142, 140, 141, -1,
          143, 142, 141, -1,
          144, 142, 143, -1,
          145, 144, 143, -1,
          146, 144, 145, -1,
          147, 146, 145, -1,
          148, 146, 147, -1,
          149, 148, 147, -1,
          150, 148, 149, -1,
          151, 150, 149, -1,
          152, 150, 151, -1,
          153, 152, 151, -1,
          154, 152, 153, -1,
          155, 154, 153, -1,
          156, 154, 155, -1,
          157, 156, 155, -1,
          158, 156, 157, -1,
          159, 158, 157, -1,
          160, 158, 159, -1,
          161, 160, 159, -1,
          162, 160, 161, -1,
          163, 162, 161, -1,
          164, 162, 163, -1,
          165, 164, 163, -1,
          166, 164, 165, -1,
          167, 166, 165, -1,
          168, 166, 167, -1,
          169, 168, 167, -1,
          170, 168, 169, -1,
          171, 170, 169, -1,
          172, 170, 171, -1,
          173, 172, 171, -1,
          174, 172, 173, -1,
          175, 174, 173, -1,
          176, 174, 175, -1,
          177, 176, 175, -1,
          178, 176, 177, -1,
          179, 178, 177, -1,
          180, 178, 179, -1,
          181, 180, 179, -1,
          182, 180, 181, -1,
          183, 182, 181, -1,
          184, 182, 183, -1,
          185, 184, 183, -1,
          186, 184, 185, -1,
          187, 186, 185, -1,
          188, 186, 187, -1,
          189, 188, 187, -1,
          190, 188, 189, -1,
          191, 190, 189, -1,
          192, 190, 191, -1,
          193, 192, 191, -1,
          194, 192, 193, -1,
          195, 194, 193, -1,
          196, 194, 195, -1,
          197, 196, 195, -1,
          198, 196, 197, -1,
          199, 197, 200, -1,
          199, 198, 197, -1,
          201, 199, 200, -1,
          202, 199, 201, -1,
          203, 202, 201, -1,
          204, 202, 203, -1,
          205, 204, 203, -1,
          206, 204, 205, -1,
          207, 206, 205, -1,
          208, 206, 207, -1,
          209, 208, 207, -1,
          210, 208, 209, -1,
          211, 209, 212, -1,
          211, 210, 209, -1,
          213, 211, 212, -1,
          214, 211, 213, -1,
          215, 214, 213, -1,
          216, 214, 215, -1,
          217, 216, 215, -1,
          218, 216, 217, -1,
          219, 218, 217, -1,
          220, 218, 219, -1,
          221, 220, 219, -1,
          222, 220, 221, -1,
          223, 222, 221, -1,
          223, 221, 224, -1,
          225, 223, 224, -1,
          226, 223, 225, -1,
          227, 226, 225, -1,
          228, 226, 227, -1,
          229, 227, 230, -1,
          229, 228, 227, -1,
          231, 229, 230, -1,
          232, 229, 231, -1,
          233, 231, 234, -1,
          233, 232, 231, -1,
          235, 234, 236, -1,
          235, 233, 234, -1,
          237, 236, 238, -1,
          237, 235, 236, -1,
          239, 238, 240, -1,
          239, 237, 238, -1,
          241, 239, 240, -1,
          242, 239, 241, -1,
          243, 241, 244, -1,
          243, 242, 241, -1,
          245, 244, 246, -1,
          245, 243, 244, -1,
          247, 246, 248, -1,
          247, 245, 246, -1,
          249, 248, 250, -1,
          249, 247, 248, -1,
          251, 250, 252, -1,
          251, 249, 250, -1,
          253, 252, 254, -1,
          253, 251, 252, -1,
          255, 253, 254, -1,
          256, 253, 255, -1,
          257, 258, 259, -1,
          257, 259, 260, -1,
          257, 260, 261, -1,
          262, 258, 257, -1,
          62, 263, 64, -1,
          60, 263, 62, -1,
          58, 263, 60, -1,
          56, 263, 58, -1,
          264, 265, 266, -1,
          264, 266, 267, -1,
          264, 267, 268, -1,
          264, 268, 269, -1,
          264, 269, 270, -1,
          264, 270, 271, -1,
          264, 271, 272, -1,
          264, 272, 262, -1,
          264, 257, 273, -1,
          264, 262, 257, -1,
          274, 264, 273, -1,
          274, 275, 265, -1,
          274, 273, 276, -1,
          274, 265, 264, -1,
          277, 275, 274, -1,
          277, 278, 279, -1,
          277, 279, 280, -1,
          277, 280, 281, -1,
          277, 281, 282, -1,
          277, 282, 283, -1,
          277, 283, 275, -1,
          284, 274, 276, -1,
          284, 276, 285, -1,
          284, 285, 286, -1,
          287, 277, 274, -1,
          287, 278, 277, -1,
          287, 274, 284, -1,
          287, 288, 289, -1,
          287, 289, 290, -1,
          287, 290, 291, -1,
          287, 291, 292, -1,
          287, 292, 293, -1,
          287, 293, 294, -1,
          287, 294, 295, -1,
          287, 295, 296, -1,
          287, 296, 278, -1,
          297, 284, 286, -1,
          297, 298, 299, -1,
          297, 286, 298, -1,
          300, 288, 287, -1,
          300, 287, 284, -1,
          300, 8, 6, -1,
          300, 6, 4, -1,
          300, 4, 0, -1,
          300, 0, 2, -1,
          300, 2, 301, -1,
          300, 284, 297, -1,
          300, 301, 302, -1,
          300, 302, 303, -1,
          300, 303, 288, -1,
          304, 40, 38, -1,
          304, 297, 299, -1,
          304, 299, 305, -1,
          306, 300, 297, -1,
          306, 26, 24, -1,
          306, 24, 22, -1,
          306, 22, 20, -1,
          306, 20, 18, -1,
          306, 18, 16, -1,
          306, 16, 14, -1,
          306, 14, 12, -1,
          306, 12, 10, -1,
          306, 10, 8, -1,
          306, 297, 304, -1,
          306, 8, 300, -1,
          307, 56, 54, -1,
          307, 54, 52, -1,
          307, 52, 50, -1,
          307, 50, 48, -1,
          307, 48, 46, -1,
          307, 46, 44, -1,
          307, 40, 304, -1,
          307, 44, 42, -1,
          307, 42, 40, -1,
          307, 304, 305, -1,
          307, 305, 263, -1,
          307, 263, 56, -1,
          308, 304, 38, -1,
          308, 38, 36, -1,
          308, 36, 34, -1,
          308, 34, 32, -1,
          308, 32, 30, -1,
          308, 30, 28, -1,
          308, 28, 26, -1,
          308, 26, 306, -1,
          308, 306, 304, -1,
          125, 130, 132, -1,
          125, 127, 130, -1,
          123, 132, 134, -1,
          123, 125, 132, -1,
          121, 134, 136, -1,
          121, 123, 134, -1,
          119, 136, 138, -1,
          119, 121, 136, -1,
          117, 138, 140, -1,
          117, 119, 138, -1,
          115, 140, 142, -1,
          115, 117, 140, -1,
          113, 142, 144, -1,
          113, 115, 142, -1,
          111, 144, 146, -1,
          111, 113, 144, -1,
          109, 146, 148, -1,
          109, 111, 146, -1,
          107, 148, 150, -1,
          107, 109, 148, -1,
          105, 150, 152, -1,
          105, 107, 150, -1,
          103, 152, 154, -1,
          103, 105, 152, -1,
          101, 154, 156, -1,
          101, 103, 154, -1,
          99, 156, 158, -1,
          99, 101, 156, -1,
          97, 158, 160, -1,
          97, 99, 158, -1,
          95, 160, 162, -1,
          95, 162, 164, -1,
          95, 97, 160, -1,
          93, 95, 164, -1,
          91, 164, 166, -1,
          91, 166, 168, -1,
          91, 93, 164, -1,
          89, 91, 168, -1,
          87, 168, 170, -1,
          87, 170, 172, -1,
          87, 89, 168, -1,
          85, 172, 174, -1,
          85, 87, 172, -1,
          309, 174, 176, -1,
          83, 85, 174, -1,
          83, 174, 309, -1,
          310, 309, 176, -1,
          311, 83, 309, -1,
          312, 176, 178, -1,
          312, 310, 176, -1,
          313, 314, 315, -1,
          313, 315, 316, -1,
          317, 312, 178, -1,
          318, 313, 316, -1,
          319, 317, 178, -1,
          319, 318, 317, -1,
          320, 319, 178, -1,
          321, 320, 178, -1,
          322, 321, 178, -1,
          180, 322, 178, -1,
          81, 83, 311, -1,
          81, 311, 323, -1,
          81, 323, 324, -1,
          81, 324, 313, -1,
          325, 326, 322, -1,
          325, 322, 180, -1,
          327, 325, 180, -1,
          79, 313, 318, -1,
          79, 81, 313, -1,
          328, 327, 180, -1,
          328, 329, 327, -1,
          330, 180, 182, -1,
          330, 328, 180, -1,
          331, 330, 182, -1,
          332, 331, 182, -1,
          77, 79, 333, -1,
          77, 333, 334, -1,
          77, 334, 335, -1,
          77, 335, 336, -1,
          337, 332, 182, -1,
          338, 337, 182, -1,
          339, 338, 182, -1,
          340, 182, 184, -1,
          340, 339, 182, -1,
          341, 77, 336, -1,
          341, 332, 337, -1,
          342, 341, 337, -1,
          343, 342, 337, -1,
          344, 343, 337, -1,
          345, 340, 184, -1,
          346, 340, 345, -1,
          347, 345, 184, -1,
          348, 340, 346, -1,
          349, 347, 184, -1,
          75, 341, 350, -1,
          75, 350, 351, -1,
          75, 351, 352, -1,
          75, 352, 353, -1,
          75, 77, 341, -1,
          354, 340, 348, -1,
          355, 349, 184, -1,
          356, 340, 354, -1,
          357, 353, 340, -1,
          357, 340, 356, -1,
          358, 355, 184, -1,
          359, 358, 184, -1,
          360, 353, 357, -1,
          361, 353, 360, -1,
          362, 359, 184, -1,
          363, 353, 361, -1,
          364, 362, 184, -1,
          365, 353, 363, -1,
          366, 364, 184, -1,
          367, 353, 365, -1,
          368, 366, 184, -1,
          369, 353, 367, -1,
          370, 368, 184, -1,
          371, 370, 184, -1,
          372, 184, 186, -1,
          372, 371, 184, -1,
          373, 372, 186, -1,
          374, 373, 186, -1,
          375, 374, 186, -1,
          376, 375, 186, -1,
          377, 376, 186, -1,
          378, 377, 186, -1,
          379, 378, 186, -1,
          380, 379, 186, -1,
          381, 380, 186, -1,
          382, 381, 186, -1,
          383, 382, 186, -1,
          384, 383, 186, -1,
          385, 384, 186, -1,
          386, 385, 186, -1,
          73, 75, 353, -1,
          73, 353, 369, -1,
          73, 369, 387, -1,
          73, 387, 388, -1,
          73, 388, 389, -1,
          390, 73, 389, -1,
          391, 392, 393, -1,
          391, 393, 394, -1,
          391, 394, 395, -1,
          391, 395, 396, -1,
          391, 396, 397, -1,
          391, 397, 398, -1,
          391, 398, 399, -1,
          391, 399, 400, -1,
          391, 400, 401, -1,
          402, 403, 404, -1,
          402, 404, 405, -1,
          402, 405, 406, -1,
          402, 406, 386, -1,
          402, 186, 188, -1,
          402, 386, 186, -1,
          407, 402, 188, -1,
          408, 407, 188, -1,
          409, 408, 188, -1,
          410, 401, 411, -1,
          410, 403, 402, -1,
          410, 411, 412, -1,
          410, 412, 413, -1,
          410, 413, 414, -1,
          410, 414, 415, -1,
          410, 415, 403, -1,
          410, 391, 401, -1,
          416, 410, 402, -1,
          417, 416, 402, -1,
          190, 409, 188, -1,
          71, 391, 410, -1,
          71, 73, 390, -1,
          71, 410, 418, -1,
          71, 390, 391, -1,
          419, 417, 402, -1,
          420, 409, 190, -1,
          421, 420, 190, -1,
          422, 421, 190, -1,
          69, 71, 418, -1,
          69, 418, 423, -1,
          69, 423, 424, -1,
          69, 424, 425, -1,
          426, 190, 192, -1,
          426, 422, 190, -1,
          427, 69, 425, -1,
          427, 425, 409, -1,
          427, 409, 420, -1,
          428, 427, 420, -1,
          429, 428, 420, -1,
          430, 429, 420, -1,
          431, 426, 192, -1,
          432, 426, 431, -1,
          432, 433, 426, -1,
          67, 69, 427, -1,
          67, 427, 434, -1,
          67, 434, 435, -1,
          67, 435, 436, -1,
          67, 436, 433, -1,
          437, 431, 192, -1,
          438, 437, 192, -1,
          439, 192, 194, -1,
          439, 438, 192, -1,
          440, 438, 439, -1,
          441, 439, 194, -1,
          442, 441, 194, -1,
          443, 442, 194, -1,
          65, 432, 444, -1,
          65, 444, 445, -1,
          65, 445, 446, -1,
          65, 67, 433, -1,
          65, 433, 432, -1,
          447, 443, 194, -1,
          447, 448, 443, -1,
          449, 447, 194, -1,
          449, 194, 196, -1,
          450, 449, 196, -1,
          450, 451, 449, -1,
          452, 450, 196, -1,
          453, 452, 196, -1,
          63, 65, 446, -1,
          63, 454, 455, -1,
          63, 455, 456, -1,
          63, 456, 457, -1,
          458, 453, 196, -1,
          458, 196, 198, -1,
          61, 63, 457, -1,
          459, 460, 198, -1,
          461, 198, 199, -1,
          461, 459, 198, -1,
          462, 461, 199, -1,
          463, 458, 198, -1,
          463, 198, 460, -1,
          464, 61, 458, -1,
          464, 458, 463, -1,
          465, 463, 460, -1,
          466, 465, 460, -1,
          467, 466, 460, -1,
          468, 467, 460, -1,
          469, 468, 460, -1,
          470, 471, 472, -1,
          473, 474, 462, -1,
          475, 473, 462, -1,
          476, 475, 462, -1,
          477, 476, 462, -1,
          59, 464, 478, -1,
          59, 478, 479, -1,
          59, 479, 480, -1,
          59, 480, 481, -1,
          59, 481, 482, -1,
          59, 482, 483, -1,
          59, 483, 471, -1,
          59, 470, 484, -1,
          59, 484, 485, -1,
          59, 61, 464, -1,
          59, 471, 470, -1,
          486, 477, 462, -1,
          486, 462, 199, -1,
          487, 488, 199, -1,
          489, 486, 199, -1,
          489, 199, 488, -1,
          490, 487, 199, -1,
          491, 486, 489, -1,
          492, 490, 199, -1,
          493, 486, 491, -1,
          494, 492, 199, -1,
          495, 486, 493, -1,
          496, 494, 199, -1,
          497, 496, 199, -1,
          497, 199, 202, -1,
          498, 486, 495, -1,
          499, 486, 498, -1,
          500, 497, 202, -1,
          501, 502, 486, -1,
          501, 486, 499, -1,
          503, 500, 202, -1,
          504, 502, 501, -1,
          505, 503, 202, -1,
          506, 502, 504, -1,
          507, 505, 202, -1,
          508, 507, 202, -1,
          509, 502, 506, -1,
          510, 508, 202, -1,
          511, 502, 509, -1,
          512, 510, 202, -1,
          513, 512, 202, -1,
          514, 513, 202, -1,
          515, 514, 202, -1,
          516, 515, 202, -1,
          57, 485, 517, -1,
          57, 517, 518, -1,
          57, 518, 519, -1,
          57, 519, 520, -1,
          57, 520, 521, -1,
          57, 521, 522, -1,
          57, 522, 523, -1,
          57, 523, 524, -1,
          57, 524, 502, -1,
          57, 525, 526, -1,
          57, 527, 525, -1,
          57, 528, 527, -1,
          57, 511, 528, -1,
          57, 59, 485, -1,
          57, 502, 511, -1,
          529, 516, 202, -1,
          530, 529, 202, -1,
          531, 530, 202, -1,
          532, 531, 202, -1,
          533, 532, 202, -1,
          534, 533, 202, -1,
          534, 202, 204, -1,
          535, 534, 204, -1,
          536, 535, 204, -1,
          537, 536, 204, -1,
          538, 537, 204, -1,
          539, 538, 204, -1,
          540, 539, 204, -1,
          541, 540, 204, -1,
          542, 541, 204, -1,
          543, 542, 204, -1,
          544, 543, 204, -1,
          545, 544, 204, -1,
          546, 545, 204, -1,
          55, 57, 526, -1,
          55, 547, 548, -1,
          55, 549, 547, -1,
          55, 550, 549, -1,
          55, 526, 550, -1,
          55, 551, 552, -1,
          55, 553, 551, -1,
          55, 554, 553, -1,
          55, 555, 554, -1,
          55, 556, 555, -1,
          55, 557, 556, -1,
          55, 558, 557, -1,
          55, 559, 558, -1,
          55, 560, 559, -1,
          55, 561, 560, -1,
          55, 562, 561, -1,
          55, 563, 562, -1,
          55, 548, 563, -1,
          55, 564, 565, -1,
          55, 552, 564, -1,
          566, 546, 204, -1,
          567, 566, 204, -1,
          568, 569, 567, -1,
          568, 570, 569, -1,
          571, 568, 567, -1,
          571, 204, 206, -1,
          571, 567, 204, -1,
          572, 571, 206, -1,
          573, 574, 575, -1,
          576, 572, 206, -1,
          577, 576, 206, -1,
          578, 574, 573, -1,
          578, 579, 574, -1,
          580, 577, 206, -1,
          581, 580, 206, -1,
          582, 581, 206, -1,
          583, 582, 206, -1,
          584, 583, 206, -1,
          53, 55, 565, -1,
          53, 579, 578, -1,
          53, 585, 586, -1,
          53, 565, 585, -1,
          53, 587, 588, -1,
          53, 589, 587, -1,
          53, 590, 589, -1,
          53, 591, 590, -1,
          53, 592, 591, -1,
          53, 593, 592, -1,
          53, 594, 593, -1,
          53, 595, 594, -1,
          53, 596, 595, -1,
          53, 586, 596, -1,
          53, 597, 579, -1,
          53, 588, 597, -1,
          598, 584, 206, -1,
          599, 598, 206, -1,
          600, 599, 206, -1,
          601, 600, 206, -1,
          602, 601, 206, -1,
          603, 206, 208, -1,
          603, 602, 206, -1,
          604, 603, 208, -1,
          605, 604, 208, -1,
          606, 605, 208, -1,
          607, 606, 208, -1,
          608, 607, 208, -1,
          609, 608, 208, -1,
          610, 609, 208, -1,
          611, 610, 208, -1,
          612, 611, 208, -1,
          613, 612, 208, -1,
          614, 613, 208, -1,
          615, 614, 208, -1,
          616, 615, 208, -1,
          617, 616, 208, -1,
          51, 618, 619, -1,
          51, 620, 618, -1,
          51, 621, 620, -1,
          51, 53, 578, -1,
          51, 622, 623, -1,
          51, 624, 621, -1,
          51, 578, 624, -1,
          51, 625, 622, -1,
          51, 626, 625, -1,
          51, 627, 626, -1,
          51, 628, 627, -1,
          51, 629, 628, -1,
          51, 630, 629, -1,
          51, 631, 630, -1,
          51, 632, 631, -1,
          51, 633, 632, -1,
          51, 619, 633, -1,
          634, 617, 208, -1,
          635, 634, 208, -1,
          636, 635, 208, -1,
          637, 636, 208, -1,
          637, 208, 210, -1,
          638, 637, 210, -1,
          639, 638, 210, -1,
          640, 639, 210, -1,
          641, 640, 210, -1,
          642, 641, 210, -1,
          643, 642, 210, -1,
          644, 643, 210, -1,
          645, 644, 210, -1,
          646, 645, 210, -1,
          49, 647, 648, -1,
          49, 649, 647, -1,
          49, 623, 649, -1,
          49, 650, 651, -1,
          49, 652, 650, -1,
          49, 653, 652, -1,
          49, 654, 653, -1,
          49, 655, 654, -1,
          49, 656, 655, -1,
          49, 657, 656, -1,
          49, 658, 657, -1,
          49, 659, 658, -1,
          49, 660, 659, -1,
          49, 648, 660, -1,
          49, 661, 662, -1,
          49, 663, 661, -1,
          49, 651, 663, -1,
          49, 51, 623, -1,
          47, 49, 662, -1,
          47, 210, 211, -1,
          47, 664, 665, -1,
          47, 662, 664, -1,
          47, 666, 667, -1,
          47, 668, 666, -1,
          47, 669, 668, -1,
          47, 670, 669, -1,
          47, 671, 670, -1,
          47, 665, 671, -1,
          47, 672, 646, -1,
          47, 667, 672, -1,
          47, 646, 210, -1,
          45, 47, 211, -1,
          43, 211, 214, -1,
          43, 214, 216, -1,
          43, 45, 211, -1,
          41, 43, 216, -1,
          39, 41, 216, -1,
          39, 216, 218, -1,
          37, 39, 218, -1,
          37, 218, 220, -1,
          37, 220, 222, -1,
          35, 37, 222, -1,
          35, 222, 223, -1,
          33, 35, 223, -1,
          33, 223, 226, -1,
          31, 33, 226, -1,
          29, 31, 226, -1,
          29, 226, 228, -1,
          27, 29, 228, -1,
          27, 228, 229, -1,
          27, 229, 232, -1,
          25, 27, 232, -1,
          23, 25, 232, -1,
          23, 232, 233, -1,
          23, 233, 235, -1,
          21, 23, 235, -1,
          21, 235, 237, -1,
          19, 21, 237, -1,
          17, 237, 239, -1,
          17, 19, 237, -1,
          15, 239, 242, -1,
          15, 17, 239, -1,
          13, 242, 243, -1,
          13, 243, 245, -1,
          13, 15, 242, -1,
          11, 13, 245, -1,
          9, 245, 247, -1,
          9, 11, 245, -1,
          7, 247, 249, -1,
          7, 9, 247, -1,
          5, 249, 251, -1,
          5, 7, 249, -1,
          3, 251, 253, -1,
          3, 5, 251, -1,
          1, 253, 256, -1,
          1, 3, 253, -1,
          673, 462, 474, -1,
          439, 454, 440, -1,
          440, 454, 446, -1,
          446, 454, 63, -1,
          457, 458, 61, -1,
          391, 674, 675, -1,
          391, 675, 676, -1,
          391, 676, 677, -1,
          391, 677, 678, -1,
          391, 678, 679, -1,
          391, 679, 392, -1,
          319, 333, 318, -1,
          318, 333, 79, -1,
          336, 332, 341, -1,
          680, 681, 682, -1,
          680, 682, 683, -1,
          684, 681, 680, -1,
          685, 681, 684, -1,
          686, 687, 681, -1,
          686, 681, 685, -1,
          688, 689, 687, -1,
          688, 687, 686, -1,
          690, 691, 689, -1,
          690, 689, 688, -1,
          692, 691, 690, -1,
          692, 693, 691, -1,
          694, 693, 692, -1,
          694, 695, 693, -1,
          696, 695, 694, -1,
          696, 697, 695, -1,
          698, 697, 696, -1,
          698, 699, 697, -1,
          700, 699, 698, -1,
          700, 701, 699, -1,
          702, 701, 700, -1,
          702, 703, 704, -1,
          702, 704, 701, -1,
          705, 703, 702, -1,
          705, 706, 703, -1,
          707, 708, 709, -1,
          707, 709, 710, -1,
          707, 710, 706, -1,
          707, 706, 705, -1,
          711, 712, 713, -1,
          714, 715, 708, -1,
          714, 712, 711, -1,
          714, 707, 712, -1,
          714, 708, 707, -1,
          716, 717, 718, -1,
          719, 718, 720, -1,
          719, 720, 721, -1,
          719, 716, 718, -1,
          722, 723, 724, -1,
          722, 724, 725, -1,
          722, 725, 715, -1,
          722, 715, 714, -1,
          726, 727, 723, -1,
          726, 723, 722, -1,
          728, 729, 719, -1,
          730, 731, 727, -1,
          730, 727, 726, -1,
          732, 719, 721, -1,
          732, 728, 719, -1,
          733, 734, 731, -1,
          733, 731, 730, -1,
          735, 736, 734, -1,
          735, 734, 733, -1,
          737, 721, 738, -1,
          737, 732, 721, -1,
          739, 740, 736, -1,
          739, 736, 735, -1,
          741, 738, 742, -1,
          741, 737, 738, -1,
          743, 742, 740, -1,
          743, 741, 742, -1,
          743, 740, 739, -1,
          744, 745, 746, -1,
          747, 748, 745, -1,
          747, 745, 744, -1,
          749, 748, 747, -1,
          750, 751, 748, -1,
          750, 748, 749, -1,
          752, 753, 751, -1,
          752, 751, 750, -1,
          754, 755, 753, -1,
          754, 753, 752, -1,
          756, 757, 758, -1,
          759, 760, 761, -1,
          759, 761, 755, -1,
          759, 755, 754, -1,
          762, 760, 759, -1,
          763, 760, 762, -1,
          763, 764, 760, -1,
          765, 756, 758, -1,
          766, 764, 763, -1,
          766, 767, 764, -1,
          768, 767, 766, -1,
          769, 770, 767, -1,
          769, 767, 768, -1,
          771, 770, 769, -1,
          771, 772, 770, -1,
          773, 772, 771, -1,
          774, 772, 773, -1,
          775, 765, 758, -1,
          775, 772, 774, -1,
          775, 758, 772, -1,
          776, 765, 775, -1,
          777, 765, 776, -1,
          778, 779, 765, -1,
          778, 765, 777, -1,
          780, 779, 778, -1,
          780, 781, 779, -1,
          782, 783, 781, -1,
          782, 781, 780, -1,
          784, 785, 783, -1,
          784, 783, 782, -1,
          786, 787, 785, -1,
          786, 785, 784, -1,
          788, 787, 786, -1,
          789, 790, 791, -1,
          789, 791, 787, -1,
          789, 787, 788, -1,
          792, 793, 794, -1,
          792, 794, 795, -1,
          792, 795, 796, -1,
          797, 798, 790, -1,
          797, 790, 789, -1,
          799, 796, 800, -1,
          799, 792, 796, -1,
          801, 802, 798, -1,
          801, 798, 797, -1,
          803, 800, 804, -1,
          803, 804, 802, -1,
          803, 802, 801, -1,
          803, 799, 800, -1,
          693, 503, 505, -1,
          691, 693, 505, -1,
          691, 505, 507, -1,
          691, 507, 508, -1,
          695, 503, 693, -1,
          695, 497, 500, -1,
          695, 500, 503, -1,
          689, 691, 508, -1,
          689, 508, 510, -1,
          697, 497, 695, -1,
          697, 494, 496, -1,
          697, 496, 497, -1,
          687, 689, 510, -1,
          687, 510, 512, -1,
          687, 512, 513, -1,
          699, 494, 697, -1,
          699, 490, 492, -1,
          699, 492, 494, -1,
          681, 687, 513, -1,
          681, 513, 514, -1,
          681, 514, 515, -1,
          681, 515, 516, -1,
          682, 681, 516, -1,
          682, 516, 529, -1,
          701, 488, 487, -1,
          701, 487, 490, -1,
          701, 490, 699, -1,
          704, 488, 701, -1,
          704, 489, 488, -1,
          683, 529, 530, -1,
          683, 530, 531, -1,
          683, 682, 529, -1,
          703, 491, 489, -1,
          703, 489, 704, -1,
          680, 531, 532, -1,
          680, 532, 533, -1,
          680, 683, 531, -1,
          706, 491, 703, -1,
          706, 495, 493, -1,
          706, 493, 491, -1,
          684, 533, 534, -1,
          684, 534, 535, -1,
          684, 535, 536, -1,
          684, 680, 533, -1,
          710, 495, 706, -1,
          710, 498, 495, -1,
          709, 498, 710, -1,
          685, 536, 537, -1,
          685, 537, 538, -1,
          685, 684, 536, -1,
          708, 498, 709, -1,
          708, 501, 499, -1,
          708, 499, 498, -1,
          686, 538, 539, -1,
          686, 685, 538, -1,
          715, 501, 708, -1,
          715, 504, 501, -1,
          688, 539, 540, -1,
          688, 686, 539, -1,
          688, 540, 541, -1,
          725, 504, 715, -1,
          725, 509, 506, -1,
          725, 506, 504, -1,
          690, 541, 542, -1,
          690, 688, 541, -1,
          724, 509, 725, -1,
          724, 511, 509, -1,
          692, 542, 543, -1,
          692, 690, 542, -1,
          694, 543, 544, -1,
          694, 692, 543, -1,
          723, 511, 724, -1,
          723, 527, 528, -1,
          723, 528, 511, -1,
          696, 544, 545, -1,
          696, 694, 544, -1,
          727, 527, 723, -1,
          727, 525, 527, -1,
          698, 545, 546, -1,
          698, 696, 545, -1,
          731, 525, 727, -1,
          731, 550, 526, -1,
          731, 526, 525, -1,
          734, 547, 549, -1,
          734, 550, 731, -1,
          734, 549, 550, -1,
          700, 698, 546, -1,
          736, 548, 547, -1,
          736, 547, 734, -1,
          566, 700, 546, -1,
          740, 548, 736, -1,
          563, 548, 740, -1,
          702, 700, 566, -1,
          742, 563, 740, -1,
          562, 563, 742, -1,
          567, 702, 566, -1,
          567, 705, 702, -1,
          561, 742, 738, -1,
          561, 562, 742, -1,
          560, 561, 738, -1,
          707, 705, 567, -1,
          559, 738, 721, -1,
          559, 560, 738, -1,
          558, 559, 721, -1,
          569, 707, 567, -1,
          557, 558, 721, -1,
          557, 721, 720, -1,
          556, 557, 720, -1,
          712, 707, 569, -1,
          555, 556, 720, -1,
          555, 720, 718, -1,
          570, 712, 569, -1,
          554, 555, 718, -1,
          554, 718, 717, -1,
          713, 712, 570, -1,
          553, 554, 717, -1,
          551, 717, 716, -1,
          551, 553, 717, -1,
          552, 716, 719, -1,
          552, 551, 716, -1,
          564, 552, 719, -1,
          565, 564, 719, -1,
          565, 719, 729, -1,
          585, 565, 729, -1,
          586, 729, 728, -1,
          586, 585, 729, -1,
          596, 586, 728, -1,
          595, 596, 728, -1,
          595, 728, 732, -1,
          770, 571, 572, -1,
          767, 770, 572, -1,
          772, 568, 571, -1,
          772, 571, 770, -1,
          764, 767, 572, -1,
          764, 572, 576, -1,
          760, 764, 576, -1,
          760, 576, 577, -1,
          594, 595, 732, -1,
          594, 732, 737, -1,
          758, 570, 568, -1,
          758, 568, 772, -1,
          761, 577, 580, -1,
          761, 760, 577, -1,
          757, 570, 758, -1,
          757, 713, 570, -1,
          593, 594, 737, -1,
          755, 580, 581, -1,
          755, 761, 580, -1,
          592, 593, 737, -1,
          592, 737, 741, -1,
          753, 581, 582, -1,
          753, 582, 583, -1,
          753, 755, 581, -1,
          591, 592, 741, -1,
          575, 713, 757, -1,
          575, 711, 713, -1,
          575, 714, 711, -1,
          590, 591, 741, -1,
          590, 741, 743, -1,
          751, 753, 583, -1,
          751, 583, 584, -1,
          751, 584, 598, -1,
          574, 714, 575, -1,
          574, 722, 714, -1,
          589, 590, 743, -1,
          589, 743, 739, -1,
          579, 722, 574, -1,
          579, 726, 722, -1,
          587, 589, 739, -1,
          587, 735, 733, -1,
          587, 739, 735, -1,
          597, 726, 579, -1,
          588, 587, 733, -1,
          588, 726, 597, -1,
          588, 730, 726, -1,
          588, 733, 730, -1,
          748, 598, 599, -1,
          748, 751, 598, -1,
          745, 599, 600, -1,
          745, 600, 601, -1,
          745, 748, 599, -1,
          746, 745, 601, -1,
          746, 601, 602, -1,
          746, 602, 603, -1,
          756, 575, 757, -1,
          744, 603, 604, -1,
          744, 746, 603, -1,
          573, 575, 756, -1,
          747, 604, 605, -1,
          747, 605, 606, -1,
          747, 606, 607, -1,
          747, 744, 604, -1,
          749, 607, 608, -1,
          749, 608, 609, -1,
          749, 609, 610, -1,
          749, 747, 607, -1,
          765, 573, 756, -1,
          578, 573, 765, -1,
          750, 610, 611, -1,
          750, 749, 610, -1,
          752, 611, 612, -1,
          752, 612, 613, -1,
          752, 750, 611, -1,
          779, 578, 765, -1,
          754, 613, 614, -1,
          754, 614, 615, -1,
          754, 752, 613, -1,
          624, 578, 779, -1,
          759, 615, 616, -1,
          759, 754, 615, -1,
          781, 624, 779, -1,
          621, 624, 781, -1,
          783, 621, 781, -1,
          617, 762, 759, -1,
          617, 759, 616, -1,
          634, 762, 617, -1,
          634, 763, 762, -1,
          620, 621, 783, -1,
          620, 783, 785, -1,
          787, 620, 785, -1,
          635, 763, 634, -1,
          618, 620, 787, -1,
          636, 763, 635, -1,
          636, 766, 763, -1,
          637, 766, 636, -1,
          637, 768, 766, -1,
          619, 618, 787, -1,
          619, 791, 790, -1,
          619, 787, 791, -1,
          638, 768, 637, -1,
          633, 619, 790, -1,
          633, 790, 798, -1,
          639, 769, 768, -1,
          639, 768, 638, -1,
          640, 769, 639, -1,
          632, 633, 798, -1,
          641, 771, 769, -1,
          641, 769, 640, -1,
          631, 632, 798, -1,
          631, 798, 802, -1,
          630, 631, 802, -1,
          642, 771, 641, -1,
          629, 630, 802, -1,
          629, 802, 804, -1,
          643, 773, 771, -1,
          643, 771, 642, -1,
          628, 629, 804, -1,
          628, 804, 800, -1,
          644, 774, 773, -1,
          644, 773, 643, -1,
          627, 628, 800, -1,
          627, 800, 796, -1,
          645, 775, 774, -1,
          645, 774, 644, -1,
          626, 627, 796, -1,
          626, 796, 795, -1,
          646, 775, 645, -1,
          646, 776, 775, -1,
          625, 626, 795, -1,
          672, 776, 646, -1,
          672, 777, 776, -1,
          622, 625, 795, -1,
          667, 777, 672, -1,
          623, 795, 794, -1,
          623, 622, 795, -1,
          649, 623, 794, -1,
          666, 778, 777, -1,
          666, 777, 667, -1,
          668, 780, 778, -1,
          668, 778, 666, -1,
          647, 794, 793, -1,
          647, 649, 794, -1,
          669, 780, 668, -1,
          648, 793, 792, -1,
          648, 647, 793, -1,
          670, 782, 780, -1,
          670, 780, 669, -1,
          660, 648, 792, -1,
          671, 784, 782, -1,
          671, 782, 670, -1,
          659, 792, 799, -1,
          659, 660, 792, -1,
          665, 786, 784, -1,
          665, 784, 671, -1,
          658, 659, 799, -1,
          664, 788, 786, -1,
          664, 786, 665, -1,
          657, 658, 799, -1,
          662, 788, 664, -1,
          656, 799, 803, -1,
          656, 657, 799, -1,
          661, 789, 788, -1,
          661, 788, 662, -1,
          655, 656, 803, -1,
          663, 789, 661, -1,
          654, 803, 801, -1,
          654, 655, 803, -1,
          653, 654, 801, -1,
          651, 797, 789, -1,
          651, 789, 663, -1,
          652, 801, 797, -1,
          652, 653, 801, -1,
          650, 652, 797, -1,
          650, 797, 651, -1,
          805, 1, 256, -1,
          805, 256, 806, -1,
          807, 806, 808, -1,
          807, 805, 806, -1,
          809, 808, 810, -1,
          809, 807, 808, -1,
          811, 810, 812, -1,
          811, 809, 810, -1,
          813, 812, 814, -1,
          813, 811, 812, -1,
          815, 814, 816, -1,
          815, 813, 814, -1,
          817, 816, 818, -1,
          817, 815, 816, -1,
          819, 818, 820, -1,
          819, 817, 818, -1,
          821, 820, 822, -1,
          821, 819, 820, -1,
          823, 822, 824, -1,
          823, 821, 822, -1,
          825, 824, 826, -1,
          825, 823, 824, -1,
          827, 826, 828, -1,
          827, 825, 826, -1,
          829, 828, 830, -1,
          829, 827, 828, -1,
          831, 830, 832, -1,
          831, 829, 830, -1,
          833, 832, 834, -1,
          833, 831, 832, -1,
          835, 834, 836, -1,
          835, 833, 834, -1,
          837, 836, 838, -1,
          837, 835, 836, -1,
          839, 838, 840, -1,
          839, 837, 838, -1,
          841, 839, 840, -1,
          841, 840, 842, -1,
          843, 841, 842, -1,
          843, 842, 844, -1,
          845, 843, 844, -1,
          845, 844, 846, -1,
          847, 845, 846, -1,
          847, 846, 848, -1,
          849, 848, 850, -1,
          849, 847, 848, -1,
          851, 850, 852, -1,
          851, 849, 850, -1,
          853, 852, 854, -1,
          853, 851, 852, -1,
          855, 854, 856, -1,
          855, 853, 854, -1,
          857, 856, 858, -1,
          857, 855, 856, -1,
          859, 858, 860, -1,
          859, 857, 858, -1,
          861, 860, 862, -1,
          861, 859, 860, -1,
          863, 862, 864, -1,
          863, 861, 862, -1,
          865, 864, 866, -1,
          865, 863, 864, -1,
          867, 866, 868, -1,
          867, 865, 866, -1,
          869, 868, 870, -1,
          869, 867, 868, -1,
          871, 870, 872, -1,
          871, 869, 870, -1,
          873, 872, 874, -1,
          873, 871, 872, -1,
          875, 874, 876, -1,
          875, 873, 874, -1,
          877, 876, 878, -1,
          877, 875, 876, -1,
          879, 878, 880, -1,
          879, 877, 878, -1,
          881, 880, 882, -1,
          881, 879, 880, -1,
          883, 882, 884, -1,
          883, 881, 882, -1,
          885, 884, 886, -1,
          885, 883, 884, -1,
          887, 886, 888, -1,
          887, 885, 886, -1,
          889, 887, 888, -1,
          889, 888, 890, -1,
          891, 889, 890, -1,
          891, 890, 892, -1,
          893, 891, 892, -1,
          893, 892, 894, -1,
          895, 893, 894, -1,
          895, 894, 896, -1,
          897, 895, 896, -1,
          897, 896, 898, -1,
          899, 897, 898, -1,
          899, 898, 900, -1,
          901, 899, 900, -1,
          901, 900, 902, -1,
          903, 901, 902, -1,
          903, 902, 904, -1,
          905, 903, 904, -1,
          905, 904, 906, -1,
          907, 905, 906, -1,
          907, 906, 908, -1,
          909, 907, 908, -1,
          909, 908, 910, -1,
          911, 909, 910, -1,
          911, 910, 912, -1,
          913, 911, 912, -1,
          913, 912, 914, -1,
          915, 913, 914, -1,
          915, 914, 916, -1,
          917, 916, 918, -1,
          917, 915, 916, -1,
          919, 918, 920, -1,
          919, 917, 918, -1,
          921, 920, 922, -1,
          921, 919, 920, -1,
          923, 922, 924, -1,
          923, 921, 922, -1,
          925, 924, 926, -1,
          925, 923, 924, -1,
          927, 926, 928, -1,
          927, 925, 926, -1,
          127, 928, 130, -1,
          127, 927, 928, -1,
          929, 930, 931, -1,
          929, 931, 932, -1,
          929, 932, 933, -1,
          314, 309, 310, -1,
          315, 310, 312, -1,
          315, 314, 310, -1,
          316, 315, 312, -1,
          317, 316, 312, -1,
          318, 316, 317, -1,
          311, 309, 314, -1,
          323, 311, 314, -1,
          324, 323, 314, -1,
          313, 324, 314, -1,
          326, 319, 320, -1,
          326, 320, 321, -1,
          326, 321, 322, -1,
          930, 326, 325, -1,
          930, 319, 326, -1,
          931, 930, 325, -1,
          327, 931, 325, -1,
          932, 931, 327, -1,
          329, 328, 330, -1,
          329, 330, 331, -1,
          329, 331, 332, -1,
          933, 327, 329, -1,
          933, 329, 332, -1,
          933, 932, 327, -1,
          333, 930, 929, -1,
          333, 319, 930, -1,
          334, 333, 929, -1,
          335, 334, 929, -1,
          336, 929, 933, -1,
          336, 335, 929, -1,
          336, 933, 332, -1,
          934, 935, 936, -1,
          937, 938, 935, -1,
          937, 935, 934, -1,
          939, 940, 938, -1,
          939, 938, 937, -1,
          941, 942, 940, -1,
          941, 940, 939, -1,
          943, 944, 942, -1,
          943, 942, 941, -1,
          945, 946, 944, -1,
          945, 944, 943, -1,
          947, 948, 946, -1,
          947, 946, 945, -1,
          949, 950, 948, -1,
          949, 948, 947, -1,
          951, 952, 950, -1,
          951, 950, 949, -1,
          953, 954, 955, -1,
          953, 955, 952, -1,
          953, 952, 951, -1,
          956, 957, 954, -1,
          956, 954, 953, -1,
          958, 959, 957, -1,
          958, 957, 956, -1,
          960, 959, 958, -1,
          960, 961, 959, -1,
          962, 961, 960, -1,
          963, 961, 962, -1,
          963, 964, 961, -1,
          965, 964, 963, -1,
          965, 966, 967, -1,
          965, 967, 964, -1,
          968, 966, 965, -1,
          969, 970, 971, -1,
          972, 966, 968, -1,
          972, 973, 966, -1,
          974, 971, 975, -1,
          974, 975, 976, -1,
          974, 969, 971, -1,
          977, 978, 973, -1,
          977, 973, 972, -1,
          979, 978, 977, -1,
          979, 976, 978, -1,
          979, 974, 976, -1,
          344, 337, 338, -1,
          344, 338, 339, -1,
          344, 339, 340, -1,
          350, 341, 342, -1,
          350, 342, 343, -1,
          351, 343, 344, -1,
          351, 350, 343, -1,
          352, 351, 344, -1,
          353, 344, 340, -1,
          353, 352, 344, -1,
          944, 359, 362, -1,
          944, 358, 359, -1,
          946, 355, 358, -1,
          946, 349, 355, -1,
          946, 358, 944, -1,
          942, 362, 364, -1,
          942, 944, 362, -1,
          940, 366, 368, -1,
          940, 364, 366, -1,
          940, 942, 364, -1,
          948, 347, 349, -1,
          948, 349, 946, -1,
          950, 345, 347, -1,
          950, 347, 948, -1,
          938, 368, 370, -1,
          938, 940, 368, -1,
          952, 346, 345, -1,
          952, 345, 950, -1,
          935, 371, 372, -1,
          935, 370, 371, -1,
          935, 938, 370, -1,
          955, 348, 346, -1,
          955, 354, 348, -1,
          955, 346, 952, -1,
          936, 372, 373, -1,
          936, 373, 374, -1,
          936, 935, 372, -1,
          954, 356, 354, -1,
          954, 354, 955, -1,
          957, 357, 356, -1,
          957, 356, 954, -1,
          934, 374, 375, -1,
          934, 936, 374, -1,
          959, 360, 357, -1,
          959, 361, 360, -1,
          959, 357, 957, -1,
          937, 376, 377, -1,
          937, 375, 376, -1,
          937, 934, 375, -1,
          939, 377, 378, -1,
          939, 937, 377, -1,
          961, 363, 361, -1,
          961, 365, 363, -1,
          961, 361, 959, -1,
          941, 378, 379, -1,
          941, 939, 378, -1,
          380, 941, 379, -1,
          964, 367, 365, -1,
          964, 365, 961, -1,
          943, 941, 380, -1,
          381, 943, 380, -1,
          967, 369, 367, -1,
          967, 367, 964, -1,
          382, 943, 381, -1,
          945, 943, 382, -1,
          966, 369, 967, -1,
          383, 945, 382, -1,
          387, 369, 966, -1,
          384, 945, 383, -1,
          384, 947, 945, -1,
          973, 387, 966, -1,
          388, 387, 973, -1,
          385, 947, 384, -1,
          385, 949, 947, -1,
          978, 388, 973, -1,
          386, 949, 385, -1,
          386, 951, 949, -1,
          406, 951, 386, -1,
          405, 951, 406, -1,
          405, 953, 951, -1,
          674, 976, 975, -1,
          674, 978, 976, -1,
          674, 389, 388, -1,
          674, 388, 978, -1,
          404, 953, 405, -1,
          404, 956, 953, -1,
          675, 975, 971, -1,
          675, 674, 975, -1,
          403, 956, 404, -1,
          676, 971, 970, -1,
          676, 675, 971, -1,
          415, 958, 956, -1,
          415, 956, 403, -1,
          677, 970, 969, -1,
          677, 676, 970, -1,
          414, 958, 415, -1,
          413, 958, 414, -1,
          413, 960, 958, -1,
          678, 677, 969, -1,
          678, 969, 974, -1,
          412, 962, 960, -1,
          412, 960, 413, -1,
          679, 678, 974, -1,
          679, 974, 979, -1,
          411, 962, 412, -1,
          411, 963, 962, -1,
          392, 679, 979, -1,
          401, 963, 411, -1,
          393, 392, 979, -1,
          393, 979, 977, -1,
          400, 963, 401, -1,
          400, 965, 963, -1,
          394, 393, 977, -1,
          399, 965, 400, -1,
          395, 394, 977, -1,
          395, 977, 972, -1,
          398, 965, 399, -1,
          398, 968, 965, -1,
          397, 968, 398, -1,
          396, 395, 972, -1,
          396, 968, 397, -1,
          396, 972, 968, -1,
          390, 389, 674, -1,
          674, 391, 390, -1,
          419, 402, 407, -1,
          419, 407, 408, -1,
          419, 408, 409, -1,
          418, 410, 416, -1,
          418, 416, 417, -1,
          423, 417, 419, -1,
          423, 418, 417, -1,
          424, 423, 419, -1,
          425, 419, 409, -1,
          425, 424, 419, -1,
          430, 420, 421, -1,
          430, 421, 422, -1,
          430, 422, 426, -1,
          434, 427, 428, -1,
          434, 428, 429, -1,
          435, 429, 430, -1,
          435, 434, 429, -1,
          436, 435, 430, -1,
          433, 430, 426, -1,
          433, 436, 430, -1,
          980, 981, 982, -1,
          980, 982, 983, -1,
          980, 983, 984, -1,
          444, 432, 431, -1,
          444, 431, 437, -1,
          445, 437, 438, -1,
          445, 444, 437, -1,
          446, 438, 440, -1,
          446, 445, 438, -1,
          448, 439, 441, -1,
          448, 441, 442, -1,
          448, 442, 443, -1,
          981, 448, 447, -1,
          981, 439, 448, -1,
          982, 981, 447, -1,
          449, 982, 447, -1,
          983, 982, 449, -1,
          451, 450, 452, -1,
          451, 452, 453, -1,
          451, 453, 458, -1,
          984, 449, 451, -1,
          984, 451, 458, -1,
          984, 983, 449, -1,
          454, 981, 980, -1,
          454, 439, 981, -1,
          455, 454, 980, -1,
          456, 455, 980, -1,
          457, 980, 984, -1,
          457, 456, 980, -1,
          457, 984, 458, -1,
          257, 261, 985, -1,
          257, 985, 986, -1,
          257, 986, 987, -1,
          257, 987, 988, -1,
          257, 988, 989, -1,
          263, 74, 72, -1,
          70, 263, 72, -1,
          68, 263, 70, -1,
          66, 263, 68, -1,
          64, 263, 66, -1,
          990, 991, 992, -1,
          990, 992, 993, -1,
          990, 993, 994, -1,
          990, 994, 995, -1,
          990, 995, 996, -1,
          990, 996, 997, -1,
          990, 997, 998, -1,
          990, 998, 999, -1,
          990, 999, 1000, -1,
          990, 1000, 1001, -1,
          1002, 273, 257, -1,
          1002, 276, 273, -1,
          1002, 989, 1003, -1,
          1002, 1003, 1004, -1,
          1002, 1004, 1005, -1,
          1002, 1005, 1006, -1,
          1002, 1006, 1007, -1,
          1002, 1007, 1008, -1,
          1002, 1008, 1009, -1,
          1002, 1009, 1010, -1,
          1002, 1010, 991, -1,
          1002, 991, 990, -1,
          1002, 257, 989, -1,
          1011, 1001, 1012, -1,
          1011, 1012, 1013, -1,
          1011, 1013, 1014, -1,
          1011, 1014, 1015, -1,
          1011, 1015, 1016, -1,
          1011, 1016, 1017, -1,
          1011, 1017, 1018, -1,
          1011, 1018, 128, -1,
          1011, 990, 1001, -1,
          1019, 285, 276, -1,
          1019, 276, 1002, -1,
          1019, 990, 1011, -1,
          1019, 1002, 990, -1,
          1020, 128, 126, -1,
          1020, 126, 124, -1,
          1020, 124, 122, -1,
          1020, 122, 120, -1,
          1020, 120, 118, -1,
          1020, 118, 116, -1,
          1020, 116, 114, -1,
          1020, 114, 112, -1,
          1020, 1011, 128, -1,
          1021, 286, 285, -1,
          1021, 285, 1019, -1,
          1021, 1011, 1020, -1,
          1021, 298, 286, -1,
          1021, 1019, 1011, -1,
          1022, 112, 110, -1,
          1022, 110, 108, -1,
          1022, 108, 106, -1,
          1022, 106, 104, -1,
          1022, 104, 102, -1,
          1022, 102, 100, -1,
          1022, 100, 98, -1,
          1022, 98, 96, -1,
          1022, 96, 94, -1,
          1022, 94, 92, -1,
          1022, 1020, 112, -1,
          1023, 1021, 1020, -1,
          1023, 305, 299, -1,
          1023, 299, 298, -1,
          1023, 1020, 1022, -1,
          1023, 298, 1021, -1,
          1024, 74, 263, -1,
          1024, 1023, 1022, -1,
          1024, 92, 90, -1,
          1024, 90, 88, -1,
          1024, 88, 86, -1,
          1024, 86, 84, -1,
          1024, 84, 82, -1,
          1024, 82, 80, -1,
          1024, 80, 78, -1,
          1024, 78, 76, -1,
          1024, 76, 74, -1,
          1024, 263, 305, -1,
          1024, 305, 1023, -1,
          1024, 1022, 92, -1,
          465, 464, 463, -1,
          466, 464, 465, -1,
          478, 466, 467, -1,
          478, 464, 466, -1,
          468, 478, 467, -1,
          479, 478, 468, -1,
          469, 479, 468, -1,
          480, 479, 469, -1,
          481, 480, 469, -1,
          482, 481, 469, -1,
          523, 473, 475, -1,
          523, 474, 473, -1,
          524, 476, 477, -1,
          524, 475, 476, -1,
          524, 523, 475, -1,
          522, 673, 474, -1,
          522, 474, 523, -1,
          521, 673, 522, -1,
          502, 477, 486, -1,
          502, 524, 477, -1,
          520, 673, 521, -1,
          520, 469, 673, -1,
          520, 482, 469, -1,
          519, 483, 482, -1,
          519, 471, 483, -1,
          519, 482, 520, -1,
          484, 470, 472, -1,
          518, 471, 519, -1,
          518, 472, 471, -1,
          485, 484, 472, -1,
          485, 472, 518, -1,
          517, 485, 518, -1,
          469, 460, 459, -1,
          469, 459, 673, -1,
          462, 673, 461, -1,
          461, 673, 459, -1,
          1025, 1026, 1027, -1,
          1028, 1026, 1025, -1,
          1029, 1026, 1028, -1,
          1030, 1031, 1029, -1,
          1032, 1031, 1030, -1,
          1026, 1033, 1034, -1,
          1035, 1036, 1031, -1,
          1026, 1037, 1033, -1,
          1031, 1038, 1029, -1,
          1029, 1038, 1026, -1,
          1036, 1038, 1031, -1,
          1039, 1040, 1038, -1,
          1041, 1042, 1043, -1,
          1044, 1042, 1041, -1,
          1037, 1042, 1044, -1,
          1045, 1046, 1040, -1,
          1042, 1047, 1048, -1,
          1049, 1050, 1046, -1,
          1040, 1050, 1038, -1,
          1046, 1050, 1040, -1,
          1047, 1051, 1052, -1,
          1053, 1054, 1050, -1,
          1054, 255, 1050, -1,
          1047, 1055, 1051, -1,
          1051, 1055, 1056, -1,
          1055, 1057, 1058, -1,
          1055, 1059, 1057, -1,
          250, 248, 252, -1,
          1055, 1060, 1059, -1,
          1026, 1060, 1037, -1,
          1037, 1060, 1042, -1,
          1042, 1060, 1047, -1,
          1047, 1060, 1055, -1,
          1059, 1060, 1061, -1,
          246, 244, 248, -1,
          1026, 1062, 1060, -1,
          1026, 1063, 1062, -1,
          1062, 1063, 1064, -1,
          241, 238, 244, -1,
          240, 238, 241, -1,
          244, 238, 248, -1,
          236, 234, 238, -1,
          1065, 1066, 1067, -1,
          1063, 1066, 1065, -1,
          1066, 1068, 1069, -1,
          1066, 1070, 1068, -1,
          1063, 1071, 1066, -1,
          1066, 1071, 1070, -1,
          231, 221, 234, -1,
          230, 221, 231, -1,
          227, 221, 230, -1,
          225, 221, 227, -1,
          224, 221, 225, -1,
          1063, 1072, 1071, -1,
          1071, 1072, 1073, -1,
          234, 219, 238, -1,
          238, 219, 248, -1,
          221, 219, 234, -1,
          1074, 1075, 1076, -1,
          1072, 1075, 1074, -1,
          217, 213, 219, -1,
          215, 213, 217, -1,
          1072, 1077, 1075, -1,
          1075, 1077, 1078, -1,
          1072, 1079, 1077, -1,
          209, 205, 212, -1,
          207, 205, 209, -1,
          212, 203, 213, -1,
          205, 203, 212, -1,
          1063, 1080, 1072, -1,
          1072, 1080, 1079, -1,
          1081, 1080, 1082, -1,
          1079, 1080, 1081, -1,
          203, 201, 213, -1,
          254, 1083, 255, -1,
          1026, 1083, 1063, -1,
          1038, 1083, 1026, -1,
          1084, 1083, 1085, -1,
          1080, 1083, 1084, -1,
          1063, 1083, 1080, -1,
          1050, 1083, 1038, -1,
          255, 1083, 1050, -1,
          200, 195, 201, -1,
          197, 195, 200, -1,
          1086, 129, 131, -1,
          193, 189, 195, -1,
          191, 189, 193, -1,
          189, 187, 195, -1,
          213, 187, 219, -1,
          201, 187, 213, -1,
          195, 187, 201, -1,
          1086, 135, 129, -1,
          129, 135, 133, -1,
          1086, 137, 135, -1,
          185, 183, 187, -1,
          252, 139, 254, -1,
          254, 139, 1083, -1,
          1083, 139, 1086, -1,
          1086, 139, 137, -1,
          183, 181, 187, -1,
          187, 181, 219, -1,
          139, 143, 141, -1,
          179, 175, 181, -1,
          177, 175, 179, -1,
          175, 173, 181, -1,
          145, 149, 147, -1,
          143, 149, 145, -1,
          143, 151, 149, -1,
          143, 153, 151, -1,
          171, 167, 173, -1,
          169, 167, 171, -1,
          143, 155, 153, -1,
          181, 163, 219, -1,
          165, 163, 167, -1,
          173, 163, 181, -1,
          167, 163, 173, -1,
          219, 163, 248, -1,
          143, 159, 155, -1,
          139, 159, 143, -1,
          155, 159, 157, -1,
          252, 161, 139, -1,
          139, 161, 159, -1,
          163, 161, 248, -1,
          248, 161, 252, -1,
          1054, 256, 255, -1,
          806, 256, 1054, -1,
          1053, 806, 1054, -1,
          808, 806, 1053, -1,
          1050, 808, 1053, -1,
          810, 808, 1050, -1,
          1049, 810, 1050, -1,
          812, 810, 1049, -1,
          1046, 812, 1049, -1,
          814, 812, 1046, -1,
          1045, 814, 1046, -1,
          816, 814, 1045, -1,
          1040, 816, 1045, -1,
          818, 816, 1040, -1,
          1039, 818, 1040, -1,
          820, 818, 1039, -1,
          1038, 820, 1039, -1,
          822, 820, 1038, -1,
          1036, 822, 1038, -1,
          824, 822, 1036, -1,
          1035, 824, 1036, -1,
          826, 824, 1035, -1,
          1031, 826, 1035, -1,
          828, 826, 1031, -1,
          1032, 828, 1031, -1,
          830, 828, 1032, -1,
          1030, 830, 1032, -1,
          832, 830, 1030, -1,
          1029, 832, 1030, -1,
          834, 832, 1029, -1,
          1028, 834, 1029, -1,
          836, 834, 1028, -1,
          1025, 836, 1028, -1,
          838, 836, 1025, -1,
          1027, 838, 1025, -1,
          840, 838, 1027, -1,
          1026, 840, 1027, -1,
          842, 840, 1026, -1,
          1034, 842, 1026, -1,
          844, 842, 1034, -1,
          1033, 844, 1034, -1,
          846, 844, 1033, -1,
          1037, 846, 1033, -1,
          848, 846, 1037, -1,
          1044, 848, 1037, -1,
          850, 848, 1044, -1,
          1041, 850, 1044, -1,
          852, 850, 1041, -1,
          1043, 852, 1041, -1,
          854, 852, 1043, -1,
          1042, 854, 1043, -1,
          856, 854, 1042, -1,
          1048, 856, 1042, -1,
          858, 856, 1048, -1,
          1047, 858, 1048, -1,
          860, 858, 1047, -1,
          862, 1047, 1052, -1,
          862, 860, 1047, -1,
          1051, 862, 1052, -1,
          864, 862, 1051, -1,
          1056, 864, 1051, -1,
          866, 864, 1056, -1,
          1055, 866, 1056, -1,
          868, 866, 1055, -1,
          1058, 868, 1055, -1,
          870, 868, 1058, -1,
          1057, 870, 1058, -1,
          872, 870, 1057, -1,
          874, 1057, 1059, -1,
          874, 872, 1057, -1,
          1061, 874, 1059, -1,
          876, 874, 1061, -1,
          1060, 876, 1061, -1,
          878, 876, 1060, -1,
          880, 1060, 1062, -1,
          880, 878, 1060, -1,
          1064, 880, 1062, -1,
          882, 880, 1064, -1,
          1063, 882, 1064, -1,
          884, 882, 1063, -1,
          1065, 884, 1063, -1,
          886, 884, 1065, -1,
          1067, 886, 1065, -1,
          888, 886, 1067, -1,
          1066, 888, 1067, -1,
          890, 888, 1066, -1,
          1069, 890, 1066, -1,
          892, 890, 1069, -1,
          894, 892, 1069, -1,
          894, 1069, 1068, -1,
          1070, 894, 1068, -1,
          896, 894, 1070, -1,
          898, 896, 1070, -1,
          898, 1070, 1071, -1,
          1073, 898, 1071, -1,
          900, 898, 1073, -1,
          902, 1073, 1072, -1,
          902, 900, 1073, -1,
          1074, 902, 1072, -1,
          904, 902, 1074, -1,
          1076, 904, 1074, -1,
          906, 904, 1076, -1,
          1075, 906, 1076, -1,
          908, 906, 1075, -1,
          1078, 908, 1075, -1,
          910, 908, 1078, -1,
          1077, 910, 1078, -1,
          912, 910, 1077, -1,
          914, 1077, 1079, -1,
          914, 912, 1077, -1,
          1081, 914, 1079, -1,
          916, 914, 1081, -1,
          1082, 916, 1081, -1,
          918, 916, 1082, -1,
          1080, 918, 1082, -1,
          920, 918, 1080, -1,
          922, 1080, 1084, -1,
          922, 920, 1080, -1,
          1085, 922, 1084, -1,
          924, 922, 1085, -1,
          926, 1085, 1083, -1,
          926, 924, 1085, -1,
          1086, 926, 1083, -1,
          928, 926, 1086, -1,
          131, 928, 1086, -1,
          130, 928, 131, -1,
          1018, 127, 128, -1,
          927, 127, 1018, -1,
          1017, 927, 1018, -1,
          925, 927, 1017, -1,
          1016, 925, 1017, -1,
          923, 925, 1016, -1,
          1015, 923, 1016, -1,
          921, 923, 1015, -1,
          1014, 921, 1015, -1,
          919, 921, 1014, -1,
          1013, 919, 1014, -1,
          917, 919, 1013, -1,
          1012, 917, 1013, -1,
          915, 917, 1012, -1,
          1001, 915, 1012, -1,
          913, 915, 1001, -1,
          1000, 913, 1001, -1,
          911, 913, 1000, -1,
          999, 911, 1000, -1,
          909, 911, 999, -1,
          998, 909, 999, -1,
          907, 909, 998, -1,
          997, 907, 998, -1,
          905, 907, 997, -1,
          996, 905, 997, -1,
          903, 905, 996, -1,
          995, 903, 996, -1,
          901, 903, 995, -1,
          994, 901, 995, -1,
          899, 901, 994, -1,
          993, 899, 994, -1,
          897, 993, 992, -1,
          897, 899, 993, -1,
          895, 897, 992, -1,
          895, 992, 991, -1,
          893, 895, 991, -1,
          893, 991, 1010, -1,
          891, 893, 1010, -1,
          891, 1010, 1009, -1,
          889, 891, 1009, -1,
          889, 1009, 1008, -1,
          887, 1008, 1007, -1,
          887, 889, 1008, -1,
          885, 1007, 1006, -1,
          885, 887, 1007, -1,
          883, 1006, 1005, -1,
          883, 885, 1006, -1,
          881, 1005, 1004, -1,
          881, 883, 1005, -1,
          879, 1004, 1003, -1,
          879, 881, 1004, -1,
          877, 1003, 989, -1,
          877, 879, 1003, -1,
          875, 989, 988, -1,
          875, 877, 989, -1,
          873, 988, 987, -1,
          873, 875, 988, -1,
          871, 987, 986, -1,
          871, 873, 987, -1,
          869, 986, 985, -1,
          869, 871, 986, -1,
          867, 985, 261, -1,
          867, 869, 985, -1,
          865, 867, 261, -1,
          865, 261, 260, -1,
          863, 260, 259, -1,
          863, 865, 260, -1,
          861, 259, 258, -1,
          861, 863, 259, -1,
          859, 258, 262, -1,
          859, 861, 258, -1,
          857, 262, 272, -1,
          857, 859, 262, -1,
          855, 272, 271, -1,
          855, 857, 272, -1,
          853, 271, 270, -1,
          853, 855, 271, -1,
          851, 270, 269, -1,
          851, 853, 270, -1,
          849, 269, 268, -1,
          849, 851, 269, -1,
          847, 268, 267, -1,
          847, 849, 268, -1,
          845, 847, 267, -1,
          845, 267, 266, -1,
          843, 266, 265, -1,
          843, 845, 266, -1,
          841, 843, 265, -1,
          841, 265, 275, -1,
          839, 841, 275, -1,
          839, 275, 283, -1,
          837, 839, 283, -1,
          837, 283, 282, -1,
          835, 837, 282, -1,
          835, 282, 281, -1,
          833, 835, 281, -1,
          833, 281, 280, -1,
          831, 833, 280, -1,
          831, 280, 279, -1,
          829, 831, 279, -1,
          829, 279, 278, -1,
          827, 829, 278, -1,
          827, 278, 296, -1,
          825, 827, 296, -1,
          825, 296, 295, -1,
          823, 825, 295, -1,
          823, 295, 294, -1,
          821, 294, 293, -1,
          821, 823, 294, -1,
          819, 293, 292, -1,
          819, 821, 293, -1,
          817, 292, 291, -1,
          817, 819, 292, -1,
          815, 291, 290, -1,
          815, 817, 291, -1,
          813, 290, 289, -1,
          813, 815, 290, -1,
          811, 289, 288, -1,
          811, 813, 289, -1,
          809, 288, 303, -1,
          809, 811, 288, -1,
          807, 303, 302, -1,
          807, 809, 303, -1,
          805, 302, 301, -1,
          805, 807, 302, -1,
          1, 301, 2, -1,
          1, 805, 301, -1
        ]
      }
    }
}
