{"asset":{"version":"2.0","generator":"microscope_builder_4 scripts/catalog/dedupe-mounted-lens-housings.mjs"},"scene":0,"scenes":[{"nodes":[0]}],"nodes":[{"mesh":0}],"meshes":[{"primitives":[{"attributes":{"POSITION":1,"NORMAL":2},"indices":0,"mode":4},{"attributes":{"POSITION":4,"NORMAL":5},"indices":3,"mode":4},{"attributes":{"POSITION":7,"NORMAL":8},"indices":6,"mode":4}]}],"buffers":[{"uri":"../shared/lens-components/4a/4a69b79fd4fb09d1ae0fa876511cc4c1e1da5b06b53ce1d4af74f038d3acc71f.bin","byteLength":11232},{"uri":"la1636-b-ml.bin","byteLength":155424}],"bufferViews":[{"buffer":0,"byteOffset":0,"byteLength":3744,"target":34963},{"buffer":0,"byteOffset":3744,"byteLength":3744,"target":34962},{"buffer":0,"byteOffset":7488,"byteLength":3744,"target":34962},{"buffer":1,"byteOffset":0,"byteLength":6288,"target":34963},{"buffer":1,"byteOffset":6288,"byteLength":6312,"target":34962},{"buffer":1,"byteOffset":12600,"byteLength":6312,"target":34962},{"buffer":1,"byteOffset":18912,"byteLength":45504,"target":34963},{"buffer":1,"byteOffset":64416,"byteLength":45504,"target":34962},{"buffer":1,"byteOffset":109920,"byteLength":45504,"target":34962}],"accessors":[{"bufferView":0,"componentType":5123,"count":1872,"type":"SCALAR"},{"bufferView":1,"componentType":5126,"count":312,"type":"VEC3","min":[636.447021484375,706.0269775390625,1360.448974609375],"max":[688.135986328125,757.7160034179688,1362.989013671875]},{"bufferView":2,"componentType":5126,"count":312,"type":"VEC3"},{"bufferView":3,"componentType":5123,"count":3144,"type":"SCALAR"},{"bufferView":4,"componentType":5126,"count":526,"type":"VEC3","min":[636.8920288085938,706.4710083007812,1362.0140380859375],"max":[687.6920166015625,757.27099609375,1366.0140380859375]},{"bufferView":5,"componentType":5126,"count":526,"type":"VEC3"},{"bufferView":6,"componentType":5123,"count":22752,"type":"SCALAR"},{"bufferView":7,"componentType":5126,"count":3792,"type":"VEC3","min":[634.3519897460938,703.9310302734375,1356.8699951171875],"max":[690.2319946289062,759.8109741210938,1369.823974609375]},{"bufferView":8,"componentType":5126,"count":3792,"type":"VEC3"}]}
