#VRML V2.0 utf8
WorldInfo {
  title "Exported triangle mesh to VRML97"
  info ["Created by FreeCAD"
        "<https://www.freecad.org>"]
}

Transform {
  scale 1 1 1
  rotation 0 0 1 0
  scaleOrientation 0 0 1 0
  center 0.000 0.000 0.000
  translation 0.000 0.000 0.000
  children
    Shape { 
      appearance
      Appearance {
        material
        Material {
          diffuseColor 0.8 0.8 0.8
        }
      }
      geometry
      IndexedFaceSet {
        coord
        Coordinate {
          point [
            -0.000 -16.940 1.543,
            -4.955 -24.912 1.079,
            -3.727 -25.125 1.079,
            -2.490 -25.278 1.079,
            -1.246 -25.369 1.079,
            -0.000 -25.400 1.079,
            -1.246 25.369 1.079,
            0.000 16.940 1.543,
            0.000 25.400 1.079,
            -2.490 25.278 1.079,
            -3.727 25.125 1.079,
            -4.955 24.912 1.079,
            -8.472 -20.320 1.287,
            -15.131 -20.401 1.079,
            -14.111 -21.119 1.079,
            -13.058 -21.786 1.079,
            -11.973 -22.401 1.079,
            -10.860 -22.961 1.079,
            -9.720 -23.467 1.079,
            -8.557 -23.915 1.079,
            -7.373 -24.306 1.079,
            -6.172 -24.639 1.079,
            -8.472 -10.164 1.688,
            -0.000 -8.472 1.822,
            -16.940 -15.232 1.243,
            -21.786 -13.058 1.079,
            -21.119 -14.111 1.079,
            -20.401 -15.131 1.079,
            -19.634 -16.114 1.079,
            -18.820 -17.058 1.079,
            -17.961 -17.961 1.079,
            -17.058 -18.820 1.079,
            -16.114 -19.634 1.079,
            -8.472 -0.000 1.822,
            0.000 0.000 1.915,
            0.000 8.472 1.822,
            -16.940 -5.079 1.510,
            -25.400 0.000 1.079,
            -25.369 -1.246 1.079,
            -25.278 -2.490 1.079,
            -25.125 -3.727 1.079,
            -24.912 -4.955 1.079,
            -24.639 -6.172 1.079,
            -24.306 -7.373 1.079,
            -23.915 -8.557 1.079,
            -23.467 -9.720 1.079,
            -22.961 -10.860 1.079,
            -22.401 -11.973 1.079,
            -8.472 10.164 1.688,
            -16.940 5.079 1.510,
            -21.786 13.058 1.079,
            -22.401 11.973 1.079,
            -22.961 10.860 1.079,
            -23.467 9.720 1.079,
            -23.915 8.557 1.079,
            -24.306 7.373 1.079,
            -24.639 6.172 1.079,
            -24.912 4.955 1.079,
            -25.125 3.727 1.079,
            -25.278 2.490 1.079,
            -25.369 1.246 1.079,
            -8.472 20.320 1.287,
            -6.172 24.639 1.079,
            -7.373 24.306 1.079,
            -8.557 23.915 1.079,
            -9.720 23.467 1.079,
            -10.860 22.961 1.079,
            -11.973 22.401 1.079,
            -13.058 21.786 1.079,
            -14.111 21.119 1.079,
            -15.131 20.401 1.079,
            -16.940 15.232 1.243,
            -16.114 19.634 1.079,
            -17.058 18.820 1.079,
            -17.961 17.961 1.079,
            -18.820 17.058 1.079,
            -19.634 16.114 1.079,
            -20.401 15.131 1.079,
            -21.119 14.111 1.079,
            25.369 1.246 1.079,
            25.400 0.000 -1.915,
            25.368 1.266 -1.915,
            25.400 0.000 1.079,
            25.278 2.490 1.079,
            25.274 2.529 -1.915,
            25.125 3.727 1.079,
            25.116 3.786 -1.915,
            24.912 4.955 1.079,
            24.896 5.033 -1.915,
            24.639 6.172 1.079,
            24.615 6.268 -1.915,
            24.306 7.373 1.079,
            24.272 7.487 -1.915,
            23.915 8.557 1.079,
            23.868 8.687 -1.915,
            23.467 9.720 1.079,
            23.405 9.866 -1.915,
            22.961 10.860 1.079,
            22.885 11.021 -1.915,
            22.401 11.973 1.079,
            22.307 12.148 -1.915,
            21.786 13.058 1.079,
            21.674 13.244 -1.915,
            21.119 14.111 1.079,
            20.986 14.308 -1.915,
            20.401 15.131 1.079,
            20.247 15.337 -1.915,
            19.634 16.114 1.079,
            19.458 16.327 -1.915,
            18.820 17.058 1.079,
            18.620 17.276 -1.915,
            17.961 17.961 1.079,
            17.735 18.183 -1.915,
            17.058 18.820 1.079,
            16.807 19.044 -1.915,
            16.114 19.634 1.079,
            15.837 19.859 -1.915,
            15.131 20.401 1.079,
            14.827 20.623 -1.915,
            14.111 21.119 1.079,
            13.781 21.337 -1.915,
            13.058 21.786 1.079,
            12.700 21.997 -1.915,
            11.973 22.401 1.079,
            11.588 22.603 -1.915,
            10.860 22.961 1.079,
            10.447 23.152 -1.915,
            9.720 23.467 1.079,
            9.280 23.644 -1.915,
            8.557 23.915 1.079,
            8.090 24.077 -1.915,
            7.373 24.306 1.079,
            6.879 24.451 -1.915,
            6.172 24.639 1.079,
            5.652 24.763 -1.915,
            4.955 24.912 1.079,
            4.411 25.014 -1.915,
            3.727 25.125 1.079,
            3.158 25.203 -1.915,
            2.490 25.278 1.079,
            1.898 25.329 -1.915,
            1.246 25.369 1.079,
            0.633 25.392 -1.915,
            -0.633 25.392 -1.915,
            -1.898 25.329 -1.915,
            -3.158 25.203 -1.915,
            -4.411 25.014 -1.915,
            -5.652 24.763 -1.915,
            -6.879 24.451 -1.915,
            -8.090 24.077 -1.915,
            -9.280 23.644 -1.915,
            -10.447 23.152 -1.915,
            -11.588 22.603 -1.915,
            -12.700 21.997 -1.915,
            -13.781 21.337 -1.915,
            -14.827 20.623 -1.915,
            -15.837 19.859 -1.915,
            -16.807 19.044 -1.915,
            -17.735 18.183 -1.915,
            -18.620 17.276 -1.915,
            -19.458 16.327 -1.915,
            -20.247 15.337 -1.915,
            -20.986 14.308 -1.915,
            -21.674 13.244 -1.915,
            -22.307 12.148 -1.915,
            -22.885 11.021 -1.915,
            -23.405 9.866 -1.915,
            -23.868 8.687 -1.915,
            -24.272 7.487 -1.915,
            -24.615 6.268 -1.915,
            -24.896 5.033 -1.915,
            -25.116 3.786 -1.915,
            -25.274 2.529 -1.915,
            -25.368 1.266 -1.915,
            -25.400 0.000 -1.915,
            -17.735 -18.183 -1.915,
            -15.837 -19.859 -1.915,
            -16.807 -19.044 -1.915,
            -19.458 -16.327 -1.915,
            -20.247 -15.337 -1.915,
            -18.620 -17.276 -1.915,
            -20.986 -14.308 -1.915,
            -13.781 -21.337 -1.915,
            -14.827 -20.623 -1.915,
            -21.674 -13.244 -1.915,
            -22.307 -12.148 -1.915,
            -12.700 -21.997 -1.915,
            -10.447 -23.152 -1.915,
            -11.588 -22.603 -1.915,
            -9.280 -23.644 -1.915,
            -23.405 -9.866 -1.915,
            -23.868 -8.687 -1.915,
            -22.885 -11.021 -1.915,
            -8.090 -24.077 -1.915,
            -24.272 -7.487 -1.915,
            -5.652 -24.763 -1.915,
            -6.879 -24.451 -1.915,
            -24.615 -6.268 -1.915,
            -24.896 -5.033 -1.915,
            -3.158 -25.203 -1.915,
            -4.411 -25.014 -1.915,
            -25.116 -3.786 -1.915,
            -25.274 -2.529 -1.915,
            -25.368 -1.266 -1.915,
            0.633 -25.392 -1.915,
            5.652 -24.763 -1.915,
            1.898 -25.329 -1.915,
            3.158 -25.203 -1.915,
            4.411 -25.014 -1.915,
            6.879 -24.451 -1.915,
            -1.898 -25.329 -1.915,
            -0.633 -25.392 -1.915,
            9.280 -23.644 -1.915,
            8.090 -24.077 -1.915,
            10.447 -23.152 -1.915,
            13.781 -21.337 -1.915,
            11.588 -22.603 -1.915,
            12.700 -21.997 -1.915,
            14.827 -20.623 -1.915,
            17.735 -18.183 -1.915,
            15.837 -19.859 -1.915,
            16.807 -19.044 -1.915,
            20.247 -15.337 -1.915,
            18.620 -17.276 -1.915,
            19.458 -16.327 -1.915,
            22.307 -12.148 -1.915,
            20.986 -14.308 -1.915,
            21.674 -13.244 -1.915,
            23.405 -9.866 -1.915,
            22.885 -11.021 -1.915,
            23.868 -8.687 -1.915,
            24.272 -7.487 -1.915,
            24.896 -5.033 -1.915,
            25.368 -1.266 -1.915,
            25.116 -3.786 -1.915,
            25.274 -2.529 -1.915,
            24.615 -6.268 -1.915,
            1.246 -25.369 1.079,
            2.490 -25.278 1.079,
            3.727 -25.125 1.079,
            4.955 -24.912 1.079,
            6.172 -24.639 1.079,
            7.373 -24.306 1.079,
            8.557 -23.915 1.079,
            9.720 -23.467 1.079,
            10.860 -22.961 1.079,
            11.973 -22.401 1.079,
            13.058 -21.786 1.079,
            14.111 -21.119 1.079,
            15.131 -20.401 1.079,
            16.114 -19.634 1.079,
            17.058 -18.820 1.079,
            17.961 -17.961 1.079,
            18.820 -17.058 1.079,
            19.634 -16.114 1.079,
            20.401 -15.131 1.079,
            21.119 -14.111 1.079,
            21.786 -13.058 1.079,
            22.401 -11.973 1.079,
            22.961 -10.860 1.079,
            23.467 -9.720 1.079,
            23.915 -8.557 1.079,
            24.306 -7.373 1.079,
            24.639 -6.172 1.079,
            24.912 -4.955 1.079,
            25.125 -3.727 1.079,
            25.278 -2.490 1.079,
            25.369 -1.246 1.079,
            16.940 -10.156 1.410,
            8.472 -15.243 1.521,
            16.940 -0.000 1.543,
            8.472 -5.082 1.789,
            16.940 10.156 1.410,
            8.472 5.082 1.789,
            8.472 15.243 1.521
          ]
        }
        coordIndex [
          0, 1, 2, -1,
          0, 2, 3, -1,
          0, 3, 4, -1,
          0, 4, 5, -1,
          6, 7, 8, -1,
          9, 7, 6, -1,
          10, 7, 9, -1,
          11, 7, 10, -1,
          12, 13, 14, -1,
          12, 14, 15, -1,
          12, 15, 16, -1,
          12, 16, 17, -1,
          12, 17, 18, -1,
          12, 18, 19, -1,
          12, 19, 20, -1,
          12, 20, 21, -1,
          12, 21, 1, -1,
          12, 1, 0, -1,
          22, 12, 0, -1,
          22, 0, 23, -1,
          24, 25, 26, -1,
          24, 26, 27, -1,
          24, 27, 28, -1,
          24, 28, 29, -1,
          24, 29, 30, -1,
          24, 30, 31, -1,
          24, 31, 32, -1,
          24, 32, 13, -1,
          24, 13, 12, -1,
          24, 12, 22, -1,
          33, 23, 34, -1,
          33, 34, 35, -1,
          33, 22, 23, -1,
          36, 37, 38, -1,
          36, 38, 39, -1,
          36, 39, 40, -1,
          36, 40, 41, -1,
          36, 41, 42, -1,
          36, 42, 43, -1,
          36, 43, 44, -1,
          36, 44, 45, -1,
          36, 45, 46, -1,
          36, 46, 47, -1,
          36, 47, 25, -1,
          36, 22, 33, -1,
          36, 25, 24, -1,
          36, 24, 22, -1,
          48, 35, 7, -1,
          48, 33, 35, -1,
          49, 33, 48, -1,
          49, 36, 33, -1,
          49, 50, 51, -1,
          49, 51, 52, -1,
          49, 52, 53, -1,
          49, 53, 54, -1,
          49, 54, 55, -1,
          49, 55, 56, -1,
          49, 56, 57, -1,
          49, 57, 58, -1,
          49, 58, 59, -1,
          49, 59, 60, -1,
          49, 60, 37, -1,
          49, 37, 36, -1,
          61, 48, 7, -1,
          61, 11, 62, -1,
          61, 62, 63, -1,
          61, 63, 64, -1,
          61, 64, 65, -1,
          61, 65, 66, -1,
          61, 66, 67, -1,
          61, 67, 68, -1,
          61, 68, 69, -1,
          61, 69, 70, -1,
          61, 7, 11, -1,
          71, 50, 49, -1,
          71, 70, 72, -1,
          71, 72, 73, -1,
          71, 73, 74, -1,
          71, 74, 75, -1,
          71, 75, 76, -1,
          71, 76, 77, -1,
          71, 77, 78, -1,
          71, 78, 50, -1,
          71, 49, 48, -1,
          71, 48, 61, -1,
          71, 61, 70, -1,
          79, 80, 81, -1,
          79, 82, 80, -1,
          83, 81, 84, -1,
          83, 79, 81, -1,
          85, 84, 86, -1,
          85, 83, 84, -1,
          87, 86, 88, -1,
          87, 85, 86, -1,
          89, 88, 90, -1,
          89, 87, 88, -1,
          91, 90, 92, -1,
          91, 89, 90, -1,
          93, 92, 94, -1,
          93, 91, 92, -1,
          95, 94, 96, -1,
          95, 93, 94, -1,
          97, 96, 98, -1,
          97, 95, 96, -1,
          99, 98, 100, -1,
          99, 97, 98, -1,
          101, 100, 102, -1,
          101, 99, 100, -1,
          103, 102, 104, -1,
          103, 101, 102, -1,
          105, 104, 106, -1,
          105, 103, 104, -1,
          107, 106, 108, -1,
          107, 105, 106, -1,
          109, 108, 110, -1,
          109, 107, 108, -1,
          111, 110, 112, -1,
          111, 109, 110, -1,
          113, 112, 114, -1,
          113, 111, 112, -1,
          115, 113, 114, -1,
          115, 114, 116, -1,
          117, 115, 116, -1,
          117, 116, 118, -1,
          119, 117, 118, -1,
          119, 118, 120, -1,
          121, 119, 120, -1,
          121, 120, 122, -1,
          123, 121, 122, -1,
          123, 122, 124, -1,
          125, 124, 126, -1,
          125, 123, 124, -1,
          127, 126, 128, -1,
          127, 125, 126, -1,
          129, 128, 130, -1,
          129, 127, 128, -1,
          131, 130, 132, -1,
          131, 129, 130, -1,
          133, 132, 134, -1,
          133, 131, 132, -1,
          135, 134, 136, -1,
          135, 133, 134, -1,
          137, 136, 138, -1,
          137, 135, 136, -1,
          139, 138, 140, -1,
          139, 137, 138, -1,
          141, 140, 142, -1,
          141, 139, 140, -1,
          8, 142, 143, -1,
          8, 141, 142, -1,
          6, 143, 144, -1,
          6, 8, 143, -1,
          9, 144, 145, -1,
          9, 6, 144, -1,
          10, 145, 146, -1,
          10, 9, 145, -1,
          11, 146, 147, -1,
          11, 10, 146, -1,
          62, 147, 148, -1,
          62, 11, 147, -1,
          63, 148, 149, -1,
          63, 62, 148, -1,
          64, 149, 150, -1,
          64, 63, 149, -1,
          65, 150, 151, -1,
          65, 64, 150, -1,
          66, 151, 152, -1,
          66, 65, 151, -1,
          67, 152, 153, -1,
          67, 66, 152, -1,
          68, 67, 153, -1,
          68, 153, 154, -1,
          69, 68, 154, -1,
          69, 154, 155, -1,
          70, 69, 155, -1,
          70, 155, 156, -1,
          72, 70, 156, -1,
          72, 156, 157, -1,
          73, 72, 157, -1,
          73, 157, 158, -1,
          74, 73, 158, -1,
          74, 158, 159, -1,
          75, 74, 159, -1,
          75, 159, 160, -1,
          76, 75, 160, -1,
          76, 160, 161, -1,
          77, 76, 161, -1,
          77, 161, 162, -1,
          78, 77, 162, -1,
          78, 162, 163, -1,
          50, 78, 163, -1,
          50, 163, 164, -1,
          51, 50, 164, -1,
          51, 164, 165, -1,
          52, 51, 165, -1,
          52, 165, 166, -1,
          53, 166, 167, -1,
          53, 52, 166, -1,
          54, 167, 168, -1,
          54, 53, 167, -1,
          55, 168, 169, -1,
          55, 54, 168, -1,
          56, 169, 170, -1,
          56, 55, 169, -1,
          57, 170, 171, -1,
          57, 56, 170, -1,
          58, 171, 172, -1,
          58, 57, 171, -1,
          59, 172, 173, -1,
          59, 58, 172, -1,
          60, 173, 174, -1,
          60, 59, 173, -1,
          37, 60, 174, -1,
          175, 176, 177, -1,
          178, 179, 180, -1,
          181, 182, 179, -1,
          180, 182, 175, -1,
          176, 182, 183, -1,
          175, 182, 176, -1,
          179, 182, 180, -1,
          184, 185, 181, -1,
          186, 187, 188, -1,
          186, 189, 187, -1,
          190, 191, 192, -1,
          182, 193, 186, -1,
          186, 193, 189, -1,
          191, 194, 192, -1,
          193, 195, 196, -1,
          181, 195, 182, -1,
          182, 195, 193, -1,
          197, 198, 194, -1,
          194, 198, 192, -1,
          195, 199, 200, -1,
          201, 202, 198, -1,
          192, 203, 185, -1,
          185, 203, 181, -1,
          202, 203, 198, -1,
          198, 203, 192, -1,
          174, 171, 203, -1,
          172, 171, 173, -1,
          173, 171, 174, -1,
          204, 205, 206, -1,
          206, 205, 207, -1,
          207, 205, 208, -1,
          199, 209, 210, -1,
          210, 209, 211, -1,
          211, 209, 204, -1,
          204, 209, 205, -1,
          169, 168, 170, -1,
          170, 168, 171, -1,
          171, 168, 203, -1,
          209, 212, 213, -1,
          199, 212, 209, -1,
          165, 164, 166, -1,
          166, 164, 167, -1,
          167, 164, 168, -1,
          214, 215, 216, -1,
          216, 215, 217, -1,
          163, 162, 164, -1,
          214, 218, 215, -1,
          161, 160, 162, -1,
          164, 159, 168, -1,
          162, 159, 164, -1,
          160, 159, 162, -1,
          218, 219, 220, -1,
          220, 219, 221, -1,
          158, 157, 159, -1,
          219, 222, 223, -1,
          223, 222, 224, -1,
          218, 222, 219, -1,
          154, 153, 155, -1,
          155, 153, 156, -1,
          156, 153, 157, -1,
          157, 153, 159, -1,
          222, 225, 226, -1,
          226, 225, 227, -1,
          152, 151, 153, -1,
          153, 151, 159, -1,
          225, 228, 229, -1,
          222, 228, 225, -1,
          168, 150, 203, -1,
          159, 150, 168, -1,
          181, 150, 195, -1,
          151, 150, 159, -1,
          203, 150, 181, -1,
          214, 230, 218, -1,
          212, 230, 214, -1,
          218, 230, 222, -1,
          222, 230, 228, -1,
          199, 230, 212, -1,
          199, 231, 230, -1,
          149, 148, 150, -1,
          145, 144, 146, -1,
          146, 144, 147, -1,
          147, 144, 148, -1,
          232, 233, 234, -1,
          234, 233, 235, -1,
          144, 143, 148, -1,
          148, 143, 150, -1,
          150, 143, 195, -1,
          231, 80, 236, -1,
          236, 80, 232, -1,
          232, 80, 233, -1,
          231, 81, 80, -1,
          231, 88, 81, -1,
          81, 88, 84, -1,
          84, 88, 86, -1,
          199, 88, 231, -1,
          143, 134, 195, -1,
          195, 134, 199, -1,
          136, 134, 138, -1,
          138, 134, 140, -1,
          140, 134, 142, -1,
          142, 134, 143, -1,
          132, 130, 134, -1,
          88, 94, 90, -1,
          90, 94, 92, -1,
          134, 126, 199, -1,
          199, 126, 88, -1,
          130, 126, 134, -1,
          128, 126, 130, -1,
          94, 100, 96, -1,
          96, 100, 98, -1,
          94, 102, 100, -1,
          122, 120, 124, -1,
          124, 120, 126, -1,
          102, 106, 104, -1,
          120, 116, 126, -1,
          118, 116, 120, -1,
          88, 108, 94, -1,
          94, 108, 102, -1,
          102, 108, 106, -1,
          126, 112, 88, -1,
          116, 112, 126, -1,
          88, 112, 108, -1,
          108, 112, 110, -1,
          114, 112, 116, -1,
          38, 37, 174, -1,
          38, 174, 203, -1,
          39, 203, 202, -1,
          39, 38, 203, -1,
          40, 202, 201, -1,
          40, 39, 202, -1,
          41, 201, 198, -1,
          41, 40, 201, -1,
          42, 198, 197, -1,
          42, 41, 198, -1,
          43, 197, 194, -1,
          43, 42, 197, -1,
          44, 194, 191, -1,
          44, 43, 194, -1,
          45, 191, 190, -1,
          45, 44, 191, -1,
          46, 190, 192, -1,
          46, 45, 190, -1,
          47, 192, 185, -1,
          47, 46, 192, -1,
          25, 185, 184, -1,
          25, 47, 185, -1,
          26, 184, 181, -1,
          26, 25, 184, -1,
          27, 181, 179, -1,
          27, 26, 181, -1,
          28, 179, 178, -1,
          28, 27, 179, -1,
          29, 178, 180, -1,
          29, 28, 178, -1,
          30, 180, 175, -1,
          30, 29, 180, -1,
          31, 175, 177, -1,
          31, 30, 175, -1,
          32, 31, 177, -1,
          32, 177, 176, -1,
          13, 32, 176, -1,
          13, 176, 183, -1,
          14, 13, 183, -1,
          14, 183, 182, -1,
          15, 14, 182, -1,
          15, 182, 186, -1,
          16, 15, 186, -1,
          16, 186, 188, -1,
          17, 188, 187, -1,
          17, 16, 188, -1,
          18, 187, 189, -1,
          18, 17, 187, -1,
          19, 189, 193, -1,
          19, 18, 189, -1,
          20, 193, 196, -1,
          20, 19, 193, -1,
          21, 196, 195, -1,
          21, 20, 196, -1,
          1, 195, 200, -1,
          1, 21, 195, -1,
          2, 200, 199, -1,
          2, 1, 200, -1,
          3, 199, 210, -1,
          3, 2, 199, -1,
          4, 210, 211, -1,
          4, 3, 210, -1,
          5, 211, 204, -1,
          5, 4, 211, -1,
          237, 204, 206, -1,
          237, 5, 204, -1,
          238, 206, 207, -1,
          238, 237, 206, -1,
          239, 207, 208, -1,
          239, 238, 207, -1,
          240, 208, 205, -1,
          240, 239, 208, -1,
          241, 205, 209, -1,
          241, 240, 205, -1,
          242, 209, 213, -1,
          242, 241, 209, -1,
          243, 213, 212, -1,
          243, 242, 213, -1,
          244, 212, 214, -1,
          244, 243, 212, -1,
          245, 214, 216, -1,
          245, 244, 214, -1,
          246, 216, 217, -1,
          246, 245, 216, -1,
          247, 246, 217, -1,
          247, 217, 215, -1,
          248, 247, 215, -1,
          248, 215, 218, -1,
          249, 248, 218, -1,
          249, 218, 220, -1,
          250, 249, 220, -1,
          250, 220, 221, -1,
          251, 250, 221, -1,
          251, 221, 219, -1,
          252, 251, 219, -1,
          252, 219, 223, -1,
          253, 252, 223, -1,
          253, 223, 224, -1,
          254, 253, 224, -1,
          254, 224, 222, -1,
          255, 254, 222, -1,
          255, 222, 226, -1,
          256, 255, 226, -1,
          256, 226, 227, -1,
          257, 256, 227, -1,
          257, 227, 225, -1,
          258, 257, 225, -1,
          258, 225, 229, -1,
          259, 258, 229, -1,
          259, 229, 228, -1,
          260, 259, 228, -1,
          260, 228, 230, -1,
          261, 230, 231, -1,
          261, 260, 230, -1,
          262, 231, 236, -1,
          262, 261, 231, -1,
          263, 236, 232, -1,
          263, 262, 236, -1,
          264, 232, 234, -1,
          264, 263, 232, -1,
          265, 234, 235, -1,
          265, 264, 234, -1,
          266, 235, 233, -1,
          266, 265, 235, -1,
          267, 233, 80, -1,
          267, 266, 233, -1,
          82, 267, 80, -1,
          0, 5, 237, -1,
          0, 237, 238, -1,
          0, 238, 239, -1,
          0, 239, 240, -1,
          0, 240, 241, -1,
          135, 7, 133, -1,
          137, 7, 135, -1,
          139, 7, 137, -1,
          141, 7, 139, -1,
          8, 7, 141, -1,
          268, 251, 252, -1,
          268, 252, 253, -1,
          268, 253, 254, -1,
          268, 254, 255, -1,
          268, 255, 256, -1,
          268, 256, 257, -1,
          268, 257, 258, -1,
          268, 258, 259, -1,
          268, 259, 260, -1,
          268, 260, 261, -1,
          268, 261, 262, -1,
          268, 262, 263, -1,
          269, 23, 0, -1,
          269, 241, 242, -1,
          269, 242, 243, -1,
          269, 243, 244, -1,
          269, 251, 268, -1,
          269, 244, 245, -1,
          269, 245, 246, -1,
          269, 246, 247, -1,
          269, 247, 248, -1,
          269, 248, 249, -1,
          269, 249, 250, -1,
          269, 250, 251, -1,
          269, 0, 241, -1,
          270, 263, 264, -1,
          270, 264, 265, -1,
          270, 265, 266, -1,
          270, 266, 267, -1,
          270, 267, 82, -1,
          270, 82, 79, -1,
          270, 79, 83, -1,
          270, 83, 85, -1,
          270, 85, 87, -1,
          270, 87, 89, -1,
          270, 268, 263, -1,
          271, 34, 23, -1,
          271, 23, 269, -1,
          271, 269, 268, -1,
          271, 268, 270, -1,
          272, 89, 91, -1,
          272, 91, 93, -1,
          272, 93, 95, -1,
          272, 95, 97, -1,
          272, 97, 99, -1,
          272, 99, 101, -1,
          272, 101, 103, -1,
          272, 103, 105, -1,
          272, 105, 107, -1,
          272, 107, 109, -1,
          272, 109, 111, -1,
          272, 111, 113, -1,
          272, 270, 89, -1,
          273, 271, 270, -1,
          273, 35, 34, -1,
          273, 34, 271, -1,
          273, 270, 272, -1,
          274, 272, 113, -1,
          274, 113, 115, -1,
          274, 115, 117, -1,
          274, 117, 119, -1,
          274, 119, 121, -1,
          274, 121, 123, -1,
          274, 123, 125, -1,
          274, 125, 127, -1,
          274, 127, 129, -1,
          274, 35, 273, -1,
          274, 129, 131, -1,
          274, 131, 133, -1,
          274, 7, 35, -1,
          274, 273, 272, -1,
          274, 133, 7, -1
        ]
      }
    }
}
