{"asset":{"version":"2.0","generator":"microscope_builder_4 scripts/catalog/dedupe-mounted-lens-housings.mjs"},"scene":0,"scenes":[{"nodes":[0]}],"nodes":[{"mesh":0}],"meshes":[{"primitives":[{"attributes":{"POSITION":1,"NORMAL":2},"indices":0,"mode":4},{"attributes":{"POSITION":4,"NORMAL":5},"indices":3,"mode":4},{"attributes":{"POSITION":7,"NORMAL":8},"indices":6,"mode":4}]}],"buffers":[{"uri":"la1708-c-ml.bin","byteLength":150888}],"bufferViews":[{"buffer":0,"byteOffset":0,"byteLength":44496,"target":34963},{"buffer":0,"byteOffset":44496,"byteLength":44496,"target":34962},{"buffer":0,"byteOffset":88992,"byteLength":44496,"target":34962},{"buffer":0,"byteOffset":133488,"byteLength":3936,"target":34963},{"buffer":0,"byteOffset":137424,"byteLength":3936,"target":34962},{"buffer":0,"byteOffset":141360,"byteLength":3936,"target":34962},{"buffer":0,"byteOffset":145296,"byteLength":1848,"target":34963},{"buffer":0,"byteOffset":147144,"byteLength":1872,"target":34962},{"buffer":0,"byteOffset":149016,"byteLength":1872,"target":34962}],"accessors":[{"bufferView":0,"componentType":5123,"count":22248,"type":"SCALAR"},{"bufferView":1,"componentType":5126,"count":3708,"type":"VEC3","min":[-11.430000305175781,-15.239999771118164,-15.239999771118164],"max":[0,15.239999771118164,15.239999771118164]},{"bufferView":2,"componentType":5126,"count":3708,"type":"VEC3"},{"bufferView":3,"componentType":5123,"count":1968,"type":"SCALAR"},{"bufferView":4,"componentType":5126,"count":328,"type":"VEC3","min":[-5.507999897003174,-13.144000053405762,-13.144000053405762],"max":[-3.4760000705718994,13.144000053405762,13.144000053405762]},{"bufferView":5,"componentType":5126,"count":328,"type":"VEC3"},{"bufferView":6,"componentType":5123,"count":924,"type":"SCALAR"},{"bufferView":7,"componentType":5126,"count":156,"type":"VEC3","min":[-7.619999885559082,-12.677000045776367,-12.677000045776367],"max":[-4.840000152587891,12.677000045776367,12.677000045776367]},{"bufferView":8,"componentType":5126,"count":156,"type":"VEC3"}]}
