#VRML V2.0 utf8
WorldInfo {
  title "Exported triangle mesh to VRML97"
  info ["Created by FreeCAD"
        "<https://www.freecad.org>"]
}

Transform {
  scale 1 1 1
  rotation 0 0 1 0
  scaleOrientation 0 0 1 0
  center 0.000 0.000 0.000
  translation 0.000 0.000 0.000
  children
    Shape { 
      appearance
      Appearance {
        material
        Material {
          diffuseColor 0.8 0.8 0.8
        }
      }
      geometry
      IndexedFaceSet {
        coord
        Coordinate {
          point [
            -3.064 -0.856 8.907,
            -2.438 3.312 8.737,
            -3.064 3.328 8.737,
            -1.814 3.266 8.737,
            -1.192 3.188 8.737,
            -0.576 3.079 8.737,
            0.035 2.940 8.737,
            0.638 2.770 8.737,
            1.231 2.571 8.737,
            -2.438 -21.774 8.737,
            -3.064 -17.605 8.907,
            -3.064 -21.789 8.737,
            -1.814 -21.727 8.737,
            -1.192 -21.649 8.737,
            -0.576 -21.540 8.737,
            0.035 -21.401 8.737,
            0.638 -21.231 8.737,
            1.231 -21.032 8.737,
            3.215 -0.859 8.830,
            -3.064 -5.043 9.009,
            1.814 2.342 8.737,
            2.385 2.084 8.737,
            2.942 1.799 8.737,
            3.484 1.486 8.737,
            4.010 1.146 8.737,
            4.519 0.780 8.737,
            5.008 0.390 8.737,
            5.478 -0.025 8.737,
            5.926 -0.462 8.737,
            6.352 -0.921 8.737,
            6.755 -1.400 8.737,
            7.133 -1.900 8.737,
            7.485 -2.417 8.737,
            7.812 -2.951 8.737,
            3.215 -9.231 8.966,
            -3.064 -9.231 9.043,
            -3.064 -13.418 9.009,
            8.111 -3.501 8.737,
            8.383 -4.065 8.737,
            8.626 -4.642 8.737,
            8.841 -5.231 8.737,
            9.025 -5.829 8.737,
            9.180 -6.436 8.737,
            9.304 -7.050 8.737,
            9.397 -7.669 8.737,
            9.459 -8.292 8.737,
            9.491 -8.918 8.737,
            9.491 -9.544 8.737,
            9.459 -10.169 8.737,
            9.397 -10.792 8.737,
            9.304 -11.411 8.737,
            9.180 -12.025 8.737,
            9.025 -12.632 8.737,
            8.841 -13.230 8.737,
            8.626 -13.819 8.737,
            8.383 -14.396 8.737,
            8.111 -14.960 8.737,
            7.812 -15.510 8.737,
            3.215 -17.602 8.830,
            7.485 -16.044 8.737,
            7.133 -16.562 8.737,
            6.755 -17.061 8.737,
            6.352 -17.540 8.737,
            5.926 -17.999 8.737,
            5.478 -18.437 8.737,
            5.008 -18.851 8.737,
            4.519 -19.241 8.737,
            4.010 -19.607 8.737,
            3.484 -19.947 8.737,
            2.942 -20.260 8.737,
            2.385 -20.545 8.737,
            1.814 -20.803 8.737,
            -2.431 3.454 8.595,
            -3.064 3.469 8.595,
            -1.800 3.406 8.595,
            -1.171 3.328 8.595,
            -0.548 3.218 8.595,
            0.070 3.077 8.595,
            0.679 2.905 8.595,
            1.280 2.703 8.595,
            1.869 2.472 8.595,
            2.446 2.212 8.595,
            3.010 1.923 8.595,
            3.558 1.606 8.595,
            4.090 1.263 8.595,
            4.604 0.893 8.595,
            5.099 0.498 8.595,
            5.574 0.079 8.595,
            6.027 -0.363 8.595,
            6.458 -0.827 8.595,
            6.865 -1.312 8.595,
            7.248 -1.817 8.595,
            7.604 -2.340 8.595,
            7.934 -2.881 8.595,
            8.237 -3.437 8.595,
            8.512 -4.007 8.595,
            8.758 -4.591 8.595,
            8.975 -5.186 8.595,
            9.161 -5.791 8.595,
            9.318 -6.405 8.595,
            9.443 -7.025 8.595,
            9.537 -7.651 8.595,
            9.600 -8.282 8.595,
            9.632 -8.914 8.595,
            9.632 -9.547 8.595,
            9.600 -10.180 8.595,
            9.537 -10.810 8.595,
            9.443 -11.436 8.595,
            9.318 -12.057 8.595,
            9.161 -12.670 8.595,
            8.975 -13.275 8.595,
            8.758 -13.870 8.595,
            8.512 -14.454 8.595,
            8.237 -15.024 8.595,
            7.934 -15.581 8.595,
            7.604 -16.121 8.595,
            7.248 -16.644 8.595,
            6.865 -17.149 8.595,
            6.458 -17.634 8.595,
            6.027 -18.098 8.595,
            5.574 -18.540 8.595,
            5.099 -18.959 8.595,
            4.604 -19.354 8.595,
            4.090 -19.724 8.595,
            3.558 -20.067 8.595,
            3.010 -20.384 8.595,
            2.446 -20.673 8.595,
            1.869 -20.933 8.595,
            1.280 -21.165 8.595,
            0.679 -21.366 8.595,
            0.070 -21.538 8.595,
            -0.548 -21.679 8.595,
            -1.171 -21.789 8.595,
            -1.800 -21.867 8.595,
            -2.431 -21.915 8.595,
            -3.064 -21.931 8.595,
            -2.431 3.454 6.874,
            -3.064 3.469 6.874,
            -1.800 3.406 6.874,
            -1.171 3.328 6.874,
            -0.548 3.218 6.874,
            0.070 3.077 6.874,
            0.679 2.905 6.874,
            1.280 2.703 6.874,
            1.869 2.472 6.874,
            2.446 2.212 6.874,
            3.010 1.923 6.874,
            3.558 1.606 6.874,
            4.090 1.263 6.874,
            4.604 0.893 6.874,
            5.099 0.498 6.874,
            5.574 0.079 6.874,
            6.027 -0.363 6.874,
            6.458 -0.827 6.874,
            6.865 -1.312 6.874,
            7.248 -1.817 6.874,
            7.604 -2.340 6.874,
            7.934 -2.881 6.874,
            8.237 -3.437 6.874,
            8.512 -4.007 6.874,
            8.758 -4.591 6.874,
            8.975 -5.186 6.874,
            9.161 -5.791 6.874,
            9.318 -6.405 6.874,
            9.443 -7.025 6.874,
            9.537 -7.651 6.874,
            9.600 -8.282 6.874,
            9.632 -8.914 6.874,
            9.632 -9.547 6.874,
            9.600 -10.180 6.874,
            9.537 -10.810 6.874,
            9.443 -11.436 6.874,
            9.318 -12.057 6.874,
            9.161 -12.670 6.874,
            8.975 -13.275 6.874,
            8.758 -13.870 6.874,
            8.512 -14.454 6.874,
            8.237 -15.024 6.874,
            7.934 -15.581 6.874,
            7.604 -16.121 6.874,
            7.248 -16.644 6.874,
            6.865 -17.149 6.874,
            6.458 -17.634 6.874,
            6.027 -18.098 6.874,
            5.574 -18.540 6.874,
            5.099 -18.959 6.874,
            4.604 -19.354 6.874,
            4.090 -19.724 6.874,
            3.558 -20.067 6.874,
            3.010 -20.384 6.874,
            2.446 -20.673 6.874,
            1.869 -20.933 6.874,
            1.280 -21.165 6.874,
            0.679 -21.366 6.874,
            0.070 -21.538 6.874,
            -0.548 -21.679 6.874,
            -1.171 -21.789 6.874,
            -1.800 -21.867 6.874,
            -2.431 -21.915 6.874,
            -3.064 -21.931 6.874,
            -3.064 -21.789 6.733,
            -2.438 -21.774 6.733,
            -1.814 -21.727 6.733,
            -1.192 -21.649 6.733,
            -0.576 -21.540 6.733,
            0.035 -21.401 6.733,
            0.638 -21.231 6.733,
            1.231 -21.032 6.733,
            1.814 -20.803 6.733,
            2.385 -20.545 6.733,
            2.942 -20.260 6.733,
            3.484 -19.947 6.733,
            4.010 -19.607 6.733,
            4.519 -19.241 6.733,
            5.008 -18.851 6.733,
            5.478 -18.437 6.733,
            5.926 -17.999 6.733,
            6.352 -17.540 6.733,
            6.755 -17.061 6.733,
            7.133 -16.562 6.733,
            7.485 -16.044 6.733,
            7.812 -15.510 6.733,
            8.111 -14.960 6.733,
            8.383 -14.396 6.733,
            8.626 -13.819 6.733,
            8.841 -13.230 6.733,
            9.025 -12.632 6.733,
            9.180 -12.025 6.733,
            9.304 -11.411 6.733,
            9.397 -10.792 6.733,
            9.459 -10.169 6.733,
            9.491 -9.544 6.733,
            9.491 -8.918 6.733,
            9.459 -8.292 6.733,
            9.397 -7.669 6.733,
            9.304 -7.050 6.733,
            9.180 -6.436 6.733,
            9.025 -5.829 6.733,
            8.841 -5.231 6.733,
            8.626 -4.642 6.733,
            8.383 -4.065 6.733,
            8.111 -3.501 6.733,
            7.812 -2.951 6.733,
            7.485 -2.417 6.733,
            7.133 -1.900 6.733,
            6.755 -1.400 6.733,
            6.352 -0.921 6.733,
            5.926 -0.462 6.733,
            5.478 -0.025 6.733,
            5.008 0.390 6.733,
            4.519 0.780 6.733,
            4.010 1.146 6.733,
            3.484 1.486 6.733,
            2.942 1.799 6.733,
            2.385 2.084 6.733,
            1.814 2.342 6.733,
            1.231 2.571 6.733,
            0.638 2.770 6.733,
            0.035 2.940 6.733,
            -0.576 3.079 6.733,
            -1.192 3.188 6.733,
            -1.814 3.266 6.733,
            -2.438 3.312 6.733,
            -3.064 3.328 6.733,
            -11.137 -18.851 6.733,
            -11.606 -18.437 6.733,
            -12.054 -17.999 6.733,
            -12.480 -17.540 6.733,
            -13.614 -16.044 6.733,
            -12.883 -17.061 6.733,
            -13.261 -16.562 6.733,
            -14.240 -14.960 6.733,
            -13.940 -15.510 6.733,
            -8.513 -20.545 6.733,
            -9.070 -20.260 6.733,
            -9.613 -19.947 6.733,
            -10.139 -19.607 6.733,
            -10.647 -19.241 6.733,
            -14.511 -14.396 6.733,
            -7.359 -21.032 6.733,
            -7.942 -20.803 6.733,
            -14.969 -13.230 6.733,
            -14.755 -13.819 6.733,
            -15.308 -12.025 6.733,
            -15.153 -12.632 6.733,
            -4.936 -21.649 6.733,
            -5.552 -21.540 6.733,
            -6.163 -21.401 6.733,
            -15.525 -10.792 6.733,
            -15.432 -11.411 6.733,
            -4.314 -21.727 6.733,
            -6.766 -21.231 6.733,
            -3.690 -21.774 6.733,
            -15.619 -8.918 6.733,
            -15.588 -10.169 6.733,
            -15.619 -9.544 6.733,
            -15.525 -7.669 6.733,
            -15.588 -8.292 6.733,
            -15.432 -7.050 6.733,
            -15.153 -5.829 6.733,
            -15.308 -6.436 6.733,
            -14.755 -4.642 6.733,
            -14.969 -5.231 6.733,
            -14.240 -3.501 6.733,
            -14.511 -4.065 6.733,
            -13.261 -1.900 6.733,
            -13.940 -2.951 6.733,
            -13.614 -2.417 6.733,
            -12.480 -0.921 6.733,
            -12.883 -1.400 6.733,
            -12.054 -0.462 6.733,
            -11.606 -0.025 6.733,
            -10.647 0.780 6.733,
            -11.137 0.390 6.733,
            -9.613 1.486 6.733,
            -10.139 1.146 6.733,
            -9.070 1.799 6.733,
            -8.513 2.084 6.733,
            -7.942 2.342 6.733,
            -7.359 2.571 6.733,
            -3.690 3.312 6.733,
            -6.766 2.770 6.733,
            -6.163 2.940 6.733,
            -5.552 3.079 6.733,
            -4.936 3.188 6.733,
            -4.314 3.266 6.733,
            -3.697 3.454 6.874,
            -4.329 3.406 6.874,
            -4.957 3.328 6.874,
            -5.581 3.218 6.874,
            -6.198 3.077 6.874,
            -6.807 2.905 6.874,
            -7.408 2.703 6.874,
            -7.997 2.472 6.874,
            -8.574 2.212 6.874,
            -9.138 1.923 6.874,
            -9.686 1.606 6.874,
            -10.218 1.263 6.874,
            -10.732 0.893 6.874,
            -11.227 0.498 6.874,
            -11.702 0.079 6.874,
            -12.156 -0.363 6.874,
            -12.586 -0.827 6.874,
            -12.993 -1.312 6.874,
            -13.376 -1.817 6.874,
            -13.732 -2.340 6.874,
            -14.063 -2.881 6.874,
            -14.365 -3.437 6.874,
            -14.640 -4.007 6.874,
            -14.886 -4.591 6.874,
            -15.103 -5.186 6.874,
            -15.289 -5.791 6.874,
            -15.446 -6.405 6.874,
            -15.571 -7.025 6.874,
            -15.665 -7.651 6.874,
            -15.729 -8.282 6.874,
            -15.760 -8.914 6.874,
            -15.760 -9.547 6.874,
            -15.729 -10.180 6.874,
            -15.665 -10.810 6.874,
            -15.571 -11.436 6.874,
            -15.446 -12.057 6.874,
            -15.289 -12.670 6.874,
            -15.103 -13.275 6.874,
            -14.886 -13.870 6.874,
            -14.640 -14.454 6.874,
            -14.365 -15.024 6.874,
            -14.063 -15.581 6.874,
            -13.732 -16.121 6.874,
            -13.376 -16.644 6.874,
            -12.993 -17.149 6.874,
            -12.586 -17.634 6.874,
            -12.156 -18.098 6.874,
            -11.702 -18.540 6.874,
            -11.227 -18.959 6.874,
            -10.732 -19.354 6.874,
            -10.218 -19.724 6.874,
            -9.686 -20.067 6.874,
            -9.138 -20.384 6.874,
            -8.574 -20.673 6.874,
            -7.997 -20.933 6.874,
            -7.408 -21.165 6.874,
            -6.807 -21.366 6.874,
            -6.198 -21.538 6.874,
            -5.581 -21.679 6.874,
            -4.957 -21.789 6.874,
            -4.329 -21.867 6.874,
            -3.697 -21.915 6.874,
            -3.697 -21.915 8.595,
            -4.329 -21.867 8.595,
            -4.957 -21.789 8.595,
            -5.581 -21.679 8.595,
            -6.198 -21.538 8.595,
            -6.807 -21.366 8.595,
            -7.408 -21.165 8.595,
            -7.997 -20.933 8.595,
            -8.574 -20.673 8.595,
            -9.138 -20.384 8.595,
            -9.686 -20.067 8.595,
            -10.218 -19.724 8.595,
            -10.732 -19.354 8.595,
            -11.227 -18.959 8.595,
            -11.702 -18.540 8.595,
            -12.156 -18.098 8.595,
            -12.586 -17.634 8.595,
            -12.993 -17.149 8.595,
            -13.376 -16.644 8.595,
            -13.732 -16.121 8.595,
            -14.063 -15.581 8.595,
            -14.365 -15.024 8.595,
            -14.640 -14.454 8.595,
            -14.886 -13.870 8.595,
            -15.103 -13.275 8.595,
            -15.289 -12.670 8.595,
            -15.446 -12.057 8.595,
            -15.571 -11.436 8.595,
            -15.665 -10.810 8.595,
            -15.729 -10.180 8.595,
            -15.760 -9.547 8.595,
            -15.760 -8.914 8.595,
            -15.729 -8.282 8.595,
            -15.665 -7.651 8.595,
            -15.571 -7.025 8.595,
            -15.446 -6.405 8.595,
            -15.289 -5.791 8.595,
            -15.103 -5.186 8.595,
            -14.886 -4.591 8.595,
            -14.640 -4.007 8.595,
            -14.365 -3.437 8.595,
            -14.063 -2.881 8.595,
            -13.732 -2.340 8.595,
            -13.376 -1.817 8.595,
            -12.993 -1.312 8.595,
            -12.586 -0.827 8.595,
            -12.156 -0.363 8.595,
            -11.702 0.079 8.595,
            -11.227 0.498 8.595,
            -10.732 0.893 8.595,
            -10.218 1.263 8.595,
            -9.686 1.606 8.595,
            -9.138 1.923 8.595,
            -8.574 2.212 8.595,
            -7.997 2.472 8.595,
            -7.408 2.703 8.595,
            -6.807 2.905 8.595,
            -6.198 3.077 8.595,
            -5.581 3.218 8.595,
            -4.957 3.328 8.595,
            -4.329 3.406 8.595,
            -3.697 3.454 8.595,
            -3.690 -21.774 8.737,
            -4.314 -21.727 8.737,
            -4.936 -21.649 8.737,
            -5.552 -21.540 8.737,
            -6.163 -21.401 8.737,
            -6.766 -21.231 8.737,
            -7.359 -21.032 8.737,
            -7.942 -20.803 8.737,
            -8.513 -20.545 8.737,
            -9.070 -20.260 8.737,
            -9.613 -19.947 8.737,
            -10.139 -19.607 8.737,
            -10.647 -19.241 8.737,
            -11.137 -18.851 8.737,
            -11.606 -18.437 8.737,
            -12.054 -17.999 8.737,
            -12.480 -17.540 8.737,
            -12.883 -17.061 8.737,
            -13.261 -16.562 8.737,
            -13.614 -16.044 8.737,
            -13.940 -15.510 8.737,
            -14.240 -14.960 8.737,
            -14.511 -14.396 8.737,
            -14.755 -13.819 8.737,
            -14.969 -13.230 8.737,
            -15.153 -12.632 8.737,
            -15.308 -12.025 8.737,
            -15.432 -11.411 8.737,
            -15.525 -10.792 8.737,
            -15.588 -10.169 8.737,
            -15.619 -9.544 8.737,
            -15.619 -8.918 8.737,
            -15.588 -8.292 8.737,
            -15.525 -7.669 8.737,
            -15.432 -7.050 8.737,
            -15.308 -6.436 8.737,
            -15.153 -5.829 8.737,
            -14.969 -5.231 8.737,
            -14.755 -4.642 8.737,
            -14.511 -4.065 8.737,
            -14.240 -3.501 8.737,
            -13.940 -2.951 8.737,
            -13.614 -2.417 8.737,
            -13.261 -1.900 8.737,
            -12.883 -1.400 8.737,
            -12.480 -0.921 8.737,
            -12.054 -0.462 8.737,
            -11.606 -0.025 8.737,
            -11.137 0.390 8.737,
            -10.647 0.780 8.737,
            -10.139 1.146 8.737,
            -9.613 1.486 8.737,
            -9.070 1.799 8.737,
            -8.513 2.084 8.737,
            -7.942 2.342 8.737,
            -7.359 2.571 8.737,
            -6.766 2.770 8.737,
            -6.163 2.940 8.737,
            -5.552 3.079 8.737,
            -4.936 3.188 8.737,
            -4.314 3.266 8.737,
            -3.690 3.312 8.737,
            -9.343 -0.859 8.830,
            -9.343 -9.231 8.966,
            -9.343 -17.602 8.830
          ]
        }
        coordIndex [
          0, 1, 2, -1,
          0, 3, 1, -1,
          0, 4, 3, -1,
          0, 5, 4, -1,
          0, 6, 5, -1,
          7, 6, 0, -1,
          8, 7, 0, -1,
          9, 10, 11, -1,
          12, 10, 9, -1,
          13, 10, 12, -1,
          14, 10, 13, -1,
          15, 10, 14, -1,
          16, 10, 15, -1,
          17, 10, 16, -1,
          18, 0, 19, -1,
          18, 20, 8, -1,
          18, 21, 20, -1,
          18, 22, 21, -1,
          18, 23, 22, -1,
          18, 24, 23, -1,
          18, 25, 24, -1,
          18, 26, 25, -1,
          18, 27, 26, -1,
          18, 28, 27, -1,
          18, 29, 28, -1,
          18, 30, 29, -1,
          18, 31, 30, -1,
          18, 32, 31, -1,
          18, 33, 32, -1,
          18, 8, 0, -1,
          34, 19, 35, -1,
          34, 35, 36, -1,
          34, 37, 33, -1,
          34, 38, 37, -1,
          34, 39, 38, -1,
          34, 40, 39, -1,
          34, 41, 40, -1,
          34, 42, 41, -1,
          34, 43, 42, -1,
          34, 44, 43, -1,
          34, 45, 44, -1,
          34, 46, 45, -1,
          34, 47, 46, -1,
          34, 48, 47, -1,
          34, 49, 48, -1,
          34, 50, 49, -1,
          34, 51, 50, -1,
          34, 52, 51, -1,
          34, 53, 52, -1,
          34, 54, 53, -1,
          34, 55, 54, -1,
          34, 56, 55, -1,
          34, 57, 56, -1,
          34, 18, 19, -1,
          34, 33, 18, -1,
          58, 36, 10, -1,
          58, 34, 36, -1,
          58, 59, 57, -1,
          58, 60, 59, -1,
          58, 61, 60, -1,
          58, 62, 61, -1,
          58, 63, 62, -1,
          58, 64, 63, -1,
          58, 65, 64, -1,
          58, 66, 65, -1,
          58, 67, 66, -1,
          58, 68, 67, -1,
          58, 69, 68, -1,
          58, 70, 69, -1,
          58, 71, 70, -1,
          58, 17, 71, -1,
          58, 10, 17, -1,
          58, 57, 34, -1,
          72, 2, 1, -1,
          72, 73, 2, -1,
          74, 1, 3, -1,
          74, 72, 1, -1,
          75, 3, 4, -1,
          75, 74, 3, -1,
          76, 4, 5, -1,
          76, 75, 4, -1,
          77, 5, 6, -1,
          77, 76, 5, -1,
          7, 77, 6, -1,
          78, 77, 7, -1,
          79, 7, 8, -1,
          79, 78, 7, -1,
          80, 8, 20, -1,
          80, 79, 8, -1,
          81, 20, 21, -1,
          81, 80, 20, -1,
          22, 81, 21, -1,
          82, 81, 22, -1,
          23, 82, 22, -1,
          83, 82, 23, -1,
          84, 23, 24, -1,
          84, 83, 23, -1,
          85, 24, 25, -1,
          85, 84, 24, -1,
          86, 25, 26, -1,
          86, 85, 25, -1,
          27, 86, 26, -1,
          87, 86, 27, -1,
          88, 27, 28, -1,
          88, 87, 27, -1,
          89, 28, 29, -1,
          89, 88, 28, -1,
          90, 29, 30, -1,
          90, 89, 29, -1,
          31, 90, 30, -1,
          91, 90, 31, -1,
          92, 91, 31, -1,
          92, 31, 32, -1,
          93, 92, 32, -1,
          93, 32, 33, -1,
          37, 93, 33, -1,
          94, 93, 37, -1,
          38, 94, 37, -1,
          95, 94, 38, -1,
          96, 38, 39, -1,
          96, 95, 38, -1,
          40, 96, 39, -1,
          97, 96, 40, -1,
          98, 40, 41, -1,
          98, 97, 40, -1,
          99, 41, 42, -1,
          99, 98, 41, -1,
          100, 42, 43, -1,
          100, 99, 42, -1,
          101, 43, 44, -1,
          101, 100, 43, -1,
          102, 44, 45, -1,
          102, 101, 44, -1,
          103, 45, 46, -1,
          103, 102, 45, -1,
          104, 46, 47, -1,
          104, 103, 46, -1,
          105, 47, 48, -1,
          105, 104, 47, -1,
          49, 105, 48, -1,
          106, 105, 49, -1,
          107, 49, 50, -1,
          107, 106, 49, -1,
          108, 50, 51, -1,
          108, 107, 50, -1,
          52, 108, 51, -1,
          109, 108, 52, -1,
          110, 52, 53, -1,
          110, 109, 52, -1,
          54, 110, 53, -1,
          111, 110, 54, -1,
          55, 111, 54, -1,
          112, 111, 55, -1,
          113, 55, 56, -1,
          113, 112, 55, -1,
          114, 56, 57, -1,
          114, 113, 56, -1,
          59, 114, 57, -1,
          115, 114, 59, -1,
          60, 115, 59, -1,
          116, 115, 60, -1,
          117, 116, 60, -1,
          117, 60, 61, -1,
          62, 117, 61, -1,
          118, 117, 62, -1,
          63, 118, 62, -1,
          119, 118, 63, -1,
          120, 119, 63, -1,
          120, 63, 64, -1,
          65, 120, 64, -1,
          121, 120, 65, -1,
          66, 121, 65, -1,
          122, 121, 66, -1,
          123, 122, 66, -1,
          123, 66, 67, -1,
          68, 123, 67, -1,
          124, 123, 68, -1,
          125, 124, 68, -1,
          125, 68, 69, -1,
          70, 125, 69, -1,
          126, 125, 70, -1,
          127, 126, 70, -1,
          127, 70, 71, -1,
          17, 127, 71, -1,
          128, 127, 17, -1,
          16, 128, 17, -1,
          129, 128, 16, -1,
          130, 16, 15, -1,
          130, 129, 16, -1,
          14, 130, 15, -1,
          131, 130, 14, -1,
          13, 131, 14, -1,
          132, 131, 13, -1,
          12, 132, 13, -1,
          133, 132, 12, -1,
          9, 133, 12, -1,
          134, 133, 9, -1,
          11, 134, 9, -1,
          135, 134, 11, -1,
          136, 73, 72, -1,
          136, 137, 73, -1,
          138, 72, 74, -1,
          138, 136, 72, -1,
          139, 74, 75, -1,
          139, 138, 74, -1,
          140, 75, 76, -1,
          140, 139, 75, -1,
          141, 76, 77, -1,
          141, 140, 76, -1,
          142, 77, 78, -1,
          142, 78, 79, -1,
          142, 141, 77, -1,
          143, 142, 79, -1,
          144, 79, 80, -1,
          144, 143, 79, -1,
          145, 80, 81, -1,
          145, 144, 80, -1,
          146, 81, 82, -1,
          146, 145, 81, -1,
          147, 82, 83, -1,
          147, 146, 82, -1,
          148, 83, 84, -1,
          148, 147, 83, -1,
          149, 84, 85, -1,
          149, 148, 84, -1,
          150, 85, 86, -1,
          150, 149, 85, -1,
          151, 86, 87, -1,
          151, 87, 88, -1,
          151, 150, 86, -1,
          152, 151, 88, -1,
          153, 152, 88, -1,
          153, 88, 89, -1,
          154, 89, 90, -1,
          154, 153, 89, -1,
          155, 154, 90, -1,
          155, 90, 91, -1,
          156, 155, 91, -1,
          156, 91, 92, -1,
          157, 156, 92, -1,
          157, 92, 93, -1,
          157, 93, 94, -1,
          158, 157, 94, -1,
          159, 158, 94, -1,
          159, 94, 95, -1,
          160, 95, 96, -1,
          160, 159, 95, -1,
          161, 96, 97, -1,
          161, 97, 98, -1,
          161, 160, 96, -1,
          162, 161, 98, -1,
          163, 98, 99, -1,
          163, 99, 100, -1,
          163, 162, 98, -1,
          164, 163, 100, -1,
          165, 100, 101, -1,
          165, 164, 100, -1,
          166, 101, 102, -1,
          166, 102, 103, -1,
          166, 165, 101, -1,
          167, 166, 103, -1,
          168, 103, 104, -1,
          168, 167, 103, -1,
          169, 104, 105, -1,
          169, 168, 104, -1,
          170, 105, 106, -1,
          170, 169, 105, -1,
          171, 106, 107, -1,
          171, 107, 108, -1,
          171, 170, 106, -1,
          172, 171, 108, -1,
          173, 108, 109, -1,
          173, 172, 108, -1,
          174, 109, 110, -1,
          174, 110, 111, -1,
          174, 173, 109, -1,
          175, 111, 112, -1,
          175, 174, 111, -1,
          176, 175, 112, -1,
          177, 112, 113, -1,
          177, 176, 112, -1,
          178, 113, 114, -1,
          178, 114, 115, -1,
          178, 177, 113, -1,
          179, 178, 115, -1,
          180, 179, 115, -1,
          180, 115, 116, -1,
          181, 180, 116, -1,
          181, 116, 117, -1,
          182, 181, 117, -1,
          182, 117, 118, -1,
          183, 182, 118, -1,
          183, 118, 119, -1,
          184, 183, 119, -1,
          184, 119, 120, -1,
          185, 184, 120, -1,
          185, 120, 121, -1,
          186, 185, 121, -1,
          186, 121, 122, -1,
          187, 186, 122, -1,
          187, 122, 123, -1,
          188, 187, 123, -1,
          188, 123, 124, -1,
          188, 124, 125, -1,
          189, 188, 125, -1,
          190, 189, 125, -1,
          190, 125, 126, -1,
          191, 190, 126, -1,
          191, 126, 127, -1,
          192, 127, 128, -1,
          192, 191, 127, -1,
          192, 128, 129, -1,
          193, 192, 129, -1,
          194, 193, 129, -1,
          194, 129, 130, -1,
          195, 130, 131, -1,
          195, 194, 130, -1,
          196, 131, 132, -1,
          196, 195, 131, -1,
          197, 132, 133, -1,
          197, 196, 132, -1,
          198, 133, 134, -1,
          198, 197, 133, -1,
          199, 134, 135, -1,
          199, 198, 134, -1,
          198, 199, 200, -1,
          198, 200, 201, -1,
          197, 198, 201, -1,
          197, 201, 202, -1,
          196, 197, 202, -1,
          196, 202, 203, -1,
          204, 196, 203, -1,
          195, 196, 204, -1,
          205, 195, 204, -1,
          194, 195, 205, -1,
          193, 194, 205, -1,
          193, 205, 206, -1,
          207, 193, 206, -1,
          192, 193, 207, -1,
          191, 207, 208, -1,
          191, 192, 207, -1,
          190, 208, 209, -1,
          190, 191, 208, -1,
          189, 209, 210, -1,
          189, 190, 209, -1,
          211, 189, 210, -1,
          188, 189, 211, -1,
          187, 211, 212, -1,
          187, 188, 211, -1,
          213, 187, 212, -1,
          186, 187, 213, -1,
          185, 213, 214, -1,
          185, 186, 213, -1,
          184, 214, 215, -1,
          184, 185, 214, -1,
          183, 215, 216, -1,
          183, 184, 215, -1,
          182, 216, 217, -1,
          182, 183, 216, -1,
          218, 182, 217, -1,
          181, 182, 218, -1,
          219, 181, 218, -1,
          180, 181, 219, -1,
          220, 180, 219, -1,
          179, 180, 220, -1,
          221, 179, 220, -1,
          178, 179, 221, -1,
          177, 178, 221, -1,
          177, 221, 222, -1,
          223, 177, 222, -1,
          176, 177, 223, -1,
          224, 176, 223, -1,
          175, 176, 224, -1,
          174, 175, 224, -1,
          174, 224, 225, -1,
          226, 174, 225, -1,
          173, 174, 226, -1,
          172, 226, 227, -1,
          172, 173, 226, -1,
          171, 227, 228, -1,
          171, 172, 227, -1,
          170, 228, 229, -1,
          170, 171, 228, -1,
          169, 229, 230, -1,
          169, 170, 229, -1,
          168, 230, 231, -1,
          168, 169, 230, -1,
          167, 231, 232, -1,
          167, 168, 231, -1,
          166, 232, 233, -1,
          166, 167, 232, -1,
          165, 233, 234, -1,
          165, 166, 233, -1,
          235, 165, 234, -1,
          164, 165, 235, -1,
          163, 235, 236, -1,
          163, 164, 235, -1,
          237, 163, 236, -1,
          162, 163, 237, -1,
          238, 162, 237, -1,
          161, 162, 238, -1,
          160, 238, 239, -1,
          160, 161, 238, -1,
          159, 239, 240, -1,
          159, 160, 239, -1,
          241, 159, 240, -1,
          158, 159, 241, -1,
          157, 241, 242, -1,
          157, 158, 241, -1,
          243, 157, 242, -1,
          156, 157, 243, -1,
          244, 156, 243, -1,
          155, 156, 244, -1,
          245, 155, 244, -1,
          154, 155, 245, -1,
          246, 154, 245, -1,
          153, 154, 246, -1,
          247, 153, 246, -1,
          152, 153, 247, -1,
          151, 247, 248, -1,
          151, 152, 247, -1,
          249, 151, 248, -1,
          150, 151, 249, -1,
          149, 249, 250, -1,
          149, 150, 249, -1,
          251, 149, 250, -1,
          148, 149, 251, -1,
          252, 148, 251, -1,
          147, 148, 252, -1,
          253, 147, 252, -1,
          146, 147, 253, -1,
          145, 253, 254, -1,
          145, 146, 253, -1,
          255, 145, 254, -1,
          144, 145, 255, -1,
          256, 144, 255, -1,
          143, 144, 256, -1,
          257, 143, 256, -1,
          142, 143, 257, -1,
          258, 142, 257, -1,
          141, 142, 258, -1,
          140, 258, 259, -1,
          140, 141, 258, -1,
          260, 140, 259, -1,
          139, 140, 260, -1,
          138, 260, 261, -1,
          138, 139, 260, -1,
          262, 138, 261, -1,
          136, 138, 262, -1,
          263, 136, 262, -1,
          137, 136, 263, -1,
          264, 265, 266, -1,
          264, 266, 267, -1,
          268, 267, 269, -1,
          268, 269, 270, -1,
          268, 264, 267, -1,
          271, 268, 272, -1,
          273, 274, 275, -1,
          273, 275, 276, -1,
          273, 276, 277, -1,
          273, 277, 264, -1,
          278, 268, 271, -1,
          279, 280, 273, -1,
          281, 278, 282, -1,
          281, 264, 268, -1,
          281, 268, 278, -1,
          283, 281, 284, -1,
          285, 286, 287, -1,
          288, 283, 289, -1,
          290, 287, 291, -1,
          290, 291, 279, -1,
          290, 285, 287, -1,
          292, 279, 273, -1,
          292, 273, 264, -1,
          292, 290, 279, -1,
          293, 294, 295, -1,
          202, 201, 200, -1,
          296, 293, 297, -1,
          203, 200, 292, -1,
          203, 202, 200, -1,
          298, 293, 296, -1,
          205, 204, 203, -1,
          205, 264, 281, -1,
          205, 292, 264, -1,
          205, 203, 292, -1,
          299, 293, 298, -1,
          299, 288, 294, -1,
          299, 298, 300, -1,
          299, 294, 293, -1,
          207, 205, 281, -1,
          207, 206, 205, -1,
          207, 281, 283, -1,
          301, 288, 299, -1,
          301, 299, 302, -1,
          303, 301, 304, -1,
          210, 209, 208, -1,
          210, 208, 207, -1,
          211, 210, 207, -1,
          305, 301, 303, -1,
          305, 303, 306, -1,
          305, 306, 307, -1,
          308, 288, 301, -1,
          308, 301, 305, -1,
          308, 305, 309, -1,
          310, 288, 308, -1,
          310, 283, 288, -1,
          311, 283, 310, -1,
          217, 216, 215, -1,
          217, 215, 214, -1,
          217, 214, 213, -1,
          217, 213, 212, -1,
          217, 212, 211, -1,
          217, 211, 207, -1,
          312, 311, 313, -1,
          219, 218, 217, -1,
          314, 312, 315, -1,
          221, 220, 219, -1,
          316, 312, 314, -1,
          317, 312, 316, -1,
          223, 222, 221, -1,
          318, 312, 317, -1,
          224, 217, 207, -1,
          224, 219, 217, -1,
          224, 221, 219, -1,
          224, 223, 221, -1,
          319, 312, 318, -1,
          227, 226, 225, -1,
          227, 225, 224, -1,
          227, 207, 283, -1,
          227, 224, 207, -1,
          320, 319, 321, -1,
          320, 321, 322, -1,
          320, 322, 323, -1,
          320, 323, 324, -1,
          320, 324, 325, -1,
          320, 312, 319, -1,
          231, 230, 229, -1,
          263, 312, 320, -1,
          262, 312, 263, -1,
          262, 283, 311, -1,
          262, 311, 312, -1,
          262, 227, 283, -1,
          262, 228, 227, -1,
          233, 232, 231, -1,
          234, 233, 231, -1,
          234, 231, 229, -1,
          235, 234, 229, -1,
          235, 229, 228, -1,
          258, 262, 261, -1,
          258, 261, 260, -1,
          258, 260, 259, -1,
          237, 235, 228, -1,
          237, 236, 235, -1,
          256, 258, 257, -1,
          239, 237, 228, -1,
          239, 238, 237, -1,
          253, 258, 256, -1,
          253, 256, 255, -1,
          253, 255, 254, -1,
          243, 242, 241, -1,
          243, 241, 240, -1,
          251, 258, 253, -1,
          251, 253, 252, -1,
          245, 243, 240, -1,
          245, 244, 243, -1,
          249, 258, 251, -1,
          249, 251, 250, -1,
          248, 262, 258, -1,
          248, 258, 249, -1,
          247, 228, 262, -1,
          247, 239, 228, -1,
          247, 262, 248, -1,
          247, 245, 240, -1,
          247, 246, 245, -1,
          247, 240, 239, -1,
          326, 137, 263, -1,
          326, 263, 320, -1,
          327, 326, 320, -1,
          327, 320, 325, -1,
          324, 327, 325, -1,
          328, 327, 324, -1,
          329, 328, 324, -1,
          329, 324, 323, -1,
          330, 329, 323, -1,
          330, 323, 322, -1,
          331, 330, 322, -1,
          331, 322, 321, -1,
          332, 321, 319, -1,
          332, 331, 321, -1,
          333, 319, 318, -1,
          333, 332, 319, -1,
          334, 318, 317, -1,
          334, 333, 318, -1,
          335, 317, 316, -1,
          335, 334, 317, -1,
          336, 316, 314, -1,
          336, 335, 316, -1,
          315, 336, 314, -1,
          337, 336, 315, -1,
          312, 337, 315, -1,
          338, 337, 312, -1,
          339, 312, 313, -1,
          339, 338, 312, -1,
          340, 313, 311, -1,
          340, 339, 313, -1,
          341, 311, 310, -1,
          341, 340, 311, -1,
          342, 310, 308, -1,
          342, 341, 310, -1,
          309, 342, 308, -1,
          343, 342, 309, -1,
          344, 343, 309, -1,
          344, 309, 305, -1,
          345, 344, 305, -1,
          345, 305, 307, -1,
          306, 345, 307, -1,
          346, 345, 306, -1,
          347, 346, 306, -1,
          347, 306, 303, -1,
          348, 347, 303, -1,
          348, 303, 304, -1,
          349, 348, 304, -1,
          349, 304, 301, -1,
          350, 349, 301, -1,
          350, 301, 302, -1,
          299, 350, 302, -1,
          351, 350, 299, -1,
          352, 299, 300, -1,
          352, 351, 299, -1,
          353, 300, 298, -1,
          353, 352, 300, -1,
          354, 298, 296, -1,
          354, 353, 298, -1,
          355, 296, 297, -1,
          355, 354, 296, -1,
          356, 297, 293, -1,
          356, 355, 297, -1,
          357, 293, 295, -1,
          357, 356, 293, -1,
          358, 295, 294, -1,
          358, 357, 295, -1,
          288, 358, 294, -1,
          359, 358, 288, -1,
          360, 288, 289, -1,
          360, 359, 288, -1,
          361, 289, 283, -1,
          361, 360, 289, -1,
          362, 283, 284, -1,
          362, 361, 283, -1,
          281, 362, 284, -1,
          363, 362, 281, -1,
          282, 363, 281, -1,
          364, 363, 282, -1,
          365, 282, 278, -1,
          365, 364, 282, -1,
          271, 365, 278, -1,
          366, 365, 271, -1,
          367, 271, 272, -1,
          367, 366, 271, -1,
          368, 272, 268, -1,
          368, 367, 272, -1,
          270, 368, 268, -1,
          369, 368, 270, -1,
          370, 369, 270, -1,
          370, 270, 269, -1,
          371, 370, 269, -1,
          371, 269, 267, -1,
          266, 371, 267, -1,
          372, 371, 266, -1,
          373, 266, 265, -1,
          373, 372, 266, -1,
          264, 373, 265, -1,
          374, 373, 264, -1,
          277, 374, 264, -1,
          375, 374, 277, -1,
          376, 277, 276, -1,
          376, 375, 277, -1,
          377, 276, 275, -1,
          377, 376, 276, -1,
          274, 377, 275, -1,
          378, 377, 274, -1,
          379, 274, 273, -1,
          379, 378, 274, -1,
          280, 379, 273, -1,
          380, 379, 280, -1,
          381, 280, 279, -1,
          381, 380, 280, -1,
          291, 381, 279, -1,
          382, 381, 291, -1,
          383, 291, 287, -1,
          383, 382, 291, -1,
          384, 287, 286, -1,
          384, 383, 287, -1,
          285, 384, 286, -1,
          385, 384, 285, -1,
          386, 285, 290, -1,
          386, 385, 285, -1,
          387, 290, 292, -1,
          387, 386, 290, -1,
          199, 292, 200, -1,
          199, 387, 292, -1,
          387, 199, 135, -1,
          387, 135, 388, -1,
          386, 388, 389, -1,
          386, 387, 388, -1,
          385, 389, 390, -1,
          385, 386, 389, -1,
          384, 390, 391, -1,
          384, 385, 390, -1,
          383, 391, 392, -1,
          383, 384, 391, -1,
          382, 392, 393, -1,
          382, 383, 392, -1,
          381, 393, 394, -1,
          381, 394, 395, -1,
          381, 382, 393, -1,
          380, 381, 395, -1,
          379, 395, 396, -1,
          379, 380, 395, -1,
          378, 396, 397, -1,
          378, 379, 396, -1,
          377, 397, 398, -1,
          377, 378, 397, -1,
          376, 398, 399, -1,
          376, 377, 398, -1,
          375, 399, 400, -1,
          375, 376, 399, -1,
          374, 400, 401, -1,
          374, 401, 402, -1,
          374, 375, 400, -1,
          373, 374, 402, -1,
          372, 402, 403, -1,
          372, 403, 404, -1,
          372, 373, 402, -1,
          371, 372, 404, -1,
          370, 371, 404, -1,
          370, 404, 405, -1,
          370, 405, 406, -1,
          369, 370, 406, -1,
          368, 369, 406, -1,
          368, 406, 407, -1,
          367, 368, 407, -1,
          367, 407, 408, -1,
          367, 408, 409, -1,
          366, 367, 409, -1,
          365, 409, 410, -1,
          365, 366, 409, -1,
          364, 410, 411, -1,
          364, 365, 410, -1,
          364, 411, 412, -1,
          363, 364, 412, -1,
          362, 412, 413, -1,
          362, 413, 414, -1,
          362, 363, 412, -1,
          361, 414, 415, -1,
          361, 362, 414, -1,
          360, 361, 415, -1,
          359, 415, 416, -1,
          359, 360, 415, -1,
          358, 416, 417, -1,
          358, 359, 416, -1,
          357, 417, 418, -1,
          357, 358, 417, -1,
          356, 418, 419, -1,
          356, 419, 420, -1,
          356, 357, 418, -1,
          355, 356, 420, -1,
          354, 420, 421, -1,
          354, 355, 420, -1,
          353, 421, 422, -1,
          353, 354, 421, -1,
          352, 422, 423, -1,
          352, 353, 422, -1,
          351, 423, 424, -1,
          351, 424, 425, -1,
          351, 352, 423, -1,
          350, 351, 425, -1,
          349, 425, 426, -1,
          349, 426, 427, -1,
          349, 350, 425, -1,
          348, 349, 427, -1,
          347, 427, 428, -1,
          347, 348, 427, -1,
          346, 428, 429, -1,
          346, 347, 428, -1,
          345, 346, 429, -1,
          345, 429, 430, -1,
          344, 345, 430, -1,
          344, 430, 431, -1,
          343, 344, 431, -1,
          343, 431, 432, -1,
          342, 343, 432, -1,
          342, 432, 433, -1,
          341, 342, 433, -1,
          341, 433, 434, -1,
          341, 434, 435, -1,
          340, 341, 435, -1,
          339, 340, 435, -1,
          339, 435, 436, -1,
          338, 339, 436, -1,
          338, 436, 437, -1,
          337, 338, 437, -1,
          337, 437, 438, -1,
          336, 337, 438, -1,
          336, 438, 439, -1,
          335, 336, 439, -1,
          335, 439, 440, -1,
          335, 440, 441, -1,
          334, 335, 441, -1,
          333, 334, 441, -1,
          333, 441, 442, -1,
          332, 333, 442, -1,
          332, 442, 443, -1,
          331, 443, 444, -1,
          331, 332, 443, -1,
          330, 444, 445, -1,
          330, 331, 444, -1,
          329, 445, 446, -1,
          329, 330, 445, -1,
          328, 446, 447, -1,
          328, 329, 446, -1,
          327, 447, 448, -1,
          327, 328, 447, -1,
          326, 448, 449, -1,
          326, 327, 448, -1,
          137, 449, 73, -1,
          137, 326, 449, -1,
          388, 135, 11, -1,
          388, 11, 450, -1,
          389, 450, 451, -1,
          389, 388, 450, -1,
          390, 451, 452, -1,
          390, 389, 451, -1,
          391, 452, 453, -1,
          391, 390, 452, -1,
          392, 453, 454, -1,
          392, 391, 453, -1,
          393, 454, 455, -1,
          393, 392, 454, -1,
          394, 455, 456, -1,
          394, 393, 455, -1,
          395, 456, 457, -1,
          395, 394, 456, -1,
          396, 457, 458, -1,
          396, 395, 457, -1,
          397, 458, 459, -1,
          397, 396, 458, -1,
          460, 397, 459, -1,
          398, 397, 460, -1,
          399, 460, 461, -1,
          399, 398, 460, -1,
          462, 399, 461, -1,
          400, 399, 462, -1,
          401, 462, 463, -1,
          401, 400, 462, -1,
          402, 463, 464, -1,
          402, 401, 463, -1,
          403, 464, 465, -1,
          403, 402, 464, -1,
          404, 465, 466, -1,
          404, 403, 465, -1,
          467, 404, 466, -1,
          405, 404, 467, -1,
          468, 405, 467, -1,
          406, 405, 468, -1,
          469, 406, 468, -1,
          407, 406, 469, -1,
          470, 407, 469, -1,
          408, 407, 470, -1,
          471, 408, 470, -1,
          409, 408, 471, -1,
          410, 409, 471, -1,
          410, 471, 472, -1,
          411, 472, 473, -1,
          411, 410, 472, -1,
          474, 411, 473, -1,
          412, 411, 474, -1,
          413, 474, 475, -1,
          413, 412, 474, -1,
          414, 475, 476, -1,
          414, 413, 475, -1,
          415, 476, 477, -1,
          415, 414, 476, -1,
          416, 477, 478, -1,
          416, 415, 477, -1,
          417, 478, 479, -1,
          417, 416, 478, -1,
          418, 479, 480, -1,
          418, 417, 479, -1,
          419, 480, 481, -1,
          419, 418, 480, -1,
          420, 481, 482, -1,
          420, 419, 481, -1,
          421, 482, 483, -1,
          421, 420, 482, -1,
          422, 483, 484, -1,
          422, 421, 483, -1,
          485, 422, 484, -1,
          423, 422, 485, -1,
          486, 423, 485, -1,
          424, 423, 486, -1,
          487, 424, 486, -1,
          425, 424, 487, -1,
          488, 425, 487, -1,
          426, 425, 488, -1,
          489, 426, 488, -1,
          427, 426, 489, -1,
          490, 427, 489, -1,
          428, 427, 490, -1,
          429, 490, 491, -1,
          429, 428, 490, -1,
          492, 429, 491, -1,
          430, 429, 492, -1,
          431, 430, 492, -1,
          431, 492, 493, -1,
          432, 431, 493, -1,
          432, 493, 494, -1,
          433, 432, 494, -1,
          433, 494, 495, -1,
          496, 433, 495, -1,
          434, 433, 496, -1,
          435, 434, 496, -1,
          435, 496, 497, -1,
          436, 435, 497, -1,
          436, 497, 498, -1,
          499, 436, 498, -1,
          437, 436, 499, -1,
          438, 437, 499, -1,
          438, 499, 500, -1,
          439, 438, 500, -1,
          439, 500, 501, -1,
          440, 439, 501, -1,
          440, 501, 502, -1,
          503, 440, 502, -1,
          441, 440, 503, -1,
          442, 441, 503, -1,
          442, 503, 504, -1,
          505, 442, 504, -1,
          443, 442, 505, -1,
          444, 443, 505, -1,
          444, 505, 506, -1,
          445, 506, 507, -1,
          445, 444, 506, -1,
          508, 445, 507, -1,
          446, 445, 508, -1,
          447, 508, 509, -1,
          447, 446, 508, -1,
          448, 509, 510, -1,
          448, 447, 509, -1,
          449, 510, 511, -1,
          449, 448, 510, -1,
          73, 511, 2, -1,
          73, 449, 511, -1,
          0, 506, 505, -1,
          0, 507, 506, -1,
          0, 508, 507, -1,
          0, 509, 508, -1,
          0, 510, 509, -1,
          0, 511, 510, -1,
          0, 2, 511, -1,
          10, 456, 455, -1,
          454, 10, 455, -1,
          453, 10, 454, -1,
          452, 10, 453, -1,
          451, 10, 452, -1,
          450, 10, 451, -1,
          11, 10, 450, -1,
          512, 19, 0, -1,
          512, 492, 491, -1,
          512, 493, 492, -1,
          512, 494, 493, -1,
          512, 495, 494, -1,
          512, 496, 495, -1,
          512, 497, 496, -1,
          512, 498, 497, -1,
          512, 499, 498, -1,
          512, 500, 499, -1,
          512, 501, 500, -1,
          512, 502, 501, -1,
          512, 503, 502, -1,
          512, 504, 503, -1,
          512, 505, 504, -1,
          512, 0, 505, -1,
          513, 36, 35, -1,
          513, 512, 491, -1,
          513, 35, 19, -1,
          513, 471, 470, -1,
          513, 472, 471, -1,
          513, 473, 472, -1,
          513, 474, 473, -1,
          513, 475, 474, -1,
          513, 476, 475, -1,
          513, 477, 476, -1,
          513, 478, 477, -1,
          513, 479, 478, -1,
          513, 480, 479, -1,
          513, 481, 480, -1,
          513, 482, 481, -1,
          513, 483, 482, -1,
          513, 484, 483, -1,
          513, 485, 484, -1,
          513, 486, 485, -1,
          513, 487, 486, -1,
          513, 488, 487, -1,
          513, 489, 488, -1,
          513, 490, 489, -1,
          513, 491, 490, -1,
          513, 19, 512, -1,
          514, 10, 36, -1,
          514, 457, 456, -1,
          514, 458, 457, -1,
          514, 459, 458, -1,
          514, 460, 459, -1,
          514, 461, 460, -1,
          514, 462, 461, -1,
          514, 463, 462, -1,
          514, 464, 463, -1,
          514, 465, 464, -1,
          514, 466, 465, -1,
          514, 467, 466, -1,
          514, 468, 467, -1,
          514, 469, 468, -1,
          514, 470, 469, -1,
          514, 513, 470, -1,
          514, 36, 513, -1,
          514, 456, 10, -1
        ]
      }
    }
}
