#VRML V2.0 utf8
WorldInfo {
  title "Exported triangle mesh to VRML97"
  info ["Created by FreeCAD"
        "<https://www.freecad.org>"]
}

Transform {
  scale 1 1 1
  rotation 0 0 1 0
  scaleOrientation 0 0 1 0
  center 0.000 0.000 0.000
  translation 0.000 0.000 0.000
  children
    Shape { 
      appearance
      Appearance {
        material
        Material {
          diffuseColor 0.8 0.8 0.8
        }
      }
      geometry
      IndexedFaceSet {
        coord
        Coordinate {
          point [
            -48.224 31.788 10.559,
            -47.598 35.957 10.388,
            -48.224 35.973 10.388,
            -46.973 35.910 10.388,
            -46.352 35.833 10.388,
            -45.735 35.724 10.388,
            -45.125 35.584 10.388,
            -44.522 35.415 10.388,
            -43.929 35.215 10.388,
            -47.598 10.871 10.388,
            -48.224 15.040 10.559,
            -48.224 10.856 10.388,
            -46.973 10.918 10.388,
            -46.352 10.996 10.388,
            -45.735 11.105 10.388,
            -45.125 11.244 10.388,
            -44.522 11.414 10.388,
            -43.929 11.613 10.388,
            -41.945 31.786 10.482,
            -48.224 27.602 10.661,
            -43.346 34.987 10.388,
            -42.775 34.729 10.388,
            -42.218 34.443 10.388,
            -41.675 34.130 10.388,
            -41.149 33.791 10.388,
            -40.641 33.425 10.388,
            -40.151 33.035 10.388,
            -39.682 32.620 10.388,
            -39.234 32.183 10.388,
            -38.808 31.724 10.388,
            -38.405 31.244 10.388,
            -38.027 30.745 10.388,
            -37.674 30.228 10.388,
            -37.348 29.694 10.388,
            -41.945 23.414 10.618,
            -48.224 23.414 10.695,
            -48.224 19.227 10.661,
            -37.048 29.144 10.388,
            -36.777 28.579 10.388,
            -36.533 28.002 10.388,
            -36.319 27.414 10.388,
            -36.135 26.816 10.388,
            -35.980 26.209 10.388,
            -35.856 25.595 10.388,
            -35.763 24.976 10.388,
            -35.700 24.353 10.388,
            -35.669 23.727 10.388,
            -35.669 23.101 10.388,
            -35.700 22.476 10.388,
            -35.763 21.853 10.388,
            -35.856 21.233 10.388,
            -35.980 20.620 10.388,
            -36.135 20.013 10.388,
            -36.319 19.414 10.388,
            -36.533 18.826 10.388,
            -36.777 18.249 10.388,
            -37.048 17.685 10.388,
            -37.348 17.135 10.388,
            -41.945 15.042 10.482,
            -37.674 16.601 10.388,
            -38.027 16.083 10.388,
            -38.405 15.584 10.388,
            -38.808 15.104 10.388,
            -39.234 14.645 10.388,
            -39.682 14.208 10.388,
            -40.151 13.794 10.388,
            -40.641 13.403 10.388,
            -41.149 13.038 10.388,
            -41.675 12.698 10.388,
            -42.218 12.385 10.388,
            -42.775 12.099 10.388,
            -43.346 11.842 10.388,
            -48.224 36.114 10.247,
            -47.591 36.098 10.247,
            -46.959 36.051 10.247,
            -46.331 35.972 10.247,
            -45.707 35.862 10.247,
            -45.090 35.722 10.247,
            -44.481 35.550 10.247,
            -43.880 35.348 10.247,
            -43.291 35.117 10.247,
            -42.714 34.857 10.247,
            -42.150 34.568 10.247,
            -41.602 34.251 10.247,
            -41.070 33.907 10.247,
            -40.556 33.538 10.247,
            -40.060 33.143 10.247,
            -39.586 32.724 10.247,
            -39.132 32.282 10.247,
            -38.702 31.818 10.247,
            -38.295 31.333 10.247,
            -37.912 30.828 10.247,
            -37.556 30.305 10.247,
            -37.225 29.764 10.247,
            -36.923 29.208 10.247,
            -36.648 28.638 10.247,
            -36.402 28.054 10.247,
            -36.185 27.459 10.247,
            -35.999 26.854 10.247,
            -35.842 26.240 10.247,
            -35.717 25.620 10.247,
            -35.622 24.993 10.247,
            -35.559 24.363 10.247,
            -35.528 23.731 10.247,
            -35.528 23.098 10.247,
            -35.559 22.465 10.247,
            -35.622 21.835 10.247,
            -35.717 21.209 10.247,
            -35.842 20.588 10.247,
            -35.999 19.975 10.247,
            -36.185 19.369 10.247,
            -36.402 18.774 10.247,
            -36.648 18.191 10.247,
            -36.923 17.620 10.247,
            -37.225 17.064 10.247,
            -37.556 16.524 10.247,
            -37.912 16.001 10.247,
            -38.295 15.496 10.247,
            -38.702 15.011 10.247,
            -39.132 14.547 10.247,
            -39.586 14.104 10.247,
            -40.060 13.685 10.247,
            -40.556 13.291 10.247,
            -41.070 12.921 10.247,
            -41.602 12.577 10.247,
            -42.150 12.261 10.247,
            -42.714 11.972 10.247,
            -43.291 11.711 10.247,
            -43.880 11.480 10.247,
            -44.481 11.278 10.247,
            -45.090 11.107 10.247,
            -45.707 10.966 10.247,
            -46.331 10.856 10.247,
            -46.959 10.777 10.247,
            -47.591 10.730 10.247,
            -48.224 10.714 10.247,
            -47.591 36.098 8.526,
            -48.224 36.114 8.526,
            -46.959 36.051 8.526,
            -46.331 35.972 8.526,
            -45.707 35.862 8.526,
            -45.090 35.722 8.526,
            -44.481 35.550 8.526,
            -43.880 35.348 8.526,
            -43.291 35.117 8.526,
            -42.714 34.857 8.526,
            -42.150 34.568 8.526,
            -41.602 34.251 8.526,
            -41.070 33.907 8.526,
            -40.556 33.538 8.526,
            -40.060 33.143 8.526,
            -39.586 32.724 8.526,
            -39.132 32.282 8.526,
            -38.702 31.818 8.526,
            -38.295 31.333 8.526,
            -37.912 30.828 8.526,
            -37.556 30.305 8.526,
            -37.225 29.764 8.526,
            -36.923 29.208 8.526,
            -36.648 28.638 8.526,
            -36.402 28.054 8.526,
            -36.185 27.459 8.526,
            -35.999 26.854 8.526,
            -35.842 26.240 8.526,
            -35.717 25.620 8.526,
            -35.622 24.993 8.526,
            -35.559 24.363 8.526,
            -35.528 23.731 8.526,
            -35.528 23.098 8.526,
            -35.559 22.465 8.526,
            -35.622 21.835 8.526,
            -35.717 21.209 8.526,
            -35.842 20.588 8.526,
            -35.999 19.975 8.526,
            -36.185 19.369 8.526,
            -36.402 18.774 8.526,
            -36.648 18.191 8.526,
            -36.923 17.620 8.526,
            -37.225 17.064 8.526,
            -37.556 16.524 8.526,
            -37.912 16.001 8.526,
            -38.295 15.496 8.526,
            -38.702 15.011 8.526,
            -39.132 14.547 8.526,
            -39.586 14.104 8.526,
            -40.060 13.685 8.526,
            -40.556 13.291 8.526,
            -41.070 12.921 8.526,
            -41.602 12.577 8.526,
            -42.150 12.261 8.526,
            -42.714 11.972 8.526,
            -43.291 11.711 8.526,
            -43.880 11.480 8.526,
            -44.481 11.278 8.526,
            -45.090 11.107 8.526,
            -45.707 10.966 8.526,
            -46.331 10.856 8.526,
            -46.959 10.777 8.526,
            -47.591 10.730 8.526,
            -48.224 10.714 8.526,
            -47.598 10.871 8.385,
            -48.224 10.856 8.385,
            -46.973 10.918 8.385,
            -46.352 10.996 8.385,
            -45.735 11.105 8.385,
            -45.125 11.244 8.385,
            -44.522 11.414 8.385,
            -43.929 11.613 8.385,
            -43.346 11.842 8.385,
            -42.775 12.099 8.385,
            -42.218 12.385 8.385,
            -41.675 12.698 8.385,
            -41.149 13.038 8.385,
            -40.641 13.403 8.385,
            -40.151 13.794 8.385,
            -39.682 14.208 8.385,
            -39.234 14.645 8.385,
            -38.808 15.104 8.385,
            -38.405 15.584 8.385,
            -38.027 16.083 8.385,
            -37.674 16.601 8.385,
            -37.348 17.135 8.385,
            -37.048 17.685 8.385,
            -36.777 18.249 8.385,
            -36.533 18.826 8.385,
            -36.319 19.414 8.385,
            -36.135 20.013 8.385,
            -35.980 20.620 8.385,
            -35.856 21.233 8.385,
            -35.763 21.853 8.385,
            -35.700 22.476 8.385,
            -35.669 23.101 8.385,
            -35.669 23.727 8.385,
            -35.700 24.353 8.385,
            -35.763 24.976 8.385,
            -35.856 25.595 8.385,
            -35.980 26.209 8.385,
            -36.135 26.816 8.385,
            -36.319 27.414 8.385,
            -36.533 28.002 8.385,
            -36.777 28.579 8.385,
            -37.048 29.144 8.385,
            -37.348 29.694 8.385,
            -37.674 30.228 8.385,
            -38.027 30.745 8.385,
            -38.405 31.244 8.385,
            -38.808 31.724 8.385,
            -39.234 32.183 8.385,
            -39.682 32.620 8.385,
            -40.151 33.035 8.385,
            -40.641 33.425 8.385,
            -41.149 33.791 8.385,
            -41.675 34.130 8.385,
            -42.218 34.443 8.385,
            -42.775 34.729 8.385,
            -43.346 34.987 8.385,
            -43.929 35.215 8.385,
            -44.522 35.415 8.385,
            -45.125 35.584 8.385,
            -45.735 35.724 8.385,
            -46.352 35.833 8.385,
            -46.973 35.910 8.385,
            -47.598 35.957 8.385,
            -48.224 35.973 8.385,
            -58.043 15.584 8.385,
            -57.214 14.645 8.385,
            -57.640 15.104 8.385,
            -55.807 13.403 8.385,
            -56.296 13.794 8.385,
            -56.766 14.208 8.385,
            -58.773 16.601 8.385,
            -55.298 13.038 8.385,
            -58.421 16.083 8.385,
            -53.673 12.099 8.385,
            -54.230 12.385 8.385,
            -54.772 12.698 8.385,
            -59.100 17.135 8.385,
            -59.671 18.249 8.385,
            -59.399 17.685 8.385,
            -59.914 18.826 8.385,
            -52.519 11.613 8.385,
            -53.102 11.842 8.385,
            -51.323 11.244 8.385,
            -51.926 11.414 8.385,
            -60.468 20.620 8.385,
            -60.129 19.414 8.385,
            -60.313 20.013 8.385,
            -60.685 21.853 8.385,
            -60.592 21.233 8.385,
            -49.474 10.918 8.385,
            -50.096 10.996 8.385,
            -50.712 11.105 8.385,
            -48.850 10.871 8.385,
            -60.747 24.353 8.385,
            -60.747 22.476 8.385,
            -60.779 23.101 8.385,
            -60.779 23.727 8.385,
            -60.685 24.976 8.385,
            -60.468 26.209 8.385,
            -60.592 25.595 8.385,
            -60.129 27.414 8.385,
            -60.313 26.816 8.385,
            -59.914 28.002 8.385,
            -59.100 29.694 8.385,
            -59.671 28.579 8.385,
            -59.399 29.144 8.385,
            -58.043 31.244 8.385,
            -58.773 30.228 8.385,
            -58.421 30.745 8.385,
            -57.640 31.724 8.385,
            -57.214 32.183 8.385,
            -56.766 32.620 8.385,
            -56.296 33.035 8.385,
            -54.772 34.130 8.385,
            -55.807 33.425 8.385,
            -55.298 33.791 8.385,
            -54.230 34.443 8.385,
            -53.102 34.987 8.385,
            -53.673 34.729 8.385,
            -51.323 35.584 8.385,
            -52.519 35.215 8.385,
            -51.926 35.415 8.385,
            -50.096 35.833 8.385,
            -50.712 35.724 8.385,
            -48.850 35.957 8.385,
            -49.474 35.910 8.385,
            -48.857 36.098 8.526,
            -49.488 36.051 8.526,
            -50.117 35.972 8.526,
            -50.740 35.862 8.526,
            -51.358 35.722 8.526,
            -51.967 35.550 8.526,
            -52.568 35.348 8.526,
            -53.157 35.117 8.526,
            -53.734 34.857 8.526,
            -54.298 34.568 8.526,
            -54.846 34.251 8.526,
            -55.378 33.907 8.526,
            -55.892 33.538 8.526,
            -56.387 33.143 8.526,
            -56.862 32.724 8.526,
            -57.315 32.282 8.526,
            -57.746 31.818 8.526,
            -58.153 31.333 8.526,
            -58.536 30.828 8.526,
            -58.892 30.305 8.526,
            -59.222 29.764 8.526,
            -59.525 29.208 8.526,
            -59.800 28.638 8.526,
            -60.046 28.054 8.526,
            -60.263 27.459 8.526,
            -60.449 26.854 8.526,
            -60.605 26.240 8.526,
            -60.731 25.620 8.526,
            -60.825 24.993 8.526,
            -60.888 24.363 8.526,
            -60.920 23.731 8.526,
            -60.920 23.098 8.526,
            -60.888 22.465 8.526,
            -60.825 21.835 8.526,
            -60.731 21.209 8.526,
            -60.605 20.588 8.526,
            -60.449 19.975 8.526,
            -60.263 19.369 8.526,
            -60.046 18.774 8.526,
            -59.800 18.191 8.526,
            -59.525 17.620 8.526,
            -59.222 17.064 8.526,
            -58.892 16.524 8.526,
            -58.536 16.001 8.526,
            -58.153 15.496 8.526,
            -57.746 15.011 8.526,
            -57.315 14.547 8.526,
            -56.862 14.104 8.526,
            -56.387 13.685 8.526,
            -55.892 13.291 8.526,
            -55.378 12.921 8.526,
            -54.846 12.577 8.526,
            -54.298 12.261 8.526,
            -53.734 11.972 8.526,
            -53.157 11.711 8.526,
            -52.568 11.480 8.526,
            -51.967 11.278 8.526,
            -51.358 11.107 8.526,
            -50.740 10.966 8.526,
            -50.117 10.856 8.526,
            -49.488 10.777 8.526,
            -48.857 10.730 8.526,
            -48.857 10.730 10.247,
            -49.488 10.777 10.247,
            -50.117 10.856 10.247,
            -50.740 10.966 10.247,
            -51.358 11.107 10.247,
            -51.967 11.278 10.247,
            -52.568 11.480 10.247,
            -53.157 11.711 10.247,
            -53.734 11.972 10.247,
            -54.298 12.261 10.247,
            -54.846 12.577 10.247,
            -55.378 12.921 10.247,
            -55.892 13.291 10.247,
            -56.387 13.685 10.247,
            -56.862 14.104 10.247,
            -57.315 14.547 10.247,
            -57.746 15.011 10.247,
            -58.153 15.496 10.247,
            -58.536 16.001 10.247,
            -58.892 16.524 10.247,
            -59.222 17.064 10.247,
            -59.525 17.620 10.247,
            -59.800 18.191 10.247,
            -60.046 18.774 10.247,
            -60.263 19.369 10.247,
            -60.449 19.975 10.247,
            -60.605 20.588 10.247,
            -60.731 21.209 10.247,
            -60.825 21.835 10.247,
            -60.888 22.465 10.247,
            -60.920 23.098 10.247,
            -60.920 23.731 10.247,
            -60.888 24.363 10.247,
            -60.825 24.993 10.247,
            -60.731 25.620 10.247,
            -60.605 26.240 10.247,
            -60.449 26.854 10.247,
            -60.263 27.459 10.247,
            -60.046 28.054 10.247,
            -59.800 28.638 10.247,
            -59.525 29.208 10.247,
            -59.222 29.764 10.247,
            -58.892 30.305 10.247,
            -58.536 30.828 10.247,
            -58.153 31.333 10.247,
            -57.746 31.818 10.247,
            -57.315 32.282 10.247,
            -56.862 32.724 10.247,
            -56.387 33.143 10.247,
            -55.892 33.538 10.247,
            -55.378 33.907 10.247,
            -54.846 34.251 10.247,
            -54.298 34.568 10.247,
            -53.734 34.857 10.247,
            -53.157 35.117 10.247,
            -52.568 35.348 10.247,
            -51.967 35.550 10.247,
            -51.358 35.722 10.247,
            -50.740 35.862 10.247,
            -50.117 35.972 10.247,
            -49.488 36.051 10.247,
            -48.857 36.098 10.247,
            -48.850 10.871 10.388,
            -49.474 10.918 10.388,
            -50.096 10.996 10.388,
            -50.712 11.105 10.388,
            -51.323 11.244 10.388,
            -51.926 11.414 10.388,
            -52.519 11.613 10.388,
            -53.102 11.842 10.388,
            -53.673 12.099 10.388,
            -54.230 12.385 10.388,
            -54.772 12.698 10.388,
            -55.298 13.038 10.388,
            -55.807 13.403 10.388,
            -56.296 13.794 10.388,
            -56.766 14.208 10.388,
            -57.214 14.645 10.388,
            -57.640 15.104 10.388,
            -58.043 15.584 10.388,
            -58.421 16.083 10.388,
            -58.773 16.601 10.388,
            -59.100 17.135 10.388,
            -59.399 17.685 10.388,
            -59.671 18.249 10.388,
            -59.914 18.826 10.388,
            -60.129 19.414 10.388,
            -60.313 20.013 10.388,
            -60.468 20.620 10.388,
            -60.592 21.233 10.388,
            -60.685 21.853 10.388,
            -60.747 22.476 10.388,
            -60.779 23.101 10.388,
            -60.779 23.727 10.388,
            -60.747 24.353 10.388,
            -60.685 24.976 10.388,
            -60.592 25.595 10.388,
            -60.468 26.209 10.388,
            -60.313 26.816 10.388,
            -60.129 27.414 10.388,
            -59.914 28.002 10.388,
            -59.671 28.579 10.388,
            -59.399 29.144 10.388,
            -59.100 29.694 10.388,
            -58.773 30.228 10.388,
            -58.421 30.745 10.388,
            -58.043 31.244 10.388,
            -57.640 31.724 10.388,
            -57.214 32.183 10.388,
            -56.766 32.620 10.388,
            -56.296 33.035 10.388,
            -55.807 33.425 10.388,
            -55.298 33.791 10.388,
            -54.772 34.130 10.388,
            -54.230 34.443 10.388,
            -53.673 34.729 10.388,
            -53.102 34.987 10.388,
            -52.519 35.215 10.388,
            -51.926 35.415 10.388,
            -51.323 35.584 10.388,
            -50.712 35.724 10.388,
            -50.096 35.833 10.388,
            -49.474 35.910 10.388,
            -48.850 35.957 10.388,
            -54.503 31.786 10.482,
            -54.503 23.414 10.618,
            -54.503 15.042 10.482
          ]
        }
        coordIndex [
          0, 1, 2, -1,
          0, 3, 1, -1,
          0, 4, 3, -1,
          0, 5, 4, -1,
          0, 6, 5, -1,
          7, 6, 0, -1,
          8, 7, 0, -1,
          9, 10, 11, -1,
          12, 10, 9, -1,
          13, 10, 12, -1,
          14, 10, 13, -1,
          15, 10, 14, -1,
          16, 10, 15, -1,
          17, 10, 16, -1,
          18, 0, 19, -1,
          18, 20, 8, -1,
          18, 21, 20, -1,
          18, 22, 21, -1,
          18, 23, 22, -1,
          18, 24, 23, -1,
          18, 25, 24, -1,
          18, 26, 25, -1,
          18, 27, 26, -1,
          18, 28, 27, -1,
          18, 29, 28, -1,
          18, 30, 29, -1,
          18, 31, 30, -1,
          18, 32, 31, -1,
          18, 33, 32, -1,
          18, 8, 0, -1,
          34, 19, 35, -1,
          34, 35, 36, -1,
          34, 37, 33, -1,
          34, 38, 37, -1,
          34, 39, 38, -1,
          34, 40, 39, -1,
          34, 41, 40, -1,
          34, 42, 41, -1,
          34, 43, 42, -1,
          34, 44, 43, -1,
          34, 45, 44, -1,
          34, 46, 45, -1,
          34, 47, 46, -1,
          34, 48, 47, -1,
          34, 49, 48, -1,
          34, 50, 49, -1,
          34, 51, 50, -1,
          34, 52, 51, -1,
          34, 53, 52, -1,
          34, 54, 53, -1,
          34, 55, 54, -1,
          34, 56, 55, -1,
          34, 57, 56, -1,
          34, 18, 19, -1,
          34, 33, 18, -1,
          58, 36, 10, -1,
          58, 34, 36, -1,
          58, 59, 57, -1,
          58, 60, 59, -1,
          58, 61, 60, -1,
          58, 62, 61, -1,
          58, 63, 62, -1,
          58, 64, 63, -1,
          58, 65, 64, -1,
          58, 66, 65, -1,
          58, 67, 66, -1,
          58, 68, 67, -1,
          58, 69, 68, -1,
          58, 70, 69, -1,
          58, 71, 70, -1,
          58, 17, 71, -1,
          58, 10, 17, -1,
          58, 57, 34, -1,
          1, 72, 2, -1,
          73, 72, 1, -1,
          74, 1, 3, -1,
          74, 73, 1, -1,
          75, 3, 4, -1,
          75, 74, 3, -1,
          76, 4, 5, -1,
          76, 75, 4, -1,
          77, 5, 6, -1,
          77, 76, 5, -1,
          78, 6, 7, -1,
          78, 77, 6, -1,
          79, 7, 8, -1,
          79, 78, 7, -1,
          20, 79, 8, -1,
          80, 79, 20, -1,
          81, 20, 21, -1,
          81, 80, 20, -1,
          22, 81, 21, -1,
          82, 81, 22, -1,
          23, 82, 22, -1,
          83, 82, 23, -1,
          84, 23, 24, -1,
          84, 83, 23, -1,
          25, 84, 24, -1,
          85, 84, 25, -1,
          26, 85, 25, -1,
          86, 85, 26, -1,
          87, 26, 27, -1,
          87, 86, 26, -1,
          88, 27, 28, -1,
          88, 87, 27, -1,
          29, 88, 28, -1,
          89, 88, 29, -1,
          90, 29, 30, -1,
          90, 89, 29, -1,
          31, 90, 30, -1,
          91, 90, 31, -1,
          92, 91, 31, -1,
          92, 31, 32, -1,
          93, 92, 32, -1,
          93, 32, 33, -1,
          37, 93, 33, -1,
          94, 93, 37, -1,
          38, 94, 37, -1,
          95, 94, 38, -1,
          96, 38, 39, -1,
          96, 95, 38, -1,
          97, 39, 40, -1,
          97, 96, 39, -1,
          98, 40, 41, -1,
          98, 97, 40, -1,
          99, 41, 42, -1,
          99, 98, 41, -1,
          100, 42, 43, -1,
          100, 99, 42, -1,
          101, 43, 44, -1,
          101, 100, 43, -1,
          102, 44, 45, -1,
          102, 101, 44, -1,
          103, 45, 46, -1,
          103, 102, 45, -1,
          104, 46, 47, -1,
          104, 103, 46, -1,
          105, 47, 48, -1,
          105, 104, 47, -1,
          106, 48, 49, -1,
          106, 105, 48, -1,
          50, 106, 49, -1,
          107, 106, 50, -1,
          51, 107, 50, -1,
          108, 107, 51, -1,
          52, 108, 51, -1,
          109, 108, 52, -1,
          110, 52, 53, -1,
          110, 109, 52, -1,
          111, 53, 54, -1,
          111, 110, 53, -1,
          55, 111, 54, -1,
          112, 111, 55, -1,
          113, 55, 56, -1,
          113, 112, 55, -1,
          114, 56, 57, -1,
          114, 113, 56, -1,
          115, 114, 57, -1,
          115, 57, 59, -1,
          116, 59, 60, -1,
          116, 115, 59, -1,
          117, 116, 60, -1,
          117, 60, 61, -1,
          118, 117, 61, -1,
          118, 61, 62, -1,
          63, 118, 62, -1,
          119, 118, 63, -1,
          120, 119, 63, -1,
          120, 63, 64, -1,
          121, 120, 64, -1,
          121, 64, 65, -1,
          66, 121, 65, -1,
          122, 121, 66, -1,
          123, 122, 66, -1,
          123, 66, 67, -1,
          68, 123, 67, -1,
          124, 123, 68, -1,
          125, 124, 68, -1,
          125, 68, 69, -1,
          70, 125, 69, -1,
          126, 125, 70, -1,
          71, 126, 70, -1,
          127, 126, 71, -1,
          17, 127, 71, -1,
          128, 127, 17, -1,
          129, 17, 16, -1,
          129, 128, 17, -1,
          130, 16, 15, -1,
          130, 129, 16, -1,
          131, 15, 14, -1,
          131, 130, 15, -1,
          13, 131, 14, -1,
          132, 131, 13, -1,
          133, 13, 12, -1,
          133, 132, 13, -1,
          134, 12, 9, -1,
          134, 133, 12, -1,
          11, 134, 9, -1,
          135, 134, 11, -1,
          136, 72, 73, -1,
          136, 137, 72, -1,
          138, 73, 74, -1,
          138, 136, 73, -1,
          139, 74, 75, -1,
          139, 138, 74, -1,
          140, 75, 76, -1,
          140, 139, 75, -1,
          141, 76, 77, -1,
          141, 140, 76, -1,
          142, 77, 78, -1,
          142, 141, 77, -1,
          143, 78, 79, -1,
          143, 79, 80, -1,
          143, 142, 78, -1,
          144, 80, 81, -1,
          144, 143, 80, -1,
          145, 144, 81, -1,
          146, 81, 82, -1,
          146, 82, 83, -1,
          146, 145, 81, -1,
          147, 146, 83, -1,
          148, 83, 84, -1,
          148, 84, 85, -1,
          148, 147, 83, -1,
          149, 148, 85, -1,
          150, 85, 86, -1,
          150, 86, 87, -1,
          150, 149, 85, -1,
          151, 150, 87, -1,
          152, 87, 88, -1,
          152, 88, 89, -1,
          152, 151, 87, -1,
          153, 152, 89, -1,
          154, 153, 89, -1,
          154, 89, 90, -1,
          155, 154, 90, -1,
          155, 90, 91, -1,
          156, 155, 91, -1,
          156, 91, 92, -1,
          157, 156, 92, -1,
          157, 92, 93, -1,
          158, 157, 93, -1,
          158, 93, 94, -1,
          159, 94, 95, -1,
          159, 158, 94, -1,
          160, 95, 96, -1,
          160, 96, 97, -1,
          160, 159, 95, -1,
          161, 160, 97, -1,
          162, 97, 98, -1,
          162, 161, 97, -1,
          163, 98, 99, -1,
          163, 99, 100, -1,
          163, 162, 98, -1,
          164, 100, 101, -1,
          164, 163, 100, -1,
          165, 101, 102, -1,
          165, 164, 101, -1,
          166, 165, 102, -1,
          167, 102, 103, -1,
          167, 166, 102, -1,
          168, 103, 104, -1,
          168, 104, 105, -1,
          168, 167, 103, -1,
          169, 168, 105, -1,
          170, 105, 106, -1,
          170, 169, 105, -1,
          171, 106, 107, -1,
          171, 170, 106, -1,
          172, 107, 108, -1,
          172, 171, 107, -1,
          173, 108, 109, -1,
          173, 172, 108, -1,
          174, 109, 110, -1,
          174, 173, 109, -1,
          175, 110, 111, -1,
          175, 174, 110, -1,
          176, 111, 112, -1,
          176, 175, 111, -1,
          177, 112, 113, -1,
          177, 176, 112, -1,
          178, 113, 114, -1,
          178, 177, 113, -1,
          179, 178, 114, -1,
          179, 114, 115, -1,
          180, 179, 115, -1,
          180, 115, 116, -1,
          181, 180, 116, -1,
          181, 116, 117, -1,
          181, 117, 118, -1,
          182, 181, 118, -1,
          183, 182, 118, -1,
          183, 118, 119, -1,
          184, 183, 119, -1,
          184, 119, 120, -1,
          185, 184, 120, -1,
          185, 120, 121, -1,
          186, 185, 121, -1,
          186, 121, 122, -1,
          187, 186, 122, -1,
          187, 122, 123, -1,
          188, 187, 123, -1,
          188, 123, 124, -1,
          189, 188, 124, -1,
          189, 124, 125, -1,
          190, 189, 125, -1,
          190, 125, 126, -1,
          191, 190, 126, -1,
          191, 126, 127, -1,
          192, 127, 128, -1,
          192, 191, 127, -1,
          193, 128, 129, -1,
          193, 192, 128, -1,
          194, 129, 130, -1,
          194, 130, 131, -1,
          194, 193, 129, -1,
          195, 194, 131, -1,
          196, 131, 132, -1,
          196, 195, 131, -1,
          197, 132, 133, -1,
          197, 133, 134, -1,
          197, 196, 132, -1,
          198, 197, 134, -1,
          199, 134, 135, -1,
          199, 198, 134, -1,
          200, 199, 201, -1,
          198, 199, 200, -1,
          197, 198, 200, -1,
          197, 200, 202, -1,
          196, 197, 202, -1,
          196, 202, 203, -1,
          195, 196, 203, -1,
          195, 203, 204, -1,
          205, 195, 204, -1,
          194, 195, 205, -1,
          193, 194, 205, -1,
          193, 205, 206, -1,
          192, 206, 207, -1,
          192, 193, 206, -1,
          191, 207, 208, -1,
          191, 192, 207, -1,
          190, 208, 209, -1,
          190, 191, 208, -1,
          189, 209, 210, -1,
          189, 190, 209, -1,
          211, 189, 210, -1,
          188, 189, 211, -1,
          212, 188, 211, -1,
          187, 188, 212, -1,
          186, 212, 213, -1,
          186, 187, 212, -1,
          214, 186, 213, -1,
          185, 186, 214, -1,
          184, 214, 215, -1,
          184, 185, 214, -1,
          183, 215, 216, -1,
          183, 184, 215, -1,
          182, 216, 217, -1,
          182, 183, 216, -1,
          181, 182, 217, -1,
          181, 217, 218, -1,
          180, 181, 218, -1,
          180, 218, 219, -1,
          179, 180, 219, -1,
          179, 219, 220, -1,
          221, 179, 220, -1,
          178, 179, 221, -1,
          222, 178, 221, -1,
          177, 178, 222, -1,
          223, 177, 222, -1,
          176, 177, 223, -1,
          224, 176, 223, -1,
          175, 176, 224, -1,
          174, 175, 224, -1,
          174, 224, 225, -1,
          173, 174, 225, -1,
          173, 225, 226, -1,
          172, 226, 227, -1,
          172, 173, 226, -1,
          171, 227, 228, -1,
          171, 172, 227, -1,
          170, 228, 229, -1,
          170, 171, 228, -1,
          169, 229, 230, -1,
          169, 170, 229, -1,
          168, 230, 231, -1,
          168, 169, 230, -1,
          167, 231, 232, -1,
          167, 168, 231, -1,
          166, 232, 233, -1,
          166, 167, 232, -1,
          234, 166, 233, -1,
          165, 166, 234, -1,
          164, 234, 235, -1,
          164, 165, 234, -1,
          163, 235, 236, -1,
          163, 164, 235, -1,
          162, 236, 237, -1,
          162, 163, 236, -1,
          161, 237, 238, -1,
          161, 162, 237, -1,
          239, 161, 238, -1,
          160, 161, 239, -1,
          240, 160, 239, -1,
          159, 160, 240, -1,
          241, 159, 240, -1,
          158, 159, 241, -1,
          157, 241, 242, -1,
          157, 158, 241, -1,
          243, 157, 242, -1,
          156, 157, 243, -1,
          155, 156, 243, -1,
          155, 243, 244, -1,
          154, 155, 244, -1,
          154, 244, 245, -1,
          246, 154, 245, -1,
          153, 154, 246, -1,
          152, 153, 246, -1,
          152, 246, 247, -1,
          248, 152, 247, -1,
          151, 152, 248, -1,
          150, 248, 249, -1,
          150, 151, 248, -1,
          149, 249, 250, -1,
          149, 150, 249, -1,
          251, 149, 250, -1,
          148, 149, 251, -1,
          147, 251, 252, -1,
          147, 148, 251, -1,
          253, 147, 252, -1,
          146, 147, 253, -1,
          145, 253, 254, -1,
          145, 146, 253, -1,
          255, 145, 254, -1,
          144, 145, 255, -1,
          143, 255, 256, -1,
          143, 144, 255, -1,
          257, 143, 256, -1,
          142, 143, 257, -1,
          258, 142, 257, -1,
          141, 142, 258, -1,
          259, 141, 258, -1,
          140, 141, 259, -1,
          139, 259, 260, -1,
          139, 140, 259, -1,
          261, 139, 260, -1,
          138, 139, 261, -1,
          136, 261, 262, -1,
          136, 138, 261, -1,
          263, 136, 262, -1,
          137, 136, 263, -1,
          264, 265, 266, -1,
          267, 268, 269, -1,
          267, 269, 265, -1,
          267, 265, 264, -1,
          270, 271, 267, -1,
          270, 264, 272, -1,
          270, 267, 264, -1,
          273, 274, 275, -1,
          273, 275, 271, -1,
          273, 270, 276, -1,
          273, 271, 270, -1,
          277, 276, 278, -1,
          279, 276, 277, -1,
          280, 281, 273, -1,
          280, 273, 276, -1,
          282, 283, 280, -1,
          284, 279, 285, -1,
          284, 285, 286, -1,
          287, 284, 288, -1,
          287, 276, 279, -1,
          287, 280, 276, -1,
          287, 279, 284, -1,
          289, 290, 291, -1,
          289, 291, 282, -1,
          289, 282, 280, -1,
          292, 289, 280, -1,
          293, 294, 295, -1,
          293, 295, 296, -1,
          202, 201, 292, -1,
          202, 200, 201, -1,
          297, 287, 294, -1,
          297, 294, 293, -1,
          204, 203, 202, -1,
          298, 297, 299, -1,
          298, 287, 297, -1,
          205, 204, 202, -1,
          205, 202, 292, -1,
          300, 298, 301, -1,
          302, 298, 300, -1,
          208, 207, 206, -1,
          208, 206, 205, -1,
          209, 208, 205, -1,
          210, 209, 205, -1,
          303, 302, 304, -1,
          303, 304, 305, -1,
          211, 210, 205, -1,
          306, 307, 308, -1,
          214, 213, 212, -1,
          309, 303, 307, -1,
          309, 307, 306, -1,
          310, 302, 303, -1,
          310, 303, 309, -1,
          311, 302, 310, -1,
          312, 298, 302, -1,
          312, 302, 311, -1,
          218, 217, 216, -1,
          219, 216, 215, -1,
          219, 215, 214, -1,
          219, 205, 292, -1,
          219, 212, 211, -1,
          219, 211, 205, -1,
          219, 214, 212, -1,
          219, 218, 216, -1,
          219, 280, 287, -1,
          219, 292, 280, -1,
          313, 312, 314, -1,
          313, 314, 315, -1,
          221, 220, 219, -1,
          316, 298, 312, -1,
          316, 312, 313, -1,
          222, 221, 219, -1,
          223, 222, 219, -1,
          317, 316, 318, -1,
          226, 225, 224, -1,
          319, 317, 320, -1,
          319, 320, 321, -1,
          228, 226, 224, -1,
          228, 227, 226, -1,
          322, 319, 323, -1,
          230, 229, 228, -1,
          324, 319, 322, -1,
          324, 287, 298, -1,
          324, 219, 287, -1,
          324, 322, 325, -1,
          324, 298, 316, -1,
          324, 317, 319, -1,
          324, 316, 317, -1,
          231, 230, 228, -1,
          232, 231, 228, -1,
          233, 232, 228, -1,
          261, 224, 223, -1,
          261, 324, 263, -1,
          261, 263, 262, -1,
          261, 223, 219, -1,
          261, 219, 324, -1,
          235, 234, 233, -1,
          236, 235, 233, -1,
          258, 261, 260, -1,
          258, 260, 259, -1,
          237, 236, 233, -1,
          238, 233, 228, -1,
          238, 237, 233, -1,
          255, 261, 258, -1,
          255, 258, 257, -1,
          255, 257, 256, -1,
          240, 238, 228, -1,
          240, 239, 238, -1,
          254, 224, 261, -1,
          254, 261, 255, -1,
          241, 240, 228, -1,
          242, 228, 224, -1,
          242, 241, 228, -1,
          252, 254, 253, -1,
          244, 243, 242, -1,
          250, 252, 251, -1,
          249, 252, 250, -1,
          246, 245, 244, -1,
          248, 224, 254, -1,
          248, 242, 224, -1,
          248, 254, 252, -1,
          248, 244, 242, -1,
          248, 252, 249, -1,
          247, 244, 248, -1,
          247, 246, 244, -1,
          326, 137, 263, -1,
          326, 263, 324, -1,
          327, 326, 324, -1,
          327, 324, 325, -1,
          328, 327, 325, -1,
          328, 325, 322, -1,
          329, 328, 322, -1,
          329, 322, 323, -1,
          330, 329, 323, -1,
          330, 323, 319, -1,
          331, 330, 319, -1,
          331, 319, 321, -1,
          320, 331, 321, -1,
          332, 331, 320, -1,
          333, 320, 317, -1,
          333, 332, 320, -1,
          334, 317, 318, -1,
          334, 333, 317, -1,
          335, 318, 316, -1,
          335, 334, 318, -1,
          313, 335, 316, -1,
          336, 335, 313, -1,
          337, 313, 315, -1,
          337, 336, 313, -1,
          314, 337, 315, -1,
          338, 337, 314, -1,
          339, 314, 312, -1,
          339, 338, 314, -1,
          340, 312, 311, -1,
          340, 339, 312, -1,
          341, 311, 310, -1,
          341, 340, 311, -1,
          309, 341, 310, -1,
          342, 341, 309, -1,
          306, 342, 309, -1,
          343, 342, 306, -1,
          344, 343, 306, -1,
          344, 306, 308, -1,
          307, 344, 308, -1,
          345, 344, 307, -1,
          346, 345, 307, -1,
          346, 307, 303, -1,
          305, 346, 303, -1,
          347, 346, 305, -1,
          348, 347, 305, -1,
          348, 305, 304, -1,
          349, 348, 304, -1,
          349, 304, 302, -1,
          350, 349, 302, -1,
          350, 302, 300, -1,
          301, 350, 300, -1,
          351, 350, 301, -1,
          352, 301, 298, -1,
          352, 351, 301, -1,
          353, 298, 299, -1,
          353, 352, 298, -1,
          354, 299, 297, -1,
          354, 353, 299, -1,
          355, 297, 293, -1,
          355, 354, 297, -1,
          356, 293, 296, -1,
          356, 355, 293, -1,
          357, 296, 295, -1,
          357, 356, 296, -1,
          358, 295, 294, -1,
          358, 357, 295, -1,
          287, 358, 294, -1,
          359, 358, 287, -1,
          360, 287, 288, -1,
          360, 359, 287, -1,
          361, 288, 284, -1,
          361, 360, 288, -1,
          286, 361, 284, -1,
          362, 361, 286, -1,
          285, 362, 286, -1,
          363, 362, 285, -1,
          279, 363, 285, -1,
          364, 363, 279, -1,
          277, 364, 279, -1,
          365, 364, 277, -1,
          278, 365, 277, -1,
          366, 365, 278, -1,
          367, 278, 276, -1,
          367, 366, 278, -1,
          270, 367, 276, -1,
          368, 367, 270, -1,
          369, 368, 270, -1,
          369, 270, 272, -1,
          370, 369, 272, -1,
          370, 272, 264, -1,
          266, 370, 264, -1,
          371, 370, 266, -1,
          372, 371, 266, -1,
          372, 266, 265, -1,
          373, 265, 269, -1,
          373, 372, 265, -1,
          268, 373, 269, -1,
          374, 373, 268, -1,
          267, 374, 268, -1,
          375, 374, 267, -1,
          376, 267, 271, -1,
          376, 375, 267, -1,
          275, 376, 271, -1,
          377, 376, 275, -1,
          274, 377, 275, -1,
          378, 377, 274, -1,
          273, 378, 274, -1,
          379, 378, 273, -1,
          281, 379, 273, -1,
          380, 379, 281, -1,
          381, 281, 280, -1,
          381, 380, 281, -1,
          382, 280, 283, -1,
          382, 381, 280, -1,
          383, 283, 282, -1,
          383, 382, 283, -1,
          384, 282, 291, -1,
          384, 383, 282, -1,
          290, 384, 291, -1,
          385, 384, 290, -1,
          289, 385, 290, -1,
          386, 385, 289, -1,
          387, 289, 292, -1,
          387, 386, 289, -1,
          199, 292, 201, -1,
          199, 387, 292, -1,
          387, 199, 135, -1,
          387, 135, 388, -1,
          386, 388, 389, -1,
          386, 387, 388, -1,
          385, 389, 390, -1,
          385, 386, 389, -1,
          384, 390, 391, -1,
          384, 385, 390, -1,
          383, 391, 392, -1,
          383, 384, 391, -1,
          382, 392, 393, -1,
          382, 383, 392, -1,
          381, 393, 394, -1,
          381, 382, 393, -1,
          380, 394, 395, -1,
          380, 381, 394, -1,
          379, 395, 396, -1,
          379, 396, 397, -1,
          379, 380, 395, -1,
          378, 397, 398, -1,
          378, 379, 397, -1,
          377, 398, 399, -1,
          377, 378, 398, -1,
          376, 377, 399, -1,
          375, 399, 400, -1,
          375, 376, 399, -1,
          374, 400, 401, -1,
          374, 401, 402, -1,
          374, 375, 400, -1,
          373, 374, 402, -1,
          372, 402, 403, -1,
          372, 403, 404, -1,
          372, 373, 402, -1,
          371, 372, 404, -1,
          370, 371, 404, -1,
          370, 404, 405, -1,
          369, 370, 405, -1,
          369, 405, 406, -1,
          369, 406, 407, -1,
          368, 369, 407, -1,
          368, 407, 408, -1,
          367, 368, 408, -1,
          367, 408, 409, -1,
          366, 367, 409, -1,
          365, 409, 410, -1,
          365, 366, 409, -1,
          365, 410, 411, -1,
          364, 365, 411, -1,
          363, 411, 412, -1,
          363, 412, 413, -1,
          363, 364, 411, -1,
          362, 363, 413, -1,
          361, 413, 414, -1,
          361, 362, 413, -1,
          360, 414, 415, -1,
          360, 415, 416, -1,
          360, 361, 414, -1,
          359, 360, 416, -1,
          358, 416, 417, -1,
          358, 359, 416, -1,
          357, 417, 418, -1,
          357, 358, 417, -1,
          356, 418, 419, -1,
          356, 357, 418, -1,
          355, 419, 420, -1,
          355, 356, 419, -1,
          354, 420, 421, -1,
          354, 355, 420, -1,
          353, 421, 422, -1,
          353, 354, 421, -1,
          352, 422, 423, -1,
          352, 353, 422, -1,
          351, 423, 424, -1,
          351, 352, 423, -1,
          350, 424, 425, -1,
          350, 351, 424, -1,
          349, 425, 426, -1,
          349, 350, 425, -1,
          348, 426, 427, -1,
          348, 349, 426, -1,
          347, 427, 428, -1,
          347, 348, 427, -1,
          346, 428, 429, -1,
          346, 347, 428, -1,
          345, 346, 429, -1,
          345, 429, 430, -1,
          344, 345, 430, -1,
          344, 430, 431, -1,
          343, 344, 431, -1,
          343, 431, 432, -1,
          342, 343, 432, -1,
          342, 432, 433, -1,
          341, 342, 433, -1,
          341, 433, 434, -1,
          340, 341, 434, -1,
          340, 434, 435, -1,
          339, 340, 435, -1,
          339, 435, 436, -1,
          338, 339, 436, -1,
          338, 436, 437, -1,
          337, 338, 437, -1,
          337, 437, 438, -1,
          336, 337, 438, -1,
          336, 438, 439, -1,
          336, 439, 440, -1,
          335, 336, 440, -1,
          334, 335, 440, -1,
          334, 440, 441, -1,
          333, 334, 441, -1,
          333, 441, 442, -1,
          332, 333, 442, -1,
          332, 442, 443, -1,
          332, 443, 444, -1,
          331, 444, 445, -1,
          331, 332, 444, -1,
          330, 445, 446, -1,
          330, 331, 445, -1,
          329, 330, 446, -1,
          328, 446, 447, -1,
          328, 329, 446, -1,
          327, 447, 448, -1,
          327, 448, 449, -1,
          327, 328, 447, -1,
          326, 327, 449, -1,
          137, 449, 72, -1,
          137, 326, 449, -1,
          388, 135, 11, -1,
          388, 11, 450, -1,
          389, 450, 451, -1,
          389, 388, 450, -1,
          390, 451, 452, -1,
          390, 389, 451, -1,
          391, 452, 453, -1,
          391, 390, 452, -1,
          392, 453, 454, -1,
          392, 391, 453, -1,
          393, 454, 455, -1,
          393, 392, 454, -1,
          456, 393, 455, -1,
          394, 393, 456, -1,
          395, 456, 457, -1,
          395, 394, 456, -1,
          458, 395, 457, -1,
          396, 395, 458, -1,
          397, 458, 459, -1,
          397, 396, 458, -1,
          398, 459, 460, -1,
          398, 397, 459, -1,
          399, 460, 461, -1,
          399, 398, 460, -1,
          462, 399, 461, -1,
          400, 399, 462, -1,
          401, 462, 463, -1,
          401, 400, 462, -1,
          402, 463, 464, -1,
          402, 401, 463, -1,
          403, 464, 465, -1,
          403, 402, 464, -1,
          404, 465, 466, -1,
          404, 403, 465, -1,
          405, 466, 467, -1,
          405, 404, 466, -1,
          468, 405, 467, -1,
          406, 405, 468, -1,
          407, 406, 468, -1,
          407, 468, 469, -1,
          408, 407, 469, -1,
          408, 469, 470, -1,
          471, 408, 470, -1,
          409, 408, 471, -1,
          472, 409, 471, -1,
          410, 409, 472, -1,
          411, 472, 473, -1,
          411, 410, 472, -1,
          474, 411, 473, -1,
          412, 411, 474, -1,
          413, 474, 475, -1,
          413, 412, 474, -1,
          414, 475, 476, -1,
          414, 413, 475, -1,
          415, 476, 477, -1,
          415, 414, 476, -1,
          416, 477, 478, -1,
          416, 415, 477, -1,
          417, 478, 479, -1,
          417, 416, 478, -1,
          418, 479, 480, -1,
          418, 417, 479, -1,
          419, 480, 481, -1,
          419, 418, 480, -1,
          420, 481, 482, -1,
          420, 419, 481, -1,
          421, 482, 483, -1,
          421, 420, 482, -1,
          422, 483, 484, -1,
          422, 421, 483, -1,
          423, 484, 485, -1,
          423, 422, 484, -1,
          486, 423, 485, -1,
          424, 423, 486, -1,
          425, 486, 487, -1,
          425, 424, 486, -1,
          426, 487, 488, -1,
          426, 425, 487, -1,
          427, 488, 489, -1,
          427, 426, 488, -1,
          428, 489, 490, -1,
          428, 427, 489, -1,
          429, 490, 491, -1,
          429, 428, 490, -1,
          430, 429, 491, -1,
          430, 491, 492, -1,
          431, 492, 493, -1,
          431, 430, 492, -1,
          494, 431, 493, -1,
          432, 431, 494, -1,
          433, 432, 494, -1,
          433, 494, 495, -1,
          496, 433, 495, -1,
          434, 433, 496, -1,
          497, 434, 496, -1,
          435, 434, 497, -1,
          498, 435, 497, -1,
          436, 435, 498, -1,
          437, 436, 498, -1,
          437, 498, 499, -1,
          500, 437, 499, -1,
          438, 437, 500, -1,
          439, 438, 500, -1,
          439, 500, 501, -1,
          502, 439, 501, -1,
          440, 439, 502, -1,
          441, 440, 502, -1,
          441, 502, 503, -1,
          442, 441, 503, -1,
          442, 503, 504, -1,
          505, 442, 504, -1,
          443, 442, 505, -1,
          506, 443, 505, -1,
          444, 443, 506, -1,
          507, 444, 506, -1,
          445, 444, 507, -1,
          508, 445, 507, -1,
          446, 445, 508, -1,
          447, 508, 509, -1,
          447, 446, 508, -1,
          510, 447, 509, -1,
          448, 447, 510, -1,
          449, 510, 511, -1,
          449, 448, 510, -1,
          2, 449, 511, -1,
          72, 449, 2, -1,
          0, 506, 505, -1,
          0, 507, 506, -1,
          0, 508, 507, -1,
          0, 509, 508, -1,
          0, 510, 509, -1,
          0, 511, 510, -1,
          0, 2, 511, -1,
          10, 456, 455, -1,
          454, 10, 455, -1,
          453, 10, 454, -1,
          452, 10, 453, -1,
          451, 10, 452, -1,
          450, 10, 451, -1,
          11, 10, 450, -1,
          512, 19, 0, -1,
          512, 492, 491, -1,
          512, 493, 492, -1,
          512, 494, 493, -1,
          512, 495, 494, -1,
          512, 496, 495, -1,
          512, 497, 496, -1,
          512, 498, 497, -1,
          512, 499, 498, -1,
          512, 500, 499, -1,
          512, 501, 500, -1,
          512, 502, 501, -1,
          512, 503, 502, -1,
          512, 504, 503, -1,
          512, 505, 504, -1,
          512, 0, 505, -1,
          513, 36, 35, -1,
          513, 512, 491, -1,
          513, 35, 19, -1,
          513, 471, 470, -1,
          513, 472, 471, -1,
          513, 473, 472, -1,
          513, 474, 473, -1,
          513, 475, 474, -1,
          513, 476, 475, -1,
          513, 477, 476, -1,
          513, 478, 477, -1,
          513, 479, 478, -1,
          513, 480, 479, -1,
          513, 481, 480, -1,
          513, 482, 481, -1,
          513, 483, 482, -1,
          513, 484, 483, -1,
          513, 485, 484, -1,
          513, 486, 485, -1,
          513, 487, 486, -1,
          513, 488, 487, -1,
          513, 489, 488, -1,
          513, 490, 489, -1,
          513, 491, 490, -1,
          513, 19, 512, -1,
          514, 10, 36, -1,
          514, 457, 456, -1,
          514, 458, 457, -1,
          514, 459, 458, -1,
          514, 460, 459, -1,
          514, 461, 460, -1,
          514, 462, 461, -1,
          514, 463, 462, -1,
          514, 464, 463, -1,
          514, 465, 464, -1,
          514, 466, 465, -1,
          514, 467, 466, -1,
          514, 468, 467, -1,
          514, 469, 468, -1,
          514, 470, 469, -1,
          514, 513, 470, -1,
          514, 36, 513, -1,
          514, 456, 10, -1
        ]
      }
    }
}
