#VRML V2.0 utf8
WorldInfo {
  title "Exported triangle mesh to VRML97"
  info ["Created by FreeCAD"
        "<https://www.freecad.org>"]
}

Transform {
  scale 1 1 1
  rotation 0 0 1 0
  scaleOrientation 0 0 1 0
  center 0.000 0.000 0.000
  translation 0.000 0.000 0.000
  children
    Shape { 
      appearance
      Appearance {
        material
        Material {
          diffuseColor 0.8 0.8 0.8
        }
      }
      geometry
      IndexedFaceSet {
        coord
        Coordinate {
          point [
            2.255 1.229 1.996,
            2.307 1.156 2.046,
            2.257 1.156 1.996,
            2.305 1.231 2.046,
            2.250 1.301 1.996,
            2.300 1.306 2.046,
            2.241 1.372 1.996,
            2.290 1.380 2.046,
            2.228 1.444 1.996,
            2.277 1.454 2.046,
            2.212 1.514 1.996,
            2.261 1.527 2.046,
            2.193 1.584 1.996,
            2.240 1.599 2.046,
            2.170 1.652 1.996,
            2.217 1.669 2.046,
            2.143 1.720 1.996,
            2.189 1.739 2.046,
            2.113 1.786 1.996,
            2.159 1.807 2.046,
            2.081 1.850 1.996,
            2.124 1.874 2.046,
            2.044 1.912 1.996,
            2.087 1.939 2.046,
            2.005 1.973 1.996,
            2.046 2.001 2.046,
            1.963 2.032 1.996,
            2.003 2.062 2.046,
            1.918 2.088 1.996,
            1.956 2.121 2.046,
            1.870 2.143 1.996,
            1.907 2.177 2.046,
            1.820 2.194 1.996,
            1.854 2.230 2.046,
            1.767 2.244 1.996,
            1.800 2.281 2.046,
            1.711 2.290 1.996,
            1.742 2.329 2.046,
            1.654 2.334 1.996,
            1.683 2.374 2.046,
            1.594 2.374 1.996,
            1.621 2.416 2.046,
            1.532 2.412 1.996,
            1.557 2.455 2.046,
            1.469 2.447 1.996,
            1.491 2.491 2.046,
            1.403 2.478 1.996,
            1.424 2.524 2.046,
            1.337 2.506 1.996,
            1.355 2.553 2.046,
            1.269 2.531 1.996,
            1.285 2.578 2.046,
            1.200 2.552 1.996,
            1.213 2.600 2.046,
            1.130 2.570 1.996,
            1.141 2.619 2.046,
            1.059 2.584 1.996,
            1.068 2.634 2.046,
            0.994 2.645 2.046,
            0.987 2.595 1.996,
            0.915 2.602 1.996,
            0.919 2.652 2.046,
            0.844 2.656 2.046,
            0.843 2.606 1.996,
            0.771 2.606 1.996,
            0.770 2.656 2.046,
            0.695 2.652 2.046,
            0.699 2.602 1.996,
            0.627 2.595 1.996,
            0.621 2.645 2.046,
            0.547 2.634 2.046,
            0.555 2.584 1.996,
            0.484 2.570 1.996,
            0.473 2.619 2.046,
            0.401 2.600 2.046,
            0.414 2.552 1.996,
            0.345 2.531 1.996,
            0.329 2.578 2.046,
            0.277 2.506 1.996,
            0.259 2.553 2.046,
            0.190 2.524 2.046,
            0.211 2.478 1.996,
            0.123 2.491 2.046,
            0.146 2.447 1.996,
            0.057 2.455 2.046,
            0.082 2.412 1.996,
            0.020 2.374 1.996,
            -0.007 2.416 2.046,
            -0.069 2.374 2.046,
            -0.039 2.334 1.996,
            -0.097 2.290 1.996,
            -0.128 2.329 2.046,
            -0.185 2.281 2.046,
            -0.152 2.244 1.996,
            -0.240 2.230 2.046,
            -0.205 2.194 1.996,
            -0.292 2.177 2.046,
            -0.256 2.143 1.996,
            -0.342 2.121 2.046,
            -0.304 2.088 1.996,
            -0.389 2.062 2.046,
            -0.349 2.032 1.996,
            -0.432 2.001 2.046,
            -0.391 1.973 1.996,
            -0.473 1.939 2.046,
            -0.430 1.912 1.996,
            -0.510 1.874 2.046,
            -0.466 1.850 1.996,
            -0.544 1.807 2.046,
            -0.499 1.786 1.996,
            -0.575 1.739 2.046,
            -0.529 1.720 1.996,
            -0.602 1.669 2.046,
            -0.555 1.652 1.996,
            -0.578 1.584 1.996,
            -0.626 1.599 2.046,
            -0.598 1.514 1.996,
            -0.647 1.527 2.046,
            -0.663 1.454 2.046,
            -0.614 1.444 1.996,
            -0.676 1.380 2.046,
            -0.627 1.372 1.996,
            -0.685 1.306 2.046,
            -0.636 1.301 1.996,
            -0.691 1.231 2.046,
            -0.641 1.229 1.996,
            -0.643 1.156 1.996,
            -0.693 1.156 2.046,
            0.807 -0.007 3.399,
            0.594 -0.278 3.345,
            0.665 -0.287 3.345,
            0.736 -0.292 3.345,
            0.807 -0.294 3.345,
            0.524 -0.266 3.345,
            0.736 2.605 3.345,
            0.807 2.319 3.399,
            0.807 2.606 3.345,
            0.665 2.599 3.345,
            0.594 2.591 3.345,
            0.524 2.579 3.345,
            0.321 -0.052 3.375,
            0.002 -0.049 3.345,
            0.062 -0.087 3.345,
            0.124 -0.122 3.345,
            0.187 -0.154 3.345,
            0.252 -0.183 3.345,
            0.319 -0.209 3.345,
            0.386 -0.231 3.345,
            0.455 -0.250 3.345,
            0.807 0.282 3.441,
            0.321 0.429 3.441,
            -0.057 -0.008 3.345,
            0.807 0.573 3.472,
            -0.163 0.195 3.362,
            -0.358 0.293 3.345,
            -0.314 0.237 3.345,
            -0.267 0.183 3.345,
            -0.218 0.131 3.345,
            -0.167 0.082 3.345,
            -0.113 0.036 3.345,
            0.321 0.914 3.475,
            0.807 0.864 3.490,
            0.807 1.156 3.496,
            -0.163 0.675 3.412,
            -0.615 0.873 3.345,
            -0.599 0.804 3.345,
            -0.580 0.735 3.345,
            -0.558 0.668 3.345,
            -0.533 0.601 3.345,
            -0.504 0.536 3.345,
            -0.472 0.473 3.345,
            -0.437 0.411 3.345,
            -0.399 0.351 3.345,
            0.321 1.399 3.475,
            0.807 1.448 3.490,
            0.807 1.740 3.472,
            -0.163 1.156 3.429,
            -0.643 1.156 3.345,
            -0.641 1.085 3.345,
            -0.636 1.014 3.345,
            -0.627 0.944 3.345,
            -0.615 1.439 3.345,
            -0.627 1.369 3.345,
            -0.636 1.298 3.345,
            -0.641 1.228 3.345,
            0.321 1.884 3.441,
            0.807 2.030 3.441,
            0.002 2.362 3.345,
            -0.057 2.321 3.345,
            -0.163 1.638 3.412,
            -0.358 2.020 3.345,
            -0.399 1.962 3.345,
            -0.437 1.902 3.345,
            -0.472 1.840 3.345,
            -0.504 1.776 3.345,
            -0.533 1.711 3.345,
            -0.558 1.645 3.345,
            -0.580 1.577 3.345,
            -0.599 1.509 3.345,
            0.321 2.364 3.375,
            0.455 2.563 3.345,
            0.386 2.544 3.345,
            0.319 2.522 3.345,
            0.252 2.496 3.345,
            0.187 2.467 3.345,
            0.124 2.435 3.345,
            0.062 2.400 3.345,
            -0.163 2.118 3.362,
            -0.113 2.277 3.345,
            -0.167 2.231 3.345,
            -0.218 2.182 3.345,
            -0.267 2.130 3.345,
            -0.314 2.076 3.345,
            -0.693 1.156 3.295,
            -0.691 1.231 3.295,
            -0.685 1.306 3.295,
            -0.676 1.380 3.295,
            -0.663 1.454 3.295,
            -0.647 1.527 3.295,
            -0.626 1.599 3.295,
            -0.602 1.669 3.295,
            -0.575 1.739 3.295,
            -0.544 1.807 3.295,
            -0.510 1.874 3.295,
            -0.473 1.939 3.295,
            -0.432 2.001 3.295,
            -0.389 2.062 3.295,
            -0.342 2.121 3.295,
            -0.292 2.177 3.295,
            -0.240 2.230 3.295,
            -0.185 2.281 3.295,
            -0.128 2.329 3.295,
            -0.069 2.374 3.295,
            -0.007 2.416 3.295,
            0.057 2.455 3.295,
            0.123 2.491 3.295,
            0.190 2.524 3.295,
            0.259 2.553 3.295,
            0.329 2.578 3.295,
            0.401 2.600 3.295,
            0.473 2.619 3.295,
            0.547 2.634 3.295,
            0.621 2.645 3.295,
            0.695 2.652 3.295,
            0.770 2.656 3.295,
            0.844 2.656 3.295,
            0.878 2.605 3.345,
            0.919 2.652 3.295,
            0.949 2.599 3.345,
            0.994 2.645 3.295,
            1.020 2.591 3.345,
            1.068 2.634 3.295,
            1.090 2.579 3.345,
            1.141 2.619 3.295,
            1.159 2.563 3.345,
            1.213 2.600 3.295,
            1.228 2.544 3.345,
            1.285 2.578 3.295,
            1.296 2.522 3.345,
            1.355 2.553 3.295,
            1.362 2.496 3.345,
            1.424 2.524 3.295,
            1.427 2.467 3.345,
            1.491 2.491 3.295,
            1.491 2.435 3.345,
            1.557 2.455 3.295,
            1.553 2.400 3.345,
            1.621 2.416 3.295,
            1.613 2.362 3.345,
            1.683 2.374 3.295,
            1.671 2.321 3.345,
            1.742 2.329 3.295,
            1.727 2.277 3.345,
            1.800 2.281 3.295,
            1.781 2.231 3.345,
            1.854 2.230 3.295,
            1.832 2.182 3.345,
            1.907 2.177 3.295,
            1.881 2.130 3.345,
            1.956 2.121 3.295,
            1.928 2.076 3.345,
            2.003 2.062 3.295,
            1.972 2.020 3.345,
            2.046 2.001 3.295,
            2.013 1.962 3.345,
            2.087 1.939 3.295,
            2.051 1.902 3.345,
            2.124 1.874 3.295,
            2.086 1.840 3.345,
            2.159 1.807 3.295,
            2.118 1.776 3.345,
            2.189 1.739 3.295,
            2.147 1.711 3.345,
            2.217 1.669 3.295,
            2.172 1.645 3.345,
            2.240 1.599 3.295,
            2.195 1.577 3.345,
            2.261 1.527 3.295,
            2.214 1.509 3.345,
            2.277 1.454 3.295,
            2.229 1.439 3.345,
            2.290 1.380 3.295,
            2.241 1.369 3.345,
            2.300 1.306 3.295,
            2.250 1.298 3.345,
            2.305 1.231 3.295,
            2.255 1.228 3.345,
            2.307 1.156 3.295,
            2.257 1.156 3.345,
            -0.152 0.069 1.996,
            -0.039 -0.021 1.996,
            -0.097 0.023 1.996,
            -0.205 0.118 1.996,
            0.082 -0.099 1.996,
            0.020 -0.062 1.996,
            0.211 -0.165 1.996,
            0.146 -0.134 1.996,
            0.277 -0.193 1.996,
            0.414 -0.239 1.996,
            0.345 -0.218 1.996,
            -0.529 0.593 1.996,
            -0.598 0.799 1.996,
            -0.499 0.527 1.996,
            -0.555 0.660 1.996,
            -0.578 0.729 1.996,
            -0.349 0.281 1.996,
            -0.304 0.224 1.996,
            -0.391 0.340 1.996,
            -0.430 0.400 1.996,
            -0.466 0.463 1.996,
            -0.614 0.869 1.996,
            -0.627 0.940 1.996,
            -0.636 1.012 1.996,
            -0.641 1.084 1.996,
            0.915 -0.290 1.996,
            1.059 -0.272 1.996,
            0.987 -0.282 1.996,
            0.843 -0.293 1.996,
            0.771 -0.293 1.996,
            0.699 -0.290 1.996,
            0.627 -0.282 1.996,
            1.130 -0.257 1.996,
            1.269 -0.218 1.996,
            1.200 -0.239 1.996,
            1.403 -0.165 1.996,
            1.337 -0.193 1.996,
            0.555 -0.272 1.996,
            1.532 -0.099 1.996,
            1.654 -0.021 1.996,
            1.594 -0.062 1.996,
            1.469 -0.134 1.996,
            1.711 0.023 1.996,
            1.820 0.118 1.996,
            1.767 0.069 1.996,
            2.005 0.340 1.996,
            1.918 0.224 1.996,
            1.963 0.281 1.996,
            1.870 0.170 1.996,
            2.044 0.400 1.996,
            2.113 0.527 1.996,
            2.081 0.463 1.996,
            2.170 0.660 1.996,
            2.143 0.593 1.996,
            2.193 0.729 1.996,
            2.228 0.869 1.996,
            2.212 0.799 1.996,
            2.250 1.012 1.996,
            2.241 0.940 1.996,
            2.255 1.084 1.996,
            -0.256 0.170 1.996,
            0.484 -0.257 1.996,
            -0.691 1.082 3.295,
            -0.691 1.082 2.046,
            -0.685 1.007 3.295,
            -0.685 1.007 2.046,
            -0.676 0.933 3.295,
            -0.676 0.933 2.046,
            -0.663 0.859 3.295,
            -0.663 0.859 2.046,
            -0.647 0.786 3.295,
            -0.647 0.786 2.046,
            -0.626 0.714 3.295,
            -0.626 0.714 2.046,
            -0.602 0.643 3.295,
            -0.602 0.643 2.046,
            -0.575 0.574 3.295,
            -0.575 0.574 2.046,
            -0.544 0.506 3.295,
            -0.544 0.506 2.046,
            -0.510 0.439 2.046,
            -0.510 0.439 3.295,
            -0.473 0.374 3.295,
            -0.473 0.374 2.046,
            -0.432 0.311 2.046,
            -0.432 0.311 3.295,
            -0.389 0.251 3.295,
            -0.389 0.251 2.046,
            -0.342 0.192 3.295,
            -0.342 0.192 2.046,
            -0.292 0.136 3.295,
            -0.292 0.136 2.046,
            -0.240 0.083 3.295,
            -0.240 0.083 2.046,
            -0.185 0.032 3.295,
            -0.185 0.032 2.046,
            -0.128 -0.016 3.295,
            -0.128 -0.016 2.046,
            -0.069 -0.062 3.295,
            -0.069 -0.062 2.046,
            -0.007 -0.104 3.295,
            -0.007 -0.104 2.046,
            0.057 -0.143 3.295,
            0.057 -0.143 2.046,
            0.123 -0.178 3.295,
            0.123 -0.178 2.046,
            0.190 -0.211 3.295,
            0.190 -0.211 2.046,
            0.259 -0.240 3.295,
            0.259 -0.240 2.046,
            0.329 -0.266 3.295,
            0.329 -0.266 2.046,
            0.401 -0.288 3.295,
            0.401 -0.288 2.046,
            0.473 -0.306 3.295,
            0.473 -0.306 2.046,
            0.547 -0.321 3.295,
            0.547 -0.321 2.046,
            0.621 -0.332 3.295,
            0.621 -0.332 2.046,
            0.695 -0.339 3.295,
            0.695 -0.339 2.046,
            0.770 -0.343 3.295,
            0.770 -0.343 2.046,
            0.844 -0.343 3.295,
            0.844 -0.343 2.046,
            0.919 -0.339 3.295,
            0.919 -0.339 2.046,
            0.994 -0.332 3.295,
            0.994 -0.332 2.046,
            1.068 -0.321 3.295,
            1.068 -0.321 2.046,
            1.141 -0.306 3.295,
            1.141 -0.306 2.046,
            1.213 -0.288 3.295,
            1.213 -0.288 2.046,
            1.285 -0.266 3.295,
            1.285 -0.266 2.046,
            1.355 -0.240 3.295,
            1.355 -0.240 2.046,
            1.424 -0.211 2.046,
            1.424 -0.211 3.295,
            1.491 -0.178 3.295,
            1.491 -0.178 2.046,
            1.557 -0.143 3.295,
            1.557 -0.143 2.046,
            1.621 -0.104 3.295,
            1.621 -0.104 2.046,
            1.683 -0.062 3.295,
            1.683 -0.062 2.046,
            1.742 -0.016 3.295,
            1.742 -0.016 2.046,
            1.800 0.032 3.295,
            1.800 0.032 2.046,
            1.854 0.083 3.295,
            1.854 0.083 2.046,
            1.907 0.136 3.295,
            1.907 0.136 2.046,
            1.956 0.192 3.295,
            1.956 0.192 2.046,
            2.003 0.251 3.295,
            2.003 0.251 2.046,
            2.046 0.311 3.295,
            2.046 0.311 2.046,
            2.087 0.374 3.295,
            2.087 0.374 2.046,
            2.124 0.439 2.046,
            2.124 0.439 3.295,
            2.159 0.506 2.046,
            2.159 0.506 3.295,
            2.189 0.574 3.295,
            2.189 0.574 2.046,
            2.217 0.643 3.295,
            2.217 0.643 2.046,
            2.240 0.714 3.295,
            2.240 0.714 2.046,
            2.261 0.786 2.046,
            2.261 0.786 3.295,
            2.277 0.859 2.046,
            2.277 0.859 3.295,
            2.290 0.933 3.295,
            2.290 0.933 2.046,
            2.300 1.007 3.295,
            2.300 1.007 2.046,
            2.305 1.082 3.295,
            2.305 1.082 2.046,
            2.255 1.085 3.345,
            2.250 1.014 3.345,
            2.241 0.944 3.345,
            2.229 0.873 3.345,
            2.214 0.804 3.345,
            2.195 0.735 3.345,
            2.172 0.668 3.345,
            2.147 0.601 3.345,
            2.118 0.536 3.345,
            2.086 0.473 3.345,
            2.051 0.411 3.345,
            2.013 0.351 3.345,
            1.972 0.293 3.345,
            1.928 0.237 3.345,
            1.881 0.183 3.345,
            1.832 0.131 3.345,
            1.781 0.082 3.345,
            1.727 0.036 3.345,
            1.671 -0.008 3.345,
            1.613 -0.049 3.345,
            1.553 -0.087 3.345,
            1.491 -0.122 3.345,
            1.427 -0.154 3.345,
            1.362 -0.183 3.345,
            1.296 -0.209 3.345,
            1.228 -0.231 3.345,
            1.159 -0.250 3.345,
            1.090 -0.266 3.345,
            1.020 -0.278 3.345,
            0.949 -0.287 3.345,
            0.878 -0.292 3.345,
            1.778 0.434 3.391,
            1.294 0.188 3.412,
            1.778 0.915 3.425,
            1.294 0.671 3.462,
            1.778 1.397 3.425,
            1.294 1.156 3.479,
            1.778 1.878 3.391,
            1.294 1.642 3.462,
            1.294 2.125 3.412
          ]
        }
        coordIndex [
          0, 1, 2, -1,
          3, 1, 0, -1,
          4, 3, 0, -1,
          5, 3, 4, -1,
          6, 5, 4, -1,
          7, 5, 6, -1,
          8, 7, 6, -1,
          9, 7, 8, -1,
          10, 9, 8, -1,
          11, 9, 10, -1,
          12, 11, 10, -1,
          13, 11, 12, -1,
          14, 13, 12, -1,
          15, 13, 14, -1,
          16, 15, 14, -1,
          17, 15, 16, -1,
          18, 17, 16, -1,
          19, 17, 18, -1,
          20, 19, 18, -1,
          21, 19, 20, -1,
          22, 21, 20, -1,
          23, 21, 22, -1,
          24, 23, 22, -1,
          25, 23, 24, -1,
          26, 25, 24, -1,
          27, 25, 26, -1,
          28, 27, 26, -1,
          29, 27, 28, -1,
          30, 29, 28, -1,
          31, 29, 30, -1,
          32, 31, 30, -1,
          33, 31, 32, -1,
          34, 33, 32, -1,
          35, 33, 34, -1,
          36, 35, 34, -1,
          37, 35, 36, -1,
          38, 37, 36, -1,
          39, 37, 38, -1,
          40, 39, 38, -1,
          41, 39, 40, -1,
          42, 41, 40, -1,
          43, 41, 42, -1,
          44, 43, 42, -1,
          45, 43, 44, -1,
          46, 45, 44, -1,
          47, 45, 46, -1,
          48, 47, 46, -1,
          49, 47, 48, -1,
          50, 49, 48, -1,
          51, 49, 50, -1,
          52, 51, 50, -1,
          53, 51, 52, -1,
          54, 53, 52, -1,
          55, 53, 54, -1,
          56, 55, 54, -1,
          57, 55, 56, -1,
          58, 56, 59, -1,
          58, 57, 56, -1,
          60, 58, 59, -1,
          61, 58, 60, -1,
          62, 60, 63, -1,
          62, 61, 60, -1,
          64, 62, 63, -1,
          65, 62, 64, -1,
          66, 64, 67, -1,
          66, 65, 64, -1,
          68, 66, 67, -1,
          69, 66, 68, -1,
          70, 68, 71, -1,
          70, 69, 68, -1,
          72, 70, 71, -1,
          73, 70, 72, -1,
          74, 72, 75, -1,
          74, 73, 72, -1,
          76, 74, 75, -1,
          77, 74, 76, -1,
          78, 77, 76, -1,
          79, 77, 78, -1,
          80, 78, 81, -1,
          80, 79, 78, -1,
          82, 81, 83, -1,
          82, 80, 81, -1,
          84, 83, 85, -1,
          84, 82, 83, -1,
          86, 84, 85, -1,
          87, 84, 86, -1,
          88, 87, 86, -1,
          88, 86, 89, -1,
          90, 88, 89, -1,
          91, 88, 90, -1,
          92, 91, 90, -1,
          92, 90, 93, -1,
          94, 92, 93, -1,
          94, 93, 95, -1,
          96, 95, 97, -1,
          96, 94, 95, -1,
          98, 97, 99, -1,
          98, 96, 97, -1,
          100, 99, 101, -1,
          100, 98, 99, -1,
          102, 101, 103, -1,
          102, 100, 101, -1,
          104, 103, 105, -1,
          104, 102, 103, -1,
          106, 105, 107, -1,
          106, 104, 105, -1,
          108, 107, 109, -1,
          108, 106, 107, -1,
          110, 109, 111, -1,
          110, 108, 109, -1,
          112, 111, 113, -1,
          112, 110, 111, -1,
          114, 112, 113, -1,
          115, 112, 114, -1,
          116, 115, 114, -1,
          117, 115, 116, -1,
          118, 116, 119, -1,
          118, 117, 116, -1,
          120, 119, 121, -1,
          120, 118, 119, -1,
          122, 121, 123, -1,
          122, 120, 121, -1,
          124, 123, 125, -1,
          124, 122, 123, -1,
          126, 124, 125, -1,
          127, 124, 126, -1,
          128, 129, 130, -1,
          128, 130, 131, -1,
          128, 131, 132, -1,
          133, 129, 128, -1,
          134, 135, 136, -1,
          137, 135, 134, -1,
          138, 135, 137, -1,
          139, 135, 138, -1,
          140, 141, 142, -1,
          140, 142, 143, -1,
          140, 143, 144, -1,
          140, 144, 145, -1,
          140, 145, 146, -1,
          140, 146, 147, -1,
          140, 147, 148, -1,
          140, 148, 133, -1,
          140, 128, 149, -1,
          140, 133, 128, -1,
          150, 140, 149, -1,
          150, 151, 141, -1,
          150, 149, 152, -1,
          150, 141, 140, -1,
          153, 154, 155, -1,
          153, 155, 156, -1,
          153, 156, 157, -1,
          153, 157, 158, -1,
          153, 158, 159, -1,
          153, 159, 151, -1,
          153, 151, 150, -1,
          160, 150, 152, -1,
          160, 152, 161, -1,
          160, 161, 162, -1,
          163, 153, 150, -1,
          163, 164, 165, -1,
          163, 165, 166, -1,
          163, 166, 167, -1,
          163, 167, 168, -1,
          163, 168, 169, -1,
          163, 169, 170, -1,
          163, 170, 171, -1,
          163, 171, 172, -1,
          163, 172, 154, -1,
          163, 154, 153, -1,
          163, 150, 160, -1,
          173, 174, 175, -1,
          173, 162, 174, -1,
          173, 160, 162, -1,
          176, 177, 178, -1,
          176, 178, 179, -1,
          176, 179, 180, -1,
          176, 180, 164, -1,
          176, 164, 163, -1,
          176, 163, 160, -1,
          176, 160, 173, -1,
          176, 181, 182, -1,
          176, 182, 183, -1,
          176, 183, 184, -1,
          176, 184, 177, -1,
          185, 175, 186, -1,
          185, 173, 175, -1,
          185, 187, 188, -1,
          189, 176, 173, -1,
          189, 181, 176, -1,
          189, 190, 191, -1,
          189, 191, 192, -1,
          189, 192, 193, -1,
          189, 173, 185, -1,
          189, 193, 194, -1,
          189, 194, 195, -1,
          189, 195, 196, -1,
          189, 196, 197, -1,
          189, 197, 198, -1,
          189, 198, 181, -1,
          199, 187, 185, -1,
          199, 186, 135, -1,
          199, 139, 200, -1,
          199, 200, 201, -1,
          199, 201, 202, -1,
          199, 202, 203, -1,
          199, 203, 204, -1,
          199, 204, 205, -1,
          199, 205, 206, -1,
          199, 206, 187, -1,
          199, 185, 186, -1,
          199, 135, 139, -1,
          207, 190, 189, -1,
          207, 185, 188, -1,
          207, 188, 208, -1,
          207, 208, 209, -1,
          207, 209, 210, -1,
          207, 210, 211, -1,
          207, 211, 212, -1,
          207, 212, 190, -1,
          207, 189, 185, -1,
          184, 213, 177, -1,
          214, 213, 184, -1,
          183, 214, 184, -1,
          215, 183, 182, -1,
          215, 214, 183, -1,
          216, 182, 181, -1,
          216, 215, 182, -1,
          217, 181, 198, -1,
          217, 216, 181, -1,
          218, 198, 197, -1,
          218, 217, 198, -1,
          219, 197, 196, -1,
          219, 218, 197, -1,
          220, 196, 195, -1,
          220, 219, 196, -1,
          221, 195, 194, -1,
          221, 220, 195, -1,
          222, 194, 193, -1,
          222, 221, 194, -1,
          223, 193, 192, -1,
          223, 222, 193, -1,
          224, 192, 191, -1,
          224, 223, 192, -1,
          225, 191, 190, -1,
          225, 224, 191, -1,
          226, 190, 212, -1,
          226, 225, 190, -1,
          227, 212, 211, -1,
          227, 226, 212, -1,
          228, 211, 210, -1,
          228, 227, 211, -1,
          229, 210, 209, -1,
          229, 228, 210, -1,
          230, 229, 209, -1,
          230, 209, 208, -1,
          231, 230, 208, -1,
          231, 208, 188, -1,
          232, 231, 188, -1,
          232, 188, 187, -1,
          233, 187, 206, -1,
          233, 232, 187, -1,
          234, 206, 205, -1,
          234, 233, 206, -1,
          235, 205, 204, -1,
          235, 234, 205, -1,
          236, 204, 203, -1,
          236, 235, 204, -1,
          237, 203, 202, -1,
          237, 236, 203, -1,
          238, 202, 201, -1,
          238, 237, 202, -1,
          239, 201, 200, -1,
          239, 238, 201, -1,
          240, 200, 139, -1,
          240, 239, 200, -1,
          241, 139, 138, -1,
          241, 240, 139, -1,
          242, 241, 138, -1,
          242, 138, 137, -1,
          243, 242, 137, -1,
          243, 137, 134, -1,
          244, 243, 134, -1,
          244, 134, 136, -1,
          245, 136, 246, -1,
          245, 244, 136, -1,
          247, 246, 248, -1,
          247, 245, 246, -1,
          249, 248, 250, -1,
          249, 247, 248, -1,
          251, 250, 252, -1,
          251, 249, 250, -1,
          253, 252, 254, -1,
          253, 251, 252, -1,
          255, 254, 256, -1,
          255, 253, 254, -1,
          257, 256, 258, -1,
          257, 255, 256, -1,
          259, 258, 260, -1,
          259, 257, 258, -1,
          261, 260, 262, -1,
          261, 259, 260, -1,
          263, 262, 264, -1,
          263, 261, 262, -1,
          265, 264, 266, -1,
          265, 263, 264, -1,
          267, 266, 268, -1,
          267, 265, 266, -1,
          269, 267, 268, -1,
          269, 268, 270, -1,
          271, 269, 270, -1,
          271, 270, 272, -1,
          273, 271, 272, -1,
          273, 272, 274, -1,
          275, 274, 276, -1,
          275, 273, 274, -1,
          277, 276, 278, -1,
          277, 275, 276, -1,
          279, 278, 280, -1,
          279, 277, 278, -1,
          281, 280, 282, -1,
          281, 279, 280, -1,
          283, 282, 284, -1,
          283, 281, 282, -1,
          285, 284, 286, -1,
          285, 283, 284, -1,
          287, 286, 288, -1,
          287, 285, 286, -1,
          289, 288, 290, -1,
          289, 287, 288, -1,
          291, 290, 292, -1,
          291, 289, 290, -1,
          293, 292, 294, -1,
          293, 291, 292, -1,
          295, 294, 296, -1,
          295, 293, 294, -1,
          297, 296, 298, -1,
          297, 295, 296, -1,
          299, 298, 300, -1,
          299, 297, 298, -1,
          301, 300, 302, -1,
          301, 299, 300, -1,
          303, 302, 304, -1,
          303, 301, 302, -1,
          305, 304, 306, -1,
          305, 303, 304, -1,
          307, 306, 308, -1,
          307, 305, 306, -1,
          305, 1, 3, -1,
          305, 307, 1, -1,
          303, 3, 5, -1,
          303, 305, 3, -1,
          301, 5, 7, -1,
          301, 303, 5, -1,
          299, 7, 9, -1,
          299, 301, 7, -1,
          297, 9, 11, -1,
          297, 299, 9, -1,
          295, 11, 13, -1,
          295, 297, 11, -1,
          293, 13, 15, -1,
          293, 15, 17, -1,
          293, 295, 13, -1,
          291, 17, 19, -1,
          291, 293, 17, -1,
          289, 291, 19, -1,
          287, 19, 21, -1,
          287, 289, 19, -1,
          285, 21, 23, -1,
          285, 23, 25, -1,
          285, 287, 21, -1,
          283, 285, 25, -1,
          281, 25, 27, -1,
          281, 283, 25, -1,
          279, 27, 29, -1,
          279, 281, 27, -1,
          277, 29, 31, -1,
          277, 279, 29, -1,
          275, 31, 33, -1,
          275, 277, 31, -1,
          273, 33, 35, -1,
          273, 275, 33, -1,
          271, 35, 37, -1,
          271, 273, 35, -1,
          269, 271, 37, -1,
          269, 37, 39, -1,
          267, 269, 39, -1,
          267, 39, 41, -1,
          265, 267, 41, -1,
          265, 41, 43, -1,
          265, 43, 45, -1,
          263, 265, 45, -1,
          263, 45, 47, -1,
          261, 263, 47, -1,
          259, 261, 47, -1,
          259, 47, 49, -1,
          257, 49, 51, -1,
          257, 259, 49, -1,
          255, 51, 53, -1,
          255, 257, 51, -1,
          253, 53, 55, -1,
          253, 255, 53, -1,
          251, 55, 57, -1,
          251, 253, 55, -1,
          249, 57, 58, -1,
          249, 251, 57, -1,
          247, 58, 61, -1,
          247, 249, 58, -1,
          245, 61, 62, -1,
          245, 247, 61, -1,
          244, 62, 65, -1,
          244, 245, 62, -1,
          243, 65, 66, -1,
          243, 244, 65, -1,
          242, 66, 69, -1,
          242, 243, 66, -1,
          241, 69, 70, -1,
          241, 242, 69, -1,
          240, 70, 73, -1,
          240, 241, 70, -1,
          239, 73, 74, -1,
          239, 74, 77, -1,
          239, 240, 73, -1,
          238, 239, 77, -1,
          237, 77, 79, -1,
          237, 238, 77, -1,
          236, 79, 80, -1,
          236, 237, 79, -1,
          235, 80, 82, -1,
          235, 236, 80, -1,
          234, 82, 84, -1,
          234, 235, 82, -1,
          233, 234, 84, -1,
          233, 84, 87, -1,
          232, 233, 87, -1,
          232, 87, 88, -1,
          231, 232, 88, -1,
          231, 88, 91, -1,
          230, 231, 91, -1,
          230, 91, 92, -1,
          229, 230, 92, -1,
          229, 92, 94, -1,
          228, 229, 94, -1,
          228, 94, 96, -1,
          227, 228, 96, -1,
          227, 96, 98, -1,
          226, 227, 98, -1,
          226, 98, 100, -1,
          225, 226, 100, -1,
          225, 100, 102, -1,
          224, 225, 102, -1,
          224, 102, 104, -1,
          224, 104, 106, -1,
          223, 224, 106, -1,
          222, 223, 106, -1,
          222, 106, 108, -1,
          221, 222, 108, -1,
          221, 108, 110, -1,
          220, 110, 112, -1,
          220, 221, 110, -1,
          219, 112, 115, -1,
          219, 115, 117, -1,
          219, 220, 112, -1,
          218, 219, 117, -1,
          217, 117, 118, -1,
          217, 218, 117, -1,
          216, 118, 120, -1,
          216, 120, 122, -1,
          216, 217, 118, -1,
          215, 216, 122, -1,
          214, 122, 124, -1,
          214, 124, 127, -1,
          214, 215, 122, -1,
          213, 214, 127, -1,
          309, 310, 311, -1,
          312, 310, 309, -1,
          310, 313, 314, -1,
          313, 315, 316, -1,
          310, 315, 313, -1,
          317, 318, 319, -1,
          315, 318, 317, -1,
          320, 321, 322, -1,
          323, 321, 320, -1,
          324, 321, 323, -1,
          325, 125, 326, -1,
          327, 125, 325, -1,
          328, 125, 327, -1,
          329, 125, 328, -1,
          322, 125, 329, -1,
          330, 125, 321, -1,
          331, 125, 330, -1,
          332, 125, 331, -1,
          333, 125, 332, -1,
          126, 125, 333, -1,
          321, 125, 322, -1,
          334, 335, 336, -1,
          337, 335, 334, -1,
          338, 335, 337, -1,
          339, 335, 338, -1,
          340, 335, 339, -1,
          123, 119, 125, -1,
          121, 119, 123, -1,
          341, 342, 343, -1,
          114, 113, 116, -1,
          113, 111, 116, -1,
          340, 344, 335, -1,
          341, 344, 342, -1,
          342, 344, 345, -1,
          335, 344, 341, -1,
          346, 344, 340, -1,
          116, 109, 119, -1,
          111, 109, 116, -1,
          107, 103, 109, -1,
          105, 103, 107, -1,
          347, 348, 349, -1,
          350, 348, 347, -1,
          344, 348, 350, -1,
          344, 351, 348, -1,
          101, 99, 103, -1,
          103, 99, 109, -1,
          351, 352, 353, -1,
          97, 90, 99, -1,
          95, 90, 97, -1,
          93, 90, 95, -1,
          344, 354, 351, -1,
          351, 354, 352, -1,
          355, 354, 356, -1,
          357, 354, 355, -1,
          352, 354, 357, -1,
          86, 83, 89, -1,
          85, 83, 86, -1,
          358, 359, 360, -1,
          354, 359, 358, -1,
          89, 78, 90, -1,
          81, 78, 83, -1,
          83, 78, 89, -1,
          354, 361, 359, -1,
          359, 361, 362, -1,
          354, 363, 361, -1,
          76, 72, 78, -1,
          75, 72, 76, -1,
          363, 364, 365, -1,
          354, 364, 363, -1,
          364, 366, 367, -1,
          71, 67, 72, -1,
          68, 67, 71, -1,
          78, 67, 90, -1,
          90, 67, 99, -1,
          72, 67, 78, -1,
          364, 368, 366, -1,
          364, 2, 368, -1,
          64, 63, 67, -1,
          364, 0, 2, -1,
          364, 4, 0, -1,
          63, 59, 67, -1,
          60, 59, 63, -1,
          59, 56, 67, -1,
          364, 8, 4, -1,
          4, 8, 6, -1,
          54, 52, 56, -1,
          8, 12, 10, -1,
          364, 12, 8, -1,
          50, 48, 52, -1,
          12, 16, 14, -1,
          12, 18, 16, -1,
          46, 44, 48, -1,
          12, 20, 18, -1,
          20, 24, 22, -1,
          40, 38, 42, -1,
          20, 26, 24, -1,
          38, 36, 42, -1,
          20, 28, 26, -1,
          36, 34, 42, -1,
          369, 32, 312, -1,
          67, 32, 99, -1,
          326, 32, 369, -1,
          109, 32, 119, -1,
          56, 32, 67, -1,
          346, 32, 344, -1,
          52, 32, 56, -1,
          12, 32, 20, -1,
          48, 32, 52, -1,
          312, 32, 310, -1,
          364, 32, 12, -1,
          20, 32, 28, -1,
          42, 32, 44, -1,
          99, 32, 109, -1,
          28, 32, 30, -1,
          44, 32, 48, -1,
          344, 32, 354, -1,
          310, 32, 315, -1,
          34, 32, 42, -1,
          315, 32, 318, -1,
          125, 32, 326, -1,
          354, 32, 364, -1,
          119, 32, 125, -1,
          370, 32, 346, -1,
          318, 32, 370, -1,
          371, 213, 127, -1,
          371, 127, 372, -1,
          373, 372, 374, -1,
          373, 371, 372, -1,
          375, 374, 376, -1,
          375, 373, 374, -1,
          377, 376, 378, -1,
          377, 375, 376, -1,
          379, 378, 380, -1,
          379, 377, 378, -1,
          381, 380, 382, -1,
          381, 379, 380, -1,
          383, 382, 384, -1,
          383, 381, 382, -1,
          385, 384, 386, -1,
          385, 383, 384, -1,
          387, 386, 388, -1,
          387, 388, 389, -1,
          387, 385, 386, -1,
          390, 387, 389, -1,
          391, 389, 392, -1,
          391, 392, 393, -1,
          391, 390, 389, -1,
          394, 391, 393, -1,
          395, 393, 396, -1,
          395, 394, 393, -1,
          397, 396, 398, -1,
          397, 395, 396, -1,
          399, 398, 400, -1,
          399, 397, 398, -1,
          401, 400, 402, -1,
          401, 399, 400, -1,
          403, 402, 404, -1,
          403, 401, 402, -1,
          405, 404, 406, -1,
          405, 403, 404, -1,
          407, 405, 406, -1,
          407, 406, 408, -1,
          409, 407, 408, -1,
          409, 408, 410, -1,
          411, 409, 410, -1,
          411, 410, 412, -1,
          413, 411, 412, -1,
          413, 412, 414, -1,
          415, 414, 416, -1,
          415, 413, 414, -1,
          417, 416, 418, -1,
          417, 415, 416, -1,
          419, 418, 420, -1,
          419, 417, 418, -1,
          421, 420, 422, -1,
          421, 419, 420, -1,
          423, 422, 424, -1,
          423, 421, 422, -1,
          425, 424, 426, -1,
          425, 423, 424, -1,
          427, 426, 428, -1,
          427, 425, 426, -1,
          429, 428, 430, -1,
          429, 427, 428, -1,
          431, 430, 432, -1,
          431, 429, 430, -1,
          433, 432, 434, -1,
          433, 431, 432, -1,
          435, 434, 436, -1,
          435, 433, 434, -1,
          437, 436, 438, -1,
          437, 435, 436, -1,
          439, 438, 440, -1,
          439, 437, 438, -1,
          441, 440, 442, -1,
          441, 439, 440, -1,
          443, 442, 444, -1,
          443, 441, 442, -1,
          445, 444, 446, -1,
          445, 443, 444, -1,
          447, 446, 448, -1,
          447, 448, 449, -1,
          447, 445, 446, -1,
          450, 447, 449, -1,
          451, 449, 452, -1,
          451, 450, 449, -1,
          453, 452, 454, -1,
          453, 451, 452, -1,
          455, 453, 454, -1,
          455, 454, 456, -1,
          457, 455, 456, -1,
          457, 456, 458, -1,
          459, 457, 458, -1,
          459, 458, 460, -1,
          461, 459, 460, -1,
          461, 460, 462, -1,
          463, 461, 462, -1,
          463, 462, 464, -1,
          465, 463, 464, -1,
          465, 464, 466, -1,
          467, 465, 466, -1,
          467, 466, 468, -1,
          469, 467, 468, -1,
          469, 468, 470, -1,
          471, 469, 470, -1,
          471, 470, 472, -1,
          473, 471, 472, -1,
          473, 472, 474, -1,
          473, 474, 475, -1,
          476, 473, 475, -1,
          476, 475, 477, -1,
          478, 476, 477, -1,
          479, 478, 477, -1,
          479, 477, 480, -1,
          481, 479, 480, -1,
          481, 480, 482, -1,
          483, 482, 484, -1,
          483, 484, 485, -1,
          483, 481, 482, -1,
          486, 485, 487, -1,
          486, 483, 485, -1,
          488, 486, 487, -1,
          489, 487, 490, -1,
          489, 488, 487, -1,
          491, 490, 492, -1,
          491, 489, 490, -1,
          493, 492, 494, -1,
          493, 491, 492, -1,
          307, 494, 1, -1,
          307, 493, 494, -1,
          495, 307, 308, -1,
          493, 307, 495, -1,
          496, 493, 495, -1,
          491, 496, 497, -1,
          491, 493, 496, -1,
          489, 497, 498, -1,
          489, 491, 497, -1,
          488, 498, 499, -1,
          488, 489, 498, -1,
          486, 499, 500, -1,
          486, 488, 499, -1,
          483, 500, 501, -1,
          483, 486, 500, -1,
          481, 501, 502, -1,
          481, 483, 501, -1,
          479, 502, 503, -1,
          479, 481, 502, -1,
          478, 503, 504, -1,
          478, 479, 503, -1,
          476, 504, 505, -1,
          476, 478, 504, -1,
          473, 505, 506, -1,
          473, 476, 505, -1,
          471, 506, 507, -1,
          471, 473, 506, -1,
          469, 507, 508, -1,
          469, 471, 507, -1,
          467, 508, 509, -1,
          467, 469, 508, -1,
          465, 509, 510, -1,
          465, 467, 509, -1,
          463, 510, 511, -1,
          463, 465, 510, -1,
          461, 463, 511, -1,
          461, 511, 512, -1,
          459, 461, 512, -1,
          459, 512, 513, -1,
          457, 459, 513, -1,
          457, 513, 514, -1,
          455, 457, 514, -1,
          455, 514, 515, -1,
          453, 515, 516, -1,
          453, 455, 515, -1,
          451, 516, 517, -1,
          451, 453, 516, -1,
          450, 517, 518, -1,
          450, 451, 517, -1,
          447, 518, 519, -1,
          447, 450, 518, -1,
          445, 519, 520, -1,
          445, 447, 519, -1,
          443, 520, 521, -1,
          443, 445, 520, -1,
          441, 521, 522, -1,
          441, 443, 521, -1,
          439, 522, 523, -1,
          439, 441, 522, -1,
          437, 523, 524, -1,
          437, 439, 523, -1,
          435, 524, 525, -1,
          435, 437, 524, -1,
          433, 525, 132, -1,
          433, 435, 525, -1,
          431, 433, 132, -1,
          431, 132, 131, -1,
          429, 131, 130, -1,
          429, 431, 131, -1,
          427, 130, 129, -1,
          427, 429, 130, -1,
          425, 129, 133, -1,
          425, 427, 129, -1,
          423, 133, 148, -1,
          423, 425, 133, -1,
          421, 148, 147, -1,
          421, 423, 148, -1,
          419, 147, 146, -1,
          419, 421, 147, -1,
          417, 146, 145, -1,
          417, 419, 146, -1,
          415, 145, 144, -1,
          415, 417, 145, -1,
          413, 144, 143, -1,
          413, 415, 144, -1,
          411, 413, 143, -1,
          411, 143, 142, -1,
          409, 142, 141, -1,
          409, 411, 142, -1,
          407, 409, 141, -1,
          407, 141, 151, -1,
          405, 407, 151, -1,
          405, 151, 159, -1,
          403, 405, 159, -1,
          403, 159, 158, -1,
          401, 403, 158, -1,
          401, 158, 157, -1,
          399, 401, 157, -1,
          399, 157, 156, -1,
          397, 399, 156, -1,
          397, 156, 155, -1,
          395, 397, 155, -1,
          395, 155, 154, -1,
          394, 395, 154, -1,
          394, 154, 172, -1,
          391, 394, 172, -1,
          391, 172, 171, -1,
          390, 171, 170, -1,
          390, 391, 171, -1,
          387, 170, 169, -1,
          387, 390, 170, -1,
          385, 169, 168, -1,
          385, 387, 169, -1,
          383, 168, 167, -1,
          383, 385, 168, -1,
          381, 167, 166, -1,
          381, 383, 167, -1,
          379, 166, 165, -1,
          379, 381, 166, -1,
          377, 165, 164, -1,
          377, 379, 165, -1,
          375, 164, 180, -1,
          375, 377, 164, -1,
          373, 180, 179, -1,
          373, 375, 180, -1,
          371, 179, 178, -1,
          371, 373, 179, -1,
          213, 178, 177, -1,
          213, 371, 178, -1,
          128, 132, 525, -1,
          128, 525, 524, -1,
          128, 524, 523, -1,
          128, 523, 522, -1,
          128, 522, 521, -1,
          135, 254, 252, -1,
          250, 135, 252, -1,
          248, 135, 250, -1,
          246, 135, 248, -1,
          136, 135, 246, -1,
          526, 512, 511, -1,
          526, 511, 510, -1,
          526, 510, 509, -1,
          526, 509, 508, -1,
          526, 508, 507, -1,
          526, 507, 506, -1,
          526, 506, 505, -1,
          526, 505, 504, -1,
          526, 504, 503, -1,
          526, 503, 502, -1,
          527, 149, 128, -1,
          527, 521, 520, -1,
          527, 520, 519, -1,
          527, 519, 518, -1,
          527, 518, 517, -1,
          527, 517, 516, -1,
          527, 516, 515, -1,
          527, 515, 514, -1,
          527, 514, 513, -1,
          527, 513, 512, -1,
          527, 512, 526, -1,
          527, 128, 521, -1,
          528, 502, 501, -1,
          528, 501, 500, -1,
          528, 500, 499, -1,
          528, 499, 498, -1,
          528, 498, 497, -1,
          528, 497, 496, -1,
          528, 496, 495, -1,
          528, 495, 308, -1,
          528, 526, 502, -1,
          529, 152, 149, -1,
          529, 161, 152, -1,
          529, 526, 528, -1,
          529, 527, 526, -1,
          529, 149, 527, -1,
          530, 308, 306, -1,
          530, 306, 304, -1,
          530, 304, 302, -1,
          530, 302, 300, -1,
          530, 300, 298, -1,
          530, 298, 296, -1,
          530, 296, 294, -1,
          530, 294, 292, -1,
          530, 528, 308, -1,
          531, 162, 161, -1,
          531, 528, 530, -1,
          531, 174, 162, -1,
          531, 529, 528, -1,
          531, 161, 529, -1,
          532, 292, 290, -1,
          532, 290, 288, -1,
          532, 288, 286, -1,
          532, 286, 284, -1,
          532, 284, 282, -1,
          532, 282, 280, -1,
          532, 280, 278, -1,
          532, 278, 276, -1,
          532, 276, 274, -1,
          532, 274, 272, -1,
          532, 530, 292, -1,
          533, 531, 530, -1,
          533, 175, 174, -1,
          533, 530, 532, -1,
          533, 174, 531, -1,
          534, 175, 533, -1,
          534, 254, 135, -1,
          534, 272, 270, -1,
          534, 270, 268, -1,
          534, 268, 266, -1,
          534, 266, 264, -1,
          534, 264, 262, -1,
          534, 262, 260, -1,
          534, 260, 258, -1,
          534, 258, 256, -1,
          534, 256, 254, -1,
          534, 135, 186, -1,
          534, 186, 175, -1,
          534, 532, 272, -1,
          534, 533, 532, -1,
          333, 127, 126, -1,
          372, 127, 333, -1,
          332, 372, 333, -1,
          374, 372, 332, -1,
          331, 374, 332, -1,
          376, 374, 331, -1,
          330, 376, 331, -1,
          378, 376, 330, -1,
          321, 378, 330, -1,
          380, 378, 321, -1,
          324, 380, 321, -1,
          382, 380, 324, -1,
          323, 382, 324, -1,
          384, 382, 323, -1,
          320, 384, 323, -1,
          386, 384, 320, -1,
          322, 386, 320, -1,
          388, 386, 322, -1,
          329, 388, 322, -1,
          389, 388, 329, -1,
          328, 389, 329, -1,
          392, 389, 328, -1,
          327, 392, 328, -1,
          393, 392, 327, -1,
          325, 393, 327, -1,
          396, 393, 325, -1,
          326, 396, 325, -1,
          398, 396, 326, -1,
          369, 398, 326, -1,
          400, 398, 369, -1,
          312, 400, 369, -1,
          402, 400, 312, -1,
          309, 402, 312, -1,
          404, 402, 309, -1,
          311, 404, 309, -1,
          406, 404, 311, -1,
          408, 406, 311, -1,
          408, 311, 310, -1,
          314, 408, 310, -1,
          410, 408, 314, -1,
          313, 410, 314, -1,
          412, 410, 313, -1,
          316, 412, 313, -1,
          414, 412, 316, -1,
          315, 414, 316, -1,
          416, 414, 315, -1,
          317, 416, 315, -1,
          418, 416, 317, -1,
          319, 418, 317, -1,
          420, 418, 319, -1,
          318, 420, 319, -1,
          422, 420, 318, -1,
          370, 422, 318, -1,
          424, 422, 370, -1,
          346, 424, 370, -1,
          426, 424, 346, -1,
          340, 426, 346, -1,
          428, 426, 340, -1,
          339, 428, 340, -1,
          430, 428, 339, -1,
          338, 430, 339, -1,
          432, 430, 338, -1,
          434, 338, 337, -1,
          434, 432, 338, -1,
          334, 434, 337, -1,
          436, 434, 334, -1,
          336, 436, 334, -1,
          438, 436, 336, -1,
          335, 438, 336, -1,
          440, 438, 335, -1,
          341, 440, 335, -1,
          442, 440, 341, -1,
          343, 442, 341, -1,
          444, 442, 343, -1,
          342, 444, 343, -1,
          446, 444, 342, -1,
          345, 446, 342, -1,
          448, 446, 345, -1,
          344, 448, 345, -1,
          449, 448, 344, -1,
          452, 344, 350, -1,
          452, 449, 344, -1,
          347, 452, 350, -1,
          454, 452, 347, -1,
          349, 454, 347, -1,
          456, 454, 349, -1,
          348, 456, 349, -1,
          458, 456, 348, -1,
          351, 458, 348, -1,
          460, 458, 351, -1,
          353, 460, 351, -1,
          462, 460, 353, -1,
          352, 462, 353, -1,
          464, 462, 352, -1,
          357, 464, 352, -1,
          466, 464, 357, -1,
          355, 466, 357, -1,
          468, 466, 355, -1,
          356, 468, 355, -1,
          470, 468, 356, -1,
          472, 356, 354, -1,
          472, 470, 356, -1,
          358, 472, 354, -1,
          474, 472, 358, -1,
          360, 474, 358, -1,
          475, 474, 360, -1,
          477, 360, 359, -1,
          477, 475, 360, -1,
          480, 359, 362, -1,
          480, 477, 359, -1,
          361, 480, 362, -1,
          482, 480, 361, -1,
          363, 482, 361, -1,
          484, 482, 363, -1,
          365, 484, 363, -1,
          485, 484, 365, -1,
          487, 365, 364, -1,
          487, 485, 365, -1,
          490, 364, 367, -1,
          490, 487, 364, -1,
          366, 490, 367, -1,
          492, 490, 366, -1,
          368, 492, 366, -1,
          494, 492, 368, -1,
          2, 494, 368, -1,
          1, 494, 2, -1
        ]
      }
    }
}
