#VRML V2.0 utf8
WorldInfo {
  title "Exported triangle mesh to VRML97"
  info ["Created by FreeCAD"
        "<https://www.freecad.org>"]
}

Transform {
  scale 1 1 1
  rotation 0 0 1 0
  scaleOrientation 0 0 1 0
  center 0.000 0.000 0.000
  translation 0.000 0.000 0.000
  children
    Shape { 
      appearance
      Appearance {
        material
        Material {
          diffuseColor 0.8 0.8 0.8
        }
      }
      geometry
      IndexedFaceSet {
        coord
        Coordinate {
          point [
            1.502 0.814 1.370,
            1.452 0.814 1.320,
            1.451 0.862 1.320,
            1.500 0.864 1.370,
            1.447 0.909 1.320,
            1.497 0.914 1.370,
            1.441 0.956 1.320,
            1.491 0.963 1.370,
            1.433 1.003 1.320,
            1.482 1.013 1.370,
            1.422 1.049 1.320,
            1.471 1.061 1.370,
            1.410 1.094 1.320,
            1.457 1.109 1.370,
            1.394 1.139 1.320,
            1.441 1.156 1.370,
            1.377 1.183 1.320,
            1.423 1.203 1.370,
            1.358 1.227 1.320,
            1.403 1.248 1.370,
            1.336 1.269 1.320,
            1.380 1.293 1.370,
            1.312 1.310 1.320,
            1.355 1.336 1.370,
            1.287 1.350 1.320,
            1.328 1.378 1.370,
            1.259 1.388 1.320,
            1.299 1.418 1.370,
            1.229 1.425 1.320,
            1.268 1.457 1.370,
            1.198 1.461 1.320,
            1.235 1.495 1.370,
            1.165 1.494 1.320,
            1.200 1.530 1.370,
            1.130 1.527 1.320,
            1.163 1.564 1.370,
            1.094 1.557 1.320,
            1.125 1.596 1.370,
            1.056 1.586 1.320,
            1.085 1.626 1.370,
            1.017 1.612 1.320,
            1.044 1.654 1.370,
            0.977 1.637 1.320,
            1.002 1.680 1.370,
            0.935 1.660 1.320,
            0.958 1.704 1.370,
            0.892 1.680 1.320,
            0.913 1.726 1.370,
            0.849 1.699 1.320,
            0.867 1.745 1.370,
            0.804 1.715 1.320,
            0.820 1.762 1.370,
            0.759 1.729 1.320,
            0.773 1.777 1.370,
            0.713 1.741 1.320,
            0.724 1.789 1.370,
            0.667 1.750 1.320,
            0.675 1.799 1.370,
            0.620 1.757 1.320,
            0.626 1.807 1.370,
            0.573 1.762 1.320,
            0.576 1.812 1.370,
            0.525 1.764 1.320,
            0.527 1.814 1.370,
            0.478 1.764 1.320,
            0.477 1.814 1.370,
            0.431 1.762 1.320,
            0.427 1.812 1.370,
            0.384 1.757 1.320,
            0.377 1.807 1.370,
            0.337 1.750 1.320,
            0.328 1.799 1.370,
            0.279 1.789 1.370,
            0.290 1.741 1.320,
            0.231 1.777 1.370,
            0.244 1.729 1.320,
            0.199 1.715 1.320,
            0.183 1.762 1.370,
            0.155 1.699 1.320,
            0.136 1.745 1.370,
            0.111 1.680 1.320,
            0.090 1.726 1.370,
            0.046 1.704 1.370,
            0.068 1.660 1.320,
            0.002 1.680 1.370,
            0.027 1.637 1.320,
            -0.014 1.612 1.320,
            -0.041 1.654 1.370,
            -0.082 1.626 1.370,
            -0.053 1.586 1.320,
            -0.091 1.557 1.320,
            -0.122 1.596 1.370,
            -0.160 1.564 1.370,
            -0.127 1.527 1.320,
            -0.162 1.494 1.320,
            -0.197 1.530 1.370,
            -0.231 1.495 1.370,
            -0.195 1.461 1.320,
            -0.226 1.425 1.320,
            -0.264 1.457 1.370,
            -0.256 1.388 1.320,
            -0.295 1.418 1.370,
            -0.325 1.378 1.370,
            -0.283 1.350 1.320,
            -0.352 1.336 1.370,
            -0.309 1.310 1.320,
            -0.333 1.269 1.320,
            -0.377 1.293 1.370,
            -0.354 1.227 1.320,
            -0.399 1.248 1.370,
            -0.374 1.183 1.320,
            -0.420 1.203 1.370,
            -0.438 1.156 1.370,
            -0.391 1.139 1.320,
            -0.454 1.109 1.370,
            -0.406 1.094 1.320,
            -0.467 1.061 1.370,
            -0.419 1.049 1.320,
            -0.478 1.013 1.370,
            -0.429 1.003 1.320,
            -0.487 0.963 1.370,
            -0.438 0.956 1.320,
            -0.493 0.914 1.370,
            -0.444 0.909 1.320,
            -0.497 0.864 1.370,
            -0.447 0.862 1.320,
            -0.498 0.814 1.370,
            -0.448 0.814 1.320,
            0.502 -0.021 2.190,
            0.409 -0.131 2.151,
            0.455 -0.134 2.151,
            0.502 -0.136 2.151,
            0.455 1.763 2.151,
            0.502 1.650 2.190,
            0.502 1.764 2.151,
            0.409 1.760 2.151,
            0.340 -0.051 2.176,
            0.226 -0.095 2.151,
            0.271 -0.107 2.151,
            0.316 -0.117 2.151,
            0.362 -0.125 2.151,
            0.340 0.118 2.226,
            0.502 0.095 2.225,
            0.502 0.213 2.254,
            0.179 0.037 2.188,
            0.054 -0.023 2.151,
            0.096 -0.044 2.151,
            0.138 -0.063 2.151,
            0.182 -0.080 2.151,
            0.340 0.289 2.265,
            0.502 0.332 2.278,
            0.179 0.207 2.233,
            0.019 0.127 2.189,
            -0.136 0.110 2.151,
            -0.101 0.080 2.151,
            -0.064 0.051 2.151,
            -0.026 0.024 2.151,
            0.013 -0.000 2.151,
            0.340 0.463 2.293,
            0.502 0.452 2.296,
            0.502 0.572 2.309,
            0.179 0.378 2.266,
            0.019 0.297 2.228,
            0.340 0.638 2.310,
            0.502 0.693 2.317,
            -0.139 0.219 2.177,
            -0.261 0.248 2.151,
            -0.233 0.212 2.151,
            -0.202 0.176 2.151,
            -0.170 0.143 2.151,
            0.179 0.552 2.289,
            0.019 0.468 2.255,
            0.340 0.814 2.315,
            0.502 0.814 2.320,
            0.502 0.936 2.317,
            -0.139 0.387 2.210,
            -0.313 0.326 2.151,
            -0.288 0.287 2.151,
            0.179 0.727 2.300,
            0.019 0.641 2.272,
            0.340 0.990 2.310,
            0.502 1.057 2.309,
            -0.139 0.558 2.232,
            0.179 0.902 2.300,
            -0.295 0.478 2.181,
            -0.407 0.539 2.151,
            -0.393 0.494 2.151,
            -0.376 0.451 2.151,
            -0.357 0.408 2.151,
            -0.336 0.367 2.151,
            0.019 0.814 2.278,
            0.340 1.166 2.293,
            0.502 1.177 2.296,
            0.502 1.297 2.278,
            -0.139 0.729 2.243,
            0.179 1.077 2.289,
            -0.295 0.646 2.197,
            -0.444 0.721 2.151,
            -0.438 0.675 2.151,
            -0.430 0.629 2.151,
            -0.420 0.584 2.151,
            0.019 0.988 2.272,
            0.340 1.339 2.265,
            0.502 1.416 2.254,
            -0.139 0.900 2.243,
            0.179 1.250 2.266,
            -0.295 0.814 2.202,
            -0.448 0.814 2.151,
            -0.447 0.768 2.151,
            -0.444 0.908 2.151,
            -0.447 0.861 2.151,
            0.019 1.161 2.255,
            0.340 1.511 2.226,
            0.502 1.533 2.225,
            -0.139 1.071 2.232,
            0.179 1.422 2.233,
            -0.295 0.983 2.197,
            -0.407 1.090 2.151,
            -0.420 1.045 2.151,
            -0.430 1.000 2.151,
            -0.438 0.954 2.151,
            0.019 1.332 2.228,
            0.340 1.680 2.176,
            0.362 1.754 2.151,
            0.316 1.746 2.151,
            0.271 1.736 2.151,
            0.226 1.723 2.151,
            -0.139 1.241 2.210,
            -0.261 1.380 2.151,
            -0.288 1.342 2.151,
            -0.313 1.303 2.151,
            0.179 1.592 2.188,
            0.182 1.709 2.151,
            0.138 1.692 2.151,
            0.096 1.673 2.151,
            0.054 1.652 2.151,
            -0.295 1.151 2.181,
            -0.336 1.262 2.151,
            -0.357 1.221 2.151,
            -0.376 1.178 2.151,
            -0.393 1.134 2.151,
            0.019 1.501 2.189,
            0.013 1.629 2.151,
            -0.026 1.604 2.151,
            -0.064 1.577 2.151,
            -0.101 1.549 2.151,
            -0.136 1.518 2.151,
            -0.139 1.410 2.177,
            -0.170 1.486 2.151,
            -0.202 1.452 2.151,
            -0.233 1.417 2.151,
            -0.498 0.814 2.101,
            -0.497 0.864 2.101,
            -0.493 0.914 2.101,
            -0.487 0.963 2.101,
            -0.478 1.013 2.101,
            -0.467 1.061 2.101,
            -0.454 1.109 2.101,
            -0.438 1.156 2.101,
            -0.420 1.203 2.101,
            -0.399 1.248 2.101,
            -0.377 1.293 2.101,
            -0.352 1.336 2.101,
            -0.325 1.378 2.101,
            -0.295 1.418 2.101,
            -0.264 1.457 2.101,
            -0.231 1.495 2.101,
            -0.197 1.530 2.101,
            -0.160 1.564 2.101,
            -0.122 1.596 2.101,
            -0.082 1.626 2.101,
            -0.041 1.654 2.101,
            0.002 1.680 2.101,
            0.046 1.704 2.101,
            0.090 1.726 2.101,
            0.136 1.745 2.101,
            0.183 1.762 2.101,
            0.231 1.777 2.101,
            0.279 1.789 2.101,
            0.328 1.799 2.101,
            0.377 1.807 2.101,
            0.427 1.812 2.101,
            0.477 1.814 2.101,
            0.527 1.814 2.101,
            0.548 1.763 2.151,
            0.576 1.812 2.101,
            0.595 1.760 2.151,
            0.626 1.807 2.101,
            0.641 1.754 2.151,
            0.675 1.799 2.101,
            0.687 1.746 2.151,
            0.724 1.789 2.101,
            0.733 1.736 2.151,
            0.773 1.777 2.101,
            0.777 1.723 2.151,
            0.820 1.762 2.101,
            0.822 1.709 2.151,
            0.867 1.745 2.101,
            0.865 1.692 2.151,
            0.913 1.726 2.101,
            0.908 1.673 2.151,
            0.958 1.704 2.101,
            0.950 1.652 2.151,
            1.002 1.680 2.101,
            0.990 1.629 2.151,
            1.044 1.654 2.101,
            1.030 1.604 2.151,
            1.085 1.626 2.101,
            1.068 1.577 2.151,
            1.125 1.596 2.101,
            1.104 1.549 2.151,
            1.163 1.564 2.101,
            1.140 1.518 2.151,
            1.200 1.530 2.101,
            1.173 1.486 2.151,
            1.235 1.495 2.101,
            1.206 1.452 2.151,
            1.268 1.457 2.101,
            1.236 1.417 2.151,
            1.299 1.418 2.101,
            1.265 1.380 2.151,
            1.328 1.378 2.101,
            1.292 1.342 2.151,
            1.355 1.336 2.101,
            1.317 1.303 2.151,
            1.380 1.293 2.101,
            1.340 1.262 2.151,
            1.403 1.248 2.101,
            1.361 1.221 2.151,
            1.423 1.203 2.101,
            1.379 1.178 2.151,
            1.441 1.156 2.101,
            1.396 1.134 2.151,
            1.457 1.109 2.101,
            1.411 1.090 2.151,
            1.471 1.061 2.101,
            1.423 1.045 2.151,
            1.482 1.013 2.101,
            1.433 1.000 2.151,
            1.491 0.963 2.101,
            1.441 0.954 2.151,
            1.497 0.914 2.101,
            1.447 0.908 2.151,
            1.500 0.864 2.101,
            1.451 0.861 2.151,
            1.502 0.814 2.101,
            1.452 0.814 2.151,
            -0.374 0.445 1.320,
            -0.391 0.489 1.320,
            -0.354 0.402 1.320,
            0.384 -0.128 1.320,
            0.478 -0.135 1.320,
            0.431 -0.133 1.320,
            0.525 -0.135 1.320,
            0.620 -0.128 1.320,
            0.573 -0.133 1.320,
            0.713 -0.112 1.320,
            0.804 -0.086 1.320,
            0.759 -0.100 1.320,
            0.849 -0.070 1.320,
            0.667 -0.121 1.320,
            0.892 -0.052 1.320,
            0.977 -0.008 1.320,
            1.056 0.043 1.320,
            1.017 0.016 1.320,
            0.935 -0.031 1.320,
            1.130 0.102 1.320,
            1.094 0.072 1.320,
            1.198 0.168 1.320,
            1.165 0.134 1.320,
            1.229 0.204 1.320,
            1.287 0.279 1.320,
            1.336 0.360 1.320,
            1.312 0.319 1.320,
            1.259 0.241 1.320,
            1.358 0.402 1.320,
            1.394 0.489 1.320,
            1.377 0.445 1.320,
            1.410 0.534 1.320,
            1.433 0.626 1.320,
            1.422 0.580 1.320,
            1.441 0.673 1.320,
            1.451 0.767 1.320,
            1.447 0.720 1.320,
            0.199 -0.086 1.320,
            0.244 -0.100 1.320,
            0.155 -0.070 1.320,
            0.111 -0.052 1.320,
            0.068 -0.031 1.320,
            0.027 -0.008 1.320,
            -0.014 0.016 1.320,
            -0.053 0.043 1.320,
            -0.091 0.072 1.320,
            -0.127 0.102 1.320,
            0.337 -0.121 1.320,
            0.290 -0.112 1.320,
            -0.162 0.134 1.320,
            -0.195 0.168 1.320,
            -0.226 0.204 1.320,
            -0.256 0.241 1.320,
            -0.283 0.279 1.320,
            -0.309 0.319 1.320,
            -0.333 0.360 1.320,
            -0.406 0.534 1.320,
            -0.419 0.580 1.320,
            -0.429 0.626 1.320,
            -0.438 0.673 1.320,
            -0.444 0.720 1.320,
            -0.447 0.767 1.320,
            -0.497 0.765 2.101,
            -0.497 0.765 1.370,
            -0.493 0.715 2.101,
            -0.493 0.715 1.370,
            -0.487 0.665 2.101,
            -0.487 0.665 1.370,
            -0.478 0.616 2.101,
            -0.478 0.616 1.370,
            -0.467 0.568 2.101,
            -0.467 0.568 1.370,
            -0.454 0.520 2.101,
            -0.454 0.520 1.370,
            -0.438 0.472 2.101,
            -0.438 0.472 1.370,
            -0.420 0.426 1.370,
            -0.420 0.426 2.101,
            -0.399 0.381 2.101,
            -0.399 0.381 1.370,
            -0.377 0.336 2.101,
            -0.377 0.336 1.370,
            -0.352 0.293 2.101,
            -0.352 0.293 1.370,
            -0.325 0.251 1.370,
            -0.325 0.251 2.101,
            -0.295 0.211 2.101,
            -0.295 0.211 1.370,
            -0.264 0.172 2.101,
            -0.264 0.172 1.370,
            -0.231 0.134 2.101,
            -0.231 0.134 1.370,
            -0.197 0.099 1.370,
            -0.197 0.099 2.101,
            -0.160 0.065 2.101,
            -0.160 0.065 1.370,
            -0.122 0.033 2.101,
            -0.122 0.033 1.370,
            -0.082 0.002 2.101,
            -0.082 0.002 1.370,
            -0.041 -0.026 1.370,
            -0.041 -0.026 2.101,
            0.002 -0.052 2.101,
            0.002 -0.052 1.370,
            0.046 -0.075 2.101,
            0.046 -0.075 1.370,
            0.090 -0.097 2.101,
            0.090 -0.097 1.370,
            0.136 -0.116 1.370,
            0.136 -0.116 2.101,
            0.183 -0.134 2.101,
            0.183 -0.134 1.370,
            0.231 -0.148 2.101,
            0.231 -0.148 1.370,
            0.279 -0.161 2.101,
            0.279 -0.161 1.370,
            0.328 -0.170 2.101,
            0.328 -0.170 1.370,
            0.377 -0.178 2.101,
            0.377 -0.178 1.370,
            0.427 -0.183 1.370,
            0.427 -0.183 2.101,
            0.477 -0.185 2.101,
            0.477 -0.185 1.370,
            0.527 -0.185 2.101,
            0.527 -0.185 1.370,
            0.576 -0.183 2.101,
            0.576 -0.183 1.370,
            0.626 -0.178 2.101,
            0.626 -0.178 1.370,
            0.675 -0.170 2.101,
            0.675 -0.170 1.370,
            0.724 -0.161 1.370,
            0.724 -0.161 2.101,
            0.773 -0.148 2.101,
            0.773 -0.148 1.370,
            0.820 -0.134 1.370,
            0.820 -0.134 2.101,
            0.867 -0.116 2.101,
            0.867 -0.116 1.370,
            0.913 -0.097 1.370,
            0.913 -0.097 2.101,
            0.958 -0.075 2.101,
            0.958 -0.075 1.370,
            1.002 -0.052 1.370,
            1.002 -0.052 2.101,
            1.044 -0.026 2.101,
            1.044 -0.026 1.370,
            1.085 0.002 2.101,
            1.085 0.002 1.370,
            1.125 0.033 2.101,
            1.125 0.033 1.370,
            1.163 0.065 2.101,
            1.163 0.065 1.370,
            1.200 0.099 2.101,
            1.200 0.099 1.370,
            1.235 0.134 2.101,
            1.235 0.134 1.370,
            1.268 0.172 2.101,
            1.268 0.172 1.370,
            1.299 0.211 2.101,
            1.299 0.211 1.370,
            1.328 0.251 2.101,
            1.328 0.251 1.370,
            1.355 0.293 2.101,
            1.355 0.293 1.370,
            1.380 0.336 2.101,
            1.380 0.336 1.370,
            1.403 0.381 2.101,
            1.403 0.381 1.370,
            1.423 0.426 2.101,
            1.423 0.426 1.370,
            1.441 0.472 2.101,
            1.441 0.472 1.370,
            1.457 0.520 2.101,
            1.457 0.520 1.370,
            1.471 0.568 2.101,
            1.471 0.568 1.370,
            1.482 0.616 1.370,
            1.482 0.616 2.101,
            1.491 0.665 1.370,
            1.491 0.665 2.101,
            1.497 0.715 2.101,
            1.497 0.715 1.370,
            1.500 0.765 2.101,
            1.500 0.765 1.370,
            1.451 0.768 2.151,
            1.447 0.721 2.151,
            1.441 0.675 2.151,
            1.433 0.629 2.151,
            1.423 0.584 2.151,
            1.411 0.539 2.151,
            1.396 0.494 2.151,
            1.379 0.451 2.151,
            1.361 0.408 2.151,
            1.340 0.367 2.151,
            1.317 0.326 2.151,
            1.292 0.287 2.151,
            1.265 0.248 2.151,
            1.236 0.212 2.151,
            1.206 0.176 2.151,
            1.173 0.143 2.151,
            1.140 0.110 2.151,
            1.104 0.080 2.151,
            1.068 0.051 2.151,
            1.030 0.024 2.151,
            0.990 -0.000 2.151,
            0.950 -0.023 2.151,
            0.908 -0.044 2.151,
            0.865 -0.063 2.151,
            0.822 -0.080 2.151,
            0.777 -0.095 2.151,
            0.733 -0.107 2.151,
            0.687 -0.117 2.151,
            0.641 -0.125 2.151,
            0.595 -0.131 2.151,
            0.548 -0.134 2.151,
            1.142 0.219 2.177,
            0.984 0.127 2.189,
            1.298 0.478 2.181,
            0.824 0.037 2.188,
            1.142 0.387 2.210,
            0.663 -0.051 2.176,
            0.984 0.297 2.228,
            1.298 0.646 2.197,
            0.824 0.207 2.233,
            1.142 0.558 2.232,
            0.663 0.118 2.226,
            0.984 0.468 2.255,
            1.298 0.814 2.202,
            0.824 0.378 2.266,
            1.142 0.729 2.243,
            0.663 0.289 2.265,
            0.984 0.641 2.272,
            1.298 0.983 2.197,
            0.824 0.552 2.289,
            1.142 0.900 2.243,
            0.663 0.463 2.293,
            0.984 0.814 2.278,
            1.298 1.151 2.181,
            0.824 0.727 2.300,
            1.142 1.071 2.232,
            0.663 0.638 2.310,
            0.984 0.988 2.272,
            1.298 1.318 2.154,
            0.824 0.902 2.300,
            1.142 1.241 2.210,
            0.663 0.814 2.315,
            0.984 1.161 2.255,
            0.824 1.077 2.289,
            1.142 1.410 2.177,
            0.663 0.990 2.310,
            0.984 1.332 2.228,
            0.824 1.250 2.266,
            0.663 1.166 2.293,
            0.984 1.501 2.189,
            0.824 1.422 2.233,
            0.663 1.339 2.265,
            0.824 1.592 2.188,
            0.663 1.511 2.226,
            0.663 1.680 2.176
          ]
        }
        coordIndex [
          0, 1, 2, -1,
          3, 0, 2, -1,
          3, 2, 4, -1,
          5, 3, 4, -1,
          5, 4, 6, -1,
          7, 5, 6, -1,
          7, 6, 8, -1,
          9, 7, 8, -1,
          9, 8, 10, -1,
          11, 9, 10, -1,
          11, 10, 12, -1,
          13, 12, 14, -1,
          13, 11, 12, -1,
          15, 14, 16, -1,
          15, 13, 14, -1,
          17, 16, 18, -1,
          17, 15, 16, -1,
          19, 18, 20, -1,
          19, 17, 18, -1,
          21, 20, 22, -1,
          21, 19, 20, -1,
          23, 22, 24, -1,
          23, 21, 22, -1,
          25, 24, 26, -1,
          25, 23, 24, -1,
          27, 26, 28, -1,
          27, 25, 26, -1,
          29, 28, 30, -1,
          29, 27, 28, -1,
          31, 30, 32, -1,
          31, 29, 30, -1,
          33, 32, 34, -1,
          33, 31, 32, -1,
          35, 34, 36, -1,
          35, 33, 34, -1,
          37, 35, 36, -1,
          37, 36, 38, -1,
          39, 37, 38, -1,
          39, 38, 40, -1,
          41, 39, 40, -1,
          41, 40, 42, -1,
          43, 41, 42, -1,
          43, 42, 44, -1,
          45, 43, 44, -1,
          45, 44, 46, -1,
          47, 45, 46, -1,
          47, 46, 48, -1,
          49, 47, 48, -1,
          49, 48, 50, -1,
          51, 49, 50, -1,
          51, 50, 52, -1,
          53, 51, 52, -1,
          53, 52, 54, -1,
          55, 54, 56, -1,
          55, 53, 54, -1,
          57, 56, 58, -1,
          57, 55, 56, -1,
          59, 58, 60, -1,
          59, 57, 58, -1,
          61, 60, 62, -1,
          61, 59, 60, -1,
          63, 62, 64, -1,
          63, 61, 62, -1,
          65, 64, 66, -1,
          65, 63, 64, -1,
          67, 66, 68, -1,
          67, 65, 66, -1,
          69, 68, 70, -1,
          69, 67, 68, -1,
          71, 69, 70, -1,
          72, 70, 73, -1,
          72, 71, 70, -1,
          74, 75, 76, -1,
          74, 73, 75, -1,
          74, 72, 73, -1,
          77, 76, 78, -1,
          77, 74, 76, -1,
          79, 78, 80, -1,
          79, 77, 78, -1,
          81, 79, 80, -1,
          82, 80, 83, -1,
          82, 81, 80, -1,
          84, 85, 86, -1,
          84, 83, 85, -1,
          84, 82, 83, -1,
          87, 84, 86, -1,
          88, 87, 86, -1,
          88, 89, 90, -1,
          88, 86, 89, -1,
          91, 88, 90, -1,
          92, 91, 90, -1,
          92, 93, 94, -1,
          92, 90, 93, -1,
          95, 92, 94, -1,
          96, 97, 98, -1,
          96, 94, 97, -1,
          96, 95, 94, -1,
          99, 98, 100, -1,
          99, 96, 98, -1,
          101, 99, 100, -1,
          102, 100, 103, -1,
          102, 101, 100, -1,
          104, 105, 106, -1,
          104, 103, 105, -1,
          104, 102, 103, -1,
          107, 106, 108, -1,
          107, 104, 106, -1,
          109, 108, 110, -1,
          109, 107, 108, -1,
          111, 109, 110, -1,
          112, 110, 113, -1,
          112, 111, 110, -1,
          114, 113, 115, -1,
          114, 112, 113, -1,
          116, 115, 117, -1,
          116, 114, 115, -1,
          118, 117, 119, -1,
          118, 116, 117, -1,
          120, 119, 121, -1,
          120, 118, 119, -1,
          122, 121, 123, -1,
          122, 120, 121, -1,
          124, 123, 125, -1,
          124, 122, 123, -1,
          126, 125, 127, -1,
          126, 124, 125, -1,
          128, 129, 130, -1,
          128, 130, 131, -1,
          132, 133, 134, -1,
          135, 133, 132, -1,
          136, 137, 138, -1,
          136, 138, 139, -1,
          136, 139, 140, -1,
          136, 140, 129, -1,
          136, 129, 128, -1,
          141, 128, 142, -1,
          141, 136, 128, -1,
          141, 142, 143, -1,
          144, 145, 146, -1,
          144, 146, 147, -1,
          144, 147, 148, -1,
          144, 148, 137, -1,
          144, 137, 136, -1,
          144, 136, 141, -1,
          149, 143, 150, -1,
          149, 141, 143, -1,
          151, 141, 149, -1,
          151, 144, 141, -1,
          152, 145, 144, -1,
          152, 153, 154, -1,
          152, 154, 155, -1,
          152, 155, 156, -1,
          152, 156, 157, -1,
          152, 157, 145, -1,
          152, 144, 151, -1,
          158, 149, 150, -1,
          158, 150, 159, -1,
          158, 159, 160, -1,
          161, 149, 158, -1,
          161, 151, 149, -1,
          162, 151, 161, -1,
          162, 152, 151, -1,
          163, 158, 160, -1,
          163, 160, 164, -1,
          165, 166, 167, -1,
          165, 167, 168, -1,
          165, 168, 169, -1,
          165, 169, 153, -1,
          165, 152, 162, -1,
          165, 153, 152, -1,
          170, 161, 158, -1,
          170, 158, 163, -1,
          171, 162, 161, -1,
          171, 161, 170, -1,
          172, 164, 173, -1,
          172, 173, 174, -1,
          172, 163, 164, -1,
          175, 176, 177, -1,
          175, 177, 166, -1,
          175, 162, 171, -1,
          175, 166, 165, -1,
          175, 165, 162, -1,
          178, 170, 163, -1,
          178, 163, 172, -1,
          179, 171, 170, -1,
          179, 170, 178, -1,
          180, 172, 174, -1,
          180, 174, 181, -1,
          182, 175, 171, -1,
          182, 171, 179, -1,
          183, 178, 172, -1,
          183, 172, 180, -1,
          184, 185, 186, -1,
          184, 186, 187, -1,
          184, 187, 188, -1,
          184, 188, 189, -1,
          184, 189, 176, -1,
          184, 176, 175, -1,
          184, 175, 182, -1,
          190, 178, 183, -1,
          190, 179, 178, -1,
          191, 192, 193, -1,
          191, 181, 192, -1,
          191, 180, 181, -1,
          194, 182, 179, -1,
          194, 179, 190, -1,
          195, 180, 191, -1,
          195, 183, 180, -1,
          196, 182, 194, -1,
          196, 197, 198, -1,
          196, 185, 184, -1,
          196, 198, 199, -1,
          196, 199, 200, -1,
          196, 200, 185, -1,
          196, 184, 182, -1,
          201, 190, 183, -1,
          201, 183, 195, -1,
          202, 191, 193, -1,
          202, 193, 203, -1,
          204, 194, 190, -1,
          204, 190, 201, -1,
          205, 195, 191, -1,
          205, 191, 202, -1,
          206, 207, 208, -1,
          206, 194, 204, -1,
          206, 208, 197, -1,
          206, 196, 194, -1,
          206, 197, 196, -1,
          206, 209, 210, -1,
          206, 210, 207, -1,
          211, 195, 205, -1,
          211, 201, 195, -1,
          212, 202, 203, -1,
          212, 213, 133, -1,
          212, 203, 213, -1,
          214, 204, 201, -1,
          214, 201, 211, -1,
          215, 202, 212, -1,
          215, 205, 202, -1,
          216, 206, 204, -1,
          216, 209, 206, -1,
          216, 204, 214, -1,
          216, 217, 218, -1,
          216, 218, 219, -1,
          216, 219, 220, -1,
          216, 220, 209, -1,
          221, 211, 205, -1,
          221, 205, 215, -1,
          222, 212, 133, -1,
          222, 135, 223, -1,
          222, 223, 224, -1,
          222, 224, 225, -1,
          222, 225, 226, -1,
          222, 133, 135, -1,
          227, 211, 221, -1,
          227, 228, 229, -1,
          227, 229, 230, -1,
          227, 214, 211, -1,
          231, 212, 222, -1,
          231, 226, 232, -1,
          231, 232, 233, -1,
          231, 233, 234, -1,
          231, 234, 235, -1,
          231, 222, 226, -1,
          231, 215, 212, -1,
          236, 227, 230, -1,
          236, 217, 216, -1,
          236, 216, 214, -1,
          236, 230, 237, -1,
          236, 237, 238, -1,
          236, 214, 227, -1,
          236, 238, 239, -1,
          236, 239, 240, -1,
          236, 240, 217, -1,
          241, 221, 215, -1,
          241, 235, 242, -1,
          241, 242, 243, -1,
          241, 243, 244, -1,
          241, 244, 245, -1,
          241, 245, 246, -1,
          241, 231, 235, -1,
          241, 215, 231, -1,
          247, 221, 241, -1,
          247, 228, 227, -1,
          247, 227, 221, -1,
          247, 246, 248, -1,
          247, 248, 249, -1,
          247, 249, 250, -1,
          247, 250, 228, -1,
          247, 241, 246, -1,
          251, 207, 210, -1,
          252, 210, 209, -1,
          252, 251, 210, -1,
          253, 209, 220, -1,
          253, 252, 209, -1,
          254, 220, 219, -1,
          254, 253, 220, -1,
          255, 219, 218, -1,
          255, 254, 219, -1,
          256, 218, 217, -1,
          256, 255, 218, -1,
          257, 217, 240, -1,
          257, 256, 217, -1,
          258, 240, 239, -1,
          258, 257, 240, -1,
          259, 239, 238, -1,
          259, 258, 239, -1,
          260, 238, 237, -1,
          260, 259, 238, -1,
          261, 237, 230, -1,
          261, 260, 237, -1,
          262, 230, 229, -1,
          262, 261, 230, -1,
          263, 229, 228, -1,
          263, 262, 229, -1,
          264, 228, 250, -1,
          264, 263, 228, -1,
          265, 250, 249, -1,
          265, 264, 250, -1,
          266, 249, 248, -1,
          266, 265, 249, -1,
          267, 248, 246, -1,
          267, 266, 248, -1,
          268, 267, 246, -1,
          268, 246, 245, -1,
          269, 268, 245, -1,
          269, 245, 244, -1,
          270, 269, 244, -1,
          270, 244, 243, -1,
          271, 243, 242, -1,
          271, 270, 243, -1,
          272, 242, 235, -1,
          272, 271, 242, -1,
          273, 235, 234, -1,
          273, 272, 235, -1,
          274, 234, 233, -1,
          274, 273, 234, -1,
          275, 233, 232, -1,
          275, 274, 233, -1,
          276, 232, 226, -1,
          276, 275, 232, -1,
          277, 226, 225, -1,
          277, 276, 226, -1,
          278, 225, 224, -1,
          278, 277, 225, -1,
          279, 224, 223, -1,
          279, 278, 224, -1,
          280, 279, 223, -1,
          280, 223, 135, -1,
          281, 280, 135, -1,
          281, 135, 132, -1,
          282, 281, 132, -1,
          282, 132, 134, -1,
          283, 134, 284, -1,
          283, 282, 134, -1,
          285, 284, 286, -1,
          285, 283, 284, -1,
          287, 286, 288, -1,
          287, 285, 286, -1,
          289, 288, 290, -1,
          289, 287, 288, -1,
          291, 290, 292, -1,
          291, 289, 290, -1,
          293, 292, 294, -1,
          293, 291, 292, -1,
          295, 294, 296, -1,
          295, 293, 294, -1,
          297, 296, 298, -1,
          297, 295, 296, -1,
          299, 298, 300, -1,
          299, 297, 298, -1,
          301, 300, 302, -1,
          301, 299, 300, -1,
          303, 301, 302, -1,
          303, 302, 304, -1,
          305, 303, 304, -1,
          305, 304, 306, -1,
          307, 305, 306, -1,
          307, 306, 308, -1,
          309, 307, 308, -1,
          309, 308, 310, -1,
          311, 310, 312, -1,
          311, 309, 310, -1,
          313, 312, 314, -1,
          313, 311, 312, -1,
          315, 314, 316, -1,
          315, 313, 314, -1,
          317, 316, 318, -1,
          317, 315, 316, -1,
          319, 318, 320, -1,
          319, 317, 318, -1,
          321, 320, 322, -1,
          321, 319, 320, -1,
          323, 322, 324, -1,
          323, 321, 322, -1,
          325, 324, 326, -1,
          325, 323, 324, -1,
          327, 326, 328, -1,
          327, 325, 326, -1,
          329, 328, 330, -1,
          329, 327, 328, -1,
          331, 330, 332, -1,
          331, 329, 330, -1,
          333, 332, 334, -1,
          333, 331, 332, -1,
          335, 334, 336, -1,
          335, 333, 334, -1,
          337, 336, 338, -1,
          337, 335, 336, -1,
          339, 338, 340, -1,
          339, 337, 338, -1,
          341, 340, 342, -1,
          341, 339, 340, -1,
          343, 342, 344, -1,
          343, 341, 342, -1,
          345, 344, 346, -1,
          345, 343, 344, -1,
          343, 0, 3, -1,
          343, 345, 0, -1,
          341, 3, 5, -1,
          341, 343, 3, -1,
          339, 5, 7, -1,
          339, 341, 5, -1,
          337, 7, 9, -1,
          337, 339, 7, -1,
          335, 9, 11, -1,
          335, 337, 9, -1,
          333, 11, 13, -1,
          333, 335, 11, -1,
          331, 13, 15, -1,
          331, 333, 13, -1,
          329, 15, 17, -1,
          329, 331, 15, -1,
          327, 17, 19, -1,
          327, 329, 17, -1,
          325, 19, 21, -1,
          325, 21, 23, -1,
          325, 327, 19, -1,
          323, 325, 23, -1,
          321, 23, 25, -1,
          321, 323, 23, -1,
          319, 25, 27, -1,
          319, 321, 25, -1,
          317, 27, 29, -1,
          317, 319, 27, -1,
          315, 29, 31, -1,
          315, 31, 33, -1,
          315, 317, 29, -1,
          313, 315, 33, -1,
          311, 313, 33, -1,
          311, 33, 35, -1,
          311, 35, 37, -1,
          309, 311, 37, -1,
          307, 309, 37, -1,
          307, 37, 39, -1,
          307, 39, 41, -1,
          305, 307, 41, -1,
          305, 41, 43, -1,
          303, 305, 43, -1,
          301, 303, 43, -1,
          301, 43, 45, -1,
          299, 301, 45, -1,
          299, 45, 47, -1,
          297, 47, 49, -1,
          297, 299, 47, -1,
          295, 49, 51, -1,
          295, 297, 49, -1,
          293, 51, 53, -1,
          293, 295, 51, -1,
          291, 53, 55, -1,
          291, 293, 53, -1,
          289, 55, 57, -1,
          289, 291, 55, -1,
          287, 57, 59, -1,
          287, 289, 57, -1,
          285, 59, 61, -1,
          285, 287, 59, -1,
          283, 61, 63, -1,
          283, 285, 61, -1,
          282, 63, 65, -1,
          282, 283, 63, -1,
          281, 65, 67, -1,
          281, 67, 69, -1,
          281, 282, 65, -1,
          280, 281, 69, -1,
          279, 69, 71, -1,
          279, 280, 69, -1,
          278, 71, 72, -1,
          278, 72, 74, -1,
          278, 279, 71, -1,
          277, 278, 74, -1,
          276, 74, 77, -1,
          276, 77, 79, -1,
          276, 277, 74, -1,
          275, 276, 79, -1,
          274, 79, 81, -1,
          274, 81, 82, -1,
          274, 275, 79, -1,
          273, 82, 84, -1,
          273, 274, 82, -1,
          272, 273, 84, -1,
          271, 272, 84, -1,
          271, 84, 87, -1,
          270, 271, 87, -1,
          270, 87, 88, -1,
          269, 270, 88, -1,
          269, 88, 91, -1,
          268, 269, 91, -1,
          268, 91, 92, -1,
          267, 268, 92, -1,
          267, 92, 95, -1,
          266, 267, 95, -1,
          266, 95, 96, -1,
          265, 266, 96, -1,
          265, 96, 99, -1,
          264, 265, 99, -1,
          264, 99, 101, -1,
          263, 264, 101, -1,
          263, 101, 102, -1,
          263, 102, 104, -1,
          262, 263, 104, -1,
          261, 262, 104, -1,
          261, 104, 107, -1,
          260, 261, 107, -1,
          260, 107, 109, -1,
          259, 260, 109, -1,
          259, 109, 111, -1,
          258, 111, 112, -1,
          258, 259, 111, -1,
          257, 112, 114, -1,
          257, 258, 112, -1,
          256, 114, 116, -1,
          256, 257, 114, -1,
          255, 116, 118, -1,
          255, 256, 116, -1,
          254, 118, 120, -1,
          254, 255, 118, -1,
          253, 120, 122, -1,
          253, 254, 120, -1,
          252, 122, 124, -1,
          252, 253, 122, -1,
          251, 124, 126, -1,
          251, 252, 124, -1,
          347, 348, 349, -1,
          350, 351, 352, -1,
          353, 354, 355, -1,
          121, 119, 123, -1,
          356, 357, 358, -1,
          117, 113, 119, -1,
          115, 113, 117, -1,
          356, 359, 357, -1,
          360, 359, 356, -1,
          354, 359, 360, -1,
          354, 361, 359, -1,
          106, 105, 108, -1,
          362, 363, 364, -1,
          365, 363, 362, -1,
          361, 363, 365, -1,
          103, 100, 105, -1,
          105, 100, 108, -1,
          100, 98, 108, -1,
          363, 366, 367, -1,
          363, 368, 366, -1,
          366, 368, 369, -1,
          123, 93, 125, -1,
          110, 93, 113, -1,
          108, 93, 110, -1,
          97, 93, 98, -1,
          94, 93, 97, -1,
          113, 93, 119, -1,
          119, 93, 123, -1,
          98, 93, 108, -1,
          361, 370, 363, -1,
          363, 370, 368, -1,
          90, 89, 93, -1,
          89, 86, 93, -1,
          86, 85, 93, -1,
          371, 372, 373, -1,
          374, 372, 371, -1,
          85, 83, 93, -1,
          374, 375, 372, -1,
          370, 375, 374, -1,
          83, 80, 93, -1,
          375, 376, 377, -1,
          78, 76, 80, -1,
          370, 378, 375, -1,
          375, 378, 376, -1,
          378, 379, 380, -1,
          370, 379, 378, -1,
          370, 381, 379, -1,
          70, 68, 73, -1,
          68, 66, 73, -1,
          381, 382, 383, -1,
          370, 382, 381, -1,
          370, 1, 382, -1,
          1, 4, 2, -1,
          1, 6, 4, -1,
          58, 56, 60, -1,
          384, 8, 385, -1,
          370, 8, 1, -1,
          354, 8, 361, -1,
          386, 8, 384, -1,
          387, 8, 386, -1,
          388, 8, 387, -1,
          389, 8, 388, -1,
          390, 8, 389, -1,
          391, 8, 390, -1,
          392, 8, 391, -1,
          393, 8, 392, -1,
          1, 8, 6, -1,
          361, 8, 370, -1,
          350, 8, 351, -1,
          353, 8, 354, -1,
          351, 8, 353, -1,
          394, 8, 350, -1,
          395, 8, 394, -1,
          385, 8, 395, -1,
          60, 54, 62, -1,
          56, 54, 60, -1,
          54, 52, 62, -1,
          8, 12, 10, -1,
          8, 14, 12, -1,
          52, 46, 62, -1,
          64, 46, 66, -1,
          62, 46, 64, -1,
          50, 46, 52, -1,
          48, 46, 50, -1,
          46, 44, 66, -1,
          16, 20, 18, -1,
          14, 20, 16, -1,
          22, 26, 24, -1,
          20, 26, 22, -1,
          14, 26, 20, -1,
          42, 36, 44, -1,
          40, 36, 42, -1,
          38, 36, 40, -1,
          36, 34, 44, -1,
          26, 30, 28, -1,
          14, 32, 26, -1,
          125, 32, 127, -1,
          396, 32, 393, -1,
          397, 32, 396, -1,
          66, 32, 73, -1,
          398, 32, 397, -1,
          399, 32, 398, -1,
          400, 32, 399, -1,
          401, 32, 400, -1,
          402, 32, 401, -1,
          349, 32, 402, -1,
          403, 32, 348, -1,
          404, 32, 403, -1,
          405, 32, 404, -1,
          406, 32, 405, -1,
          407, 32, 406, -1,
          408, 32, 407, -1,
          127, 32, 408, -1,
          75, 32, 76, -1,
          73, 32, 75, -1,
          93, 32, 125, -1,
          393, 32, 8, -1,
          34, 32, 44, -1,
          8, 32, 14, -1,
          44, 32, 66, -1,
          348, 32, 349, -1,
          80, 32, 93, -1,
          26, 32, 30, -1,
          76, 32, 80, -1,
          409, 251, 126, -1,
          409, 126, 410, -1,
          411, 410, 412, -1,
          411, 409, 410, -1,
          413, 412, 414, -1,
          413, 411, 412, -1,
          415, 414, 416, -1,
          415, 413, 414, -1,
          417, 416, 418, -1,
          417, 415, 416, -1,
          419, 418, 420, -1,
          419, 417, 418, -1,
          421, 420, 422, -1,
          421, 422, 423, -1,
          421, 419, 420, -1,
          424, 421, 423, -1,
          425, 423, 426, -1,
          425, 424, 423, -1,
          427, 426, 428, -1,
          427, 425, 426, -1,
          429, 428, 430, -1,
          429, 430, 431, -1,
          429, 427, 428, -1,
          432, 429, 431, -1,
          433, 431, 434, -1,
          433, 432, 431, -1,
          435, 434, 436, -1,
          435, 433, 434, -1,
          437, 436, 438, -1,
          437, 438, 439, -1,
          437, 435, 436, -1,
          440, 437, 439, -1,
          441, 440, 439, -1,
          441, 439, 442, -1,
          443, 442, 444, -1,
          443, 441, 442, -1,
          445, 443, 444, -1,
          445, 444, 446, -1,
          445, 446, 447, -1,
          448, 445, 447, -1,
          449, 448, 447, -1,
          449, 447, 450, -1,
          451, 449, 450, -1,
          451, 450, 452, -1,
          453, 451, 452, -1,
          453, 452, 454, -1,
          453, 454, 455, -1,
          456, 453, 455, -1,
          457, 455, 458, -1,
          457, 456, 455, -1,
          459, 458, 460, -1,
          459, 457, 458, -1,
          461, 460, 462, -1,
          461, 459, 460, -1,
          463, 462, 464, -1,
          463, 461, 462, -1,
          465, 464, 466, -1,
          465, 466, 467, -1,
          465, 463, 464, -1,
          468, 465, 467, -1,
          469, 467, 470, -1,
          469, 468, 467, -1,
          471, 470, 472, -1,
          471, 469, 470, -1,
          473, 472, 474, -1,
          473, 471, 472, -1,
          475, 474, 476, -1,
          475, 473, 474, -1,
          477, 476, 478, -1,
          477, 478, 479, -1,
          477, 475, 476, -1,
          480, 477, 479, -1,
          481, 479, 482, -1,
          481, 482, 483, -1,
          481, 480, 479, -1,
          484, 481, 483, -1,
          485, 483, 486, -1,
          485, 486, 487, -1,
          485, 484, 483, -1,
          488, 485, 487, -1,
          489, 487, 490, -1,
          489, 490, 491, -1,
          489, 488, 487, -1,
          492, 489, 491, -1,
          493, 492, 491, -1,
          493, 491, 494, -1,
          495, 493, 494, -1,
          495, 494, 496, -1,
          497, 495, 496, -1,
          497, 496, 498, -1,
          499, 497, 498, -1,
          499, 498, 500, -1,
          501, 499, 500, -1,
          501, 500, 502, -1,
          503, 501, 502, -1,
          503, 502, 504, -1,
          505, 503, 504, -1,
          505, 504, 506, -1,
          507, 505, 506, -1,
          507, 506, 508, -1,
          509, 507, 508, -1,
          509, 508, 510, -1,
          511, 509, 510, -1,
          511, 510, 512, -1,
          513, 511, 512, -1,
          513, 512, 514, -1,
          515, 513, 514, -1,
          515, 514, 516, -1,
          517, 515, 516, -1,
          517, 516, 518, -1,
          519, 517, 518, -1,
          519, 518, 520, -1,
          521, 520, 522, -1,
          521, 519, 520, -1,
          523, 522, 524, -1,
          523, 524, 525, -1,
          523, 521, 522, -1,
          526, 525, 527, -1,
          526, 523, 525, -1,
          528, 526, 527, -1,
          529, 527, 530, -1,
          529, 528, 527, -1,
          531, 530, 532, -1,
          531, 529, 530, -1,
          345, 532, 0, -1,
          345, 531, 532, -1,
          345, 346, 533, -1,
          531, 533, 534, -1,
          531, 345, 533, -1,
          529, 534, 535, -1,
          529, 531, 534, -1,
          528, 535, 536, -1,
          528, 529, 535, -1,
          526, 536, 537, -1,
          526, 528, 536, -1,
          523, 537, 538, -1,
          523, 526, 537, -1,
          521, 538, 539, -1,
          521, 523, 538, -1,
          519, 539, 540, -1,
          519, 521, 539, -1,
          517, 540, 541, -1,
          517, 519, 540, -1,
          515, 541, 542, -1,
          515, 517, 541, -1,
          513, 542, 543, -1,
          513, 515, 542, -1,
          511, 543, 544, -1,
          511, 513, 543, -1,
          509, 544, 545, -1,
          509, 511, 544, -1,
          507, 545, 546, -1,
          507, 509, 545, -1,
          505, 546, 547, -1,
          505, 507, 546, -1,
          503, 547, 548, -1,
          503, 505, 547, -1,
          501, 548, 549, -1,
          501, 503, 548, -1,
          499, 501, 549, -1,
          499, 549, 550, -1,
          497, 499, 550, -1,
          497, 550, 551, -1,
          495, 497, 551, -1,
          495, 551, 552, -1,
          493, 495, 552, -1,
          493, 552, 553, -1,
          492, 553, 554, -1,
          492, 493, 553, -1,
          489, 554, 555, -1,
          489, 492, 554, -1,
          488, 555, 556, -1,
          488, 489, 555, -1,
          485, 556, 557, -1,
          485, 488, 556, -1,
          484, 557, 558, -1,
          484, 485, 557, -1,
          481, 558, 559, -1,
          481, 484, 558, -1,
          480, 559, 560, -1,
          480, 481, 559, -1,
          477, 560, 561, -1,
          477, 480, 560, -1,
          475, 561, 562, -1,
          475, 477, 561, -1,
          473, 562, 563, -1,
          473, 475, 562, -1,
          471, 563, 131, -1,
          471, 473, 563, -1,
          469, 471, 131, -1,
          469, 131, 130, -1,
          468, 130, 129, -1,
          468, 469, 130, -1,
          465, 129, 140, -1,
          465, 468, 129, -1,
          463, 140, 139, -1,
          463, 465, 140, -1,
          461, 139, 138, -1,
          461, 463, 139, -1,
          459, 138, 137, -1,
          459, 461, 138, -1,
          457, 137, 148, -1,
          457, 459, 137, -1,
          456, 148, 147, -1,
          456, 457, 148, -1,
          453, 147, 146, -1,
          453, 456, 147, -1,
          451, 146, 145, -1,
          451, 453, 146, -1,
          449, 451, 145, -1,
          449, 145, 157, -1,
          448, 449, 157, -1,
          448, 157, 156, -1,
          445, 448, 156, -1,
          445, 156, 155, -1,
          443, 445, 155, -1,
          443, 155, 154, -1,
          441, 443, 154, -1,
          441, 154, 153, -1,
          440, 441, 153, -1,
          440, 153, 169, -1,
          437, 440, 169, -1,
          437, 169, 168, -1,
          435, 437, 168, -1,
          435, 168, 167, -1,
          433, 435, 167, -1,
          433, 167, 166, -1,
          432, 433, 166, -1,
          432, 166, 177, -1,
          429, 432, 177, -1,
          429, 177, 176, -1,
          427, 176, 189, -1,
          427, 429, 176, -1,
          425, 427, 189, -1,
          425, 189, 188, -1,
          424, 188, 187, -1,
          424, 425, 188, -1,
          421, 187, 186, -1,
          421, 424, 187, -1,
          419, 186, 185, -1,
          419, 421, 186, -1,
          417, 185, 200, -1,
          417, 419, 185, -1,
          415, 200, 199, -1,
          415, 417, 200, -1,
          413, 199, 198, -1,
          413, 415, 199, -1,
          411, 198, 197, -1,
          411, 413, 198, -1,
          409, 197, 208, -1,
          409, 411, 197, -1,
          251, 208, 207, -1,
          251, 409, 208, -1,
          128, 131, 563, -1,
          128, 563, 562, -1,
          284, 133, 286, -1,
          134, 133, 284, -1,
          564, 549, 548, -1,
          564, 548, 547, -1,
          564, 547, 546, -1,
          564, 546, 545, -1,
          565, 554, 553, -1,
          565, 553, 552, -1,
          565, 552, 551, -1,
          565, 551, 550, -1,
          565, 550, 549, -1,
          565, 549, 564, -1,
          566, 543, 542, -1,
          566, 542, 541, -1,
          566, 541, 540, -1,
          566, 540, 539, -1,
          566, 539, 538, -1,
          567, 558, 557, -1,
          567, 557, 556, -1,
          567, 556, 555, -1,
          567, 555, 554, -1,
          567, 554, 565, -1,
          568, 564, 545, -1,
          568, 545, 544, -1,
          568, 544, 543, -1,
          568, 543, 566, -1,
          569, 558, 567, -1,
          569, 562, 561, -1,
          569, 561, 560, -1,
          569, 560, 559, -1,
          569, 559, 558, -1,
          569, 128, 562, -1,
          570, 565, 564, -1,
          570, 564, 568, -1,
          571, 538, 537, -1,
          571, 537, 536, -1,
          571, 536, 535, -1,
          571, 535, 534, -1,
          571, 566, 538, -1,
          572, 567, 565, -1,
          572, 565, 570, -1,
          573, 568, 566, -1,
          573, 566, 571, -1,
          574, 142, 128, -1,
          574, 143, 142, -1,
          574, 567, 572, -1,
          574, 569, 567, -1,
          574, 128, 569, -1,
          575, 570, 568, -1,
          575, 568, 573, -1,
          576, 534, 533, -1,
          576, 533, 346, -1,
          576, 346, 344, -1,
          576, 344, 342, -1,
          576, 571, 534, -1,
          577, 572, 570, -1,
          577, 570, 575, -1,
          578, 571, 576, -1,
          578, 573, 571, -1,
          579, 150, 143, -1,
          579, 572, 577, -1,
          579, 574, 572, -1,
          579, 143, 574, -1,
          580, 575, 573, -1,
          580, 573, 578, -1,
          581, 576, 342, -1,
          581, 342, 340, -1,
          581, 340, 338, -1,
          581, 338, 336, -1,
          581, 336, 334, -1,
          582, 575, 580, -1,
          582, 577, 575, -1,
          583, 576, 581, -1,
          583, 578, 576, -1,
          584, 579, 577, -1,
          584, 159, 150, -1,
          584, 160, 159, -1,
          584, 577, 582, -1,
          584, 150, 579, -1,
          585, 578, 583, -1,
          585, 580, 578, -1,
          586, 581, 334, -1,
          586, 334, 332, -1,
          586, 332, 330, -1,
          586, 330, 328, -1,
          586, 328, 326, -1,
          587, 582, 580, -1,
          587, 580, 585, -1,
          588, 581, 586, -1,
          588, 583, 581, -1,
          589, 164, 160, -1,
          589, 160, 584, -1,
          589, 582, 587, -1,
          589, 584, 582, -1,
          590, 583, 588, -1,
          590, 585, 583, -1,
          591, 586, 326, -1,
          591, 326, 324, -1,
          591, 324, 322, -1,
          592, 585, 590, -1,
          592, 587, 585, -1,
          593, 591, 322, -1,
          593, 322, 320, -1,
          593, 586, 591, -1,
          593, 588, 586, -1,
          594, 173, 164, -1,
          594, 587, 592, -1,
          594, 174, 173, -1,
          594, 589, 587, -1,
          594, 164, 589, -1,
          595, 588, 593, -1,
          595, 590, 588, -1,
          596, 590, 595, -1,
          596, 592, 590, -1,
          597, 593, 320, -1,
          597, 320, 318, -1,
          597, 318, 316, -1,
          597, 316, 314, -1,
          597, 314, 312, -1,
          598, 592, 596, -1,
          598, 594, 592, -1,
          598, 174, 594, -1,
          598, 181, 174, -1,
          599, 593, 597, -1,
          599, 595, 593, -1,
          600, 596, 595, -1,
          600, 595, 599, -1,
          601, 598, 596, -1,
          601, 181, 598, -1,
          601, 193, 192, -1,
          601, 192, 181, -1,
          601, 596, 600, -1,
          602, 599, 597, -1,
          602, 597, 312, -1,
          602, 312, 310, -1,
          602, 310, 308, -1,
          602, 308, 306, -1,
          602, 306, 304, -1,
          602, 304, 302, -1,
          603, 599, 602, -1,
          603, 600, 599, -1,
          604, 601, 600, -1,
          604, 193, 601, -1,
          604, 203, 193, -1,
          604, 600, 603, -1,
          605, 302, 300, -1,
          605, 603, 602, -1,
          605, 300, 298, -1,
          605, 298, 296, -1,
          605, 296, 294, -1,
          605, 602, 302, -1,
          606, 603, 605, -1,
          606, 133, 213, -1,
          606, 213, 203, -1,
          606, 604, 603, -1,
          606, 203, 604, -1,
          607, 133, 606, -1,
          607, 286, 133, -1,
          607, 294, 292, -1,
          607, 292, 290, -1,
          607, 290, 288, -1,
          607, 288, 286, -1,
          607, 606, 605, -1,
          607, 605, 294, -1,
          126, 127, 408, -1,
          410, 126, 408, -1,
          410, 408, 407, -1,
          412, 410, 407, -1,
          412, 407, 406, -1,
          414, 412, 406, -1,
          414, 406, 405, -1,
          416, 414, 405, -1,
          416, 405, 404, -1,
          418, 416, 404, -1,
          418, 404, 403, -1,
          420, 418, 403, -1,
          420, 403, 348, -1,
          422, 348, 347, -1,
          422, 420, 348, -1,
          423, 347, 349, -1,
          423, 422, 347, -1,
          426, 349, 402, -1,
          426, 423, 349, -1,
          428, 402, 401, -1,
          428, 426, 402, -1,
          430, 401, 400, -1,
          430, 428, 401, -1,
          431, 400, 399, -1,
          431, 430, 400, -1,
          434, 399, 398, -1,
          434, 431, 399, -1,
          436, 398, 397, -1,
          436, 434, 398, -1,
          438, 397, 396, -1,
          438, 436, 397, -1,
          439, 396, 393, -1,
          439, 438, 396, -1,
          442, 393, 392, -1,
          442, 439, 393, -1,
          444, 442, 392, -1,
          444, 392, 391, -1,
          446, 444, 391, -1,
          446, 391, 390, -1,
          447, 446, 390, -1,
          447, 390, 389, -1,
          450, 447, 389, -1,
          450, 389, 388, -1,
          452, 450, 388, -1,
          452, 388, 387, -1,
          454, 452, 387, -1,
          455, 454, 387, -1,
          455, 386, 384, -1,
          455, 387, 386, -1,
          458, 455, 384, -1,
          458, 384, 385, -1,
          460, 458, 385, -1,
          460, 385, 395, -1,
          462, 395, 394, -1,
          462, 460, 395, -1,
          464, 394, 350, -1,
          464, 462, 394, -1,
          466, 350, 352, -1,
          466, 464, 350, -1,
          467, 352, 351, -1,
          467, 466, 352, -1,
          470, 351, 353, -1,
          470, 467, 351, -1,
          472, 353, 355, -1,
          472, 470, 353, -1,
          474, 355, 354, -1,
          474, 472, 355, -1,
          476, 354, 360, -1,
          476, 474, 354, -1,
          478, 476, 360, -1,
          479, 360, 356, -1,
          479, 478, 360, -1,
          482, 358, 357, -1,
          482, 356, 358, -1,
          482, 479, 356, -1,
          483, 357, 359, -1,
          483, 482, 357, -1,
          486, 359, 361, -1,
          486, 483, 359, -1,
          487, 361, 365, -1,
          487, 486, 361, -1,
          490, 487, 365, -1,
          491, 362, 364, -1,
          491, 365, 362, -1,
          491, 490, 365, -1,
          494, 491, 364, -1,
          494, 364, 363, -1,
          496, 494, 363, -1,
          496, 363, 367, -1,
          498, 496, 367, -1,
          500, 498, 367, -1,
          500, 366, 369, -1,
          500, 367, 366, -1,
          502, 500, 369, -1,
          502, 369, 368, -1,
          504, 368, 370, -1,
          504, 502, 368, -1,
          506, 370, 374, -1,
          506, 504, 370, -1,
          508, 506, 374, -1,
          510, 371, 373, -1,
          510, 374, 371, -1,
          510, 508, 374, -1,
          512, 373, 372, -1,
          512, 510, 373, -1,
          514, 372, 375, -1,
          514, 512, 372, -1,
          516, 375, 377, -1,
          516, 514, 375, -1,
          518, 377, 376, -1,
          518, 516, 377, -1,
          520, 518, 376, -1,
          522, 378, 380, -1,
          522, 376, 378, -1,
          522, 520, 376, -1,
          524, 522, 380, -1,
          525, 380, 379, -1,
          525, 524, 380, -1,
          527, 379, 381, -1,
          527, 525, 379, -1,
          530, 383, 382, -1,
          530, 381, 383, -1,
          530, 527, 381, -1,
          532, 382, 1, -1,
          532, 530, 382, -1,
          0, 532, 1, -1
        ]
      }
    }
}
