#VRML V2.0 utf8
WorldInfo {
  title "Exported triangle mesh to VRML97"
  info ["Created by FreeCAD"
        "<https://www.freecad.org>"]
}

Transform {
  scale 1 1 1
  rotation 0 0 1 0
  scaleOrientation 0 0 1 0
  center 0.000 0.000 0.000
  translation 0.000 0.000 0.000
  children
    Shape { 
      appearance
      Appearance {
        material
        Material {
          diffuseColor 0.8 0.8 0.8
        }
      }
      geometry
      IndexedFaceSet {
        coord
        Coordinate {
          point [
            2.352 1.454 1.791,
            2.404 1.382 1.841,
            2.354 1.382 1.791,
            2.402 1.457 1.841,
            2.347 1.526 1.791,
            2.397 1.531 1.841,
            2.338 1.598 1.791,
            2.387 1.606 1.841,
            2.325 1.669 1.791,
            2.374 1.679 1.841,
            2.309 1.740 1.791,
            2.358 1.752 1.841,
            2.290 1.809 1.791,
            2.338 1.824 1.841,
            2.267 1.878 1.791,
            2.314 1.895 1.841,
            2.240 1.945 1.791,
            2.286 1.965 1.841,
            2.211 2.011 1.791,
            2.256 2.033 1.841,
            2.178 2.076 1.791,
            2.222 2.099 1.841,
            2.142 2.138 1.791,
            2.184 2.164 1.841,
            2.102 2.199 1.791,
            2.144 2.227 1.841,
            2.060 2.258 1.791,
            2.100 2.288 1.841,
            2.015 2.314 1.791,
            2.053 2.346 1.841,
            1.967 2.368 1.791,
            2.004 2.402 1.841,
            1.917 2.420 1.791,
            1.952 2.456 1.841,
            1.864 2.469 1.791,
            1.897 2.507 1.841,
            1.808 2.516 1.791,
            1.839 2.555 1.841,
            1.751 2.559 1.791,
            1.780 2.600 1.841,
            1.691 2.600 1.791,
            1.718 2.642 1.841,
            1.629 2.638 1.791,
            1.654 2.681 1.841,
            1.566 2.672 1.791,
            1.589 2.717 1.841,
            1.501 2.704 1.791,
            1.521 2.749 1.841,
            1.434 2.732 1.791,
            1.452 2.778 1.841,
            1.366 2.757 1.791,
            1.382 2.804 1.841,
            1.297 2.778 1.791,
            1.310 2.826 1.841,
            1.227 2.796 1.791,
            1.238 2.844 1.841,
            1.156 2.810 1.791,
            1.165 2.859 1.841,
            1.085 2.821 1.791,
            1.091 2.870 1.841,
            1.013 2.828 1.791,
            1.016 2.878 1.841,
            0.940 2.832 1.791,
            0.942 2.882 1.841,
            0.868 2.832 1.791,
            0.867 2.882 1.841,
            0.792 2.878 1.841,
            0.796 2.828 1.791,
            0.724 2.821 1.791,
            0.718 2.870 1.841,
            0.644 2.859 1.841,
            0.652 2.810 1.791,
            0.582 2.796 1.791,
            0.570 2.844 1.841,
            0.498 2.826 1.841,
            0.512 2.778 1.791,
            0.442 2.757 1.791,
            0.427 2.804 1.841,
            0.374 2.732 1.791,
            0.356 2.778 1.841,
            0.287 2.749 1.841,
            0.308 2.704 1.791,
            0.220 2.717 1.841,
            0.243 2.672 1.791,
            0.154 2.681 1.841,
            0.179 2.638 1.791,
            0.090 2.642 1.841,
            0.118 2.600 1.791,
            0.029 2.600 1.841,
            0.058 2.559 1.791,
            0.000 2.516 1.791,
            -0.031 2.555 1.841,
            -0.088 2.507 1.841,
            -0.055 2.469 1.791,
            -0.143 2.456 1.841,
            -0.108 2.420 1.791,
            -0.195 2.402 1.841,
            -0.159 2.368 1.791,
            -0.245 2.346 1.841,
            -0.207 2.314 1.791,
            -0.291 2.288 1.841,
            -0.252 2.258 1.791,
            -0.335 2.227 1.841,
            -0.294 2.199 1.791,
            -0.376 2.164 1.841,
            -0.333 2.138 1.791,
            -0.413 2.099 1.841,
            -0.369 2.076 1.791,
            -0.447 2.033 1.841,
            -0.402 2.011 1.791,
            -0.478 1.965 1.841,
            -0.432 1.945 1.791,
            -0.505 1.895 1.841,
            -0.458 1.878 1.791,
            -0.481 1.809 1.791,
            -0.529 1.824 1.841,
            -0.501 1.740 1.791,
            -0.549 1.752 1.841,
            -0.566 1.679 1.841,
            -0.517 1.669 1.791,
            -0.579 1.606 1.841,
            -0.530 1.598 1.791,
            -0.588 1.531 1.841,
            -0.539 1.526 1.791,
            -0.544 1.454 1.791,
            -0.594 1.457 1.841,
            -0.546 1.382 1.791,
            -0.596 1.382 1.841,
            0.904 0.042 2.943,
            0.833 -0.066 2.878,
            0.904 -0.068 2.878,
            0.833 2.830 2.878,
            0.904 2.722 2.943,
            0.904 2.832 2.878,
            0.713 0.017 2.921,
            0.621 -0.040 2.878,
            0.691 -0.052 2.878,
            0.762 -0.061 2.878,
            0.713 0.186 3.010,
            0.904 0.154 3.002,
            0.904 0.269 3.056,
            0.524 0.110 2.950,
            0.349 0.042 2.878,
            0.416 0.017 2.878,
            0.483 -0.005 2.878,
            0.552 -0.024 2.878,
            0.713 0.360 3.087,
            0.904 0.387 3.105,
            0.524 0.280 3.032,
            0.713 0.539 3.152,
            0.904 0.507 3.148,
            0.904 0.628 3.186,
            0.336 0.209 2.963,
            0.159 0.138 2.878,
            0.221 0.103 2.878,
            0.284 0.071 2.878,
            0.524 0.456 3.102,
            0.713 0.722 3.204,
            0.904 0.751 3.218,
            0.336 0.380 3.038,
            0.524 0.635 3.160,
            0.150 0.312 2.960,
            -0.016 0.261 2.878,
            0.040 0.217 2.878,
            0.099 0.176 2.878,
            0.713 0.908 3.243,
            0.904 0.876 3.244,
            0.904 1.002 3.265,
            0.336 0.555 3.102,
            0.524 0.819 3.206,
            0.150 0.482 3.028,
            0.713 1.097 3.270,
            0.904 1.128 3.279,
            0.336 0.735 3.153,
            -0.031 0.418 2.941,
            -0.170 0.408 2.878,
            -0.121 0.357 2.878,
            -0.070 0.308 2.878,
            0.524 1.005 3.239,
            0.150 0.657 3.085,
            0.713 1.287 3.283,
            0.904 1.255 3.288,
            0.904 1.382 3.291,
            0.336 0.917 3.191,
            -0.031 0.587 3.002,
            0.524 1.193 3.258,
            0.150 0.835 3.129,
            -0.208 0.527 2.906,
            -0.301 0.577 2.878,
            -0.260 0.518 2.878,
            -0.217 0.462 2.878,
            0.713 1.477 3.283,
            0.904 1.509 3.288,
            0.336 1.102 3.217,
            -0.031 0.760 3.051,
            0.524 1.382 3.265,
            0.150 1.016 3.160,
            -0.208 0.693 2.960,
            -0.375 0.699 2.878,
            -0.339 0.637 2.878,
            0.713 1.667 3.270,
            0.904 1.636 3.279,
            0.904 1.763 3.265,
            0.336 1.289 3.230,
            -0.031 0.936 3.088,
            0.524 1.571 3.258,
            0.150 1.199 3.179,
            -0.208 0.862 3.002,
            0.713 1.856 3.243,
            0.904 1.888 3.244,
            0.336 1.475 3.230,
            -0.031 1.113 3.113,
            -0.380 0.797 2.902,
            -0.435 0.827 2.878,
            -0.407 0.762 2.878,
            0.524 1.759 3.239,
            0.150 1.382 3.186,
            -0.208 1.034 3.032,
            0.713 2.042 3.204,
            0.904 2.013 3.218,
            0.904 2.136 3.186,
            0.336 1.662 3.217,
            -0.031 1.292 3.126,
            -0.380 0.962 2.936,
            -0.502 1.030 2.878,
            -0.483 0.961 2.878,
            -0.461 0.894 2.878,
            0.524 1.945 3.206,
            0.150 1.566 3.179,
            -0.208 1.208 3.050,
            0.713 2.225 3.152,
            0.904 2.257 3.148,
            0.336 1.847 3.191,
            -0.031 1.472 3.126,
            -0.380 1.129 2.960,
            -0.539 1.240 2.878,
            -0.530 1.169 2.878,
            -0.518 1.099 2.878,
            0.524 2.129 3.160,
            0.150 1.748 3.160,
            -0.208 1.382 3.056,
            0.713 2.404 3.087,
            0.904 2.377 3.105,
            0.904 2.495 3.056,
            0.336 2.029 3.153,
            -0.031 1.651 3.113,
            -0.380 1.298 2.971,
            -0.546 1.382 2.878,
            -0.544 1.311 2.878,
            0.524 2.309 3.102,
            0.150 1.929 3.129,
            -0.208 1.557 3.050,
            0.713 2.578 3.010,
            0.904 2.610 3.002,
            0.336 2.209 3.102,
            -0.031 1.829 3.088,
            -0.380 1.466 2.971,
            -0.539 1.524 2.878,
            -0.544 1.453 2.878,
            0.524 2.484 3.032,
            0.150 2.107 3.085,
            -0.208 1.730 3.032,
            0.713 2.747 2.921,
            0.762 2.825 2.878,
            0.691 2.816 2.878,
            0.621 2.804 2.878,
            0.336 2.385 3.038,
            -0.031 2.004 3.051,
            -0.380 1.635 2.960,
            -0.502 1.734 2.878,
            -0.518 1.665 2.878,
            -0.530 1.595 2.878,
            0.524 2.654 2.950,
            0.552 2.789 2.878,
            0.483 2.770 2.878,
            0.416 2.747 2.878,
            0.349 2.722 2.878,
            0.150 2.282 3.028,
            -0.208 1.902 3.002,
            0.336 2.555 2.963,
            0.284 2.693 2.878,
            0.221 2.661 2.878,
            0.159 2.626 2.878,
            -0.031 2.177 3.002,
            -0.380 1.802 2.936,
            -0.435 1.937 2.878,
            -0.461 1.871 2.878,
            -0.483 1.803 2.878,
            0.150 2.452 2.960,
            0.099 2.588 2.878,
            0.040 2.547 2.878,
            -0.016 2.503 2.878,
            -0.208 2.072 2.960,
            -0.301 2.188 2.878,
            -0.339 2.128 2.878,
            -0.375 2.066 2.878,
            -0.031 2.346 2.941,
            -0.070 2.456 2.878,
            -0.121 2.407 2.878,
            -0.170 2.356 2.878,
            -0.380 1.967 2.902,
            -0.407 2.002 2.878,
            -0.208 2.238 2.906,
            -0.217 2.302 2.878,
            -0.260 2.246 2.878,
            -0.596 1.382 2.828,
            -0.594 1.457 2.828,
            -0.588 1.531 2.828,
            -0.579 1.606 2.828,
            -0.566 1.679 2.828,
            -0.549 1.752 2.828,
            -0.529 1.824 2.828,
            -0.505 1.895 2.828,
            -0.478 1.965 2.828,
            -0.447 2.033 2.828,
            -0.413 2.099 2.828,
            -0.376 2.164 2.828,
            -0.335 2.227 2.828,
            -0.291 2.288 2.828,
            -0.245 2.346 2.828,
            -0.195 2.402 2.828,
            -0.143 2.456 2.828,
            -0.088 2.507 2.828,
            -0.031 2.555 2.828,
            0.029 2.600 2.828,
            0.090 2.642 2.828,
            0.154 2.681 2.828,
            0.220 2.717 2.828,
            0.287 2.749 2.828,
            0.356 2.778 2.828,
            0.427 2.804 2.828,
            0.498 2.826 2.828,
            0.570 2.844 2.828,
            0.644 2.859 2.828,
            0.718 2.870 2.828,
            0.792 2.878 2.828,
            0.867 2.882 2.828,
            0.942 2.882 2.828,
            0.975 2.830 2.878,
            1.016 2.878 2.828,
            1.046 2.825 2.878,
            1.091 2.870 2.828,
            1.117 2.816 2.878,
            1.165 2.859 2.828,
            1.187 2.804 2.878,
            1.238 2.844 2.828,
            1.257 2.789 2.878,
            1.310 2.826 2.828,
            1.325 2.770 2.878,
            1.382 2.804 2.828,
            1.393 2.747 2.878,
            1.452 2.778 2.828,
            1.459 2.722 2.878,
            1.521 2.749 2.828,
            1.524 2.693 2.878,
            1.589 2.717 2.828,
            1.588 2.661 2.878,
            1.654 2.681 2.828,
            1.650 2.626 2.878,
            1.718 2.642 2.828,
            1.710 2.588 2.878,
            1.780 2.600 2.828,
            1.768 2.547 2.878,
            1.839 2.555 2.828,
            1.824 2.503 2.878,
            1.897 2.507 2.828,
            1.878 2.456 2.878,
            1.952 2.456 2.828,
            1.930 2.407 2.878,
            2.004 2.402 2.828,
            1.979 2.356 2.878,
            2.053 2.346 2.828,
            2.025 2.302 2.878,
            2.100 2.288 2.828,
            2.069 2.246 2.878,
            2.144 2.227 2.828,
            2.110 2.188 2.878,
            2.184 2.164 2.828,
            2.148 2.128 2.878,
            2.222 2.099 2.828,
            2.183 2.066 2.878,
            2.256 2.033 2.828,
            2.215 2.002 2.878,
            2.286 1.965 2.828,
            2.244 1.937 2.878,
            2.314 1.895 2.828,
            2.269 1.871 2.878,
            2.338 1.824 2.828,
            2.292 1.803 2.878,
            2.358 1.752 2.828,
            2.311 1.734 2.878,
            2.374 1.679 2.828,
            2.326 1.665 2.878,
            2.387 1.606 2.828,
            2.339 1.595 2.878,
            2.397 1.531 2.828,
            2.347 1.524 2.878,
            2.402 1.457 2.828,
            2.352 1.453 2.878,
            2.404 1.382 2.828,
            2.354 1.382 2.878,
            -0.252 0.507 1.791,
            -0.294 0.565 1.791,
            -0.207 0.450 1.791,
            0.058 0.205 1.791,
            0.179 0.126 1.791,
            0.118 0.164 1.791,
            -0.333 0.626 1.791,
            -0.402 0.753 1.791,
            -0.369 0.689 1.791,
            -0.432 0.819 1.791,
            -0.458 0.886 1.791,
            -0.159 0.396 1.791,
            -0.501 1.024 1.791,
            -0.108 0.344 1.791,
            -0.481 0.955 1.791,
            0.442 0.008 1.791,
            0.582 -0.032 1.791,
            0.512 -0.014 1.791,
            0.374 0.032 1.791,
            0.308 0.060 1.791,
            0.243 0.092 1.791,
            0.000 0.248 1.791,
            0.724 -0.057 1.791,
            0.868 -0.067 1.791,
            0.796 -0.064 1.791,
            -0.517 1.095 1.791,
            -0.530 1.166 1.791,
            -0.539 1.238 1.791,
            -0.544 1.310 1.791,
            1.085 -0.057 1.791,
            1.227 -0.032 1.791,
            1.156 -0.046 1.791,
            1.013 -0.064 1.791,
            1.297 -0.014 1.791,
            1.434 0.032 1.791,
            1.366 0.008 1.791,
            1.501 0.060 1.791,
            1.566 0.092 1.791,
            1.691 0.164 1.791,
            1.629 0.126 1.791,
            1.808 0.248 1.791,
            1.751 0.205 1.791,
            0.940 -0.067 1.791,
            1.917 0.344 1.791,
            1.864 0.295 1.791,
            0.652 -0.046 1.791,
            2.015 0.450 1.791,
            1.967 0.396 1.791,
            2.102 0.565 1.791,
            2.060 0.507 1.791,
            2.142 0.626 1.791,
            2.240 0.819 1.791,
            2.178 0.689 1.791,
            2.211 0.753 1.791,
            2.267 0.886 1.791,
            2.290 0.955 1.791,
            2.325 1.095 1.791,
            2.309 1.024 1.791,
            2.347 1.238 1.791,
            2.352 1.310 1.791,
            2.338 1.166 1.791,
            -0.055 0.295 1.791,
            -0.594 1.307 2.828,
            -0.594 1.307 1.841,
            -0.588 1.233 2.828,
            -0.588 1.233 1.841,
            -0.579 1.159 2.828,
            -0.579 1.159 1.841,
            -0.566 1.085 2.828,
            -0.566 1.085 1.841,
            -0.549 1.012 2.828,
            -0.549 1.012 1.841,
            -0.529 0.940 2.828,
            -0.529 0.940 1.841,
            -0.505 0.869 2.828,
            -0.505 0.869 1.841,
            -0.478 0.799 2.828,
            -0.478 0.799 1.841,
            -0.447 0.731 1.841,
            -0.447 0.731 2.828,
            -0.413 0.665 2.828,
            -0.413 0.665 1.841,
            -0.376 0.600 2.828,
            -0.376 0.600 1.841,
            -0.335 0.537 2.828,
            -0.335 0.537 1.841,
            -0.291 0.476 1.841,
            -0.291 0.476 2.828,
            -0.245 0.418 2.828,
            -0.245 0.418 1.841,
            -0.195 0.362 1.841,
            -0.195 0.362 2.828,
            -0.143 0.308 2.828,
            -0.143 0.308 1.841,
            -0.088 0.257 1.841,
            -0.088 0.257 2.828,
            -0.031 0.209 2.828,
            -0.031 0.209 1.841,
            0.029 0.164 2.828,
            0.029 0.164 1.841,
            0.090 0.122 2.828,
            0.090 0.122 1.841,
            0.154 0.083 2.828,
            0.154 0.083 1.841,
            0.220 0.047 2.828,
            0.220 0.047 1.841,
            0.287 0.015 2.828,
            0.287 0.015 1.841,
            0.356 -0.014 1.841,
            0.356 -0.014 2.828,
            0.427 -0.040 1.841,
            0.427 -0.040 2.828,
            0.498 -0.062 2.828,
            0.498 -0.062 1.841,
            0.570 -0.080 2.828,
            0.570 -0.080 1.841,
            0.644 -0.095 1.841,
            0.644 -0.095 2.828,
            0.718 -0.106 2.828,
            0.718 -0.106 1.841,
            0.792 -0.114 1.841,
            0.792 -0.114 2.828,
            0.867 -0.117 1.841,
            0.867 -0.117 2.828,
            0.942 -0.117 2.828,
            0.942 -0.117 1.841,
            1.016 -0.114 1.841,
            1.016 -0.114 2.828,
            1.091 -0.106 1.841,
            1.091 -0.106 2.828,
            1.165 -0.095 2.828,
            1.165 -0.095 1.841,
            1.238 -0.080 2.828,
            1.238 -0.080 1.841,
            1.310 -0.062 2.828,
            1.310 -0.062 1.841,
            1.382 -0.040 2.828,
            1.382 -0.040 1.841,
            1.452 -0.014 1.841,
            1.452 -0.014 2.828,
            1.521 0.015 2.828,
            1.521 0.015 1.841,
            1.589 0.047 1.841,
            1.589 0.047 2.828,
            1.654 0.083 2.828,
            1.654 0.083 1.841,
            1.718 0.122 2.828,
            1.718 0.122 1.841,
            1.780 0.164 2.828,
            1.780 0.164 1.841,
            1.839 0.209 2.828,
            1.839 0.209 1.841,
            1.897 0.257 2.828,
            1.897 0.257 1.841,
            1.952 0.308 2.828,
            1.952 0.308 1.841,
            2.004 0.362 2.828,
            2.004 0.362 1.841,
            2.053 0.418 2.828,
            2.053 0.418 1.841,
            2.100 0.476 2.828,
            2.100 0.476 1.841,
            2.144 0.537 2.828,
            2.144 0.537 1.841,
            2.184 0.600 2.828,
            2.184 0.600 1.841,
            2.222 0.665 1.841,
            2.222 0.665 2.828,
            2.256 0.731 2.828,
            2.256 0.731 1.841,
            2.286 0.799 2.828,
            2.286 0.799 1.841,
            2.314 0.869 2.828,
            2.314 0.869 1.841,
            2.338 0.940 2.828,
            2.338 0.940 1.841,
            2.358 1.012 2.828,
            2.358 1.012 1.841,
            2.374 1.085 2.828,
            2.374 1.085 1.841,
            2.387 1.159 2.828,
            2.387 1.159 1.841,
            2.397 1.233 2.828,
            2.397 1.233 1.841,
            2.402 1.307 1.841,
            2.402 1.307 2.828,
            2.352 1.311 2.878,
            2.347 1.240 2.878,
            2.339 1.169 2.878,
            2.326 1.099 2.878,
            2.311 1.030 2.878,
            2.292 0.961 2.878,
            2.269 0.894 2.878,
            2.244 0.827 2.878,
            2.215 0.762 2.878,
            2.183 0.699 2.878,
            2.148 0.637 2.878,
            2.110 0.577 2.878,
            2.069 0.518 2.878,
            2.025 0.462 2.878,
            1.979 0.408 2.878,
            1.930 0.357 2.878,
            1.878 0.308 2.878,
            1.824 0.261 2.878,
            1.768 0.217 2.878,
            1.710 0.176 2.878,
            1.650 0.138 2.878,
            1.588 0.103 2.878,
            1.524 0.071 2.878,
            1.459 0.042 2.878,
            1.393 0.017 2.878,
            1.325 -0.005 2.878,
            1.257 -0.024 2.878,
            1.187 -0.040 2.878,
            1.117 -0.052 2.878,
            1.046 -0.061 2.878,
            0.975 -0.066 2.878,
            2.017 0.527 2.906,
            2.189 0.797 2.902,
            1.840 0.418 2.941,
            2.017 0.693 2.960,
            1.658 0.312 2.960,
            2.189 0.962 2.936,
            1.840 0.587 3.002,
            1.473 0.209 2.963,
            2.017 0.862 3.002,
            1.658 0.482 3.028,
            1.285 0.110 2.950,
            2.189 1.129 2.960,
            1.840 0.760 3.051,
            1.473 0.380 3.038,
            1.095 0.017 2.921,
            2.017 1.034 3.032,
            1.658 0.657 3.085,
            1.285 0.280 3.032,
            2.189 1.298 2.971,
            1.840 0.936 3.088,
            1.473 0.555 3.102,
            1.095 0.186 3.010,
            2.017 1.208 3.050,
            1.658 0.835 3.129,
            1.285 0.456 3.102,
            2.189 1.466 2.971,
            1.840 1.113 3.113,
            1.473 0.735 3.153,
            1.095 0.360 3.087,
            2.017 1.382 3.056,
            1.658 1.016 3.160,
            1.285 0.635 3.160,
            2.189 1.635 2.960,
            1.840 1.292 3.126,
            1.473 0.917 3.191,
            1.095 0.539 3.152,
            2.017 1.557 3.050,
            1.658 1.199 3.179,
            1.285 0.819 3.206,
            2.189 1.802 2.936,
            1.840 1.472 3.126,
            1.473 1.102 3.217,
            1.095 0.722 3.204,
            2.017 1.730 3.032,
            1.658 1.382 3.186,
            1.285 1.005 3.239,
            2.189 1.967 2.902,
            1.840 1.651 3.113,
            1.473 1.289 3.230,
            1.095 0.908 3.243,
            2.017 1.902 3.002,
            1.658 1.566 3.179,
            1.285 1.193 3.258,
            1.840 1.829 3.088,
            1.473 1.475 3.230,
            1.095 1.097 3.270,
            2.017 2.072 2.960,
            1.658 1.748 3.160,
            1.285 1.382 3.265,
            1.840 2.004 3.051,
            1.473 1.662 3.217,
            1.095 1.287 3.283,
            2.017 2.238 2.906,
            1.658 1.929 3.129,
            1.285 1.571 3.258,
            1.840 2.177 3.002,
            1.473 1.847 3.191,
            1.095 1.477 3.283,
            1.658 2.107 3.085,
            1.285 1.759 3.239,
            1.840 2.346 2.941,
            1.473 2.029 3.153,
            1.095 1.667 3.270,
            1.658 2.282 3.028,
            1.285 1.945 3.206,
            1.473 2.209 3.102,
            1.095 1.856 3.243,
            1.658 2.452 2.960,
            1.285 2.129 3.160,
            1.473 2.385 3.038,
            1.095 2.042 3.204,
            1.285 2.309 3.102,
            1.473 2.555 2.963,
            1.095 2.225 3.152,
            1.285 2.484 3.032,
            1.095 2.404 3.087,
            1.285 2.654 2.950,
            1.095 2.578 3.010,
            1.095 2.747 2.921
          ]
        }
        coordIndex [
          0, 1, 2, -1,
          3, 1, 0, -1,
          4, 3, 0, -1,
          5, 3, 4, -1,
          6, 5, 4, -1,
          7, 5, 6, -1,
          8, 7, 6, -1,
          9, 7, 8, -1,
          10, 9, 8, -1,
          11, 9, 10, -1,
          12, 11, 10, -1,
          13, 11, 12, -1,
          14, 13, 12, -1,
          15, 13, 14, -1,
          16, 15, 14, -1,
          17, 15, 16, -1,
          18, 17, 16, -1,
          19, 17, 18, -1,
          20, 19, 18, -1,
          21, 19, 20, -1,
          22, 21, 20, -1,
          23, 21, 22, -1,
          24, 23, 22, -1,
          25, 23, 24, -1,
          26, 25, 24, -1,
          27, 25, 26, -1,
          28, 27, 26, -1,
          29, 27, 28, -1,
          30, 29, 28, -1,
          31, 29, 30, -1,
          32, 31, 30, -1,
          33, 31, 32, -1,
          34, 33, 32, -1,
          35, 33, 34, -1,
          36, 35, 34, -1,
          37, 35, 36, -1,
          38, 37, 36, -1,
          39, 37, 38, -1,
          40, 39, 38, -1,
          41, 39, 40, -1,
          42, 41, 40, -1,
          43, 41, 42, -1,
          44, 43, 42, -1,
          45, 43, 44, -1,
          46, 45, 44, -1,
          47, 45, 46, -1,
          48, 47, 46, -1,
          49, 47, 48, -1,
          50, 49, 48, -1,
          51, 49, 50, -1,
          52, 51, 50, -1,
          53, 51, 52, -1,
          54, 53, 52, -1,
          55, 53, 54, -1,
          56, 55, 54, -1,
          57, 55, 56, -1,
          58, 57, 56, -1,
          59, 57, 58, -1,
          60, 59, 58, -1,
          61, 59, 60, -1,
          62, 61, 60, -1,
          63, 61, 62, -1,
          64, 63, 62, -1,
          65, 63, 64, -1,
          66, 64, 67, -1,
          66, 65, 64, -1,
          68, 66, 67, -1,
          69, 66, 68, -1,
          70, 68, 71, -1,
          70, 69, 68, -1,
          72, 70, 71, -1,
          73, 70, 72, -1,
          74, 72, 75, -1,
          74, 73, 72, -1,
          76, 74, 75, -1,
          77, 74, 76, -1,
          78, 77, 76, -1,
          79, 77, 78, -1,
          80, 78, 81, -1,
          80, 79, 78, -1,
          82, 81, 83, -1,
          82, 80, 81, -1,
          84, 83, 85, -1,
          84, 82, 83, -1,
          86, 85, 87, -1,
          86, 84, 85, -1,
          88, 86, 87, -1,
          88, 87, 89, -1,
          90, 88, 89, -1,
          91, 88, 90, -1,
          92, 91, 90, -1,
          92, 90, 93, -1,
          94, 92, 93, -1,
          94, 93, 95, -1,
          96, 95, 97, -1,
          96, 94, 95, -1,
          98, 97, 99, -1,
          98, 96, 97, -1,
          100, 99, 101, -1,
          100, 98, 99, -1,
          102, 101, 103, -1,
          102, 100, 101, -1,
          104, 103, 105, -1,
          104, 102, 103, -1,
          106, 105, 107, -1,
          106, 104, 105, -1,
          108, 107, 109, -1,
          108, 106, 107, -1,
          110, 109, 111, -1,
          110, 108, 109, -1,
          112, 111, 113, -1,
          112, 110, 111, -1,
          114, 112, 113, -1,
          115, 112, 114, -1,
          116, 115, 114, -1,
          117, 115, 116, -1,
          118, 116, 119, -1,
          118, 117, 116, -1,
          120, 119, 121, -1,
          120, 118, 119, -1,
          122, 121, 123, -1,
          122, 120, 121, -1,
          124, 122, 123, -1,
          125, 122, 124, -1,
          126, 125, 124, -1,
          127, 125, 126, -1,
          128, 129, 130, -1,
          131, 132, 133, -1,
          134, 135, 136, -1,
          134, 136, 137, -1,
          134, 137, 129, -1,
          134, 129, 128, -1,
          138, 128, 139, -1,
          138, 139, 140, -1,
          138, 134, 128, -1,
          141, 134, 138, -1,
          141, 142, 143, -1,
          141, 143, 144, -1,
          141, 144, 145, -1,
          141, 145, 135, -1,
          141, 135, 134, -1,
          146, 138, 140, -1,
          146, 140, 147, -1,
          148, 138, 146, -1,
          148, 141, 138, -1,
          149, 147, 150, -1,
          149, 150, 151, -1,
          149, 146, 147, -1,
          152, 153, 154, -1,
          152, 154, 155, -1,
          152, 155, 142, -1,
          152, 141, 148, -1,
          152, 142, 141, -1,
          156, 146, 149, -1,
          156, 148, 146, -1,
          157, 149, 151, -1,
          157, 151, 158, -1,
          159, 148, 156, -1,
          159, 152, 148, -1,
          160, 156, 149, -1,
          160, 149, 157, -1,
          161, 162, 163, -1,
          161, 163, 164, -1,
          161, 164, 153, -1,
          161, 152, 159, -1,
          161, 153, 152, -1,
          165, 157, 158, -1,
          165, 158, 166, -1,
          165, 166, 167, -1,
          168, 156, 160, -1,
          168, 159, 156, -1,
          169, 160, 157, -1,
          169, 157, 165, -1,
          170, 161, 159, -1,
          170, 159, 168, -1,
          171, 167, 172, -1,
          171, 165, 167, -1,
          173, 168, 160, -1,
          173, 160, 169, -1,
          174, 161, 170, -1,
          174, 175, 176, -1,
          174, 176, 177, -1,
          174, 177, 162, -1,
          174, 162, 161, -1,
          178, 165, 171, -1,
          178, 169, 165, -1,
          179, 170, 168, -1,
          179, 168, 173, -1,
          180, 172, 181, -1,
          180, 181, 182, -1,
          180, 171, 172, -1,
          183, 173, 169, -1,
          183, 169, 178, -1,
          184, 174, 170, -1,
          184, 170, 179, -1,
          185, 171, 180, -1,
          185, 178, 171, -1,
          186, 173, 183, -1,
          186, 179, 173, -1,
          187, 188, 189, -1,
          187, 189, 190, -1,
          187, 190, 175, -1,
          187, 175, 174, -1,
          187, 174, 184, -1,
          191, 182, 192, -1,
          191, 180, 182, -1,
          193, 183, 178, -1,
          193, 178, 185, -1,
          194, 179, 186, -1,
          194, 184, 179, -1,
          195, 180, 191, -1,
          195, 185, 180, -1,
          196, 186, 183, -1,
          196, 183, 193, -1,
          197, 198, 199, -1,
          197, 199, 188, -1,
          197, 184, 194, -1,
          197, 188, 187, -1,
          197, 187, 184, -1,
          200, 201, 202, -1,
          200, 192, 201, -1,
          200, 191, 192, -1,
          203, 193, 185, -1,
          203, 185, 195, -1,
          204, 186, 196, -1,
          204, 194, 186, -1,
          205, 195, 191, -1,
          205, 191, 200, -1,
          206, 193, 203, -1,
          206, 196, 193, -1,
          207, 197, 194, -1,
          207, 194, 204, -1,
          208, 200, 202, -1,
          208, 202, 209, -1,
          210, 203, 195, -1,
          210, 195, 205, -1,
          211, 196, 206, -1,
          211, 204, 196, -1,
          212, 213, 214, -1,
          212, 214, 198, -1,
          212, 198, 197, -1,
          212, 197, 207, -1,
          215, 205, 200, -1,
          215, 200, 208, -1,
          216, 206, 203, -1,
          216, 203, 210, -1,
          217, 204, 211, -1,
          217, 207, 204, -1,
          218, 208, 209, -1,
          218, 219, 220, -1,
          218, 209, 219, -1,
          221, 210, 205, -1,
          221, 205, 215, -1,
          222, 211, 206, -1,
          222, 206, 216, -1,
          223, 224, 225, -1,
          223, 207, 217, -1,
          223, 225, 226, -1,
          223, 226, 213, -1,
          223, 213, 212, -1,
          223, 212, 207, -1,
          227, 215, 208, -1,
          227, 208, 218, -1,
          228, 210, 221, -1,
          228, 216, 210, -1,
          229, 217, 211, -1,
          229, 211, 222, -1,
          230, 218, 220, -1,
          230, 220, 231, -1,
          232, 215, 227, -1,
          232, 221, 215, -1,
          233, 216, 228, -1,
          233, 222, 216, -1,
          234, 235, 236, -1,
          234, 236, 237, -1,
          234, 237, 224, -1,
          234, 224, 223, -1,
          234, 223, 217, -1,
          234, 217, 229, -1,
          238, 227, 218, -1,
          238, 218, 230, -1,
          239, 221, 232, -1,
          239, 228, 221, -1,
          240, 222, 233, -1,
          240, 229, 222, -1,
          241, 230, 231, -1,
          241, 242, 243, -1,
          241, 231, 242, -1,
          244, 232, 227, -1,
          244, 227, 238, -1,
          245, 228, 239, -1,
          245, 233, 228, -1,
          246, 247, 248, -1,
          246, 248, 235, -1,
          246, 234, 229, -1,
          246, 235, 234, -1,
          246, 229, 240, -1,
          249, 230, 241, -1,
          249, 238, 230, -1,
          250, 232, 244, -1,
          250, 239, 232, -1,
          251, 233, 245, -1,
          251, 240, 233, -1,
          252, 241, 243, -1,
          252, 243, 253, -1,
          254, 238, 249, -1,
          254, 244, 238, -1,
          255, 245, 239, -1,
          255, 239, 250, -1,
          256, 240, 251, -1,
          256, 247, 246, -1,
          256, 246, 240, -1,
          256, 257, 258, -1,
          256, 258, 247, -1,
          259, 249, 241, -1,
          259, 241, 252, -1,
          260, 250, 244, -1,
          260, 244, 254, -1,
          261, 251, 245, -1,
          261, 245, 255, -1,
          262, 132, 131, -1,
          262, 252, 253, -1,
          262, 253, 132, -1,
          262, 131, 263, -1,
          262, 263, 264, -1,
          262, 264, 265, -1,
          266, 249, 259, -1,
          266, 254, 249, -1,
          267, 255, 250, -1,
          267, 250, 260, -1,
          268, 256, 251, -1,
          268, 251, 261, -1,
          268, 257, 256, -1,
          268, 269, 270, -1,
          268, 270, 271, -1,
          268, 271, 257, -1,
          272, 252, 262, -1,
          272, 265, 273, -1,
          272, 273, 274, -1,
          272, 274, 275, -1,
          272, 275, 276, -1,
          272, 259, 252, -1,
          272, 262, 265, -1,
          277, 254, 266, -1,
          277, 260, 254, -1,
          278, 261, 255, -1,
          278, 255, 267, -1,
          279, 272, 276, -1,
          279, 259, 272, -1,
          279, 276, 280, -1,
          279, 280, 281, -1,
          279, 281, 282, -1,
          279, 266, 259, -1,
          283, 260, 277, -1,
          283, 267, 260, -1,
          284, 269, 268, -1,
          284, 268, 261, -1,
          284, 261, 278, -1,
          284, 285, 286, -1,
          284, 286, 287, -1,
          284, 287, 269, -1,
          288, 279, 282, -1,
          288, 266, 279, -1,
          288, 282, 289, -1,
          288, 289, 290, -1,
          288, 290, 291, -1,
          288, 277, 266, -1,
          292, 267, 283, -1,
          292, 293, 294, -1,
          292, 294, 295, -1,
          292, 278, 267, -1,
          296, 277, 288, -1,
          296, 288, 291, -1,
          296, 291, 297, -1,
          296, 297, 298, -1,
          296, 298, 299, -1,
          296, 283, 277, -1,
          300, 278, 292, -1,
          300, 292, 295, -1,
          300, 295, 301, -1,
          300, 301, 285, -1,
          300, 285, 284, -1,
          300, 284, 278, -1,
          302, 293, 292, -1,
          302, 296, 299, -1,
          302, 283, 296, -1,
          302, 292, 283, -1,
          302, 299, 303, -1,
          302, 303, 304, -1,
          302, 304, 293, -1,
          258, 305, 247, -1,
          306, 305, 258, -1,
          257, 306, 258, -1,
          307, 257, 271, -1,
          307, 306, 257, -1,
          308, 271, 270, -1,
          308, 307, 271, -1,
          309, 270, 269, -1,
          309, 308, 270, -1,
          310, 269, 287, -1,
          310, 309, 269, -1,
          311, 287, 286, -1,
          311, 310, 287, -1,
          312, 286, 285, -1,
          312, 311, 286, -1,
          313, 285, 301, -1,
          313, 312, 285, -1,
          314, 301, 295, -1,
          314, 313, 301, -1,
          315, 295, 294, -1,
          315, 314, 295, -1,
          316, 294, 293, -1,
          316, 315, 294, -1,
          317, 293, 304, -1,
          317, 316, 293, -1,
          318, 304, 303, -1,
          318, 317, 304, -1,
          319, 303, 299, -1,
          319, 318, 303, -1,
          320, 299, 298, -1,
          320, 319, 299, -1,
          321, 298, 297, -1,
          321, 320, 298, -1,
          322, 321, 297, -1,
          322, 297, 291, -1,
          323, 322, 291, -1,
          323, 291, 290, -1,
          324, 323, 290, -1,
          324, 290, 289, -1,
          325, 289, 282, -1,
          325, 324, 289, -1,
          326, 282, 281, -1,
          326, 325, 282, -1,
          327, 281, 280, -1,
          327, 326, 281, -1,
          328, 280, 276, -1,
          328, 327, 280, -1,
          329, 276, 275, -1,
          329, 328, 276, -1,
          330, 275, 274, -1,
          330, 329, 275, -1,
          331, 274, 273, -1,
          331, 330, 274, -1,
          332, 273, 265, -1,
          332, 331, 273, -1,
          333, 265, 264, -1,
          333, 332, 265, -1,
          334, 333, 264, -1,
          334, 264, 263, -1,
          335, 334, 263, -1,
          335, 263, 131, -1,
          336, 335, 131, -1,
          336, 131, 133, -1,
          337, 133, 338, -1,
          337, 336, 133, -1,
          339, 338, 340, -1,
          339, 337, 338, -1,
          341, 340, 342, -1,
          341, 339, 340, -1,
          343, 342, 344, -1,
          343, 341, 342, -1,
          345, 344, 346, -1,
          345, 343, 344, -1,
          347, 346, 348, -1,
          347, 345, 346, -1,
          349, 348, 350, -1,
          349, 347, 348, -1,
          351, 350, 352, -1,
          351, 349, 350, -1,
          353, 352, 354, -1,
          353, 351, 352, -1,
          355, 354, 356, -1,
          355, 353, 354, -1,
          357, 356, 358, -1,
          357, 355, 356, -1,
          359, 358, 360, -1,
          359, 357, 358, -1,
          361, 359, 360, -1,
          361, 360, 362, -1,
          363, 361, 362, -1,
          363, 362, 364, -1,
          365, 363, 364, -1,
          365, 364, 366, -1,
          367, 366, 368, -1,
          367, 365, 366, -1,
          369, 368, 370, -1,
          369, 367, 368, -1,
          371, 370, 372, -1,
          371, 369, 370, -1,
          373, 372, 374, -1,
          373, 371, 372, -1,
          375, 374, 376, -1,
          375, 373, 374, -1,
          377, 376, 378, -1,
          377, 375, 376, -1,
          379, 378, 380, -1,
          379, 377, 378, -1,
          381, 380, 382, -1,
          381, 379, 380, -1,
          383, 382, 384, -1,
          383, 381, 382, -1,
          385, 384, 386, -1,
          385, 383, 384, -1,
          387, 386, 388, -1,
          387, 385, 386, -1,
          389, 388, 390, -1,
          389, 387, 388, -1,
          391, 390, 392, -1,
          391, 389, 390, -1,
          393, 392, 394, -1,
          393, 391, 392, -1,
          395, 394, 396, -1,
          395, 393, 394, -1,
          397, 396, 398, -1,
          397, 395, 396, -1,
          399, 398, 400, -1,
          399, 397, 398, -1,
          397, 1, 3, -1,
          397, 399, 1, -1,
          395, 3, 5, -1,
          395, 397, 3, -1,
          393, 5, 7, -1,
          393, 395, 5, -1,
          391, 7, 9, -1,
          391, 393, 7, -1,
          389, 9, 11, -1,
          389, 11, 13, -1,
          389, 391, 9, -1,
          387, 389, 13, -1,
          385, 13, 15, -1,
          385, 387, 13, -1,
          383, 15, 17, -1,
          383, 385, 15, -1,
          381, 17, 19, -1,
          381, 383, 17, -1,
          379, 19, 21, -1,
          379, 21, 23, -1,
          379, 381, 19, -1,
          377, 379, 23, -1,
          375, 23, 25, -1,
          375, 377, 23, -1,
          373, 25, 27, -1,
          373, 375, 25, -1,
          371, 27, 29, -1,
          371, 373, 27, -1,
          369, 29, 31, -1,
          369, 371, 29, -1,
          367, 31, 33, -1,
          367, 33, 35, -1,
          367, 369, 31, -1,
          365, 367, 35, -1,
          363, 365, 35, -1,
          363, 35, 37, -1,
          361, 363, 37, -1,
          361, 37, 39, -1,
          359, 361, 39, -1,
          359, 39, 41, -1,
          357, 359, 41, -1,
          357, 41, 43, -1,
          355, 357, 43, -1,
          355, 43, 45, -1,
          355, 45, 47, -1,
          353, 47, 49, -1,
          353, 355, 47, -1,
          351, 353, 49, -1,
          349, 49, 51, -1,
          349, 351, 49, -1,
          347, 51, 53, -1,
          347, 53, 55, -1,
          347, 349, 51, -1,
          345, 55, 57, -1,
          345, 347, 55, -1,
          343, 345, 57, -1,
          341, 57, 59, -1,
          341, 343, 57, -1,
          339, 59, 61, -1,
          339, 61, 63, -1,
          339, 341, 59, -1,
          337, 339, 63, -1,
          336, 63, 65, -1,
          336, 65, 66, -1,
          336, 337, 63, -1,
          335, 336, 66, -1,
          334, 66, 69, -1,
          334, 69, 70, -1,
          334, 335, 66, -1,
          333, 70, 73, -1,
          333, 334, 70, -1,
          332, 333, 73, -1,
          331, 73, 74, -1,
          331, 74, 77, -1,
          331, 332, 73, -1,
          330, 331, 77, -1,
          329, 77, 79, -1,
          329, 330, 77, -1,
          328, 79, 80, -1,
          328, 80, 82, -1,
          328, 329, 79, -1,
          327, 82, 84, -1,
          327, 328, 82, -1,
          326, 327, 84, -1,
          325, 326, 84, -1,
          325, 84, 86, -1,
          324, 325, 86, -1,
          324, 86, 88, -1,
          323, 324, 88, -1,
          323, 88, 91, -1,
          323, 91, 92, -1,
          322, 323, 92, -1,
          321, 322, 92, -1,
          321, 92, 94, -1,
          320, 321, 94, -1,
          320, 94, 96, -1,
          319, 320, 96, -1,
          319, 96, 98, -1,
          318, 319, 98, -1,
          318, 98, 100, -1,
          317, 318, 100, -1,
          317, 100, 102, -1,
          316, 317, 102, -1,
          316, 102, 104, -1,
          315, 316, 104, -1,
          315, 104, 106, -1,
          314, 315, 106, -1,
          314, 106, 108, -1,
          313, 314, 108, -1,
          313, 108, 110, -1,
          312, 110, 112, -1,
          312, 313, 110, -1,
          311, 112, 115, -1,
          311, 312, 112, -1,
          310, 115, 117, -1,
          310, 311, 115, -1,
          309, 117, 118, -1,
          309, 310, 117, -1,
          308, 118, 120, -1,
          308, 309, 118, -1,
          307, 120, 122, -1,
          307, 308, 120, -1,
          306, 122, 125, -1,
          306, 125, 127, -1,
          306, 307, 122, -1,
          305, 306, 127, -1,
          401, 402, 403, -1,
          404, 405, 406, -1,
          407, 408, 402, -1,
          409, 408, 407, -1,
          410, 411, 408, -1,
          412, 413, 414, -1,
          403, 413, 412, -1,
          415, 413, 411, -1,
          402, 413, 403, -1,
          411, 413, 408, -1,
          408, 413, 402, -1,
          416, 417, 418, -1,
          419, 417, 416, -1,
          420, 417, 419, -1,
          421, 417, 420, -1,
          405, 417, 421, -1,
          422, 417, 404, -1,
          404, 417, 405, -1,
          423, 424, 425, -1,
          124, 119, 126, -1,
          123, 119, 124, -1,
          121, 119, 123, -1,
          426, 119, 413, -1,
          427, 119, 426, -1,
          428, 119, 427, -1,
          429, 119, 428, -1,
          126, 119, 429, -1,
          430, 431, 432, -1,
          433, 431, 430, -1,
          116, 114, 119, -1,
          114, 113, 119, -1,
          434, 435, 436, -1,
          113, 111, 119, -1,
          434, 437, 435, -1,
          431, 437, 434, -1,
          438, 439, 440, -1,
          437, 439, 438, -1,
          431, 439, 437, -1,
          433, 441, 431, -1,
          431, 441, 439, -1,
          439, 441, 442, -1,
          443, 441, 433, -1,
          101, 99, 103, -1,
          99, 97, 103, -1,
          443, 444, 441, -1,
          441, 444, 445, -1,
          423, 444, 424, -1,
          424, 444, 443, -1,
          446, 444, 423, -1,
          97, 95, 103, -1,
          444, 447, 448, -1,
          90, 89, 93, -1,
          444, 449, 447, -1,
          447, 449, 450, -1,
          444, 451, 449, -1,
          87, 85, 89, -1,
          89, 85, 93, -1,
          93, 83, 95, -1,
          85, 83, 93, -1,
          444, 452, 451, -1,
          453, 452, 454, -1,
          451, 452, 453, -1,
          444, 455, 452, -1,
          81, 76, 83, -1,
          78, 76, 81, -1,
          456, 457, 458, -1,
          455, 457, 456, -1,
          72, 71, 75, -1,
          75, 68, 76, -1,
          71, 68, 75, -1,
          76, 68, 83, -1,
          68, 67, 83, -1,
          459, 2, 460, -1,
          461, 2, 459, -1,
          457, 2, 461, -1,
          457, 0, 2, -1,
          62, 60, 64, -1,
          457, 4, 0, -1,
          457, 6, 4, -1,
          58, 56, 60, -1,
          457, 10, 6, -1,
          6, 10, 8, -1,
          455, 10, 457, -1,
          67, 52, 83, -1,
          109, 52, 111, -1,
          107, 52, 109, -1,
          105, 52, 107, -1,
          103, 52, 105, -1,
          60, 52, 64, -1,
          56, 52, 60, -1,
          64, 52, 67, -1,
          95, 52, 103, -1,
          54, 52, 56, -1,
          83, 52, 95, -1,
          50, 48, 52, -1,
          48, 46, 52, -1,
          14, 18, 16, -1,
          46, 44, 52, -1,
          18, 22, 20, -1,
          14, 24, 18, -1,
          18, 24, 22, -1,
          12, 24, 14, -1,
          10, 24, 12, -1,
          42, 38, 44, -1,
          40, 38, 42, -1,
          38, 36, 44, -1,
          24, 28, 26, -1,
          10, 28, 24, -1,
          462, 32, 422, -1,
          414, 32, 462, -1,
          111, 32, 119, -1,
          455, 32, 10, -1,
          52, 32, 111, -1,
          34, 32, 36, -1,
          28, 32, 30, -1,
          44, 32, 52, -1,
          446, 32, 444, -1,
          422, 32, 417, -1,
          444, 32, 455, -1,
          36, 32, 44, -1,
          10, 32, 28, -1,
          413, 32, 414, -1,
          119, 32, 413, -1,
          417, 32, 446, -1,
          463, 305, 127, -1,
          463, 127, 464, -1,
          465, 464, 466, -1,
          465, 463, 464, -1,
          467, 466, 468, -1,
          467, 465, 466, -1,
          469, 468, 470, -1,
          469, 467, 468, -1,
          471, 470, 472, -1,
          471, 469, 470, -1,
          473, 472, 474, -1,
          473, 471, 472, -1,
          475, 474, 476, -1,
          475, 473, 474, -1,
          477, 476, 478, -1,
          477, 478, 479, -1,
          477, 475, 476, -1,
          480, 477, 479, -1,
          481, 479, 482, -1,
          481, 480, 479, -1,
          483, 482, 484, -1,
          483, 481, 482, -1,
          485, 484, 486, -1,
          485, 486, 487, -1,
          485, 483, 484, -1,
          488, 485, 487, -1,
          489, 487, 490, -1,
          489, 490, 491, -1,
          489, 488, 487, -1,
          492, 489, 491, -1,
          493, 491, 494, -1,
          493, 494, 495, -1,
          493, 492, 491, -1,
          496, 493, 495, -1,
          497, 496, 495, -1,
          497, 495, 498, -1,
          499, 497, 498, -1,
          499, 498, 500, -1,
          501, 499, 500, -1,
          501, 500, 502, -1,
          503, 501, 502, -1,
          503, 502, 504, -1,
          505, 503, 504, -1,
          505, 504, 506, -1,
          507, 506, 508, -1,
          507, 505, 506, -1,
          507, 508, 509, -1,
          510, 509, 511, -1,
          510, 507, 509, -1,
          512, 510, 511, -1,
          513, 511, 514, -1,
          513, 512, 511, -1,
          515, 514, 516, -1,
          515, 516, 517, -1,
          515, 513, 514, -1,
          518, 515, 517, -1,
          519, 517, 520, -1,
          519, 520, 521, -1,
          519, 518, 517, -1,
          522, 521, 523, -1,
          522, 519, 521, -1,
          524, 522, 523, -1,
          525, 523, 526, -1,
          525, 526, 527, -1,
          525, 524, 523, -1,
          528, 527, 529, -1,
          528, 525, 527, -1,
          530, 528, 529, -1,
          531, 529, 532, -1,
          531, 530, 529, -1,
          533, 532, 534, -1,
          533, 531, 532, -1,
          535, 534, 536, -1,
          535, 533, 534, -1,
          537, 536, 538, -1,
          537, 538, 539, -1,
          537, 535, 536, -1,
          540, 537, 539, -1,
          541, 539, 542, -1,
          541, 542, 543, -1,
          541, 540, 539, -1,
          544, 541, 543, -1,
          545, 543, 546, -1,
          545, 544, 543, -1,
          547, 545, 546, -1,
          547, 546, 548, -1,
          549, 547, 548, -1,
          549, 548, 550, -1,
          551, 549, 550, -1,
          551, 550, 552, -1,
          553, 551, 552, -1,
          553, 552, 554, -1,
          555, 553, 554, -1,
          555, 554, 556, -1,
          557, 555, 556, -1,
          557, 556, 558, -1,
          559, 557, 558, -1,
          559, 558, 560, -1,
          561, 559, 560, -1,
          561, 560, 562, -1,
          563, 561, 562, -1,
          563, 562, 564, -1,
          565, 563, 564, -1,
          565, 564, 566, -1,
          565, 566, 567, -1,
          568, 565, 567, -1,
          569, 568, 567, -1,
          569, 567, 570, -1,
          571, 569, 570, -1,
          571, 570, 572, -1,
          573, 571, 572, -1,
          573, 572, 574, -1,
          575, 574, 576, -1,
          575, 573, 574, -1,
          577, 576, 578, -1,
          577, 575, 576, -1,
          579, 578, 580, -1,
          579, 577, 578, -1,
          581, 580, 582, -1,
          581, 579, 580, -1,
          583, 582, 584, -1,
          583, 584, 585, -1,
          583, 581, 582, -1,
          586, 583, 585, -1,
          399, 585, 1, -1,
          399, 586, 585, -1,
          587, 399, 400, -1,
          586, 399, 587, -1,
          588, 586, 587, -1,
          583, 588, 589, -1,
          583, 586, 588, -1,
          581, 589, 590, -1,
          581, 583, 589, -1,
          579, 590, 591, -1,
          579, 581, 590, -1,
          577, 591, 592, -1,
          577, 579, 591, -1,
          575, 592, 593, -1,
          575, 577, 592, -1,
          573, 593, 594, -1,
          573, 575, 593, -1,
          571, 594, 595, -1,
          571, 573, 594, -1,
          569, 595, 596, -1,
          569, 571, 595, -1,
          568, 596, 597, -1,
          568, 569, 596, -1,
          565, 597, 598, -1,
          565, 568, 597, -1,
          563, 598, 599, -1,
          563, 565, 598, -1,
          561, 599, 600, -1,
          561, 563, 599, -1,
          559, 600, 601, -1,
          559, 561, 600, -1,
          557, 601, 602, -1,
          557, 559, 601, -1,
          555, 602, 603, -1,
          555, 557, 602, -1,
          553, 555, 603, -1,
          553, 603, 604, -1,
          551, 553, 604, -1,
          551, 604, 605, -1,
          549, 551, 605, -1,
          549, 605, 606, -1,
          547, 549, 606, -1,
          547, 606, 607, -1,
          545, 607, 608, -1,
          545, 547, 607, -1,
          544, 608, 609, -1,
          544, 545, 608, -1,
          541, 609, 610, -1,
          541, 544, 609, -1,
          540, 610, 611, -1,
          540, 541, 610, -1,
          537, 611, 612, -1,
          537, 540, 611, -1,
          535, 612, 613, -1,
          535, 537, 612, -1,
          533, 613, 614, -1,
          533, 535, 613, -1,
          531, 614, 615, -1,
          531, 533, 614, -1,
          530, 615, 616, -1,
          530, 531, 615, -1,
          528, 616, 617, -1,
          528, 530, 616, -1,
          525, 617, 130, -1,
          525, 528, 617, -1,
          524, 525, 130, -1,
          524, 130, 129, -1,
          522, 129, 137, -1,
          522, 524, 129, -1,
          519, 137, 136, -1,
          519, 522, 137, -1,
          518, 136, 135, -1,
          518, 519, 136, -1,
          515, 135, 145, -1,
          515, 518, 135, -1,
          513, 145, 144, -1,
          513, 515, 145, -1,
          512, 144, 143, -1,
          512, 513, 144, -1,
          510, 143, 142, -1,
          510, 512, 143, -1,
          507, 142, 155, -1,
          507, 510, 142, -1,
          505, 155, 154, -1,
          505, 507, 155, -1,
          503, 505, 154, -1,
          503, 154, 153, -1,
          501, 153, 164, -1,
          501, 503, 153, -1,
          499, 501, 164, -1,
          499, 164, 163, -1,
          497, 499, 163, -1,
          497, 163, 162, -1,
          496, 497, 162, -1,
          496, 162, 177, -1,
          493, 496, 177, -1,
          493, 177, 176, -1,
          492, 493, 176, -1,
          492, 176, 175, -1,
          489, 492, 175, -1,
          489, 175, 190, -1,
          488, 489, 190, -1,
          488, 190, 189, -1,
          485, 488, 189, -1,
          485, 189, 188, -1,
          483, 485, 188, -1,
          483, 188, 199, -1,
          481, 199, 198, -1,
          481, 483, 199, -1,
          480, 198, 214, -1,
          480, 481, 198, -1,
          477, 214, 213, -1,
          477, 480, 214, -1,
          475, 213, 226, -1,
          475, 477, 213, -1,
          473, 226, 225, -1,
          473, 475, 226, -1,
          471, 225, 224, -1,
          471, 473, 225, -1,
          469, 224, 237, -1,
          469, 471, 224, -1,
          467, 237, 236, -1,
          467, 469, 237, -1,
          465, 236, 235, -1,
          465, 467, 236, -1,
          463, 235, 248, -1,
          463, 465, 235, -1,
          305, 248, 247, -1,
          305, 463, 248, -1,
          128, 130, 617, -1,
          133, 132, 338, -1,
          618, 601, 600, -1,
          618, 600, 599, -1,
          618, 599, 598, -1,
          619, 596, 595, -1,
          619, 595, 594, -1,
          620, 601, 618, -1,
          620, 604, 603, -1,
          620, 603, 602, -1,
          620, 602, 601, -1,
          621, 596, 619, -1,
          621, 598, 597, -1,
          621, 597, 596, -1,
          621, 618, 598, -1,
          622, 604, 620, -1,
          622, 607, 606, -1,
          622, 606, 605, -1,
          622, 605, 604, -1,
          623, 619, 594, -1,
          623, 594, 593, -1,
          623, 593, 592, -1,
          623, 592, 591, -1,
          624, 618, 621, -1,
          624, 620, 618, -1,
          625, 610, 609, -1,
          625, 609, 608, -1,
          625, 608, 607, -1,
          625, 607, 622, -1,
          626, 619, 623, -1,
          626, 621, 619, -1,
          627, 620, 624, -1,
          627, 622, 620, -1,
          628, 614, 613, -1,
          628, 613, 612, -1,
          628, 612, 611, -1,
          628, 611, 610, -1,
          628, 610, 625, -1,
          629, 623, 591, -1,
          629, 591, 590, -1,
          629, 590, 589, -1,
          629, 589, 588, -1,
          630, 621, 626, -1,
          630, 624, 621, -1,
          631, 622, 627, -1,
          631, 625, 622, -1,
          632, 614, 628, -1,
          632, 617, 616, -1,
          632, 616, 615, -1,
          632, 615, 614, -1,
          632, 128, 617, -1,
          633, 626, 623, -1,
          633, 623, 629, -1,
          634, 627, 624, -1,
          634, 624, 630, -1,
          635, 628, 625, -1,
          635, 625, 631, -1,
          636, 588, 587, -1,
          636, 587, 400, -1,
          636, 629, 588, -1,
          637, 630, 626, -1,
          637, 626, 633, -1,
          638, 627, 634, -1,
          638, 631, 627, -1,
          639, 139, 128, -1,
          639, 140, 139, -1,
          639, 628, 635, -1,
          639, 128, 632, -1,
          639, 632, 628, -1,
          640, 633, 629, -1,
          640, 629, 636, -1,
          641, 634, 630, -1,
          641, 630, 637, -1,
          642, 635, 631, -1,
          642, 631, 638, -1,
          643, 400, 398, -1,
          643, 398, 396, -1,
          643, 636, 400, -1,
          644, 637, 633, -1,
          644, 633, 640, -1,
          645, 638, 634, -1,
          645, 634, 641, -1,
          646, 147, 140, -1,
          646, 635, 642, -1,
          646, 140, 639, -1,
          646, 639, 635, -1,
          647, 640, 636, -1,
          647, 636, 643, -1,
          648, 641, 637, -1,
          648, 637, 644, -1,
          649, 638, 645, -1,
          649, 642, 638, -1,
          650, 643, 396, -1,
          650, 396, 394, -1,
          650, 394, 392, -1,
          650, 392, 390, -1,
          651, 644, 640, -1,
          651, 640, 647, -1,
          652, 641, 648, -1,
          652, 645, 641, -1,
          653, 150, 147, -1,
          653, 151, 150, -1,
          653, 646, 642, -1,
          653, 642, 649, -1,
          653, 147, 646, -1,
          654, 647, 643, -1,
          654, 643, 650, -1,
          655, 644, 651, -1,
          655, 648, 644, -1,
          656, 649, 645, -1,
          656, 645, 652, -1,
          657, 650, 390, -1,
          657, 390, 388, -1,
          657, 388, 386, -1,
          657, 386, 384, -1,
          658, 647, 654, -1,
          658, 651, 647, -1,
          659, 648, 655, -1,
          659, 652, 648, -1,
          660, 158, 151, -1,
          660, 151, 653, -1,
          660, 649, 656, -1,
          660, 653, 649, -1,
          661, 650, 657, -1,
          661, 654, 650, -1,
          662, 655, 651, -1,
          662, 651, 658, -1,
          663, 656, 652, -1,
          663, 652, 659, -1,
          664, 384, 382, -1,
          664, 382, 380, -1,
          664, 657, 384, -1,
          665, 654, 661, -1,
          665, 658, 654, -1,
          666, 659, 655, -1,
          666, 655, 662, -1,
          667, 166, 158, -1,
          667, 167, 166, -1,
          667, 656, 663, -1,
          667, 158, 660, -1,
          667, 660, 656, -1,
          668, 661, 657, -1,
          668, 657, 664, -1,
          669, 658, 665, -1,
          669, 662, 658, -1,
          670, 659, 666, -1,
          670, 663, 659, -1,
          671, 661, 668, -1,
          671, 665, 661, -1,
          672, 662, 669, -1,
          672, 666, 662, -1,
          673, 663, 670, -1,
          673, 172, 167, -1,
          673, 667, 663, -1,
          673, 167, 667, -1,
          674, 664, 380, -1,
          674, 380, 378, -1,
          674, 378, 376, -1,
          674, 668, 664, -1,
          675, 665, 671, -1,
          675, 669, 665, -1,
          676, 670, 666, -1,
          676, 666, 672, -1,
          677, 671, 668, -1,
          677, 668, 674, -1,
          678, 672, 669, -1,
          678, 669, 675, -1,
          679, 181, 172, -1,
          679, 182, 181, -1,
          679, 670, 676, -1,
          679, 673, 670, -1,
          679, 172, 673, -1,
          680, 376, 374, -1,
          680, 374, 372, -1,
          680, 372, 370, -1,
          680, 674, 376, -1,
          681, 671, 677, -1,
          681, 675, 671, -1,
          682, 672, 678, -1,
          682, 676, 672, -1,
          683, 677, 674, -1,
          683, 674, 680, -1,
          684, 678, 675, -1,
          684, 675, 681, -1,
          685, 676, 682, -1,
          685, 679, 676, -1,
          685, 192, 182, -1,
          685, 182, 679, -1,
          686, 681, 677, -1,
          686, 677, 683, -1,
          687, 678, 684, -1,
          687, 682, 678, -1,
          688, 683, 680, -1,
          688, 680, 370, -1,
          688, 370, 368, -1,
          688, 368, 366, -1,
          688, 366, 364, -1,
          689, 681, 686, -1,
          689, 684, 681, -1,
          690, 685, 682, -1,
          690, 682, 687, -1,
          690, 192, 685, -1,
          690, 202, 201, -1,
          690, 201, 192, -1,
          691, 683, 688, -1,
          691, 686, 683, -1,
          692, 687, 684, -1,
          692, 684, 689, -1,
          693, 689, 686, -1,
          693, 686, 691, -1,
          694, 690, 687, -1,
          694, 209, 202, -1,
          694, 687, 692, -1,
          694, 202, 690, -1,
          695, 691, 688, -1,
          695, 364, 362, -1,
          695, 362, 360, -1,
          695, 360, 358, -1,
          695, 688, 364, -1,
          696, 689, 693, -1,
          696, 692, 689, -1,
          697, 691, 695, -1,
          697, 693, 691, -1,
          698, 694, 692, -1,
          698, 220, 219, -1,
          698, 219, 209, -1,
          698, 692, 696, -1,
          698, 209, 694, -1,
          699, 696, 693, -1,
          699, 693, 697, -1,
          700, 695, 358, -1,
          700, 358, 356, -1,
          700, 356, 354, -1,
          700, 354, 352, -1,
          700, 697, 695, -1,
          701, 220, 698, -1,
          701, 231, 220, -1,
          701, 696, 699, -1,
          701, 698, 696, -1,
          702, 699, 697, -1,
          702, 697, 700, -1,
          703, 701, 699, -1,
          703, 231, 701, -1,
          703, 243, 242, -1,
          703, 242, 231, -1,
          703, 699, 702, -1,
          704, 700, 352, -1,
          704, 702, 700, -1,
          704, 352, 350, -1,
          704, 350, 348, -1,
          704, 348, 346, -1,
          704, 346, 344, -1,
          705, 243, 703, -1,
          705, 703, 702, -1,
          705, 253, 243, -1,
          705, 702, 704, -1,
          706, 705, 704, -1,
          706, 704, 344, -1,
          706, 253, 705, -1,
          706, 338, 132, -1,
          706, 344, 342, -1,
          706, 342, 340, -1,
          706, 340, 338, -1,
          706, 132, 253, -1,
          429, 127, 126, -1,
          464, 127, 429, -1,
          428, 464, 429, -1,
          466, 464, 428, -1,
          427, 466, 428, -1,
          468, 466, 427, -1,
          426, 468, 427, -1,
          470, 468, 426, -1,
          413, 470, 426, -1,
          472, 470, 413, -1,
          415, 472, 413, -1,
          474, 472, 415, -1,
          411, 474, 415, -1,
          476, 474, 411, -1,
          410, 476, 411, -1,
          478, 476, 410, -1,
          408, 478, 410, -1,
          479, 478, 408, -1,
          409, 479, 408, -1,
          482, 479, 409, -1,
          407, 482, 409, -1,
          484, 482, 407, -1,
          402, 484, 407, -1,
          486, 484, 402, -1,
          401, 486, 402, -1,
          487, 486, 401, -1,
          403, 487, 401, -1,
          490, 487, 403, -1,
          412, 490, 403, -1,
          491, 490, 412, -1,
          414, 491, 412, -1,
          494, 491, 414, -1,
          462, 494, 414, -1,
          495, 494, 462, -1,
          422, 495, 462, -1,
          498, 495, 422, -1,
          404, 498, 422, -1,
          500, 498, 404, -1,
          406, 500, 404, -1,
          502, 500, 406, -1,
          504, 502, 406, -1,
          504, 406, 405, -1,
          421, 504, 405, -1,
          506, 504, 421, -1,
          420, 506, 421, -1,
          508, 506, 420, -1,
          419, 508, 420, -1,
          509, 508, 419, -1,
          416, 509, 419, -1,
          511, 509, 416, -1,
          514, 511, 416, -1,
          514, 416, 418, -1,
          417, 514, 418, -1,
          516, 514, 417, -1,
          446, 516, 417, -1,
          517, 516, 446, -1,
          423, 517, 446, -1,
          520, 517, 423, -1,
          425, 520, 423, -1,
          521, 520, 425, -1,
          424, 521, 425, -1,
          523, 521, 424, -1,
          526, 424, 443, -1,
          526, 523, 424, -1,
          433, 526, 443, -1,
          527, 526, 433, -1,
          430, 527, 433, -1,
          529, 527, 430, -1,
          432, 529, 430, -1,
          532, 529, 432, -1,
          431, 532, 432, -1,
          534, 532, 431, -1,
          536, 431, 434, -1,
          536, 534, 431, -1,
          538, 434, 436, -1,
          538, 536, 434, -1,
          435, 538, 436, -1,
          539, 538, 435, -1,
          437, 539, 435, -1,
          542, 539, 437, -1,
          543, 437, 438, -1,
          543, 542, 437, -1,
          440, 543, 438, -1,
          546, 543, 440, -1,
          439, 546, 440, -1,
          548, 546, 439, -1,
          442, 548, 439, -1,
          550, 548, 442, -1,
          552, 550, 442, -1,
          552, 442, 441, -1,
          445, 552, 441, -1,
          554, 552, 445, -1,
          556, 554, 445, -1,
          556, 445, 444, -1,
          448, 556, 444, -1,
          558, 556, 448, -1,
          560, 448, 447, -1,
          560, 558, 448, -1,
          450, 560, 447, -1,
          562, 560, 450, -1,
          449, 562, 450, -1,
          564, 562, 449, -1,
          451, 564, 449, -1,
          566, 564, 451, -1,
          567, 451, 453, -1,
          567, 566, 451, -1,
          454, 567, 453, -1,
          570, 567, 454, -1,
          572, 454, 452, -1,
          572, 570, 454, -1,
          455, 572, 452, -1,
          574, 572, 455, -1,
          456, 574, 455, -1,
          576, 574, 456, -1,
          458, 576, 456, -1,
          578, 576, 458, -1,
          580, 458, 457, -1,
          580, 578, 458, -1,
          461, 580, 457, -1,
          582, 580, 461, -1,
          459, 582, 461, -1,
          584, 582, 459, -1,
          460, 584, 459, -1,
          585, 584, 460, -1,
          2, 585, 460, -1,
          1, 585, 2, -1
        ]
      }
    }
}
