{"asset":{"version":"2.0","generator":"microscope_builder_4 scripts/catalog/dedupe-mounted-lens-housings.mjs"},"scene":0,"scenes":[{"nodes":[0]}],"nodes":[{"mesh":0}],"meshes":[{"primitives":[{"attributes":{"POSITION":1,"NORMAL":2},"indices":0,"mode":4},{"attributes":{"POSITION":4,"NORMAL":5},"indices":3,"mode":4},{"attributes":{"POSITION":7,"NORMAL":8},"indices":6,"mode":4}]}],"buffers":[{"uri":"la4052-ml.bin","byteLength":153516}],"bufferViews":[{"buffer":0,"byteOffset":0,"byteLength":45096,"target":34963},{"buffer":0,"byteOffset":45096,"byteLength":45096,"target":34962},{"buffer":0,"byteOffset":90192,"byteLength":45096,"target":34962},{"buffer":0,"byteOffset":135288,"byteLength":3936,"target":34963},{"buffer":0,"byteOffset":139224,"byteLength":3936,"target":34962},{"buffer":0,"byteOffset":143160,"byteLength":3936,"target":34962},{"buffer":0,"byteOffset":147096,"byteLength":2124,"target":34963},{"buffer":0,"byteOffset":149220,"byteLength":2148,"target":34962},{"buffer":0,"byteOffset":151368,"byteLength":2148,"target":34962}],"accessors":[{"bufferView":0,"componentType":5123,"count":22548,"type":"SCALAR"},{"bufferView":1,"componentType":5126,"count":3758,"type":"VEC3","min":[-12.954000473022461,-15.239999771118164,-15.239999771118164],"max":[0,15.239999771118164,15.239999771118164]},{"bufferView":2,"componentType":5126,"count":3758,"type":"VEC3"},{"bufferView":3,"componentType":5123,"count":1968,"type":"SCALAR"},{"bufferView":4,"componentType":5126,"count":328,"type":"VEC3","min":[-5.943999767303467,-13.144000053405762,-13.144000053405762],"max":[-3.9119999408721924,13.144000053405762,13.144000053405762]},{"bufferView":5,"componentType":5126,"count":328,"type":"VEC3"},{"bufferView":6,"componentType":5123,"count":1062,"type":"SCALAR"},{"bufferView":7,"componentType":5126,"count":179,"type":"VEC3","min":[-9.144000053405762,-12.690999984741211,-12.690999984741211],"max":[-0.9440000057220459,12.690999984741211,12.690999984741211]},{"bufferView":8,"componentType":5126,"count":179,"type":"VEC3"}]}
