#VRML V2.0 utf8
WorldInfo {
  title "Exported triangle mesh to VRML97"
  info ["Created by FreeCAD"
        "<https://www.freecad.org>"]
}

Transform {
  scale 1 1 1
  rotation 0 0 1 0
  scaleOrientation 0 0 1 0
  center 0.000 0.000 0.000
  translation 0.000 0.000 0.000
  children
    Shape { 
      appearance
      Appearance {
        material
        Material {
          diffuseColor 0.8 0.8 0.8
        }
      }
      geometry
      IndexedFaceSet {
        coord
        Coordinate {
          point [
            -1.350 0.621 -12.435,
            -1.100 0.000 -12.700,
            -1.350 0.000 -12.450,
            -1.100 0.633 -12.684,
            -1.350 1.240 -12.388,
            -1.100 1.265 -12.637,
            -1.350 1.856 -12.311,
            -1.100 1.893 -12.558,
            -1.350 2.467 -12.203,
            -1.100 2.516 -12.448,
            -1.350 3.072 -12.065,
            -1.100 3.134 -12.307,
            -1.350 3.670 -11.897,
            -1.100 3.743 -12.136,
            -1.350 4.258 -11.699,
            -1.100 4.344 -11.934,
            -1.350 4.836 -11.472,
            -1.100 4.933 -11.703,
            -1.350 5.402 -11.217,
            -1.100 5.510 -11.442,
            -1.350 5.954 -10.934,
            -1.100 6.074 -11.153,
            -1.350 6.492 -10.623,
            -1.100 6.622 -10.837,
            -1.350 7.013 -10.287,
            -1.100 7.154 -10.493,
            -1.350 7.517 -9.924,
            -1.100 7.668 -10.124,
            -1.350 8.003 -9.537,
            -1.100 8.163 -9.729,
            -1.350 8.468 -9.126,
            -1.100 8.638 -9.310,
            -1.350 8.913 -8.693,
            -1.100 9.092 -8.868,
            -1.350 9.335 -8.238,
            -1.100 9.522 -8.403,
            -1.350 9.734 -7.762,
            -1.100 9.929 -7.918,
            -1.350 10.109 -7.268,
            -1.100 10.312 -7.414,
            -1.350 10.458 -6.755,
            -1.100 10.668 -6.890,
            -1.350 10.782 -6.225,
            -1.100 10.999 -6.350,
            -1.350 11.079 -5.680,
            -1.100 11.301 -5.794,
            -1.350 11.348 -5.121,
            -1.100 11.576 -5.223,
            -1.350 11.589 -4.548,
            -1.100 11.822 -4.640,
            -1.350 11.802 -3.965,
            -1.100 12.039 -4.045,
            -1.350 11.985 -3.372,
            -1.100 12.225 -3.440,
            -1.350 12.138 -2.770,
            -1.100 12.382 -2.826,
            -1.350 12.261 -2.162,
            -1.100 12.507 -2.205,
            -1.350 12.353 -1.548,
            -1.100 12.601 -1.579,
            -1.350 12.415 -0.930,
            -1.100 12.664 -0.949,
            -1.350 12.446 -0.310,
            -1.100 12.696 -0.317,
            -1.350 12.446 0.310,
            -1.100 12.696 0.317,
            -1.100 12.664 0.949,
            -1.350 12.415 0.930,
            -1.350 12.353 1.548,
            -1.100 12.601 1.579,
            -1.350 12.261 2.162,
            -1.100 12.507 2.205,
            -1.350 12.138 2.770,
            -1.100 12.382 2.826,
            -1.100 12.225 3.440,
            -1.350 11.985 3.372,
            -1.350 11.802 3.965,
            -1.100 12.039 4.045,
            -1.350 11.589 4.548,
            -1.100 11.822 4.640,
            -1.350 11.348 5.121,
            -1.100 11.576 5.223,
            -1.350 11.079 5.680,
            -1.100 11.301 5.794,
            -1.100 10.999 6.350,
            -1.350 10.782 6.225,
            -1.350 10.458 6.755,
            -1.100 10.668 6.890,
            -1.350 10.109 7.268,
            -1.100 10.312 7.414,
            -1.100 9.929 7.918,
            -1.350 9.734 7.762,
            -1.350 9.335 8.238,
            -1.100 9.522 8.403,
            -1.100 9.092 8.868,
            -1.350 8.913 8.693,
            -1.350 8.468 9.126,
            -1.100 8.638 9.310,
            -1.100 8.163 9.729,
            -1.350 8.003 9.537,
            -1.100 7.668 10.124,
            -1.350 7.517 9.924,
            -1.100 7.154 10.493,
            -1.350 7.013 10.287,
            -1.100 6.622 10.837,
            -1.350 6.492 10.623,
            -1.350 5.954 10.934,
            -1.100 6.074 11.153,
            -1.350 5.402 11.217,
            -1.100 5.510 11.442,
            -1.100 4.933 11.703,
            -1.350 4.836 11.472,
            -1.100 4.344 11.934,
            -1.350 4.258 11.699,
            -1.100 3.743 12.136,
            -1.350 3.670 11.897,
            -1.350 3.072 12.065,
            -1.100 3.134 12.307,
            -1.100 2.516 12.448,
            -1.350 2.467 12.203,
            -1.100 1.893 12.558,
            -1.350 1.856 12.311,
            -1.350 1.240 12.388,
            -1.100 1.265 12.637,
            -1.100 0.633 12.684,
            -1.350 0.621 12.435,
            -1.350 0.000 12.450,
            -1.100 0.000 12.700,
            0.677 0.621 12.436,
            0.400 0.000 12.700,
            0.677 0.000 12.452,
            0.400 0.633 12.684,
            0.677 1.240 12.390,
            0.400 1.265 12.637,
            0.677 1.856 12.313,
            0.400 1.893 12.558,
            0.677 2.467 12.205,
            0.400 2.516 12.448,
            0.677 3.073 12.067,
            0.400 3.134 12.307,
            0.677 3.670 11.899,
            0.400 3.743 12.136,
            0.677 4.259 11.701,
            0.400 4.344 11.934,
            0.677 4.837 11.474,
            0.400 4.933 11.703,
            0.677 5.403 11.219,
            0.400 5.510 11.442,
            0.677 5.955 10.935,
            0.400 6.074 11.153,
            0.677 6.493 10.625,
            0.400 6.622 10.837,
            0.677 7.014 10.288,
            0.400 7.154 10.493,
            0.677 7.518 9.926,
            0.400 7.668 10.124,
            0.677 8.004 9.539,
            0.400 8.163 9.729,
            0.677 8.469 9.128,
            0.400 8.638 9.310,
            0.677 8.914 8.694,
            0.400 9.092 8.868,
            0.677 9.336 8.239,
            0.400 9.522 8.403,
            0.677 9.735 7.764,
            0.400 9.929 7.918,
            0.677 10.110 7.269,
            0.400 10.312 7.414,
            0.677 10.460 6.756,
            0.400 10.668 6.890,
            0.677 10.784 6.226,
            0.400 10.999 6.350,
            0.677 11.080 5.681,
            0.400 11.301 5.794,
            0.677 11.350 5.121,
            0.400 11.576 5.223,
            0.677 11.591 4.549,
            0.400 11.822 4.640,
            0.677 11.803 3.966,
            0.400 12.039 4.045,
            0.677 11.986 3.372,
            0.400 12.225 3.440,
            0.677 12.140 2.771,
            0.400 12.382 2.826,
            0.677 12.263 2.162,
            0.400 12.507 2.205,
            0.677 12.355 1.548,
            0.400 12.601 1.579,
            0.677 12.417 0.931,
            0.400 12.664 0.949,
            0.677 12.448 0.310,
            0.400 12.696 0.317,
            0.400 12.696 -0.317,
            0.677 12.448 -0.310,
            0.677 12.417 -0.931,
            0.400 12.664 -0.949,
            0.677 12.355 -1.548,
            0.400 12.601 -1.579,
            0.677 12.263 -2.162,
            0.400 12.507 -2.205,
            0.677 12.140 -2.771,
            0.400 12.382 -2.826,
            0.677 11.986 -3.372,
            0.400 12.225 -3.440,
            0.400 12.039 -4.045,
            0.677 11.803 -3.966,
            0.677 11.591 -4.549,
            0.400 11.822 -4.640,
            0.400 11.576 -5.223,
            0.677 11.350 -5.121,
            0.400 11.301 -5.794,
            0.677 11.080 -5.681,
            0.400 10.999 -6.350,
            0.677 10.784 -6.226,
            0.400 10.668 -6.890,
            0.677 10.460 -6.756,
            0.677 10.110 -7.269,
            0.400 10.312 -7.414,
            0.400 9.929 -7.918,
            0.677 9.735 -7.764,
            0.400 9.522 -8.403,
            0.677 9.336 -8.239,
            0.400 9.092 -8.868,
            0.677 8.914 -8.694,
            0.400 8.638 -9.310,
            0.677 8.469 -9.128,
            0.400 8.163 -9.729,
            0.677 8.004 -9.539,
            0.400 7.668 -10.124,
            0.677 7.518 -9.926,
            0.677 7.014 -10.288,
            0.400 7.154 -10.493,
            0.400 6.622 -10.837,
            0.677 6.493 -10.625,
            0.400 6.074 -11.153,
            0.677 5.955 -10.935,
            0.400 5.510 -11.442,
            0.677 5.403 -11.219,
            0.400 4.933 -11.703,
            0.677 4.837 -11.474,
            0.400 4.344 -11.934,
            0.677 4.259 -11.701,
            0.677 3.670 -11.899,
            0.400 3.743 -12.136,
            0.400 3.134 -12.307,
            0.677 3.073 -12.067,
            0.400 2.516 -12.448,
            0.677 2.467 -12.205,
            0.400 1.893 -12.558,
            0.677 1.856 -12.313,
            0.400 1.265 -12.637,
            0.677 1.240 -12.390,
            0.677 0.621 -12.436,
            0.400 0.633 -12.684,
            0.400 0.000 -12.700,
            0.677 0.000 -12.452,
            1.052 0.000 8.310,
            1.052 0.000 -8.310,
            1.276 0.242 4.151,
            1.276 0.000 4.158,
            1.350 0.000 0.000,
            1.276 0.483 4.130,
            1.276 0.722 4.095,
            1.276 0.959 4.046,
            1.276 1.192 3.983,
            1.276 1.422 3.907,
            1.276 1.647 3.818,
            1.276 1.866 3.716,
            1.276 2.079 3.601,
            1.276 2.285 3.474,
            1.276 2.483 3.335,
            1.276 2.673 3.185,
            1.052 0.483 8.296,
            1.276 2.853 3.024,
            1.052 0.965 8.254,
            1.276 3.024 2.853,
            1.052 1.443 8.184,
            1.276 3.185 2.673,
            1.052 1.916 8.086,
            1.276 3.335 2.483,
            1.052 2.383 7.961,
            1.276 3.474 2.285,
            1.052 2.842 7.809,
            1.276 3.601 2.079,
            1.052 3.292 7.631,
            1.276 3.716 1.866,
            1.052 3.730 7.426,
            1.276 3.818 1.647,
            1.052 4.155 7.197,
            1.276 3.907 1.422,
            1.052 4.567 6.943,
            1.276 3.983 1.192,
            1.052 4.963 6.666,
            1.276 4.046 0.959,
            1.052 5.342 6.366,
            1.276 4.095 0.722,
            1.052 5.703 6.045,
            1.276 4.130 0.483,
            1.052 6.045 5.703,
            1.276 4.151 0.242,
            1.052 6.366 5.342,
            1.276 4.158 0.000,
            1.052 6.666 4.963,
            1.276 4.151 -0.242,
            1.052 6.943 4.567,
            1.276 4.130 -0.483,
            1.052 7.197 4.155,
            1.276 4.095 -0.722,
            1.052 7.426 3.730,
            1.276 4.046 -0.959,
            1.052 7.631 3.292,
            1.276 3.983 -1.192,
            1.052 7.809 2.842,
            1.276 3.907 -1.422,
            1.052 7.961 2.383,
            1.276 3.818 -1.647,
            1.052 8.086 1.916,
            1.276 3.716 -1.866,
            1.052 8.184 1.443,
            1.276 3.601 -2.079,
            1.052 8.254 0.965,
            1.276 3.474 -2.285,
            1.052 8.296 0.483,
            1.276 3.335 -2.483,
            1.052 8.310 0.000,
            1.276 3.185 -2.673,
            1.052 8.296 -0.483,
            1.276 3.024 -2.853,
            1.052 8.254 -0.965,
            1.276 2.853 -3.024,
            1.052 8.184 -1.443,
            1.276 2.673 -3.185,
            1.052 8.086 -1.916,
            1.276 2.483 -3.335,
            1.052 7.961 -2.383,
            1.276 2.285 -3.474,
            1.052 7.809 -2.842,
            1.276 2.079 -3.601,
            1.052 7.631 -3.292,
            1.276 1.866 -3.716,
            1.052 7.426 -3.730,
            1.276 1.647 -3.818,
            1.052 7.197 -4.155,
            1.276 1.422 -3.907,
            1.052 6.943 -4.567,
            1.276 1.192 -3.983,
            1.052 6.666 -4.963,
            1.276 0.959 -4.046,
            1.052 6.366 -5.342,
            1.276 0.722 -4.095,
            1.052 6.045 -5.703,
            1.276 0.483 -4.130,
            1.052 5.703 -6.045,
            1.276 0.242 -4.151,
            1.276 0.000 -4.158,
            1.052 5.342 -6.366,
            1.052 4.963 -6.666,
            1.052 4.567 -6.943,
            1.052 4.155 -7.197,
            1.052 3.730 -7.426,
            1.052 3.292 -7.631,
            1.052 2.842 -7.809,
            1.052 2.383 -7.961,
            1.052 1.916 -8.086,
            1.052 1.443 -8.184,
            1.052 0.965 -8.254,
            1.052 0.483 -8.296,
            -1.350 -8.468 9.126,
            -1.350 -8.003 9.537,
            -1.350 -8.913 8.693,
            -1.350 -7.517 9.924,
            -1.350 -7.013 10.287,
            -1.350 -6.492 10.623,
            -1.350 -5.954 10.934,
            -1.350 -10.458 6.755,
            -1.350 -11.079 5.680,
            -1.350 -10.782 6.225,
            -1.350 -10.109 7.268,
            -1.350 -9.734 7.762,
            -1.350 -9.335 8.238,
            -1.350 -5.402 11.217,
            -1.350 -11.348 5.121,
            -1.350 -4.836 11.472,
            -1.350 -3.670 11.897,
            -1.350 -4.258 11.699,
            -1.350 -3.072 12.065,
            -1.350 -11.589 4.548,
            -1.350 -11.802 3.965,
            -1.350 -12.138 2.770,
            -1.350 -11.985 3.372,
            -1.350 -2.467 12.203,
            -1.350 -1.856 12.311,
            -1.350 -12.261 2.162,
            -1.350 -12.415 0.930,
            -1.350 -12.353 1.548,
            -1.350 -1.240 12.388,
            -1.350 -0.621 12.435,
            -1.350 -12.415 -0.930,
            -1.350 -12.261 -2.162,
            -1.350 -12.353 -1.548,
            -1.350 -12.446 -0.310,
            -1.350 -12.446 0.310,
            -1.350 -11.985 -3.372,
            -1.350 -12.138 -2.770,
            -1.350 -11.802 -3.965,
            -1.350 -11.348 -5.121,
            -1.350 -11.589 -4.548,
            -1.350 -11.079 -5.680,
            -1.350 -10.109 -7.268,
            -1.350 -10.782 -6.225,
            -1.350 -10.458 -6.755,
            -1.350 -8.913 -8.693,
            -1.350 -9.734 -7.762,
            -1.350 -9.335 -8.238,
            -1.350 -8.468 -9.126,
            -1.350 -8.003 -9.537,
            -1.350 -7.517 -9.924,
            -1.350 -7.013 -10.287,
            -1.350 -6.492 -10.623,
            -1.350 -5.402 -11.217,
            -1.350 -5.954 -10.934,
            -1.350 -4.836 -11.472,
            -1.350 -4.258 -11.699,
            -1.350 -3.072 -12.065,
            -1.350 -3.670 -11.897,
            -1.350 -1.856 -12.311,
            -1.350 -2.467 -12.203,
            -1.350 -1.240 -12.388,
            -1.350 -0.621 -12.435,
            -1.100 -0.633 -12.684,
            0.400 -0.633 -12.684,
            -1.100 -1.265 -12.637,
            0.400 -1.265 -12.637,
            -1.100 -1.893 -12.558,
            0.400 -1.893 -12.558,
            -1.100 -2.516 -12.448,
            0.400 -2.516 -12.448,
            -1.100 -3.134 -12.307,
            0.400 -3.134 -12.307,
            -1.100 -3.743 -12.136,
            0.400 -3.743 -12.136,
            -1.100 -4.344 -11.934,
            0.400 -4.344 -11.934,
            -1.100 -4.933 -11.703,
            0.400 -4.933 -11.703,
            -1.100 -5.510 -11.442,
            0.400 -5.510 -11.442,
            -1.100 -6.074 -11.153,
            0.400 -6.074 -11.153,
            -1.100 -6.622 -10.837,
            0.400 -6.622 -10.837,
            -1.100 -7.154 -10.493,
            0.400 -7.154 -10.493,
            -1.100 -7.668 -10.124,
            0.400 -7.668 -10.124,
            -1.100 -8.163 -9.729,
            0.400 -8.163 -9.729,
            -1.100 -8.638 -9.310,
            0.400 -8.638 -9.310,
            -1.100 -9.092 -8.868,
            0.400 -9.092 -8.868,
            -1.100 -9.522 -8.403,
            0.400 -9.522 -8.403,
            -1.100 -9.929 -7.918,
            0.400 -9.929 -7.918,
            -1.100 -10.312 -7.414,
            0.400 -10.312 -7.414,
            -1.100 -10.668 -6.890,
            0.400 -10.668 -6.890,
            -1.100 -10.999 -6.350,
            0.400 -10.999 -6.350,
            -1.100 -11.301 -5.794,
            0.400 -11.301 -5.794,
            -1.100 -11.576 -5.223,
            0.400 -11.576 -5.223,
            -1.100 -11.822 -4.640,
            0.400 -11.822 -4.640,
            -1.100 -12.039 -4.045,
            0.400 -12.039 -4.045,
            -1.100 -12.225 -3.440,
            0.400 -12.225 -3.440,
            -1.100 -12.382 -2.826,
            0.400 -12.382 -2.826,
            -1.100 -12.507 -2.205,
            0.400 -12.507 -2.205,
            -1.100 -12.601 -1.579,
            0.400 -12.601 -1.579,
            -1.100 -12.664 -0.949,
            0.400 -12.664 -0.949,
            -1.100 -12.696 -0.317,
            0.400 -12.696 -0.317,
            -1.100 -12.696 0.317,
            0.400 -12.696 0.317,
            -1.100 -12.664 0.949,
            0.400 -12.664 0.949,
            -1.100 -12.601 1.579,
            0.400 -12.601 1.579,
            -1.100 -12.507 2.205,
            0.400 -12.507 2.205,
            -1.100 -12.382 2.826,
            0.400 -12.382 2.826,
            -1.100 -12.225 3.440,
            0.400 -12.225 3.440,
            -1.100 -12.039 4.045,
            0.400 -12.039 4.045,
            -1.100 -11.822 4.640,
            0.400 -11.822 4.640,
            -1.100 -11.576 5.223,
            0.400 -11.576 5.223,
            -1.100 -11.301 5.794,
            0.400 -11.301 5.794,
            -1.100 -10.999 6.350,
            0.400 -10.999 6.350,
            -1.100 -10.668 6.890,
            0.400 -10.668 6.890,
            -1.100 -10.312 7.414,
            0.400 -10.312 7.414,
            -1.100 -9.929 7.918,
            0.400 -9.929 7.918,
            -1.100 -9.522 8.403,
            0.400 -9.522 8.403,
            -1.100 -9.092 8.868,
            0.400 -9.092 8.868,
            -1.100 -8.638 9.310,
            0.400 -8.638 9.310,
            -1.100 -8.163 9.729,
            0.400 -8.163 9.729,
            -1.100 -7.668 10.124,
            0.400 -7.668 10.124,
            -1.100 -7.154 10.493,
            0.400 -7.154 10.493,
            -1.100 -6.622 10.837,
            0.400 -6.622 10.837,
            -1.100 -6.074 11.153,
            0.400 -6.074 11.153,
            -1.100 -5.510 11.442,
            0.400 -5.510 11.442,
            -1.100 -4.933 11.703,
            0.400 -4.933 11.703,
            -1.100 -4.344 11.934,
            0.400 -4.344 11.934,
            -1.100 -3.743 12.136,
            0.400 -3.743 12.136,
            -1.100 -3.134 12.307,
            0.400 -3.134 12.307,
            -1.100 -2.516 12.448,
            0.400 -2.516 12.448,
            -1.100 -1.893 12.558,
            0.400 -1.893 12.558,
            -1.100 -1.265 12.637,
            0.400 -1.265 12.637,
            -1.100 -0.633 12.684,
            0.400 -0.633 12.684,
            0.677 -0.621 -12.436,
            0.677 -0.621 12.436,
            1.276 -0.242 -4.151,
            1.276 -0.483 -4.130,
            1.276 -0.722 -4.095,
            1.276 -0.959 -4.046,
            1.276 -1.192 -3.983,
            1.276 -1.422 -3.907,
            1.276 -1.647 -3.818,
            1.276 -1.866 -3.716,
            1.276 -2.079 -3.601,
            1.276 -2.285 -3.474,
            1.276 -2.483 -3.335,
            1.276 -2.673 -3.185,
            1.052 -0.483 -8.296,
            0.677 -1.240 -12.390,
            1.276 -2.853 -3.024,
            1.052 -0.965 -8.254,
            0.677 -1.856 -12.313,
            1.276 -3.024 -2.853,
            1.052 -1.443 -8.184,
            0.677 -2.467 -12.205,
            1.276 -3.185 -2.673,
            1.052 -1.916 -8.086,
            0.677 -3.073 -12.067,
            1.276 -3.335 -2.483,
            1.052 -2.383 -7.961,
            0.677 -3.670 -11.899,
            1.276 -3.474 -2.285,
            1.052 -2.842 -7.809,
            0.677 -4.837 -11.474,
            0.677 -4.259 -11.701,
            1.276 -3.601 -2.079,
            1.052 -3.292 -7.631,
            0.677 -5.403 -11.219,
            1.276 -3.716 -1.866,
            1.052 -3.730 -7.426,
            0.677 -5.955 -10.935,
            1.276 -3.818 -1.647,
            1.052 -4.155 -7.197,
            0.677 -6.493 -10.625,
            1.276 -3.907 -1.422,
            1.052 -4.567 -6.943,
            0.677 -7.014 -10.288,
            1.276 -3.983 -1.192,
            1.052 -4.963 -6.666,
            0.677 -7.518 -9.926,
            1.276 -4.046 -0.959,
            1.052 -5.342 -6.366,
            0.677 -8.469 -9.128,
            0.677 -8.004 -9.539,
            1.276 -4.095 -0.722,
            1.052 -5.703 -6.045,
            0.677 -8.914 -8.694,
            1.276 -4.130 -0.483,
            1.052 -6.045 -5.703,
            0.677 -9.336 -8.239,
            1.276 -4.151 -0.242,
            1.052 -6.366 -5.342,
            0.677 -9.735 -7.764,
            1.276 -4.158 0.000,
            1.052 -6.666 -4.963,
            0.677 -10.110 -7.269,
            1.276 -4.151 0.242,
            1.052 -6.943 -4.567,
            0.677 -10.460 -6.756,
            1.276 -4.130 0.483,
            1.052 -7.197 -4.155,
            0.677 -11.080 -5.681,
            0.677 -10.784 -6.226,
            1.276 -4.095 0.722,
            1.052 -7.426 -3.730,
            0.677 -11.350 -5.121,
            1.276 -4.046 0.959,
            1.052 -7.631 -3.292,
            0.677 -11.591 -4.549,
            1.276 -3.983 1.192,
            1.052 -7.809 -2.842,
            0.677 -11.803 -3.966,
            1.276 -3.907 1.422,
            1.052 -7.961 -2.383,
            0.677 -11.986 -3.372,
            1.276 -3.818 1.647,
            1.052 -8.086 -1.916,
            0.677 -12.140 -2.771,
            1.276 -3.716 1.866,
            1.052 -8.184 -1.443,
            0.677 -12.355 -1.548,
            0.677 -12.263 -2.162,
            1.276 -3.601 2.079,
            1.052 -8.254 -0.965,
            0.677 -12.417 -0.931,
            1.276 -3.474 2.285,
            1.052 -8.296 -0.483,
            0.677 -12.448 -0.310,
            1.276 -3.335 2.483,
            1.052 -8.310 0.000,
            0.677 -12.448 0.310,
            1.276 -3.185 2.673,
            1.052 -8.296 0.483,
            0.677 -12.417 0.931,
            1.276 -3.024 2.853,
            1.052 -8.254 0.965,
            0.677 -12.355 1.548,
            1.276 -2.853 3.024,
            1.052 -8.184 1.443,
            0.677 -12.140 2.771,
            0.677 -12.263 2.162,
            1.276 -2.673 3.185,
            1.052 -8.086 1.916,
            0.677 -11.986 3.372,
            1.276 -2.483 3.335,
            1.052 -7.961 2.383,
            0.677 -11.803 3.966,
            1.276 -2.285 3.474,
            1.052 -7.809 2.842,
            0.677 -11.591 4.549,
            1.276 -2.079 3.601,
            1.052 -7.631 3.292,
            0.677 -11.350 5.121,
            1.276 -1.866 3.716,
            1.052 -7.426 3.730,
            0.677 -11.080 5.681,
            1.276 -1.647 3.818,
            1.052 -7.197 4.155,
            0.677 -10.460 6.756,
            0.677 -10.784 6.226,
            1.276 -1.422 3.907,
            1.052 -6.943 4.567,
            0.677 -10.110 7.269,
            1.276 -1.192 3.983,
            1.052 -6.666 4.963,
            0.677 -9.735 7.764,
            1.276 -0.959 4.046,
            1.052 -6.366 5.342,
            0.677 -9.336 8.239,
            1.276 -0.722 4.095,
            1.052 -6.045 5.703,
            0.677 -8.914 8.694,
            1.276 -0.483 4.130,
            1.052 -5.703 6.045,
            0.677 -8.469 9.128,
            1.276 -0.242 4.151,
            1.052 -5.342 6.366,
            0.677 -7.518 9.926,
            0.677 -8.004 9.539,
            1.052 -4.963 6.666,
            0.677 -7.014 10.288,
            1.052 -4.567 6.943,
            0.677 -6.493 10.625,
            1.052 -4.155 7.197,
            0.677 -5.955 10.935,
            1.052 -3.730 7.426,
            0.677 -5.403 11.219,
            1.052 -3.292 7.631,
            0.677 -4.837 11.474,
            1.052 -2.842 7.809,
            0.677 -3.670 11.899,
            0.677 -4.259 11.701,
            1.052 -2.383 7.961,
            0.677 -3.073 12.067,
            1.052 -1.916 8.086,
            0.677 -2.467 12.205,
            1.052 -1.443 8.184,
            0.677 -1.856 12.313,
            1.052 -0.965 8.254,
            0.677 -1.240 12.390,
            1.052 -0.483 8.296
          ]
        }
        coordIndex [
          0, 1, 2, -1,
          3, 1, 0, -1,
          4, 3, 0, -1,
          5, 3, 4, -1,
          6, 5, 4, -1,
          7, 5, 6, -1,
          8, 7, 6, -1,
          9, 7, 8, -1,
          10, 9, 8, -1,
          11, 9, 10, -1,
          12, 11, 10, -1,
          13, 11, 12, -1,
          14, 13, 12, -1,
          15, 13, 14, -1,
          16, 15, 14, -1,
          17, 15, 16, -1,
          18, 17, 16, -1,
          19, 17, 18, -1,
          20, 19, 18, -1,
          21, 19, 20, -1,
          22, 21, 20, -1,
          23, 21, 22, -1,
          24, 23, 22, -1,
          25, 23, 24, -1,
          26, 25, 24, -1,
          27, 25, 26, -1,
          28, 27, 26, -1,
          29, 27, 28, -1,
          30, 29, 28, -1,
          31, 29, 30, -1,
          32, 31, 30, -1,
          33, 31, 32, -1,
          34, 33, 32, -1,
          35, 33, 34, -1,
          36, 35, 34, -1,
          37, 35, 36, -1,
          38, 37, 36, -1,
          39, 37, 38, -1,
          40, 39, 38, -1,
          41, 39, 40, -1,
          42, 41, 40, -1,
          43, 41, 42, -1,
          44, 43, 42, -1,
          45, 43, 44, -1,
          46, 45, 44, -1,
          47, 45, 46, -1,
          48, 47, 46, -1,
          49, 47, 48, -1,
          50, 49, 48, -1,
          51, 49, 50, -1,
          52, 51, 50, -1,
          53, 51, 52, -1,
          54, 53, 52, -1,
          55, 53, 54, -1,
          56, 55, 54, -1,
          57, 55, 56, -1,
          58, 57, 56, -1,
          59, 57, 58, -1,
          60, 59, 58, -1,
          61, 59, 60, -1,
          62, 61, 60, -1,
          63, 61, 62, -1,
          64, 63, 62, -1,
          65, 63, 64, -1,
          66, 64, 67, -1,
          66, 65, 64, -1,
          68, 66, 67, -1,
          69, 66, 68, -1,
          70, 69, 68, -1,
          71, 69, 70, -1,
          72, 71, 70, -1,
          73, 71, 72, -1,
          74, 72, 75, -1,
          74, 73, 72, -1,
          76, 74, 75, -1,
          77, 74, 76, -1,
          78, 77, 76, -1,
          79, 77, 78, -1,
          80, 79, 78, -1,
          81, 79, 80, -1,
          82, 81, 80, -1,
          83, 81, 82, -1,
          84, 82, 85, -1,
          84, 83, 82, -1,
          86, 84, 85, -1,
          87, 84, 86, -1,
          88, 87, 86, -1,
          89, 87, 88, -1,
          90, 89, 88, -1,
          90, 88, 91, -1,
          92, 90, 91, -1,
          93, 90, 92, -1,
          94, 93, 92, -1,
          94, 92, 95, -1,
          96, 94, 95, -1,
          97, 94, 96, -1,
          98, 96, 99, -1,
          98, 97, 96, -1,
          100, 99, 101, -1,
          100, 98, 99, -1,
          102, 101, 103, -1,
          102, 100, 101, -1,
          104, 103, 105, -1,
          104, 102, 103, -1,
          106, 104, 105, -1,
          107, 104, 106, -1,
          108, 107, 106, -1,
          109, 107, 108, -1,
          110, 108, 111, -1,
          110, 109, 108, -1,
          112, 111, 113, -1,
          112, 110, 111, -1,
          114, 113, 115, -1,
          114, 112, 113, -1,
          116, 114, 115, -1,
          117, 114, 116, -1,
          118, 116, 119, -1,
          118, 117, 116, -1,
          120, 119, 121, -1,
          120, 118, 119, -1,
          122, 120, 121, -1,
          123, 120, 122, -1,
          124, 122, 125, -1,
          124, 123, 122, -1,
          126, 124, 125, -1,
          127, 124, 126, -1,
          128, 129, 130, -1,
          131, 129, 128, -1,
          132, 131, 128, -1,
          133, 131, 132, -1,
          134, 133, 132, -1,
          135, 133, 134, -1,
          136, 135, 134, -1,
          137, 135, 136, -1,
          138, 137, 136, -1,
          139, 137, 138, -1,
          140, 139, 138, -1,
          141, 139, 140, -1,
          142, 141, 140, -1,
          143, 141, 142, -1,
          144, 143, 142, -1,
          145, 143, 144, -1,
          146, 145, 144, -1,
          147, 145, 146, -1,
          148, 147, 146, -1,
          149, 147, 148, -1,
          150, 149, 148, -1,
          151, 149, 150, -1,
          152, 151, 150, -1,
          153, 151, 152, -1,
          154, 153, 152, -1,
          155, 153, 154, -1,
          156, 155, 154, -1,
          157, 155, 156, -1,
          158, 157, 156, -1,
          159, 157, 158, -1,
          160, 159, 158, -1,
          161, 159, 160, -1,
          162, 161, 160, -1,
          163, 161, 162, -1,
          164, 163, 162, -1,
          165, 163, 164, -1,
          166, 165, 164, -1,
          167, 165, 166, -1,
          168, 167, 166, -1,
          169, 167, 168, -1,
          170, 169, 168, -1,
          171, 169, 170, -1,
          172, 171, 170, -1,
          173, 171, 172, -1,
          174, 173, 172, -1,
          175, 173, 174, -1,
          176, 175, 174, -1,
          177, 175, 176, -1,
          178, 177, 176, -1,
          179, 177, 178, -1,
          180, 179, 178, -1,
          181, 179, 180, -1,
          182, 181, 180, -1,
          183, 181, 182, -1,
          184, 183, 182, -1,
          185, 183, 184, -1,
          186, 185, 184, -1,
          187, 185, 186, -1,
          188, 187, 186, -1,
          189, 187, 188, -1,
          190, 189, 188, -1,
          191, 189, 190, -1,
          192, 190, 193, -1,
          192, 191, 190, -1,
          194, 192, 193, -1,
          195, 192, 194, -1,
          196, 195, 194, -1,
          197, 195, 196, -1,
          198, 197, 196, -1,
          199, 197, 198, -1,
          200, 199, 198, -1,
          201, 199, 200, -1,
          202, 201, 200, -1,
          203, 201, 202, -1,
          204, 202, 205, -1,
          204, 203, 202, -1,
          206, 204, 205, -1,
          207, 204, 206, -1,
          208, 206, 209, -1,
          208, 207, 206, -1,
          210, 209, 211, -1,
          210, 208, 209, -1,
          212, 211, 213, -1,
          212, 210, 211, -1,
          214, 213, 215, -1,
          214, 212, 213, -1,
          216, 214, 215, -1,
          217, 214, 216, -1,
          218, 217, 216, -1,
          218, 216, 219, -1,
          220, 218, 219, -1,
          220, 219, 221, -1,
          222, 220, 221, -1,
          222, 221, 223, -1,
          224, 223, 225, -1,
          224, 222, 223, -1,
          226, 225, 227, -1,
          226, 224, 225, -1,
          228, 227, 229, -1,
          228, 226, 227, -1,
          230, 228, 229, -1,
          231, 228, 230, -1,
          232, 230, 233, -1,
          232, 231, 230, -1,
          234, 233, 235, -1,
          234, 232, 233, -1,
          236, 235, 237, -1,
          236, 234, 235, -1,
          238, 237, 239, -1,
          238, 236, 237, -1,
          240, 239, 241, -1,
          240, 238, 239, -1,
          242, 240, 241, -1,
          243, 240, 242, -1,
          244, 242, 245, -1,
          244, 243, 242, -1,
          246, 245, 247, -1,
          246, 244, 245, -1,
          248, 247, 249, -1,
          248, 246, 247, -1,
          250, 249, 251, -1,
          250, 248, 249, -1,
          252, 250, 251, -1,
          253, 250, 252, -1,
          254, 252, 255, -1,
          254, 253, 252, -1,
          128, 130, 256, -1,
          255, 252, 257, -1,
          258, 259, 260, -1,
          261, 258, 260, -1,
          262, 261, 260, -1,
          263, 262, 260, -1,
          264, 263, 260, -1,
          265, 264, 260, -1,
          266, 265, 260, -1,
          267, 266, 260, -1,
          268, 267, 260, -1,
          269, 268, 260, -1,
          270, 269, 260, -1,
          271, 270, 260, -1,
          272, 256, 259, -1,
          272, 132, 128, -1,
          272, 128, 256, -1,
          272, 259, 258, -1,
          273, 271, 260, -1,
          274, 132, 272, -1,
          274, 272, 258, -1,
          274, 134, 132, -1,
          274, 258, 261, -1,
          275, 273, 260, -1,
          276, 136, 134, -1,
          276, 134, 274, -1,
          276, 274, 261, -1,
          276, 261, 262, -1,
          277, 275, 260, -1,
          278, 276, 262, -1,
          278, 136, 276, -1,
          278, 138, 136, -1,
          278, 262, 263, -1,
          279, 277, 260, -1,
          280, 138, 278, -1,
          280, 278, 263, -1,
          280, 263, 264, -1,
          280, 140, 138, -1,
          281, 279, 260, -1,
          282, 280, 264, -1,
          282, 140, 280, -1,
          282, 264, 265, -1,
          282, 144, 142, -1,
          282, 142, 140, -1,
          283, 281, 260, -1,
          284, 265, 266, -1,
          284, 282, 265, -1,
          284, 146, 144, -1,
          284, 144, 282, -1,
          285, 283, 260, -1,
          286, 266, 267, -1,
          286, 146, 284, -1,
          286, 148, 146, -1,
          286, 284, 266, -1,
          287, 285, 260, -1,
          288, 286, 267, -1,
          288, 268, 269, -1,
          288, 148, 286, -1,
          288, 267, 268, -1,
          288, 150, 148, -1,
          289, 287, 260, -1,
          290, 150, 288, -1,
          290, 152, 150, -1,
          290, 288, 269, -1,
          291, 289, 260, -1,
          292, 152, 290, -1,
          292, 290, 269, -1,
          292, 154, 152, -1,
          292, 269, 270, -1,
          293, 291, 260, -1,
          294, 154, 292, -1,
          294, 292, 270, -1,
          294, 158, 156, -1,
          294, 156, 154, -1,
          294, 270, 271, -1,
          295, 293, 260, -1,
          296, 158, 294, -1,
          296, 273, 275, -1,
          296, 294, 271, -1,
          296, 160, 158, -1,
          296, 271, 273, -1,
          297, 295, 260, -1,
          298, 160, 296, -1,
          298, 296, 275, -1,
          298, 162, 160, -1,
          299, 297, 260, -1,
          300, 275, 277, -1,
          300, 298, 275, -1,
          300, 164, 162, -1,
          300, 162, 298, -1,
          301, 299, 260, -1,
          302, 277, 279, -1,
          302, 164, 300, -1,
          302, 300, 277, -1,
          302, 166, 164, -1,
          303, 301, 260, -1,
          304, 166, 302, -1,
          304, 168, 166, -1,
          304, 302, 279, -1,
          304, 279, 281, -1,
          305, 303, 260, -1,
          306, 283, 285, -1,
          306, 172, 170, -1,
          306, 170, 168, -1,
          306, 168, 304, -1,
          306, 304, 281, -1,
          306, 281, 283, -1,
          307, 305, 260, -1,
          308, 174, 172, -1,
          308, 172, 306, -1,
          308, 306, 285, -1,
          309, 307, 260, -1,
          310, 174, 308, -1,
          310, 176, 174, -1,
          310, 285, 287, -1,
          310, 308, 285, -1,
          311, 309, 260, -1,
          312, 176, 310, -1,
          312, 178, 176, -1,
          312, 287, 289, -1,
          312, 310, 287, -1,
          313, 311, 260, -1,
          314, 312, 289, -1,
          314, 180, 178, -1,
          314, 178, 312, -1,
          314, 289, 291, -1,
          315, 313, 260, -1,
          316, 293, 295, -1,
          316, 180, 314, -1,
          316, 182, 180, -1,
          316, 291, 293, -1,
          316, 314, 291, -1,
          317, 315, 260, -1,
          318, 186, 184, -1,
          318, 184, 182, -1,
          318, 295, 297, -1,
          318, 316, 295, -1,
          318, 182, 316, -1,
          319, 317, 260, -1,
          320, 318, 297, -1,
          320, 188, 186, -1,
          320, 186, 318, -1,
          321, 319, 260, -1,
          322, 320, 297, -1,
          322, 188, 320, -1,
          322, 190, 188, -1,
          322, 299, 301, -1,
          322, 297, 299, -1,
          323, 321, 260, -1,
          324, 190, 322, -1,
          324, 322, 301, -1,
          324, 193, 190, -1,
          325, 323, 260, -1,
          326, 193, 324, -1,
          326, 194, 193, -1,
          326, 301, 303, -1,
          326, 324, 301, -1,
          327, 325, 260, -1,
          328, 326, 303, -1,
          328, 194, 326, -1,
          328, 196, 194, -1,
          328, 303, 305, -1,
          328, 305, 307, -1,
          329, 327, 260, -1,
          330, 196, 328, -1,
          330, 200, 198, -1,
          330, 198, 196, -1,
          330, 328, 307, -1,
          331, 329, 260, -1,
          332, 330, 307, -1,
          332, 202, 200, -1,
          332, 200, 330, -1,
          332, 307, 309, -1,
          333, 331, 260, -1,
          334, 311, 313, -1,
          334, 205, 202, -1,
          334, 332, 309, -1,
          334, 202, 332, -1,
          334, 309, 311, -1,
          335, 333, 260, -1,
          336, 334, 313, -1,
          336, 206, 205, -1,
          336, 205, 334, -1,
          337, 335, 260, -1,
          338, 336, 313, -1,
          338, 209, 206, -1,
          338, 206, 336, -1,
          338, 313, 315, -1,
          338, 315, 317, -1,
          339, 337, 260, -1,
          340, 211, 209, -1,
          340, 209, 338, -1,
          340, 338, 317, -1,
          341, 339, 260, -1,
          342, 317, 319, -1,
          342, 319, 321, -1,
          342, 215, 213, -1,
          342, 213, 211, -1,
          342, 340, 317, -1,
          342, 211, 340, -1,
          343, 341, 260, -1,
          344, 216, 215, -1,
          344, 215, 342, -1,
          344, 342, 321, -1,
          345, 343, 260, -1,
          346, 321, 323, -1,
          346, 219, 216, -1,
          346, 216, 344, -1,
          346, 344, 321, -1,
          347, 345, 260, -1,
          348, 221, 219, -1,
          348, 346, 323, -1,
          348, 323, 325, -1,
          348, 325, 327, -1,
          348, 219, 346, -1,
          349, 347, 260, -1,
          350, 221, 348, -1,
          350, 223, 221, -1,
          350, 327, 329, -1,
          350, 348, 327, -1,
          351, 349, 260, -1,
          352, 225, 223, -1,
          352, 350, 329, -1,
          352, 223, 350, -1,
          353, 260, 354, -1,
          353, 351, 260, -1,
          355, 229, 227, -1,
          355, 227, 225, -1,
          355, 329, 331, -1,
          355, 331, 333, -1,
          355, 352, 329, -1,
          355, 225, 352, -1,
          356, 230, 229, -1,
          356, 229, 355, -1,
          356, 355, 333, -1,
          357, 230, 356, -1,
          357, 233, 230, -1,
          357, 333, 335, -1,
          357, 335, 337, -1,
          357, 356, 333, -1,
          358, 235, 233, -1,
          358, 357, 337, -1,
          358, 233, 357, -1,
          359, 237, 235, -1,
          359, 358, 337, -1,
          359, 235, 358, -1,
          359, 337, 339, -1,
          359, 339, 341, -1,
          360, 239, 237, -1,
          360, 237, 359, -1,
          360, 359, 341, -1,
          360, 341, 343, -1,
          361, 239, 360, -1,
          361, 242, 241, -1,
          361, 241, 239, -1,
          361, 360, 343, -1,
          361, 343, 345, -1,
          362, 242, 361, -1,
          362, 245, 242, -1,
          362, 361, 345, -1,
          363, 247, 245, -1,
          363, 245, 362, -1,
          363, 362, 345, -1,
          363, 345, 347, -1,
          364, 347, 349, -1,
          364, 247, 363, -1,
          364, 249, 247, -1,
          364, 363, 347, -1,
          365, 364, 349, -1,
          365, 349, 351, -1,
          365, 251, 249, -1,
          365, 351, 353, -1,
          365, 249, 364, -1,
          366, 354, 257, -1,
          366, 252, 251, -1,
          366, 257, 252, -1,
          366, 353, 354, -1,
          366, 251, 365, -1,
          366, 365, 353, -1,
          124, 129, 131, -1,
          124, 127, 129, -1,
          123, 131, 133, -1,
          123, 124, 131, -1,
          120, 133, 135, -1,
          120, 123, 133, -1,
          118, 135, 137, -1,
          118, 120, 135, -1,
          117, 137, 139, -1,
          117, 118, 137, -1,
          114, 139, 141, -1,
          114, 117, 139, -1,
          112, 141, 143, -1,
          112, 114, 141, -1,
          110, 143, 145, -1,
          110, 112, 143, -1,
          109, 145, 147, -1,
          109, 110, 145, -1,
          107, 147, 149, -1,
          107, 109, 147, -1,
          104, 149, 151, -1,
          104, 107, 149, -1,
          102, 151, 153, -1,
          102, 104, 151, -1,
          100, 153, 155, -1,
          100, 102, 153, -1,
          98, 155, 157, -1,
          98, 100, 155, -1,
          97, 157, 159, -1,
          97, 98, 157, -1,
          94, 159, 161, -1,
          94, 97, 159, -1,
          93, 161, 163, -1,
          93, 163, 165, -1,
          93, 94, 161, -1,
          90, 93, 165, -1,
          90, 165, 167, -1,
          89, 90, 167, -1,
          87, 89, 167, -1,
          87, 167, 169, -1,
          87, 169, 171, -1,
          84, 87, 171, -1,
          83, 84, 171, -1,
          83, 171, 173, -1,
          81, 173, 175, -1,
          81, 175, 177, -1,
          81, 83, 173, -1,
          79, 81, 177, -1,
          77, 177, 179, -1,
          77, 179, 181, -1,
          77, 79, 177, -1,
          74, 181, 183, -1,
          74, 77, 181, -1,
          73, 74, 183, -1,
          71, 183, 185, -1,
          71, 73, 183, -1,
          69, 185, 187, -1,
          69, 187, 189, -1,
          69, 71, 185, -1,
          66, 69, 189, -1,
          65, 189, 191, -1,
          65, 191, 192, -1,
          65, 66, 189, -1,
          63, 65, 192, -1,
          61, 192, 195, -1,
          61, 195, 197, -1,
          61, 63, 192, -1,
          59, 197, 199, -1,
          59, 61, 197, -1,
          57, 199, 201, -1,
          57, 59, 199, -1,
          55, 57, 201, -1,
          53, 201, 203, -1,
          53, 203, 204, -1,
          53, 55, 201, -1,
          51, 53, 204, -1,
          49, 204, 207, -1,
          49, 51, 204, -1,
          47, 207, 208, -1,
          47, 208, 210, -1,
          47, 49, 207, -1,
          45, 210, 212, -1,
          45, 47, 210, -1,
          43, 45, 212, -1,
          41, 43, 212, -1,
          41, 212, 214, -1,
          39, 41, 214, -1,
          39, 214, 217, -1,
          37, 39, 217, -1,
          37, 217, 218, -1,
          35, 37, 218, -1,
          35, 218, 220, -1,
          33, 35, 220, -1,
          33, 220, 222, -1,
          31, 33, 222, -1,
          31, 222, 224, -1,
          29, 31, 224, -1,
          29, 224, 226, -1,
          27, 29, 226, -1,
          27, 226, 228, -1,
          25, 27, 228, -1,
          25, 228, 231, -1,
          23, 25, 231, -1,
          23, 231, 232, -1,
          23, 232, 234, -1,
          21, 23, 234, -1,
          19, 21, 234, -1,
          19, 234, 236, -1,
          17, 19, 236, -1,
          17, 236, 238, -1,
          17, 238, 240, -1,
          15, 17, 240, -1,
          13, 240, 243, -1,
          13, 15, 240, -1,
          11, 243, 244, -1,
          11, 13, 243, -1,
          9, 244, 246, -1,
          9, 11, 244, -1,
          7, 246, 248, -1,
          7, 9, 246, -1,
          5, 248, 250, -1,
          5, 7, 248, -1,
          3, 250, 253, -1,
          3, 5, 250, -1,
          1, 253, 254, -1,
          1, 3, 253, -1,
          367, 368, 369, -1,
          370, 371, 368, -1,
          372, 373, 371, -1,
          374, 375, 376, -1,
          377, 375, 374, -1,
          378, 375, 377, -1,
          379, 375, 378, -1,
          369, 375, 379, -1,
          373, 380, 371, -1,
          371, 380, 368, -1,
          368, 381, 369, -1,
          369, 381, 375, -1,
          382, 383, 380, -1,
          384, 383, 382, -1,
          380, 383, 368, -1,
          381, 385, 386, -1,
          368, 385, 381, -1,
          383, 385, 368, -1,
          387, 388, 389, -1,
          386, 388, 387, -1,
          390, 391, 385, -1,
          392, 393, 394, -1,
          125, 122, 126, -1,
          395, 121, 391, -1,
          396, 121, 395, -1,
          126, 121, 396, -1,
          391, 121, 385, -1,
          122, 121, 126, -1,
          397, 398, 399, -1,
          400, 398, 397, -1,
          401, 398, 400, -1,
          393, 398, 401, -1,
          119, 116, 121, -1,
          121, 116, 385, -1,
          393, 402, 398, -1,
          398, 402, 403, -1,
          393, 115, 402, -1,
          385, 115, 386, -1,
          386, 115, 388, -1,
          392, 115, 393, -1,
          116, 115, 385, -1,
          388, 115, 392, -1,
          113, 111, 115, -1,
          404, 405, 406, -1,
          402, 405, 404, -1,
          402, 407, 405, -1,
          108, 106, 111, -1,
          105, 103, 106, -1,
          402, 408, 407, -1,
          409, 408, 410, -1,
          407, 408, 409, -1,
          106, 101, 111, -1,
          103, 101, 106, -1,
          111, 99, 115, -1,
          101, 99, 111, -1,
          99, 96, 115, -1,
          115, 96, 402, -1,
          402, 411, 408, -1,
          412, 411, 413, -1,
          408, 411, 412, -1,
          402, 414, 411, -1,
          402, 415, 414, -1,
          95, 88, 96, -1,
          92, 88, 95, -1,
          91, 88, 92, -1,
          88, 86, 96, -1,
          85, 82, 86, -1,
          96, 82, 402, -1,
          402, 82, 415, -1,
          86, 82, 96, -1,
          416, 82, 417, -1,
          415, 82, 416, -1,
          418, 419, 420, -1,
          417, 419, 418, -1,
          417, 421, 419, -1,
          422, 423, 424, -1,
          72, 70, 75, -1,
          423, 425, 426, -1,
          421, 425, 422, -1,
          417, 425, 421, -1,
          422, 425, 423, -1,
          70, 68, 75, -1,
          80, 68, 82, -1,
          78, 68, 80, -1,
          76, 68, 78, -1,
          75, 68, 76, -1,
          82, 68, 417, -1,
          67, 64, 68, -1,
          427, 2, 428, -1,
          425, 2, 427, -1,
          64, 60, 68, -1,
          62, 60, 64, -1,
          0, 6, 4, -1,
          2, 6, 0, -1,
          417, 56, 425, -1,
          60, 56, 68, -1,
          58, 56, 60, -1,
          68, 56, 417, -1,
          425, 10, 2, -1,
          2, 10, 6, -1,
          6, 10, 8, -1,
          54, 52, 56, -1,
          52, 48, 56, -1,
          50, 48, 52, -1,
          425, 16, 10, -1,
          12, 16, 14, -1,
          10, 16, 12, -1,
          18, 22, 20, -1,
          46, 40, 48, -1,
          44, 40, 46, -1,
          42, 40, 44, -1,
          48, 40, 56, -1,
          22, 26, 24, -1,
          16, 26, 18, -1,
          18, 26, 22, -1,
          38, 36, 40, -1,
          16, 28, 26, -1,
          56, 34, 425, -1,
          40, 34, 56, -1,
          36, 34, 40, -1,
          34, 32, 425, -1,
          425, 32, 16, -1,
          28, 32, 30, -1,
          16, 32, 28, -1,
          429, 1, 254, -1,
          429, 254, 430, -1,
          431, 430, 432, -1,
          431, 429, 430, -1,
          433, 432, 434, -1,
          433, 431, 432, -1,
          435, 434, 436, -1,
          435, 433, 434, -1,
          437, 436, 438, -1,
          437, 435, 436, -1,
          439, 438, 440, -1,
          439, 437, 438, -1,
          441, 440, 442, -1,
          441, 439, 440, -1,
          443, 442, 444, -1,
          443, 441, 442, -1,
          445, 444, 446, -1,
          445, 443, 444, -1,
          447, 446, 448, -1,
          447, 445, 446, -1,
          449, 448, 450, -1,
          449, 447, 448, -1,
          451, 450, 452, -1,
          451, 449, 450, -1,
          453, 452, 454, -1,
          453, 451, 452, -1,
          455, 454, 456, -1,
          455, 453, 454, -1,
          457, 456, 458, -1,
          457, 455, 456, -1,
          459, 458, 460, -1,
          459, 457, 458, -1,
          461, 460, 462, -1,
          461, 459, 460, -1,
          463, 462, 464, -1,
          463, 461, 462, -1,
          465, 463, 464, -1,
          465, 464, 466, -1,
          467, 465, 466, -1,
          467, 466, 468, -1,
          469, 467, 468, -1,
          469, 468, 470, -1,
          471, 469, 470, -1,
          471, 470, 472, -1,
          473, 472, 474, -1,
          473, 471, 472, -1,
          475, 474, 476, -1,
          475, 473, 474, -1,
          477, 476, 478, -1,
          477, 475, 476, -1,
          479, 478, 480, -1,
          479, 477, 478, -1,
          481, 480, 482, -1,
          481, 479, 480, -1,
          483, 482, 484, -1,
          483, 481, 482, -1,
          485, 484, 486, -1,
          485, 483, 484, -1,
          487, 486, 488, -1,
          487, 485, 486, -1,
          489, 488, 490, -1,
          489, 487, 488, -1,
          491, 490, 492, -1,
          491, 489, 490, -1,
          493, 492, 494, -1,
          493, 491, 492, -1,
          495, 494, 496, -1,
          495, 493, 494, -1,
          497, 496, 498, -1,
          497, 495, 496, -1,
          499, 498, 500, -1,
          499, 497, 498, -1,
          501, 500, 502, -1,
          501, 499, 500, -1,
          503, 502, 504, -1,
          503, 501, 502, -1,
          505, 504, 506, -1,
          505, 503, 504, -1,
          507, 506, 508, -1,
          507, 505, 506, -1,
          509, 508, 510, -1,
          509, 507, 508, -1,
          511, 510, 512, -1,
          511, 509, 510, -1,
          513, 511, 512, -1,
          513, 512, 514, -1,
          515, 513, 514, -1,
          515, 514, 516, -1,
          517, 515, 516, -1,
          517, 516, 518, -1,
          519, 517, 518, -1,
          519, 518, 520, -1,
          521, 519, 520, -1,
          521, 520, 522, -1,
          523, 521, 522, -1,
          523, 522, 524, -1,
          525, 523, 524, -1,
          525, 524, 526, -1,
          527, 525, 526, -1,
          527, 526, 528, -1,
          529, 527, 528, -1,
          529, 528, 530, -1,
          531, 529, 530, -1,
          531, 530, 532, -1,
          533, 531, 532, -1,
          533, 532, 534, -1,
          535, 533, 534, -1,
          535, 534, 536, -1,
          537, 535, 536, -1,
          537, 536, 538, -1,
          539, 537, 538, -1,
          539, 538, 540, -1,
          541, 540, 542, -1,
          541, 539, 540, -1,
          543, 542, 544, -1,
          543, 541, 542, -1,
          545, 544, 546, -1,
          545, 543, 544, -1,
          547, 546, 548, -1,
          547, 545, 546, -1,
          549, 548, 550, -1,
          549, 547, 548, -1,
          551, 550, 552, -1,
          551, 549, 550, -1,
          127, 552, 129, -1,
          127, 551, 552, -1,
          553, 255, 257, -1,
          130, 554, 256, -1,
          555, 354, 260, -1,
          556, 555, 260, -1,
          557, 556, 260, -1,
          558, 557, 260, -1,
          559, 558, 260, -1,
          560, 559, 260, -1,
          561, 560, 260, -1,
          562, 561, 260, -1,
          563, 562, 260, -1,
          564, 563, 260, -1,
          565, 564, 260, -1,
          566, 565, 260, -1,
          567, 257, 354, -1,
          567, 568, 553, -1,
          567, 553, 257, -1,
          567, 354, 555, -1,
          569, 566, 260, -1,
          570, 555, 556, -1,
          570, 568, 567, -1,
          570, 571, 568, -1,
          570, 556, 557, -1,
          570, 567, 555, -1,
          572, 569, 260, -1,
          573, 574, 571, -1,
          573, 571, 570, -1,
          573, 570, 557, -1,
          575, 572, 260, -1,
          576, 574, 573, -1,
          576, 557, 558, -1,
          576, 577, 574, -1,
          576, 573, 557, -1,
          578, 575, 260, -1,
          579, 558, 559, -1,
          579, 580, 577, -1,
          579, 577, 576, -1,
          579, 576, 558, -1,
          581, 578, 260, -1,
          582, 580, 579, -1,
          582, 559, 560, -1,
          582, 583, 584, -1,
          582, 584, 580, -1,
          582, 579, 559, -1,
          585, 581, 260, -1,
          586, 583, 582, -1,
          586, 560, 561, -1,
          586, 587, 583, -1,
          586, 582, 560, -1,
          588, 585, 260, -1,
          589, 561, 562, -1,
          589, 587, 586, -1,
          589, 586, 561, -1,
          589, 590, 587, -1,
          591, 588, 260, -1,
          592, 590, 589, -1,
          592, 562, 563, -1,
          592, 593, 590, -1,
          592, 589, 562, -1,
          594, 591, 260, -1,
          595, 564, 565, -1,
          595, 593, 592, -1,
          595, 563, 564, -1,
          595, 596, 593, -1,
          595, 592, 563, -1,
          597, 594, 260, -1,
          598, 595, 565, -1,
          598, 596, 595, -1,
          598, 599, 596, -1,
          600, 597, 260, -1,
          601, 599, 598, -1,
          601, 598, 565, -1,
          601, 602, 603, -1,
          601, 603, 599, -1,
          601, 565, 566, -1,
          604, 600, 260, -1,
          605, 602, 601, -1,
          605, 601, 566, -1,
          605, 606, 602, -1,
          605, 566, 569, -1,
          607, 604, 260, -1,
          608, 606, 605, -1,
          608, 605, 569, -1,
          608, 609, 606, -1,
          608, 569, 572, -1,
          610, 607, 260, -1,
          611, 572, 575, -1,
          611, 609, 608, -1,
          611, 612, 609, -1,
          611, 608, 572, -1,
          613, 610, 260, -1,
          614, 575, 578, -1,
          614, 615, 612, -1,
          614, 612, 611, -1,
          614, 611, 575, -1,
          616, 613, 260, -1,
          617, 578, 581, -1,
          617, 614, 578, -1,
          617, 615, 614, -1,
          617, 618, 615, -1,
          619, 616, 260, -1,
          620, 585, 588, -1,
          620, 581, 585, -1,
          620, 621, 622, -1,
          620, 622, 618, -1,
          620, 618, 617, -1,
          620, 617, 581, -1,
          623, 619, 260, -1,
          624, 620, 588, -1,
          624, 625, 621, -1,
          624, 621, 620, -1,
          626, 623, 260, -1,
          627, 588, 591, -1,
          627, 628, 625, -1,
          627, 625, 624, -1,
          627, 624, 588, -1,
          629, 626, 260, -1,
          630, 591, 594, -1,
          630, 631, 628, -1,
          630, 628, 627, -1,
          630, 594, 597, -1,
          630, 627, 591, -1,
          632, 629, 260, -1,
          633, 634, 631, -1,
          633, 631, 630, -1,
          633, 630, 597, -1,
          635, 632, 260, -1,
          636, 600, 604, -1,
          636, 637, 634, -1,
          636, 597, 600, -1,
          636, 634, 633, -1,
          636, 633, 597, -1,
          638, 635, 260, -1,
          639, 640, 641, -1,
          639, 641, 637, -1,
          639, 604, 607, -1,
          639, 636, 604, -1,
          639, 637, 636, -1,
          642, 638, 260, -1,
          643, 640, 639, -1,
          643, 644, 640, -1,
          643, 639, 607, -1,
          645, 642, 260, -1,
          646, 610, 613, -1,
          646, 647, 644, -1,
          646, 643, 607, -1,
          646, 644, 643, -1,
          646, 607, 610, -1,
          648, 645, 260, -1,
          649, 647, 646, -1,
          649, 650, 647, -1,
          649, 646, 613, -1,
          651, 648, 260, -1,
          652, 649, 613, -1,
          652, 613, 616, -1,
          652, 650, 649, -1,
          652, 653, 650, -1,
          654, 651, 260, -1,
          655, 652, 616, -1,
          655, 653, 652, -1,
          655, 656, 653, -1,
          655, 616, 619, -1,
          655, 619, 623, -1,
          657, 654, 260, -1,
          658, 656, 655, -1,
          658, 659, 660, -1,
          658, 660, 656, -1,
          658, 655, 623, -1,
          661, 657, 260, -1,
          662, 658, 623, -1,
          662, 663, 659, -1,
          662, 623, 626, -1,
          662, 659, 658, -1,
          664, 661, 260, -1,
          665, 629, 632, -1,
          665, 666, 663, -1,
          665, 663, 662, -1,
          665, 662, 626, -1,
          665, 626, 629, -1,
          667, 664, 260, -1,
          668, 665, 632, -1,
          668, 669, 666, -1,
          668, 666, 665, -1,
          670, 667, 260, -1,
          671, 632, 635, -1,
          671, 672, 669, -1,
          671, 669, 668, -1,
          671, 668, 632, -1,
          671, 635, 638, -1,
          673, 670, 260, -1,
          674, 672, 671, -1,
          674, 675, 672, -1,
          674, 671, 638, -1,
          676, 673, 260, -1,
          677, 642, 645, -1,
          677, 675, 674, -1,
          677, 678, 679, -1,
          677, 679, 675, -1,
          677, 638, 642, -1,
          677, 674, 638, -1,
          680, 676, 260, -1,
          681, 645, 648, -1,
          681, 682, 678, -1,
          681, 678, 677, -1,
          681, 677, 645, -1,
          683, 680, 260, -1,
          684, 685, 682, -1,
          684, 682, 681, -1,
          684, 681, 648, -1,
          686, 683, 260, -1,
          687, 688, 685, -1,
          687, 648, 651, -1,
          687, 684, 648, -1,
          687, 685, 684, -1,
          689, 686, 260, -1,
          690, 691, 688, -1,
          690, 688, 687, -1,
          690, 687, 651, -1,
          690, 651, 654, -1,
          690, 654, 657, -1,
          692, 689, 260, -1,
          693, 694, 691, -1,
          693, 691, 690, -1,
          693, 690, 657, -1,
          695, 260, 259, -1,
          695, 692, 260, -1,
          696, 694, 693, -1,
          696, 697, 698, -1,
          696, 698, 694, -1,
          696, 657, 661, -1,
          696, 661, 664, -1,
          696, 693, 657, -1,
          699, 697, 696, -1,
          699, 696, 664, -1,
          699, 700, 697, -1,
          699, 664, 667, -1,
          701, 702, 700, -1,
          701, 700, 699, -1,
          701, 667, 670, -1,
          701, 699, 667, -1,
          703, 704, 702, -1,
          703, 702, 701, -1,
          703, 701, 670, -1,
          705, 706, 704, -1,
          705, 703, 670, -1,
          705, 704, 703, -1,
          705, 670, 673, -1,
          705, 673, 676, -1,
          707, 708, 706, -1,
          707, 705, 676, -1,
          707, 676, 680, -1,
          707, 706, 705, -1,
          709, 708, 707, -1,
          709, 710, 711, -1,
          709, 711, 708, -1,
          709, 707, 680, -1,
          712, 713, 710, -1,
          712, 710, 709, -1,
          712, 709, 680, -1,
          712, 680, 683, -1,
          712, 683, 686, -1,
          714, 715, 713, -1,
          714, 712, 686, -1,
          714, 713, 712, -1,
          716, 686, 689, -1,
          716, 717, 715, -1,
          716, 714, 686, -1,
          716, 715, 714, -1,
          718, 716, 689, -1,
          718, 689, 692, -1,
          718, 719, 717, -1,
          718, 692, 695, -1,
          718, 717, 716, -1,
          720, 259, 256, -1,
          720, 554, 719, -1,
          720, 256, 554, -1,
          720, 695, 259, -1,
          720, 719, 718, -1,
          720, 718, 695, -1,
          553, 254, 255, -1,
          430, 254, 553, -1,
          568, 430, 553, -1,
          432, 430, 568, -1,
          571, 432, 568, -1,
          434, 432, 571, -1,
          574, 434, 571, -1,
          436, 434, 574, -1,
          577, 436, 574, -1,
          438, 436, 577, -1,
          580, 438, 577, -1,
          440, 438, 580, -1,
          584, 440, 580, -1,
          442, 440, 584, -1,
          583, 442, 584, -1,
          444, 442, 583, -1,
          587, 444, 583, -1,
          446, 444, 587, -1,
          590, 446, 587, -1,
          448, 446, 590, -1,
          593, 448, 590, -1,
          450, 448, 593, -1,
          596, 450, 593, -1,
          452, 450, 596, -1,
          599, 452, 596, -1,
          454, 452, 599, -1,
          603, 454, 599, -1,
          456, 454, 603, -1,
          602, 456, 603, -1,
          458, 456, 602, -1,
          606, 458, 602, -1,
          460, 458, 606, -1,
          609, 460, 606, -1,
          462, 460, 609, -1,
          612, 462, 609, -1,
          464, 462, 612, -1,
          615, 464, 612, -1,
          466, 464, 615, -1,
          618, 466, 615, -1,
          468, 466, 618, -1,
          622, 468, 618, -1,
          470, 468, 622, -1,
          621, 470, 622, -1,
          472, 470, 621, -1,
          625, 472, 621, -1,
          474, 472, 625, -1,
          628, 474, 625, -1,
          476, 474, 628, -1,
          631, 476, 628, -1,
          478, 476, 631, -1,
          634, 478, 631, -1,
          480, 478, 634, -1,
          637, 480, 634, -1,
          482, 480, 637, -1,
          641, 482, 637, -1,
          484, 482, 641, -1,
          640, 484, 641, -1,
          486, 484, 640, -1,
          644, 486, 640, -1,
          488, 486, 644, -1,
          647, 488, 644, -1,
          490, 488, 647, -1,
          650, 490, 647, -1,
          492, 490, 650, -1,
          653, 492, 650, -1,
          494, 492, 653, -1,
          656, 494, 653, -1,
          496, 494, 656, -1,
          660, 496, 656, -1,
          498, 496, 660, -1,
          500, 660, 659, -1,
          500, 498, 660, -1,
          663, 500, 659, -1,
          502, 500, 663, -1,
          666, 502, 663, -1,
          504, 502, 666, -1,
          669, 504, 666, -1,
          506, 504, 669, -1,
          508, 669, 672, -1,
          508, 506, 669, -1,
          675, 508, 672, -1,
          510, 508, 675, -1,
          512, 675, 679, -1,
          512, 510, 675, -1,
          678, 512, 679, -1,
          514, 512, 678, -1,
          682, 514, 678, -1,
          516, 514, 682, -1,
          685, 516, 682, -1,
          518, 516, 685, -1,
          688, 518, 685, -1,
          520, 518, 688, -1,
          691, 520, 688, -1,
          522, 520, 691, -1,
          524, 691, 694, -1,
          524, 522, 691, -1,
          698, 524, 694, -1,
          526, 524, 698, -1,
          528, 698, 697, -1,
          528, 526, 698, -1,
          700, 528, 697, -1,
          530, 528, 700, -1,
          702, 530, 700, -1,
          532, 530, 702, -1,
          534, 702, 704, -1,
          534, 532, 702, -1,
          536, 704, 706, -1,
          536, 534, 704, -1,
          538, 706, 708, -1,
          538, 536, 706, -1,
          711, 538, 708, -1,
          540, 538, 711, -1,
          542, 711, 710, -1,
          542, 540, 711, -1,
          713, 542, 710, -1,
          544, 542, 713, -1,
          715, 544, 713, -1,
          546, 544, 715, -1,
          717, 546, 715, -1,
          548, 546, 717, -1,
          719, 548, 717, -1,
          550, 548, 719, -1,
          552, 719, 554, -1,
          552, 550, 719, -1,
          129, 554, 130, -1,
          129, 552, 554, -1,
          396, 127, 126, -1,
          551, 127, 396, -1,
          395, 551, 396, -1,
          549, 551, 395, -1,
          391, 549, 395, -1,
          547, 549, 391, -1,
          390, 547, 391, -1,
          545, 547, 390, -1,
          385, 545, 390, -1,
          543, 545, 385, -1,
          383, 543, 385, -1,
          541, 543, 383, -1,
          384, 541, 383, -1,
          539, 541, 384, -1,
          382, 539, 384, -1,
          537, 539, 382, -1,
          380, 537, 382, -1,
          535, 537, 380, -1,
          373, 535, 380, -1,
          533, 535, 373, -1,
          372, 533, 373, -1,
          531, 533, 372, -1,
          371, 531, 372, -1,
          529, 531, 371, -1,
          370, 529, 371, -1,
          527, 529, 370, -1,
          368, 527, 370, -1,
          525, 527, 368, -1,
          367, 525, 368, -1,
          523, 525, 367, -1,
          369, 523, 367, -1,
          521, 523, 369, -1,
          379, 521, 369, -1,
          519, 521, 379, -1,
          378, 519, 379, -1,
          517, 519, 378, -1,
          377, 517, 378, -1,
          515, 517, 377, -1,
          374, 515, 377, -1,
          513, 515, 374, -1,
          376, 513, 374, -1,
          511, 513, 376, -1,
          375, 511, 376, -1,
          509, 511, 375, -1,
          381, 509, 375, -1,
          507, 509, 381, -1,
          386, 507, 381, -1,
          505, 507, 386, -1,
          387, 505, 386, -1,
          503, 505, 387, -1,
          389, 503, 387, -1,
          501, 503, 389, -1,
          388, 501, 389, -1,
          499, 501, 388, -1,
          392, 499, 388, -1,
          497, 499, 392, -1,
          394, 497, 392, -1,
          495, 497, 394, -1,
          393, 495, 394, -1,
          493, 495, 393, -1,
          401, 493, 393, -1,
          491, 493, 401, -1,
          400, 491, 401, -1,
          489, 491, 400, -1,
          397, 489, 400, -1,
          487, 489, 397, -1,
          399, 487, 397, -1,
          485, 487, 399, -1,
          398, 485, 399, -1,
          483, 485, 398, -1,
          403, 483, 398, -1,
          481, 483, 403, -1,
          402, 481, 403, -1,
          479, 481, 402, -1,
          404, 479, 402, -1,
          477, 479, 404, -1,
          406, 477, 404, -1,
          475, 477, 406, -1,
          405, 475, 406, -1,
          473, 475, 405, -1,
          407, 473, 405, -1,
          471, 473, 407, -1,
          409, 471, 407, -1,
          469, 471, 409, -1,
          410, 469, 409, -1,
          467, 469, 410, -1,
          408, 467, 410, -1,
          465, 467, 408, -1,
          412, 465, 408, -1,
          463, 465, 412, -1,
          461, 463, 412, -1,
          461, 412, 413, -1,
          411, 461, 413, -1,
          459, 461, 411, -1,
          457, 411, 414, -1,
          457, 459, 411, -1,
          415, 457, 414, -1,
          455, 457, 415, -1,
          453, 415, 416, -1,
          453, 455, 415, -1,
          417, 453, 416, -1,
          451, 453, 417, -1,
          449, 417, 418, -1,
          449, 451, 417, -1,
          420, 449, 418, -1,
          447, 449, 420, -1,
          419, 447, 420, -1,
          445, 447, 419, -1,
          421, 445, 419, -1,
          443, 445, 421, -1,
          441, 421, 422, -1,
          441, 443, 421, -1,
          424, 441, 422, -1,
          439, 441, 424, -1,
          423, 439, 424, -1,
          437, 439, 423, -1,
          426, 437, 423, -1,
          435, 437, 426, -1,
          433, 426, 425, -1,
          433, 435, 426, -1,
          427, 433, 425, -1,
          431, 433, 427, -1,
          428, 431, 427, -1,
          429, 431, 428, -1,
          1, 428, 2, -1,
          1, 429, 428, -1
        ]
      }
    }
}
