{"asset":{"version":"2.0","generator":"microscope_builder_4 scripts/catalog/dedupe-mounted-lens-housings.mjs"},"scene":0,"scenes":[{"nodes":[0]}],"nodes":[{"mesh":0}],"meshes":[{"primitives":[{"attributes":{"POSITION":1,"NORMAL":2},"indices":0,"mode":4},{"attributes":{"POSITION":4,"NORMAL":5},"indices":3,"mode":4},{"attributes":{"POSITION":7,"NORMAL":8},"indices":6,"mode":4}]}],"buffers":[{"uri":"la4130-ab-ml.bin","byteLength":170184}],"bufferViews":[{"buffer":0,"byteOffset":0,"byteLength":8976,"target":34963},{"buffer":0,"byteOffset":8976,"byteLength":9000,"target":34962},{"buffer":0,"byteOffset":17976,"byteLength":9000,"target":34962},{"buffer":0,"byteOffset":26976,"byteLength":3720,"target":34963},{"buffer":0,"byteOffset":30696,"byteLength":3720,"target":34962},{"buffer":0,"byteOffset":34416,"byteLength":3720,"target":34962},{"buffer":0,"byteOffset":38136,"byteLength":44016,"target":34963},{"buffer":0,"byteOffset":82152,"byteLength":44016,"target":34962},{"buffer":0,"byteOffset":126168,"byteLength":44016,"target":34962}],"accessors":[{"bufferView":0,"componentType":5123,"count":4488,"type":"SCALAR"},{"bufferView":1,"componentType":5126,"count":750,"type":"VEC3","min":[-2.4130001068115234,-6.3460001945495605,-6.3460001945495605],"max":[0.5170000195503235,6.3460001945495605,6.3460001945495605]},{"bufferView":2,"componentType":5126,"count":750,"type":"VEC3"},{"bufferView":3,"componentType":5123,"count":1860,"type":"SCALAR"},{"bufferView":4,"componentType":5126,"count":310,"type":"VEC3","min":[-0.35199999809265137,-6.794000148773193,-6.794000148773193],"max":[1.2990000247955322,6.794000148773193,6.794000148773193]},{"bufferView":5,"componentType":5126,"count":310,"type":"VEC3"},{"bufferView":6,"componentType":5123,"count":22008,"type":"SCALAR"},{"bufferView":7,"componentType":5126,"count":3668,"type":"VEC3","min":[-5.206999778747559,-8.890000343322754,-8.890000343322754],"max":[5.206999778747559,8.890000343322754,8.890000343322754]},{"bufferView":8,"componentType":5126,"count":3668,"type":"VEC3"}]}
