{"asset":{"version":"2.0","generator":"microscope_builder_4 scripts/catalog/dedupe-mounted-lens-housings.mjs"},"scene":0,"scenes":[{"nodes":[0]}],"nodes":[{"mesh":0}],"meshes":[{"primitives":[{"attributes":{"POSITION":1,"NORMAL":2},"indices":0,"mode":4},{"attributes":{"POSITION":4,"NORMAL":5},"indices":3,"mode":4},{"attributes":{"POSITION":7,"NORMAL":8},"indices":6,"mode":4}]}],"buffers":[{"uri":"la4246-uv-ml.bin","byteLength":148512}],"bufferViews":[{"buffer":0,"byteOffset":0,"byteLength":41388,"target":34963},{"buffer":0,"byteOffset":41388,"byteLength":41388,"target":34962},{"buffer":0,"byteOffset":82776,"byteLength":41388,"target":34962},{"buffer":0,"byteOffset":124164,"byteLength":5040,"target":34963},{"buffer":0,"byteOffset":129204,"byteLength":5040,"target":34962},{"buffer":0,"byteOffset":134244,"byteLength":5040,"target":34962},{"buffer":0,"byteOffset":139284,"byteLength":3060,"target":34963},{"buffer":0,"byteOffset":142344,"byteLength":3084,"target":34962},{"buffer":0,"byteOffset":145428,"byteLength":3084,"target":34962}],"accessors":[{"bufferView":0,"componentType":5123,"count":20694,"type":"SCALAR"},{"bufferView":1,"componentType":5126,"count":3449,"type":"VEC3","min":[-6.985000133514404,-40.63999938964844,-40.63999938964844],"max":[6.985000133514404,40.63999938964844,40.63999938964844]},{"bufferView":2,"componentType":5126,"count":3449,"type":"VEC3"},{"bufferView":3,"componentType":5123,"count":2520,"type":"SCALAR"},{"bufferView":4,"componentType":5126,"count":420,"type":"VEC3","min":[0.057999998331069946,-38.54399871826172,-38.54399871826172],"max":[2.5980000495910645,38.54399871826172,38.54399871826172]},{"bufferView":5,"componentType":5126,"count":420,"type":"VEC3"},{"bufferView":6,"componentType":5123,"count":1530,"type":"SCALAR"},{"bufferView":7,"componentType":5126,"count":257,"type":"VEC3","min":[-3.174999952316284,-37.5,-37.5],"max":[2.924999952316284,37.5,37.5]},{"bufferView":8,"componentType":5126,"count":257,"type":"VEC3"}]}
