{"asset":{"version":"2.0","generator":"microscope_builder_4 scripts/catalog/dedupe-mounted-lens-housings.mjs"},"scene":0,"scenes":[{"nodes":[0]}],"nodes":[{"mesh":0}],"meshes":[{"primitives":[{"attributes":{"POSITION":1,"NORMAL":2},"indices":0,"mode":4},{"attributes":{"POSITION":4,"NORMAL":5},"indices":3,"mode":4},{"attributes":{"POSITION":7,"NORMAL":8},"indices":6,"mode":4}]}],"buffers":[{"uri":"la4380-ab-ml.bin","byteLength":176736}],"bufferViews":[{"buffer":0,"byteOffset":0,"byteLength":3936,"target":34963},{"buffer":0,"byteOffset":3936,"byteLength":3936,"target":34962},{"buffer":0,"byteOffset":7872,"byteLength":3936,"target":34962},{"buffer":0,"byteOffset":11808,"byteLength":10068,"target":34963},{"buffer":0,"byteOffset":21876,"byteLength":10092,"target":34962},{"buffer":0,"byteOffset":31968,"byteLength":10092,"target":34962},{"buffer":0,"byteOffset":42060,"byteLength":44892,"target":34963},{"buffer":0,"byteOffset":86952,"byteLength":44892,"target":34962},{"buffer":0,"byteOffset":131844,"byteLength":44892,"target":34962}],"accessors":[{"bufferView":0,"componentType":5123,"count":1968,"type":"SCALAR"},{"bufferView":1,"componentType":5126,"count":328,"type":"VEC3","min":[2.2730000019073486,-13.144000053405762,-13.144000053405762],"max":[4.304999828338623,13.144000053405762,13.144000053405762]},{"bufferView":2,"componentType":5126,"count":328,"type":"VEC3"},{"bufferView":3,"componentType":5123,"count":5034,"type":"SCALAR"},{"bufferView":4,"componentType":5126,"count":841,"type":"VEC3","min":[0,-12.699999809265137,-12.699999809265137],"max":[3.7899999618530273,12.699999809265137,12.699999809265137]},{"bufferView":5,"componentType":5126,"count":841,"type":"VEC3"},{"bufferView":6,"componentType":5123,"count":22446,"type":"SCALAR"},{"bufferView":7,"componentType":5126,"count":3741,"type":"VEC3","min":[-3.809999942779541,-15.239999771118164,-15.239999771118164],"max":[7.619999885559082,15.239999771118164,15.239999771118164]},{"bufferView":8,"componentType":5126,"count":3741,"type":"VEC3"}]}
