{"asset":{"version":"2.0","generator":"microscope_builder_4 scripts/catalog/dedupe-mounted-lens-housings.mjs"},"scene":0,"scenes":[{"nodes":[0]}],"nodes":[{"mesh":0}],"meshes":[{"primitives":[{"attributes":{"POSITION":1,"NORMAL":2},"indices":0,"mode":4},{"attributes":{"POSITION":4,"NORMAL":5},"indices":3,"mode":4},{"attributes":{"POSITION":7,"NORMAL":8},"indices":6,"mode":4}]}],"buffers":[{"uri":"la4337-ml.bin","byteLength":102396}],"bufferViews":[{"buffer":0,"byteOffset":0,"byteLength":27312,"target":34963},{"buffer":0,"byteOffset":27312,"byteLength":27312,"target":34962},{"buffer":0,"byteOffset":54624,"byteLength":27312,"target":34962},{"buffer":0,"byteOffset":81936,"byteLength":3060,"target":34963},{"buffer":0,"byteOffset":84996,"byteLength":3084,"target":34962},{"buffer":0,"byteOffset":88080,"byteLength":3084,"target":34962},{"buffer":0,"byteOffset":91164,"byteLength":3744,"target":34963},{"buffer":0,"byteOffset":94908,"byteLength":3744,"target":34962},{"buffer":0,"byteOffset":98652,"byteLength":3744,"target":34962}],"accessors":[{"bufferView":0,"componentType":5123,"count":13656,"type":"SCALAR"},{"bufferView":1,"componentType":5126,"count":2276,"type":"VEC3","min":[-6.4770002365112305,-27.940000534057617,-27.940000534057617],"max":[6.4770002365112305,27.940000534057617,27.940000534057617]},{"bufferView":2,"componentType":5126,"count":2276,"type":"VEC3"},{"bufferView":3,"componentType":5123,"count":1530,"type":"SCALAR"},{"bufferView":4,"componentType":5126,"count":257,"type":"VEC3","min":[-2.6670000553131104,-25.399999618530273,-25.399999618530273],"max":[1.0329999923706055,25.399999618530273,25.399999618530273]},{"bufferView":5,"componentType":5126,"count":257,"type":"VEC3"},{"bufferView":6,"componentType":5123,"count":1872,"type":"SCALAR"},{"bufferView":7,"componentType":5126,"count":312,"type":"VEC3","min":[0.3779999911785126,-25.8439998626709,-25.8439998626709],"max":[2.9179999828338623,25.8439998626709,25.8439998626709]},{"bufferView":8,"componentType":5126,"count":312,"type":"VEC3"}]}
