#VRML V2.0 utf8
WorldInfo {
  title "Exported triangle mesh to VRML97"
  info ["Created by FreeCAD"
        "<https://www.freecad.org>"]
}

Transform {
  scale 1 1 1
  rotation 0 0 1 0
  scaleOrientation 0 0 1 0
  center 0.000 0.000 0.000
  translation 0.000 0.000 0.000
  children
    Shape { 
      appearance
      Appearance {
        material
        Material {
          diffuseColor 0.8 0.8 0.8
        }
      }
      geometry
      IndexedFaceSet {
        coord
        Coordinate {
          point [
            -0.950 0.000 -6.350,
            -1.200 0.000 -6.100,
            -1.200 0.304 -6.092,
            -0.950 0.317 -6.342,
            -1.200 0.607 -6.070,
            -0.950 0.632 -6.318,
            -1.200 0.909 -6.032,
            -0.950 0.946 -6.279,
            -1.200 1.209 -5.979,
            -0.950 1.258 -6.224,
            -1.200 1.505 -5.911,
            -0.950 1.567 -6.154,
            -1.200 1.798 -5.829,
            -0.950 1.872 -6.068,
            -1.200 2.086 -5.732,
            -0.950 2.172 -5.967,
            -1.200 2.369 -5.621,
            -0.950 2.467 -5.851,
            -1.200 2.647 -5.496,
            -0.950 2.755 -5.721,
            -1.200 2.917 -5.357,
            -0.950 3.037 -5.577,
            -1.200 3.181 -5.205,
            -0.950 3.311 -5.418,
            -1.200 3.436 -5.040,
            -0.950 3.577 -5.247,
            -1.200 3.683 -4.863,
            -0.950 3.834 -5.062,
            -1.200 3.921 -4.673,
            -0.950 4.082 -4.864,
            -1.200 4.149 -4.472,
            -0.950 4.319 -4.655,
            -1.200 4.367 -4.259,
            -0.950 4.546 -4.434,
            -1.200 4.574 -4.036,
            -0.950 4.761 -4.202,
            -1.200 4.769 -3.803,
            -0.950 4.965 -3.959,
            -1.200 4.953 -3.561,
            -0.950 5.156 -3.707,
            -1.200 5.124 -3.310,
            -0.950 5.334 -3.445,
            -1.200 5.283 -3.050,
            -0.950 5.499 -3.175,
            -1.200 5.428 -2.783,
            -0.950 5.651 -2.897,
            -1.200 5.560 -2.509,
            -0.950 5.788 -2.612,
            -1.200 5.678 -2.229,
            -0.950 5.911 -2.320,
            -1.200 5.782 -1.943,
            -0.950 6.019 -2.022,
            -1.200 5.872 -1.652,
            -0.950 6.113 -1.720,
            -1.200 5.947 -1.357,
            -0.950 6.191 -1.413,
            -1.200 6.007 -1.059,
            -0.950 6.254 -1.103,
            -1.200 6.053 -0.758,
            -0.950 6.301 -0.790,
            -1.200 6.083 -0.456,
            -0.950 6.332 -0.475,
            -1.200 6.098 -0.152,
            -0.950 6.348 -0.158,
            -1.200 6.098 0.152,
            -0.950 6.348 0.158,
            -0.950 6.332 0.475,
            -1.200 6.083 0.456,
            -1.200 6.053 0.758,
            -0.950 6.301 0.790,
            -1.200 6.007 1.059,
            -0.950 6.254 1.103,
            -1.200 5.947 1.357,
            -0.950 6.191 1.413,
            -1.200 5.872 1.652,
            -0.950 6.113 1.720,
            -1.200 5.782 1.943,
            -0.950 6.019 2.022,
            -0.950 5.911 2.320,
            -1.200 5.678 2.229,
            -1.200 5.560 2.509,
            -0.950 5.788 2.612,
            -0.950 5.651 2.897,
            -1.200 5.428 2.783,
            -0.950 5.499 3.175,
            -1.200 5.283 3.050,
            -1.200 5.124 3.310,
            -0.950 5.334 3.445,
            -0.950 5.156 3.707,
            -1.200 4.953 3.561,
            -1.200 4.769 3.803,
            -0.950 4.965 3.959,
            -1.200 4.574 4.036,
            -0.950 4.761 4.202,
            -1.200 4.367 4.259,
            -0.950 4.546 4.434,
            -0.950 4.319 4.655,
            -1.200 4.149 4.472,
            -1.200 3.921 4.673,
            -0.950 4.082 4.864,
            -1.200 3.683 4.863,
            -0.950 3.834 5.062,
            -0.950 3.577 5.247,
            -1.200 3.436 5.040,
            -0.950 3.311 5.418,
            -1.200 3.181 5.205,
            -1.200 2.917 5.357,
            -0.950 3.037 5.577,
            -0.950 2.755 5.721,
            -1.200 2.647 5.496,
            -0.950 2.467 5.851,
            -1.200 2.369 5.621,
            -0.950 2.172 5.967,
            -1.200 2.086 5.732,
            -1.200 1.798 5.829,
            -0.950 1.872 6.068,
            -0.950 1.567 6.154,
            -1.200 1.505 5.911,
            -0.950 1.258 6.224,
            -1.200 1.209 5.979,
            -0.950 0.946 6.279,
            -1.200 0.909 6.032,
            -1.200 0.607 6.070,
            -0.950 0.632 6.318,
            -0.950 0.317 6.342,
            -1.200 0.304 6.092,
            -1.200 0.000 6.100,
            -0.950 0.000 6.350,
            0.350 0.000 6.350,
            0.350 0.317 6.342,
            0.350 0.632 6.318,
            0.350 0.946 6.279,
            0.350 1.258 6.224,
            0.350 1.567 6.154,
            0.350 1.872 6.068,
            0.350 2.172 5.967,
            0.350 2.467 5.851,
            0.350 2.755 5.721,
            0.350 3.037 5.577,
            0.350 3.311 5.418,
            0.350 3.577 5.247,
            0.350 3.834 5.062,
            0.350 4.082 4.864,
            0.350 4.319 4.655,
            0.350 4.546 4.434,
            0.350 4.761 4.202,
            0.350 4.965 3.959,
            0.350 5.156 3.707,
            0.350 5.334 3.445,
            0.350 5.499 3.175,
            0.350 5.651 2.897,
            0.350 5.788 2.612,
            0.350 5.911 2.320,
            0.350 6.019 2.022,
            0.350 6.113 1.720,
            0.350 6.191 1.413,
            0.350 6.254 1.103,
            0.350 6.301 0.790,
            0.350 6.332 0.475,
            0.350 6.348 0.158,
            0.350 6.348 -0.158,
            0.350 6.332 -0.475,
            0.350 6.301 -0.790,
            0.350 6.254 -1.103,
            0.350 6.191 -1.413,
            0.350 6.113 -1.720,
            0.350 6.019 -2.022,
            0.350 5.911 -2.320,
            0.350 5.788 -2.612,
            0.350 5.651 -2.897,
            0.350 5.499 -3.175,
            0.350 5.334 -3.445,
            0.350 5.156 -3.707,
            0.350 4.965 -3.959,
            0.350 4.761 -4.202,
            0.350 4.546 -4.434,
            0.350 4.319 -4.655,
            0.350 4.082 -4.864,
            0.350 3.834 -5.062,
            0.350 3.577 -5.247,
            0.350 3.311 -5.418,
            0.350 3.037 -5.577,
            0.350 2.755 -5.721,
            0.350 2.467 -5.851,
            0.350 2.172 -5.967,
            0.350 1.872 -6.068,
            0.350 1.567 -6.154,
            0.350 1.258 -6.224,
            0.350 0.946 -6.279,
            0.350 0.632 -6.318,
            0.350 0.317 -6.342,
            0.350 0.000 -6.350,
            0.645 0.000 6.105,
            0.645 0.304 6.098,
            0.645 0.608 6.075,
            0.645 0.910 6.037,
            0.645 1.210 5.984,
            0.645 1.507 5.916,
            0.645 1.800 5.834,
            0.645 2.088 5.737,
            0.645 2.371 5.626,
            0.645 2.649 5.501,
            0.645 2.920 5.362,
            0.645 3.183 5.210,
            0.645 3.439 5.044,
            0.645 3.686 4.867,
            0.645 3.924 4.677,
            0.645 4.153 4.475,
            0.645 4.371 4.263,
            0.645 4.578 4.040,
            0.645 4.773 3.807,
            0.645 4.957 3.564,
            0.645 5.129 3.312,
            0.645 5.287 3.053,
            0.645 5.433 2.785,
            0.645 5.565 2.511,
            0.645 5.683 2.230,
            0.645 5.787 1.944,
            0.645 5.877 1.654,
            0.645 5.952 1.359,
            0.645 6.012 1.060,
            0.645 6.058 0.759,
            0.645 6.088 0.456,
            0.645 6.103 0.152,
            0.645 6.103 -0.152,
            0.645 6.088 -0.456,
            0.645 6.058 -0.759,
            0.645 6.012 -1.060,
            0.645 5.952 -1.359,
            0.645 5.877 -1.654,
            0.645 5.787 -1.944,
            0.645 5.683 -2.230,
            0.645 5.565 -2.511,
            0.645 5.433 -2.785,
            0.645 5.287 -3.053,
            0.645 5.129 -3.312,
            0.645 4.957 -3.564,
            0.645 4.773 -3.807,
            0.645 4.578 -4.040,
            0.645 4.371 -4.263,
            0.645 4.153 -4.475,
            0.645 3.924 -4.677,
            0.645 3.686 -4.867,
            0.645 3.439 -5.044,
            0.645 3.183 -5.210,
            0.645 2.920 -5.362,
            0.645 2.649 -5.501,
            0.645 2.371 -5.626,
            0.645 2.088 -5.737,
            0.645 1.800 -5.834,
            0.645 1.507 -5.916,
            0.645 1.210 -5.984,
            0.645 0.910 -6.037,
            0.645 0.608 -6.075,
            0.645 0.304 -6.098,
            0.645 0.000 -6.105,
            0.886 0.000 4.590,
            0.886 0.000 -4.590,
            0.886 0.320 4.579,
            0.886 0.639 4.545,
            0.886 0.954 4.489,
            0.886 1.265 4.412,
            0.886 1.570 4.313,
            0.886 1.867 4.193,
            0.886 2.155 4.052,
            0.886 2.432 3.892,
            1.059 0.000 3.065,
            1.059 0.214 3.058,
            0.886 2.698 3.713,
            1.059 0.427 3.035,
            0.886 2.950 3.516,
            1.059 0.637 2.998,
            0.886 3.188 3.302,
            1.059 0.845 2.946,
            0.886 3.411 3.071,
            1.059 1.048 2.880,
            0.886 3.617 2.826,
            1.059 1.247 2.800,
            0.886 3.805 2.567,
            1.059 1.439 2.706,
            0.886 3.975 2.295,
            1.059 1.624 2.599,
            1.163 0.107 1.530,
            1.200 0.000 0.000,
            1.163 0.000 1.534,
            0.886 4.125 2.012,
            1.059 1.802 2.480,
            1.163 0.213 1.519,
            0.886 4.255 1.719,
            1.059 1.970 2.348,
            1.163 0.319 1.501,
            0.886 4.365 1.418,
            1.059 2.129 2.205,
            1.163 0.423 1.475,
            0.886 4.453 1.110,
            1.059 2.278 2.051,
            1.163 0.525 1.442,
            0.886 4.520 0.797,
            1.059 2.415 1.887,
            1.163 0.624 1.401,
            0.886 4.565 0.480,
            1.059 2.541 1.714,
            1.163 0.720 1.354,
            0.886 4.587 0.160,
            1.059 2.654 1.532,
            1.163 0.813 1.301,
            0.886 4.587 -0.160,
            1.059 2.755 1.344,
            1.163 0.902 1.241,
            0.886 4.565 -0.480,
            1.059 2.842 1.148,
            1.163 0.986 1.175,
            0.886 4.520 -0.797,
            1.059 2.915 0.947,
            1.163 1.066 1.104,
            0.886 4.453 -1.110,
            1.059 2.974 0.741,
            1.163 1.140 1.026,
            0.886 4.365 -1.418,
            1.059 3.018 0.532,
            1.163 1.209 0.944,
            0.886 4.255 -1.719,
            1.059 3.048 0.320,
            1.163 1.272 0.858,
            0.886 4.125 -2.012,
            1.059 3.063 0.107,
            1.163 1.329 0.767,
            0.886 3.975 -2.295,
            1.059 3.063 -0.107,
            1.163 1.379 0.672,
            0.886 3.805 -2.567,
            1.059 3.048 -0.320,
            1.163 1.422 0.575,
            0.886 3.617 -2.826,
            1.059 3.018 -0.532,
            1.163 1.459 0.474,
            0.886 3.411 -3.071,
            1.059 2.974 -0.741,
            1.163 1.488 0.371,
            0.886 3.188 -3.302,
            1.059 2.915 -0.947,
            1.163 1.511 0.266,
            0.886 2.950 -3.516,
            1.059 2.842 -1.148,
            1.163 1.526 0.160,
            0.886 2.698 -3.713,
            1.059 2.755 -1.344,
            1.163 1.533 0.054,
            0.886 2.432 -3.892,
            1.059 2.654 -1.532,
            1.163 1.533 -0.054,
            0.886 2.155 -4.052,
            1.059 2.541 -1.714,
            1.163 1.526 -0.160,
            0.886 1.867 -4.193,
            1.059 2.415 -1.887,
            1.163 1.511 -0.266,
            0.886 1.570 -4.313,
            1.059 2.278 -2.051,
            1.163 1.488 -0.371,
            0.886 1.265 -4.412,
            1.059 2.129 -2.205,
            1.163 1.459 -0.474,
            0.886 0.954 -4.489,
            1.059 1.970 -2.348,
            1.163 1.422 -0.575,
            0.886 0.639 -4.545,
            1.059 1.802 -2.480,
            1.163 1.379 -0.672,
            0.886 0.320 -4.579,
            1.059 1.624 -2.599,
            1.163 1.329 -0.767,
            1.059 1.439 -2.706,
            1.163 1.272 -0.858,
            1.059 1.247 -2.800,
            1.163 1.209 -0.944,
            1.059 1.048 -2.880,
            1.163 1.140 -1.026,
            1.059 0.845 -2.946,
            1.163 1.066 -1.104,
            1.059 0.637 -2.998,
            1.163 0.986 -1.175,
            1.059 0.427 -3.035,
            1.163 0.902 -1.241,
            1.059 0.214 -3.058,
            1.059 0.000 -3.065,
            1.163 0.813 -1.301,
            1.163 0.720 -1.354,
            1.163 0.624 -1.401,
            1.163 0.525 -1.442,
            1.163 0.423 -1.475,
            1.163 0.319 -1.501,
            1.163 0.213 -1.519,
            1.163 0.107 -1.530,
            1.163 0.000 -1.534,
            -1.200 -4.574 4.036,
            -1.200 -4.953 3.561,
            -1.200 -4.769 3.803,
            -1.200 -4.367 4.259,
            -1.200 -3.436 5.040,
            -1.200 -4.149 4.472,
            -1.200 -3.921 4.673,
            -1.200 -3.683 4.863,
            -1.200 -5.124 3.310,
            -1.200 -3.181 5.205,
            -1.200 -2.917 5.357,
            -1.200 -5.428 2.783,
            -1.200 -5.283 3.050,
            -1.200 -5.560 2.509,
            -1.200 -5.782 1.943,
            -1.200 -5.678 2.229,
            -1.200 -2.369 5.621,
            -1.200 -1.798 5.829,
            -1.200 -2.647 5.496,
            -1.200 -2.086 5.732,
            -1.200 -5.947 1.357,
            -1.200 -5.872 1.652,
            -1.200 -6.007 1.059,
            -1.200 -1.505 5.911,
            -1.200 -0.909 6.032,
            -1.200 -1.209 5.979,
            -1.200 -6.083 0.456,
            -1.200 -6.053 0.758,
            -1.200 -6.098 0.152,
            -1.200 -0.304 6.092,
            -1.200 -0.607 6.070,
            -1.200 -6.083 -0.456,
            -1.200 -6.098 -0.152,
            -1.200 -6.053 -0.758,
            -1.200 -5.947 -1.357,
            -1.200 -6.007 -1.059,
            -1.200 -5.872 -1.652,
            -1.200 -5.428 -2.783,
            -1.200 -5.124 -3.310,
            -1.200 -5.283 -3.050,
            -1.200 -5.560 -2.509,
            -1.200 -5.678 -2.229,
            -1.200 -5.782 -1.943,
            -1.200 -4.574 -4.036,
            -1.200 -4.953 -3.561,
            -1.200 -4.769 -3.803,
            -1.200 -3.921 -4.673,
            -1.200 -3.436 -5.040,
            -1.200 -3.683 -4.863,
            -1.200 -4.149 -4.472,
            -1.200 -4.367 -4.259,
            -1.200 -3.181 -5.205,
            -1.200 -2.647 -5.496,
            -1.200 -2.917 -5.357,
            -1.200 -2.369 -5.621,
            -1.200 -2.086 -5.732,
            -1.200 -1.505 -5.911,
            -1.200 -1.798 -5.829,
            -1.200 -1.209 -5.979,
            -1.200 -0.607 -6.070,
            -1.200 -0.909 -6.032,
            -1.200 -0.304 -6.092,
            -0.950 -0.317 -6.342,
            0.350 -0.317 -6.342,
            -0.950 -0.632 -6.318,
            0.350 -0.632 -6.318,
            -0.950 -0.946 -6.279,
            0.350 -0.946 -6.279,
            -0.950 -1.258 -6.224,
            0.350 -1.258 -6.224,
            -0.950 -1.567 -6.154,
            0.350 -1.567 -6.154,
            -0.950 -1.872 -6.068,
            0.350 -1.872 -6.068,
            -0.950 -2.172 -5.967,
            0.350 -2.172 -5.967,
            -0.950 -2.467 -5.851,
            0.350 -2.467 -5.851,
            -0.950 -2.755 -5.721,
            0.350 -2.755 -5.721,
            -0.950 -3.037 -5.577,
            0.350 -3.037 -5.577,
            -0.950 -3.311 -5.418,
            0.350 -3.311 -5.418,
            -0.950 -3.577 -5.247,
            0.350 -3.577 -5.247,
            -0.950 -3.834 -5.062,
            0.350 -3.834 -5.062,
            -0.950 -4.082 -4.864,
            0.350 -4.082 -4.864,
            -0.950 -4.319 -4.655,
            0.350 -4.319 -4.655,
            -0.950 -4.546 -4.434,
            0.350 -4.546 -4.434,
            -0.950 -4.761 -4.202,
            0.350 -4.761 -4.202,
            -0.950 -4.965 -3.959,
            0.350 -4.965 -3.959,
            -0.950 -5.156 -3.707,
            0.350 -5.156 -3.707,
            -0.950 -5.334 -3.445,
            0.350 -5.334 -3.445,
            -0.950 -5.499 -3.175,
            0.350 -5.499 -3.175,
            -0.950 -5.651 -2.897,
            0.350 -5.651 -2.897,
            -0.950 -5.788 -2.612,
            0.350 -5.788 -2.612,
            -0.950 -5.911 -2.320,
            0.350 -5.911 -2.320,
            -0.950 -6.019 -2.022,
            0.350 -6.019 -2.022,
            -0.950 -6.113 -1.720,
            0.350 -6.113 -1.720,
            -0.950 -6.191 -1.413,
            0.350 -6.191 -1.413,
            -0.950 -6.254 -1.103,
            0.350 -6.254 -1.103,
            -0.950 -6.301 -0.790,
            0.350 -6.301 -0.790,
            -0.950 -6.332 -0.475,
            0.350 -6.332 -0.475,
            -0.950 -6.348 -0.158,
            0.350 -6.348 -0.158,
            -0.950 -6.348 0.158,
            0.350 -6.348 0.158,
            -0.950 -6.332 0.475,
            0.350 -6.332 0.475,
            -0.950 -6.301 0.790,
            0.350 -6.301 0.790,
            -0.950 -6.254 1.103,
            0.350 -6.254 1.103,
            -0.950 -6.191 1.413,
            0.350 -6.191 1.413,
            -0.950 -6.113 1.720,
            0.350 -6.113 1.720,
            -0.950 -6.019 2.022,
            0.350 -6.019 2.022,
            -0.950 -5.911 2.320,
            0.350 -5.911 2.320,
            -0.950 -5.788 2.612,
            0.350 -5.788 2.612,
            -0.950 -5.651 2.897,
            0.350 -5.651 2.897,
            -0.950 -5.499 3.175,
            0.350 -5.499 3.175,
            -0.950 -5.334 3.445,
            0.350 -5.334 3.445,
            -0.950 -5.156 3.707,
            0.350 -5.156 3.707,
            -0.950 -4.965 3.959,
            0.350 -4.965 3.959,
            -0.950 -4.761 4.202,
            0.350 -4.761 4.202,
            -0.950 -4.546 4.434,
            0.350 -4.546 4.434,
            -0.950 -4.319 4.655,
            0.350 -4.319 4.655,
            -0.950 -4.082 4.864,
            0.350 -4.082 4.864,
            -0.950 -3.834 5.062,
            0.350 -3.834 5.062,
            -0.950 -3.577 5.247,
            0.350 -3.577 5.247,
            -0.950 -3.311 5.418,
            0.350 -3.311 5.418,
            -0.950 -3.037 5.577,
            0.350 -3.037 5.577,
            -0.950 -2.755 5.721,
            0.350 -2.755 5.721,
            -0.950 -2.467 5.851,
            0.350 -2.467 5.851,
            -0.950 -2.172 5.967,
            0.350 -2.172 5.967,
            -0.950 -1.872 6.068,
            0.350 -1.872 6.068,
            -0.950 -1.567 6.154,
            0.350 -1.567 6.154,
            -0.950 -1.258 6.224,
            0.350 -1.258 6.224,
            -0.950 -0.946 6.279,
            0.350 -0.946 6.279,
            -0.950 -0.632 6.318,
            0.350 -0.632 6.318,
            -0.950 -0.317 6.342,
            0.350 -0.317 6.342,
            0.645 -0.304 -6.098,
            0.645 -0.304 6.098,
            0.886 -0.320 -4.579,
            0.645 -0.608 -6.075,
            0.645 -0.910 -6.037,
            0.886 -0.639 -4.545,
            0.645 -1.210 -5.984,
            0.886 -0.954 -4.489,
            0.645 -1.507 -5.916,
            0.886 -1.265 -4.412,
            0.645 -1.800 -5.834,
            0.645 -2.088 -5.737,
            0.886 -1.570 -4.313,
            0.645 -2.371 -5.626,
            0.886 -1.867 -4.193,
            0.645 -2.649 -5.501,
            0.886 -2.155 -4.052,
            0.645 -2.920 -5.362,
            0.886 -2.432 -3.892,
            0.645 -3.183 -5.210,
            0.645 -3.439 -5.044,
            1.059 -0.214 -3.058,
            0.886 -2.698 -3.713,
            0.645 -3.686 -4.867,
            1.059 -0.427 -3.035,
            0.645 -3.924 -4.677,
            0.886 -2.950 -3.516,
            0.645 -4.153 -4.475,
            1.059 -0.637 -2.998,
            0.886 -3.188 -3.302,
            0.645 -4.371 -4.263,
            1.059 -0.845 -2.946,
            0.645 -4.578 -4.040,
            0.886 -3.411 -3.071,
            0.645 -4.773 -3.807,
            1.059 -1.048 -2.880,
            0.886 -3.617 -2.826,
            0.645 -4.957 -3.564,
            1.059 -1.247 -2.800,
            0.886 -3.805 -2.567,
            0.645 -5.129 -3.312,
            1.059 -1.439 -2.706,
            0.645 -5.287 -3.053,
            0.886 -3.975 -2.295,
            0.645 -5.433 -2.785,
            1.059 -1.624 -2.599,
            1.163 -0.107 -1.530,
            0.886 -4.125 -2.012,
            0.645 -5.565 -2.511,
            1.059 -1.802 -2.480,
            1.163 -0.213 -1.519,
            0.886 -4.255 -1.719,
            0.645 -5.683 -2.230,
            1.059 -1.970 -2.348,
            1.163 -0.319 -1.501,
            0.886 -4.365 -1.418,
            0.645 -5.787 -1.944,
            0.645 -5.877 -1.654,
            1.059 -2.129 -2.205,
            1.163 -0.423 -1.475,
            0.886 -4.453 -1.110,
            0.645 -5.952 -1.359,
            1.059 -2.278 -2.051,
            1.163 -0.525 -1.442,
            0.645 -6.012 -1.060,
            0.886 -4.520 -0.797,
            0.645 -6.058 -0.759,
            1.059 -2.415 -1.887,
            1.163 -0.624 -1.401,
            0.886 -4.565 -0.480,
            0.645 -6.088 -0.456,
            1.059 -2.541 -1.714,
            1.163 -0.720 -1.354,
            0.886 -4.587 -0.160,
            0.645 -6.103 -0.152,
            1.059 -2.654 -1.532,
            1.163 -0.813 -1.301,
            0.645 -6.103 0.152,
            0.886 -4.587 0.160,
            0.645 -6.088 0.456,
            1.059 -2.755 -1.344,
            1.163 -0.902 -1.241,
            0.886 -4.565 0.480,
            0.645 -6.058 0.759,
            1.059 -2.842 -1.148,
            1.163 -0.986 -1.175,
            0.886 -4.520 0.797,
            0.645 -6.012 1.060,
            0.645 -5.952 1.359,
            1.059 -2.915 -0.947,
            1.163 -1.066 -1.104,
            0.886 -4.453 1.110,
            0.645 -5.877 1.654,
            1.059 -2.974 -0.741,
            1.163 -1.140 -1.026,
            0.645 -5.787 1.944,
            0.886 -4.365 1.418,
            0.645 -5.683 2.230,
            1.059 -3.018 -0.532,
            1.163 -1.209 -0.944,
            0.886 -4.255 1.719,
            0.645 -5.565 2.511,
            1.059 -3.048 -0.320,
            1.163 -1.272 -0.858,
            0.886 -4.125 2.012,
            0.645 -5.433 2.785,
            1.059 -3.063 -0.107,
            1.163 -1.329 -0.767,
            0.645 -5.287 3.053,
            0.886 -3.975 2.295,
            0.645 -5.129 3.312,
            1.059 -3.063 0.107,
            1.163 -1.379 -0.672,
            0.886 -3.805 2.567,
            0.645 -4.957 3.564,
            1.059 -3.048 0.320,
            1.163 -1.422 -0.575,
            0.886 -3.617 2.826,
            0.645 -4.773 3.807,
            0.645 -4.578 4.040,
            1.059 -3.018 0.532,
            1.163 -1.459 -0.474,
            0.886 -3.411 3.071,
            0.645 -4.371 4.263,
            1.059 -2.974 0.741,
            1.163 -1.488 -0.371,
            0.886 -3.188 3.302,
            0.645 -4.153 4.475,
            1.059 -2.915 0.947,
            1.163 -1.511 -0.266,
            0.645 -3.924 4.677,
            0.886 -2.950 3.516,
            0.645 -3.686 4.867,
            1.059 -2.842 1.148,
            1.163 -1.526 -0.160,
            0.886 -2.698 3.713,
            0.645 -3.439 5.044,
            1.059 -2.755 1.344,
            1.163 -1.533 -0.054,
            0.886 -2.432 3.892,
            0.645 -3.183 5.210,
            1.059 -2.654 1.532,
            1.163 -1.533 0.054,
            0.645 -2.920 5.362,
            0.886 -2.155 4.052,
            0.645 -2.649 5.501,
            1.059 -2.541 1.714,
            1.163 -1.526 0.160,
            0.886 -1.867 4.193,
            0.645 -2.371 5.626,
            1.059 -2.415 1.887,
            1.163 -1.511 0.266,
            0.645 -2.088 5.737,
            0.886 -1.570 4.313,
            0.645 -1.800 5.834,
            1.059 -2.278 2.051,
            1.163 -1.488 0.371,
            0.886 -1.265 4.412,
            0.645 -1.507 5.916,
            1.059 -2.129 2.205,
            1.163 -1.459 0.474,
            0.886 -0.954 4.489,
            0.645 -1.210 5.984,
            1.059 -1.970 2.348,
            1.163 -1.422 0.575,
            0.645 -0.910 6.037,
            0.886 -0.639 4.545,
            0.645 -0.608 6.075,
            1.059 -1.802 2.480,
            1.163 -1.379 0.672,
            0.886 -0.320 4.579,
            1.059 -1.624 2.599,
            1.163 -1.329 0.767,
            1.059 -1.439 2.706,
            1.163 -1.272 0.858,
            1.059 -1.247 2.800,
            1.163 -1.209 0.944,
            1.059 -1.048 2.880,
            1.163 -1.140 1.026,
            1.059 -0.845 2.946,
            1.163 -1.066 1.104,
            1.059 -0.637 2.998,
            1.163 -0.986 1.175,
            1.059 -0.427 3.035,
            1.163 -0.902 1.241,
            1.059 -0.214 3.058,
            1.163 -0.813 1.301,
            1.163 -0.720 1.354,
            1.163 -0.624 1.401,
            1.163 -0.525 1.442,
            1.163 -0.423 1.475,
            1.163 -0.319 1.501,
            1.163 -0.213 1.519,
            1.163 -0.107 1.530
          ]
        }
        coordIndex [
          0, 1, 2, -1,
          3, 0, 2, -1,
          3, 2, 4, -1,
          5, 3, 4, -1,
          5, 4, 6, -1,
          7, 5, 6, -1,
          7, 6, 8, -1,
          9, 7, 8, -1,
          9, 8, 10, -1,
          11, 9, 10, -1,
          11, 10, 12, -1,
          13, 12, 14, -1,
          13, 11, 12, -1,
          15, 14, 16, -1,
          15, 13, 14, -1,
          17, 16, 18, -1,
          17, 15, 16, -1,
          19, 18, 20, -1,
          19, 17, 18, -1,
          21, 20, 22, -1,
          21, 19, 20, -1,
          23, 22, 24, -1,
          23, 21, 22, -1,
          25, 24, 26, -1,
          25, 23, 24, -1,
          27, 26, 28, -1,
          27, 25, 26, -1,
          29, 28, 30, -1,
          29, 27, 28, -1,
          31, 30, 32, -1,
          31, 29, 30, -1,
          33, 32, 34, -1,
          33, 31, 32, -1,
          35, 34, 36, -1,
          35, 33, 34, -1,
          37, 35, 36, -1,
          37, 36, 38, -1,
          39, 37, 38, -1,
          39, 38, 40, -1,
          41, 39, 40, -1,
          41, 40, 42, -1,
          43, 41, 42, -1,
          43, 42, 44, -1,
          45, 43, 44, -1,
          45, 44, 46, -1,
          47, 45, 46, -1,
          47, 46, 48, -1,
          49, 47, 48, -1,
          49, 48, 50, -1,
          51, 49, 50, -1,
          51, 50, 52, -1,
          53, 51, 52, -1,
          53, 52, 54, -1,
          55, 54, 56, -1,
          55, 53, 54, -1,
          57, 56, 58, -1,
          57, 55, 56, -1,
          59, 58, 60, -1,
          59, 57, 58, -1,
          61, 60, 62, -1,
          61, 59, 60, -1,
          63, 62, 64, -1,
          63, 61, 62, -1,
          65, 63, 64, -1,
          66, 67, 68, -1,
          66, 64, 67, -1,
          66, 65, 64, -1,
          69, 68, 70, -1,
          69, 66, 68, -1,
          71, 70, 72, -1,
          71, 69, 70, -1,
          73, 72, 74, -1,
          73, 71, 72, -1,
          75, 74, 76, -1,
          75, 73, 74, -1,
          77, 75, 76, -1,
          78, 79, 80, -1,
          78, 76, 79, -1,
          78, 77, 76, -1,
          81, 78, 80, -1,
          82, 80, 83, -1,
          82, 81, 80, -1,
          84, 85, 86, -1,
          84, 83, 85, -1,
          84, 82, 83, -1,
          87, 84, 86, -1,
          88, 87, 86, -1,
          88, 89, 90, -1,
          88, 86, 89, -1,
          91, 88, 90, -1,
          91, 90, 92, -1,
          93, 91, 92, -1,
          93, 92, 94, -1,
          95, 93, 94, -1,
          96, 97, 98, -1,
          96, 94, 97, -1,
          96, 95, 94, -1,
          99, 98, 100, -1,
          99, 96, 98, -1,
          101, 99, 100, -1,
          102, 100, 103, -1,
          102, 101, 100, -1,
          104, 105, 106, -1,
          104, 103, 105, -1,
          104, 102, 103, -1,
          107, 104, 106, -1,
          108, 106, 109, -1,
          108, 107, 106, -1,
          110, 109, 111, -1,
          110, 108, 109, -1,
          112, 113, 114, -1,
          112, 111, 113, -1,
          112, 110, 111, -1,
          115, 112, 114, -1,
          116, 114, 117, -1,
          116, 115, 114, -1,
          118, 117, 119, -1,
          118, 116, 117, -1,
          120, 121, 122, -1,
          120, 119, 121, -1,
          120, 118, 119, -1,
          123, 120, 122, -1,
          124, 125, 126, -1,
          124, 122, 125, -1,
          124, 123, 122, -1,
          127, 124, 126, -1,
          124, 128, 129, -1,
          124, 127, 128, -1,
          123, 129, 130, -1,
          123, 124, 129, -1,
          120, 130, 131, -1,
          120, 123, 130, -1,
          118, 131, 132, -1,
          118, 120, 131, -1,
          116, 132, 133, -1,
          116, 118, 132, -1,
          115, 133, 134, -1,
          115, 116, 133, -1,
          112, 134, 135, -1,
          112, 115, 134, -1,
          110, 135, 136, -1,
          110, 112, 135, -1,
          108, 136, 137, -1,
          108, 110, 136, -1,
          107, 137, 138, -1,
          107, 108, 137, -1,
          104, 138, 139, -1,
          104, 107, 138, -1,
          102, 139, 140, -1,
          102, 104, 139, -1,
          101, 140, 141, -1,
          101, 102, 140, -1,
          99, 141, 142, -1,
          99, 101, 141, -1,
          96, 142, 143, -1,
          96, 99, 142, -1,
          95, 143, 144, -1,
          95, 96, 143, -1,
          93, 144, 145, -1,
          93, 95, 144, -1,
          91, 145, 146, -1,
          91, 93, 145, -1,
          88, 91, 146, -1,
          88, 146, 147, -1,
          87, 88, 147, -1,
          87, 147, 148, -1,
          84, 87, 148, -1,
          84, 148, 149, -1,
          84, 149, 150, -1,
          82, 84, 150, -1,
          81, 150, 151, -1,
          81, 151, 152, -1,
          81, 82, 150, -1,
          78, 81, 152, -1,
          77, 152, 153, -1,
          77, 153, 154, -1,
          77, 78, 152, -1,
          75, 154, 155, -1,
          75, 77, 154, -1,
          73, 75, 155, -1,
          71, 155, 156, -1,
          71, 73, 155, -1,
          69, 156, 157, -1,
          69, 157, 158, -1,
          69, 71, 156, -1,
          66, 158, 159, -1,
          66, 69, 158, -1,
          65, 66, 159, -1,
          63, 159, 160, -1,
          63, 160, 161, -1,
          63, 65, 159, -1,
          61, 161, 162, -1,
          61, 63, 161, -1,
          59, 162, 163, -1,
          59, 61, 162, -1,
          57, 163, 164, -1,
          57, 59, 163, -1,
          55, 57, 164, -1,
          53, 164, 165, -1,
          53, 55, 164, -1,
          51, 165, 166, -1,
          51, 166, 167, -1,
          51, 53, 165, -1,
          49, 51, 167, -1,
          47, 167, 168, -1,
          47, 49, 167, -1,
          45, 168, 169, -1,
          45, 47, 168, -1,
          43, 169, 170, -1,
          43, 170, 171, -1,
          43, 45, 169, -1,
          41, 43, 171, -1,
          39, 41, 171, -1,
          39, 171, 172, -1,
          37, 39, 172, -1,
          37, 172, 173, -1,
          35, 37, 173, -1,
          35, 173, 174, -1,
          33, 35, 174, -1,
          33, 174, 175, -1,
          31, 33, 175, -1,
          31, 175, 176, -1,
          29, 31, 176, -1,
          29, 176, 177, -1,
          27, 29, 177, -1,
          27, 177, 178, -1,
          25, 27, 178, -1,
          25, 178, 179, -1,
          23, 25, 179, -1,
          23, 179, 180, -1,
          23, 180, 181, -1,
          21, 23, 181, -1,
          19, 21, 181, -1,
          19, 181, 182, -1,
          17, 19, 182, -1,
          17, 182, 183, -1,
          15, 183, 184, -1,
          15, 17, 183, -1,
          13, 184, 185, -1,
          13, 185, 186, -1,
          13, 15, 184, -1,
          11, 13, 186, -1,
          9, 186, 187, -1,
          9, 11, 186, -1,
          7, 187, 188, -1,
          7, 9, 187, -1,
          5, 188, 189, -1,
          5, 7, 188, -1,
          3, 189, 190, -1,
          3, 5, 189, -1,
          0, 190, 191, -1,
          0, 3, 190, -1,
          128, 192, 193, -1,
          129, 128, 193, -1,
          129, 193, 194, -1,
          130, 129, 194, -1,
          130, 194, 195, -1,
          131, 130, 195, -1,
          131, 195, 196, -1,
          132, 131, 196, -1,
          132, 196, 197, -1,
          133, 132, 197, -1,
          133, 197, 198, -1,
          134, 198, 199, -1,
          134, 133, 198, -1,
          135, 199, 200, -1,
          135, 134, 199, -1,
          136, 200, 201, -1,
          136, 135, 200, -1,
          137, 201, 202, -1,
          137, 136, 201, -1,
          138, 202, 203, -1,
          138, 137, 202, -1,
          139, 203, 204, -1,
          139, 138, 203, -1,
          140, 204, 205, -1,
          140, 139, 204, -1,
          141, 205, 206, -1,
          141, 140, 205, -1,
          142, 206, 207, -1,
          142, 141, 206, -1,
          143, 207, 208, -1,
          143, 142, 207, -1,
          144, 208, 209, -1,
          144, 143, 208, -1,
          145, 209, 210, -1,
          145, 144, 209, -1,
          146, 145, 210, -1,
          146, 210, 211, -1,
          147, 146, 211, -1,
          147, 211, 212, -1,
          148, 147, 212, -1,
          148, 212, 213, -1,
          149, 148, 213, -1,
          149, 213, 214, -1,
          150, 149, 214, -1,
          150, 214, 215, -1,
          151, 150, 215, -1,
          151, 215, 216, -1,
          152, 151, 216, -1,
          152, 216, 217, -1,
          153, 152, 217, -1,
          153, 217, 218, -1,
          154, 153, 218, -1,
          154, 218, 219, -1,
          155, 219, 220, -1,
          155, 154, 219, -1,
          156, 220, 221, -1,
          156, 155, 220, -1,
          157, 221, 222, -1,
          157, 156, 221, -1,
          158, 222, 223, -1,
          158, 157, 222, -1,
          159, 158, 223, -1,
          160, 224, 225, -1,
          160, 223, 224, -1,
          160, 159, 223, -1,
          161, 225, 226, -1,
          161, 160, 225, -1,
          162, 226, 227, -1,
          162, 161, 226, -1,
          163, 162, 227, -1,
          164, 228, 229, -1,
          164, 227, 228, -1,
          164, 163, 227, -1,
          165, 229, 230, -1,
          165, 164, 229, -1,
          166, 230, 231, -1,
          166, 165, 230, -1,
          167, 166, 231, -1,
          168, 232, 233, -1,
          168, 231, 232, -1,
          168, 167, 231, -1,
          169, 233, 234, -1,
          169, 168, 233, -1,
          170, 169, 234, -1,
          171, 170, 234, -1,
          171, 235, 236, -1,
          171, 234, 235, -1,
          172, 171, 236, -1,
          173, 172, 236, -1,
          173, 236, 237, -1,
          174, 173, 237, -1,
          174, 237, 238, -1,
          175, 174, 238, -1,
          175, 239, 240, -1,
          175, 238, 239, -1,
          176, 240, 241, -1,
          176, 175, 240, -1,
          177, 176, 241, -1,
          178, 241, 242, -1,
          178, 177, 241, -1,
          179, 243, 244, -1,
          179, 242, 243, -1,
          179, 178, 242, -1,
          180, 244, 245, -1,
          180, 179, 244, -1,
          181, 245, 246, -1,
          181, 180, 245, -1,
          182, 181, 246, -1,
          183, 247, 248, -1,
          183, 246, 247, -1,
          183, 182, 246, -1,
          184, 248, 249, -1,
          184, 183, 248, -1,
          185, 249, 250, -1,
          185, 184, 249, -1,
          186, 250, 251, -1,
          186, 185, 250, -1,
          187, 251, 252, -1,
          187, 186, 251, -1,
          188, 252, 253, -1,
          188, 187, 252, -1,
          189, 188, 253, -1,
          190, 253, 254, -1,
          190, 189, 253, -1,
          191, 254, 255, -1,
          191, 190, 254, -1,
          192, 256, 193, -1,
          254, 257, 255, -1,
          193, 258, 194, -1,
          256, 258, 193, -1,
          195, 259, 196, -1,
          194, 259, 195, -1,
          258, 259, 194, -1,
          259, 260, 196, -1,
          196, 260, 197, -1,
          260, 261, 197, -1,
          197, 261, 198, -1,
          199, 262, 200, -1,
          198, 262, 199, -1,
          261, 262, 198, -1,
          200, 263, 201, -1,
          262, 263, 200, -1,
          202, 264, 203, -1,
          201, 264, 202, -1,
          263, 264, 201, -1,
          264, 265, 203, -1,
          203, 265, 204, -1,
          266, 267, 256, -1,
          256, 267, 258, -1,
          265, 268, 204, -1,
          204, 268, 205, -1,
          267, 269, 258, -1,
          258, 269, 259, -1,
          206, 270, 207, -1,
          205, 270, 206, -1,
          268, 270, 205, -1,
          259, 271, 260, -1,
          269, 271, 259, -1,
          207, 272, 208, -1,
          270, 272, 207, -1,
          260, 273, 261, -1,
          271, 273, 260, -1,
          209, 274, 210, -1,
          208, 274, 209, -1,
          272, 274, 208, -1,
          273, 275, 261, -1,
          261, 275, 262, -1,
          210, 276, 211, -1,
          274, 276, 210, -1,
          275, 277, 262, -1,
          262, 277, 263, -1,
          211, 278, 212, -1,
          276, 278, 211, -1,
          263, 279, 264, -1,
          277, 279, 263, -1,
          213, 280, 214, -1,
          212, 280, 213, -1,
          278, 280, 212, -1,
          279, 281, 264, -1,
          264, 281, 265, -1,
          266, 282, 267, -1,
          283, 282, 284, -1,
          284, 282, 266, -1,
          214, 285, 215, -1,
          280, 285, 214, -1,
          265, 286, 268, -1,
          281, 286, 265, -1,
          267, 287, 269, -1,
          283, 287, 282, -1,
          282, 287, 267, -1,
          216, 288, 217, -1,
          215, 288, 216, -1,
          285, 288, 215, -1,
          268, 289, 270, -1,
          286, 289, 268, -1,
          287, 290, 269, -1,
          283, 290, 287, -1,
          269, 290, 271, -1,
          288, 291, 217, -1,
          217, 291, 218, -1,
          270, 292, 272, -1,
          289, 292, 270, -1,
          290, 293, 271, -1,
          283, 293, 290, -1,
          271, 293, 273, -1,
          291, 294, 218, -1,
          218, 294, 219, -1,
          272, 295, 274, -1,
          292, 295, 272, -1,
          283, 296, 293, -1,
          293, 296, 273, -1,
          273, 296, 275, -1,
          220, 297, 221, -1,
          219, 297, 220, -1,
          294, 297, 219, -1,
          295, 298, 274, -1,
          274, 298, 276, -1,
          277, 299, 279, -1,
          283, 299, 296, -1,
          296, 299, 275, -1,
          275, 299, 277, -1,
          221, 300, 222, -1,
          297, 300, 221, -1,
          278, 301, 280, -1,
          276, 301, 278, -1,
          298, 301, 276, -1,
          283, 302, 299, -1,
          299, 302, 279, -1,
          223, 303, 224, -1,
          222, 303, 223, -1,
          300, 303, 222, -1,
          301, 304, 280, -1,
          283, 305, 302, -1,
          302, 305, 279, -1,
          279, 305, 281, -1,
          224, 306, 225, -1,
          303, 306, 224, -1,
          285, 307, 288, -1,
          304, 307, 280, -1,
          280, 307, 285, -1,
          283, 308, 305, -1,
          281, 308, 286, -1,
          305, 308, 281, -1,
          225, 309, 226, -1,
          306, 309, 225, -1,
          307, 310, 288, -1,
          283, 311, 308, -1,
          286, 311, 289, -1,
          308, 311, 286, -1,
          227, 312, 228, -1,
          226, 312, 227, -1,
          309, 312, 226, -1,
          288, 313, 291, -1,
          310, 313, 288, -1,
          289, 314, 292, -1,
          311, 314, 289, -1,
          283, 314, 311, -1,
          312, 315, 228, -1,
          228, 315, 229, -1,
          291, 316, 294, -1,
          313, 316, 291, -1,
          294, 316, 297, -1,
          295, 317, 298, -1,
          292, 317, 295, -1,
          314, 317, 292, -1,
          283, 317, 314, -1,
          229, 318, 230, -1,
          315, 318, 229, -1,
          316, 319, 297, -1,
          283, 320, 317, -1,
          317, 320, 298, -1,
          231, 321, 232, -1,
          230, 321, 231, -1,
          318, 321, 230, -1,
          319, 322, 297, -1,
          297, 322, 300, -1,
          298, 323, 301, -1,
          320, 323, 298, -1,
          283, 323, 320, -1,
          321, 324, 232, -1,
          232, 324, 233, -1,
          322, 325, 300, -1,
          300, 325, 303, -1,
          323, 326, 301, -1,
          301, 326, 304, -1,
          304, 326, 307, -1,
          283, 326, 323, -1,
          234, 327, 235, -1,
          233, 327, 234, -1,
          324, 327, 233, -1,
          325, 328, 303, -1,
          303, 328, 306, -1,
          306, 328, 309, -1,
          326, 329, 307, -1,
          283, 329, 326, -1,
          235, 330, 236, -1,
          327, 330, 235, -1,
          328, 331, 309, -1,
          329, 332, 307, -1,
          283, 332, 329, -1,
          307, 332, 310, -1,
          237, 333, 238, -1,
          236, 333, 237, -1,
          330, 333, 236, -1,
          331, 334, 309, -1,
          309, 334, 312, -1,
          283, 335, 332, -1,
          332, 335, 310, -1,
          313, 335, 316, -1,
          310, 335, 313, -1,
          238, 336, 239, -1,
          333, 336, 238, -1,
          334, 337, 312, -1,
          315, 337, 318, -1,
          312, 337, 315, -1,
          283, 338, 335, -1,
          335, 338, 316, -1,
          239, 339, 240, -1,
          336, 339, 239, -1,
          337, 340, 318, -1,
          316, 341, 319, -1,
          319, 341, 322, -1,
          283, 341, 338, -1,
          338, 341, 316, -1,
          241, 342, 242, -1,
          240, 342, 241, -1,
          339, 342, 240, -1,
          318, 343, 321, -1,
          340, 343, 318, -1,
          283, 344, 341, -1,
          341, 344, 322, -1,
          242, 345, 243, -1,
          342, 345, 242, -1,
          321, 346, 324, -1,
          343, 346, 321, -1,
          325, 347, 328, -1,
          322, 347, 325, -1,
          344, 347, 322, -1,
          283, 347, 344, -1,
          243, 348, 244, -1,
          345, 348, 243, -1,
          324, 349, 327, -1,
          346, 349, 324, -1,
          347, 350, 328, -1,
          283, 350, 347, -1,
          245, 351, 246, -1,
          244, 351, 245, -1,
          348, 351, 244, -1,
          327, 352, 330, -1,
          349, 352, 327, -1,
          350, 353, 328, -1,
          328, 353, 331, -1,
          283, 353, 350, -1,
          351, 354, 246, -1,
          246, 354, 247, -1,
          352, 355, 330, -1,
          330, 355, 333, -1,
          331, 356, 334, -1,
          353, 356, 331, -1,
          283, 356, 353, -1,
          248, 357, 249, -1,
          247, 357, 248, -1,
          354, 357, 247, -1,
          355, 358, 333, -1,
          336, 358, 339, -1,
          333, 358, 336, -1,
          356, 359, 334, -1,
          283, 359, 356, -1,
          334, 359, 337, -1,
          337, 359, 340, -1,
          357, 360, 249, -1,
          249, 360, 250, -1,
          358, 361, 339, -1,
          339, 361, 342, -1,
          359, 362, 340, -1,
          283, 362, 359, -1,
          340, 362, 343, -1,
          250, 363, 251, -1,
          360, 363, 250, -1,
          361, 364, 342, -1,
          362, 365, 343, -1,
          283, 365, 362, -1,
          252, 366, 253, -1,
          251, 366, 252, -1,
          363, 366, 251, -1,
          364, 367, 342, -1,
          342, 367, 345, -1,
          345, 367, 348, -1,
          365, 368, 343, -1,
          283, 368, 365, -1,
          343, 368, 346, -1,
          346, 368, 349, -1,
          253, 369, 254, -1,
          254, 369, 257, -1,
          366, 369, 253, -1,
          367, 370, 348, -1,
          283, 371, 368, -1,
          368, 371, 349, -1,
          370, 372, 348, -1,
          348, 372, 351, -1,
          283, 373, 371, -1,
          352, 373, 355, -1,
          349, 373, 352, -1,
          371, 373, 349, -1,
          354, 374, 357, -1,
          372, 374, 351, -1,
          351, 374, 354, -1,
          373, 375, 355, -1,
          283, 375, 373, -1,
          374, 376, 357, -1,
          355, 377, 358, -1,
          358, 377, 361, -1,
          375, 377, 355, -1,
          283, 377, 375, -1,
          357, 378, 360, -1,
          376, 378, 357, -1,
          361, 379, 364, -1,
          377, 379, 361, -1,
          283, 379, 377, -1,
          360, 380, 363, -1,
          378, 380, 360, -1,
          379, 381, 364, -1,
          283, 381, 379, -1,
          380, 382, 363, -1,
          363, 382, 366, -1,
          364, 383, 367, -1,
          381, 383, 364, -1,
          283, 383, 381, -1,
          382, 384, 366, -1,
          369, 384, 257, -1,
          366, 384, 369, -1,
          257, 384, 385, -1,
          367, 386, 370, -1,
          383, 386, 367, -1,
          283, 386, 383, -1,
          283, 387, 386, -1,
          370, 387, 372, -1,
          386, 387, 370, -1,
          283, 388, 387, -1,
          372, 388, 374, -1,
          387, 388, 372, -1,
          388, 389, 374, -1,
          283, 389, 388, -1,
          374, 389, 376, -1,
          376, 389, 378, -1,
          389, 390, 378, -1,
          283, 390, 389, -1,
          378, 390, 380, -1,
          283, 391, 390, -1,
          390, 391, 380, -1,
          283, 392, 391, -1,
          391, 392, 380, -1,
          380, 392, 382, -1,
          382, 393, 384, -1,
          392, 393, 382, -1,
          384, 393, 385, -1,
          283, 393, 392, -1,
          394, 393, 283, -1,
          385, 393, 394, -1,
          395, 396, 397, -1,
          398, 399, 395, -1,
          400, 399, 398, -1,
          401, 399, 400, -1,
          402, 399, 401, -1,
          395, 403, 396, -1,
          404, 405, 399, -1,
          403, 406, 407, -1,
          408, 409, 410, -1,
          406, 409, 408, -1,
          411, 412, 413, -1,
          414, 412, 411, -1,
          409, 415, 416, -1,
          395, 417, 403, -1,
          403, 417, 406, -1,
          409, 417, 415, -1,
          406, 417, 409, -1,
          418, 419, 412, -1,
          420, 419, 418, -1,
          412, 419, 413, -1,
          417, 421, 422, -1,
          399, 423, 395, -1,
          395, 423, 417, -1,
          417, 423, 421, -1,
          424, 126, 425, -1,
          425, 125, 419, -1,
          126, 125, 425, -1,
          423, 426, 427, -1,
          423, 428, 426, -1,
          423, 429, 428, -1,
          405, 429, 399, -1,
          399, 429, 423, -1,
          428, 429, 430, -1,
          122, 117, 125, -1,
          121, 117, 122, -1,
          119, 117, 121, -1,
          405, 431, 429, -1,
          413, 431, 405, -1,
          117, 114, 125, -1,
          114, 113, 125, -1,
          111, 106, 113, -1,
          109, 106, 111, -1,
          432, 433, 434, -1,
          435, 433, 432, -1,
          436, 433, 435, -1,
          437, 433, 436, -1,
          431, 433, 437, -1,
          105, 103, 106, -1,
          113, 103, 125, -1,
          106, 103, 113, -1,
          419, 103, 413, -1,
          125, 103, 419, -1,
          103, 100, 413, -1,
          413, 438, 431, -1,
          431, 438, 433, -1,
          439, 438, 440, -1,
          433, 438, 439, -1,
          97, 94, 98, -1,
          98, 92, 100, -1,
          94, 92, 98, -1,
          90, 89, 92, -1,
          441, 442, 443, -1,
          444, 442, 441, -1,
          445, 442, 444, -1,
          92, 86, 100, -1,
          89, 86, 92, -1,
          100, 446, 413, -1,
          413, 446, 438, -1,
          86, 446, 100, -1,
          445, 446, 442, -1,
          438, 446, 445, -1,
          446, 447, 448, -1,
          85, 80, 86, -1,
          83, 80, 85, -1,
          446, 449, 447, -1,
          80, 79, 86, -1,
          446, 450, 449, -1,
          86, 76, 446, -1,
          79, 76, 86, -1,
          450, 451, 452, -1,
          450, 453, 451, -1,
          74, 70, 76, -1,
          72, 70, 74, -1,
          450, 454, 453, -1,
          453, 454, 455, -1,
          446, 454, 450, -1,
          67, 64, 68, -1,
          456, 2, 1, -1,
          64, 60, 68, -1,
          62, 60, 64, -1,
          446, 6, 454, -1,
          456, 6, 2, -1,
          2, 6, 4, -1,
          454, 6, 456, -1,
          446, 8, 6, -1,
          58, 52, 60, -1,
          56, 52, 58, -1,
          54, 52, 56, -1,
          8, 12, 10, -1,
          52, 50, 60, -1,
          8, 14, 12, -1,
          60, 48, 68, -1,
          68, 48, 70, -1,
          50, 48, 60, -1,
          16, 20, 18, -1,
          446, 22, 8, -1,
          8, 22, 14, -1,
          14, 22, 16, -1,
          16, 22, 20, -1,
          76, 22, 446, -1,
          46, 40, 48, -1,
          44, 40, 46, -1,
          42, 40, 44, -1,
          48, 40, 70, -1,
          70, 40, 76, -1,
          38, 36, 40, -1,
          40, 36, 76, -1,
          24, 28, 26, -1,
          22, 30, 24, -1,
          24, 30, 28, -1,
          34, 32, 36, -1,
          76, 32, 22, -1,
          36, 32, 76, -1,
          22, 32, 30, -1,
          457, 0, 191, -1,
          457, 191, 458, -1,
          459, 458, 460, -1,
          459, 457, 458, -1,
          461, 460, 462, -1,
          461, 459, 460, -1,
          463, 462, 464, -1,
          463, 461, 462, -1,
          465, 464, 466, -1,
          465, 463, 464, -1,
          467, 466, 468, -1,
          467, 465, 466, -1,
          469, 468, 470, -1,
          469, 467, 468, -1,
          471, 470, 472, -1,
          471, 469, 470, -1,
          473, 472, 474, -1,
          473, 471, 472, -1,
          475, 474, 476, -1,
          475, 473, 474, -1,
          477, 476, 478, -1,
          477, 475, 476, -1,
          479, 478, 480, -1,
          479, 477, 478, -1,
          481, 480, 482, -1,
          481, 479, 480, -1,
          483, 482, 484, -1,
          483, 481, 482, -1,
          485, 484, 486, -1,
          485, 483, 484, -1,
          487, 486, 488, -1,
          487, 485, 486, -1,
          489, 488, 490, -1,
          489, 487, 488, -1,
          491, 490, 492, -1,
          491, 489, 490, -1,
          493, 491, 492, -1,
          493, 492, 494, -1,
          495, 493, 494, -1,
          495, 494, 496, -1,
          497, 495, 496, -1,
          497, 496, 498, -1,
          499, 497, 498, -1,
          499, 498, 500, -1,
          501, 500, 502, -1,
          501, 499, 500, -1,
          503, 502, 504, -1,
          503, 501, 502, -1,
          505, 504, 506, -1,
          505, 503, 504, -1,
          507, 506, 508, -1,
          507, 505, 506, -1,
          509, 508, 510, -1,
          509, 507, 508, -1,
          511, 510, 512, -1,
          511, 509, 510, -1,
          513, 512, 514, -1,
          513, 511, 512, -1,
          515, 514, 516, -1,
          515, 513, 514, -1,
          517, 516, 518, -1,
          517, 515, 516, -1,
          519, 518, 520, -1,
          519, 517, 518, -1,
          521, 520, 522, -1,
          521, 519, 520, -1,
          523, 522, 524, -1,
          523, 521, 522, -1,
          525, 524, 526, -1,
          525, 523, 524, -1,
          527, 526, 528, -1,
          527, 525, 526, -1,
          529, 528, 530, -1,
          529, 527, 528, -1,
          531, 530, 532, -1,
          531, 529, 530, -1,
          533, 532, 534, -1,
          533, 531, 532, -1,
          535, 534, 536, -1,
          535, 533, 534, -1,
          537, 536, 538, -1,
          537, 535, 536, -1,
          539, 538, 540, -1,
          539, 537, 538, -1,
          541, 539, 540, -1,
          541, 540, 542, -1,
          543, 541, 542, -1,
          543, 542, 544, -1,
          545, 543, 544, -1,
          545, 544, 546, -1,
          547, 545, 546, -1,
          547, 546, 548, -1,
          549, 547, 548, -1,
          549, 548, 550, -1,
          551, 549, 550, -1,
          551, 550, 552, -1,
          553, 551, 552, -1,
          553, 552, 554, -1,
          555, 553, 554, -1,
          555, 554, 556, -1,
          557, 555, 556, -1,
          557, 556, 558, -1,
          559, 557, 558, -1,
          559, 558, 560, -1,
          561, 559, 560, -1,
          561, 560, 562, -1,
          563, 561, 562, -1,
          563, 562, 564, -1,
          565, 563, 564, -1,
          565, 564, 566, -1,
          567, 565, 566, -1,
          567, 566, 568, -1,
          569, 568, 570, -1,
          569, 567, 568, -1,
          571, 570, 572, -1,
          571, 569, 570, -1,
          573, 572, 574, -1,
          573, 571, 572, -1,
          575, 574, 576, -1,
          575, 573, 574, -1,
          577, 576, 578, -1,
          577, 575, 576, -1,
          579, 578, 580, -1,
          579, 577, 578, -1,
          127, 580, 128, -1,
          127, 579, 580, -1,
          255, 257, 581, -1,
          582, 256, 192, -1,
          581, 583, 584, -1,
          257, 583, 581, -1,
          585, 586, 587, -1,
          584, 586, 585, -1,
          583, 586, 584, -1,
          586, 588, 587, -1,
          587, 588, 589, -1,
          588, 590, 589, -1,
          589, 590, 591, -1,
          592, 593, 594, -1,
          591, 593, 592, -1,
          590, 593, 591, -1,
          594, 595, 596, -1,
          593, 595, 594, -1,
          596, 597, 598, -1,
          595, 597, 596, -1,
          597, 599, 598, -1,
          600, 599, 601, -1,
          598, 599, 600, -1,
          385, 602, 257, -1,
          257, 602, 583, -1,
          599, 603, 601, -1,
          601, 603, 604, -1,
          602, 605, 583, -1,
          583, 605, 586, -1,
          606, 607, 608, -1,
          604, 607, 606, -1,
          603, 607, 604, -1,
          586, 609, 588, -1,
          605, 609, 586, -1,
          607, 610, 608, -1,
          608, 610, 611, -1,
          588, 612, 590, -1,
          609, 612, 588, -1,
          613, 614, 615, -1,
          611, 614, 613, -1,
          610, 614, 611, -1,
          590, 616, 593, -1,
          612, 616, 590, -1,
          615, 617, 618, -1,
          614, 617, 615, -1,
          616, 619, 593, -1,
          593, 619, 595, -1,
          617, 620, 618, -1,
          618, 620, 621, -1,
          595, 622, 597, -1,
          619, 622, 595, -1,
          623, 624, 625, -1,
          621, 624, 623, -1,
          620, 624, 621, -1,
          622, 626, 597, -1,
          597, 626, 599, -1,
          385, 627, 602, -1,
          283, 627, 394, -1,
          394, 627, 385, -1,
          624, 628, 625, -1,
          625, 628, 629, -1,
          626, 630, 599, -1,
          599, 630, 603, -1,
          627, 631, 602, -1,
          283, 631, 627, -1,
          602, 631, 605, -1,
          629, 632, 633, -1,
          628, 632, 629, -1,
          630, 634, 603, -1,
          603, 634, 607, -1,
          631, 635, 605, -1,
          283, 635, 631, -1,
          605, 635, 609, -1,
          632, 636, 633, -1,
          637, 636, 638, -1,
          633, 636, 637, -1,
          610, 639, 614, -1,
          634, 639, 607, -1,
          607, 639, 610, -1,
          283, 640, 635, -1,
          635, 640, 609, -1,
          609, 640, 612, -1,
          638, 641, 642, -1,
          636, 641, 638, -1,
          639, 643, 614, -1,
          614, 643, 617, -1,
          640, 644, 612, -1,
          612, 644, 616, -1,
          283, 644, 640, -1,
          616, 644, 619, -1,
          645, 646, 647, -1,
          642, 646, 645, -1,
          641, 646, 642, -1,
          643, 648, 617, -1,
          283, 649, 644, -1,
          644, 649, 619, -1,
          646, 650, 647, -1,
          647, 650, 651, -1,
          648, 652, 617, -1,
          617, 652, 620, -1,
          283, 653, 649, -1,
          649, 653, 619, -1,
          619, 653, 622, -1,
          650, 654, 651, -1,
          651, 654, 655, -1,
          652, 656, 620, -1,
          620, 656, 624, -1,
          622, 657, 626, -1,
          653, 657, 622, -1,
          283, 657, 653, -1,
          626, 657, 630, -1,
          658, 659, 660, -1,
          655, 659, 658, -1,
          654, 659, 655, -1,
          628, 661, 632, -1,
          656, 661, 624, -1,
          624, 661, 628, -1,
          283, 662, 657, -1,
          657, 662, 630, -1,
          660, 663, 664, -1,
          659, 663, 660, -1,
          661, 665, 632, -1,
          283, 666, 662, -1,
          662, 666, 630, -1,
          630, 666, 634, -1,
          663, 667, 664, -1,
          668, 667, 669, -1,
          664, 667, 668, -1,
          632, 670, 636, -1,
          665, 670, 632, -1,
          634, 671, 639, -1,
          283, 671, 666, -1,
          666, 671, 634, -1,
          669, 672, 673, -1,
          667, 672, 669, -1,
          636, 674, 641, -1,
          641, 674, 646, -1,
          670, 674, 636, -1,
          639, 675, 643, -1,
          283, 675, 671, -1,
          671, 675, 639, -1,
          676, 677, 678, -1,
          673, 677, 676, -1,
          672, 677, 673, -1,
          674, 679, 646, -1,
          283, 680, 675, -1,
          643, 680, 648, -1,
          675, 680, 643, -1,
          678, 681, 682, -1,
          677, 681, 678, -1,
          646, 683, 650, -1,
          679, 683, 646, -1,
          680, 684, 648, -1,
          652, 684, 656, -1,
          648, 684, 652, -1,
          283, 684, 680, -1,
          682, 685, 686, -1,
          681, 685, 682, -1,
          683, 687, 650, -1,
          650, 687, 654, -1,
          283, 688, 684, -1,
          684, 688, 656, -1,
          689, 690, 691, -1,
          686, 690, 689, -1,
          685, 690, 686, -1,
          687, 692, 654, -1,
          654, 692, 659, -1,
          659, 692, 663, -1,
          283, 693, 688, -1,
          688, 693, 656, -1,
          656, 693, 661, -1,
          691, 694, 695, -1,
          690, 694, 691, -1,
          692, 696, 663, -1,
          283, 697, 693, -1,
          693, 697, 661, -1,
          661, 697, 665, -1,
          694, 698, 695, -1,
          699, 698, 700, -1,
          695, 698, 699, -1,
          696, 701, 663, -1,
          667, 701, 672, -1,
          663, 701, 667, -1,
          283, 702, 697, -1,
          670, 702, 674, -1,
          697, 702, 665, -1,
          665, 702, 670, -1,
          700, 703, 704, -1,
          698, 703, 700, -1,
          701, 705, 672, -1,
          702, 706, 674, -1,
          283, 706, 702, -1,
          704, 707, 708, -1,
          703, 707, 704, -1,
          705, 709, 672, -1,
          672, 709, 677, -1,
          706, 710, 674, -1,
          679, 710, 683, -1,
          674, 710, 679, -1,
          283, 710, 706, -1,
          711, 712, 713, -1,
          708, 712, 711, -1,
          707, 712, 708, -1,
          677, 714, 681, -1,
          709, 714, 677, -1,
          710, 715, 683, -1,
          283, 715, 710, -1,
          713, 716, 717, -1,
          712, 716, 713, -1,
          681, 718, 685, -1,
          714, 718, 681, -1,
          715, 719, 683, -1,
          683, 719, 687, -1,
          283, 719, 715, -1,
          717, 720, 721, -1,
          716, 720, 717, -1,
          685, 722, 690, -1,
          690, 722, 694, -1,
          718, 722, 685, -1,
          692, 723, 696, -1,
          719, 723, 687, -1,
          687, 723, 692, -1,
          283, 723, 719, -1,
          724, 725, 726, -1,
          721, 725, 724, -1,
          720, 725, 721, -1,
          694, 727, 698, -1,
          722, 727, 694, -1,
          283, 728, 723, -1,
          723, 728, 696, -1,
          725, 729, 726, -1,
          726, 729, 730, -1,
          727, 731, 698, -1,
          728, 732, 696, -1,
          701, 732, 705, -1,
          696, 732, 701, -1,
          283, 732, 728, -1,
          733, 734, 735, -1,
          730, 734, 733, -1,
          729, 734, 730, -1,
          731, 736, 698, -1,
          703, 736, 707, -1,
          698, 736, 703, -1,
          732, 737, 705, -1,
          283, 737, 732, -1,
          734, 738, 735, -1,
          735, 738, 739, -1,
          736, 740, 707, -1,
          737, 741, 705, -1,
          283, 741, 737, -1,
          705, 741, 709, -1,
          709, 741, 714, -1,
          739, 742, 743, -1,
          738, 742, 739, -1,
          740, 744, 707, -1,
          707, 744, 712, -1,
          741, 745, 714, -1,
          283, 745, 741, -1,
          746, 747, 748, -1,
          743, 747, 746, -1,
          742, 747, 743, -1,
          744, 749, 712, -1,
          712, 749, 716, -1,
          716, 749, 720, -1,
          745, 750, 714, -1,
          283, 750, 745, -1,
          718, 750, 722, -1,
          714, 750, 718, -1,
          748, 751, 582, -1,
          582, 751, 256, -1,
          747, 751, 748, -1,
          749, 752, 720, -1,
          750, 753, 722, -1,
          283, 753, 750, -1,
          752, 754, 720, -1,
          720, 754, 725, -1,
          722, 755, 727, -1,
          753, 755, 722, -1,
          283, 755, 753, -1,
          754, 756, 725, -1,
          725, 756, 729, -1,
          727, 757, 731, -1,
          731, 757, 736, -1,
          755, 757, 727, -1,
          283, 757, 755, -1,
          729, 758, 734, -1,
          756, 758, 729, -1,
          757, 759, 736, -1,
          283, 759, 757, -1,
          758, 760, 734, -1,
          734, 760, 738, -1,
          283, 761, 759, -1,
          736, 761, 740, -1,
          759, 761, 736, -1,
          738, 762, 742, -1,
          760, 762, 738, -1,
          740, 763, 744, -1,
          761, 763, 740, -1,
          283, 763, 761, -1,
          762, 764, 742, -1,
          742, 764, 747, -1,
          283, 765, 763, -1,
          744, 765, 749, -1,
          763, 765, 744, -1,
          764, 766, 747, -1,
          751, 766, 256, -1,
          747, 766, 751, -1,
          256, 766, 266, -1,
          749, 767, 752, -1,
          765, 767, 749, -1,
          283, 767, 765, -1,
          767, 768, 752, -1,
          283, 768, 767, -1,
          752, 768, 754, -1,
          754, 769, 756, -1,
          283, 769, 768, -1,
          768, 769, 754, -1,
          769, 770, 756, -1,
          756, 770, 758, -1,
          283, 770, 769, -1,
          770, 771, 758, -1,
          283, 771, 770, -1,
          758, 771, 760, -1,
          760, 771, 762, -1,
          283, 772, 771, -1,
          771, 772, 762, -1,
          283, 773, 772, -1,
          772, 773, 762, -1,
          762, 773, 764, -1,
          764, 774, 766, -1,
          766, 774, 266, -1,
          773, 774, 764, -1,
          283, 774, 773, -1,
          284, 774, 283, -1,
          266, 774, 284, -1,
          191, 255, 581, -1,
          458, 191, 581, -1,
          458, 581, 584, -1,
          460, 458, 584, -1,
          460, 584, 585, -1,
          462, 460, 585, -1,
          462, 585, 587, -1,
          464, 462, 587, -1,
          464, 587, 589, -1,
          466, 464, 589, -1,
          466, 589, 591, -1,
          468, 466, 591, -1,
          468, 591, 592, -1,
          470, 592, 594, -1,
          470, 468, 592, -1,
          472, 594, 596, -1,
          472, 470, 594, -1,
          474, 596, 598, -1,
          474, 472, 596, -1,
          476, 598, 600, -1,
          476, 474, 598, -1,
          478, 600, 601, -1,
          478, 476, 600, -1,
          480, 601, 604, -1,
          480, 478, 601, -1,
          482, 604, 606, -1,
          482, 480, 604, -1,
          484, 606, 608, -1,
          484, 482, 606, -1,
          486, 608, 611, -1,
          486, 484, 608, -1,
          488, 611, 613, -1,
          488, 486, 611, -1,
          490, 613, 615, -1,
          490, 488, 613, -1,
          492, 490, 615, -1,
          492, 615, 618, -1,
          494, 492, 618, -1,
          494, 618, 621, -1,
          496, 494, 621, -1,
          496, 621, 623, -1,
          498, 496, 623, -1,
          498, 623, 625, -1,
          500, 498, 625, -1,
          500, 625, 629, -1,
          502, 500, 629, -1,
          502, 629, 633, -1,
          504, 502, 633, -1,
          506, 504, 633, -1,
          506, 637, 638, -1,
          506, 633, 637, -1,
          508, 506, 638, -1,
          508, 638, 642, -1,
          510, 642, 645, -1,
          510, 508, 642, -1,
          512, 510, 645, -1,
          514, 647, 651, -1,
          514, 645, 647, -1,
          514, 512, 645, -1,
          516, 651, 655, -1,
          516, 514, 651, -1,
          518, 655, 658, -1,
          518, 516, 655, -1,
          520, 658, 660, -1,
          520, 518, 658, -1,
          522, 660, 664, -1,
          522, 520, 660, -1,
          524, 664, 668, -1,
          524, 522, 664, -1,
          526, 668, 669, -1,
          526, 524, 668, -1,
          528, 669, 673, -1,
          528, 526, 669, -1,
          530, 528, 673, -1,
          532, 673, 676, -1,
          532, 530, 673, -1,
          534, 678, 682, -1,
          534, 676, 678, -1,
          534, 532, 676, -1,
          536, 682, 686, -1,
          536, 534, 682, -1,
          538, 686, 689, -1,
          538, 536, 686, -1,
          540, 689, 691, -1,
          540, 538, 689, -1,
          542, 540, 691, -1,
          544, 542, 691, -1,
          544, 695, 699, -1,
          544, 691, 695, -1,
          546, 544, 699, -1,
          546, 699, 700, -1,
          548, 546, 700, -1,
          550, 548, 700, -1,
          550, 700, 704, -1,
          552, 708, 711, -1,
          552, 704, 708, -1,
          552, 550, 704, -1,
          554, 711, 713, -1,
          554, 552, 711, -1,
          556, 713, 717, -1,
          556, 554, 713, -1,
          558, 717, 721, -1,
          558, 556, 717, -1,
          560, 721, 724, -1,
          560, 558, 721, -1,
          562, 724, 726, -1,
          562, 560, 724, -1,
          564, 726, 730, -1,
          564, 562, 726, -1,
          566, 730, 733, -1,
          566, 564, 730, -1,
          568, 566, 733, -1,
          570, 735, 739, -1,
          570, 733, 735, -1,
          570, 568, 733, -1,
          572, 570, 739, -1,
          574, 743, 746, -1,
          574, 739, 743, -1,
          574, 572, 739, -1,
          576, 746, 748, -1,
          576, 574, 746, -1,
          578, 576, 748, -1,
          580, 748, 582, -1,
          580, 578, 748, -1,
          128, 582, 192, -1,
          128, 580, 582, -1,
          127, 126, 424, -1,
          579, 127, 424, -1,
          579, 424, 425, -1,
          577, 579, 425, -1,
          577, 425, 419, -1,
          575, 577, 419, -1,
          575, 419, 420, -1,
          573, 575, 420, -1,
          573, 420, 418, -1,
          571, 573, 418, -1,
          571, 418, 412, -1,
          569, 571, 412, -1,
          569, 412, 414, -1,
          567, 414, 411, -1,
          567, 569, 414, -1,
          565, 411, 413, -1,
          565, 567, 411, -1,
          563, 413, 405, -1,
          563, 565, 413, -1,
          561, 405, 404, -1,
          561, 563, 405, -1,
          559, 404, 399, -1,
          559, 561, 404, -1,
          557, 399, 402, -1,
          557, 559, 399, -1,
          555, 402, 401, -1,
          555, 557, 402, -1,
          553, 401, 400, -1,
          553, 555, 401, -1,
          551, 400, 398, -1,
          551, 553, 400, -1,
          549, 398, 395, -1,
          549, 551, 398, -1,
          547, 395, 397, -1,
          547, 549, 395, -1,
          545, 547, 397, -1,
          545, 397, 396, -1,
          543, 545, 396, -1,
          543, 396, 403, -1,
          541, 543, 403, -1,
          541, 403, 407, -1,
          539, 541, 407, -1,
          539, 407, 406, -1,
          537, 539, 406, -1,
          537, 406, 408, -1,
          535, 537, 408, -1,
          535, 408, 410, -1,
          533, 535, 410, -1,
          533, 410, 409, -1,
          531, 533, 409, -1,
          531, 409, 416, -1,
          529, 531, 416, -1,
          527, 415, 417, -1,
          527, 416, 415, -1,
          527, 529, 416, -1,
          525, 417, 422, -1,
          525, 527, 417, -1,
          523, 422, 421, -1,
          523, 525, 422, -1,
          521, 421, 423, -1,
          521, 523, 421, -1,
          519, 423, 427, -1,
          519, 521, 423, -1,
          517, 519, 427, -1,
          515, 426, 428, -1,
          515, 427, 426, -1,
          515, 517, 427, -1,
          513, 515, 428, -1,
          511, 430, 429, -1,
          511, 428, 430, -1,
          511, 513, 428, -1,
          509, 511, 429, -1,
          507, 431, 437, -1,
          507, 429, 431, -1,
          507, 509, 429, -1,
          505, 507, 437, -1,
          503, 436, 435, -1,
          503, 437, 436, -1,
          503, 505, 437, -1,
          501, 435, 432, -1,
          501, 503, 435, -1,
          499, 432, 434, -1,
          499, 501, 432, -1,
          497, 434, 433, -1,
          497, 499, 434, -1,
          495, 497, 433, -1,
          495, 433, 439, -1,
          493, 495, 439, -1,
          493, 439, 440, -1,
          491, 493, 440, -1,
          491, 440, 438, -1,
          489, 491, 438, -1,
          489, 438, 445, -1,
          487, 445, 444, -1,
          487, 489, 445, -1,
          485, 444, 441, -1,
          485, 487, 444, -1,
          483, 441, 443, -1,
          483, 485, 441, -1,
          481, 443, 442, -1,
          481, 483, 443, -1,
          479, 481, 442, -1,
          477, 446, 448, -1,
          477, 442, 446, -1,
          477, 479, 442, -1,
          475, 448, 447, -1,
          475, 477, 448, -1,
          473, 447, 449, -1,
          473, 475, 447, -1,
          471, 473, 449, -1,
          469, 450, 452, -1,
          469, 449, 450, -1,
          469, 471, 449, -1,
          467, 452, 451, -1,
          467, 469, 452, -1,
          465, 451, 453, -1,
          465, 467, 451, -1,
          463, 453, 455, -1,
          463, 465, 453, -1,
          461, 463, 455, -1,
          459, 455, 454, -1,
          459, 461, 455, -1,
          457, 456, 1, -1,
          457, 454, 456, -1,
          457, 459, 454, -1,
          0, 457, 1, -1
        ]
      }
    }
}
