{"asset":{"version":"2.0","generator":"microscope_builder_4 scripts/catalog/dedupe-mounted-lens-housings.mjs"},"scene":0,"scenes":[{"nodes":[0]}],"nodes":[{"mesh":0}],"meshes":[{"primitives":[{"attributes":{"POSITION":1,"NORMAL":2},"indices":0,"mode":4},{"attributes":{"POSITION":4,"NORMAL":5},"indices":3,"mode":4},{"attributes":{"POSITION":7,"NORMAL":8},"indices":6,"mode":4}]}],"buffers":[{"uri":"la4545-ab-ml.bin","byteLength":161004}],"bufferViews":[{"buffer":0,"byteOffset":0,"byteLength":7416,"target":34963},{"buffer":0,"byteOffset":7416,"byteLength":7440,"target":34962},{"buffer":0,"byteOffset":14856,"byteLength":7440,"target":34962},{"buffer":0,"byteOffset":22296,"byteLength":42492,"target":34963},{"buffer":0,"byteOffset":64788,"byteLength":42492,"target":34962},{"buffer":0,"byteOffset":107280,"byteLength":42492,"target":34962},{"buffer":0,"byteOffset":149772,"byteLength":3744,"target":34963},{"buffer":0,"byteOffset":153516,"byteLength":3744,"target":34962},{"buffer":0,"byteOffset":157260,"byteLength":3744,"target":34962}],"accessors":[{"bufferView":0,"componentType":5123,"count":3708,"type":"SCALAR"},{"bufferView":1,"componentType":5126,"count":620,"type":"VEC3","min":[-3.555999994277954,-25.399999618530273,-25.399999618530273],"max":[7.084000110626221,25.399999618530273,25.399999618530273]},{"bufferView":2,"componentType":5126,"count":620,"type":"VEC3"},{"bufferView":3,"componentType":5123,"count":21246,"type":"SCALAR"},{"bufferView":4,"componentType":5126,"count":3541,"type":"VEC3","min":[-7.366000175476074,-27.940000534057617,-27.940000534057617],"max":[7.366000175476074,27.940000534057617,27.940000534057617]},{"bufferView":5,"componentType":5126,"count":3541,"type":"VEC3"},{"bufferView":6,"componentType":5123,"count":1872,"type":"SCALAR"},{"bufferView":7,"componentType":5126,"count":312,"type":"VEC3","min":[-0.027000000700354576,-25.8439998626709,-25.8439998626709],"max":[2.513000011444092,25.8439998626709,25.8439998626709]},{"bufferView":8,"componentType":5126,"count":312,"type":"VEC3"}]}
