{"asset":{"version":"2.0","generator":"microscope_builder_4 scripts/catalog/dedupe-mounted-lens-housings.mjs"},"scene":0,"scenes":[{"nodes":[0]}],"nodes":[{"mesh":0}],"meshes":[{"primitives":[{"attributes":{"POSITION":1,"NORMAL":2},"indices":0,"mode":4},{"attributes":{"POSITION":4,"NORMAL":5},"indices":3,"mode":4},{"attributes":{"POSITION":7,"NORMAL":8},"indices":6,"mode":4}]}],"buffers":[{"uri":"la4600-uv-ml.bin","byteLength":156252}],"bufferViews":[{"buffer":0,"byteOffset":0,"byteLength":46260,"target":34963},{"buffer":0,"byteOffset":46260,"byteLength":46260,"target":34962},{"buffer":0,"byteOffset":92520,"byteLength":46260,"target":34962},{"buffer":0,"byteOffset":138780,"byteLength":2844,"target":34963},{"buffer":0,"byteOffset":141624,"byteLength":2844,"target":34962},{"buffer":0,"byteOffset":144468,"byteLength":2844,"target":34962},{"buffer":0,"byteOffset":147312,"byteLength":2964,"target":34963},{"buffer":0,"byteOffset":150276,"byteLength":2988,"target":34962},{"buffer":0,"byteOffset":153264,"byteLength":2988,"target":34962}],"accessors":[{"bufferView":0,"componentType":5123,"count":23130,"type":"SCALAR"},{"bufferView":1,"componentType":5126,"count":3855,"type":"VEC3","min":[0,-8.890000343322754,-8.890000343322754],"max":[10.413999557495117,8.890000343322754,8.890000343322754]},{"bufferView":2,"componentType":5126,"count":3855,"type":"VEC3"},{"bufferView":3,"componentType":5123,"count":1422,"type":"SCALAR"},{"bufferView":4,"componentType":5126,"count":237,"type":"VEC3","min":[4.696000099182129,-6.794000148773193,-6.794000148773193],"max":[6.3470001220703125,6.794000148773193,6.794000148773193]},{"bufferView":5,"componentType":5126,"count":237,"type":"VEC3"},{"bufferView":6,"componentType":5123,"count":1482,"type":"SCALAR"},{"bufferView":7,"componentType":5126,"count":249,"type":"VEC3","min":[2.7939999103546143,-6.3429999351501465,-6.3429999351501465],"max":[4.99399995803833,6.3429999351501465,6.3429999351501465]},{"bufferView":8,"componentType":5126,"count":249,"type":"VEC3"}]}
