{"asset":{"version":"2.0","generator":"microscope_builder_4 scripts/catalog/dedupe-mounted-lens-housings.mjs"},"scene":0,"scenes":[{"nodes":[0]}],"nodes":[{"mesh":0}],"meshes":[{"primitives":[{"attributes":{"POSITION":1,"NORMAL":2},"indices":0,"mode":4},{"attributes":{"POSITION":4,"NORMAL":5},"indices":3,"mode":4},{"attributes":{"POSITION":7,"NORMAL":8},"indices":6,"mode":4}]}],"buffers":[{"uri":"la4647-ab-ml.bin","byteLength":166476}],"bufferViews":[{"buffer":0,"byteOffset":0,"byteLength":3720,"target":34963},{"buffer":0,"byteOffset":3720,"byteLength":3720,"target":34962},{"buffer":0,"byteOffset":7440,"byteLength":3720,"target":34962},{"buffer":0,"byteOffset":11160,"byteLength":43380,"target":34963},{"buffer":0,"byteOffset":54540,"byteLength":43380,"target":34962},{"buffer":0,"byteOffset":97920,"byteLength":43380,"target":34962},{"buffer":0,"byteOffset":141300,"byteLength":8376,"target":34963},{"buffer":0,"byteOffset":149676,"byteLength":8400,"target":34962},{"buffer":0,"byteOffset":158076,"byteLength":8400,"target":34962}],"accessors":[{"bufferView":0,"componentType":5123,"count":1860,"type":"SCALAR"},{"bufferView":1,"componentType":5126,"count":310,"type":"VEC3","min":[0.03799999877810478,-6.794000148773193,-6.794000148773193],"max":[1.6890000104904175,6.794000148773193,6.794000148773193]},{"bufferView":2,"componentType":5126,"count":310,"type":"VEC3"},{"bufferView":3,"componentType":5123,"count":21690,"type":"SCALAR"},{"bufferView":4,"componentType":5126,"count":3615,"type":"VEC3","min":[-5.206999778747559,-8.890000343322754,-8.890000343322754],"max":[5.206999778747559,8.890000343322754,8.890000343322754]},{"bufferView":5,"componentType":5126,"count":3615,"type":"VEC3"},{"bufferView":6,"componentType":5123,"count":4188,"type":"SCALAR"},{"bufferView":7,"componentType":5126,"count":700,"type":"VEC3","min":[-2.4130001068115234,-6.349999904632568,-6.349999904632568],"max":[1.9270000457763672,6.349999904632568,6.349999904632568]},{"bufferView":8,"componentType":5126,"count":700,"type":"VEC3"}]}
