{"asset":{"version":"2.0","generator":"microscope_builder_4 scripts/catalog/dedupe-mounted-lens-housings.mjs"},"scene":0,"scenes":[{"nodes":[0]}],"nodes":[{"mesh":0}],"meshes":[{"primitives":[{"attributes":{"POSITION":1,"NORMAL":2},"indices":0,"mode":4},{"attributes":{"POSITION":4,"NORMAL":5},"indices":3,"mode":4},{"attributes":{"POSITION":7,"NORMAL":8},"indices":6,"mode":4}]}],"buffers":[{"uri":"la4716-ab-ml.bin","byteLength":165360}],"bufferViews":[{"buffer":0,"byteOffset":0,"byteLength":9216,"target":34963},{"buffer":0,"byteOffset":9216,"byteLength":9240,"target":34962},{"buffer":0,"byteOffset":18456,"byteLength":9240,"target":34962},{"buffer":0,"byteOffset":27696,"byteLength":41952,"target":34963},{"buffer":0,"byteOffset":69648,"byteLength":41952,"target":34962},{"buffer":0,"byteOffset":111600,"byteLength":41952,"target":34962},{"buffer":0,"byteOffset":153552,"byteLength":3936,"target":34963},{"buffer":0,"byteOffset":157488,"byteLength":3936,"target":34962},{"buffer":0,"byteOffset":161424,"byteLength":3936,"target":34962}],"accessors":[{"bufferView":0,"componentType":5123,"count":4608,"type":"SCALAR"},{"bufferView":1,"componentType":5126,"count":770,"type":"VEC3","min":[0,-12.699999809265137,-12.699999809265137],"max":[2.2300000190734863,12.699999809265137,12.699999809265137]},{"bufferView":2,"componentType":5126,"count":770,"type":"VEC3"},{"bufferView":3,"componentType":5123,"count":20976,"type":"SCALAR"},{"bufferView":4,"componentType":5126,"count":3496,"type":"VEC3","min":[-3.809999942779541,-15.239999771118164,-15.239999771118164],"max":[7.619999885559082,15.239999771118164,15.239999771118164]},{"bufferView":5,"componentType":5126,"count":3496,"type":"VEC3"},{"bufferView":6,"componentType":5123,"count":1968,"type":"SCALAR"},{"bufferView":7,"componentType":5126,"count":328,"type":"VEC3","min":[2.0350000858306885,-13.144000053405762,-13.144000053405762],"max":[4.066999912261963,13.144000053405762,13.144000053405762]},{"bufferView":8,"componentType":5126,"count":328,"type":"VEC3"}]}
