{"asset":{"version":"2.0","generator":"microscope_builder_4 scripts/catalog/dedupe-mounted-lens-housings.mjs"},"scene":0,"scenes":[{"nodes":[0]}],"nodes":[{"mesh":0}],"meshes":[{"primitives":[{"attributes":{"POSITION":1,"NORMAL":2},"indices":0,"mode":4},{"attributes":{"POSITION":4,"NORMAL":5},"indices":3,"mode":4},{"attributes":{"POSITION":7,"NORMAL":8},"indices":6,"mode":4}]}],"buffers":[{"uri":"la4855-ml.bin","byteLength":101316}],"bufferViews":[{"buffer":0,"byteOffset":0,"byteLength":27960,"target":34963},{"buffer":0,"byteOffset":27960,"byteLength":27960,"target":34962},{"buffer":0,"byteOffset":55920,"byteLength":27960,"target":34962},{"buffer":0,"byteOffset":83880,"byteLength":3744,"target":34963},{"buffer":0,"byteOffset":87624,"byteLength":3744,"target":34962},{"buffer":0,"byteOffset":91368,"byteLength":3744,"target":34962},{"buffer":0,"byteOffset":95112,"byteLength":2052,"target":34963},{"buffer":0,"byteOffset":97164,"byteLength":2076,"target":34962},{"buffer":0,"byteOffset":99240,"byteLength":2076,"target":34962}],"accessors":[{"bufferView":0,"componentType":5123,"count":13980,"type":"SCALAR"},{"bufferView":1,"componentType":5126,"count":2330,"type":"VEC3","min":[-6.4770002365112305,-27.940000534057617,-27.940000534057617],"max":[6.4770002365112305,27.940000534057617,27.940000534057617]},{"bufferView":2,"componentType":5126,"count":2330,"type":"VEC3"},{"bufferView":3,"componentType":5123,"count":1872,"type":"SCALAR"},{"bufferView":4,"componentType":5126,"count":312,"type":"VEC3","min":[0.4860000014305115,-25.8439998626709,-25.8439998626709],"max":[3.0260000228881836,25.8439998626709,25.8439998626709]},{"bufferView":5,"componentType":5126,"count":312,"type":"VEC3"},{"bufferView":6,"componentType":5123,"count":1026,"type":"SCALAR"},{"bufferView":7,"componentType":5126,"count":173,"type":"VEC3","min":[-2.6670000553131104,-25.399999618530273,-25.399999618530273],"max":[2.693000078201294,25.399999618530273,25.399999618530273]},{"bufferView":8,"componentType":5126,"count":173,"type":"VEC3"}]}
