{"asset":{"version":"2.0","generator":"microscope_builder_4 scripts/catalog/dedupe-mounted-lens-housings.mjs"},"scene":0,"scenes":[{"nodes":[0]}],"nodes":[{"mesh":0}],"meshes":[{"primitives":[{"attributes":{"POSITION":1,"NORMAL":2},"indices":0,"mode":4},{"attributes":{"POSITION":4,"NORMAL":5},"indices":3,"mode":4},{"attributes":{"POSITION":7,"NORMAL":8},"indices":6,"mode":4}]}],"buffers":[{"uri":"la4924-yag-ml.bin","byteLength":143004}],"bufferViews":[{"buffer":0,"byteOffset":0,"byteLength":41616,"target":34963},{"buffer":0,"byteOffset":41616,"byteLength":41616,"target":34962},{"buffer":0,"byteOffset":83232,"byteLength":41616,"target":34962},{"buffer":0,"byteOffset":124848,"byteLength":3936,"target":34963},{"buffer":0,"byteOffset":128784,"byteLength":3936,"target":34962},{"buffer":0,"byteOffset":132720,"byteLength":3936,"target":34962},{"buffer":0,"byteOffset":136656,"byteLength":2100,"target":34963},{"buffer":0,"byteOffset":138756,"byteLength":2124,"target":34962},{"buffer":0,"byteOffset":140880,"byteLength":2124,"target":34962}],"accessors":[{"bufferView":0,"componentType":5123,"count":20808,"type":"SCALAR"},{"bufferView":1,"componentType":5126,"count":3468,"type":"VEC3","min":[-5.715000152587891,-15.239999771118164,-15.239999771118164],"max":[5.715000152587891,15.239999771118164,15.239999771118164]},{"bufferView":2,"componentType":5126,"count":3468,"type":"VEC3"},{"bufferView":3,"componentType":5123,"count":1968,"type":"SCALAR"},{"bufferView":4,"componentType":5126,"count":328,"type":"VEC3","min":[0.24699999392032623,-13.144000053405762,-13.144000053405762],"max":[2.2790000438690186,13.144000053405762,13.144000053405762]},{"bufferView":5,"componentType":5126,"count":328,"type":"VEC3"},{"bufferView":6,"componentType":5123,"count":1050,"type":"SCALAR"},{"bufferView":7,"componentType":5126,"count":177,"type":"VEC3","min":[-1.9049999713897705,-12.699999809265137,-12.699999809265137],"max":[1.1050000190734863,12.699999809265137,12.699999809265137]},{"bufferView":8,"componentType":5126,"count":177,"type":"VEC3"}]}
