#VRML V2.0 utf8
WorldInfo {
  title "Exported triangle mesh to VRML97"
  info ["Created by FreeCAD"
        "<https://www.freecad.org>"]
}

Transform {
  scale 1 1 1
  rotation 0 0 1 0
  scaleOrientation 0 0 1 0
  center 0.000 0.000 0.000
  translation 0.000 0.000 0.000
  children
    Shape { 
      appearance
      Appearance {
        material
        Material {
          diffuseColor 0.8 0.8 0.8
        }
      }
      geometry
      IndexedFaceSet {
        coord
        Coordinate {
          point [
            0.633 12.684 -1.625,
            0.000 12.700 0.374,
            0.633 12.684 0.374,
            0.000 12.700 -1.625,
            1.265 12.637 -1.625,
            1.265 12.637 0.374,
            1.893 12.558 -1.625,
            1.893 12.558 0.374,
            2.516 12.448 -1.625,
            2.516 12.448 0.374,
            3.134 12.307 0.374,
            3.134 12.307 -1.625,
            3.743 12.136 -1.625,
            3.743 12.136 0.374,
            4.344 11.934 -1.625,
            4.344 11.934 0.374,
            4.933 11.703 -1.625,
            4.933 11.703 0.374,
            5.510 11.442 -1.625,
            5.510 11.442 0.374,
            6.074 11.153 -1.625,
            6.074 11.153 0.374,
            6.622 10.837 -1.625,
            6.622 10.837 0.374,
            7.154 10.493 0.374,
            7.154 10.493 -1.625,
            7.668 10.124 -1.625,
            7.668 10.124 0.374,
            8.163 9.729 0.374,
            8.163 9.729 -1.625,
            8.638 9.310 -1.625,
            8.638 9.310 0.374,
            9.092 8.868 -1.625,
            9.092 8.868 0.374,
            9.522 8.403 0.374,
            9.522 8.403 -1.625,
            9.929 7.918 -1.625,
            9.929 7.918 0.374,
            10.312 7.414 -1.625,
            10.312 7.414 0.374,
            10.668 6.890 -1.625,
            10.668 6.890 0.374,
            10.999 6.350 -1.625,
            10.999 6.350 0.374,
            11.301 5.794 -1.625,
            11.301 5.794 0.374,
            11.576 5.223 -1.625,
            11.576 5.223 0.374,
            11.822 4.640 -1.625,
            11.822 4.640 0.374,
            12.039 4.045 -1.625,
            12.039 4.045 0.374,
            12.225 3.440 -1.625,
            12.225 3.440 0.374,
            12.382 2.826 -1.625,
            12.382 2.826 0.374,
            12.507 2.205 -1.625,
            12.507 2.205 0.374,
            12.601 1.579 -1.625,
            12.601 1.579 0.374,
            12.664 0.949 -1.625,
            12.664 0.949 0.374,
            12.696 0.317 -1.625,
            12.696 0.317 0.374,
            12.696 -0.317 -1.625,
            12.696 -0.317 0.374,
            12.664 -0.949 -1.625,
            12.664 -0.949 0.374,
            12.601 -1.579 -1.625,
            12.601 -1.579 0.374,
            12.507 -2.205 -1.625,
            12.507 -2.205 0.374,
            12.382 -2.826 -1.625,
            12.382 -2.826 0.374,
            12.225 -3.440 -1.625,
            12.225 -3.440 0.374,
            12.039 -4.045 0.374,
            12.039 -4.045 -1.625,
            11.822 -4.640 -1.625,
            11.822 -4.640 0.374,
            11.576 -5.223 -1.625,
            11.576 -5.223 0.374,
            11.301 -5.794 -1.625,
            11.301 -5.794 0.374,
            10.999 -6.350 0.374,
            10.999 -6.350 -1.625,
            10.668 -6.890 -1.625,
            10.668 -6.890 0.374,
            10.312 -7.414 -1.625,
            10.312 -7.414 0.374,
            9.929 -7.918 -1.625,
            9.929 -7.918 0.374,
            9.522 -8.403 0.374,
            9.522 -8.403 -1.625,
            9.092 -8.868 -1.625,
            9.092 -8.868 0.374,
            8.638 -9.310 0.374,
            8.638 -9.310 -1.625,
            8.163 -9.729 -1.625,
            8.163 -9.729 0.374,
            7.668 -10.124 0.374,
            7.668 -10.124 -1.625,
            7.154 -10.493 -1.625,
            7.154 -10.493 0.374,
            6.622 -10.837 0.374,
            6.622 -10.837 -1.625,
            6.074 -11.153 0.374,
            6.074 -11.153 -1.625,
            5.510 -11.442 -1.625,
            5.510 -11.442 0.374,
            4.933 -11.703 -1.625,
            4.933 -11.703 0.374,
            4.344 -11.934 0.374,
            4.344 -11.934 -1.625,
            3.743 -12.136 -1.625,
            3.743 -12.136 0.374,
            3.134 -12.307 0.374,
            3.134 -12.307 -1.625,
            2.516 -12.448 -1.625,
            2.516 -12.448 0.374,
            1.893 -12.558 -1.625,
            1.893 -12.558 0.374,
            1.265 -12.637 0.374,
            1.265 -12.637 -1.625,
            0.633 -12.684 -1.625,
            0.633 -12.684 0.374,
            0.000 -12.700 -1.625,
            0.000 -12.700 0.374,
            0.000 9.552 0.920,
            0.000 -9.552 0.920,
            4.256 10.581 0.618,
            4.256 6.367 1.173,
            0.000 6.381 1.311,
            0.000 3.194 1.547,
            8.494 8.424 0.516,
            4.256 2.125 1.451,
            0.000 -0.000 1.625,
            8.494 4.221 0.930,
            4.256 -2.125 1.451,
            0.000 -3.194 1.547,
            8.494 0.000 1.068,
            4.256 -6.367 1.173,
            0.000 -6.381 1.311,
            8.494 -4.221 0.930,
            4.256 -10.581 0.618,
            8.494 -8.424 0.516,
            -9.929 -7.918 -1.625,
            -9.092 -8.868 -1.625,
            -9.522 -8.403 -1.625,
            -7.668 -10.124 -1.625,
            -8.163 -9.729 -1.625,
            -8.638 -9.310 -1.625,
            -10.668 -6.890 -1.625,
            -7.154 -10.493 -1.625,
            -10.312 -7.414 -1.625,
            -6.074 -11.153 -1.625,
            -6.622 -10.837 -1.625,
            -11.576 -5.223 -1.625,
            -10.999 -6.350 -1.625,
            -11.301 -5.794 -1.625,
            -11.822 -4.640 -1.625,
            -4.344 -11.934 -1.625,
            -4.933 -11.703 -1.625,
            -5.510 -11.442 -1.625,
            -12.039 -4.045 -1.625,
            -3.743 -12.136 -1.625,
            -12.382 -2.826 -1.625,
            -12.225 -3.440 -1.625,
            -2.516 -12.448 -1.625,
            -3.134 -12.307 -1.625,
            -12.601 -1.579 -1.625,
            -12.507 -2.205 -1.625,
            -1.265 -12.637 -1.625,
            -1.893 -12.558 -1.625,
            -0.633 -12.684 -1.625,
            -12.382 2.826 -1.625,
            -12.696 0.317 -1.625,
            -12.664 0.949 -1.625,
            -12.601 1.579 -1.625,
            -12.507 2.205 -1.625,
            -12.225 3.440 -1.625,
            -12.664 -0.949 -1.625,
            -12.696 -0.317 -1.625,
            -11.822 4.640 -1.625,
            -12.039 4.045 -1.625,
            -10.668 6.890 -1.625,
            -11.576 5.223 -1.625,
            -11.301 5.794 -1.625,
            -10.999 6.350 -1.625,
            -10.312 7.414 -1.625,
            -9.092 8.868 -1.625,
            -9.929 7.918 -1.625,
            -9.522 8.403 -1.625,
            -7.668 10.124 -1.625,
            -8.638 9.310 -1.625,
            -8.163 9.729 -1.625,
            -6.074 11.153 -1.625,
            -7.154 10.493 -1.625,
            -6.622 10.837 -1.625,
            -4.933 11.703 -1.625,
            -5.510 11.442 -1.625,
            -4.344 11.934 -1.625,
            -3.743 12.136 -1.625,
            -1.893 12.558 -1.625,
            -3.134 12.307 -1.625,
            -2.516 12.448 -1.625,
            -0.633 12.684 -1.625,
            -1.265 12.637 -1.625,
            -2.516 12.448 0.374,
            -3.134 12.307 0.374,
            -1.893 12.558 0.374,
            -1.265 12.637 0.374,
            -0.633 12.684 0.374,
            -2.516 -12.448 0.374,
            -3.134 -12.307 0.374,
            -1.893 -12.558 0.374,
            -1.265 -12.637 0.374,
            -0.633 -12.684 0.374,
            -8.494 6.326 0.757,
            -11.301 5.794 0.374,
            -11.576 5.223 0.374,
            -10.999 6.350 0.374,
            -10.668 6.890 0.374,
            -10.312 7.414 0.374,
            -9.929 7.918 0.374,
            -9.522 8.403 0.374,
            -9.092 8.868 0.374,
            -8.638 9.310 0.374,
            -8.163 9.729 0.374,
            -4.256 8.479 0.930,
            -7.668 10.124 0.374,
            -7.154 10.493 0.374,
            -6.622 10.837 0.374,
            -6.074 11.153 0.374,
            -5.510 11.442 0.374,
            -4.933 11.703 0.374,
            -4.344 11.934 0.374,
            -3.743 12.136 0.374,
            -8.494 2.112 1.034,
            -12.696 0.317 0.374,
            -12.696 -0.317 0.374,
            -12.664 0.949 0.374,
            -12.601 1.579 0.374,
            -12.507 2.205 0.374,
            -12.382 2.826 0.374,
            -12.225 3.440 0.374,
            -12.039 4.045 0.374,
            -11.822 4.640 0.374,
            -4.256 4.249 1.347,
            -8.494 -2.112 1.034,
            -11.822 -4.640 0.374,
            -11.576 -5.223 0.374,
            -12.039 -4.045 0.374,
            -12.225 -3.440 0.374,
            -12.382 -2.826 0.374,
            -12.507 -2.205 0.374,
            -12.601 -1.579 0.374,
            -12.664 -0.949 0.374,
            -4.256 0.000 1.486,
            -8.494 -6.326 0.757,
            -8.638 -9.310 0.374,
            -8.163 -9.729 0.374,
            -9.092 -8.868 0.374,
            -9.522 -8.403 0.374,
            -9.929 -7.918 0.374,
            -10.312 -7.414 0.374,
            -10.668 -6.890 0.374,
            -10.999 -6.350 0.374,
            -11.301 -5.794 0.374,
            -4.256 -4.249 1.347,
            -4.256 -8.479 0.930,
            -3.743 -12.136 0.374,
            -4.344 -11.934 0.374,
            -4.933 -11.703 0.374,
            -5.510 -11.442 0.374,
            -6.074 -11.153 0.374,
            -6.622 -10.837 0.374,
            -7.154 -10.493 0.374,
            -7.668 -10.124 0.374
          ]
        }
        coordIndex [
          0, 1, 2, -1,
          0, 3, 1, -1,
          4, 2, 5, -1,
          4, 0, 2, -1,
          6, 5, 7, -1,
          6, 4, 5, -1,
          8, 7, 9, -1,
          8, 9, 10, -1,
          8, 6, 7, -1,
          11, 8, 10, -1,
          12, 10, 13, -1,
          12, 11, 10, -1,
          14, 13, 15, -1,
          14, 12, 13, -1,
          16, 15, 17, -1,
          16, 14, 15, -1,
          18, 17, 19, -1,
          18, 16, 17, -1,
          20, 19, 21, -1,
          20, 18, 19, -1,
          22, 21, 23, -1,
          22, 23, 24, -1,
          22, 20, 21, -1,
          25, 22, 24, -1,
          26, 24, 27, -1,
          26, 27, 28, -1,
          26, 25, 24, -1,
          29, 26, 28, -1,
          30, 28, 31, -1,
          30, 29, 28, -1,
          32, 31, 33, -1,
          32, 33, 34, -1,
          32, 30, 31, -1,
          35, 32, 34, -1,
          36, 35, 34, -1,
          36, 34, 37, -1,
          38, 36, 37, -1,
          38, 37, 39, -1,
          40, 38, 39, -1,
          40, 39, 41, -1,
          42, 40, 41, -1,
          42, 41, 43, -1,
          44, 42, 43, -1,
          44, 43, 45, -1,
          46, 45, 47, -1,
          46, 44, 45, -1,
          48, 47, 49, -1,
          48, 46, 47, -1,
          50, 49, 51, -1,
          50, 48, 49, -1,
          52, 51, 53, -1,
          52, 50, 51, -1,
          54, 53, 55, -1,
          54, 52, 53, -1,
          56, 55, 57, -1,
          56, 54, 55, -1,
          58, 57, 59, -1,
          58, 56, 57, -1,
          60, 59, 61, -1,
          60, 58, 59, -1,
          62, 61, 63, -1,
          62, 60, 61, -1,
          64, 63, 65, -1,
          64, 62, 63, -1,
          66, 65, 67, -1,
          66, 64, 65, -1,
          68, 67, 69, -1,
          68, 66, 67, -1,
          70, 69, 71, -1,
          70, 68, 69, -1,
          72, 71, 73, -1,
          72, 70, 71, -1,
          74, 73, 75, -1,
          74, 75, 76, -1,
          74, 72, 73, -1,
          77, 74, 76, -1,
          78, 76, 79, -1,
          78, 77, 76, -1,
          80, 79, 81, -1,
          80, 78, 79, -1,
          82, 81, 83, -1,
          82, 83, 84, -1,
          82, 80, 81, -1,
          85, 82, 84, -1,
          86, 85, 84, -1,
          86, 84, 87, -1,
          88, 86, 87, -1,
          88, 87, 89, -1,
          90, 88, 89, -1,
          90, 89, 91, -1,
          90, 91, 92, -1,
          93, 90, 92, -1,
          94, 93, 92, -1,
          94, 92, 95, -1,
          94, 95, 96, -1,
          97, 94, 96, -1,
          98, 97, 96, -1,
          98, 96, 99, -1,
          98, 99, 100, -1,
          101, 98, 100, -1,
          102, 101, 100, -1,
          102, 100, 103, -1,
          102, 103, 104, -1,
          105, 102, 104, -1,
          105, 104, 106, -1,
          107, 105, 106, -1,
          108, 107, 106, -1,
          108, 106, 109, -1,
          110, 108, 109, -1,
          110, 109, 111, -1,
          110, 111, 112, -1,
          113, 110, 112, -1,
          114, 112, 115, -1,
          114, 115, 116, -1,
          114, 113, 112, -1,
          117, 114, 116, -1,
          118, 116, 119, -1,
          118, 117, 116, -1,
          120, 119, 121, -1,
          120, 121, 122, -1,
          120, 118, 119, -1,
          123, 120, 122, -1,
          124, 122, 125, -1,
          124, 123, 122, -1,
          126, 125, 127, -1,
          126, 124, 125, -1,
          128, 2, 1, -1,
          128, 5, 2, -1,
          128, 7, 5, -1,
          128, 9, 7, -1,
          125, 129, 127, -1,
          122, 129, 125, -1,
          121, 129, 122, -1,
          119, 129, 121, -1,
          130, 10, 9, -1,
          130, 13, 10, -1,
          130, 15, 13, -1,
          130, 17, 15, -1,
          130, 19, 17, -1,
          130, 21, 19, -1,
          130, 23, 21, -1,
          130, 24, 23, -1,
          130, 9, 128, -1,
          131, 132, 133, -1,
          131, 128, 132, -1,
          131, 130, 128, -1,
          131, 24, 130, -1,
          134, 24, 131, -1,
          134, 27, 24, -1,
          134, 28, 27, -1,
          134, 31, 28, -1,
          134, 33, 31, -1,
          134, 34, 33, -1,
          134, 37, 34, -1,
          134, 39, 37, -1,
          135, 133, 136, -1,
          135, 131, 133, -1,
          137, 41, 39, -1,
          137, 43, 41, -1,
          137, 45, 43, -1,
          137, 47, 45, -1,
          137, 49, 47, -1,
          137, 51, 49, -1,
          137, 53, 51, -1,
          137, 55, 53, -1,
          137, 134, 131, -1,
          137, 131, 135, -1,
          137, 39, 134, -1,
          138, 136, 139, -1,
          138, 135, 136, -1,
          140, 137, 135, -1,
          140, 135, 138, -1,
          140, 57, 55, -1,
          140, 59, 57, -1,
          140, 61, 59, -1,
          140, 63, 61, -1,
          140, 65, 63, -1,
          140, 67, 65, -1,
          140, 69, 67, -1,
          140, 71, 69, -1,
          140, 73, 71, -1,
          140, 55, 137, -1,
          141, 139, 142, -1,
          141, 142, 129, -1,
          141, 138, 139, -1,
          143, 75, 73, -1,
          143, 76, 75, -1,
          143, 79, 76, -1,
          143, 81, 79, -1,
          143, 83, 81, -1,
          143, 84, 83, -1,
          143, 87, 84, -1,
          143, 89, 87, -1,
          143, 140, 138, -1,
          143, 73, 140, -1,
          143, 138, 141, -1,
          144, 104, 103, -1,
          144, 106, 104, -1,
          144, 109, 106, -1,
          144, 111, 109, -1,
          144, 112, 111, -1,
          144, 115, 112, -1,
          144, 116, 115, -1,
          144, 119, 116, -1,
          144, 129, 119, -1,
          144, 103, 141, -1,
          144, 141, 129, -1,
          145, 143, 141, -1,
          145, 91, 89, -1,
          145, 92, 91, -1,
          145, 95, 92, -1,
          145, 96, 95, -1,
          145, 99, 96, -1,
          145, 100, 99, -1,
          145, 103, 100, -1,
          145, 89, 143, -1,
          145, 141, 103, -1,
          146, 147, 148, -1,
          149, 150, 151, -1,
          152, 147, 146, -1,
          152, 149, 151, -1,
          152, 153, 149, -1,
          152, 151, 147, -1,
          152, 146, 154, -1,
          155, 156, 153, -1,
          157, 158, 159, -1,
          160, 158, 157, -1,
          161, 162, 163, -1,
          164, 158, 160, -1,
          164, 152, 158, -1,
          165, 161, 163, -1,
          166, 153, 152, -1,
          166, 152, 164, -1,
          166, 164, 167, -1,
          168, 165, 163, -1,
          168, 169, 165, -1,
          170, 166, 171, -1,
          172, 173, 168, -1,
          174, 155, 153, -1,
          174, 163, 155, -1,
          174, 168, 163, -1,
          174, 172, 168, -1,
          120, 123, 124, -1,
          120, 124, 126, -1,
          120, 126, 174, -1,
          175, 176, 177, -1,
          175, 177, 178, -1,
          175, 178, 179, -1,
          180, 170, 181, -1,
          180, 181, 182, -1,
          180, 182, 176, -1,
          180, 176, 175, -1,
          114, 120, 174, -1,
          114, 117, 118, -1,
          114, 118, 120, -1,
          183, 180, 184, -1,
          183, 170, 180, -1,
          107, 108, 110, -1,
          107, 110, 113, -1,
          107, 113, 114, -1,
          185, 186, 187, -1,
          185, 187, 188, -1,
          102, 105, 107, -1,
          189, 186, 185, -1,
          98, 101, 102, -1,
          97, 107, 114, -1,
          97, 102, 107, -1,
          97, 98, 102, -1,
          190, 189, 191, -1,
          190, 191, 192, -1,
          93, 94, 97, -1,
          193, 190, 194, -1,
          193, 194, 195, -1,
          193, 189, 190, -1,
          85, 86, 88, -1,
          85, 88, 90, -1,
          85, 90, 93, -1,
          85, 93, 97, -1,
          196, 193, 197, -1,
          196, 197, 198, -1,
          80, 82, 85, -1,
          80, 85, 97, -1,
          199, 196, 200, -1,
          199, 193, 196, -1,
          78, 80, 97, -1,
          78, 114, 174, -1,
          78, 97, 114, -1,
          78, 153, 166, -1,
          78, 174, 153, -1,
          201, 183, 186, -1,
          201, 170, 183, -1,
          201, 186, 189, -1,
          201, 189, 193, -1,
          201, 193, 199, -1,
          202, 170, 201, -1,
          74, 77, 78, -1,
          203, 204, 205, -1,
          66, 68, 70, -1,
          66, 70, 72, -1,
          66, 72, 74, -1,
          206, 202, 204, -1,
          206, 203, 207, -1,
          206, 204, 203, -1,
          64, 66, 74, -1,
          3, 202, 206, -1,
          60, 62, 64, -1,
          6, 3, 0, -1,
          6, 0, 4, -1,
          8, 202, 3, -1,
          8, 3, 6, -1,
          8, 170, 202, -1,
          54, 64, 74, -1,
          54, 60, 64, -1,
          54, 56, 58, -1,
          54, 58, 60, -1,
          54, 78, 166, -1,
          54, 74, 78, -1,
          54, 166, 170, -1,
          50, 52, 54, -1,
          14, 8, 11, -1,
          14, 11, 12, -1,
          46, 54, 170, -1,
          46, 48, 50, -1,
          46, 170, 8, -1,
          46, 50, 54, -1,
          20, 14, 16, -1,
          20, 16, 18, -1,
          22, 14, 20, -1,
          40, 42, 44, -1,
          40, 44, 46, -1,
          26, 22, 25, -1,
          36, 38, 40, -1,
          36, 40, 46, -1,
          29, 8, 14, -1,
          29, 14, 22, -1,
          29, 22, 26, -1,
          32, 29, 30, -1,
          32, 35, 36, -1,
          32, 46, 8, -1,
          32, 36, 46, -1,
          32, 8, 29, -1,
          128, 208, 209, -1,
          128, 210, 208, -1,
          128, 211, 210, -1,
          128, 212, 211, -1,
          128, 1, 212, -1,
          213, 129, 214, -1,
          215, 129, 213, -1,
          216, 129, 215, -1,
          217, 129, 216, -1,
          127, 129, 217, -1,
          218, 219, 220, -1,
          218, 221, 219, -1,
          218, 222, 221, -1,
          218, 223, 222, -1,
          218, 224, 223, -1,
          218, 225, 224, -1,
          218, 226, 225, -1,
          218, 227, 226, -1,
          218, 228, 227, -1,
          229, 132, 128, -1,
          229, 230, 228, -1,
          229, 231, 230, -1,
          229, 232, 231, -1,
          229, 233, 232, -1,
          229, 234, 233, -1,
          229, 235, 234, -1,
          229, 236, 235, -1,
          229, 237, 236, -1,
          229, 209, 237, -1,
          229, 228, 218, -1,
          229, 128, 209, -1,
          238, 218, 220, -1,
          238, 239, 240, -1,
          238, 241, 239, -1,
          238, 242, 241, -1,
          238, 243, 242, -1,
          238, 244, 243, -1,
          238, 245, 244, -1,
          238, 246, 245, -1,
          238, 247, 246, -1,
          238, 220, 247, -1,
          248, 133, 132, -1,
          248, 218, 238, -1,
          248, 229, 218, -1,
          248, 132, 229, -1,
          249, 250, 251, -1,
          249, 252, 250, -1,
          249, 253, 252, -1,
          249, 254, 253, -1,
          249, 255, 254, -1,
          249, 256, 255, -1,
          249, 257, 256, -1,
          249, 240, 257, -1,
          249, 238, 240, -1,
          258, 139, 136, -1,
          258, 136, 133, -1,
          258, 133, 248, -1,
          258, 238, 249, -1,
          258, 248, 238, -1,
          259, 249, 251, -1,
          259, 260, 261, -1,
          259, 262, 260, -1,
          259, 263, 262, -1,
          259, 264, 263, -1,
          259, 265, 264, -1,
          259, 266, 265, -1,
          259, 267, 266, -1,
          259, 268, 267, -1,
          259, 251, 268, -1,
          269, 139, 258, -1,
          269, 142, 139, -1,
          269, 258, 249, -1,
          269, 249, 259, -1,
          270, 214, 129, -1,
          270, 129, 142, -1,
          270, 271, 214, -1,
          270, 272, 271, -1,
          270, 273, 272, -1,
          270, 274, 273, -1,
          270, 275, 274, -1,
          270, 276, 275, -1,
          270, 277, 276, -1,
          270, 278, 277, -1,
          270, 261, 278, -1,
          270, 269, 259, -1,
          270, 142, 269, -1,
          270, 259, 261, -1,
          174, 126, 127, -1,
          174, 127, 217, -1,
          172, 217, 216, -1,
          172, 174, 217, -1,
          173, 216, 215, -1,
          173, 172, 216, -1,
          168, 215, 213, -1,
          168, 213, 214, -1,
          168, 173, 215, -1,
          169, 168, 214, -1,
          165, 214, 271, -1,
          165, 271, 272, -1,
          165, 169, 214, -1,
          161, 165, 272, -1,
          162, 272, 273, -1,
          162, 161, 272, -1,
          163, 273, 274, -1,
          163, 274, 275, -1,
          163, 162, 273, -1,
          155, 163, 275, -1,
          156, 275, 276, -1,
          156, 276, 277, -1,
          156, 155, 275, -1,
          153, 156, 277, -1,
          149, 277, 278, -1,
          149, 153, 277, -1,
          150, 278, 261, -1,
          150, 149, 278, -1,
          151, 261, 260, -1,
          151, 150, 261, -1,
          147, 260, 262, -1,
          147, 262, 263, -1,
          147, 151, 260, -1,
          148, 263, 264, -1,
          148, 147, 263, -1,
          146, 148, 264, -1,
          154, 146, 264, -1,
          154, 264, 265, -1,
          154, 265, 266, -1,
          152, 154, 266, -1,
          158, 152, 266, -1,
          158, 266, 267, -1,
          159, 158, 267, -1,
          159, 267, 268, -1,
          159, 268, 251, -1,
          157, 159, 251, -1,
          160, 251, 250, -1,
          160, 157, 251, -1,
          164, 250, 252, -1,
          164, 160, 250, -1,
          167, 252, 253, -1,
          167, 164, 252, -1,
          166, 253, 254, -1,
          166, 167, 253, -1,
          171, 254, 255, -1,
          171, 166, 254, -1,
          170, 255, 256, -1,
          170, 256, 257, -1,
          170, 171, 255, -1,
          181, 170, 257, -1,
          182, 257, 240, -1,
          182, 181, 257, -1,
          176, 240, 239, -1,
          176, 182, 240, -1,
          177, 239, 241, -1,
          177, 176, 239, -1,
          178, 241, 242, -1,
          178, 177, 241, -1,
          179, 242, 243, -1,
          179, 243, 244, -1,
          179, 178, 242, -1,
          175, 179, 244, -1,
          180, 244, 245, -1,
          180, 245, 246, -1,
          180, 175, 244, -1,
          184, 180, 246, -1,
          183, 246, 247, -1,
          183, 184, 246, -1,
          186, 247, 220, -1,
          186, 183, 247, -1,
          187, 220, 219, -1,
          187, 219, 221, -1,
          187, 186, 220, -1,
          188, 187, 221, -1,
          185, 188, 221, -1,
          185, 221, 222, -1,
          189, 185, 222, -1,
          189, 222, 223, -1,
          191, 189, 223, -1,
          191, 223, 224, -1,
          191, 224, 225, -1,
          192, 191, 225, -1,
          190, 192, 225, -1,
          190, 225, 226, -1,
          190, 226, 227, -1,
          194, 190, 227, -1,
          195, 194, 227, -1,
          195, 227, 228, -1,
          193, 195, 228, -1,
          193, 228, 230, -1,
          197, 193, 230, -1,
          197, 230, 231, -1,
          198, 197, 231, -1,
          198, 231, 232, -1,
          196, 198, 232, -1,
          196, 232, 233, -1,
          200, 196, 233, -1,
          200, 233, 234, -1,
          199, 200, 234, -1,
          199, 234, 235, -1,
          199, 235, 236, -1,
          201, 199, 236, -1,
          202, 236, 237, -1,
          202, 201, 236, -1,
          204, 237, 209, -1,
          204, 209, 208, -1,
          204, 202, 237, -1,
          205, 204, 208, -1,
          203, 208, 210, -1,
          203, 210, 211, -1,
          203, 205, 208, -1,
          207, 203, 211, -1,
          206, 211, 212, -1,
          206, 207, 211, -1,
          3, 212, 1, -1,
          3, 206, 212, -1
        ]
      }
    }
}
