#VRML V2.0 utf8
WorldInfo {
  title "Exported triangle mesh to VRML97"
  info ["Created by FreeCAD"
        "<https://www.freecad.org>"]
}

Transform {
  scale 1 1 1
  rotation 0 0 1 0
  scaleOrientation 0 0 1 0
  center 0.000 0.000 0.000
  translation 0.000 0.000 0.000
  children
    Shape { 
      appearance
      Appearance {
        material
        Material {
          diffuseColor 0.8 0.8 0.8
        }
      }
      geometry
      IndexedFaceSet {
        coord
        Coordinate {
          point [
            -0.000 -9.552 0.920,
            -2.516 -12.448 0.374,
            -1.893 -12.558 0.374,
            -1.265 -12.637 0.374,
            -0.633 -12.684 0.374,
            0.000 -12.700 0.374,
            -0.633 12.684 0.374,
            0.000 9.552 0.920,
            0.000 12.700 0.374,
            -1.265 12.637 0.374,
            -1.893 12.558 0.374,
            -2.516 12.448 0.374,
            -4.256 -10.581 0.618,
            -7.154 -10.493 0.374,
            -6.622 -10.837 0.374,
            -6.074 -11.153 0.374,
            -5.510 -11.442 0.374,
            -4.933 -11.703 0.374,
            -4.344 -11.934 0.374,
            -3.743 -12.136 0.374,
            -3.134 -12.307 0.374,
            -4.256 -6.367 1.173,
            -0.000 -6.381 1.311,
            -0.000 -3.194 1.547,
            -8.494 -8.424 0.516,
            -10.312 -7.414 0.374,
            -9.929 -7.918 0.374,
            -9.522 -8.403 0.374,
            -9.092 -8.868 0.374,
            -8.638 -9.310 0.374,
            -8.163 -9.729 0.374,
            -7.668 -10.124 0.374,
            -4.256 -2.125 1.451,
            0.000 -0.000 1.625,
            -8.494 -4.221 0.930,
            -12.382 -2.826 0.374,
            -12.225 -3.440 0.374,
            -12.039 -4.045 0.374,
            -11.822 -4.640 0.374,
            -11.576 -5.223 0.374,
            -11.301 -5.794 0.374,
            -10.999 -6.350 0.374,
            -10.668 -6.890 0.374,
            -4.256 2.125 1.451,
            0.000 3.194 1.547,
            -8.494 -0.000 1.068,
            -12.382 2.826 0.374,
            -12.507 2.205 0.374,
            -12.601 1.579 0.374,
            -12.664 0.949 0.374,
            -12.696 0.317 0.374,
            -12.696 -0.317 0.374,
            -12.664 -0.949 0.374,
            -12.601 -1.579 0.374,
            -12.507 -2.205 0.374,
            -4.256 6.367 1.173,
            0.000 6.381 1.311,
            -8.494 4.221 0.930,
            -10.312 7.414 0.374,
            -10.668 6.890 0.374,
            -10.999 6.350 0.374,
            -11.301 5.794 0.374,
            -11.576 5.223 0.374,
            -11.822 4.640 0.374,
            -12.039 4.045 0.374,
            -12.225 3.440 0.374,
            -4.256 10.581 0.618,
            -3.134 12.307 0.374,
            -7.154 10.493 0.374,
            -3.743 12.136 0.374,
            -4.344 11.934 0.374,
            -4.933 11.703 0.374,
            -5.510 11.442 0.374,
            -6.074 11.153 0.374,
            -6.622 10.837 0.374,
            -8.494 8.424 0.516,
            -7.668 10.124 0.374,
            -8.163 9.729 0.374,
            -8.638 9.310 0.374,
            -9.092 8.868 0.374,
            -9.522 8.403 0.374,
            -9.929 7.918 0.374,
            0.633 -12.684 0.374,
            0.000 -12.700 -1.625,
            0.633 -12.684 -1.625,
            1.265 -12.637 0.374,
            1.265 -12.637 -1.625,
            1.893 -12.558 0.374,
            1.893 -12.558 -1.625,
            2.516 -12.448 0.374,
            2.516 -12.448 -1.625,
            3.134 -12.307 0.374,
            3.134 -12.307 -1.625,
            3.743 -12.136 0.374,
            3.743 -12.136 -1.625,
            4.344 -11.934 0.374,
            4.344 -11.934 -1.625,
            4.933 -11.703 0.374,
            4.933 -11.703 -1.625,
            5.510 -11.442 0.374,
            5.510 -11.442 -1.625,
            6.074 -11.153 0.374,
            6.074 -11.153 -1.625,
            6.622 -10.837 0.374,
            6.622 -10.837 -1.625,
            7.154 -10.493 0.374,
            7.154 -10.493 -1.625,
            7.668 -10.124 -1.625,
            7.668 -10.124 0.374,
            8.163 -9.729 0.374,
            8.163 -9.729 -1.625,
            8.638 -9.310 -1.625,
            8.638 -9.310 0.374,
            9.092 -8.868 -1.625,
            9.092 -8.868 0.374,
            9.522 -8.403 0.374,
            9.522 -8.403 -1.625,
            9.929 -7.918 0.374,
            9.929 -7.918 -1.625,
            10.312 -7.414 0.374,
            10.312 -7.414 -1.625,
            10.668 -6.890 0.374,
            10.668 -6.890 -1.625,
            10.999 -6.350 0.374,
            10.999 -6.350 -1.625,
            11.301 -5.794 0.374,
            11.301 -5.794 -1.625,
            11.576 -5.223 0.374,
            11.576 -5.223 -1.625,
            11.822 -4.640 -1.625,
            11.822 -4.640 0.374,
            12.039 -4.045 -1.625,
            12.039 -4.045 0.374,
            12.225 -3.440 -1.625,
            12.225 -3.440 0.374,
            12.382 -2.826 0.374,
            12.382 -2.826 -1.625,
            12.507 -2.205 -1.625,
            12.507 -2.205 0.374,
            12.601 -1.579 0.374,
            12.601 -1.579 -1.625,
            12.664 -0.949 0.374,
            12.664 -0.949 -1.625,
            12.696 -0.317 0.374,
            12.696 -0.317 -1.625,
            12.696 0.317 -1.625,
            12.696 0.317 0.374,
            12.664 0.949 0.374,
            12.664 0.949 -1.625,
            12.601 1.579 0.374,
            12.601 1.579 -1.625,
            12.507 2.205 -1.625,
            12.507 2.205 0.374,
            12.382 2.826 -1.625,
            12.382 2.826 0.374,
            12.225 3.440 0.374,
            12.225 3.440 -1.625,
            12.039 4.045 -1.625,
            12.039 4.045 0.374,
            11.822 4.640 0.374,
            11.822 4.640 -1.625,
            11.576 5.223 -1.625,
            11.576 5.223 0.374,
            11.301 5.794 0.374,
            11.301 5.794 -1.625,
            10.999 6.350 0.374,
            10.999 6.350 -1.625,
            10.668 6.890 0.374,
            10.668 6.890 -1.625,
            10.312 7.414 -1.625,
            10.312 7.414 0.374,
            9.929 7.918 0.374,
            9.929 7.918 -1.625,
            9.522 8.403 0.374,
            9.522 8.403 -1.625,
            9.092 8.868 0.374,
            9.092 8.868 -1.625,
            8.638 9.310 -1.625,
            8.638 9.310 0.374,
            8.163 9.729 0.374,
            8.163 9.729 -1.625,
            7.668 10.124 -1.625,
            7.668 10.124 0.374,
            7.154 10.493 0.374,
            7.154 10.493 -1.625,
            6.622 10.837 -1.625,
            6.622 10.837 0.374,
            6.074 11.153 0.374,
            6.074 11.153 -1.625,
            5.510 11.442 0.374,
            5.510 11.442 -1.625,
            4.933 11.703 -1.625,
            4.933 11.703 0.374,
            4.344 11.934 0.374,
            4.344 11.934 -1.625,
            3.743 12.136 -1.625,
            3.743 12.136 0.374,
            3.134 12.307 0.374,
            3.134 12.307 -1.625,
            2.516 12.448 0.374,
            2.516 12.448 -1.625,
            1.893 12.558 0.374,
            1.893 12.558 -1.625,
            1.265 12.637 0.374,
            1.265 12.637 -1.625,
            0.633 12.684 -1.625,
            0.633 12.684 0.374,
            0.000 12.700 -1.625,
            -0.633 12.684 -1.625,
            -1.265 12.637 -1.625,
            -1.893 12.558 -1.625,
            -2.516 12.448 -1.625,
            -3.134 12.307 -1.625,
            -3.743 12.136 -1.625,
            -4.344 11.934 -1.625,
            -4.933 11.703 -1.625,
            -5.510 11.442 -1.625,
            -6.074 11.153 -1.625,
            -6.622 10.837 -1.625,
            -7.154 10.493 -1.625,
            -7.668 10.124 -1.625,
            -8.163 9.729 -1.625,
            -8.638 9.310 -1.625,
            -9.092 8.868 -1.625,
            -9.522 8.403 -1.625,
            -9.929 7.918 -1.625,
            -10.312 7.414 -1.625,
            -10.668 6.890 -1.625,
            -10.999 6.350 -1.625,
            -11.301 5.794 -1.625,
            -11.576 5.223 -1.625,
            -11.822 4.640 -1.625,
            -12.039 4.045 -1.625,
            -12.225 3.440 -1.625,
            -12.382 2.826 -1.625,
            -12.507 2.205 -1.625,
            -12.601 1.579 -1.625,
            -12.664 0.949 -1.625,
            -12.696 0.317 -1.625,
            -12.696 -0.317 -1.625,
            -12.664 -0.949 -1.625,
            -12.601 -1.579 -1.625,
            -12.507 -2.205 -1.625,
            -12.382 -2.826 -1.625,
            -12.225 -3.440 -1.625,
            -12.039 -4.045 -1.625,
            -11.822 -4.640 -1.625,
            -11.576 -5.223 -1.625,
            -11.301 -5.794 -1.625,
            -10.999 -6.350 -1.625,
            -10.668 -6.890 -1.625,
            -10.312 -7.414 -1.625,
            -9.929 -7.918 -1.625,
            -9.522 -8.403 -1.625,
            -9.092 -8.868 -1.625,
            -8.638 -9.310 -1.625,
            -8.163 -9.729 -1.625,
            -7.668 -10.124 -1.625,
            -7.154 -10.493 -1.625,
            -6.622 -10.837 -1.625,
            -6.074 -11.153 -1.625,
            -5.510 -11.442 -1.625,
            -4.933 -11.703 -1.625,
            -4.344 -11.934 -1.625,
            -3.743 -12.136 -1.625,
            -3.134 -12.307 -1.625,
            -2.516 -12.448 -1.625,
            -1.893 -12.558 -1.625,
            -1.265 -12.637 -1.625,
            -0.633 -12.684 -1.625,
            8.494 -6.326 0.757,
            4.256 -8.479 0.930,
            8.494 -2.112 1.034,
            4.256 -4.249 1.347,
            8.494 2.112 1.034,
            4.256 -0.000 1.486,
            8.494 6.326 0.757,
            4.256 4.249 1.347,
            4.256 8.479 0.930
          ]
        }
        coordIndex [
          0, 1, 2, -1,
          0, 2, 3, -1,
          0, 3, 4, -1,
          0, 4, 5, -1,
          6, 7, 8, -1,
          9, 7, 6, -1,
          10, 7, 9, -1,
          11, 7, 10, -1,
          12, 13, 14, -1,
          12, 14, 15, -1,
          12, 15, 16, -1,
          12, 16, 17, -1,
          12, 17, 18, -1,
          12, 18, 19, -1,
          12, 19, 20, -1,
          12, 20, 1, -1,
          12, 1, 0, -1,
          21, 12, 0, -1,
          21, 13, 12, -1,
          21, 0, 22, -1,
          21, 22, 23, -1,
          24, 13, 21, -1,
          24, 25, 26, -1,
          24, 26, 27, -1,
          24, 27, 28, -1,
          24, 28, 29, -1,
          24, 29, 30, -1,
          24, 30, 31, -1,
          24, 31, 13, -1,
          32, 21, 23, -1,
          32, 23, 33, -1,
          34, 25, 24, -1,
          34, 24, 21, -1,
          34, 35, 36, -1,
          34, 36, 37, -1,
          34, 37, 38, -1,
          34, 38, 39, -1,
          34, 39, 40, -1,
          34, 40, 41, -1,
          34, 41, 42, -1,
          34, 42, 25, -1,
          34, 21, 32, -1,
          43, 33, 44, -1,
          43, 32, 33, -1,
          45, 34, 32, -1,
          45, 46, 47, -1,
          45, 47, 48, -1,
          45, 48, 49, -1,
          45, 49, 50, -1,
          45, 50, 51, -1,
          45, 51, 52, -1,
          45, 52, 53, -1,
          45, 53, 54, -1,
          45, 54, 35, -1,
          45, 32, 43, -1,
          45, 35, 34, -1,
          55, 43, 44, -1,
          55, 56, 7, -1,
          55, 44, 56, -1,
          57, 58, 59, -1,
          57, 59, 60, -1,
          57, 60, 61, -1,
          57, 61, 62, -1,
          57, 62, 63, -1,
          57, 63, 64, -1,
          57, 64, 65, -1,
          57, 65, 46, -1,
          57, 45, 43, -1,
          57, 43, 55, -1,
          57, 46, 45, -1,
          66, 11, 67, -1,
          66, 68, 55, -1,
          66, 67, 69, -1,
          66, 69, 70, -1,
          66, 70, 71, -1,
          66, 71, 72, -1,
          66, 72, 73, -1,
          66, 73, 74, -1,
          66, 74, 68, -1,
          66, 7, 11, -1,
          66, 55, 7, -1,
          75, 55, 68, -1,
          75, 68, 76, -1,
          75, 76, 77, -1,
          75, 77, 78, -1,
          75, 78, 79, -1,
          75, 79, 80, -1,
          75, 80, 81, -1,
          75, 81, 58, -1,
          75, 58, 57, -1,
          75, 57, 55, -1,
          82, 83, 84, -1,
          82, 5, 83, -1,
          85, 84, 86, -1,
          85, 82, 84, -1,
          87, 86, 88, -1,
          87, 85, 86, -1,
          89, 88, 90, -1,
          89, 87, 88, -1,
          91, 90, 92, -1,
          91, 89, 90, -1,
          93, 92, 94, -1,
          93, 91, 92, -1,
          95, 94, 96, -1,
          95, 93, 94, -1,
          97, 96, 98, -1,
          97, 95, 96, -1,
          99, 98, 100, -1,
          99, 97, 98, -1,
          101, 100, 102, -1,
          101, 99, 100, -1,
          103, 102, 104, -1,
          103, 101, 102, -1,
          105, 104, 106, -1,
          105, 106, 107, -1,
          105, 103, 104, -1,
          108, 105, 107, -1,
          109, 107, 110, -1,
          109, 110, 111, -1,
          109, 108, 107, -1,
          112, 111, 113, -1,
          112, 109, 111, -1,
          114, 112, 113, -1,
          115, 114, 113, -1,
          115, 113, 116, -1,
          117, 116, 118, -1,
          117, 115, 116, -1,
          119, 117, 118, -1,
          119, 118, 120, -1,
          121, 119, 120, -1,
          121, 120, 122, -1,
          123, 121, 122, -1,
          123, 122, 124, -1,
          125, 123, 124, -1,
          125, 124, 126, -1,
          127, 125, 126, -1,
          127, 126, 128, -1,
          127, 128, 129, -1,
          130, 129, 131, -1,
          130, 127, 129, -1,
          132, 131, 133, -1,
          132, 130, 131, -1,
          134, 132, 133, -1,
          135, 133, 136, -1,
          135, 136, 137, -1,
          135, 134, 133, -1,
          138, 135, 137, -1,
          139, 137, 140, -1,
          139, 138, 137, -1,
          141, 140, 142, -1,
          141, 139, 140, -1,
          143, 142, 144, -1,
          143, 144, 145, -1,
          143, 141, 142, -1,
          146, 143, 145, -1,
          147, 145, 148, -1,
          147, 146, 145, -1,
          149, 148, 150, -1,
          149, 150, 151, -1,
          149, 147, 148, -1,
          152, 151, 153, -1,
          152, 149, 151, -1,
          154, 152, 153, -1,
          155, 153, 156, -1,
          155, 156, 157, -1,
          155, 154, 153, -1,
          158, 155, 157, -1,
          159, 157, 160, -1,
          159, 160, 161, -1,
          159, 158, 157, -1,
          162, 159, 161, -1,
          163, 161, 164, -1,
          163, 162, 161, -1,
          165, 164, 166, -1,
          165, 163, 164, -1,
          167, 165, 166, -1,
          167, 166, 168, -1,
          167, 168, 169, -1,
          170, 167, 169, -1,
          171, 170, 169, -1,
          171, 169, 172, -1,
          173, 171, 172, -1,
          173, 172, 174, -1,
          175, 173, 174, -1,
          175, 174, 176, -1,
          175, 176, 177, -1,
          178, 175, 177, -1,
          179, 178, 177, -1,
          179, 177, 180, -1,
          179, 180, 181, -1,
          182, 179, 181, -1,
          183, 182, 181, -1,
          183, 181, 184, -1,
          183, 184, 185, -1,
          186, 183, 185, -1,
          187, 186, 185, -1,
          187, 185, 188, -1,
          189, 187, 188, -1,
          189, 188, 190, -1,
          189, 190, 191, -1,
          192, 189, 191, -1,
          193, 191, 194, -1,
          193, 192, 191, -1,
          193, 194, 195, -1,
          196, 193, 195, -1,
          197, 196, 195, -1,
          197, 195, 198, -1,
          199, 198, 200, -1,
          199, 197, 198, -1,
          201, 200, 202, -1,
          201, 199, 200, -1,
          203, 202, 204, -1,
          203, 204, 205, -1,
          203, 201, 202, -1,
          206, 203, 205, -1,
          8, 205, 207, -1,
          8, 206, 205, -1,
          6, 8, 207, -1,
          6, 207, 208, -1,
          9, 208, 209, -1,
          9, 6, 208, -1,
          10, 209, 210, -1,
          10, 9, 209, -1,
          11, 210, 211, -1,
          11, 10, 210, -1,
          67, 211, 212, -1,
          67, 11, 211, -1,
          69, 212, 213, -1,
          69, 67, 212, -1,
          70, 213, 214, -1,
          70, 214, 215, -1,
          70, 69, 213, -1,
          71, 70, 215, -1,
          72, 215, 216, -1,
          72, 71, 215, -1,
          73, 216, 217, -1,
          73, 72, 216, -1,
          74, 217, 218, -1,
          74, 73, 217, -1,
          68, 218, 219, -1,
          68, 74, 218, -1,
          76, 219, 220, -1,
          76, 68, 219, -1,
          77, 220, 221, -1,
          77, 221, 222, -1,
          77, 76, 220, -1,
          78, 77, 222, -1,
          79, 222, 223, -1,
          79, 78, 222, -1,
          80, 223, 224, -1,
          80, 224, 225, -1,
          80, 79, 223, -1,
          81, 80, 225, -1,
          58, 81, 225, -1,
          58, 225, 226, -1,
          59, 58, 226, -1,
          59, 226, 227, -1,
          60, 59, 227, -1,
          60, 227, 228, -1,
          61, 60, 228, -1,
          61, 228, 229, -1,
          62, 229, 230, -1,
          62, 61, 229, -1,
          63, 230, 231, -1,
          63, 62, 230, -1,
          64, 231, 232, -1,
          64, 63, 231, -1,
          65, 232, 233, -1,
          65, 64, 232, -1,
          46, 233, 234, -1,
          46, 65, 233, -1,
          47, 234, 235, -1,
          47, 235, 236, -1,
          47, 46, 234, -1,
          48, 47, 236, -1,
          49, 236, 237, -1,
          49, 48, 236, -1,
          50, 237, 238, -1,
          50, 49, 237, -1,
          51, 238, 239, -1,
          51, 50, 238, -1,
          52, 239, 240, -1,
          52, 51, 239, -1,
          53, 240, 241, -1,
          53, 241, 242, -1,
          53, 52, 240, -1,
          54, 242, 243, -1,
          54, 53, 242, -1,
          35, 54, 243, -1,
          36, 243, 244, -1,
          36, 35, 243, -1,
          37, 244, 245, -1,
          37, 36, 244, -1,
          38, 245, 246, -1,
          38, 246, 247, -1,
          38, 37, 245, -1,
          39, 247, 248, -1,
          39, 38, 247, -1,
          40, 39, 248, -1,
          41, 248, 249, -1,
          41, 40, 248, -1,
          42, 41, 249, -1,
          42, 249, 250, -1,
          25, 42, 250, -1,
          25, 250, 251, -1,
          26, 25, 251, -1,
          26, 251, 252, -1,
          27, 26, 252, -1,
          27, 252, 253, -1,
          28, 27, 253, -1,
          28, 253, 254, -1,
          28, 254, 255, -1,
          29, 28, 255, -1,
          30, 29, 255, -1,
          30, 255, 256, -1,
          30, 256, 257, -1,
          31, 30, 257, -1,
          13, 31, 257, -1,
          13, 257, 258, -1,
          13, 258, 259, -1,
          14, 13, 259, -1,
          15, 14, 259, -1,
          15, 259, 260, -1,
          16, 15, 260, -1,
          16, 260, 261, -1,
          17, 16, 261, -1,
          17, 261, 262, -1,
          18, 17, 262, -1,
          18, 262, 263, -1,
          19, 263, 264, -1,
          19, 264, 265, -1,
          19, 18, 263, -1,
          20, 19, 265, -1,
          1, 265, 266, -1,
          1, 20, 265, -1,
          2, 266, 267, -1,
          2, 1, 266, -1,
          3, 267, 268, -1,
          3, 2, 267, -1,
          4, 268, 269, -1,
          4, 269, 83, -1,
          4, 3, 268, -1,
          5, 4, 83, -1,
          0, 5, 82, -1,
          0, 82, 85, -1,
          0, 85, 87, -1,
          0, 87, 89, -1,
          0, 89, 91, -1,
          199, 7, 197, -1,
          201, 7, 199, -1,
          203, 7, 201, -1,
          206, 7, 203, -1,
          8, 7, 206, -1,
          270, 109, 112, -1,
          270, 112, 114, -1,
          270, 114, 115, -1,
          270, 115, 117, -1,
          270, 117, 119, -1,
          270, 119, 121, -1,
          270, 121, 123, -1,
          270, 123, 125, -1,
          270, 125, 127, -1,
          271, 22, 0, -1,
          271, 91, 93, -1,
          271, 93, 95, -1,
          271, 95, 97, -1,
          271, 97, 99, -1,
          271, 99, 101, -1,
          271, 101, 103, -1,
          271, 103, 105, -1,
          271, 109, 270, -1,
          271, 105, 108, -1,
          271, 108, 109, -1,
          271, 0, 91, -1,
          272, 127, 130, -1,
          272, 130, 132, -1,
          272, 132, 134, -1,
          272, 134, 135, -1,
          272, 135, 138, -1,
          272, 138, 139, -1,
          272, 139, 141, -1,
          272, 141, 143, -1,
          272, 270, 127, -1,
          273, 23, 22, -1,
          273, 270, 272, -1,
          273, 271, 270, -1,
          273, 22, 271, -1,
          274, 143, 146, -1,
          274, 146, 147, -1,
          274, 147, 149, -1,
          274, 149, 152, -1,
          274, 152, 154, -1,
          274, 154, 155, -1,
          274, 155, 158, -1,
          274, 158, 159, -1,
          274, 159, 162, -1,
          274, 272, 143, -1,
          275, 33, 23, -1,
          275, 23, 273, -1,
          275, 44, 33, -1,
          275, 273, 272, -1,
          275, 272, 274, -1,
          276, 274, 162, -1,
          276, 162, 163, -1,
          276, 163, 165, -1,
          276, 165, 167, -1,
          276, 167, 170, -1,
          276, 170, 171, -1,
          276, 171, 173, -1,
          276, 173, 175, -1,
          276, 175, 178, -1,
          276, 178, 179, -1,
          277, 44, 275, -1,
          277, 275, 274, -1,
          277, 274, 276, -1,
          277, 56, 44, -1,
          278, 197, 7, -1,
          278, 277, 276, -1,
          278, 179, 182, -1,
          278, 182, 183, -1,
          278, 183, 186, -1,
          278, 186, 187, -1,
          278, 187, 189, -1,
          278, 189, 192, -1,
          278, 192, 193, -1,
          278, 193, 196, -1,
          278, 196, 197, -1,
          278, 7, 56, -1,
          278, 276, 179, -1,
          278, 56, 277, -1,
          223, 225, 224, -1,
          221, 220, 222, -1,
          219, 227, 220, -1,
          222, 227, 223, -1,
          225, 227, 226, -1,
          223, 227, 225, -1,
          220, 227, 222, -1,
          218, 217, 219, -1,
          228, 230, 229, -1,
          228, 231, 230, -1,
          215, 214, 216, -1,
          227, 232, 228, -1,
          228, 232, 231, -1,
          214, 213, 216, -1,
          232, 234, 233, -1,
          219, 234, 227, -1,
          227, 234, 232, -1,
          212, 211, 213, -1,
          213, 211, 216, -1,
          234, 236, 235, -1,
          210, 209, 211, -1,
          216, 208, 217, -1,
          217, 208, 219, -1,
          209, 208, 211, -1,
          211, 208, 216, -1,
          207, 202, 208, -1,
          204, 202, 205, -1,
          205, 202, 207, -1,
          239, 243, 240, -1,
          240, 243, 241, -1,
          241, 243, 242, -1,
          236, 244, 237, -1,
          237, 244, 238, -1,
          238, 244, 239, -1,
          239, 244, 243, -1,
          198, 195, 200, -1,
          200, 195, 202, -1,
          202, 195, 208, -1,
          244, 246, 245, -1,
          236, 246, 244, -1,
          190, 188, 191, -1,
          191, 188, 194, -1,
          194, 188, 195, -1,
          247, 250, 248, -1,
          248, 250, 249, -1,
          185, 184, 188, -1,
          247, 251, 250, -1,
          181, 180, 184, -1,
          188, 177, 195, -1,
          184, 177, 188, -1,
          180, 177, 184, -1,
          251, 254, 252, -1,
          252, 254, 253, -1,
          176, 174, 177, -1,
          254, 257, 255, -1,
          255, 257, 256, -1,
          251, 257, 254, -1,
          168, 166, 169, -1,
          169, 166, 172, -1,
          172, 166, 174, -1,
          174, 166, 177, -1,
          257, 260, 258, -1,
          258, 260, 259, -1,
          164, 161, 166, -1,
          166, 161, 177, -1,
          260, 262, 261, -1,
          257, 262, 260, -1,
          195, 160, 208, -1,
          177, 160, 195, -1,
          219, 160, 234, -1,
          161, 160, 177, -1,
          208, 160, 219, -1,
          247, 263, 251, -1,
          246, 263, 247, -1,
          251, 263, 257, -1,
          257, 263, 262, -1,
          236, 263, 246, -1,
          236, 264, 263, -1,
          157, 156, 160, -1,
          265, 267, 266, -1,
          150, 148, 151, -1,
          151, 148, 153, -1,
          153, 148, 156, -1,
          265, 269, 267, -1,
          264, 269, 265, -1,
          267, 269, 268, -1,
          148, 145, 156, -1,
          144, 142, 145, -1,
          264, 86, 269, -1,
          269, 86, 83, -1,
          83, 86, 84, -1,
          264, 90, 86, -1,
          86, 90, 88, -1,
          236, 90, 264, -1,
          145, 136, 156, -1,
          142, 136, 145, -1,
          156, 136, 160, -1,
          234, 136, 236, -1,
          160, 136, 234, -1,
          137, 136, 140, -1,
          140, 136, 142, -1,
          133, 131, 136, -1,
          90, 96, 92, -1,
          92, 96, 94, -1,
          136, 128, 236, -1,
          236, 128, 90, -1,
          131, 128, 136, -1,
          129, 128, 131, -1,
          96, 102, 98, -1,
          98, 102, 100, -1,
          96, 104, 102, -1,
          124, 122, 126, -1,
          126, 122, 128, -1,
          104, 107, 106, -1,
          122, 118, 128, -1,
          120, 118, 122, -1,
          90, 110, 96, -1,
          96, 110, 104, -1,
          104, 110, 107, -1,
          128, 113, 90, -1,
          118, 113, 128, -1,
          90, 113, 110, -1,
          110, 113, 111, -1,
          116, 113, 118, -1
        ]
      }
    }
}
