#VRML V2.0 utf8
WorldInfo {
  title "Exported triangle mesh to VRML97"
  info ["Created by FreeCAD"
        "<https://www.freecad.org>"]
}

Transform {
  scale 1 1 1
  rotation 0 0 1 0
  scaleOrientation 0 0 1 0
  center 0.000 0.000 0.000
  translation 0.000 0.000 0.000
  children
    Shape { 
      appearance
      Appearance {
        material
        Material {
          diffuseColor 0.8 0.8 0.8
        }
      }
      geometry
      IndexedFaceSet {
        coord
        Coordinate {
          point [
            0.625 12.523 -0.942,
            0.000 12.700 -1.257,
            0.000 12.539 -0.942,
            0.633 12.684 -1.257,
            1.248 12.476 -0.942,
            1.265 12.637 -1.257,
            1.869 12.399 -0.942,
            1.893 12.558 -1.257,
            2.485 12.290 -0.942,
            2.516 12.448 -1.257,
            3.094 12.151 -0.942,
            3.134 12.307 -1.257,
            3.696 11.982 -0.942,
            3.743 12.136 -1.257,
            4.289 11.783 -0.942,
            4.344 11.934 -1.257,
            4.870 11.554 -0.942,
            4.933 11.703 -1.257,
            5.440 11.297 -0.942,
            5.510 11.442 -1.257,
            5.997 11.012 -0.942,
            6.074 11.153 -1.257,
            6.538 10.699 -0.942,
            6.622 10.837 -1.257,
            7.063 10.360 -0.942,
            7.154 10.493 -1.257,
            7.571 9.995 -0.942,
            7.668 10.124 -1.257,
            8.060 9.605 -0.942,
            8.163 9.729 -1.257,
            8.529 9.192 -0.942,
            8.638 9.310 -1.257,
            8.976 8.755 -0.942,
            9.092 8.868 -1.257,
            9.401 8.297 -0.942,
            9.522 8.403 -1.257,
            9.803 7.818 -0.942,
            9.929 7.918 -1.257,
            10.181 7.319 -0.942,
            10.312 7.414 -1.257,
            10.533 6.803 -0.942,
            10.668 6.890 -1.257,
            10.859 6.269 -0.942,
            10.999 6.350 -1.257,
            11.158 5.720 -0.942,
            11.301 5.794 -1.257,
            11.429 5.157 -0.942,
            11.576 5.223 -1.257,
            11.672 4.581 -0.942,
            11.822 4.640 -1.257,
            11.886 3.993 -0.942,
            12.039 4.045 -1.257,
            12.070 3.396 -0.942,
            12.225 3.440 -1.257,
            12.224 2.790 -0.942,
            12.382 2.826 -1.257,
            12.348 2.177 -0.942,
            12.507 2.205 -1.257,
            12.441 1.559 -0.942,
            12.601 1.579 -1.257,
            12.504 0.937 -0.942,
            12.664 0.949 -1.257,
            12.535 0.313 -0.942,
            12.696 0.317 -1.257,
            12.535 -0.313 -0.942,
            12.696 -0.317 -1.257,
            12.504 -0.937 -0.942,
            12.664 -0.949 -1.257,
            12.441 -1.559 -0.942,
            12.601 -1.579 -1.257,
            12.348 -2.177 -0.942,
            12.507 -2.205 -1.257,
            12.382 -2.826 -1.257,
            12.224 -2.790 -0.942,
            12.070 -3.396 -0.942,
            12.225 -3.440 -1.257,
            11.886 -3.993 -0.942,
            12.039 -4.045 -1.257,
            11.822 -4.640 -1.257,
            11.672 -4.581 -0.942,
            11.429 -5.157 -0.942,
            11.576 -5.223 -1.257,
            11.158 -5.720 -0.942,
            11.301 -5.794 -1.257,
            10.859 -6.269 -0.942,
            10.999 -6.350 -1.257,
            10.533 -6.803 -0.942,
            10.668 -6.890 -1.257,
            10.181 -7.319 -0.942,
            10.312 -7.414 -1.257,
            9.803 -7.818 -0.942,
            9.929 -7.918 -1.257,
            9.401 -8.297 -0.942,
            9.522 -8.403 -1.257,
            8.976 -8.755 -0.942,
            9.092 -8.868 -1.257,
            8.529 -9.192 -0.942,
            8.638 -9.310 -1.257,
            8.060 -9.605 -0.942,
            8.163 -9.729 -1.257,
            7.571 -9.995 -0.942,
            7.668 -10.124 -1.257,
            7.063 -10.360 -0.942,
            7.154 -10.493 -1.257,
            6.538 -10.699 -0.942,
            6.622 -10.837 -1.257,
            5.997 -11.012 -0.942,
            6.074 -11.153 -1.257,
            5.440 -11.297 -0.942,
            5.510 -11.442 -1.257,
            4.933 -11.703 -1.257,
            4.870 -11.554 -0.942,
            4.289 -11.783 -0.942,
            4.344 -11.934 -1.257,
            3.696 -11.982 -0.942,
            3.743 -12.136 -1.257,
            3.134 -12.307 -1.257,
            3.094 -12.151 -0.942,
            2.485 -12.290 -0.942,
            2.516 -12.448 -1.257,
            1.893 -12.558 -1.257,
            1.869 -12.399 -0.942,
            1.265 -12.637 -1.257,
            1.248 -12.476 -0.942,
            0.625 -12.523 -0.942,
            0.633 -12.684 -1.257,
            0.000 -12.700 -1.257,
            0.000 -12.539 -0.942,
            0.623 -12.484 -3.050,
            0.000 -12.700 -2.850,
            0.000 -12.500 -3.050,
            0.633 -12.684 -2.850,
            1.245 -12.438 -3.050,
            1.265 -12.637 -2.850,
            1.863 -12.360 -3.050,
            1.893 -12.558 -2.850,
            2.477 -12.252 -3.050,
            2.516 -12.448 -2.850,
            3.084 -12.113 -3.050,
            3.134 -12.307 -2.850,
            3.684 -11.945 -3.050,
            3.743 -12.136 -2.850,
            4.275 -11.746 -3.050,
            4.344 -11.934 -2.850,
            4.855 -11.518 -3.050,
            4.933 -11.703 -2.850,
            5.424 -11.262 -3.050,
            5.510 -11.442 -2.850,
            5.978 -10.978 -3.050,
            6.074 -11.153 -2.850,
            6.518 -10.666 -3.050,
            6.622 -10.837 -2.850,
            7.042 -10.328 -3.050,
            7.154 -10.493 -2.850,
            7.548 -9.964 -3.050,
            7.668 -10.124 -2.850,
            8.035 -9.576 -3.050,
            8.163 -9.729 -2.850,
            8.502 -9.163 -3.050,
            8.638 -9.310 -2.850,
            8.948 -8.728 -3.050,
            9.092 -8.868 -2.850,
            9.372 -8.271 -3.050,
            9.522 -8.403 -2.850,
            9.773 -7.794 -3.050,
            9.929 -7.918 -2.850,
            10.149 -7.297 -3.050,
            10.312 -7.414 -2.850,
            10.500 -6.782 -3.050,
            10.668 -6.890 -2.850,
            10.825 -6.250 -3.050,
            10.999 -6.350 -2.850,
            11.123 -5.703 -3.050,
            11.301 -5.794 -2.850,
            11.394 -5.141 -3.050,
            11.576 -5.223 -2.850,
            11.636 -4.567 -3.050,
            11.822 -4.640 -2.850,
            12.039 -4.045 -2.850,
            11.849 -3.981 -3.050,
            12.033 -3.386 -3.050,
            12.225 -3.440 -2.850,
            12.187 -2.782 -3.050,
            12.382 -2.826 -2.850,
            12.310 -2.171 -3.050,
            12.507 -2.205 -2.850,
            12.403 -1.554 -3.050,
            12.601 -1.579 -2.850,
            12.465 -0.934 -3.050,
            12.664 -0.949 -2.850,
            12.696 -0.317 -2.850,
            12.496 -0.312 -3.050,
            12.496 0.312 -3.050,
            12.696 0.317 -2.850,
            12.465 0.934 -3.050,
            12.664 0.949 -2.850,
            12.403 1.554 -3.050,
            12.601 1.579 -2.850,
            12.310 2.171 -3.050,
            12.507 2.205 -2.850,
            12.382 2.826 -2.850,
            12.187 2.782 -3.050,
            12.033 3.386 -3.050,
            12.225 3.440 -2.850,
            12.039 4.045 -2.850,
            11.849 3.981 -3.050,
            11.822 4.640 -2.850,
            11.636 4.567 -3.050,
            11.576 5.223 -2.850,
            11.394 5.141 -3.050,
            11.123 5.703 -3.050,
            11.301 5.794 -2.850,
            10.999 6.350 -2.850,
            10.825 6.250 -3.050,
            10.668 6.890 -2.850,
            10.500 6.782 -3.050,
            10.149 7.297 -3.050,
            10.312 7.414 -2.850,
            9.773 7.794 -3.050,
            9.929 7.918 -2.850,
            9.522 8.403 -2.850,
            9.372 8.271 -3.050,
            8.948 8.728 -3.050,
            9.092 8.868 -2.850,
            8.638 9.310 -2.850,
            8.502 9.163 -3.050,
            8.035 9.576 -3.050,
            8.163 9.729 -2.850,
            7.668 10.124 -2.850,
            7.548 9.964 -3.050,
            7.042 10.328 -3.050,
            7.154 10.493 -2.850,
            6.518 10.666 -3.050,
            6.622 10.837 -2.850,
            6.074 11.153 -2.850,
            5.978 10.978 -3.050,
            5.424 11.262 -3.050,
            5.510 11.442 -2.850,
            4.933 11.703 -2.850,
            4.855 11.518 -3.050,
            4.275 11.746 -3.050,
            4.344 11.934 -2.850,
            3.684 11.945 -3.050,
            3.743 12.136 -2.850,
            3.084 12.113 -3.050,
            3.134 12.307 -2.850,
            2.477 12.252 -3.050,
            2.516 12.448 -2.850,
            1.893 12.558 -2.850,
            1.863 12.360 -3.050,
            1.245 12.438 -3.050,
            1.265 12.637 -2.850,
            0.623 12.484 -3.050,
            0.633 12.684 -2.850,
            0.000 12.500 -3.050,
            0.000 12.700 -2.850,
            0.000 11.686 -0.367,
            0.000 -11.686 -0.367,
            1.484 11.898 -0.565,
            1.484 10.633 0.207,
            0.000 10.807 0.166,
            0.000 9.903 0.657,
            2.961 11.192 -0.298,
            1.484 9.318 0.890,
            0.000 8.977 1.105,
            2.961 9.911 0.425,
            1.484 7.960 1.482,
            0.000 8.031 1.508,
            0.000 7.067 1.866,
            4.424 10.434 -0.146,
            2.961 8.583 1.058,
            5.866 10.877 -0.815,
            1.484 6.564 1.980,
            0.000 6.088 2.178,
            4.424 9.144 0.525,
            2.961 7.215 1.599,
            5.866 9.632 -0.112,
            1.484 5.138 2.380,
            0.000 5.094 2.443,
            0.000 4.089 2.661,
            4.424 7.811 1.105,
            7.281 10.039 -0.845,
            2.961 5.813 2.046,
            5.866 8.341 0.503,
            1.484 3.687 2.683,
            0.000 3.075 2.831,
            4.424 6.441 1.594,
            7.281 8.798 -0.200,
            2.961 4.384 2.395,
            5.866 7.012 1.029,
            1.484 2.219 2.885,
            0.000 2.054 2.953,
            0.000 1.028 3.026,
            4.424 5.041 1.987,
            7.281 7.515 0.359,
            2.961 2.934 2.646,
            5.866 5.649 1.463,
            8.661 7.943 -0.410,
            1.484 0.741 2.987,
            0.000 -0.000 3.050,
            4.424 3.618 2.284,
            7.281 6.198 0.829,
            2.961 1.470 2.797,
            5.866 4.260 1.803,
            8.661 6.677 0.091,
            1.484 -0.741 2.987,
            0.000 -1.028 3.026,
            4.424 2.178 2.482,
            7.281 4.851 1.207,
            10.001 7.080 -0.743,
            2.961 -0.000 2.847,
            5.866 2.851 2.046,
            8.661 5.380 0.504,
            1.484 -2.219 2.885,
            0.000 -2.054 2.953,
            0.000 -3.075 2.831,
            4.424 0.727 2.582,
            7.281 3.481 1.493,
            10.001 5.838 -0.300,
            2.961 -1.470 2.797,
            5.866 1.429 2.193,
            8.661 4.057 0.827,
            1.484 -3.687 2.683,
            0.000 -4.089 2.661,
            4.424 -0.727 2.582,
            7.281 2.095 1.684,
            10.001 4.569 0.056,
            2.961 -2.934 2.646,
            5.866 -0.000 2.242,
            8.661 2.715 1.059,
            1.484 -5.138 2.380,
            0.000 -5.094 2.443,
            0.000 -6.088 2.178,
            11.295 5.010 -0.813,
            4.424 -2.178 2.482,
            7.281 0.700 1.780,
            10.001 3.279 0.325,
            2.961 -4.384 2.395,
            5.866 -1.429 2.193,
            8.661 1.361 1.199,
            1.484 -6.564 1.980,
            0.000 -7.067 1.866,
            11.295 3.778 -0.512,
            4.424 -3.618 2.284,
            7.281 -0.700 1.780,
            10.001 1.974 0.505,
            2.961 -5.813 2.046,
            5.866 -2.851 2.046,
            8.661 -0.000 1.246,
            1.484 -7.960 1.482,
            0.000 -8.031 1.508,
            0.000 -8.977 1.105,
            11.295 2.528 -0.296,
            4.424 -5.041 1.987,
            7.281 -2.095 1.684,
            10.001 0.659 0.595,
            2.961 -7.215 1.599,
            5.866 -4.260 1.803,
            8.661 -1.361 1.199,
            1.484 -9.318 0.890,
            0.000 -9.903 0.657,
            11.295 1.267 -0.166,
            4.424 -6.441 1.594,
            7.281 -3.481 1.493,
            10.001 -0.659 0.595,
            2.961 -8.583 1.058,
            5.866 -5.649 1.463,
            8.661 -2.715 1.059,
            1.484 -10.633 0.207,
            0.000 -10.807 0.166,
            11.295 -0.000 -0.123,
            4.424 -7.811 1.105,
            7.281 -4.851 1.207,
            10.001 -1.974 0.505,
            2.961 -9.911 0.425,
            5.866 -7.012 1.029,
            8.661 -4.057 0.827,
            1.484 -11.898 -0.565,
            11.295 -1.267 -0.166,
            4.424 -9.144 0.525,
            7.281 -6.198 0.829,
            10.001 -3.279 0.325,
            2.961 -11.192 -0.298,
            5.866 -8.341 0.503,
            8.661 -5.380 0.504,
            11.295 -2.528 -0.296,
            4.424 -10.434 -0.146,
            7.281 -7.515 0.359,
            10.001 -4.569 0.056,
            5.866 -9.632 -0.112,
            8.661 -6.677 0.091,
            11.295 -3.778 -0.512,
            7.281 -8.798 -0.200,
            10.001 -5.838 -0.300,
            5.866 -10.877 -0.815,
            8.661 -7.943 -0.410,
            11.295 -5.010 -0.813,
            7.281 -10.039 -0.845,
            10.001 -7.080 -0.743,
            -9.773 -7.794 -3.050,
            -8.948 -8.728 -3.050,
            -9.372 -8.271 -3.050,
            -7.042 -10.328 -3.050,
            -7.548 -9.964 -3.050,
            -8.035 -9.576 -3.050,
            -8.502 -9.163 -3.050,
            -10.500 -6.782 -3.050,
            -10.149 -7.297 -3.050,
            -11.123 -5.703 -3.050,
            -10.825 -6.250 -3.050,
            -5.424 -11.262 -3.050,
            -5.978 -10.978 -3.050,
            -6.518 -10.666 -3.050,
            -11.394 -5.141 -3.050,
            -4.855 -11.518 -3.050,
            -3.684 -11.945 -3.050,
            -4.275 -11.746 -3.050,
            -12.403 -1.554 -3.050,
            -12.187 -2.782 -3.050,
            -12.310 -2.171 -3.050,
            -0.623 -12.484 -3.050,
            -1.245 -12.438 -3.050,
            -1.863 -12.360 -3.050,
            -2.477 -12.252 -3.050,
            -3.084 -12.113 -3.050,
            -12.496 0.312 -3.050,
            -12.465 -0.934 -3.050,
            -12.496 -0.312 -3.050,
            -12.465 0.934 -3.050,
            -12.403 1.554 -3.050,
            -12.310 2.171 -3.050,
            -12.033 -3.386 -3.050,
            -12.187 2.782 -3.050,
            -11.636 -4.567 -3.050,
            -11.849 -3.981 -3.050,
            -11.636 4.567 -3.050,
            -12.033 3.386 -3.050,
            -11.849 3.981 -3.050,
            -10.825 6.250 -3.050,
            -11.394 5.141 -3.050,
            -11.123 5.703 -3.050,
            -10.149 7.297 -3.050,
            -10.500 6.782 -3.050,
            -9.372 8.271 -3.050,
            -9.773 7.794 -3.050,
            -8.948 8.728 -3.050,
            -8.502 9.163 -3.050,
            -8.035 9.576 -3.050,
            -5.978 10.978 -3.050,
            -7.548 9.964 -3.050,
            -7.042 10.328 -3.050,
            -6.518 10.666 -3.050,
            -4.855 11.518 -3.050,
            -5.424 11.262 -3.050,
            -3.084 12.113 -3.050,
            -4.275 11.746 -3.050,
            -3.684 11.945 -3.050,
            -1.863 12.360 -3.050,
            -2.477 12.252 -3.050,
            -0.623 12.484 -3.050,
            -1.245 12.438 -3.050,
            -0.625 12.523 -0.942,
            -0.625 -12.523 -0.942,
            -8.661 8.563 -0.692,
            -8.529 9.192 -0.942,
            -8.976 8.755 -0.942,
            -9.401 8.297 -0.942,
            -10.001 6.463 -0.511,
            -10.181 7.319 -0.942,
            -10.533 6.803 -0.942,
            -10.859 6.269 -0.942,
            -7.281 9.424 -0.512,
            -7.063 10.360 -0.942,
            -7.571 9.995 -0.942,
            -8.060 9.605 -0.942,
            -11.295 4.396 -0.652,
            -11.429 5.157 -0.942,
            -11.672 4.581 -0.942,
            -11.886 3.993 -0.942,
            -8.661 7.315 -0.149,
            -9.803 7.818 -0.942,
            -5.866 10.261 -0.453,
            -5.440 11.297 -0.942,
            -5.997 11.012 -0.942,
            -6.538 10.699 -0.942,
            -10.001 5.207 -0.111,
            -11.158 5.720 -0.942,
            -7.281 8.162 0.091,
            -4.424 11.061 -0.514,
            -3.696 11.982 -0.942,
            -4.289 11.783 -0.942,
            -4.870 11.554 -0.942,
            -11.295 3.155 -0.394,
            -12.070 3.396 -0.942,
            -12.224 2.790 -0.942,
            -8.661 6.032 0.309,
            -5.866 8.992 0.207,
            -2.961 11.814 -0.692,
            -2.485 12.290 -0.942,
            -3.094 12.151 -0.942,
            -10.001 3.927 0.202,
            -7.281 6.861 0.605,
            -4.424 9.794 0.200,
            -11.295 1.899 -0.220,
            -12.348 2.177 -0.942,
            -12.441 1.559 -0.942,
            -8.661 4.721 0.677,
            -5.866 7.681 0.778,
            -2.961 10.558 0.074,
            -10.001 2.628 0.426,
            -7.281 5.527 1.030,
            -4.424 8.482 0.826,
            -11.295 0.634 -0.134,
            -12.504 0.937 -0.942,
            -12.535 0.313 -0.942,
            -12.535 -0.313 -0.942,
            -1.484 11.272 -0.168,
            -1.248 12.476 -0.942,
            -1.869 12.399 -0.942,
            -8.661 3.388 0.955,
            -5.866 6.334 1.258,
            -2.961 9.252 0.753,
            -10.001 1.317 0.561,
            -7.281 4.168 1.362,
            -4.424 7.130 1.361,
            -11.295 -0.634 -0.134,
            -12.504 -0.937 -0.942,
            -12.441 -1.559 -0.942,
            -1.484 9.981 0.560,
            -8.661 2.039 1.141,
            -5.866 4.958 1.645,
            -2.961 7.904 1.341,
            -10.001 -0.000 0.607,
            -7.281 2.790 1.600,
            -4.424 5.745 1.802,
            -11.295 -1.899 -0.220,
            -12.348 -2.177 -0.942,
            -12.224 -2.790 -0.942,
            -1.484 8.644 1.198,
            -8.661 0.681 1.234,
            -5.866 3.558 1.936,
            -2.961 6.518 1.835,
            -10.001 -1.317 0.561,
            -7.281 1.398 1.744,
            -4.424 4.332 2.147,
            -11.295 -3.155 -0.394,
            -12.070 -3.396 -0.942,
            -11.886 -3.993 -0.942,
            -1.484 7.266 1.743,
            -8.661 -0.681 1.234,
            -5.866 2.141 2.132,
            -2.961 5.101 2.233,
            -10.001 -2.628 0.426,
            -7.281 -0.000 1.792,
            -4.424 2.899 2.395,
            -11.295 -4.396 -0.652,
            -11.672 -4.581 -0.942,
            -11.429 -5.157 -0.942,
            -1.484 5.854 2.192,
            -8.661 -2.039 1.141,
            -5.866 0.715 2.230,
            -2.961 3.661 2.533,
            -10.001 -3.927 0.202,
            -7.281 -1.398 1.744,
            -4.424 1.453 2.544,
            -1.484 4.415 2.544,
            -8.661 -3.388 0.955,
            -5.866 -0.715 2.230,
            -2.961 2.203 2.734,
            -10.001 -5.207 -0.111,
            -11.158 -5.720 -0.942,
            -10.859 -6.269 -0.942,
            -7.281 -2.790 1.600,
            -4.424 -0.000 2.594,
            -1.484 2.955 2.797,
            -8.661 -4.721 0.677,
            -5.866 -2.141 2.132,
            -2.961 0.736 2.834,
            -10.001 -6.463 -0.511,
            -10.533 -6.803 -0.942,
            -10.181 -7.319 -0.942,
            -7.281 -4.168 1.362,
            -4.424 -1.453 2.544,
            -1.484 1.481 2.948,
            -8.661 -6.032 0.309,
            -5.866 -3.558 1.936,
            -2.961 -0.736 2.834,
            -7.281 -5.527 1.030,
            -4.424 -2.899 2.395,
            -1.484 -0.000 2.999,
            -8.661 -7.315 -0.149,
            -9.803 -7.818 -0.942,
            -9.401 -8.297 -0.942,
            -5.866 -4.958 1.645,
            -2.961 -2.203 2.734,
            -7.281 -6.861 0.605,
            -4.424 -4.332 2.147,
            -1.484 -1.481 2.948,
            -8.661 -8.563 -0.692,
            -8.976 -8.755 -0.942,
            -8.529 -9.192 -0.942,
            -5.866 -6.334 1.258,
            -2.961 -3.661 2.533,
            -7.281 -8.162 0.091,
            -4.424 -5.745 1.802,
            -1.484 -2.955 2.797,
            -5.866 -7.681 0.778,
            -2.961 -5.101 2.233,
            -7.281 -9.424 -0.512,
            -8.060 -9.605 -0.942,
            -7.571 -9.995 -0.942,
            -7.063 -10.360 -0.942,
            -4.424 -7.130 1.361,
            -1.484 -4.415 2.544,
            -5.866 -8.992 0.207,
            -2.961 -6.518 1.835,
            -4.424 -8.482 0.826,
            -1.484 -5.854 2.192,
            -5.866 -10.261 -0.453,
            -6.538 -10.699 -0.942,
            -5.997 -11.012 -0.942,
            -5.440 -11.297 -0.942,
            -2.961 -7.904 1.341,
            -4.424 -9.794 0.200,
            -1.484 -7.266 1.743,
            -2.961 -9.252 0.753,
            -4.424 -11.061 -0.514,
            -4.870 -11.554 -0.942,
            -4.289 -11.783 -0.942,
            -3.696 -11.982 -0.942,
            -1.484 -8.644 1.198,
            -2.961 -10.558 0.074,
            -1.484 -9.981 0.560,
            -2.961 -11.814 -0.692,
            -3.094 -12.151 -0.942,
            -2.485 -12.290 -0.942,
            -1.484 -11.272 -0.168,
            -1.869 -12.399 -0.942,
            -1.248 -12.476 -0.942,
            -0.633 -12.684 -2.850,
            -0.633 -12.684 -1.257,
            -1.265 -12.637 -2.850,
            -1.265 -12.637 -1.257,
            -1.893 -12.558 -2.850,
            -1.893 -12.558 -1.257,
            -2.516 -12.448 -2.850,
            -2.516 -12.448 -1.257,
            -3.134 -12.307 -2.850,
            -3.134 -12.307 -1.257,
            -3.743 -12.136 -2.850,
            -3.743 -12.136 -1.257,
            -4.344 -11.934 -2.850,
            -4.344 -11.934 -1.257,
            -4.933 -11.703 -2.850,
            -4.933 -11.703 -1.257,
            -5.510 -11.442 -2.850,
            -5.510 -11.442 -1.257,
            -6.074 -11.153 -2.850,
            -6.074 -11.153 -1.257,
            -6.622 -10.837 -2.850,
            -6.622 -10.837 -1.257,
            -7.154 -10.493 -2.850,
            -7.154 -10.493 -1.257,
            -7.668 -10.124 -2.850,
            -7.668 -10.124 -1.257,
            -8.163 -9.729 -2.850,
            -8.163 -9.729 -1.257,
            -8.638 -9.310 -2.850,
            -8.638 -9.310 -1.257,
            -9.092 -8.868 -2.850,
            -9.092 -8.868 -1.257,
            -9.522 -8.403 -2.850,
            -9.522 -8.403 -1.257,
            -9.929 -7.918 -1.257,
            -9.929 -7.918 -2.850,
            -10.312 -7.414 -2.850,
            -10.312 -7.414 -1.257,
            -10.668 -6.890 -1.257,
            -10.668 -6.890 -2.850,
            -10.999 -6.350 -2.850,
            -10.999 -6.350 -1.257,
            -11.301 -5.794 -1.257,
            -11.301 -5.794 -2.850,
            -11.576 -5.223 -2.850,
            -11.576 -5.223 -1.257,
            -11.822 -4.640 -1.257,
            -11.822 -4.640 -2.850,
            -12.039 -4.045 -2.850,
            -12.039 -4.045 -1.257,
            -12.225 -3.440 -2.850,
            -12.225 -3.440 -1.257,
            -12.382 -2.826 -2.850,
            -12.382 -2.826 -1.257,
            -12.507 -2.205 -2.850,
            -12.507 -2.205 -1.257,
            -12.601 -1.579 -2.850,
            -12.601 -1.579 -1.257,
            -12.664 -0.949 -1.257,
            -12.664 -0.949 -2.850,
            -12.696 -0.317 -1.257,
            -12.696 -0.317 -2.850,
            -12.696 0.317 -2.850,
            -12.696 0.317 -1.257,
            -12.664 0.949 -1.257,
            -12.664 0.949 -2.850,
            -12.601 1.579 -2.850,
            -12.601 1.579 -1.257,
            -12.507 2.205 -2.850,
            -12.507 2.205 -1.257,
            -12.382 2.826 -2.850,
            -12.382 2.826 -1.257,
            -12.225 3.440 -1.257,
            -12.225 3.440 -2.850,
            -12.039 4.045 -2.850,
            -12.039 4.045 -1.257,
            -11.822 4.640 -1.257,
            -11.822 4.640 -2.850,
            -11.576 5.223 -1.257,
            -11.576 5.223 -2.850,
            -11.301 5.794 -2.850,
            -11.301 5.794 -1.257,
            -10.999 6.350 -2.850,
            -10.999 6.350 -1.257,
            -10.668 6.890 -1.257,
            -10.668 6.890 -2.850,
            -10.312 7.414 -2.850,
            -10.312 7.414 -1.257,
            -9.929 7.918 -1.257,
            -9.929 7.918 -2.850,
            -9.522 8.403 -1.257,
            -9.522 8.403 -2.850,
            -9.092 8.868 -2.850,
            -9.092 8.868 -1.257,
            -8.638 9.310 -2.850,
            -8.638 9.310 -1.257,
            -8.163 9.729 -2.850,
            -8.163 9.729 -1.257,
            -7.668 10.124 -2.850,
            -7.668 10.124 -1.257,
            -7.154 10.493 -2.850,
            -7.154 10.493 -1.257,
            -6.622 10.837 -1.257,
            -6.622 10.837 -2.850,
            -6.074 11.153 -2.850,
            -6.074 11.153 -1.257,
            -5.510 11.442 -2.850,
            -5.510 11.442 -1.257,
            -4.933 11.703 -2.850,
            -4.933 11.703 -1.257,
            -4.344 11.934 -2.850,
            -4.344 11.934 -1.257,
            -3.743 12.136 -2.850,
            -3.743 12.136 -1.257,
            -3.134 12.307 -1.257,
            -3.134 12.307 -2.850,
            -2.516 12.448 -2.850,
            -2.516 12.448 -1.257,
            -1.893 12.558 -1.257,
            -1.893 12.558 -2.850,
            -1.265 12.637 -2.850,
            -1.265 12.637 -1.257,
            -0.633 12.684 -2.850,
            -0.633 12.684 -1.257
          ]
        }
        coordIndex [
          0, 1, 2, -1,
          3, 1, 0, -1,
          4, 3, 0, -1,
          5, 3, 4, -1,
          6, 5, 4, -1,
          7, 5, 6, -1,
          8, 7, 6, -1,
          9, 7, 8, -1,
          10, 9, 8, -1,
          11, 9, 10, -1,
          12, 11, 10, -1,
          13, 11, 12, -1,
          14, 13, 12, -1,
          15, 13, 14, -1,
          16, 15, 14, -1,
          17, 15, 16, -1,
          18, 17, 16, -1,
          19, 17, 18, -1,
          20, 19, 18, -1,
          21, 19, 20, -1,
          22, 21, 20, -1,
          23, 21, 22, -1,
          24, 23, 22, -1,
          25, 23, 24, -1,
          26, 25, 24, -1,
          27, 25, 26, -1,
          28, 27, 26, -1,
          29, 27, 28, -1,
          30, 29, 28, -1,
          31, 29, 30, -1,
          32, 31, 30, -1,
          33, 31, 32, -1,
          34, 33, 32, -1,
          35, 33, 34, -1,
          36, 35, 34, -1,
          37, 35, 36, -1,
          38, 37, 36, -1,
          39, 37, 38, -1,
          40, 39, 38, -1,
          41, 39, 40, -1,
          42, 41, 40, -1,
          43, 41, 42, -1,
          44, 43, 42, -1,
          45, 43, 44, -1,
          46, 45, 44, -1,
          47, 45, 46, -1,
          48, 47, 46, -1,
          49, 47, 48, -1,
          50, 49, 48, -1,
          51, 49, 50, -1,
          52, 51, 50, -1,
          53, 51, 52, -1,
          54, 53, 52, -1,
          55, 53, 54, -1,
          56, 55, 54, -1,
          57, 55, 56, -1,
          58, 57, 56, -1,
          59, 57, 58, -1,
          60, 59, 58, -1,
          61, 59, 60, -1,
          62, 61, 60, -1,
          63, 61, 62, -1,
          64, 63, 62, -1,
          65, 63, 64, -1,
          66, 65, 64, -1,
          67, 65, 66, -1,
          68, 67, 66, -1,
          69, 67, 68, -1,
          70, 69, 68, -1,
          71, 69, 70, -1,
          72, 70, 73, -1,
          72, 71, 70, -1,
          74, 72, 73, -1,
          75, 72, 74, -1,
          76, 75, 74, -1,
          77, 75, 76, -1,
          78, 76, 79, -1,
          78, 77, 76, -1,
          80, 78, 79, -1,
          81, 78, 80, -1,
          82, 81, 80, -1,
          83, 81, 82, -1,
          84, 83, 82, -1,
          85, 83, 84, -1,
          86, 85, 84, -1,
          87, 85, 86, -1,
          88, 87, 86, -1,
          89, 87, 88, -1,
          90, 89, 88, -1,
          91, 89, 90, -1,
          92, 91, 90, -1,
          93, 91, 92, -1,
          94, 93, 92, -1,
          95, 93, 94, -1,
          96, 95, 94, -1,
          97, 95, 96, -1,
          98, 97, 96, -1,
          99, 97, 98, -1,
          100, 99, 98, -1,
          101, 99, 100, -1,
          102, 101, 100, -1,
          103, 101, 102, -1,
          104, 103, 102, -1,
          105, 103, 104, -1,
          106, 105, 104, -1,
          107, 105, 106, -1,
          108, 107, 106, -1,
          109, 107, 108, -1,
          110, 108, 111, -1,
          110, 109, 108, -1,
          112, 110, 111, -1,
          113, 110, 112, -1,
          114, 113, 112, -1,
          115, 113, 114, -1,
          116, 114, 117, -1,
          116, 115, 114, -1,
          118, 116, 117, -1,
          119, 116, 118, -1,
          120, 118, 121, -1,
          120, 119, 118, -1,
          122, 121, 123, -1,
          122, 120, 121, -1,
          124, 122, 123, -1,
          125, 122, 124, -1,
          126, 124, 127, -1,
          126, 125, 124, -1,
          128, 129, 130, -1,
          131, 129, 128, -1,
          132, 131, 128, -1,
          133, 131, 132, -1,
          134, 133, 132, -1,
          135, 133, 134, -1,
          136, 135, 134, -1,
          137, 135, 136, -1,
          138, 137, 136, -1,
          139, 137, 138, -1,
          140, 139, 138, -1,
          141, 139, 140, -1,
          142, 141, 140, -1,
          143, 141, 142, -1,
          144, 143, 142, -1,
          145, 143, 144, -1,
          146, 145, 144, -1,
          147, 145, 146, -1,
          148, 147, 146, -1,
          149, 147, 148, -1,
          150, 149, 148, -1,
          151, 149, 150, -1,
          152, 151, 150, -1,
          153, 151, 152, -1,
          154, 153, 152, -1,
          155, 153, 154, -1,
          156, 155, 154, -1,
          157, 155, 156, -1,
          158, 157, 156, -1,
          159, 157, 158, -1,
          160, 159, 158, -1,
          161, 159, 160, -1,
          162, 161, 160, -1,
          163, 161, 162, -1,
          164, 163, 162, -1,
          165, 163, 164, -1,
          166, 165, 164, -1,
          167, 165, 166, -1,
          168, 167, 166, -1,
          169, 167, 168, -1,
          170, 169, 168, -1,
          171, 169, 170, -1,
          172, 171, 170, -1,
          173, 171, 172, -1,
          174, 173, 172, -1,
          175, 173, 174, -1,
          176, 175, 174, -1,
          177, 175, 176, -1,
          178, 177, 176, -1,
          178, 176, 179, -1,
          180, 178, 179, -1,
          181, 178, 180, -1,
          182, 181, 180, -1,
          183, 181, 182, -1,
          184, 183, 182, -1,
          185, 183, 184, -1,
          186, 185, 184, -1,
          187, 185, 186, -1,
          188, 187, 186, -1,
          189, 187, 188, -1,
          190, 188, 191, -1,
          190, 189, 188, -1,
          192, 190, 191, -1,
          193, 190, 192, -1,
          194, 193, 192, -1,
          195, 193, 194, -1,
          196, 195, 194, -1,
          197, 195, 196, -1,
          198, 197, 196, -1,
          199, 197, 198, -1,
          200, 198, 201, -1,
          200, 199, 198, -1,
          202, 200, 201, -1,
          203, 200, 202, -1,
          204, 202, 205, -1,
          204, 203, 202, -1,
          206, 205, 207, -1,
          206, 204, 205, -1,
          208, 207, 209, -1,
          208, 206, 207, -1,
          210, 208, 209, -1,
          211, 208, 210, -1,
          212, 210, 213, -1,
          212, 211, 210, -1,
          214, 213, 215, -1,
          214, 212, 213, -1,
          216, 214, 215, -1,
          217, 214, 216, -1,
          218, 217, 216, -1,
          219, 217, 218, -1,
          220, 219, 218, -1,
          220, 218, 221, -1,
          222, 220, 221, -1,
          223, 220, 222, -1,
          224, 222, 225, -1,
          224, 223, 222, -1,
          226, 224, 225, -1,
          227, 224, 226, -1,
          228, 226, 229, -1,
          228, 227, 226, -1,
          230, 228, 229, -1,
          231, 228, 230, -1,
          232, 231, 230, -1,
          233, 231, 232, -1,
          234, 232, 235, -1,
          234, 233, 232, -1,
          236, 234, 235, -1,
          237, 234, 236, -1,
          238, 236, 239, -1,
          238, 237, 236, -1,
          240, 238, 239, -1,
          241, 238, 240, -1,
          242, 241, 240, -1,
          243, 241, 242, -1,
          244, 243, 242, -1,
          245, 243, 244, -1,
          246, 245, 244, -1,
          247, 245, 246, -1,
          248, 246, 249, -1,
          248, 247, 246, -1,
          250, 248, 249, -1,
          251, 248, 250, -1,
          252, 251, 250, -1,
          253, 251, 252, -1,
          254, 253, 252, -1,
          255, 253, 254, -1,
          253, 1, 3, -1,
          253, 255, 1, -1,
          251, 3, 5, -1,
          251, 253, 3, -1,
          248, 5, 7, -1,
          248, 251, 5, -1,
          247, 7, 9, -1,
          247, 248, 7, -1,
          245, 9, 11, -1,
          245, 247, 9, -1,
          243, 11, 13, -1,
          243, 245, 11, -1,
          241, 13, 15, -1,
          241, 243, 13, -1,
          238, 15, 17, -1,
          238, 241, 15, -1,
          237, 17, 19, -1,
          237, 238, 17, -1,
          234, 19, 21, -1,
          234, 237, 19, -1,
          233, 21, 23, -1,
          233, 234, 21, -1,
          231, 23, 25, -1,
          231, 233, 23, -1,
          228, 25, 27, -1,
          228, 231, 25, -1,
          227, 27, 29, -1,
          227, 228, 27, -1,
          224, 29, 31, -1,
          224, 227, 29, -1,
          223, 31, 33, -1,
          223, 224, 31, -1,
          220, 33, 35, -1,
          220, 223, 33, -1,
          219, 35, 37, -1,
          219, 220, 35, -1,
          217, 219, 37, -1,
          217, 37, 39, -1,
          214, 217, 39, -1,
          214, 39, 41, -1,
          212, 214, 41, -1,
          212, 41, 43, -1,
          211, 212, 43, -1,
          211, 43, 45, -1,
          208, 45, 47, -1,
          208, 211, 45, -1,
          206, 47, 49, -1,
          206, 208, 47, -1,
          204, 49, 51, -1,
          204, 206, 49, -1,
          203, 51, 53, -1,
          203, 204, 51, -1,
          200, 53, 55, -1,
          200, 203, 53, -1,
          199, 55, 57, -1,
          199, 200, 55, -1,
          197, 57, 59, -1,
          197, 199, 57, -1,
          195, 59, 61, -1,
          195, 197, 59, -1,
          193, 61, 63, -1,
          193, 195, 61, -1,
          190, 63, 65, -1,
          190, 193, 63, -1,
          189, 65, 67, -1,
          189, 190, 65, -1,
          187, 67, 69, -1,
          187, 189, 67, -1,
          185, 69, 71, -1,
          185, 187, 69, -1,
          183, 71, 72, -1,
          183, 185, 71, -1,
          181, 72, 75, -1,
          181, 183, 72, -1,
          178, 75, 77, -1,
          178, 181, 75, -1,
          177, 77, 78, -1,
          177, 178, 77, -1,
          175, 78, 81, -1,
          175, 177, 78, -1,
          173, 81, 83, -1,
          173, 175, 81, -1,
          171, 83, 85, -1,
          171, 173, 83, -1,
          169, 171, 85, -1,
          169, 85, 87, -1,
          167, 169, 87, -1,
          167, 87, 89, -1,
          165, 167, 89, -1,
          165, 89, 91, -1,
          163, 165, 91, -1,
          163, 91, 93, -1,
          161, 163, 93, -1,
          161, 93, 95, -1,
          159, 161, 95, -1,
          159, 95, 97, -1,
          157, 159, 97, -1,
          157, 97, 99, -1,
          155, 157, 99, -1,
          155, 99, 101, -1,
          153, 155, 101, -1,
          153, 101, 103, -1,
          151, 153, 103, -1,
          151, 103, 105, -1,
          149, 151, 105, -1,
          149, 105, 107, -1,
          147, 149, 107, -1,
          147, 107, 109, -1,
          145, 147, 109, -1,
          145, 109, 110, -1,
          143, 110, 113, -1,
          143, 145, 110, -1,
          141, 113, 115, -1,
          141, 143, 113, -1,
          139, 115, 116, -1,
          139, 141, 115, -1,
          137, 116, 119, -1,
          137, 139, 116, -1,
          135, 119, 120, -1,
          135, 137, 119, -1,
          133, 120, 122, -1,
          133, 135, 120, -1,
          131, 122, 125, -1,
          131, 133, 122, -1,
          129, 125, 126, -1,
          129, 131, 125, -1,
          256, 0, 2, -1,
          124, 257, 127, -1,
          258, 8, 6, -1,
          258, 6, 4, -1,
          258, 4, 0, -1,
          258, 0, 256, -1,
          259, 260, 261, -1,
          259, 256, 260, -1,
          259, 258, 256, -1,
          262, 8, 258, -1,
          262, 258, 259, -1,
          262, 14, 12, -1,
          262, 12, 10, -1,
          262, 10, 8, -1,
          263, 261, 264, -1,
          263, 259, 261, -1,
          265, 259, 263, -1,
          265, 262, 259, -1,
          266, 267, 268, -1,
          266, 264, 267, -1,
          266, 263, 264, -1,
          269, 262, 265, -1,
          269, 14, 262, -1,
          269, 18, 16, -1,
          269, 16, 14, -1,
          270, 263, 266, -1,
          270, 265, 263, -1,
          271, 18, 269, -1,
          271, 22, 20, -1,
          271, 20, 18, -1,
          272, 268, 273, -1,
          272, 266, 268, -1,
          274, 265, 270, -1,
          274, 269, 265, -1,
          275, 270, 266, -1,
          275, 266, 272, -1,
          276, 271, 269, -1,
          276, 269, 274, -1,
          276, 24, 22, -1,
          276, 22, 271, -1,
          277, 278, 279, -1,
          277, 273, 278, -1,
          277, 272, 273, -1,
          280, 274, 270, -1,
          280, 270, 275, -1,
          281, 24, 276, -1,
          281, 26, 24, -1,
          282, 272, 277, -1,
          282, 275, 272, -1,
          283, 276, 274, -1,
          283, 274, 280, -1,
          284, 279, 285, -1,
          284, 277, 279, -1,
          286, 280, 275, -1,
          286, 275, 282, -1,
          287, 26, 281, -1,
          287, 281, 276, -1,
          287, 30, 28, -1,
          287, 28, 26, -1,
          287, 276, 283, -1,
          288, 282, 277, -1,
          288, 277, 284, -1,
          289, 280, 286, -1,
          289, 283, 280, -1,
          290, 291, 292, -1,
          290, 285, 291, -1,
          290, 284, 285, -1,
          293, 286, 282, -1,
          293, 282, 288, -1,
          294, 287, 283, -1,
          294, 283, 289, -1,
          295, 288, 284, -1,
          295, 284, 290, -1,
          296, 289, 286, -1,
          296, 286, 293, -1,
          297, 287, 294, -1,
          297, 30, 287, -1,
          297, 36, 34, -1,
          297, 34, 32, -1,
          297, 32, 30, -1,
          298, 292, 299, -1,
          298, 290, 292, -1,
          300, 293, 288, -1,
          300, 288, 295, -1,
          301, 294, 289, -1,
          301, 289, 296, -1,
          302, 295, 290, -1,
          302, 290, 298, -1,
          303, 293, 300, -1,
          303, 296, 293, -1,
          304, 297, 294, -1,
          304, 294, 301, -1,
          305, 299, 306, -1,
          305, 298, 299, -1,
          307, 295, 302, -1,
          307, 300, 295, -1,
          308, 301, 296, -1,
          308, 296, 303, -1,
          309, 297, 304, -1,
          309, 40, 38, -1,
          309, 38, 36, -1,
          309, 36, 297, -1,
          310, 298, 305, -1,
          310, 302, 298, -1,
          311, 303, 300, -1,
          311, 300, 307, -1,
          312, 304, 301, -1,
          312, 301, 308, -1,
          313, 306, 314, -1,
          313, 314, 315, -1,
          313, 305, 306, -1,
          316, 307, 302, -1,
          316, 302, 310, -1,
          317, 308, 303, -1,
          317, 303, 311, -1,
          318, 44, 42, -1,
          318, 42, 40, -1,
          318, 304, 312, -1,
          318, 309, 304, -1,
          318, 40, 309, -1,
          319, 310, 305, -1,
          319, 305, 313, -1,
          320, 311, 307, -1,
          320, 307, 316, -1,
          321, 312, 308, -1,
          321, 308, 317, -1,
          322, 315, 323, -1,
          322, 313, 315, -1,
          324, 310, 319, -1,
          324, 316, 310, -1,
          325, 317, 311, -1,
          325, 311, 320, -1,
          326, 312, 321, -1,
          326, 318, 312, -1,
          327, 319, 313, -1,
          327, 313, 322, -1,
          328, 320, 316, -1,
          328, 316, 324, -1,
          329, 321, 317, -1,
          329, 317, 325, -1,
          330, 323, 331, -1,
          330, 331, 332, -1,
          330, 322, 323, -1,
          333, 318, 326, -1,
          333, 44, 318, -1,
          333, 48, 46, -1,
          333, 46, 44, -1,
          334, 319, 327, -1,
          334, 324, 319, -1,
          335, 320, 328, -1,
          335, 325, 320, -1,
          336, 321, 329, -1,
          336, 326, 321, -1,
          337, 327, 322, -1,
          337, 322, 330, -1,
          338, 328, 324, -1,
          338, 324, 334, -1,
          339, 325, 335, -1,
          339, 329, 325, -1,
          340, 330, 332, -1,
          340, 332, 341, -1,
          342, 333, 326, -1,
          342, 326, 336, -1,
          342, 52, 50, -1,
          342, 50, 48, -1,
          342, 48, 333, -1,
          343, 334, 327, -1,
          343, 327, 337, -1,
          344, 335, 328, -1,
          344, 328, 338, -1,
          345, 329, 339, -1,
          345, 336, 329, -1,
          346, 330, 340, -1,
          346, 337, 330, -1,
          347, 334, 343, -1,
          347, 338, 334, -1,
          348, 335, 344, -1,
          348, 339, 335, -1,
          349, 340, 341, -1,
          349, 341, 350, -1,
          349, 350, 351, -1,
          352, 56, 54, -1,
          352, 54, 52, -1,
          352, 52, 342, -1,
          352, 336, 345, -1,
          352, 342, 336, -1,
          353, 343, 337, -1,
          353, 337, 346, -1,
          354, 338, 347, -1,
          354, 344, 338, -1,
          355, 345, 339, -1,
          355, 339, 348, -1,
          356, 340, 349, -1,
          356, 346, 340, -1,
          357, 343, 353, -1,
          357, 347, 343, -1,
          358, 348, 344, -1,
          358, 344, 354, -1,
          359, 349, 351, -1,
          359, 351, 360, -1,
          361, 60, 58, -1,
          361, 58, 56, -1,
          361, 56, 352, -1,
          361, 345, 355, -1,
          361, 352, 345, -1,
          362, 353, 346, -1,
          362, 346, 356, -1,
          363, 347, 357, -1,
          363, 354, 347, -1,
          364, 355, 348, -1,
          364, 348, 358, -1,
          365, 349, 359, -1,
          365, 356, 349, -1,
          366, 353, 362, -1,
          366, 357, 353, -1,
          367, 354, 363, -1,
          367, 358, 354, -1,
          368, 360, 369, -1,
          368, 369, 257, -1,
          368, 359, 360, -1,
          370, 361, 355, -1,
          370, 66, 64, -1,
          370, 64, 62, -1,
          370, 62, 60, -1,
          370, 60, 361, -1,
          370, 355, 364, -1,
          371, 356, 365, -1,
          371, 362, 356, -1,
          372, 363, 357, -1,
          372, 357, 366, -1,
          373, 358, 367, -1,
          373, 364, 358, -1,
          374, 359, 368, -1,
          374, 365, 359, -1,
          375, 362, 371, -1,
          375, 366, 362, -1,
          376, 363, 372, -1,
          376, 367, 363, -1,
          377, 368, 257, -1,
          377, 124, 123, -1,
          377, 123, 121, -1,
          377, 121, 118, -1,
          377, 257, 124, -1,
          378, 370, 364, -1,
          378, 364, 373, -1,
          378, 70, 68, -1,
          378, 68, 66, -1,
          378, 66, 370, -1,
          379, 365, 374, -1,
          379, 371, 365, -1,
          380, 372, 366, -1,
          380, 366, 375, -1,
          381, 373, 367, -1,
          381, 367, 376, -1,
          382, 374, 368, -1,
          382, 118, 117, -1,
          382, 117, 114, -1,
          382, 114, 112, -1,
          382, 368, 377, -1,
          382, 377, 118, -1,
          383, 371, 379, -1,
          383, 375, 371, -1,
          384, 376, 372, -1,
          384, 372, 380, -1,
          385, 378, 373, -1,
          385, 74, 73, -1,
          385, 73, 70, -1,
          385, 373, 381, -1,
          385, 70, 378, -1,
          386, 112, 111, -1,
          386, 111, 108, -1,
          386, 379, 374, -1,
          386, 382, 112, -1,
          386, 374, 382, -1,
          387, 380, 375, -1,
          387, 375, 383, -1,
          388, 376, 384, -1,
          388, 381, 376, -1,
          389, 104, 102, -1,
          389, 383, 379, -1,
          389, 379, 386, -1,
          390, 380, 387, -1,
          390, 384, 380, -1,
          391, 74, 385, -1,
          391, 79, 76, -1,
          391, 76, 74, -1,
          391, 385, 381, -1,
          391, 381, 388, -1,
          392, 100, 98, -1,
          392, 98, 96, -1,
          392, 387, 383, -1,
          392, 383, 389, -1,
          393, 86, 84, -1,
          393, 84, 82, -1,
          393, 384, 390, -1,
          393, 388, 384, -1,
          394, 386, 108, -1,
          394, 108, 106, -1,
          394, 106, 104, -1,
          394, 389, 386, -1,
          394, 104, 389, -1,
          395, 392, 96, -1,
          395, 96, 94, -1,
          395, 94, 92, -1,
          395, 92, 90, -1,
          395, 387, 392, -1,
          395, 390, 387, -1,
          396, 79, 391, -1,
          396, 388, 393, -1,
          396, 393, 82, -1,
          396, 82, 80, -1,
          396, 80, 79, -1,
          396, 391, 388, -1,
          397, 392, 389, -1,
          397, 102, 100, -1,
          397, 389, 102, -1,
          397, 100, 392, -1,
          398, 393, 390, -1,
          398, 395, 90, -1,
          398, 390, 395, -1,
          398, 90, 88, -1,
          398, 88, 86, -1,
          398, 86, 393, -1,
          399, 400, 401, -1,
          402, 403, 404, -1,
          402, 404, 405, -1,
          402, 405, 400, -1,
          406, 399, 407, -1,
          406, 400, 399, -1,
          408, 406, 409, -1,
          408, 400, 406, -1,
          410, 411, 412, -1,
          410, 412, 402, -1,
          413, 402, 400, -1,
          413, 400, 408, -1,
          414, 410, 402, -1,
          415, 416, 414, -1,
          415, 414, 402, -1,
          417, 418, 419, -1,
          420, 421, 422, -1,
          420, 422, 423, -1,
          420, 423, 424, -1,
          420, 424, 415, -1,
          425, 426, 427, -1,
          128, 130, 420, -1,
          428, 426, 425, -1,
          429, 426, 428, -1,
          134, 132, 128, -1,
          134, 128, 420, -1,
          430, 431, 418, -1,
          430, 417, 426, -1,
          430, 418, 417, -1,
          430, 426, 429, -1,
          432, 431, 430, -1,
          138, 134, 420, -1,
          138, 136, 134, -1,
          138, 413, 433, -1,
          138, 433, 434, -1,
          138, 434, 431, -1,
          138, 402, 413, -1,
          138, 415, 402, -1,
          138, 420, 415, -1,
          142, 140, 138, -1,
          435, 431, 432, -1,
          435, 432, 436, -1,
          435, 436, 437, -1,
          144, 142, 138, -1,
          148, 146, 144, -1,
          438, 435, 439, -1,
          438, 439, 440, -1,
          441, 435, 438, -1,
          441, 438, 442, -1,
          156, 144, 138, -1,
          156, 154, 152, -1,
          156, 152, 150, -1,
          156, 150, 148, -1,
          156, 148, 144, -1,
          443, 441, 444, -1,
          445, 441, 443, -1,
          160, 158, 156, -1,
          446, 441, 445, -1,
          447, 435, 441, -1,
          447, 441, 446, -1,
          164, 162, 160, -1,
          168, 166, 164, -1,
          170, 168, 164, -1,
          448, 447, 449, -1,
          448, 449, 450, -1,
          448, 450, 451, -1,
          448, 435, 447, -1,
          172, 164, 160, -1,
          172, 170, 164, -1,
          452, 448, 453, -1,
          176, 174, 172, -1,
          179, 172, 160, -1,
          179, 160, 156, -1,
          179, 176, 172, -1,
          180, 179, 156, -1,
          454, 452, 455, -1,
          454, 455, 456, -1,
          182, 138, 431, -1,
          182, 431, 435, -1,
          182, 156, 138, -1,
          182, 180, 156, -1,
          457, 454, 458, -1,
          459, 454, 457, -1,
          459, 457, 460, -1,
          459, 452, 454, -1,
          191, 188, 186, -1,
          191, 186, 184, -1,
          194, 192, 191, -1,
          250, 459, 254, -1,
          250, 254, 252, -1,
          249, 459, 250, -1,
          198, 196, 194, -1,
          246, 459, 249, -1,
          202, 198, 194, -1,
          202, 201, 198, -1,
          242, 459, 246, -1,
          242, 246, 244, -1,
          205, 202, 194, -1,
          205, 191, 184, -1,
          205, 452, 459, -1,
          205, 194, 191, -1,
          205, 435, 448, -1,
          205, 448, 452, -1,
          205, 182, 435, -1,
          205, 184, 182, -1,
          239, 459, 242, -1,
          239, 242, 240, -1,
          210, 209, 207, -1,
          210, 207, 205, -1,
          235, 239, 236, -1,
          213, 210, 205, -1,
          230, 459, 239, -1,
          230, 239, 235, -1,
          230, 235, 232, -1,
          216, 213, 205, -1,
          216, 215, 213, -1,
          221, 218, 216, -1,
          225, 229, 226, -1,
          222, 205, 459, -1,
          222, 216, 205, -1,
          222, 459, 230, -1,
          222, 221, 216, -1,
          222, 230, 229, -1,
          222, 229, 225, -1,
          256, 2, 461, -1,
          127, 257, 462, -1,
          463, 464, 465, -1,
          463, 465, 466, -1,
          467, 468, 469, -1,
          467, 469, 470, -1,
          471, 472, 473, -1,
          471, 473, 474, -1,
          471, 474, 464, -1,
          471, 464, 463, -1,
          475, 476, 477, -1,
          475, 477, 478, -1,
          479, 466, 480, -1,
          479, 480, 468, -1,
          479, 463, 466, -1,
          479, 468, 467, -1,
          481, 472, 471, -1,
          481, 482, 483, -1,
          481, 483, 484, -1,
          481, 484, 472, -1,
          485, 476, 475, -1,
          485, 470, 486, -1,
          485, 486, 476, -1,
          485, 467, 470, -1,
          487, 463, 479, -1,
          487, 471, 463, -1,
          488, 489, 490, -1,
          488, 490, 491, -1,
          488, 482, 481, -1,
          488, 491, 482, -1,
          492, 475, 478, -1,
          492, 478, 493, -1,
          492, 493, 494, -1,
          495, 479, 467, -1,
          495, 467, 485, -1,
          496, 481, 471, -1,
          496, 471, 487, -1,
          497, 489, 488, -1,
          497, 498, 499, -1,
          497, 499, 489, -1,
          500, 475, 492, -1,
          500, 485, 475, -1,
          501, 487, 479, -1,
          501, 479, 495, -1,
          502, 481, 496, -1,
          502, 488, 481, -1,
          503, 494, 504, -1,
          503, 504, 505, -1,
          503, 492, 494, -1,
          506, 485, 500, -1,
          506, 495, 485, -1,
          507, 496, 487, -1,
          507, 487, 501, -1,
          508, 488, 502, -1,
          508, 497, 488, -1,
          509, 500, 492, -1,
          509, 492, 503, -1,
          510, 495, 506, -1,
          510, 501, 495, -1,
          511, 496, 507, -1,
          511, 502, 496, -1,
          512, 503, 505, -1,
          512, 505, 513, -1,
          512, 513, 514, -1,
          512, 514, 515, -1,
          516, 497, 508, -1,
          516, 260, 256, -1,
          516, 461, 517, -1,
          516, 517, 518, -1,
          516, 518, 498, -1,
          516, 498, 497, -1,
          516, 256, 461, -1,
          519, 500, 509, -1,
          519, 506, 500, -1,
          520, 507, 501, -1,
          520, 501, 510, -1,
          521, 508, 502, -1,
          521, 502, 511, -1,
          522, 503, 512, -1,
          522, 509, 503, -1,
          523, 506, 519, -1,
          523, 510, 506, -1,
          524, 511, 507, -1,
          524, 507, 520, -1,
          525, 512, 515, -1,
          525, 515, 526, -1,
          525, 526, 527, -1,
          528, 508, 521, -1,
          528, 264, 261, -1,
          528, 261, 260, -1,
          528, 516, 508, -1,
          528, 260, 516, -1,
          529, 519, 509, -1,
          529, 509, 522, -1,
          530, 520, 510, -1,
          530, 510, 523, -1,
          531, 521, 511, -1,
          531, 511, 524, -1,
          532, 512, 525, -1,
          532, 522, 512, -1,
          533, 523, 519, -1,
          533, 519, 529, -1,
          534, 524, 520, -1,
          534, 520, 530, -1,
          535, 525, 527, -1,
          535, 527, 536, -1,
          535, 536, 537, -1,
          538, 264, 528, -1,
          538, 267, 264, -1,
          538, 528, 521, -1,
          538, 521, 531, -1,
          539, 529, 522, -1,
          539, 522, 532, -1,
          540, 530, 523, -1,
          540, 523, 533, -1,
          541, 531, 524, -1,
          541, 524, 534, -1,
          542, 525, 535, -1,
          542, 532, 525, -1,
          543, 529, 539, -1,
          543, 533, 529, -1,
          544, 534, 530, -1,
          544, 530, 540, -1,
          545, 535, 537, -1,
          545, 537, 546, -1,
          545, 546, 547, -1,
          548, 531, 541, -1,
          548, 268, 267, -1,
          548, 538, 531, -1,
          548, 267, 538, -1,
          549, 532, 542, -1,
          549, 539, 532, -1,
          550, 540, 533, -1,
          550, 533, 543, -1,
          551, 534, 544, -1,
          551, 541, 534, -1,
          552, 542, 535, -1,
          552, 535, 545, -1,
          553, 543, 539, -1,
          553, 539, 549, -1,
          554, 544, 540, -1,
          554, 540, 550, -1,
          555, 545, 547, -1,
          555, 547, 556, -1,
          555, 556, 557, -1,
          558, 268, 548, -1,
          558, 548, 541, -1,
          558, 278, 273, -1,
          558, 273, 268, -1,
          558, 541, 551, -1,
          559, 542, 552, -1,
          559, 549, 542, -1,
          560, 550, 543, -1,
          560, 543, 553, -1,
          561, 544, 554, -1,
          561, 551, 544, -1,
          562, 545, 555, -1,
          562, 552, 545, -1,
          563, 553, 549, -1,
          563, 549, 559, -1,
          564, 550, 560, -1,
          564, 554, 550, -1,
          565, 279, 278, -1,
          565, 278, 558, -1,
          565, 558, 551, -1,
          565, 551, 561, -1,
          566, 559, 552, -1,
          566, 552, 562, -1,
          567, 553, 563, -1,
          567, 560, 553, -1,
          568, 561, 554, -1,
          568, 554, 564, -1,
          569, 562, 555, -1,
          569, 555, 557, -1,
          569, 557, 570, -1,
          569, 570, 571, -1,
          572, 559, 566, -1,
          572, 563, 559, -1,
          573, 564, 560, -1,
          573, 560, 567, -1,
          574, 291, 285, -1,
          574, 285, 279, -1,
          574, 565, 561, -1,
          574, 561, 568, -1,
          574, 279, 565, -1,
          575, 562, 569, -1,
          575, 566, 562, -1,
          576, 563, 572, -1,
          576, 567, 563, -1,
          577, 568, 564, -1,
          577, 564, 573, -1,
          578, 569, 571, -1,
          578, 571, 579, -1,
          578, 579, 580, -1,
          581, 572, 566, -1,
          581, 566, 575, -1,
          582, 573, 567, -1,
          582, 567, 576, -1,
          583, 292, 291, -1,
          583, 291, 574, -1,
          583, 568, 577, -1,
          583, 574, 568, -1,
          584, 575, 569, -1,
          584, 569, 578, -1,
          585, 572, 581, -1,
          585, 576, 572, -1,
          586, 573, 582, -1,
          586, 577, 573, -1,
          587, 575, 584, -1,
          587, 581, 575, -1,
          588, 582, 576, -1,
          588, 576, 585, -1,
          589, 306, 299, -1,
          589, 583, 577, -1,
          589, 299, 292, -1,
          589, 577, 586, -1,
          589, 292, 583, -1,
          590, 584, 578, -1,
          590, 580, 591, -1,
          590, 591, 592, -1,
          590, 578, 580, -1,
          593, 585, 581, -1,
          593, 581, 587, -1,
          594, 582, 588, -1,
          594, 586, 582, -1,
          595, 584, 590, -1,
          595, 587, 584, -1,
          596, 585, 593, -1,
          596, 588, 585, -1,
          597, 314, 306, -1,
          597, 306, 589, -1,
          597, 589, 586, -1,
          597, 586, 594, -1,
          598, 592, 599, -1,
          598, 599, 600, -1,
          598, 590, 592, -1,
          601, 593, 587, -1,
          601, 587, 595, -1,
          602, 594, 588, -1,
          602, 588, 596, -1,
          603, 595, 590, -1,
          603, 590, 598, -1,
          604, 593, 601, -1,
          604, 596, 593, -1,
          605, 315, 314, -1,
          605, 323, 315, -1,
          605, 594, 602, -1,
          605, 597, 594, -1,
          605, 314, 597, -1,
          606, 595, 603, -1,
          606, 601, 595, -1,
          607, 602, 596, -1,
          607, 596, 604, -1,
          608, 598, 600, -1,
          608, 600, 609, -1,
          608, 603, 598, -1,
          608, 609, 610, -1,
          608, 610, 611, -1,
          612, 601, 606, -1,
          612, 604, 601, -1,
          613, 331, 323, -1,
          613, 323, 605, -1,
          613, 605, 602, -1,
          613, 602, 607, -1,
          614, 603, 608, -1,
          614, 606, 603, -1,
          615, 604, 612, -1,
          615, 607, 604, -1,
          616, 612, 606, -1,
          616, 606, 614, -1,
          617, 332, 331, -1,
          617, 331, 613, -1,
          617, 613, 607, -1,
          617, 607, 615, -1,
          618, 614, 608, -1,
          618, 608, 611, -1,
          618, 611, 619, -1,
          618, 619, 620, -1,
          618, 620, 621, -1,
          622, 615, 612, -1,
          622, 612, 616, -1,
          623, 616, 614, -1,
          623, 614, 618, -1,
          624, 341, 332, -1,
          624, 350, 341, -1,
          624, 615, 622, -1,
          624, 332, 617, -1,
          624, 617, 615, -1,
          625, 616, 623, -1,
          625, 622, 616, -1,
          626, 621, 627, -1,
          626, 627, 628, -1,
          626, 623, 618, -1,
          626, 628, 629, -1,
          626, 618, 621, -1,
          630, 622, 625, -1,
          630, 351, 350, -1,
          630, 350, 624, -1,
          630, 624, 622, -1,
          631, 625, 623, -1,
          631, 623, 626, -1,
          632, 360, 351, -1,
          632, 369, 360, -1,
          632, 351, 630, -1,
          632, 625, 631, -1,
          632, 630, 625, -1,
          633, 626, 629, -1,
          633, 629, 634, -1,
          633, 634, 635, -1,
          633, 631, 626, -1,
          636, 257, 369, -1,
          636, 631, 633, -1,
          636, 633, 635, -1,
          636, 369, 632, -1,
          636, 462, 257, -1,
          636, 635, 637, -1,
          636, 637, 638, -1,
          636, 638, 462, -1,
          636, 632, 631, -1,
          639, 129, 126, -1,
          639, 126, 640, -1,
          641, 640, 642, -1,
          641, 639, 640, -1,
          643, 642, 644, -1,
          643, 641, 642, -1,
          645, 644, 646, -1,
          645, 643, 644, -1,
          647, 646, 648, -1,
          647, 645, 646, -1,
          649, 648, 650, -1,
          649, 647, 648, -1,
          651, 650, 652, -1,
          651, 649, 650, -1,
          653, 652, 654, -1,
          653, 651, 652, -1,
          655, 654, 656, -1,
          655, 653, 654, -1,
          657, 656, 658, -1,
          657, 655, 656, -1,
          659, 658, 660, -1,
          659, 657, 658, -1,
          661, 660, 662, -1,
          661, 659, 660, -1,
          663, 662, 664, -1,
          663, 661, 662, -1,
          665, 664, 666, -1,
          665, 663, 664, -1,
          667, 666, 668, -1,
          667, 665, 666, -1,
          669, 668, 670, -1,
          669, 667, 668, -1,
          671, 670, 672, -1,
          671, 672, 673, -1,
          671, 669, 670, -1,
          674, 671, 673, -1,
          675, 674, 673, -1,
          675, 673, 676, -1,
          675, 676, 677, -1,
          678, 675, 677, -1,
          679, 678, 677, -1,
          679, 677, 680, -1,
          679, 680, 681, -1,
          682, 679, 681, -1,
          683, 681, 684, -1,
          683, 682, 681, -1,
          683, 684, 685, -1,
          686, 683, 685, -1,
          687, 685, 688, -1,
          687, 686, 685, -1,
          689, 688, 690, -1,
          689, 687, 688, -1,
          691, 690, 692, -1,
          691, 689, 690, -1,
          693, 692, 694, -1,
          693, 691, 692, -1,
          695, 694, 696, -1,
          695, 696, 697, -1,
          695, 693, 694, -1,
          698, 697, 699, -1,
          698, 695, 697, -1,
          700, 698, 699, -1,
          701, 699, 702, -1,
          701, 702, 703, -1,
          701, 700, 699, -1,
          704, 701, 703, -1,
          705, 703, 706, -1,
          705, 704, 703, -1,
          707, 706, 708, -1,
          707, 705, 706, -1,
          709, 708, 710, -1,
          709, 710, 711, -1,
          709, 707, 708, -1,
          712, 709, 711, -1,
          713, 711, 714, -1,
          713, 714, 715, -1,
          713, 712, 711, -1,
          716, 715, 717, -1,
          716, 713, 715, -1,
          718, 716, 717, -1,
          719, 717, 720, -1,
          719, 718, 717, -1,
          721, 720, 722, -1,
          721, 722, 723, -1,
          721, 719, 720, -1,
          724, 721, 723, -1,
          725, 724, 723, -1,
          725, 723, 726, -1,
          725, 726, 727, -1,
          728, 725, 727, -1,
          728, 727, 729, -1,
          730, 728, 729, -1,
          731, 730, 729, -1,
          731, 729, 732, -1,
          733, 731, 732, -1,
          733, 732, 734, -1,
          735, 733, 734, -1,
          735, 734, 736, -1,
          737, 735, 736, -1,
          737, 736, 738, -1,
          739, 737, 738, -1,
          739, 738, 740, -1,
          739, 740, 741, -1,
          742, 739, 741, -1,
          743, 742, 741, -1,
          743, 741, 744, -1,
          745, 743, 744, -1,
          745, 744, 746, -1,
          747, 745, 746, -1,
          747, 746, 748, -1,
          749, 747, 748, -1,
          749, 748, 750, -1,
          751, 750, 752, -1,
          751, 752, 753, -1,
          751, 749, 750, -1,
          754, 751, 753, -1,
          755, 753, 756, -1,
          755, 756, 757, -1,
          755, 754, 753, -1,
          758, 755, 757, -1,
          759, 757, 760, -1,
          759, 758, 757, -1,
          761, 760, 762, -1,
          761, 759, 760, -1,
          255, 762, 1, -1,
          255, 761, 762, -1,
          459, 255, 254, -1,
          761, 255, 459, -1,
          460, 761, 459, -1,
          759, 761, 460, -1,
          457, 759, 460, -1,
          758, 759, 457, -1,
          458, 758, 457, -1,
          755, 758, 458, -1,
          454, 755, 458, -1,
          754, 755, 454, -1,
          456, 754, 454, -1,
          751, 754, 456, -1,
          455, 751, 456, -1,
          749, 751, 455, -1,
          452, 749, 455, -1,
          747, 749, 452, -1,
          453, 747, 452, -1,
          745, 747, 453, -1,
          448, 745, 453, -1,
          743, 745, 448, -1,
          451, 743, 448, -1,
          742, 743, 451, -1,
          450, 742, 451, -1,
          739, 742, 450, -1,
          449, 739, 450, -1,
          737, 739, 449, -1,
          447, 737, 449, -1,
          735, 737, 447, -1,
          446, 735, 447, -1,
          733, 735, 446, -1,
          445, 733, 446, -1,
          731, 733, 445, -1,
          443, 731, 445, -1,
          730, 731, 443, -1,
          444, 730, 443, -1,
          728, 730, 444, -1,
          441, 728, 444, -1,
          725, 728, 441, -1,
          442, 725, 441, -1,
          724, 725, 442, -1,
          438, 724, 442, -1,
          721, 724, 438, -1,
          440, 721, 438, -1,
          719, 721, 440, -1,
          439, 719, 440, -1,
          718, 719, 439, -1,
          435, 718, 439, -1,
          716, 718, 435, -1,
          437, 716, 435, -1,
          713, 716, 437, -1,
          712, 713, 437, -1,
          712, 437, 436, -1,
          432, 712, 436, -1,
          709, 712, 432, -1,
          430, 709, 432, -1,
          707, 709, 430, -1,
          429, 707, 430, -1,
          705, 707, 429, -1,
          428, 705, 429, -1,
          704, 705, 428, -1,
          425, 704, 428, -1,
          701, 704, 425, -1,
          427, 701, 425, -1,
          700, 701, 427, -1,
          426, 700, 427, -1,
          698, 700, 426, -1,
          417, 698, 426, -1,
          695, 698, 417, -1,
          419, 695, 417, -1,
          693, 695, 419, -1,
          418, 693, 419, -1,
          691, 693, 418, -1,
          431, 691, 418, -1,
          689, 691, 431, -1,
          687, 431, 434, -1,
          687, 689, 431, -1,
          686, 434, 433, -1,
          686, 687, 434, -1,
          683, 433, 413, -1,
          683, 686, 433, -1,
          408, 683, 413, -1,
          682, 683, 408, -1,
          409, 682, 408, -1,
          679, 682, 409, -1,
          678, 679, 409, -1,
          678, 409, 406, -1,
          675, 678, 406, -1,
          675, 406, 407, -1,
          399, 675, 407, -1,
          674, 675, 399, -1,
          401, 674, 399, -1,
          671, 674, 401, -1,
          400, 671, 401, -1,
          669, 671, 400, -1,
          667, 400, 405, -1,
          667, 669, 400, -1,
          665, 405, 404, -1,
          665, 667, 405, -1,
          403, 665, 404, -1,
          663, 665, 403, -1,
          661, 403, 402, -1,
          661, 663, 403, -1,
          412, 661, 402, -1,
          659, 661, 412, -1,
          657, 412, 411, -1,
          657, 659, 412, -1,
          655, 411, 410, -1,
          655, 657, 411, -1,
          414, 655, 410, -1,
          653, 655, 414, -1,
          651, 414, 416, -1,
          651, 653, 414, -1,
          415, 651, 416, -1,
          649, 651, 415, -1,
          424, 649, 415, -1,
          647, 649, 424, -1,
          645, 424, 423, -1,
          645, 647, 424, -1,
          643, 423, 422, -1,
          643, 645, 423, -1,
          421, 643, 422, -1,
          641, 643, 421, -1,
          420, 641, 421, -1,
          639, 641, 420, -1,
          129, 420, 130, -1,
          129, 639, 420, -1,
          462, 126, 127, -1,
          640, 126, 462, -1,
          638, 640, 462, -1,
          642, 640, 638, -1,
          637, 642, 638, -1,
          644, 642, 637, -1,
          635, 644, 637, -1,
          646, 644, 635, -1,
          634, 646, 635, -1,
          648, 646, 634, -1,
          629, 648, 634, -1,
          650, 648, 629, -1,
          628, 650, 629, -1,
          652, 650, 628, -1,
          627, 652, 628, -1,
          654, 652, 627, -1,
          621, 654, 627, -1,
          656, 654, 621, -1,
          620, 656, 621, -1,
          658, 656, 620, -1,
          619, 658, 620, -1,
          660, 658, 619, -1,
          611, 660, 619, -1,
          662, 660, 611, -1,
          664, 611, 610, -1,
          664, 662, 611, -1,
          609, 664, 610, -1,
          666, 664, 609, -1,
          600, 666, 609, -1,
          668, 666, 600, -1,
          670, 600, 599, -1,
          670, 668, 600, -1,
          672, 599, 592, -1,
          672, 670, 599, -1,
          673, 672, 592, -1,
          673, 592, 591, -1,
          676, 673, 591, -1,
          676, 591, 580, -1,
          677, 676, 580, -1,
          677, 580, 579, -1,
          571, 677, 579, -1,
          680, 677, 571, -1,
          681, 680, 571, -1,
          681, 571, 570, -1,
          684, 681, 570, -1,
          684, 570, 557, -1,
          685, 684, 557, -1,
          685, 557, 556, -1,
          688, 685, 556, -1,
          688, 556, 547, -1,
          546, 688, 547, -1,
          690, 688, 546, -1,
          692, 546, 537, -1,
          692, 690, 546, -1,
          694, 537, 536, -1,
          694, 692, 537, -1,
          696, 536, 527, -1,
          696, 694, 536, -1,
          697, 527, 526, -1,
          697, 696, 527, -1,
          699, 526, 515, -1,
          699, 697, 526, -1,
          702, 515, 514, -1,
          702, 699, 515, -1,
          703, 514, 513, -1,
          703, 702, 514, -1,
          706, 513, 505, -1,
          706, 703, 513, -1,
          708, 505, 504, -1,
          708, 706, 505, -1,
          710, 504, 494, -1,
          710, 708, 504, -1,
          493, 710, 494, -1,
          711, 710, 493, -1,
          714, 493, 478, -1,
          714, 711, 493, -1,
          477, 714, 478, -1,
          715, 714, 477, -1,
          717, 477, 476, -1,
          717, 715, 477, -1,
          486, 717, 476, -1,
          720, 717, 486, -1,
          722, 486, 470, -1,
          722, 720, 486, -1,
          723, 470, 469, -1,
          723, 722, 470, -1,
          726, 723, 469, -1,
          726, 469, 468, -1,
          727, 726, 468, -1,
          727, 468, 480, -1,
          466, 727, 480, -1,
          729, 727, 466, -1,
          465, 729, 466, -1,
          732, 729, 465, -1,
          734, 465, 464, -1,
          734, 732, 465, -1,
          736, 464, 474, -1,
          736, 734, 464, -1,
          473, 736, 474, -1,
          738, 736, 473, -1,
          740, 473, 472, -1,
          740, 738, 473, -1,
          484, 740, 472, -1,
          741, 740, 484, -1,
          744, 484, 483, -1,
          744, 741, 484, -1,
          746, 483, 482, -1,
          746, 744, 483, -1,
          748, 482, 491, -1,
          748, 746, 482, -1,
          490, 748, 491, -1,
          750, 748, 490, -1,
          489, 750, 490, -1,
          752, 750, 489, -1,
          753, 489, 499, -1,
          753, 752, 489, -1,
          756, 499, 498, -1,
          756, 753, 499, -1,
          757, 498, 518, -1,
          757, 756, 498, -1,
          517, 757, 518, -1,
          760, 757, 517, -1,
          762, 517, 461, -1,
          762, 760, 517, -1,
          1, 461, 2, -1,
          1, 762, 461, -1
        ]
      }
    }
}
