#VRML V2.0 utf8
WorldInfo {
  title "Exported triangle mesh to VRML97"
  info ["Created by FreeCAD"
        "<https://www.freecad.org>"]
}

Transform {
  scale 1 1 1
  rotation 0 0 1 0
  scaleOrientation 0 0 1 0
  center 0.000 0.000 0.000
  translation 0.000 0.000 0.000
  children
    Shape { 
      appearance
      Appearance {
        material
        Material {
          diffuseColor 0.8 0.8 0.8
        }
      }
      geometry
      IndexedFaceSet {
        coord
        Coordinate {
          point [
            -0.000 -8.484 1.049,
            -2.516 -12.448 0.531,
            -1.893 -12.558 0.531,
            -1.265 -12.637 0.531,
            -0.633 -12.684 0.531,
            0.000 -12.700 0.531,
            -0.633 12.684 0.531,
            0.000 8.484 1.049,
            0.000 12.700 0.531,
            -1.265 12.637 0.531,
            -1.893 12.558 0.531,
            -2.516 12.448 0.531,
            -4.246 -10.161 0.763,
            -7.668 -10.124 0.531,
            -7.154 -10.493 0.531,
            -6.622 -10.837 0.531,
            -6.074 -11.153 0.531,
            -5.510 -11.442 0.531,
            -4.933 -11.703 0.531,
            -4.344 -11.934 0.531,
            -3.743 -12.136 0.531,
            -3.134 -12.307 0.531,
            -4.246 -5.089 1.212,
            -0.000 -4.247 1.361,
            -8.481 -7.601 0.714,
            -10.999 -6.350 0.531,
            -10.668 -6.890 0.531,
            -10.312 -7.414 0.531,
            -9.929 -7.918 0.531,
            -9.522 -8.403 0.531,
            -9.092 -8.868 0.531,
            -8.638 -9.310 0.531,
            -8.163 -9.729 0.531,
            -4.246 -0.000 1.361,
            0.000 -0.000 1.465,
            0.000 4.247 1.361,
            -8.481 -2.537 1.012,
            -12.696 0.317 0.531,
            -12.696 -0.317 0.531,
            -12.664 -0.949 0.531,
            -12.601 -1.579 0.531,
            -12.507 -2.205 0.531,
            -12.382 -2.826 0.531,
            -12.225 -3.440 0.531,
            -12.039 -4.045 0.531,
            -11.822 -4.640 0.531,
            -11.576 -5.223 0.531,
            -11.301 -5.794 0.531,
            -4.246 5.089 1.212,
            -8.481 2.537 1.012,
            -10.999 6.350 0.531,
            -11.301 5.794 0.531,
            -11.576 5.223 0.531,
            -11.822 4.640 0.531,
            -12.039 4.045 0.531,
            -12.225 3.440 0.531,
            -12.382 2.826 0.531,
            -12.507 2.205 0.531,
            -12.601 1.579 0.531,
            -12.664 0.949 0.531,
            -4.246 10.161 0.763,
            -3.134 12.307 0.531,
            -3.743 12.136 0.531,
            -4.344 11.934 0.531,
            -4.933 11.703 0.531,
            -5.510 11.442 0.531,
            -6.074 11.153 0.531,
            -6.622 10.837 0.531,
            -7.154 10.493 0.531,
            -7.668 10.124 0.531,
            -8.481 7.601 0.714,
            -8.163 9.729 0.531,
            -8.638 9.310 0.531,
            -9.092 8.868 0.531,
            -9.522 8.403 0.531,
            -9.929 7.918 0.531,
            -10.312 7.414 0.531,
            -10.668 6.890 0.531,
            0.633 -12.684 0.531,
            0.000 -12.700 -1.465,
            0.633 -12.684 -1.465,
            1.265 -12.637 0.531,
            1.265 -12.637 -1.465,
            1.893 -12.558 0.531,
            1.893 -12.558 -1.465,
            2.516 -12.448 0.531,
            2.516 -12.448 -1.465,
            3.134 -12.307 0.531,
            3.134 -12.307 -1.465,
            3.743 -12.136 0.531,
            3.743 -12.136 -1.465,
            4.344 -11.934 0.531,
            4.344 -11.934 -1.465,
            4.933 -11.703 0.531,
            4.933 -11.703 -1.465,
            5.510 -11.442 -1.465,
            5.510 -11.442 0.531,
            6.074 -11.153 0.531,
            6.074 -11.153 -1.465,
            6.622 -10.837 0.531,
            6.622 -10.837 -1.465,
            7.154 -10.493 -1.465,
            7.154 -10.493 0.531,
            7.668 -10.124 0.531,
            7.668 -10.124 -1.465,
            8.163 -9.729 -1.465,
            8.163 -9.729 0.531,
            8.638 -9.310 0.531,
            8.638 -9.310 -1.465,
            9.092 -8.868 0.531,
            9.092 -8.868 -1.465,
            9.522 -8.403 0.531,
            9.522 -8.403 -1.465,
            9.929 -7.918 0.531,
            9.929 -7.918 -1.465,
            10.312 -7.414 0.531,
            10.312 -7.414 -1.465,
            10.668 -6.890 0.531,
            10.668 -6.890 -1.465,
            10.999 -6.350 -1.465,
            10.999 -6.350 0.531,
            11.301 -5.794 0.531,
            11.301 -5.794 -1.465,
            11.576 -5.223 -1.465,
            11.576 -5.223 0.531,
            11.822 -4.640 -1.465,
            11.822 -4.640 0.531,
            12.039 -4.045 -1.465,
            12.039 -4.045 0.531,
            12.225 -3.440 0.531,
            12.225 -3.440 -1.465,
            12.382 -2.826 0.531,
            12.382 -2.826 -1.465,
            12.507 -2.205 0.531,
            12.507 -2.205 -1.465,
            12.601 -1.579 0.531,
            12.601 -1.579 -1.465,
            12.664 -0.949 -1.465,
            12.664 -0.949 0.531,
            12.696 -0.317 -1.465,
            12.696 -0.317 0.531,
            12.696 0.317 0.531,
            12.696 0.317 -1.465,
            12.664 0.949 -1.465,
            12.664 0.949 0.531,
            12.601 1.579 -1.465,
            12.601 1.579 0.531,
            12.507 2.205 0.531,
            12.507 2.205 -1.465,
            12.382 2.826 0.531,
            12.382 2.826 -1.465,
            12.225 3.440 0.531,
            12.225 3.440 -1.465,
            12.039 4.045 -1.465,
            12.039 4.045 0.531,
            11.822 4.640 0.531,
            11.822 4.640 -1.465,
            11.576 5.223 0.531,
            11.576 5.223 -1.465,
            11.301 5.794 0.531,
            11.301 5.794 -1.465,
            10.999 6.350 0.531,
            10.999 6.350 -1.465,
            10.668 6.890 0.531,
            10.668 6.890 -1.465,
            10.312 7.414 0.531,
            10.312 7.414 -1.465,
            9.929 7.918 0.531,
            9.929 7.918 -1.465,
            9.522 8.403 0.531,
            9.522 8.403 -1.465,
            9.092 8.868 0.531,
            9.092 8.868 -1.465,
            8.638 9.310 0.531,
            8.638 9.310 -1.465,
            8.163 9.729 0.531,
            8.163 9.729 -1.465,
            7.668 10.124 0.531,
            7.668 10.124 -1.465,
            7.154 10.493 0.531,
            7.154 10.493 -1.465,
            6.622 10.837 0.531,
            6.622 10.837 -1.465,
            6.074 11.153 0.531,
            6.074 11.153 -1.465,
            5.510 11.442 0.531,
            5.510 11.442 -1.465,
            4.933 11.703 0.531,
            4.933 11.703 -1.465,
            4.344 11.934 -1.465,
            4.344 11.934 0.531,
            3.743 12.136 0.531,
            3.743 12.136 -1.465,
            3.134 12.307 0.531,
            3.134 12.307 -1.465,
            2.516 12.448 0.531,
            2.516 12.448 -1.465,
            1.893 12.558 -1.465,
            1.893 12.558 0.531,
            1.265 12.637 0.531,
            1.265 12.637 -1.465,
            0.633 12.684 0.531,
            0.633 12.684 -1.465,
            0.000 12.700 -1.465,
            -0.633 12.684 -1.465,
            -1.265 12.637 -1.465,
            -1.893 12.558 -1.465,
            -2.516 12.448 -1.465,
            -3.134 12.307 -1.465,
            -3.743 12.136 -1.465,
            -4.344 11.934 -1.465,
            -4.933 11.703 -1.465,
            -5.510 11.442 -1.465,
            -6.074 11.153 -1.465,
            -6.622 10.837 -1.465,
            -7.154 10.493 -1.465,
            -7.668 10.124 -1.465,
            -8.163 9.729 -1.465,
            -8.638 9.310 -1.465,
            -9.092 8.868 -1.465,
            -9.522 8.403 -1.465,
            -9.929 7.918 -1.465,
            -10.312 7.414 -1.465,
            -10.668 6.890 -1.465,
            -10.999 6.350 -1.465,
            -11.301 5.794 -1.465,
            -11.576 5.223 -1.465,
            -11.822 4.640 -1.465,
            -12.039 4.045 -1.465,
            -12.225 3.440 -1.465,
            -12.382 2.826 -1.465,
            -12.507 2.205 -1.465,
            -12.601 1.579 -1.465,
            -12.664 0.949 -1.465,
            -12.696 0.317 -1.465,
            -12.696 -0.317 -1.465,
            -12.664 -0.949 -1.465,
            -12.601 -1.579 -1.465,
            -12.507 -2.205 -1.465,
            -12.382 -2.826 -1.465,
            -12.225 -3.440 -1.465,
            -12.039 -4.045 -1.465,
            -11.822 -4.640 -1.465,
            -11.576 -5.223 -1.465,
            -11.301 -5.794 -1.465,
            -10.999 -6.350 -1.465,
            -10.668 -6.890 -1.465,
            -10.312 -7.414 -1.465,
            -9.929 -7.918 -1.465,
            -9.522 -8.403 -1.465,
            -9.092 -8.868 -1.465,
            -8.638 -9.310 -1.465,
            -8.163 -9.729 -1.465,
            -7.668 -10.124 -1.465,
            -7.154 -10.493 -1.465,
            -6.622 -10.837 -1.465,
            -6.074 -11.153 -1.465,
            -5.510 -11.442 -1.465,
            -4.933 -11.703 -1.465,
            -4.344 -11.934 -1.465,
            -3.743 -12.136 -1.465,
            -3.134 -12.307 -1.465,
            -2.516 -12.448 -1.465,
            -1.893 -12.558 -1.465,
            -1.265 -12.637 -1.465,
            -0.633 -12.684 -1.465,
            8.481 -5.071 0.901,
            4.246 -7.628 1.025,
            8.481 -0.000 1.050,
            4.246 -2.546 1.324,
            8.481 5.071 0.901,
            4.246 2.546 1.324,
            4.246 7.628 1.025
          ]
        }
        coordIndex [
          0, 1, 2, -1,
          0, 2, 3, -1,
          0, 3, 4, -1,
          0, 4, 5, -1,
          6, 7, 8, -1,
          9, 7, 6, -1,
          10, 7, 9, -1,
          11, 7, 10, -1,
          12, 13, 14, -1,
          12, 14, 15, -1,
          12, 15, 16, -1,
          12, 16, 17, -1,
          12, 17, 18, -1,
          12, 18, 19, -1,
          12, 19, 20, -1,
          12, 20, 21, -1,
          12, 21, 1, -1,
          12, 1, 0, -1,
          22, 12, 0, -1,
          22, 0, 23, -1,
          24, 12, 22, -1,
          24, 25, 26, -1,
          24, 26, 27, -1,
          24, 27, 28, -1,
          24, 28, 29, -1,
          24, 29, 30, -1,
          24, 30, 31, -1,
          24, 31, 32, -1,
          24, 32, 13, -1,
          24, 13, 12, -1,
          33, 22, 23, -1,
          33, 23, 34, -1,
          33, 34, 35, -1,
          36, 25, 24, -1,
          36, 24, 22, -1,
          36, 37, 38, -1,
          36, 38, 39, -1,
          36, 39, 40, -1,
          36, 40, 41, -1,
          36, 41, 42, -1,
          36, 42, 43, -1,
          36, 43, 44, -1,
          36, 44, 45, -1,
          36, 45, 46, -1,
          36, 46, 47, -1,
          36, 47, 25, -1,
          36, 22, 33, -1,
          48, 35, 7, -1,
          48, 33, 35, -1,
          49, 33, 48, -1,
          49, 50, 51, -1,
          49, 51, 52, -1,
          49, 52, 53, -1,
          49, 53, 54, -1,
          49, 54, 55, -1,
          49, 37, 36, -1,
          49, 55, 56, -1,
          49, 56, 57, -1,
          49, 57, 58, -1,
          49, 58, 59, -1,
          49, 59, 37, -1,
          49, 36, 33, -1,
          60, 11, 61, -1,
          60, 61, 62, -1,
          60, 62, 63, -1,
          60, 63, 64, -1,
          60, 64, 65, -1,
          60, 65, 66, -1,
          60, 66, 67, -1,
          60, 67, 68, -1,
          60, 68, 69, -1,
          60, 48, 7, -1,
          60, 7, 11, -1,
          70, 48, 60, -1,
          70, 60, 69, -1,
          70, 69, 71, -1,
          70, 71, 72, -1,
          70, 72, 73, -1,
          70, 73, 74, -1,
          70, 74, 75, -1,
          70, 75, 76, -1,
          70, 76, 77, -1,
          70, 77, 50, -1,
          70, 50, 49, -1,
          70, 49, 48, -1,
          78, 79, 80, -1,
          78, 5, 79, -1,
          81, 80, 82, -1,
          81, 78, 80, -1,
          83, 82, 84, -1,
          83, 81, 82, -1,
          85, 84, 86, -1,
          85, 83, 84, -1,
          87, 86, 88, -1,
          87, 85, 86, -1,
          89, 88, 90, -1,
          89, 87, 88, -1,
          91, 90, 92, -1,
          91, 89, 90, -1,
          93, 92, 94, -1,
          93, 94, 95, -1,
          93, 91, 92, -1,
          96, 93, 95, -1,
          97, 95, 98, -1,
          97, 96, 95, -1,
          99, 98, 100, -1,
          99, 100, 101, -1,
          99, 97, 98, -1,
          102, 99, 101, -1,
          103, 101, 104, -1,
          103, 104, 105, -1,
          103, 102, 101, -1,
          106, 103, 105, -1,
          107, 105, 108, -1,
          107, 106, 105, -1,
          109, 108, 110, -1,
          109, 107, 108, -1,
          111, 110, 112, -1,
          111, 109, 110, -1,
          113, 112, 114, -1,
          113, 111, 112, -1,
          115, 113, 114, -1,
          115, 114, 116, -1,
          117, 115, 116, -1,
          117, 116, 118, -1,
          117, 118, 119, -1,
          120, 117, 119, -1,
          121, 120, 119, -1,
          121, 119, 122, -1,
          121, 122, 123, -1,
          124, 123, 125, -1,
          124, 121, 123, -1,
          126, 125, 127, -1,
          126, 124, 125, -1,
          128, 126, 127, -1,
          129, 127, 130, -1,
          129, 128, 127, -1,
          131, 130, 132, -1,
          131, 129, 130, -1,
          133, 132, 134, -1,
          133, 131, 132, -1,
          135, 134, 136, -1,
          135, 136, 137, -1,
          135, 133, 134, -1,
          138, 137, 139, -1,
          138, 135, 137, -1,
          140, 138, 139, -1,
          141, 139, 142, -1,
          141, 142, 143, -1,
          141, 140, 139, -1,
          144, 143, 145, -1,
          144, 141, 143, -1,
          146, 144, 145, -1,
          147, 145, 148, -1,
          147, 146, 145, -1,
          149, 148, 150, -1,
          149, 147, 148, -1,
          151, 150, 152, -1,
          151, 152, 153, -1,
          151, 149, 150, -1,
          154, 151, 153, -1,
          155, 153, 156, -1,
          155, 154, 153, -1,
          157, 156, 158, -1,
          157, 155, 156, -1,
          159, 158, 160, -1,
          159, 157, 158, -1,
          161, 160, 162, -1,
          161, 159, 160, -1,
          163, 161, 162, -1,
          163, 162, 164, -1,
          165, 163, 164, -1,
          165, 164, 166, -1,
          167, 165, 166, -1,
          167, 166, 168, -1,
          169, 167, 168, -1,
          169, 168, 170, -1,
          171, 169, 170, -1,
          171, 170, 172, -1,
          173, 171, 172, -1,
          173, 172, 174, -1,
          175, 173, 174, -1,
          175, 174, 176, -1,
          177, 175, 176, -1,
          177, 176, 178, -1,
          179, 177, 178, -1,
          179, 178, 180, -1,
          181, 179, 180, -1,
          181, 180, 182, -1,
          183, 181, 182, -1,
          183, 182, 184, -1,
          185, 183, 184, -1,
          185, 184, 186, -1,
          187, 185, 186, -1,
          187, 186, 188, -1,
          187, 188, 189, -1,
          190, 187, 189, -1,
          191, 189, 192, -1,
          191, 190, 189, -1,
          193, 192, 194, -1,
          193, 191, 192, -1,
          195, 194, 196, -1,
          195, 196, 197, -1,
          195, 193, 194, -1,
          198, 195, 197, -1,
          199, 197, 200, -1,
          199, 198, 197, -1,
          201, 200, 202, -1,
          201, 199, 200, -1,
          8, 202, 203, -1,
          8, 201, 202, -1,
          6, 8, 203, -1,
          6, 203, 204, -1,
          9, 204, 205, -1,
          9, 6, 204, -1,
          10, 205, 206, -1,
          10, 9, 205, -1,
          11, 206, 207, -1,
          11, 10, 206, -1,
          61, 207, 208, -1,
          61, 208, 209, -1,
          61, 11, 207, -1,
          62, 61, 209, -1,
          63, 209, 210, -1,
          63, 62, 209, -1,
          64, 210, 211, -1,
          64, 211, 212, -1,
          64, 63, 210, -1,
          65, 64, 212, -1,
          66, 212, 213, -1,
          66, 65, 212, -1,
          67, 213, 214, -1,
          67, 66, 213, -1,
          68, 214, 215, -1,
          68, 67, 214, -1,
          69, 215, 216, -1,
          69, 68, 215, -1,
          71, 216, 217, -1,
          71, 69, 216, -1,
          72, 217, 218, -1,
          72, 71, 217, -1,
          73, 218, 219, -1,
          73, 72, 218, -1,
          74, 219, 220, -1,
          74, 73, 219, -1,
          75, 220, 221, -1,
          75, 74, 220, -1,
          76, 75, 221, -1,
          76, 221, 222, -1,
          77, 76, 222, -1,
          77, 222, 223, -1,
          77, 223, 224, -1,
          50, 77, 224, -1,
          51, 50, 224, -1,
          51, 224, 225, -1,
          51, 225, 226, -1,
          52, 226, 227, -1,
          52, 51, 226, -1,
          53, 52, 227, -1,
          54, 53, 227, -1,
          54, 227, 228, -1,
          55, 228, 229, -1,
          55, 229, 230, -1,
          55, 54, 228, -1,
          56, 230, 231, -1,
          56, 55, 230, -1,
          57, 56, 231, -1,
          58, 231, 232, -1,
          58, 57, 231, -1,
          59, 232, 233, -1,
          59, 58, 232, -1,
          37, 233, 234, -1,
          37, 59, 233, -1,
          38, 234, 235, -1,
          38, 235, 236, -1,
          38, 37, 234, -1,
          39, 38, 236, -1,
          40, 236, 237, -1,
          40, 39, 236, -1,
          41, 237, 238, -1,
          41, 40, 237, -1,
          42, 238, 239, -1,
          42, 41, 238, -1,
          43, 239, 240, -1,
          43, 240, 241, -1,
          43, 42, 239, -1,
          44, 43, 241, -1,
          45, 241, 242, -1,
          45, 44, 241, -1,
          46, 242, 243, -1,
          46, 45, 242, -1,
          47, 243, 244, -1,
          47, 46, 243, -1,
          25, 244, 245, -1,
          25, 47, 244, -1,
          26, 25, 245, -1,
          26, 245, 246, -1,
          27, 26, 246, -1,
          27, 246, 247, -1,
          28, 27, 247, -1,
          28, 247, 248, -1,
          29, 28, 248, -1,
          29, 248, 249, -1,
          30, 29, 249, -1,
          30, 249, 250, -1,
          31, 30, 250, -1,
          31, 250, 251, -1,
          32, 31, 251, -1,
          32, 251, 252, -1,
          13, 32, 252, -1,
          13, 252, 253, -1,
          14, 13, 253, -1,
          14, 253, 254, -1,
          15, 14, 254, -1,
          15, 254, 255, -1,
          16, 15, 255, -1,
          16, 255, 256, -1,
          17, 16, 256, -1,
          17, 256, 257, -1,
          18, 17, 257, -1,
          18, 257, 258, -1,
          19, 18, 258, -1,
          19, 258, 259, -1,
          20, 259, 260, -1,
          20, 19, 259, -1,
          21, 260, 261, -1,
          21, 20, 260, -1,
          1, 261, 262, -1,
          1, 21, 261, -1,
          2, 262, 263, -1,
          2, 263, 264, -1,
          2, 1, 262, -1,
          3, 2, 264, -1,
          4, 264, 265, -1,
          4, 265, 79, -1,
          4, 3, 264, -1,
          5, 4, 79, -1,
          0, 5, 78, -1,
          0, 78, 81, -1,
          0, 81, 83, -1,
          0, 83, 85, -1,
          0, 85, 87, -1,
          195, 7, 193, -1,
          198, 7, 195, -1,
          199, 7, 198, -1,
          201, 7, 199, -1,
          8, 7, 201, -1,
          266, 107, 109, -1,
          266, 109, 111, -1,
          266, 111, 113, -1,
          266, 113, 115, -1,
          266, 115, 117, -1,
          266, 117, 120, -1,
          266, 120, 121, -1,
          266, 121, 124, -1,
          266, 124, 126, -1,
          266, 126, 128, -1,
          266, 128, 129, -1,
          267, 23, 0, -1,
          267, 87, 89, -1,
          267, 89, 91, -1,
          267, 91, 93, -1,
          267, 93, 96, -1,
          267, 107, 266, -1,
          267, 96, 97, -1,
          267, 97, 99, -1,
          267, 99, 102, -1,
          267, 102, 103, -1,
          267, 103, 106, -1,
          267, 106, 107, -1,
          267, 0, 87, -1,
          268, 129, 131, -1,
          268, 131, 133, -1,
          268, 133, 135, -1,
          268, 135, 138, -1,
          268, 138, 140, -1,
          268, 140, 141, -1,
          268, 141, 144, -1,
          268, 144, 146, -1,
          268, 146, 147, -1,
          268, 147, 149, -1,
          268, 149, 151, -1,
          268, 266, 129, -1,
          269, 23, 267, -1,
          269, 34, 23, -1,
          269, 267, 266, -1,
          269, 266, 268, -1,
          270, 151, 154, -1,
          270, 154, 155, -1,
          270, 155, 157, -1,
          270, 157, 159, -1,
          270, 159, 161, -1,
          270, 161, 163, -1,
          270, 163, 165, -1,
          270, 165, 167, -1,
          270, 167, 169, -1,
          270, 169, 171, -1,
          270, 171, 173, -1,
          270, 268, 151, -1,
          271, 34, 269, -1,
          271, 269, 268, -1,
          271, 35, 34, -1,
          271, 268, 270, -1,
          272, 173, 175, -1,
          272, 175, 177, -1,
          272, 177, 179, -1,
          272, 179, 181, -1,
          272, 35, 271, -1,
          272, 181, 183, -1,
          272, 183, 185, -1,
          272, 271, 270, -1,
          272, 185, 187, -1,
          272, 187, 190, -1,
          272, 190, 191, -1,
          272, 191, 193, -1,
          272, 270, 173, -1,
          272, 7, 35, -1,
          272, 193, 7, -1,
          219, 221, 220, -1,
          217, 216, 218, -1,
          215, 223, 216, -1,
          218, 223, 219, -1,
          221, 223, 222, -1,
          219, 223, 221, -1,
          216, 223, 218, -1,
          214, 213, 215, -1,
          224, 226, 225, -1,
          224, 227, 226, -1,
          211, 210, 212, -1,
          223, 228, 224, -1,
          224, 228, 227, -1,
          210, 209, 212, -1,
          228, 230, 229, -1,
          215, 230, 223, -1,
          223, 230, 228, -1,
          208, 207, 209, -1,
          209, 207, 212, -1,
          230, 232, 231, -1,
          206, 205, 207, -1,
          212, 204, 213, -1,
          213, 204, 215, -1,
          205, 204, 207, -1,
          207, 204, 212, -1,
          203, 197, 204, -1,
          200, 197, 202, -1,
          202, 197, 203, -1,
          235, 239, 236, -1,
          236, 239, 237, -1,
          237, 239, 238, -1,
          232, 240, 233, -1,
          233, 240, 234, -1,
          234, 240, 235, -1,
          235, 240, 239, -1,
          194, 192, 196, -1,
          196, 192, 197, -1,
          197, 192, 204, -1,
          240, 242, 241, -1,
          232, 242, 240, -1,
          186, 184, 188, -1,
          188, 184, 189, -1,
          189, 184, 192, -1,
          243, 246, 244, -1,
          244, 246, 245, -1,
          182, 180, 184, -1,
          243, 247, 246, -1,
          178, 176, 180, -1,
          184, 174, 192, -1,
          180, 174, 184, -1,
          176, 174, 180, -1,
          247, 250, 248, -1,
          248, 250, 249, -1,
          172, 170, 174, -1,
          250, 253, 251, -1,
          251, 253, 252, -1,
          247, 253, 250, -1,
          164, 162, 166, -1,
          166, 162, 168, -1,
          168, 162, 170, -1,
          170, 162, 174, -1,
          253, 256, 254, -1,
          254, 256, 255, -1,
          160, 158, 162, -1,
          162, 158, 174, -1,
          256, 258, 257, -1,
          253, 258, 256, -1,
          192, 156, 204, -1,
          174, 156, 192, -1,
          215, 156, 230, -1,
          158, 156, 174, -1,
          204, 156, 215, -1,
          243, 259, 247, -1,
          242, 259, 243, -1,
          247, 259, 253, -1,
          253, 259, 258, -1,
          232, 259, 242, -1,
          232, 260, 259, -1,
          153, 152, 156, -1,
          261, 263, 262, -1,
          145, 143, 148, -1,
          148, 143, 150, -1,
          150, 143, 152, -1,
          261, 265, 263, -1,
          260, 265, 261, -1,
          263, 265, 264, -1,
          143, 142, 152, -1,
          139, 137, 142, -1,
          260, 82, 265, -1,
          265, 82, 79, -1,
          79, 82, 80, -1,
          260, 86, 82, -1,
          82, 86, 84, -1,
          232, 86, 260, -1,
          142, 132, 152, -1,
          137, 132, 142, -1,
          152, 132, 156, -1,
          230, 132, 232, -1,
          156, 132, 230, -1,
          134, 132, 136, -1,
          136, 132, 137, -1,
          130, 127, 132, -1,
          86, 92, 88, -1,
          88, 92, 90, -1,
          132, 123, 232, -1,
          232, 123, 86, -1,
          127, 123, 132, -1,
          125, 123, 127, -1,
          92, 98, 94, -1,
          94, 98, 95, -1,
          92, 100, 98, -1,
          119, 118, 122, -1,
          122, 118, 123, -1,
          100, 104, 101, -1,
          118, 114, 123, -1,
          116, 114, 118, -1,
          86, 105, 92, -1,
          92, 105, 100, -1,
          100, 105, 104, -1,
          123, 110, 86, -1,
          114, 110, 123, -1,
          86, 110, 105, -1,
          105, 110, 108, -1,
          112, 110, 114, -1
        ]
      }
    }
}
