#VRML V2.0 utf8
WorldInfo {
  title "Exported triangle mesh to VRML97"
  info ["Created by FreeCAD"
        "<https://www.freecad.org>"]
}

Transform {
  scale 1 1 1
  rotation 0 0 1 0
  scaleOrientation 0 0 1 0
  center 0.000 0.000 0.000
  translation 0.000 0.000 0.000
  children
    Shape { 
      appearance
      Appearance {
        material
        Material {
          diffuseColor 0.8 0.8 0.8
        }
      }
      geometry
      IndexedFaceSet {
        coord
        Coordinate {
          point [
            0.633 12.684 -3.760,
            0.000 12.700 -1.769,
            0.633 12.684 -1.769,
            0.000 12.700 -3.760,
            1.265 12.637 -3.760,
            1.265 12.637 -1.769,
            1.893 12.558 -3.760,
            1.893 12.558 -1.769,
            2.516 12.448 -3.760,
            2.516 12.448 -1.769,
            3.134 12.307 -3.760,
            3.134 12.307 -1.769,
            3.743 12.136 -3.760,
            3.743 12.136 -1.769,
            4.344 11.934 -1.769,
            4.344 11.934 -3.760,
            4.933 11.703 -3.760,
            4.933 11.703 -1.769,
            5.510 11.442 -3.760,
            5.510 11.442 -1.769,
            6.074 11.153 -1.769,
            6.074 11.153 -3.760,
            6.622 10.837 -3.760,
            6.622 10.837 -1.769,
            7.154 10.493 -1.769,
            7.154 10.493 -3.760,
            7.668 10.124 -3.760,
            7.668 10.124 -1.769,
            8.163 9.729 -1.769,
            8.163 9.729 -3.760,
            8.638 9.310 -3.760,
            8.638 9.310 -1.769,
            9.092 8.868 -1.769,
            9.092 8.868 -3.760,
            9.522 8.403 -3.760,
            9.522 8.403 -1.769,
            9.929 7.918 -3.760,
            9.929 7.918 -1.769,
            10.312 7.414 -1.769,
            10.312 7.414 -3.760,
            10.668 6.890 -3.760,
            10.668 6.890 -1.769,
            10.999 6.350 -3.760,
            10.999 6.350 -1.769,
            11.301 5.794 -3.760,
            11.301 5.794 -1.769,
            11.576 5.223 -1.769,
            11.576 5.223 -3.760,
            11.822 4.640 -3.760,
            11.822 4.640 -1.769,
            12.039 4.045 -3.760,
            12.039 4.045 -1.769,
            12.225 3.440 -3.760,
            12.225 3.440 -1.769,
            12.382 2.826 -3.760,
            12.382 2.826 -1.769,
            12.507 2.205 -3.760,
            12.507 2.205 -1.769,
            12.601 1.579 -3.760,
            12.601 1.579 -1.769,
            12.664 0.949 -3.760,
            12.664 0.949 -1.769,
            12.696 0.317 -3.760,
            12.696 0.317 -1.769,
            12.696 -0.317 -3.760,
            12.696 -0.317 -1.769,
            12.664 -0.949 -3.760,
            12.664 -0.949 -1.769,
            12.601 -1.579 -3.760,
            12.601 -1.579 -1.769,
            12.507 -2.205 -1.769,
            12.507 -2.205 -3.760,
            12.382 -2.826 -3.760,
            12.382 -2.826 -1.769,
            12.225 -3.440 -1.769,
            12.225 -3.440 -3.760,
            12.039 -4.045 -3.760,
            12.039 -4.045 -1.769,
            11.822 -4.640 -3.760,
            11.822 -4.640 -1.769,
            11.576 -5.223 -1.769,
            11.576 -5.223 -3.760,
            11.301 -5.794 -1.769,
            11.301 -5.794 -3.760,
            10.999 -6.350 -3.760,
            10.999 -6.350 -1.769,
            10.668 -6.890 -1.769,
            10.668 -6.890 -3.760,
            10.312 -7.414 -3.760,
            10.312 -7.414 -1.769,
            9.929 -7.918 -3.760,
            9.929 -7.918 -1.769,
            9.522 -8.403 -1.769,
            9.522 -8.403 -3.760,
            9.092 -8.868 -3.760,
            9.092 -8.868 -1.769,
            8.638 -9.310 -3.760,
            8.638 -9.310 -1.769,
            8.163 -9.729 -3.760,
            8.163 -9.729 -1.769,
            7.668 -10.124 -3.760,
            7.668 -10.124 -1.769,
            7.154 -10.493 -3.760,
            7.154 -10.493 -1.769,
            6.622 -10.837 -3.760,
            6.622 -10.837 -1.769,
            6.074 -11.153 -3.760,
            6.074 -11.153 -1.769,
            5.510 -11.442 -3.760,
            5.510 -11.442 -1.769,
            4.933 -11.703 -3.760,
            4.933 -11.703 -1.769,
            4.344 -11.934 -3.760,
            4.344 -11.934 -1.769,
            3.743 -12.136 -3.760,
            3.743 -12.136 -1.769,
            3.134 -12.307 -3.760,
            3.134 -12.307 -1.769,
            2.516 -12.448 -3.760,
            2.516 -12.448 -1.769,
            1.893 -12.558 -3.760,
            1.893 -12.558 -1.769,
            1.265 -12.637 -1.769,
            1.265 -12.637 -3.760,
            0.633 -12.684 -3.760,
            0.633 -12.684 -1.769,
            0.000 -12.700 -1.769,
            0.000 -12.700 -3.760,
            0.000 12.114 -1.170,
            0.000 -12.114 -1.170,
            1.186 12.259 -1.370,
            1.186 11.395 -0.561,
            0.000 11.500 -0.599,
            0.000 10.860 -0.059,
            2.366 11.751 -1.047,
            1.186 10.477 0.188,
            0.000 10.194 0.450,
            3.536 12.030 -1.599,
            2.366 10.866 -0.272,
            1.186 9.511 0.872,
            0.000 9.504 0.926,
            0.000 8.792 1.368,
            3.536 11.182 -0.804,
            2.366 9.930 0.439,
            4.689 11.421 -1.399,
            1.186 8.499 1.489,
            0.000 8.059 1.775,
            3.536 10.282 -0.069,
            2.366 8.947 1.086,
            4.689 10.560 -0.647,
            1.186 7.448 2.035,
            0.000 7.308 2.146,
            0.000 6.539 2.480,
            3.536 9.333 0.602,
            5.819 10.760 -1.287,
            2.366 7.923 1.663,
            4.689 9.650 0.045,
            1.186 6.363 2.508,
            0.000 5.756 2.777,
            3.536 8.341 1.207,
            5.819 9.894 -0.579,
            2.366 6.861 2.169,
            4.689 8.695 0.673,
            1.186 5.247 2.905,
            0.000 4.959 3.036,
            6.923 10.057 -1.263,
            3.536 7.309 1.743,
            5.819 8.981 0.067,
            2.366 5.767 2.601,
            4.689 7.700 1.234,
            1.186 4.107 3.225,
            0.000 4.150 3.256,
            0.000 3.332 3.437,
            6.923 9.191 -0.605,
            3.536 6.244 2.207,
            5.819 8.026 0.649,
            2.366 4.647 2.958,
            7.994 9.321 -1.333,
            4.689 6.668 1.726,
            1.186 2.947 3.467,
            0.000 2.506 3.578,
            6.923 8.281 -0.006,
            3.536 5.149 2.597,
            5.819 7.033 1.164,
            2.366 3.504 3.237,
            7.994 8.461 -0.724,
            4.689 5.605 2.146,
            1.186 1.774 3.628,
            0.000 1.674 3.679,
            0.000 0.838 3.740,
            6.923 7.333 0.528,
            3.536 4.030 2.911,
            9.028 8.559 -1.497,
            5.819 6.008 1.611,
            2.366 2.345 3.437,
            7.994 7.561 -0.176,
            4.689 4.516 2.493,
            1.186 0.592 3.709,
            0.000 -0.000 3.760,
            6.923 6.350 0.996,
            3.536 2.892 3.148,
            9.028 7.712 -0.940,
            5.819 4.954 1.986,
            2.366 1.175 3.558,
            7.994 6.626 0.310,
            4.689 3.406 2.764,
            1.186 -0.592 3.709,
            0.000 -0.838 3.740,
            6.923 5.338 1.397,
            3.536 1.741 3.306,
            9.028 6.829 -0.442,
            5.819 3.878 2.288,
            2.366 0.000 3.598,
            7.994 5.660 0.731,
            4.689 2.279 2.958,
            1.186 -1.774 3.628,
            0.000 -1.674 3.679,
            0.000 -2.506 3.578,
            10.020 6.955 -1.251,
            6.923 4.301 1.727,
            3.536 0.581 3.386,
            9.028 5.914 -0.006,
            5.819 2.783 2.516,
            2.366 -1.175 3.558,
            7.994 4.668 1.084,
            4.689 1.142 3.075,
            1.186 -2.947 3.467,
            0.000 -3.332 3.437,
            10.020 6.095 -0.804,
            6.923 3.243 1.985,
            3.536 -0.581 3.386,
            9.028 4.971 0.367,
            5.819 1.675 2.669,
            2.366 -2.345 3.437,
            10.965 6.198 -1.657,
            7.994 3.653 1.369,
            4.689 0.000 3.114,
            1.186 -4.107 3.225,
            0.000 -4.150 3.256,
            0.000 -4.959 3.036,
            10.020 5.206 -0.417,
            6.923 2.171 2.170,
            3.536 -1.741 3.306,
            9.028 4.005 0.674,
            5.819 0.559 2.745,
            2.366 -3.504 3.237,
            10.965 5.367 -1.262,
            7.994 2.622 1.584,
            4.689 -1.142 3.075,
            1.186 -5.247 2.905,
            0.000 -5.756 2.777,
            10.020 4.293 -0.092,
            6.923 1.088 2.282,
            3.536 -2.892 3.148,
            9.028 3.021 0.915,
            5.819 -0.559 2.745,
            2.366 -4.647 2.958,
            10.965 4.512 -0.923,
            7.994 1.578 1.727,
            4.689 -2.279 2.958,
            1.186 -6.363 2.508,
            0.000 -6.539 2.480,
            0.000 -7.308 2.146,
            10.020 3.360 0.170,
            6.923 0.000 2.319,
            3.536 -4.030 2.911,
            9.028 2.022 1.087,
            5.819 -1.675 2.669,
            2.366 -5.767 2.601,
            10.965 3.635 -0.644,
            7.994 0.527 1.799,
            4.689 -3.406 2.764,
            1.186 -7.448 2.035,
            0.000 -8.059 1.775,
            10.020 2.412 0.367,
            6.923 -1.088 2.282,
            3.536 -5.149 2.597,
            11.858 3.839 -1.521,
            9.028 1.013 1.191,
            5.819 -2.783 2.516,
            2.366 -6.861 2.169,
            10.965 2.741 -0.426,
            7.994 -0.527 1.799,
            4.689 -4.516 2.493,
            1.186 -8.499 1.489,
            0.000 -8.792 1.368,
            10.020 1.451 0.500,
            6.923 -2.171 2.170,
            3.536 -6.244 2.207,
            11.858 3.005 -1.286,
            9.028 0.000 1.226,
            5.819 -3.878 2.288,
            2.366 -7.923 1.663,
            10.965 1.835 -0.270,
            7.994 -1.578 1.727,
            4.689 -5.605 2.146,
            1.186 -9.511 0.872,
            0.000 -9.504 0.926,
            0.000 -10.194 0.450,
            10.020 0.485 0.566,
            6.923 -3.243 1.985,
            3.536 -7.309 1.743,
            11.858 2.156 -1.110,
            9.028 -1.013 1.191,
            5.819 -4.954 1.986,
            2.366 -8.947 1.086,
            10.965 0.919 -0.175,
            7.994 -2.622 1.584,
            4.689 -6.668 1.726,
            1.186 -10.477 0.188,
            0.000 -10.860 -0.059,
            10.020 -0.485 0.566,
            6.923 -4.301 1.727,
            3.536 -8.341 1.207,
            11.858 1.298 -0.991,
            9.028 -2.022 1.087,
            5.819 -6.008 1.611,
            2.366 -9.930 0.439,
            10.965 0.000 -0.144,
            7.994 -3.653 1.369,
            4.689 -7.700 1.234,
            1.186 -11.395 -0.561,
            0.000 -11.500 -0.599,
            10.020 -1.451 0.500,
            6.923 -5.338 1.397,
            3.536 -9.333 0.602,
            11.858 0.433 -0.932,
            9.028 -3.021 0.915,
            5.819 -7.033 1.164,
            2.366 -10.866 -0.272,
            10.965 -0.919 -0.175,
            7.994 -4.668 1.084,
            4.689 -8.695 0.673,
            1.186 -12.259 -1.370,
            10.020 -2.412 0.367,
            6.923 -6.350 0.996,
            3.536 -10.282 -0.069,
            11.858 -0.433 -0.932,
            9.028 -4.005 0.674,
            5.819 -8.026 0.649,
            2.366 -11.751 -1.047,
            10.965 -1.835 -0.270,
            7.994 -5.660 0.731,
            4.689 -9.650 0.045,
            10.020 -3.360 0.170,
            6.923 -7.333 0.528,
            3.536 -11.182 -0.804,
            11.858 -1.298 -0.991,
            9.028 -4.971 0.367,
            5.819 -8.981 0.067,
            10.965 -2.741 -0.426,
            7.994 -6.626 0.310,
            4.689 -10.560 -0.647,
            10.020 -4.293 -0.092,
            6.923 -8.281 -0.006,
            3.536 -12.030 -1.599,
            11.858 -2.156 -1.110,
            9.028 -5.914 -0.006,
            5.819 -9.894 -0.579,
            10.965 -3.635 -0.644,
            7.994 -7.561 -0.176,
            4.689 -11.421 -1.399,
            10.020 -5.206 -0.417,
            6.923 -9.191 -0.605,
            11.858 -3.005 -1.286,
            9.028 -6.829 -0.442,
            5.819 -10.760 -1.287,
            10.965 -4.512 -0.923,
            7.994 -8.461 -0.724,
            10.020 -6.095 -0.804,
            6.923 -10.057 -1.263,
            11.858 -3.839 -1.521,
            9.028 -7.712 -0.940,
            10.965 -5.367 -1.262,
            7.994 -9.321 -1.333,
            10.020 -6.955 -1.251,
            9.028 -8.559 -1.497,
            10.965 -6.198 -1.657,
            -8.163 -9.729 -3.760,
            -8.638 -9.310 -3.760,
            -9.092 -8.868 -3.760,
            -10.312 -7.414 -3.760,
            -9.522 -8.403 -3.760,
            -9.929 -7.918 -3.760,
            -7.154 -10.493 -3.760,
            -7.668 -10.124 -3.760,
            -10.999 -6.350 -3.760,
            -10.668 -6.890 -3.760,
            -5.510 -11.442 -3.760,
            -6.074 -11.153 -3.760,
            -6.622 -10.837 -3.760,
            -11.576 -5.223 -3.760,
            -11.301 -5.794 -3.760,
            -12.039 -4.045 -3.760,
            -11.822 -4.640 -3.760,
            -3.134 -12.307 -3.760,
            -3.743 -12.136 -3.760,
            -4.344 -11.934 -3.760,
            -4.933 -11.703 -3.760,
            -12.382 -2.826 -3.760,
            -12.225 -3.440 -3.760,
            -12.601 -1.579 -3.760,
            -12.507 -2.205 -3.760,
            -1.265 -12.637 -3.760,
            -1.893 -12.558 -3.760,
            -2.516 -12.448 -3.760,
            -0.633 -12.684 -3.760,
            -12.382 2.826 -3.760,
            -12.696 0.317 -3.760,
            -12.664 0.949 -3.760,
            -12.601 1.579 -3.760,
            -12.507 2.205 -3.760,
            -12.225 3.440 -3.760,
            -12.696 -0.317 -3.760,
            -11.822 4.640 -3.760,
            -12.039 4.045 -3.760,
            -12.664 -0.949 -3.760,
            -11.301 5.794 -3.760,
            -11.576 5.223 -3.760,
            -10.999 6.350 -3.760,
            -10.312 7.414 -3.760,
            -10.668 6.890 -3.760,
            -9.522 8.403 -3.760,
            -9.929 7.918 -3.760,
            -8.638 9.310 -3.760,
            -9.092 8.868 -3.760,
            -7.154 10.493 -3.760,
            -8.163 9.729 -3.760,
            -7.668 10.124 -3.760,
            -4.933 11.703 -3.760,
            -6.074 11.153 -3.760,
            -5.510 11.442 -3.760,
            -3.743 12.136 -3.760,
            -4.344 11.934 -3.760,
            -3.134 12.307 -3.760,
            -6.622 10.837 -3.760,
            -1.893 12.558 -3.760,
            -2.516 12.448 -3.760,
            -1.265 12.637 -3.760,
            -0.633 12.684 -3.760,
            -0.633 12.684 -1.769,
            -0.633 -12.684 -1.769,
            -10.965 6.198 -1.657,
            -10.999 6.350 -1.769,
            -11.301 5.794 -1.769,
            -10.668 6.890 -1.769,
            -9.028 8.559 -1.497,
            -9.092 8.868 -1.769,
            -9.522 8.403 -1.769,
            -8.638 9.310 -1.769,
            -10.020 6.955 -1.251,
            -10.312 7.414 -1.769,
            -9.929 7.918 -1.769,
            -7.994 9.321 -1.333,
            -8.163 9.729 -1.769,
            -7.668 10.124 -1.769,
            -10.965 5.367 -1.262,
            -11.576 5.223 -1.769,
            -11.822 4.640 -1.769,
            -9.028 7.712 -0.940,
            -11.858 3.839 -1.521,
            -12.039 4.045 -1.769,
            -12.225 3.440 -1.769,
            -6.923 10.057 -1.263,
            -7.154 10.493 -1.769,
            -6.622 10.837 -1.769,
            -10.020 6.095 -0.804,
            -7.994 8.461 -0.724,
            -10.965 4.512 -0.923,
            -5.819 10.760 -1.287,
            -6.074 11.153 -1.769,
            -5.510 11.442 -1.769,
            -9.028 6.829 -0.442,
            -11.858 3.005 -1.286,
            -12.382 2.826 -1.769,
            -6.923 9.191 -0.605,
            -10.020 5.206 -0.417,
            -4.689 11.421 -1.399,
            -4.933 11.703 -1.769,
            -4.344 11.934 -1.769,
            -7.994 7.561 -0.176,
            -10.965 3.635 -0.644,
            -5.819 9.894 -0.579,
            -9.028 5.914 -0.006,
            -11.858 2.156 -1.110,
            -12.507 2.205 -1.769,
            -12.601 1.579 -1.769,
            -3.536 12.030 -1.599,
            -3.743 12.136 -1.769,
            -3.134 12.307 -1.769,
            -6.923 8.281 -0.006,
            -10.020 4.293 -0.092,
            -4.689 10.560 -0.647,
            -7.994 6.626 0.310,
            -10.965 2.741 -0.426,
            -5.819 8.981 0.067,
            -9.028 4.971 0.367,
            -11.858 1.298 -0.991,
            -12.664 0.949 -1.769,
            -3.536 11.182 -0.804,
            -6.923 7.333 0.528,
            -10.020 3.360 0.170,
            -4.689 9.650 0.045,
            -7.994 5.660 0.731,
            -10.965 1.835 -0.270,
            -2.366 11.751 -1.047,
            -2.516 12.448 -1.769,
            -1.893 12.558 -1.769,
            -5.819 8.026 0.649,
            -9.028 4.005 0.674,
            -11.858 0.433 -0.932,
            -12.696 0.317 -1.769,
            -12.696 -0.317 -1.769,
            -3.536 10.282 -0.069,
            -6.923 6.350 0.996,
            -10.020 2.412 0.367,
            -1.186 12.259 -1.370,
            -1.265 12.637 -1.769,
            -4.689 8.695 0.673,
            -7.994 4.668 1.084,
            -10.965 0.919 -0.175,
            -2.366 10.866 -0.272,
            -5.819 7.033 1.164,
            -9.028 3.021 0.915,
            -11.858 -0.433 -0.932,
            -12.664 -0.949 -1.769,
            -3.536 9.333 0.602,
            -6.923 5.338 1.397,
            -10.020 1.451 0.500,
            -1.186 11.395 -0.561,
            -4.689 7.700 1.234,
            -7.994 3.653 1.369,
            -10.965 0.000 -0.144,
            -2.366 9.930 0.439,
            -5.819 6.008 1.611,
            -9.028 2.022 1.087,
            -11.858 -1.298 -0.991,
            -12.601 -1.579 -1.769,
            -3.536 8.341 1.207,
            -6.923 4.301 1.727,
            -10.020 0.485 0.566,
            -1.186 10.477 0.188,
            -4.689 6.668 1.726,
            -7.994 2.622 1.584,
            -10.965 -0.919 -0.175,
            -2.366 8.947 1.086,
            -5.819 4.954 1.986,
            -9.028 1.013 1.191,
            -11.858 -2.156 -1.110,
            -12.507 -2.205 -1.769,
            -12.382 -2.826 -1.769,
            -3.536 7.309 1.743,
            -6.923 3.243 1.985,
            -10.020 -0.485 0.566,
            -1.186 9.511 0.872,
            -4.689 5.605 2.146,
            -7.994 1.578 1.727,
            -10.965 -1.835 -0.270,
            -2.366 7.923 1.663,
            -5.819 3.878 2.288,
            -9.028 0.000 1.226,
            -11.858 -3.005 -1.286,
            -12.225 -3.440 -1.769,
            -3.536 6.244 2.207,
            -6.923 2.171 2.170,
            -10.020 -1.451 0.500,
            -1.186 8.499 1.489,
            -4.689 4.516 2.493,
            -7.994 0.527 1.799,
            -10.965 -2.741 -0.426,
            -2.366 6.861 2.169,
            -5.819 2.783 2.516,
            -9.028 -1.013 1.191,
            -11.858 -3.839 -1.521,
            -12.039 -4.045 -1.769,
            -11.822 -4.640 -1.769,
            -3.536 5.149 2.597,
            -6.923 1.088 2.282,
            -10.020 -2.412 0.367,
            -1.186 7.448 2.035,
            -4.689 3.406 2.764,
            -7.994 -0.527 1.799,
            -10.965 -3.635 -0.644,
            -2.366 5.767 2.601,
            -5.819 1.675 2.669,
            -9.028 -2.022 1.087,
            -3.536 4.030 2.911,
            -6.923 0.000 2.319,
            -10.020 -3.360 0.170,
            -1.186 6.363 2.508,
            -4.689 2.279 2.958,
            -7.994 -1.578 1.727,
            -10.965 -4.512 -0.923,
            -2.366 4.647 2.958,
            -5.819 0.559 2.745,
            -9.028 -3.021 0.915,
            -3.536 2.892 3.148,
            -6.923 -1.088 2.282,
            -10.020 -4.293 -0.092,
            -1.186 5.247 2.905,
            -4.689 1.142 3.075,
            -7.994 -2.622 1.584,
            -10.965 -5.367 -1.262,
            -11.576 -5.223 -1.769,
            -11.301 -5.794 -1.769,
            -2.366 3.504 3.237,
            -5.819 -0.559 2.745,
            -9.028 -4.005 0.674,
            -3.536 1.741 3.306,
            -6.923 -2.171 2.170,
            -10.020 -5.206 -0.417,
            -1.186 4.107 3.225,
            -4.689 0.000 3.114,
            -7.994 -3.653 1.369,
            -10.965 -6.198 -1.657,
            -10.999 -6.350 -1.769,
            -10.668 -6.890 -1.769,
            -2.366 2.345 3.437,
            -5.819 -1.675 2.669,
            -9.028 -4.971 0.367,
            -3.536 0.581 3.386,
            -6.923 -3.243 1.985,
            -10.020 -6.095 -0.804,
            -1.186 2.947 3.467,
            -4.689 -1.142 3.075,
            -7.994 -4.668 1.084,
            -2.366 1.175 3.558,
            -5.819 -2.783 2.516,
            -9.028 -5.914 -0.006,
            -3.536 -0.581 3.386,
            -6.923 -4.301 1.727,
            -10.020 -6.955 -1.251,
            -10.312 -7.414 -1.769,
            -9.929 -7.918 -1.769,
            -1.186 1.774 3.628,
            -4.689 -2.279 2.958,
            -7.994 -5.660 0.731,
            -2.366 0.000 3.598,
            -5.819 -3.878 2.288,
            -9.028 -6.829 -0.442,
            -3.536 -1.741 3.306,
            -6.923 -5.338 1.397,
            -1.186 0.592 3.709,
            -4.689 -3.406 2.764,
            -7.994 -6.626 0.310,
            -2.366 -1.175 3.558,
            -5.819 -4.954 1.986,
            -9.028 -7.712 -0.940,
            -9.522 -8.403 -1.769,
            -3.536 -2.892 3.148,
            -6.923 -6.350 0.996,
            -1.186 -0.592 3.709,
            -4.689 -4.516 2.493,
            -7.994 -7.561 -0.176,
            -2.366 -2.345 3.437,
            -5.819 -6.008 1.611,
            -9.028 -8.559 -1.497,
            -9.092 -8.868 -1.769,
            -8.638 -9.310 -1.769,
            -3.536 -4.030 2.911,
            -6.923 -7.333 0.528,
            -1.186 -1.774 3.628,
            -4.689 -5.605 2.146,
            -7.994 -8.461 -0.724,
            -2.366 -3.504 3.237,
            -5.819 -7.033 1.164,
            -3.536 -5.149 2.597,
            -6.923 -8.281 -0.006,
            -1.186 -2.947 3.467,
            -4.689 -6.668 1.726,
            -7.994 -9.321 -1.333,
            -8.163 -9.729 -1.769,
            -7.668 -10.124 -1.769,
            -2.366 -4.647 2.958,
            -5.819 -8.026 0.649,
            -3.536 -6.244 2.207,
            -6.923 -9.191 -0.605,
            -1.186 -4.107 3.225,
            -4.689 -7.700 1.234,
            -2.366 -5.767 2.601,
            -5.819 -8.981 0.067,
            -3.536 -7.309 1.743,
            -6.923 -10.057 -1.263,
            -7.154 -10.493 -1.769,
            -6.622 -10.837 -1.769,
            -1.186 -5.247 2.905,
            -4.689 -8.695 0.673,
            -2.366 -6.861 2.169,
            -5.819 -9.894 -0.579,
            -3.536 -8.341 1.207,
            -1.186 -6.363 2.508,
            -4.689 -9.650 0.045,
            -2.366 -7.923 1.663,
            -5.819 -10.760 -1.287,
            -6.074 -11.153 -1.769,
            -5.510 -11.442 -1.769,
            -3.536 -9.333 0.602,
            -1.186 -7.448 2.035,
            -4.689 -10.560 -0.647,
            -2.366 -8.947 1.086,
            -3.536 -10.282 -0.069,
            -1.186 -8.499 1.489,
            -4.689 -11.421 -1.399,
            -4.933 -11.703 -1.769,
            -4.344 -11.934 -1.769,
            -2.366 -9.930 0.439,
            -3.536 -11.182 -0.804,
            -1.186 -9.511 0.872,
            -2.366 -10.866 -0.272,
            -3.536 -12.030 -1.599,
            -3.743 -12.136 -1.769,
            -3.134 -12.307 -1.769,
            -1.186 -10.477 0.188,
            -2.366 -11.751 -1.047,
            -2.516 -12.448 -1.769,
            -1.893 -12.558 -1.769,
            -1.186 -11.395 -0.561,
            -1.186 -12.259 -1.370,
            -1.265 -12.637 -1.769
          ]
        }
        coordIndex [
          0, 1, 2, -1,
          0, 3, 1, -1,
          4, 2, 5, -1,
          4, 0, 2, -1,
          6, 5, 7, -1,
          6, 4, 5, -1,
          8, 7, 9, -1,
          8, 6, 7, -1,
          10, 9, 11, -1,
          10, 8, 9, -1,
          12, 11, 13, -1,
          12, 13, 14, -1,
          12, 10, 11, -1,
          15, 12, 14, -1,
          16, 14, 17, -1,
          16, 15, 14, -1,
          18, 17, 19, -1,
          18, 19, 20, -1,
          18, 16, 17, -1,
          21, 18, 20, -1,
          22, 20, 23, -1,
          22, 23, 24, -1,
          22, 21, 20, -1,
          25, 22, 24, -1,
          26, 24, 27, -1,
          26, 27, 28, -1,
          26, 25, 24, -1,
          29, 26, 28, -1,
          30, 28, 31, -1,
          30, 31, 32, -1,
          30, 29, 28, -1,
          33, 30, 32, -1,
          34, 33, 32, -1,
          34, 32, 35, -1,
          36, 35, 37, -1,
          36, 37, 38, -1,
          36, 34, 35, -1,
          39, 36, 38, -1,
          40, 39, 38, -1,
          40, 38, 41, -1,
          42, 40, 41, -1,
          42, 41, 43, -1,
          44, 42, 43, -1,
          44, 43, 45, -1,
          44, 45, 46, -1,
          47, 44, 46, -1,
          48, 46, 49, -1,
          48, 47, 46, -1,
          50, 49, 51, -1,
          50, 48, 49, -1,
          52, 51, 53, -1,
          52, 50, 51, -1,
          54, 53, 55, -1,
          54, 52, 53, -1,
          56, 55, 57, -1,
          56, 54, 55, -1,
          58, 57, 59, -1,
          58, 56, 57, -1,
          60, 59, 61, -1,
          60, 58, 59, -1,
          62, 61, 63, -1,
          62, 60, 61, -1,
          64, 63, 65, -1,
          64, 62, 63, -1,
          66, 65, 67, -1,
          66, 64, 65, -1,
          68, 67, 69, -1,
          68, 69, 70, -1,
          68, 66, 67, -1,
          71, 68, 70, -1,
          72, 70, 73, -1,
          72, 73, 74, -1,
          72, 71, 70, -1,
          75, 72, 74, -1,
          76, 74, 77, -1,
          76, 75, 74, -1,
          78, 77, 79, -1,
          78, 79, 80, -1,
          78, 76, 77, -1,
          81, 80, 82, -1,
          81, 78, 80, -1,
          83, 81, 82, -1,
          84, 82, 85, -1,
          84, 85, 86, -1,
          84, 83, 82, -1,
          87, 84, 86, -1,
          88, 87, 86, -1,
          88, 86, 89, -1,
          90, 88, 89, -1,
          90, 89, 91, -1,
          90, 91, 92, -1,
          93, 90, 92, -1,
          94, 93, 92, -1,
          94, 92, 95, -1,
          96, 94, 95, -1,
          96, 95, 97, -1,
          98, 96, 97, -1,
          98, 97, 99, -1,
          100, 98, 99, -1,
          100, 99, 101, -1,
          102, 100, 101, -1,
          102, 101, 103, -1,
          104, 102, 103, -1,
          104, 103, 105, -1,
          106, 104, 105, -1,
          106, 105, 107, -1,
          108, 106, 107, -1,
          108, 107, 109, -1,
          110, 108, 109, -1,
          110, 109, 111, -1,
          112, 111, 113, -1,
          112, 110, 111, -1,
          114, 113, 115, -1,
          114, 112, 113, -1,
          116, 115, 117, -1,
          116, 114, 115, -1,
          118, 117, 119, -1,
          118, 116, 117, -1,
          120, 119, 121, -1,
          120, 121, 122, -1,
          120, 118, 119, -1,
          123, 120, 122, -1,
          124, 122, 125, -1,
          124, 125, 126, -1,
          124, 123, 122, -1,
          127, 124, 126, -1,
          128, 2, 1, -1,
          125, 129, 126, -1,
          130, 2, 128, -1,
          130, 5, 2, -1,
          130, 7, 5, -1,
          131, 132, 133, -1,
          131, 128, 132, -1,
          131, 130, 128, -1,
          134, 7, 130, -1,
          134, 9, 7, -1,
          134, 11, 9, -1,
          134, 130, 131, -1,
          135, 133, 136, -1,
          135, 131, 133, -1,
          137, 11, 134, -1,
          137, 13, 11, -1,
          137, 14, 13, -1,
          138, 131, 135, -1,
          138, 134, 131, -1,
          139, 140, 141, -1,
          139, 136, 140, -1,
          139, 135, 136, -1,
          142, 134, 138, -1,
          142, 137, 134, -1,
          142, 14, 137, -1,
          143, 135, 139, -1,
          143, 138, 135, -1,
          144, 17, 14, -1,
          144, 19, 17, -1,
          144, 14, 142, -1,
          145, 141, 146, -1,
          145, 139, 141, -1,
          147, 142, 138, -1,
          147, 138, 143, -1,
          148, 139, 145, -1,
          148, 143, 139, -1,
          149, 142, 147, -1,
          149, 144, 142, -1,
          150, 151, 152, -1,
          150, 146, 151, -1,
          150, 145, 146, -1,
          153, 143, 148, -1,
          153, 147, 143, -1,
          154, 19, 144, -1,
          154, 144, 149, -1,
          154, 20, 19, -1,
          154, 23, 20, -1,
          155, 148, 145, -1,
          155, 145, 150, -1,
          156, 149, 147, -1,
          156, 147, 153, -1,
          157, 152, 158, -1,
          157, 150, 152, -1,
          159, 148, 155, -1,
          159, 153, 148, -1,
          160, 149, 156, -1,
          160, 154, 149, -1,
          161, 150, 157, -1,
          161, 155, 150, -1,
          162, 156, 153, -1,
          162, 153, 159, -1,
          163, 157, 158, -1,
          163, 158, 164, -1,
          165, 154, 160, -1,
          165, 24, 23, -1,
          165, 27, 24, -1,
          165, 23, 154, -1,
          166, 159, 155, -1,
          166, 155, 161, -1,
          167, 156, 162, -1,
          167, 160, 156, -1,
          168, 157, 163, -1,
          168, 161, 157, -1,
          169, 162, 159, -1,
          169, 159, 166, -1,
          170, 171, 172, -1,
          170, 164, 171, -1,
          170, 163, 164, -1,
          173, 165, 160, -1,
          173, 160, 167, -1,
          174, 166, 161, -1,
          174, 161, 168, -1,
          175, 162, 169, -1,
          175, 167, 162, -1,
          176, 168, 163, -1,
          176, 163, 170, -1,
          177, 165, 173, -1,
          177, 28, 27, -1,
          177, 31, 28, -1,
          177, 27, 165, -1,
          178, 169, 166, -1,
          178, 166, 174, -1,
          179, 172, 180, -1,
          179, 170, 172, -1,
          181, 167, 175, -1,
          181, 173, 167, -1,
          182, 174, 168, -1,
          182, 168, 176, -1,
          183, 169, 178, -1,
          183, 175, 169, -1,
          184, 170, 179, -1,
          184, 176, 170, -1,
          185, 177, 173, -1,
          185, 173, 181, -1,
          186, 174, 182, -1,
          186, 178, 174, -1,
          187, 188, 189, -1,
          187, 180, 188, -1,
          187, 179, 180, -1,
          190, 181, 175, -1,
          190, 175, 183, -1,
          191, 182, 176, -1,
          191, 176, 184, -1,
          192, 177, 185, -1,
          192, 32, 31, -1,
          192, 35, 32, -1,
          192, 31, 177, -1,
          193, 183, 178, -1,
          193, 178, 186, -1,
          194, 179, 187, -1,
          194, 184, 179, -1,
          195, 185, 181, -1,
          195, 181, 190, -1,
          196, 186, 182, -1,
          196, 182, 191, -1,
          197, 189, 198, -1,
          197, 187, 189, -1,
          199, 190, 183, -1,
          199, 183, 193, -1,
          200, 184, 194, -1,
          200, 191, 184, -1,
          201, 192, 185, -1,
          201, 35, 192, -1,
          201, 37, 35, -1,
          201, 185, 195, -1,
          202, 186, 196, -1,
          202, 193, 186, -1,
          203, 187, 197, -1,
          203, 194, 187, -1,
          204, 190, 199, -1,
          204, 195, 190, -1,
          205, 191, 200, -1,
          205, 196, 191, -1,
          206, 198, 207, -1,
          206, 197, 198, -1,
          208, 199, 193, -1,
          208, 193, 202, -1,
          209, 200, 194, -1,
          209, 194, 203, -1,
          210, 201, 195, -1,
          210, 195, 204, -1,
          211, 202, 196, -1,
          211, 196, 205, -1,
          212, 197, 206, -1,
          212, 203, 197, -1,
          213, 199, 208, -1,
          213, 204, 199, -1,
          214, 205, 200, -1,
          214, 200, 209, -1,
          215, 207, 216, -1,
          215, 216, 217, -1,
          215, 206, 207, -1,
          218, 37, 201, -1,
          218, 201, 210, -1,
          218, 38, 37, -1,
          218, 41, 38, -1,
          219, 208, 202, -1,
          219, 202, 211, -1,
          220, 209, 203, -1,
          220, 203, 212, -1,
          221, 204, 213, -1,
          221, 210, 204, -1,
          222, 211, 205, -1,
          222, 205, 214, -1,
          223, 206, 215, -1,
          223, 212, 206, -1,
          224, 213, 208, -1,
          224, 208, 219, -1,
          225, 209, 220, -1,
          225, 214, 209, -1,
          226, 217, 227, -1,
          226, 215, 217, -1,
          228, 210, 221, -1,
          228, 218, 210, -1,
          229, 219, 211, -1,
          229, 211, 222, -1,
          230, 220, 212, -1,
          230, 212, 223, -1,
          231, 213, 224, -1,
          231, 221, 213, -1,
          232, 222, 214, -1,
          232, 214, 225, -1,
          233, 215, 226, -1,
          233, 223, 215, -1,
          234, 218, 228, -1,
          234, 43, 41, -1,
          234, 45, 43, -1,
          234, 41, 218, -1,
          235, 219, 229, -1,
          235, 224, 219, -1,
          236, 225, 220, -1,
          236, 220, 230, -1,
          237, 227, 238, -1,
          237, 238, 239, -1,
          237, 226, 227, -1,
          240, 221, 231, -1,
          240, 228, 221, -1,
          241, 222, 232, -1,
          241, 229, 222, -1,
          242, 223, 233, -1,
          242, 230, 223, -1,
          243, 224, 235, -1,
          243, 231, 224, -1,
          244, 232, 225, -1,
          244, 225, 236, -1,
          245, 226, 237, -1,
          245, 233, 226, -1,
          246, 45, 234, -1,
          246, 228, 240, -1,
          246, 46, 45, -1,
          246, 49, 46, -1,
          246, 234, 228, -1,
          247, 229, 241, -1,
          247, 235, 229, -1,
          248, 236, 230, -1,
          248, 230, 242, -1,
          249, 237, 239, -1,
          249, 239, 250, -1,
          251, 231, 243, -1,
          251, 240, 231, -1,
          252, 241, 232, -1,
          252, 232, 244, -1,
          253, 242, 233, -1,
          253, 233, 245, -1,
          254, 235, 247, -1,
          254, 243, 235, -1,
          255, 236, 248, -1,
          255, 244, 236, -1,
          256, 237, 249, -1,
          256, 245, 237, -1,
          257, 246, 240, -1,
          257, 49, 246, -1,
          257, 240, 251, -1,
          258, 241, 252, -1,
          258, 247, 241, -1,
          259, 248, 242, -1,
          259, 242, 253, -1,
          260, 250, 261, -1,
          260, 261, 262, -1,
          260, 249, 250, -1,
          263, 251, 243, -1,
          263, 243, 254, -1,
          264, 252, 244, -1,
          264, 244, 255, -1,
          265, 253, 245, -1,
          265, 245, 256, -1,
          266, 247, 258, -1,
          266, 254, 247, -1,
          267, 248, 259, -1,
          267, 255, 248, -1,
          268, 249, 260, -1,
          268, 256, 249, -1,
          269, 257, 251, -1,
          269, 251, 263, -1,
          270, 252, 264, -1,
          270, 258, 252, -1,
          271, 253, 265, -1,
          271, 259, 253, -1,
          272, 262, 273, -1,
          272, 260, 262, -1,
          274, 254, 266, -1,
          274, 263, 254, -1,
          275, 255, 267, -1,
          275, 264, 255, -1,
          276, 265, 256, -1,
          276, 256, 268, -1,
          277, 257, 269, -1,
          277, 49, 257, -1,
          277, 51, 49, -1,
          277, 53, 51, -1,
          278, 258, 270, -1,
          278, 266, 258, -1,
          279, 267, 259, -1,
          279, 259, 271, -1,
          280, 268, 260, -1,
          280, 260, 272, -1,
          281, 269, 263, -1,
          281, 263, 274, -1,
          282, 264, 275, -1,
          282, 270, 264, -1,
          283, 265, 276, -1,
          283, 271, 265, -1,
          284, 273, 285, -1,
          284, 272, 273, -1,
          286, 274, 266, -1,
          286, 266, 278, -1,
          287, 267, 279, -1,
          287, 275, 267, -1,
          288, 276, 268, -1,
          288, 268, 280, -1,
          289, 269, 281, -1,
          289, 53, 277, -1,
          289, 277, 269, -1,
          289, 55, 53, -1,
          290, 278, 270, -1,
          290, 270, 282, -1,
          291, 279, 271, -1,
          291, 271, 283, -1,
          292, 272, 284, -1,
          292, 280, 272, -1,
          293, 274, 286, -1,
          293, 281, 274, -1,
          294, 282, 275, -1,
          294, 275, 287, -1,
          295, 283, 276, -1,
          295, 276, 288, -1,
          296, 285, 297, -1,
          296, 297, 298, -1,
          296, 284, 285, -1,
          299, 278, 290, -1,
          299, 286, 278, -1,
          300, 287, 279, -1,
          300, 279, 291, -1,
          301, 280, 292, -1,
          301, 288, 280, -1,
          302, 289, 281, -1,
          302, 281, 293, -1,
          302, 57, 55, -1,
          302, 59, 57, -1,
          302, 55, 289, -1,
          303, 282, 294, -1,
          303, 290, 282, -1,
          304, 291, 283, -1,
          304, 283, 295, -1,
          305, 292, 284, -1,
          305, 284, 296, -1,
          306, 286, 299, -1,
          306, 293, 286, -1,
          307, 287, 300, -1,
          307, 294, 287, -1,
          308, 288, 301, -1,
          308, 295, 288, -1,
          309, 296, 298, -1,
          309, 298, 310, -1,
          311, 290, 303, -1,
          311, 299, 290, -1,
          312, 300, 291, -1,
          312, 291, 304, -1,
          313, 292, 305, -1,
          313, 301, 292, -1,
          314, 59, 302, -1,
          314, 302, 293, -1,
          314, 293, 306, -1,
          314, 61, 59, -1,
          315, 294, 307, -1,
          315, 303, 294, -1,
          316, 304, 295, -1,
          316, 295, 308, -1,
          317, 296, 309, -1,
          317, 305, 296, -1,
          318, 299, 311, -1,
          318, 306, 299, -1,
          319, 300, 312, -1,
          319, 307, 300, -1,
          320, 308, 301, -1,
          320, 301, 313, -1,
          321, 309, 310, -1,
          321, 310, 322, -1,
          321, 322, 129, -1,
          323, 311, 303, -1,
          323, 303, 315, -1,
          324, 312, 304, -1,
          324, 304, 316, -1,
          325, 313, 305, -1,
          325, 305, 317, -1,
          326, 306, 318, -1,
          326, 314, 306, -1,
          326, 61, 314, -1,
          326, 63, 61, -1,
          327, 307, 319, -1,
          327, 315, 307, -1,
          328, 308, 320, -1,
          328, 316, 308, -1,
          329, 309, 321, -1,
          329, 317, 309, -1,
          330, 311, 323, -1,
          330, 318, 311, -1,
          331, 312, 324, -1,
          331, 319, 312, -1,
          332, 313, 325, -1,
          332, 320, 313, -1,
          333, 129, 125, -1,
          333, 321, 129, -1,
          333, 122, 121, -1,
          333, 125, 122, -1,
          334, 315, 327, -1,
          334, 323, 315, -1,
          335, 316, 328, -1,
          335, 324, 316, -1,
          336, 325, 317, -1,
          336, 317, 329, -1,
          337, 326, 318, -1,
          337, 318, 330, -1,
          337, 65, 63, -1,
          337, 67, 65, -1,
          337, 63, 326, -1,
          338, 327, 319, -1,
          338, 319, 331, -1,
          339, 320, 332, -1,
          339, 328, 320, -1,
          340, 321, 333, -1,
          340, 333, 121, -1,
          340, 329, 321, -1,
          340, 119, 117, -1,
          340, 121, 119, -1,
          341, 323, 334, -1,
          341, 330, 323, -1,
          342, 331, 324, -1,
          342, 324, 335, -1,
          343, 332, 325, -1,
          343, 325, 336, -1,
          344, 334, 327, -1,
          344, 327, 338, -1,
          345, 335, 328, -1,
          345, 328, 339, -1,
          346, 329, 340, -1,
          346, 336, 329, -1,
          347, 67, 337, -1,
          347, 337, 330, -1,
          347, 69, 67, -1,
          347, 330, 341, -1,
          348, 338, 331, -1,
          348, 331, 342, -1,
          349, 339, 332, -1,
          349, 332, 343, -1,
          350, 334, 344, -1,
          350, 341, 334, -1,
          351, 335, 345, -1,
          351, 342, 335, -1,
          352, 336, 346, -1,
          352, 343, 336, -1,
          353, 338, 348, -1,
          353, 344, 338, -1,
          354, 339, 349, -1,
          354, 345, 339, -1,
          355, 340, 117, -1,
          355, 113, 346, -1,
          355, 346, 340, -1,
          355, 115, 113, -1,
          355, 117, 115, -1,
          356, 341, 350, -1,
          356, 347, 341, -1,
          356, 69, 347, -1,
          356, 70, 69, -1,
          356, 73, 70, -1,
          357, 342, 351, -1,
          357, 348, 342, -1,
          358, 343, 352, -1,
          358, 349, 343, -1,
          359, 350, 344, -1,
          359, 344, 353, -1,
          360, 351, 345, -1,
          360, 345, 354, -1,
          361, 352, 346, -1,
          361, 346, 113, -1,
          361, 111, 109, -1,
          361, 113, 111, -1,
          362, 353, 348, -1,
          362, 348, 357, -1,
          363, 349, 358, -1,
          363, 354, 349, -1,
          364, 356, 350, -1,
          364, 350, 359, -1,
          364, 73, 356, -1,
          364, 74, 73, -1,
          365, 351, 360, -1,
          365, 357, 351, -1,
          366, 358, 352, -1,
          366, 352, 361, -1,
          366, 361, 109, -1,
          366, 107, 105, -1,
          366, 109, 107, -1,
          367, 359, 353, -1,
          367, 353, 362, -1,
          368, 360, 354, -1,
          368, 354, 363, -1,
          369, 362, 357, -1,
          369, 357, 365, -1,
          370, 363, 358, -1,
          370, 358, 366, -1,
          370, 103, 101, -1,
          370, 105, 103, -1,
          370, 366, 105, -1,
          371, 364, 359, -1,
          371, 359, 367, -1,
          371, 77, 74, -1,
          371, 79, 77, -1,
          371, 367, 79, -1,
          371, 74, 364, -1,
          372, 365, 360, -1,
          372, 360, 368, -1,
          372, 92, 91, -1,
          373, 367, 362, -1,
          373, 80, 79, -1,
          373, 82, 80, -1,
          373, 79, 367, -1,
          373, 362, 369, -1,
          374, 370, 101, -1,
          374, 99, 97, -1,
          374, 101, 99, -1,
          374, 368, 363, -1,
          374, 363, 370, -1,
          375, 365, 372, -1,
          375, 372, 91, -1,
          375, 89, 86, -1,
          375, 91, 89, -1,
          375, 369, 365, -1,
          376, 374, 97, -1,
          376, 92, 372, -1,
          376, 95, 92, -1,
          376, 97, 95, -1,
          376, 368, 374, -1,
          376, 372, 368, -1,
          377, 373, 369, -1,
          377, 369, 375, -1,
          377, 82, 373, -1,
          377, 375, 86, -1,
          377, 85, 82, -1,
          377, 86, 85, -1,
          378, 379, 380, -1,
          381, 380, 382, -1,
          381, 382, 383, -1,
          384, 385, 378, -1,
          386, 380, 381, -1,
          386, 381, 387, -1,
          388, 378, 380, -1,
          388, 384, 378, -1,
          388, 389, 390, -1,
          388, 390, 384, -1,
          391, 388, 380, -1,
          391, 380, 386, -1,
          391, 386, 392, -1,
          393, 391, 394, -1,
          395, 396, 397, -1,
          395, 397, 398, -1,
          395, 398, 388, -1,
          399, 393, 400, -1,
          401, 393, 399, -1,
          401, 399, 402, -1,
          403, 404, 405, -1,
          406, 403, 405, -1,
          127, 405, 395, -1,
          127, 395, 388, -1,
          127, 406, 405, -1,
          120, 123, 124, -1,
          120, 124, 127, -1,
          407, 408, 409, -1,
          407, 409, 410, -1,
          407, 410, 411, -1,
          412, 413, 408, -1,
          412, 408, 407, -1,
          114, 120, 127, -1,
          114, 116, 118, -1,
          114, 118, 120, -1,
          114, 127, 388, -1,
          414, 412, 415, -1,
          414, 413, 412, -1,
          414, 416, 413, -1,
          110, 114, 388, -1,
          110, 388, 391, -1,
          110, 112, 114, -1,
          417, 414, 418, -1,
          417, 416, 414, -1,
          419, 416, 417, -1,
          419, 401, 416, -1,
          104, 106, 108, -1,
          104, 108, 110, -1,
          420, 419, 421, -1,
          420, 401, 419, -1,
          100, 104, 110, -1,
          100, 102, 104, -1,
          98, 100, 110, -1,
          422, 420, 423, -1,
          94, 96, 98, -1,
          424, 422, 425, -1,
          424, 420, 422, -1,
          93, 94, 98, -1,
          88, 90, 93, -1,
          426, 424, 427, -1,
          426, 427, 428, -1,
          426, 420, 424, -1,
          87, 93, 98, -1,
          87, 88, 93, -1,
          81, 110, 391, -1,
          81, 83, 84, -1,
          81, 84, 87, -1,
          81, 98, 110, -1,
          81, 87, 98, -1,
          429, 430, 431, -1,
          76, 78, 81, -1,
          432, 429, 433, -1,
          75, 76, 81, -1,
          434, 435, 430, -1,
          434, 430, 429, -1,
          434, 429, 432, -1,
          72, 75, 81, -1,
          436, 434, 437, -1,
          68, 71, 72, -1,
          68, 401, 420, -1,
          68, 391, 393, -1,
          68, 81, 391, -1,
          68, 393, 401, -1,
          68, 72, 81, -1,
          438, 434, 436, -1,
          438, 435, 434, -1,
          439, 435, 438, -1,
          3, 435, 439, -1,
          3, 426, 435, -1,
          62, 64, 66, -1,
          60, 62, 66, -1,
          60, 66, 68, -1,
          4, 3, 0, -1,
          4, 426, 3, -1,
          58, 60, 68, -1,
          56, 58, 68, -1,
          52, 54, 56, -1,
          12, 8, 10, -1,
          50, 52, 56, -1,
          50, 56, 68, -1,
          15, 8, 12, -1,
          18, 15, 16, -1,
          44, 47, 48, -1,
          21, 15, 18, -1,
          42, 44, 48, -1,
          22, 15, 21, -1,
          40, 4, 6, -1,
          40, 6, 8, -1,
          40, 426, 4, -1,
          40, 48, 50, -1,
          40, 50, 68, -1,
          40, 42, 48, -1,
          40, 420, 426, -1,
          40, 68, 420, -1,
          26, 22, 25, -1,
          26, 15, 22, -1,
          36, 39, 40, -1,
          29, 15, 26, -1,
          29, 8, 15, -1,
          34, 36, 40, -1,
          33, 29, 30, -1,
          33, 40, 8, -1,
          33, 8, 29, -1,
          33, 34, 40, -1,
          128, 1, 440, -1,
          126, 129, 441, -1,
          442, 443, 444, -1,
          442, 445, 443, -1,
          446, 447, 448, -1,
          446, 449, 447, -1,
          450, 445, 442, -1,
          450, 451, 445, -1,
          450, 452, 451, -1,
          453, 454, 449, -1,
          453, 455, 454, -1,
          453, 449, 446, -1,
          456, 442, 444, -1,
          456, 457, 458, -1,
          456, 444, 457, -1,
          459, 446, 448, -1,
          459, 452, 450, -1,
          459, 448, 452, -1,
          460, 461, 462, -1,
          460, 458, 461, -1,
          463, 455, 453, -1,
          463, 464, 455, -1,
          463, 465, 464, -1,
          466, 450, 442, -1,
          466, 442, 456, -1,
          467, 446, 459, -1,
          467, 453, 446, -1,
          468, 456, 458, -1,
          468, 458, 460, -1,
          469, 470, 465, -1,
          469, 471, 470, -1,
          469, 465, 463, -1,
          472, 459, 450, -1,
          472, 450, 466, -1,
          473, 460, 462, -1,
          473, 462, 474, -1,
          475, 463, 453, -1,
          475, 453, 467, -1,
          476, 466, 456, -1,
          476, 456, 468, -1,
          477, 471, 469, -1,
          477, 478, 471, -1,
          477, 479, 478, -1,
          480, 459, 472, -1,
          480, 467, 459, -1,
          481, 468, 460, -1,
          481, 460, 473, -1,
          482, 469, 463, -1,
          482, 463, 475, -1,
          483, 472, 466, -1,
          483, 466, 476, -1,
          484, 473, 474, -1,
          484, 485, 486, -1,
          484, 474, 485, -1,
          487, 488, 479, -1,
          487, 489, 488, -1,
          490, 475, 467, -1,
          490, 467, 480, -1,
          491, 468, 481, -1,
          491, 476, 468, -1,
          492, 477, 469, -1,
          492, 469, 482, -1,
          493, 472, 483, -1,
          493, 480, 472, -1,
          494, 481, 473, -1,
          494, 473, 484, -1,
          495, 475, 490, -1,
          495, 482, 475, -1,
          496, 476, 491, -1,
          496, 483, 476, -1,
          497, 484, 486, -1,
          497, 486, 498, -1,
          499, 477, 492, -1,
          499, 487, 479, -1,
          499, 479, 477, -1,
          500, 490, 480, -1,
          500, 480, 493, -1,
          501, 481, 494, -1,
          501, 491, 481, -1,
          502, 492, 482, -1,
          502, 482, 495, -1,
          503, 493, 483, -1,
          503, 483, 496, -1,
          504, 484, 497, -1,
          504, 494, 484, -1,
          505, 489, 487, -1,
          505, 487, 499, -1,
          505, 506, 489, -1,
          505, 507, 506, -1,
          508, 495, 490, -1,
          508, 490, 500, -1,
          509, 496, 491, -1,
          509, 491, 501, -1,
          510, 511, 512, -1,
          510, 498, 511, -1,
          510, 497, 498, -1,
          513, 499, 492, -1,
          513, 492, 502, -1,
          514, 500, 493, -1,
          514, 493, 503, -1,
          515, 501, 494, -1,
          515, 494, 504, -1,
          516, 507, 505, -1,
          516, 128, 440, -1,
          516, 517, 507, -1,
          516, 440, 517, -1,
          518, 495, 508, -1,
          518, 502, 495, -1,
          519, 503, 496, -1,
          519, 496, 509, -1,
          520, 504, 497, -1,
          520, 497, 510, -1,
          521, 505, 499, -1,
          521, 499, 513, -1,
          522, 508, 500, -1,
          522, 500, 514, -1,
          523, 501, 515, -1,
          523, 509, 501, -1,
          524, 510, 512, -1,
          524, 512, 525, -1,
          526, 502, 518, -1,
          526, 513, 502, -1,
          527, 503, 519, -1,
          527, 514, 503, -1,
          528, 515, 504, -1,
          528, 504, 520, -1,
          529, 505, 521, -1,
          529, 128, 516, -1,
          529, 133, 132, -1,
          529, 132, 128, -1,
          529, 516, 505, -1,
          530, 508, 522, -1,
          530, 518, 508, -1,
          531, 519, 509, -1,
          531, 509, 523, -1,
          532, 520, 510, -1,
          532, 510, 524, -1,
          533, 521, 513, -1,
          533, 513, 526, -1,
          534, 522, 514, -1,
          534, 514, 527, -1,
          535, 523, 515, -1,
          535, 515, 528, -1,
          536, 524, 525, -1,
          536, 525, 537, -1,
          538, 526, 518, -1,
          538, 518, 530, -1,
          539, 519, 531, -1,
          539, 527, 519, -1,
          540, 528, 520, -1,
          540, 520, 532, -1,
          541, 136, 133, -1,
          541, 529, 521, -1,
          541, 521, 533, -1,
          541, 133, 529, -1,
          542, 530, 522, -1,
          542, 522, 534, -1,
          543, 531, 523, -1,
          543, 523, 535, -1,
          544, 532, 524, -1,
          544, 524, 536, -1,
          545, 533, 526, -1,
          545, 526, 538, -1,
          546, 534, 527, -1,
          546, 527, 539, -1,
          547, 528, 540, -1,
          547, 535, 528, -1,
          548, 549, 550, -1,
          548, 537, 549, -1,
          548, 536, 537, -1,
          551, 530, 542, -1,
          551, 538, 530, -1,
          552, 539, 531, -1,
          552, 531, 543, -1,
          553, 540, 532, -1,
          553, 532, 544, -1,
          554, 141, 140, -1,
          554, 140, 136, -1,
          554, 533, 545, -1,
          554, 136, 541, -1,
          554, 541, 533, -1,
          555, 534, 546, -1,
          555, 542, 534, -1,
          556, 535, 547, -1,
          556, 543, 535, -1,
          557, 536, 548, -1,
          557, 544, 536, -1,
          558, 538, 551, -1,
          558, 545, 538, -1,
          559, 546, 539, -1,
          559, 539, 552, -1,
          560, 547, 540, -1,
          560, 540, 553, -1,
          561, 550, 562, -1,
          561, 548, 550, -1,
          563, 551, 542, -1,
          563, 542, 555, -1,
          564, 552, 543, -1,
          564, 543, 556, -1,
          565, 553, 544, -1,
          565, 544, 557, -1,
          566, 554, 545, -1,
          566, 146, 141, -1,
          566, 545, 558, -1,
          566, 141, 554, -1,
          567, 546, 559, -1,
          567, 555, 546, -1,
          568, 556, 547, -1,
          568, 547, 560, -1,
          569, 557, 548, -1,
          569, 548, 561, -1,
          570, 558, 551, -1,
          570, 551, 563, -1,
          571, 559, 552, -1,
          571, 552, 564, -1,
          572, 560, 553, -1,
          572, 553, 565, -1,
          573, 561, 562, -1,
          573, 574, 575, -1,
          573, 562, 574, -1,
          576, 563, 555, -1,
          576, 555, 567, -1,
          577, 556, 568, -1,
          577, 564, 556, -1,
          578, 565, 557, -1,
          578, 557, 569, -1,
          579, 558, 570, -1,
          579, 152, 151, -1,
          579, 151, 146, -1,
          579, 146, 566, -1,
          579, 566, 558, -1,
          580, 567, 559, -1,
          580, 559, 571, -1,
          581, 560, 572, -1,
          581, 568, 560, -1,
          582, 561, 573, -1,
          582, 569, 561, -1,
          583, 570, 563, -1,
          583, 563, 576, -1,
          584, 571, 564, -1,
          584, 564, 577, -1,
          585, 565, 578, -1,
          585, 572, 565, -1,
          586, 567, 580, -1,
          586, 576, 567, -1,
          587, 577, 568, -1,
          587, 568, 581, -1,
          588, 578, 569, -1,
          588, 569, 582, -1,
          589, 152, 579, -1,
          589, 158, 152, -1,
          589, 579, 570, -1,
          589, 570, 583, -1,
          590, 571, 584, -1,
          590, 580, 571, -1,
          591, 572, 585, -1,
          591, 581, 572, -1,
          592, 573, 575, -1,
          592, 582, 573, -1,
          593, 576, 586, -1,
          593, 583, 576, -1,
          594, 584, 577, -1,
          594, 577, 587, -1,
          595, 585, 578, -1,
          595, 578, 588, -1,
          596, 586, 580, -1,
          596, 580, 590, -1,
          597, 587, 581, -1,
          597, 581, 591, -1,
          598, 582, 592, -1,
          598, 588, 582, -1,
          599, 158, 589, -1,
          599, 589, 583, -1,
          599, 164, 158, -1,
          599, 583, 593, -1,
          600, 590, 584, -1,
          600, 584, 594, -1,
          601, 591, 585, -1,
          601, 585, 595, -1,
          602, 592, 575, -1,
          602, 603, 604, -1,
          602, 575, 603, -1,
          605, 586, 596, -1,
          605, 593, 586, -1,
          606, 594, 587, -1,
          606, 587, 597, -1,
          607, 595, 588, -1,
          607, 588, 598, -1,
          608, 596, 590, -1,
          608, 590, 600, -1,
          609, 597, 591, -1,
          609, 591, 601, -1,
          610, 598, 592, -1,
          610, 592, 602, -1,
          611, 172, 171, -1,
          611, 171, 164, -1,
          611, 164, 599, -1,
          611, 599, 593, -1,
          611, 593, 605, -1,
          612, 594, 606, -1,
          612, 600, 594, -1,
          613, 601, 595, -1,
          613, 595, 607, -1,
          614, 602, 604, -1,
          614, 615, 616, -1,
          614, 604, 615, -1,
          617, 605, 596, -1,
          617, 596, 608, -1,
          618, 606, 597, -1,
          618, 597, 609, -1,
          619, 607, 598, -1,
          619, 598, 610, -1,
          620, 608, 600, -1,
          620, 600, 612, -1,
          621, 601, 613, -1,
          621, 609, 601, -1,
          622, 610, 602, -1,
          622, 602, 614, -1,
          623, 180, 172, -1,
          623, 172, 611, -1,
          623, 611, 605, -1,
          623, 605, 617, -1,
          624, 612, 606, -1,
          624, 606, 618, -1,
          625, 613, 607, -1,
          625, 607, 619, -1,
          626, 617, 608, -1,
          626, 608, 620, -1,
          627, 618, 609, -1,
          627, 609, 621, -1,
          628, 610, 622, -1,
          628, 619, 610, -1,
          629, 612, 624, -1,
          629, 620, 612, -1,
          630, 613, 625, -1,
          630, 621, 613, -1,
          631, 622, 614, -1,
          631, 632, 633, -1,
          631, 616, 632, -1,
          631, 614, 616, -1,
          634, 623, 617, -1,
          634, 189, 188, -1,
          634, 188, 180, -1,
          634, 180, 623, -1,
          634, 617, 626, -1,
          635, 624, 618, -1,
          635, 618, 627, -1,
          636, 625, 619, -1,
          636, 619, 628, -1,
          637, 626, 620, -1,
          637, 620, 629, -1,
          638, 627, 621, -1,
          638, 621, 630, -1,
          639, 628, 622, -1,
          639, 622, 631, -1,
          640, 629, 624, -1,
          640, 624, 635, -1,
          641, 625, 636, -1,
          641, 630, 625, -1,
          642, 198, 189, -1,
          642, 634, 626, -1,
          642, 626, 637, -1,
          642, 189, 634, -1,
          643, 627, 638, -1,
          643, 635, 627, -1,
          644, 636, 628, -1,
          644, 628, 639, -1,
          645, 637, 629, -1,
          645, 629, 640, -1,
          646, 638, 630, -1,
          646, 630, 641, -1,
          647, 631, 633, -1,
          647, 633, 648, -1,
          647, 639, 631, -1,
          649, 640, 635, -1,
          649, 635, 643, -1,
          650, 641, 636, -1,
          650, 636, 644, -1,
          651, 207, 198, -1,
          651, 642, 637, -1,
          651, 198, 642, -1,
          651, 637, 645, -1,
          652, 638, 646, -1,
          652, 643, 638, -1,
          653, 639, 647, -1,
          653, 644, 639, -1,
          654, 645, 640, -1,
          654, 640, 649, -1,
          655, 646, 641, -1,
          655, 641, 650, -1,
          656, 657, 658, -1,
          656, 648, 657, -1,
          656, 647, 648, -1,
          659, 649, 643, -1,
          659, 643, 652, -1,
          660, 650, 644, -1,
          660, 644, 653, -1,
          661, 216, 207, -1,
          661, 217, 216, -1,
          661, 207, 651, -1,
          661, 651, 645, -1,
          661, 645, 654, -1,
          662, 652, 646, -1,
          662, 646, 655, -1,
          663, 653, 647, -1,
          663, 647, 656, -1,
          664, 654, 649, -1,
          664, 649, 659, -1,
          665, 655, 650, -1,
          665, 650, 660, -1,
          666, 652, 662, -1,
          666, 659, 652, -1,
          667, 653, 663, -1,
          667, 660, 653, -1,
          668, 661, 654, -1,
          668, 227, 217, -1,
          668, 654, 664, -1,
          668, 217, 661, -1,
          669, 662, 655, -1,
          669, 655, 665, -1,
          670, 656, 658, -1,
          670, 671, 672, -1,
          670, 658, 671, -1,
          670, 663, 656, -1,
          673, 664, 659, -1,
          673, 659, 666, -1,
          674, 665, 660, -1,
          674, 660, 667, -1,
          675, 666, 662, -1,
          675, 662, 669, -1,
          676, 663, 670, -1,
          676, 667, 663, -1,
          677, 238, 227, -1,
          677, 239, 238, -1,
          677, 668, 664, -1,
          677, 227, 668, -1,
          677, 664, 673, -1,
          678, 669, 665, -1,
          678, 665, 674, -1,
          679, 666, 675, -1,
          679, 673, 666, -1,
          680, 674, 667, -1,
          680, 667, 676, -1,
          681, 675, 669, -1,
          681, 669, 678, -1,
          682, 670, 672, -1,
          682, 683, 684, -1,
          682, 672, 683, -1,
          682, 676, 670, -1,
          685, 250, 239, -1,
          685, 239, 677, -1,
          685, 677, 673, -1,
          685, 673, 679, -1,
          686, 674, 680, -1,
          686, 678, 674, -1,
          687, 675, 681, -1,
          687, 679, 675, -1,
          688, 680, 676, -1,
          688, 676, 682, -1,
          689, 681, 678, -1,
          689, 678, 686, -1,
          690, 261, 250, -1,
          690, 250, 685, -1,
          690, 685, 679, -1,
          690, 679, 687, -1,
          691, 680, 688, -1,
          691, 686, 680, -1,
          692, 687, 681, -1,
          692, 681, 689, -1,
          693, 694, 695, -1,
          693, 684, 694, -1,
          693, 682, 684, -1,
          693, 688, 682, -1,
          696, 689, 686, -1,
          696, 686, 691, -1,
          697, 262, 261, -1,
          697, 273, 262, -1,
          697, 261, 690, -1,
          697, 690, 687, -1,
          697, 687, 692, -1,
          698, 691, 688, -1,
          698, 688, 693, -1,
          699, 692, 689, -1,
          699, 689, 696, -1,
          700, 696, 691, -1,
          700, 691, 698, -1,
          701, 285, 273, -1,
          701, 273, 697, -1,
          701, 697, 692, -1,
          701, 692, 699, -1,
          702, 703, 704, -1,
          702, 695, 703, -1,
          702, 693, 695, -1,
          702, 698, 693, -1,
          705, 699, 696, -1,
          705, 696, 700, -1,
          706, 698, 702, -1,
          706, 702, 704, -1,
          706, 700, 698, -1,
          707, 701, 699, -1,
          707, 297, 285, -1,
          707, 298, 297, -1,
          707, 285, 701, -1,
          707, 699, 705, -1,
          708, 705, 700, -1,
          708, 700, 706, -1,
          709, 706, 704, -1,
          709, 710, 711, -1,
          709, 704, 710, -1,
          712, 298, 707, -1,
          712, 310, 298, -1,
          712, 707, 705, -1,
          712, 705, 708, -1,
          713, 709, 711, -1,
          713, 708, 706, -1,
          713, 706, 709, -1,
          713, 714, 715, -1,
          713, 711, 714, -1,
          716, 322, 310, -1,
          716, 129, 322, -1,
          716, 712, 708, -1,
          716, 310, 712, -1,
          716, 708, 713, -1,
          717, 129, 716, -1,
          717, 713, 715, -1,
          717, 718, 441, -1,
          717, 715, 718, -1,
          717, 716, 713, -1,
          717, 441, 129, -1,
          406, 127, 126, -1,
          406, 126, 441, -1,
          403, 441, 718, -1,
          403, 406, 441, -1,
          404, 718, 715, -1,
          404, 403, 718, -1,
          405, 715, 714, -1,
          405, 404, 715, -1,
          395, 714, 711, -1,
          395, 405, 714, -1,
          396, 711, 710, -1,
          396, 395, 711, -1,
          397, 710, 704, -1,
          397, 396, 710, -1,
          398, 704, 703, -1,
          398, 397, 704, -1,
          388, 703, 695, -1,
          388, 398, 703, -1,
          389, 695, 694, -1,
          389, 388, 695, -1,
          390, 694, 684, -1,
          390, 389, 694, -1,
          384, 684, 683, -1,
          384, 390, 684, -1,
          385, 683, 672, -1,
          385, 672, 671, -1,
          385, 384, 683, -1,
          378, 385, 671, -1,
          379, 671, 658, -1,
          379, 378, 671, -1,
          380, 658, 657, -1,
          380, 379, 658, -1,
          382, 657, 648, -1,
          382, 380, 657, -1,
          383, 648, 633, -1,
          383, 633, 632, -1,
          383, 382, 648, -1,
          381, 383, 632, -1,
          387, 381, 632, -1,
          387, 632, 616, -1,
          386, 387, 616, -1,
          386, 616, 615, -1,
          392, 386, 615, -1,
          392, 615, 604, -1,
          391, 604, 603, -1,
          391, 392, 604, -1,
          394, 603, 575, -1,
          394, 391, 603, -1,
          394, 575, 574, -1,
          393, 394, 574, -1,
          400, 574, 562, -1,
          400, 562, 550, -1,
          400, 393, 574, -1,
          399, 400, 550, -1,
          402, 550, 549, -1,
          402, 399, 550, -1,
          401, 549, 537, -1,
          401, 402, 549, -1,
          416, 537, 525, -1,
          416, 401, 537, -1,
          413, 525, 512, -1,
          413, 512, 511, -1,
          413, 416, 525, -1,
          408, 413, 511, -1,
          409, 511, 498, -1,
          409, 498, 486, -1,
          409, 408, 511, -1,
          410, 409, 486, -1,
          411, 486, 485, -1,
          411, 410, 486, -1,
          407, 485, 474, -1,
          407, 411, 485, -1,
          412, 474, 462, -1,
          412, 462, 461, -1,
          412, 407, 474, -1,
          415, 412, 461, -1,
          414, 461, 458, -1,
          414, 415, 461, -1,
          418, 458, 457, -1,
          418, 414, 458, -1,
          417, 457, 444, -1,
          417, 444, 443, -1,
          417, 418, 457, -1,
          419, 443, 445, -1,
          419, 417, 443, -1,
          421, 419, 445, -1,
          420, 421, 445, -1,
          420, 445, 451, -1,
          423, 420, 451, -1,
          423, 451, 452, -1,
          422, 423, 452, -1,
          422, 452, 448, -1,
          425, 422, 448, -1,
          425, 448, 447, -1,
          424, 425, 447, -1,
          424, 447, 449, -1,
          427, 424, 449, -1,
          427, 449, 454, -1,
          428, 427, 454, -1,
          428, 454, 455, -1,
          428, 455, 464, -1,
          426, 428, 464, -1,
          435, 426, 464, -1,
          435, 464, 465, -1,
          430, 435, 465, -1,
          430, 465, 470, -1,
          431, 430, 470, -1,
          431, 470, 471, -1,
          429, 431, 471, -1,
          429, 471, 478, -1,
          433, 429, 478, -1,
          433, 478, 479, -1,
          432, 479, 488, -1,
          432, 433, 479, -1,
          434, 488, 489, -1,
          434, 432, 488, -1,
          437, 489, 506, -1,
          437, 434, 489, -1,
          436, 506, 507, -1,
          436, 437, 506, -1,
          438, 507, 517, -1,
          438, 436, 507, -1,
          439, 517, 440, -1,
          439, 440, 1, -1,
          439, 438, 517, -1,
          3, 439, 1, -1
        ]
      }
    }
}
