#VRML V2.0 utf8
WorldInfo {
  title "Exported triangle mesh to VRML97"
  info ["Created by FreeCAD"
        "<https://www.freecad.org>"]
}

Transform {
  scale 1 1 1
  rotation 0 0 1 0
  scaleOrientation 0 0 1 0
  center 0.000 0.000 0.000
  translation 0.000 0.000 0.000
  children
    Shape { 
      appearance
      Appearance {
        material
        Material {
          diffuseColor 0.8 0.8 0.8
        }
      }
      geometry
      IndexedFaceSet {
        coord
        Coordinate {
          point [
            0.623 12.484 2.170,
            0.000 12.700 1.970,
            0.000 12.500 2.170,
            0.633 12.684 1.970,
            1.245 12.438 2.170,
            1.265 12.637 1.970,
            1.863 12.360 2.170,
            1.893 12.558 1.970,
            2.477 12.252 2.170,
            2.516 12.448 1.970,
            3.084 12.113 2.170,
            3.134 12.307 1.970,
            3.684 11.945 2.170,
            3.743 12.136 1.970,
            4.275 11.746 2.170,
            4.344 11.934 1.970,
            4.855 11.518 2.170,
            4.933 11.703 1.970,
            5.424 11.262 2.170,
            5.510 11.442 1.970,
            5.978 10.978 2.170,
            6.074 11.153 1.970,
            6.518 10.666 2.170,
            6.622 10.837 1.970,
            7.042 10.328 2.170,
            7.154 10.493 1.970,
            7.548 9.964 2.170,
            7.668 10.124 1.970,
            8.035 9.576 2.170,
            8.163 9.729 1.970,
            8.502 9.163 2.170,
            8.638 9.310 1.970,
            8.948 8.728 2.170,
            9.092 8.868 1.970,
            9.372 8.271 2.170,
            9.522 8.403 1.970,
            9.773 7.794 2.170,
            9.929 7.918 1.970,
            10.149 7.297 2.170,
            10.312 7.414 1.970,
            10.500 6.782 2.170,
            10.668 6.890 1.970,
            10.825 6.250 2.170,
            10.999 6.350 1.970,
            11.123 5.703 2.170,
            11.301 5.794 1.970,
            11.394 5.141 2.170,
            11.576 5.223 1.970,
            11.636 4.567 2.170,
            11.822 4.640 1.970,
            11.849 3.981 2.170,
            12.039 4.045 1.970,
            12.225 3.440 1.970,
            12.033 3.386 2.170,
            12.187 2.782 2.170,
            12.382 2.826 1.970,
            12.310 2.171 2.170,
            12.507 2.205 1.970,
            12.403 1.554 2.170,
            12.601 1.579 1.970,
            12.664 0.949 1.970,
            12.465 0.934 2.170,
            12.496 0.312 2.170,
            12.696 0.317 1.970,
            12.496 -0.312 2.170,
            12.696 -0.317 1.970,
            12.465 -0.934 2.170,
            12.664 -0.949 1.970,
            12.403 -1.554 2.170,
            12.601 -1.579 1.970,
            12.310 -2.171 2.170,
            12.507 -2.205 1.970,
            12.187 -2.782 2.170,
            12.382 -2.826 1.970,
            12.033 -3.386 2.170,
            12.225 -3.440 1.970,
            12.039 -4.045 1.970,
            11.849 -3.981 2.170,
            11.822 -4.640 1.970,
            11.636 -4.567 2.170,
            11.394 -5.141 2.170,
            11.576 -5.223 1.970,
            11.123 -5.703 2.170,
            11.301 -5.794 1.970,
            10.825 -6.250 2.170,
            10.999 -6.350 1.970,
            10.500 -6.782 2.170,
            10.668 -6.890 1.970,
            10.149 -7.297 2.170,
            10.312 -7.414 1.970,
            9.773 -7.794 2.170,
            9.929 -7.918 1.970,
            9.372 -8.271 2.170,
            9.522 -8.403 1.970,
            9.092 -8.868 1.970,
            8.948 -8.728 2.170,
            8.502 -9.163 2.170,
            8.638 -9.310 1.970,
            8.035 -9.576 2.170,
            8.163 -9.729 1.970,
            7.668 -10.124 1.970,
            7.548 -9.964 2.170,
            7.154 -10.493 1.970,
            7.042 -10.328 2.170,
            6.518 -10.666 2.170,
            6.622 -10.837 1.970,
            5.978 -10.978 2.170,
            6.074 -11.153 1.970,
            5.510 -11.442 1.970,
            5.424 -11.262 2.170,
            4.855 -11.518 2.170,
            4.933 -11.703 1.970,
            4.344 -11.934 1.970,
            4.275 -11.746 2.170,
            3.684 -11.945 2.170,
            3.743 -12.136 1.970,
            3.084 -12.113 2.170,
            3.134 -12.307 1.970,
            2.477 -12.252 2.170,
            2.516 -12.448 1.970,
            1.863 -12.360 2.170,
            1.893 -12.558 1.970,
            1.265 -12.637 1.970,
            1.245 -12.438 2.170,
            0.623 -12.484 2.170,
            0.633 -12.684 1.970,
            0.000 -12.700 1.970,
            0.000 -12.500 2.170,
            0.633 -12.684 0.258,
            0.000 -12.700 0.258,
            0.000 -12.559 0.117,
            0.626 -12.543 0.117,
            1.265 -12.637 0.258,
            1.250 -12.496 0.117,
            1.893 -12.558 0.258,
            1.872 -12.418 0.117,
            2.516 -12.448 0.258,
            2.488 -12.310 0.117,
            3.134 -12.307 0.258,
            3.099 -12.170 0.117,
            3.702 -12.001 0.117,
            3.743 -12.136 0.258,
            4.344 -11.934 0.258,
            4.295 -11.801 0.117,
            4.933 -11.703 0.258,
            4.878 -11.572 0.117,
            5.449 -11.315 0.117,
            5.510 -11.442 0.258,
            6.074 -11.153 0.258,
            6.006 -11.029 0.117,
            6.622 -10.837 0.258,
            6.548 -10.716 0.117,
            7.074 -10.376 0.117,
            7.154 -10.493 0.258,
            7.668 -10.124 0.258,
            7.583 -10.011 0.117,
            8.072 -9.620 0.117,
            8.163 -9.729 0.258,
            8.638 -9.310 0.258,
            8.542 -9.206 0.117,
            9.092 -8.868 0.258,
            8.990 -8.769 0.117,
            9.522 -8.403 0.258,
            9.416 -8.310 0.117,
            9.929 -7.918 0.258,
            9.819 -7.830 0.117,
            10.197 -7.331 0.117,
            10.312 -7.414 0.258,
            10.668 -6.890 0.258,
            10.550 -6.814 0.117,
            10.999 -6.350 0.258,
            10.876 -6.279 0.117,
            11.301 -5.794 0.258,
            11.176 -5.729 0.117,
            11.447 -5.165 0.117,
            11.576 -5.223 0.258,
            11.822 -4.640 0.258,
            11.690 -4.588 0.117,
            11.905 -4.000 0.117,
            12.039 -4.045 0.258,
            12.225 -3.440 0.258,
            12.089 -3.401 0.117,
            12.382 -2.826 0.258,
            12.244 -2.795 0.117,
            12.507 -2.205 0.258,
            12.368 -2.181 0.117,
            12.601 -1.579 0.258,
            12.461 -1.562 0.117,
            12.664 -0.949 0.258,
            12.523 -0.939 0.117,
            12.696 -0.317 0.258,
            12.555 -0.313 0.117,
            12.696 0.317 0.258,
            12.555 0.313 0.117,
            12.664 0.949 0.258,
            12.523 0.939 0.117,
            12.461 1.562 0.117,
            12.601 1.579 0.258,
            12.507 2.205 0.258,
            12.368 2.181 0.117,
            12.382 2.826 0.258,
            12.244 2.795 0.117,
            12.225 3.440 0.258,
            12.089 3.401 0.117,
            11.905 4.000 0.117,
            12.039 4.045 0.258,
            11.690 4.588 0.117,
            11.822 4.640 0.258,
            11.576 5.223 0.258,
            11.447 5.165 0.117,
            11.176 5.729 0.117,
            11.301 5.794 0.258,
            10.999 6.350 0.258,
            10.876 6.279 0.117,
            10.550 6.814 0.117,
            10.668 6.890 0.258,
            10.312 7.414 0.258,
            10.197 7.331 0.117,
            9.819 7.830 0.117,
            9.929 7.918 0.258,
            9.416 8.310 0.117,
            9.522 8.403 0.258,
            8.990 8.769 0.117,
            9.092 8.868 0.258,
            8.638 9.310 0.258,
            8.542 9.206 0.117,
            8.072 9.620 0.117,
            8.163 9.729 0.258,
            7.668 10.124 0.258,
            7.583 10.011 0.117,
            7.074 10.376 0.117,
            7.154 10.493 0.258,
            6.622 10.837 0.258,
            6.548 10.716 0.117,
            6.006 11.029 0.117,
            6.074 11.153 0.258,
            5.510 11.442 0.258,
            5.449 11.315 0.117,
            4.933 11.703 0.258,
            4.878 11.572 0.117,
            4.344 11.934 0.258,
            4.295 11.801 0.117,
            3.743 12.136 0.258,
            3.702 12.001 0.117,
            3.099 12.170 0.117,
            3.134 12.307 0.258,
            2.516 12.448 0.258,
            2.488 12.310 0.117,
            1.872 12.418 0.117,
            1.893 12.558 0.258,
            1.265 12.637 0.258,
            1.250 12.496 0.117,
            0.633 12.684 0.258,
            0.626 12.543 0.117,
            0.000 12.559 0.117,
            0.000 12.700 0.258,
            0.000 -11.045 -0.415,
            0.000 11.045 -0.415,
            2.137 -11.440 -0.216,
            2.137 -9.211 -0.892,
            0.000 -9.509 -0.878,
            0.000 -7.954 -1.271,
            4.266 -10.275 -0.388,
            2.137 -6.943 -1.422,
            0.000 -6.383 -1.594,
            4.266 -8.038 -0.988,
            6.380 -9.078 -0.398,
            2.137 -4.645 -1.801,
            0.000 -4.798 -1.845,
            0.000 -3.204 -2.026,
            4.266 -5.766 -1.441,
            6.380 -6.843 -0.920,
            2.137 -2.328 -2.030,
            0.000 -1.604 -2.134,
            8.472 -7.864 -0.243,
            4.266 -3.470 -1.743,
            6.380 -4.578 -1.294,
            2.137 -0.000 -2.106,
            0.000 0.000 -2.170,
            0.000 1.604 -2.134,
            8.472 -5.641 -0.685,
            4.266 -1.158 -1.895,
            6.380 -2.294 -1.519,
            2.137 2.328 -2.030,
            0.000 3.204 -2.026,
            8.472 -3.394 -0.981,
            4.266 1.158 -1.895,
            10.532 -4.446 -0.286,
            6.380 -0.000 -1.594,
            2.137 4.645 -1.801,
            0.000 4.798 -1.845,
            0.000 6.383 -1.594,
            8.472 -1.133 -1.130,
            4.266 3.470 -1.743,
            10.532 -2.228 -0.505,
            6.380 2.294 -1.519,
            2.137 6.943 -1.422,
            0.000 7.954 -1.271,
            8.472 1.133 -1.130,
            4.266 5.766 -1.441,
            10.532 -0.000 -0.578,
            6.380 4.578 -1.294,
            2.137 9.211 -0.892,
            0.000 9.509 -0.878,
            8.472 3.394 -0.981,
            4.266 8.038 -0.988,
            10.532 2.228 -0.505,
            6.380 6.843 -0.920,
            2.137 11.440 -0.216,
            8.472 5.641 -0.685,
            4.266 10.275 -0.388,
            10.532 4.446 -0.286,
            6.380 9.078 -0.398,
            8.472 7.864 -0.243,
            -0.626 -12.543 0.117,
            -1.250 -12.496 0.117,
            -0.626 12.543 0.117,
            -1.250 12.496 0.117,
            -8.472 -7.864 -0.243,
            -8.072 -9.620 0.117,
            -8.542 -9.206 0.117,
            -8.990 -8.769 0.117,
            -9.416 -8.310 0.117,
            -9.819 -7.830 0.117,
            -10.197 -7.331 0.117,
            -6.380 -9.078 -0.398,
            -6.006 -11.029 0.117,
            -6.548 -10.716 0.117,
            -7.074 -10.376 0.117,
            -7.583 -10.011 0.117,
            -10.532 -4.446 -0.286,
            -10.876 -6.279 0.117,
            -11.176 -5.729 0.117,
            -11.447 -5.165 0.117,
            -11.690 -4.588 0.117,
            -11.905 -4.000 0.117,
            -12.089 -3.401 0.117,
            -4.266 -10.275 -0.388,
            -3.702 -12.001 0.117,
            -4.295 -11.801 0.117,
            -4.878 -11.572 0.117,
            -5.449 -11.315 0.117,
            -8.472 -5.641 -0.685,
            -10.550 -6.814 0.117,
            -2.137 -11.440 -0.216,
            -1.872 -12.418 0.117,
            -2.488 -12.310 0.117,
            -3.099 -12.170 0.117,
            -6.380 -6.843 -0.920,
            -10.532 -2.228 -0.505,
            -12.244 -2.795 0.117,
            -12.368 -2.181 0.117,
            -12.461 -1.562 0.117,
            -12.523 -0.939 0.117,
            -4.266 -8.038 -0.988,
            -8.472 -3.394 -0.981,
            -2.137 -9.211 -0.892,
            -6.380 -4.578 -1.294,
            -10.532 0.000 -0.578,
            -12.555 -0.313 0.117,
            -12.555 0.313 0.117,
            -12.523 0.939 0.117,
            -4.266 -5.766 -1.441,
            -8.472 -1.133 -1.130,
            -2.137 -6.943 -1.422,
            -6.380 -2.294 -1.519,
            -10.532 2.228 -0.505,
            -12.461 1.562 0.117,
            -12.368 2.181 0.117,
            -12.244 2.795 0.117,
            -12.089 3.401 0.117,
            -4.266 -3.470 -1.743,
            -8.472 1.133 -1.130,
            -2.137 -4.645 -1.801,
            -6.380 0.000 -1.594,
            -10.532 4.446 -0.286,
            -11.905 4.000 0.117,
            -11.690 4.588 0.117,
            -11.447 5.165 0.117,
            -11.176 5.729 0.117,
            -10.876 6.279 0.117,
            -4.266 -1.158 -1.895,
            -8.472 3.394 -0.981,
            -2.137 -2.328 -2.030,
            -6.380 2.294 -1.519,
            -10.532 6.645 0.077,
            -10.550 6.814 0.117,
            -10.197 7.331 0.117,
            -4.266 1.158 -1.895,
            -8.472 5.641 -0.685,
            -2.137 0.000 -2.106,
            -6.380 4.578 -1.294,
            -4.266 3.470 -1.743,
            -8.472 7.864 -0.243,
            -9.819 7.830 0.117,
            -9.416 8.310 0.117,
            -8.990 8.769 0.117,
            -8.542 9.206 0.117,
            -8.072 9.620 0.117,
            -2.137 2.328 -2.030,
            -6.380 6.843 -0.920,
            -4.266 5.766 -1.441,
            -2.137 4.645 -1.801,
            -6.380 9.078 -0.398,
            -7.583 10.011 0.117,
            -7.074 10.376 0.117,
            -6.548 10.716 0.117,
            -6.006 11.029 0.117,
            -4.266 8.038 -0.988,
            -2.137 6.943 -1.422,
            -4.266 10.275 -0.388,
            -5.449 11.315 0.117,
            -4.878 11.572 0.117,
            -4.295 11.801 0.117,
            -3.702 12.001 0.117,
            -2.137 9.211 -0.892,
            -2.137 11.440 -0.216,
            -3.099 12.170 0.117,
            -2.488 12.310 0.117,
            -1.872 12.418 0.117,
            -9.773 7.794 2.170,
            -8.948 8.728 2.170,
            -9.372 8.271 2.170,
            -7.042 10.328 2.170,
            -7.548 9.964 2.170,
            -8.035 9.576 2.170,
            -8.502 9.163 2.170,
            -10.500 6.782 2.170,
            -10.149 7.297 2.170,
            -11.123 5.703 2.170,
            -10.825 6.250 2.170,
            -5.424 11.262 2.170,
            -5.978 10.978 2.170,
            -6.518 10.666 2.170,
            -11.394 5.141 2.170,
            -4.855 11.518 2.170,
            -3.684 11.945 2.170,
            -4.275 11.746 2.170,
            -12.403 1.554 2.170,
            -12.187 2.782 2.170,
            -12.310 2.171 2.170,
            -0.623 12.484 2.170,
            -1.245 12.438 2.170,
            -1.863 12.360 2.170,
            -2.477 12.252 2.170,
            -3.084 12.113 2.170,
            -12.496 -0.312 2.170,
            -12.465 0.934 2.170,
            -12.496 0.312 2.170,
            -12.465 -0.934 2.170,
            -12.403 -1.554 2.170,
            -12.310 -2.171 2.170,
            -12.033 3.386 2.170,
            -12.187 -2.782 2.170,
            -11.636 4.567 2.170,
            -11.849 3.981 2.170,
            -11.636 -4.567 2.170,
            -12.033 -3.386 2.170,
            -11.849 -3.981 2.170,
            -10.825 -6.250 2.170,
            -11.394 -5.141 2.170,
            -11.123 -5.703 2.170,
            -10.149 -7.297 2.170,
            -10.500 -6.782 2.170,
            -9.372 -8.271 2.170,
            -9.773 -7.794 2.170,
            -8.948 -8.728 2.170,
            -8.502 -9.163 2.170,
            -8.035 -9.576 2.170,
            -5.978 -10.978 2.170,
            -7.548 -9.964 2.170,
            -7.042 -10.328 2.170,
            -6.518 -10.666 2.170,
            -4.855 -11.518 2.170,
            -5.424 -11.262 2.170,
            -3.084 -12.113 2.170,
            -4.275 -11.746 2.170,
            -3.684 -11.945 2.170,
            -1.863 -12.360 2.170,
            -2.477 -12.252 2.170,
            -0.623 -12.484 2.170,
            -1.245 -12.438 2.170,
            -0.633 -12.684 0.258,
            -0.633 -12.684 1.970,
            -1.265 -12.637 1.970,
            -1.265 -12.637 0.258,
            -1.893 -12.558 1.970,
            -1.893 -12.558 0.258,
            -2.516 -12.448 1.970,
            -2.516 -12.448 0.258,
            -3.134 -12.307 1.970,
            -3.134 -12.307 0.258,
            -3.743 -12.136 1.970,
            -3.743 -12.136 0.258,
            -4.344 -11.934 1.970,
            -4.344 -11.934 0.258,
            -4.933 -11.703 1.970,
            -4.933 -11.703 0.258,
            -5.510 -11.442 1.970,
            -5.510 -11.442 0.258,
            -6.074 -11.153 1.970,
            -6.074 -11.153 0.258,
            -6.622 -10.837 1.970,
            -6.622 -10.837 0.258,
            -7.154 -10.493 1.970,
            -7.154 -10.493 0.258,
            -7.668 -10.124 1.970,
            -7.668 -10.124 0.258,
            -8.163 -9.729 1.970,
            -8.163 -9.729 0.258,
            -8.638 -9.310 1.970,
            -8.638 -9.310 0.258,
            -9.092 -8.868 1.970,
            -9.092 -8.868 0.258,
            -9.522 -8.403 1.970,
            -9.522 -8.403 0.258,
            -9.929 -7.918 1.970,
            -9.929 -7.918 0.258,
            -10.312 -7.414 1.970,
            -10.312 -7.414 0.258,
            -10.668 -6.890 1.970,
            -10.668 -6.890 0.258,
            -10.999 -6.350 1.970,
            -10.999 -6.350 0.258,
            -11.301 -5.794 1.970,
            -11.301 -5.794 0.258,
            -11.576 -5.223 1.970,
            -11.576 -5.223 0.258,
            -11.822 -4.640 1.970,
            -11.822 -4.640 0.258,
            -12.039 -4.045 1.970,
            -12.039 -4.045 0.258,
            -12.225 -3.440 1.970,
            -12.225 -3.440 0.258,
            -12.382 -2.826 1.970,
            -12.382 -2.826 0.258,
            -12.507 -2.205 1.970,
            -12.507 -2.205 0.258,
            -12.601 -1.579 1.970,
            -12.601 -1.579 0.258,
            -12.664 -0.949 1.970,
            -12.664 -0.949 0.258,
            -12.696 -0.317 1.970,
            -12.696 -0.317 0.258,
            -12.696 0.317 0.258,
            -12.696 0.317 1.970,
            -12.664 0.949 1.970,
            -12.664 0.949 0.258,
            -12.601 1.579 1.970,
            -12.601 1.579 0.258,
            -12.507 2.205 1.970,
            -12.507 2.205 0.258,
            -12.382 2.826 1.970,
            -12.382 2.826 0.258,
            -12.225 3.440 1.970,
            -12.225 3.440 0.258,
            -12.039 4.045 1.970,
            -12.039 4.045 0.258,
            -11.822 4.640 1.970,
            -11.822 4.640 0.258,
            -11.576 5.223 1.970,
            -11.576 5.223 0.258,
            -11.301 5.794 1.970,
            -11.301 5.794 0.258,
            -10.999 6.350 1.970,
            -10.999 6.350 0.258,
            -10.668 6.890 1.970,
            -10.668 6.890 0.258,
            -10.312 7.414 1.970,
            -10.312 7.414 0.258,
            -9.929 7.918 0.258,
            -9.929 7.918 1.970,
            -9.522 8.403 1.970,
            -9.522 8.403 0.258,
            -9.092 8.868 1.970,
            -9.092 8.868 0.258,
            -8.638 9.310 0.258,
            -8.638 9.310 1.970,
            -8.163 9.729 1.970,
            -8.163 9.729 0.258,
            -7.668 10.124 1.970,
            -7.668 10.124 0.258,
            -7.154 10.493 1.970,
            -7.154 10.493 0.258,
            -6.622 10.837 1.970,
            -6.622 10.837 0.258,
            -6.074 11.153 1.970,
            -6.074 11.153 0.258,
            -5.510 11.442 1.970,
            -5.510 11.442 0.258,
            -4.933 11.703 0.258,
            -4.933 11.703 1.970,
            -4.344 11.934 1.970,
            -4.344 11.934 0.258,
            -3.743 12.136 1.970,
            -3.743 12.136 0.258,
            -3.134 12.307 0.258,
            -3.134 12.307 1.970,
            -2.516 12.448 1.970,
            -2.516 12.448 0.258,
            -1.893 12.558 1.970,
            -1.893 12.558 0.258,
            -1.265 12.637 1.970,
            -1.265 12.637 0.258,
            -0.633 12.684 0.258,
            -0.633 12.684 1.970
          ]
        }
        coordIndex [
          0, 1, 2, -1,
          3, 1, 0, -1,
          4, 3, 0, -1,
          5, 3, 4, -1,
          6, 5, 4, -1,
          7, 5, 6, -1,
          8, 7, 6, -1,
          9, 7, 8, -1,
          10, 9, 8, -1,
          11, 9, 10, -1,
          12, 11, 10, -1,
          13, 11, 12, -1,
          14, 13, 12, -1,
          15, 13, 14, -1,
          16, 15, 14, -1,
          17, 15, 16, -1,
          18, 17, 16, -1,
          19, 17, 18, -1,
          20, 19, 18, -1,
          21, 19, 20, -1,
          22, 21, 20, -1,
          23, 21, 22, -1,
          24, 23, 22, -1,
          25, 23, 24, -1,
          26, 25, 24, -1,
          27, 25, 26, -1,
          28, 27, 26, -1,
          29, 27, 28, -1,
          30, 29, 28, -1,
          31, 29, 30, -1,
          32, 31, 30, -1,
          33, 31, 32, -1,
          34, 33, 32, -1,
          35, 33, 34, -1,
          36, 35, 34, -1,
          37, 35, 36, -1,
          38, 37, 36, -1,
          39, 37, 38, -1,
          40, 39, 38, -1,
          41, 39, 40, -1,
          42, 41, 40, -1,
          43, 41, 42, -1,
          44, 43, 42, -1,
          45, 43, 44, -1,
          46, 45, 44, -1,
          47, 45, 46, -1,
          48, 47, 46, -1,
          49, 47, 48, -1,
          50, 49, 48, -1,
          51, 49, 50, -1,
          52, 51, 50, -1,
          52, 50, 53, -1,
          54, 52, 53, -1,
          55, 52, 54, -1,
          56, 55, 54, -1,
          57, 55, 56, -1,
          58, 57, 56, -1,
          59, 57, 58, -1,
          60, 58, 61, -1,
          60, 59, 58, -1,
          62, 60, 61, -1,
          63, 60, 62, -1,
          64, 63, 62, -1,
          65, 63, 64, -1,
          66, 65, 64, -1,
          67, 65, 66, -1,
          68, 67, 66, -1,
          69, 67, 68, -1,
          70, 69, 68, -1,
          71, 69, 70, -1,
          72, 71, 70, -1,
          73, 71, 72, -1,
          74, 73, 72, -1,
          75, 73, 74, -1,
          76, 74, 77, -1,
          76, 75, 74, -1,
          78, 77, 79, -1,
          78, 76, 77, -1,
          80, 78, 79, -1,
          81, 78, 80, -1,
          82, 81, 80, -1,
          83, 81, 82, -1,
          84, 83, 82, -1,
          85, 83, 84, -1,
          86, 85, 84, -1,
          87, 85, 86, -1,
          88, 87, 86, -1,
          89, 87, 88, -1,
          90, 89, 88, -1,
          91, 89, 90, -1,
          92, 91, 90, -1,
          93, 91, 92, -1,
          94, 93, 92, -1,
          94, 92, 95, -1,
          96, 94, 95, -1,
          97, 94, 96, -1,
          98, 97, 96, -1,
          99, 97, 98, -1,
          100, 98, 101, -1,
          100, 99, 98, -1,
          102, 101, 103, -1,
          102, 100, 101, -1,
          104, 102, 103, -1,
          105, 102, 104, -1,
          106, 105, 104, -1,
          107, 105, 106, -1,
          108, 106, 109, -1,
          108, 107, 106, -1,
          110, 108, 109, -1,
          111, 108, 110, -1,
          112, 110, 113, -1,
          112, 111, 110, -1,
          114, 112, 113, -1,
          115, 112, 114, -1,
          116, 115, 114, -1,
          117, 115, 116, -1,
          118, 117, 116, -1,
          119, 117, 118, -1,
          120, 119, 118, -1,
          121, 119, 120, -1,
          122, 120, 123, -1,
          122, 121, 120, -1,
          124, 122, 123, -1,
          125, 122, 124, -1,
          126, 124, 127, -1,
          126, 125, 124, -1,
          128, 129, 130, -1,
          128, 130, 131, -1,
          132, 128, 131, -1,
          132, 131, 133, -1,
          134, 132, 133, -1,
          134, 133, 135, -1,
          136, 134, 135, -1,
          136, 135, 137, -1,
          138, 136, 137, -1,
          138, 137, 139, -1,
          140, 138, 139, -1,
          141, 138, 140, -1,
          142, 140, 143, -1,
          142, 141, 140, -1,
          144, 143, 145, -1,
          144, 142, 143, -1,
          146, 144, 145, -1,
          147, 144, 146, -1,
          148, 146, 149, -1,
          148, 147, 146, -1,
          150, 149, 151, -1,
          150, 148, 149, -1,
          152, 150, 151, -1,
          153, 150, 152, -1,
          154, 152, 155, -1,
          154, 153, 152, -1,
          156, 154, 155, -1,
          157, 154, 156, -1,
          158, 156, 159, -1,
          158, 157, 156, -1,
          160, 159, 161, -1,
          160, 158, 159, -1,
          162, 161, 163, -1,
          162, 160, 161, -1,
          164, 162, 163, -1,
          164, 163, 165, -1,
          166, 164, 165, -1,
          167, 164, 166, -1,
          168, 167, 166, -1,
          168, 166, 169, -1,
          170, 168, 169, -1,
          170, 169, 171, -1,
          172, 170, 171, -1,
          172, 171, 173, -1,
          174, 172, 173, -1,
          175, 172, 174, -1,
          176, 175, 174, -1,
          176, 174, 177, -1,
          178, 176, 177, -1,
          179, 176, 178, -1,
          180, 179, 178, -1,
          180, 178, 181, -1,
          182, 181, 183, -1,
          182, 180, 181, -1,
          184, 183, 185, -1,
          184, 182, 183, -1,
          186, 185, 187, -1,
          186, 184, 185, -1,
          188, 187, 189, -1,
          188, 186, 187, -1,
          190, 189, 191, -1,
          190, 188, 189, -1,
          192, 191, 193, -1,
          192, 190, 191, -1,
          194, 193, 195, -1,
          194, 192, 193, -1,
          196, 194, 195, -1,
          197, 194, 196, -1,
          198, 196, 199, -1,
          198, 197, 196, -1,
          200, 199, 201, -1,
          200, 198, 199, -1,
          202, 201, 203, -1,
          202, 200, 201, -1,
          204, 202, 203, -1,
          205, 202, 204, -1,
          206, 205, 204, -1,
          207, 205, 206, -1,
          208, 206, 209, -1,
          208, 207, 206, -1,
          210, 208, 209, -1,
          211, 208, 210, -1,
          212, 210, 213, -1,
          212, 211, 210, -1,
          214, 212, 213, -1,
          215, 212, 214, -1,
          216, 215, 214, -1,
          216, 214, 217, -1,
          218, 216, 217, -1,
          219, 216, 218, -1,
          220, 219, 218, -1,
          221, 219, 220, -1,
          222, 221, 220, -1,
          223, 221, 222, -1,
          224, 222, 225, -1,
          224, 223, 222, -1,
          226, 224, 225, -1,
          227, 224, 226, -1,
          228, 226, 229, -1,
          228, 227, 226, -1,
          230, 228, 229, -1,
          231, 228, 230, -1,
          232, 230, 233, -1,
          232, 231, 230, -1,
          234, 232, 233, -1,
          235, 232, 234, -1,
          236, 234, 237, -1,
          236, 235, 234, -1,
          238, 237, 239, -1,
          238, 236, 237, -1,
          240, 239, 241, -1,
          240, 238, 239, -1,
          242, 241, 243, -1,
          242, 240, 241, -1,
          244, 242, 243, -1,
          245, 242, 244, -1,
          246, 244, 247, -1,
          246, 245, 244, -1,
          248, 246, 247, -1,
          249, 246, 248, -1,
          250, 248, 251, -1,
          250, 249, 248, -1,
          252, 251, 253, -1,
          252, 250, 251, -1,
          254, 252, 253, -1,
          255, 252, 254, -1,
          252, 1, 3, -1,
          252, 255, 1, -1,
          250, 3, 5, -1,
          250, 252, 3, -1,
          249, 5, 7, -1,
          249, 250, 5, -1,
          246, 7, 9, -1,
          246, 249, 7, -1,
          245, 9, 11, -1,
          245, 246, 9, -1,
          242, 11, 13, -1,
          242, 245, 11, -1,
          240, 13, 15, -1,
          240, 242, 13, -1,
          238, 15, 17, -1,
          238, 240, 15, -1,
          236, 17, 19, -1,
          236, 238, 17, -1,
          235, 19, 21, -1,
          235, 236, 19, -1,
          232, 21, 23, -1,
          232, 235, 21, -1,
          231, 23, 25, -1,
          231, 232, 23, -1,
          228, 25, 27, -1,
          228, 231, 25, -1,
          227, 27, 29, -1,
          227, 228, 27, -1,
          224, 29, 31, -1,
          224, 227, 29, -1,
          223, 31, 33, -1,
          223, 224, 31, -1,
          221, 33, 35, -1,
          221, 223, 33, -1,
          219, 35, 37, -1,
          219, 221, 35, -1,
          216, 219, 37, -1,
          216, 37, 39, -1,
          215, 216, 39, -1,
          215, 39, 41, -1,
          212, 215, 41, -1,
          212, 41, 43, -1,
          211, 212, 43, -1,
          211, 43, 45, -1,
          208, 45, 47, -1,
          208, 211, 45, -1,
          207, 47, 49, -1,
          207, 208, 47, -1,
          205, 49, 51, -1,
          205, 207, 49, -1,
          202, 51, 52, -1,
          202, 205, 51, -1,
          200, 52, 55, -1,
          200, 202, 52, -1,
          198, 55, 57, -1,
          198, 200, 55, -1,
          197, 57, 59, -1,
          197, 198, 57, -1,
          194, 59, 60, -1,
          194, 197, 59, -1,
          192, 60, 63, -1,
          192, 194, 60, -1,
          190, 63, 65, -1,
          190, 192, 63, -1,
          188, 65, 67, -1,
          188, 190, 65, -1,
          186, 67, 69, -1,
          186, 188, 67, -1,
          184, 69, 71, -1,
          184, 186, 69, -1,
          182, 71, 73, -1,
          182, 184, 71, -1,
          180, 73, 75, -1,
          180, 182, 73, -1,
          179, 75, 76, -1,
          179, 180, 75, -1,
          176, 76, 78, -1,
          176, 179, 76, -1,
          175, 78, 81, -1,
          175, 176, 78, -1,
          172, 81, 83, -1,
          172, 175, 81, -1,
          170, 83, 85, -1,
          170, 172, 83, -1,
          168, 170, 85, -1,
          168, 85, 87, -1,
          167, 168, 87, -1,
          167, 87, 89, -1,
          164, 167, 89, -1,
          164, 89, 91, -1,
          162, 164, 91, -1,
          162, 91, 93, -1,
          160, 162, 93, -1,
          160, 93, 94, -1,
          158, 160, 94, -1,
          158, 94, 97, -1,
          157, 158, 97, -1,
          157, 97, 99, -1,
          154, 157, 99, -1,
          154, 99, 100, -1,
          153, 154, 100, -1,
          153, 100, 102, -1,
          150, 153, 102, -1,
          150, 102, 105, -1,
          148, 150, 105, -1,
          148, 105, 107, -1,
          147, 148, 107, -1,
          147, 107, 108, -1,
          144, 147, 108, -1,
          144, 108, 111, -1,
          144, 111, 112, -1,
          142, 144, 112, -1,
          141, 112, 115, -1,
          141, 142, 112, -1,
          138, 115, 117, -1,
          138, 141, 115, -1,
          136, 117, 119, -1,
          136, 138, 117, -1,
          134, 119, 121, -1,
          134, 121, 122, -1,
          134, 136, 119, -1,
          132, 134, 122, -1,
          128, 122, 125, -1,
          128, 132, 122, -1,
          129, 125, 126, -1,
          129, 128, 125, -1,
          256, 133, 131, -1,
          256, 131, 130, -1,
          253, 257, 254, -1,
          251, 257, 253, -1,
          258, 140, 139, -1,
          258, 139, 137, -1,
          258, 137, 135, -1,
          258, 135, 133, -1,
          258, 133, 256, -1,
          259, 258, 256, -1,
          259, 256, 260, -1,
          259, 260, 261, -1,
          262, 258, 259, -1,
          262, 149, 146, -1,
          262, 146, 145, -1,
          262, 145, 143, -1,
          262, 143, 140, -1,
          262, 140, 258, -1,
          263, 261, 264, -1,
          263, 259, 261, -1,
          265, 262, 259, -1,
          265, 259, 263, -1,
          266, 156, 155, -1,
          266, 155, 152, -1,
          266, 152, 151, -1,
          266, 151, 149, -1,
          266, 149, 262, -1,
          266, 262, 265, -1,
          267, 264, 268, -1,
          267, 268, 269, -1,
          267, 263, 264, -1,
          270, 263, 267, -1,
          270, 265, 263, -1,
          271, 265, 270, -1,
          271, 266, 265, -1,
          272, 267, 269, -1,
          272, 269, 273, -1,
          274, 266, 271, -1,
          274, 166, 165, -1,
          274, 165, 163, -1,
          274, 163, 161, -1,
          274, 161, 159, -1,
          274, 159, 156, -1,
          274, 156, 266, -1,
          275, 267, 272, -1,
          275, 270, 267, -1,
          276, 270, 275, -1,
          276, 271, 270, -1,
          277, 273, 278, -1,
          277, 278, 279, -1,
          277, 272, 273, -1,
          280, 171, 169, -1,
          280, 169, 166, -1,
          280, 166, 274, -1,
          280, 271, 276, -1,
          280, 274, 271, -1,
          281, 275, 272, -1,
          281, 272, 277, -1,
          282, 276, 275, -1,
          282, 275, 281, -1,
          283, 279, 284, -1,
          283, 277, 279, -1,
          285, 276, 282, -1,
          285, 280, 276, -1,
          286, 281, 277, -1,
          286, 277, 283, -1,
          287, 280, 285, -1,
          287, 181, 178, -1,
          287, 178, 177, -1,
          287, 177, 174, -1,
          287, 174, 173, -1,
          287, 173, 171, -1,
          287, 171, 280, -1,
          288, 282, 281, -1,
          288, 281, 286, -1,
          289, 283, 284, -1,
          289, 290, 291, -1,
          289, 284, 290, -1,
          292, 282, 288, -1,
          292, 285, 282, -1,
          293, 286, 283, -1,
          293, 283, 289, -1,
          294, 285, 292, -1,
          294, 189, 187, -1,
          294, 187, 185, -1,
          294, 185, 183, -1,
          294, 183, 181, -1,
          294, 287, 285, -1,
          294, 181, 287, -1,
          295, 286, 293, -1,
          295, 288, 286, -1,
          296, 289, 291, -1,
          296, 291, 297, -1,
          298, 288, 295, -1,
          298, 292, 288, -1,
          299, 289, 296, -1,
          299, 293, 289, -1,
          300, 292, 298, -1,
          300, 294, 292, -1,
          300, 195, 193, -1,
          300, 193, 191, -1,
          300, 191, 189, -1,
          300, 189, 294, -1,
          301, 293, 299, -1,
          301, 295, 293, -1,
          302, 303, 257, -1,
          302, 297, 303, -1,
          302, 296, 297, -1,
          304, 298, 295, -1,
          304, 295, 301, -1,
          305, 296, 302, -1,
          305, 299, 296, -1,
          306, 203, 201, -1,
          306, 201, 199, -1,
          306, 199, 196, -1,
          306, 195, 300, -1,
          306, 196, 195, -1,
          306, 300, 298, -1,
          306, 298, 304, -1,
          307, 301, 299, -1,
          307, 299, 305, -1,
          308, 251, 248, -1,
          308, 248, 247, -1,
          308, 247, 244, -1,
          308, 244, 243, -1,
          308, 302, 257, -1,
          308, 257, 251, -1,
          309, 217, 214, -1,
          309, 214, 213, -1,
          309, 304, 301, -1,
          309, 301, 307, -1,
          310, 243, 241, -1,
          310, 241, 239, -1,
          310, 239, 237, -1,
          310, 237, 234, -1,
          310, 302, 308, -1,
          310, 308, 243, -1,
          310, 305, 302, -1,
          311, 309, 213, -1,
          311, 213, 210, -1,
          311, 210, 209, -1,
          311, 209, 206, -1,
          311, 206, 204, -1,
          311, 204, 203, -1,
          311, 203, 306, -1,
          311, 306, 304, -1,
          311, 304, 309, -1,
          312, 234, 233, -1,
          312, 233, 230, -1,
          312, 230, 229, -1,
          312, 310, 234, -1,
          312, 229, 226, -1,
          312, 307, 305, -1,
          312, 305, 310, -1,
          313, 226, 225, -1,
          313, 312, 226, -1,
          313, 225, 222, -1,
          313, 222, 220, -1,
          313, 220, 218, -1,
          313, 218, 217, -1,
          313, 309, 307, -1,
          313, 217, 309, -1,
          313, 307, 312, -1,
          256, 130, 314, -1,
          256, 314, 315, -1,
          316, 257, 317, -1,
          254, 257, 316, -1,
          318, 319, 320, -1,
          318, 320, 321, -1,
          318, 321, 322, -1,
          318, 322, 323, -1,
          318, 323, 324, -1,
          325, 326, 327, -1,
          325, 327, 328, -1,
          325, 328, 329, -1,
          325, 329, 319, -1,
          325, 319, 318, -1,
          330, 331, 332, -1,
          330, 332, 333, -1,
          330, 333, 334, -1,
          330, 334, 335, -1,
          330, 335, 336, -1,
          337, 338, 339, -1,
          337, 339, 340, -1,
          337, 340, 341, -1,
          337, 341, 326, -1,
          337, 326, 325, -1,
          342, 318, 324, -1,
          342, 324, 343, -1,
          342, 343, 331, -1,
          342, 331, 330, -1,
          344, 315, 345, -1,
          344, 345, 346, -1,
          344, 346, 347, -1,
          344, 347, 338, -1,
          344, 256, 315, -1,
          344, 338, 337, -1,
          348, 325, 318, -1,
          348, 318, 342, -1,
          349, 336, 350, -1,
          349, 350, 351, -1,
          349, 351, 352, -1,
          349, 352, 353, -1,
          349, 330, 336, -1,
          354, 337, 325, -1,
          354, 325, 348, -1,
          355, 342, 330, -1,
          355, 330, 349, -1,
          356, 260, 256, -1,
          356, 261, 260, -1,
          356, 344, 337, -1,
          356, 337, 354, -1,
          356, 256, 344, -1,
          357, 342, 355, -1,
          357, 348, 342, -1,
          358, 353, 359, -1,
          358, 359, 360, -1,
          358, 360, 361, -1,
          358, 349, 353, -1,
          362, 354, 348, -1,
          362, 348, 357, -1,
          363, 355, 349, -1,
          363, 349, 358, -1,
          364, 264, 261, -1,
          364, 354, 362, -1,
          364, 356, 354, -1,
          364, 261, 356, -1,
          365, 357, 355, -1,
          365, 355, 363, -1,
          366, 358, 361, -1,
          366, 361, 367, -1,
          366, 367, 368, -1,
          366, 368, 369, -1,
          366, 369, 370, -1,
          371, 357, 365, -1,
          371, 362, 357, -1,
          372, 363, 358, -1,
          372, 358, 366, -1,
          373, 268, 264, -1,
          373, 269, 268, -1,
          373, 264, 364, -1,
          373, 362, 371, -1,
          373, 364, 362, -1,
          374, 365, 363, -1,
          374, 363, 372, -1,
          375, 366, 370, -1,
          375, 370, 376, -1,
          375, 376, 377, -1,
          375, 377, 378, -1,
          375, 378, 379, -1,
          375, 379, 380, -1,
          381, 365, 374, -1,
          381, 371, 365, -1,
          382, 372, 366, -1,
          382, 366, 375, -1,
          383, 273, 269, -1,
          383, 269, 373, -1,
          383, 371, 381, -1,
          383, 373, 371, -1,
          384, 372, 382, -1,
          384, 374, 372, -1,
          385, 380, 386, -1,
          385, 386, 387, -1,
          388, 374, 384, -1,
          388, 381, 374, -1,
          389, 375, 380, -1,
          389, 382, 375, -1,
          389, 380, 385, -1,
          389, 385, 387, -1,
          390, 278, 273, -1,
          390, 279, 278, -1,
          390, 381, 388, -1,
          390, 273, 383, -1,
          390, 383, 381, -1,
          391, 382, 389, -1,
          391, 384, 382, -1,
          392, 384, 391, -1,
          392, 388, 384, -1,
          393, 387, 394, -1,
          393, 394, 395, -1,
          393, 395, 396, -1,
          393, 396, 397, -1,
          393, 397, 398, -1,
          393, 389, 387, -1,
          399, 388, 392, -1,
          399, 390, 388, -1,
          399, 279, 390, -1,
          399, 284, 279, -1,
          400, 391, 389, -1,
          400, 389, 393, -1,
          401, 391, 400, -1,
          401, 392, 391, -1,
          402, 399, 392, -1,
          402, 284, 399, -1,
          402, 392, 401, -1,
          402, 291, 290, -1,
          402, 290, 284, -1,
          403, 400, 393, -1,
          403, 393, 398, -1,
          403, 398, 404, -1,
          403, 404, 405, -1,
          403, 405, 406, -1,
          403, 406, 407, -1,
          408, 401, 400, -1,
          408, 400, 403, -1,
          409, 401, 408, -1,
          409, 402, 401, -1,
          409, 291, 402, -1,
          409, 297, 291, -1,
          410, 407, 411, -1,
          410, 411, 412, -1,
          410, 412, 413, -1,
          410, 413, 414, -1,
          410, 403, 407, -1,
          410, 408, 403, -1,
          415, 257, 303, -1,
          415, 409, 408, -1,
          415, 303, 297, -1,
          415, 297, 409, -1,
          415, 408, 410, -1,
          416, 317, 257, -1,
          416, 414, 417, -1,
          416, 417, 418, -1,
          416, 418, 419, -1,
          416, 419, 317, -1,
          416, 410, 414, -1,
          416, 257, 415, -1,
          416, 415, 410, -1,
          420, 421, 422, -1,
          423, 424, 425, -1,
          423, 425, 426, -1,
          423, 426, 421, -1,
          427, 420, 428, -1,
          427, 421, 420, -1,
          429, 427, 430, -1,
          429, 421, 427, -1,
          431, 432, 433, -1,
          431, 433, 423, -1,
          434, 423, 421, -1,
          434, 421, 429, -1,
          435, 431, 423, -1,
          436, 437, 435, -1,
          436, 435, 423, -1,
          438, 439, 440, -1,
          441, 442, 443, -1,
          441, 443, 444, -1,
          441, 444, 445, -1,
          441, 445, 436, -1,
          446, 447, 448, -1,
          0, 2, 441, -1,
          449, 447, 446, -1,
          450, 447, 449, -1,
          6, 4, 0, -1,
          6, 0, 441, -1,
          451, 452, 439, -1,
          451, 438, 447, -1,
          451, 439, 438, -1,
          451, 447, 450, -1,
          453, 452, 451, -1,
          10, 6, 441, -1,
          10, 8, 6, -1,
          10, 434, 454, -1,
          10, 454, 455, -1,
          10, 455, 452, -1,
          10, 423, 434, -1,
          10, 436, 423, -1,
          10, 441, 436, -1,
          14, 12, 10, -1,
          456, 452, 453, -1,
          456, 453, 457, -1,
          456, 457, 458, -1,
          16, 14, 10, -1,
          20, 18, 16, -1,
          459, 456, 460, -1,
          459, 460, 461, -1,
          462, 456, 459, -1,
          462, 459, 463, -1,
          28, 16, 10, -1,
          28, 26, 24, -1,
          28, 24, 22, -1,
          28, 22, 20, -1,
          28, 20, 16, -1,
          464, 462, 465, -1,
          466, 462, 464, -1,
          32, 30, 28, -1,
          467, 462, 466, -1,
          468, 456, 462, -1,
          468, 462, 467, -1,
          36, 34, 32, -1,
          40, 38, 36, -1,
          42, 40, 36, -1,
          469, 468, 470, -1,
          469, 470, 471, -1,
          469, 471, 472, -1,
          469, 456, 468, -1,
          44, 36, 32, -1,
          44, 42, 36, -1,
          473, 469, 474, -1,
          48, 46, 44, -1,
          50, 44, 32, -1,
          50, 32, 28, -1,
          50, 48, 44, -1,
          53, 50, 28, -1,
          475, 473, 476, -1,
          475, 476, 477, -1,
          54, 10, 452, -1,
          54, 452, 456, -1,
          54, 28, 10, -1,
          54, 53, 28, -1,
          478, 475, 479, -1,
          480, 475, 478, -1,
          480, 478, 481, -1,
          480, 473, 475, -1,
          62, 61, 58, -1,
          62, 58, 56, -1,
          66, 64, 62, -1,
          123, 480, 127, -1,
          123, 127, 124, -1,
          120, 480, 123, -1,
          70, 68, 66, -1,
          118, 480, 120, -1,
          74, 70, 66, -1,
          74, 72, 70, -1,
          114, 480, 118, -1,
          114, 118, 116, -1,
          77, 74, 66, -1,
          77, 62, 56, -1,
          77, 473, 480, -1,
          77, 66, 62, -1,
          77, 456, 469, -1,
          77, 469, 473, -1,
          77, 54, 456, -1,
          77, 56, 54, -1,
          110, 480, 114, -1,
          110, 114, 113, -1,
          82, 80, 79, -1,
          82, 79, 77, -1,
          106, 110, 109, -1,
          84, 82, 77, -1,
          103, 480, 110, -1,
          103, 110, 106, -1,
          103, 106, 104, -1,
          88, 84, 77, -1,
          88, 86, 84, -1,
          92, 90, 88, -1,
          96, 101, 98, -1,
          95, 77, 480, -1,
          95, 88, 77, -1,
          95, 480, 103, -1,
          95, 92, 88, -1,
          95, 103, 101, -1,
          95, 101, 96, -1,
          482, 129, 126, -1,
          482, 126, 483, -1,
          482, 483, 484, -1,
          485, 484, 486, -1,
          485, 482, 484, -1,
          487, 486, 488, -1,
          487, 485, 486, -1,
          489, 488, 490, -1,
          489, 487, 488, -1,
          491, 490, 492, -1,
          491, 489, 490, -1,
          493, 492, 494, -1,
          493, 491, 492, -1,
          495, 494, 496, -1,
          495, 493, 494, -1,
          497, 496, 498, -1,
          497, 495, 496, -1,
          499, 498, 500, -1,
          499, 497, 498, -1,
          501, 500, 502, -1,
          501, 499, 500, -1,
          503, 502, 504, -1,
          503, 501, 502, -1,
          505, 504, 506, -1,
          505, 503, 504, -1,
          507, 506, 508, -1,
          507, 505, 506, -1,
          509, 508, 510, -1,
          509, 507, 508, -1,
          511, 510, 512, -1,
          511, 509, 510, -1,
          513, 512, 514, -1,
          513, 511, 512, -1,
          515, 514, 516, -1,
          515, 513, 514, -1,
          517, 515, 516, -1,
          517, 516, 518, -1,
          519, 517, 518, -1,
          519, 518, 520, -1,
          521, 519, 520, -1,
          521, 520, 522, -1,
          523, 521, 522, -1,
          523, 522, 524, -1,
          525, 523, 524, -1,
          525, 524, 526, -1,
          527, 526, 528, -1,
          527, 525, 526, -1,
          529, 528, 530, -1,
          529, 527, 528, -1,
          531, 530, 532, -1,
          531, 529, 530, -1,
          533, 532, 534, -1,
          533, 531, 532, -1,
          535, 534, 536, -1,
          535, 533, 534, -1,
          537, 536, 538, -1,
          537, 535, 536, -1,
          539, 538, 540, -1,
          539, 537, 538, -1,
          541, 540, 542, -1,
          541, 539, 540, -1,
          543, 541, 542, -1,
          544, 542, 545, -1,
          544, 545, 546, -1,
          544, 543, 542, -1,
          547, 546, 548, -1,
          547, 544, 546, -1,
          549, 548, 550, -1,
          549, 547, 548, -1,
          551, 550, 552, -1,
          551, 549, 550, -1,
          553, 552, 554, -1,
          553, 551, 552, -1,
          555, 554, 556, -1,
          555, 553, 554, -1,
          557, 556, 558, -1,
          557, 555, 556, -1,
          559, 558, 560, -1,
          559, 557, 558, -1,
          561, 560, 562, -1,
          561, 559, 560, -1,
          563, 562, 564, -1,
          563, 561, 562, -1,
          565, 564, 566, -1,
          565, 563, 564, -1,
          567, 565, 566, -1,
          567, 566, 568, -1,
          569, 567, 568, -1,
          570, 569, 568, -1,
          570, 568, 571, -1,
          570, 571, 572, -1,
          573, 570, 572, -1,
          573, 572, 574, -1,
          575, 573, 574, -1,
          576, 575, 574, -1,
          576, 574, 577, -1,
          576, 577, 578, -1,
          579, 576, 578, -1,
          579, 578, 580, -1,
          581, 579, 580, -1,
          581, 580, 582, -1,
          583, 581, 582, -1,
          583, 582, 584, -1,
          585, 583, 584, -1,
          585, 584, 586, -1,
          587, 585, 586, -1,
          587, 586, 588, -1,
          589, 587, 588, -1,
          590, 589, 588, -1,
          590, 588, 591, -1,
          590, 591, 592, -1,
          593, 590, 592, -1,
          593, 592, 594, -1,
          595, 593, 594, -1,
          596, 595, 594, -1,
          596, 594, 597, -1,
          596, 597, 598, -1,
          599, 598, 600, -1,
          599, 596, 598, -1,
          601, 600, 602, -1,
          601, 599, 600, -1,
          603, 601, 602, -1,
          604, 602, 605, -1,
          604, 605, 1, -1,
          604, 603, 602, -1,
          255, 604, 1, -1,
          604, 255, 254, -1,
          604, 254, 316, -1,
          603, 604, 316, -1,
          603, 316, 317, -1,
          601, 603, 317, -1,
          601, 317, 419, -1,
          418, 601, 419, -1,
          599, 601, 418, -1,
          417, 599, 418, -1,
          596, 599, 417, -1,
          595, 596, 417, -1,
          595, 417, 414, -1,
          593, 414, 413, -1,
          593, 595, 414, -1,
          590, 413, 412, -1,
          590, 593, 413, -1,
          589, 412, 411, -1,
          589, 590, 412, -1,
          587, 411, 407, -1,
          587, 589, 411, -1,
          406, 587, 407, -1,
          585, 587, 406, -1,
          583, 406, 405, -1,
          583, 585, 406, -1,
          404, 583, 405, -1,
          581, 583, 404, -1,
          579, 404, 398, -1,
          579, 581, 404, -1,
          576, 398, 397, -1,
          576, 579, 398, -1,
          575, 397, 396, -1,
          575, 576, 397, -1,
          573, 396, 395, -1,
          573, 575, 396, -1,
          570, 573, 395, -1,
          570, 395, 394, -1,
          569, 570, 394, -1,
          569, 394, 387, -1,
          386, 569, 387, -1,
          567, 569, 386, -1,
          565, 567, 386, -1,
          565, 386, 380, -1,
          563, 565, 380, -1,
          563, 380, 379, -1,
          561, 563, 379, -1,
          561, 379, 378, -1,
          377, 561, 378, -1,
          559, 561, 377, -1,
          557, 559, 377, -1,
          557, 377, 376, -1,
          555, 557, 376, -1,
          555, 376, 370, -1,
          553, 555, 370, -1,
          553, 370, 369, -1,
          551, 369, 368, -1,
          551, 553, 369, -1,
          549, 368, 367, -1,
          549, 551, 368, -1,
          547, 367, 361, -1,
          547, 549, 367, -1,
          544, 361, 360, -1,
          544, 547, 361, -1,
          543, 360, 359, -1,
          543, 544, 360, -1,
          541, 359, 353, -1,
          541, 543, 359, -1,
          539, 353, 352, -1,
          539, 541, 353, -1,
          537, 352, 351, -1,
          537, 539, 352, -1,
          535, 351, 350, -1,
          535, 537, 351, -1,
          533, 350, 336, -1,
          533, 535, 350, -1,
          335, 533, 336, -1,
          531, 533, 335, -1,
          334, 531, 335, -1,
          529, 531, 334, -1,
          527, 334, 333, -1,
          527, 529, 334, -1,
          525, 333, 332, -1,
          525, 527, 333, -1,
          523, 332, 331, -1,
          523, 525, 332, -1,
          343, 523, 331, -1,
          521, 523, 343, -1,
          519, 521, 343, -1,
          519, 343, 324, -1,
          517, 519, 324, -1,
          517, 324, 323, -1,
          515, 517, 323, -1,
          515, 323, 322, -1,
          321, 515, 322, -1,
          513, 515, 321, -1,
          320, 513, 321, -1,
          511, 513, 320, -1,
          509, 320, 319, -1,
          509, 511, 320, -1,
          507, 319, 329, -1,
          507, 509, 319, -1,
          505, 329, 328, -1,
          505, 507, 329, -1,
          327, 505, 328, -1,
          503, 505, 327, -1,
          326, 503, 327, -1,
          501, 503, 326, -1,
          499, 326, 341, -1,
          499, 501, 326, -1,
          340, 499, 341, -1,
          497, 499, 340, -1,
          495, 340, 339, -1,
          495, 497, 340, -1,
          338, 495, 339, -1,
          493, 495, 338, -1,
          491, 338, 347, -1,
          491, 493, 338, -1,
          489, 347, 346, -1,
          489, 491, 347, -1,
          345, 489, 346, -1,
          487, 489, 345, -1,
          485, 345, 315, -1,
          485, 487, 345, -1,
          314, 485, 315, -1,
          482, 485, 314, -1,
          130, 482, 314, -1,
          129, 482, 130, -1,
          480, 126, 127, -1,
          483, 126, 480, -1,
          481, 483, 480, -1,
          484, 483, 481, -1,
          478, 484, 481, -1,
          486, 484, 478, -1,
          479, 486, 478, -1,
          488, 486, 479, -1,
          475, 488, 479, -1,
          490, 488, 475, -1,
          477, 490, 475, -1,
          492, 490, 477, -1,
          476, 492, 477, -1,
          494, 492, 476, -1,
          473, 494, 476, -1,
          496, 494, 473, -1,
          474, 496, 473, -1,
          498, 496, 474, -1,
          469, 498, 474, -1,
          500, 498, 469, -1,
          472, 500, 469, -1,
          502, 500, 472, -1,
          471, 502, 472, -1,
          504, 502, 471, -1,
          470, 504, 471, -1,
          506, 504, 470, -1,
          468, 506, 470, -1,
          508, 506, 468, -1,
          467, 508, 468, -1,
          510, 508, 467, -1,
          466, 510, 467, -1,
          512, 510, 466, -1,
          464, 512, 466, -1,
          514, 512, 464, -1,
          465, 514, 464, -1,
          516, 514, 465, -1,
          462, 516, 465, -1,
          518, 516, 462, -1,
          463, 518, 462, -1,
          520, 518, 463, -1,
          459, 520, 463, -1,
          522, 520, 459, -1,
          461, 522, 459, -1,
          524, 522, 461, -1,
          460, 524, 461, -1,
          526, 524, 460, -1,
          456, 526, 460, -1,
          528, 526, 456, -1,
          458, 528, 456, -1,
          530, 528, 458, -1,
          457, 530, 458, -1,
          532, 530, 457, -1,
          453, 532, 457, -1,
          534, 532, 453, -1,
          451, 534, 453, -1,
          536, 534, 451, -1,
          450, 536, 451, -1,
          538, 536, 450, -1,
          449, 538, 450, -1,
          540, 538, 449, -1,
          446, 540, 449, -1,
          542, 540, 446, -1,
          448, 542, 446, -1,
          545, 542, 448, -1,
          447, 545, 448, -1,
          546, 545, 447, -1,
          438, 546, 447, -1,
          548, 546, 438, -1,
          440, 548, 438, -1,
          550, 548, 440, -1,
          439, 550, 440, -1,
          552, 550, 439, -1,
          554, 439, 452, -1,
          554, 552, 439, -1,
          556, 452, 455, -1,
          556, 554, 452, -1,
          558, 455, 454, -1,
          558, 556, 455, -1,
          560, 454, 434, -1,
          560, 558, 454, -1,
          562, 434, 429, -1,
          562, 560, 434, -1,
          430, 562, 429, -1,
          564, 562, 430, -1,
          566, 564, 430, -1,
          566, 430, 427, -1,
          568, 566, 427, -1,
          568, 427, 428, -1,
          571, 568, 428, -1,
          571, 428, 420, -1,
          422, 571, 420, -1,
          572, 571, 422, -1,
          421, 572, 422, -1,
          574, 572, 421, -1,
          577, 421, 426, -1,
          577, 574, 421, -1,
          578, 426, 425, -1,
          578, 577, 426, -1,
          424, 578, 425, -1,
          580, 578, 424, -1,
          423, 580, 424, -1,
          582, 580, 423, -1,
          433, 582, 423, -1,
          584, 582, 433, -1,
          586, 433, 432, -1,
          586, 584, 433, -1,
          588, 432, 431, -1,
          588, 586, 432, -1,
          435, 588, 431, -1,
          591, 588, 435, -1,
          437, 591, 435, -1,
          592, 591, 437, -1,
          436, 592, 437, -1,
          594, 592, 436, -1,
          445, 594, 436, -1,
          597, 594, 445, -1,
          598, 445, 444, -1,
          598, 597, 445, -1,
          600, 444, 443, -1,
          600, 598, 444, -1,
          602, 443, 442, -1,
          602, 600, 443, -1,
          605, 442, 441, -1,
          605, 602, 442, -1,
          1, 441, 2, -1,
          1, 605, 441, -1
        ]
      }
    }
}
