#VRML V2.0 utf8
WorldInfo {
  title "Exported triangle mesh to VRML97"
  info ["Created by FreeCAD"
        "<https://www.freecad.org>"]
}

Transform {
  scale 1 1 1
  rotation 0 0 1 0
  scaleOrientation 0 0 1 0
  center 0.000 0.000 0.000
  translation 0.000 0.000 0.000
  children
    Shape { 
      appearance
      Appearance {
        material
        Material {
          diffuseColor 0.8 0.8 0.8
        }
      }
      geometry
      IndexedFaceSet {
        coord
        Coordinate {
          point [
            0.623 12.484 1.030,
            0.000 12.700 0.830,
            0.000 12.500 1.030,
            0.633 12.684 0.830,
            1.245 12.438 1.030,
            1.265 12.637 0.830,
            1.863 12.360 1.030,
            1.893 12.558 0.830,
            2.477 12.252 1.030,
            2.516 12.448 0.830,
            3.084 12.113 1.030,
            3.134 12.307 0.830,
            3.684 11.945 1.030,
            3.743 12.136 0.830,
            4.275 11.746 1.030,
            4.344 11.934 0.830,
            4.855 11.518 1.030,
            4.933 11.703 0.830,
            5.424 11.262 1.030,
            5.510 11.442 0.830,
            5.978 10.978 1.030,
            6.074 11.153 0.830,
            6.518 10.666 1.030,
            6.622 10.837 0.830,
            7.042 10.328 1.030,
            7.154 10.493 0.830,
            7.548 9.964 1.030,
            7.668 10.124 0.830,
            8.035 9.576 1.030,
            8.163 9.729 0.830,
            8.502 9.163 1.030,
            8.638 9.310 0.830,
            8.948 8.728 1.030,
            9.092 8.868 0.830,
            9.372 8.271 1.030,
            9.522 8.403 0.830,
            9.773 7.794 1.030,
            9.929 7.918 0.830,
            10.149 7.297 1.030,
            10.312 7.414 0.830,
            10.500 6.782 1.030,
            10.668 6.890 0.830,
            10.825 6.250 1.030,
            10.999 6.350 0.830,
            11.123 5.703 1.030,
            11.301 5.794 0.830,
            11.394 5.141 1.030,
            11.576 5.223 0.830,
            11.636 4.567 1.030,
            11.822 4.640 0.830,
            11.849 3.981 1.030,
            12.039 4.045 0.830,
            12.033 3.386 1.030,
            12.225 3.440 0.830,
            12.187 2.782 1.030,
            12.382 2.826 0.830,
            12.310 2.171 1.030,
            12.507 2.205 0.830,
            12.403 1.554 1.030,
            12.601 1.579 0.830,
            12.465 0.934 1.030,
            12.664 0.949 0.830,
            12.496 0.312 1.030,
            12.696 0.317 0.830,
            12.496 -0.312 1.030,
            12.696 -0.317 0.830,
            12.465 -0.934 1.030,
            12.664 -0.949 0.830,
            12.403 -1.554 1.030,
            12.601 -1.579 0.830,
            12.310 -2.171 1.030,
            12.507 -2.205 0.830,
            12.382 -2.826 0.830,
            12.187 -2.782 1.030,
            12.033 -3.386 1.030,
            12.225 -3.440 0.830,
            12.039 -4.045 0.830,
            11.849 -3.981 1.030,
            11.822 -4.640 0.830,
            11.636 -4.567 1.030,
            11.394 -5.141 1.030,
            11.576 -5.223 0.830,
            11.301 -5.794 0.830,
            11.123 -5.703 1.030,
            10.825 -6.250 1.030,
            10.999 -6.350 0.830,
            10.500 -6.782 1.030,
            10.668 -6.890 0.830,
            10.149 -7.297 1.030,
            10.312 -7.414 0.830,
            9.773 -7.794 1.030,
            9.929 -7.918 0.830,
            9.372 -8.271 1.030,
            9.522 -8.403 0.830,
            9.092 -8.868 0.830,
            8.948 -8.728 1.030,
            8.502 -9.163 1.030,
            8.638 -9.310 0.830,
            8.035 -9.576 1.030,
            8.163 -9.729 0.830,
            7.668 -10.124 0.830,
            7.548 -9.964 1.030,
            7.154 -10.493 0.830,
            7.042 -10.328 1.030,
            6.518 -10.666 1.030,
            6.622 -10.837 0.830,
            6.074 -11.153 0.830,
            5.978 -10.978 1.030,
            5.424 -11.262 1.030,
            5.510 -11.442 0.830,
            4.855 -11.518 1.030,
            4.933 -11.703 0.830,
            4.344 -11.934 0.830,
            4.275 -11.746 1.030,
            3.684 -11.945 1.030,
            3.743 -12.136 0.830,
            3.134 -12.307 0.830,
            3.084 -12.113 1.030,
            2.477 -12.252 1.030,
            2.516 -12.448 0.830,
            1.863 -12.360 1.030,
            1.893 -12.558 0.830,
            1.265 -12.637 0.830,
            1.245 -12.438 1.030,
            0.623 -12.484 1.030,
            0.633 -12.684 0.830,
            0.000 -12.500 1.030,
            0.000 -12.700 0.830,
            0.626 -12.543 -0.974,
            0.000 -12.700 -0.832,
            0.000 -12.559 -0.974,
            0.633 -12.684 -0.832,
            1.265 -12.637 -0.832,
            1.250 -12.496 -0.974,
            1.893 -12.558 -0.832,
            1.872 -12.418 -0.974,
            2.516 -12.448 -0.832,
            2.488 -12.310 -0.974,
            3.134 -12.307 -0.832,
            3.099 -12.170 -0.974,
            3.743 -12.136 -0.832,
            3.702 -12.001 -0.974,
            4.295 -11.801 -0.974,
            4.344 -11.934 -0.832,
            4.933 -11.703 -0.832,
            4.878 -11.572 -0.974,
            5.510 -11.442 -0.832,
            5.449 -11.315 -0.974,
            6.006 -11.029 -0.974,
            6.074 -11.153 -0.832,
            6.622 -10.837 -0.832,
            6.548 -10.716 -0.974,
            7.074 -10.376 -0.974,
            7.154 -10.493 -0.832,
            7.668 -10.124 -0.832,
            7.583 -10.011 -0.974,
            8.072 -9.620 -0.974,
            8.163 -9.729 -0.832,
            8.638 -9.310 -0.832,
            8.542 -9.206 -0.974,
            9.092 -8.868 -0.832,
            8.990 -8.769 -0.974,
            9.416 -8.310 -0.974,
            9.522 -8.403 -0.832,
            9.929 -7.918 -0.832,
            9.819 -7.830 -0.974,
            10.312 -7.414 -0.832,
            10.197 -7.331 -0.974,
            10.550 -6.814 -0.974,
            10.668 -6.890 -0.832,
            10.876 -6.279 -0.974,
            10.999 -6.350 -0.832,
            11.301 -5.794 -0.832,
            11.176 -5.729 -0.974,
            11.576 -5.223 -0.832,
            11.447 -5.165 -0.974,
            11.690 -4.588 -0.974,
            11.822 -4.640 -0.832,
            12.039 -4.045 -0.832,
            11.905 -4.000 -0.974,
            12.225 -3.440 -0.832,
            12.089 -3.401 -0.974,
            12.382 -2.826 -0.832,
            12.244 -2.795 -0.974,
            12.507 -2.205 -0.832,
            12.368 -2.181 -0.974,
            12.601 -1.579 -0.832,
            12.461 -1.562 -0.974,
            12.664 -0.949 -0.832,
            12.523 -0.939 -0.974,
            12.696 -0.317 -0.832,
            12.555 -0.313 -0.974,
            12.696 0.317 -0.832,
            12.555 0.313 -0.974,
            12.664 0.949 -0.832,
            12.523 0.939 -0.974,
            12.601 1.579 -0.832,
            12.461 1.562 -0.974,
            12.507 2.205 -0.832,
            12.368 2.181 -0.974,
            12.244 2.795 -0.974,
            12.382 2.826 -0.832,
            12.225 3.440 -0.832,
            12.089 3.401 -0.974,
            12.039 4.045 -0.832,
            11.905 4.000 -0.974,
            11.822 4.640 -0.832,
            11.690 4.588 -0.974,
            11.576 5.223 -0.832,
            11.447 5.165 -0.974,
            11.301 5.794 -0.832,
            11.176 5.729 -0.974,
            10.999 6.350 -0.832,
            10.876 6.279 -0.974,
            10.668 6.890 -0.832,
            10.550 6.814 -0.974,
            10.312 7.414 -0.832,
            10.197 7.331 -0.974,
            9.819 7.830 -0.974,
            9.929 7.918 -0.832,
            9.522 8.403 -0.832,
            9.416 8.310 -0.974,
            9.092 8.868 -0.832,
            8.990 8.769 -0.974,
            8.638 9.310 -0.832,
            8.542 9.206 -0.974,
            8.163 9.729 -0.832,
            8.072 9.620 -0.974,
            7.668 10.124 -0.832,
            7.583 10.011 -0.974,
            7.154 10.493 -0.832,
            7.074 10.376 -0.974,
            6.548 10.716 -0.974,
            6.622 10.837 -0.832,
            6.074 11.153 -0.832,
            6.006 11.029 -0.974,
            5.449 11.315 -0.974,
            5.510 11.442 -0.832,
            4.933 11.703 -0.832,
            4.878 11.572 -0.974,
            4.295 11.801 -0.974,
            4.344 11.934 -0.832,
            3.743 12.136 -0.832,
            3.702 12.001 -0.974,
            3.134 12.307 -0.832,
            3.099 12.170 -0.974,
            2.488 12.310 -0.974,
            2.516 12.448 -0.832,
            1.893 12.558 -0.832,
            1.872 12.418 -0.974,
            1.265 12.637 -0.832,
            1.250 12.496 -0.974,
            0.626 12.543 -0.974,
            0.633 12.684 -0.832,
            0.000 12.700 -0.832,
            0.000 12.559 -0.974,
            0.000 -8.372 -1.005,
            0.000 -4.186 -1.024,
            0.000 0.000 -1.030,
            0.000 8.372 -1.005,
            0.000 4.186 -1.024,
            -0.626 -12.543 -0.974,
            -1.250 -12.496 -0.974,
            -1.872 -12.418 -0.974,
            -2.488 -12.310 -0.974,
            -3.099 -12.170 -0.974,
            -3.702 -12.001 -0.974,
            -4.295 -11.801 -0.974,
            -4.878 -11.572 -0.974,
            -5.449 -11.315 -0.974,
            -6.006 -11.029 -0.974,
            -6.548 -10.716 -0.974,
            -7.074 -10.376 -0.974,
            -7.583 -10.011 -0.974,
            -8.072 -9.620 -0.974,
            -8.542 -9.206 -0.974,
            -8.990 -8.769 -0.974,
            -9.416 -8.310 -0.974,
            -9.819 -7.830 -0.974,
            -10.197 -7.331 -0.974,
            -10.550 -6.814 -0.974,
            -10.876 -6.279 -0.974,
            -11.176 -5.729 -0.974,
            -11.447 -5.165 -0.974,
            -11.690 -4.588 -0.974,
            -11.905 -4.000 -0.974,
            -12.089 -3.401 -0.974,
            -12.244 -2.795 -0.974,
            -12.368 -2.181 -0.974,
            -12.461 -1.562 -0.974,
            -12.523 -0.939 -0.974,
            -12.555 -0.313 -0.974,
            -12.555 0.313 -0.974,
            -12.523 0.939 -0.974,
            -12.461 1.562 -0.974,
            -12.368 2.181 -0.974,
            -12.244 2.795 -0.974,
            -12.089 3.401 -0.974,
            -11.905 4.000 -0.974,
            -11.690 4.588 -0.974,
            -11.447 5.165 -0.974,
            -11.176 5.729 -0.974,
            -10.876 6.279 -0.974,
            -10.550 6.814 -0.974,
            -10.197 7.331 -0.974,
            -9.819 7.830 -0.974,
            -9.416 8.310 -0.974,
            -8.990 8.769 -0.974,
            -8.542 9.206 -0.974,
            -8.072 9.620 -0.974,
            -7.583 10.011 -0.974,
            -7.074 10.376 -0.974,
            -6.548 10.716 -0.974,
            -6.006 11.029 -0.974,
            -5.449 11.315 -0.974,
            -4.878 11.572 -0.974,
            -4.295 11.801 -0.974,
            -3.702 12.001 -0.974,
            -3.099 12.170 -0.974,
            -2.488 12.310 -0.974,
            -1.872 12.418 -0.974,
            -1.250 12.496 -0.974,
            -0.626 12.543 -0.974,
            -9.773 7.794 1.030,
            -8.948 8.728 1.030,
            -9.372 8.271 1.030,
            -7.042 10.328 1.030,
            -7.548 9.964 1.030,
            -8.035 9.576 1.030,
            -8.502 9.163 1.030,
            -11.123 5.703 1.030,
            -10.500 6.782 1.030,
            -10.825 6.250 1.030,
            -4.855 11.518 1.030,
            -5.424 11.262 1.030,
            -5.978 10.978 1.030,
            -6.518 10.666 1.030,
            -11.636 4.567 1.030,
            -10.149 7.297 1.030,
            -11.394 5.141 1.030,
            -4.275 11.746 1.030,
            -11.849 3.981 1.030,
            -3.084 12.113 1.030,
            -3.684 11.945 1.030,
            -12.403 1.554 1.030,
            -12.033 3.386 1.030,
            -12.187 2.782 1.030,
            -12.310 2.171 1.030,
            -0.623 12.484 1.030,
            -1.245 12.438 1.030,
            -1.863 12.360 1.030,
            -2.477 12.252 1.030,
            -12.496 -0.312 1.030,
            -12.465 0.934 1.030,
            -12.496 0.312 1.030,
            -12.403 -1.554 1.030,
            -12.465 -0.934 1.030,
            -11.849 -3.981 1.030,
            -12.187 -2.782 1.030,
            -12.033 -3.386 1.030,
            -11.636 -4.567 1.030,
            -12.310 -2.171 1.030,
            -11.123 -5.703 1.030,
            -11.394 -5.141 1.030,
            -10.149 -7.297 1.030,
            -10.825 -6.250 1.030,
            -10.500 -6.782 1.030,
            -9.372 -8.271 1.030,
            -9.773 -7.794 1.030,
            -8.502 -9.163 1.030,
            -8.948 -8.728 1.030,
            -6.518 -10.666 1.030,
            -8.035 -9.576 1.030,
            -7.548 -9.964 1.030,
            -7.042 -10.328 1.030,
            -5.424 -11.262 1.030,
            -5.978 -10.978 1.030,
            -4.855 -11.518 1.030,
            -2.477 -12.252 1.030,
            -4.275 -11.746 1.030,
            -3.684 -11.945 1.030,
            -3.084 -12.113 1.030,
            -1.245 -12.438 1.030,
            -1.863 -12.360 1.030,
            -0.623 -12.484 1.030,
            -0.633 -12.684 -0.832,
            -0.633 -12.684 0.830,
            -1.265 -12.637 0.830,
            -1.265 -12.637 -0.832,
            -1.893 -12.558 0.830,
            -1.893 -12.558 -0.832,
            -2.516 -12.448 0.830,
            -2.516 -12.448 -0.832,
            -3.134 -12.307 0.830,
            -3.134 -12.307 -0.832,
            -3.743 -12.136 0.830,
            -3.743 -12.136 -0.832,
            -4.344 -11.934 0.830,
            -4.344 -11.934 -0.832,
            -4.933 -11.703 0.830,
            -4.933 -11.703 -0.832,
            -5.510 -11.442 0.830,
            -5.510 -11.442 -0.832,
            -6.074 -11.153 0.830,
            -6.074 -11.153 -0.832,
            -6.622 -10.837 0.830,
            -6.622 -10.837 -0.832,
            -7.154 -10.493 0.830,
            -7.154 -10.493 -0.832,
            -7.668 -10.124 0.830,
            -7.668 -10.124 -0.832,
            -8.163 -9.729 0.830,
            -8.163 -9.729 -0.832,
            -8.638 -9.310 0.830,
            -8.638 -9.310 -0.832,
            -9.092 -8.868 0.830,
            -9.092 -8.868 -0.832,
            -9.522 -8.403 0.830,
            -9.522 -8.403 -0.832,
            -9.929 -7.918 0.830,
            -9.929 -7.918 -0.832,
            -10.312 -7.414 0.830,
            -10.312 -7.414 -0.832,
            -10.668 -6.890 0.830,
            -10.668 -6.890 -0.832,
            -10.999 -6.350 0.830,
            -10.999 -6.350 -0.832,
            -11.301 -5.794 0.830,
            -11.301 -5.794 -0.832,
            -11.576 -5.223 0.830,
            -11.576 -5.223 -0.832,
            -11.822 -4.640 0.830,
            -11.822 -4.640 -0.832,
            -12.039 -4.045 -0.832,
            -12.039 -4.045 0.830,
            -12.225 -3.440 0.830,
            -12.225 -3.440 -0.832,
            -12.382 -2.826 0.830,
            -12.382 -2.826 -0.832,
            -12.507 -2.205 0.830,
            -12.507 -2.205 -0.832,
            -12.601 -1.579 0.830,
            -12.601 -1.579 -0.832,
            -12.664 -0.949 0.830,
            -12.664 -0.949 -0.832,
            -12.696 -0.317 0.830,
            -12.696 -0.317 -0.832,
            -12.696 0.317 0.830,
            -12.696 0.317 -0.832,
            -12.664 0.949 0.830,
            -12.664 0.949 -0.832,
            -12.601 1.579 -0.832,
            -12.601 1.579 0.830,
            -12.507 2.205 0.830,
            -12.507 2.205 -0.832,
            -12.382 2.826 0.830,
            -12.382 2.826 -0.832,
            -12.225 3.440 0.830,
            -12.225 3.440 -0.832,
            -12.039 4.045 0.830,
            -12.039 4.045 -0.832,
            -11.822 4.640 0.830,
            -11.822 4.640 -0.832,
            -11.576 5.223 0.830,
            -11.576 5.223 -0.832,
            -11.301 5.794 -0.832,
            -11.301 5.794 0.830,
            -10.999 6.350 0.830,
            -10.999 6.350 -0.832,
            -10.668 6.890 -0.832,
            -10.668 6.890 0.830,
            -10.312 7.414 -0.832,
            -10.312 7.414 0.830,
            -9.929 7.918 -0.832,
            -9.929 7.918 0.830,
            -9.522 8.403 0.830,
            -9.522 8.403 -0.832,
            -9.092 8.868 -0.832,
            -9.092 8.868 0.830,
            -8.638 9.310 0.830,
            -8.638 9.310 -0.832,
            -8.163 9.729 -0.832,
            -8.163 9.729 0.830,
            -7.668 10.124 0.830,
            -7.668 10.124 -0.832,
            -7.154 10.493 0.830,
            -7.154 10.493 -0.832,
            -6.622 10.837 -0.832,
            -6.622 10.837 0.830,
            -6.074 11.153 0.830,
            -6.074 11.153 -0.832,
            -5.510 11.442 0.830,
            -5.510 11.442 -0.832,
            -4.933 11.703 -0.832,
            -4.933 11.703 0.830,
            -4.344 11.934 0.830,
            -4.344 11.934 -0.832,
            -3.743 12.136 -0.832,
            -3.743 12.136 0.830,
            -3.134 12.307 0.830,
            -3.134 12.307 -0.832,
            -2.516 12.448 -0.832,
            -2.516 12.448 0.830,
            -1.893 12.558 0.830,
            -1.893 12.558 -0.832,
            -1.265 12.637 0.830,
            -1.265 12.637 -0.832,
            -0.633 12.684 -0.832,
            -0.633 12.684 0.830
          ]
        }
        coordIndex [
          0, 1, 2, -1,
          3, 1, 0, -1,
          4, 3, 0, -1,
          5, 3, 4, -1,
          6, 5, 4, -1,
          7, 5, 6, -1,
          8, 7, 6, -1,
          9, 7, 8, -1,
          10, 9, 8, -1,
          11, 9, 10, -1,
          12, 11, 10, -1,
          13, 11, 12, -1,
          14, 13, 12, -1,
          15, 13, 14, -1,
          16, 15, 14, -1,
          17, 15, 16, -1,
          18, 17, 16, -1,
          19, 17, 18, -1,
          20, 19, 18, -1,
          21, 19, 20, -1,
          22, 21, 20, -1,
          23, 21, 22, -1,
          24, 23, 22, -1,
          25, 23, 24, -1,
          26, 25, 24, -1,
          27, 25, 26, -1,
          28, 27, 26, -1,
          29, 27, 28, -1,
          30, 29, 28, -1,
          31, 29, 30, -1,
          32, 31, 30, -1,
          33, 31, 32, -1,
          34, 33, 32, -1,
          35, 33, 34, -1,
          36, 35, 34, -1,
          37, 35, 36, -1,
          38, 37, 36, -1,
          39, 37, 38, -1,
          40, 39, 38, -1,
          41, 39, 40, -1,
          42, 41, 40, -1,
          43, 41, 42, -1,
          44, 43, 42, -1,
          45, 43, 44, -1,
          46, 45, 44, -1,
          47, 45, 46, -1,
          48, 47, 46, -1,
          49, 47, 48, -1,
          50, 49, 48, -1,
          51, 49, 50, -1,
          52, 51, 50, -1,
          53, 51, 52, -1,
          54, 53, 52, -1,
          55, 53, 54, -1,
          56, 55, 54, -1,
          57, 55, 56, -1,
          58, 57, 56, -1,
          59, 57, 58, -1,
          60, 59, 58, -1,
          61, 59, 60, -1,
          62, 61, 60, -1,
          63, 61, 62, -1,
          64, 63, 62, -1,
          65, 63, 64, -1,
          66, 65, 64, -1,
          67, 65, 66, -1,
          68, 67, 66, -1,
          69, 67, 68, -1,
          70, 69, 68, -1,
          71, 69, 70, -1,
          72, 70, 73, -1,
          72, 71, 70, -1,
          74, 72, 73, -1,
          75, 72, 74, -1,
          76, 74, 77, -1,
          76, 75, 74, -1,
          78, 77, 79, -1,
          78, 76, 77, -1,
          80, 78, 79, -1,
          81, 78, 80, -1,
          82, 80, 83, -1,
          82, 81, 80, -1,
          84, 82, 83, -1,
          85, 82, 84, -1,
          86, 85, 84, -1,
          87, 85, 86, -1,
          88, 87, 86, -1,
          89, 87, 88, -1,
          90, 89, 88, -1,
          91, 89, 90, -1,
          92, 91, 90, -1,
          93, 91, 92, -1,
          94, 93, 92, -1,
          94, 92, 95, -1,
          96, 94, 95, -1,
          97, 94, 96, -1,
          98, 97, 96, -1,
          99, 97, 98, -1,
          100, 98, 101, -1,
          100, 99, 98, -1,
          102, 101, 103, -1,
          102, 100, 101, -1,
          104, 102, 103, -1,
          105, 102, 104, -1,
          106, 104, 107, -1,
          106, 105, 104, -1,
          108, 106, 107, -1,
          109, 106, 108, -1,
          110, 109, 108, -1,
          111, 109, 110, -1,
          112, 110, 113, -1,
          112, 111, 110, -1,
          114, 112, 113, -1,
          115, 112, 114, -1,
          116, 114, 117, -1,
          116, 115, 114, -1,
          118, 116, 117, -1,
          119, 116, 118, -1,
          120, 119, 118, -1,
          121, 119, 120, -1,
          122, 120, 123, -1,
          122, 121, 120, -1,
          124, 122, 123, -1,
          125, 122, 124, -1,
          126, 125, 124, -1,
          127, 125, 126, -1,
          128, 129, 130, -1,
          131, 129, 128, -1,
          132, 131, 128, -1,
          132, 128, 133, -1,
          134, 132, 133, -1,
          134, 133, 135, -1,
          136, 134, 135, -1,
          136, 135, 137, -1,
          138, 136, 137, -1,
          138, 137, 139, -1,
          140, 138, 139, -1,
          140, 139, 141, -1,
          142, 140, 141, -1,
          143, 140, 142, -1,
          144, 142, 145, -1,
          144, 143, 142, -1,
          146, 145, 147, -1,
          146, 144, 145, -1,
          148, 146, 147, -1,
          149, 146, 148, -1,
          150, 148, 151, -1,
          150, 149, 148, -1,
          152, 150, 151, -1,
          153, 150, 152, -1,
          154, 152, 155, -1,
          154, 153, 152, -1,
          156, 154, 155, -1,
          157, 154, 156, -1,
          158, 156, 159, -1,
          158, 157, 156, -1,
          160, 159, 161, -1,
          160, 158, 159, -1,
          162, 160, 161, -1,
          163, 160, 162, -1,
          164, 162, 165, -1,
          164, 163, 162, -1,
          166, 164, 165, -1,
          166, 165, 167, -1,
          168, 166, 167, -1,
          169, 166, 168, -1,
          170, 169, 168, -1,
          171, 169, 170, -1,
          172, 171, 170, -1,
          172, 170, 173, -1,
          174, 172, 173, -1,
          174, 173, 175, -1,
          176, 174, 175, -1,
          177, 174, 176, -1,
          178, 177, 176, -1,
          178, 176, 179, -1,
          180, 178, 179, -1,
          180, 179, 181, -1,
          182, 181, 183, -1,
          182, 180, 181, -1,
          184, 183, 185, -1,
          184, 182, 183, -1,
          186, 185, 187, -1,
          186, 184, 185, -1,
          188, 187, 189, -1,
          188, 186, 187, -1,
          190, 189, 191, -1,
          190, 188, 189, -1,
          192, 191, 193, -1,
          192, 190, 191, -1,
          194, 193, 195, -1,
          194, 192, 193, -1,
          196, 195, 197, -1,
          196, 194, 195, -1,
          198, 197, 199, -1,
          198, 196, 197, -1,
          200, 198, 199, -1,
          201, 198, 200, -1,
          202, 200, 203, -1,
          202, 201, 200, -1,
          204, 203, 205, -1,
          204, 202, 203, -1,
          206, 205, 207, -1,
          206, 204, 205, -1,
          208, 207, 209, -1,
          208, 206, 207, -1,
          210, 209, 211, -1,
          210, 208, 209, -1,
          212, 211, 213, -1,
          212, 210, 211, -1,
          214, 213, 215, -1,
          214, 212, 213, -1,
          216, 214, 215, -1,
          216, 215, 217, -1,
          218, 216, 217, -1,
          219, 216, 218, -1,
          220, 219, 218, -1,
          220, 218, 221, -1,
          222, 220, 221, -1,
          222, 221, 223, -1,
          224, 223, 225, -1,
          224, 222, 223, -1,
          226, 225, 227, -1,
          226, 224, 225, -1,
          228, 227, 229, -1,
          228, 226, 227, -1,
          230, 229, 231, -1,
          230, 228, 229, -1,
          232, 230, 231, -1,
          233, 230, 232, -1,
          234, 232, 235, -1,
          234, 233, 232, -1,
          236, 234, 235, -1,
          237, 234, 236, -1,
          238, 236, 239, -1,
          238, 237, 236, -1,
          240, 238, 239, -1,
          241, 238, 240, -1,
          242, 240, 243, -1,
          242, 241, 240, -1,
          244, 243, 245, -1,
          244, 242, 243, -1,
          246, 244, 245, -1,
          247, 244, 246, -1,
          248, 246, 249, -1,
          248, 247, 246, -1,
          250, 249, 251, -1,
          250, 248, 249, -1,
          252, 250, 251, -1,
          253, 250, 252, -1,
          254, 252, 255, -1,
          254, 253, 252, -1,
          253, 1, 3, -1,
          253, 254, 1, -1,
          250, 3, 5, -1,
          250, 253, 3, -1,
          248, 5, 7, -1,
          248, 250, 5, -1,
          247, 7, 9, -1,
          247, 248, 7, -1,
          244, 9, 11, -1,
          244, 247, 9, -1,
          242, 11, 13, -1,
          242, 244, 11, -1,
          241, 13, 15, -1,
          241, 242, 13, -1,
          238, 15, 17, -1,
          238, 241, 15, -1,
          237, 17, 19, -1,
          237, 238, 17, -1,
          234, 19, 21, -1,
          234, 237, 19, -1,
          233, 21, 23, -1,
          233, 234, 21, -1,
          230, 23, 25, -1,
          230, 233, 23, -1,
          228, 25, 27, -1,
          228, 230, 25, -1,
          226, 27, 29, -1,
          226, 228, 27, -1,
          224, 29, 31, -1,
          224, 226, 29, -1,
          222, 31, 33, -1,
          222, 224, 31, -1,
          220, 33, 35, -1,
          220, 222, 33, -1,
          219, 35, 37, -1,
          219, 220, 35, -1,
          216, 219, 37, -1,
          216, 37, 39, -1,
          214, 216, 39, -1,
          214, 39, 41, -1,
          212, 214, 41, -1,
          212, 41, 43, -1,
          210, 212, 43, -1,
          210, 43, 45, -1,
          208, 45, 47, -1,
          208, 210, 45, -1,
          206, 47, 49, -1,
          206, 208, 47, -1,
          204, 49, 51, -1,
          204, 206, 49, -1,
          202, 51, 53, -1,
          202, 204, 51, -1,
          201, 53, 55, -1,
          201, 202, 53, -1,
          198, 55, 57, -1,
          198, 201, 55, -1,
          196, 57, 59, -1,
          196, 198, 57, -1,
          194, 59, 61, -1,
          194, 196, 59, -1,
          192, 61, 63, -1,
          192, 194, 61, -1,
          190, 63, 65, -1,
          190, 192, 63, -1,
          188, 65, 67, -1,
          188, 190, 65, -1,
          186, 67, 69, -1,
          186, 188, 67, -1,
          184, 69, 71, -1,
          184, 186, 69, -1,
          182, 71, 72, -1,
          182, 184, 71, -1,
          180, 72, 75, -1,
          180, 182, 72, -1,
          178, 75, 76, -1,
          178, 180, 75, -1,
          177, 76, 78, -1,
          177, 178, 76, -1,
          174, 78, 81, -1,
          174, 177, 78, -1,
          172, 81, 82, -1,
          172, 174, 81, -1,
          171, 82, 85, -1,
          171, 172, 82, -1,
          169, 171, 85, -1,
          169, 85, 87, -1,
          166, 169, 87, -1,
          166, 87, 89, -1,
          164, 166, 89, -1,
          164, 89, 91, -1,
          163, 164, 91, -1,
          163, 91, 93, -1,
          160, 163, 93, -1,
          160, 93, 94, -1,
          158, 160, 94, -1,
          158, 94, 97, -1,
          157, 158, 97, -1,
          157, 97, 99, -1,
          154, 157, 99, -1,
          154, 99, 100, -1,
          153, 154, 100, -1,
          153, 100, 102, -1,
          150, 153, 102, -1,
          150, 102, 105, -1,
          149, 150, 105, -1,
          149, 105, 106, -1,
          146, 149, 106, -1,
          146, 106, 109, -1,
          144, 146, 109, -1,
          144, 109, 111, -1,
          143, 111, 112, -1,
          143, 144, 111, -1,
          140, 112, 115, -1,
          140, 143, 112, -1,
          138, 115, 116, -1,
          138, 140, 115, -1,
          136, 116, 119, -1,
          136, 138, 116, -1,
          134, 119, 121, -1,
          134, 136, 119, -1,
          132, 121, 122, -1,
          132, 134, 121, -1,
          131, 122, 125, -1,
          131, 132, 122, -1,
          129, 125, 127, -1,
          129, 131, 125, -1,
          256, 139, 137, -1,
          256, 137, 135, -1,
          256, 135, 133, -1,
          256, 133, 128, -1,
          256, 128, 130, -1,
          141, 139, 256, -1,
          142, 141, 256, -1,
          145, 142, 256, -1,
          147, 145, 256, -1,
          148, 147, 256, -1,
          151, 148, 256, -1,
          152, 256, 257, -1,
          152, 151, 256, -1,
          155, 152, 257, -1,
          156, 155, 257, -1,
          159, 156, 257, -1,
          161, 159, 257, -1,
          162, 161, 257, -1,
          165, 162, 257, -1,
          167, 165, 257, -1,
          168, 167, 257, -1,
          170, 168, 257, -1,
          173, 170, 257, -1,
          175, 173, 257, -1,
          176, 175, 257, -1,
          179, 176, 257, -1,
          179, 257, 258, -1,
          181, 179, 258, -1,
          183, 181, 258, -1,
          185, 183, 258, -1,
          187, 185, 258, -1,
          189, 187, 258, -1,
          191, 189, 258, -1,
          193, 191, 258, -1,
          252, 259, 255, -1,
          195, 193, 258, -1,
          251, 259, 252, -1,
          197, 195, 258, -1,
          249, 259, 251, -1,
          199, 197, 258, -1,
          246, 259, 249, -1,
          200, 199, 258, -1,
          245, 259, 246, -1,
          203, 200, 258, -1,
          243, 259, 245, -1,
          205, 203, 258, -1,
          205, 258, 260, -1,
          240, 259, 243, -1,
          207, 205, 260, -1,
          239, 259, 240, -1,
          209, 207, 260, -1,
          236, 259, 239, -1,
          211, 209, 260, -1,
          235, 259, 236, -1,
          213, 211, 260, -1,
          232, 259, 235, -1,
          215, 213, 260, -1,
          231, 260, 259, -1,
          231, 259, 232, -1,
          217, 215, 260, -1,
          229, 260, 231, -1,
          218, 217, 260, -1,
          227, 260, 229, -1,
          221, 218, 260, -1,
          225, 260, 227, -1,
          223, 221, 260, -1,
          223, 260, 225, -1,
          256, 130, 261, -1,
          256, 261, 262, -1,
          256, 262, 263, -1,
          256, 263, 264, -1,
          256, 264, 265, -1,
          256, 265, 266, -1,
          256, 266, 267, -1,
          256, 267, 268, -1,
          256, 268, 269, -1,
          256, 269, 270, -1,
          256, 270, 271, -1,
          256, 271, 272, -1,
          257, 272, 273, -1,
          257, 273, 274, -1,
          257, 274, 275, -1,
          257, 275, 276, -1,
          257, 276, 277, -1,
          257, 277, 278, -1,
          257, 278, 279, -1,
          257, 279, 280, -1,
          257, 280, 281, -1,
          257, 281, 282, -1,
          257, 256, 272, -1,
          257, 282, 283, -1,
          257, 283, 284, -1,
          257, 284, 285, -1,
          258, 285, 286, -1,
          258, 286, 287, -1,
          258, 287, 288, -1,
          258, 288, 289, -1,
          258, 289, 290, -1,
          258, 290, 291, -1,
          258, 291, 292, -1,
          258, 292, 293, -1,
          258, 293, 294, -1,
          258, 294, 295, -1,
          258, 295, 296, -1,
          258, 296, 297, -1,
          258, 297, 298, -1,
          258, 257, 285, -1,
          260, 298, 299, -1,
          260, 299, 300, -1,
          260, 300, 301, -1,
          260, 301, 302, -1,
          260, 302, 303, -1,
          260, 303, 304, -1,
          260, 304, 305, -1,
          260, 305, 306, -1,
          260, 306, 307, -1,
          260, 307, 308, -1,
          260, 308, 309, -1,
          260, 309, 310, -1,
          260, 310, 311, -1,
          260, 258, 298, -1,
          259, 311, 312, -1,
          259, 312, 313, -1,
          259, 313, 314, -1,
          259, 314, 315, -1,
          259, 315, 316, -1,
          259, 316, 317, -1,
          259, 260, 311, -1,
          318, 259, 317, -1,
          319, 259, 318, -1,
          320, 259, 319, -1,
          321, 259, 320, -1,
          322, 259, 321, -1,
          255, 259, 322, -1,
          323, 324, 325, -1,
          326, 327, 328, -1,
          326, 328, 329, -1,
          326, 329, 324, -1,
          326, 324, 323, -1,
          330, 331, 332, -1,
          333, 334, 335, -1,
          333, 335, 336, -1,
          333, 336, 326, -1,
          337, 338, 331, -1,
          337, 330, 339, -1,
          337, 331, 330, -1,
          340, 333, 326, -1,
          341, 323, 338, -1,
          341, 326, 323, -1,
          341, 338, 337, -1,
          342, 343, 340, -1,
          344, 341, 345, -1,
          344, 345, 346, -1,
          344, 346, 347, -1,
          348, 349, 350, -1,
          348, 350, 351, -1,
          348, 351, 342, -1,
          348, 342, 340, -1,
          348, 340, 326, -1,
          352, 344, 353, -1,
          352, 353, 354, -1,
          4, 2, 348, -1,
          4, 0, 2, -1,
          355, 352, 356, -1,
          6, 4, 348, -1,
          10, 6, 348, -1,
          10, 8, 6, -1,
          357, 358, 359, -1,
          360, 352, 355, -1,
          360, 358, 357, -1,
          360, 355, 361, -1,
          360, 361, 358, -1,
          360, 341, 344, -1,
          360, 344, 352, -1,
          16, 14, 12, -1,
          16, 12, 10, -1,
          362, 360, 363, -1,
          20, 10, 348, -1,
          20, 16, 10, -1,
          20, 18, 16, -1,
          364, 341, 360, -1,
          364, 360, 362, -1,
          364, 362, 365, -1,
          364, 365, 366, -1,
          28, 26, 24, -1,
          28, 24, 22, -1,
          367, 364, 368, -1,
          369, 341, 364, -1,
          369, 367, 370, -1,
          369, 364, 367, -1,
          36, 34, 32, -1,
          38, 32, 30, -1,
          38, 30, 28, -1,
          38, 22, 20, -1,
          38, 28, 22, -1,
          38, 36, 32, -1,
          371, 372, 373, -1,
          371, 373, 374, -1,
          42, 40, 38, -1,
          44, 42, 38, -1,
          375, 369, 372, -1,
          375, 371, 376, -1,
          375, 372, 371, -1,
          377, 20, 348, -1,
          377, 341, 369, -1,
          377, 326, 341, -1,
          377, 348, 326, -1,
          377, 369, 375, -1,
          48, 46, 44, -1,
          48, 44, 38, -1,
          50, 48, 38, -1,
          52, 38, 20, -1,
          52, 50, 38, -1,
          378, 379, 380, -1,
          378, 380, 381, -1,
          382, 378, 383, -1,
          382, 379, 378, -1,
          62, 60, 58, -1,
          62, 58, 56, -1,
          126, 379, 382, -1,
          126, 382, 384, -1,
          66, 62, 56, -1,
          66, 20, 377, -1,
          66, 52, 20, -1,
          66, 64, 62, -1,
          66, 56, 54, -1,
          66, 54, 52, -1,
          123, 66, 377, -1,
          123, 377, 379, -1,
          123, 126, 124, -1,
          123, 379, 126, -1,
          73, 70, 68, -1,
          73, 68, 66, -1,
          117, 123, 120, -1,
          117, 120, 118, -1,
          74, 73, 66, -1,
          77, 74, 66, -1,
          113, 117, 114, -1,
          80, 79, 77, -1,
          107, 117, 113, -1,
          107, 113, 110, -1,
          107, 110, 108, -1,
          84, 80, 77, -1,
          84, 83, 80, -1,
          103, 117, 107, -1,
          103, 107, 104, -1,
          88, 84, 77, -1,
          88, 86, 84, -1,
          96, 117, 103, -1,
          96, 103, 101, -1,
          96, 101, 98, -1,
          95, 66, 123, -1,
          95, 123, 117, -1,
          95, 77, 66, -1,
          95, 88, 77, -1,
          95, 117, 96, -1,
          95, 92, 90, -1,
          95, 90, 88, -1,
          385, 129, 127, -1,
          385, 127, 386, -1,
          385, 386, 387, -1,
          388, 387, 389, -1,
          388, 385, 387, -1,
          390, 389, 391, -1,
          390, 388, 389, -1,
          392, 391, 393, -1,
          392, 390, 391, -1,
          394, 393, 395, -1,
          394, 392, 393, -1,
          396, 395, 397, -1,
          396, 394, 395, -1,
          398, 397, 399, -1,
          398, 396, 397, -1,
          400, 399, 401, -1,
          400, 398, 399, -1,
          402, 401, 403, -1,
          402, 400, 401, -1,
          404, 403, 405, -1,
          404, 402, 403, -1,
          406, 405, 407, -1,
          406, 404, 405, -1,
          408, 407, 409, -1,
          408, 406, 407, -1,
          410, 409, 411, -1,
          410, 408, 409, -1,
          412, 411, 413, -1,
          412, 410, 411, -1,
          414, 413, 415, -1,
          414, 412, 413, -1,
          416, 415, 417, -1,
          416, 414, 415, -1,
          418, 417, 419, -1,
          418, 416, 417, -1,
          420, 418, 419, -1,
          420, 419, 421, -1,
          422, 420, 421, -1,
          422, 421, 423, -1,
          424, 422, 423, -1,
          424, 423, 425, -1,
          426, 424, 425, -1,
          426, 425, 427, -1,
          428, 426, 427, -1,
          428, 427, 429, -1,
          430, 429, 431, -1,
          430, 428, 429, -1,
          432, 430, 431, -1,
          433, 432, 431, -1,
          433, 431, 434, -1,
          433, 434, 435, -1,
          436, 435, 437, -1,
          436, 433, 435, -1,
          438, 437, 439, -1,
          438, 436, 437, -1,
          440, 439, 441, -1,
          440, 438, 439, -1,
          442, 441, 443, -1,
          442, 440, 441, -1,
          444, 443, 445, -1,
          444, 442, 443, -1,
          446, 445, 447, -1,
          446, 444, 445, -1,
          448, 447, 449, -1,
          448, 446, 447, -1,
          450, 448, 449, -1,
          451, 449, 452, -1,
          451, 452, 453, -1,
          451, 450, 449, -1,
          454, 453, 455, -1,
          454, 451, 453, -1,
          456, 455, 457, -1,
          456, 454, 455, -1,
          458, 457, 459, -1,
          458, 456, 457, -1,
          460, 459, 461, -1,
          460, 458, 459, -1,
          462, 461, 463, -1,
          462, 460, 461, -1,
          464, 462, 463, -1,
          465, 463, 466, -1,
          465, 466, 467, -1,
          465, 464, 463, -1,
          468, 465, 467, -1,
          469, 468, 467, -1,
          469, 467, 470, -1,
          471, 469, 470, -1,
          471, 470, 472, -1,
          473, 471, 472, -1,
          473, 472, 474, -1,
          473, 474, 475, -1,
          476, 473, 475, -1,
          477, 476, 475, -1,
          477, 475, 478, -1,
          477, 478, 479, -1,
          480, 477, 479, -1,
          481, 480, 479, -1,
          481, 479, 482, -1,
          481, 482, 483, -1,
          484, 481, 483, -1,
          484, 483, 485, -1,
          486, 484, 485, -1,
          487, 486, 485, -1,
          487, 485, 488, -1,
          487, 488, 489, -1,
          490, 487, 489, -1,
          490, 489, 491, -1,
          492, 490, 491, -1,
          493, 492, 491, -1,
          493, 491, 494, -1,
          493, 494, 495, -1,
          496, 493, 495, -1,
          497, 495, 498, -1,
          497, 498, 499, -1,
          497, 496, 495, -1,
          500, 497, 499, -1,
          501, 499, 502, -1,
          501, 502, 503, -1,
          501, 500, 499, -1,
          504, 503, 505, -1,
          504, 501, 503, -1,
          506, 504, 505, -1,
          507, 505, 508, -1,
          507, 508, 1, -1,
          507, 506, 505, -1,
          254, 507, 1, -1,
          507, 254, 255, -1,
          507, 255, 322, -1,
          506, 507, 322, -1,
          506, 322, 321, -1,
          504, 506, 321, -1,
          504, 321, 320, -1,
          501, 504, 320, -1,
          501, 320, 319, -1,
          500, 501, 319, -1,
          500, 319, 318, -1,
          497, 500, 318, -1,
          497, 318, 317, -1,
          496, 317, 316, -1,
          496, 497, 317, -1,
          315, 496, 316, -1,
          493, 496, 315, -1,
          492, 315, 314, -1,
          492, 493, 315, -1,
          490, 314, 313, -1,
          490, 492, 314, -1,
          487, 313, 312, -1,
          487, 490, 313, -1,
          311, 487, 312, -1,
          486, 487, 311, -1,
          484, 311, 310, -1,
          484, 486, 311, -1,
          481, 310, 309, -1,
          481, 484, 310, -1,
          480, 309, 308, -1,
          480, 481, 309, -1,
          477, 308, 307, -1,
          477, 480, 308, -1,
          476, 307, 306, -1,
          476, 477, 307, -1,
          473, 476, 306, -1,
          473, 306, 305, -1,
          471, 473, 305, -1,
          471, 305, 304, -1,
          469, 471, 304, -1,
          469, 304, 303, -1,
          468, 469, 303, -1,
          468, 303, 302, -1,
          301, 468, 302, -1,
          465, 468, 301, -1,
          464, 465, 301, -1,
          464, 301, 300, -1,
          462, 464, 300, -1,
          462, 300, 299, -1,
          460, 462, 299, -1,
          460, 299, 298, -1,
          297, 460, 298, -1,
          458, 460, 297, -1,
          456, 297, 296, -1,
          456, 458, 297, -1,
          295, 456, 296, -1,
          454, 456, 295, -1,
          451, 295, 294, -1,
          451, 454, 295, -1,
          293, 451, 294, -1,
          450, 451, 293, -1,
          448, 293, 292, -1,
          448, 450, 293, -1,
          446, 292, 291, -1,
          446, 448, 292, -1,
          444, 291, 290, -1,
          444, 446, 291, -1,
          289, 444, 290, -1,
          442, 444, 289, -1,
          440, 289, 288, -1,
          440, 442, 289, -1,
          287, 440, 288, -1,
          438, 440, 287, -1,
          436, 287, 286, -1,
          436, 438, 287, -1,
          433, 286, 285, -1,
          433, 436, 286, -1,
          432, 285, 284, -1,
          432, 433, 285, -1,
          430, 284, 283, -1,
          430, 432, 284, -1,
          428, 283, 282, -1,
          428, 430, 283, -1,
          281, 428, 282, -1,
          426, 428, 281, -1,
          280, 426, 281, -1,
          424, 426, 280, -1,
          422, 424, 280, -1,
          422, 280, 279, -1,
          420, 422, 279, -1,
          420, 279, 278, -1,
          418, 420, 278, -1,
          418, 278, 277, -1,
          416, 418, 277, -1,
          416, 277, 276, -1,
          414, 276, 275, -1,
          414, 416, 276, -1,
          274, 414, 275, -1,
          412, 414, 274, -1,
          410, 274, 273, -1,
          410, 412, 274, -1,
          408, 273, 272, -1,
          408, 410, 273, -1,
          271, 408, 272, -1,
          406, 408, 271, -1,
          404, 271, 270, -1,
          404, 406, 271, -1,
          402, 270, 269, -1,
          402, 404, 270, -1,
          400, 269, 268, -1,
          400, 402, 269, -1,
          398, 268, 267, -1,
          398, 400, 268, -1,
          266, 398, 267, -1,
          396, 398, 266, -1,
          394, 266, 265, -1,
          394, 396, 266, -1,
          264, 394, 265, -1,
          392, 394, 264, -1,
          263, 392, 264, -1,
          390, 392, 263, -1,
          388, 263, 262, -1,
          388, 390, 263, -1,
          385, 262, 261, -1,
          385, 388, 262, -1,
          129, 261, 130, -1,
          129, 385, 261, -1,
          384, 127, 126, -1,
          386, 127, 384, -1,
          382, 386, 384, -1,
          387, 386, 382, -1,
          383, 387, 382, -1,
          389, 387, 383, -1,
          378, 389, 383, -1,
          391, 389, 378, -1,
          381, 391, 378, -1,
          393, 391, 381, -1,
          380, 393, 381, -1,
          395, 393, 380, -1,
          379, 395, 380, -1,
          397, 395, 379, -1,
          377, 397, 379, -1,
          399, 397, 377, -1,
          375, 399, 377, -1,
          401, 399, 375, -1,
          376, 401, 375, -1,
          403, 401, 376, -1,
          371, 403, 376, -1,
          405, 403, 371, -1,
          374, 405, 371, -1,
          407, 405, 374, -1,
          373, 407, 374, -1,
          409, 407, 373, -1,
          372, 409, 373, -1,
          411, 409, 372, -1,
          369, 411, 372, -1,
          413, 411, 369, -1,
          370, 413, 369, -1,
          415, 413, 370, -1,
          367, 415, 370, -1,
          417, 415, 367, -1,
          368, 417, 367, -1,
          419, 417, 368, -1,
          364, 419, 368, -1,
          421, 419, 364, -1,
          366, 421, 364, -1,
          423, 421, 366, -1,
          365, 423, 366, -1,
          425, 423, 365, -1,
          362, 425, 365, -1,
          427, 425, 362, -1,
          363, 427, 362, -1,
          429, 427, 363, -1,
          360, 429, 363, -1,
          431, 429, 360, -1,
          357, 431, 360, -1,
          434, 431, 357, -1,
          359, 434, 357, -1,
          435, 434, 359, -1,
          358, 435, 359, -1,
          437, 435, 358, -1,
          361, 437, 358, -1,
          439, 437, 361, -1,
          355, 439, 361, -1,
          441, 439, 355, -1,
          356, 441, 355, -1,
          443, 441, 356, -1,
          352, 443, 356, -1,
          445, 443, 352, -1,
          354, 445, 352, -1,
          447, 445, 354, -1,
          353, 447, 354, -1,
          449, 447, 353, -1,
          344, 449, 353, -1,
          452, 449, 344, -1,
          347, 452, 344, -1,
          453, 452, 347, -1,
          346, 453, 347, -1,
          455, 453, 346, -1,
          457, 346, 345, -1,
          457, 455, 346, -1,
          341, 457, 345, -1,
          459, 457, 341, -1,
          461, 341, 337, -1,
          461, 459, 341, -1,
          463, 337, 339, -1,
          463, 461, 337, -1,
          466, 339, 330, -1,
          466, 463, 339, -1,
          467, 330, 332, -1,
          467, 466, 330, -1,
          470, 332, 331, -1,
          470, 467, 332, -1,
          338, 470, 331, -1,
          472, 470, 338, -1,
          474, 472, 338, -1,
          474, 338, 323, -1,
          475, 474, 323, -1,
          475, 323, 325, -1,
          478, 475, 325, -1,
          478, 325, 324, -1,
          479, 324, 329, -1,
          479, 478, 324, -1,
          482, 329, 328, -1,
          482, 479, 329, -1,
          483, 328, 327, -1,
          483, 482, 328, -1,
          485, 327, 326, -1,
          485, 483, 327, -1,
          488, 326, 336, -1,
          488, 485, 326, -1,
          335, 488, 336, -1,
          489, 488, 335, -1,
          491, 335, 334, -1,
          491, 489, 335, -1,
          494, 334, 333, -1,
          494, 491, 334, -1,
          340, 494, 333, -1,
          495, 494, 340, -1,
          343, 495, 340, -1,
          498, 495, 343, -1,
          499, 343, 342, -1,
          499, 498, 343, -1,
          502, 342, 351, -1,
          502, 499, 342, -1,
          503, 351, 350, -1,
          503, 502, 351, -1,
          505, 350, 349, -1,
          505, 503, 350, -1,
          348, 505, 349, -1,
          508, 505, 348, -1,
          2, 508, 348, -1,
          1, 508, 2, -1
        ]
      }
    }
}
