#VRML V2.0 utf8
WorldInfo {
  title "Exported triangle mesh to VRML97"
  info ["Created by FreeCAD"
        "<https://www.freecad.org>"]
}

Transform {
  scale 1 1 1
  rotation 0 0 1 0
  scaleOrientation 0 0 1 0
  center 0.000 0.000 0.000
  translation 0.000 0.000 0.000
  children
    Shape { 
      appearance
      Appearance {
        material
        Material {
          diffuseColor 0.8 0.8 0.8
        }
      }
      geometry
      IndexedFaceSet {
        coord
        Coordinate {
          point [
            0.633 -12.684 -1.859,
            0.000 -12.700 -1.859,
            0.000 -12.559 -2.000,
            0.626 -12.543 -2.000,
            1.265 -12.637 -1.859,
            1.250 -12.496 -2.000,
            1.893 -12.558 -1.859,
            1.872 -12.418 -2.000,
            2.516 -12.448 -1.859,
            2.488 -12.310 -2.000,
            3.134 -12.307 -1.859,
            3.099 -12.170 -2.000,
            3.702 -12.001 -2.000,
            3.743 -12.136 -1.859,
            4.344 -11.934 -1.859,
            4.295 -11.801 -2.000,
            4.878 -11.572 -2.000,
            4.933 -11.703 -1.859,
            5.510 -11.442 -1.859,
            5.449 -11.315 -2.000,
            6.074 -11.153 -1.859,
            6.006 -11.029 -2.000,
            6.548 -10.716 -2.000,
            6.622 -10.837 -1.859,
            7.074 -10.376 -2.000,
            7.154 -10.493 -1.859,
            7.668 -10.124 -1.859,
            7.583 -10.011 -2.000,
            8.072 -9.620 -2.000,
            8.163 -9.729 -1.859,
            8.542 -9.206 -2.000,
            8.638 -9.310 -1.859,
            9.092 -8.868 -1.859,
            8.990 -8.769 -2.000,
            9.522 -8.403 -1.859,
            9.416 -8.310 -2.000,
            9.929 -7.918 -1.859,
            9.819 -7.830 -2.000,
            10.197 -7.331 -2.000,
            10.312 -7.414 -1.859,
            10.668 -6.890 -1.859,
            10.550 -6.814 -2.000,
            10.999 -6.350 -1.859,
            10.876 -6.279 -2.000,
            11.176 -5.729 -2.000,
            11.301 -5.794 -1.859,
            11.576 -5.223 -1.859,
            11.447 -5.165 -2.000,
            11.822 -4.640 -1.859,
            11.690 -4.588 -2.000,
            11.905 -4.000 -2.000,
            12.039 -4.045 -1.859,
            12.089 -3.401 -2.000,
            12.225 -3.440 -1.859,
            12.382 -2.826 -1.859,
            12.244 -2.795 -2.000,
            12.507 -2.205 -1.859,
            12.368 -2.181 -2.000,
            12.601 -1.579 -1.859,
            12.461 -1.562 -2.000,
            12.664 -0.949 -1.859,
            12.523 -0.939 -2.000,
            12.696 -0.317 -1.859,
            12.555 -0.313 -2.000,
            12.696 0.317 -1.859,
            12.555 0.313 -2.000,
            12.664 0.949 -1.859,
            12.523 0.939 -2.000,
            12.601 1.579 -1.859,
            12.461 1.562 -2.000,
            12.507 2.205 -1.859,
            12.368 2.181 -2.000,
            12.382 2.826 -1.859,
            12.244 2.795 -2.000,
            12.089 3.401 -2.000,
            12.225 3.440 -1.859,
            11.905 4.000 -2.000,
            12.039 4.045 -1.859,
            11.690 4.588 -2.000,
            11.822 4.640 -1.859,
            11.576 5.223 -1.859,
            11.447 5.165 -2.000,
            11.301 5.794 -1.859,
            11.176 5.729 -2.000,
            10.876 6.279 -2.000,
            10.999 6.350 -1.859,
            10.550 6.814 -2.000,
            10.668 6.890 -1.859,
            10.312 7.414 -1.859,
            10.197 7.331 -2.000,
            9.929 7.918 -1.859,
            9.819 7.830 -2.000,
            9.416 8.310 -2.000,
            9.522 8.403 -1.859,
            9.092 8.868 -1.859,
            8.990 8.769 -2.000,
            8.638 9.310 -1.859,
            8.542 9.206 -2.000,
            8.163 9.729 -1.859,
            8.072 9.620 -2.000,
            7.583 10.011 -2.000,
            7.668 10.124 -1.859,
            7.074 10.376 -2.000,
            7.154 10.493 -1.859,
            6.548 10.716 -2.000,
            6.622 10.837 -1.859,
            6.006 11.029 -2.000,
            6.074 11.153 -1.859,
            5.510 11.442 -1.859,
            5.449 11.315 -2.000,
            4.933 11.703 -1.859,
            4.878 11.572 -2.000,
            4.295 11.801 -2.000,
            4.344 11.934 -1.859,
            3.743 12.136 -1.859,
            3.702 12.001 -2.000,
            3.099 12.170 -2.000,
            3.134 12.307 -1.859,
            2.488 12.310 -2.000,
            2.516 12.448 -1.859,
            1.893 12.558 -1.859,
            1.872 12.418 -2.000,
            1.250 12.496 -2.000,
            1.265 12.637 -1.859,
            0.633 12.684 -1.859,
            0.626 12.543 -2.000,
            0.000 12.559 -2.000,
            0.000 12.700 -1.859,
            0.000 12.700 1.696,
            0.633 12.684 1.696,
            1.265 12.637 1.696,
            1.893 12.558 1.696,
            2.516 12.448 1.696,
            3.134 12.307 1.696,
            3.743 12.136 1.696,
            4.344 11.934 1.696,
            4.933 11.703 1.696,
            5.510 11.442 1.696,
            6.074 11.153 1.696,
            6.622 10.837 1.696,
            7.154 10.493 1.696,
            7.668 10.124 1.696,
            8.163 9.729 1.696,
            8.638 9.310 1.696,
            9.092 8.868 1.696,
            9.522 8.403 1.696,
            9.929 7.918 1.696,
            10.312 7.414 1.696,
            10.668 6.890 1.696,
            10.999 6.350 1.696,
            11.301 5.794 1.696,
            11.576 5.223 1.696,
            11.822 4.640 1.696,
            12.039 4.045 1.696,
            12.225 3.440 1.696,
            12.382 2.826 1.696,
            12.507 2.205 1.696,
            12.601 1.579 1.696,
            12.664 0.949 1.696,
            12.696 0.317 1.696,
            12.696 -0.317 1.696,
            12.664 -0.949 1.696,
            12.601 -1.579 1.696,
            12.507 -2.205 1.696,
            12.382 -2.826 1.696,
            12.225 -3.440 1.696,
            12.039 -4.045 1.696,
            11.822 -4.640 1.696,
            11.576 -5.223 1.696,
            11.301 -5.794 1.696,
            10.999 -6.350 1.696,
            10.668 -6.890 1.696,
            10.312 -7.414 1.696,
            9.929 -7.918 1.696,
            9.522 -8.403 1.696,
            9.092 -8.868 1.696,
            8.638 -9.310 1.696,
            8.163 -9.729 1.696,
            7.668 -10.124 1.696,
            7.154 -10.493 1.696,
            6.622 -10.837 1.696,
            6.074 -11.153 1.696,
            5.510 -11.442 1.696,
            4.933 -11.703 1.696,
            4.344 -11.934 1.696,
            3.743 -12.136 1.696,
            3.134 -12.307 1.696,
            2.516 -12.448 1.696,
            1.893 -12.558 1.696,
            1.265 -12.637 1.696,
            0.633 -12.684 1.696,
            0.000 -12.700 1.696,
            0.000 12.559 1.837,
            0.626 12.543 1.837,
            1.250 12.496 1.837,
            1.872 12.418 1.837,
            2.488 12.310 1.837,
            3.099 12.170 1.837,
            3.702 12.001 1.837,
            4.295 11.801 1.837,
            4.878 11.572 1.837,
            5.449 11.315 1.837,
            6.006 11.029 1.837,
            6.548 10.716 1.837,
            7.074 10.376 1.837,
            7.583 10.011 1.837,
            8.072 9.620 1.837,
            8.542 9.206 1.837,
            8.990 8.769 1.837,
            9.416 8.310 1.837,
            9.819 7.830 1.837,
            10.197 7.331 1.837,
            10.550 6.814 1.837,
            10.876 6.279 1.837,
            11.176 5.729 1.837,
            11.447 5.165 1.837,
            11.690 4.588 1.837,
            11.905 4.000 1.837,
            12.089 3.401 1.837,
            12.244 2.795 1.837,
            12.368 2.181 1.837,
            12.461 1.562 1.837,
            12.523 0.939 1.837,
            12.555 0.313 1.837,
            12.555 -0.313 1.837,
            12.523 -0.939 1.837,
            12.461 -1.562 1.837,
            12.368 -2.181 1.837,
            12.244 -2.795 1.837,
            12.089 -3.401 1.837,
            11.905 -4.000 1.837,
            11.690 -4.588 1.837,
            11.447 -5.165 1.837,
            11.176 -5.729 1.837,
            10.876 -6.279 1.837,
            10.550 -6.814 1.837,
            10.197 -7.331 1.837,
            9.819 -7.830 1.837,
            9.416 -8.310 1.837,
            8.990 -8.769 1.837,
            8.542 -9.206 1.837,
            8.072 -9.620 1.837,
            7.583 -10.011 1.837,
            7.074 -10.376 1.837,
            6.548 -10.716 1.837,
            6.006 -11.029 1.837,
            5.449 -11.315 1.837,
            4.878 -11.572 1.837,
            4.295 -11.801 1.837,
            3.702 -12.001 1.837,
            3.099 -12.170 1.837,
            2.488 -12.310 1.837,
            1.872 -12.418 1.837,
            1.250 -12.496 1.837,
            0.626 -12.543 1.837,
            0.000 -12.559 1.837,
            0.000 8.373 1.928,
            0.000 4.187 1.982,
            0.000 -0.000 2.000,
            0.000 -8.373 1.928,
            0.000 -4.187 1.982,
            -8.072 -9.620 -2.000,
            -8.542 -9.206 -2.000,
            -8.990 -8.769 -2.000,
            -9.416 -8.310 -2.000,
            -10.550 -6.814 -2.000,
            -9.819 -7.830 -2.000,
            -10.197 -7.331 -2.000,
            -11.176 -5.729 -2.000,
            -10.876 -6.279 -2.000,
            -5.449 -11.315 -2.000,
            -6.006 -11.029 -2.000,
            -6.548 -10.716 -2.000,
            -7.074 -10.376 -2.000,
            -7.583 -10.011 -2.000,
            -11.447 -5.165 -2.000,
            -4.295 -11.801 -2.000,
            -4.878 -11.572 -2.000,
            -11.905 -4.000 -2.000,
            -11.690 -4.588 -2.000,
            -12.244 -2.795 -2.000,
            -12.089 -3.401 -2.000,
            -1.872 -12.418 -2.000,
            -2.488 -12.310 -2.000,
            -3.099 -12.170 -2.000,
            -12.461 -1.562 -2.000,
            -12.368 -2.181 -2.000,
            -1.250 -12.496 -2.000,
            -3.702 -12.001 -2.000,
            -0.626 -12.543 -2.000,
            -12.555 0.313 -2.000,
            -12.523 -0.939 -2.000,
            -12.555 -0.313 -2.000,
            -12.461 1.562 -2.000,
            -12.523 0.939 -2.000,
            -12.368 2.181 -2.000,
            -12.089 3.401 -2.000,
            -12.244 2.795 -2.000,
            -11.690 4.588 -2.000,
            -11.905 4.000 -2.000,
            -11.176 5.729 -2.000,
            -11.447 5.165 -2.000,
            -10.197 7.331 -2.000,
            -10.876 6.279 -2.000,
            -10.550 6.814 -2.000,
            -9.416 8.310 -2.000,
            -9.819 7.830 -2.000,
            -8.990 8.769 -2.000,
            -8.542 9.206 -2.000,
            -7.583 10.011 -2.000,
            -8.072 9.620 -2.000,
            -6.548 10.716 -2.000,
            -7.074 10.376 -2.000,
            -6.006 11.029 -2.000,
            -5.449 11.315 -2.000,
            -4.878 11.572 -2.000,
            -4.295 11.801 -2.000,
            -0.626 12.543 -2.000,
            -3.702 12.001 -2.000,
            -3.099 12.170 -2.000,
            -2.488 12.310 -2.000,
            -1.872 12.418 -2.000,
            -1.250 12.496 -2.000,
            -6.548 10.716 1.837,
            -7.074 10.376 1.837,
            -6.006 11.029 1.837,
            -5.449 11.315 1.837,
            -4.878 11.572 1.837,
            -4.295 11.801 1.837,
            -3.702 12.001 1.837,
            -3.099 12.170 1.837,
            -2.488 12.310 1.837,
            -1.872 12.418 1.837,
            -1.250 12.496 1.837,
            -0.626 12.543 1.837,
            -11.690 4.588 1.837,
            -11.905 4.000 1.837,
            -11.447 5.165 1.837,
            -11.176 5.729 1.837,
            -10.876 6.279 1.837,
            -10.550 6.814 1.837,
            -10.197 7.331 1.837,
            -9.819 7.830 1.837,
            -9.416 8.310 1.837,
            -8.990 8.769 1.837,
            -8.542 9.206 1.837,
            -8.072 9.620 1.837,
            -7.583 10.011 1.837,
            -12.089 -3.401 1.837,
            -11.905 -4.000 1.837,
            -12.244 -2.795 1.837,
            -12.368 -2.181 1.837,
            -12.461 -1.562 1.837,
            -12.523 -0.939 1.837,
            -12.555 -0.313 1.837,
            -12.555 0.313 1.837,
            -12.523 0.939 1.837,
            -12.461 1.562 1.837,
            -12.368 2.181 1.837,
            -12.244 2.795 1.837,
            -12.089 3.401 1.837,
            -7.583 -10.011 1.837,
            -7.074 -10.376 1.837,
            -8.072 -9.620 1.837,
            -8.542 -9.206 1.837,
            -8.990 -8.769 1.837,
            -9.416 -8.310 1.837,
            -9.819 -7.830 1.837,
            -10.197 -7.331 1.837,
            -10.550 -6.814 1.837,
            -10.876 -6.279 1.837,
            -11.176 -5.729 1.837,
            -11.447 -5.165 1.837,
            -11.690 -4.588 1.837,
            -4.295 -11.801 1.837,
            -3.702 -12.001 1.837,
            -4.878 -11.572 1.837,
            -5.449 -11.315 1.837,
            -6.006 -11.029 1.837,
            -6.548 -10.716 1.837,
            -3.099 -12.170 1.837,
            -2.488 -12.310 1.837,
            -1.872 -12.418 1.837,
            -1.250 -12.496 1.837,
            -0.626 -12.543 1.837,
            -0.633 -12.684 1.696,
            -1.265 -12.637 1.696,
            -1.893 -12.558 1.696,
            -2.516 -12.448 1.696,
            -3.134 -12.307 1.696,
            -3.743 -12.136 1.696,
            -4.344 -11.934 1.696,
            -4.933 -11.703 1.696,
            -5.510 -11.442 1.696,
            -6.074 -11.153 1.696,
            -6.622 -10.837 1.696,
            -7.154 -10.493 1.696,
            -7.668 -10.124 1.696,
            -8.163 -9.729 1.696,
            -8.638 -9.310 1.696,
            -9.092 -8.868 1.696,
            -9.522 -8.403 1.696,
            -9.929 -7.918 1.696,
            -10.312 -7.414 1.696,
            -10.668 -6.890 1.696,
            -10.999 -6.350 1.696,
            -11.301 -5.794 1.696,
            -11.576 -5.223 1.696,
            -11.822 -4.640 1.696,
            -12.039 -4.045 1.696,
            -12.225 -3.440 1.696,
            -12.382 -2.826 1.696,
            -12.507 -2.205 1.696,
            -12.601 -1.579 1.696,
            -12.664 -0.949 1.696,
            -12.696 -0.317 1.696,
            -12.696 0.317 1.696,
            -12.664 0.949 1.696,
            -12.601 1.579 1.696,
            -12.507 2.205 1.696,
            -12.382 2.826 1.696,
            -12.225 3.440 1.696,
            -12.039 4.045 1.696,
            -11.822 4.640 1.696,
            -11.576 5.223 1.696,
            -11.301 5.794 1.696,
            -10.999 6.350 1.696,
            -10.668 6.890 1.696,
            -10.312 7.414 1.696,
            -9.929 7.918 1.696,
            -9.522 8.403 1.696,
            -9.092 8.868 1.696,
            -8.638 9.310 1.696,
            -8.163 9.729 1.696,
            -7.668 10.124 1.696,
            -7.154 10.493 1.696,
            -6.622 10.837 1.696,
            -6.074 11.153 1.696,
            -5.510 11.442 1.696,
            -4.933 11.703 1.696,
            -4.344 11.934 1.696,
            -3.743 12.136 1.696,
            -3.134 12.307 1.696,
            -2.516 12.448 1.696,
            -1.893 12.558 1.696,
            -1.265 12.637 1.696,
            -0.633 12.684 1.696,
            -0.633 -12.684 -1.859,
            -1.265 -12.637 -1.859,
            -1.893 -12.558 -1.859,
            -2.516 -12.448 -1.859,
            -3.134 -12.307 -1.859,
            -3.743 -12.136 -1.859,
            -4.344 -11.934 -1.859,
            -4.933 -11.703 -1.859,
            -5.510 -11.442 -1.859,
            -6.074 -11.153 -1.859,
            -6.622 -10.837 -1.859,
            -7.154 -10.493 -1.859,
            -7.668 -10.124 -1.859,
            -8.163 -9.729 -1.859,
            -8.638 -9.310 -1.859,
            -9.092 -8.868 -1.859,
            -9.522 -8.403 -1.859,
            -9.929 -7.918 -1.859,
            -10.312 -7.414 -1.859,
            -10.668 -6.890 -1.859,
            -10.999 -6.350 -1.859,
            -11.301 -5.794 -1.859,
            -11.576 -5.223 -1.859,
            -11.822 -4.640 -1.859,
            -12.039 -4.045 -1.859,
            -12.225 -3.440 -1.859,
            -12.382 -2.826 -1.859,
            -12.507 -2.205 -1.859,
            -12.601 -1.579 -1.859,
            -12.664 -0.949 -1.859,
            -12.696 -0.317 -1.859,
            -12.696 0.317 -1.859,
            -12.664 0.949 -1.859,
            -12.601 1.579 -1.859,
            -12.507 2.205 -1.859,
            -12.382 2.826 -1.859,
            -12.225 3.440 -1.859,
            -12.039 4.045 -1.859,
            -11.822 4.640 -1.859,
            -11.576 5.223 -1.859,
            -11.301 5.794 -1.859,
            -10.999 6.350 -1.859,
            -10.668 6.890 -1.859,
            -10.312 7.414 -1.859,
            -9.929 7.918 -1.859,
            -9.522 8.403 -1.859,
            -9.092 8.868 -1.859,
            -8.638 9.310 -1.859,
            -8.163 9.729 -1.859,
            -7.668 10.124 -1.859,
            -7.154 10.493 -1.859,
            -6.622 10.837 -1.859,
            -6.074 11.153 -1.859,
            -5.510 11.442 -1.859,
            -4.933 11.703 -1.859,
            -4.344 11.934 -1.859,
            -3.743 12.136 -1.859,
            -3.134 12.307 -1.859,
            -2.516 12.448 -1.859,
            -1.893 12.558 -1.859,
            -1.265 12.637 -1.859,
            -0.633 12.684 -1.859
          ]
        }
        coordIndex [
          0, 1, 2, -1,
          0, 2, 3, -1,
          4, 0, 3, -1,
          4, 3, 5, -1,
          6, 4, 5, -1,
          6, 5, 7, -1,
          8, 6, 7, -1,
          8, 7, 9, -1,
          10, 8, 9, -1,
          10, 9, 11, -1,
          12, 10, 11, -1,
          13, 10, 12, -1,
          14, 12, 15, -1,
          14, 13, 12, -1,
          16, 14, 15, -1,
          17, 14, 16, -1,
          18, 16, 19, -1,
          18, 17, 16, -1,
          20, 19, 21, -1,
          20, 18, 19, -1,
          22, 20, 21, -1,
          23, 20, 22, -1,
          24, 23, 22, -1,
          25, 23, 24, -1,
          26, 24, 27, -1,
          26, 25, 24, -1,
          28, 26, 27, -1,
          29, 26, 28, -1,
          30, 29, 28, -1,
          31, 29, 30, -1,
          32, 30, 33, -1,
          32, 31, 30, -1,
          34, 33, 35, -1,
          34, 32, 33, -1,
          36, 34, 35, -1,
          36, 35, 37, -1,
          38, 36, 37, -1,
          39, 36, 38, -1,
          40, 39, 38, -1,
          40, 38, 41, -1,
          42, 40, 41, -1,
          42, 41, 43, -1,
          44, 42, 43, -1,
          45, 42, 44, -1,
          46, 45, 44, -1,
          46, 44, 47, -1,
          48, 46, 47, -1,
          48, 47, 49, -1,
          50, 48, 49, -1,
          51, 48, 50, -1,
          52, 51, 50, -1,
          53, 51, 52, -1,
          54, 52, 55, -1,
          54, 53, 52, -1,
          56, 55, 57, -1,
          56, 54, 55, -1,
          58, 57, 59, -1,
          58, 56, 57, -1,
          60, 59, 61, -1,
          60, 58, 59, -1,
          62, 61, 63, -1,
          62, 60, 61, -1,
          64, 63, 65, -1,
          64, 62, 63, -1,
          66, 65, 67, -1,
          66, 64, 65, -1,
          68, 67, 69, -1,
          68, 66, 67, -1,
          70, 69, 71, -1,
          70, 68, 69, -1,
          72, 71, 73, -1,
          72, 70, 71, -1,
          74, 72, 73, -1,
          75, 72, 74, -1,
          76, 75, 74, -1,
          77, 75, 76, -1,
          78, 77, 76, -1,
          79, 77, 78, -1,
          80, 78, 81, -1,
          80, 79, 78, -1,
          82, 81, 83, -1,
          82, 80, 81, -1,
          84, 82, 83, -1,
          85, 82, 84, -1,
          86, 85, 84, -1,
          87, 85, 86, -1,
          88, 87, 86, -1,
          88, 86, 89, -1,
          90, 88, 89, -1,
          90, 89, 91, -1,
          92, 90, 91, -1,
          93, 90, 92, -1,
          94, 93, 92, -1,
          94, 92, 95, -1,
          96, 95, 97, -1,
          96, 94, 95, -1,
          98, 97, 99, -1,
          98, 96, 97, -1,
          100, 98, 99, -1,
          101, 98, 100, -1,
          102, 101, 100, -1,
          103, 101, 102, -1,
          104, 103, 102, -1,
          105, 103, 104, -1,
          106, 105, 104, -1,
          107, 105, 106, -1,
          108, 106, 109, -1,
          108, 107, 106, -1,
          110, 109, 111, -1,
          110, 108, 109, -1,
          112, 110, 111, -1,
          113, 110, 112, -1,
          114, 112, 115, -1,
          114, 113, 112, -1,
          116, 114, 115, -1,
          117, 114, 116, -1,
          118, 117, 116, -1,
          119, 117, 118, -1,
          120, 118, 121, -1,
          120, 119, 118, -1,
          122, 120, 121, -1,
          123, 120, 122, -1,
          124, 122, 125, -1,
          124, 123, 122, -1,
          126, 124, 125, -1,
          127, 124, 126, -1,
          127, 128, 129, -1,
          124, 127, 129, -1,
          123, 129, 130, -1,
          123, 124, 129, -1,
          120, 130, 131, -1,
          120, 131, 132, -1,
          120, 123, 130, -1,
          119, 120, 132, -1,
          117, 132, 133, -1,
          117, 119, 132, -1,
          114, 133, 134, -1,
          114, 117, 133, -1,
          113, 134, 135, -1,
          113, 135, 136, -1,
          113, 114, 134, -1,
          110, 113, 136, -1,
          108, 136, 137, -1,
          108, 137, 138, -1,
          108, 110, 136, -1,
          107, 108, 138, -1,
          105, 138, 139, -1,
          105, 107, 138, -1,
          103, 139, 140, -1,
          103, 105, 139, -1,
          101, 140, 141, -1,
          101, 141, 142, -1,
          101, 103, 140, -1,
          98, 101, 142, -1,
          96, 142, 143, -1,
          96, 98, 142, -1,
          94, 143, 144, -1,
          94, 96, 143, -1,
          93, 144, 145, -1,
          93, 94, 144, -1,
          90, 145, 146, -1,
          90, 93, 145, -1,
          88, 90, 146, -1,
          88, 146, 147, -1,
          87, 88, 147, -1,
          87, 147, 148, -1,
          85, 87, 148, -1,
          85, 148, 149, -1,
          85, 149, 150, -1,
          82, 85, 150, -1,
          80, 150, 151, -1,
          80, 82, 150, -1,
          79, 151, 152, -1,
          79, 80, 151, -1,
          77, 152, 153, -1,
          77, 79, 152, -1,
          75, 153, 154, -1,
          75, 154, 155, -1,
          75, 77, 153, -1,
          72, 75, 155, -1,
          70, 155, 156, -1,
          70, 72, 155, -1,
          68, 156, 157, -1,
          68, 70, 156, -1,
          66, 157, 158, -1,
          66, 68, 157, -1,
          64, 158, 159, -1,
          64, 66, 158, -1,
          62, 159, 160, -1,
          62, 160, 161, -1,
          62, 64, 159, -1,
          60, 62, 161, -1,
          58, 161, 162, -1,
          58, 162, 163, -1,
          58, 60, 161, -1,
          56, 58, 163, -1,
          54, 163, 164, -1,
          54, 164, 165, -1,
          54, 56, 163, -1,
          53, 54, 165, -1,
          51, 165, 166, -1,
          51, 53, 165, -1,
          48, 166, 167, -1,
          48, 51, 166, -1,
          46, 167, 168, -1,
          46, 168, 169, -1,
          46, 48, 167, -1,
          45, 46, 169, -1,
          42, 169, 170, -1,
          42, 45, 169, -1,
          40, 42, 170, -1,
          40, 170, 171, -1,
          39, 40, 171, -1,
          39, 171, 172, -1,
          36, 39, 172, -1,
          36, 172, 173, -1,
          34, 36, 173, -1,
          34, 173, 174, -1,
          32, 34, 174, -1,
          32, 174, 175, -1,
          31, 32, 175, -1,
          31, 175, 176, -1,
          29, 31, 176, -1,
          29, 176, 177, -1,
          26, 29, 177, -1,
          26, 177, 178, -1,
          25, 26, 178, -1,
          25, 178, 179, -1,
          23, 25, 179, -1,
          23, 179, 180, -1,
          23, 180, 181, -1,
          20, 23, 181, -1,
          18, 20, 181, -1,
          18, 181, 182, -1,
          18, 182, 183, -1,
          17, 18, 183, -1,
          14, 183, 184, -1,
          14, 17, 183, -1,
          14, 184, 185, -1,
          13, 14, 185, -1,
          10, 13, 185, -1,
          10, 185, 186, -1,
          10, 186, 187, -1,
          8, 10, 187, -1,
          6, 187, 188, -1,
          6, 8, 187, -1,
          4, 188, 189, -1,
          4, 189, 190, -1,
          4, 6, 188, -1,
          0, 4, 190, -1,
          1, 190, 191, -1,
          1, 0, 190, -1,
          129, 192, 193, -1,
          129, 128, 192, -1,
          130, 193, 194, -1,
          130, 129, 193, -1,
          131, 194, 195, -1,
          131, 130, 194, -1,
          132, 195, 196, -1,
          132, 131, 195, -1,
          133, 196, 197, -1,
          133, 132, 196, -1,
          134, 197, 198, -1,
          134, 133, 197, -1,
          135, 198, 199, -1,
          135, 134, 198, -1,
          136, 199, 200, -1,
          136, 135, 199, -1,
          137, 200, 201, -1,
          137, 136, 200, -1,
          138, 201, 202, -1,
          138, 137, 201, -1,
          139, 202, 203, -1,
          139, 138, 202, -1,
          204, 139, 203, -1,
          140, 139, 204, -1,
          141, 204, 205, -1,
          141, 140, 204, -1,
          142, 205, 206, -1,
          142, 141, 205, -1,
          143, 206, 207, -1,
          143, 142, 206, -1,
          144, 207, 208, -1,
          144, 143, 207, -1,
          145, 208, 209, -1,
          145, 144, 208, -1,
          146, 209, 210, -1,
          146, 145, 209, -1,
          147, 146, 210, -1,
          147, 210, 211, -1,
          148, 147, 211, -1,
          148, 211, 212, -1,
          213, 148, 212, -1,
          149, 148, 213, -1,
          150, 149, 213, -1,
          150, 213, 214, -1,
          215, 150, 214, -1,
          151, 150, 215, -1,
          152, 215, 216, -1,
          152, 151, 215, -1,
          153, 216, 217, -1,
          153, 152, 216, -1,
          218, 153, 217, -1,
          154, 153, 218, -1,
          155, 218, 219, -1,
          155, 154, 218, -1,
          220, 155, 219, -1,
          156, 155, 220, -1,
          157, 220, 221, -1,
          157, 156, 220, -1,
          158, 221, 222, -1,
          158, 157, 221, -1,
          223, 158, 222, -1,
          159, 158, 223, -1,
          160, 223, 224, -1,
          160, 159, 223, -1,
          225, 160, 224, -1,
          161, 160, 225, -1,
          162, 225, 226, -1,
          162, 161, 225, -1,
          163, 226, 227, -1,
          163, 162, 226, -1,
          164, 227, 228, -1,
          164, 163, 227, -1,
          165, 228, 229, -1,
          165, 164, 228, -1,
          166, 229, 230, -1,
          166, 165, 229, -1,
          167, 230, 231, -1,
          167, 166, 230, -1,
          168, 231, 232, -1,
          168, 167, 231, -1,
          169, 232, 233, -1,
          169, 168, 232, -1,
          170, 233, 234, -1,
          170, 169, 233, -1,
          171, 170, 234, -1,
          171, 234, 235, -1,
          172, 235, 236, -1,
          172, 171, 235, -1,
          173, 172, 236, -1,
          173, 236, 237, -1,
          174, 173, 237, -1,
          174, 237, 238, -1,
          175, 174, 238, -1,
          175, 238, 239, -1,
          176, 175, 239, -1,
          176, 239, 240, -1,
          177, 176, 240, -1,
          177, 240, 241, -1,
          178, 177, 241, -1,
          178, 241, 242, -1,
          179, 178, 242, -1,
          179, 242, 243, -1,
          244, 179, 243, -1,
          180, 179, 244, -1,
          245, 180, 244, -1,
          181, 180, 245, -1,
          182, 181, 245, -1,
          182, 245, 246, -1,
          247, 182, 246, -1,
          183, 182, 247, -1,
          248, 183, 247, -1,
          184, 183, 248, -1,
          185, 248, 249, -1,
          185, 184, 248, -1,
          186, 249, 250, -1,
          186, 185, 249, -1,
          251, 186, 250, -1,
          187, 186, 251, -1,
          252, 187, 251, -1,
          188, 187, 252, -1,
          189, 252, 253, -1,
          189, 188, 252, -1,
          190, 253, 254, -1,
          190, 189, 253, -1,
          255, 190, 254, -1,
          191, 190, 255, -1,
          256, 193, 192, -1,
          256, 194, 193, -1,
          256, 195, 194, -1,
          256, 196, 195, -1,
          256, 197, 196, -1,
          198, 197, 256, -1,
          199, 198, 256, -1,
          200, 199, 256, -1,
          201, 200, 256, -1,
          202, 201, 256, -1,
          203, 202, 256, -1,
          204, 256, 257, -1,
          204, 203, 256, -1,
          205, 204, 257, -1,
          206, 205, 257, -1,
          207, 206, 257, -1,
          208, 207, 257, -1,
          209, 208, 257, -1,
          210, 209, 257, -1,
          211, 210, 257, -1,
          212, 211, 257, -1,
          213, 212, 257, -1,
          214, 213, 257, -1,
          215, 214, 257, -1,
          216, 215, 257, -1,
          217, 257, 258, -1,
          217, 216, 257, -1,
          218, 217, 258, -1,
          219, 218, 258, -1,
          220, 219, 258, -1,
          221, 220, 258, -1,
          222, 221, 258, -1,
          223, 222, 258, -1,
          224, 223, 258, -1,
          254, 259, 255, -1,
          225, 224, 258, -1,
          253, 259, 254, -1,
          226, 225, 258, -1,
          252, 259, 253, -1,
          227, 226, 258, -1,
          251, 259, 252, -1,
          228, 227, 258, -1,
          250, 259, 251, -1,
          229, 228, 258, -1,
          249, 259, 250, -1,
          230, 258, 260, -1,
          230, 229, 258, -1,
          248, 259, 249, -1,
          231, 230, 260, -1,
          247, 259, 248, -1,
          232, 231, 260, -1,
          246, 259, 247, -1,
          233, 232, 260, -1,
          245, 259, 246, -1,
          234, 233, 260, -1,
          244, 259, 245, -1,
          235, 234, 260, -1,
          243, 260, 259, -1,
          243, 259, 244, -1,
          236, 235, 260, -1,
          242, 260, 243, -1,
          237, 236, 260, -1,
          241, 260, 242, -1,
          238, 237, 260, -1,
          240, 260, 241, -1,
          239, 238, 260, -1,
          239, 260, 240, -1,
          261, 262, 263, -1,
          261, 263, 264, -1,
          265, 264, 266, -1,
          265, 266, 267, -1,
          265, 261, 264, -1,
          268, 265, 269, -1,
          270, 271, 272, -1,
          270, 272, 273, -1,
          270, 273, 274, -1,
          270, 274, 261, -1,
          275, 265, 268, -1,
          276, 277, 270, -1,
          278, 275, 279, -1,
          278, 261, 265, -1,
          278, 265, 275, -1,
          280, 278, 281, -1,
          282, 283, 284, -1,
          285, 280, 286, -1,
          287, 284, 288, -1,
          287, 288, 276, -1,
          287, 282, 284, -1,
          289, 276, 270, -1,
          289, 270, 261, -1,
          289, 287, 276, -1,
          290, 291, 292, -1,
          5, 3, 2, -1,
          293, 290, 294, -1,
          7, 2, 289, -1,
          7, 5, 2, -1,
          295, 290, 293, -1,
          11, 9, 7, -1,
          11, 261, 278, -1,
          11, 289, 261, -1,
          11, 7, 289, -1,
          296, 290, 295, -1,
          296, 285, 291, -1,
          296, 295, 297, -1,
          296, 291, 290, -1,
          15, 11, 278, -1,
          15, 12, 11, -1,
          15, 278, 280, -1,
          298, 285, 296, -1,
          298, 296, 299, -1,
          300, 298, 301, -1,
          21, 19, 16, -1,
          21, 16, 15, -1,
          22, 21, 15, -1,
          302, 298, 300, -1,
          302, 300, 303, -1,
          302, 303, 304, -1,
          305, 285, 298, -1,
          305, 298, 302, -1,
          305, 302, 306, -1,
          307, 285, 305, -1,
          307, 280, 285, -1,
          308, 280, 307, -1,
          35, 33, 30, -1,
          35, 30, 28, -1,
          35, 28, 27, -1,
          35, 27, 24, -1,
          35, 24, 22, -1,
          35, 22, 15, -1,
          309, 308, 310, -1,
          38, 37, 35, -1,
          311, 309, 312, -1,
          43, 41, 38, -1,
          313, 309, 311, -1,
          314, 309, 313, -1,
          47, 44, 43, -1,
          315, 309, 314, -1,
          49, 35, 15, -1,
          49, 38, 35, -1,
          49, 43, 38, -1,
          49, 47, 43, -1,
          316, 309, 315, -1,
          55, 52, 50, -1,
          55, 50, 49, -1,
          55, 15, 280, -1,
          55, 49, 15, -1,
          317, 316, 318, -1,
          317, 318, 319, -1,
          317, 319, 320, -1,
          317, 320, 321, -1,
          317, 321, 322, -1,
          317, 309, 316, -1,
          63, 61, 59, -1,
          126, 309, 317, -1,
          125, 309, 126, -1,
          125, 280, 308, -1,
          125, 308, 309, -1,
          125, 55, 280, -1,
          125, 57, 55, -1,
          67, 65, 63, -1,
          69, 67, 63, -1,
          69, 63, 59, -1,
          71, 69, 59, -1,
          71, 59, 57, -1,
          116, 125, 122, -1,
          116, 122, 121, -1,
          116, 121, 118, -1,
          74, 71, 57, -1,
          74, 73, 71, -1,
          112, 116, 115, -1,
          78, 74, 57, -1,
          78, 76, 74, -1,
          106, 116, 112, -1,
          106, 112, 111, -1,
          106, 111, 109, -1,
          86, 84, 83, -1,
          86, 83, 81, -1,
          102, 116, 106, -1,
          102, 106, 104, -1,
          91, 86, 81, -1,
          91, 89, 86, -1,
          99, 116, 102, -1,
          99, 102, 100, -1,
          97, 125, 116, -1,
          97, 116, 99, -1,
          95, 57, 125, -1,
          95, 78, 57, -1,
          95, 125, 97, -1,
          95, 91, 81, -1,
          95, 92, 91, -1,
          95, 81, 78, -1,
          256, 323, 324, -1,
          256, 325, 323, -1,
          256, 326, 325, -1,
          256, 327, 326, -1,
          256, 328, 327, -1,
          256, 329, 328, -1,
          256, 330, 329, -1,
          256, 331, 330, -1,
          256, 332, 331, -1,
          256, 333, 332, -1,
          256, 334, 333, -1,
          256, 192, 334, -1,
          257, 335, 336, -1,
          257, 337, 335, -1,
          257, 338, 337, -1,
          257, 339, 338, -1,
          257, 340, 339, -1,
          257, 341, 340, -1,
          257, 342, 341, -1,
          257, 343, 342, -1,
          257, 344, 343, -1,
          257, 345, 344, -1,
          257, 346, 345, -1,
          257, 347, 346, -1,
          257, 324, 347, -1,
          257, 256, 324, -1,
          258, 348, 349, -1,
          258, 350, 348, -1,
          258, 351, 350, -1,
          258, 352, 351, -1,
          258, 257, 336, -1,
          258, 353, 352, -1,
          258, 354, 353, -1,
          258, 355, 354, -1,
          258, 356, 355, -1,
          258, 357, 356, -1,
          258, 358, 357, -1,
          258, 359, 358, -1,
          258, 360, 359, -1,
          258, 336, 360, -1,
          260, 258, 349, -1,
          260, 361, 362, -1,
          260, 363, 361, -1,
          260, 364, 363, -1,
          260, 365, 364, -1,
          260, 366, 365, -1,
          260, 367, 366, -1,
          260, 368, 367, -1,
          260, 369, 368, -1,
          260, 370, 369, -1,
          260, 371, 370, -1,
          260, 372, 371, -1,
          260, 373, 372, -1,
          260, 349, 373, -1,
          259, 374, 375, -1,
          259, 376, 374, -1,
          259, 377, 376, -1,
          259, 378, 377, -1,
          259, 379, 378, -1,
          259, 362, 379, -1,
          259, 260, 362, -1,
          380, 259, 375, -1,
          381, 259, 380, -1,
          382, 259, 381, -1,
          383, 259, 382, -1,
          384, 259, 383, -1,
          255, 259, 384, -1,
          385, 191, 255, -1,
          385, 255, 384, -1,
          386, 384, 383, -1,
          386, 385, 384, -1,
          387, 383, 382, -1,
          387, 386, 383, -1,
          381, 387, 382, -1,
          388, 387, 381, -1,
          389, 381, 380, -1,
          389, 388, 381, -1,
          390, 380, 375, -1,
          390, 389, 380, -1,
          391, 375, 374, -1,
          391, 390, 375, -1,
          392, 374, 376, -1,
          392, 391, 374, -1,
          393, 376, 377, -1,
          393, 392, 376, -1,
          378, 393, 377, -1,
          394, 393, 378, -1,
          395, 378, 379, -1,
          395, 394, 378, -1,
          362, 395, 379, -1,
          396, 395, 362, -1,
          397, 362, 361, -1,
          397, 396, 362, -1,
          398, 361, 363, -1,
          398, 397, 361, -1,
          399, 363, 364, -1,
          399, 398, 363, -1,
          400, 364, 365, -1,
          400, 399, 364, -1,
          401, 365, 366, -1,
          401, 400, 365, -1,
          402, 366, 367, -1,
          402, 401, 366, -1,
          368, 402, 367, -1,
          403, 402, 368, -1,
          369, 403, 368, -1,
          404, 403, 369, -1,
          405, 404, 369, -1,
          405, 369, 370, -1,
          406, 405, 370, -1,
          406, 370, 371, -1,
          372, 406, 371, -1,
          407, 406, 372, -1,
          408, 372, 373, -1,
          408, 407, 372, -1,
          349, 408, 373, -1,
          409, 408, 349, -1,
          410, 349, 348, -1,
          410, 409, 349, -1,
          411, 348, 350, -1,
          411, 410, 348, -1,
          351, 411, 350, -1,
          412, 411, 351, -1,
          352, 412, 351, -1,
          413, 412, 352, -1,
          414, 352, 353, -1,
          414, 413, 352, -1,
          415, 353, 354, -1,
          415, 414, 353, -1,
          416, 354, 355, -1,
          416, 415, 354, -1,
          417, 355, 356, -1,
          417, 416, 355, -1,
          418, 356, 357, -1,
          418, 417, 356, -1,
          358, 418, 357, -1,
          419, 418, 358, -1,
          420, 358, 359, -1,
          420, 419, 358, -1,
          421, 359, 360, -1,
          421, 420, 359, -1,
          422, 360, 336, -1,
          422, 421, 360, -1,
          423, 336, 335, -1,
          423, 422, 336, -1,
          424, 335, 337, -1,
          424, 423, 335, -1,
          425, 337, 338, -1,
          425, 424, 337, -1,
          426, 338, 339, -1,
          426, 425, 338, -1,
          427, 426, 339, -1,
          427, 339, 340, -1,
          428, 340, 341, -1,
          428, 427, 340, -1,
          429, 428, 341, -1,
          429, 341, 342, -1,
          430, 429, 342, -1,
          430, 342, 343, -1,
          431, 430, 343, -1,
          431, 343, 344, -1,
          432, 431, 344, -1,
          432, 344, 345, -1,
          433, 432, 345, -1,
          433, 345, 346, -1,
          347, 433, 346, -1,
          434, 433, 347, -1,
          435, 434, 347, -1,
          435, 347, 324, -1,
          323, 435, 324, -1,
          436, 435, 323, -1,
          437, 436, 323, -1,
          437, 323, 325, -1,
          326, 437, 325, -1,
          438, 437, 326, -1,
          327, 438, 326, -1,
          439, 438, 327, -1,
          440, 439, 327, -1,
          440, 327, 328, -1,
          329, 440, 328, -1,
          441, 440, 329, -1,
          330, 441, 329, -1,
          442, 441, 330, -1,
          443, 330, 331, -1,
          443, 442, 330, -1,
          444, 331, 332, -1,
          444, 443, 331, -1,
          333, 444, 332, -1,
          445, 444, 333, -1,
          446, 333, 334, -1,
          446, 445, 333, -1,
          192, 446, 334, -1,
          128, 446, 192, -1,
          447, 1, 191, -1,
          447, 191, 385, -1,
          448, 385, 386, -1,
          448, 447, 385, -1,
          449, 386, 387, -1,
          449, 448, 386, -1,
          450, 387, 388, -1,
          450, 449, 387, -1,
          451, 388, 389, -1,
          451, 450, 388, -1,
          452, 389, 390, -1,
          452, 451, 389, -1,
          453, 390, 391, -1,
          453, 452, 390, -1,
          454, 391, 392, -1,
          454, 453, 391, -1,
          455, 392, 393, -1,
          455, 454, 392, -1,
          456, 393, 394, -1,
          456, 455, 393, -1,
          457, 394, 395, -1,
          457, 456, 394, -1,
          458, 395, 396, -1,
          458, 457, 395, -1,
          459, 396, 397, -1,
          459, 458, 396, -1,
          460, 397, 398, -1,
          460, 398, 399, -1,
          460, 459, 397, -1,
          461, 460, 399, -1,
          462, 399, 400, -1,
          462, 400, 401, -1,
          462, 461, 399, -1,
          463, 401, 402, -1,
          463, 462, 401, -1,
          464, 463, 402, -1,
          465, 464, 402, -1,
          465, 402, 403, -1,
          466, 465, 403, -1,
          466, 403, 404, -1,
          467, 466, 404, -1,
          467, 404, 405, -1,
          468, 467, 405, -1,
          468, 405, 406, -1,
          468, 406, 407, -1,
          469, 468, 407, -1,
          470, 407, 408, -1,
          470, 408, 409, -1,
          470, 469, 407, -1,
          471, 470, 409, -1,
          472, 409, 410, -1,
          472, 410, 411, -1,
          472, 471, 409, -1,
          473, 472, 411, -1,
          474, 411, 412, -1,
          474, 412, 413, -1,
          474, 473, 411, -1,
          475, 474, 413, -1,
          476, 413, 414, -1,
          476, 414, 415, -1,
          476, 475, 413, -1,
          477, 476, 415, -1,
          478, 415, 416, -1,
          478, 416, 417, -1,
          478, 477, 415, -1,
          479, 478, 417, -1,
          480, 417, 418, -1,
          480, 418, 419, -1,
          480, 479, 417, -1,
          481, 480, 419, -1,
          482, 419, 420, -1,
          482, 481, 419, -1,
          483, 420, 421, -1,
          483, 482, 420, -1,
          484, 421, 422, -1,
          484, 422, 423, -1,
          484, 483, 421, -1,
          485, 484, 423, -1,
          486, 423, 424, -1,
          486, 485, 423, -1,
          487, 424, 425, -1,
          487, 486, 424, -1,
          488, 425, 426, -1,
          488, 487, 425, -1,
          489, 488, 426, -1,
          489, 426, 427, -1,
          490, 489, 427, -1,
          490, 427, 428, -1,
          490, 428, 429, -1,
          491, 490, 429, -1,
          492, 491, 429, -1,
          492, 429, 430, -1,
          493, 492, 430, -1,
          493, 430, 431, -1,
          494, 493, 431, -1,
          494, 431, 432, -1,
          495, 494, 432, -1,
          495, 432, 433, -1,
          496, 495, 433, -1,
          496, 433, 434, -1,
          497, 496, 434, -1,
          497, 434, 435, -1,
          498, 497, 435, -1,
          498, 435, 436, -1,
          499, 498, 436, -1,
          499, 436, 437, -1,
          499, 437, 438, -1,
          500, 499, 438, -1,
          500, 438, 439, -1,
          501, 500, 439, -1,
          502, 501, 439, -1,
          502, 439, 440, -1,
          502, 440, 441, -1,
          503, 441, 442, -1,
          503, 502, 441, -1,
          504, 442, 443, -1,
          504, 503, 442, -1,
          505, 504, 443, -1,
          506, 443, 444, -1,
          506, 505, 443, -1,
          507, 444, 445, -1,
          507, 445, 446, -1,
          507, 506, 444, -1,
          508, 507, 446, -1,
          127, 446, 128, -1,
          127, 508, 446, -1,
          508, 127, 126, -1,
          508, 126, 317, -1,
          507, 508, 317, -1,
          507, 317, 322, -1,
          506, 507, 322, -1,
          506, 322, 321, -1,
          505, 506, 321, -1,
          505, 321, 320, -1,
          504, 505, 320, -1,
          504, 320, 319, -1,
          503, 504, 319, -1,
          503, 319, 318, -1,
          502, 318, 316, -1,
          502, 503, 318, -1,
          501, 316, 315, -1,
          501, 502, 316, -1,
          500, 315, 314, -1,
          500, 501, 315, -1,
          499, 314, 313, -1,
          499, 500, 314, -1,
          311, 499, 313, -1,
          498, 499, 311, -1,
          497, 311, 312, -1,
          497, 498, 311, -1,
          309, 497, 312, -1,
          496, 497, 309, -1,
          495, 309, 310, -1,
          495, 496, 309, -1,
          494, 310, 308, -1,
          494, 495, 310, -1,
          493, 308, 307, -1,
          493, 494, 308, -1,
          492, 307, 305, -1,
          492, 493, 307, -1,
          491, 492, 305, -1,
          491, 305, 306, -1,
          302, 491, 306, -1,
          490, 491, 302, -1,
          489, 490, 302, -1,
          489, 302, 304, -1,
          488, 489, 304, -1,
          488, 304, 303, -1,
          300, 488, 303, -1,
          487, 488, 300, -1,
          486, 487, 300, -1,
          486, 300, 301, -1,
          298, 486, 301, -1,
          485, 486, 298, -1,
          484, 485, 298, -1,
          484, 298, 299, -1,
          296, 484, 299, -1,
          483, 484, 296, -1,
          482, 296, 297, -1,
          482, 483, 296, -1,
          481, 297, 295, -1,
          481, 482, 297, -1,
          480, 295, 293, -1,
          480, 481, 295, -1,
          479, 293, 294, -1,
          479, 480, 293, -1,
          478, 294, 290, -1,
          478, 479, 294, -1,
          477, 290, 292, -1,
          477, 478, 290, -1,
          476, 292, 291, -1,
          476, 477, 292, -1,
          285, 476, 291, -1,
          475, 476, 285, -1,
          474, 285, 286, -1,
          474, 475, 285, -1,
          473, 286, 280, -1,
          473, 474, 286, -1,
          472, 280, 281, -1,
          472, 473, 280, -1,
          278, 472, 281, -1,
          471, 472, 278, -1,
          279, 471, 278, -1,
          470, 471, 279, -1,
          469, 279, 275, -1,
          469, 470, 279, -1,
          268, 469, 275, -1,
          468, 469, 268, -1,
          269, 468, 268, -1,
          467, 468, 269, -1,
          466, 467, 269, -1,
          466, 269, 265, -1,
          465, 466, 265, -1,
          465, 265, 267, -1,
          266, 465, 267, -1,
          464, 465, 266, -1,
          463, 464, 266, -1,
          463, 266, 264, -1,
          263, 463, 264, -1,
          462, 463, 263, -1,
          262, 462, 263, -1,
          461, 462, 262, -1,
          261, 461, 262, -1,
          460, 461, 261, -1,
          459, 261, 274, -1,
          459, 460, 261, -1,
          458, 274, 273, -1,
          458, 459, 274, -1,
          272, 458, 273, -1,
          457, 458, 272, -1,
          456, 272, 271, -1,
          456, 457, 272, -1,
          455, 271, 270, -1,
          455, 456, 271, -1,
          277, 455, 270, -1,
          454, 455, 277, -1,
          276, 454, 277, -1,
          453, 454, 276, -1,
          452, 276, 288, -1,
          452, 453, 276, -1,
          284, 452, 288, -1,
          451, 452, 284, -1,
          283, 451, 284, -1,
          450, 451, 283, -1,
          449, 283, 282, -1,
          449, 450, 283, -1,
          287, 449, 282, -1,
          448, 449, 287, -1,
          289, 448, 287, -1,
          447, 448, 289, -1,
          2, 447, 289, -1,
          1, 447, 2, -1
        ]
      }
    }
}
