#VRML V2.0 utf8
WorldInfo {
  title "Exported triangle mesh to VRML97"
  info ["Created by FreeCAD"
        "<https://www.freecad.org>"]
}

Transform {
  scale 1 1 1
  rotation 0 0 1 0
  scaleOrientation 0 0 1 0
  center 0.000 0.000 0.000
  translation 0.000 0.000 0.000
  children
    Shape { 
      appearance
      Appearance {
        material
        Material {
          diffuseColor 0.8 0.8 0.8
        }
      }
      geometry
      IndexedFaceSet {
        coord
        Coordinate {
          point [
            0.633 12.684 1.263,
            0.000 12.700 1.263,
            0.000 12.501 1.479,
            0.623 12.485 1.479,
            1.245 12.439 1.479,
            1.265 12.637 1.263,
            1.863 12.361 1.479,
            1.893 12.558 1.263,
            2.477 12.253 1.479,
            2.516 12.448 1.263,
            3.085 12.114 1.479,
            3.134 12.307 1.263,
            3.685 11.945 1.479,
            3.743 12.136 1.263,
            4.276 11.747 1.479,
            4.344 11.934 1.263,
            4.856 11.519 1.479,
            4.933 11.703 1.263,
            5.424 11.263 1.479,
            5.510 11.442 1.263,
            5.979 10.979 1.479,
            6.074 11.153 1.263,
            6.518 10.667 1.479,
            6.622 10.837 1.263,
            7.042 10.329 1.479,
            7.154 10.493 1.263,
            7.548 9.965 1.479,
            7.668 10.124 1.263,
            8.035 9.576 1.479,
            8.163 9.729 1.263,
            8.503 9.164 1.479,
            8.638 9.310 1.263,
            8.949 8.729 1.479,
            9.092 8.868 1.263,
            9.373 8.272 1.479,
            9.522 8.403 1.263,
            9.774 7.794 1.479,
            9.929 7.918 1.263,
            10.150 7.297 1.479,
            10.312 7.414 1.263,
            10.501 6.782 1.479,
            10.668 6.890 1.263,
            10.826 6.250 1.479,
            10.999 6.350 1.263,
            11.124 5.703 1.479,
            11.301 5.794 1.263,
            11.395 5.141 1.479,
            11.576 5.223 1.263,
            11.637 4.567 1.479,
            11.822 4.640 1.263,
            11.850 3.981 1.479,
            12.039 4.045 1.263,
            12.034 3.386 1.479,
            12.225 3.440 1.263,
            12.187 2.782 1.479,
            12.382 2.826 1.263,
            12.311 2.171 1.479,
            12.507 2.205 1.263,
            12.404 1.554 1.479,
            12.601 1.579 1.263,
            12.466 0.934 1.479,
            12.664 0.949 1.263,
            12.497 0.312 1.479,
            12.696 0.317 1.263,
            12.497 -0.312 1.479,
            12.696 -0.317 1.263,
            12.466 -0.934 1.479,
            12.664 -0.949 1.263,
            12.404 -1.554 1.479,
            12.601 -1.579 1.263,
            12.311 -2.171 1.479,
            12.507 -2.205 1.263,
            12.187 -2.782 1.479,
            12.382 -2.826 1.263,
            12.034 -3.386 1.479,
            12.225 -3.440 1.263,
            11.850 -3.981 1.479,
            12.039 -4.045 1.263,
            11.637 -4.567 1.479,
            11.822 -4.640 1.263,
            11.576 -5.223 1.263,
            11.395 -5.141 1.479,
            11.124 -5.703 1.479,
            11.301 -5.794 1.263,
            10.826 -6.250 1.479,
            10.999 -6.350 1.263,
            10.501 -6.782 1.479,
            10.668 -6.890 1.263,
            10.150 -7.297 1.479,
            10.312 -7.414 1.263,
            9.774 -7.794 1.479,
            9.929 -7.918 1.263,
            9.522 -8.403 1.263,
            9.373 -8.272 1.479,
            8.949 -8.729 1.479,
            9.092 -8.868 1.263,
            8.503 -9.164 1.479,
            8.638 -9.310 1.263,
            8.035 -9.576 1.479,
            8.163 -9.729 1.263,
            7.668 -10.124 1.263,
            7.548 -9.965 1.479,
            7.042 -10.329 1.479,
            7.154 -10.493 1.263,
            6.518 -10.667 1.479,
            6.622 -10.837 1.263,
            5.979 -10.979 1.479,
            6.074 -11.153 1.263,
            5.424 -11.263 1.479,
            5.510 -11.442 1.263,
            4.856 -11.519 1.479,
            4.933 -11.703 1.263,
            4.276 -11.747 1.479,
            4.344 -11.934 1.263,
            3.743 -12.136 1.263,
            3.685 -11.945 1.479,
            3.134 -12.307 1.263,
            3.085 -12.114 1.479,
            2.477 -12.253 1.479,
            2.516 -12.448 1.263,
            1.863 -12.361 1.479,
            1.893 -12.558 1.263,
            1.265 -12.637 1.263,
            1.245 -12.439 1.479,
            0.623 -12.485 1.479,
            0.633 -12.684 1.263,
            0.000 -12.501 1.479,
            0.000 -12.700 1.263,
            0.623 -12.484 -2.000,
            0.000 -12.700 -1.800,
            0.000 -12.500 -2.000,
            0.633 -12.684 -1.800,
            1.245 -12.438 -2.000,
            1.265 -12.637 -1.800,
            1.863 -12.360 -2.000,
            1.893 -12.558 -1.800,
            2.477 -12.252 -2.000,
            2.516 -12.448 -1.800,
            3.084 -12.113 -2.000,
            3.134 -12.307 -1.800,
            3.684 -11.945 -2.000,
            3.743 -12.136 -1.800,
            4.275 -11.746 -2.000,
            4.344 -11.934 -1.800,
            4.855 -11.518 -2.000,
            4.933 -11.703 -1.800,
            5.424 -11.262 -2.000,
            5.510 -11.442 -1.800,
            5.978 -10.978 -2.000,
            6.074 -11.153 -1.800,
            6.518 -10.666 -2.000,
            6.622 -10.837 -1.800,
            7.042 -10.328 -2.000,
            7.154 -10.493 -1.800,
            7.548 -9.964 -2.000,
            7.668 -10.124 -1.800,
            8.035 -9.576 -2.000,
            8.163 -9.729 -1.800,
            8.502 -9.163 -2.000,
            8.638 -9.310 -1.800,
            8.948 -8.728 -2.000,
            9.092 -8.868 -1.800,
            9.372 -8.271 -2.000,
            9.522 -8.403 -1.800,
            9.773 -7.794 -2.000,
            9.929 -7.918 -1.800,
            10.149 -7.297 -2.000,
            10.312 -7.414 -1.800,
            10.500 -6.782 -2.000,
            10.668 -6.890 -1.800,
            10.825 -6.250 -2.000,
            10.999 -6.350 -1.800,
            11.123 -5.703 -2.000,
            11.301 -5.794 -1.800,
            11.394 -5.141 -2.000,
            11.576 -5.223 -1.800,
            11.636 -4.567 -2.000,
            11.822 -4.640 -1.800,
            11.849 -3.981 -2.000,
            12.039 -4.045 -1.800,
            12.033 -3.386 -2.000,
            12.225 -3.440 -1.800,
            12.382 -2.826 -1.800,
            12.187 -2.782 -2.000,
            12.310 -2.171 -2.000,
            12.507 -2.205 -1.800,
            12.403 -1.554 -2.000,
            12.601 -1.579 -1.800,
            12.465 -0.934 -2.000,
            12.664 -0.949 -1.800,
            12.496 -0.312 -2.000,
            12.696 -0.317 -1.800,
            12.496 0.312 -2.000,
            12.696 0.317 -1.800,
            12.465 0.934 -2.000,
            12.664 0.949 -1.800,
            12.403 1.554 -2.000,
            12.601 1.579 -1.800,
            12.310 2.171 -2.000,
            12.507 2.205 -1.800,
            12.187 2.782 -2.000,
            12.382 2.826 -1.800,
            12.033 3.386 -2.000,
            12.225 3.440 -1.800,
            12.039 4.045 -1.800,
            11.849 3.981 -2.000,
            11.822 4.640 -1.800,
            11.636 4.567 -2.000,
            11.394 5.141 -2.000,
            11.576 5.223 -1.800,
            11.301 5.794 -1.800,
            11.123 5.703 -2.000,
            10.825 6.250 -2.000,
            10.999 6.350 -1.800,
            10.500 6.782 -2.000,
            10.668 6.890 -1.800,
            10.312 7.414 -1.800,
            10.149 7.297 -2.000,
            9.773 7.794 -2.000,
            9.929 7.918 -1.800,
            9.372 8.271 -2.000,
            9.522 8.403 -1.800,
            9.092 8.868 -1.800,
            8.948 8.728 -2.000,
            8.638 9.310 -1.800,
            8.502 9.163 -2.000,
            8.035 9.576 -2.000,
            8.163 9.729 -1.800,
            7.548 9.964 -2.000,
            7.668 10.124 -1.800,
            7.154 10.493 -1.800,
            7.042 10.328 -2.000,
            6.518 10.666 -2.000,
            6.622 10.837 -1.800,
            5.978 10.978 -2.000,
            6.074 11.153 -1.800,
            5.510 11.442 -1.800,
            5.424 11.262 -2.000,
            4.933 11.703 -1.800,
            4.855 11.518 -2.000,
            4.275 11.746 -2.000,
            4.344 11.934 -1.800,
            3.684 11.945 -2.000,
            3.743 12.136 -1.800,
            3.084 12.113 -2.000,
            3.134 12.307 -1.800,
            2.477 12.252 -2.000,
            2.516 12.448 -1.800,
            1.863 12.360 -2.000,
            1.893 12.558 -1.800,
            1.265 12.637 -1.800,
            1.245 12.438 -2.000,
            0.633 12.684 -1.800,
            0.623 12.484 -2.000,
            0.000 12.500 -2.000,
            0.000 12.700 -1.800,
            0.000 8.339 1.769,
            0.000 -8.339 1.769,
            6.254 9.372 1.577,
            0.000 4.171 1.942,
            6.254 3.126 1.837,
            0.000 -0.000 2.000,
            6.254 -3.126 1.837,
            0.000 -4.171 1.942,
            6.254 -9.372 1.577,
            -8.035 -9.576 -2.000,
            -8.502 -9.163 -2.000,
            -8.948 -8.728 -2.000,
            -10.149 -7.297 -2.000,
            -9.372 -8.271 -2.000,
            -9.773 -7.794 -2.000,
            -7.042 -10.328 -2.000,
            -7.548 -9.964 -2.000,
            -5.978 -10.978 -2.000,
            -6.518 -10.666 -2.000,
            -11.394 -5.141 -2.000,
            -10.500 -6.782 -2.000,
            -10.825 -6.250 -2.000,
            -11.123 -5.703 -2.000,
            -4.855 -11.518 -2.000,
            -5.424 -11.262 -2.000,
            -3.084 -12.113 -2.000,
            -3.684 -11.945 -2.000,
            -4.275 -11.746 -2.000,
            -12.187 -2.782 -2.000,
            -11.636 -4.567 -2.000,
            -11.849 -3.981 -2.000,
            -12.033 -3.386 -2.000,
            -12.403 -1.554 -2.000,
            -12.310 -2.171 -2.000,
            -0.623 -12.484 -2.000,
            -1.245 -12.438 -2.000,
            -1.863 -12.360 -2.000,
            -2.477 -12.252 -2.000,
            -12.496 0.312 -2.000,
            -12.465 -0.934 -2.000,
            -12.496 -0.312 -2.000,
            -12.465 0.934 -2.000,
            -12.403 1.554 -2.000,
            -12.187 2.782 -2.000,
            -12.310 2.171 -2.000,
            -11.636 4.567 -2.000,
            -12.033 3.386 -2.000,
            -11.849 3.981 -2.000,
            -10.825 6.250 -2.000,
            -11.394 5.141 -2.000,
            -11.123 5.703 -2.000,
            -10.500 6.782 -2.000,
            -9.372 8.271 -2.000,
            -10.149 7.297 -2.000,
            -9.773 7.794 -2.000,
            -8.948 8.728 -2.000,
            -7.548 9.964 -2.000,
            -8.502 9.163 -2.000,
            -8.035 9.576 -2.000,
            -7.042 10.328 -2.000,
            -6.518 10.666 -2.000,
            -5.978 10.978 -2.000,
            -4.275 11.746 -2.000,
            -5.424 11.262 -2.000,
            -4.855 11.518 -2.000,
            -3.684 11.945 -2.000,
            -3.084 12.113 -2.000,
            -0.623 12.484 -2.000,
            -2.477 12.252 -2.000,
            -1.863 12.360 -2.000,
            -1.245 12.438 -2.000,
            -0.623 12.485 1.479,
            -1.245 12.439 1.479,
            -1.863 12.361 1.479,
            -2.477 12.253 1.479,
            -3.085 12.114 1.479,
            -3.685 11.945 1.479,
            -4.276 11.747 1.479,
            -4.276 -11.747 1.479,
            -3.685 -11.945 1.479,
            -3.085 -12.114 1.479,
            -2.477 -12.253 1.479,
            -1.863 -12.361 1.479,
            -1.245 -12.439 1.479,
            -0.623 -12.485 1.479,
            -6.254 9.372 1.577,
            -4.856 11.519 1.479,
            -5.424 11.263 1.479,
            -5.979 10.979 1.479,
            -6.518 10.667 1.479,
            -7.042 10.329 1.479,
            -7.548 9.965 1.479,
            -8.035 9.576 1.479,
            -8.503 9.164 1.479,
            -8.949 8.729 1.479,
            -9.373 8.272 1.479,
            -6.254 3.126 1.837,
            -9.774 7.794 1.479,
            -10.150 7.297 1.479,
            -10.501 6.782 1.479,
            -10.826 6.250 1.479,
            -11.124 5.703 1.479,
            -11.395 5.141 1.479,
            -11.637 4.567 1.479,
            -11.850 3.981 1.479,
            -12.034 3.386 1.479,
            -12.187 2.782 1.479,
            -12.311 2.171 1.479,
            -12.404 1.554 1.479,
            -12.466 0.934 1.479,
            -12.497 0.312 1.479,
            -6.254 -3.126 1.837,
            -12.497 -0.312 1.479,
            -12.466 -0.934 1.479,
            -12.404 -1.554 1.479,
            -12.311 -2.171 1.479,
            -12.187 -2.782 1.479,
            -12.034 -3.386 1.479,
            -11.850 -3.981 1.479,
            -11.637 -4.567 1.479,
            -11.395 -5.141 1.479,
            -11.124 -5.703 1.479,
            -10.826 -6.250 1.479,
            -10.501 -6.782 1.479,
            -10.150 -7.297 1.479,
            -9.774 -7.794 1.479,
            -9.373 -8.272 1.479,
            -6.254 -9.372 1.577,
            -8.949 -8.729 1.479,
            -8.503 -9.164 1.479,
            -8.035 -9.576 1.479,
            -7.548 -9.965 1.479,
            -7.042 -10.329 1.479,
            -6.518 -10.667 1.479,
            -5.979 -10.979 1.479,
            -5.424 -11.263 1.479,
            -4.856 -11.519 1.479,
            -0.633 -12.684 -1.800,
            -0.633 -12.684 1.263,
            -1.265 -12.637 -1.800,
            -1.265 -12.637 1.263,
            -1.893 -12.558 -1.800,
            -1.893 -12.558 1.263,
            -2.516 -12.448 -1.800,
            -2.516 -12.448 1.263,
            -3.134 -12.307 -1.800,
            -3.134 -12.307 1.263,
            -3.743 -12.136 -1.800,
            -3.743 -12.136 1.263,
            -4.344 -11.934 -1.800,
            -4.344 -11.934 1.263,
            -4.933 -11.703 -1.800,
            -4.933 -11.703 1.263,
            -5.510 -11.442 -1.800,
            -5.510 -11.442 1.263,
            -6.074 -11.153 -1.800,
            -6.074 -11.153 1.263,
            -6.622 -10.837 -1.800,
            -6.622 -10.837 1.263,
            -7.154 -10.493 -1.800,
            -7.154 -10.493 1.263,
            -7.668 -10.124 -1.800,
            -7.668 -10.124 1.263,
            -8.163 -9.729 -1.800,
            -8.163 -9.729 1.263,
            -8.638 -9.310 -1.800,
            -8.638 -9.310 1.263,
            -9.092 -8.868 -1.800,
            -9.092 -8.868 1.263,
            -9.522 -8.403 -1.800,
            -9.522 -8.403 1.263,
            -9.929 -7.918 -1.800,
            -9.929 -7.918 1.263,
            -10.312 -7.414 -1.800,
            -10.312 -7.414 1.263,
            -10.668 -6.890 1.263,
            -10.668 -6.890 -1.800,
            -10.999 -6.350 -1.800,
            -10.999 -6.350 1.263,
            -11.301 -5.794 -1.800,
            -11.301 -5.794 1.263,
            -11.576 -5.223 1.263,
            -11.576 -5.223 -1.800,
            -11.822 -4.640 -1.800,
            -11.822 -4.640 1.263,
            -12.039 -4.045 -1.800,
            -12.039 -4.045 1.263,
            -12.225 -3.440 -1.800,
            -12.225 -3.440 1.263,
            -12.382 -2.826 1.263,
            -12.382 -2.826 -1.800,
            -12.507 -2.205 -1.800,
            -12.507 -2.205 1.263,
            -12.601 -1.579 1.263,
            -12.601 -1.579 -1.800,
            -12.664 -0.949 -1.800,
            -12.664 -0.949 1.263,
            -12.696 -0.317 1.263,
            -12.696 -0.317 -1.800,
            -12.696 0.317 1.263,
            -12.696 0.317 -1.800,
            -12.664 0.949 -1.800,
            -12.664 0.949 1.263,
            -12.601 1.579 1.263,
            -12.601 1.579 -1.800,
            -12.507 2.205 -1.800,
            -12.507 2.205 1.263,
            -12.382 2.826 -1.800,
            -12.382 2.826 1.263,
            -12.225 3.440 -1.800,
            -12.225 3.440 1.263,
            -12.039 4.045 1.263,
            -12.039 4.045 -1.800,
            -11.822 4.640 1.263,
            -11.822 4.640 -1.800,
            -11.576 5.223 -1.800,
            -11.576 5.223 1.263,
            -11.301 5.794 1.263,
            -11.301 5.794 -1.800,
            -10.999 6.350 -1.800,
            -10.999 6.350 1.263,
            -10.668 6.890 1.263,
            -10.668 6.890 -1.800,
            -10.312 7.414 -1.800,
            -10.312 7.414 1.263,
            -9.929 7.918 -1.800,
            -9.929 7.918 1.263,
            -9.522 8.403 1.263,
            -9.522 8.403 -1.800,
            -9.092 8.868 -1.800,
            -9.092 8.868 1.263,
            -8.638 9.310 -1.800,
            -8.638 9.310 1.263,
            -8.163 9.729 -1.800,
            -8.163 9.729 1.263,
            -7.668 10.124 -1.800,
            -7.668 10.124 1.263,
            -7.154 10.493 1.263,
            -7.154 10.493 -1.800,
            -6.622 10.837 1.263,
            -6.622 10.837 -1.800,
            -6.074 11.153 -1.800,
            -6.074 11.153 1.263,
            -5.510 11.442 1.263,
            -5.510 11.442 -1.800,
            -4.933 11.703 -1.800,
            -4.933 11.703 1.263,
            -4.344 11.934 -1.800,
            -4.344 11.934 1.263,
            -3.743 12.136 -1.800,
            -3.743 12.136 1.263,
            -3.134 12.307 -1.800,
            -3.134 12.307 1.263,
            -2.516 12.448 -1.800,
            -2.516 12.448 1.263,
            -1.893 12.558 1.263,
            -1.893 12.558 -1.800,
            -1.265 12.637 -1.800,
            -1.265 12.637 1.263,
            -0.633 12.684 -1.800,
            -0.633 12.684 1.263
          ]
        }
        coordIndex [
          0, 1, 2, -1,
          0, 2, 3, -1,
          4, 0, 3, -1,
          5, 0, 4, -1,
          6, 5, 4, -1,
          7, 5, 6, -1,
          8, 7, 6, -1,
          9, 7, 8, -1,
          10, 9, 8, -1,
          11, 9, 10, -1,
          12, 11, 10, -1,
          13, 11, 12, -1,
          14, 13, 12, -1,
          15, 13, 14, -1,
          16, 15, 14, -1,
          17, 15, 16, -1,
          18, 17, 16, -1,
          19, 17, 18, -1,
          20, 19, 18, -1,
          21, 19, 20, -1,
          22, 21, 20, -1,
          23, 21, 22, -1,
          24, 23, 22, -1,
          25, 23, 24, -1,
          26, 25, 24, -1,
          27, 25, 26, -1,
          28, 27, 26, -1,
          29, 27, 28, -1,
          30, 29, 28, -1,
          31, 29, 30, -1,
          32, 31, 30, -1,
          33, 31, 32, -1,
          34, 33, 32, -1,
          35, 33, 34, -1,
          36, 35, 34, -1,
          37, 35, 36, -1,
          38, 37, 36, -1,
          39, 37, 38, -1,
          40, 39, 38, -1,
          41, 39, 40, -1,
          42, 41, 40, -1,
          43, 41, 42, -1,
          44, 43, 42, -1,
          45, 43, 44, -1,
          46, 45, 44, -1,
          47, 45, 46, -1,
          48, 47, 46, -1,
          49, 47, 48, -1,
          50, 49, 48, -1,
          51, 49, 50, -1,
          52, 51, 50, -1,
          53, 51, 52, -1,
          54, 53, 52, -1,
          55, 53, 54, -1,
          56, 55, 54, -1,
          57, 55, 56, -1,
          58, 57, 56, -1,
          59, 57, 58, -1,
          60, 59, 58, -1,
          61, 59, 60, -1,
          62, 61, 60, -1,
          63, 61, 62, -1,
          64, 63, 62, -1,
          65, 63, 64, -1,
          66, 65, 64, -1,
          67, 65, 66, -1,
          68, 67, 66, -1,
          69, 67, 68, -1,
          70, 69, 68, -1,
          71, 69, 70, -1,
          72, 71, 70, -1,
          73, 71, 72, -1,
          74, 73, 72, -1,
          75, 73, 74, -1,
          76, 75, 74, -1,
          77, 75, 76, -1,
          78, 77, 76, -1,
          79, 77, 78, -1,
          80, 78, 81, -1,
          80, 79, 78, -1,
          82, 80, 81, -1,
          83, 80, 82, -1,
          84, 83, 82, -1,
          85, 83, 84, -1,
          86, 85, 84, -1,
          87, 85, 86, -1,
          88, 87, 86, -1,
          89, 87, 88, -1,
          90, 89, 88, -1,
          91, 89, 90, -1,
          92, 91, 90, -1,
          92, 90, 93, -1,
          94, 92, 93, -1,
          95, 92, 94, -1,
          96, 95, 94, -1,
          97, 95, 96, -1,
          98, 97, 96, -1,
          99, 97, 98, -1,
          100, 98, 101, -1,
          100, 99, 98, -1,
          102, 100, 101, -1,
          103, 100, 102, -1,
          104, 103, 102, -1,
          105, 103, 104, -1,
          106, 105, 104, -1,
          107, 105, 106, -1,
          108, 107, 106, -1,
          109, 107, 108, -1,
          110, 109, 108, -1,
          111, 109, 110, -1,
          112, 111, 110, -1,
          113, 111, 112, -1,
          114, 112, 115, -1,
          114, 113, 112, -1,
          116, 115, 117, -1,
          116, 114, 115, -1,
          118, 116, 117, -1,
          119, 116, 118, -1,
          120, 119, 118, -1,
          121, 119, 120, -1,
          122, 120, 123, -1,
          122, 121, 120, -1,
          124, 122, 123, -1,
          125, 122, 124, -1,
          126, 125, 124, -1,
          127, 125, 126, -1,
          128, 129, 130, -1,
          131, 129, 128, -1,
          132, 131, 128, -1,
          133, 131, 132, -1,
          134, 133, 132, -1,
          135, 133, 134, -1,
          136, 135, 134, -1,
          137, 135, 136, -1,
          138, 137, 136, -1,
          139, 137, 138, -1,
          140, 139, 138, -1,
          141, 139, 140, -1,
          142, 141, 140, -1,
          143, 141, 142, -1,
          144, 143, 142, -1,
          145, 143, 144, -1,
          146, 145, 144, -1,
          147, 145, 146, -1,
          148, 147, 146, -1,
          149, 147, 148, -1,
          150, 149, 148, -1,
          151, 149, 150, -1,
          152, 151, 150, -1,
          153, 151, 152, -1,
          154, 153, 152, -1,
          155, 153, 154, -1,
          156, 155, 154, -1,
          157, 155, 156, -1,
          158, 157, 156, -1,
          159, 157, 158, -1,
          160, 159, 158, -1,
          161, 159, 160, -1,
          162, 161, 160, -1,
          163, 161, 162, -1,
          164, 163, 162, -1,
          165, 163, 164, -1,
          166, 165, 164, -1,
          167, 165, 166, -1,
          168, 167, 166, -1,
          169, 167, 168, -1,
          170, 169, 168, -1,
          171, 169, 170, -1,
          172, 171, 170, -1,
          173, 171, 172, -1,
          174, 173, 172, -1,
          175, 173, 174, -1,
          176, 175, 174, -1,
          177, 175, 176, -1,
          178, 177, 176, -1,
          179, 177, 178, -1,
          180, 179, 178, -1,
          181, 179, 180, -1,
          182, 180, 183, -1,
          182, 181, 180, -1,
          184, 182, 183, -1,
          185, 182, 184, -1,
          186, 185, 184, -1,
          187, 185, 186, -1,
          188, 187, 186, -1,
          189, 187, 188, -1,
          190, 189, 188, -1,
          191, 189, 190, -1,
          192, 191, 190, -1,
          193, 191, 192, -1,
          194, 193, 192, -1,
          195, 193, 194, -1,
          196, 195, 194, -1,
          197, 195, 196, -1,
          198, 197, 196, -1,
          199, 197, 198, -1,
          200, 199, 198, -1,
          201, 199, 200, -1,
          202, 201, 200, -1,
          203, 201, 202, -1,
          204, 202, 205, -1,
          204, 203, 202, -1,
          206, 205, 207, -1,
          206, 204, 205, -1,
          208, 206, 207, -1,
          209, 206, 208, -1,
          210, 208, 211, -1,
          210, 209, 208, -1,
          212, 210, 211, -1,
          213, 210, 212, -1,
          214, 213, 212, -1,
          215, 213, 214, -1,
          216, 215, 214, -1,
          216, 214, 217, -1,
          218, 216, 217, -1,
          219, 216, 218, -1,
          220, 219, 218, -1,
          221, 219, 220, -1,
          222, 221, 220, -1,
          222, 220, 223, -1,
          224, 223, 225, -1,
          224, 222, 223, -1,
          226, 224, 225, -1,
          227, 224, 226, -1,
          228, 227, 226, -1,
          229, 227, 228, -1,
          230, 228, 231, -1,
          230, 229, 228, -1,
          232, 230, 231, -1,
          233, 230, 232, -1,
          234, 233, 232, -1,
          235, 233, 234, -1,
          236, 234, 237, -1,
          236, 235, 234, -1,
          238, 237, 239, -1,
          238, 236, 237, -1,
          240, 238, 239, -1,
          241, 238, 240, -1,
          242, 241, 240, -1,
          243, 241, 242, -1,
          244, 243, 242, -1,
          245, 243, 244, -1,
          246, 245, 244, -1,
          247, 245, 246, -1,
          248, 247, 246, -1,
          249, 247, 248, -1,
          250, 248, 251, -1,
          250, 249, 248, -1,
          252, 251, 253, -1,
          252, 250, 251, -1,
          254, 252, 253, -1,
          255, 252, 254, -1,
          252, 1, 0, -1,
          252, 255, 1, -1,
          250, 0, 5, -1,
          250, 252, 0, -1,
          249, 5, 7, -1,
          249, 250, 5, -1,
          247, 7, 9, -1,
          247, 249, 7, -1,
          245, 9, 11, -1,
          245, 247, 9, -1,
          243, 11, 13, -1,
          243, 245, 11, -1,
          241, 13, 15, -1,
          241, 243, 13, -1,
          238, 15, 17, -1,
          238, 241, 15, -1,
          236, 17, 19, -1,
          236, 238, 17, -1,
          235, 19, 21, -1,
          235, 236, 19, -1,
          233, 21, 23, -1,
          233, 235, 21, -1,
          230, 23, 25, -1,
          230, 233, 23, -1,
          229, 25, 27, -1,
          229, 230, 25, -1,
          227, 27, 29, -1,
          227, 229, 27, -1,
          224, 29, 31, -1,
          224, 227, 29, -1,
          222, 31, 33, -1,
          222, 224, 31, -1,
          221, 33, 35, -1,
          221, 222, 33, -1,
          219, 35, 37, -1,
          219, 221, 35, -1,
          216, 219, 37, -1,
          216, 37, 39, -1,
          215, 216, 39, -1,
          215, 39, 41, -1,
          213, 215, 41, -1,
          213, 41, 43, -1,
          210, 213, 43, -1,
          210, 43, 45, -1,
          209, 45, 47, -1,
          209, 210, 45, -1,
          206, 47, 49, -1,
          206, 209, 47, -1,
          204, 49, 51, -1,
          204, 206, 49, -1,
          203, 51, 53, -1,
          203, 204, 51, -1,
          201, 53, 55, -1,
          201, 203, 53, -1,
          199, 55, 57, -1,
          199, 201, 55, -1,
          197, 57, 59, -1,
          197, 199, 57, -1,
          195, 59, 61, -1,
          195, 197, 59, -1,
          193, 61, 63, -1,
          193, 195, 61, -1,
          191, 63, 65, -1,
          191, 193, 63, -1,
          189, 65, 67, -1,
          189, 191, 65, -1,
          187, 67, 69, -1,
          187, 189, 67, -1,
          185, 69, 71, -1,
          185, 187, 69, -1,
          182, 71, 73, -1,
          182, 185, 71, -1,
          181, 73, 75, -1,
          181, 182, 73, -1,
          179, 75, 77, -1,
          179, 181, 75, -1,
          177, 77, 79, -1,
          177, 179, 77, -1,
          175, 79, 80, -1,
          175, 177, 79, -1,
          173, 80, 83, -1,
          173, 175, 80, -1,
          171, 83, 85, -1,
          171, 173, 83, -1,
          169, 171, 85, -1,
          169, 85, 87, -1,
          167, 169, 87, -1,
          167, 87, 89, -1,
          165, 167, 89, -1,
          165, 89, 91, -1,
          163, 165, 91, -1,
          163, 91, 92, -1,
          161, 163, 92, -1,
          161, 92, 95, -1,
          159, 161, 95, -1,
          159, 95, 97, -1,
          157, 159, 97, -1,
          157, 97, 99, -1,
          155, 157, 99, -1,
          155, 99, 100, -1,
          153, 155, 100, -1,
          153, 100, 103, -1,
          151, 153, 103, -1,
          151, 103, 105, -1,
          149, 151, 105, -1,
          149, 105, 107, -1,
          147, 149, 107, -1,
          147, 107, 109, -1,
          145, 147, 109, -1,
          145, 109, 111, -1,
          143, 111, 113, -1,
          143, 145, 111, -1,
          141, 113, 114, -1,
          141, 143, 113, -1,
          139, 114, 116, -1,
          139, 141, 114, -1,
          137, 116, 119, -1,
          137, 139, 116, -1,
          135, 119, 121, -1,
          135, 137, 119, -1,
          133, 121, 122, -1,
          133, 135, 121, -1,
          131, 122, 125, -1,
          131, 133, 122, -1,
          129, 125, 127, -1,
          129, 131, 125, -1,
          256, 10, 8, -1,
          256, 8, 6, -1,
          256, 6, 4, -1,
          256, 4, 3, -1,
          256, 3, 2, -1,
          12, 10, 256, -1,
          14, 12, 256, -1,
          124, 257, 126, -1,
          123, 257, 124, -1,
          120, 257, 123, -1,
          118, 257, 120, -1,
          117, 257, 118, -1,
          115, 257, 117, -1,
          112, 257, 115, -1,
          258, 256, 259, -1,
          258, 34, 32, -1,
          258, 32, 30, -1,
          258, 30, 28, -1,
          258, 28, 26, -1,
          258, 26, 24, -1,
          258, 24, 22, -1,
          258, 22, 20, -1,
          258, 20, 18, -1,
          258, 18, 16, -1,
          258, 16, 14, -1,
          258, 14, 256, -1,
          260, 259, 261, -1,
          260, 64, 62, -1,
          260, 62, 60, -1,
          260, 60, 58, -1,
          260, 58, 56, -1,
          260, 56, 54, -1,
          260, 54, 52, -1,
          260, 52, 50, -1,
          260, 50, 48, -1,
          260, 48, 46, -1,
          260, 46, 44, -1,
          260, 44, 42, -1,
          260, 42, 40, -1,
          260, 40, 38, -1,
          260, 34, 258, -1,
          260, 38, 36, -1,
          260, 36, 34, -1,
          260, 258, 259, -1,
          262, 261, 263, -1,
          262, 93, 90, -1,
          262, 90, 88, -1,
          262, 88, 86, -1,
          262, 86, 84, -1,
          262, 84, 82, -1,
          262, 82, 81, -1,
          262, 81, 78, -1,
          262, 78, 76, -1,
          262, 76, 74, -1,
          262, 74, 72, -1,
          262, 72, 70, -1,
          262, 70, 68, -1,
          262, 68, 66, -1,
          262, 66, 64, -1,
          262, 64, 260, -1,
          262, 260, 261, -1,
          264, 93, 262, -1,
          264, 263, 257, -1,
          264, 112, 110, -1,
          264, 110, 108, -1,
          264, 108, 106, -1,
          264, 106, 104, -1,
          264, 104, 102, -1,
          264, 102, 101, -1,
          264, 262, 263, -1,
          264, 101, 98, -1,
          264, 98, 96, -1,
          264, 96, 94, -1,
          264, 94, 93, -1,
          264, 257, 112, -1,
          265, 266, 267, -1,
          268, 267, 269, -1,
          268, 269, 270, -1,
          271, 272, 265, -1,
          273, 274, 271, -1,
          275, 268, 276, -1,
          275, 276, 277, -1,
          275, 277, 278, -1,
          275, 267, 268, -1,
          279, 280, 273, -1,
          279, 273, 271, -1,
          279, 265, 267, -1,
          279, 271, 265, -1,
          281, 282, 283, -1,
          281, 283, 279, -1,
          281, 267, 275, -1,
          281, 279, 267, -1,
          284, 285, 286, -1,
          284, 286, 287, -1,
          288, 275, 285, -1,
          288, 284, 289, -1,
          288, 285, 284, -1,
          290, 291, 292, -1,
          290, 292, 293, -1,
          290, 293, 281, -1,
          290, 281, 275, -1,
          294, 295, 296, -1,
          297, 295, 294, -1,
          298, 295, 297, -1,
          136, 130, 290, -1,
          136, 134, 132, -1,
          136, 132, 128, -1,
          136, 128, 130, -1,
          299, 298, 300, -1,
          299, 295, 298, -1,
          140, 138, 136, -1,
          142, 140, 136, -1,
          301, 295, 299, -1,
          301, 288, 295, -1,
          301, 299, 302, -1,
          301, 302, 303, -1,
          146, 144, 142, -1,
          148, 146, 142, -1,
          304, 301, 305, -1,
          304, 305, 306, -1,
          307, 301, 304, -1,
          154, 152, 150, -1,
          154, 150, 148, -1,
          154, 148, 142, -1,
          308, 309, 310, -1,
          311, 309, 308, -1,
          312, 313, 314, -1,
          166, 164, 162, -1,
          166, 162, 160, -1,
          166, 160, 158, -1,
          315, 313, 312, -1,
          168, 158, 156, -1,
          168, 156, 154, -1,
          168, 166, 158, -1,
          316, 313, 315, -1,
          317, 311, 313, -1,
          317, 313, 316, -1,
          172, 170, 168, -1,
          174, 172, 168, -1,
          176, 168, 154, -1,
          176, 154, 142, -1,
          176, 174, 168, -1,
          318, 317, 319, -1,
          318, 319, 320, -1,
          318, 311, 317, -1,
          178, 176, 142, -1,
          321, 301, 307, -1,
          321, 307, 309, -1,
          321, 309, 311, -1,
          321, 311, 318, -1,
          322, 142, 136, -1,
          322, 136, 290, -1,
          322, 288, 301, -1,
          322, 275, 288, -1,
          322, 301, 321, -1,
          322, 290, 275, -1,
          184, 180, 178, -1,
          184, 183, 180, -1,
          188, 184, 178, -1,
          188, 178, 142, -1,
          188, 186, 184, -1,
          323, 324, 325, -1,
          323, 325, 326, -1,
          253, 323, 254, -1,
          194, 192, 190, -1,
          198, 196, 194, -1,
          246, 251, 248, -1,
          244, 323, 253, -1,
          244, 251, 246, -1,
          244, 253, 251, -1,
          202, 194, 190, -1,
          202, 198, 194, -1,
          202, 200, 198, -1,
          202, 190, 188, -1,
          240, 244, 242, -1,
          207, 188, 142, -1,
          207, 202, 188, -1,
          207, 322, 324, -1,
          207, 142, 322, -1,
          207, 205, 202, -1,
          239, 324, 323, -1,
          239, 323, 244, -1,
          239, 207, 324, -1,
          239, 244, 240, -1,
          212, 211, 208, -1,
          212, 208, 207, -1,
          232, 239, 237, -1,
          232, 237, 234, -1,
          231, 239, 232, -1,
          217, 212, 207, -1,
          217, 214, 212, -1,
          218, 217, 207, -1,
          226, 239, 231, -1,
          226, 231, 228, -1,
          220, 218, 207, -1,
          223, 207, 239, -1,
          223, 239, 226, -1,
          223, 220, 207, -1,
          223, 226, 225, -1,
          256, 2, 327, -1,
          256, 327, 328, -1,
          256, 328, 329, -1,
          256, 329, 330, -1,
          256, 330, 331, -1,
          256, 331, 332, -1,
          256, 332, 333, -1,
          257, 334, 335, -1,
          336, 257, 335, -1,
          337, 257, 336, -1,
          338, 257, 337, -1,
          339, 257, 338, -1,
          340, 257, 339, -1,
          126, 257, 340, -1,
          341, 259, 256, -1,
          341, 333, 342, -1,
          341, 342, 343, -1,
          341, 343, 344, -1,
          341, 344, 345, -1,
          341, 345, 346, -1,
          341, 346, 347, -1,
          341, 347, 348, -1,
          341, 348, 349, -1,
          341, 349, 350, -1,
          341, 350, 351, -1,
          341, 256, 333, -1,
          352, 341, 351, -1,
          352, 261, 259, -1,
          352, 351, 353, -1,
          352, 353, 354, -1,
          352, 354, 355, -1,
          352, 355, 356, -1,
          352, 356, 357, -1,
          352, 357, 358, -1,
          352, 358, 359, -1,
          352, 359, 360, -1,
          352, 360, 361, -1,
          352, 361, 362, -1,
          352, 362, 363, -1,
          352, 363, 364, -1,
          352, 364, 365, -1,
          352, 365, 366, -1,
          352, 259, 341, -1,
          367, 263, 261, -1,
          367, 352, 366, -1,
          367, 366, 368, -1,
          367, 368, 369, -1,
          367, 369, 370, -1,
          367, 370, 371, -1,
          367, 371, 372, -1,
          367, 372, 373, -1,
          367, 373, 374, -1,
          367, 374, 375, -1,
          367, 375, 376, -1,
          367, 376, 377, -1,
          367, 377, 378, -1,
          367, 378, 379, -1,
          367, 379, 380, -1,
          367, 380, 381, -1,
          367, 381, 382, -1,
          367, 261, 352, -1,
          383, 257, 263, -1,
          383, 367, 382, -1,
          383, 382, 384, -1,
          383, 384, 385, -1,
          383, 385, 386, -1,
          383, 386, 387, -1,
          383, 387, 388, -1,
          383, 263, 367, -1,
          383, 388, 389, -1,
          383, 389, 390, -1,
          383, 390, 391, -1,
          383, 391, 392, -1,
          383, 392, 334, -1,
          383, 334, 257, -1,
          393, 129, 127, -1,
          393, 127, 394, -1,
          395, 394, 396, -1,
          395, 393, 394, -1,
          397, 396, 398, -1,
          397, 395, 396, -1,
          399, 398, 400, -1,
          399, 397, 398, -1,
          401, 400, 402, -1,
          401, 399, 400, -1,
          403, 402, 404, -1,
          403, 401, 402, -1,
          405, 404, 406, -1,
          405, 403, 404, -1,
          407, 406, 408, -1,
          407, 405, 406, -1,
          409, 408, 410, -1,
          409, 407, 408, -1,
          411, 410, 412, -1,
          411, 409, 410, -1,
          413, 412, 414, -1,
          413, 411, 412, -1,
          415, 414, 416, -1,
          415, 413, 414, -1,
          417, 416, 418, -1,
          417, 415, 416, -1,
          419, 418, 420, -1,
          419, 417, 418, -1,
          421, 420, 422, -1,
          421, 419, 420, -1,
          423, 422, 424, -1,
          423, 421, 422, -1,
          425, 424, 426, -1,
          425, 423, 424, -1,
          427, 426, 428, -1,
          427, 425, 426, -1,
          429, 427, 428, -1,
          429, 428, 430, -1,
          429, 430, 431, -1,
          432, 429, 431, -1,
          433, 432, 431, -1,
          433, 431, 434, -1,
          435, 433, 434, -1,
          435, 434, 436, -1,
          435, 436, 437, -1,
          438, 435, 437, -1,
          439, 437, 440, -1,
          439, 438, 437, -1,
          441, 440, 442, -1,
          441, 439, 440, -1,
          443, 442, 444, -1,
          443, 444, 445, -1,
          443, 441, 442, -1,
          446, 443, 445, -1,
          447, 445, 448, -1,
          447, 448, 449, -1,
          447, 446, 445, -1,
          450, 447, 449, -1,
          451, 449, 452, -1,
          451, 452, 453, -1,
          451, 450, 449, -1,
          454, 453, 455, -1,
          454, 451, 453, -1,
          456, 454, 455, -1,
          457, 455, 458, -1,
          457, 458, 459, -1,
          457, 456, 455, -1,
          460, 457, 459, -1,
          461, 459, 462, -1,
          461, 460, 459, -1,
          463, 462, 464, -1,
          463, 461, 462, -1,
          465, 464, 466, -1,
          465, 466, 467, -1,
          465, 463, 464, -1,
          468, 467, 469, -1,
          468, 465, 467, -1,
          470, 468, 469, -1,
          471, 469, 472, -1,
          471, 472, 473, -1,
          471, 470, 469, -1,
          474, 471, 473, -1,
          475, 473, 476, -1,
          475, 476, 477, -1,
          475, 474, 473, -1,
          478, 475, 477, -1,
          479, 478, 477, -1,
          479, 477, 480, -1,
          481, 479, 480, -1,
          481, 480, 482, -1,
          481, 482, 483, -1,
          484, 481, 483, -1,
          485, 484, 483, -1,
          485, 483, 486, -1,
          487, 485, 486, -1,
          487, 486, 488, -1,
          489, 487, 488, -1,
          489, 488, 490, -1,
          491, 489, 490, -1,
          491, 490, 492, -1,
          491, 492, 493, -1,
          494, 491, 493, -1,
          494, 493, 495, -1,
          496, 494, 495, -1,
          497, 496, 495, -1,
          497, 495, 498, -1,
          497, 498, 499, -1,
          500, 497, 499, -1,
          501, 500, 499, -1,
          501, 499, 502, -1,
          503, 501, 502, -1,
          503, 502, 504, -1,
          505, 504, 506, -1,
          505, 503, 504, -1,
          507, 506, 508, -1,
          507, 505, 506, -1,
          509, 508, 510, -1,
          509, 510, 511, -1,
          509, 507, 508, -1,
          512, 509, 511, -1,
          513, 511, 514, -1,
          513, 512, 511, -1,
          515, 514, 516, -1,
          515, 513, 514, -1,
          255, 516, 1, -1,
          255, 515, 516, -1,
          323, 255, 254, -1,
          515, 255, 323, -1,
          326, 515, 323, -1,
          513, 515, 326, -1,
          325, 513, 326, -1,
          512, 513, 325, -1,
          324, 512, 325, -1,
          509, 512, 324, -1,
          322, 509, 324, -1,
          507, 509, 322, -1,
          321, 507, 322, -1,
          505, 507, 321, -1,
          318, 505, 321, -1,
          503, 505, 318, -1,
          320, 503, 318, -1,
          501, 503, 320, -1,
          319, 501, 320, -1,
          500, 501, 319, -1,
          317, 500, 319, -1,
          497, 500, 317, -1,
          316, 497, 317, -1,
          496, 497, 316, -1,
          315, 496, 316, -1,
          494, 496, 315, -1,
          312, 494, 315, -1,
          491, 494, 312, -1,
          314, 491, 312, -1,
          489, 491, 314, -1,
          313, 489, 314, -1,
          487, 489, 313, -1,
          311, 487, 313, -1,
          485, 487, 311, -1,
          308, 485, 311, -1,
          484, 485, 308, -1,
          310, 484, 308, -1,
          481, 484, 310, -1,
          309, 481, 310, -1,
          479, 481, 309, -1,
          307, 479, 309, -1,
          478, 479, 307, -1,
          304, 478, 307, -1,
          475, 478, 304, -1,
          306, 475, 304, -1,
          474, 475, 306, -1,
          305, 474, 306, -1,
          471, 474, 305, -1,
          301, 471, 305, -1,
          470, 471, 301, -1,
          303, 470, 301, -1,
          468, 470, 303, -1,
          302, 468, 303, -1,
          465, 468, 302, -1,
          299, 465, 302, -1,
          463, 465, 299, -1,
          461, 299, 300, -1,
          461, 463, 299, -1,
          298, 461, 300, -1,
          460, 461, 298, -1,
          297, 460, 298, -1,
          457, 460, 297, -1,
          456, 297, 294, -1,
          456, 457, 297, -1,
          296, 456, 294, -1,
          454, 456, 296, -1,
          451, 296, 295, -1,
          451, 454, 296, -1,
          288, 451, 295, -1,
          450, 451, 288, -1,
          289, 450, 288, -1,
          447, 450, 289, -1,
          446, 289, 284, -1,
          446, 447, 289, -1,
          287, 446, 284, -1,
          443, 446, 287, -1,
          286, 443, 287, -1,
          441, 443, 286, -1,
          439, 286, 285, -1,
          439, 441, 286, -1,
          438, 285, 275, -1,
          438, 439, 285, -1,
          435, 275, 278, -1,
          435, 438, 275, -1,
          433, 278, 277, -1,
          433, 435, 278, -1,
          432, 277, 276, -1,
          432, 433, 277, -1,
          268, 432, 276, -1,
          429, 432, 268, -1,
          427, 429, 268, -1,
          427, 268, 270, -1,
          425, 427, 270, -1,
          425, 270, 269, -1,
          423, 425, 269, -1,
          423, 269, 267, -1,
          421, 267, 266, -1,
          421, 423, 267, -1,
          419, 266, 265, -1,
          419, 421, 266, -1,
          417, 265, 272, -1,
          417, 419, 265, -1,
          415, 272, 271, -1,
          415, 417, 272, -1,
          413, 271, 274, -1,
          413, 415, 271, -1,
          273, 413, 274, -1,
          411, 413, 273, -1,
          280, 411, 273, -1,
          409, 411, 280, -1,
          407, 280, 279, -1,
          407, 409, 280, -1,
          405, 279, 283, -1,
          405, 407, 279, -1,
          282, 405, 283, -1,
          403, 405, 282, -1,
          401, 282, 281, -1,
          401, 403, 282, -1,
          399, 281, 293, -1,
          399, 401, 281, -1,
          397, 293, 292, -1,
          397, 399, 293, -1,
          291, 397, 292, -1,
          395, 397, 291, -1,
          393, 291, 290, -1,
          393, 395, 291, -1,
          129, 290, 130, -1,
          129, 393, 290, -1,
          340, 127, 126, -1,
          394, 127, 340, -1,
          339, 394, 340, -1,
          396, 394, 339, -1,
          338, 396, 339, -1,
          398, 396, 338, -1,
          337, 398, 338, -1,
          400, 398, 337, -1,
          336, 400, 337, -1,
          402, 400, 336, -1,
          335, 402, 336, -1,
          404, 402, 335, -1,
          334, 404, 335, -1,
          406, 404, 334, -1,
          392, 406, 334, -1,
          408, 406, 392, -1,
          391, 408, 392, -1,
          410, 408, 391, -1,
          390, 410, 391, -1,
          412, 410, 390, -1,
          389, 412, 390, -1,
          414, 412, 389, -1,
          388, 414, 389, -1,
          416, 414, 388, -1,
          387, 416, 388, -1,
          418, 416, 387, -1,
          420, 387, 386, -1,
          420, 418, 387, -1,
          422, 386, 385, -1,
          422, 420, 386, -1,
          384, 422, 385, -1,
          424, 422, 384, -1,
          426, 384, 382, -1,
          426, 424, 384, -1,
          428, 426, 382, -1,
          428, 382, 381, -1,
          430, 428, 381, -1,
          430, 381, 380, -1,
          431, 430, 380, -1,
          431, 380, 379, -1,
          434, 431, 379, -1,
          434, 379, 378, -1,
          436, 434, 378, -1,
          436, 378, 377, -1,
          437, 436, 377, -1,
          437, 377, 376, -1,
          440, 437, 376, -1,
          440, 376, 375, -1,
          442, 440, 375, -1,
          442, 375, 374, -1,
          444, 442, 374, -1,
          444, 374, 373, -1,
          445, 444, 373, -1,
          445, 373, 372, -1,
          448, 372, 371, -1,
          448, 445, 372, -1,
          449, 371, 370, -1,
          449, 448, 371, -1,
          369, 449, 370, -1,
          452, 449, 369, -1,
          453, 369, 368, -1,
          453, 452, 369, -1,
          455, 368, 366, -1,
          455, 453, 368, -1,
          458, 366, 365, -1,
          458, 455, 366, -1,
          459, 365, 364, -1,
          459, 458, 365, -1,
          462, 364, 363, -1,
          462, 459, 364, -1,
          464, 363, 362, -1,
          464, 462, 363, -1,
          466, 362, 361, -1,
          466, 464, 362, -1,
          467, 361, 360, -1,
          467, 466, 361, -1,
          469, 360, 359, -1,
          469, 467, 360, -1,
          472, 359, 358, -1,
          472, 469, 359, -1,
          473, 358, 357, -1,
          473, 472, 358, -1,
          476, 357, 356, -1,
          476, 473, 357, -1,
          477, 356, 355, -1,
          477, 476, 356, -1,
          480, 477, 355, -1,
          480, 355, 354, -1,
          482, 480, 354, -1,
          482, 354, 353, -1,
          483, 482, 353, -1,
          483, 353, 351, -1,
          486, 483, 351, -1,
          486, 351, 350, -1,
          488, 350, 349, -1,
          488, 486, 350, -1,
          490, 349, 348, -1,
          490, 488, 349, -1,
          347, 490, 348, -1,
          492, 490, 347, -1,
          493, 347, 346, -1,
          493, 492, 347, -1,
          495, 346, 345, -1,
          495, 493, 346, -1,
          344, 495, 345, -1,
          498, 495, 344, -1,
          499, 344, 343, -1,
          499, 498, 344, -1,
          342, 499, 343, -1,
          502, 499, 342, -1,
          504, 342, 333, -1,
          504, 502, 342, -1,
          506, 333, 332, -1,
          506, 504, 333, -1,
          331, 506, 332, -1,
          508, 506, 331, -1,
          330, 508, 331, -1,
          510, 508, 330, -1,
          329, 510, 330, -1,
          511, 510, 329, -1,
          328, 511, 329, -1,
          514, 511, 328, -1,
          516, 328, 327, -1,
          516, 514, 328, -1,
          2, 516, 327, -1,
          1, 516, 2, -1
        ]
      }
    }
}
