#VRML V2.0 utf8
WorldInfo {
  title "Exported triangle mesh to VRML97"
  info ["Created by FreeCAD"
        "<https://www.freecad.org>"]
}

Transform {
  scale 1 1 1
  rotation 0 0 1 0
  scaleOrientation 0 0 1 0
  center 0.000 0.000 0.000
  translation 0.000 0.000 0.000
  children
    Shape { 
      appearance
      Appearance {
        material
        Material {
          diffuseColor 0.8 0.8 0.8
        }
      }
      geometry
      IndexedFaceSet {
        coord
        Coordinate {
          point [
            0.623 12.485 1.653,
            0.000 12.700 1.442,
            0.000 12.500 1.653,
            0.633 12.684 1.442,
            1.245 12.438 1.653,
            1.265 12.637 1.442,
            1.863 12.361 1.653,
            1.893 12.558 1.442,
            2.477 12.253 1.653,
            2.516 12.448 1.442,
            3.085 12.114 1.653,
            3.134 12.307 1.442,
            3.685 11.945 1.653,
            3.743 12.136 1.442,
            4.275 11.747 1.653,
            4.344 11.934 1.442,
            4.856 11.519 1.653,
            4.933 11.703 1.442,
            5.424 11.262 1.653,
            5.510 11.442 1.442,
            5.978 10.978 1.653,
            6.074 11.153 1.442,
            6.518 10.666 1.653,
            6.622 10.837 1.442,
            7.042 10.328 1.653,
            7.154 10.493 1.442,
            7.548 9.964 1.653,
            7.668 10.124 1.442,
            8.035 9.576 1.653,
            8.163 9.729 1.442,
            8.502 9.163 1.653,
            8.638 9.310 1.442,
            8.949 8.728 1.653,
            9.092 8.868 1.442,
            9.373 8.271 1.653,
            9.522 8.403 1.442,
            9.773 7.794 1.653,
            9.929 7.918 1.442,
            10.150 7.297 1.653,
            10.312 7.414 1.442,
            10.501 6.782 1.653,
            10.668 6.890 1.442,
            10.826 6.250 1.653,
            10.999 6.350 1.442,
            11.124 5.703 1.653,
            11.301 5.794 1.442,
            11.394 5.141 1.653,
            11.576 5.223 1.442,
            11.636 4.567 1.653,
            11.822 4.640 1.442,
            11.849 3.981 1.653,
            12.039 4.045 1.442,
            12.033 3.386 1.653,
            12.225 3.440 1.442,
            12.187 2.782 1.653,
            12.382 2.826 1.442,
            12.310 2.171 1.653,
            12.507 2.205 1.442,
            12.403 1.554 1.653,
            12.601 1.579 1.442,
            12.465 0.934 1.653,
            12.664 0.949 1.442,
            12.497 0.312 1.653,
            12.696 0.317 1.442,
            12.497 -0.312 1.653,
            12.696 -0.317 1.442,
            12.465 -0.934 1.653,
            12.664 -0.949 1.442,
            12.601 -1.579 1.442,
            12.403 -1.554 1.653,
            12.310 -2.171 1.653,
            12.507 -2.205 1.442,
            12.187 -2.782 1.653,
            12.382 -2.826 1.442,
            12.033 -3.386 1.653,
            12.225 -3.440 1.442,
            11.849 -3.981 1.653,
            12.039 -4.045 1.442,
            11.636 -4.567 1.653,
            11.822 -4.640 1.442,
            11.394 -5.141 1.653,
            11.576 -5.223 1.442,
            11.124 -5.703 1.653,
            11.301 -5.794 1.442,
            10.826 -6.250 1.653,
            10.999 -6.350 1.442,
            10.501 -6.782 1.653,
            10.668 -6.890 1.442,
            10.150 -7.297 1.653,
            10.312 -7.414 1.442,
            9.773 -7.794 1.653,
            9.929 -7.918 1.442,
            9.373 -8.271 1.653,
            9.522 -8.403 1.442,
            8.949 -8.728 1.653,
            9.092 -8.868 1.442,
            8.502 -9.163 1.653,
            8.638 -9.310 1.442,
            8.163 -9.729 1.442,
            8.035 -9.576 1.653,
            7.548 -9.964 1.653,
            7.668 -10.124 1.442,
            7.154 -10.493 1.442,
            7.042 -10.328 1.653,
            6.518 -10.666 1.653,
            6.622 -10.837 1.442,
            5.978 -10.978 1.653,
            6.074 -11.153 1.442,
            5.510 -11.442 1.442,
            5.424 -11.262 1.653,
            4.856 -11.519 1.653,
            4.933 -11.703 1.442,
            4.344 -11.934 1.442,
            4.275 -11.747 1.653,
            3.743 -12.136 1.442,
            3.685 -11.945 1.653,
            3.134 -12.307 1.442,
            3.085 -12.114 1.653,
            2.477 -12.253 1.653,
            2.516 -12.448 1.442,
            1.893 -12.558 1.442,
            1.863 -12.361 1.653,
            1.245 -12.438 1.653,
            1.265 -12.637 1.442,
            0.623 -12.485 1.653,
            0.633 -12.684 1.442,
            0.000 -12.500 1.653,
            0.000 -12.700 1.442,
            0.623 -12.484 -2.000,
            0.000 -12.700 -1.800,
            0.000 -12.500 -2.000,
            0.633 -12.684 -1.800,
            1.245 -12.438 -2.000,
            1.265 -12.637 -1.800,
            1.863 -12.360 -2.000,
            1.893 -12.558 -1.800,
            2.477 -12.252 -2.000,
            2.516 -12.448 -1.800,
            3.084 -12.113 -2.000,
            3.134 -12.307 -1.800,
            3.684 -11.945 -2.000,
            3.743 -12.136 -1.800,
            4.275 -11.746 -2.000,
            4.344 -11.934 -1.800,
            4.855 -11.518 -2.000,
            4.933 -11.703 -1.800,
            5.424 -11.262 -2.000,
            5.510 -11.442 -1.800,
            5.978 -10.978 -2.000,
            6.074 -11.153 -1.800,
            6.518 -10.666 -2.000,
            6.622 -10.837 -1.800,
            7.042 -10.328 -2.000,
            7.154 -10.493 -1.800,
            7.548 -9.964 -2.000,
            7.668 -10.124 -1.800,
            8.035 -9.576 -2.000,
            8.163 -9.729 -1.800,
            8.502 -9.163 -2.000,
            8.638 -9.310 -1.800,
            8.948 -8.728 -2.000,
            9.092 -8.868 -1.800,
            9.372 -8.271 -2.000,
            9.522 -8.403 -1.800,
            9.773 -7.794 -2.000,
            9.929 -7.918 -1.800,
            10.149 -7.297 -2.000,
            10.312 -7.414 -1.800,
            10.500 -6.782 -2.000,
            10.668 -6.890 -1.800,
            10.825 -6.250 -2.000,
            10.999 -6.350 -1.800,
            11.123 -5.703 -2.000,
            11.301 -5.794 -1.800,
            11.394 -5.141 -2.000,
            11.576 -5.223 -1.800,
            11.636 -4.567 -2.000,
            11.822 -4.640 -1.800,
            11.849 -3.981 -2.000,
            12.039 -4.045 -1.800,
            12.033 -3.386 -2.000,
            12.225 -3.440 -1.800,
            12.382 -2.826 -1.800,
            12.187 -2.782 -2.000,
            12.310 -2.171 -2.000,
            12.507 -2.205 -1.800,
            12.403 -1.554 -2.000,
            12.601 -1.579 -1.800,
            12.465 -0.934 -2.000,
            12.664 -0.949 -1.800,
            12.496 -0.312 -2.000,
            12.696 -0.317 -1.800,
            12.496 0.312 -2.000,
            12.696 0.317 -1.800,
            12.465 0.934 -2.000,
            12.664 0.949 -1.800,
            12.403 1.554 -2.000,
            12.601 1.579 -1.800,
            12.310 2.171 -2.000,
            12.507 2.205 -1.800,
            12.187 2.782 -2.000,
            12.382 2.826 -1.800,
            12.033 3.386 -2.000,
            12.225 3.440 -1.800,
            12.039 4.045 -1.800,
            11.849 3.981 -2.000,
            11.822 4.640 -1.800,
            11.636 4.567 -2.000,
            11.394 5.141 -2.000,
            11.576 5.223 -1.800,
            11.123 5.703 -2.000,
            11.301 5.794 -1.800,
            10.825 6.250 -2.000,
            10.999 6.350 -1.800,
            10.500 6.782 -2.000,
            10.668 6.890 -1.800,
            10.149 7.297 -2.000,
            10.312 7.414 -1.800,
            9.773 7.794 -2.000,
            9.929 7.918 -1.800,
            9.372 8.271 -2.000,
            9.522 8.403 -1.800,
            8.948 8.728 -2.000,
            9.092 8.868 -1.800,
            8.502 9.163 -2.000,
            8.638 9.310 -1.800,
            8.163 9.729 -1.800,
            8.035 9.576 -2.000,
            7.548 9.964 -2.000,
            7.668 10.124 -1.800,
            7.154 10.493 -1.800,
            7.042 10.328 -2.000,
            6.518 10.666 -2.000,
            6.622 10.837 -1.800,
            5.978 10.978 -2.000,
            6.074 11.153 -1.800,
            5.510 11.442 -1.800,
            5.424 11.262 -2.000,
            4.855 11.518 -2.000,
            4.933 11.703 -1.800,
            4.275 11.746 -2.000,
            4.344 11.934 -1.800,
            3.684 11.945 -2.000,
            3.743 12.136 -1.800,
            3.084 12.113 -2.000,
            3.134 12.307 -1.800,
            2.477 12.252 -2.000,
            2.516 12.448 -1.800,
            1.863 12.360 -2.000,
            1.893 12.558 -1.800,
            1.265 12.637 -1.800,
            1.245 12.438 -2.000,
            0.623 12.484 -2.000,
            0.633 12.684 -1.800,
            0.000 12.500 -2.000,
            0.000 12.700 -1.800,
            0.000 8.336 1.846,
            0.000 -8.336 1.846,
            6.251 8.333 1.759,
            0.000 4.169 1.961,
            6.251 -0.000 1.913,
            0.000 -0.000 2.000,
            0.000 -4.169 1.961,
            6.251 -8.333 1.759,
            -7.548 -9.964 -2.000,
            -8.035 -9.576 -2.000,
            -8.502 -9.163 -2.000,
            -8.948 -8.728 -2.000,
            -7.042 -10.328 -2.000,
            -9.372 -8.271 -2.000,
            -9.773 -7.794 -2.000,
            -10.500 -6.782 -2.000,
            -10.149 -7.297 -2.000,
            -11.123 -5.703 -2.000,
            -10.825 -6.250 -2.000,
            -5.424 -11.262 -2.000,
            -5.978 -10.978 -2.000,
            -6.518 -10.666 -2.000,
            -4.855 -11.518 -2.000,
            -3.084 -12.113 -2.000,
            -3.684 -11.945 -2.000,
            -4.275 -11.746 -2.000,
            -12.187 -2.782 -2.000,
            -11.394 -5.141 -2.000,
            -11.636 -4.567 -2.000,
            -11.849 -3.981 -2.000,
            -12.033 -3.386 -2.000,
            -2.477 -12.252 -2.000,
            -12.403 -1.554 -2.000,
            -12.310 -2.171 -2.000,
            -1.245 -12.438 -2.000,
            -1.863 -12.360 -2.000,
            -0.623 -12.484 -2.000,
            -12.403 1.554 -2.000,
            -12.465 -0.934 -2.000,
            -12.496 -0.312 -2.000,
            -12.496 0.312 -2.000,
            -12.465 0.934 -2.000,
            -11.636 4.567 -2.000,
            -12.310 2.171 -2.000,
            -12.187 2.782 -2.000,
            -12.033 3.386 -2.000,
            -11.849 3.981 -2.000,
            -10.825 6.250 -2.000,
            -11.394 5.141 -2.000,
            -11.123 5.703 -2.000,
            -9.773 7.794 -2.000,
            -10.500 6.782 -2.000,
            -10.149 7.297 -2.000,
            -9.372 8.271 -2.000,
            -8.948 8.728 -2.000,
            -8.502 9.163 -2.000,
            -8.035 9.576 -2.000,
            -7.548 9.964 -2.000,
            -6.518 10.666 -2.000,
            -7.042 10.328 -2.000,
            -5.424 11.262 -2.000,
            -5.978 10.978 -2.000,
            -4.275 11.746 -2.000,
            -4.855 11.518 -2.000,
            -3.084 12.113 -2.000,
            -3.684 11.945 -2.000,
            -2.477 12.252 -2.000,
            -1.863 12.360 -2.000,
            -1.245 12.438 -2.000,
            -0.623 12.484 -2.000,
            -0.623 12.485 1.653,
            -1.245 12.438 1.653,
            -1.863 12.361 1.653,
            -2.477 12.253 1.653,
            -3.085 12.114 1.653,
            -3.685 11.945 1.653,
            -4.275 11.747 1.653,
            -4.275 -11.747 1.653,
            -3.685 -11.945 1.653,
            -3.085 -12.114 1.653,
            -2.477 -12.253 1.653,
            -1.863 -12.361 1.653,
            -1.245 -12.438 1.653,
            -0.623 -12.485 1.653,
            -6.251 8.333 1.759,
            -4.856 11.519 1.653,
            -5.424 11.262 1.653,
            -5.978 10.978 1.653,
            -6.518 10.666 1.653,
            -7.042 10.328 1.653,
            -7.548 9.964 1.653,
            -8.035 9.576 1.653,
            -8.502 9.163 1.653,
            -8.949 8.728 1.653,
            -9.373 8.271 1.653,
            -9.773 7.794 1.653,
            -10.150 7.297 1.653,
            -10.501 6.782 1.653,
            -10.826 6.250 1.653,
            -6.251 -0.000 1.913,
            -11.124 5.703 1.653,
            -11.394 5.141 1.653,
            -11.636 4.567 1.653,
            -11.849 3.981 1.653,
            -12.033 3.386 1.653,
            -12.187 2.782 1.653,
            -12.310 2.171 1.653,
            -12.403 1.554 1.653,
            -12.465 0.934 1.653,
            -12.497 0.312 1.653,
            -12.497 -0.312 1.653,
            -12.465 -0.934 1.653,
            -12.403 -1.554 1.653,
            -12.310 -2.171 1.653,
            -12.187 -2.782 1.653,
            -12.033 -3.386 1.653,
            -11.849 -3.981 1.653,
            -11.636 -4.567 1.653,
            -11.394 -5.141 1.653,
            -11.124 -5.703 1.653,
            -10.826 -6.250 1.653,
            -6.251 -8.333 1.759,
            -10.501 -6.782 1.653,
            -10.150 -7.297 1.653,
            -9.773 -7.794 1.653,
            -9.373 -8.271 1.653,
            -8.949 -8.728 1.653,
            -8.502 -9.163 1.653,
            -8.035 -9.576 1.653,
            -7.548 -9.964 1.653,
            -7.042 -10.328 1.653,
            -6.518 -10.666 1.653,
            -5.978 -10.978 1.653,
            -5.424 -11.262 1.653,
            -4.856 -11.519 1.653,
            -0.633 -12.684 -1.800,
            -0.633 -12.684 1.442,
            -1.265 -12.637 -1.800,
            -1.265 -12.637 1.442,
            -1.893 -12.558 -1.800,
            -1.893 -12.558 1.442,
            -2.516 -12.448 -1.800,
            -2.516 -12.448 1.442,
            -3.134 -12.307 -1.800,
            -3.134 -12.307 1.442,
            -3.743 -12.136 -1.800,
            -3.743 -12.136 1.442,
            -4.344 -11.934 -1.800,
            -4.344 -11.934 1.442,
            -4.933 -11.703 -1.800,
            -4.933 -11.703 1.442,
            -5.510 -11.442 -1.800,
            -5.510 -11.442 1.442,
            -6.074 -11.153 -1.800,
            -6.074 -11.153 1.442,
            -6.622 -10.837 -1.800,
            -6.622 -10.837 1.442,
            -7.154 -10.493 -1.800,
            -7.154 -10.493 1.442,
            -7.668 -10.124 -1.800,
            -7.668 -10.124 1.442,
            -8.163 -9.729 -1.800,
            -8.163 -9.729 1.442,
            -8.638 -9.310 -1.800,
            -8.638 -9.310 1.442,
            -9.092 -8.868 1.442,
            -9.092 -8.868 -1.800,
            -9.522 -8.403 -1.800,
            -9.522 -8.403 1.442,
            -9.929 -7.918 -1.800,
            -9.929 -7.918 1.442,
            -10.312 -7.414 -1.800,
            -10.312 -7.414 1.442,
            -10.668 -6.890 1.442,
            -10.668 -6.890 -1.800,
            -10.999 -6.350 -1.800,
            -10.999 -6.350 1.442,
            -11.301 -5.794 1.442,
            -11.301 -5.794 -1.800,
            -11.576 -5.223 -1.800,
            -11.576 -5.223 1.442,
            -11.822 -4.640 -1.800,
            -11.822 -4.640 1.442,
            -12.039 -4.045 -1.800,
            -12.039 -4.045 1.442,
            -12.225 -3.440 -1.800,
            -12.225 -3.440 1.442,
            -12.382 -2.826 -1.800,
            -12.382 -2.826 1.442,
            -12.507 -2.205 -1.800,
            -12.507 -2.205 1.442,
            -12.601 -1.579 1.442,
            -12.601 -1.579 -1.800,
            -12.664 -0.949 -1.800,
            -12.664 -0.949 1.442,
            -12.696 -0.317 1.442,
            -12.696 -0.317 -1.800,
            -12.696 0.317 -1.800,
            -12.696 0.317 1.442,
            -12.664 0.949 -1.800,
            -12.664 0.949 1.442,
            -12.601 1.579 1.442,
            -12.601 1.579 -1.800,
            -12.507 2.205 -1.800,
            -12.507 2.205 1.442,
            -12.382 2.826 -1.800,
            -12.382 2.826 1.442,
            -12.225 3.440 1.442,
            -12.225 3.440 -1.800,
            -12.039 4.045 -1.800,
            -12.039 4.045 1.442,
            -11.822 4.640 1.442,
            -11.822 4.640 -1.800,
            -11.576 5.223 1.442,
            -11.576 5.223 -1.800,
            -11.301 5.794 -1.800,
            -11.301 5.794 1.442,
            -10.999 6.350 1.442,
            -10.999 6.350 -1.800,
            -10.668 6.890 -1.800,
            -10.668 6.890 1.442,
            -10.312 7.414 -1.800,
            -10.312 7.414 1.442,
            -9.929 7.918 -1.800,
            -9.929 7.918 1.442,
            -9.522 8.403 1.442,
            -9.522 8.403 -1.800,
            -9.092 8.868 -1.800,
            -9.092 8.868 1.442,
            -8.638 9.310 -1.800,
            -8.638 9.310 1.442,
            -8.163 9.729 1.442,
            -8.163 9.729 -1.800,
            -7.668 10.124 1.442,
            -7.668 10.124 -1.800,
            -7.154 10.493 -1.800,
            -7.154 10.493 1.442,
            -6.622 10.837 -1.800,
            -6.622 10.837 1.442,
            -6.074 11.153 -1.800,
            -6.074 11.153 1.442,
            -5.510 11.442 -1.800,
            -5.510 11.442 1.442,
            -4.933 11.703 1.442,
            -4.933 11.703 -1.800,
            -4.344 11.934 -1.800,
            -4.344 11.934 1.442,
            -3.743 12.136 -1.800,
            -3.743 12.136 1.442,
            -3.134 12.307 -1.800,
            -3.134 12.307 1.442,
            -2.516 12.448 -1.800,
            -2.516 12.448 1.442,
            -1.893 12.558 -1.800,
            -1.893 12.558 1.442,
            -1.265 12.637 -1.800,
            -1.265 12.637 1.442,
            -0.633 12.684 -1.800,
            -0.633 12.684 1.442
          ]
        }
        coordIndex [
          0, 1, 2, -1,
          3, 1, 0, -1,
          4, 3, 0, -1,
          5, 3, 4, -1,
          6, 5, 4, -1,
          7, 5, 6, -1,
          8, 7, 6, -1,
          9, 7, 8, -1,
          10, 9, 8, -1,
          11, 9, 10, -1,
          12, 11, 10, -1,
          13, 11, 12, -1,
          14, 13, 12, -1,
          15, 13, 14, -1,
          16, 15, 14, -1,
          17, 15, 16, -1,
          18, 17, 16, -1,
          19, 17, 18, -1,
          20, 19, 18, -1,
          21, 19, 20, -1,
          22, 21, 20, -1,
          23, 21, 22, -1,
          24, 23, 22, -1,
          25, 23, 24, -1,
          26, 25, 24, -1,
          27, 25, 26, -1,
          28, 27, 26, -1,
          29, 27, 28, -1,
          30, 29, 28, -1,
          31, 29, 30, -1,
          32, 31, 30, -1,
          33, 31, 32, -1,
          34, 33, 32, -1,
          35, 33, 34, -1,
          36, 35, 34, -1,
          37, 35, 36, -1,
          38, 37, 36, -1,
          39, 37, 38, -1,
          40, 39, 38, -1,
          41, 39, 40, -1,
          42, 41, 40, -1,
          43, 41, 42, -1,
          44, 43, 42, -1,
          45, 43, 44, -1,
          46, 45, 44, -1,
          47, 45, 46, -1,
          48, 47, 46, -1,
          49, 47, 48, -1,
          50, 49, 48, -1,
          51, 49, 50, -1,
          52, 51, 50, -1,
          53, 51, 52, -1,
          54, 53, 52, -1,
          55, 53, 54, -1,
          56, 55, 54, -1,
          57, 55, 56, -1,
          58, 57, 56, -1,
          59, 57, 58, -1,
          60, 59, 58, -1,
          61, 59, 60, -1,
          62, 61, 60, -1,
          63, 61, 62, -1,
          64, 63, 62, -1,
          65, 63, 64, -1,
          66, 65, 64, -1,
          67, 65, 66, -1,
          68, 66, 69, -1,
          68, 67, 66, -1,
          70, 68, 69, -1,
          71, 68, 70, -1,
          72, 71, 70, -1,
          73, 71, 72, -1,
          74, 73, 72, -1,
          75, 73, 74, -1,
          76, 75, 74, -1,
          77, 75, 76, -1,
          78, 77, 76, -1,
          79, 77, 78, -1,
          80, 79, 78, -1,
          81, 79, 80, -1,
          82, 81, 80, -1,
          83, 81, 82, -1,
          84, 83, 82, -1,
          85, 83, 84, -1,
          86, 85, 84, -1,
          87, 85, 86, -1,
          88, 87, 86, -1,
          89, 87, 88, -1,
          90, 89, 88, -1,
          91, 89, 90, -1,
          92, 91, 90, -1,
          93, 91, 92, -1,
          94, 93, 92, -1,
          95, 93, 94, -1,
          96, 95, 94, -1,
          97, 95, 96, -1,
          98, 96, 99, -1,
          98, 97, 96, -1,
          100, 98, 99, -1,
          101, 98, 100, -1,
          102, 100, 103, -1,
          102, 101, 100, -1,
          104, 102, 103, -1,
          105, 102, 104, -1,
          106, 105, 104, -1,
          107, 105, 106, -1,
          108, 106, 109, -1,
          108, 107, 106, -1,
          110, 108, 109, -1,
          111, 108, 110, -1,
          112, 110, 113, -1,
          112, 111, 110, -1,
          114, 113, 115, -1,
          114, 112, 113, -1,
          116, 115, 117, -1,
          116, 114, 115, -1,
          118, 116, 117, -1,
          119, 116, 118, -1,
          120, 118, 121, -1,
          120, 119, 118, -1,
          122, 120, 121, -1,
          123, 120, 122, -1,
          124, 123, 122, -1,
          125, 123, 124, -1,
          126, 125, 124, -1,
          127, 125, 126, -1,
          128, 129, 130, -1,
          131, 129, 128, -1,
          132, 131, 128, -1,
          133, 131, 132, -1,
          134, 133, 132, -1,
          135, 133, 134, -1,
          136, 135, 134, -1,
          137, 135, 136, -1,
          138, 137, 136, -1,
          139, 137, 138, -1,
          140, 139, 138, -1,
          141, 139, 140, -1,
          142, 141, 140, -1,
          143, 141, 142, -1,
          144, 143, 142, -1,
          145, 143, 144, -1,
          146, 145, 144, -1,
          147, 145, 146, -1,
          148, 147, 146, -1,
          149, 147, 148, -1,
          150, 149, 148, -1,
          151, 149, 150, -1,
          152, 151, 150, -1,
          153, 151, 152, -1,
          154, 153, 152, -1,
          155, 153, 154, -1,
          156, 155, 154, -1,
          157, 155, 156, -1,
          158, 157, 156, -1,
          159, 157, 158, -1,
          160, 159, 158, -1,
          161, 159, 160, -1,
          162, 161, 160, -1,
          163, 161, 162, -1,
          164, 163, 162, -1,
          165, 163, 164, -1,
          166, 165, 164, -1,
          167, 165, 166, -1,
          168, 167, 166, -1,
          169, 167, 168, -1,
          170, 169, 168, -1,
          171, 169, 170, -1,
          172, 171, 170, -1,
          173, 171, 172, -1,
          174, 173, 172, -1,
          175, 173, 174, -1,
          176, 175, 174, -1,
          177, 175, 176, -1,
          178, 177, 176, -1,
          179, 177, 178, -1,
          180, 179, 178, -1,
          181, 179, 180, -1,
          182, 180, 183, -1,
          182, 181, 180, -1,
          184, 182, 183, -1,
          185, 182, 184, -1,
          186, 185, 184, -1,
          187, 185, 186, -1,
          188, 187, 186, -1,
          189, 187, 188, -1,
          190, 189, 188, -1,
          191, 189, 190, -1,
          192, 191, 190, -1,
          193, 191, 192, -1,
          194, 193, 192, -1,
          195, 193, 194, -1,
          196, 195, 194, -1,
          197, 195, 196, -1,
          198, 197, 196, -1,
          199, 197, 198, -1,
          200, 199, 198, -1,
          201, 199, 200, -1,
          202, 201, 200, -1,
          203, 201, 202, -1,
          204, 202, 205, -1,
          204, 203, 202, -1,
          206, 205, 207, -1,
          206, 204, 205, -1,
          208, 206, 207, -1,
          209, 206, 208, -1,
          210, 209, 208, -1,
          211, 209, 210, -1,
          212, 211, 210, -1,
          213, 211, 212, -1,
          214, 213, 212, -1,
          215, 213, 214, -1,
          216, 215, 214, -1,
          217, 215, 216, -1,
          218, 217, 216, -1,
          219, 217, 218, -1,
          220, 219, 218, -1,
          221, 219, 220, -1,
          222, 221, 220, -1,
          223, 221, 222, -1,
          224, 223, 222, -1,
          225, 223, 224, -1,
          226, 224, 227, -1,
          226, 225, 224, -1,
          228, 226, 227, -1,
          229, 226, 228, -1,
          230, 228, 231, -1,
          230, 229, 228, -1,
          232, 230, 231, -1,
          233, 230, 232, -1,
          234, 233, 232, -1,
          235, 233, 234, -1,
          236, 234, 237, -1,
          236, 235, 234, -1,
          238, 236, 237, -1,
          239, 236, 238, -1,
          240, 239, 238, -1,
          241, 239, 240, -1,
          242, 241, 240, -1,
          243, 241, 242, -1,
          244, 243, 242, -1,
          245, 243, 244, -1,
          246, 245, 244, -1,
          247, 245, 246, -1,
          248, 247, 246, -1,
          249, 247, 248, -1,
          250, 248, 251, -1,
          250, 249, 248, -1,
          252, 250, 251, -1,
          253, 250, 252, -1,
          254, 253, 252, -1,
          255, 253, 254, -1,
          253, 1, 3, -1,
          253, 255, 1, -1,
          250, 3, 5, -1,
          250, 253, 3, -1,
          249, 5, 7, -1,
          249, 250, 5, -1,
          247, 7, 9, -1,
          247, 249, 7, -1,
          245, 9, 11, -1,
          245, 247, 9, -1,
          243, 11, 13, -1,
          243, 245, 11, -1,
          241, 13, 15, -1,
          241, 243, 13, -1,
          239, 15, 17, -1,
          239, 241, 15, -1,
          236, 17, 19, -1,
          236, 239, 17, -1,
          235, 19, 21, -1,
          235, 236, 19, -1,
          233, 21, 23, -1,
          233, 235, 21, -1,
          230, 23, 25, -1,
          230, 233, 23, -1,
          229, 25, 27, -1,
          229, 230, 25, -1,
          226, 27, 29, -1,
          226, 229, 27, -1,
          225, 29, 31, -1,
          225, 226, 29, -1,
          223, 31, 33, -1,
          223, 225, 31, -1,
          221, 33, 35, -1,
          221, 223, 33, -1,
          219, 35, 37, -1,
          219, 221, 35, -1,
          217, 219, 37, -1,
          217, 37, 39, -1,
          215, 217, 39, -1,
          215, 39, 41, -1,
          213, 215, 41, -1,
          213, 41, 43, -1,
          211, 213, 43, -1,
          211, 43, 45, -1,
          209, 45, 47, -1,
          209, 211, 45, -1,
          206, 47, 49, -1,
          206, 209, 47, -1,
          204, 49, 51, -1,
          204, 206, 49, -1,
          203, 51, 53, -1,
          203, 204, 51, -1,
          201, 53, 55, -1,
          201, 203, 53, -1,
          199, 55, 57, -1,
          199, 201, 55, -1,
          197, 57, 59, -1,
          197, 199, 57, -1,
          195, 59, 61, -1,
          195, 197, 59, -1,
          193, 61, 63, -1,
          193, 195, 61, -1,
          191, 63, 65, -1,
          191, 193, 63, -1,
          189, 65, 67, -1,
          189, 191, 65, -1,
          187, 67, 68, -1,
          187, 189, 67, -1,
          185, 68, 71, -1,
          185, 187, 68, -1,
          182, 71, 73, -1,
          182, 185, 71, -1,
          181, 73, 75, -1,
          181, 182, 73, -1,
          179, 75, 77, -1,
          179, 181, 75, -1,
          177, 77, 79, -1,
          177, 179, 77, -1,
          175, 79, 81, -1,
          175, 177, 79, -1,
          173, 81, 83, -1,
          173, 175, 81, -1,
          171, 83, 85, -1,
          171, 173, 83, -1,
          169, 171, 85, -1,
          169, 85, 87, -1,
          167, 169, 87, -1,
          167, 87, 89, -1,
          165, 167, 89, -1,
          165, 89, 91, -1,
          163, 165, 91, -1,
          163, 91, 93, -1,
          161, 163, 93, -1,
          161, 93, 95, -1,
          159, 161, 95, -1,
          159, 95, 97, -1,
          157, 159, 97, -1,
          157, 97, 98, -1,
          155, 157, 98, -1,
          155, 98, 101, -1,
          153, 155, 101, -1,
          153, 101, 102, -1,
          151, 153, 102, -1,
          151, 102, 105, -1,
          149, 151, 105, -1,
          149, 105, 107, -1,
          147, 149, 107, -1,
          147, 107, 108, -1,
          145, 147, 108, -1,
          145, 108, 111, -1,
          143, 111, 112, -1,
          143, 145, 111, -1,
          141, 112, 114, -1,
          141, 143, 112, -1,
          139, 114, 116, -1,
          139, 141, 114, -1,
          137, 116, 119, -1,
          137, 139, 116, -1,
          135, 119, 120, -1,
          135, 137, 119, -1,
          133, 120, 123, -1,
          133, 135, 120, -1,
          131, 123, 125, -1,
          131, 133, 123, -1,
          129, 125, 127, -1,
          129, 131, 125, -1,
          256, 10, 8, -1,
          256, 8, 6, -1,
          256, 6, 4, -1,
          256, 4, 0, -1,
          256, 0, 2, -1,
          12, 10, 256, -1,
          14, 12, 256, -1,
          124, 257, 126, -1,
          122, 257, 124, -1,
          121, 257, 122, -1,
          118, 257, 121, -1,
          117, 257, 118, -1,
          115, 257, 117, -1,
          113, 257, 115, -1,
          258, 256, 259, -1,
          258, 42, 40, -1,
          258, 40, 38, -1,
          258, 38, 36, -1,
          258, 36, 34, -1,
          258, 34, 32, -1,
          258, 32, 30, -1,
          258, 30, 28, -1,
          258, 28, 26, -1,
          258, 26, 24, -1,
          258, 24, 22, -1,
          258, 22, 20, -1,
          258, 20, 18, -1,
          258, 18, 16, -1,
          258, 16, 14, -1,
          258, 14, 256, -1,
          260, 259, 261, -1,
          260, 261, 262, -1,
          260, 84, 82, -1,
          260, 82, 80, -1,
          260, 80, 78, -1,
          260, 78, 76, -1,
          260, 76, 74, -1,
          260, 74, 72, -1,
          260, 72, 70, -1,
          260, 70, 69, -1,
          260, 69, 66, -1,
          260, 66, 64, -1,
          260, 64, 62, -1,
          260, 62, 60, -1,
          260, 60, 58, -1,
          260, 58, 56, -1,
          260, 56, 54, -1,
          260, 54, 52, -1,
          260, 52, 50, -1,
          260, 50, 48, -1,
          260, 48, 46, -1,
          260, 46, 44, -1,
          260, 44, 42, -1,
          260, 42, 258, -1,
          260, 258, 259, -1,
          263, 262, 257, -1,
          263, 113, 110, -1,
          263, 110, 109, -1,
          263, 109, 106, -1,
          263, 106, 104, -1,
          263, 104, 103, -1,
          263, 103, 100, -1,
          263, 100, 99, -1,
          263, 99, 96, -1,
          263, 96, 94, -1,
          263, 94, 92, -1,
          263, 92, 90, -1,
          263, 90, 88, -1,
          263, 88, 86, -1,
          263, 86, 84, -1,
          263, 84, 260, -1,
          263, 257, 113, -1,
          263, 260, 262, -1,
          264, 265, 266, -1,
          264, 266, 267, -1,
          268, 267, 269, -1,
          268, 269, 270, -1,
          268, 264, 267, -1,
          271, 270, 272, -1,
          273, 271, 274, -1,
          273, 270, 271, -1,
          275, 276, 277, -1,
          278, 277, 268, -1,
          278, 275, 277, -1,
          279, 280, 281, -1,
          279, 281, 278, -1,
          282, 273, 283, -1,
          282, 283, 284, -1,
          282, 284, 285, -1,
          282, 285, 286, -1,
          282, 270, 273, -1,
          287, 278, 268, -1,
          287, 279, 278, -1,
          288, 282, 289, -1,
          288, 268, 270, -1,
          288, 270, 282, -1,
          290, 291, 287, -1,
          292, 290, 287, -1,
          292, 287, 268, -1,
          128, 130, 292, -1,
          293, 294, 295, -1,
          293, 295, 296, -1,
          293, 296, 297, -1,
          136, 134, 132, -1,
          136, 132, 128, -1,
          140, 136, 128, -1,
          140, 138, 136, -1,
          142, 140, 128, -1,
          298, 288, 294, -1,
          298, 293, 299, -1,
          298, 299, 300, -1,
          298, 300, 301, -1,
          298, 301, 302, -1,
          298, 268, 288, -1,
          298, 294, 293, -1,
          146, 144, 142, -1,
          146, 142, 128, -1,
          146, 128, 292, -1,
          303, 298, 304, -1,
          303, 304, 305, -1,
          306, 307, 308, -1,
          156, 154, 152, -1,
          156, 152, 150, -1,
          156, 150, 148, -1,
          309, 303, 307, -1,
          309, 307, 306, -1,
          158, 148, 146, -1,
          158, 156, 148, -1,
          310, 303, 309, -1,
          311, 303, 310, -1,
          162, 160, 158, -1,
          162, 146, 292, -1,
          162, 158, 146, -1,
          162, 292, 268, -1,
          312, 303, 311, -1,
          313, 303, 312, -1,
          314, 313, 315, -1,
          316, 314, 317, -1,
          174, 172, 170, -1,
          174, 170, 168, -1,
          174, 168, 166, -1,
          174, 166, 164, -1,
          174, 164, 162, -1,
          318, 316, 319, -1,
          318, 313, 314, -1,
          318, 314, 316, -1,
          178, 176, 174, -1,
          320, 268, 298, -1,
          320, 298, 303, -1,
          320, 318, 321, -1,
          320, 303, 313, -1,
          320, 313, 318, -1,
          188, 180, 178, -1,
          188, 162, 268, -1,
          188, 320, 322, -1,
          188, 174, 162, -1,
          188, 178, 174, -1,
          188, 268, 320, -1,
          188, 186, 184, -1,
          188, 184, 183, -1,
          188, 183, 180, -1,
          252, 323, 324, -1,
          252, 324, 325, -1,
          252, 325, 254, -1,
          194, 192, 190, -1,
          248, 323, 252, -1,
          248, 252, 251, -1,
          246, 323, 248, -1,
          246, 322, 323, -1,
          200, 198, 196, -1,
          200, 196, 194, -1,
          207, 200, 194, -1,
          207, 205, 202, -1,
          207, 202, 200, -1,
          238, 322, 246, -1,
          238, 246, 244, -1,
          238, 244, 242, -1,
          238, 242, 240, -1,
          208, 194, 190, -1,
          208, 207, 194, -1,
          234, 238, 237, -1,
          212, 210, 208, -1,
          231, 234, 232, -1,
          216, 212, 208, -1,
          216, 214, 212, -1,
          228, 238, 234, -1,
          228, 234, 231, -1,
          227, 188, 322, -1,
          227, 238, 228, -1,
          227, 322, 238, -1,
          227, 190, 188, -1,
          220, 216, 208, -1,
          220, 218, 216, -1,
          222, 208, 190, -1,
          222, 190, 227, -1,
          222, 220, 208, -1,
          222, 227, 224, -1,
          256, 2, 326, -1,
          256, 326, 327, -1,
          256, 327, 328, -1,
          256, 328, 329, -1,
          256, 329, 330, -1,
          256, 330, 331, -1,
          256, 331, 332, -1,
          257, 333, 334, -1,
          335, 257, 334, -1,
          336, 257, 335, -1,
          337, 257, 336, -1,
          338, 257, 337, -1,
          339, 257, 338, -1,
          126, 257, 339, -1,
          340, 259, 256, -1,
          340, 332, 341, -1,
          340, 341, 342, -1,
          340, 342, 343, -1,
          340, 343, 344, -1,
          340, 344, 345, -1,
          340, 345, 346, -1,
          340, 346, 347, -1,
          340, 347, 348, -1,
          340, 348, 349, -1,
          340, 349, 350, -1,
          340, 350, 351, -1,
          340, 351, 352, -1,
          340, 352, 353, -1,
          340, 353, 354, -1,
          340, 256, 332, -1,
          355, 262, 261, -1,
          355, 261, 259, -1,
          355, 354, 356, -1,
          355, 356, 357, -1,
          355, 357, 358, -1,
          355, 358, 359, -1,
          355, 359, 360, -1,
          355, 360, 361, -1,
          355, 361, 362, -1,
          355, 362, 363, -1,
          355, 363, 364, -1,
          355, 364, 365, -1,
          355, 365, 366, -1,
          355, 366, 367, -1,
          355, 367, 368, -1,
          355, 368, 369, -1,
          355, 369, 370, -1,
          355, 370, 371, -1,
          355, 371, 372, -1,
          355, 372, 373, -1,
          355, 373, 374, -1,
          355, 374, 375, -1,
          355, 375, 376, -1,
          355, 259, 340, -1,
          355, 340, 354, -1,
          377, 257, 262, -1,
          377, 376, 378, -1,
          377, 378, 379, -1,
          377, 379, 380, -1,
          377, 380, 381, -1,
          377, 381, 382, -1,
          377, 382, 383, -1,
          377, 383, 384, -1,
          377, 384, 385, -1,
          377, 385, 386, -1,
          377, 386, 387, -1,
          377, 387, 388, -1,
          377, 355, 376, -1,
          377, 388, 389, -1,
          377, 389, 390, -1,
          377, 390, 333, -1,
          377, 262, 355, -1,
          377, 333, 257, -1,
          391, 129, 127, -1,
          391, 127, 392, -1,
          393, 392, 394, -1,
          393, 391, 392, -1,
          395, 394, 396, -1,
          395, 393, 394, -1,
          397, 396, 398, -1,
          397, 395, 396, -1,
          399, 398, 400, -1,
          399, 397, 398, -1,
          401, 400, 402, -1,
          401, 399, 400, -1,
          403, 402, 404, -1,
          403, 401, 402, -1,
          405, 404, 406, -1,
          405, 403, 404, -1,
          407, 406, 408, -1,
          407, 405, 406, -1,
          409, 408, 410, -1,
          409, 407, 408, -1,
          411, 410, 412, -1,
          411, 409, 410, -1,
          413, 412, 414, -1,
          413, 411, 412, -1,
          415, 414, 416, -1,
          415, 413, 414, -1,
          417, 416, 418, -1,
          417, 415, 416, -1,
          419, 418, 420, -1,
          419, 420, 421, -1,
          419, 417, 418, -1,
          422, 419, 421, -1,
          423, 422, 421, -1,
          423, 421, 424, -1,
          425, 424, 426, -1,
          425, 423, 424, -1,
          427, 425, 426, -1,
          427, 426, 428, -1,
          427, 428, 429, -1,
          430, 427, 429, -1,
          431, 430, 429, -1,
          431, 429, 432, -1,
          431, 432, 433, -1,
          434, 431, 433, -1,
          435, 434, 433, -1,
          435, 433, 436, -1,
          437, 436, 438, -1,
          437, 435, 436, -1,
          439, 438, 440, -1,
          439, 437, 438, -1,
          441, 440, 442, -1,
          441, 439, 440, -1,
          443, 442, 444, -1,
          443, 441, 442, -1,
          445, 444, 446, -1,
          445, 446, 447, -1,
          445, 443, 444, -1,
          448, 445, 447, -1,
          449, 447, 450, -1,
          449, 450, 451, -1,
          449, 448, 447, -1,
          452, 449, 451, -1,
          453, 451, 454, -1,
          453, 452, 451, -1,
          455, 454, 456, -1,
          455, 456, 457, -1,
          455, 453, 454, -1,
          458, 455, 457, -1,
          459, 457, 460, -1,
          459, 458, 457, -1,
          461, 460, 462, -1,
          461, 462, 463, -1,
          461, 459, 460, -1,
          464, 461, 463, -1,
          465, 463, 466, -1,
          465, 466, 467, -1,
          465, 464, 463, -1,
          468, 467, 469, -1,
          468, 465, 467, -1,
          470, 468, 469, -1,
          471, 469, 472, -1,
          471, 472, 473, -1,
          471, 470, 469, -1,
          474, 471, 473, -1,
          475, 474, 473, -1,
          475, 473, 476, -1,
          477, 475, 476, -1,
          477, 476, 478, -1,
          479, 477, 478, -1,
          479, 478, 480, -1,
          479, 480, 481, -1,
          482, 479, 481, -1,
          483, 482, 481, -1,
          483, 481, 484, -1,
          485, 483, 484, -1,
          485, 484, 486, -1,
          485, 486, 487, -1,
          488, 485, 487, -1,
          488, 487, 489, -1,
          490, 488, 489, -1,
          491, 490, 489, -1,
          491, 489, 492, -1,
          493, 491, 492, -1,
          493, 492, 494, -1,
          495, 493, 494, -1,
          495, 494, 496, -1,
          497, 495, 496, -1,
          497, 496, 498, -1,
          497, 498, 499, -1,
          500, 497, 499, -1,
          501, 500, 499, -1,
          501, 499, 502, -1,
          503, 502, 504, -1,
          503, 501, 502, -1,
          505, 504, 506, -1,
          505, 503, 504, -1,
          507, 506, 508, -1,
          507, 505, 506, -1,
          509, 508, 510, -1,
          509, 507, 508, -1,
          511, 510, 512, -1,
          511, 509, 510, -1,
          513, 512, 514, -1,
          513, 514, 1, -1,
          513, 511, 512, -1,
          255, 513, 1, -1,
          325, 255, 254, -1,
          513, 255, 325, -1,
          324, 513, 325, -1,
          511, 513, 324, -1,
          323, 511, 324, -1,
          509, 511, 323, -1,
          322, 509, 323, -1,
          507, 509, 322, -1,
          320, 507, 322, -1,
          505, 507, 320, -1,
          321, 505, 320, -1,
          503, 505, 321, -1,
          318, 503, 321, -1,
          501, 503, 318, -1,
          319, 501, 318, -1,
          500, 501, 319, -1,
          316, 500, 319, -1,
          497, 500, 316, -1,
          317, 497, 316, -1,
          495, 497, 317, -1,
          314, 495, 317, -1,
          493, 495, 314, -1,
          315, 493, 314, -1,
          491, 493, 315, -1,
          313, 491, 315, -1,
          490, 491, 313, -1,
          312, 490, 313, -1,
          488, 490, 312, -1,
          311, 488, 312, -1,
          485, 488, 311, -1,
          310, 485, 311, -1,
          483, 485, 310, -1,
          309, 483, 310, -1,
          482, 483, 309, -1,
          306, 482, 309, -1,
          479, 482, 306, -1,
          308, 479, 306, -1,
          477, 479, 308, -1,
          307, 477, 308, -1,
          475, 477, 307, -1,
          303, 475, 307, -1,
          474, 475, 303, -1,
          305, 474, 303, -1,
          471, 474, 305, -1,
          304, 471, 305, -1,
          470, 471, 304, -1,
          468, 470, 304, -1,
          468, 304, 298, -1,
          302, 468, 298, -1,
          465, 468, 302, -1,
          301, 465, 302, -1,
          464, 465, 301, -1,
          300, 464, 301, -1,
          461, 464, 300, -1,
          299, 461, 300, -1,
          459, 461, 299, -1,
          293, 459, 299, -1,
          458, 459, 293, -1,
          297, 458, 293, -1,
          455, 458, 297, -1,
          296, 455, 297, -1,
          453, 455, 296, -1,
          295, 453, 296, -1,
          452, 453, 295, -1,
          449, 295, 294, -1,
          449, 452, 295, -1,
          288, 449, 294, -1,
          448, 449, 288, -1,
          289, 448, 288, -1,
          445, 448, 289, -1,
          282, 445, 289, -1,
          443, 445, 282, -1,
          286, 443, 282, -1,
          441, 443, 286, -1,
          285, 441, 286, -1,
          439, 441, 285, -1,
          437, 285, 284, -1,
          437, 439, 285, -1,
          435, 284, 283, -1,
          435, 437, 284, -1,
          434, 283, 273, -1,
          434, 435, 283, -1,
          431, 273, 274, -1,
          431, 434, 273, -1,
          430, 274, 271, -1,
          430, 431, 274, -1,
          272, 430, 271, -1,
          427, 430, 272, -1,
          425, 427, 272, -1,
          425, 272, 270, -1,
          423, 425, 270, -1,
          423, 270, 269, -1,
          422, 423, 269, -1,
          422, 269, 267, -1,
          419, 267, 266, -1,
          419, 422, 267, -1,
          417, 266, 265, -1,
          417, 419, 266, -1,
          415, 265, 264, -1,
          415, 417, 265, -1,
          413, 264, 268, -1,
          413, 415, 264, -1,
          277, 413, 268, -1,
          411, 413, 277, -1,
          276, 411, 277, -1,
          409, 411, 276, -1,
          407, 276, 275, -1,
          407, 409, 276, -1,
          278, 407, 275, -1,
          405, 407, 278, -1,
          403, 278, 281, -1,
          403, 405, 278, -1,
          280, 403, 281, -1,
          401, 403, 280, -1,
          399, 280, 279, -1,
          399, 401, 280, -1,
          397, 279, 287, -1,
          397, 399, 279, -1,
          395, 287, 291, -1,
          395, 397, 287, -1,
          393, 291, 290, -1,
          393, 395, 291, -1,
          292, 393, 290, -1,
          391, 393, 292, -1,
          129, 292, 130, -1,
          129, 391, 292, -1,
          339, 127, 126, -1,
          392, 127, 339, -1,
          338, 392, 339, -1,
          394, 392, 338, -1,
          337, 394, 338, -1,
          396, 394, 337, -1,
          336, 396, 337, -1,
          398, 396, 336, -1,
          335, 398, 336, -1,
          400, 398, 335, -1,
          334, 400, 335, -1,
          402, 400, 334, -1,
          333, 402, 334, -1,
          404, 402, 333, -1,
          390, 404, 333, -1,
          406, 404, 390, -1,
          389, 406, 390, -1,
          408, 406, 389, -1,
          388, 408, 389, -1,
          410, 408, 388, -1,
          387, 410, 388, -1,
          412, 410, 387, -1,
          386, 412, 387, -1,
          414, 412, 386, -1,
          416, 386, 385, -1,
          416, 414, 386, -1,
          418, 385, 384, -1,
          418, 416, 385, -1,
          383, 418, 384, -1,
          420, 418, 383, -1,
          421, 383, 382, -1,
          421, 420, 383, -1,
          381, 421, 382, -1,
          424, 421, 381, -1,
          426, 381, 380, -1,
          426, 424, 381, -1,
          379, 426, 380, -1,
          428, 426, 379, -1,
          429, 428, 379, -1,
          429, 379, 378, -1,
          376, 429, 378, -1,
          432, 429, 376, -1,
          433, 432, 376, -1,
          433, 376, 375, -1,
          436, 433, 375, -1,
          436, 375, 374, -1,
          438, 436, 374, -1,
          438, 374, 373, -1,
          440, 438, 373, -1,
          440, 373, 372, -1,
          371, 440, 372, -1,
          442, 440, 371, -1,
          444, 371, 370, -1,
          444, 442, 371, -1,
          446, 370, 369, -1,
          446, 444, 370, -1,
          368, 446, 369, -1,
          447, 446, 368, -1,
          450, 368, 367, -1,
          450, 447, 368, -1,
          451, 367, 366, -1,
          451, 450, 367, -1,
          454, 366, 365, -1,
          454, 451, 366, -1,
          456, 365, 364, -1,
          456, 454, 365, -1,
          363, 456, 364, -1,
          457, 456, 363, -1,
          362, 457, 363, -1,
          460, 457, 362, -1,
          462, 362, 361, -1,
          462, 460, 362, -1,
          360, 462, 361, -1,
          463, 462, 360, -1,
          466, 360, 359, -1,
          466, 463, 360, -1,
          358, 466, 359, -1,
          467, 466, 358, -1,
          469, 358, 357, -1,
          469, 467, 358, -1,
          472, 357, 356, -1,
          472, 469, 357, -1,
          473, 356, 354, -1,
          473, 472, 356, -1,
          476, 354, 353, -1,
          476, 473, 354, -1,
          478, 476, 353, -1,
          478, 353, 352, -1,
          480, 478, 352, -1,
          480, 352, 351, -1,
          481, 480, 351, -1,
          481, 351, 350, -1,
          484, 481, 350, -1,
          484, 350, 349, -1,
          348, 484, 349, -1,
          486, 484, 348, -1,
          487, 348, 347, -1,
          487, 486, 348, -1,
          489, 347, 346, -1,
          489, 487, 347, -1,
          345, 489, 346, -1,
          492, 489, 345, -1,
          494, 345, 344, -1,
          494, 492, 345, -1,
          343, 494, 344, -1,
          496, 494, 343, -1,
          498, 343, 342, -1,
          498, 496, 343, -1,
          341, 498, 342, -1,
          499, 498, 341, -1,
          502, 341, 332, -1,
          502, 499, 341, -1,
          331, 502, 332, -1,
          504, 502, 331, -1,
          506, 331, 330, -1,
          506, 504, 331, -1,
          508, 330, 329, -1,
          508, 506, 330, -1,
          510, 329, 328, -1,
          510, 508, 329, -1,
          327, 510, 328, -1,
          512, 510, 327, -1,
          326, 512, 327, -1,
          514, 512, 326, -1,
          1, 326, 2, -1,
          1, 514, 326, -1
        ]
      }
    }
}
