#VRML V2.0 utf8
WorldInfo {
  title "Exported triangle mesh to VRML97"
  info ["Created by FreeCAD"
        "<https://www.freecad.org>"]
}

Transform {
  scale 1 1 1
  rotation 0 0 1 0
  scaleOrientation 0 0 1 0
  center 0.000 0.000 0.000
  translation 0.000 0.000 0.000
  children
    Shape { 
      appearance
      Appearance {
        material
        Material {
          diffuseColor 0.8 0.8 0.8
        }
      }
      geometry
      IndexedFaceSet {
        coord
        Coordinate {
          point [
            1.887 0.000 37.803,
            0.000 0.250 38.100,
            0.000 0.000 37.850,
            1.899 0.250 38.053,
            3.769 0.000 37.662,
            3.794 0.250 37.911,
            5.641 0.000 37.427,
            5.679 0.250 37.674,
            7.500 0.000 37.100,
            7.549 0.250 37.345,
            9.340 0.000 36.680,
            9.401 0.250 36.922,
            11.156 0.000 36.168,
            11.230 0.250 36.407,
            12.945 0.000 35.567,
            13.031 0.250 35.802,
            14.702 0.000 34.878,
            14.799 0.250 35.108,
            16.422 0.000 34.102,
            16.531 0.250 34.327,
            18.102 0.000 33.241,
            18.221 0.250 33.460,
            19.736 0.000 32.297,
            19.867 0.250 32.510,
            21.322 0.000 31.273,
            21.462 0.250 31.480,
            22.854 0.000 30.171,
            23.005 0.250 30.371,
            24.330 0.000 28.995,
            24.490 0.250 29.186,
            25.745 0.000 27.746,
            25.915 0.250 27.929,
            27.096 0.000 26.428,
            27.275 0.250 26.603,
            28.379 0.000 25.045,
            28.567 0.250 25.210,
            29.592 0.000 23.599,
            29.788 0.250 23.755,
            30.732 0.000 22.095,
            30.935 0.250 22.241,
            31.795 0.000 20.535,
            32.005 0.250 20.671,
            32.779 0.000 18.925,
            32.996 0.250 19.050,
            33.682 0.000 17.268,
            33.904 0.250 17.382,
            34.500 0.000 15.567,
            34.728 0.250 15.670,
            35.234 0.000 13.828,
            35.466 0.250 13.919,
            35.879 0.000 12.055,
            36.116 0.250 12.134,
            36.435 0.000 10.251,
            36.676 0.250 10.319,
            36.901 0.000 8.422,
            37.145 0.250 8.478,
            37.521 0.250 6.616,
            37.275 0.000 6.573,
            37.556 0.000 4.706,
            37.804 0.250 4.737,
            37.744 0.000 2.829,
            37.993 0.250 2.847,
            37.838 0.000 0.944,
            38.088 0.250 0.950,
            37.838 0.000 -0.944,
            38.088 0.250 -0.950,
            37.744 0.000 -2.829,
            37.993 0.250 -2.847,
            37.556 0.000 -4.706,
            37.804 0.250 -4.737,
            37.275 0.000 -6.573,
            37.521 0.250 -6.616,
            37.145 0.250 -8.478,
            36.901 0.000 -8.422,
            36.435 0.000 -10.251,
            36.676 0.250 -10.319,
            35.879 0.000 -12.055,
            36.116 0.250 -12.134,
            35.234 0.000 -13.828,
            35.466 0.250 -13.919,
            34.500 0.000 -15.567,
            34.728 0.250 -15.670,
            33.682 0.000 -17.268,
            33.904 0.250 -17.382,
            32.779 0.000 -18.925,
            32.996 0.250 -19.050,
            31.795 0.000 -20.535,
            32.005 0.250 -20.671,
            30.732 0.000 -22.095,
            30.935 0.250 -22.241,
            29.592 0.000 -23.599,
            29.788 0.250 -23.755,
            28.379 0.000 -25.045,
            28.567 0.250 -25.210,
            27.096 0.000 -26.428,
            27.275 0.250 -26.603,
            25.915 0.250 -27.929,
            25.745 0.000 -27.746,
            24.490 0.250 -29.186,
            24.330 0.000 -28.995,
            23.005 0.250 -30.371,
            22.854 0.000 -30.171,
            21.322 0.000 -31.273,
            21.462 0.250 -31.480,
            19.736 0.000 -32.297,
            19.867 0.250 -32.510,
            18.102 0.000 -33.241,
            18.221 0.250 -33.460,
            16.531 0.250 -34.327,
            16.422 0.000 -34.102,
            14.702 0.000 -34.878,
            14.799 0.250 -35.108,
            13.031 0.250 -35.802,
            12.945 0.000 -35.567,
            11.156 0.000 -36.168,
            11.230 0.250 -36.407,
            9.340 0.000 -36.680,
            9.401 0.250 -36.922,
            7.500 0.000 -37.100,
            7.549 0.250 -37.345,
            5.641 0.000 -37.427,
            5.679 0.250 -37.674,
            3.794 0.250 -37.911,
            3.769 0.000 -37.662,
            1.887 0.000 -37.803,
            1.899 0.250 -38.053,
            0.000 0.000 -37.850,
            0.000 0.250 -38.100,
            0.000 5.395 -38.100,
            1.899 5.395 -38.053,
            3.794 5.395 -37.911,
            5.679 5.395 -37.674,
            7.549 5.395 -37.345,
            9.401 5.395 -36.922,
            11.230 5.395 -36.407,
            13.031 5.395 -35.802,
            14.799 5.395 -35.108,
            16.531 5.395 -34.327,
            18.221 5.395 -33.460,
            19.867 5.395 -32.510,
            21.462 5.395 -31.480,
            23.005 5.395 -30.371,
            24.490 5.395 -29.186,
            25.915 5.395 -27.929,
            27.275 5.395 -26.603,
            28.567 5.395 -25.210,
            29.788 5.395 -23.755,
            30.935 5.395 -22.241,
            32.005 5.395 -20.671,
            32.996 5.395 -19.050,
            33.904 5.395 -17.382,
            34.728 5.395 -15.670,
            35.466 5.395 -13.919,
            36.116 5.395 -12.134,
            36.676 5.395 -10.319,
            37.145 5.395 -8.478,
            37.521 5.395 -6.616,
            37.804 5.395 -4.737,
            37.993 5.395 -2.847,
            38.088 5.395 -0.950,
            38.088 5.395 0.950,
            37.993 5.395 2.847,
            37.804 5.395 4.737,
            37.521 5.395 6.616,
            37.145 5.395 8.478,
            36.676 5.395 10.319,
            36.116 5.395 12.134,
            35.466 5.395 13.919,
            34.728 5.395 15.670,
            33.904 5.395 17.382,
            32.996 5.395 19.050,
            32.005 5.395 20.671,
            30.935 5.395 22.241,
            29.788 5.395 23.755,
            28.567 5.395 25.210,
            27.275 5.395 26.603,
            25.915 5.395 27.929,
            24.490 5.395 29.186,
            23.005 5.395 30.371,
            21.462 5.395 31.480,
            19.867 5.395 32.510,
            18.221 5.395 33.460,
            16.531 5.395 34.327,
            14.799 5.395 35.108,
            13.031 5.395 35.802,
            11.230 5.395 36.407,
            9.401 5.395 36.922,
            7.549 5.395 37.345,
            5.679 5.395 37.674,
            3.794 5.395 37.911,
            1.899 5.395 38.053,
            0.000 5.395 38.100,
            28.269 12.564 12.165,
            28.269 13.297 9.520,
            25.463 14.702 11.333,
            25.463 13.843 14.069,
            35.868 7.830 2.303,
            35.868 7.908 -0.000,
            33.484 10.230 1.231,
            33.484 10.063 3.689,
            16.400 11.202 27.962,
            16.400 13.005 25.373,
            13.210 12.947 27.254,
            13.210 11.017 29.835,
            25.463 12.802 16.741,
            22.540 14.856 16.003,
            22.540 13.682 18.739,
            0.000 7.216 -36.513,
            33.484 9.732 6.129,
            30.947 12.075 5.205,
            30.947 11.636 7.777,
            13.210 8.918 32.280,
            9.961 10.582 31.586,
            9.961 8.366 33.997,
            22.540 12.326 21.389,
            19.514 14.291 20.723,
            19.514 12.799 23.409,
            30.947 11.025 10.315,
            9.961 5.991 36.254,
            6.666 7.585 35.553,
            19.514 11.130 25.990,
            28.269 11.654 14.755,
            35.868 7.597 4.596,
            16.400 9.229 30.424,
            25.463 11.583 19.337,
            33.484 9.236 8.541,
            13.210 6.658 34.578,
            22.540 10.794 23.942,
            30.947 10.243 12.805,
            19.514 9.290 28.451,
            28.269 10.571 17.277,
            35.868 7.209 6.868,
            16.400 7.094 32.747,
            25.463 10.191 21.844,
            33.484 8.578 10.915,
            22.540 9.093 26.385,
            30.947 9.296 15.236,
            19.514 7.288 30.783,
            28.269 9.321 19.721,
            35.868 6.669 9.108,
            25.463 8.633 24.251,
            33.484 7.762 13.238,
            22.540 7.231 28.708,
            30.947 8.186 17.599,
            28.269 7.908 22.075,
            35.868 5.979 11.307,
            25.463 6.916 26.548,
            33.484 6.791 15.501,
            30.947 6.919 19.880,
            28.269 6.340 24.328,
            33.484 5.669 17.694,
            30.947 5.501 22.072,
            0.000 7.216 36.513,
            3.341 6.589 -36.926,
            3.341 9.007 -34.628,
            0.000 8.957 -34.839,
            0.000 10.615 -33.083,
            6.666 7.585 -35.553,
            3.341 11.265 -32.172,
            0.000 12.185 -31.247,
            9.961 5.991 -36.254,
            6.666 9.908 -33.190,
            3.341 13.351 -29.568,
            0.000 13.663 -29.337,
            0.000 15.047 -27.358,
            9.961 8.366 -33.997,
            6.666 12.066 -30.676,
            3.341 15.257 -26.830,
            0.000 16.332 -25.313,
            13.210 6.658 -34.578,
            9.961 10.582 -31.586,
            6.666 14.050 -28.022,
            3.341 16.974 -23.969,
            0.000 17.516 -23.208,
            13.210 8.918 -32.280,
            9.961 12.631 -29.030,
            6.666 15.850 -25.240,
            16.400 7.094 -32.747,
            3.341 18.494 -20.999,
            0.000 18.596 -21.047,
            0.000 19.569 -18.837,
            13.210 11.017 -29.835,
            9.961 14.502 -26.341,
            6.666 17.458 -22.343,
            16.400 9.229 -30.424,
            3.341 19.810 -17.934,
            0.000 20.434 -16.582,
            13.210 12.947 -27.254,
            9.961 16.188 -23.533,
            19.514 7.288 -30.783,
            6.666 18.867 -19.344,
            16.400 11.202 -27.962,
            3.341 20.916 -14.786,
            0.000 21.187 -14.287,
            13.210 14.697 -24.549,
            9.961 17.680 -20.617,
            19.514 9.290 -28.451,
            6.666 20.070 -16.257,
            16.400 13.005 -25.373,
            3.341 21.806 -11.571,
            0.000 21.828 -11.958,
            0.000 22.354 -9.601,
            13.210 16.261 -21.731,
            22.540 7.231 -28.708,
            9.961 18.971 -17.607,
            19.514 11.130 -25.990,
            6.666 21.062 -13.096,
            16.400 14.629 -22.667,
            3.341 22.478 -8.303,
            0.000 22.764 -7.221,
            13.210 17.632 -18.814,
            22.540 9.093 -26.385,
            9.961 20.057 -14.516,
            19.514 12.799 -23.409,
            6.666 21.839 -9.874,
            16.400 16.066 -19.859,
            25.463 6.916 -26.548,
            3.341 22.927 -4.997,
            0.000 23.058 -4.823,
            0.000 23.235 -2.415,
            13.210 18.802 -15.811,
            22.540 10.794 -23.942,
            9.961 20.932 -11.360,
            19.514 14.291 -20.723,
            6.666 22.396 -6.608,
            16.400 17.310 -16.959,
            25.463 8.633 -24.251,
            3.341 23.153 -1.668,
            0.000 23.294 -0.000,
            13.210 19.767 -12.737,
            22.540 12.326 -21.389,
            9.961 21.591 -8.151,
            19.514 15.598 -17.941,
            28.269 6.340 -24.328,
            6.666 22.731 -3.312,
            16.400 18.356 -13.983,
            25.463 10.191 -21.844,
            3.341 23.153 1.668,
            0.000 23.235 2.415,
            13.210 20.522 -9.604,
            22.540 13.682 -18.739,
            9.961 22.032 -4.906,
            19.514 16.713 -15.078,
            28.269 7.908 -22.075,
            6.666 22.843 -0.000,
            16.400 19.198 -10.942,
            25.463 11.583 -19.337,
            3.341 22.927 4.997,
            0.000 23.058 4.823,
            0.000 22.764 7.221,
            13.210 21.063 -6.427,
            22.540 14.856 -16.003,
            9.961 22.253 -1.638,
            19.514 17.634 -12.146,
            28.269 9.321 -19.721,
            6.666 22.731 3.312,
            16.400 19.833 -7.852,
            25.463 12.802 -16.741,
            3.341 22.478 8.303,
            0.000 22.354 9.601,
            13.210 21.390 -3.221,
            22.540 15.843 -13.194,
            30.947 6.919 -19.880,
            9.961 22.253 1.638,
            19.514 18.353 -9.158,
            28.269 10.571 -17.277,
            6.666 22.396 6.608,
            16.400 20.258 -4.725,
            25.463 13.843 -14.069,
            3.341 21.806 11.571,
            0.000 21.828 11.958,
            0.000 21.187 14.287,
            13.210 21.498 -0.000,
            22.540 16.638 -10.325,
            30.947 8.186 -17.599,
            9.961 22.032 4.906,
            19.514 18.870 -6.129,
            28.269 11.654 -14.755,
            6.666 21.839 9.874,
            16.400 20.471 -1.578,
            25.463 14.702 -11.333,
            33.484 5.669 -17.694,
            3.341 20.916 14.786,
            0.000 20.434 16.582,
            13.210 21.390 3.221,
            22.540 17.237 -7.409,
            30.947 9.296 -15.236,
            9.961 21.591 8.151,
            19.514 19.181 -3.071,
            28.269 12.564 -12.165,
            6.666 21.062 13.096,
            16.400 20.471 1.578,
            25.463 15.374 -8.546,
            33.484 6.791 -15.501,
            3.341 19.810 17.934,
            0.000 19.569 18.837,
            13.210 21.063 6.427,
            22.540 17.638 -4.459,
            30.947 10.243 -12.805,
            9.961 20.932 11.360,
            19.514 19.285 -0.000,
            28.269 13.297 -9.520,
            6.666 20.070 16.257,
            16.400 20.258 4.725,
            25.463 15.856 -5.719,
            33.484 7.762 -13.238,
            3.341 18.494 20.999,
            0.000 18.596 21.047,
            0.000 17.516 23.208,
            13.210 20.522 9.604,
            22.540 17.839 -1.489,
            30.947 11.025 -10.315,
            9.961 20.057 14.516,
            19.514 19.181 3.071,
            28.269 13.849 -6.831,
            6.666 18.867 19.344,
            16.400 19.833 7.852,
            25.463 16.146 -2.866,
            33.484 8.578 -10.915,
            3.341 16.974 23.969,
            0.000 16.332 25.313,
            13.210 19.767 12.737,
            22.540 17.839 1.489,
            30.947 11.636 -7.777,
            9.961 18.971 17.607,
            19.514 18.870 6.129,
            28.269 14.219 -4.111,
            35.868 5.979 -11.307,
            6.666 17.458 22.343,
            16.400 19.198 10.942,
            25.463 16.243 -0.000,
            33.484 9.236 -8.541,
            3.341 15.257 26.830,
            0.000 15.047 27.358,
            13.210 18.802 15.811,
            22.540 17.638 4.459,
            30.947 12.075 -5.205,
            9.961 17.680 20.617,
            19.514 18.353 9.158,
            28.269 14.404 -1.372,
            35.868 6.669 -9.108,
            6.666 15.850 25.240,
            16.400 18.356 13.983,
            25.463 16.146 2.866,
            33.484 9.732 -6.129,
            3.341 13.351 29.568,
            0.000 13.663 29.337,
            0.000 12.185 31.247,
            13.210 17.632 18.814,
            22.540 17.237 7.409,
            30.947 12.339 -2.608,
            9.961 16.188 23.533,
            19.514 17.634 12.146,
            28.269 14.404 1.372,
            35.868 7.209 -6.868,
            6.666 14.050 28.022,
            16.400 17.310 16.959,
            25.463 15.856 5.719,
            33.484 10.063 -3.689,
            3.341 11.265 32.172,
            0.000 10.615 33.083,
            13.210 16.261 21.731,
            22.540 16.638 10.325,
            30.947 12.427 -0.000,
            9.961 14.502 26.341,
            19.514 16.713 15.078,
            28.269 14.219 4.111,
            35.868 7.597 -4.596,
            6.666 12.066 30.676,
            16.400 16.066 19.859,
            25.463 15.374 8.546,
            33.484 10.230 -1.231,
            3.341 9.007 34.628,
            0.000 8.957 34.839,
            13.210 14.697 24.549,
            22.540 15.843 13.194,
            30.947 12.339 2.608,
            9.961 12.631 29.030,
            19.514 15.598 17.941,
            28.269 13.849 6.831,
            35.868 7.830 -2.303,
            6.666 9.908 33.190,
            16.400 14.629 22.667,
            3.341 6.589 36.926,
            -13.210 16.971 20.284,
            -16.400 16.712 18.420,
            -16.400 15.371 21.275,
            -3.341 22.170 9.942,
            -3.341 22.731 6.654,
            -6.666 22.145 8.246,
            -6.666 21.478 11.491,
            -16.400 13.840 24.034,
            -19.514 13.568 22.079,
            -19.514 11.986 24.714,
            -6.666 20.593 14.685,
            -9.961 20.521 12.946,
            -9.961 19.540 16.071,
            -19.514 10.231 27.236,
            -22.540 9.964 25.178,
            -22.540 8.181 27.562,
            -9.961 18.351 19.123,
            -13.210 18.242 17.323,
            -22.540 6.242 29.821,
            -24.490 5.395 29.186,
            -23.005 5.395 30.371,
            -21.462 5.395 31.480,
            -13.210 15.503 23.153,
            -3.341 21.388 13.186,
            -16.400 12.126 26.683,
            -6.666 19.495 17.811,
            -19.514 8.309 29.634,
            -9.961 16.958 22.087,
            -13.210 13.845 25.916,
            -3.341 20.389 16.369,
            -16.400 10.237 29.210,
            -6.666 18.188 20.856,
            -19.514 6.229 31.896,
            -19.867 5.395 32.510,
            -18.221 5.395 33.460,
            -9.961 15.368 24.951,
            -13.210 12.004 28.561,
            -3.341 19.178 19.478,
            -16.400 8.181 31.604,
            -6.666 16.679 23.805,
            -9.961 13.589 27.701,
            -13.210 9.988 31.076,
            -3.341 17.759 22.497,
            -16.400 5.969 33.853,
            -16.531 5.395 34.327,
            -14.799 5.395 35.108,
            -6.666 14.974 26.646,
            -9.961 11.628 30.325,
            -13.210 7.808 33.448,
            -13.031 5.395 35.802,
            -3.341 16.140 25.414,
            -1.899 5.395 -38.053,
            -6.666 13.081 29.366,
            -9.961 9.494 32.810,
            -3.341 14.327 28.215,
            -6.666 11.008 31.951,
            -9.961 7.198 35.146,
            -11.230 5.395 36.407,
            -9.401 5.395 36.922,
            -3.341 12.330 30.888,
            -6.666 8.766 34.391,
            -3.341 10.157 33.419,
            -6.666 6.364 36.674,
            -7.549 5.395 37.345,
            -5.679 5.395 37.674,
            -3.341 7.817 35.798,
            -3.794 5.395 37.911,
            -1.899 5.395 38.053,
            -30.947 6.229 -20.988,
            -30.935 5.395 -22.241,
            -32.005 5.395 -20.671,
            -33.484 6.248 -16.607,
            -33.904 5.395 -17.382,
            -34.728 5.395 -15.670,
            -32.996 5.395 -19.050,
            -25.463 6.001 -27.652,
            -25.915 5.395 -27.929,
            -27.275 5.395 -26.603,
            -24.490 5.395 -29.186,
            -35.868 5.579 -12.388,
            -35.466 5.395 -13.919,
            -36.116 5.395 -12.134,
            -28.269 7.143 -23.214,
            -29.788 5.395 -23.755,
            -28.567 5.395 -25.210,
            -30.947 7.572 -18.750,
            -22.540 6.242 -29.821,
            -23.005 5.395 -30.371,
            -21.462 5.395 -31.480,
            -33.484 7.295 -14.378,
            -25.463 7.794 -25.414,
            -35.868 6.343 -10.213,
            -36.676 5.395 -10.319,
            -37.145 5.395 -8.478,
            -28.269 8.634 -20.910,
            -19.514 6.229 -31.896,
            -19.867 5.395 -32.510,
            -18.221 5.395 -33.460,
            -30.947 8.761 -16.427,
            -22.540 8.181 -27.562,
            -33.484 8.190 -12.083,
            -25.463 9.432 -23.061,
            -16.400 5.969 -33.853,
            -16.531 5.395 -34.327,
            -14.799 5.395 -35.108,
            -35.868 6.958 -7.992,
            -37.521 5.395 -6.616,
            -28.269 9.967 -18.510,
            -19.514 8.309 -29.634,
            -30.947 9.790 -14.029,
            -22.540 9.964 -25.178,
            -13.210 5.472 -35.669,
            -13.031 5.395 -35.802,
            -33.484 8.927 -9.734,
            -25.463 10.908 -20.602,
            -16.400 8.181 -31.604,
            -35.868 7.422 -5.735,
            -37.804 5.395 -4.737,
            -28.269 11.134 -16.025,
            -19.514 10.231 -27.236,
            -30.947 10.655 -11.566,
            -22.540 11.581 -22.678,
            -13.210 7.808 -33.448,
            -33.484 9.504 -7.339,
            -25.463 12.214 -18.049,
            -16.400 10.237 -29.210,
            -35.868 7.733 -3.452,
            -37.993 5.395 -2.847,
            -28.269 12.131 -13.468,
            -19.514 11.986 -24.714,
            -9.961 7.198 -35.146,
            -11.230 5.395 -36.407,
            -9.401 5.395 -36.922,
            -30.947 11.352 -9.051,
            -22.540 13.026 -20.075,
            -13.210 9.988 -31.076,
            -33.484 9.918 -4.912,
            -25.463 13.345 -15.414,
            -16.400 12.126 -26.683,
            -6.666 6.364 -36.674,
            -7.549 5.395 -37.345,
            -5.679 5.395 -37.674,
            -35.868 7.888 -1.152,
            -38.088 5.395 -0.950,
            -38.088 5.395 0.950,
            -28.269 12.952 -10.849,
            -19.514 13.568 -22.079,
            -9.961 9.494 -32.810,
            -30.947 11.877 -6.495,
            -22.540 14.292 -17.381,
            -13.210 12.004 -28.561,
            -33.484 10.167 -2.461,
            -25.463 14.296 -12.709,
            -16.400 13.840 -24.034,
            -6.666 8.766 -34.391,
            -35.868 7.888 1.152,
            -37.993 5.395 2.847,
            -28.269 13.596 -8.180,
            -19.514 14.968 -19.343,
            -9.961 11.628 -30.325,
            -30.947 12.229 -3.909,
            -22.540 15.373 -14.607,
            -13.210 13.845 -25.916,
            -3.341 7.817 -35.798,
            -3.794 5.395 -37.911,
            -33.484 10.250 -0.000,
            -25.463 15.061 -9.945,
            -16.400 15.371 -21.275,
            -6.666 11.008 -31.951,
            -35.868 7.733 3.452,
            -37.804 5.395 4.737,
            -28.269 14.057 -5.474,
            -19.514 16.180 -16.519,
            -9.961 13.589 -27.701,
            -30.947 12.405 -1.305,
            -22.540 16.264 -11.766,
            -13.210 15.503 -23.153,
            -3.341 10.157 -33.419,
            -33.484 10.167 2.461,
            -25.463 15.638 -7.136,
            -16.400 16.712 -18.420,
            -6.666 13.081 -29.366,
            -35.868 7.422 5.735,
            -37.521 5.395 6.616,
            -28.269 14.335 -2.743,
            -19.514 17.198 -13.619,
            -9.961 15.368 -24.951,
            -30.947 12.405 1.305,
            -22.540 16.962 -8.872,
            -13.210 16.971 -20.284,
            -3.341 12.330 -30.888,
            -33.484 9.918 4.912,
            -25.463 16.025 -4.295,
            -16.400 17.858 -15.480,
            -6.666 14.974 -26.646,
            -35.868 6.958 7.992,
            -37.145 5.395 8.478,
            -28.269 14.427 -0.000,
            -19.514 18.019 -10.658,
            -9.961 16.958 -22.087,
            -30.947 12.229 3.909,
            -22.540 17.462 -5.937,
            -13.210 18.242 -17.323,
            -3.341 14.327 -28.215,
            -33.484 9.504 7.339,
            -25.463 16.218 -1.434,
            -16.400 18.803 -12.470,
            -6.666 16.679 -23.805,
            -35.868 6.343 10.213,
            -36.676 5.395 10.319,
            -36.116 5.395 12.134,
            -28.269 14.335 2.743,
            -19.514 18.637 -7.648,
            -9.961 18.351 -19.123,
            -30.947 11.877 6.495,
            -22.540 17.764 -2.975,
            -13.210 19.310 -14.282,
            -3.341 16.140 -25.414,
            -33.484 8.927 9.734,
            -25.463 16.218 1.434,
            -16.400 19.542 -9.402,
            -6.666 18.188 -20.856,
            -28.269 14.057 5.474,
            -19.514 19.051 -4.603,
            -9.961 19.540 -16.071,
            -30.947 11.352 9.051,
            -22.540 17.864 -0.000,
            -13.210 20.171 -11.176,
            -3.341 17.759 -22.497,
            -33.484 8.190 12.083,
            -25.463 16.025 4.295,
            -16.400 20.072 -6.292,
            -6.666 19.495 -17.811,
            -28.269 13.596 8.180,
            -19.514 19.259 -1.537,
            -9.961 20.521 -12.946,
            -30.947 10.655 11.566,
            -22.540 17.764 2.975,
            -13.210 20.819 -8.020,
            -3.341 19.178 -19.478,
            -33.484 7.295 14.378,
            -35.466 5.395 13.919,
            -34.728 5.395 15.670,
            -25.463 15.638 7.136,
            -16.400 20.392 -3.153,
            -6.666 20.593 -14.685,
            -28.269 12.952 10.849,
            -19.514 19.259 1.537,
            -9.961 21.288 -9.761,
            -30.947 9.790 14.029,
            -22.540 17.462 5.937,
            -13.210 21.254 -4.827,
            -3.341 20.389 -16.369,
            -33.484 6.248 16.607,
            -33.904 5.395 17.382,
            -32.996 5.395 19.050,
            -25.463 15.061 9.945,
            -16.400 20.498 -0.000,
            -6.666 21.478 -11.491,
            -28.269 12.131 13.468,
            -19.514 19.051 4.603,
            -9.961 21.839 -6.532,
            -30.947 8.761 16.427,
            -22.540 16.962 8.872,
            -13.210 21.471 -1.611,
            -3.341 21.388 -13.186,
            -25.463 14.296 12.709,
            -16.400 20.392 3.153,
            -6.666 22.145 -8.246,
            -28.269 11.134 16.025,
            -19.514 18.637 7.648,
            -9.961 22.170 -3.274,
            -30.947 7.572 18.750,
            -32.005 5.395 20.671,
            -22.540 16.264 11.766,
            -13.210 21.471 1.611,
            -3.341 22.170 -9.942,
            -25.463 13.345 15.414,
            -16.400 20.072 6.292,
            -6.666 22.591 -4.963,
            -28.269 9.967 18.510,
            -19.514 18.019 10.658,
            -9.961 22.281 -0.000,
            -30.947 6.229 20.988,
            -30.935 5.395 22.241,
            -22.540 15.373 14.607,
            -13.210 21.254 4.827,
            -3.341 22.731 -6.654,
            -25.463 12.214 18.049,
            -16.400 19.542 9.402,
            -6.666 22.815 -1.657,
            -28.269 8.634 20.910,
            -19.514 17.198 13.619,
            -9.961 22.170 3.274,
            -22.540 14.292 17.381,
            -13.210 20.819 8.020,
            -3.341 23.068 -3.334,
            -25.463 10.908 20.602,
            -16.400 18.803 12.470,
            -6.666 22.815 1.657,
            -28.269 7.143 23.214,
            -29.788 5.395 23.755,
            -28.567 5.395 25.210,
            -19.514 16.180 16.519,
            -9.961 21.839 6.532,
            -22.540 13.026 20.075,
            -13.210 20.171 11.176,
            -3.341 23.181 -0.000,
            -25.463 9.432 23.061,
            -16.400 17.858 15.480,
            -6.666 22.591 4.963,
            -19.514 14.968 19.343,
            -9.961 21.288 9.761,
            -22.540 11.581 22.678,
            -13.210 19.310 14.282,
            -3.341 23.068 3.334,
            -25.463 7.794 25.414,
            -27.275 5.395 26.603,
            -25.463 6.001 27.652,
            -25.915 5.395 27.929,
            -1.899 0.250 38.053,
            -3.794 0.250 37.911,
            -5.679 0.250 37.674,
            -7.549 0.250 37.345,
            -9.401 0.250 36.922,
            -11.230 0.250 36.407,
            -13.031 0.250 35.802,
            -14.799 0.250 35.108,
            -16.531 0.250 34.327,
            -18.221 0.250 33.460,
            -19.867 0.250 32.510,
            -21.462 0.250 31.480,
            -23.005 0.250 30.371,
            -24.490 0.250 29.186,
            -25.915 0.250 27.929,
            -27.275 0.250 26.603,
            -28.567 0.250 25.210,
            -29.788 0.250 23.755,
            -30.935 0.250 22.241,
            -32.005 0.250 20.671,
            -32.996 0.250 19.050,
            -33.904 0.250 17.382,
            -34.728 0.250 15.670,
            -35.466 0.250 13.919,
            -36.116 0.250 12.134,
            -36.676 0.250 10.319,
            -37.145 0.250 8.478,
            -37.521 0.250 6.616,
            -37.804 0.250 4.737,
            -37.993 0.250 2.847,
            -38.088 0.250 0.950,
            -38.088 0.250 -0.950,
            -37.993 0.250 -2.847,
            -37.804 0.250 -4.737,
            -37.521 0.250 -6.616,
            -37.145 0.250 -8.478,
            -36.676 0.250 -10.319,
            -36.116 0.250 -12.134,
            -35.466 0.250 -13.919,
            -34.728 0.250 -15.670,
            -33.904 0.250 -17.382,
            -32.996 0.250 -19.050,
            -32.005 0.250 -20.671,
            -30.935 0.250 -22.241,
            -29.788 0.250 -23.755,
            -28.567 0.250 -25.210,
            -27.275 0.250 -26.603,
            -25.915 0.250 -27.929,
            -24.490 0.250 -29.186,
            -23.005 0.250 -30.371,
            -21.462 0.250 -31.480,
            -19.867 0.250 -32.510,
            -18.221 0.250 -33.460,
            -16.531 0.250 -34.327,
            -14.799 0.250 -35.108,
            -13.031 0.250 -35.802,
            -11.230 0.250 -36.407,
            -9.401 0.250 -36.922,
            -7.549 0.250 -37.345,
            -5.679 0.250 -37.674,
            -3.794 0.250 -37.911,
            -1.899 0.250 -38.053,
            -30.732 0.000 22.095,
            -24.330 0.000 28.995,
            -25.745 0.000 27.746,
            -27.096 0.000 26.428,
            -28.379 0.000 25.045,
            -29.592 0.000 23.599,
            -32.779 0.000 18.925,
            -31.795 0.000 20.535,
            -16.422 0.000 34.102,
            -18.102 0.000 33.241,
            -19.736 0.000 32.297,
            -21.322 0.000 31.273,
            -34.500 0.000 15.567,
            -33.682 0.000 17.268,
            -14.702 0.000 34.878,
            -35.234 0.000 13.828,
            -35.879 0.000 12.055,
            -22.854 0.000 30.171,
            -11.156 0.000 36.168,
            -12.945 0.000 35.567,
            -36.901 0.000 8.422,
            -36.435 0.000 10.251,
            -7.500 0.000 37.100,
            -9.340 0.000 36.680,
            -37.556 0.000 4.706,
            -37.275 0.000 6.573,
            -3.769 0.000 37.662,
            -5.641 0.000 37.427,
            -37.838 0.000 -0.944,
            -37.744 0.000 2.829,
            -37.838 0.000 0.944,
            -1.887 0.000 37.803,
            -37.556 0.000 -4.706,
            -37.744 0.000 -2.829,
            -36.435 0.000 -10.251,
            -37.275 0.000 -6.573,
            -36.901 0.000 -8.422,
            -33.682 0.000 -17.268,
            -35.879 0.000 -12.055,
            -35.234 0.000 -13.828,
            -34.500 0.000 -15.567,
            -32.779 0.000 -18.925,
            -31.795 0.000 -20.535,
            -30.732 0.000 -22.095,
            -28.379 0.000 -25.045,
            -29.592 0.000 -23.599,
            -22.854 0.000 -30.171,
            -27.096 0.000 -26.428,
            -25.745 0.000 -27.746,
            -24.330 0.000 -28.995,
            -19.736 0.000 -32.297,
            -21.322 0.000 -31.273,
            -18.102 0.000 -33.241,
            -14.702 0.000 -34.878,
            -16.422 0.000 -34.102,
            -11.156 0.000 -36.168,
            -12.945 0.000 -35.567,
            -7.500 0.000 -37.100,
            -9.340 0.000 -36.680,
            -3.769 0.000 -37.662,
            -5.641 0.000 -37.427,
            -1.887 0.000 -37.803
          ]
        }
        coordIndex [
          0, 1, 2, -1,
          3, 1, 0, -1,
          4, 3, 0, -1,
          5, 3, 4, -1,
          6, 5, 4, -1,
          7, 5, 6, -1,
          8, 7, 6, -1,
          9, 7, 8, -1,
          10, 9, 8, -1,
          11, 9, 10, -1,
          12, 11, 10, -1,
          13, 11, 12, -1,
          14, 13, 12, -1,
          15, 13, 14, -1,
          16, 15, 14, -1,
          17, 15, 16, -1,
          18, 17, 16, -1,
          19, 17, 18, -1,
          20, 19, 18, -1,
          21, 19, 20, -1,
          22, 21, 20, -1,
          23, 21, 22, -1,
          24, 23, 22, -1,
          25, 23, 24, -1,
          26, 25, 24, -1,
          27, 25, 26, -1,
          28, 27, 26, -1,
          29, 27, 28, -1,
          30, 29, 28, -1,
          31, 29, 30, -1,
          32, 31, 30, -1,
          33, 31, 32, -1,
          34, 33, 32, -1,
          35, 33, 34, -1,
          36, 35, 34, -1,
          37, 35, 36, -1,
          38, 37, 36, -1,
          39, 37, 38, -1,
          40, 39, 38, -1,
          41, 39, 40, -1,
          42, 41, 40, -1,
          43, 41, 42, -1,
          44, 43, 42, -1,
          45, 43, 44, -1,
          46, 45, 44, -1,
          47, 45, 46, -1,
          48, 47, 46, -1,
          49, 47, 48, -1,
          50, 49, 48, -1,
          51, 49, 50, -1,
          52, 51, 50, -1,
          53, 51, 52, -1,
          54, 53, 52, -1,
          55, 53, 54, -1,
          56, 54, 57, -1,
          56, 55, 54, -1,
          58, 56, 57, -1,
          59, 56, 58, -1,
          60, 59, 58, -1,
          61, 59, 60, -1,
          62, 61, 60, -1,
          63, 61, 62, -1,
          64, 63, 62, -1,
          65, 63, 64, -1,
          66, 65, 64, -1,
          67, 65, 66, -1,
          68, 67, 66, -1,
          69, 67, 68, -1,
          70, 69, 68, -1,
          71, 69, 70, -1,
          72, 70, 73, -1,
          72, 71, 70, -1,
          74, 72, 73, -1,
          75, 72, 74, -1,
          76, 75, 74, -1,
          77, 75, 76, -1,
          78, 77, 76, -1,
          79, 77, 78, -1,
          80, 79, 78, -1,
          81, 79, 80, -1,
          82, 81, 80, -1,
          83, 81, 82, -1,
          84, 83, 82, -1,
          85, 83, 84, -1,
          86, 85, 84, -1,
          87, 85, 86, -1,
          88, 87, 86, -1,
          89, 87, 88, -1,
          90, 89, 88, -1,
          91, 89, 90, -1,
          92, 91, 90, -1,
          93, 91, 92, -1,
          94, 93, 92, -1,
          95, 93, 94, -1,
          96, 94, 97, -1,
          96, 95, 94, -1,
          98, 97, 99, -1,
          98, 96, 97, -1,
          100, 99, 101, -1,
          100, 98, 99, -1,
          102, 100, 101, -1,
          103, 100, 102, -1,
          104, 103, 102, -1,
          105, 103, 104, -1,
          106, 105, 104, -1,
          107, 105, 106, -1,
          108, 106, 109, -1,
          108, 107, 106, -1,
          110, 108, 109, -1,
          111, 108, 110, -1,
          112, 110, 113, -1,
          112, 111, 110, -1,
          114, 112, 113, -1,
          115, 112, 114, -1,
          116, 115, 114, -1,
          117, 115, 116, -1,
          118, 117, 116, -1,
          119, 117, 118, -1,
          120, 119, 118, -1,
          121, 119, 120, -1,
          122, 120, 123, -1,
          122, 121, 120, -1,
          124, 122, 123, -1,
          125, 122, 124, -1,
          126, 125, 124, -1,
          127, 125, 126, -1,
          125, 128, 129, -1,
          125, 127, 128, -1,
          122, 129, 130, -1,
          122, 125, 129, -1,
          121, 130, 131, -1,
          121, 122, 130, -1,
          119, 131, 132, -1,
          119, 121, 131, -1,
          117, 132, 133, -1,
          117, 119, 132, -1,
          115, 133, 134, -1,
          115, 117, 133, -1,
          112, 134, 135, -1,
          112, 115, 134, -1,
          111, 135, 136, -1,
          111, 112, 135, -1,
          108, 136, 137, -1,
          108, 111, 136, -1,
          107, 137, 138, -1,
          107, 108, 137, -1,
          105, 138, 139, -1,
          105, 107, 138, -1,
          103, 139, 140, -1,
          103, 105, 139, -1,
          100, 140, 141, -1,
          100, 103, 140, -1,
          98, 141, 142, -1,
          98, 100, 141, -1,
          96, 142, 143, -1,
          96, 98, 142, -1,
          95, 143, 144, -1,
          95, 96, 143, -1,
          93, 144, 145, -1,
          93, 95, 144, -1,
          91, 145, 146, -1,
          91, 93, 145, -1,
          89, 91, 146, -1,
          89, 146, 147, -1,
          87, 89, 147, -1,
          87, 147, 148, -1,
          85, 87, 148, -1,
          85, 148, 149, -1,
          83, 85, 149, -1,
          83, 149, 150, -1,
          81, 150, 151, -1,
          81, 83, 150, -1,
          79, 151, 152, -1,
          79, 81, 151, -1,
          77, 152, 153, -1,
          77, 79, 152, -1,
          75, 153, 154, -1,
          75, 77, 153, -1,
          72, 154, 155, -1,
          72, 75, 154, -1,
          71, 155, 156, -1,
          71, 72, 155, -1,
          69, 156, 157, -1,
          69, 71, 156, -1,
          67, 157, 158, -1,
          67, 69, 157, -1,
          65, 158, 159, -1,
          65, 67, 158, -1,
          63, 159, 160, -1,
          63, 65, 159, -1,
          61, 160, 161, -1,
          61, 63, 160, -1,
          59, 161, 162, -1,
          59, 61, 161, -1,
          56, 162, 163, -1,
          56, 59, 162, -1,
          55, 163, 164, -1,
          55, 56, 163, -1,
          53, 164, 165, -1,
          53, 55, 164, -1,
          51, 165, 166, -1,
          51, 53, 165, -1,
          49, 166, 167, -1,
          49, 51, 166, -1,
          47, 167, 168, -1,
          47, 49, 167, -1,
          45, 168, 169, -1,
          45, 47, 168, -1,
          43, 169, 170, -1,
          43, 45, 169, -1,
          41, 43, 170, -1,
          41, 170, 171, -1,
          39, 41, 171, -1,
          39, 171, 172, -1,
          37, 39, 172, -1,
          37, 172, 173, -1,
          35, 37, 173, -1,
          35, 173, 174, -1,
          33, 35, 174, -1,
          33, 174, 175, -1,
          31, 33, 175, -1,
          31, 175, 176, -1,
          29, 31, 176, -1,
          29, 176, 177, -1,
          27, 29, 177, -1,
          27, 177, 178, -1,
          25, 27, 178, -1,
          25, 178, 179, -1,
          23, 25, 179, -1,
          23, 179, 180, -1,
          23, 180, 181, -1,
          21, 23, 181, -1,
          19, 21, 181, -1,
          19, 181, 182, -1,
          19, 182, 183, -1,
          17, 19, 183, -1,
          15, 183, 184, -1,
          15, 17, 183, -1,
          13, 184, 185, -1,
          13, 15, 184, -1,
          11, 185, 186, -1,
          11, 13, 185, -1,
          9, 186, 187, -1,
          9, 11, 186, -1,
          7, 187, 188, -1,
          7, 9, 187, -1,
          5, 188, 189, -1,
          5, 7, 188, -1,
          3, 189, 190, -1,
          3, 5, 189, -1,
          1, 190, 191, -1,
          1, 3, 190, -1,
          192, 193, 194, -1,
          192, 194, 195, -1,
          196, 160, 197, -1,
          196, 198, 199, -1,
          196, 161, 160, -1,
          196, 197, 198, -1,
          200, 201, 202, -1,
          200, 202, 203, -1,
          204, 195, 205, -1,
          204, 205, 206, -1,
          207, 129, 128, -1,
          208, 199, 209, -1,
          208, 209, 210, -1,
          211, 203, 212, -1,
          211, 212, 213, -1,
          214, 215, 216, -1,
          214, 206, 215, -1,
          217, 193, 192, -1,
          217, 210, 193, -1,
          218, 213, 219, -1,
          218, 185, 213, -1,
          218, 219, 186, -1,
          218, 186, 185, -1,
          220, 201, 200, -1,
          220, 216, 201, -1,
          221, 195, 204, -1,
          221, 192, 195, -1,
          222, 196, 199, -1,
          222, 161, 196, -1,
          222, 199, 208, -1,
          222, 162, 161, -1,
          223, 203, 211, -1,
          223, 200, 203, -1,
          224, 204, 206, -1,
          224, 206, 214, -1,
          225, 210, 217, -1,
          225, 208, 210, -1,
          226, 213, 185, -1,
          226, 211, 213, -1,
          226, 184, 183, -1,
          226, 185, 184, -1,
          227, 216, 220, -1,
          227, 214, 216, -1,
          228, 217, 192, -1,
          228, 192, 221, -1,
          229, 220, 200, -1,
          229, 200, 223, -1,
          230, 221, 204, -1,
          230, 204, 224, -1,
          231, 208, 225, -1,
          231, 222, 208, -1,
          231, 162, 222, -1,
          231, 163, 162, -1,
          231, 164, 163, -1,
          232, 223, 211, -1,
          232, 211, 226, -1,
          232, 226, 183, -1,
          232, 182, 181, -1,
          232, 183, 182, -1,
          233, 224, 214, -1,
          233, 214, 227, -1,
          234, 217, 228, -1,
          234, 225, 217, -1,
          235, 227, 220, -1,
          235, 220, 229, -1,
          236, 221, 230, -1,
          236, 228, 221, -1,
          237, 223, 232, -1,
          237, 229, 223, -1,
          237, 180, 179, -1,
          237, 181, 180, -1,
          237, 232, 181, -1,
          238, 224, 233, -1,
          238, 230, 224, -1,
          239, 225, 234, -1,
          239, 231, 225, -1,
          239, 165, 164, -1,
          239, 164, 231, -1,
          240, 233, 227, -1,
          240, 227, 235, -1,
          241, 234, 228, -1,
          241, 167, 166, -1,
          241, 228, 236, -1,
          242, 229, 237, -1,
          242, 235, 229, -1,
          242, 178, 177, -1,
          242, 179, 178, -1,
          242, 237, 179, -1,
          243, 230, 238, -1,
          243, 236, 230, -1,
          244, 233, 240, -1,
          244, 238, 233, -1,
          245, 165, 239, -1,
          245, 234, 241, -1,
          245, 166, 165, -1,
          245, 239, 234, -1,
          245, 241, 166, -1,
          246, 235, 242, -1,
          246, 242, 177, -1,
          246, 176, 175, -1,
          246, 177, 176, -1,
          246, 240, 235, -1,
          247, 241, 236, -1,
          247, 167, 241, -1,
          247, 236, 243, -1,
          247, 168, 167, -1,
          247, 169, 168, -1,
          248, 243, 238, -1,
          248, 238, 244, -1,
          248, 171, 170, -1,
          249, 244, 240, -1,
          249, 240, 246, -1,
          249, 173, 244, -1,
          249, 246, 175, -1,
          249, 174, 173, -1,
          249, 175, 174, -1,
          250, 243, 248, -1,
          250, 247, 243, -1,
          250, 169, 247, -1,
          250, 248, 170, -1,
          250, 170, 169, -1,
          251, 248, 244, -1,
          251, 244, 173, -1,
          251, 171, 248, -1,
          251, 172, 171, -1,
          251, 173, 172, -1,
          190, 252, 191, -1,
          253, 129, 207, -1,
          253, 130, 129, -1,
          253, 131, 130, -1,
          254, 255, 256, -1,
          254, 207, 255, -1,
          254, 253, 207, -1,
          257, 253, 254, -1,
          257, 131, 253, -1,
          257, 132, 131, -1,
          257, 133, 132, -1,
          258, 256, 259, -1,
          258, 254, 256, -1,
          260, 133, 257, -1,
          260, 134, 133, -1,
          261, 254, 258, -1,
          261, 257, 254, -1,
          262, 258, 259, -1,
          262, 263, 264, -1,
          262, 259, 263, -1,
          265, 257, 261, -1,
          265, 260, 257, -1,
          265, 134, 260, -1,
          266, 258, 262, -1,
          266, 261, 258, -1,
          267, 264, 268, -1,
          267, 262, 264, -1,
          269, 135, 134, -1,
          269, 136, 135, -1,
          269, 134, 265, -1,
          270, 261, 266, -1,
          270, 265, 261, -1,
          271, 262, 267, -1,
          271, 266, 262, -1,
          272, 268, 273, -1,
          272, 267, 268, -1,
          274, 269, 265, -1,
          274, 265, 270, -1,
          275, 266, 271, -1,
          275, 270, 266, -1,
          276, 271, 267, -1,
          276, 267, 272, -1,
          277, 136, 269, -1,
          277, 137, 136, -1,
          277, 138, 137, -1,
          277, 269, 274, -1,
          278, 272, 273, -1,
          278, 279, 280, -1,
          278, 273, 279, -1,
          281, 274, 270, -1,
          281, 270, 275, -1,
          282, 271, 276, -1,
          282, 275, 271, -1,
          283, 276, 272, -1,
          283, 272, 278, -1,
          284, 277, 274, -1,
          284, 274, 281, -1,
          285, 280, 286, -1,
          285, 278, 280, -1,
          287, 275, 282, -1,
          287, 281, 275, -1,
          288, 276, 283, -1,
          288, 282, 276, -1,
          289, 139, 138, -1,
          289, 140, 139, -1,
          289, 138, 277, -1,
          289, 277, 284, -1,
          290, 283, 278, -1,
          290, 278, 285, -1,
          291, 281, 287, -1,
          291, 284, 281, -1,
          292, 286, 293, -1,
          292, 285, 286, -1,
          294, 282, 288, -1,
          294, 287, 282, -1,
          295, 288, 283, -1,
          295, 283, 290, -1,
          296, 284, 291, -1,
          296, 289, 284, -1,
          297, 290, 285, -1,
          297, 285, 292, -1,
          298, 291, 287, -1,
          298, 287, 294, -1,
          299, 300, 301, -1,
          299, 293, 300, -1,
          299, 292, 293, -1,
          302, 294, 288, -1,
          302, 288, 295, -1,
          303, 140, 289, -1,
          303, 141, 140, -1,
          303, 142, 141, -1,
          303, 289, 296, -1,
          304, 295, 290, -1,
          304, 290, 297, -1,
          305, 291, 298, -1,
          305, 296, 291, -1,
          306, 297, 292, -1,
          306, 292, 299, -1,
          307, 294, 302, -1,
          307, 298, 294, -1,
          308, 301, 309, -1,
          308, 299, 301, -1,
          310, 295, 304, -1,
          310, 302, 295, -1,
          311, 303, 296, -1,
          311, 296, 305, -1,
          312, 297, 306, -1,
          312, 304, 297, -1,
          313, 298, 307, -1,
          313, 305, 298, -1,
          314, 299, 308, -1,
          314, 306, 299, -1,
          315, 307, 302, -1,
          315, 302, 310, -1,
          316, 142, 303, -1,
          316, 303, 311, -1,
          316, 143, 142, -1,
          316, 144, 143, -1,
          317, 318, 319, -1,
          317, 309, 318, -1,
          317, 308, 309, -1,
          320, 310, 304, -1,
          320, 304, 312, -1,
          321, 305, 313, -1,
          321, 311, 305, -1,
          322, 312, 306, -1,
          322, 306, 314, -1,
          323, 307, 315, -1,
          323, 313, 307, -1,
          324, 314, 308, -1,
          324, 308, 317, -1,
          325, 310, 320, -1,
          325, 315, 310, -1,
          326, 311, 321, -1,
          326, 316, 311, -1,
          327, 319, 328, -1,
          327, 317, 319, -1,
          329, 312, 322, -1,
          329, 320, 312, -1,
          330, 313, 323, -1,
          330, 321, 313, -1,
          331, 322, 314, -1,
          331, 314, 324, -1,
          332, 323, 315, -1,
          332, 315, 325, -1,
          333, 316, 326, -1,
          333, 144, 316, -1,
          333, 145, 144, -1,
          333, 146, 145, -1,
          334, 324, 317, -1,
          334, 317, 327, -1,
          335, 325, 320, -1,
          335, 320, 329, -1,
          336, 326, 321, -1,
          336, 321, 330, -1,
          337, 328, 338, -1,
          337, 327, 328, -1,
          339, 329, 322, -1,
          339, 322, 331, -1,
          340, 323, 332, -1,
          340, 330, 323, -1,
          341, 324, 334, -1,
          341, 331, 324, -1,
          342, 332, 325, -1,
          342, 325, 335, -1,
          343, 333, 326, -1,
          343, 147, 146, -1,
          343, 326, 336, -1,
          343, 146, 333, -1,
          344, 327, 337, -1,
          344, 334, 327, -1,
          345, 335, 329, -1,
          345, 329, 339, -1,
          346, 330, 340, -1,
          346, 336, 330, -1,
          347, 338, 348, -1,
          347, 348, 349, -1,
          347, 337, 338, -1,
          350, 339, 331, -1,
          350, 331, 341, -1,
          351, 332, 342, -1,
          351, 340, 332, -1,
          352, 334, 344, -1,
          352, 341, 334, -1,
          353, 335, 345, -1,
          353, 342, 335, -1,
          354, 336, 346, -1,
          354, 343, 336, -1,
          355, 337, 347, -1,
          355, 344, 337, -1,
          356, 345, 339, -1,
          356, 339, 350, -1,
          357, 346, 340, -1,
          357, 340, 351, -1,
          358, 347, 349, -1,
          358, 349, 359, -1,
          360, 350, 341, -1,
          360, 341, 352, -1,
          361, 351, 342, -1,
          361, 342, 353, -1,
          362, 343, 354, -1,
          362, 148, 147, -1,
          362, 149, 148, -1,
          362, 147, 343, -1,
          363, 352, 344, -1,
          363, 344, 355, -1,
          364, 353, 345, -1,
          364, 345, 356, -1,
          365, 354, 346, -1,
          365, 346, 357, -1,
          366, 347, 358, -1,
          366, 355, 347, -1,
          367, 350, 360, -1,
          367, 356, 350, -1,
          368, 357, 351, -1,
          368, 351, 361, -1,
          369, 359, 370, -1,
          369, 358, 359, -1,
          369, 370, 371, -1,
          372, 360, 352, -1,
          372, 352, 363, -1,
          373, 353, 364, -1,
          373, 361, 353, -1,
          374, 362, 354, -1,
          374, 354, 365, -1,
          375, 355, 366, -1,
          375, 363, 355, -1,
          376, 364, 356, -1,
          376, 356, 367, -1,
          377, 365, 357, -1,
          377, 357, 368, -1,
          378, 358, 369, -1,
          378, 366, 358, -1,
          379, 367, 360, -1,
          379, 360, 372, -1,
          380, 361, 373, -1,
          380, 368, 361, -1,
          381, 362, 374, -1,
          381, 149, 362, -1,
          381, 150, 149, -1,
          382, 371, 383, -1,
          382, 369, 371, -1,
          384, 372, 363, -1,
          384, 363, 375, -1,
          385, 364, 376, -1,
          385, 373, 364, -1,
          386, 374, 365, -1,
          386, 365, 377, -1,
          387, 366, 378, -1,
          387, 375, 366, -1,
          388, 367, 379, -1,
          388, 376, 367, -1,
          389, 368, 380, -1,
          389, 377, 368, -1,
          390, 369, 382, -1,
          390, 378, 369, -1,
          391, 372, 384, -1,
          391, 379, 372, -1,
          392, 373, 385, -1,
          392, 380, 373, -1,
          393, 150, 381, -1,
          393, 374, 386, -1,
          393, 381, 374, -1,
          393, 151, 150, -1,
          393, 152, 151, -1,
          394, 383, 395, -1,
          394, 382, 383, -1,
          396, 375, 387, -1,
          396, 384, 375, -1,
          397, 376, 388, -1,
          397, 385, 376, -1,
          398, 377, 389, -1,
          398, 386, 377, -1,
          399, 387, 378, -1,
          399, 378, 390, -1,
          400, 388, 379, -1,
          400, 379, 391, -1,
          401, 380, 392, -1,
          401, 389, 380, -1,
          402, 390, 382, -1,
          402, 382, 394, -1,
          403, 384, 396, -1,
          403, 391, 384, -1,
          404, 385, 397, -1,
          404, 392, 385, -1,
          405, 152, 393, -1,
          405, 386, 398, -1,
          405, 153, 152, -1,
          405, 393, 386, -1,
          406, 394, 395, -1,
          406, 395, 407, -1,
          406, 407, 408, -1,
          409, 396, 387, -1,
          409, 387, 399, -1,
          410, 397, 388, -1,
          410, 388, 400, -1,
          411, 389, 401, -1,
          411, 398, 389, -1,
          412, 399, 390, -1,
          412, 390, 402, -1,
          413, 400, 391, -1,
          413, 391, 403, -1,
          414, 401, 392, -1,
          414, 392, 404, -1,
          415, 394, 406, -1,
          415, 402, 394, -1,
          416, 396, 409, -1,
          416, 403, 396, -1,
          417, 404, 397, -1,
          417, 397, 410, -1,
          418, 405, 398, -1,
          418, 398, 411, -1,
          419, 408, 420, -1,
          419, 406, 408, -1,
          421, 409, 399, -1,
          421, 399, 412, -1,
          422, 410, 400, -1,
          422, 400, 413, -1,
          423, 411, 401, -1,
          423, 401, 414, -1,
          424, 412, 402, -1,
          424, 402, 415, -1,
          425, 403, 416, -1,
          425, 413, 403, -1,
          426, 414, 404, -1,
          426, 404, 417, -1,
          427, 154, 153, -1,
          427, 153, 405, -1,
          427, 405, 418, -1,
          428, 406, 419, -1,
          428, 415, 406, -1,
          429, 416, 409, -1,
          429, 409, 421, -1,
          430, 410, 422, -1,
          430, 417, 410, -1,
          431, 411, 423, -1,
          431, 418, 411, -1,
          432, 420, 433, -1,
          432, 419, 420, -1,
          434, 421, 412, -1,
          434, 412, 424, -1,
          435, 413, 425, -1,
          435, 422, 413, -1,
          436, 423, 414, -1,
          436, 414, 426, -1,
          437, 415, 428, -1,
          437, 424, 415, -1,
          438, 416, 429, -1,
          438, 425, 416, -1,
          439, 417, 430, -1,
          439, 426, 417, -1,
          440, 154, 427, -1,
          440, 427, 418, -1,
          440, 155, 154, -1,
          440, 418, 431, -1,
          441, 419, 432, -1,
          441, 428, 419, -1,
          442, 421, 434, -1,
          442, 429, 421, -1,
          443, 430, 422, -1,
          443, 422, 435, -1,
          444, 423, 436, -1,
          444, 431, 423, -1,
          445, 433, 446, -1,
          445, 446, 447, -1,
          445, 432, 433, -1,
          448, 424, 437, -1,
          448, 434, 424, -1,
          449, 425, 438, -1,
          449, 435, 425, -1,
          450, 426, 439, -1,
          450, 436, 426, -1,
          451, 437, 428, -1,
          451, 428, 441, -1,
          452, 429, 442, -1,
          452, 438, 429, -1,
          453, 439, 430, -1,
          453, 430, 443, -1,
          454, 431, 444, -1,
          454, 156, 155, -1,
          454, 440, 431, -1,
          454, 157, 156, -1,
          454, 155, 440, -1,
          455, 432, 445, -1,
          455, 441, 432, -1,
          456, 442, 434, -1,
          456, 434, 448, -1,
          457, 443, 435, -1,
          457, 435, 449, -1,
          458, 436, 450, -1,
          458, 444, 436, -1,
          459, 447, 460, -1,
          459, 445, 447, -1,
          461, 437, 451, -1,
          461, 448, 437, -1,
          462, 449, 438, -1,
          462, 438, 452, -1,
          463, 450, 439, -1,
          463, 439, 453, -1,
          464, 441, 455, -1,
          464, 451, 441, -1,
          465, 442, 456, -1,
          465, 452, 442, -1,
          466, 453, 443, -1,
          466, 443, 457, -1,
          467, 157, 454, -1,
          467, 454, 444, -1,
          467, 158, 157, -1,
          467, 444, 458, -1,
          468, 445, 459, -1,
          468, 455, 445, -1,
          469, 448, 461, -1,
          469, 456, 448, -1,
          470, 449, 462, -1,
          470, 457, 449, -1,
          471, 450, 463, -1,
          471, 458, 450, -1,
          472, 460, 473, -1,
          472, 473, 252, -1,
          472, 459, 460, -1,
          474, 451, 464, -1,
          474, 461, 451, -1,
          475, 462, 452, -1,
          475, 452, 465, -1,
          476, 463, 453, -1,
          476, 453, 466, -1,
          477, 464, 455, -1,
          477, 455, 468, -1,
          478, 456, 469, -1,
          478, 465, 456, -1,
          479, 466, 457, -1,
          479, 457, 470, -1,
          480, 458, 471, -1,
          480, 158, 467, -1,
          480, 467, 458, -1,
          480, 159, 158, -1,
          481, 468, 459, -1,
          481, 459, 472, -1,
          482, 469, 461, -1,
          482, 461, 474, -1,
          194, 462, 475, -1,
          194, 470, 462, -1,
          198, 463, 476, -1,
          198, 471, 463, -1,
          483, 252, 190, -1,
          483, 472, 252, -1,
          483, 189, 188, -1,
          483, 190, 189, -1,
          202, 464, 477, -1,
          202, 474, 464, -1,
          205, 465, 478, -1,
          205, 475, 465, -1,
          209, 476, 466, -1,
          209, 466, 479, -1,
          212, 477, 468, -1,
          212, 468, 481, -1,
          215, 469, 482, -1,
          215, 478, 469, -1,
          193, 470, 194, -1,
          193, 479, 470, -1,
          197, 480, 471, -1,
          197, 471, 198, -1,
          197, 160, 159, -1,
          197, 159, 480, -1,
          219, 481, 472, -1,
          219, 472, 483, -1,
          219, 483, 188, -1,
          219, 187, 186, -1,
          219, 188, 187, -1,
          201, 482, 474, -1,
          201, 474, 202, -1,
          195, 194, 475, -1,
          195, 475, 205, -1,
          199, 198, 476, -1,
          199, 476, 209, -1,
          203, 477, 212, -1,
          203, 202, 477, -1,
          206, 478, 215, -1,
          206, 205, 478, -1,
          210, 479, 193, -1,
          210, 209, 479, -1,
          213, 212, 481, -1,
          213, 481, 219, -1,
          216, 482, 201, -1,
          216, 215, 482, -1,
          484, 485, 486, -1,
          487, 359, 349, -1,
          487, 370, 359, -1,
          487, 488, 489, -1,
          487, 489, 490, -1,
          487, 349, 488, -1,
          491, 486, 492, -1,
          491, 492, 493, -1,
          494, 490, 495, -1,
          494, 495, 496, -1,
          497, 493, 498, -1,
          497, 498, 499, -1,
          500, 496, 501, -1,
          500, 501, 484, -1,
          502, 499, 503, -1,
          502, 504, 505, -1,
          502, 503, 504, -1,
          506, 484, 486, -1,
          506, 486, 491, -1,
          507, 371, 370, -1,
          507, 487, 490, -1,
          507, 490, 494, -1,
          507, 370, 487, -1,
          508, 493, 497, -1,
          508, 491, 493, -1,
          509, 494, 496, -1,
          509, 496, 500, -1,
          510, 502, 505, -1,
          510, 497, 499, -1,
          510, 499, 502, -1,
          511, 484, 506, -1,
          511, 500, 484, -1,
          512, 491, 508, -1,
          512, 506, 491, -1,
          513, 383, 371, -1,
          513, 395, 383, -1,
          513, 371, 507, -1,
          513, 507, 494, -1,
          513, 494, 509, -1,
          514, 497, 510, -1,
          514, 508, 497, -1,
          515, 509, 500, -1,
          515, 500, 511, -1,
          516, 517, 518, -1,
          516, 505, 517, -1,
          516, 510, 505, -1,
          519, 511, 506, -1,
          519, 506, 512, -1,
          520, 512, 508, -1,
          520, 508, 514, -1,
          521, 407, 395, -1,
          521, 395, 513, -1,
          521, 513, 509, -1,
          521, 509, 515, -1,
          522, 516, 518, -1,
          522, 514, 510, -1,
          522, 510, 516, -1,
          523, 515, 511, -1,
          523, 511, 519, -1,
          524, 519, 512, -1,
          524, 512, 520, -1,
          525, 514, 522, -1,
          525, 520, 514, -1,
          526, 515, 523, -1,
          526, 408, 407, -1,
          526, 407, 521, -1,
          526, 521, 515, -1,
          527, 528, 529, -1,
          527, 518, 528, -1,
          527, 522, 518, -1,
          530, 523, 519, -1,
          530, 519, 524, -1,
          531, 520, 525, -1,
          531, 524, 520, -1,
          532, 527, 529, -1,
          532, 522, 527, -1,
          532, 529, 533, -1,
          532, 525, 522, -1,
          534, 420, 408, -1,
          534, 433, 420, -1,
          534, 526, 523, -1,
          534, 523, 530, -1,
          534, 408, 526, -1,
          207, 128, 535, -1,
          536, 530, 524, -1,
          536, 524, 531, -1,
          537, 525, 532, -1,
          537, 531, 525, -1,
          538, 446, 433, -1,
          538, 530, 536, -1,
          538, 534, 530, -1,
          538, 433, 534, -1,
          539, 536, 531, -1,
          539, 531, 537, -1,
          540, 537, 532, -1,
          540, 532, 533, -1,
          540, 541, 542, -1,
          540, 533, 541, -1,
          543, 447, 446, -1,
          543, 460, 447, -1,
          543, 446, 538, -1,
          543, 538, 536, -1,
          543, 536, 539, -1,
          544, 537, 540, -1,
          544, 539, 537, -1,
          545, 473, 460, -1,
          545, 460, 543, -1,
          545, 543, 539, -1,
          545, 539, 544, -1,
          546, 547, 548, -1,
          546, 542, 547, -1,
          546, 544, 540, -1,
          546, 540, 542, -1,
          549, 252, 473, -1,
          549, 550, 551, -1,
          549, 548, 550, -1,
          549, 473, 545, -1,
          549, 546, 548, -1,
          549, 545, 544, -1,
          549, 544, 546, -1,
          549, 551, 252, -1,
          191, 252, 551, -1,
          552, 553, 554, -1,
          555, 556, 557, -1,
          555, 558, 556, -1,
          559, 560, 561, -1,
          559, 562, 560, -1,
          563, 564, 565, -1,
          566, 553, 552, -1,
          566, 567, 553, -1,
          566, 568, 567, -1,
          569, 552, 554, -1,
          569, 554, 558, -1,
          569, 558, 555, -1,
          570, 571, 562, -1,
          570, 572, 571, -1,
          573, 555, 557, -1,
          573, 564, 563, -1,
          573, 557, 564, -1,
          574, 559, 561, -1,
          574, 561, 568, -1,
          574, 568, 566, -1,
          575, 563, 565, -1,
          575, 576, 577, -1,
          575, 565, 576, -1,
          578, 566, 552, -1,
          578, 552, 569, -1,
          579, 580, 572, -1,
          579, 581, 580, -1,
          582, 555, 573, -1,
          582, 569, 555, -1,
          583, 559, 574, -1,
          583, 570, 562, -1,
          583, 562, 559, -1,
          584, 563, 575, -1,
          584, 573, 563, -1,
          585, 566, 578, -1,
          585, 574, 566, -1,
          586, 587, 581, -1,
          586, 588, 587, -1,
          589, 575, 577, -1,
          589, 577, 590, -1,
          591, 578, 569, -1,
          591, 569, 582, -1,
          592, 579, 572, -1,
          592, 572, 570, -1,
          592, 570, 583, -1,
          593, 573, 584, -1,
          593, 582, 573, -1,
          594, 574, 585, -1,
          594, 583, 574, -1,
          595, 596, 588, -1,
          597, 575, 589, -1,
          597, 584, 575, -1,
          598, 585, 578, -1,
          598, 578, 591, -1,
          599, 579, 592, -1,
          599, 586, 581, -1,
          599, 581, 579, -1,
          600, 589, 590, -1,
          600, 590, 601, -1,
          602, 591, 582, -1,
          602, 582, 593, -1,
          603, 592, 583, -1,
          603, 583, 594, -1,
          604, 593, 584, -1,
          604, 584, 597, -1,
          605, 594, 585, -1,
          605, 585, 598, -1,
          606, 596, 595, -1,
          606, 588, 586, -1,
          606, 586, 599, -1,
          606, 595, 588, -1,
          607, 597, 589, -1,
          607, 589, 600, -1,
          608, 591, 602, -1,
          608, 598, 591, -1,
          609, 599, 592, -1,
          609, 592, 603, -1,
          610, 600, 601, -1,
          610, 601, 611, -1,
          612, 593, 604, -1,
          612, 602, 593, -1,
          613, 603, 594, -1,
          613, 594, 605, -1,
          614, 596, 606, -1,
          614, 615, 596, -1,
          614, 616, 615, -1,
          617, 604, 597, -1,
          617, 597, 607, -1,
          618, 605, 598, -1,
          618, 598, 608, -1,
          619, 606, 599, -1,
          619, 599, 609, -1,
          620, 600, 610, -1,
          620, 607, 600, -1,
          621, 602, 612, -1,
          621, 608, 602, -1,
          622, 603, 613, -1,
          622, 609, 603, -1,
          623, 616, 614, -1,
          623, 624, 616, -1,
          623, 625, 624, -1,
          626, 610, 611, -1,
          626, 627, 628, -1,
          626, 611, 627, -1,
          629, 604, 617, -1,
          629, 612, 604, -1,
          630, 613, 605, -1,
          630, 605, 618, -1,
          631, 606, 619, -1,
          631, 614, 606, -1,
          632, 617, 607, -1,
          632, 607, 620, -1,
          633, 618, 608, -1,
          633, 608, 621, -1,
          634, 609, 622, -1,
          634, 619, 609, -1,
          635, 610, 626, -1,
          635, 620, 610, -1,
          636, 621, 612, -1,
          636, 612, 629, -1,
          637, 613, 630, -1,
          637, 622, 613, -1,
          638, 623, 614, -1,
          638, 614, 631, -1,
          639, 626, 628, -1,
          639, 628, 640, -1,
          641, 629, 617, -1,
          641, 617, 632, -1,
          642, 618, 633, -1,
          642, 630, 618, -1,
          643, 631, 619, -1,
          643, 619, 634, -1,
          644, 620, 635, -1,
          644, 632, 620, -1,
          645, 621, 636, -1,
          645, 633, 621, -1,
          646, 622, 637, -1,
          646, 634, 622, -1,
          647, 625, 623, -1,
          647, 255, 207, -1,
          647, 207, 535, -1,
          647, 623, 638, -1,
          647, 648, 625, -1,
          647, 535, 648, -1,
          649, 635, 626, -1,
          649, 626, 639, -1,
          650, 629, 641, -1,
          650, 636, 629, -1,
          651, 637, 630, -1,
          651, 630, 642, -1,
          652, 638, 631, -1,
          652, 631, 643, -1,
          653, 640, 654, -1,
          653, 639, 640, -1,
          655, 632, 644, -1,
          655, 641, 632, -1,
          656, 633, 645, -1,
          656, 642, 633, -1,
          657, 643, 634, -1,
          657, 634, 646, -1,
          658, 644, 635, -1,
          658, 635, 649, -1,
          659, 645, 636, -1,
          659, 636, 650, -1,
          660, 646, 637, -1,
          660, 637, 651, -1,
          661, 256, 255, -1,
          661, 255, 647, -1,
          661, 638, 652, -1,
          661, 647, 638, -1,
          662, 649, 639, -1,
          662, 639, 653, -1,
          663, 641, 655, -1,
          663, 650, 641, -1,
          664, 642, 656, -1,
          664, 651, 642, -1,
          665, 643, 657, -1,
          665, 652, 643, -1,
          666, 653, 654, -1,
          666, 654, 667, -1,
          668, 644, 658, -1,
          668, 655, 644, -1,
          669, 656, 645, -1,
          669, 645, 659, -1,
          670, 657, 646, -1,
          670, 646, 660, -1,
          671, 649, 662, -1,
          671, 658, 649, -1,
          672, 650, 663, -1,
          672, 659, 650, -1,
          673, 651, 664, -1,
          673, 660, 651, -1,
          674, 661, 652, -1,
          674, 263, 259, -1,
          674, 259, 256, -1,
          674, 652, 665, -1,
          674, 256, 661, -1,
          675, 653, 666, -1,
          675, 662, 653, -1,
          676, 655, 668, -1,
          676, 663, 655, -1,
          677, 664, 656, -1,
          677, 656, 669, -1,
          678, 665, 657, -1,
          678, 657, 670, -1,
          679, 666, 667, -1,
          679, 667, 680, -1,
          681, 658, 671, -1,
          681, 668, 658, -1,
          682, 669, 659, -1,
          682, 659, 672, -1,
          683, 670, 660, -1,
          683, 660, 673, -1,
          684, 671, 662, -1,
          684, 662, 675, -1,
          685, 672, 663, -1,
          685, 663, 676, -1,
          686, 664, 677, -1,
          686, 673, 664, -1,
          687, 264, 263, -1,
          687, 263, 674, -1,
          687, 674, 665, -1,
          687, 665, 678, -1,
          688, 675, 666, -1,
          688, 666, 679, -1,
          689, 676, 668, -1,
          689, 668, 681, -1,
          690, 669, 682, -1,
          690, 677, 669, -1,
          691, 670, 683, -1,
          691, 678, 670, -1,
          692, 693, 694, -1,
          692, 680, 693, -1,
          692, 679, 680, -1,
          695, 681, 671, -1,
          695, 671, 684, -1,
          696, 672, 685, -1,
          696, 682, 672, -1,
          697, 683, 673, -1,
          697, 673, 686, -1,
          698, 675, 688, -1,
          698, 684, 675, -1,
          699, 676, 689, -1,
          699, 685, 676, -1,
          700, 677, 690, -1,
          700, 686, 677, -1,
          701, 678, 691, -1,
          701, 273, 268, -1,
          701, 268, 264, -1,
          701, 264, 687, -1,
          701, 687, 678, -1,
          702, 679, 692, -1,
          702, 688, 679, -1,
          703, 681, 695, -1,
          703, 689, 681, -1,
          704, 682, 696, -1,
          704, 690, 682, -1,
          705, 691, 683, -1,
          705, 683, 697, -1,
          706, 695, 684, -1,
          706, 684, 698, -1,
          707, 696, 685, -1,
          707, 685, 699, -1,
          708, 686, 700, -1,
          708, 697, 686, -1,
          709, 698, 688, -1,
          709, 688, 702, -1,
          710, 689, 703, -1,
          710, 699, 689, -1,
          711, 690, 704, -1,
          711, 700, 690, -1,
          712, 701, 691, -1,
          712, 691, 705, -1,
          712, 279, 273, -1,
          712, 273, 701, -1,
          713, 702, 692, -1,
          713, 692, 694, -1,
          714, 695, 706, -1,
          714, 703, 695, -1,
          715, 696, 707, -1,
          715, 704, 696, -1,
          716, 705, 697, -1,
          716, 697, 708, -1,
          717, 698, 709, -1,
          717, 706, 698, -1,
          718, 707, 699, -1,
          718, 699, 710, -1,
          719, 708, 700, -1,
          719, 700, 711, -1,
          720, 709, 702, -1,
          720, 702, 713, -1,
          721, 703, 714, -1,
          721, 710, 703, -1,
          722, 711, 704, -1,
          722, 704, 715, -1,
          723, 280, 279, -1,
          723, 279, 712, -1,
          723, 712, 705, -1,
          723, 705, 716, -1,
          724, 725, 726, -1,
          724, 694, 725, -1,
          724, 713, 694, -1,
          727, 714, 706, -1,
          727, 706, 717, -1,
          728, 707, 718, -1,
          728, 715, 707, -1,
          729, 708, 719, -1,
          729, 716, 708, -1,
          730, 709, 720, -1,
          730, 717, 709, -1,
          731, 718, 710, -1,
          731, 710, 721, -1,
          732, 711, 722, -1,
          732, 719, 711, -1,
          733, 720, 713, -1,
          733, 713, 724, -1,
          734, 721, 714, -1,
          734, 714, 727, -1,
          735, 715, 728, -1,
          735, 722, 715, -1,
          736, 716, 729, -1,
          736, 293, 286, -1,
          736, 286, 280, -1,
          736, 280, 723, -1,
          736, 723, 716, -1,
          737, 738, 739, -1,
          737, 726, 738, -1,
          737, 724, 726, -1,
          740, 727, 717, -1,
          740, 717, 730, -1,
          741, 718, 731, -1,
          741, 728, 718, -1,
          742, 719, 732, -1,
          742, 729, 719, -1,
          743, 730, 720, -1,
          743, 720, 733, -1,
          744, 731, 721, -1,
          744, 721, 734, -1,
          745, 722, 735, -1,
          745, 732, 722, -1,
          746, 733, 724, -1,
          746, 724, 737, -1,
          747, 734, 727, -1,
          747, 727, 740, -1,
          748, 728, 741, -1,
          748, 735, 728, -1,
          749, 300, 293, -1,
          749, 729, 742, -1,
          749, 736, 729, -1,
          749, 293, 736, -1,
          750, 740, 730, -1,
          750, 730, 743, -1,
          751, 731, 744, -1,
          751, 741, 731, -1,
          752, 742, 732, -1,
          752, 732, 745, -1,
          753, 733, 746, -1,
          753, 743, 733, -1,
          754, 744, 734, -1,
          754, 734, 747, -1,
          755, 745, 735, -1,
          755, 735, 748, -1,
          756, 746, 737, -1,
          756, 737, 739, -1,
          756, 739, 757, -1,
          758, 740, 750, -1,
          758, 747, 740, -1,
          759, 748, 741, -1,
          759, 741, 751, -1,
          760, 309, 301, -1,
          760, 301, 300, -1,
          760, 749, 742, -1,
          760, 742, 752, -1,
          760, 300, 749, -1,
          761, 750, 743, -1,
          761, 743, 753, -1,
          762, 744, 754, -1,
          762, 751, 744, -1,
          763, 752, 745, -1,
          763, 745, 755, -1,
          764, 746, 756, -1,
          764, 753, 746, -1,
          765, 754, 747, -1,
          765, 747, 758, -1,
          766, 748, 759, -1,
          766, 755, 748, -1,
          767, 757, 768, -1,
          767, 756, 757, -1,
          769, 758, 750, -1,
          769, 750, 761, -1,
          770, 759, 751, -1,
          770, 751, 762, -1,
          771, 318, 309, -1,
          771, 309, 760, -1,
          771, 760, 752, -1,
          771, 752, 763, -1,
          772, 753, 764, -1,
          772, 761, 753, -1,
          773, 754, 765, -1,
          773, 762, 754, -1,
          774, 755, 766, -1,
          774, 763, 755, -1,
          775, 756, 767, -1,
          775, 764, 756, -1,
          776, 758, 769, -1,
          776, 765, 758, -1,
          777, 759, 770, -1,
          777, 766, 759, -1,
          778, 769, 761, -1,
          778, 761, 772, -1,
          779, 762, 773, -1,
          779, 770, 762, -1,
          780, 771, 763, -1,
          780, 319, 318, -1,
          780, 318, 771, -1,
          780, 763, 774, -1,
          781, 772, 764, -1,
          781, 764, 775, -1,
          782, 765, 776, -1,
          782, 773, 765, -1,
          783, 774, 766, -1,
          783, 766, 777, -1,
          784, 767, 768, -1,
          784, 775, 767, -1,
          784, 785, 786, -1,
          784, 768, 785, -1,
          787, 769, 778, -1,
          787, 776, 769, -1,
          788, 777, 770, -1,
          788, 770, 779, -1,
          789, 772, 781, -1,
          789, 778, 772, -1,
          790, 779, 773, -1,
          790, 773, 782, -1,
          791, 338, 328, -1,
          791, 328, 319, -1,
          791, 319, 780, -1,
          791, 780, 774, -1,
          791, 774, 783, -1,
          792, 781, 775, -1,
          792, 775, 784, -1,
          793, 776, 787, -1,
          793, 782, 776, -1,
          794, 783, 777, -1,
          794, 777, 788, -1,
          795, 778, 789, -1,
          795, 787, 778, -1,
          796, 779, 790, -1,
          796, 788, 779, -1,
          797, 781, 792, -1,
          797, 789, 781, -1,
          798, 790, 782, -1,
          798, 782, 793, -1,
          799, 348, 338, -1,
          799, 338, 791, -1,
          799, 791, 783, -1,
          799, 783, 794, -1,
          800, 786, 801, -1,
          800, 784, 786, -1,
          800, 792, 784, -1,
          485, 793, 787, -1,
          485, 787, 795, -1,
          489, 794, 788, -1,
          489, 788, 796, -1,
          492, 795, 789, -1,
          492, 789, 797, -1,
          495, 796, 790, -1,
          495, 790, 798, -1,
          498, 797, 792, -1,
          498, 792, 800, -1,
          501, 798, 793, -1,
          501, 793, 485, -1,
          488, 348, 799, -1,
          488, 349, 348, -1,
          488, 794, 489, -1,
          488, 799, 794, -1,
          802, 803, 503, -1,
          802, 801, 803, -1,
          802, 800, 801, -1,
          486, 795, 492, -1,
          486, 485, 795, -1,
          490, 489, 796, -1,
          490, 796, 495, -1,
          493, 492, 797, -1,
          493, 797, 498, -1,
          496, 798, 501, -1,
          496, 495, 798, -1,
          499, 498, 800, -1,
          499, 800, 802, -1,
          499, 802, 503, -1,
          484, 501, 485, -1,
          804, 1, 191, -1,
          804, 191, 551, -1,
          805, 551, 550, -1,
          805, 804, 551, -1,
          806, 550, 548, -1,
          806, 805, 550, -1,
          807, 548, 547, -1,
          807, 806, 548, -1,
          808, 547, 542, -1,
          808, 807, 547, -1,
          809, 542, 541, -1,
          809, 808, 542, -1,
          810, 541, 533, -1,
          810, 809, 541, -1,
          811, 533, 529, -1,
          811, 810, 533, -1,
          812, 529, 528, -1,
          812, 811, 529, -1,
          813, 528, 518, -1,
          813, 812, 528, -1,
          814, 518, 517, -1,
          814, 813, 518, -1,
          815, 517, 505, -1,
          815, 814, 517, -1,
          816, 505, 504, -1,
          816, 815, 505, -1,
          817, 504, 503, -1,
          817, 816, 504, -1,
          818, 503, 803, -1,
          818, 817, 503, -1,
          819, 803, 801, -1,
          819, 818, 803, -1,
          820, 801, 786, -1,
          820, 819, 801, -1,
          821, 786, 785, -1,
          821, 820, 786, -1,
          822, 821, 785, -1,
          822, 785, 768, -1,
          823, 822, 768, -1,
          823, 768, 757, -1,
          824, 823, 757, -1,
          824, 757, 739, -1,
          825, 824, 739, -1,
          825, 739, 738, -1,
          826, 738, 726, -1,
          826, 825, 738, -1,
          827, 726, 725, -1,
          827, 826, 726, -1,
          828, 725, 694, -1,
          828, 827, 725, -1,
          829, 694, 693, -1,
          829, 828, 694, -1,
          830, 693, 680, -1,
          830, 829, 693, -1,
          831, 680, 667, -1,
          831, 830, 680, -1,
          832, 667, 654, -1,
          832, 831, 667, -1,
          833, 654, 640, -1,
          833, 832, 654, -1,
          834, 640, 628, -1,
          834, 833, 640, -1,
          835, 628, 627, -1,
          835, 834, 628, -1,
          836, 627, 611, -1,
          836, 835, 627, -1,
          837, 611, 601, -1,
          837, 836, 611, -1,
          838, 601, 590, -1,
          838, 837, 601, -1,
          839, 590, 577, -1,
          839, 838, 590, -1,
          840, 577, 576, -1,
          840, 839, 577, -1,
          841, 576, 565, -1,
          841, 840, 576, -1,
          842, 565, 564, -1,
          842, 841, 565, -1,
          843, 564, 557, -1,
          843, 842, 564, -1,
          844, 557, 556, -1,
          844, 843, 557, -1,
          845, 556, 558, -1,
          845, 844, 556, -1,
          846, 845, 558, -1,
          846, 558, 554, -1,
          847, 846, 554, -1,
          847, 554, 553, -1,
          848, 847, 553, -1,
          848, 553, 567, -1,
          849, 848, 567, -1,
          849, 567, 568, -1,
          850, 849, 568, -1,
          850, 568, 561, -1,
          851, 850, 561, -1,
          851, 561, 560, -1,
          852, 851, 560, -1,
          852, 560, 562, -1,
          853, 852, 562, -1,
          853, 562, 571, -1,
          854, 853, 571, -1,
          854, 571, 572, -1,
          855, 854, 572, -1,
          855, 572, 580, -1,
          856, 855, 580, -1,
          856, 580, 581, -1,
          857, 856, 581, -1,
          857, 581, 587, -1,
          858, 857, 587, -1,
          858, 587, 588, -1,
          858, 588, 596, -1,
          859, 858, 596, -1,
          860, 596, 615, -1,
          860, 859, 596, -1,
          861, 615, 616, -1,
          861, 860, 615, -1,
          862, 616, 624, -1,
          862, 861, 616, -1,
          863, 624, 625, -1,
          863, 862, 624, -1,
          864, 625, 648, -1,
          864, 863, 625, -1,
          865, 648, 535, -1,
          865, 864, 648, -1,
          127, 535, 128, -1,
          127, 865, 535, -1,
          866, 867, 868, -1,
          866, 868, 869, -1,
          866, 869, 870, -1,
          866, 870, 871, -1,
          872, 866, 873, -1,
          872, 867, 866, -1,
          874, 875, 876, -1,
          874, 876, 877, -1,
          878, 872, 879, -1,
          880, 874, 877, -1,
          881, 867, 872, -1,
          881, 872, 878, -1,
          882, 877, 883, -1,
          882, 883, 867, -1,
          882, 867, 881, -1,
          884, 885, 880, -1,
          886, 882, 887, -1,
          888, 889, 884, -1,
          888, 884, 880, -1,
          890, 886, 891, -1,
          892, 893, 888, -1,
          894, 895, 896, -1,
          0, 2, 897, -1,
          0, 897, 892, -1,
          0, 892, 888, -1,
          898, 890, 895, -1,
          898, 894, 899, -1,
          898, 895, 894, -1,
          898, 886, 890, -1,
          6, 4, 0, -1,
          8, 888, 880, -1,
          8, 0, 888, -1,
          8, 6, 0, -1,
          900, 886, 898, -1,
          900, 898, 901, -1,
          900, 901, 902, -1,
          900, 880, 877, -1,
          900, 877, 882, -1,
          900, 882, 886, -1,
          12, 10, 8, -1,
          16, 14, 12, -1,
          903, 904, 905, -1,
          903, 905, 906, -1,
          907, 904, 903, -1,
          22, 12, 8, -1,
          22, 20, 18, -1,
          22, 18, 16, -1,
          22, 16, 12, -1,
          908, 904, 907, -1,
          909, 880, 900, -1,
          909, 904, 908, -1,
          909, 900, 904, -1,
          26, 24, 22, -1,
          910, 909, 911, -1,
          30, 28, 26, -1,
          30, 26, 22, -1,
          32, 30, 22, -1,
          912, 910, 913, -1,
          912, 913, 914, -1,
          912, 914, 915, -1,
          912, 909, 910, -1,
          38, 36, 34, -1,
          38, 34, 32, -1,
          38, 32, 22, -1,
          40, 38, 22, -1,
          916, 912, 917, -1,
          918, 909, 912, -1,
          918, 912, 916, -1,
          919, 918, 920, -1,
          921, 919, 922, -1,
          54, 52, 50, -1,
          54, 50, 48, -1,
          54, 48, 46, -1,
          923, 880, 909, -1,
          923, 921, 924, -1,
          923, 909, 918, -1,
          923, 918, 919, -1,
          923, 919, 921, -1,
          58, 54, 46, -1,
          58, 57, 54, -1,
          925, 44, 42, -1,
          925, 42, 40, -1,
          925, 8, 880, -1,
          925, 22, 8, -1,
          925, 923, 926, -1,
          925, 40, 22, -1,
          925, 880, 923, -1,
          60, 58, 46, -1,
          62, 60, 46, -1,
          64, 46, 44, -1,
          64, 62, 46, -1,
          123, 925, 927, -1,
          123, 927, 126, -1,
          123, 126, 124, -1,
          68, 64, 44, -1,
          68, 66, 64, -1,
          120, 925, 123, -1,
          118, 925, 120, -1,
          73, 70, 68, -1,
          116, 925, 118, -1,
          76, 74, 73, -1,
          113, 116, 114, -1,
          78, 73, 68, -1,
          78, 76, 73, -1,
          110, 925, 116, -1,
          110, 116, 113, -1,
          80, 78, 68, -1,
          82, 68, 44, -1,
          82, 925, 110, -1,
          82, 80, 68, -1,
          82, 44, 925, -1,
          106, 110, 109, -1,
          86, 84, 82, -1,
          102, 110, 106, -1,
          102, 106, 104, -1,
          88, 86, 82, -1,
          99, 110, 102, -1,
          99, 102, 101, -1,
          92, 88, 82, -1,
          92, 90, 88, -1,
          94, 82, 110, -1,
          94, 110, 99, -1,
          94, 92, 82, -1,
          94, 99, 97, -1,
          927, 127, 126, -1,
          865, 127, 927, -1,
          925, 865, 927, -1,
          864, 865, 925, -1,
          926, 864, 925, -1,
          863, 864, 926, -1,
          923, 863, 926, -1,
          862, 863, 923, -1,
          924, 862, 923, -1,
          861, 862, 924, -1,
          921, 861, 924, -1,
          860, 861, 921, -1,
          922, 860, 921, -1,
          859, 860, 922, -1,
          919, 859, 922, -1,
          858, 859, 919, -1,
          920, 858, 919, -1,
          857, 858, 920, -1,
          918, 857, 920, -1,
          856, 857, 918, -1,
          916, 856, 918, -1,
          855, 856, 916, -1,
          917, 855, 916, -1,
          854, 855, 917, -1,
          912, 854, 917, -1,
          853, 854, 912, -1,
          915, 853, 912, -1,
          852, 853, 915, -1,
          914, 852, 915, -1,
          851, 852, 914, -1,
          913, 851, 914, -1,
          850, 851, 913, -1,
          910, 850, 913, -1,
          849, 850, 910, -1,
          911, 849, 910, -1,
          848, 849, 911, -1,
          909, 848, 911, -1,
          847, 848, 909, -1,
          908, 847, 909, -1,
          846, 847, 908, -1,
          907, 846, 908, -1,
          845, 846, 907, -1,
          903, 845, 907, -1,
          844, 845, 903, -1,
          906, 844, 903, -1,
          843, 844, 906, -1,
          905, 843, 906, -1,
          842, 843, 905, -1,
          904, 842, 905, -1,
          841, 842, 904, -1,
          900, 841, 904, -1,
          840, 841, 900, -1,
          902, 840, 900, -1,
          839, 840, 902, -1,
          901, 839, 902, -1,
          838, 839, 901, -1,
          837, 901, 898, -1,
          837, 838, 901, -1,
          899, 837, 898, -1,
          836, 837, 899, -1,
          894, 836, 899, -1,
          835, 836, 894, -1,
          896, 835, 894, -1,
          834, 835, 896, -1,
          895, 834, 896, -1,
          833, 834, 895, -1,
          890, 833, 895, -1,
          832, 833, 890, -1,
          831, 890, 891, -1,
          831, 832, 890, -1,
          886, 831, 891, -1,
          830, 831, 886, -1,
          887, 830, 886, -1,
          829, 830, 887, -1,
          828, 887, 882, -1,
          828, 829, 887, -1,
          881, 828, 882, -1,
          827, 828, 881, -1,
          826, 881, 878, -1,
          826, 827, 881, -1,
          879, 826, 878, -1,
          825, 826, 879, -1,
          872, 825, 879, -1,
          824, 825, 872, -1,
          823, 824, 872, -1,
          823, 872, 873, -1,
          866, 823, 873, -1,
          822, 823, 866, -1,
          821, 822, 866, -1,
          821, 866, 871, -1,
          870, 821, 871, -1,
          820, 821, 870, -1,
          869, 820, 870, -1,
          819, 820, 869, -1,
          868, 819, 869, -1,
          818, 819, 868, -1,
          867, 818, 868, -1,
          817, 818, 867, -1,
          816, 867, 883, -1,
          816, 817, 867, -1,
          815, 883, 877, -1,
          815, 816, 883, -1,
          876, 815, 877, -1,
          814, 815, 876, -1,
          813, 876, 875, -1,
          813, 814, 876, -1,
          874, 813, 875, -1,
          812, 813, 874, -1,
          811, 874, 880, -1,
          811, 812, 874, -1,
          885, 811, 880, -1,
          810, 811, 885, -1,
          809, 885, 884, -1,
          809, 810, 885, -1,
          889, 809, 884, -1,
          808, 809, 889, -1,
          807, 889, 888, -1,
          807, 808, 889, -1,
          806, 888, 893, -1,
          806, 807, 888, -1,
          892, 806, 893, -1,
          805, 806, 892, -1,
          804, 892, 897, -1,
          804, 805, 892, -1,
          2, 804, 897, -1,
          1, 804, 2, -1
        ]
      }
    }
}
