{"asset":{"version":"2.0","generator":"microscope_builder_4 scripts/catalog/dedupe-mounted-lens-housings.mjs"},"scene":0,"scenes":[{"nodes":[0]}],"nodes":[{"mesh":0}],"meshes":[{"primitives":[{"attributes":{"POSITION":1,"NORMAL":2},"indices":0,"mode":4},{"attributes":{"POSITION":4,"NORMAL":5},"indices":3,"mode":4},{"attributes":{"POSITION":7,"NORMAL":8},"indices":6,"mode":4}]}],"buffers":[{"uri":"lb1056-a-ml.bin","byteLength":140736}],"bufferViews":[{"buffer":0,"byteOffset":0,"byteLength":42000,"target":34963},{"buffer":0,"byteOffset":42000,"byteLength":42000,"target":34962},{"buffer":0,"byteOffset":84000,"byteLength":42000,"target":34962},{"buffer":0,"byteOffset":126000,"byteLength":960,"target":34963},{"buffer":0,"byteOffset":126960,"byteLength":984,"target":34962},{"buffer":0,"byteOffset":127944,"byteLength":984,"target":34962},{"buffer":0,"byteOffset":128928,"byteLength":3936,"target":34963},{"buffer":0,"byteOffset":132864,"byteLength":3936,"target":34962},{"buffer":0,"byteOffset":136800,"byteLength":3936,"target":34962}],"accessors":[{"bufferView":0,"componentType":5123,"count":21000,"type":"SCALAR"},{"bufferView":1,"componentType":5126,"count":3500,"type":"VEC3","min":[-5.715000152587891,-15.239999771118164,-15.239999771118164],"max":[5.715000152587891,15.239999771118164,15.239999771118164]},{"bufferView":2,"componentType":5126,"count":3500,"type":"VEC3"},{"bufferView":3,"componentType":5123,"count":480,"type":"SCALAR"},{"bufferView":4,"componentType":5126,"count":82,"type":"VEC3","min":[-2.184999942779541,-12.699999809265137,-12.699999809265137],"max":[0.4449999928474426,12.699999809265137,12.699999809265137]},{"bufferView":5,"componentType":5126,"count":82,"type":"VEC3"},{"bufferView":6,"componentType":5123,"count":1968,"type":"SCALAR"},{"bufferView":7,"componentType":5126,"count":328,"type":"VEC3","min":[0.17800000309944153,-13.144000053405762,-13.144000053405762],"max":[2.2100000381469727,13.144000053405762,13.144000053405762]},{"bufferView":8,"componentType":5126,"count":328,"type":"VEC3"}]}
