#VRML V2.0 utf8
WorldInfo {
  title "Exported triangle mesh to VRML97"
  info ["Created by FreeCAD"
        "<https://www.freecad.org>"]
}

Transform {
  scale 1 1 1
  rotation 0 0 1 0
  scaleOrientation 0 0 1 0
  center 0.000 0.000 0.000
  translation 0.000 0.000 0.000
  children
    Shape { 
      appearance
      Appearance {
        material
        Material {
          diffuseColor 0.8 0.8 0.8
        }
      }
      geometry
      IndexedFaceSet {
        coord
        Coordinate {
          point [
            0.000 5.685 -1.198,
            -0.312 6.342 -0.897,
            0.000 6.350 -0.897,
            -0.622 6.319 -0.897,
            -0.312 -6.342 -0.897,
            -0.000 -5.685 -1.198,
            -0.000 -6.350 -0.897,
            -0.622 -6.319 -0.897,
            -0.938 5.879 -1.081,
            -0.932 6.281 -0.897,
            -1.239 6.228 -0.897,
            -1.543 6.160 -0.897,
            -0.938 4.943 -1.456,
            0.000 5.006 -1.465,
            0.000 4.314 -1.698,
            -1.872 5.381 -1.193,
            -1.843 6.077 -0.897,
            -2.139 5.979 -0.897,
            -2.430 5.867 -0.897,
            -2.715 5.740 -0.897,
            -0.938 3.983 -1.765,
            0.000 3.612 -1.896,
            -1.872 4.438 -1.533,
            -2.798 4.861 -1.230,
            -2.993 5.600 -0.897,
            -3.265 5.447 -0.897,
            -3.528 5.280 -0.897,
            -0.938 3.004 -2.007,
            0.000 2.900 -2.059,
            0.000 2.182 -2.186,
            -1.872 3.474 -1.807,
            -2.798 3.917 -1.534,
            -0.938 2.011 -2.180,
            0.000 1.457 -2.277,
            -3.713 4.328 -1.190,
            -3.783 5.100 -0.897,
            -4.028 4.909 -0.897,
            -4.264 4.705 -0.897,
            -4.490 4.490 -0.897,
            -1.872 2.493 -2.013,
            -2.798 2.955 -1.771,
            -0.938 1.008 -2.285,
            0.000 0.730 -2.332,
            -3.713 3.388 -1.458,
            -1.872 1.501 -2.152,
            -4.612 3.787 -1.075,
            -4.705 4.264 -0.897,
            -4.909 4.028 -0.897,
            -5.100 3.783 -0.897,
            -5.280 3.528 -0.897,
            -2.798 1.978 -1.942,
            -0.938 0.000 -2.320,
            0.000 -0.000 -2.350,
            -0.000 -0.730 -2.332,
            -3.713 2.431 -1.659,
            -1.872 0.501 -2.221,
            -4.612 2.856 -1.305,
            -5.447 3.265 -0.897,
            -5.600 2.993 -0.897,
            -2.798 0.991 -2.045,
            -0.938 -1.008 -2.285,
            -0.000 -1.457 -2.277,
            -3.713 1.464 -1.794,
            -1.872 -0.501 -2.221,
            -4.612 1.912 -1.470,
            -2.798 0.000 -2.079,
            -0.938 -2.011 -2.180,
            -0.000 -2.182 -2.186,
            -5.492 2.329 -1.075,
            -5.740 2.715 -0.897,
            -5.867 2.430 -0.897,
            -5.979 2.139 -0.897,
            -6.077 1.843 -0.897,
            -3.713 0.489 -1.862,
            -1.872 -1.501 -2.152,
            -4.612 0.958 -1.569,
            -2.798 -0.991 -2.045,
            -0.938 -3.004 -2.007,
            -0.000 -2.900 -2.059,
            -0.000 -3.612 -1.896,
            -5.492 1.402 -1.205,
            -6.160 1.543 -0.897,
            -6.228 1.239 -0.897,
            -6.281 0.932 -0.897,
            -3.713 -0.489 -1.862,
            -1.872 -2.493 -2.013,
            -4.612 0.000 -1.602,
            -2.798 -1.978 -1.942,
            -0.938 -3.983 -1.765,
            -0.000 -4.314 -1.698,
            -5.492 0.468 -1.269,
            -6.319 0.622 -0.897,
            -6.342 0.312 -0.897,
            -6.350 -0.000 -0.897,
            -3.713 -1.464 -1.794,
            -1.872 -3.474 -1.807,
            -4.612 -0.958 -1.569,
            -2.798 -2.955 -1.771,
            -0.938 -4.943 -1.456,
            -0.000 -5.006 -1.465,
            -5.492 -0.468 -1.269,
            -6.342 -0.312 -0.897,
            -6.319 -0.622 -0.897,
            -6.281 -0.932 -0.897,
            -3.713 -2.431 -1.659,
            -1.872 -4.438 -1.533,
            -4.612 -1.912 -1.470,
            -2.798 -3.917 -1.534,
            -0.938 -5.879 -1.081,
            -1.239 -6.228 -0.897,
            -1.543 -6.160 -0.897,
            -0.932 -6.281 -0.897,
            -5.492 -1.402 -1.205,
            -6.228 -1.239 -0.897,
            -6.160 -1.543 -0.897,
            -6.077 -1.843 -0.897,
            -3.713 -3.388 -1.458,
            -1.872 -5.381 -1.193,
            -2.430 -5.867 -0.897,
            -2.715 -5.740 -0.897,
            -2.139 -5.979 -0.897,
            -1.843 -6.077 -0.897,
            -4.612 -2.856 -1.305,
            -5.447 -3.265 -0.897,
            -5.600 -2.993 -0.897,
            -5.280 -3.528 -0.897,
            -2.798 -4.861 -1.230,
            -3.265 -5.447 -0.897,
            -3.528 -5.280 -0.897,
            -2.993 -5.600 -0.897,
            -5.492 -2.329 -1.075,
            -5.979 -2.139 -0.897,
            -5.867 -2.430 -0.897,
            -5.740 -2.715 -0.897,
            -3.713 -4.328 -1.190,
            -4.264 -4.705 -0.897,
            -4.490 -4.490 -0.897,
            -4.028 -4.909 -0.897,
            -3.783 -5.100 -0.897,
            -4.612 -3.787 -1.075,
            -5.100 -3.783 -0.897,
            -4.909 -4.028 -0.897,
            -4.705 -4.264 -0.897,
            6.342 0.312 0.897,
            6.350 -0.000 -0.897,
            6.342 0.312 -0.897,
            6.350 -0.000 0.897,
            6.319 0.622 0.897,
            6.319 0.622 -0.897,
            6.281 0.932 0.897,
            6.281 0.932 -0.897,
            6.228 1.239 0.897,
            6.228 1.239 -0.897,
            6.160 1.543 0.897,
            6.160 1.543 -0.897,
            6.077 1.843 0.897,
            6.077 1.843 -0.897,
            5.979 2.139 0.897,
            5.979 2.139 -0.897,
            5.867 2.430 -0.897,
            5.867 2.430 0.897,
            5.740 2.715 0.897,
            5.740 2.715 -0.897,
            5.600 2.993 0.897,
            5.600 2.993 -0.897,
            5.447 3.265 -0.897,
            5.447 3.265 0.897,
            5.280 3.528 0.897,
            5.280 3.528 -0.897,
            5.100 3.783 0.897,
            5.100 3.783 -0.897,
            4.909 4.028 0.897,
            4.909 4.028 -0.897,
            4.705 4.264 -0.897,
            4.705 4.264 0.897,
            4.490 4.490 0.897,
            4.490 4.490 -0.897,
            4.264 4.705 0.897,
            4.264 4.705 -0.897,
            4.028 4.909 0.897,
            4.028 4.909 -0.897,
            3.783 5.100 -0.897,
            3.783 5.100 0.897,
            3.528 5.280 0.897,
            3.528 5.280 -0.897,
            3.265 5.447 -0.897,
            3.265 5.447 0.897,
            2.993 5.600 0.897,
            2.993 5.600 -0.897,
            2.715 5.740 -0.897,
            2.715 5.740 0.897,
            2.430 5.867 0.897,
            2.430 5.867 -0.897,
            2.139 5.979 -0.897,
            2.139 5.979 0.897,
            1.843 6.077 -0.897,
            1.843 6.077 0.897,
            1.543 6.160 0.897,
            1.543 6.160 -0.897,
            1.239 6.228 -0.897,
            1.239 6.228 0.897,
            0.932 6.281 0.897,
            0.932 6.281 -0.897,
            0.622 6.319 0.897,
            0.622 6.319 -0.897,
            0.312 6.342 0.897,
            0.312 6.342 -0.897,
            0.000 6.350 0.897,
            -0.312 6.342 0.897,
            -0.622 6.319 0.897,
            -0.932 6.281 0.897,
            -1.239 6.228 0.897,
            -1.543 6.160 0.897,
            -1.843 6.077 0.897,
            -2.139 5.979 0.897,
            -2.430 5.867 0.897,
            -2.715 5.740 0.897,
            -2.993 5.600 0.897,
            -3.265 5.447 0.897,
            -3.528 5.280 0.897,
            -3.783 5.100 0.897,
            -4.028 4.909 0.897,
            -4.264 4.705 0.897,
            -4.490 4.490 0.897,
            -4.705 4.264 0.897,
            -4.909 4.028 0.897,
            -5.100 3.783 0.897,
            -5.280 3.528 0.897,
            -5.447 3.265 0.897,
            -5.600 2.993 0.897,
            -5.740 2.715 0.897,
            -5.867 2.430 0.897,
            -5.979 2.139 0.897,
            -6.077 1.843 0.897,
            -6.160 1.543 0.897,
            -6.228 1.239 0.897,
            -6.281 0.932 0.897,
            -6.319 0.622 0.897,
            -6.342 0.312 0.897,
            -6.350 -0.000 0.897,
            -0.000 -5.685 1.198,
            -0.622 -6.319 0.897,
            -0.312 -6.342 0.897,
            -0.000 -6.350 0.897,
            0.000 5.685 1.198,
            -0.938 -5.879 1.081,
            -1.543 -6.160 0.897,
            -1.239 -6.228 0.897,
            -0.932 -6.281 0.897,
            -0.938 -4.943 1.456,
            -0.000 -5.006 1.465,
            -0.000 -4.314 1.698,
            -1.872 -5.381 1.193,
            -2.715 -5.740 0.897,
            -2.430 -5.867 0.897,
            -2.139 -5.979 0.897,
            -1.843 -6.077 0.897,
            -0.938 -3.983 1.765,
            -0.000 -3.612 1.896,
            -1.872 -4.438 1.533,
            -2.798 -4.861 1.230,
            -3.528 -5.280 0.897,
            -3.265 -5.447 0.897,
            -2.993 -5.600 0.897,
            -0.938 -3.004 2.007,
            -0.000 -2.900 2.059,
            -0.000 -2.182 2.186,
            -1.872 -3.474 1.807,
            -2.798 -3.917 1.534,
            -0.938 -2.011 2.180,
            -0.000 -1.457 2.277,
            -3.713 -4.328 1.190,
            -4.490 -4.490 0.897,
            -4.264 -4.705 0.897,
            -4.028 -4.909 0.897,
            -3.783 -5.100 0.897,
            -1.872 -2.493 2.013,
            -2.798 -2.955 1.771,
            -0.938 -1.008 2.285,
            -0.000 -0.730 2.332,
            -3.713 -3.388 1.458,
            -1.872 -1.501 2.152,
            -4.612 -3.787 1.075,
            -5.280 -3.528 0.897,
            -5.100 -3.783 0.897,
            -4.909 -4.028 0.897,
            -4.705 -4.264 0.897,
            -2.798 -1.978 1.942,
            -0.938 -0.000 2.320,
            0.000 0.000 2.350,
            0.000 0.730 2.332,
            -3.713 -2.431 1.659,
            -1.872 -0.501 2.221,
            -4.612 -2.856 1.305,
            -5.600 -2.993 0.897,
            -5.447 -3.265 0.897,
            -2.798 -0.991 2.045,
            -0.938 1.008 2.285,
            0.000 1.457 2.277,
            -3.713 -1.464 1.794,
            -1.872 0.501 2.221,
            -4.612 -1.912 1.470,
            -2.798 -0.000 2.079,
            -0.938 2.011 2.180,
            0.000 2.182 2.186,
            -5.492 -2.329 1.075,
            -6.077 -1.843 0.897,
            -5.979 -2.139 0.897,
            -5.867 -2.430 0.897,
            -5.740 -2.715 0.897,
            -3.713 -0.489 1.862,
            -1.872 1.501 2.152,
            -4.612 -0.958 1.569,
            -2.798 0.991 2.045,
            -0.938 3.004 2.007,
            0.000 2.900 2.059,
            0.000 3.612 1.896,
            -5.492 -1.402 1.205,
            -6.281 -0.932 0.897,
            -6.228 -1.239 0.897,
            -6.160 -1.543 0.897,
            -3.713 0.489 1.862,
            -1.872 2.493 2.013,
            -4.612 -0.000 1.602,
            -2.798 1.978 1.942,
            -0.938 3.983 1.765,
            0.000 4.314 1.698,
            -5.492 -0.468 1.269,
            -6.342 -0.312 0.897,
            -6.319 -0.622 0.897,
            -3.713 1.464 1.794,
            -1.872 3.474 1.807,
            -4.612 0.958 1.569,
            -2.798 2.955 1.771,
            -0.938 4.943 1.456,
            0.000 5.006 1.465,
            -5.492 0.468 1.269,
            -3.713 2.431 1.659,
            -1.872 4.438 1.533,
            -4.612 1.912 1.470,
            -2.798 3.917 1.534,
            -0.938 5.879 1.081,
            -5.492 1.402 1.205,
            -3.713 3.388 1.458,
            -1.872 5.381 1.193,
            -4.612 2.856 1.305,
            -2.798 4.861 1.230,
            -5.492 2.329 1.075,
            -3.713 4.328 1.190,
            -4.612 3.787 1.075,
            0.312 -6.342 0.897,
            0.622 -6.319 0.897,
            4.612 -4.246 0.936,
            4.490 -4.490 0.897,
            4.705 -4.264 0.897,
            4.909 -4.028 0.897,
            3.713 -4.790 1.033,
            3.528 -5.280 0.897,
            3.783 -5.100 0.897,
            4.028 -4.909 0.897,
            4.264 -4.705 0.897,
            5.492 -2.789 0.987,
            5.447 -3.265 0.897,
            5.600 -2.993 0.897,
            5.740 -2.715 0.897,
            5.867 -2.430 0.897,
            2.798 -5.325 1.053,
            2.430 -5.867 0.897,
            2.715 -5.740 0.897,
            2.993 -5.600 0.897,
            3.265 -5.447 0.897,
            4.612 -3.324 1.198,
            5.100 -3.783 0.897,
            5.280 -3.528 0.897,
            1.872 -5.843 0.998,
            1.543 -6.160 0.897,
            1.843 -6.077 0.897,
            2.139 -5.979 0.897,
            3.713 -3.860 1.332,
            5.492 -1.867 1.148,
            5.979 -2.139 0.897,
            6.077 -1.843 0.897,
            6.160 -1.543 0.897,
            2.798 -4.392 1.390,
            4.612 -2.385 1.395,
            1.872 -4.912 1.371,
            3.713 -2.911 1.567,
            5.492 -0.936 1.245,
            6.228 -1.239 0.897,
            6.281 -0.932 0.897,
            6.319 -0.622 0.897,
            0.938 -5.414 1.277,
            0.932 -6.281 0.897,
            1.239 -6.228 0.897,
            2.798 -3.438 1.661,
            4.612 -1.436 1.528,
            1.872 -3.958 1.678,
            3.713 -1.949 1.735,
            5.492 -0.000 1.278,
            6.342 -0.312 0.897,
            0.938 -4.466 1.619,
            2.798 -2.468 1.865,
            4.612 -0.479 1.594,
            1.872 -2.985 1.918,
            3.713 -0.977 1.836,
            5.492 0.936 1.245,
            0.938 -3.496 1.894,
            2.798 -1.485 2.002,
            4.612 0.479 1.594,
            1.872 -1.998 2.091,
            3.713 -0.000 1.870,
            5.492 1.867 1.148,
            0.938 -2.509 2.102,
            2.798 -0.496 2.071,
            4.612 1.436 1.528,
            1.872 -1.002 2.195,
            3.713 0.977 1.836,
            5.492 2.789 0.987,
            0.938 -1.510 2.241,
            2.798 0.496 2.071,
            4.612 2.385 1.395,
            1.872 -0.000 2.230,
            3.713 1.949 1.735,
            0.938 -0.504 2.311,
            2.798 1.485 2.002,
            4.612 3.324 1.198,
            1.872 1.002 2.195,
            3.713 2.911 1.567,
            0.938 0.504 2.311,
            2.798 2.468 1.865,
            4.612 4.246 0.936,
            1.872 1.998 2.091,
            3.713 3.860 1.332,
            0.938 1.510 2.241,
            2.798 3.438 1.661,
            1.872 2.985 1.918,
            3.713 4.790 1.033,
            0.938 2.509 2.102,
            2.798 4.392 1.390,
            1.872 3.958 1.678,
            0.938 3.496 1.894,
            2.798 5.325 1.053,
            1.872 4.912 1.371,
            0.938 4.466 1.619,
            1.872 5.843 0.998,
            0.938 5.414 1.277,
            0.312 -6.342 -0.897,
            0.622 -6.319 -0.897,
            0.932 -6.281 -0.897,
            1.239 -6.228 -0.897,
            1.543 -6.160 -0.897,
            1.843 -6.077 -0.897,
            2.139 -5.979 -0.897,
            2.430 -5.867 -0.897,
            2.715 -5.740 -0.897,
            2.993 -5.600 -0.897,
            3.265 -5.447 -0.897,
            3.528 -5.280 -0.897,
            3.783 -5.100 -0.897,
            4.028 -4.909 -0.897,
            4.264 -4.705 -0.897,
            4.490 -4.490 -0.897,
            4.705 -4.264 -0.897,
            4.909 -4.028 -0.897,
            5.100 -3.783 -0.897,
            5.280 -3.528 -0.897,
            5.447 -3.265 -0.897,
            5.600 -2.993 -0.897,
            5.740 -2.715 -0.897,
            5.867 -2.430 -0.897,
            5.979 -2.139 -0.897,
            6.077 -1.843 -0.897,
            6.160 -1.543 -0.897,
            6.228 -1.239 -0.897,
            6.281 -0.932 -0.897,
            6.319 -0.622 -0.897,
            6.342 -0.312 -0.897,
            4.612 4.246 -0.936,
            3.713 4.790 -1.033,
            5.492 2.789 -0.987,
            2.798 5.325 -1.053,
            4.612 3.324 -1.198,
            1.872 5.843 -0.998,
            3.713 3.860 -1.332,
            5.492 1.867 -1.148,
            2.798 4.392 -1.390,
            4.612 2.385 -1.395,
            1.872 4.912 -1.371,
            3.713 2.911 -1.567,
            5.492 0.936 -1.245,
            0.938 5.414 -1.277,
            2.798 3.438 -1.661,
            4.612 1.436 -1.528,
            1.872 3.958 -1.678,
            3.713 1.949 -1.735,
            5.492 0.000 -1.278,
            0.938 4.466 -1.619,
            2.798 2.468 -1.865,
            4.612 0.479 -1.594,
            1.872 2.985 -1.918,
            3.713 0.977 -1.836,
            5.492 -0.936 -1.245,
            0.938 3.496 -1.894,
            2.798 1.485 -2.002,
            4.612 -0.479 -1.594,
            1.872 1.998 -2.091,
            3.713 0.000 -1.870,
            5.492 -1.867 -1.148,
            0.938 2.509 -2.102,
            2.798 0.496 -2.071,
            4.612 -1.436 -1.528,
            1.872 1.002 -2.195,
            3.713 -0.977 -1.836,
            5.492 -2.789 -0.987,
            0.938 1.510 -2.241,
            2.798 -0.496 -2.071,
            4.612 -2.385 -1.395,
            1.872 0.000 -2.230,
            3.713 -1.949 -1.735,
            0.938 0.504 -2.311,
            2.798 -1.485 -2.002,
            4.612 -3.324 -1.198,
            1.872 -1.002 -2.195,
            3.713 -2.911 -1.567,
            0.938 -0.504 -2.311,
            2.798 -2.468 -1.865,
            4.612 -4.246 -0.936,
            1.872 -1.998 -2.091,
            3.713 -3.860 -1.332,
            0.938 -1.510 -2.241,
            2.798 -3.438 -1.661,
            1.872 -2.985 -1.918,
            3.713 -4.790 -1.033,
            0.938 -2.509 -2.102,
            2.798 -4.392 -1.390,
            1.872 -3.958 -1.678,
            0.938 -3.496 -1.894,
            2.798 -5.325 -1.053,
            1.872 -4.912 -1.371,
            0.938 -4.466 -1.619,
            1.872 -5.843 -0.998,
            0.938 -5.414 -1.277
          ]
        }
        coordIndex [
          0, 1, 2, -1,
          0, 3, 1, -1,
          4, 5, 6, -1,
          7, 5, 4, -1,
          8, 9, 3, -1,
          8, 10, 9, -1,
          8, 11, 10, -1,
          8, 3, 0, -1,
          12, 13, 14, -1,
          12, 0, 13, -1,
          12, 8, 0, -1,
          15, 16, 11, -1,
          15, 17, 16, -1,
          15, 18, 17, -1,
          15, 19, 18, -1,
          15, 8, 12, -1,
          15, 11, 8, -1,
          20, 14, 21, -1,
          20, 12, 14, -1,
          22, 15, 12, -1,
          22, 12, 20, -1,
          23, 19, 15, -1,
          23, 15, 22, -1,
          23, 24, 19, -1,
          23, 25, 24, -1,
          23, 26, 25, -1,
          27, 28, 29, -1,
          27, 21, 28, -1,
          27, 20, 21, -1,
          30, 20, 27, -1,
          30, 22, 20, -1,
          31, 23, 22, -1,
          31, 22, 30, -1,
          32, 29, 33, -1,
          32, 27, 29, -1,
          34, 26, 23, -1,
          34, 23, 31, -1,
          34, 35, 26, -1,
          34, 36, 35, -1,
          34, 37, 36, -1,
          34, 38, 37, -1,
          39, 30, 27, -1,
          39, 27, 32, -1,
          40, 31, 30, -1,
          40, 30, 39, -1,
          41, 33, 42, -1,
          41, 32, 33, -1,
          43, 31, 40, -1,
          43, 34, 31, -1,
          44, 39, 32, -1,
          44, 32, 41, -1,
          45, 38, 34, -1,
          45, 34, 43, -1,
          45, 46, 38, -1,
          45, 47, 46, -1,
          45, 48, 47, -1,
          45, 49, 48, -1,
          50, 39, 44, -1,
          50, 40, 39, -1,
          51, 42, 52, -1,
          51, 41, 42, -1,
          51, 52, 53, -1,
          54, 43, 40, -1,
          54, 40, 50, -1,
          55, 41, 51, -1,
          55, 44, 41, -1,
          56, 43, 54, -1,
          56, 45, 43, -1,
          56, 57, 49, -1,
          56, 58, 57, -1,
          56, 49, 45, -1,
          59, 50, 44, -1,
          59, 44, 55, -1,
          60, 53, 61, -1,
          60, 51, 53, -1,
          62, 54, 50, -1,
          62, 50, 59, -1,
          63, 55, 51, -1,
          63, 51, 60, -1,
          64, 54, 62, -1,
          64, 56, 54, -1,
          65, 59, 55, -1,
          65, 55, 63, -1,
          66, 61, 67, -1,
          66, 60, 61, -1,
          68, 58, 56, -1,
          68, 56, 64, -1,
          68, 69, 58, -1,
          68, 70, 69, -1,
          68, 71, 70, -1,
          68, 72, 71, -1,
          73, 59, 65, -1,
          73, 62, 59, -1,
          74, 60, 66, -1,
          74, 63, 60, -1,
          75, 64, 62, -1,
          75, 62, 73, -1,
          76, 65, 63, -1,
          76, 63, 74, -1,
          77, 67, 78, -1,
          77, 78, 79, -1,
          77, 66, 67, -1,
          80, 68, 64, -1,
          80, 72, 68, -1,
          80, 64, 75, -1,
          80, 81, 72, -1,
          80, 82, 81, -1,
          80, 83, 82, -1,
          84, 73, 65, -1,
          84, 65, 76, -1,
          85, 74, 66, -1,
          85, 66, 77, -1,
          86, 75, 73, -1,
          86, 73, 84, -1,
          87, 74, 85, -1,
          87, 76, 74, -1,
          88, 79, 89, -1,
          88, 77, 79, -1,
          90, 80, 75, -1,
          90, 83, 80, -1,
          90, 75, 86, -1,
          90, 91, 83, -1,
          90, 92, 91, -1,
          90, 93, 92, -1,
          94, 84, 76, -1,
          94, 76, 87, -1,
          95, 85, 77, -1,
          95, 77, 88, -1,
          96, 86, 84, -1,
          96, 84, 94, -1,
          97, 85, 95, -1,
          97, 87, 85, -1,
          98, 89, 99, -1,
          98, 99, 5, -1,
          98, 88, 89, -1,
          100, 90, 86, -1,
          100, 101, 93, -1,
          100, 102, 101, -1,
          100, 103, 102, -1,
          100, 86, 96, -1,
          100, 93, 90, -1,
          104, 94, 87, -1,
          104, 87, 97, -1,
          105, 88, 98, -1,
          105, 95, 88, -1,
          106, 94, 104, -1,
          106, 96, 94, -1,
          107, 95, 105, -1,
          107, 97, 95, -1,
          108, 98, 5, -1,
          108, 109, 110, -1,
          108, 111, 109, -1,
          108, 7, 111, -1,
          108, 5, 7, -1,
          112, 100, 96, -1,
          112, 96, 106, -1,
          112, 113, 103, -1,
          112, 114, 113, -1,
          112, 115, 114, -1,
          112, 103, 100, -1,
          116, 104, 97, -1,
          116, 97, 107, -1,
          117, 105, 98, -1,
          117, 118, 119, -1,
          117, 120, 118, -1,
          117, 121, 120, -1,
          117, 110, 121, -1,
          117, 108, 110, -1,
          117, 98, 108, -1,
          122, 106, 104, -1,
          122, 123, 124, -1,
          122, 125, 123, -1,
          122, 104, 116, -1,
          126, 105, 117, -1,
          126, 127, 128, -1,
          126, 129, 127, -1,
          126, 119, 129, -1,
          126, 117, 119, -1,
          126, 107, 105, -1,
          130, 115, 112, -1,
          130, 131, 115, -1,
          130, 132, 131, -1,
          130, 133, 132, -1,
          130, 124, 133, -1,
          130, 122, 124, -1,
          130, 112, 106, -1,
          130, 106, 122, -1,
          134, 126, 128, -1,
          134, 116, 107, -1,
          134, 107, 126, -1,
          134, 135, 136, -1,
          134, 137, 135, -1,
          134, 138, 137, -1,
          134, 128, 138, -1,
          139, 125, 122, -1,
          139, 116, 134, -1,
          139, 122, 116, -1,
          139, 140, 125, -1,
          139, 141, 140, -1,
          139, 142, 141, -1,
          139, 136, 142, -1,
          139, 134, 136, -1,
          143, 144, 145, -1,
          143, 146, 144, -1,
          147, 145, 148, -1,
          147, 143, 145, -1,
          149, 148, 150, -1,
          149, 147, 148, -1,
          151, 150, 152, -1,
          151, 149, 150, -1,
          153, 152, 154, -1,
          153, 151, 152, -1,
          155, 154, 156, -1,
          155, 153, 154, -1,
          157, 156, 158, -1,
          157, 158, 159, -1,
          157, 155, 156, -1,
          160, 157, 159, -1,
          161, 159, 162, -1,
          161, 160, 159, -1,
          163, 162, 164, -1,
          163, 164, 165, -1,
          163, 161, 162, -1,
          166, 163, 165, -1,
          167, 165, 168, -1,
          167, 166, 165, -1,
          169, 168, 170, -1,
          169, 167, 168, -1,
          171, 170, 172, -1,
          171, 172, 173, -1,
          171, 169, 170, -1,
          174, 171, 173, -1,
          175, 173, 176, -1,
          175, 174, 173, -1,
          177, 176, 178, -1,
          177, 175, 176, -1,
          179, 177, 178, -1,
          179, 178, 180, -1,
          179, 180, 181, -1,
          182, 179, 181, -1,
          183, 182, 181, -1,
          183, 181, 184, -1,
          183, 184, 185, -1,
          186, 183, 185, -1,
          187, 185, 188, -1,
          187, 186, 185, -1,
          187, 188, 189, -1,
          190, 187, 189, -1,
          191, 189, 192, -1,
          191, 192, 193, -1,
          191, 190, 189, -1,
          194, 193, 195, -1,
          194, 191, 193, -1,
          196, 194, 195, -1,
          197, 195, 198, -1,
          197, 198, 199, -1,
          197, 196, 195, -1,
          200, 197, 199, -1,
          201, 199, 202, -1,
          201, 200, 199, -1,
          203, 202, 204, -1,
          203, 201, 202, -1,
          205, 204, 206, -1,
          205, 203, 204, -1,
          207, 206, 2, -1,
          207, 205, 206, -1,
          208, 2, 1, -1,
          208, 207, 2, -1,
          209, 1, 3, -1,
          209, 208, 1, -1,
          210, 3, 9, -1,
          210, 209, 3, -1,
          211, 9, 10, -1,
          211, 210, 9, -1,
          212, 10, 11, -1,
          212, 11, 16, -1,
          212, 211, 10, -1,
          213, 16, 17, -1,
          213, 212, 16, -1,
          214, 213, 17, -1,
          215, 17, 18, -1,
          215, 214, 17, -1,
          216, 18, 19, -1,
          216, 19, 24, -1,
          216, 215, 18, -1,
          217, 216, 24, -1,
          218, 217, 24, -1,
          218, 24, 25, -1,
          218, 25, 26, -1,
          219, 218, 26, -1,
          220, 219, 26, -1,
          220, 26, 35, -1,
          221, 220, 35, -1,
          221, 35, 36, -1,
          221, 36, 37, -1,
          222, 221, 37, -1,
          223, 222, 37, -1,
          223, 37, 38, -1,
          224, 223, 38, -1,
          224, 38, 46, -1,
          224, 46, 47, -1,
          225, 224, 47, -1,
          226, 225, 47, -1,
          226, 47, 48, -1,
          226, 48, 49, -1,
          227, 226, 49, -1,
          228, 227, 49, -1,
          228, 49, 57, -1,
          229, 228, 57, -1,
          229, 57, 58, -1,
          229, 58, 69, -1,
          230, 229, 69, -1,
          231, 69, 70, -1,
          231, 230, 69, -1,
          232, 70, 71, -1,
          232, 231, 70, -1,
          233, 71, 72, -1,
          233, 232, 71, -1,
          234, 72, 81, -1,
          234, 233, 72, -1,
          235, 81, 82, -1,
          235, 234, 81, -1,
          236, 82, 83, -1,
          236, 235, 82, -1,
          237, 83, 91, -1,
          237, 236, 83, -1,
          238, 91, 92, -1,
          238, 237, 91, -1,
          239, 92, 93, -1,
          239, 238, 92, -1,
          240, 241, 242, -1,
          240, 242, 243, -1,
          208, 244, 207, -1,
          209, 244, 208, -1,
          245, 246, 247, -1,
          245, 247, 248, -1,
          245, 248, 241, -1,
          245, 241, 240, -1,
          249, 245, 240, -1,
          249, 240, 250, -1,
          249, 250, 251, -1,
          252, 246, 245, -1,
          252, 245, 249, -1,
          252, 253, 254, -1,
          252, 254, 255, -1,
          252, 255, 256, -1,
          252, 256, 246, -1,
          257, 249, 251, -1,
          257, 251, 258, -1,
          259, 249, 257, -1,
          259, 252, 249, -1,
          260, 261, 262, -1,
          260, 262, 263, -1,
          260, 263, 253, -1,
          260, 253, 252, -1,
          260, 252, 259, -1,
          264, 257, 258, -1,
          264, 258, 265, -1,
          264, 265, 266, -1,
          267, 257, 264, -1,
          267, 259, 257, -1,
          268, 260, 259, -1,
          268, 259, 267, -1,
          269, 264, 266, -1,
          269, 266, 270, -1,
          271, 260, 268, -1,
          271, 261, 260, -1,
          271, 272, 273, -1,
          271, 273, 274, -1,
          271, 274, 275, -1,
          271, 275, 261, -1,
          276, 267, 264, -1,
          276, 264, 269, -1,
          277, 268, 267, -1,
          277, 267, 276, -1,
          278, 269, 270, -1,
          278, 270, 279, -1,
          280, 271, 268, -1,
          280, 268, 277, -1,
          281, 276, 269, -1,
          281, 269, 278, -1,
          282, 271, 280, -1,
          282, 283, 284, -1,
          282, 284, 285, -1,
          282, 285, 286, -1,
          282, 286, 272, -1,
          282, 272, 271, -1,
          287, 277, 276, -1,
          287, 276, 281, -1,
          288, 278, 279, -1,
          288, 279, 289, -1,
          288, 289, 290, -1,
          291, 277, 287, -1,
          291, 280, 277, -1,
          292, 281, 278, -1,
          292, 278, 288, -1,
          293, 282, 280, -1,
          293, 294, 295, -1,
          293, 295, 283, -1,
          293, 280, 291, -1,
          293, 283, 282, -1,
          296, 287, 281, -1,
          296, 281, 292, -1,
          297, 288, 290, -1,
          297, 290, 298, -1,
          299, 291, 287, -1,
          299, 287, 296, -1,
          300, 288, 297, -1,
          300, 292, 288, -1,
          301, 291, 299, -1,
          301, 293, 291, -1,
          302, 292, 300, -1,
          302, 296, 292, -1,
          303, 297, 298, -1,
          303, 298, 304, -1,
          305, 306, 307, -1,
          305, 307, 308, -1,
          305, 293, 301, -1,
          305, 308, 309, -1,
          305, 309, 294, -1,
          305, 294, 293, -1,
          310, 296, 302, -1,
          310, 299, 296, -1,
          311, 297, 303, -1,
          311, 300, 297, -1,
          312, 299, 310, -1,
          312, 301, 299, -1,
          313, 302, 300, -1,
          313, 300, 311, -1,
          314, 303, 304, -1,
          314, 315, 316, -1,
          314, 304, 315, -1,
          317, 306, 305, -1,
          317, 318, 319, -1,
          317, 319, 320, -1,
          317, 320, 306, -1,
          317, 301, 312, -1,
          317, 305, 301, -1,
          321, 302, 313, -1,
          321, 310, 302, -1,
          322, 311, 303, -1,
          322, 303, 314, -1,
          323, 312, 310, -1,
          323, 310, 321, -1,
          324, 313, 311, -1,
          324, 311, 322, -1,
          325, 314, 316, -1,
          325, 316, 326, -1,
          327, 239, 328, -1,
          327, 328, 329, -1,
          327, 329, 318, -1,
          327, 318, 317, -1,
          327, 317, 312, -1,
          327, 312, 323, -1,
          330, 321, 313, -1,
          330, 313, 324, -1,
          331, 314, 325, -1,
          331, 322, 314, -1,
          332, 323, 321, -1,
          332, 321, 330, -1,
          333, 324, 322, -1,
          333, 322, 331, -1,
          334, 335, 244, -1,
          334, 326, 335, -1,
          334, 325, 326, -1,
          336, 236, 237, -1,
          336, 237, 238, -1,
          336, 238, 239, -1,
          336, 327, 323, -1,
          336, 239, 327, -1,
          336, 323, 332, -1,
          337, 330, 324, -1,
          337, 324, 333, -1,
          338, 331, 325, -1,
          338, 325, 334, -1,
          339, 330, 337, -1,
          339, 332, 330, -1,
          340, 331, 338, -1,
          340, 333, 331, -1,
          341, 209, 210, -1,
          341, 210, 211, -1,
          341, 211, 212, -1,
          341, 244, 209, -1,
          341, 334, 244, -1,
          342, 336, 332, -1,
          342, 332, 339, -1,
          342, 233, 234, -1,
          342, 234, 235, -1,
          342, 235, 236, -1,
          342, 236, 336, -1,
          343, 337, 333, -1,
          343, 333, 340, -1,
          344, 212, 213, -1,
          344, 213, 214, -1,
          344, 214, 215, -1,
          344, 215, 216, -1,
          344, 334, 341, -1,
          344, 341, 212, -1,
          344, 338, 334, -1,
          345, 339, 337, -1,
          345, 337, 343, -1,
          345, 227, 228, -1,
          345, 228, 229, -1,
          346, 216, 217, -1,
          346, 217, 218, -1,
          346, 218, 219, -1,
          346, 344, 216, -1,
          346, 340, 338, -1,
          346, 338, 344, -1,
          347, 339, 345, -1,
          347, 233, 342, -1,
          347, 229, 230, -1,
          347, 230, 231, -1,
          347, 231, 232, -1,
          347, 232, 233, -1,
          347, 345, 229, -1,
          347, 342, 339, -1,
          348, 219, 220, -1,
          348, 220, 221, -1,
          348, 221, 222, -1,
          348, 222, 223, -1,
          348, 346, 219, -1,
          348, 343, 340, -1,
          348, 340, 346, -1,
          349, 223, 224, -1,
          349, 348, 223, -1,
          349, 224, 225, -1,
          349, 225, 226, -1,
          349, 226, 227, -1,
          349, 345, 343, -1,
          349, 343, 348, -1,
          349, 227, 345, -1,
          240, 243, 350, -1,
          240, 350, 351, -1,
          205, 244, 203, -1,
          207, 244, 205, -1,
          352, 353, 354, -1,
          352, 354, 355, -1,
          356, 357, 358, -1,
          356, 358, 359, -1,
          356, 359, 360, -1,
          361, 362, 363, -1,
          361, 363, 364, -1,
          361, 364, 365, -1,
          366, 357, 356, -1,
          366, 367, 368, -1,
          366, 368, 369, -1,
          366, 369, 370, -1,
          366, 370, 357, -1,
          371, 355, 372, -1,
          371, 372, 373, -1,
          371, 373, 362, -1,
          371, 362, 361, -1,
          371, 352, 355, -1,
          374, 375, 376, -1,
          374, 376, 377, -1,
          374, 377, 367, -1,
          378, 360, 353, -1,
          378, 352, 371, -1,
          378, 353, 352, -1,
          378, 356, 360, -1,
          379, 361, 365, -1,
          379, 365, 380, -1,
          379, 380, 381, -1,
          379, 381, 382, -1,
          383, 356, 378, -1,
          383, 366, 356, -1,
          384, 371, 361, -1,
          384, 361, 379, -1,
          385, 374, 367, -1,
          385, 366, 383, -1,
          385, 367, 366, -1,
          386, 378, 371, -1,
          386, 371, 384, -1,
          387, 382, 388, -1,
          387, 388, 389, -1,
          387, 389, 390, -1,
          387, 379, 382, -1,
          391, 250, 240, -1,
          391, 351, 392, -1,
          391, 392, 393, -1,
          391, 393, 375, -1,
          391, 375, 374, -1,
          391, 240, 351, -1,
          391, 374, 385, -1,
          394, 378, 386, -1,
          394, 383, 378, -1,
          395, 384, 379, -1,
          395, 379, 387, -1,
          396, 383, 394, -1,
          396, 385, 383, -1,
          397, 386, 384, -1,
          397, 384, 395, -1,
          398, 387, 390, -1,
          398, 390, 399, -1,
          398, 399, 146, -1,
          398, 146, 143, -1,
          398, 143, 147, -1,
          400, 391, 385, -1,
          400, 251, 250, -1,
          400, 385, 396, -1,
          400, 250, 391, -1,
          401, 394, 386, -1,
          401, 386, 397, -1,
          402, 395, 387, -1,
          402, 387, 398, -1,
          403, 394, 401, -1,
          403, 396, 394, -1,
          404, 397, 395, -1,
          404, 395, 402, -1,
          405, 398, 147, -1,
          405, 147, 149, -1,
          405, 149, 151, -1,
          405, 151, 153, -1,
          406, 258, 251, -1,
          406, 265, 258, -1,
          406, 396, 403, -1,
          406, 251, 400, -1,
          406, 400, 396, -1,
          407, 401, 397, -1,
          407, 397, 404, -1,
          408, 398, 405, -1,
          408, 402, 398, -1,
          409, 401, 407, -1,
          409, 403, 401, -1,
          410, 402, 408, -1,
          410, 404, 402, -1,
          411, 405, 153, -1,
          411, 153, 155, -1,
          411, 155, 157, -1,
          411, 157, 160, -1,
          412, 266, 265, -1,
          412, 403, 409, -1,
          412, 265, 406, -1,
          412, 406, 403, -1,
          413, 407, 404, -1,
          413, 404, 410, -1,
          414, 405, 411, -1,
          414, 408, 405, -1,
          415, 409, 407, -1,
          415, 407, 413, -1,
          416, 410, 408, -1,
          416, 408, 414, -1,
          417, 411, 160, -1,
          417, 160, 161, -1,
          417, 161, 163, -1,
          417, 163, 166, -1,
          418, 266, 412, -1,
          418, 270, 266, -1,
          418, 279, 270, -1,
          418, 412, 409, -1,
          418, 409, 415, -1,
          419, 410, 416, -1,
          419, 413, 410, -1,
          420, 414, 411, -1,
          420, 411, 417, -1,
          421, 413, 419, -1,
          421, 415, 413, -1,
          422, 414, 420, -1,
          422, 416, 414, -1,
          423, 418, 415, -1,
          423, 289, 279, -1,
          423, 279, 418, -1,
          423, 415, 421, -1,
          424, 416, 422, -1,
          424, 419, 416, -1,
          425, 166, 167, -1,
          425, 167, 169, -1,
          425, 169, 171, -1,
          425, 417, 166, -1,
          425, 420, 417, -1,
          426, 419, 424, -1,
          426, 421, 419, -1,
          427, 422, 420, -1,
          427, 420, 425, -1,
          428, 289, 423, -1,
          428, 290, 289, -1,
          428, 421, 426, -1,
          428, 423, 421, -1,
          429, 424, 422, -1,
          429, 422, 427, -1,
          430, 425, 171, -1,
          430, 171, 174, -1,
          430, 174, 175, -1,
          431, 424, 429, -1,
          431, 426, 424, -1,
          432, 430, 175, -1,
          432, 427, 425, -1,
          432, 175, 177, -1,
          432, 425, 430, -1,
          433, 290, 428, -1,
          433, 428, 426, -1,
          433, 426, 431, -1,
          433, 304, 298, -1,
          433, 298, 290, -1,
          434, 427, 432, -1,
          434, 429, 427, -1,
          435, 429, 434, -1,
          435, 431, 429, -1,
          436, 432, 177, -1,
          436, 177, 179, -1,
          436, 179, 182, -1,
          436, 182, 183, -1,
          437, 304, 433, -1,
          437, 431, 435, -1,
          437, 315, 304, -1,
          437, 433, 431, -1,
          438, 432, 436, -1,
          438, 434, 432, -1,
          439, 434, 438, -1,
          439, 435, 434, -1,
          440, 437, 435, -1,
          440, 435, 439, -1,
          440, 315, 437, -1,
          440, 326, 316, -1,
          440, 316, 315, -1,
          441, 438, 436, -1,
          441, 436, 183, -1,
          441, 183, 186, -1,
          441, 186, 187, -1,
          441, 187, 190, -1,
          441, 190, 191, -1,
          442, 438, 441, -1,
          442, 441, 191, -1,
          442, 439, 438, -1,
          443, 440, 439, -1,
          443, 439, 442, -1,
          443, 326, 440, -1,
          443, 335, 326, -1,
          444, 442, 191, -1,
          444, 191, 194, -1,
          444, 194, 196, -1,
          444, 196, 197, -1,
          445, 443, 442, -1,
          445, 203, 244, -1,
          445, 442, 444, -1,
          445, 335, 443, -1,
          445, 444, 197, -1,
          445, 197, 200, -1,
          445, 200, 201, -1,
          445, 201, 203, -1,
          445, 244, 335, -1,
          328, 239, 93, -1,
          328, 93, 101, -1,
          329, 101, 102, -1,
          329, 328, 101, -1,
          318, 102, 103, -1,
          318, 329, 102, -1,
          319, 103, 113, -1,
          319, 318, 103, -1,
          320, 113, 114, -1,
          320, 319, 113, -1,
          306, 114, 115, -1,
          306, 320, 114, -1,
          307, 115, 131, -1,
          307, 306, 115, -1,
          308, 131, 132, -1,
          308, 307, 131, -1,
          309, 132, 133, -1,
          309, 308, 132, -1,
          294, 133, 124, -1,
          294, 309, 133, -1,
          295, 124, 123, -1,
          295, 294, 124, -1,
          283, 123, 125, -1,
          283, 295, 123, -1,
          284, 125, 140, -1,
          284, 283, 125, -1,
          285, 140, 141, -1,
          285, 284, 140, -1,
          286, 141, 142, -1,
          286, 285, 141, -1,
          272, 142, 136, -1,
          272, 286, 142, -1,
          273, 136, 135, -1,
          273, 272, 136, -1,
          274, 273, 135, -1,
          274, 135, 137, -1,
          275, 274, 137, -1,
          275, 137, 138, -1,
          275, 138, 128, -1,
          261, 275, 128, -1,
          262, 261, 128, -1,
          262, 128, 127, -1,
          263, 127, 129, -1,
          263, 262, 127, -1,
          253, 129, 119, -1,
          253, 263, 129, -1,
          254, 119, 118, -1,
          254, 253, 119, -1,
          255, 118, 120, -1,
          255, 254, 118, -1,
          256, 120, 121, -1,
          256, 255, 120, -1,
          246, 121, 110, -1,
          246, 256, 121, -1,
          247, 110, 109, -1,
          247, 109, 111, -1,
          247, 246, 110, -1,
          248, 247, 111, -1,
          241, 111, 7, -1,
          241, 248, 111, -1,
          242, 7, 4, -1,
          242, 241, 7, -1,
          243, 4, 6, -1,
          243, 6, 446, -1,
          243, 242, 4, -1,
          350, 446, 447, -1,
          350, 243, 446, -1,
          351, 350, 447, -1,
          392, 447, 448, -1,
          392, 448, 449, -1,
          392, 351, 447, -1,
          393, 392, 449, -1,
          375, 449, 450, -1,
          375, 450, 451, -1,
          375, 393, 449, -1,
          376, 375, 451, -1,
          377, 451, 452, -1,
          377, 452, 453, -1,
          377, 376, 451, -1,
          367, 377, 453, -1,
          368, 453, 454, -1,
          368, 367, 453, -1,
          369, 368, 454, -1,
          369, 454, 455, -1,
          369, 455, 456, -1,
          370, 369, 456, -1,
          357, 370, 456, -1,
          357, 456, 457, -1,
          358, 357, 457, -1,
          358, 457, 458, -1,
          358, 458, 459, -1,
          359, 358, 459, -1,
          360, 359, 459, -1,
          360, 459, 460, -1,
          353, 360, 460, -1,
          353, 460, 461, -1,
          353, 461, 462, -1,
          354, 353, 462, -1,
          355, 354, 462, -1,
          355, 462, 463, -1,
          355, 463, 464, -1,
          372, 355, 464, -1,
          373, 372, 464, -1,
          373, 464, 465, -1,
          362, 373, 465, -1,
          362, 465, 466, -1,
          363, 362, 466, -1,
          363, 466, 467, -1,
          364, 363, 467, -1,
          364, 467, 468, -1,
          365, 468, 469, -1,
          365, 364, 468, -1,
          380, 469, 470, -1,
          380, 365, 469, -1,
          381, 470, 471, -1,
          381, 471, 472, -1,
          381, 380, 470, -1,
          382, 381, 472, -1,
          388, 472, 473, -1,
          388, 382, 472, -1,
          389, 473, 474, -1,
          389, 474, 475, -1,
          389, 388, 473, -1,
          390, 475, 476, -1,
          390, 389, 475, -1,
          399, 390, 476, -1,
          146, 476, 144, -1,
          146, 399, 476, -1,
          0, 206, 204, -1,
          0, 2, 206, -1,
          446, 5, 447, -1,
          6, 5, 446, -1,
          477, 173, 172, -1,
          477, 176, 173, -1,
          478, 180, 178, -1,
          478, 181, 180, -1,
          478, 184, 181, -1,
          479, 162, 159, -1,
          479, 164, 162, -1,
          479, 165, 164, -1,
          480, 184, 478, -1,
          480, 185, 184, -1,
          480, 188, 185, -1,
          480, 189, 188, -1,
          480, 192, 189, -1,
          481, 165, 479, -1,
          481, 477, 172, -1,
          481, 168, 165, -1,
          481, 170, 168, -1,
          481, 172, 170, -1,
          482, 193, 192, -1,
          482, 195, 193, -1,
          482, 198, 195, -1,
          483, 176, 477, -1,
          483, 477, 481, -1,
          483, 178, 176, -1,
          483, 478, 178, -1,
          484, 156, 154, -1,
          484, 158, 156, -1,
          484, 159, 158, -1,
          484, 479, 159, -1,
          485, 480, 478, -1,
          485, 478, 483, -1,
          486, 479, 484, -1,
          486, 481, 479, -1,
          487, 192, 480, -1,
          487, 480, 485, -1,
          487, 482, 192, -1,
          488, 483, 481, -1,
          488, 481, 486, -1,
          489, 484, 154, -1,
          489, 150, 148, -1,
          489, 152, 150, -1,
          489, 154, 152, -1,
          490, 482, 487, -1,
          490, 13, 0, -1,
          490, 199, 198, -1,
          490, 202, 199, -1,
          490, 204, 202, -1,
          490, 198, 482, -1,
          490, 0, 204, -1,
          491, 485, 483, -1,
          491, 483, 488, -1,
          492, 484, 489, -1,
          492, 486, 484, -1,
          493, 487, 485, -1,
          493, 485, 491, -1,
          494, 488, 486, -1,
          494, 486, 492, -1,
          495, 489, 148, -1,
          495, 145, 144, -1,
          495, 148, 145, -1,
          495, 476, 475, -1,
          495, 144, 476, -1,
          496, 14, 13, -1,
          496, 13, 490, -1,
          496, 490, 487, -1,
          496, 487, 493, -1,
          497, 488, 494, -1,
          497, 491, 488, -1,
          498, 489, 495, -1,
          498, 492, 489, -1,
          499, 493, 491, -1,
          499, 491, 497, -1,
          500, 494, 492, -1,
          500, 492, 498, -1,
          501, 495, 475, -1,
          501, 473, 472, -1,
          501, 474, 473, -1,
          501, 475, 474, -1,
          502, 496, 493, -1,
          502, 14, 496, -1,
          502, 493, 499, -1,
          502, 28, 21, -1,
          502, 21, 14, -1,
          503, 497, 494, -1,
          503, 494, 500, -1,
          504, 498, 495, -1,
          504, 495, 501, -1,
          505, 497, 503, -1,
          505, 499, 497, -1,
          506, 498, 504, -1,
          506, 500, 498, -1,
          507, 501, 472, -1,
          507, 470, 469, -1,
          507, 471, 470, -1,
          507, 472, 471, -1,
          508, 29, 28, -1,
          508, 499, 505, -1,
          508, 502, 499, -1,
          508, 28, 502, -1,
          509, 503, 500, -1,
          509, 500, 506, -1,
          510, 504, 501, -1,
          510, 501, 507, -1,
          511, 503, 509, -1,
          511, 505, 503, -1,
          512, 504, 510, -1,
          512, 506, 504, -1,
          513, 507, 469, -1,
          513, 467, 466, -1,
          513, 468, 467, -1,
          513, 469, 468, -1,
          514, 42, 33, -1,
          514, 33, 29, -1,
          514, 508, 505, -1,
          514, 505, 511, -1,
          514, 29, 508, -1,
          515, 506, 512, -1,
          515, 509, 506, -1,
          516, 510, 507, -1,
          516, 507, 513, -1,
          517, 511, 509, -1,
          517, 509, 515, -1,
          518, 512, 510, -1,
          518, 510, 516, -1,
          519, 52, 42, -1,
          519, 42, 514, -1,
          519, 511, 517, -1,
          519, 514, 511, -1,
          520, 512, 518, -1,
          520, 515, 512, -1,
          521, 513, 466, -1,
          521, 464, 463, -1,
          521, 465, 464, -1,
          521, 466, 465, -1,
          521, 516, 513, -1,
          522, 517, 515, -1,
          522, 515, 520, -1,
          523, 518, 516, -1,
          523, 516, 521, -1,
          524, 53, 52, -1,
          524, 52, 519, -1,
          524, 519, 517, -1,
          524, 517, 522, -1,
          525, 520, 518, -1,
          525, 518, 523, -1,
          526, 521, 463, -1,
          526, 462, 461, -1,
          526, 463, 462, -1,
          527, 520, 525, -1,
          527, 522, 520, -1,
          528, 526, 461, -1,
          528, 461, 460, -1,
          528, 521, 526, -1,
          528, 523, 521, -1,
          529, 61, 53, -1,
          529, 524, 522, -1,
          529, 67, 61, -1,
          529, 522, 527, -1,
          529, 53, 524, -1,
          530, 523, 528, -1,
          530, 525, 523, -1,
          531, 527, 525, -1,
          531, 525, 530, -1,
          532, 528, 460, -1,
          532, 458, 457, -1,
          532, 459, 458, -1,
          532, 460, 459, -1,
          533, 78, 67, -1,
          533, 527, 531, -1,
          533, 67, 529, -1,
          533, 529, 527, -1,
          534, 530, 528, -1,
          534, 528, 532, -1,
          535, 530, 534, -1,
          535, 531, 530, -1,
          536, 79, 78, -1,
          536, 89, 79, -1,
          536, 78, 533, -1,
          536, 533, 531, -1,
          536, 531, 535, -1,
          537, 534, 532, -1,
          537, 532, 457, -1,
          537, 454, 453, -1,
          537, 455, 454, -1,
          537, 456, 455, -1,
          537, 457, 456, -1,
          538, 535, 534, -1,
          538, 537, 453, -1,
          538, 534, 537, -1,
          539, 99, 89, -1,
          539, 89, 536, -1,
          539, 535, 538, -1,
          539, 536, 535, -1,
          540, 538, 453, -1,
          540, 451, 450, -1,
          540, 452, 451, -1,
          540, 453, 452, -1,
          541, 5, 99, -1,
          541, 99, 539, -1,
          541, 447, 5, -1,
          541, 538, 540, -1,
          541, 539, 538, -1,
          541, 540, 450, -1,
          541, 448, 447, -1,
          541, 449, 448, -1,
          541, 450, 449, -1
        ]
      }
    }
}
