{"asset":{"version":"2.0","generator":"microscope_builder_4 scripts/catalog/dedupe-mounted-lens-housings.mjs"},"scene":0,"scenes":[{"nodes":[0]}],"nodes":[{"mesh":0}],"meshes":[{"primitives":[{"attributes":{"POSITION":1,"NORMAL":2},"indices":0,"mode":4},{"attributes":{"POSITION":4,"NORMAL":5},"indices":3,"mode":4},{"attributes":{"POSITION":7,"NORMAL":8},"indices":6,"mode":4}]}],"buffers":[{"uri":"../shared/lens-components/bc/bc7a14ed05167c58a06f78487245dc34c24a0699fab6b05bffb486a0dd759704.bin","byteLength":8532},{"uri":"lb1258-a-ml.bin","byteLength":138972}],"bufferViews":[{"buffer":0,"byteOffset":0,"byteLength":2844,"target":34963},{"buffer":0,"byteOffset":2844,"byteLength":2844,"target":34962},{"buffer":0,"byteOffset":5688,"byteLength":2844,"target":34962},{"buffer":1,"byteOffset":0,"byteLength":45204,"target":34963},{"buffer":1,"byteOffset":45204,"byteLength":45204,"target":34962},{"buffer":1,"byteOffset":90408,"byteLength":45204,"target":34962},{"buffer":1,"byteOffset":135612,"byteLength":1104,"target":34963},{"buffer":1,"byteOffset":136716,"byteLength":1128,"target":34962},{"buffer":1,"byteOffset":137844,"byteLength":1128,"target":34962}],"accessors":[{"bufferView":0,"componentType":5123,"count":1422,"type":"SCALAR"},{"bufferView":1,"componentType":5126,"count":237,"type":"VEC3","min":[4.883999824523926,-6.794000148773193,-6.794000148773193],"max":[6.534999847412109,6.794000148773193,6.794000148773193]},{"bufferView":2,"componentType":5126,"count":237,"type":"VEC3"},{"bufferView":3,"componentType":5123,"count":22602,"type":"SCALAR"},{"bufferView":4,"componentType":5126,"count":3767,"type":"VEC3","min":[0,-8.890000343322754,-8.890000343322754],"max":[10.413999557495117,8.890000343322754,8.890000343322754]},{"bufferView":5,"componentType":5126,"count":3767,"type":"VEC3"},{"bufferView":6,"componentType":5123,"count":552,"type":"SCALAR"},{"bufferView":7,"componentType":5126,"count":94,"type":"VEC3","min":[2.250999927520752,-6.349999904632568,-6.349999904632568],"max":[5.390999794006348,6.349999904632568,6.349999904632568]},{"bufferView":8,"componentType":5126,"count":94,"type":"VEC3"}]}
