#VRML V2.0 utf8
WorldInfo {
  title "Exported triangle mesh to VRML97"
  info ["Created by FreeCAD"
        "<https://www.freecad.org>"]
}

Transform {
  scale 1 1 1
  rotation 0 0 1 0
  scaleOrientation 0 0 1 0
  center 0.000 0.000 0.000
  translation 0.000 0.000 0.000
  children
    Shape { 
      appearance
      Appearance {
        material
        Material {
          diffuseColor 0.8 0.8 0.8
        }
      }
      geometry
      IndexedFaceSet {
        coord
        Coordinate {
          point [
            0.000 5.094 -1.140,
            -0.312 6.342 -0.899,
            0.000 6.350 -0.899,
            -0.622 6.319 -0.899,
            -0.932 6.281 -0.899,
            -0.312 -6.342 -0.899,
            -0.000 -5.094 -1.140,
            -0.000 -6.350 -0.899,
            -0.622 -6.319 -0.899,
            -0.932 -6.281 -0.899,
            -1.599 5.446 -1.035,
            -1.239 6.228 -0.899,
            -1.543 6.160 -0.899,
            -1.843 6.077 -0.899,
            -2.139 5.979 -0.899,
            -2.430 5.867 -0.899,
            -2.715 5.740 -0.899,
            -1.599 3.642 -1.308,
            0.000 3.828 -1.328,
            0.000 2.556 -1.462,
            -3.193 4.527 -1.060,
            -2.993 5.600 -0.899,
            -3.265 5.447 -0.899,
            -3.528 5.280 -0.899,
            -3.783 5.100 -0.899,
            -4.028 4.909 -0.899,
            -4.264 4.705 -0.899,
            -4.490 4.490 -0.899,
            -1.599 1.824 -1.473,
            0.000 1.279 -1.543,
            -3.193 2.723 -1.279,
            -4.778 3.601 -0.975,
            -4.705 4.264 -0.899,
            -4.909 4.028 -0.899,
            -5.100 3.783 -0.899,
            -5.280 3.528 -0.899,
            -5.447 3.265 -0.899,
            -1.599 -0.000 -1.528,
            0.000 -0.000 -1.570,
            -0.000 -1.279 -1.543,
            -3.193 0.909 -1.388,
            -4.778 1.804 -1.137,
            -5.600 2.993 -0.899,
            -5.740 2.715 -0.899,
            -5.867 2.430 -0.899,
            -5.979 2.139 -0.899,
            -6.077 1.843 -0.899,
            -6.160 1.543 -0.899,
            -6.228 1.239 -0.899,
            -6.281 0.932 -0.899,
            -1.599 -1.824 -1.473,
            -0.000 -2.556 -1.462,
            -3.193 -0.909 -1.388,
            -4.778 -0.000 -1.192,
            -6.342 -0.312 -0.899,
            -6.350 -0.000 -0.899,
            -6.319 -0.622 -0.899,
            -6.281 -0.932 -0.899,
            -6.319 0.622 -0.899,
            -6.342 0.312 -0.899,
            -1.599 -3.642 -1.308,
            -0.000 -3.828 -1.328,
            -3.193 -2.723 -1.279,
            -4.778 -1.804 -1.137,
            -6.228 -1.239 -0.899,
            -6.160 -1.543 -0.899,
            -6.077 -1.843 -0.899,
            -5.979 -2.139 -0.899,
            -5.867 -2.430 -0.899,
            -5.740 -2.715 -0.899,
            -5.600 -2.993 -0.899,
            -5.447 -3.265 -0.899,
            -1.599 -5.446 -1.035,
            -2.430 -5.867 -0.899,
            -2.715 -5.740 -0.899,
            -2.139 -5.979 -0.899,
            -1.843 -6.077 -0.899,
            -1.543 -6.160 -0.899,
            -1.239 -6.228 -0.899,
            -3.193 -4.527 -1.060,
            -4.264 -4.705 -0.899,
            -4.490 -4.490 -0.899,
            -4.028 -4.909 -0.899,
            -3.783 -5.100 -0.899,
            -3.528 -5.280 -0.899,
            -3.265 -5.447 -0.899,
            -2.993 -5.600 -0.899,
            -4.778 -3.601 -0.975,
            -5.280 -3.528 -0.899,
            -5.100 -3.783 -0.899,
            -4.909 -4.028 -0.899,
            -4.705 -4.264 -0.899,
            6.342 0.312 0.899,
            6.350 -0.000 -0.899,
            6.342 0.312 -0.899,
            6.350 -0.000 0.899,
            6.319 0.622 0.899,
            6.319 0.622 -0.899,
            6.281 0.932 0.899,
            6.281 0.932 -0.899,
            6.228 1.239 0.899,
            6.228 1.239 -0.899,
            6.160 1.543 0.899,
            6.160 1.543 -0.899,
            6.077 1.843 0.899,
            6.077 1.843 -0.899,
            5.979 2.139 0.899,
            5.979 2.139 -0.899,
            5.867 2.430 -0.899,
            5.867 2.430 0.899,
            5.740 2.715 0.899,
            5.740 2.715 -0.899,
            5.600 2.993 0.899,
            5.600 2.993 -0.899,
            5.447 3.265 0.899,
            5.447 3.265 -0.899,
            5.280 3.528 -0.899,
            5.280 3.528 0.899,
            5.100 3.783 0.899,
            5.100 3.783 -0.899,
            4.909 4.028 0.899,
            4.909 4.028 -0.899,
            4.705 4.264 0.899,
            4.705 4.264 -0.899,
            4.490 4.490 0.899,
            4.490 4.490 -0.899,
            4.264 4.705 -0.899,
            4.264 4.705 0.899,
            4.028 4.909 0.899,
            4.028 4.909 -0.899,
            3.783 5.100 0.899,
            3.783 5.100 -0.899,
            3.528 5.280 -0.899,
            3.528 5.280 0.899,
            3.265 5.447 -0.899,
            3.265 5.447 0.899,
            2.993 5.600 0.899,
            2.993 5.600 -0.899,
            2.715 5.740 0.899,
            2.715 5.740 -0.899,
            2.430 5.867 -0.899,
            2.430 5.867 0.899,
            2.139 5.979 0.899,
            2.139 5.979 -0.899,
            1.843 6.077 0.899,
            1.843 6.077 -0.899,
            1.543 6.160 0.899,
            1.543 6.160 -0.899,
            1.239 6.228 0.899,
            1.239 6.228 -0.899,
            0.932 6.281 0.899,
            0.932 6.281 -0.899,
            0.622 6.319 0.899,
            0.622 6.319 -0.899,
            0.312 6.342 -0.899,
            0.312 6.342 0.899,
            0.000 6.350 0.899,
            -0.312 6.342 0.899,
            -0.622 6.319 0.899,
            -0.932 6.281 0.899,
            -1.239 6.228 0.899,
            -1.543 6.160 0.899,
            -1.843 6.077 0.899,
            -2.139 5.979 0.899,
            -2.430 5.867 0.899,
            -2.715 5.740 0.899,
            -2.993 5.600 0.899,
            -3.265 5.447 0.899,
            -3.528 5.280 0.899,
            -3.783 5.100 0.899,
            -4.028 4.909 0.899,
            -4.264 4.705 0.899,
            -4.490 4.490 0.899,
            -4.705 4.264 0.899,
            -4.909 4.028 0.899,
            -5.100 3.783 0.899,
            -5.280 3.528 0.899,
            -5.447 3.265 0.899,
            -5.600 2.993 0.899,
            -5.740 2.715 0.899,
            -5.867 2.430 0.899,
            -5.979 2.139 0.899,
            -6.077 1.843 0.899,
            -6.160 1.543 0.899,
            -6.228 1.239 0.899,
            -6.281 0.932 0.899,
            -6.319 0.622 0.899,
            -6.342 0.312 0.899,
            -6.350 -0.000 0.899,
            -0.000 -5.094 1.140,
            -0.932 -6.281 0.899,
            -0.622 -6.319 0.899,
            -0.312 -6.342 0.899,
            -0.000 -6.350 0.899,
            0.000 5.094 1.140,
            -1.599 -5.446 1.035,
            -2.715 -5.740 0.899,
            -2.430 -5.867 0.899,
            -2.139 -5.979 0.899,
            -1.843 -6.077 0.899,
            -1.543 -6.160 0.899,
            -1.239 -6.228 0.899,
            -1.599 -3.642 1.308,
            -0.000 -3.828 1.328,
            -0.000 -2.556 1.462,
            -3.193 -4.527 1.060,
            -4.490 -4.490 0.899,
            -4.264 -4.705 0.899,
            -4.028 -4.909 0.899,
            -3.783 -5.100 0.899,
            -3.528 -5.280 0.899,
            -3.265 -5.447 0.899,
            -2.993 -5.600 0.899,
            -1.599 -1.824 1.473,
            -0.000 -1.279 1.543,
            -3.193 -2.723 1.279,
            -4.778 -3.601 0.975,
            -5.447 -3.265 0.899,
            -5.280 -3.528 0.899,
            -5.100 -3.783 0.899,
            -4.909 -4.028 0.899,
            -4.705 -4.264 0.899,
            -1.599 0.000 1.528,
            0.000 0.000 1.570,
            0.000 1.279 1.543,
            -3.193 -0.909 1.388,
            -4.778 -1.804 1.137,
            -6.281 -0.932 0.899,
            -6.228 -1.239 0.899,
            -6.160 -1.543 0.899,
            -6.077 -1.843 0.899,
            -5.979 -2.139 0.899,
            -5.867 -2.430 0.899,
            -5.740 -2.715 0.899,
            -5.600 -2.993 0.899,
            -1.599 1.824 1.473,
            0.000 2.556 1.462,
            -3.193 0.909 1.388,
            -4.778 0.000 1.192,
            -6.342 -0.312 0.899,
            -6.319 -0.622 0.899,
            -1.599 3.642 1.308,
            0.000 3.828 1.328,
            -3.193 2.723 1.279,
            -4.778 1.804 1.137,
            -1.599 5.446 1.035,
            -3.193 4.527 1.060,
            -4.778 3.601 0.975,
            0.312 -6.342 0.899,
            0.622 -6.319 0.899,
            0.932 -6.281 0.899,
            4.778 -3.601 0.975,
            4.490 -4.490 0.899,
            4.705 -4.264 0.899,
            4.909 -4.028 0.899,
            5.100 -3.783 0.899,
            5.280 -3.528 0.899,
            5.447 -3.265 0.899,
            3.193 -4.527 1.060,
            2.715 -5.740 0.899,
            2.993 -5.600 0.899,
            3.265 -5.447 0.899,
            3.528 -5.280 0.899,
            3.783 -5.100 0.899,
            4.028 -4.909 0.899,
            4.264 -4.705 0.899,
            1.599 -5.446 1.035,
            1.239 -6.228 0.899,
            1.543 -6.160 0.899,
            1.843 -6.077 0.899,
            2.139 -5.979 0.899,
            2.430 -5.867 0.899,
            4.778 -1.804 1.137,
            5.600 -2.993 0.899,
            5.740 -2.715 0.899,
            5.867 -2.430 0.899,
            5.979 -2.139 0.899,
            6.077 -1.843 0.899,
            6.160 -1.543 0.899,
            6.228 -1.239 0.899,
            6.281 -0.932 0.899,
            3.193 -2.723 1.279,
            1.599 -3.642 1.308,
            4.778 -0.000 1.192,
            6.319 -0.622 0.899,
            6.342 -0.312 0.899,
            3.193 -0.909 1.388,
            1.599 -1.824 1.473,
            4.778 1.804 1.137,
            3.193 0.909 1.388,
            1.599 -0.000 1.528,
            4.778 3.601 0.975,
            3.193 2.723 1.279,
            1.599 1.824 1.473,
            3.193 4.527 1.060,
            1.599 3.642 1.308,
            1.599 5.446 1.035,
            0.312 -6.342 -0.899,
            0.622 -6.319 -0.899,
            0.932 -6.281 -0.899,
            1.239 -6.228 -0.899,
            1.543 -6.160 -0.899,
            1.843 -6.077 -0.899,
            2.139 -5.979 -0.899,
            2.430 -5.867 -0.899,
            2.715 -5.740 -0.899,
            2.993 -5.600 -0.899,
            3.265 -5.447 -0.899,
            3.528 -5.280 -0.899,
            3.783 -5.100 -0.899,
            4.028 -4.909 -0.899,
            4.264 -4.705 -0.899,
            4.490 -4.490 -0.899,
            4.705 -4.264 -0.899,
            4.909 -4.028 -0.899,
            5.100 -3.783 -0.899,
            5.280 -3.528 -0.899,
            5.447 -3.265 -0.899,
            5.600 -2.993 -0.899,
            5.740 -2.715 -0.899,
            5.867 -2.430 -0.899,
            5.979 -2.139 -0.899,
            6.077 -1.843 -0.899,
            6.160 -1.543 -0.899,
            6.228 -1.239 -0.899,
            6.281 -0.932 -0.899,
            6.319 -0.622 -0.899,
            6.342 -0.312 -0.899,
            4.778 3.601 -0.975,
            3.193 4.527 -1.060,
            1.599 5.446 -1.035,
            4.778 1.804 -1.137,
            3.193 2.723 -1.279,
            1.599 3.642 -1.308,
            4.778 -0.000 -1.192,
            3.193 0.909 -1.388,
            1.599 1.824 -1.473,
            4.778 -1.804 -1.137,
            3.193 -0.909 -1.388,
            1.599 -0.000 -1.528,
            4.778 -3.601 -0.975,
            3.193 -2.723 -1.279,
            1.599 -1.824 -1.473,
            3.193 -4.527 -1.060,
            1.599 -3.642 -1.308,
            1.599 -5.446 -1.035
          ]
        }
        coordIndex [
          0, 1, 2, -1,
          0, 3, 1, -1,
          0, 4, 3, -1,
          5, 6, 7, -1,
          8, 6, 5, -1,
          9, 6, 8, -1,
          10, 11, 4, -1,
          10, 12, 11, -1,
          10, 13, 12, -1,
          10, 14, 13, -1,
          10, 15, 14, -1,
          10, 16, 15, -1,
          10, 4, 0, -1,
          17, 18, 19, -1,
          17, 0, 18, -1,
          17, 10, 0, -1,
          20, 21, 16, -1,
          20, 22, 21, -1,
          20, 23, 22, -1,
          20, 24, 23, -1,
          20, 25, 24, -1,
          20, 26, 25, -1,
          20, 27, 26, -1,
          20, 10, 17, -1,
          20, 16, 10, -1,
          28, 19, 29, -1,
          28, 17, 19, -1,
          30, 20, 17, -1,
          30, 17, 28, -1,
          31, 32, 27, -1,
          31, 33, 32, -1,
          31, 34, 33, -1,
          31, 35, 34, -1,
          31, 36, 35, -1,
          31, 20, 30, -1,
          31, 27, 20, -1,
          37, 29, 38, -1,
          37, 38, 39, -1,
          37, 28, 29, -1,
          40, 28, 37, -1,
          40, 30, 28, -1,
          41, 36, 31, -1,
          41, 30, 40, -1,
          41, 42, 36, -1,
          41, 43, 42, -1,
          41, 44, 43, -1,
          41, 45, 44, -1,
          41, 46, 45, -1,
          41, 47, 46, -1,
          41, 48, 47, -1,
          41, 49, 48, -1,
          41, 31, 30, -1,
          50, 39, 51, -1,
          50, 37, 39, -1,
          52, 37, 50, -1,
          52, 40, 37, -1,
          53, 49, 41, -1,
          53, 54, 55, -1,
          53, 56, 54, -1,
          53, 57, 56, -1,
          53, 40, 52, -1,
          53, 41, 40, -1,
          53, 58, 49, -1,
          53, 59, 58, -1,
          53, 55, 59, -1,
          60, 51, 61, -1,
          60, 61, 6, -1,
          60, 50, 51, -1,
          62, 50, 60, -1,
          62, 52, 50, -1,
          63, 52, 62, -1,
          63, 64, 57, -1,
          63, 65, 64, -1,
          63, 66, 65, -1,
          63, 67, 66, -1,
          63, 68, 67, -1,
          63, 69, 68, -1,
          63, 70, 69, -1,
          63, 71, 70, -1,
          63, 57, 53, -1,
          63, 53, 52, -1,
          72, 73, 74, -1,
          72, 75, 73, -1,
          72, 76, 75, -1,
          72, 77, 76, -1,
          72, 78, 77, -1,
          72, 9, 78, -1,
          72, 6, 9, -1,
          72, 60, 6, -1,
          79, 80, 81, -1,
          79, 82, 80, -1,
          79, 83, 82, -1,
          79, 84, 83, -1,
          79, 85, 84, -1,
          79, 86, 85, -1,
          79, 74, 86, -1,
          79, 72, 74, -1,
          79, 60, 72, -1,
          79, 62, 60, -1,
          87, 71, 63, -1,
          87, 88, 71, -1,
          87, 63, 62, -1,
          87, 89, 88, -1,
          87, 90, 89, -1,
          87, 91, 90, -1,
          87, 81, 91, -1,
          87, 79, 81, -1,
          87, 62, 79, -1,
          92, 93, 94, -1,
          92, 95, 93, -1,
          96, 94, 97, -1,
          96, 92, 94, -1,
          98, 97, 99, -1,
          98, 96, 97, -1,
          100, 99, 101, -1,
          100, 98, 99, -1,
          102, 101, 103, -1,
          102, 100, 101, -1,
          104, 103, 105, -1,
          104, 102, 103, -1,
          106, 105, 107, -1,
          106, 107, 108, -1,
          106, 104, 105, -1,
          109, 106, 108, -1,
          110, 108, 111, -1,
          110, 109, 108, -1,
          112, 111, 113, -1,
          112, 110, 111, -1,
          114, 113, 115, -1,
          114, 115, 116, -1,
          114, 112, 113, -1,
          117, 114, 116, -1,
          118, 116, 119, -1,
          118, 117, 116, -1,
          120, 119, 121, -1,
          120, 118, 119, -1,
          122, 121, 123, -1,
          122, 120, 121, -1,
          124, 123, 125, -1,
          124, 125, 126, -1,
          124, 122, 123, -1,
          127, 124, 126, -1,
          128, 127, 126, -1,
          128, 126, 129, -1,
          130, 128, 129, -1,
          130, 129, 131, -1,
          130, 131, 132, -1,
          133, 130, 132, -1,
          133, 132, 134, -1,
          135, 133, 134, -1,
          136, 134, 137, -1,
          136, 135, 134, -1,
          138, 137, 139, -1,
          138, 136, 137, -1,
          138, 139, 140, -1,
          141, 138, 140, -1,
          142, 140, 143, -1,
          142, 141, 140, -1,
          144, 143, 145, -1,
          144, 142, 143, -1,
          146, 145, 147, -1,
          146, 144, 145, -1,
          148, 147, 149, -1,
          148, 146, 147, -1,
          150, 149, 151, -1,
          150, 148, 149, -1,
          152, 151, 153, -1,
          152, 153, 154, -1,
          152, 150, 151, -1,
          155, 152, 154, -1,
          156, 154, 2, -1,
          156, 155, 154, -1,
          157, 2, 1, -1,
          157, 156, 2, -1,
          158, 1, 3, -1,
          158, 157, 1, -1,
          159, 3, 4, -1,
          159, 158, 3, -1,
          160, 4, 11, -1,
          160, 159, 4, -1,
          161, 11, 12, -1,
          161, 160, 11, -1,
          162, 12, 13, -1,
          162, 13, 14, -1,
          162, 161, 12, -1,
          163, 162, 14, -1,
          164, 14, 15, -1,
          164, 163, 14, -1,
          165, 15, 16, -1,
          165, 16, 21, -1,
          165, 164, 15, -1,
          166, 165, 21, -1,
          166, 21, 22, -1,
          167, 166, 22, -1,
          168, 167, 22, -1,
          168, 22, 23, -1,
          168, 23, 24, -1,
          169, 168, 24, -1,
          170, 169, 24, -1,
          170, 24, 25, -1,
          171, 170, 25, -1,
          171, 25, 26, -1,
          171, 26, 27, -1,
          172, 171, 27, -1,
          172, 27, 32, -1,
          173, 172, 32, -1,
          174, 173, 32, -1,
          174, 32, 33, -1,
          175, 174, 33, -1,
          175, 33, 34, -1,
          175, 34, 35, -1,
          176, 175, 35, -1,
          177, 176, 35, -1,
          177, 35, 36, -1,
          178, 177, 36, -1,
          178, 36, 42, -1,
          179, 178, 42, -1,
          179, 42, 43, -1,
          179, 43, 44, -1,
          180, 44, 45, -1,
          180, 179, 44, -1,
          181, 180, 45, -1,
          182, 45, 46, -1,
          182, 46, 47, -1,
          182, 181, 45, -1,
          183, 182, 47, -1,
          184, 47, 48, -1,
          184, 183, 47, -1,
          185, 48, 49, -1,
          185, 184, 48, -1,
          186, 49, 58, -1,
          186, 185, 49, -1,
          187, 58, 59, -1,
          187, 186, 58, -1,
          188, 59, 55, -1,
          188, 187, 59, -1,
          189, 190, 191, -1,
          189, 191, 192, -1,
          189, 192, 193, -1,
          157, 194, 156, -1,
          158, 194, 157, -1,
          159, 194, 158, -1,
          195, 196, 197, -1,
          195, 197, 198, -1,
          195, 198, 199, -1,
          195, 199, 200, -1,
          195, 200, 201, -1,
          195, 201, 190, -1,
          195, 190, 189, -1,
          202, 195, 189, -1,
          202, 189, 203, -1,
          202, 203, 204, -1,
          205, 195, 202, -1,
          205, 206, 207, -1,
          205, 207, 208, -1,
          205, 208, 209, -1,
          205, 209, 210, -1,
          205, 210, 211, -1,
          205, 211, 212, -1,
          205, 212, 196, -1,
          205, 196, 195, -1,
          213, 202, 204, -1,
          213, 204, 214, -1,
          215, 205, 202, -1,
          215, 202, 213, -1,
          216, 206, 205, -1,
          216, 217, 218, -1,
          216, 218, 219, -1,
          216, 219, 220, -1,
          216, 220, 221, -1,
          216, 221, 206, -1,
          216, 205, 215, -1,
          222, 213, 214, -1,
          222, 214, 223, -1,
          222, 223, 224, -1,
          225, 213, 222, -1,
          225, 215, 213, -1,
          226, 217, 216, -1,
          226, 216, 215, -1,
          226, 215, 225, -1,
          226, 227, 228, -1,
          226, 228, 229, -1,
          226, 229, 230, -1,
          226, 230, 231, -1,
          226, 231, 232, -1,
          226, 232, 233, -1,
          226, 233, 234, -1,
          226, 234, 217, -1,
          235, 224, 236, -1,
          235, 222, 224, -1,
          237, 222, 235, -1,
          237, 225, 222, -1,
          238, 225, 237, -1,
          238, 185, 186, -1,
          238, 186, 187, -1,
          238, 187, 188, -1,
          238, 188, 239, -1,
          238, 239, 240, -1,
          238, 240, 227, -1,
          238, 227, 226, -1,
          238, 226, 225, -1,
          241, 242, 194, -1,
          241, 236, 242, -1,
          241, 235, 236, -1,
          243, 235, 241, -1,
          243, 237, 235, -1,
          244, 177, 178, -1,
          244, 178, 179, -1,
          244, 179, 180, -1,
          244, 180, 181, -1,
          244, 181, 182, -1,
          244, 182, 183, -1,
          244, 238, 237, -1,
          244, 183, 184, -1,
          244, 184, 185, -1,
          244, 185, 238, -1,
          244, 237, 243, -1,
          245, 159, 160, -1,
          245, 160, 161, -1,
          245, 161, 162, -1,
          245, 162, 163, -1,
          245, 163, 164, -1,
          245, 164, 165, -1,
          245, 194, 159, -1,
          245, 241, 194, -1,
          246, 245, 165, -1,
          246, 165, 166, -1,
          246, 166, 167, -1,
          246, 167, 168, -1,
          246, 168, 169, -1,
          246, 169, 170, -1,
          246, 170, 171, -1,
          246, 171, 172, -1,
          246, 243, 241, -1,
          246, 241, 245, -1,
          247, 177, 244, -1,
          247, 243, 246, -1,
          247, 172, 173, -1,
          247, 246, 172, -1,
          247, 173, 174, -1,
          247, 174, 175, -1,
          247, 175, 176, -1,
          247, 176, 177, -1,
          247, 244, 243, -1,
          189, 193, 248, -1,
          189, 248, 249, -1,
          189, 249, 250, -1,
          152, 194, 150, -1,
          155, 194, 152, -1,
          156, 194, 155, -1,
          251, 252, 253, -1,
          251, 253, 254, -1,
          251, 254, 255, -1,
          251, 255, 256, -1,
          251, 256, 257, -1,
          258, 259, 260, -1,
          258, 260, 261, -1,
          258, 261, 262, -1,
          258, 262, 263, -1,
          258, 263, 264, -1,
          258, 264, 265, -1,
          258, 265, 252, -1,
          258, 252, 251, -1,
          266, 250, 267, -1,
          266, 267, 268, -1,
          266, 268, 269, -1,
          266, 269, 270, -1,
          266, 270, 271, -1,
          266, 271, 259, -1,
          266, 189, 250, -1,
          266, 259, 258, -1,
          272, 251, 257, -1,
          272, 257, 273, -1,
          272, 273, 274, -1,
          272, 274, 275, -1,
          272, 275, 276, -1,
          272, 276, 277, -1,
          272, 277, 278, -1,
          272, 278, 279, -1,
          272, 279, 280, -1,
          281, 258, 251, -1,
          281, 251, 272, -1,
          282, 203, 189, -1,
          282, 204, 203, -1,
          282, 189, 266, -1,
          282, 266, 258, -1,
          282, 258, 281, -1,
          283, 280, 284, -1,
          283, 284, 285, -1,
          283, 285, 95, -1,
          283, 95, 92, -1,
          283, 92, 96, -1,
          283, 96, 98, -1,
          283, 272, 280, -1,
          286, 272, 283, -1,
          286, 281, 272, -1,
          287, 214, 204, -1,
          287, 204, 282, -1,
          287, 282, 281, -1,
          287, 281, 286, -1,
          288, 98, 100, -1,
          288, 100, 102, -1,
          288, 102, 104, -1,
          288, 104, 106, -1,
          288, 106, 109, -1,
          288, 109, 110, -1,
          288, 110, 112, -1,
          288, 112, 114, -1,
          288, 283, 98, -1,
          289, 283, 288, -1,
          289, 286, 283, -1,
          290, 223, 214, -1,
          290, 286, 289, -1,
          290, 287, 286, -1,
          290, 224, 223, -1,
          290, 214, 287, -1,
          291, 114, 117, -1,
          291, 117, 118, -1,
          291, 118, 120, -1,
          291, 120, 122, -1,
          291, 122, 124, -1,
          291, 288, 114, -1,
          292, 288, 291, -1,
          292, 289, 288, -1,
          293, 290, 289, -1,
          293, 289, 292, -1,
          293, 236, 224, -1,
          293, 224, 290, -1,
          294, 291, 124, -1,
          294, 292, 291, -1,
          294, 124, 127, -1,
          294, 127, 128, -1,
          294, 128, 130, -1,
          294, 130, 133, -1,
          294, 133, 135, -1,
          294, 135, 136, -1,
          294, 136, 138, -1,
          295, 292, 294, -1,
          295, 194, 242, -1,
          295, 242, 236, -1,
          295, 293, 292, -1,
          295, 236, 293, -1,
          296, 150, 194, -1,
          296, 295, 294, -1,
          296, 194, 295, -1,
          296, 138, 141, -1,
          296, 141, 142, -1,
          296, 142, 144, -1,
          296, 144, 146, -1,
          296, 146, 148, -1,
          296, 148, 150, -1,
          296, 294, 138, -1,
          239, 188, 55, -1,
          239, 55, 54, -1,
          240, 54, 56, -1,
          240, 239, 54, -1,
          227, 56, 57, -1,
          227, 240, 56, -1,
          228, 57, 64, -1,
          228, 64, 65, -1,
          228, 227, 57, -1,
          229, 228, 65, -1,
          230, 65, 66, -1,
          230, 229, 65, -1,
          231, 66, 67, -1,
          231, 230, 66, -1,
          232, 67, 68, -1,
          232, 231, 67, -1,
          233, 68, 69, -1,
          233, 232, 68, -1,
          234, 69, 70, -1,
          234, 233, 69, -1,
          217, 70, 71, -1,
          217, 234, 70, -1,
          218, 71, 88, -1,
          218, 217, 71, -1,
          219, 88, 89, -1,
          219, 218, 88, -1,
          220, 89, 90, -1,
          220, 219, 89, -1,
          221, 90, 91, -1,
          221, 220, 90, -1,
          206, 91, 81, -1,
          206, 81, 80, -1,
          206, 221, 91, -1,
          207, 206, 80, -1,
          208, 207, 80, -1,
          208, 80, 82, -1,
          208, 82, 83, -1,
          209, 208, 83, -1,
          210, 209, 83, -1,
          210, 83, 84, -1,
          211, 210, 84, -1,
          211, 84, 85, -1,
          212, 85, 86, -1,
          212, 211, 85, -1,
          196, 86, 74, -1,
          196, 212, 86, -1,
          197, 74, 73, -1,
          197, 196, 74, -1,
          198, 73, 75, -1,
          198, 197, 73, -1,
          199, 75, 76, -1,
          199, 198, 75, -1,
          200, 76, 77, -1,
          200, 199, 76, -1,
          201, 77, 78, -1,
          201, 200, 77, -1,
          190, 78, 9, -1,
          190, 201, 78, -1,
          191, 9, 8, -1,
          191, 190, 9, -1,
          192, 8, 5, -1,
          192, 5, 7, -1,
          192, 191, 8, -1,
          193, 192, 7, -1,
          248, 7, 297, -1,
          248, 193, 7, -1,
          249, 297, 298, -1,
          249, 248, 297, -1,
          250, 298, 299, -1,
          250, 249, 298, -1,
          267, 299, 300, -1,
          267, 250, 299, -1,
          268, 300, 301, -1,
          268, 267, 300, -1,
          269, 301, 302, -1,
          269, 268, 301, -1,
          270, 302, 303, -1,
          270, 303, 304, -1,
          270, 269, 302, -1,
          271, 270, 304, -1,
          259, 304, 305, -1,
          259, 271, 304, -1,
          260, 259, 305, -1,
          260, 305, 306, -1,
          260, 306, 307, -1,
          261, 260, 307, -1,
          262, 261, 307, -1,
          262, 307, 308, -1,
          263, 262, 308, -1,
          263, 308, 309, -1,
          263, 309, 310, -1,
          264, 263, 310, -1,
          264, 310, 311, -1,
          265, 264, 311, -1,
          265, 311, 312, -1,
          252, 265, 312, -1,
          253, 252, 312, -1,
          253, 312, 313, -1,
          254, 253, 313, -1,
          254, 313, 314, -1,
          255, 254, 314, -1,
          255, 314, 315, -1,
          256, 255, 315, -1,
          256, 315, 316, -1,
          256, 316, 317, -1,
          257, 256, 317, -1,
          273, 257, 317, -1,
          273, 317, 318, -1,
          274, 273, 318, -1,
          274, 318, 319, -1,
          275, 319, 320, -1,
          275, 274, 319, -1,
          276, 320, 321, -1,
          276, 275, 320, -1,
          277, 321, 322, -1,
          277, 322, 323, -1,
          277, 276, 321, -1,
          278, 323, 324, -1,
          278, 277, 323, -1,
          279, 278, 324, -1,
          280, 324, 325, -1,
          280, 279, 324, -1,
          284, 325, 326, -1,
          284, 280, 325, -1,
          285, 326, 327, -1,
          285, 284, 326, -1,
          95, 327, 93, -1,
          95, 285, 327, -1,
          0, 153, 151, -1,
          0, 154, 153, -1,
          0, 2, 154, -1,
          298, 6, 299, -1,
          297, 6, 298, -1,
          7, 6, 297, -1,
          328, 116, 115, -1,
          328, 119, 116, -1,
          328, 121, 119, -1,
          328, 123, 121, -1,
          328, 125, 123, -1,
          329, 125, 328, -1,
          329, 126, 125, -1,
          329, 129, 126, -1,
          329, 131, 129, -1,
          329, 132, 131, -1,
          329, 134, 132, -1,
          329, 137, 134, -1,
          329, 139, 137, -1,
          330, 140, 139, -1,
          330, 143, 140, -1,
          330, 145, 143, -1,
          330, 147, 145, -1,
          330, 149, 147, -1,
          330, 151, 149, -1,
          330, 139, 329, -1,
          330, 0, 151, -1,
          331, 101, 99, -1,
          331, 103, 101, -1,
          331, 105, 103, -1,
          331, 328, 115, -1,
          331, 107, 105, -1,
          331, 108, 107, -1,
          331, 111, 108, -1,
          331, 113, 111, -1,
          331, 115, 113, -1,
          332, 329, 328, -1,
          332, 328, 331, -1,
          333, 0, 330, -1,
          333, 19, 18, -1,
          333, 18, 0, -1,
          333, 330, 329, -1,
          333, 329, 332, -1,
          334, 94, 93, -1,
          334, 97, 94, -1,
          334, 99, 97, -1,
          334, 326, 325, -1,
          334, 327, 326, -1,
          334, 93, 327, -1,
          334, 331, 99, -1,
          335, 331, 334, -1,
          335, 332, 331, -1,
          336, 29, 19, -1,
          336, 332, 335, -1,
          336, 19, 333, -1,
          336, 333, 332, -1,
          337, 318, 317, -1,
          337, 319, 318, -1,
          337, 320, 319, -1,
          337, 321, 320, -1,
          337, 322, 321, -1,
          337, 323, 322, -1,
          337, 324, 323, -1,
          337, 325, 324, -1,
          337, 334, 325, -1,
          338, 335, 334, -1,
          338, 334, 337, -1,
          339, 39, 38, -1,
          339, 38, 29, -1,
          339, 335, 338, -1,
          339, 336, 335, -1,
          339, 29, 336, -1,
          340, 337, 317, -1,
          340, 313, 312, -1,
          340, 314, 313, -1,
          340, 315, 314, -1,
          340, 316, 315, -1,
          340, 317, 316, -1,
          341, 337, 340, -1,
          341, 338, 337, -1,
          342, 51, 39, -1,
          342, 339, 338, -1,
          342, 338, 341, -1,
          342, 39, 339, -1,
          343, 341, 340, -1,
          343, 306, 305, -1,
          343, 307, 306, -1,
          343, 308, 307, -1,
          343, 309, 308, -1,
          343, 310, 309, -1,
          343, 311, 310, -1,
          343, 312, 311, -1,
          343, 340, 312, -1,
          344, 342, 341, -1,
          344, 61, 51, -1,
          344, 6, 61, -1,
          344, 341, 343, -1,
          344, 51, 342, -1,
          345, 299, 6, -1,
          345, 300, 299, -1,
          345, 301, 300, -1,
          345, 302, 301, -1,
          345, 303, 302, -1,
          345, 304, 303, -1,
          345, 305, 304, -1,
          345, 6, 344, -1,
          345, 343, 305, -1,
          345, 344, 343, -1
        ]
      }
    }
}
