{"asset":{"version":"2.0","generator":"microscope_builder_4 scripts/catalog/dedupe-mounted-lens-housings.mjs"},"scene":0,"scenes":[{"nodes":[0]}],"nodes":[{"mesh":0}],"meshes":[{"primitives":[{"attributes":{"POSITION":1,"NORMAL":2},"indices":0,"mode":4},{"attributes":{"POSITION":4,"NORMAL":5},"indices":3,"mode":4},{"attributes":{"POSITION":7,"NORMAL":8},"indices":6,"mode":4}]}],"buffers":[{"uri":"../shared/lens-components/e6/e6d383e657f9bfae65737b76330bc4da19bed73e31f3b5356ee0fbc937316088.bin","byteLength":3360},{"uri":"../shared/lens-components/33/330a680db501472525433f793aa53608e71895d67dc3ca5c981a888ea934e504.bin","byteLength":8532},{"uri":"lb1378-c-ml.bin","byteLength":134748}],"bufferViews":[{"buffer":0,"byteOffset":0,"byteLength":1104,"target":34963},{"buffer":0,"byteOffset":1104,"byteLength":1128,"target":34962},{"buffer":0,"byteOffset":2232,"byteLength":1128,"target":34962},{"buffer":1,"byteOffset":0,"byteLength":2844,"target":34963},{"buffer":1,"byteOffset":2844,"byteLength":2844,"target":34962},{"buffer":1,"byteOffset":5688,"byteLength":2844,"target":34962},{"buffer":2,"byteOffset":0,"byteLength":44916,"target":34963},{"buffer":2,"byteOffset":44916,"byteLength":44916,"target":34962},{"buffer":2,"byteOffset":89832,"byteLength":44916,"target":34962}],"accessors":[{"bufferView":0,"componentType":5123,"count":552,"type":"SCALAR"},{"bufferView":1,"componentType":5126,"count":94,"type":"VEC3","min":[2.3910000324249268,-6.349999904632568,-6.349999904632568],"max":[5.190999984741211,6.349999904632568,6.349999904632568]},{"bufferView":2,"componentType":5126,"count":94,"type":"VEC3"},{"bufferView":3,"componentType":5123,"count":1422,"type":"SCALAR"},{"bufferView":4,"componentType":5126,"count":237,"type":"VEC3","min":[4.814000129699707,-6.794000148773193,-6.794000148773193],"max":[6.465000152587891,6.794000148773193,6.794000148773193]},{"bufferView":5,"componentType":5126,"count":237,"type":"VEC3"},{"bufferView":6,"componentType":5123,"count":22458,"type":"SCALAR"},{"bufferView":7,"componentType":5126,"count":3743,"type":"VEC3","min":[0,-8.890000343322754,-8.890000343322754],"max":[10.413999557495117,8.890000343322754,8.890000343322754]},{"bufferView":8,"componentType":5126,"count":3743,"type":"VEC3"}]}
