#VRML V2.0 utf8
WorldInfo {
  title "Exported triangle mesh to VRML97"
  info ["Created by FreeCAD"
        "<https://www.freecad.org>"]
}

Transform {
  scale 1 1 1
  rotation 0 0 1 0
  scaleOrientation 0 0 1 0
  center 0.000 0.000 0.000
  translation 0.000 0.000 0.000
  children
    Shape { 
      appearance
      Appearance {
        material
        Material {
          diffuseColor 0.8 0.8 0.8
        }
      }
      geometry
      IndexedFaceSet {
        coord
        Coordinate {
          point [
            -0.000 -21.887 2.664,
            -2.490 -25.278 1.500,
            -1.246 -25.369 1.500,
            -0.000 -25.400 1.500,
            -1.246 25.369 1.500,
            0.000 21.887 2.664,
            0.000 25.400 1.500,
            -2.490 25.278 1.500,
            -5.178 -22.892 2.163,
            -8.557 -23.915 1.500,
            -7.373 -24.306 1.500,
            -6.172 -24.639 1.500,
            -4.955 -24.912 1.500,
            -3.727 -25.125 1.500,
            -5.178 -17.919 3.570,
            -0.000 -18.321 3.654,
            -0.000 -14.710 4.467,
            -10.331 -20.272 2.395,
            -14.111 -21.119 1.500,
            -13.058 -21.786 1.500,
            -11.973 -22.401 1.500,
            -10.860 -22.961 1.500,
            -9.720 -23.467 1.500,
            -5.178 -12.860 4.631,
            -0.000 -11.064 5.102,
            -10.331 -15.289 3.621,
            -5.178 -7.741 5.341,
            -0.000 -7.391 5.556,
            -0.000 -3.700 5.829,
            -15.435 -17.579 2.188,
            -18.820 -17.058 1.500,
            -17.961 -17.961 1.500,
            -17.058 -18.820 1.500,
            -16.114 -19.634 1.500,
            -15.131 -20.401 1.500,
            -10.331 -10.233 4.501,
            -5.178 -2.584 5.697,
            0.000 0.000 5.920,
            -15.435 -12.616 3.229,
            -21.119 -14.111 1.500,
            -20.401 -15.131 1.500,
            -19.634 -16.114 1.500,
            -10.331 -5.129 5.030,
            -5.178 2.584 5.697,
            0.000 3.700 5.829,
            -15.435 -7.594 3.926,
            -10.331 -0.000 5.207,
            -20.466 -9.941 2.395,
            -23.915 -8.557 1.500,
            -23.467 -9.720 1.500,
            -22.961 -10.860 1.500,
            -22.401 -11.973 1.500,
            -21.786 -13.058 1.500,
            -5.178 7.741 5.341,
            0.000 7.391 5.556,
            0.000 11.064 5.102,
            -15.435 -2.535 4.275,
            -10.331 5.129 5.030,
            -20.466 -4.982 2.909,
            -25.278 -2.490 1.500,
            -25.125 -3.727 1.500,
            -24.912 -4.955 1.500,
            -24.639 -6.172 1.500,
            -24.306 -7.373 1.500,
            -5.178 12.860 4.631,
            0.000 14.710 4.467,
            -15.435 2.535 4.275,
            -10.331 10.233 4.501,
            -20.466 -0.000 3.081,
            -25.400 -0.000 1.500,
            -25.369 -1.246 1.500,
            -25.278 2.490 1.500,
            -25.369 1.246 1.500,
            -5.178 17.919 3.570,
            0.000 18.321 3.654,
            -15.435 7.594 3.926,
            -10.331 15.289 3.621,
            -20.466 4.982 2.909,
            -23.915 8.557 1.500,
            -24.306 7.373 1.500,
            -24.639 6.172 1.500,
            -24.912 4.955 1.500,
            -25.125 3.727 1.500,
            -5.178 22.892 2.163,
            -3.727 25.125 1.500,
            -4.955 24.912 1.500,
            -6.172 24.639 1.500,
            -7.373 24.306 1.500,
            -8.557 23.915 1.500,
            -15.435 12.616 3.229,
            -18.820 17.058 1.500,
            -19.634 16.114 1.500,
            -20.401 15.131 1.500,
            -21.119 14.111 1.500,
            -10.331 20.272 2.395,
            -9.720 23.467 1.500,
            -10.860 22.961 1.500,
            -11.973 22.401 1.500,
            -13.058 21.786 1.500,
            -14.111 21.119 1.500,
            -20.466 9.941 2.395,
            -21.786 13.058 1.500,
            -22.401 11.973 1.500,
            -22.961 10.860 1.500,
            -23.467 9.720 1.500,
            -15.435 17.579 2.188,
            -15.131 20.401 1.500,
            -16.114 19.634 1.500,
            -17.058 18.820 1.500,
            -17.961 17.961 1.500,
            25.369 1.246 1.500,
            25.400 -0.000 1.500,
            25.400 -0.000 -1.500,
            25.369 1.246 -1.500,
            25.278 2.490 1.500,
            25.278 2.490 -1.500,
            25.125 3.727 1.500,
            25.125 3.727 -1.500,
            24.912 4.955 1.500,
            24.912 4.955 -1.500,
            24.639 6.172 1.500,
            24.639 6.172 -1.500,
            24.306 7.373 -1.500,
            24.306 7.373 1.500,
            23.915 8.557 1.500,
            23.915 8.557 -1.500,
            23.467 9.720 1.500,
            23.467 9.720 -1.500,
            22.961 10.860 -1.500,
            22.961 10.860 1.500,
            22.401 11.973 1.500,
            22.401 11.973 -1.500,
            21.786 13.058 1.500,
            21.786 13.058 -1.500,
            21.119 14.111 -1.500,
            21.119 14.111 1.500,
            20.401 15.131 1.500,
            20.401 15.131 -1.500,
            19.634 16.114 1.500,
            19.634 16.114 -1.500,
            18.820 17.058 1.500,
            18.820 17.058 -1.500,
            17.961 17.961 1.500,
            17.961 17.961 -1.500,
            17.058 18.820 1.500,
            17.058 18.820 -1.500,
            16.114 19.634 1.500,
            16.114 19.634 -1.500,
            15.131 20.401 1.500,
            15.131 20.401 -1.500,
            14.111 21.119 1.500,
            14.111 21.119 -1.500,
            13.058 21.786 1.500,
            13.058 21.786 -1.500,
            11.973 22.401 1.500,
            11.973 22.401 -1.500,
            10.860 22.961 1.500,
            10.860 22.961 -1.500,
            9.720 23.467 1.500,
            9.720 23.467 -1.500,
            8.557 23.915 -1.500,
            8.557 23.915 1.500,
            7.373 24.306 1.500,
            7.373 24.306 -1.500,
            6.172 24.639 1.500,
            6.172 24.639 -1.500,
            4.955 24.912 -1.500,
            4.955 24.912 1.500,
            3.727 25.125 -1.500,
            3.727 25.125 1.500,
            2.490 25.278 1.500,
            2.490 25.278 -1.500,
            1.246 25.369 1.500,
            1.246 25.369 -1.500,
            0.000 25.400 -1.500,
            -1.246 25.369 -1.500,
            -2.490 25.278 -1.500,
            -3.727 25.125 -1.500,
            -4.955 24.912 -1.500,
            -6.172 24.639 -1.500,
            -7.373 24.306 -1.500,
            -8.557 23.915 -1.500,
            -9.720 23.467 -1.500,
            -10.860 22.961 -1.500,
            -11.973 22.401 -1.500,
            -13.058 21.786 -1.500,
            -14.111 21.119 -1.500,
            -15.131 20.401 -1.500,
            -16.114 19.634 -1.500,
            -17.058 18.820 -1.500,
            -17.961 17.961 -1.500,
            -18.820 17.058 -1.500,
            -19.634 16.114 -1.500,
            -20.401 15.131 -1.500,
            -21.119 14.111 -1.500,
            -21.786 13.058 -1.500,
            -22.401 11.973 -1.500,
            -22.961 10.860 -1.500,
            -23.467 9.720 -1.500,
            -23.915 8.557 -1.500,
            -24.306 7.373 -1.500,
            -24.639 6.172 -1.500,
            -24.912 4.955 -1.500,
            -25.125 3.727 -1.500,
            -25.278 2.490 -1.500,
            -25.369 1.246 -1.500,
            -25.400 -0.000 -1.500,
            0.000 21.887 -2.664,
            -1.246 -25.369 -1.500,
            -0.000 -21.887 -2.664,
            -0.000 -25.400 -1.500,
            -2.490 -25.278 -1.500,
            -5.178 22.892 -2.163,
            -5.178 17.919 -3.570,
            0.000 18.321 -3.654,
            0.000 14.710 -4.467,
            -10.331 20.272 -2.395,
            -5.178 12.860 -4.631,
            0.000 11.064 -5.102,
            -10.331 15.289 -3.621,
            -5.178 7.741 -5.341,
            0.000 7.391 -5.556,
            0.000 3.700 -5.829,
            -15.435 17.579 -2.188,
            -10.331 10.233 -4.501,
            -5.178 2.584 -5.697,
            0.000 -0.000 -5.920,
            -15.435 12.616 -3.229,
            -10.331 5.129 -5.030,
            -5.178 -2.584 -5.697,
            -0.000 -3.700 -5.829,
            -15.435 7.594 -3.926,
            -10.331 -0.000 -5.207,
            -20.466 9.941 -2.395,
            -5.178 -7.741 -5.341,
            -0.000 -7.391 -5.556,
            -0.000 -11.064 -5.102,
            -15.435 2.535 -4.275,
            -10.331 -5.129 -5.030,
            -20.466 4.982 -2.909,
            -5.178 -12.860 -4.631,
            -0.000 -14.710 -4.467,
            -15.435 -2.535 -4.275,
            -10.331 -10.233 -4.501,
            -20.466 -0.000 -3.081,
            -25.369 -1.246 -1.500,
            -25.278 -2.490 -1.500,
            -5.178 -17.919 -3.570,
            -0.000 -18.321 -3.654,
            -15.435 -7.594 -3.926,
            -10.331 -15.289 -3.621,
            -20.466 -4.982 -2.909,
            -25.125 -3.727 -1.500,
            -24.912 -4.955 -1.500,
            -24.639 -6.172 -1.500,
            -24.306 -7.373 -1.500,
            -23.915 -8.557 -1.500,
            -5.178 -22.892 -2.163,
            -7.373 -24.306 -1.500,
            -8.557 -23.915 -1.500,
            -6.172 -24.639 -1.500,
            -4.955 -24.912 -1.500,
            -3.727 -25.125 -1.500,
            -15.435 -12.616 -3.229,
            -20.401 -15.131 -1.500,
            -21.119 -14.111 -1.500,
            -19.634 -16.114 -1.500,
            -18.820 -17.058 -1.500,
            -10.331 -20.272 -2.395,
            -13.058 -21.786 -1.500,
            -14.111 -21.119 -1.500,
            -11.973 -22.401 -1.500,
            -10.860 -22.961 -1.500,
            -9.720 -23.467 -1.500,
            -20.466 -9.941 -2.395,
            -23.467 -9.720 -1.500,
            -22.961 -10.860 -1.500,
            -22.401 -11.973 -1.500,
            -21.786 -13.058 -1.500,
            -15.435 -17.579 -2.188,
            -17.961 -17.961 -1.500,
            -17.058 -18.820 -1.500,
            -16.114 -19.634 -1.500,
            -15.131 -20.401 -1.500,
            2.490 -25.278 -1.500,
            3.727 -25.125 -1.500,
            1.246 -25.369 -1.500,
            20.466 12.404 -2.010,
            10.331 22.729 -1.654,
            15.435 15.107 -2.751,
            20.466 7.466 -2.695,
            10.331 17.791 -3.051,
            15.435 10.111 -3.621,
            5.178 20.418 -2.909,
            20.466 2.493 -3.038,
            10.331 12.769 -4.104,
            15.435 5.068 -4.144,
            5.178 15.399 -4.144,
            20.466 -2.493 -3.038,
            25.125 -3.727 -1.500,
            24.912 -4.955 -1.500,
            25.278 -2.490 -1.500,
            25.369 -1.246 -1.500,
            10.331 7.685 -4.809,
            15.435 -0.000 -4.319,
            5.178 10.307 -5.030,
            20.466 -7.466 -2.695,
            23.467 -9.720 -1.500,
            22.961 -10.860 -1.500,
            23.915 -8.557 -1.500,
            24.306 -7.373 -1.500,
            24.639 -6.172 -1.500,
            10.331 2.566 -5.163,
            15.435 -5.068 -4.144,
            5.178 5.166 -5.563,
            20.466 -12.404 -2.010,
            21.119 -14.111 -1.500,
            20.401 -15.131 -1.500,
            21.786 -13.058 -1.500,
            22.401 -11.973 -1.500,
            10.331 -2.566 -5.163,
            15.435 -10.111 -3.621,
            5.178 -0.000 -5.742,
            10.331 -7.685 -4.809,
            15.435 -15.107 -2.751,
            16.114 -19.634 -1.500,
            15.131 -20.401 -1.500,
            17.058 -18.820 -1.500,
            17.961 -17.961 -1.500,
            18.820 -17.058 -1.500,
            19.634 -16.114 -1.500,
            5.178 -5.166 -5.563,
            10.331 -12.769 -4.104,
            5.178 -10.307 -5.030,
            10.331 -17.791 -3.051,
            13.058 -21.786 -1.500,
            11.973 -22.401 -1.500,
            14.111 -21.119 -1.500,
            5.178 -15.399 -4.144,
            10.331 -22.729 -1.654,
            9.720 -23.467 -1.500,
            8.557 -23.915 -1.500,
            10.860 -22.961 -1.500,
            5.178 -20.418 -2.909,
            4.955 -24.912 -1.500,
            6.172 -24.639 -1.500,
            7.373 -24.306 -1.500,
            1.246 -25.369 1.500,
            2.490 -25.278 1.500,
            3.727 -25.125 1.500,
            4.955 -24.912 1.500,
            6.172 -24.639 1.500,
            7.373 -24.306 1.500,
            8.557 -23.915 1.500,
            9.720 -23.467 1.500,
            10.860 -22.961 1.500,
            11.973 -22.401 1.500,
            13.058 -21.786 1.500,
            14.111 -21.119 1.500,
            15.131 -20.401 1.500,
            16.114 -19.634 1.500,
            17.058 -18.820 1.500,
            17.961 -17.961 1.500,
            18.820 -17.058 1.500,
            19.634 -16.114 1.500,
            20.401 -15.131 1.500,
            21.119 -14.111 1.500,
            21.786 -13.058 1.500,
            22.401 -11.973 1.500,
            22.961 -10.860 1.500,
            23.467 -9.720 1.500,
            23.915 -8.557 1.500,
            24.306 -7.373 1.500,
            24.639 -6.172 1.500,
            24.912 -4.955 1.500,
            25.125 -3.727 1.500,
            25.278 -2.490 1.500,
            25.369 -1.246 1.500,
            20.466 -12.404 2.010,
            10.331 -22.729 1.654,
            15.435 -15.107 2.751,
            20.466 -7.466 2.695,
            10.331 -17.791 3.051,
            15.435 -10.111 3.621,
            5.178 -20.418 2.909,
            20.466 -2.493 3.038,
            10.331 -12.769 4.104,
            15.435 -5.068 4.144,
            5.178 -15.399 4.144,
            20.466 2.493 3.038,
            10.331 -7.685 4.809,
            15.435 -0.000 4.319,
            5.178 -10.307 5.030,
            20.466 7.466 2.695,
            10.331 -2.566 5.163,
            15.435 5.068 4.144,
            5.178 -5.166 5.563,
            20.466 12.404 2.010,
            10.331 2.566 5.163,
            15.435 10.111 3.621,
            5.178 -0.000 5.742,
            10.331 7.685 4.809,
            15.435 15.107 2.751,
            5.178 5.166 5.563,
            10.331 12.769 4.104,
            5.178 10.307 5.030,
            10.331 17.791 3.051,
            5.178 15.399 4.144,
            10.331 22.729 1.654,
            5.178 20.418 2.909
          ]
        }
        coordIndex [
          0, 1, 2, -1,
          0, 2, 3, -1,
          4, 5, 6, -1,
          7, 5, 4, -1,
          8, 9, 10, -1,
          8, 10, 11, -1,
          8, 11, 12, -1,
          8, 12, 13, -1,
          8, 13, 1, -1,
          8, 1, 0, -1,
          14, 0, 15, -1,
          14, 15, 16, -1,
          14, 8, 0, -1,
          17, 18, 19, -1,
          17, 19, 20, -1,
          17, 20, 21, -1,
          17, 21, 22, -1,
          17, 22, 9, -1,
          17, 9, 8, -1,
          17, 8, 14, -1,
          23, 16, 24, -1,
          23, 14, 16, -1,
          25, 14, 23, -1,
          25, 17, 14, -1,
          26, 23, 24, -1,
          26, 24, 27, -1,
          26, 27, 28, -1,
          29, 30, 31, -1,
          29, 31, 32, -1,
          29, 32, 33, -1,
          29, 33, 34, -1,
          29, 18, 17, -1,
          29, 34, 18, -1,
          29, 17, 25, -1,
          35, 25, 23, -1,
          35, 23, 26, -1,
          36, 26, 28, -1,
          36, 28, 37, -1,
          38, 39, 40, -1,
          38, 40, 41, -1,
          38, 41, 30, -1,
          38, 30, 29, -1,
          38, 25, 35, -1,
          38, 29, 25, -1,
          42, 26, 36, -1,
          42, 35, 26, -1,
          43, 36, 37, -1,
          43, 37, 44, -1,
          45, 38, 35, -1,
          45, 35, 42, -1,
          46, 42, 36, -1,
          46, 36, 43, -1,
          47, 48, 49, -1,
          47, 49, 50, -1,
          47, 50, 51, -1,
          47, 51, 52, -1,
          47, 52, 39, -1,
          47, 38, 45, -1,
          47, 39, 38, -1,
          53, 43, 44, -1,
          53, 54, 55, -1,
          53, 44, 54, -1,
          56, 45, 42, -1,
          56, 42, 46, -1,
          57, 46, 43, -1,
          57, 43, 53, -1,
          58, 59, 60, -1,
          58, 60, 61, -1,
          58, 45, 56, -1,
          58, 61, 62, -1,
          58, 62, 63, -1,
          58, 63, 48, -1,
          58, 47, 45, -1,
          58, 48, 47, -1,
          64, 55, 65, -1,
          64, 53, 55, -1,
          66, 56, 46, -1,
          66, 46, 57, -1,
          67, 57, 53, -1,
          67, 53, 64, -1,
          68, 69, 70, -1,
          68, 70, 59, -1,
          68, 58, 56, -1,
          68, 71, 72, -1,
          68, 72, 69, -1,
          68, 56, 66, -1,
          68, 59, 58, -1,
          73, 74, 5, -1,
          73, 65, 74, -1,
          73, 64, 65, -1,
          75, 57, 67, -1,
          75, 66, 57, -1,
          76, 67, 64, -1,
          76, 64, 73, -1,
          77, 66, 75, -1,
          77, 68, 66, -1,
          77, 78, 79, -1,
          77, 79, 80, -1,
          77, 80, 81, -1,
          77, 81, 82, -1,
          77, 82, 71, -1,
          77, 71, 68, -1,
          83, 7, 84, -1,
          83, 84, 85, -1,
          83, 85, 86, -1,
          83, 86, 87, -1,
          83, 87, 88, -1,
          83, 5, 7, -1,
          83, 73, 5, -1,
          89, 67, 76, -1,
          89, 90, 91, -1,
          89, 91, 92, -1,
          89, 92, 93, -1,
          89, 75, 67, -1,
          94, 73, 83, -1,
          94, 76, 73, -1,
          94, 88, 95, -1,
          94, 95, 96, -1,
          94, 96, 97, -1,
          94, 97, 98, -1,
          94, 98, 99, -1,
          94, 83, 88, -1,
          100, 78, 77, -1,
          100, 75, 89, -1,
          100, 93, 101, -1,
          100, 101, 102, -1,
          100, 102, 103, -1,
          100, 103, 104, -1,
          100, 104, 78, -1,
          100, 77, 75, -1,
          100, 89, 93, -1,
          105, 90, 89, -1,
          105, 94, 99, -1,
          105, 89, 76, -1,
          105, 99, 106, -1,
          105, 106, 107, -1,
          105, 107, 108, -1,
          105, 108, 109, -1,
          105, 109, 90, -1,
          105, 76, 94, -1,
          110, 111, 112, -1,
          110, 112, 113, -1,
          114, 110, 113, -1,
          114, 113, 115, -1,
          116, 115, 117, -1,
          116, 114, 115, -1,
          118, 117, 119, -1,
          118, 116, 117, -1,
          120, 119, 121, -1,
          120, 121, 122, -1,
          120, 118, 119, -1,
          123, 120, 122, -1,
          124, 122, 125, -1,
          124, 123, 122, -1,
          126, 125, 127, -1,
          126, 127, 128, -1,
          126, 124, 125, -1,
          129, 126, 128, -1,
          130, 128, 131, -1,
          130, 129, 128, -1,
          132, 131, 133, -1,
          132, 133, 134, -1,
          132, 130, 131, -1,
          135, 132, 134, -1,
          136, 134, 137, -1,
          136, 135, 134, -1,
          138, 137, 139, -1,
          138, 136, 137, -1,
          140, 139, 141, -1,
          140, 138, 139, -1,
          142, 141, 143, -1,
          142, 140, 141, -1,
          144, 143, 145, -1,
          144, 142, 143, -1,
          146, 144, 145, -1,
          146, 145, 147, -1,
          148, 146, 147, -1,
          148, 147, 149, -1,
          150, 148, 149, -1,
          150, 149, 151, -1,
          152, 151, 153, -1,
          152, 150, 151, -1,
          154, 153, 155, -1,
          154, 152, 153, -1,
          156, 155, 157, -1,
          156, 154, 155, -1,
          158, 157, 159, -1,
          158, 159, 160, -1,
          158, 156, 157, -1,
          161, 158, 160, -1,
          162, 160, 163, -1,
          162, 161, 160, -1,
          164, 163, 165, -1,
          164, 165, 166, -1,
          164, 162, 163, -1,
          167, 166, 168, -1,
          167, 164, 166, -1,
          169, 167, 168, -1,
          170, 168, 171, -1,
          170, 169, 168, -1,
          172, 171, 173, -1,
          172, 170, 171, -1,
          6, 173, 174, -1,
          6, 172, 173, -1,
          4, 174, 175, -1,
          4, 6, 174, -1,
          7, 175, 176, -1,
          7, 176, 177, -1,
          7, 4, 175, -1,
          84, 7, 177, -1,
          85, 177, 178, -1,
          85, 178, 179, -1,
          85, 84, 177, -1,
          86, 85, 179, -1,
          87, 179, 180, -1,
          87, 86, 179, -1,
          88, 180, 181, -1,
          88, 87, 180, -1,
          95, 181, 182, -1,
          95, 88, 181, -1,
          96, 182, 183, -1,
          96, 183, 184, -1,
          96, 95, 182, -1,
          97, 96, 184, -1,
          97, 184, 185, -1,
          98, 97, 185, -1,
          99, 98, 185, -1,
          99, 185, 186, -1,
          106, 186, 187, -1,
          106, 99, 186, -1,
          106, 187, 188, -1,
          107, 106, 188, -1,
          108, 188, 189, -1,
          108, 189, 190, -1,
          108, 107, 188, -1,
          109, 108, 190, -1,
          90, 190, 191, -1,
          90, 191, 192, -1,
          90, 109, 190, -1,
          91, 90, 192, -1,
          91, 192, 193, -1,
          92, 91, 193, -1,
          93, 193, 194, -1,
          93, 194, 195, -1,
          93, 92, 193, -1,
          101, 195, 196, -1,
          101, 93, 195, -1,
          102, 101, 196, -1,
          103, 196, 197, -1,
          103, 102, 196, -1,
          104, 197, 198, -1,
          104, 198, 199, -1,
          104, 103, 197, -1,
          78, 104, 199, -1,
          79, 199, 200, -1,
          79, 200, 201, -1,
          79, 78, 199, -1,
          80, 79, 201, -1,
          81, 201, 202, -1,
          81, 202, 203, -1,
          81, 80, 201, -1,
          82, 81, 203, -1,
          71, 203, 204, -1,
          71, 82, 203, -1,
          72, 204, 205, -1,
          72, 71, 204, -1,
          69, 205, 206, -1,
          69, 72, 205, -1,
          207, 175, 174, -1,
          207, 176, 175, -1,
          208, 209, 210, -1,
          211, 209, 208, -1,
          212, 177, 176, -1,
          212, 178, 177, -1,
          212, 179, 178, -1,
          212, 180, 179, -1,
          212, 181, 180, -1,
          212, 176, 207, -1,
          213, 214, 215, -1,
          213, 207, 214, -1,
          213, 212, 207, -1,
          216, 181, 212, -1,
          216, 182, 181, -1,
          216, 183, 182, -1,
          216, 184, 183, -1,
          216, 185, 184, -1,
          216, 186, 185, -1,
          216, 212, 213, -1,
          217, 215, 218, -1,
          217, 213, 215, -1,
          219, 216, 213, -1,
          219, 213, 217, -1,
          220, 221, 222, -1,
          220, 218, 221, -1,
          220, 217, 218, -1,
          223, 216, 219, -1,
          223, 187, 186, -1,
          223, 188, 187, -1,
          223, 189, 188, -1,
          223, 190, 189, -1,
          223, 191, 190, -1,
          223, 186, 216, -1,
          224, 217, 220, -1,
          224, 219, 217, -1,
          225, 222, 226, -1,
          225, 220, 222, -1,
          227, 219, 224, -1,
          227, 191, 223, -1,
          227, 223, 219, -1,
          227, 192, 191, -1,
          227, 193, 192, -1,
          227, 194, 193, -1,
          228, 224, 220, -1,
          228, 220, 225, -1,
          229, 225, 226, -1,
          229, 226, 230, -1,
          231, 227, 224, -1,
          231, 224, 228, -1,
          232, 225, 229, -1,
          232, 228, 225, -1,
          233, 227, 231, -1,
          233, 194, 227, -1,
          233, 195, 194, -1,
          233, 196, 195, -1,
          233, 197, 196, -1,
          233, 198, 197, -1,
          233, 199, 198, -1,
          234, 230, 235, -1,
          234, 235, 236, -1,
          234, 229, 230, -1,
          237, 228, 232, -1,
          237, 231, 228, -1,
          238, 232, 229, -1,
          238, 229, 234, -1,
          239, 199, 233, -1,
          239, 231, 237, -1,
          239, 200, 199, -1,
          239, 201, 200, -1,
          239, 202, 201, -1,
          239, 203, 202, -1,
          239, 204, 203, -1,
          239, 233, 231, -1,
          240, 236, 241, -1,
          240, 234, 236, -1,
          242, 232, 238, -1,
          242, 237, 232, -1,
          243, 234, 240, -1,
          243, 238, 234, -1,
          244, 245, 206, -1,
          244, 246, 245, -1,
          244, 204, 239, -1,
          244, 237, 242, -1,
          244, 239, 237, -1,
          244, 205, 204, -1,
          244, 206, 205, -1,
          247, 241, 248, -1,
          247, 248, 209, -1,
          247, 240, 241, -1,
          249, 238, 243, -1,
          249, 242, 238, -1,
          250, 243, 240, -1,
          250, 240, 247, -1,
          251, 242, 249, -1,
          251, 246, 244, -1,
          251, 252, 246, -1,
          251, 253, 252, -1,
          251, 254, 253, -1,
          251, 255, 254, -1,
          251, 256, 255, -1,
          251, 244, 242, -1,
          257, 258, 259, -1,
          257, 260, 258, -1,
          257, 261, 260, -1,
          257, 262, 261, -1,
          257, 211, 262, -1,
          257, 209, 211, -1,
          257, 247, 209, -1,
          263, 264, 265, -1,
          263, 266, 264, -1,
          263, 267, 266, -1,
          263, 249, 243, -1,
          263, 243, 250, -1,
          268, 247, 257, -1,
          268, 269, 270, -1,
          268, 271, 269, -1,
          268, 272, 271, -1,
          268, 250, 247, -1,
          268, 273, 272, -1,
          268, 259, 273, -1,
          268, 257, 259, -1,
          274, 251, 249, -1,
          274, 263, 265, -1,
          274, 275, 256, -1,
          274, 276, 275, -1,
          274, 277, 276, -1,
          274, 278, 277, -1,
          274, 265, 278, -1,
          274, 249, 263, -1,
          274, 256, 251, -1,
          279, 250, 268, -1,
          279, 280, 267, -1,
          279, 281, 280, -1,
          279, 282, 281, -1,
          279, 283, 282, -1,
          279, 270, 283, -1,
          279, 263, 250, -1,
          279, 268, 270, -1,
          279, 267, 263, -1,
          207, 171, 168, -1,
          207, 173, 171, -1,
          207, 174, 173, -1,
          284, 209, 285, -1,
          286, 209, 284, -1,
          210, 209, 286, -1,
          287, 131, 128, -1,
          287, 133, 131, -1,
          287, 134, 133, -1,
          287, 137, 134, -1,
          288, 157, 155, -1,
          288, 159, 157, -1,
          288, 160, 159, -1,
          289, 139, 137, -1,
          289, 141, 139, -1,
          289, 143, 141, -1,
          289, 145, 143, -1,
          289, 147, 145, -1,
          289, 149, 147, -1,
          289, 137, 287, -1,
          290, 121, 119, -1,
          290, 122, 121, -1,
          290, 125, 122, -1,
          290, 127, 125, -1,
          290, 128, 127, -1,
          290, 287, 128, -1,
          291, 149, 289, -1,
          291, 151, 149, -1,
          291, 153, 151, -1,
          291, 155, 153, -1,
          291, 288, 155, -1,
          292, 287, 290, -1,
          292, 289, 287, -1,
          293, 214, 207, -1,
          293, 163, 160, -1,
          293, 165, 163, -1,
          293, 166, 165, -1,
          293, 168, 166, -1,
          293, 288, 291, -1,
          293, 160, 288, -1,
          293, 207, 168, -1,
          294, 113, 112, -1,
          294, 115, 113, -1,
          294, 117, 115, -1,
          294, 119, 117, -1,
          294, 290, 119, -1,
          295, 291, 289, -1,
          295, 289, 292, -1,
          296, 292, 290, -1,
          296, 290, 294, -1,
          297, 218, 215, -1,
          297, 215, 214, -1,
          297, 291, 295, -1,
          297, 293, 291, -1,
          297, 214, 293, -1,
          298, 294, 112, -1,
          298, 299, 300, -1,
          298, 301, 299, -1,
          298, 302, 301, -1,
          298, 112, 302, -1,
          303, 292, 296, -1,
          303, 295, 292, -1,
          304, 294, 298, -1,
          304, 296, 294, -1,
          305, 221, 218, -1,
          305, 297, 295, -1,
          305, 295, 303, -1,
          305, 218, 297, -1,
          306, 307, 308, -1,
          306, 309, 307, -1,
          306, 310, 309, -1,
          306, 311, 310, -1,
          306, 300, 311, -1,
          306, 298, 300, -1,
          312, 303, 296, -1,
          312, 296, 304, -1,
          313, 304, 298, -1,
          313, 298, 306, -1,
          314, 222, 221, -1,
          314, 305, 303, -1,
          314, 303, 312, -1,
          314, 221, 305, -1,
          315, 306, 308, -1,
          315, 316, 317, -1,
          315, 318, 316, -1,
          315, 319, 318, -1,
          315, 308, 319, -1,
          320, 304, 313, -1,
          320, 312, 304, -1,
          321, 313, 306, -1,
          321, 306, 315, -1,
          322, 230, 226, -1,
          322, 226, 222, -1,
          322, 222, 314, -1,
          322, 314, 312, -1,
          322, 312, 320, -1,
          323, 320, 313, -1,
          323, 313, 321, -1,
          324, 315, 317, -1,
          324, 321, 315, -1,
          324, 325, 326, -1,
          324, 327, 325, -1,
          324, 328, 327, -1,
          324, 329, 328, -1,
          324, 330, 329, -1,
          324, 317, 330, -1,
          331, 235, 230, -1,
          331, 322, 320, -1,
          331, 320, 323, -1,
          331, 230, 322, -1,
          332, 321, 324, -1,
          332, 323, 321, -1,
          333, 236, 235, -1,
          333, 323, 332, -1,
          333, 331, 323, -1,
          333, 235, 331, -1,
          334, 324, 326, -1,
          334, 335, 336, -1,
          334, 337, 335, -1,
          334, 326, 337, -1,
          334, 332, 324, -1,
          338, 241, 236, -1,
          338, 248, 241, -1,
          338, 236, 333, -1,
          338, 333, 332, -1,
          338, 332, 334, -1,
          339, 334, 336, -1,
          339, 340, 341, -1,
          339, 342, 340, -1,
          339, 336, 342, -1,
          343, 209, 248, -1,
          343, 334, 339, -1,
          343, 285, 209, -1,
          343, 338, 334, -1,
          343, 339, 341, -1,
          343, 344, 285, -1,
          343, 345, 344, -1,
          343, 346, 345, -1,
          343, 341, 346, -1,
          343, 248, 338, -1,
          70, 69, 206, -1,
          70, 206, 245, -1,
          59, 245, 246, -1,
          59, 70, 245, -1,
          60, 246, 252, -1,
          60, 252, 253, -1,
          60, 59, 246, -1,
          61, 60, 253, -1,
          62, 253, 254, -1,
          62, 61, 253, -1,
          63, 254, 255, -1,
          63, 255, 256, -1,
          63, 62, 254, -1,
          48, 256, 275, -1,
          48, 63, 256, -1,
          49, 48, 275, -1,
          50, 275, 276, -1,
          50, 276, 277, -1,
          50, 49, 275, -1,
          51, 277, 278, -1,
          51, 50, 277, -1,
          52, 51, 278, -1,
          39, 278, 265, -1,
          39, 265, 264, -1,
          39, 52, 278, -1,
          40, 39, 264, -1,
          41, 264, 266, -1,
          41, 40, 264, -1,
          30, 266, 267, -1,
          30, 267, 280, -1,
          30, 41, 266, -1,
          31, 30, 280, -1,
          32, 280, 281, -1,
          32, 31, 280, -1,
          33, 32, 281, -1,
          33, 281, 282, -1,
          34, 33, 282, -1,
          34, 282, 283, -1,
          18, 34, 283, -1,
          18, 283, 270, -1,
          19, 18, 270, -1,
          19, 270, 269, -1,
          20, 269, 271, -1,
          20, 19, 269, -1,
          20, 271, 272, -1,
          21, 20, 272, -1,
          22, 21, 272, -1,
          22, 272, 273, -1,
          22, 273, 259, -1,
          9, 22, 259, -1,
          10, 259, 258, -1,
          10, 9, 259, -1,
          11, 258, 260, -1,
          11, 260, 261, -1,
          11, 10, 258, -1,
          12, 261, 262, -1,
          12, 11, 261, -1,
          13, 12, 262, -1,
          1, 262, 211, -1,
          1, 13, 262, -1,
          2, 211, 208, -1,
          2, 1, 211, -1,
          3, 208, 210, -1,
          3, 2, 208, -1,
          347, 210, 286, -1,
          347, 3, 210, -1,
          348, 286, 284, -1,
          348, 347, 286, -1,
          349, 284, 285, -1,
          349, 348, 284, -1,
          350, 285, 344, -1,
          350, 349, 285, -1,
          351, 344, 345, -1,
          351, 345, 346, -1,
          351, 350, 344, -1,
          352, 351, 346, -1,
          353, 346, 341, -1,
          353, 341, 340, -1,
          353, 352, 346, -1,
          354, 340, 342, -1,
          354, 353, 340, -1,
          355, 354, 342, -1,
          356, 355, 342, -1,
          356, 342, 336, -1,
          356, 336, 335, -1,
          357, 356, 335, -1,
          357, 335, 337, -1,
          358, 357, 337, -1,
          359, 358, 337, -1,
          359, 337, 326, -1,
          359, 326, 325, -1,
          360, 359, 325, -1,
          361, 360, 325, -1,
          361, 325, 327, -1,
          362, 361, 327, -1,
          362, 327, 328, -1,
          363, 362, 328, -1,
          363, 328, 329, -1,
          364, 363, 329, -1,
          364, 329, 330, -1,
          365, 364, 330, -1,
          365, 330, 317, -1,
          366, 365, 317, -1,
          366, 317, 316, -1,
          366, 316, 318, -1,
          367, 366, 318, -1,
          368, 367, 318, -1,
          368, 318, 319, -1,
          369, 368, 319, -1,
          369, 319, 308, -1,
          369, 308, 307, -1,
          370, 369, 307, -1,
          371, 307, 309, -1,
          371, 370, 307, -1,
          372, 309, 310, -1,
          372, 310, 311, -1,
          372, 371, 309, -1,
          373, 372, 311, -1,
          374, 311, 300, -1,
          374, 373, 311, -1,
          375, 300, 299, -1,
          375, 299, 301, -1,
          375, 374, 300, -1,
          376, 375, 301, -1,
          377, 301, 302, -1,
          377, 376, 301, -1,
          111, 302, 112, -1,
          111, 377, 302, -1,
          0, 3, 347, -1,
          0, 347, 348, -1,
          0, 348, 349, -1,
          170, 5, 169, -1,
          172, 5, 170, -1,
          6, 5, 172, -1,
          378, 365, 366, -1,
          378, 366, 367, -1,
          378, 367, 368, -1,
          378, 368, 369, -1,
          379, 353, 354, -1,
          379, 354, 355, -1,
          379, 355, 356, -1,
          380, 359, 360, -1,
          380, 360, 361, -1,
          380, 361, 362, -1,
          380, 362, 363, -1,
          380, 363, 364, -1,
          380, 364, 365, -1,
          380, 365, 378, -1,
          381, 378, 369, -1,
          381, 369, 370, -1,
          381, 370, 371, -1,
          381, 371, 372, -1,
          381, 372, 373, -1,
          381, 373, 374, -1,
          382, 356, 357, -1,
          382, 357, 358, -1,
          382, 358, 359, -1,
          382, 359, 380, -1,
          382, 379, 356, -1,
          383, 380, 378, -1,
          383, 378, 381, -1,
          384, 15, 0, -1,
          384, 349, 350, -1,
          384, 350, 351, -1,
          384, 351, 352, -1,
          384, 352, 353, -1,
          384, 0, 349, -1,
          384, 353, 379, -1,
          384, 379, 382, -1,
          385, 374, 375, -1,
          385, 375, 376, -1,
          385, 376, 377, -1,
          385, 377, 111, -1,
          385, 381, 374, -1,
          386, 382, 380, -1,
          386, 380, 383, -1,
          387, 381, 385, -1,
          387, 383, 381, -1,
          388, 16, 15, -1,
          388, 382, 386, -1,
          388, 384, 382, -1,
          388, 15, 384, -1,
          389, 111, 110, -1,
          389, 110, 114, -1,
          389, 114, 116, -1,
          389, 116, 118, -1,
          389, 385, 111, -1,
          390, 386, 383, -1,
          390, 383, 387, -1,
          391, 385, 389, -1,
          391, 387, 385, -1,
          392, 24, 16, -1,
          392, 388, 386, -1,
          392, 27, 24, -1,
          392, 386, 390, -1,
          392, 16, 388, -1,
          393, 118, 120, -1,
          393, 120, 123, -1,
          393, 123, 124, -1,
          393, 124, 126, -1,
          393, 126, 129, -1,
          393, 389, 118, -1,
          394, 390, 387, -1,
          394, 387, 391, -1,
          395, 389, 393, -1,
          395, 391, 389, -1,
          396, 28, 27, -1,
          396, 390, 394, -1,
          396, 392, 390, -1,
          396, 27, 392, -1,
          397, 129, 130, -1,
          397, 130, 132, -1,
          397, 132, 135, -1,
          397, 135, 136, -1,
          397, 393, 129, -1,
          398, 394, 391, -1,
          398, 391, 395, -1,
          399, 395, 393, -1,
          399, 393, 397, -1,
          400, 37, 28, -1,
          400, 28, 396, -1,
          400, 394, 398, -1,
          400, 44, 37, -1,
          400, 396, 394, -1,
          401, 398, 395, -1,
          401, 395, 399, -1,
          402, 399, 397, -1,
          402, 397, 136, -1,
          402, 136, 138, -1,
          402, 138, 140, -1,
          402, 140, 142, -1,
          402, 142, 144, -1,
          402, 144, 146, -1,
          402, 146, 148, -1,
          403, 44, 400, -1,
          403, 400, 398, -1,
          403, 398, 401, -1,
          403, 54, 44, -1,
          404, 399, 402, -1,
          404, 401, 399, -1,
          405, 54, 403, -1,
          405, 401, 404, -1,
          405, 55, 54, -1,
          405, 403, 401, -1,
          406, 404, 402, -1,
          406, 402, 148, -1,
          406, 148, 150, -1,
          406, 150, 152, -1,
          406, 152, 154, -1,
          407, 405, 404, -1,
          407, 404, 406, -1,
          407, 74, 65, -1,
          407, 65, 55, -1,
          407, 55, 405, -1,
          408, 406, 154, -1,
          408, 154, 156, -1,
          408, 156, 158, -1,
          408, 158, 161, -1,
          409, 407, 406, -1,
          409, 169, 5, -1,
          409, 406, 408, -1,
          409, 74, 407, -1,
          409, 408, 161, -1,
          409, 161, 162, -1,
          409, 162, 164, -1,
          409, 164, 167, -1,
          409, 167, 169, -1,
          409, 5, 74, -1
        ]
      }
    }
}
