#VRML V2.0 utf8
WorldInfo {
  title "Exported triangle mesh to VRML97"
  info ["Created by FreeCAD"
        "<https://www.freecad.org>"]
}

Transform {
  scale 1 1 1
  rotation 0 0 1 0
  scaleOrientation 0 0 1 0
  center 0.000 0.000 0.000
  translation 0.000 0.000 0.000
  children
    Shape { 
      appearance
      Appearance {
        material
        Material {
          diffuseColor 0.8 0.8 0.8
        }
      }
      geometry
      IndexedFaceSet {
        coord
        Coordinate {
          point [
            0.000 8.467 -1.045,
            -0.623 12.685 -1.002,
            0.000 12.700 -1.002,
            -1.245 12.639 -1.002,
            -1.863 12.563 -1.002,
            -2.478 12.456 -1.002,
            -3.086 12.319 -1.002,
            -3.687 12.153 -1.002,
            -4.279 11.958 -1.002,
            -4.860 11.733 -1.002,
            -5.430 11.481 -1.002,
            -5.987 11.200 -1.002,
            -6.529 10.893 -1.002,
            -7.056 10.560 -1.002,
            0.000 4.233 -1.071,
            -7.565 10.201 -1.002,
            -8.057 9.817 -1.002,
            -8.529 9.410 -1.002,
            -8.980 8.980 -1.002,
            -9.410 8.529 -1.002,
            -9.817 8.057 -1.002,
            -10.201 7.565 -1.002,
            -10.560 7.056 -1.002,
            -10.893 6.529 -1.002,
            -11.200 5.987 -1.002,
            -11.481 5.430 -1.002,
            -11.733 4.860 -1.002,
            -11.958 4.279 -1.002,
            0.000 -0.000 -1.080,
            -12.153 3.687 -1.002,
            -12.319 3.086 -1.002,
            -12.456 2.478 -1.002,
            -12.563 1.863 -1.002,
            -12.639 1.245 -1.002,
            -12.685 0.623 -1.002,
            -12.700 -0.000 -1.002,
            -0.623 -12.685 -1.002,
            -0.000 -8.467 -1.045,
            -0.000 -12.700 -1.002,
            -12.685 -0.623 -1.002,
            -1.245 -12.639 -1.002,
            -12.639 -1.245 -1.002,
            -1.863 -12.563 -1.002,
            -12.563 -1.863 -1.002,
            -2.478 -12.456 -1.002,
            -12.456 -2.478 -1.002,
            -3.086 -12.319 -1.002,
            -12.319 -3.086 -1.002,
            -3.687 -12.153 -1.002,
            -12.153 -3.687 -1.002,
            -4.279 -11.958 -1.002,
            -11.958 -4.279 -1.002,
            -0.000 -4.233 -1.071,
            -4.860 -11.733 -1.002,
            -11.733 -4.860 -1.002,
            -5.430 -11.481 -1.002,
            -11.481 -5.430 -1.002,
            -5.987 -11.200 -1.002,
            -11.200 -5.987 -1.002,
            -6.529 -10.893 -1.002,
            -10.893 -6.529 -1.002,
            -7.056 -10.560 -1.002,
            -10.560 -7.056 -1.002,
            -7.565 -10.201 -1.002,
            -10.201 -7.565 -1.002,
            -8.057 -9.817 -1.002,
            -9.817 -8.057 -1.002,
            -8.529 -9.410 -1.002,
            -9.410 -8.529 -1.002,
            -8.980 -8.980 -1.002,
            -0.000 -8.467 1.045,
            -3.086 -12.319 1.002,
            -2.478 -12.456 1.002,
            -1.863 -12.563 1.002,
            -1.245 -12.639 1.002,
            -0.623 -12.685 1.002,
            -0.000 -12.700 1.002,
            -3.687 -12.153 1.002,
            -4.279 -11.958 1.002,
            -4.860 -11.733 1.002,
            -5.430 -11.481 1.002,
            -5.987 -11.200 1.002,
            -6.529 -10.893 1.002,
            -7.056 -10.560 1.002,
            -0.000 -4.233 1.071,
            -7.565 -10.201 1.002,
            -8.057 -9.817 1.002,
            -8.529 -9.410 1.002,
            -8.980 -8.980 1.002,
            -9.410 -8.529 1.002,
            -9.817 -8.057 1.002,
            -10.201 -7.565 1.002,
            -10.560 -7.056 1.002,
            -10.893 -6.529 1.002,
            -11.200 -5.987 1.002,
            -11.481 -5.430 1.002,
            -11.733 -4.860 1.002,
            -11.958 -4.279 1.002,
            0.000 0.000 1.080,
            -12.153 -3.687 1.002,
            -12.319 -3.086 1.002,
            -12.456 -2.478 1.002,
            -12.563 -1.863 1.002,
            -12.639 -1.245 1.002,
            -12.685 -0.623 1.002,
            -12.700 -0.000 1.002,
            -0.623 12.685 1.002,
            0.000 8.467 1.045,
            0.000 12.700 1.002,
            -12.685 0.623 1.002,
            -1.245 12.639 1.002,
            -12.639 1.245 1.002,
            -1.863 12.563 1.002,
            -12.563 1.863 1.002,
            -2.478 12.456 1.002,
            -12.456 2.478 1.002,
            -3.086 12.319 1.002,
            -12.319 3.086 1.002,
            -3.687 12.153 1.002,
            -12.153 3.687 1.002,
            -4.279 11.958 1.002,
            -11.958 4.279 1.002,
            0.000 4.233 1.071,
            -4.860 11.733 1.002,
            -11.733 4.860 1.002,
            -5.430 11.481 1.002,
            -11.481 5.430 1.002,
            -5.987 11.200 1.002,
            -11.200 5.987 1.002,
            -6.529 10.893 1.002,
            -10.893 6.529 1.002,
            -7.056 10.560 1.002,
            -10.560 7.056 1.002,
            -7.565 10.201 1.002,
            -10.201 7.565 1.002,
            -8.057 9.817 1.002,
            -9.817 8.057 1.002,
            -8.529 9.410 1.002,
            -9.410 8.529 1.002,
            -8.980 8.980 1.002,
            12.685 0.623 1.002,
            12.700 -0.000 -1.002,
            12.685 0.623 -1.002,
            12.700 -0.000 1.002,
            12.639 1.245 1.002,
            12.639 1.245 -1.002,
            12.563 1.863 1.002,
            12.563 1.863 -1.002,
            12.456 2.478 1.002,
            12.456 2.478 -1.002,
            12.319 3.086 1.002,
            12.319 3.086 -1.002,
            12.153 3.687 1.002,
            12.153 3.687 -1.002,
            11.958 4.279 -1.002,
            11.958 4.279 1.002,
            11.733 4.860 1.002,
            11.733 4.860 -1.002,
            11.481 5.430 1.002,
            11.481 5.430 -1.002,
            11.200 5.987 1.002,
            11.200 5.987 -1.002,
            10.893 6.529 1.002,
            10.893 6.529 -1.002,
            10.560 7.056 1.002,
            10.560 7.056 -1.002,
            10.201 7.565 -1.002,
            10.201 7.565 1.002,
            9.817 8.057 1.002,
            9.817 8.057 -1.002,
            9.410 8.529 -1.002,
            9.410 8.529 1.002,
            8.980 8.980 1.002,
            8.980 8.980 -1.002,
            8.529 9.410 -1.002,
            8.529 9.410 1.002,
            8.057 9.817 1.002,
            8.057 9.817 -1.002,
            7.565 10.201 -1.002,
            7.565 10.201 1.002,
            7.056 10.560 -1.002,
            7.056 10.560 1.002,
            6.529 10.893 1.002,
            6.529 10.893 -1.002,
            5.987 11.200 1.002,
            5.987 11.200 -1.002,
            5.430 11.481 1.002,
            5.430 11.481 -1.002,
            4.860 11.733 1.002,
            4.860 11.733 -1.002,
            4.279 11.958 1.002,
            4.279 11.958 -1.002,
            3.687 12.153 -1.002,
            3.687 12.153 1.002,
            3.086 12.319 1.002,
            3.086 12.319 -1.002,
            2.478 12.456 1.002,
            2.478 12.456 -1.002,
            1.863 12.563 1.002,
            1.863 12.563 -1.002,
            1.245 12.639 1.002,
            1.245 12.639 -1.002,
            0.623 12.685 1.002,
            0.623 12.685 -1.002,
            0.623 -12.685 1.002,
            0.623 -12.685 -1.002,
            1.245 -12.639 1.002,
            1.245 -12.639 -1.002,
            1.863 -12.563 1.002,
            1.863 -12.563 -1.002,
            2.478 -12.456 1.002,
            2.478 -12.456 -1.002,
            3.086 -12.319 1.002,
            3.086 -12.319 -1.002,
            3.687 -12.153 1.002,
            3.687 -12.153 -1.002,
            4.279 -11.958 1.002,
            4.279 -11.958 -1.002,
            4.860 -11.733 1.002,
            4.860 -11.733 -1.002,
            5.430 -11.481 1.002,
            5.430 -11.481 -1.002,
            5.987 -11.200 1.002,
            5.987 -11.200 -1.002,
            6.529 -10.893 1.002,
            6.529 -10.893 -1.002,
            7.056 -10.560 1.002,
            7.056 -10.560 -1.002,
            7.565 -10.201 1.002,
            7.565 -10.201 -1.002,
            8.057 -9.817 1.002,
            8.057 -9.817 -1.002,
            8.529 -9.410 1.002,
            8.529 -9.410 -1.002,
            8.980 -8.980 1.002,
            8.980 -8.980 -1.002,
            9.410 -8.529 -1.002,
            9.410 -8.529 1.002,
            9.817 -8.057 1.002,
            9.817 -8.057 -1.002,
            10.201 -7.565 1.002,
            10.201 -7.565 -1.002,
            10.560 -7.056 -1.002,
            10.560 -7.056 1.002,
            10.893 -6.529 1.002,
            10.893 -6.529 -1.002,
            11.200 -5.987 1.002,
            11.200 -5.987 -1.002,
            11.481 -5.430 -1.002,
            11.481 -5.430 1.002,
            11.733 -4.860 1.002,
            11.733 -4.860 -1.002,
            11.958 -4.279 1.002,
            11.958 -4.279 -1.002,
            12.153 -3.687 -1.002,
            12.153 -3.687 1.002,
            12.319 -3.086 -1.002,
            12.319 -3.086 1.002,
            12.456 -2.478 1.002,
            12.456 -2.478 -1.002,
            12.563 -1.863 -1.002,
            12.563 -1.863 1.002,
            12.639 -1.245 1.002,
            12.639 -1.245 -1.002,
            12.685 -0.623 -1.002,
            12.685 -0.623 1.002
          ]
        }
        coordIndex [
          0, 1, 2, -1,
          0, 3, 1, -1,
          0, 4, 3, -1,
          0, 5, 4, -1,
          0, 6, 5, -1,
          7, 6, 0, -1,
          8, 7, 0, -1,
          9, 8, 0, -1,
          10, 9, 0, -1,
          11, 10, 0, -1,
          12, 11, 0, -1,
          13, 0, 14, -1,
          13, 12, 0, -1,
          15, 13, 14, -1,
          16, 15, 14, -1,
          17, 16, 14, -1,
          18, 17, 14, -1,
          19, 18, 14, -1,
          20, 19, 14, -1,
          21, 20, 14, -1,
          22, 21, 14, -1,
          23, 22, 14, -1,
          24, 23, 14, -1,
          25, 24, 14, -1,
          26, 25, 14, -1,
          27, 14, 28, -1,
          27, 26, 14, -1,
          29, 27, 28, -1,
          30, 29, 28, -1,
          31, 30, 28, -1,
          32, 31, 28, -1,
          33, 32, 28, -1,
          34, 33, 28, -1,
          35, 34, 28, -1,
          36, 37, 38, -1,
          39, 35, 28, -1,
          40, 37, 36, -1,
          41, 39, 28, -1,
          42, 37, 40, -1,
          43, 41, 28, -1,
          44, 37, 42, -1,
          45, 43, 28, -1,
          46, 37, 44, -1,
          47, 45, 28, -1,
          48, 37, 46, -1,
          49, 47, 28, -1,
          50, 37, 48, -1,
          51, 28, 52, -1,
          51, 49, 28, -1,
          53, 37, 50, -1,
          54, 51, 52, -1,
          55, 37, 53, -1,
          56, 54, 52, -1,
          57, 37, 55, -1,
          58, 56, 52, -1,
          59, 37, 57, -1,
          60, 58, 52, -1,
          61, 52, 37, -1,
          61, 37, 59, -1,
          62, 60, 52, -1,
          63, 52, 61, -1,
          64, 62, 52, -1,
          65, 52, 63, -1,
          66, 64, 52, -1,
          67, 52, 65, -1,
          68, 66, 52, -1,
          69, 52, 67, -1,
          69, 68, 52, -1,
          70, 71, 72, -1,
          70, 72, 73, -1,
          70, 73, 74, -1,
          70, 74, 75, -1,
          70, 75, 76, -1,
          77, 71, 70, -1,
          78, 77, 70, -1,
          79, 78, 70, -1,
          80, 79, 70, -1,
          81, 80, 70, -1,
          82, 81, 70, -1,
          83, 70, 84, -1,
          83, 82, 70, -1,
          85, 83, 84, -1,
          86, 85, 84, -1,
          87, 86, 84, -1,
          88, 87, 84, -1,
          89, 88, 84, -1,
          90, 89, 84, -1,
          91, 90, 84, -1,
          92, 91, 84, -1,
          93, 92, 84, -1,
          94, 93, 84, -1,
          95, 94, 84, -1,
          96, 95, 84, -1,
          97, 96, 84, -1,
          97, 84, 98, -1,
          99, 97, 98, -1,
          100, 99, 98, -1,
          101, 100, 98, -1,
          102, 101, 98, -1,
          103, 102, 98, -1,
          104, 103, 98, -1,
          105, 104, 98, -1,
          106, 107, 108, -1,
          109, 105, 98, -1,
          110, 107, 106, -1,
          111, 109, 98, -1,
          112, 107, 110, -1,
          113, 111, 98, -1,
          114, 107, 112, -1,
          115, 113, 98, -1,
          116, 107, 114, -1,
          117, 115, 98, -1,
          118, 107, 116, -1,
          119, 117, 98, -1,
          120, 107, 118, -1,
          121, 98, 122, -1,
          121, 119, 98, -1,
          123, 107, 120, -1,
          124, 121, 122, -1,
          125, 107, 123, -1,
          126, 124, 122, -1,
          127, 107, 125, -1,
          128, 126, 122, -1,
          129, 107, 127, -1,
          130, 128, 122, -1,
          131, 122, 107, -1,
          131, 107, 129, -1,
          132, 130, 122, -1,
          133, 122, 131, -1,
          134, 132, 122, -1,
          135, 122, 133, -1,
          136, 134, 122, -1,
          137, 122, 135, -1,
          138, 136, 122, -1,
          139, 122, 137, -1,
          139, 138, 122, -1,
          140, 141, 142, -1,
          140, 143, 141, -1,
          144, 142, 145, -1,
          144, 140, 142, -1,
          146, 145, 147, -1,
          146, 144, 145, -1,
          148, 147, 149, -1,
          148, 146, 147, -1,
          150, 149, 151, -1,
          150, 148, 149, -1,
          152, 151, 153, -1,
          152, 153, 154, -1,
          152, 150, 151, -1,
          155, 152, 154, -1,
          156, 154, 157, -1,
          156, 155, 154, -1,
          158, 157, 159, -1,
          158, 156, 157, -1,
          160, 159, 161, -1,
          160, 158, 159, -1,
          162, 161, 163, -1,
          162, 160, 161, -1,
          164, 163, 165, -1,
          164, 165, 166, -1,
          164, 162, 163, -1,
          167, 164, 166, -1,
          168, 166, 169, -1,
          168, 169, 170, -1,
          168, 167, 166, -1,
          171, 168, 170, -1,
          172, 170, 173, -1,
          172, 173, 174, -1,
          172, 171, 170, -1,
          175, 172, 174, -1,
          176, 175, 174, -1,
          176, 174, 177, -1,
          176, 177, 178, -1,
          179, 176, 178, -1,
          179, 178, 180, -1,
          181, 179, 180, -1,
          182, 181, 180, -1,
          182, 180, 183, -1,
          184, 183, 185, -1,
          184, 182, 183, -1,
          186, 185, 187, -1,
          186, 184, 185, -1,
          188, 187, 189, -1,
          188, 186, 187, -1,
          190, 189, 191, -1,
          190, 191, 192, -1,
          190, 188, 189, -1,
          193, 190, 192, -1,
          194, 192, 195, -1,
          194, 193, 192, -1,
          196, 195, 197, -1,
          196, 194, 195, -1,
          198, 197, 199, -1,
          198, 196, 197, -1,
          200, 199, 201, -1,
          200, 198, 199, -1,
          202, 201, 203, -1,
          202, 200, 201, -1,
          108, 203, 2, -1,
          108, 202, 203, -1,
          106, 2, 1, -1,
          106, 108, 2, -1,
          110, 1, 3, -1,
          110, 106, 1, -1,
          112, 3, 4, -1,
          112, 110, 3, -1,
          114, 4, 5, -1,
          114, 112, 4, -1,
          116, 5, 6, -1,
          116, 114, 5, -1,
          118, 6, 7, -1,
          118, 116, 6, -1,
          120, 7, 8, -1,
          120, 118, 7, -1,
          123, 8, 9, -1,
          123, 120, 8, -1,
          125, 9, 10, -1,
          125, 123, 9, -1,
          127, 125, 10, -1,
          127, 10, 11, -1,
          127, 11, 12, -1,
          129, 127, 12, -1,
          131, 129, 12, -1,
          131, 12, 13, -1,
          133, 131, 13, -1,
          133, 13, 15, -1,
          133, 15, 16, -1,
          135, 133, 16, -1,
          137, 135, 16, -1,
          137, 16, 17, -1,
          139, 137, 17, -1,
          139, 17, 18, -1,
          139, 18, 19, -1,
          138, 139, 19, -1,
          136, 138, 19, -1,
          136, 19, 20, -1,
          134, 136, 20, -1,
          134, 20, 21, -1,
          134, 21, 22, -1,
          132, 134, 22, -1,
          130, 132, 22, -1,
          130, 22, 23, -1,
          128, 130, 23, -1,
          128, 23, 24, -1,
          128, 24, 25, -1,
          126, 128, 25, -1,
          124, 25, 26, -1,
          124, 126, 25, -1,
          121, 26, 27, -1,
          121, 27, 29, -1,
          121, 124, 26, -1,
          119, 29, 30, -1,
          119, 121, 29, -1,
          117, 30, 31, -1,
          117, 119, 30, -1,
          115, 117, 31, -1,
          113, 31, 32, -1,
          113, 115, 31, -1,
          111, 32, 33, -1,
          111, 33, 34, -1,
          111, 113, 32, -1,
          109, 111, 34, -1,
          105, 34, 35, -1,
          105, 109, 34, -1,
          104, 105, 35, -1,
          104, 35, 39, -1,
          103, 39, 41, -1,
          103, 104, 39, -1,
          102, 41, 43, -1,
          102, 103, 41, -1,
          101, 43, 45, -1,
          101, 102, 43, -1,
          100, 45, 47, -1,
          100, 101, 45, -1,
          99, 47, 49, -1,
          99, 100, 47, -1,
          97, 49, 51, -1,
          97, 51, 54, -1,
          97, 99, 49, -1,
          96, 97, 54, -1,
          95, 54, 56, -1,
          95, 96, 54, -1,
          94, 56, 58, -1,
          94, 95, 56, -1,
          93, 58, 60, -1,
          93, 94, 58, -1,
          92, 60, 62, -1,
          92, 62, 64, -1,
          92, 93, 60, -1,
          91, 92, 64, -1,
          90, 64, 66, -1,
          90, 91, 64, -1,
          89, 66, 68, -1,
          89, 90, 66, -1,
          88, 68, 69, -1,
          88, 69, 67, -1,
          88, 89, 68, -1,
          87, 88, 67, -1,
          86, 87, 67, -1,
          86, 67, 65, -1,
          85, 86, 65, -1,
          85, 65, 63, -1,
          85, 63, 61, -1,
          83, 85, 61, -1,
          82, 83, 61, -1,
          82, 61, 59, -1,
          81, 59, 57, -1,
          81, 82, 59, -1,
          81, 57, 55, -1,
          80, 81, 55, -1,
          79, 80, 55, -1,
          79, 55, 53, -1,
          78, 53, 50, -1,
          78, 79, 53, -1,
          77, 50, 48, -1,
          77, 78, 50, -1,
          71, 48, 46, -1,
          71, 77, 48, -1,
          72, 46, 44, -1,
          72, 71, 46, -1,
          73, 44, 42, -1,
          73, 72, 44, -1,
          74, 42, 40, -1,
          74, 73, 42, -1,
          75, 40, 36, -1,
          75, 74, 40, -1,
          76, 36, 38, -1,
          76, 75, 36, -1,
          204, 38, 205, -1,
          204, 76, 38, -1,
          206, 205, 207, -1,
          206, 204, 205, -1,
          208, 207, 209, -1,
          208, 206, 207, -1,
          210, 209, 211, -1,
          210, 208, 209, -1,
          212, 211, 213, -1,
          212, 210, 211, -1,
          214, 213, 215, -1,
          214, 212, 213, -1,
          216, 215, 217, -1,
          216, 214, 215, -1,
          218, 217, 219, -1,
          218, 216, 217, -1,
          220, 219, 221, -1,
          220, 218, 219, -1,
          222, 220, 221, -1,
          222, 221, 223, -1,
          224, 222, 223, -1,
          224, 223, 225, -1,
          226, 224, 225, -1,
          226, 225, 227, -1,
          228, 226, 227, -1,
          228, 227, 229, -1,
          230, 228, 229, -1,
          230, 229, 231, -1,
          232, 230, 231, -1,
          232, 231, 233, -1,
          234, 232, 233, -1,
          234, 233, 235, -1,
          234, 235, 236, -1,
          237, 234, 236, -1,
          238, 237, 236, -1,
          238, 236, 239, -1,
          240, 238, 239, -1,
          240, 239, 241, -1,
          240, 241, 242, -1,
          243, 240, 242, -1,
          244, 243, 242, -1,
          244, 242, 245, -1,
          246, 244, 245, -1,
          246, 245, 247, -1,
          246, 247, 248, -1,
          249, 246, 248, -1,
          250, 248, 251, -1,
          250, 249, 248, -1,
          252, 251, 253, -1,
          252, 250, 251, -1,
          252, 253, 254, -1,
          255, 254, 256, -1,
          255, 252, 254, -1,
          257, 255, 256, -1,
          258, 256, 259, -1,
          258, 259, 260, -1,
          258, 257, 256, -1,
          261, 258, 260, -1,
          262, 260, 263, -1,
          262, 263, 264, -1,
          262, 261, 260, -1,
          265, 262, 264, -1,
          143, 264, 141, -1,
          143, 265, 264, -1,
          70, 76, 204, -1,
          70, 204, 206, -1,
          70, 206, 208, -1,
          70, 208, 210, -1,
          70, 210, 212, -1,
          70, 212, 214, -1,
          70, 214, 216, -1,
          70, 216, 218, -1,
          70, 218, 220, -1,
          70, 220, 222, -1,
          70, 222, 224, -1,
          70, 224, 226, -1,
          84, 226, 228, -1,
          84, 228, 230, -1,
          84, 230, 232, -1,
          84, 232, 234, -1,
          84, 234, 237, -1,
          84, 237, 238, -1,
          84, 238, 240, -1,
          84, 240, 243, -1,
          84, 243, 244, -1,
          84, 244, 246, -1,
          84, 246, 249, -1,
          84, 249, 250, -1,
          84, 250, 252, -1,
          84, 70, 226, -1,
          98, 252, 255, -1,
          98, 255, 257, -1,
          98, 257, 258, -1,
          98, 258, 261, -1,
          98, 261, 262, -1,
          98, 262, 265, -1,
          98, 265, 143, -1,
          98, 143, 140, -1,
          98, 140, 144, -1,
          98, 144, 146, -1,
          98, 146, 148, -1,
          98, 148, 150, -1,
          98, 150, 152, -1,
          98, 152, 155, -1,
          98, 84, 252, -1,
          122, 98, 155, -1,
          122, 155, 156, -1,
          122, 156, 158, -1,
          122, 158, 160, -1,
          122, 160, 162, -1,
          122, 162, 164, -1,
          122, 164, 167, -1,
          122, 167, 168, -1,
          122, 168, 171, -1,
          122, 171, 172, -1,
          122, 172, 175, -1,
          122, 175, 176, -1,
          122, 176, 179, -1,
          122, 179, 181, -1,
          107, 181, 182, -1,
          107, 182, 184, -1,
          107, 184, 186, -1,
          107, 186, 188, -1,
          107, 188, 190, -1,
          107, 190, 193, -1,
          107, 122, 181, -1,
          194, 107, 193, -1,
          196, 107, 194, -1,
          198, 107, 196, -1,
          200, 107, 198, -1,
          202, 107, 200, -1,
          108, 107, 202, -1,
          0, 183, 180, -1,
          0, 185, 183, -1,
          0, 187, 185, -1,
          0, 189, 187, -1,
          0, 191, 189, -1,
          0, 192, 191, -1,
          0, 195, 192, -1,
          0, 197, 195, -1,
          0, 199, 197, -1,
          0, 201, 199, -1,
          0, 203, 201, -1,
          0, 2, 203, -1,
          14, 157, 154, -1,
          14, 159, 157, -1,
          14, 161, 159, -1,
          14, 163, 161, -1,
          14, 165, 163, -1,
          14, 166, 165, -1,
          14, 169, 166, -1,
          14, 170, 169, -1,
          14, 173, 170, -1,
          14, 174, 173, -1,
          14, 177, 174, -1,
          14, 0, 180, -1,
          14, 178, 177, -1,
          14, 180, 178, -1,
          28, 142, 141, -1,
          28, 145, 142, -1,
          28, 147, 145, -1,
          28, 149, 147, -1,
          28, 151, 149, -1,
          28, 153, 151, -1,
          28, 154, 153, -1,
          28, 254, 253, -1,
          28, 256, 254, -1,
          28, 259, 256, -1,
          28, 260, 259, -1,
          28, 263, 260, -1,
          28, 264, 263, -1,
          28, 141, 264, -1,
          28, 14, 154, -1,
          52, 229, 227, -1,
          52, 231, 229, -1,
          52, 233, 231, -1,
          52, 235, 233, -1,
          52, 236, 235, -1,
          52, 239, 236, -1,
          52, 241, 239, -1,
          52, 28, 253, -1,
          52, 242, 241, -1,
          52, 245, 242, -1,
          52, 247, 245, -1,
          52, 248, 247, -1,
          52, 251, 248, -1,
          52, 253, 251, -1,
          37, 217, 215, -1,
          37, 219, 217, -1,
          37, 221, 219, -1,
          37, 223, 221, -1,
          37, 225, 223, -1,
          37, 227, 225, -1,
          37, 52, 227, -1,
          213, 37, 215, -1,
          211, 37, 213, -1,
          209, 37, 211, -1,
          207, 37, 209, -1,
          205, 37, 207, -1,
          38, 37, 205, -1
        ]
      }
    }
}
