#VRML V2.0 utf8
WorldInfo {
  title "Exported triangle mesh to VRML97"
  info ["Created by FreeCAD"
        "<https://www.freecad.org>"]
}

Transform {
  scale 1 1 1
  rotation 0 0 1 0
  scaleOrientation 0 0 1 0
  center 0.000 0.000 0.000
  translation 0.000 0.000 0.000
  children
    Shape { 
      appearance
      Appearance {
        material
        Material {
          diffuseColor 0.8 0.8 0.8
        }
      }
      geometry
      IndexedFaceSet {
        coord
        Coordinate {
          point [
            0.000 10.618 -1.493,
            -0.623 12.685 -1.000,
            0.000 12.700 -1.000,
            -1.245 12.639 -1.000,
            -1.863 12.563 -1.000,
            -0.623 -12.685 -1.000,
            -0.000 -10.618 -1.493,
            -0.000 -12.700 -1.000,
            -1.245 -12.639 -1.000,
            -1.863 -12.563 -1.000,
            -3.207 11.118 -1.279,
            0.000 8.517 -1.898,
            -2.478 12.456 -1.000,
            -3.086 12.319 -1.000,
            -3.687 12.153 -1.000,
            -4.279 11.958 -1.000,
            -4.860 11.733 -1.000,
            -5.430 11.481 -1.000,
            -3.207 7.974 -1.885,
            0.000 6.401 -2.213,
            -6.401 9.493 -1.308,
            -5.987 11.200 -1.000,
            -6.529 10.893 -1.000,
            -7.056 10.560 -1.000,
            -7.565 10.201 -1.000,
            -8.057 9.817 -1.000,
            -8.529 9.410 -1.000,
            -3.207 4.797 -2.290,
            0.000 4.274 -2.439,
            -6.401 6.350 -1.810,
            -8.980 8.980 -1.000,
            -3.207 1.601 -2.493,
            0.000 2.139 -2.575,
            0.000 -0.000 -2.620,
            -9.570 7.846 -1.083,
            -9.410 8.529 -1.000,
            -9.817 8.057 -1.000,
            -10.201 7.565 -1.000,
            -10.560 7.056 -1.000,
            -6.401 3.181 -2.113,
            -3.207 -1.601 -2.493,
            -0.000 -2.139 -2.575,
            -9.570 4.720 -1.482,
            -10.893 6.529 -1.000,
            -11.200 5.987 -1.000,
            -11.481 5.430 -1.000,
            -11.733 4.860 -1.000,
            -11.958 4.279 -1.000,
            -12.153 3.687 -1.000,
            -6.401 0.000 -2.213,
            -3.207 -4.797 -2.290,
            -0.000 -4.274 -2.439,
            -0.000 -6.401 -2.213,
            -9.570 1.575 -1.682,
            -12.319 3.086 -1.000,
            -12.456 2.478 -1.000,
            -12.563 1.863 -1.000,
            -12.639 1.245 -1.000,
            -12.685 0.623 -1.000,
            -12.700 -0.000 -1.000,
            -6.401 -3.181 -2.113,
            -3.207 -7.974 -1.885,
            -0.000 -8.517 -1.898,
            -9.570 -1.575 -1.682,
            -12.685 -0.623 -1.000,
            -12.639 -1.245 -1.000,
            -12.563 -1.863 -1.000,
            -12.456 -2.478 -1.000,
            -12.319 -3.086 -1.000,
            -12.153 -3.687 -1.000,
            -6.401 -6.350 -1.810,
            -8.529 -9.410 -1.000,
            -8.980 -8.980 -1.000,
            -3.207 -11.118 -1.279,
            -4.860 -11.733 -1.000,
            -5.430 -11.481 -1.000,
            -4.279 -11.958 -1.000,
            -3.687 -12.153 -1.000,
            -3.086 -12.319 -1.000,
            -2.478 -12.456 -1.000,
            -9.570 -4.720 -1.482,
            -11.958 -4.279 -1.000,
            -11.733 -4.860 -1.000,
            -11.481 -5.430 -1.000,
            -11.200 -5.987 -1.000,
            -10.893 -6.529 -1.000,
            -10.560 -7.056 -1.000,
            -6.401 -9.493 -1.308,
            -8.057 -9.817 -1.000,
            -7.565 -10.201 -1.000,
            -7.056 -10.560 -1.000,
            -6.529 -10.893 -1.000,
            -5.987 -11.200 -1.000,
            -9.570 -7.846 -1.083,
            -10.201 -7.565 -1.000,
            -9.817 -8.057 -1.000,
            -9.410 -8.529 -1.000,
            12.685 0.623 1.000,
            12.700 -0.000 -1.000,
            12.685 0.623 -1.000,
            12.700 -0.000 1.000,
            12.639 1.245 1.000,
            12.639 1.245 -1.000,
            12.563 1.863 1.000,
            12.563 1.863 -1.000,
            12.456 2.478 1.000,
            12.456 2.478 -1.000,
            12.319 3.086 1.000,
            12.319 3.086 -1.000,
            12.153 3.687 1.000,
            12.153 3.687 -1.000,
            11.958 4.279 1.000,
            11.958 4.279 -1.000,
            11.733 4.860 1.000,
            11.733 4.860 -1.000,
            11.481 5.430 1.000,
            11.481 5.430 -1.000,
            11.200 5.987 1.000,
            11.200 5.987 -1.000,
            10.893 6.529 -1.000,
            10.893 6.529 1.000,
            10.560 7.056 1.000,
            10.560 7.056 -1.000,
            10.201 7.565 -1.000,
            10.201 7.565 1.000,
            9.817 8.057 1.000,
            9.817 8.057 -1.000,
            9.410 8.529 -1.000,
            9.410 8.529 1.000,
            8.980 8.980 1.000,
            8.980 8.980 -1.000,
            8.529 9.410 1.000,
            8.529 9.410 -1.000,
            8.057 9.817 1.000,
            8.057 9.817 -1.000,
            7.565 10.201 -1.000,
            7.565 10.201 1.000,
            7.056 10.560 -1.000,
            7.056 10.560 1.000,
            6.529 10.893 1.000,
            6.529 10.893 -1.000,
            5.987 11.200 -1.000,
            5.987 11.200 1.000,
            5.430 11.481 -1.000,
            5.430 11.481 1.000,
            4.860 11.733 1.000,
            4.860 11.733 -1.000,
            4.279 11.958 -1.000,
            4.279 11.958 1.000,
            3.687 12.153 -1.000,
            3.687 12.153 1.000,
            3.086 12.319 1.000,
            3.086 12.319 -1.000,
            2.478 12.456 -1.000,
            2.478 12.456 1.000,
            1.863 12.563 -1.000,
            1.863 12.563 1.000,
            1.245 12.639 -1.000,
            1.245 12.639 1.000,
            0.623 12.685 1.000,
            0.623 12.685 -1.000,
            0.000 12.700 1.000,
            -0.623 12.685 1.000,
            -1.245 12.639 1.000,
            -1.863 12.563 1.000,
            -2.478 12.456 1.000,
            -3.086 12.319 1.000,
            -3.687 12.153 1.000,
            -4.279 11.958 1.000,
            -4.860 11.733 1.000,
            -5.430 11.481 1.000,
            -5.987 11.200 1.000,
            -6.529 10.893 1.000,
            -7.056 10.560 1.000,
            -7.565 10.201 1.000,
            -8.057 9.817 1.000,
            -8.529 9.410 1.000,
            -8.980 8.980 1.000,
            -9.410 8.529 1.000,
            -9.817 8.057 1.000,
            -10.201 7.565 1.000,
            -10.560 7.056 1.000,
            -10.893 6.529 1.000,
            -11.200 5.987 1.000,
            -11.481 5.430 1.000,
            -11.733 4.860 1.000,
            -11.958 4.279 1.000,
            -12.153 3.687 1.000,
            -12.319 3.086 1.000,
            -12.456 2.478 1.000,
            -12.563 1.863 1.000,
            -12.639 1.245 1.000,
            -12.685 0.623 1.000,
            -12.700 -0.000 1.000,
            -0.000 -10.618 1.493,
            -1.863 -12.563 1.000,
            -1.245 -12.639 1.000,
            -0.623 -12.685 1.000,
            -0.000 -12.700 1.000,
            0.000 10.618 1.493,
            -3.207 -11.118 1.279,
            -5.430 -11.481 1.000,
            -4.860 -11.733 1.000,
            -4.279 -11.958 1.000,
            -3.687 -12.153 1.000,
            -3.086 -12.319 1.000,
            -2.478 -12.456 1.000,
            -3.207 -7.974 1.885,
            -0.000 -8.517 1.898,
            -0.000 -6.401 2.213,
            -6.401 -9.493 1.308,
            -8.529 -9.410 1.000,
            -8.057 -9.817 1.000,
            -7.565 -10.201 1.000,
            -7.056 -10.560 1.000,
            -6.529 -10.893 1.000,
            -5.987 -11.200 1.000,
            -3.207 -4.797 2.290,
            -0.000 -4.274 2.439,
            -6.401 -6.350 1.810,
            -8.980 -8.980 1.000,
            -3.207 -1.601 2.493,
            -0.000 -2.139 2.575,
            0.000 0.000 2.620,
            -9.570 -7.846 1.083,
            -10.560 -7.056 1.000,
            -10.201 -7.565 1.000,
            -9.817 -8.057 1.000,
            -9.410 -8.529 1.000,
            -6.401 -3.181 2.113,
            -3.207 1.601 2.493,
            0.000 2.139 2.575,
            -9.570 -4.720 1.482,
            -12.153 -3.687 1.000,
            -11.958 -4.279 1.000,
            -11.733 -4.860 1.000,
            -11.481 -5.430 1.000,
            -11.200 -5.987 1.000,
            -10.893 -6.529 1.000,
            -6.401 -0.000 2.213,
            -3.207 4.797 2.290,
            0.000 4.274 2.439,
            0.000 6.401 2.213,
            -9.570 -1.575 1.682,
            -12.685 -0.623 1.000,
            -12.639 -1.245 1.000,
            -12.563 -1.863 1.000,
            -12.456 -2.478 1.000,
            -12.319 -3.086 1.000,
            -6.401 3.181 2.113,
            -3.207 7.974 1.885,
            0.000 8.517 1.898,
            -9.570 1.575 1.682,
            -6.401 6.350 1.810,
            -3.207 11.118 1.279,
            -9.570 4.720 1.482,
            -6.401 9.493 1.308,
            -9.570 7.846 1.083,
            0.623 -12.685 1.000,
            1.245 -12.639 1.000,
            1.863 -12.563 1.000,
            9.570 -7.846 1.083,
            8.980 -8.980 1.000,
            9.410 -8.529 1.000,
            9.817 -8.057 1.000,
            10.201 -7.565 1.000,
            10.560 -7.056 1.000,
            6.401 -9.493 1.308,
            5.430 -11.481 1.000,
            5.987 -11.200 1.000,
            6.529 -10.893 1.000,
            7.056 -10.560 1.000,
            7.565 -10.201 1.000,
            8.057 -9.817 1.000,
            8.529 -9.410 1.000,
            9.570 -4.720 1.482,
            10.893 -6.529 1.000,
            11.200 -5.987 1.000,
            11.481 -5.430 1.000,
            11.733 -4.860 1.000,
            11.958 -4.279 1.000,
            12.153 -3.687 1.000,
            3.207 -11.118 1.279,
            2.478 -12.456 1.000,
            3.086 -12.319 1.000,
            3.687 -12.153 1.000,
            4.279 -11.958 1.000,
            4.860 -11.733 1.000,
            6.401 -6.350 1.810,
            9.570 -1.575 1.682,
            12.319 -3.086 1.000,
            12.456 -2.478 1.000,
            12.563 -1.863 1.000,
            12.639 -1.245 1.000,
            12.685 -0.623 1.000,
            3.207 -7.974 1.885,
            6.401 -3.181 2.113,
            9.570 1.575 1.682,
            3.207 -4.797 2.290,
            6.401 0.000 2.213,
            9.570 4.720 1.482,
            3.207 -1.601 2.493,
            6.401 3.181 2.113,
            9.570 7.846 1.083,
            3.207 1.601 2.493,
            6.401 6.350 1.810,
            3.207 4.797 2.290,
            6.401 9.493 1.308,
            3.207 7.974 1.885,
            3.207 11.118 1.279,
            0.623 -12.685 -1.000,
            1.245 -12.639 -1.000,
            1.863 -12.563 -1.000,
            2.478 -12.456 -1.000,
            3.086 -12.319 -1.000,
            3.687 -12.153 -1.000,
            4.279 -11.958 -1.000,
            4.860 -11.733 -1.000,
            5.430 -11.481 -1.000,
            5.987 -11.200 -1.000,
            6.529 -10.893 -1.000,
            7.056 -10.560 -1.000,
            7.565 -10.201 -1.000,
            8.057 -9.817 -1.000,
            8.529 -9.410 -1.000,
            8.980 -8.980 -1.000,
            9.410 -8.529 -1.000,
            9.817 -8.057 -1.000,
            10.201 -7.565 -1.000,
            10.560 -7.056 -1.000,
            10.893 -6.529 -1.000,
            11.200 -5.987 -1.000,
            11.481 -5.430 -1.000,
            11.733 -4.860 -1.000,
            11.958 -4.279 -1.000,
            12.153 -3.687 -1.000,
            12.319 -3.086 -1.000,
            12.456 -2.478 -1.000,
            12.563 -1.863 -1.000,
            12.639 -1.245 -1.000,
            12.685 -0.623 -1.000,
            9.570 7.846 -1.083,
            6.401 9.493 -1.308,
            9.570 4.720 -1.482,
            3.207 11.118 -1.279,
            6.401 6.350 -1.810,
            9.570 1.575 -1.682,
            3.207 7.974 -1.885,
            6.401 3.181 -2.113,
            9.570 -1.575 -1.682,
            3.207 4.797 -2.290,
            6.401 0.000 -2.213,
            9.570 -4.720 -1.482,
            3.207 1.601 -2.493,
            6.401 -3.181 -2.113,
            9.570 -7.846 -1.083,
            3.207 -1.601 -2.493,
            6.401 -6.350 -1.810,
            3.207 -4.797 -2.290,
            6.401 -9.493 -1.308,
            3.207 -7.974 -1.885,
            3.207 -11.118 -1.279
          ]
        }
        coordIndex [
          0, 1, 2, -1,
          0, 3, 1, -1,
          0, 4, 3, -1,
          5, 6, 7, -1,
          8, 6, 5, -1,
          9, 6, 8, -1,
          10, 0, 11, -1,
          10, 12, 4, -1,
          10, 13, 12, -1,
          10, 14, 13, -1,
          10, 15, 14, -1,
          10, 16, 15, -1,
          10, 17, 16, -1,
          10, 4, 0, -1,
          18, 11, 19, -1,
          18, 10, 11, -1,
          20, 10, 18, -1,
          20, 21, 17, -1,
          20, 22, 21, -1,
          20, 23, 22, -1,
          20, 24, 23, -1,
          20, 25, 24, -1,
          20, 26, 25, -1,
          20, 17, 10, -1,
          27, 19, 28, -1,
          27, 18, 19, -1,
          29, 30, 26, -1,
          29, 18, 27, -1,
          29, 26, 20, -1,
          29, 20, 18, -1,
          31, 27, 28, -1,
          31, 32, 33, -1,
          31, 28, 32, -1,
          34, 30, 29, -1,
          34, 35, 30, -1,
          34, 36, 35, -1,
          34, 37, 36, -1,
          34, 38, 37, -1,
          39, 29, 27, -1,
          39, 27, 31, -1,
          40, 33, 41, -1,
          40, 31, 33, -1,
          42, 38, 34, -1,
          42, 34, 29, -1,
          42, 29, 39, -1,
          42, 43, 38, -1,
          42, 44, 43, -1,
          42, 45, 44, -1,
          42, 46, 45, -1,
          42, 47, 46, -1,
          42, 48, 47, -1,
          49, 31, 40, -1,
          49, 39, 31, -1,
          50, 41, 51, -1,
          50, 51, 52, -1,
          50, 40, 41, -1,
          53, 54, 48, -1,
          53, 55, 54, -1,
          53, 56, 55, -1,
          53, 57, 56, -1,
          53, 58, 57, -1,
          53, 59, 58, -1,
          53, 39, 49, -1,
          53, 48, 42, -1,
          53, 42, 39, -1,
          60, 49, 40, -1,
          60, 40, 50, -1,
          61, 50, 52, -1,
          61, 52, 62, -1,
          63, 64, 59, -1,
          63, 65, 64, -1,
          63, 66, 65, -1,
          63, 67, 66, -1,
          63, 68, 67, -1,
          63, 69, 68, -1,
          63, 59, 53, -1,
          63, 53, 49, -1,
          63, 49, 60, -1,
          70, 50, 61, -1,
          70, 71, 72, -1,
          70, 60, 50, -1,
          73, 62, 6, -1,
          73, 6, 9, -1,
          73, 74, 75, -1,
          73, 76, 74, -1,
          73, 77, 76, -1,
          73, 78, 77, -1,
          73, 79, 78, -1,
          73, 9, 79, -1,
          73, 61, 62, -1,
          80, 63, 60, -1,
          80, 81, 69, -1,
          80, 82, 81, -1,
          80, 83, 82, -1,
          80, 84, 83, -1,
          80, 85, 84, -1,
          80, 86, 85, -1,
          80, 60, 70, -1,
          80, 69, 63, -1,
          87, 71, 70, -1,
          87, 61, 73, -1,
          87, 73, 75, -1,
          87, 70, 61, -1,
          87, 88, 71, -1,
          87, 89, 88, -1,
          87, 90, 89, -1,
          87, 91, 90, -1,
          87, 92, 91, -1,
          87, 75, 92, -1,
          93, 80, 70, -1,
          93, 70, 72, -1,
          93, 94, 86, -1,
          93, 95, 94, -1,
          93, 96, 95, -1,
          93, 72, 96, -1,
          93, 86, 80, -1,
          97, 98, 99, -1,
          97, 100, 98, -1,
          101, 99, 102, -1,
          101, 97, 99, -1,
          103, 102, 104, -1,
          103, 101, 102, -1,
          105, 104, 106, -1,
          105, 103, 104, -1,
          107, 106, 108, -1,
          107, 105, 106, -1,
          109, 108, 110, -1,
          109, 107, 108, -1,
          111, 110, 112, -1,
          111, 109, 110, -1,
          113, 112, 114, -1,
          113, 111, 112, -1,
          115, 114, 116, -1,
          115, 113, 114, -1,
          117, 116, 118, -1,
          117, 118, 119, -1,
          117, 115, 116, -1,
          120, 117, 119, -1,
          121, 119, 122, -1,
          121, 122, 123, -1,
          121, 120, 119, -1,
          124, 121, 123, -1,
          125, 123, 126, -1,
          125, 126, 127, -1,
          125, 124, 123, -1,
          128, 125, 127, -1,
          129, 127, 130, -1,
          129, 128, 127, -1,
          131, 130, 132, -1,
          131, 129, 130, -1,
          133, 131, 132, -1,
          133, 132, 134, -1,
          133, 134, 135, -1,
          136, 133, 135, -1,
          136, 135, 137, -1,
          138, 136, 137, -1,
          139, 138, 137, -1,
          139, 137, 140, -1,
          139, 140, 141, -1,
          142, 141, 143, -1,
          142, 139, 141, -1,
          144, 142, 143, -1,
          145, 144, 143, -1,
          145, 143, 146, -1,
          145, 146, 147, -1,
          148, 147, 149, -1,
          148, 145, 147, -1,
          150, 148, 149, -1,
          151, 149, 152, -1,
          151, 152, 153, -1,
          151, 150, 149, -1,
          154, 153, 155, -1,
          154, 151, 153, -1,
          156, 155, 157, -1,
          156, 154, 155, -1,
          158, 156, 157, -1,
          159, 157, 160, -1,
          159, 158, 157, -1,
          161, 160, 2, -1,
          161, 159, 160, -1,
          162, 2, 1, -1,
          162, 161, 2, -1,
          163, 1, 3, -1,
          163, 162, 1, -1,
          164, 3, 4, -1,
          164, 163, 3, -1,
          165, 4, 12, -1,
          165, 164, 4, -1,
          166, 12, 13, -1,
          166, 165, 12, -1,
          167, 13, 14, -1,
          167, 166, 13, -1,
          168, 14, 15, -1,
          168, 167, 14, -1,
          169, 15, 16, -1,
          169, 168, 15, -1,
          170, 16, 17, -1,
          170, 169, 16, -1,
          171, 170, 17, -1,
          171, 17, 21, -1,
          172, 171, 21, -1,
          172, 21, 22, -1,
          173, 172, 22, -1,
          173, 22, 23, -1,
          174, 173, 23, -1,
          174, 23, 24, -1,
          175, 174, 24, -1,
          175, 24, 25, -1,
          175, 25, 26, -1,
          176, 175, 26, -1,
          177, 176, 26, -1,
          177, 26, 30, -1,
          177, 30, 35, -1,
          178, 177, 35, -1,
          179, 178, 35, -1,
          179, 35, 36, -1,
          179, 36, 37, -1,
          180, 179, 37, -1,
          180, 37, 38, -1,
          181, 180, 38, -1,
          182, 181, 38, -1,
          182, 38, 43, -1,
          183, 182, 43, -1,
          183, 43, 44, -1,
          183, 44, 45, -1,
          184, 183, 45, -1,
          185, 45, 46, -1,
          185, 46, 47, -1,
          185, 184, 45, -1,
          186, 47, 48, -1,
          186, 185, 47, -1,
          187, 186, 48, -1,
          188, 48, 54, -1,
          188, 187, 48, -1,
          189, 54, 55, -1,
          189, 55, 56, -1,
          189, 188, 54, -1,
          190, 56, 57, -1,
          190, 189, 56, -1,
          191, 190, 57, -1,
          192, 57, 58, -1,
          192, 191, 57, -1,
          193, 58, 59, -1,
          193, 192, 58, -1,
          194, 195, 196, -1,
          194, 196, 197, -1,
          194, 197, 198, -1,
          162, 199, 161, -1,
          163, 199, 162, -1,
          164, 199, 163, -1,
          200, 201, 202, -1,
          200, 202, 203, -1,
          200, 203, 204, -1,
          200, 204, 205, -1,
          200, 205, 206, -1,
          200, 206, 195, -1,
          200, 195, 194, -1,
          207, 194, 208, -1,
          207, 208, 209, -1,
          207, 200, 194, -1,
          210, 211, 212, -1,
          210, 212, 213, -1,
          210, 213, 214, -1,
          210, 214, 215, -1,
          210, 200, 207, -1,
          210, 215, 216, -1,
          210, 216, 201, -1,
          210, 201, 200, -1,
          217, 207, 209, -1,
          217, 209, 218, -1,
          219, 211, 210, -1,
          219, 220, 211, -1,
          219, 210, 207, -1,
          219, 207, 217, -1,
          221, 217, 218, -1,
          221, 218, 222, -1,
          221, 222, 223, -1,
          224, 225, 226, -1,
          224, 226, 227, -1,
          224, 227, 228, -1,
          224, 228, 220, -1,
          224, 220, 219, -1,
          229, 219, 217, -1,
          229, 217, 221, -1,
          230, 223, 231, -1,
          230, 221, 223, -1,
          232, 233, 234, -1,
          232, 234, 235, -1,
          232, 235, 236, -1,
          232, 236, 237, -1,
          232, 237, 238, -1,
          232, 238, 225, -1,
          232, 219, 229, -1,
          232, 224, 219, -1,
          232, 225, 224, -1,
          239, 221, 230, -1,
          239, 229, 221, -1,
          240, 230, 231, -1,
          240, 241, 242, -1,
          240, 231, 241, -1,
          243, 229, 239, -1,
          243, 233, 232, -1,
          243, 193, 244, -1,
          243, 244, 245, -1,
          243, 245, 246, -1,
          243, 246, 247, -1,
          243, 247, 248, -1,
          243, 248, 233, -1,
          243, 232, 229, -1,
          249, 239, 230, -1,
          249, 230, 240, -1,
          250, 240, 242, -1,
          250, 242, 251, -1,
          252, 193, 243, -1,
          252, 187, 188, -1,
          252, 188, 189, -1,
          252, 189, 190, -1,
          252, 190, 191, -1,
          252, 239, 249, -1,
          252, 191, 192, -1,
          252, 192, 193, -1,
          252, 243, 239, -1,
          253, 240, 250, -1,
          253, 176, 177, -1,
          253, 249, 240, -1,
          254, 164, 165, -1,
          254, 165, 166, -1,
          254, 166, 167, -1,
          254, 167, 168, -1,
          254, 168, 169, -1,
          254, 169, 170, -1,
          254, 199, 164, -1,
          254, 251, 199, -1,
          254, 250, 251, -1,
          255, 252, 249, -1,
          255, 181, 182, -1,
          255, 182, 183, -1,
          255, 249, 253, -1,
          255, 183, 184, -1,
          255, 184, 185, -1,
          255, 185, 186, -1,
          255, 186, 187, -1,
          255, 187, 252, -1,
          256, 170, 171, -1,
          256, 171, 172, -1,
          256, 172, 173, -1,
          256, 173, 174, -1,
          256, 174, 175, -1,
          256, 175, 176, -1,
          256, 253, 250, -1,
          256, 176, 253, -1,
          256, 250, 254, -1,
          256, 254, 170, -1,
          257, 181, 255, -1,
          257, 177, 178, -1,
          257, 178, 179, -1,
          257, 179, 180, -1,
          257, 180, 181, -1,
          257, 255, 253, -1,
          257, 253, 177, -1,
          194, 198, 258, -1,
          194, 258, 259, -1,
          194, 259, 260, -1,
          158, 199, 156, -1,
          159, 199, 158, -1,
          161, 199, 159, -1,
          261, 262, 263, -1,
          261, 263, 264, -1,
          261, 264, 265, -1,
          261, 265, 266, -1,
          267, 268, 269, -1,
          267, 269, 270, -1,
          267, 270, 271, -1,
          267, 271, 272, -1,
          267, 272, 273, -1,
          267, 273, 274, -1,
          275, 261, 266, -1,
          275, 266, 276, -1,
          275, 276, 277, -1,
          275, 277, 278, -1,
          275, 278, 279, -1,
          275, 279, 280, -1,
          275, 280, 281, -1,
          282, 260, 283, -1,
          282, 283, 284, -1,
          282, 284, 285, -1,
          282, 285, 286, -1,
          282, 286, 287, -1,
          282, 287, 268, -1,
          282, 194, 260, -1,
          282, 268, 267, -1,
          288, 261, 275, -1,
          288, 274, 262, -1,
          288, 262, 261, -1,
          288, 267, 274, -1,
          289, 281, 290, -1,
          289, 290, 291, -1,
          289, 291, 292, -1,
          289, 292, 293, -1,
          289, 293, 294, -1,
          289, 294, 100, -1,
          289, 275, 281, -1,
          295, 208, 194, -1,
          295, 282, 267, -1,
          295, 209, 208, -1,
          295, 267, 288, -1,
          295, 194, 282, -1,
          296, 288, 275, -1,
          296, 275, 289, -1,
          297, 100, 97, -1,
          297, 97, 101, -1,
          297, 101, 103, -1,
          297, 103, 105, -1,
          297, 105, 107, -1,
          297, 107, 109, -1,
          297, 289, 100, -1,
          298, 218, 209, -1,
          298, 295, 288, -1,
          298, 209, 295, -1,
          298, 288, 296, -1,
          299, 289, 297, -1,
          299, 296, 289, -1,
          300, 109, 111, -1,
          300, 111, 113, -1,
          300, 113, 115, -1,
          300, 115, 117, -1,
          300, 117, 120, -1,
          300, 120, 121, -1,
          300, 297, 109, -1,
          301, 222, 218, -1,
          301, 223, 222, -1,
          301, 218, 298, -1,
          301, 296, 299, -1,
          301, 298, 296, -1,
          302, 297, 300, -1,
          302, 299, 297, -1,
          303, 300, 121, -1,
          303, 121, 124, -1,
          303, 124, 125, -1,
          303, 125, 128, -1,
          303, 128, 129, -1,
          304, 223, 301, -1,
          304, 301, 299, -1,
          304, 299, 302, -1,
          304, 241, 231, -1,
          304, 231, 223, -1,
          305, 300, 303, -1,
          305, 303, 129, -1,
          305, 129, 131, -1,
          305, 302, 300, -1,
          306, 304, 302, -1,
          306, 302, 305, -1,
          306, 242, 241, -1,
          306, 241, 304, -1,
          307, 131, 133, -1,
          307, 133, 136, -1,
          307, 136, 138, -1,
          307, 138, 139, -1,
          307, 139, 142, -1,
          307, 142, 144, -1,
          307, 305, 131, -1,
          308, 242, 306, -1,
          308, 306, 305, -1,
          308, 199, 251, -1,
          308, 251, 242, -1,
          308, 305, 307, -1,
          309, 156, 199, -1,
          309, 144, 145, -1,
          309, 145, 148, -1,
          309, 148, 150, -1,
          309, 150, 151, -1,
          309, 151, 154, -1,
          309, 154, 156, -1,
          309, 308, 307, -1,
          309, 307, 144, -1,
          309, 199, 308, -1,
          244, 193, 59, -1,
          244, 59, 64, -1,
          245, 64, 65, -1,
          245, 244, 64, -1,
          246, 65, 66, -1,
          246, 245, 65, -1,
          247, 66, 67, -1,
          247, 67, 68, -1,
          247, 246, 66, -1,
          248, 247, 68, -1,
          233, 68, 69, -1,
          233, 248, 68, -1,
          234, 69, 81, -1,
          234, 233, 69, -1,
          235, 81, 82, -1,
          235, 234, 81, -1,
          236, 82, 83, -1,
          236, 235, 82, -1,
          237, 83, 84, -1,
          237, 236, 83, -1,
          238, 84, 85, -1,
          238, 237, 84, -1,
          225, 85, 86, -1,
          225, 86, 94, -1,
          225, 238, 85, -1,
          226, 225, 94, -1,
          227, 94, 95, -1,
          227, 95, 96, -1,
          227, 226, 94, -1,
          228, 227, 96, -1,
          220, 96, 72, -1,
          220, 228, 96, -1,
          211, 72, 71, -1,
          211, 220, 72, -1,
          212, 211, 71, -1,
          212, 71, 88, -1,
          213, 212, 88, -1,
          213, 88, 89, -1,
          213, 89, 90, -1,
          214, 213, 90, -1,
          215, 214, 90, -1,
          215, 90, 91, -1,
          215, 91, 92, -1,
          216, 215, 92, -1,
          201, 92, 75, -1,
          201, 216, 92, -1,
          202, 75, 74, -1,
          202, 201, 75, -1,
          203, 74, 76, -1,
          203, 202, 74, -1,
          204, 76, 77, -1,
          204, 203, 76, -1,
          205, 77, 78, -1,
          205, 78, 79, -1,
          205, 204, 77, -1,
          206, 205, 79, -1,
          195, 79, 9, -1,
          195, 206, 79, -1,
          196, 9, 8, -1,
          196, 195, 9, -1,
          197, 8, 5, -1,
          197, 196, 8, -1,
          198, 5, 7, -1,
          198, 197, 5, -1,
          258, 7, 310, -1,
          258, 198, 7, -1,
          259, 310, 311, -1,
          259, 258, 310, -1,
          260, 311, 312, -1,
          260, 259, 311, -1,
          283, 312, 313, -1,
          283, 260, 312, -1,
          284, 313, 314, -1,
          284, 283, 313, -1,
          285, 314, 315, -1,
          285, 284, 314, -1,
          286, 315, 316, -1,
          286, 285, 315, -1,
          287, 316, 317, -1,
          287, 286, 316, -1,
          268, 317, 318, -1,
          268, 287, 317, -1,
          269, 268, 318, -1,
          269, 318, 319, -1,
          270, 269, 319, -1,
          270, 319, 320, -1,
          271, 270, 320, -1,
          271, 320, 321, -1,
          272, 271, 321, -1,
          272, 321, 322, -1,
          273, 272, 322, -1,
          273, 322, 323, -1,
          274, 273, 323, -1,
          274, 323, 324, -1,
          262, 274, 324, -1,
          262, 324, 325, -1,
          262, 325, 326, -1,
          263, 262, 326, -1,
          264, 263, 326, -1,
          264, 326, 327, -1,
          264, 327, 328, -1,
          265, 264, 328, -1,
          265, 328, 329, -1,
          266, 265, 329, -1,
          276, 266, 329, -1,
          276, 329, 330, -1,
          277, 276, 330, -1,
          277, 330, 331, -1,
          277, 331, 332, -1,
          278, 277, 332, -1,
          279, 332, 333, -1,
          279, 278, 332, -1,
          279, 333, 334, -1,
          280, 334, 335, -1,
          280, 279, 334, -1,
          281, 280, 335, -1,
          290, 335, 336, -1,
          290, 336, 337, -1,
          290, 281, 335, -1,
          291, 290, 337, -1,
          292, 337, 338, -1,
          292, 338, 339, -1,
          292, 291, 337, -1,
          293, 339, 340, -1,
          293, 292, 339, -1,
          294, 293, 340, -1,
          100, 340, 98, -1,
          100, 294, 340, -1,
          0, 157, 155, -1,
          0, 160, 157, -1,
          0, 2, 160, -1,
          311, 6, 312, -1,
          310, 6, 311, -1,
          7, 6, 310, -1,
          341, 123, 122, -1,
          341, 126, 123, -1,
          341, 127, 126, -1,
          341, 130, 127, -1,
          342, 134, 132, -1,
          342, 135, 134, -1,
          342, 137, 135, -1,
          342, 140, 137, -1,
          342, 141, 140, -1,
          342, 143, 141, -1,
          343, 112, 110, -1,
          343, 114, 112, -1,
          343, 116, 114, -1,
          343, 118, 116, -1,
          343, 119, 118, -1,
          343, 122, 119, -1,
          343, 341, 122, -1,
          344, 146, 143, -1,
          344, 147, 146, -1,
          344, 149, 147, -1,
          344, 152, 149, -1,
          344, 153, 152, -1,
          344, 155, 153, -1,
          344, 143, 342, -1,
          344, 0, 155, -1,
          345, 342, 132, -1,
          345, 341, 343, -1,
          345, 132, 130, -1,
          345, 130, 341, -1,
          346, 99, 98, -1,
          346, 102, 99, -1,
          346, 104, 102, -1,
          346, 106, 104, -1,
          346, 108, 106, -1,
          346, 110, 108, -1,
          346, 343, 110, -1,
          347, 344, 342, -1,
          347, 19, 11, -1,
          347, 11, 0, -1,
          347, 0, 344, -1,
          347, 342, 345, -1,
          348, 345, 343, -1,
          348, 343, 346, -1,
          349, 346, 98, -1,
          349, 336, 335, -1,
          349, 337, 336, -1,
          349, 338, 337, -1,
          349, 339, 338, -1,
          349, 340, 339, -1,
          349, 98, 340, -1,
          350, 28, 19, -1,
          350, 345, 348, -1,
          350, 347, 345, -1,
          350, 19, 347, -1,
          351, 346, 349, -1,
          351, 348, 346, -1,
          352, 349, 335, -1,
          352, 330, 329, -1,
          352, 331, 330, -1,
          352, 332, 331, -1,
          352, 333, 332, -1,
          352, 334, 333, -1,
          352, 335, 334, -1,
          353, 33, 32, -1,
          353, 32, 28, -1,
          353, 28, 350, -1,
          353, 348, 351, -1,
          353, 350, 348, -1,
          354, 351, 349, -1,
          354, 349, 352, -1,
          355, 352, 329, -1,
          355, 326, 325, -1,
          355, 327, 326, -1,
          355, 328, 327, -1,
          355, 329, 328, -1,
          356, 41, 33, -1,
          356, 353, 351, -1,
          356, 33, 353, -1,
          356, 351, 354, -1,
          357, 355, 325, -1,
          357, 354, 352, -1,
          357, 352, 355, -1,
          357, 325, 324, -1,
          358, 51, 41, -1,
          358, 52, 51, -1,
          358, 41, 356, -1,
          358, 354, 357, -1,
          358, 356, 354, -1,
          359, 319, 318, -1,
          359, 320, 319, -1,
          359, 321, 320, -1,
          359, 322, 321, -1,
          359, 323, 322, -1,
          359, 324, 323, -1,
          359, 357, 324, -1,
          360, 62, 52, -1,
          360, 52, 358, -1,
          360, 357, 359, -1,
          360, 358, 357, -1,
          361, 6, 62, -1,
          361, 312, 6, -1,
          361, 62, 360, -1,
          361, 359, 318, -1,
          361, 313, 312, -1,
          361, 314, 313, -1,
          361, 315, 314, -1,
          361, 316, 315, -1,
          361, 317, 316, -1,
          361, 318, 317, -1,
          361, 360, 359, -1
        ]
      }
    }
}
