#VRML V2.0 utf8
WorldInfo {
  title "Exported triangle mesh to VRML97"
  info ["Created by FreeCAD"
        "<https://www.freecad.org>"]
}

Transform {
  scale 1 1 1
  rotation 0 0 1 0
  scaleOrientation 0 0 1 0
  center 0.000 0.000 0.000
  translation 0.000 0.000 0.000
  children
    Shape { 
      appearance
      Appearance {
        material
        Material {
          diffuseColor 0.8 0.8 0.8
        }
      }
      geometry
      IndexedFaceSet {
        coord
        Coordinate {
          point [
            -0.000 -10.187 1.478,
            -1.863 -12.563 0.998,
            -1.245 -12.639 0.998,
            -0.623 -12.685 0.998,
            -0.000 -12.700 0.998,
            -2.478 -12.456 0.998,
            -0.623 12.685 0.998,
            0.000 10.187 1.478,
            0.000 12.700 0.998,
            -1.245 12.639 0.998,
            -1.863 12.563 0.998,
            -2.478 12.456 0.998,
            -4.261 -10.581 1.259,
            -7.056 -10.560 0.998,
            -6.529 -10.893 0.998,
            -5.987 -11.200 0.998,
            -5.430 -11.481 0.998,
            -4.860 -11.733 0.998,
            -4.279 -11.958 0.998,
            -3.687 -12.153 0.998,
            -3.086 -12.319 0.998,
            -0.000 -7.656 1.853,
            -4.261 -6.369 1.852,
            -7.565 -10.201 0.998,
            -0.000 -5.111 2.120,
            -8.501 -8.418 1.150,
            -10.201 -7.565 0.998,
            -9.817 -8.057 0.998,
            -9.410 -8.529 0.998,
            -8.980 -8.980 0.998,
            -8.529 -9.410 0.998,
            -8.057 -9.817 0.998,
            -4.261 -2.127 2.149,
            -0.000 -2.558 2.281,
            0.000 0.000 2.335,
            -8.501 -4.219 1.592,
            -12.456 -2.478 0.998,
            -12.319 -3.086 0.998,
            -12.153 -3.687 0.998,
            -11.958 -4.279 0.998,
            -11.733 -4.860 0.998,
            -11.481 -5.430 0.998,
            -11.200 -5.987 0.998,
            -10.893 -6.529 0.998,
            -10.560 -7.056 0.998,
            -4.261 2.127 2.149,
            0.000 2.558 2.281,
            0.000 5.111 2.120,
            -8.501 -0.000 1.740,
            -12.700 -0.000 0.998,
            -12.685 -0.623 0.998,
            -12.639 -1.245 0.998,
            -12.563 -1.863 0.998,
            -12.456 2.478 0.998,
            -12.563 1.863 0.998,
            -12.639 1.245 0.998,
            -12.685 0.623 0.998,
            -4.261 6.369 1.852,
            0.000 7.656 1.853,
            -7.056 10.560 0.998,
            -7.565 10.201 0.998,
            -8.501 4.219 1.592,
            -10.201 7.565 0.998,
            -10.560 7.056 0.998,
            -10.893 6.529 0.998,
            -11.200 5.987 0.998,
            -11.481 5.430 0.998,
            -11.733 4.860 0.998,
            -11.958 4.279 0.998,
            -12.153 3.687 0.998,
            -12.319 3.086 0.998,
            -4.261 10.581 1.259,
            -3.086 12.319 0.998,
            -3.687 12.153 0.998,
            -4.279 11.958 0.998,
            -4.860 11.733 0.998,
            -5.430 11.481 0.998,
            -5.987 11.200 0.998,
            -6.529 10.893 0.998,
            -8.501 8.418 1.150,
            -8.057 9.817 0.998,
            -8.529 9.410 0.998,
            -8.980 8.980 0.998,
            -9.410 8.529 0.998,
            -9.817 8.057 0.998,
            12.685 0.623 0.998,
            12.700 -0.000 0.998,
            12.700 -0.000 -0.998,
            12.685 0.623 -0.998,
            12.639 1.245 0.998,
            12.639 1.245 -0.998,
            12.563 1.863 0.998,
            12.563 1.863 -0.998,
            12.456 2.478 -0.998,
            12.456 2.478 0.998,
            12.319 3.086 0.998,
            12.319 3.086 -0.998,
            12.153 3.687 0.998,
            12.153 3.687 -0.998,
            11.958 4.279 -0.998,
            11.958 4.279 0.998,
            11.733 4.860 0.998,
            11.733 4.860 -0.998,
            11.481 5.430 0.998,
            11.481 5.430 -0.998,
            11.200 5.987 -0.998,
            11.200 5.987 0.998,
            10.893 6.529 0.998,
            10.893 6.529 -0.998,
            10.560 7.056 0.998,
            10.560 7.056 -0.998,
            10.201 7.565 0.998,
            10.201 7.565 -0.998,
            9.817 8.057 0.998,
            9.817 8.057 -0.998,
            9.410 8.529 0.998,
            9.410 8.529 -0.998,
            8.980 8.980 0.998,
            8.980 8.980 -0.998,
            8.529 9.410 0.998,
            8.529 9.410 -0.998,
            8.057 9.817 0.998,
            8.057 9.817 -0.998,
            7.565 10.201 0.998,
            7.565 10.201 -0.998,
            7.056 10.560 0.998,
            7.056 10.560 -0.998,
            6.529 10.893 0.998,
            6.529 10.893 -0.998,
            5.987 11.200 0.998,
            5.987 11.200 -0.998,
            5.430 11.481 0.998,
            5.430 11.481 -0.998,
            4.860 11.733 0.998,
            4.860 11.733 -0.998,
            4.279 11.958 0.998,
            4.279 11.958 -0.998,
            3.687 12.153 0.998,
            3.687 12.153 -0.998,
            3.086 12.319 0.998,
            3.086 12.319 -0.998,
            2.478 12.456 0.998,
            2.478 12.456 -0.998,
            1.863 12.563 0.998,
            1.863 12.563 -0.998,
            1.245 12.639 0.998,
            1.245 12.639 -0.998,
            0.623 12.685 0.998,
            0.623 12.685 -0.998,
            0.000 12.700 -0.998,
            -0.623 12.685 -0.998,
            -1.245 12.639 -0.998,
            -1.863 12.563 -0.998,
            -2.478 12.456 -0.998,
            -3.086 12.319 -0.998,
            -3.687 12.153 -0.998,
            -4.279 11.958 -0.998,
            -4.860 11.733 -0.998,
            -5.430 11.481 -0.998,
            -5.987 11.200 -0.998,
            -6.529 10.893 -0.998,
            -7.056 10.560 -0.998,
            -7.565 10.201 -0.998,
            -8.057 9.817 -0.998,
            -8.529 9.410 -0.998,
            -8.980 8.980 -0.998,
            -9.410 8.529 -0.998,
            -9.817 8.057 -0.998,
            -10.201 7.565 -0.998,
            -10.560 7.056 -0.998,
            -10.893 6.529 -0.998,
            -11.200 5.987 -0.998,
            -11.481 5.430 -0.998,
            -11.733 4.860 -0.998,
            -11.958 4.279 -0.998,
            -12.153 3.687 -0.998,
            -12.319 3.086 -0.998,
            -12.456 2.478 -0.998,
            -12.563 1.863 -0.998,
            -12.639 1.245 -0.998,
            -12.685 0.623 -0.998,
            -12.700 -0.000 -0.998,
            0.000 10.187 -1.478,
            -0.623 -12.685 -0.998,
            -0.000 -10.187 -1.478,
            -0.000 -12.700 -0.998,
            -1.245 -12.639 -0.998,
            -1.863 -12.563 -0.998,
            -2.478 -12.456 -0.998,
            -4.261 10.581 -1.259,
            0.000 7.656 -1.853,
            -4.261 6.369 -1.852,
            0.000 5.111 -2.120,
            -8.501 8.418 -1.150,
            -4.261 2.127 -2.149,
            0.000 2.558 -2.281,
            0.000 -0.000 -2.335,
            -8.501 4.219 -1.592,
            -4.261 -2.127 -2.149,
            -0.000 -2.558 -2.281,
            -0.000 -5.111 -2.120,
            -8.501 -0.000 -1.740,
            -12.685 -0.623 -0.998,
            -12.639 -1.245 -0.998,
            -12.563 -1.863 -0.998,
            -12.456 -2.478 -0.998,
            -4.261 -6.369 -1.852,
            -0.000 -7.656 -1.853,
            -7.056 -10.560 -0.998,
            -7.565 -10.201 -0.998,
            -8.501 -4.219 -1.592,
            -12.319 -3.086 -0.998,
            -12.153 -3.687 -0.998,
            -11.958 -4.279 -0.998,
            -11.733 -4.860 -0.998,
            -11.481 -5.430 -0.998,
            -11.200 -5.987 -0.998,
            -10.893 -6.529 -0.998,
            -10.560 -7.056 -0.998,
            -10.201 -7.565 -0.998,
            -4.261 -10.581 -1.259,
            -6.529 -10.893 -0.998,
            -5.987 -11.200 -0.998,
            -5.430 -11.481 -0.998,
            -4.860 -11.733 -0.998,
            -4.279 -11.958 -0.998,
            -3.687 -12.153 -0.998,
            -3.086 -12.319 -0.998,
            -8.501 -8.418 -1.150,
            -9.817 -8.057 -0.998,
            -9.410 -8.529 -0.998,
            -8.980 -8.980 -0.998,
            -8.529 -9.410 -0.998,
            -8.057 -9.817 -0.998,
            3.086 -12.319 -0.998,
            2.478 -12.456 -0.998,
            1.863 -12.563 -0.998,
            1.245 -12.639 -0.998,
            0.623 -12.685 -0.998,
            8.501 6.323 -1.408,
            4.261 8.481 -1.592,
            8.501 2.111 -1.703,
            4.261 4.251 -2.037,
            8.501 -2.111 -1.703,
            11.958 -4.279 -0.998,
            11.733 -4.860 -0.998,
            12.153 -3.687 -0.998,
            12.319 -3.086 -0.998,
            12.456 -2.478 -0.998,
            12.563 -1.863 -0.998,
            12.639 -1.245 -0.998,
            12.685 -0.623 -0.998,
            4.261 -0.000 -2.186,
            8.501 -6.323 -1.408,
            8.529 -9.410 -0.998,
            8.057 -9.817 -0.998,
            8.980 -8.980 -0.998,
            9.410 -8.529 -0.998,
            9.817 -8.057 -0.998,
            10.201 -7.565 -0.998,
            10.560 -7.056 -0.998,
            10.893 -6.529 -0.998,
            11.200 -5.987 -0.998,
            11.481 -5.430 -0.998,
            4.261 -4.251 -2.037,
            4.261 -8.481 -1.592,
            3.687 -12.153 -0.998,
            4.279 -11.958 -0.998,
            4.860 -11.733 -0.998,
            5.430 -11.481 -0.998,
            5.987 -11.200 -0.998,
            6.529 -10.893 -0.998,
            7.056 -10.560 -0.998,
            7.565 -10.201 -0.998,
            0.623 -12.685 0.998,
            1.245 -12.639 0.998,
            1.863 -12.563 0.998,
            2.478 -12.456 0.998,
            3.086 -12.319 0.998,
            3.687 -12.153 0.998,
            4.279 -11.958 0.998,
            4.860 -11.733 0.998,
            5.430 -11.481 0.998,
            5.987 -11.200 0.998,
            6.529 -10.893 0.998,
            7.056 -10.560 0.998,
            7.565 -10.201 0.998,
            8.057 -9.817 0.998,
            8.529 -9.410 0.998,
            8.980 -8.980 0.998,
            9.410 -8.529 0.998,
            9.817 -8.057 0.998,
            10.201 -7.565 0.998,
            10.560 -7.056 0.998,
            10.893 -6.529 0.998,
            11.200 -5.987 0.998,
            11.481 -5.430 0.998,
            11.733 -4.860 0.998,
            11.958 -4.279 0.998,
            12.153 -3.687 0.998,
            12.319 -3.086 0.998,
            12.456 -2.478 0.998,
            12.563 -1.863 0.998,
            12.639 -1.245 0.998,
            12.685 -0.623 0.998,
            8.501 -6.323 1.408,
            4.261 -8.481 1.592,
            8.501 -2.111 1.703,
            4.261 -4.251 2.037,
            8.501 2.111 1.703,
            4.261 -0.000 2.186,
            8.501 6.323 1.408,
            4.261 4.251 2.037,
            4.261 8.481 1.592
          ]
        }
        coordIndex [
          0, 1, 2, -1,
          0, 2, 3, -1,
          0, 3, 4, -1,
          5, 1, 0, -1,
          6, 7, 8, -1,
          9, 7, 6, -1,
          10, 7, 9, -1,
          11, 7, 10, -1,
          12, 13, 14, -1,
          12, 14, 15, -1,
          12, 15, 16, -1,
          12, 16, 17, -1,
          12, 17, 18, -1,
          12, 18, 19, -1,
          12, 19, 20, -1,
          12, 20, 5, -1,
          12, 0, 21, -1,
          12, 5, 0, -1,
          22, 12, 21, -1,
          22, 23, 13, -1,
          22, 21, 24, -1,
          22, 13, 12, -1,
          25, 26, 27, -1,
          25, 27, 28, -1,
          25, 28, 29, -1,
          25, 29, 30, -1,
          25, 30, 31, -1,
          25, 31, 23, -1,
          25, 23, 22, -1,
          32, 22, 24, -1,
          32, 24, 33, -1,
          32, 33, 34, -1,
          35, 25, 22, -1,
          35, 36, 37, -1,
          35, 37, 38, -1,
          35, 38, 39, -1,
          35, 39, 40, -1,
          35, 40, 41, -1,
          35, 41, 42, -1,
          35, 42, 43, -1,
          35, 43, 44, -1,
          35, 44, 26, -1,
          35, 26, 25, -1,
          35, 22, 32, -1,
          45, 46, 47, -1,
          45, 34, 46, -1,
          45, 32, 34, -1,
          48, 49, 50, -1,
          48, 50, 51, -1,
          48, 51, 52, -1,
          48, 52, 36, -1,
          48, 36, 35, -1,
          48, 35, 32, -1,
          48, 32, 45, -1,
          48, 53, 54, -1,
          48, 54, 55, -1,
          48, 55, 56, -1,
          48, 56, 49, -1,
          57, 47, 58, -1,
          57, 45, 47, -1,
          57, 59, 60, -1,
          61, 48, 45, -1,
          61, 53, 48, -1,
          61, 62, 63, -1,
          61, 63, 64, -1,
          61, 64, 65, -1,
          61, 45, 57, -1,
          61, 65, 66, -1,
          61, 66, 67, -1,
          61, 67, 68, -1,
          61, 68, 69, -1,
          61, 69, 70, -1,
          61, 70, 53, -1,
          71, 59, 57, -1,
          71, 58, 7, -1,
          71, 11, 72, -1,
          71, 72, 73, -1,
          71, 73, 74, -1,
          71, 74, 75, -1,
          71, 75, 76, -1,
          71, 76, 77, -1,
          71, 77, 78, -1,
          71, 78, 59, -1,
          71, 57, 58, -1,
          71, 7, 11, -1,
          79, 62, 61, -1,
          79, 57, 60, -1,
          79, 60, 80, -1,
          79, 80, 81, -1,
          79, 81, 82, -1,
          79, 82, 83, -1,
          79, 83, 84, -1,
          79, 84, 62, -1,
          79, 61, 57, -1,
          85, 86, 87, -1,
          85, 87, 88, -1,
          89, 85, 88, -1,
          89, 88, 90, -1,
          91, 90, 92, -1,
          91, 92, 93, -1,
          91, 89, 90, -1,
          94, 91, 93, -1,
          95, 93, 96, -1,
          95, 94, 93, -1,
          97, 96, 98, -1,
          97, 98, 99, -1,
          97, 95, 96, -1,
          100, 97, 99, -1,
          101, 99, 102, -1,
          101, 100, 99, -1,
          103, 102, 104, -1,
          103, 104, 105, -1,
          103, 101, 102, -1,
          106, 103, 105, -1,
          107, 105, 108, -1,
          107, 106, 105, -1,
          109, 108, 110, -1,
          109, 107, 108, -1,
          111, 110, 112, -1,
          111, 109, 110, -1,
          113, 112, 114, -1,
          113, 111, 112, -1,
          115, 114, 116, -1,
          115, 113, 114, -1,
          117, 116, 118, -1,
          117, 115, 116, -1,
          119, 118, 120, -1,
          119, 117, 118, -1,
          121, 119, 120, -1,
          121, 120, 122, -1,
          123, 121, 122, -1,
          123, 122, 124, -1,
          125, 123, 124, -1,
          125, 124, 126, -1,
          127, 126, 128, -1,
          127, 125, 126, -1,
          129, 128, 130, -1,
          129, 127, 128, -1,
          131, 130, 132, -1,
          131, 129, 130, -1,
          133, 132, 134, -1,
          133, 131, 132, -1,
          135, 134, 136, -1,
          135, 133, 134, -1,
          137, 136, 138, -1,
          137, 135, 136, -1,
          139, 138, 140, -1,
          139, 137, 138, -1,
          141, 140, 142, -1,
          141, 139, 140, -1,
          143, 142, 144, -1,
          143, 141, 142, -1,
          145, 144, 146, -1,
          145, 143, 144, -1,
          147, 146, 148, -1,
          147, 145, 146, -1,
          8, 149, 150, -1,
          8, 148, 149, -1,
          8, 147, 148, -1,
          6, 150, 151, -1,
          6, 8, 150, -1,
          9, 151, 152, -1,
          9, 6, 151, -1,
          10, 9, 152, -1,
          11, 152, 153, -1,
          11, 153, 154, -1,
          11, 10, 152, -1,
          72, 154, 155, -1,
          72, 11, 154, -1,
          73, 72, 155, -1,
          74, 155, 156, -1,
          74, 73, 155, -1,
          75, 156, 157, -1,
          75, 74, 156, -1,
          76, 157, 158, -1,
          76, 75, 157, -1,
          77, 76, 158, -1,
          77, 158, 159, -1,
          78, 77, 159, -1,
          78, 159, 160, -1,
          78, 160, 161, -1,
          59, 78, 161, -1,
          60, 161, 162, -1,
          60, 59, 161, -1,
          80, 60, 162, -1,
          80, 162, 163, -1,
          80, 163, 164, -1,
          81, 80, 164, -1,
          82, 164, 165, -1,
          82, 165, 166, -1,
          82, 81, 164, -1,
          83, 82, 166, -1,
          83, 166, 167, -1,
          84, 167, 168, -1,
          84, 83, 167, -1,
          62, 84, 168, -1,
          63, 168, 169, -1,
          63, 62, 168, -1,
          64, 169, 170, -1,
          64, 63, 169, -1,
          65, 170, 171, -1,
          65, 64, 170, -1,
          66, 171, 172, -1,
          66, 65, 171, -1,
          67, 172, 173, -1,
          67, 173, 174, -1,
          67, 66, 172, -1,
          68, 67, 174, -1,
          69, 174, 175, -1,
          69, 68, 174, -1,
          70, 175, 176, -1,
          70, 69, 175, -1,
          53, 176, 177, -1,
          53, 177, 178, -1,
          53, 70, 176, -1,
          54, 53, 178, -1,
          55, 178, 179, -1,
          55, 54, 178, -1,
          56, 179, 180, -1,
          56, 180, 181, -1,
          56, 55, 179, -1,
          49, 56, 181, -1,
          182, 150, 149, -1,
          182, 151, 150, -1,
          182, 152, 151, -1,
          153, 152, 182, -1,
          183, 184, 185, -1,
          186, 184, 183, -1,
          187, 184, 186, -1,
          188, 184, 187, -1,
          189, 182, 190, -1,
          189, 154, 153, -1,
          189, 155, 154, -1,
          189, 156, 155, -1,
          189, 157, 156, -1,
          189, 158, 157, -1,
          189, 159, 158, -1,
          189, 160, 159, -1,
          189, 161, 160, -1,
          189, 153, 182, -1,
          191, 190, 192, -1,
          191, 189, 190, -1,
          191, 162, 161, -1,
          191, 161, 189, -1,
          193, 162, 191, -1,
          193, 163, 162, -1,
          193, 164, 163, -1,
          193, 165, 164, -1,
          193, 166, 165, -1,
          193, 167, 166, -1,
          193, 168, 167, -1,
          194, 195, 196, -1,
          194, 192, 195, -1,
          194, 191, 192, -1,
          197, 168, 193, -1,
          197, 191, 194, -1,
          197, 169, 168, -1,
          197, 170, 169, -1,
          197, 171, 170, -1,
          197, 172, 171, -1,
          197, 173, 172, -1,
          197, 174, 173, -1,
          197, 175, 174, -1,
          197, 176, 175, -1,
          197, 177, 176, -1,
          197, 193, 191, -1,
          198, 196, 199, -1,
          198, 199, 200, -1,
          198, 194, 196, -1,
          201, 197, 194, -1,
          201, 202, 181, -1,
          201, 203, 202, -1,
          201, 204, 203, -1,
          201, 205, 204, -1,
          201, 194, 198, -1,
          201, 178, 177, -1,
          201, 179, 178, -1,
          201, 180, 179, -1,
          201, 181, 180, -1,
          201, 177, 197, -1,
          206, 200, 207, -1,
          206, 208, 209, -1,
          206, 198, 200, -1,
          210, 211, 205, -1,
          210, 212, 211, -1,
          210, 213, 212, -1,
          210, 214, 213, -1,
          210, 215, 214, -1,
          210, 216, 215, -1,
          210, 217, 216, -1,
          210, 218, 217, -1,
          210, 219, 218, -1,
          210, 201, 198, -1,
          210, 205, 201, -1,
          210, 198, 206, -1,
          220, 207, 184, -1,
          220, 208, 206, -1,
          220, 221, 208, -1,
          220, 222, 221, -1,
          220, 223, 222, -1,
          220, 224, 223, -1,
          220, 225, 224, -1,
          220, 226, 225, -1,
          220, 227, 226, -1,
          220, 188, 227, -1,
          220, 184, 188, -1,
          220, 206, 207, -1,
          228, 206, 209, -1,
          228, 219, 210, -1,
          228, 210, 206, -1,
          228, 229, 219, -1,
          228, 230, 229, -1,
          228, 231, 230, -1,
          228, 232, 231, -1,
          228, 233, 232, -1,
          228, 209, 233, -1,
          182, 142, 140, -1,
          182, 144, 142, -1,
          182, 146, 144, -1,
          182, 148, 146, -1,
          182, 149, 148, -1,
          184, 234, 235, -1,
          236, 184, 235, -1,
          237, 184, 236, -1,
          238, 184, 237, -1,
          185, 184, 238, -1,
          239, 104, 102, -1,
          239, 105, 104, -1,
          239, 108, 105, -1,
          239, 110, 108, -1,
          239, 112, 110, -1,
          239, 114, 112, -1,
          239, 116, 114, -1,
          239, 118, 116, -1,
          239, 120, 118, -1,
          239, 122, 120, -1,
          240, 192, 190, -1,
          240, 190, 182, -1,
          240, 124, 122, -1,
          240, 126, 124, -1,
          240, 128, 126, -1,
          240, 130, 128, -1,
          240, 132, 130, -1,
          240, 134, 132, -1,
          240, 136, 134, -1,
          240, 138, 136, -1,
          240, 140, 138, -1,
          240, 122, 239, -1,
          240, 182, 140, -1,
          241, 88, 87, -1,
          241, 90, 88, -1,
          241, 92, 90, -1,
          241, 93, 92, -1,
          241, 96, 93, -1,
          241, 98, 96, -1,
          241, 99, 98, -1,
          241, 102, 99, -1,
          241, 239, 102, -1,
          242, 195, 192, -1,
          242, 240, 239, -1,
          242, 192, 240, -1,
          242, 239, 241, -1,
          243, 241, 87, -1,
          243, 244, 245, -1,
          243, 246, 244, -1,
          243, 247, 246, -1,
          243, 248, 247, -1,
          243, 249, 248, -1,
          243, 250, 249, -1,
          243, 251, 250, -1,
          243, 87, 251, -1,
          252, 199, 196, -1,
          252, 196, 195, -1,
          252, 241, 243, -1,
          252, 242, 241, -1,
          252, 195, 242, -1,
          253, 243, 245, -1,
          253, 254, 255, -1,
          253, 256, 254, -1,
          253, 257, 256, -1,
          253, 258, 257, -1,
          253, 259, 258, -1,
          253, 260, 259, -1,
          253, 261, 260, -1,
          253, 262, 261, -1,
          253, 263, 262, -1,
          253, 245, 263, -1,
          264, 200, 199, -1,
          264, 207, 200, -1,
          264, 243, 253, -1,
          264, 252, 243, -1,
          264, 199, 252, -1,
          265, 184, 207, -1,
          265, 207, 264, -1,
          265, 234, 184, -1,
          265, 253, 255, -1,
          265, 266, 234, -1,
          265, 267, 266, -1,
          265, 268, 267, -1,
          265, 269, 268, -1,
          265, 270, 269, -1,
          265, 271, 270, -1,
          265, 272, 271, -1,
          265, 273, 272, -1,
          265, 255, 273, -1,
          265, 264, 253, -1,
          50, 49, 181, -1,
          50, 181, 202, -1,
          51, 202, 203, -1,
          51, 50, 202, -1,
          52, 203, 204, -1,
          52, 51, 203, -1,
          36, 204, 205, -1,
          36, 52, 204, -1,
          37, 205, 211, -1,
          37, 36, 205, -1,
          38, 211, 212, -1,
          38, 212, 213, -1,
          38, 37, 211, -1,
          39, 38, 213, -1,
          40, 213, 214, -1,
          40, 39, 213, -1,
          41, 214, 215, -1,
          41, 40, 214, -1,
          42, 215, 216, -1,
          42, 216, 217, -1,
          42, 41, 215, -1,
          43, 42, 217, -1,
          44, 217, 218, -1,
          44, 43, 217, -1,
          26, 218, 219, -1,
          26, 44, 218, -1,
          27, 219, 229, -1,
          27, 26, 219, -1,
          28, 229, 230, -1,
          28, 27, 229, -1,
          29, 230, 231, -1,
          29, 28, 230, -1,
          30, 231, 232, -1,
          30, 29, 231, -1,
          31, 30, 232, -1,
          31, 232, 233, -1,
          31, 233, 209, -1,
          23, 31, 209, -1,
          13, 23, 209, -1,
          13, 209, 208, -1,
          14, 13, 208, -1,
          14, 208, 221, -1,
          14, 221, 222, -1,
          15, 14, 222, -1,
          16, 222, 223, -1,
          16, 15, 222, -1,
          17, 223, 224, -1,
          17, 16, 223, -1,
          18, 224, 225, -1,
          18, 17, 224, -1,
          19, 225, 226, -1,
          19, 18, 225, -1,
          20, 226, 227, -1,
          20, 227, 188, -1,
          20, 19, 226, -1,
          5, 20, 188, -1,
          1, 188, 187, -1,
          1, 5, 188, -1,
          2, 187, 186, -1,
          2, 186, 183, -1,
          2, 1, 187, -1,
          3, 2, 183, -1,
          4, 183, 185, -1,
          4, 3, 183, -1,
          274, 185, 238, -1,
          274, 4, 185, -1,
          275, 238, 237, -1,
          275, 237, 236, -1,
          275, 274, 238, -1,
          276, 275, 236, -1,
          277, 236, 235, -1,
          277, 235, 234, -1,
          277, 276, 236, -1,
          278, 234, 266, -1,
          278, 277, 234, -1,
          279, 278, 266, -1,
          280, 266, 267, -1,
          280, 279, 266, -1,
          281, 267, 268, -1,
          281, 280, 267, -1,
          282, 268, 269, -1,
          282, 281, 268, -1,
          283, 282, 269, -1,
          283, 269, 270, -1,
          284, 283, 270, -1,
          284, 270, 271, -1,
          284, 271, 272, -1,
          285, 284, 272, -1,
          285, 272, 273, -1,
          286, 285, 273, -1,
          287, 286, 273, -1,
          287, 273, 255, -1,
          287, 255, 254, -1,
          288, 287, 254, -1,
          289, 288, 254, -1,
          289, 254, 256, -1,
          290, 289, 256, -1,
          290, 256, 257, -1,
          291, 290, 257, -1,
          291, 257, 258, -1,
          292, 291, 258, -1,
          292, 258, 259, -1,
          293, 292, 259, -1,
          293, 259, 260, -1,
          294, 293, 260, -1,
          294, 260, 261, -1,
          294, 261, 262, -1,
          295, 294, 262, -1,
          296, 295, 262, -1,
          296, 262, 263, -1,
          296, 263, 245, -1,
          297, 296, 245, -1,
          298, 245, 244, -1,
          298, 297, 245, -1,
          299, 244, 246, -1,
          299, 298, 244, -1,
          300, 246, 247, -1,
          300, 299, 246, -1,
          301, 247, 248, -1,
          301, 300, 247, -1,
          302, 248, 249, -1,
          302, 301, 248, -1,
          303, 249, 250, -1,
          303, 302, 249, -1,
          304, 250, 251, -1,
          304, 251, 87, -1,
          304, 303, 250, -1,
          86, 304, 87, -1,
          0, 4, 274, -1,
          0, 274, 275, -1,
          0, 275, 276, -1,
          0, 276, 277, -1,
          0, 277, 278, -1,
          7, 139, 141, -1,
          143, 7, 141, -1,
          145, 7, 143, -1,
          147, 7, 145, -1,
          8, 7, 147, -1,
          305, 287, 288, -1,
          305, 288, 289, -1,
          305, 289, 290, -1,
          305, 290, 291, -1,
          305, 291, 292, -1,
          305, 292, 293, -1,
          305, 293, 294, -1,
          305, 294, 295, -1,
          305, 295, 296, -1,
          305, 296, 297, -1,
          306, 21, 0, -1,
          306, 278, 279, -1,
          306, 279, 280, -1,
          306, 280, 281, -1,
          306, 281, 282, -1,
          306, 282, 283, -1,
          306, 283, 284, -1,
          306, 284, 285, -1,
          306, 285, 286, -1,
          306, 286, 287, -1,
          306, 287, 305, -1,
          306, 0, 278, -1,
          307, 297, 298, -1,
          307, 298, 299, -1,
          307, 299, 300, -1,
          307, 300, 301, -1,
          307, 301, 302, -1,
          307, 302, 303, -1,
          307, 303, 304, -1,
          307, 304, 86, -1,
          307, 305, 297, -1,
          308, 24, 21, -1,
          308, 33, 24, -1,
          308, 305, 307, -1,
          308, 306, 305, -1,
          308, 21, 306, -1,
          309, 86, 85, -1,
          309, 85, 89, -1,
          309, 89, 91, -1,
          309, 91, 94, -1,
          309, 94, 95, -1,
          309, 95, 97, -1,
          309, 97, 100, -1,
          309, 100, 101, -1,
          309, 307, 86, -1,
          310, 34, 33, -1,
          310, 307, 309, -1,
          310, 46, 34, -1,
          310, 308, 307, -1,
          310, 33, 308, -1,
          311, 101, 103, -1,
          311, 103, 106, -1,
          311, 106, 107, -1,
          311, 107, 109, -1,
          311, 109, 111, -1,
          311, 111, 113, -1,
          311, 113, 115, -1,
          311, 115, 117, -1,
          311, 117, 119, -1,
          311, 119, 121, -1,
          311, 309, 101, -1,
          312, 310, 309, -1,
          312, 47, 46, -1,
          312, 309, 311, -1,
          312, 46, 310, -1,
          313, 47, 312, -1,
          313, 139, 7, -1,
          313, 121, 123, -1,
          313, 123, 125, -1,
          313, 125, 127, -1,
          313, 127, 129, -1,
          313, 129, 131, -1,
          313, 131, 133, -1,
          313, 133, 135, -1,
          313, 135, 137, -1,
          313, 137, 139, -1,
          313, 7, 58, -1,
          313, 58, 47, -1,
          313, 311, 121, -1,
          313, 312, 311, -1
        ]
      }
    }
}
