#VRML V2.0 utf8
WorldInfo {
  title "Exported triangle mesh to VRML97"
  info ["Created by FreeCAD"
        "<https://www.freecad.org>"]
}

Transform {
  scale 1 1 1
  rotation 0 0 1 0
  scaleOrientation 0 0 1 0
  center 0.000 0.000 0.000
  translation 0.000 0.000 0.000
  children
    Shape { 
      appearance
      Appearance {
        material
        Material {
          diffuseColor 0.8 0.8 0.8
        }
      }
      geometry
      IndexedFaceSet {
        coord
        Coordinate {
          point [
            0.000 10.187 -1.478,
            -0.623 12.685 -0.998,
            0.000 12.700 -0.998,
            -1.245 12.639 -0.998,
            -1.863 12.563 -0.998,
            -2.478 12.456 -0.998,
            -0.623 -12.685 -0.998,
            -0.000 -10.187 -1.478,
            -0.000 -12.700 -0.998,
            -1.245 -12.639 -0.998,
            -1.863 -12.563 -0.998,
            -2.478 -12.456 -0.998,
            -4.261 10.581 -1.259,
            0.000 7.656 -1.853,
            -3.086 12.319 -0.998,
            -3.687 12.153 -0.998,
            -4.279 11.958 -0.998,
            -4.860 11.733 -0.998,
            -5.430 11.481 -0.998,
            -5.987 11.200 -0.998,
            -6.529 10.893 -0.998,
            -7.056 10.560 -0.998,
            -4.261 6.369 -1.852,
            0.000 5.111 -2.120,
            -7.565 10.201 -0.998,
            -8.501 8.418 -1.150,
            -8.057 9.817 -0.998,
            -8.529 9.410 -0.998,
            -8.980 8.980 -0.998,
            -9.410 8.529 -0.998,
            -9.817 8.057 -0.998,
            -10.201 7.565 -0.998,
            -4.261 2.127 -2.149,
            0.000 2.558 -2.281,
            0.000 -0.000 -2.335,
            -8.501 4.219 -1.592,
            -10.560 7.056 -0.998,
            -10.893 6.529 -0.998,
            -11.200 5.987 -0.998,
            -11.481 5.430 -0.998,
            -11.733 4.860 -0.998,
            -11.958 4.279 -0.998,
            -12.153 3.687 -0.998,
            -12.319 3.086 -0.998,
            -12.456 2.478 -0.998,
            -4.261 -2.127 -2.149,
            -0.000 -2.558 -2.281,
            -0.000 -5.111 -2.120,
            -8.501 -0.000 -1.740,
            -12.685 -0.623 -0.998,
            -12.700 -0.000 -0.998,
            -12.639 -1.245 -0.998,
            -12.563 -1.863 -0.998,
            -12.456 -2.478 -0.998,
            -12.563 1.863 -0.998,
            -12.639 1.245 -0.998,
            -12.685 0.623 -0.998,
            -4.261 -6.369 -1.852,
            -0.000 -7.656 -1.853,
            -7.056 -10.560 -0.998,
            -7.565 -10.201 -0.998,
            -8.501 -4.219 -1.592,
            -12.319 -3.086 -0.998,
            -12.153 -3.687 -0.998,
            -11.958 -4.279 -0.998,
            -11.733 -4.860 -0.998,
            -11.481 -5.430 -0.998,
            -11.200 -5.987 -0.998,
            -10.893 -6.529 -0.998,
            -10.560 -7.056 -0.998,
            -10.201 -7.565 -0.998,
            -4.261 -10.581 -1.259,
            -6.529 -10.893 -0.998,
            -5.987 -11.200 -0.998,
            -5.430 -11.481 -0.998,
            -4.860 -11.733 -0.998,
            -4.279 -11.958 -0.998,
            -3.687 -12.153 -0.998,
            -3.086 -12.319 -0.998,
            -8.501 -8.418 -1.150,
            -9.817 -8.057 -0.998,
            -9.410 -8.529 -0.998,
            -8.980 -8.980 -0.998,
            -8.529 -9.410 -0.998,
            -8.057 -9.817 -0.998,
            -0.000 -10.187 1.478,
            -1.863 -12.563 0.998,
            -1.245 -12.639 0.998,
            -0.623 -12.685 0.998,
            -0.000 -12.700 0.998,
            -2.478 -12.456 0.998,
            -0.623 12.685 0.998,
            0.000 10.187 1.478,
            0.000 12.700 0.998,
            -1.245 12.639 0.998,
            -1.863 12.563 0.998,
            -2.478 12.456 0.998,
            -4.261 -10.581 1.259,
            -7.056 -10.560 0.998,
            -6.529 -10.893 0.998,
            -5.987 -11.200 0.998,
            -5.430 -11.481 0.998,
            -4.860 -11.733 0.998,
            -4.279 -11.958 0.998,
            -3.687 -12.153 0.998,
            -3.086 -12.319 0.998,
            -0.000 -7.656 1.853,
            -4.261 -6.369 1.852,
            -7.565 -10.201 0.998,
            -0.000 -5.111 2.120,
            -8.501 -8.418 1.150,
            -10.201 -7.565 0.998,
            -9.817 -8.057 0.998,
            -9.410 -8.529 0.998,
            -8.980 -8.980 0.998,
            -8.529 -9.410 0.998,
            -8.057 -9.817 0.998,
            -4.261 -2.127 2.149,
            -0.000 -2.558 2.281,
            0.000 0.000 2.335,
            -8.501 -4.219 1.592,
            -12.456 -2.478 0.998,
            -12.319 -3.086 0.998,
            -12.153 -3.687 0.998,
            -11.958 -4.279 0.998,
            -11.733 -4.860 0.998,
            -11.481 -5.430 0.998,
            -11.200 -5.987 0.998,
            -10.893 -6.529 0.998,
            -10.560 -7.056 0.998,
            -4.261 2.127 2.149,
            0.000 2.558 2.281,
            0.000 5.111 2.120,
            -8.501 -0.000 1.740,
            -12.700 -0.000 0.998,
            -12.685 -0.623 0.998,
            -12.639 -1.245 0.998,
            -12.563 -1.863 0.998,
            -12.456 2.478 0.998,
            -12.563 1.863 0.998,
            -12.639 1.245 0.998,
            -12.685 0.623 0.998,
            -4.261 6.369 1.852,
            0.000 7.656 1.853,
            -7.056 10.560 0.998,
            -7.565 10.201 0.998,
            -8.501 4.219 1.592,
            -10.201 7.565 0.998,
            -10.560 7.056 0.998,
            -10.893 6.529 0.998,
            -11.200 5.987 0.998,
            -11.481 5.430 0.998,
            -11.733 4.860 0.998,
            -11.958 4.279 0.998,
            -12.153 3.687 0.998,
            -12.319 3.086 0.998,
            -4.261 10.581 1.259,
            -3.086 12.319 0.998,
            -3.687 12.153 0.998,
            -4.279 11.958 0.998,
            -4.860 11.733 0.998,
            -5.430 11.481 0.998,
            -5.987 11.200 0.998,
            -6.529 10.893 0.998,
            -8.501 8.418 1.150,
            -8.057 9.817 0.998,
            -8.529 9.410 0.998,
            -8.980 8.980 0.998,
            -9.410 8.529 0.998,
            -9.817 8.057 0.998,
            12.685 0.623 0.998,
            12.700 -0.000 -0.998,
            12.685 0.623 -0.998,
            12.700 -0.000 0.998,
            12.639 1.245 0.998,
            12.639 1.245 -0.998,
            12.563 1.863 0.998,
            12.563 1.863 -0.998,
            12.456 2.478 -0.998,
            12.456 2.478 0.998,
            12.319 3.086 0.998,
            12.319 3.086 -0.998,
            12.153 3.687 0.998,
            12.153 3.687 -0.998,
            11.958 4.279 -0.998,
            11.958 4.279 0.998,
            11.733 4.860 0.998,
            11.733 4.860 -0.998,
            11.481 5.430 0.998,
            11.481 5.430 -0.998,
            11.200 5.987 -0.998,
            11.200 5.987 0.998,
            10.893 6.529 0.998,
            10.893 6.529 -0.998,
            10.560 7.056 0.998,
            10.560 7.056 -0.998,
            10.201 7.565 0.998,
            10.201 7.565 -0.998,
            9.817 8.057 0.998,
            9.817 8.057 -0.998,
            9.410 8.529 0.998,
            9.410 8.529 -0.998,
            8.980 8.980 0.998,
            8.980 8.980 -0.998,
            8.529 9.410 0.998,
            8.529 9.410 -0.998,
            8.057 9.817 0.998,
            8.057 9.817 -0.998,
            7.565 10.201 0.998,
            7.565 10.201 -0.998,
            7.056 10.560 0.998,
            7.056 10.560 -0.998,
            6.529 10.893 0.998,
            6.529 10.893 -0.998,
            5.987 11.200 0.998,
            5.987 11.200 -0.998,
            5.430 11.481 0.998,
            5.430 11.481 -0.998,
            4.860 11.733 0.998,
            4.860 11.733 -0.998,
            4.279 11.958 0.998,
            4.279 11.958 -0.998,
            3.687 12.153 0.998,
            3.687 12.153 -0.998,
            3.086 12.319 0.998,
            3.086 12.319 -0.998,
            2.478 12.456 0.998,
            2.478 12.456 -0.998,
            1.863 12.563 0.998,
            1.863 12.563 -0.998,
            1.245 12.639 0.998,
            1.245 12.639 -0.998,
            0.623 12.685 0.998,
            0.623 12.685 -0.998,
            0.623 -12.685 0.998,
            0.623 -12.685 -0.998,
            1.245 -12.639 0.998,
            1.245 -12.639 -0.998,
            1.863 -12.563 -0.998,
            1.863 -12.563 0.998,
            2.478 -12.456 0.998,
            2.478 -12.456 -0.998,
            3.086 -12.319 -0.998,
            3.086 -12.319 0.998,
            3.687 -12.153 -0.998,
            3.687 -12.153 0.998,
            4.279 -11.958 0.998,
            4.279 -11.958 -0.998,
            4.860 -11.733 0.998,
            4.860 -11.733 -0.998,
            5.430 -11.481 0.998,
            5.430 -11.481 -0.998,
            5.987 -11.200 0.998,
            5.987 -11.200 -0.998,
            6.529 -10.893 0.998,
            6.529 -10.893 -0.998,
            7.056 -10.560 -0.998,
            7.056 -10.560 0.998,
            7.565 -10.201 -0.998,
            7.565 -10.201 0.998,
            8.057 -9.817 0.998,
            8.057 -9.817 -0.998,
            8.529 -9.410 -0.998,
            8.529 -9.410 0.998,
            8.980 -8.980 0.998,
            8.980 -8.980 -0.998,
            9.410 -8.529 0.998,
            9.410 -8.529 -0.998,
            9.817 -8.057 0.998,
            9.817 -8.057 -0.998,
            10.201 -7.565 0.998,
            10.201 -7.565 -0.998,
            10.560 -7.056 0.998,
            10.560 -7.056 -0.998,
            10.893 -6.529 0.998,
            10.893 -6.529 -0.998,
            11.200 -5.987 -0.998,
            11.200 -5.987 0.998,
            11.481 -5.430 0.998,
            11.481 -5.430 -0.998,
            11.733 -4.860 -0.998,
            11.733 -4.860 0.998,
            11.958 -4.279 0.998,
            11.958 -4.279 -0.998,
            12.153 -3.687 0.998,
            12.153 -3.687 -0.998,
            12.319 -3.086 0.998,
            12.319 -3.086 -0.998,
            12.456 -2.478 0.998,
            12.456 -2.478 -0.998,
            12.563 -1.863 0.998,
            12.563 -1.863 -0.998,
            12.639 -1.245 0.998,
            12.639 -1.245 -0.998,
            12.685 -0.623 0.998,
            12.685 -0.623 -0.998,
            8.501 -6.323 1.408,
            4.261 -8.481 1.592,
            8.501 -2.111 1.703,
            4.261 -4.251 2.037,
            8.501 2.111 1.703,
            4.261 -0.000 2.186,
            8.501 6.323 1.408,
            4.261 4.251 2.037,
            4.261 8.481 1.592,
            8.501 6.323 -1.408,
            4.261 8.481 -1.592,
            8.501 2.111 -1.703,
            4.261 4.251 -2.037,
            8.501 -2.111 -1.703,
            4.261 -0.000 -2.186,
            8.501 -6.323 -1.408,
            4.261 -4.251 -2.037,
            4.261 -8.481 -1.592
          ]
        }
        coordIndex [
          0, 1, 2, -1,
          0, 3, 1, -1,
          0, 4, 3, -1,
          5, 4, 0, -1,
          6, 7, 8, -1,
          9, 7, 6, -1,
          10, 7, 9, -1,
          11, 7, 10, -1,
          12, 0, 13, -1,
          12, 14, 5, -1,
          12, 15, 14, -1,
          12, 16, 15, -1,
          12, 17, 16, -1,
          12, 18, 17, -1,
          12, 19, 18, -1,
          12, 20, 19, -1,
          12, 21, 20, -1,
          12, 5, 0, -1,
          22, 13, 23, -1,
          22, 12, 13, -1,
          22, 24, 21, -1,
          22, 21, 12, -1,
          25, 24, 22, -1,
          25, 26, 24, -1,
          25, 27, 26, -1,
          25, 28, 27, -1,
          25, 29, 28, -1,
          25, 30, 29, -1,
          25, 31, 30, -1,
          32, 33, 34, -1,
          32, 23, 33, -1,
          32, 22, 23, -1,
          35, 31, 25, -1,
          35, 22, 32, -1,
          35, 36, 31, -1,
          35, 37, 36, -1,
          35, 38, 37, -1,
          35, 39, 38, -1,
          35, 40, 39, -1,
          35, 41, 40, -1,
          35, 42, 41, -1,
          35, 43, 42, -1,
          35, 44, 43, -1,
          35, 25, 22, -1,
          45, 34, 46, -1,
          45, 46, 47, -1,
          45, 32, 34, -1,
          48, 35, 32, -1,
          48, 49, 50, -1,
          48, 51, 49, -1,
          48, 52, 51, -1,
          48, 53, 52, -1,
          48, 32, 45, -1,
          48, 54, 44, -1,
          48, 55, 54, -1,
          48, 56, 55, -1,
          48, 50, 56, -1,
          48, 44, 35, -1,
          57, 47, 58, -1,
          57, 59, 60, -1,
          57, 45, 47, -1,
          61, 62, 53, -1,
          61, 63, 62, -1,
          61, 64, 63, -1,
          61, 65, 64, -1,
          61, 66, 65, -1,
          61, 67, 66, -1,
          61, 68, 67, -1,
          61, 69, 68, -1,
          61, 70, 69, -1,
          61, 48, 45, -1,
          61, 53, 48, -1,
          61, 45, 57, -1,
          71, 58, 7, -1,
          71, 59, 57, -1,
          71, 72, 59, -1,
          71, 73, 72, -1,
          71, 74, 73, -1,
          71, 75, 74, -1,
          71, 76, 75, -1,
          71, 77, 76, -1,
          71, 78, 77, -1,
          71, 11, 78, -1,
          71, 7, 11, -1,
          71, 57, 58, -1,
          79, 57, 60, -1,
          79, 70, 61, -1,
          79, 61, 57, -1,
          79, 80, 70, -1,
          79, 81, 80, -1,
          79, 82, 81, -1,
          79, 83, 82, -1,
          79, 84, 83, -1,
          79, 60, 84, -1,
          85, 86, 87, -1,
          85, 87, 88, -1,
          85, 88, 89, -1,
          90, 86, 85, -1,
          91, 92, 93, -1,
          94, 92, 91, -1,
          95, 92, 94, -1,
          96, 92, 95, -1,
          97, 98, 99, -1,
          97, 99, 100, -1,
          97, 100, 101, -1,
          97, 101, 102, -1,
          97, 102, 103, -1,
          97, 103, 104, -1,
          97, 104, 105, -1,
          97, 105, 90, -1,
          97, 85, 106, -1,
          97, 90, 85, -1,
          107, 97, 106, -1,
          107, 108, 98, -1,
          107, 106, 109, -1,
          107, 98, 97, -1,
          110, 111, 112, -1,
          110, 112, 113, -1,
          110, 113, 114, -1,
          110, 114, 115, -1,
          110, 115, 116, -1,
          110, 116, 108, -1,
          110, 108, 107, -1,
          117, 107, 109, -1,
          117, 109, 118, -1,
          117, 118, 119, -1,
          120, 110, 107, -1,
          120, 121, 122, -1,
          120, 122, 123, -1,
          120, 123, 124, -1,
          120, 124, 125, -1,
          120, 125, 126, -1,
          120, 126, 127, -1,
          120, 127, 128, -1,
          120, 128, 129, -1,
          120, 129, 111, -1,
          120, 111, 110, -1,
          120, 107, 117, -1,
          130, 131, 132, -1,
          130, 119, 131, -1,
          130, 117, 119, -1,
          133, 134, 135, -1,
          133, 135, 136, -1,
          133, 136, 137, -1,
          133, 137, 121, -1,
          133, 121, 120, -1,
          133, 120, 117, -1,
          133, 117, 130, -1,
          133, 138, 139, -1,
          133, 139, 140, -1,
          133, 140, 141, -1,
          133, 141, 134, -1,
          142, 132, 143, -1,
          142, 130, 132, -1,
          142, 144, 145, -1,
          146, 133, 130, -1,
          146, 138, 133, -1,
          146, 147, 148, -1,
          146, 148, 149, -1,
          146, 149, 150, -1,
          146, 130, 142, -1,
          146, 150, 151, -1,
          146, 151, 152, -1,
          146, 152, 153, -1,
          146, 153, 154, -1,
          146, 154, 155, -1,
          146, 155, 138, -1,
          156, 144, 142, -1,
          156, 143, 92, -1,
          156, 96, 157, -1,
          156, 157, 158, -1,
          156, 158, 159, -1,
          156, 159, 160, -1,
          156, 160, 161, -1,
          156, 161, 162, -1,
          156, 162, 163, -1,
          156, 163, 144, -1,
          156, 142, 143, -1,
          156, 92, 96, -1,
          164, 147, 146, -1,
          164, 142, 145, -1,
          164, 145, 165, -1,
          164, 165, 166, -1,
          164, 166, 167, -1,
          164, 167, 168, -1,
          164, 168, 169, -1,
          164, 169, 147, -1,
          164, 146, 142, -1,
          170, 171, 172, -1,
          170, 173, 171, -1,
          174, 172, 175, -1,
          174, 170, 172, -1,
          176, 175, 177, -1,
          176, 177, 178, -1,
          176, 174, 175, -1,
          179, 176, 178, -1,
          180, 178, 181, -1,
          180, 179, 178, -1,
          182, 181, 183, -1,
          182, 183, 184, -1,
          182, 180, 181, -1,
          185, 182, 184, -1,
          186, 184, 187, -1,
          186, 185, 184, -1,
          188, 187, 189, -1,
          188, 189, 190, -1,
          188, 186, 187, -1,
          191, 188, 190, -1,
          192, 190, 193, -1,
          192, 191, 190, -1,
          194, 193, 195, -1,
          194, 192, 193, -1,
          196, 195, 197, -1,
          196, 194, 195, -1,
          198, 197, 199, -1,
          198, 196, 197, -1,
          200, 199, 201, -1,
          200, 198, 199, -1,
          202, 201, 203, -1,
          202, 200, 201, -1,
          204, 203, 205, -1,
          204, 202, 203, -1,
          206, 204, 205, -1,
          206, 205, 207, -1,
          208, 206, 207, -1,
          208, 207, 209, -1,
          210, 208, 209, -1,
          210, 209, 211, -1,
          212, 210, 211, -1,
          212, 211, 213, -1,
          214, 213, 215, -1,
          214, 212, 213, -1,
          216, 215, 217, -1,
          216, 214, 215, -1,
          218, 217, 219, -1,
          218, 216, 217, -1,
          220, 219, 221, -1,
          220, 218, 219, -1,
          222, 221, 223, -1,
          222, 220, 221, -1,
          224, 223, 225, -1,
          224, 222, 223, -1,
          226, 225, 227, -1,
          226, 224, 225, -1,
          228, 227, 229, -1,
          228, 226, 227, -1,
          230, 229, 231, -1,
          230, 228, 229, -1,
          232, 231, 233, -1,
          232, 230, 231, -1,
          93, 233, 2, -1,
          93, 2, 1, -1,
          93, 232, 233, -1,
          91, 1, 3, -1,
          91, 93, 1, -1,
          94, 3, 4, -1,
          94, 91, 3, -1,
          95, 94, 4, -1,
          96, 4, 5, -1,
          96, 5, 14, -1,
          96, 95, 4, -1,
          157, 14, 15, -1,
          157, 96, 14, -1,
          158, 157, 15, -1,
          159, 15, 16, -1,
          159, 158, 15, -1,
          160, 16, 17, -1,
          160, 159, 16, -1,
          161, 17, 18, -1,
          161, 160, 17, -1,
          162, 161, 18, -1,
          162, 18, 19, -1,
          163, 162, 19, -1,
          163, 19, 20, -1,
          163, 20, 21, -1,
          144, 163, 21, -1,
          145, 144, 21, -1,
          145, 21, 24, -1,
          165, 145, 24, -1,
          165, 24, 26, -1,
          165, 26, 27, -1,
          166, 165, 27, -1,
          167, 166, 27, -1,
          167, 27, 28, -1,
          167, 28, 29, -1,
          168, 167, 29, -1,
          168, 29, 30, -1,
          169, 168, 30, -1,
          169, 30, 31, -1,
          147, 169, 31, -1,
          148, 147, 31, -1,
          148, 31, 36, -1,
          149, 148, 36, -1,
          149, 36, 37, -1,
          150, 149, 37, -1,
          150, 37, 38, -1,
          151, 150, 38, -1,
          151, 38, 39, -1,
          152, 39, 40, -1,
          152, 40, 41, -1,
          152, 151, 39, -1,
          153, 152, 41, -1,
          154, 41, 42, -1,
          154, 153, 41, -1,
          155, 42, 43, -1,
          155, 154, 42, -1,
          138, 43, 44, -1,
          138, 44, 54, -1,
          138, 155, 43, -1,
          139, 138, 54, -1,
          140, 54, 55, -1,
          140, 139, 54, -1,
          141, 55, 56, -1,
          141, 56, 50, -1,
          141, 140, 55, -1,
          134, 141, 50, -1,
          135, 134, 50, -1,
          135, 50, 49, -1,
          136, 49, 51, -1,
          136, 135, 49, -1,
          137, 51, 52, -1,
          137, 136, 51, -1,
          121, 52, 53, -1,
          121, 137, 52, -1,
          122, 53, 62, -1,
          122, 121, 53, -1,
          123, 62, 63, -1,
          123, 63, 64, -1,
          123, 122, 62, -1,
          124, 123, 64, -1,
          125, 64, 65, -1,
          125, 124, 64, -1,
          126, 65, 66, -1,
          126, 125, 65, -1,
          127, 66, 67, -1,
          127, 67, 68, -1,
          127, 126, 66, -1,
          128, 127, 68, -1,
          129, 68, 69, -1,
          129, 128, 68, -1,
          111, 69, 70, -1,
          111, 129, 69, -1,
          112, 70, 80, -1,
          112, 111, 70, -1,
          113, 80, 81, -1,
          113, 112, 80, -1,
          114, 81, 82, -1,
          114, 113, 81, -1,
          115, 82, 83, -1,
          115, 114, 82, -1,
          116, 115, 83, -1,
          116, 83, 84, -1,
          116, 84, 60, -1,
          108, 116, 60, -1,
          98, 108, 60, -1,
          98, 60, 59, -1,
          99, 98, 59, -1,
          99, 59, 72, -1,
          99, 72, 73, -1,
          100, 99, 73, -1,
          101, 73, 74, -1,
          101, 100, 73, -1,
          102, 74, 75, -1,
          102, 101, 74, -1,
          103, 75, 76, -1,
          103, 102, 75, -1,
          104, 76, 77, -1,
          104, 103, 76, -1,
          105, 77, 78, -1,
          105, 78, 11, -1,
          105, 104, 77, -1,
          90, 105, 11, -1,
          86, 11, 10, -1,
          86, 90, 11, -1,
          87, 10, 9, -1,
          87, 9, 6, -1,
          87, 86, 10, -1,
          88, 87, 6, -1,
          89, 6, 8, -1,
          89, 88, 6, -1,
          234, 8, 235, -1,
          234, 89, 8, -1,
          236, 235, 237, -1,
          236, 237, 238, -1,
          236, 234, 235, -1,
          239, 236, 238, -1,
          240, 238, 241, -1,
          240, 241, 242, -1,
          240, 239, 238, -1,
          243, 242, 244, -1,
          243, 240, 242, -1,
          245, 243, 244, -1,
          246, 244, 247, -1,
          246, 245, 244, -1,
          248, 247, 249, -1,
          248, 246, 247, -1,
          250, 249, 251, -1,
          250, 248, 249, -1,
          252, 250, 251, -1,
          252, 251, 253, -1,
          254, 252, 253, -1,
          254, 253, 255, -1,
          254, 255, 256, -1,
          257, 254, 256, -1,
          257, 256, 258, -1,
          259, 257, 258, -1,
          260, 259, 258, -1,
          260, 258, 261, -1,
          260, 261, 262, -1,
          263, 260, 262, -1,
          264, 263, 262, -1,
          264, 262, 265, -1,
          266, 264, 265, -1,
          266, 265, 267, -1,
          268, 266, 267, -1,
          268, 267, 269, -1,
          270, 268, 269, -1,
          270, 269, 271, -1,
          272, 270, 271, -1,
          272, 271, 273, -1,
          274, 272, 273, -1,
          274, 273, 275, -1,
          274, 275, 276, -1,
          277, 274, 276, -1,
          278, 277, 276, -1,
          278, 276, 279, -1,
          278, 279, 280, -1,
          281, 278, 280, -1,
          282, 280, 283, -1,
          282, 281, 280, -1,
          284, 283, 285, -1,
          284, 282, 283, -1,
          286, 285, 287, -1,
          286, 284, 285, -1,
          288, 287, 289, -1,
          288, 286, 287, -1,
          290, 289, 291, -1,
          290, 288, 289, -1,
          292, 291, 293, -1,
          292, 290, 291, -1,
          294, 293, 295, -1,
          294, 295, 171, -1,
          294, 292, 293, -1,
          173, 294, 171, -1,
          85, 89, 234, -1,
          85, 234, 236, -1,
          85, 236, 239, -1,
          85, 239, 240, -1,
          85, 240, 243, -1,
          92, 224, 226, -1,
          228, 92, 226, -1,
          230, 92, 228, -1,
          232, 92, 230, -1,
          93, 92, 232, -1,
          296, 260, 263, -1,
          296, 263, 264, -1,
          296, 264, 266, -1,
          296, 266, 268, -1,
          296, 268, 270, -1,
          296, 270, 272, -1,
          296, 272, 274, -1,
          296, 274, 277, -1,
          296, 277, 278, -1,
          296, 278, 281, -1,
          297, 106, 85, -1,
          297, 243, 245, -1,
          297, 245, 246, -1,
          297, 246, 248, -1,
          297, 248, 250, -1,
          297, 250, 252, -1,
          297, 252, 254, -1,
          297, 254, 257, -1,
          297, 257, 259, -1,
          297, 259, 260, -1,
          297, 260, 296, -1,
          297, 85, 243, -1,
          298, 281, 282, -1,
          298, 282, 284, -1,
          298, 284, 286, -1,
          298, 286, 288, -1,
          298, 288, 290, -1,
          298, 290, 292, -1,
          298, 292, 294, -1,
          298, 294, 173, -1,
          298, 296, 281, -1,
          299, 109, 106, -1,
          299, 118, 109, -1,
          299, 296, 298, -1,
          299, 297, 296, -1,
          299, 106, 297, -1,
          300, 173, 170, -1,
          300, 170, 174, -1,
          300, 174, 176, -1,
          300, 176, 179, -1,
          300, 179, 180, -1,
          300, 180, 182, -1,
          300, 182, 185, -1,
          300, 185, 186, -1,
          300, 298, 173, -1,
          301, 119, 118, -1,
          301, 298, 300, -1,
          301, 131, 119, -1,
          301, 299, 298, -1,
          301, 118, 299, -1,
          302, 186, 188, -1,
          302, 188, 191, -1,
          302, 191, 192, -1,
          302, 192, 194, -1,
          302, 194, 196, -1,
          302, 196, 198, -1,
          302, 198, 200, -1,
          302, 200, 202, -1,
          302, 202, 204, -1,
          302, 204, 206, -1,
          302, 300, 186, -1,
          303, 301, 300, -1,
          303, 132, 131, -1,
          303, 300, 302, -1,
          303, 131, 301, -1,
          304, 132, 303, -1,
          304, 224, 92, -1,
          304, 206, 208, -1,
          304, 208, 210, -1,
          304, 210, 212, -1,
          304, 212, 214, -1,
          304, 214, 216, -1,
          304, 216, 218, -1,
          304, 218, 220, -1,
          304, 220, 222, -1,
          304, 222, 224, -1,
          304, 92, 143, -1,
          304, 143, 132, -1,
          304, 302, 206, -1,
          304, 303, 302, -1,
          0, 227, 225, -1,
          0, 229, 227, -1,
          0, 231, 229, -1,
          0, 233, 231, -1,
          0, 2, 233, -1,
          7, 242, 241, -1,
          238, 7, 241, -1,
          237, 7, 238, -1,
          235, 7, 237, -1,
          8, 7, 235, -1,
          305, 189, 187, -1,
          305, 190, 189, -1,
          305, 193, 190, -1,
          305, 195, 193, -1,
          305, 197, 195, -1,
          305, 199, 197, -1,
          305, 201, 199, -1,
          305, 203, 201, -1,
          305, 205, 203, -1,
          305, 207, 205, -1,
          306, 23, 13, -1,
          306, 13, 0, -1,
          306, 209, 207, -1,
          306, 211, 209, -1,
          306, 213, 211, -1,
          306, 215, 213, -1,
          306, 217, 215, -1,
          306, 219, 217, -1,
          306, 221, 219, -1,
          306, 223, 221, -1,
          306, 225, 223, -1,
          306, 207, 305, -1,
          306, 0, 225, -1,
          307, 172, 171, -1,
          307, 175, 172, -1,
          307, 177, 175, -1,
          307, 178, 177, -1,
          307, 181, 178, -1,
          307, 183, 181, -1,
          307, 184, 183, -1,
          307, 187, 184, -1,
          307, 305, 187, -1,
          308, 33, 23, -1,
          308, 306, 305, -1,
          308, 23, 306, -1,
          308, 305, 307, -1,
          309, 307, 171, -1,
          309, 283, 280, -1,
          309, 285, 283, -1,
          309, 287, 285, -1,
          309, 289, 287, -1,
          309, 291, 289, -1,
          309, 293, 291, -1,
          309, 295, 293, -1,
          309, 171, 295, -1,
          310, 46, 34, -1,
          310, 34, 33, -1,
          310, 307, 309, -1,
          310, 308, 307, -1,
          310, 33, 308, -1,
          311, 309, 280, -1,
          311, 262, 261, -1,
          311, 265, 262, -1,
          311, 267, 265, -1,
          311, 269, 267, -1,
          311, 271, 269, -1,
          311, 273, 271, -1,
          311, 275, 273, -1,
          311, 276, 275, -1,
          311, 279, 276, -1,
          311, 280, 279, -1,
          312, 47, 46, -1,
          312, 58, 47, -1,
          312, 309, 311, -1,
          312, 310, 309, -1,
          312, 46, 310, -1,
          313, 7, 58, -1,
          313, 58, 312, -1,
          313, 242, 7, -1,
          313, 311, 261, -1,
          313, 244, 242, -1,
          313, 247, 244, -1,
          313, 249, 247, -1,
          313, 251, 249, -1,
          313, 253, 251, -1,
          313, 255, 253, -1,
          313, 256, 255, -1,
          313, 258, 256, -1,
          313, 261, 258, -1,
          313, 312, 311, -1
        ]
      }
    }
}
