{"asset":{"version":"2.0","generator":"microscope_builder_4 scripts/catalog/dedupe-mounted-lens-housings.mjs"},"scene":0,"scenes":[{"nodes":[0]}],"nodes":[{"mesh":0}],"meshes":[{"primitives":[{"attributes":{"POSITION":1,"NORMAL":2},"indices":0,"mode":4},{"attributes":{"POSITION":4,"NORMAL":5},"indices":3,"mode":4},{"attributes":{"POSITION":7,"NORMAL":8},"indices":6,"mode":4}]}],"buffers":[{"uri":"lb1676-ml.bin","byteLength":95556}],"bufferViews":[{"buffer":0,"byteOffset":0,"byteLength":26796,"target":34963},{"buffer":0,"byteOffset":26796,"byteLength":26796,"target":34962},{"buffer":0,"byteOffset":53592,"byteLength":26796,"target":34962},{"buffer":0,"byteOffset":80388,"byteLength":1104,"target":34963},{"buffer":0,"byteOffset":81492,"byteLength":1128,"target":34962},{"buffer":0,"byteOffset":82620,"byteLength":1128,"target":34962},{"buffer":0,"byteOffset":83748,"byteLength":3936,"target":34963},{"buffer":0,"byteOffset":87684,"byteLength":3936,"target":34962},{"buffer":0,"byteOffset":91620,"byteLength":3936,"target":34962}],"accessors":[{"bufferView":0,"componentType":5123,"count":13398,"type":"SCALAR"},{"bufferView":1,"componentType":5126,"count":2233,"type":"VEC3","min":[0.38100001215934753,-15.239999771118164,-15.239999771118164],"max":[11.810999870300293,15.239999771118164,15.239999771118164]},{"bufferView":2,"componentType":5126,"count":2233,"type":"VEC3"},{"bufferView":3,"componentType":5123,"count":552,"type":"SCALAR"},{"bufferView":4,"componentType":5126,"count":94,"type":"VEC3","min":[3.484999895095825,-12.699999809265137,-12.699999809265137],"max":[7.065000057220459,12.699999809265137,12.699999809265137]},{"bufferView":5,"componentType":5126,"count":94,"type":"VEC3"},{"bufferView":6,"componentType":5123,"count":1968,"type":"SCALAR"},{"bufferView":7,"componentType":5126,"count":328,"type":"VEC3","min":[6.394000053405762,-13.144000053405762,-13.144000053405762],"max":[8.425999641418457,13.144000053405762,13.144000053405762]},{"bufferView":8,"componentType":5126,"count":328,"type":"VEC3"}]}
