#VRML V2.0 utf8
WorldInfo {
  title "Exported triangle mesh to VRML97"
  info ["Created by FreeCAD"
        "<https://www.freecad.org>"]
}

Transform {
  scale 1 1 1
  rotation 0 0 1 0
  scaleOrientation 0 0 1 0
  center 0.000 0.000 0.000
  translation 0.000 0.000 0.000
  children
    Shape { 
      appearance
      Appearance {
        material
        Material {
          diffuseColor 0.8 0.8 0.8
        }
      }
      geometry
      IndexedFaceSet {
        coord
        Coordinate {
          point [
            -0.000 -21.236 2.486,
            -2.490 -25.278 1.502,
            -1.246 -25.369 1.502,
            -0.000 -25.400 1.502,
            -1.246 25.369 1.502,
            0.000 21.236 2.486,
            0.000 25.400 1.502,
            -2.490 25.278 1.502,
            -5.133 -22.600 2.051,
            -8.557 -23.915 1.502,
            -7.373 -24.306 1.502,
            -6.172 -24.639 1.502,
            -4.955 -24.912 1.502,
            -3.727 -25.125 1.502,
            -5.133 -17.013 3.165,
            -0.000 -17.034 3.294,
            -0.000 -12.802 3.923,
            -10.252 -19.738 2.265,
            -14.111 -21.119 1.502,
            -13.058 -21.786 1.502,
            -11.973 -22.401 1.502,
            -10.860 -22.961 1.502,
            -9.720 -23.467 1.502,
            -5.133 -11.372 3.964,
            -0.000 -8.548 4.374,
            -10.252 -14.143 3.219,
            -15.345 -16.838 2.142,
            -19.634 -16.114 1.502,
            -18.820 -17.058 1.502,
            -17.961 -17.961 1.502,
            -17.058 -18.820 1.502,
            -16.114 -19.634 1.502,
            -15.131 -20.401 1.502,
            -5.133 -5.695 4.445,
            -0.000 -4.278 4.645,
            -10.252 -8.504 3.856,
            -15.345 -11.255 2.933,
            -5.133 -0.000 4.605,
            0.000 0.000 4.735,
            0.000 4.278 4.645,
            -20.399 -13.925 1.680,
            -22.401 -11.973 1.502,
            -21.786 -13.058 1.502,
            -21.119 -14.111 1.502,
            -20.401 -15.131 1.502,
            -10.252 -2.838 4.175,
            -15.345 -5.637 3.408,
            -5.133 5.695 4.445,
            0.000 8.548 4.374,
            -20.399 -8.373 2.308,
            -24.639 -6.172 1.502,
            -24.306 -7.373 1.502,
            -23.915 -8.557 1.502,
            -23.467 -9.720 1.502,
            -22.961 -10.860 1.502,
            -10.252 2.838 4.175,
            -15.345 -0.000 3.567,
            -5.133 11.372 3.964,
            0.000 12.802 3.923,
            -20.399 -2.794 2.622,
            -25.400 -0.000 1.502,
            -25.369 -1.246 1.502,
            -25.278 -2.490 1.502,
            -25.125 -3.727 1.502,
            -24.912 -4.955 1.502,
            -10.252 8.504 3.856,
            -15.345 5.637 3.408,
            -5.133 17.013 3.165,
            0.000 17.034 3.294,
            -20.399 2.794 2.622,
            -24.639 6.172 1.502,
            -24.912 4.955 1.502,
            -25.125 3.727 1.502,
            -25.278 2.490 1.502,
            -25.369 1.246 1.502,
            -10.252 14.143 3.219,
            -15.345 11.255 2.933,
            -5.133 22.600 2.051,
            -3.727 25.125 1.502,
            -4.955 24.912 1.502,
            -6.172 24.639 1.502,
            -7.373 24.306 1.502,
            -8.557 23.915 1.502,
            -20.399 8.373 2.308,
            -22.401 11.973 1.502,
            -22.961 10.860 1.502,
            -23.467 9.720 1.502,
            -23.915 8.557 1.502,
            -24.306 7.373 1.502,
            -10.252 19.738 2.265,
            -9.720 23.467 1.502,
            -10.860 22.961 1.502,
            -11.973 22.401 1.502,
            -13.058 21.786 1.502,
            -14.111 21.119 1.502,
            -15.345 16.838 2.142,
            -15.131 20.401 1.502,
            -16.114 19.634 1.502,
            -17.058 18.820 1.502,
            -17.961 17.961 1.502,
            -18.820 17.058 1.502,
            -19.634 16.114 1.502,
            -20.399 13.925 1.680,
            -20.401 15.131 1.502,
            -21.119 14.111 1.502,
            -21.786 13.058 1.502,
            25.369 1.246 1.502,
            25.400 -0.000 1.502,
            25.400 -0.000 -1.502,
            25.369 1.246 -1.502,
            25.278 2.490 1.502,
            25.278 2.490 -1.502,
            25.125 3.727 1.502,
            25.125 3.727 -1.502,
            24.912 4.955 1.502,
            24.912 4.955 -1.502,
            24.639 6.172 -1.502,
            24.639 6.172 1.502,
            24.306 7.373 1.502,
            24.306 7.373 -1.502,
            23.915 8.557 1.502,
            23.915 8.557 -1.502,
            23.467 9.720 1.502,
            23.467 9.720 -1.502,
            22.961 10.860 1.502,
            22.961 10.860 -1.502,
            22.401 11.973 1.502,
            22.401 11.973 -1.502,
            21.786 13.058 1.502,
            21.786 13.058 -1.502,
            21.119 14.111 1.502,
            21.119 14.111 -1.502,
            20.401 15.131 -1.502,
            20.401 15.131 1.502,
            19.634 16.114 1.502,
            19.634 16.114 -1.502,
            18.820 17.058 1.502,
            18.820 17.058 -1.502,
            17.961 17.961 -1.502,
            17.961 17.961 1.502,
            17.058 18.820 1.502,
            17.058 18.820 -1.502,
            16.114 19.634 1.502,
            16.114 19.634 -1.502,
            15.131 20.401 1.502,
            15.131 20.401 -1.502,
            14.111 21.119 1.502,
            14.111 21.119 -1.502,
            13.058 21.786 1.502,
            13.058 21.786 -1.502,
            11.973 22.401 1.502,
            11.973 22.401 -1.502,
            10.860 22.961 1.502,
            10.860 22.961 -1.502,
            9.720 23.467 -1.502,
            9.720 23.467 1.502,
            8.557 23.915 1.502,
            8.557 23.915 -1.502,
            7.373 24.306 1.502,
            7.373 24.306 -1.502,
            6.172 24.639 1.502,
            6.172 24.639 -1.502,
            4.955 24.912 1.502,
            4.955 24.912 -1.502,
            3.727 25.125 1.502,
            3.727 25.125 -1.502,
            2.490 25.278 1.502,
            2.490 25.278 -1.502,
            1.246 25.369 -1.502,
            1.246 25.369 1.502,
            0.000 25.400 -1.502,
            -1.246 25.369 -1.502,
            -2.490 25.278 -1.502,
            -3.727 25.125 -1.502,
            -4.955 24.912 -1.502,
            -6.172 24.639 -1.502,
            -7.373 24.306 -1.502,
            -8.557 23.915 -1.502,
            -9.720 23.467 -1.502,
            -10.860 22.961 -1.502,
            -11.973 22.401 -1.502,
            -13.058 21.786 -1.502,
            -14.111 21.119 -1.502,
            -15.131 20.401 -1.502,
            -16.114 19.634 -1.502,
            -17.058 18.820 -1.502,
            -17.961 17.961 -1.502,
            -18.820 17.058 -1.502,
            -19.634 16.114 -1.502,
            -20.401 15.131 -1.502,
            -21.119 14.111 -1.502,
            -21.786 13.058 -1.502,
            -22.401 11.973 -1.502,
            -22.961 10.860 -1.502,
            -23.467 9.720 -1.502,
            -23.915 8.557 -1.502,
            -24.306 7.373 -1.502,
            -24.639 6.172 -1.502,
            -24.912 4.955 -1.502,
            -25.125 3.727 -1.502,
            -25.278 2.490 -1.502,
            -25.369 1.246 -1.502,
            -25.400 -0.000 -1.502,
            0.000 21.236 -2.486,
            -1.246 -25.369 -1.502,
            -0.000 -21.236 -2.486,
            -0.000 -25.400 -1.502,
            -2.490 -25.278 -1.502,
            -5.133 22.600 -2.051,
            -5.133 17.013 -3.165,
            0.000 17.034 -3.294,
            0.000 12.802 -3.923,
            -10.252 19.738 -2.265,
            -5.133 11.372 -3.964,
            0.000 8.548 -4.374,
            -10.252 14.143 -3.219,
            -15.345 16.838 -2.142,
            -5.133 5.695 -4.445,
            0.000 4.278 -4.645,
            -10.252 8.504 -3.856,
            -15.345 11.255 -2.933,
            -5.133 -0.000 -4.605,
            0.000 -0.000 -4.735,
            -0.000 -4.278 -4.645,
            -20.399 13.925 -1.680,
            -10.252 2.838 -4.175,
            -15.345 5.637 -3.408,
            -5.133 -5.695 -4.445,
            -0.000 -8.548 -4.374,
            -20.399 8.373 -2.308,
            -10.252 -2.838 -4.175,
            -15.345 -0.000 -3.567,
            -5.133 -11.372 -3.964,
            -0.000 -12.802 -3.923,
            -20.399 2.794 -2.622,
            -10.252 -8.504 -3.856,
            -15.345 -5.637 -3.408,
            -5.133 -17.013 -3.165,
            -0.000 -17.034 -3.294,
            -20.399 -2.794 -2.622,
            -25.369 -1.246 -1.502,
            -25.278 -2.490 -1.502,
            -25.125 -3.727 -1.502,
            -24.912 -4.955 -1.502,
            -24.639 -6.172 -1.502,
            -10.252 -14.143 -3.219,
            -15.345 -11.255 -2.933,
            -5.133 -22.600 -2.051,
            -7.373 -24.306 -1.502,
            -8.557 -23.915 -1.502,
            -6.172 -24.639 -1.502,
            -4.955 -24.912 -1.502,
            -3.727 -25.125 -1.502,
            -20.399 -8.373 -2.308,
            -24.306 -7.373 -1.502,
            -23.915 -8.557 -1.502,
            -23.467 -9.720 -1.502,
            -22.961 -10.860 -1.502,
            -22.401 -11.973 -1.502,
            -10.252 -19.738 -2.265,
            -13.058 -21.786 -1.502,
            -14.111 -21.119 -1.502,
            -11.973 -22.401 -1.502,
            -10.860 -22.961 -1.502,
            -9.720 -23.467 -1.502,
            -15.345 -16.838 -2.142,
            -18.820 -17.058 -1.502,
            -19.634 -16.114 -1.502,
            -17.961 -17.961 -1.502,
            -17.058 -18.820 -1.502,
            -16.114 -19.634 -1.502,
            -15.131 -20.401 -1.502,
            -20.399 -13.925 -1.680,
            -21.786 -13.058 -1.502,
            -21.119 -14.111 -1.502,
            -20.401 -15.131 -1.502,
            2.490 -25.278 -1.502,
            3.727 -25.125 -1.502,
            1.246 -25.369 -1.502,
            15.345 19.611 -1.629,
            10.252 22.513 -1.671,
            20.399 11.154 -2.033,
            15.345 14.052 -2.577,
            10.252 16.947 -2.781,
            20.399 5.586 -2.504,
            5.133 19.814 -2.647,
            15.345 8.449 -3.210,
            10.252 11.328 -3.577,
            20.399 -0.000 -2.662,
            25.278 -2.490 -1.502,
            25.125 -3.727 -1.502,
            25.369 -1.246 -1.502,
            5.133 14.198 -3.605,
            15.345 2.819 -3.527,
            10.252 5.673 -4.056,
            20.399 -5.586 -2.504,
            23.915 -8.557 -1.502,
            23.467 -9.720 -1.502,
            24.306 -7.373 -1.502,
            24.639 -6.172 -1.502,
            24.912 -4.955 -1.502,
            5.133 8.537 -4.244,
            15.345 -2.819 -3.527,
            10.252 -0.000 -4.215,
            20.399 -11.154 -2.033,
            21.119 -14.111 -1.502,
            20.401 -15.131 -1.502,
            21.786 -13.058 -1.502,
            22.401 -11.973 -1.502,
            22.961 -10.860 -1.502,
            5.133 2.849 -4.565,
            15.345 -8.449 -3.210,
            10.252 -5.673 -4.056,
            5.133 -2.849 -4.565,
            15.345 -14.052 -2.577,
            17.961 -17.961 -1.502,
            17.058 -18.820 -1.502,
            18.820 -17.058 -1.502,
            19.634 -16.114 -1.502,
            10.252 -11.328 -3.577,
            5.133 -8.537 -4.244,
            15.345 -19.611 -1.629,
            15.131 -20.401 -1.502,
            14.111 -21.119 -1.502,
            16.114 -19.634 -1.502,
            10.252 -16.947 -2.781,
            13.058 -21.786 -1.502,
            11.973 -22.401 -1.502,
            5.133 -14.198 -3.605,
            10.252 -22.513 -1.671,
            9.720 -23.467 -1.502,
            8.557 -23.915 -1.502,
            10.860 -22.961 -1.502,
            5.133 -19.814 -2.647,
            4.955 -24.912 -1.502,
            6.172 -24.639 -1.502,
            7.373 -24.306 -1.502,
            1.246 -25.369 1.502,
            2.490 -25.278 1.502,
            3.727 -25.125 1.502,
            4.955 -24.912 1.502,
            6.172 -24.639 1.502,
            7.373 -24.306 1.502,
            8.557 -23.915 1.502,
            9.720 -23.467 1.502,
            10.860 -22.961 1.502,
            11.973 -22.401 1.502,
            13.058 -21.786 1.502,
            14.111 -21.119 1.502,
            15.131 -20.401 1.502,
            16.114 -19.634 1.502,
            17.058 -18.820 1.502,
            17.961 -17.961 1.502,
            18.820 -17.058 1.502,
            19.634 -16.114 1.502,
            20.401 -15.131 1.502,
            21.119 -14.111 1.502,
            21.786 -13.058 1.502,
            22.401 -11.973 1.502,
            22.961 -10.860 1.502,
            23.467 -9.720 1.502,
            23.915 -8.557 1.502,
            24.306 -7.373 1.502,
            24.639 -6.172 1.502,
            24.912 -4.955 1.502,
            25.125 -3.727 1.502,
            25.278 -2.490 1.502,
            25.369 -1.246 1.502,
            15.345 -19.611 1.629,
            10.252 -22.513 1.671,
            20.399 -11.154 2.033,
            15.345 -14.052 2.577,
            10.252 -16.947 2.781,
            20.399 -5.586 2.504,
            5.133 -19.814 2.647,
            15.345 -8.449 3.210,
            10.252 -11.328 3.577,
            20.399 -0.000 2.662,
            5.133 -14.198 3.605,
            15.345 -2.819 3.527,
            10.252 -5.673 4.056,
            20.399 5.586 2.504,
            5.133 -8.537 4.244,
            15.345 2.819 3.527,
            10.252 -0.000 4.215,
            20.399 11.154 2.033,
            5.133 -2.849 4.565,
            15.345 8.449 3.210,
            10.252 5.673 4.056,
            5.133 2.849 4.565,
            15.345 14.052 2.577,
            10.252 11.328 3.577,
            5.133 8.537 4.244,
            15.345 19.611 1.629,
            10.252 16.947 2.781,
            5.133 14.198 3.605,
            10.252 22.513 1.671,
            5.133 19.814 2.647
          ]
        }
        coordIndex [
          0, 1, 2, -1,
          0, 2, 3, -1,
          4, 5, 6, -1,
          7, 5, 4, -1,
          8, 9, 10, -1,
          8, 10, 11, -1,
          8, 11, 12, -1,
          8, 12, 13, -1,
          8, 13, 1, -1,
          8, 1, 0, -1,
          14, 8, 0, -1,
          14, 0, 15, -1,
          14, 15, 16, -1,
          17, 18, 19, -1,
          17, 19, 20, -1,
          17, 20, 21, -1,
          17, 21, 22, -1,
          17, 22, 9, -1,
          17, 9, 8, -1,
          17, 8, 14, -1,
          23, 16, 24, -1,
          23, 14, 16, -1,
          25, 17, 14, -1,
          25, 14, 23, -1,
          26, 27, 28, -1,
          26, 28, 29, -1,
          26, 29, 30, -1,
          26, 30, 31, -1,
          26, 31, 32, -1,
          26, 32, 18, -1,
          26, 18, 17, -1,
          26, 17, 25, -1,
          33, 24, 34, -1,
          33, 23, 24, -1,
          35, 25, 23, -1,
          35, 23, 33, -1,
          36, 25, 35, -1,
          36, 26, 25, -1,
          37, 34, 38, -1,
          37, 38, 39, -1,
          37, 33, 34, -1,
          40, 41, 42, -1,
          40, 42, 43, -1,
          40, 43, 44, -1,
          40, 44, 27, -1,
          40, 26, 36, -1,
          40, 27, 26, -1,
          45, 33, 37, -1,
          45, 35, 33, -1,
          46, 35, 45, -1,
          46, 36, 35, -1,
          47, 39, 48, -1,
          47, 37, 39, -1,
          49, 50, 51, -1,
          49, 51, 52, -1,
          49, 52, 53, -1,
          49, 53, 54, -1,
          49, 54, 41, -1,
          49, 40, 36, -1,
          49, 41, 40, -1,
          49, 36, 46, -1,
          55, 37, 47, -1,
          55, 45, 37, -1,
          56, 45, 55, -1,
          56, 46, 45, -1,
          57, 47, 48, -1,
          57, 48, 58, -1,
          59, 60, 61, -1,
          59, 61, 62, -1,
          59, 62, 63, -1,
          59, 63, 64, -1,
          59, 64, 50, -1,
          59, 49, 46, -1,
          59, 46, 56, -1,
          59, 50, 49, -1,
          65, 55, 47, -1,
          65, 47, 57, -1,
          66, 55, 65, -1,
          66, 56, 55, -1,
          67, 68, 5, -1,
          67, 58, 68, -1,
          67, 57, 58, -1,
          69, 60, 59, -1,
          69, 56, 66, -1,
          69, 70, 71, -1,
          69, 71, 72, -1,
          69, 72, 73, -1,
          69, 73, 74, -1,
          69, 74, 60, -1,
          69, 59, 56, -1,
          75, 57, 67, -1,
          75, 65, 57, -1,
          76, 65, 75, -1,
          76, 66, 65, -1,
          77, 7, 78, -1,
          77, 78, 79, -1,
          77, 79, 80, -1,
          77, 80, 81, -1,
          77, 67, 5, -1,
          77, 81, 82, -1,
          77, 5, 7, -1,
          83, 66, 76, -1,
          83, 70, 69, -1,
          83, 69, 66, -1,
          83, 84, 85, -1,
          83, 85, 86, -1,
          83, 86, 87, -1,
          83, 87, 88, -1,
          83, 88, 70, -1,
          89, 77, 82, -1,
          89, 67, 77, -1,
          89, 82, 90, -1,
          89, 90, 91, -1,
          89, 91, 92, -1,
          89, 92, 93, -1,
          89, 93, 94, -1,
          89, 75, 67, -1,
          95, 76, 75, -1,
          95, 75, 89, -1,
          95, 89, 94, -1,
          95, 94, 96, -1,
          95, 96, 97, -1,
          95, 97, 98, -1,
          95, 98, 99, -1,
          95, 99, 100, -1,
          95, 100, 101, -1,
          102, 95, 101, -1,
          102, 83, 76, -1,
          102, 101, 103, -1,
          102, 103, 104, -1,
          102, 104, 105, -1,
          102, 105, 84, -1,
          102, 76, 95, -1,
          102, 84, 83, -1,
          106, 107, 108, -1,
          106, 108, 109, -1,
          110, 106, 109, -1,
          110, 109, 111, -1,
          112, 111, 113, -1,
          112, 110, 111, -1,
          114, 113, 115, -1,
          114, 115, 116, -1,
          114, 112, 113, -1,
          117, 114, 116, -1,
          118, 116, 119, -1,
          118, 117, 116, -1,
          120, 119, 121, -1,
          120, 118, 119, -1,
          122, 121, 123, -1,
          122, 120, 121, -1,
          124, 123, 125, -1,
          124, 122, 123, -1,
          126, 125, 127, -1,
          126, 124, 125, -1,
          128, 127, 129, -1,
          128, 126, 127, -1,
          130, 129, 131, -1,
          130, 131, 132, -1,
          130, 128, 129, -1,
          133, 130, 132, -1,
          134, 132, 135, -1,
          134, 133, 132, -1,
          136, 135, 137, -1,
          136, 137, 138, -1,
          136, 134, 135, -1,
          139, 136, 138, -1,
          140, 138, 141, -1,
          140, 139, 138, -1,
          142, 140, 141, -1,
          142, 141, 143, -1,
          144, 142, 143, -1,
          144, 143, 145, -1,
          146, 144, 145, -1,
          146, 145, 147, -1,
          148, 147, 149, -1,
          148, 146, 147, -1,
          150, 149, 151, -1,
          150, 148, 149, -1,
          152, 151, 153, -1,
          152, 153, 154, -1,
          152, 150, 151, -1,
          155, 152, 154, -1,
          156, 154, 157, -1,
          156, 155, 154, -1,
          158, 157, 159, -1,
          158, 156, 157, -1,
          160, 159, 161, -1,
          160, 158, 159, -1,
          162, 161, 163, -1,
          162, 160, 161, -1,
          164, 163, 165, -1,
          164, 162, 163, -1,
          166, 165, 167, -1,
          166, 167, 168, -1,
          166, 164, 165, -1,
          169, 166, 168, -1,
          6, 168, 170, -1,
          6, 169, 168, -1,
          4, 170, 171, -1,
          4, 6, 170, -1,
          7, 171, 172, -1,
          7, 4, 171, -1,
          78, 172, 173, -1,
          78, 7, 172, -1,
          79, 173, 174, -1,
          79, 78, 173, -1,
          80, 174, 175, -1,
          80, 79, 174, -1,
          81, 175, 176, -1,
          81, 80, 175, -1,
          82, 176, 177, -1,
          82, 81, 176, -1,
          90, 177, 178, -1,
          90, 82, 177, -1,
          91, 178, 179, -1,
          91, 90, 178, -1,
          92, 91, 179, -1,
          92, 179, 180, -1,
          93, 92, 180, -1,
          93, 180, 181, -1,
          94, 93, 181, -1,
          94, 181, 182, -1,
          94, 182, 183, -1,
          96, 183, 184, -1,
          96, 94, 183, -1,
          97, 96, 184, -1,
          98, 184, 185, -1,
          98, 185, 186, -1,
          98, 97, 184, -1,
          99, 98, 186, -1,
          100, 186, 187, -1,
          100, 187, 188, -1,
          100, 99, 186, -1,
          101, 100, 188, -1,
          103, 188, 189, -1,
          103, 101, 188, -1,
          104, 189, 190, -1,
          104, 190, 191, -1,
          104, 103, 189, -1,
          105, 191, 192, -1,
          105, 104, 191, -1,
          84, 105, 192, -1,
          85, 192, 193, -1,
          85, 84, 192, -1,
          86, 193, 194, -1,
          86, 85, 193, -1,
          87, 194, 195, -1,
          87, 86, 194, -1,
          88, 195, 196, -1,
          88, 196, 197, -1,
          88, 87, 195, -1,
          70, 88, 197, -1,
          71, 197, 198, -1,
          71, 70, 197, -1,
          72, 198, 199, -1,
          72, 199, 200, -1,
          72, 71, 198, -1,
          73, 72, 200, -1,
          74, 200, 201, -1,
          74, 73, 200, -1,
          60, 74, 201, -1,
          60, 201, 202, -1,
          203, 171, 170, -1,
          203, 172, 171, -1,
          204, 205, 206, -1,
          207, 205, 204, -1,
          208, 173, 172, -1,
          208, 174, 173, -1,
          208, 175, 174, -1,
          208, 176, 175, -1,
          208, 177, 176, -1,
          208, 172, 203, -1,
          209, 210, 211, -1,
          209, 203, 210, -1,
          209, 208, 203, -1,
          212, 208, 209, -1,
          212, 177, 208, -1,
          212, 178, 177, -1,
          212, 179, 178, -1,
          212, 180, 179, -1,
          212, 181, 180, -1,
          212, 182, 181, -1,
          213, 211, 214, -1,
          213, 209, 211, -1,
          215, 209, 213, -1,
          215, 212, 209, -1,
          216, 212, 215, -1,
          216, 183, 182, -1,
          216, 184, 183, -1,
          216, 185, 184, -1,
          216, 186, 185, -1,
          216, 187, 186, -1,
          216, 188, 187, -1,
          216, 182, 212, -1,
          217, 214, 218, -1,
          217, 213, 214, -1,
          219, 213, 217, -1,
          219, 215, 213, -1,
          220, 216, 215, -1,
          220, 215, 219, -1,
          221, 218, 222, -1,
          221, 217, 218, -1,
          221, 222, 223, -1,
          224, 216, 220, -1,
          224, 189, 188, -1,
          224, 190, 189, -1,
          224, 191, 190, -1,
          224, 192, 191, -1,
          224, 188, 216, -1,
          225, 217, 221, -1,
          225, 219, 217, -1,
          226, 220, 219, -1,
          226, 219, 225, -1,
          227, 223, 228, -1,
          227, 221, 223, -1,
          229, 193, 192, -1,
          229, 194, 193, -1,
          229, 195, 194, -1,
          229, 196, 195, -1,
          229, 197, 196, -1,
          229, 224, 220, -1,
          229, 192, 224, -1,
          229, 220, 226, -1,
          230, 225, 221, -1,
          230, 221, 227, -1,
          231, 225, 230, -1,
          231, 226, 225, -1,
          232, 228, 233, -1,
          232, 227, 228, -1,
          234, 197, 229, -1,
          234, 229, 226, -1,
          234, 226, 231, -1,
          234, 198, 197, -1,
          234, 199, 198, -1,
          234, 200, 199, -1,
          234, 201, 200, -1,
          234, 202, 201, -1,
          235, 227, 232, -1,
          235, 230, 227, -1,
          236, 231, 230, -1,
          236, 230, 235, -1,
          237, 233, 238, -1,
          237, 238, 205, -1,
          237, 232, 233, -1,
          239, 240, 202, -1,
          239, 241, 240, -1,
          239, 242, 241, -1,
          239, 243, 242, -1,
          239, 244, 243, -1,
          239, 202, 234, -1,
          239, 234, 231, -1,
          239, 231, 236, -1,
          245, 232, 237, -1,
          245, 235, 232, -1,
          246, 235, 245, -1,
          246, 236, 235, -1,
          247, 248, 249, -1,
          247, 250, 248, -1,
          247, 251, 250, -1,
          247, 252, 251, -1,
          247, 207, 252, -1,
          247, 237, 205, -1,
          247, 205, 207, -1,
          253, 254, 244, -1,
          253, 255, 254, -1,
          253, 256, 255, -1,
          253, 244, 239, -1,
          253, 257, 256, -1,
          253, 258, 257, -1,
          253, 239, 236, -1,
          253, 236, 246, -1,
          259, 245, 237, -1,
          259, 260, 261, -1,
          259, 262, 260, -1,
          259, 263, 262, -1,
          259, 264, 263, -1,
          259, 249, 264, -1,
          259, 247, 249, -1,
          259, 237, 247, -1,
          265, 245, 259, -1,
          265, 259, 261, -1,
          265, 266, 267, -1,
          265, 268, 266, -1,
          265, 269, 268, -1,
          265, 270, 269, -1,
          265, 271, 270, -1,
          265, 261, 271, -1,
          265, 246, 245, -1,
          272, 265, 267, -1,
          272, 246, 265, -1,
          272, 273, 258, -1,
          272, 274, 273, -1,
          272, 258, 253, -1,
          272, 275, 274, -1,
          272, 267, 275, -1,
          272, 253, 246, -1,
          203, 167, 165, -1,
          203, 168, 167, -1,
          203, 170, 168, -1,
          276, 205, 277, -1,
          278, 205, 276, -1,
          206, 205, 278, -1,
          279, 143, 141, -1,
          279, 145, 143, -1,
          279, 147, 145, -1,
          280, 153, 151, -1,
          280, 154, 153, -1,
          280, 157, 154, -1,
          281, 125, 123, -1,
          281, 127, 125, -1,
          281, 129, 127, -1,
          281, 131, 129, -1,
          281, 132, 131, -1,
          282, 132, 281, -1,
          282, 279, 141, -1,
          282, 135, 132, -1,
          282, 137, 135, -1,
          282, 138, 137, -1,
          282, 141, 138, -1,
          283, 279, 282, -1,
          283, 280, 151, -1,
          283, 149, 147, -1,
          283, 151, 149, -1,
          283, 147, 279, -1,
          284, 115, 113, -1,
          284, 116, 115, -1,
          284, 119, 116, -1,
          284, 121, 119, -1,
          284, 123, 121, -1,
          284, 281, 123, -1,
          285, 157, 280, -1,
          285, 210, 203, -1,
          285, 159, 157, -1,
          285, 161, 159, -1,
          285, 163, 161, -1,
          285, 165, 163, -1,
          285, 280, 283, -1,
          285, 203, 165, -1,
          286, 282, 281, -1,
          286, 281, 284, -1,
          287, 282, 286, -1,
          287, 283, 282, -1,
          288, 109, 108, -1,
          288, 111, 109, -1,
          288, 113, 111, -1,
          288, 284, 113, -1,
          288, 289, 290, -1,
          288, 291, 289, -1,
          288, 108, 291, -1,
          292, 210, 285, -1,
          292, 211, 210, -1,
          292, 285, 283, -1,
          292, 283, 287, -1,
          293, 284, 288, -1,
          293, 286, 284, -1,
          294, 287, 286, -1,
          294, 286, 293, -1,
          295, 288, 290, -1,
          295, 296, 297, -1,
          295, 298, 296, -1,
          295, 299, 298, -1,
          295, 300, 299, -1,
          295, 290, 300, -1,
          301, 218, 214, -1,
          301, 214, 211, -1,
          301, 287, 294, -1,
          301, 211, 292, -1,
          301, 292, 287, -1,
          302, 288, 295, -1,
          302, 293, 288, -1,
          303, 293, 302, -1,
          303, 294, 293, -1,
          304, 295, 297, -1,
          304, 305, 306, -1,
          304, 307, 305, -1,
          304, 308, 307, -1,
          304, 309, 308, -1,
          304, 297, 309, -1,
          310, 222, 218, -1,
          310, 218, 301, -1,
          310, 301, 294, -1,
          310, 294, 303, -1,
          311, 302, 295, -1,
          311, 295, 304, -1,
          312, 302, 311, -1,
          312, 303, 302, -1,
          313, 223, 222, -1,
          313, 303, 312, -1,
          313, 310, 303, -1,
          313, 222, 310, -1,
          314, 304, 306, -1,
          314, 315, 316, -1,
          314, 317, 315, -1,
          314, 318, 317, -1,
          314, 306, 318, -1,
          314, 311, 304, -1,
          319, 311, 314, -1,
          319, 312, 311, -1,
          320, 228, 223, -1,
          320, 233, 228, -1,
          320, 313, 312, -1,
          320, 312, 319, -1,
          320, 223, 313, -1,
          321, 314, 316, -1,
          321, 322, 323, -1,
          321, 324, 322, -1,
          321, 316, 324, -1,
          325, 314, 321, -1,
          325, 326, 327, -1,
          325, 323, 326, -1,
          325, 319, 314, -1,
          325, 321, 323, -1,
          328, 238, 233, -1,
          328, 233, 320, -1,
          328, 320, 319, -1,
          328, 319, 325, -1,
          329, 325, 327, -1,
          329, 330, 331, -1,
          329, 332, 330, -1,
          329, 327, 332, -1,
          333, 205, 238, -1,
          333, 329, 331, -1,
          333, 238, 328, -1,
          333, 277, 205, -1,
          333, 325, 329, -1,
          333, 328, 325, -1,
          333, 334, 277, -1,
          333, 335, 334, -1,
          333, 336, 335, -1,
          333, 331, 336, -1,
          61, 60, 202, -1,
          61, 202, 240, -1,
          62, 240, 241, -1,
          62, 61, 240, -1,
          63, 241, 242, -1,
          63, 62, 241, -1,
          64, 242, 243, -1,
          64, 243, 244, -1,
          64, 63, 242, -1,
          50, 64, 244, -1,
          51, 244, 254, -1,
          51, 254, 255, -1,
          51, 50, 244, -1,
          52, 51, 255, -1,
          53, 255, 256, -1,
          53, 256, 257, -1,
          53, 52, 255, -1,
          54, 53, 257, -1,
          41, 257, 258, -1,
          41, 54, 257, -1,
          42, 258, 273, -1,
          42, 41, 258, -1,
          43, 273, 274, -1,
          43, 42, 273, -1,
          44, 274, 275, -1,
          44, 43, 274, -1,
          27, 275, 267, -1,
          27, 44, 275, -1,
          28, 267, 266, -1,
          28, 27, 267, -1,
          29, 266, 268, -1,
          29, 28, 266, -1,
          30, 268, 269, -1,
          30, 29, 268, -1,
          31, 30, 269, -1,
          31, 269, 270, -1,
          31, 270, 271, -1,
          32, 31, 271, -1,
          32, 271, 261, -1,
          18, 32, 261, -1,
          19, 18, 261, -1,
          19, 261, 260, -1,
          19, 260, 262, -1,
          20, 19, 262, -1,
          21, 262, 263, -1,
          21, 20, 262, -1,
          22, 263, 264, -1,
          22, 21, 263, -1,
          9, 264, 249, -1,
          9, 249, 248, -1,
          9, 22, 264, -1,
          10, 9, 248, -1,
          11, 248, 250, -1,
          11, 250, 251, -1,
          11, 10, 248, -1,
          12, 11, 251, -1,
          13, 251, 252, -1,
          13, 252, 207, -1,
          13, 12, 251, -1,
          1, 207, 204, -1,
          1, 13, 207, -1,
          2, 1, 204, -1,
          3, 204, 206, -1,
          3, 2, 204, -1,
          337, 206, 278, -1,
          337, 3, 206, -1,
          338, 278, 276, -1,
          338, 337, 278, -1,
          339, 276, 277, -1,
          339, 338, 276, -1,
          340, 277, 334, -1,
          340, 339, 277, -1,
          341, 334, 335, -1,
          341, 340, 334, -1,
          342, 335, 336, -1,
          342, 341, 335, -1,
          343, 336, 331, -1,
          343, 342, 336, -1,
          344, 331, 330, -1,
          344, 343, 331, -1,
          345, 330, 332, -1,
          345, 344, 330, -1,
          346, 345, 332, -1,
          346, 332, 327, -1,
          347, 346, 327, -1,
          347, 327, 326, -1,
          348, 347, 326, -1,
          348, 326, 323, -1,
          348, 323, 322, -1,
          349, 348, 322, -1,
          349, 322, 324, -1,
          350, 349, 324, -1,
          351, 350, 324, -1,
          351, 324, 316, -1,
          352, 351, 316, -1,
          352, 316, 315, -1,
          352, 315, 317, -1,
          353, 352, 317, -1,
          354, 353, 317, -1,
          354, 317, 318, -1,
          355, 354, 318, -1,
          355, 318, 306, -1,
          355, 306, 305, -1,
          356, 355, 305, -1,
          356, 305, 307, -1,
          357, 356, 307, -1,
          357, 307, 308, -1,
          358, 357, 308, -1,
          359, 358, 308, -1,
          359, 308, 309, -1,
          359, 309, 297, -1,
          360, 297, 296, -1,
          360, 359, 297, -1,
          361, 360, 296, -1,
          362, 361, 296, -1,
          362, 296, 298, -1,
          362, 298, 299, -1,
          363, 362, 299, -1,
          364, 299, 300, -1,
          364, 363, 299, -1,
          365, 300, 290, -1,
          365, 290, 289, -1,
          365, 364, 300, -1,
          366, 365, 289, -1,
          367, 289, 291, -1,
          367, 291, 108, -1,
          367, 366, 289, -1,
          107, 367, 108, -1,
          0, 3, 337, -1,
          0, 337, 338, -1,
          0, 338, 339, -1,
          166, 5, 164, -1,
          169, 5, 166, -1,
          6, 5, 169, -1,
          368, 348, 349, -1,
          368, 349, 350, -1,
          368, 350, 351, -1,
          369, 343, 344, -1,
          369, 344, 345, -1,
          369, 345, 346, -1,
          370, 355, 356, -1,
          370, 356, 357, -1,
          370, 357, 358, -1,
          370, 358, 359, -1,
          370, 359, 360, -1,
          371, 351, 352, -1,
          371, 352, 353, -1,
          371, 353, 354, -1,
          371, 354, 355, -1,
          371, 368, 351, -1,
          371, 355, 370, -1,
          372, 369, 346, -1,
          372, 346, 347, -1,
          372, 347, 348, -1,
          372, 348, 368, -1,
          372, 368, 371, -1,
          373, 370, 360, -1,
          373, 360, 361, -1,
          373, 361, 362, -1,
          373, 362, 363, -1,
          373, 363, 364, -1,
          373, 364, 365, -1,
          374, 15, 0, -1,
          374, 339, 340, -1,
          374, 340, 341, -1,
          374, 341, 342, -1,
          374, 343, 369, -1,
          374, 342, 343, -1,
          374, 0, 339, -1,
          374, 369, 372, -1,
          375, 370, 373, -1,
          375, 371, 370, -1,
          376, 372, 371, -1,
          376, 371, 375, -1,
          377, 365, 366, -1,
          377, 366, 367, -1,
          377, 367, 107, -1,
          377, 107, 106, -1,
          377, 106, 110, -1,
          377, 110, 112, -1,
          377, 373, 365, -1,
          378, 16, 15, -1,
          378, 15, 374, -1,
          378, 374, 372, -1,
          378, 372, 376, -1,
          379, 375, 373, -1,
          379, 373, 377, -1,
          380, 376, 375, -1,
          380, 375, 379, -1,
          381, 112, 114, -1,
          381, 114, 117, -1,
          381, 117, 118, -1,
          381, 118, 120, -1,
          381, 120, 122, -1,
          381, 377, 112, -1,
          382, 24, 16, -1,
          382, 34, 24, -1,
          382, 376, 380, -1,
          382, 378, 376, -1,
          382, 16, 378, -1,
          383, 379, 377, -1,
          383, 377, 381, -1,
          384, 380, 379, -1,
          384, 379, 383, -1,
          385, 381, 122, -1,
          385, 122, 124, -1,
          385, 124, 126, -1,
          385, 126, 128, -1,
          385, 128, 130, -1,
          385, 130, 133, -1,
          386, 380, 384, -1,
          386, 38, 34, -1,
          386, 382, 380, -1,
          386, 34, 382, -1,
          387, 381, 385, -1,
          387, 383, 381, -1,
          388, 383, 387, -1,
          388, 384, 383, -1,
          389, 38, 386, -1,
          389, 384, 388, -1,
          389, 39, 38, -1,
          389, 386, 384, -1,
          390, 385, 133, -1,
          390, 133, 134, -1,
          390, 134, 136, -1,
          390, 136, 139, -1,
          390, 139, 140, -1,
          390, 387, 385, -1,
          391, 387, 390, -1,
          391, 388, 387, -1,
          392, 388, 391, -1,
          392, 39, 389, -1,
          392, 58, 48, -1,
          392, 48, 39, -1,
          392, 389, 388, -1,
          393, 140, 142, -1,
          393, 142, 144, -1,
          393, 144, 146, -1,
          393, 390, 140, -1,
          394, 391, 390, -1,
          394, 393, 146, -1,
          394, 146, 148, -1,
          394, 148, 150, -1,
          394, 390, 393, -1,
          395, 392, 391, -1,
          395, 58, 392, -1,
          395, 391, 394, -1,
          395, 68, 58, -1,
          396, 150, 152, -1,
          396, 152, 155, -1,
          396, 155, 156, -1,
          396, 394, 150, -1,
          397, 394, 396, -1,
          397, 164, 5, -1,
          397, 68, 395, -1,
          397, 396, 156, -1,
          397, 156, 158, -1,
          397, 158, 160, -1,
          397, 160, 162, -1,
          397, 162, 164, -1,
          397, 5, 68, -1,
          397, 395, 394, -1
        ]
      }
    }
}
