#VRML V2.0 utf8
WorldInfo {
  title "Exported triangle mesh to VRML97"
  info ["Created by FreeCAD"
        "<https://www.freecad.org>"]
}

Transform {
  scale 1 1 1
  rotation 0 0 1 0
  scaleOrientation 0 0 1 0
  center 0.000 0.000 0.000
  translation 0.000 0.000 0.000
  children
    Shape { 
      appearance
      Appearance {
        material
        Material {
          diffuseColor 0.8 0.8 0.8
        }
      }
      geometry
      IndexedFaceSet {
        coord
        Coordinate {
          point [
            0.000 11.647 -1.549,
            -0.623 12.685 -0.946,
            0.000 12.700 -0.946,
            -0.623 -12.685 -0.946,
            -0.000 -11.647 -1.549,
            -0.000 -12.700 -0.946,
            -1.667 11.951 -1.317,
            -1.245 12.639 -0.946,
            -1.863 12.563 -0.946,
            -2.478 12.456 -0.946,
            -1.667 10.472 -2.080,
            0.000 10.565 -2.098,
            0.000 9.457 -2.594,
            -3.327 11.140 -1.560,
            -3.086 12.319 -0.946,
            -3.687 12.153 -0.946,
            -4.279 11.958 -0.946,
            -4.860 11.733 -0.946,
            -1.667 8.944 -2.740,
            0.000 8.326 -3.034,
            -3.327 9.646 -2.267,
            -1.667 7.375 -3.296,
            0.000 7.175 -3.417,
            -4.971 10.278 -1.671,
            -5.430 11.481 -0.946,
            -5.987 11.200 -0.946,
            -6.529 10.893 -0.946,
            -3.327 8.108 -2.871,
            -1.667 5.772 -3.743,
            0.000 6.006 -3.743,
            0.000 4.823 -4.011,
            -4.971 8.779 -2.319,
            -3.327 6.532 -3.369,
            -6.593 9.378 -1.647,
            -7.056 10.560 -0.946,
            -7.565 10.201 -0.946,
            -8.057 9.817 -0.946,
            -1.667 4.142 -4.080,
            0.000 3.627 -4.220,
            -4.971 7.239 -2.864,
            -3.327 4.925 -3.759,
            -6.593 7.882 -2.234,
            -1.667 2.493 -4.306,
            0.000 2.423 -4.370,
            0.000 1.213 -4.460,
            -4.971 5.665 -3.303,
            -8.183 8.451 -1.485,
            -8.529 9.410 -0.946,
            -8.980 8.980 -0.946,
            -9.410 8.529 -0.946,
            -3.327 3.296 -4.039,
            -6.593 6.350 -2.718,
            -1.667 0.832 -4.419,
            0.000 -0.000 -4.490,
            -4.971 4.065 -3.634,
            -8.183 6.969 -2.010,
            -3.327 1.652 -4.207,
            -6.593 4.788 -3.097,
            -9.736 7.511 -1.185,
            -9.817 8.057 -0.946,
            -10.201 7.565 -0.946,
            -10.560 7.056 -0.946,
            -1.667 -0.832 -4.419,
            -0.000 -1.213 -4.460,
            -4.971 2.447 -3.856,
            -8.183 5.454 -2.432,
            -3.327 0.000 -4.263,
            -6.593 3.205 -3.369,
            -9.736 6.051 -1.647,
            -10.893 6.529 -0.946,
            -11.200 5.987 -0.946,
            -1.667 -2.493 -4.306,
            -0.000 -2.423 -4.370,
            -0.000 -3.627 -4.220,
            -4.971 0.817 -3.967,
            -8.183 3.914 -2.751,
            -3.327 -1.652 -4.207,
            -6.593 1.606 -3.533,
            -9.736 4.563 -2.008,
            -1.667 -4.142 -4.080,
            -0.000 -4.823 -4.011,
            -4.971 -0.817 -3.967,
            -8.183 2.355 -2.964,
            -11.244 5.142 -1.146,
            -11.481 5.430 -0.946,
            -11.733 4.860 -0.946,
            -3.327 -3.296 -4.039,
            -6.593 0.000 -3.588,
            -9.736 3.054 -2.267,
            -1.667 -5.772 -3.743,
            -0.000 -6.006 -3.743,
            -4.971 -2.447 -3.856,
            -8.183 0.786 -3.071,
            -11.244 3.690 -1.447,
            -11.958 4.279 -0.946,
            -12.153 3.687 -0.946,
            -12.319 3.086 -0.946,
            -3.327 -4.925 -3.759,
            -6.593 -1.606 -3.533,
            -9.736 1.530 -2.423,
            -1.667 -7.375 -3.296,
            -0.000 -7.175 -3.417,
            -0.000 -8.326 -3.034,
            -4.971 -4.065 -3.634,
            -8.183 -0.786 -3.071,
            -11.244 2.221 -1.648,
            -12.456 2.478 -0.946,
            -12.563 1.863 -0.946,
            -12.639 1.245 -0.946,
            -3.327 -6.532 -3.369,
            -6.593 -3.205 -3.369,
            -9.736 0.000 -2.475,
            -1.667 -8.944 -2.740,
            -0.000 -9.457 -2.594,
            -4.971 -5.665 -3.303,
            -8.183 -2.355 -2.964,
            -11.244 0.741 -1.749,
            -12.685 0.623 -0.946,
            -12.700 -0.000 -0.946,
            -3.327 -8.108 -2.871,
            -6.593 -4.788 -3.097,
            -9.736 -1.530 -2.423,
            -1.667 -10.472 -2.080,
            -0.000 -10.565 -2.098,
            -4.971 -7.239 -2.864,
            -8.183 -3.914 -2.751,
            -11.244 -0.741 -1.749,
            -12.685 -0.623 -0.946,
            -12.639 -1.245 -0.946,
            -3.327 -9.646 -2.267,
            -6.593 -6.350 -2.718,
            -9.736 -3.054 -2.267,
            -1.667 -11.951 -1.317,
            -1.863 -12.563 -0.946,
            -2.478 -12.456 -0.946,
            -1.245 -12.639 -0.946,
            -4.971 -8.779 -2.319,
            -8.183 -5.454 -2.432,
            -11.244 -2.221 -1.648,
            -12.563 -1.863 -0.946,
            -12.456 -2.478 -0.946,
            -12.319 -3.086 -0.946,
            -3.327 -11.140 -1.560,
            -4.279 -11.958 -0.946,
            -4.860 -11.733 -0.946,
            -3.687 -12.153 -0.946,
            -3.086 -12.319 -0.946,
            -6.593 -7.882 -2.234,
            -9.736 -4.563 -2.008,
            -4.971 -10.278 -1.671,
            -5.987 -11.200 -0.946,
            -6.529 -10.893 -0.946,
            -5.430 -11.481 -0.946,
            -8.183 -6.969 -2.010,
            -11.244 -3.690 -1.447,
            -12.153 -3.687 -0.946,
            -11.958 -4.279 -0.946,
            -11.733 -4.860 -0.946,
            -6.593 -9.378 -1.647,
            -7.565 -10.201 -0.946,
            -8.057 -9.817 -0.946,
            -7.056 -10.560 -0.946,
            -9.736 -6.051 -1.647,
            -10.893 -6.529 -0.946,
            -11.200 -5.987 -0.946,
            -10.560 -7.056 -0.946,
            -8.183 -8.451 -1.485,
            -8.980 -8.980 -0.946,
            -9.410 -8.529 -0.946,
            -8.529 -9.410 -0.946,
            -11.244 -5.142 -1.146,
            -11.481 -5.430 -0.946,
            -9.736 -7.511 -1.185,
            -10.201 -7.565 -0.946,
            -9.817 -8.057 -0.946,
            12.685 0.623 0.946,
            12.700 -0.000 -0.946,
            12.685 0.623 -0.946,
            12.700 -0.000 0.946,
            12.639 1.245 0.946,
            12.639 1.245 -0.946,
            12.563 1.863 0.946,
            12.563 1.863 -0.946,
            12.456 2.478 0.946,
            12.456 2.478 -0.946,
            12.319 3.086 0.946,
            12.319 3.086 -0.946,
            12.153 3.687 0.946,
            12.153 3.687 -0.946,
            11.958 4.279 0.946,
            11.958 4.279 -0.946,
            11.733 4.860 0.946,
            11.733 4.860 -0.946,
            11.481 5.430 0.946,
            11.481 5.430 -0.946,
            11.200 5.987 0.946,
            11.200 5.987 -0.946,
            10.893 6.529 0.946,
            10.893 6.529 -0.946,
            10.560 7.056 0.946,
            10.560 7.056 -0.946,
            10.201 7.565 0.946,
            10.201 7.565 -0.946,
            9.817 8.057 0.946,
            9.817 8.057 -0.946,
            9.410 8.529 -0.946,
            9.410 8.529 0.946,
            8.980 8.980 0.946,
            8.980 8.980 -0.946,
            8.529 9.410 0.946,
            8.529 9.410 -0.946,
            8.057 9.817 -0.946,
            8.057 9.817 0.946,
            7.565 10.201 0.946,
            7.565 10.201 -0.946,
            7.056 10.560 0.946,
            7.056 10.560 -0.946,
            6.529 10.893 0.946,
            6.529 10.893 -0.946,
            5.987 11.200 0.946,
            5.987 11.200 -0.946,
            5.430 11.481 -0.946,
            5.430 11.481 0.946,
            4.860 11.733 0.946,
            4.860 11.733 -0.946,
            4.279 11.958 -0.946,
            4.279 11.958 0.946,
            3.687 12.153 0.946,
            3.687 12.153 -0.946,
            3.086 12.319 0.946,
            3.086 12.319 -0.946,
            2.478 12.456 0.946,
            2.478 12.456 -0.946,
            1.863 12.563 0.946,
            1.863 12.563 -0.946,
            1.245 12.639 0.946,
            1.245 12.639 -0.946,
            0.623 12.685 0.946,
            0.623 12.685 -0.946,
            0.000 12.700 0.946,
            -0.623 12.685 0.946,
            -1.245 12.639 0.946,
            -1.863 12.563 0.946,
            -2.478 12.456 0.946,
            -3.086 12.319 0.946,
            -3.687 12.153 0.946,
            -4.279 11.958 0.946,
            -4.860 11.733 0.946,
            -5.430 11.481 0.946,
            -5.987 11.200 0.946,
            -6.529 10.893 0.946,
            -7.056 10.560 0.946,
            -7.565 10.201 0.946,
            -8.057 9.817 0.946,
            -8.529 9.410 0.946,
            -8.980 8.980 0.946,
            -9.410 8.529 0.946,
            -9.817 8.057 0.946,
            -10.201 7.565 0.946,
            -10.560 7.056 0.946,
            -10.893 6.529 0.946,
            -11.200 5.987 0.946,
            -11.481 5.430 0.946,
            -11.733 4.860 0.946,
            -11.958 4.279 0.946,
            -12.153 3.687 0.946,
            -12.319 3.086 0.946,
            -12.456 2.478 0.946,
            -12.563 1.863 0.946,
            -12.639 1.245 0.946,
            -12.685 0.623 0.946,
            -12.700 -0.000 0.946,
            -0.000 -11.647 1.549,
            -0.623 -12.685 0.946,
            -0.000 -12.700 0.946,
            0.000 11.647 1.549,
            -1.667 -11.951 1.317,
            -2.478 -12.456 0.946,
            -1.863 -12.563 0.946,
            -1.245 -12.639 0.946,
            -1.667 -10.472 2.080,
            -0.000 -10.565 2.098,
            -0.000 -9.457 2.594,
            -3.327 -11.140 1.560,
            -4.860 -11.733 0.946,
            -4.279 -11.958 0.946,
            -3.687 -12.153 0.946,
            -3.086 -12.319 0.946,
            -1.667 -8.944 2.740,
            -0.000 -8.326 3.034,
            -3.327 -9.646 2.267,
            -1.667 -7.375 3.296,
            -0.000 -7.175 3.417,
            -4.971 -10.278 1.671,
            -6.529 -10.893 0.946,
            -5.987 -11.200 0.946,
            -5.430 -11.481 0.946,
            -3.327 -8.108 2.871,
            -1.667 -5.772 3.743,
            -0.000 -6.006 3.743,
            -0.000 -4.823 4.011,
            -4.971 -8.779 2.319,
            -3.327 -6.532 3.369,
            -6.593 -9.378 1.647,
            -8.057 -9.817 0.946,
            -7.565 -10.201 0.946,
            -7.056 -10.560 0.946,
            -1.667 -4.142 4.080,
            -0.000 -3.627 4.220,
            -4.971 -7.239 2.864,
            -3.327 -4.925 3.759,
            -6.593 -7.882 2.234,
            -1.667 -2.493 4.306,
            -0.000 -2.423 4.370,
            -0.000 -1.213 4.460,
            -4.971 -5.665 3.303,
            -8.183 -8.451 1.485,
            -9.410 -8.529 0.946,
            -8.980 -8.980 0.946,
            -8.529 -9.410 0.946,
            -3.327 -3.296 4.039,
            -6.593 -6.350 2.718,
            -1.667 -0.832 4.419,
            0.000 0.000 4.490,
            -4.971 -4.065 3.634,
            -8.183 -6.969 2.010,
            -3.327 -1.652 4.207,
            -6.593 -4.788 3.097,
            -9.736 -7.511 1.185,
            -10.560 -7.056 0.946,
            -10.201 -7.565 0.946,
            -9.817 -8.057 0.946,
            -1.667 0.832 4.419,
            0.000 1.213 4.460,
            -4.971 -2.447 3.856,
            -8.183 -5.454 2.432,
            -3.327 -0.000 4.263,
            -6.593 -3.205 3.369,
            -9.736 -6.051 1.647,
            -11.200 -5.987 0.946,
            -10.893 -6.529 0.946,
            -1.667 2.493 4.306,
            0.000 2.423 4.370,
            0.000 3.627 4.220,
            -4.971 -0.817 3.967,
            -8.183 -3.914 2.751,
            -3.327 1.652 4.207,
            -6.593 -1.606 3.533,
            -9.736 -4.563 2.008,
            -1.667 4.142 4.080,
            0.000 4.823 4.011,
            -4.971 0.817 3.967,
            -8.183 -2.355 2.964,
            -11.244 -5.142 1.146,
            -11.733 -4.860 0.946,
            -11.481 -5.430 0.946,
            -3.327 3.296 4.039,
            -6.593 -0.000 3.588,
            -9.736 -3.054 2.267,
            -1.667 5.772 3.743,
            0.000 6.006 3.743,
            -4.971 2.447 3.856,
            -8.183 -0.786 3.071,
            -11.244 -3.690 1.447,
            -12.319 -3.086 0.946,
            -12.153 -3.687 0.946,
            -11.958 -4.279 0.946,
            -3.327 4.925 3.759,
            -6.593 1.606 3.533,
            -9.736 -1.530 2.423,
            -1.667 7.375 3.296,
            0.000 7.175 3.417,
            0.000 8.326 3.034,
            -4.971 4.065 3.634,
            -8.183 0.786 3.071,
            -11.244 -2.221 1.648,
            -12.639 -1.245 0.946,
            -12.563 -1.863 0.946,
            -12.456 -2.478 0.946,
            -3.327 6.532 3.369,
            -6.593 3.205 3.369,
            -9.736 -0.000 2.475,
            -1.667 8.944 2.740,
            0.000 9.457 2.594,
            -4.971 5.665 3.303,
            -8.183 2.355 2.964,
            -11.244 -0.741 1.749,
            -12.685 -0.623 0.946,
            -3.327 8.108 2.871,
            -6.593 4.788 3.097,
            -9.736 1.530 2.423,
            -1.667 10.472 2.080,
            0.000 10.565 2.098,
            -4.971 7.239 2.864,
            -8.183 3.914 2.751,
            -11.244 0.741 1.749,
            -3.327 9.646 2.267,
            -6.593 6.350 2.718,
            -9.736 3.054 2.267,
            -1.667 11.951 1.317,
            -4.971 8.779 2.319,
            -8.183 5.454 2.432,
            -11.244 2.221 1.648,
            -3.327 11.140 1.560,
            -6.593 7.882 2.234,
            -9.736 4.563 2.008,
            -4.971 10.278 1.671,
            -8.183 6.969 2.010,
            -11.244 3.690 1.447,
            -6.593 9.378 1.647,
            -9.736 6.051 1.647,
            -8.183 8.451 1.485,
            -11.244 5.142 1.146,
            -9.736 7.511 1.185,
            0.623 -12.685 0.946,
            9.736 -7.511 1.185,
            9.410 -8.529 0.946,
            9.817 -8.057 0.946,
            10.201 -7.565 0.946,
            10.560 -7.056 0.946,
            11.244 -5.142 1.146,
            11.200 -5.987 0.946,
            11.481 -5.430 0.946,
            11.733 -4.860 0.946,
            8.183 -8.451 1.485,
            8.057 -9.817 0.946,
            8.529 -9.410 0.946,
            8.980 -8.980 0.946,
            9.736 -6.051 1.647,
            10.893 -6.529 0.946,
            6.593 -9.378 1.647,
            6.529 -10.893 0.946,
            7.056 -10.560 0.946,
            7.565 -10.201 0.946,
            11.244 -3.690 1.447,
            11.958 -4.279 0.946,
            12.153 -3.687 0.946,
            12.319 -3.086 0.946,
            8.183 -6.969 2.010,
            4.971 -10.278 1.671,
            4.860 -11.733 0.946,
            5.430 -11.481 0.946,
            5.987 -11.200 0.946,
            9.736 -4.563 2.008,
            6.593 -7.882 2.234,
            3.327 -11.140 1.560,
            2.478 -12.456 0.946,
            3.086 -12.319 0.946,
            3.687 -12.153 0.946,
            4.279 -11.958 0.946,
            11.244 -2.221 1.648,
            12.456 -2.478 0.946,
            12.563 -1.863 0.946,
            12.639 -1.245 0.946,
            8.183 -5.454 2.432,
            4.971 -8.779 2.319,
            1.667 -11.951 1.317,
            1.245 -12.639 0.946,
            1.863 -12.563 0.946,
            9.736 -3.054 2.267,
            6.593 -6.350 2.718,
            3.327 -9.646 2.267,
            11.244 -0.741 1.749,
            12.685 -0.623 0.946,
            8.183 -3.914 2.751,
            4.971 -7.239 2.864,
            1.667 -10.472 2.080,
            9.736 -1.530 2.423,
            6.593 -4.788 3.097,
            3.327 -8.108 2.871,
            11.244 0.741 1.749,
            8.183 -2.355 2.964,
            4.971 -5.665 3.303,
            1.667 -8.944 2.740,
            9.736 -0.000 2.475,
            6.593 -3.205 3.369,
            3.327 -6.532 3.369,
            11.244 2.221 1.648,
            8.183 -0.786 3.071,
            4.971 -4.065 3.634,
            1.667 -7.375 3.296,
            9.736 1.530 2.423,
            6.593 -1.606 3.533,
            3.327 -4.925 3.759,
            11.244 3.690 1.447,
            8.183 0.786 3.071,
            4.971 -2.447 3.856,
            1.667 -5.772 3.743,
            9.736 3.054 2.267,
            6.593 -0.000 3.588,
            3.327 -3.296 4.039,
            11.244 5.142 1.146,
            8.183 2.355 2.964,
            4.971 -0.817 3.967,
            1.667 -4.142 4.080,
            9.736 4.563 2.008,
            6.593 1.606 3.533,
            3.327 -1.652 4.207,
            8.183 3.914 2.751,
            4.971 0.817 3.967,
            1.667 -2.493 4.306,
            9.736 6.051 1.647,
            6.593 3.205 3.369,
            3.327 -0.000 4.263,
            8.183 5.454 2.432,
            4.971 2.447 3.856,
            1.667 -0.832 4.419,
            9.736 7.511 1.185,
            6.593 4.788 3.097,
            3.327 1.652 4.207,
            8.183 6.969 2.010,
            4.971 4.065 3.634,
            1.667 0.832 4.419,
            6.593 6.350 2.718,
            3.327 3.296 4.039,
            8.183 8.451 1.485,
            4.971 5.665 3.303,
            1.667 2.493 4.306,
            6.593 7.882 2.234,
            3.327 4.925 3.759,
            4.971 7.239 2.864,
            1.667 4.142 4.080,
            6.593 9.378 1.647,
            3.327 6.532 3.369,
            4.971 8.779 2.319,
            1.667 5.772 3.743,
            3.327 8.108 2.871,
            4.971 10.278 1.671,
            1.667 7.375 3.296,
            3.327 9.646 2.267,
            1.667 8.944 2.740,
            3.327 11.140 1.560,
            1.667 10.472 2.080,
            1.667 11.951 1.317,
            0.623 -12.685 -0.946,
            1.245 -12.639 -0.946,
            1.863 -12.563 -0.946,
            2.478 -12.456 -0.946,
            3.086 -12.319 -0.946,
            3.687 -12.153 -0.946,
            4.279 -11.958 -0.946,
            4.860 -11.733 -0.946,
            5.430 -11.481 -0.946,
            5.987 -11.200 -0.946,
            6.529 -10.893 -0.946,
            7.056 -10.560 -0.946,
            7.565 -10.201 -0.946,
            8.057 -9.817 -0.946,
            8.529 -9.410 -0.946,
            8.980 -8.980 -0.946,
            9.410 -8.529 -0.946,
            9.817 -8.057 -0.946,
            10.201 -7.565 -0.946,
            10.560 -7.056 -0.946,
            10.893 -6.529 -0.946,
            11.200 -5.987 -0.946,
            11.481 -5.430 -0.946,
            11.733 -4.860 -0.946,
            11.958 -4.279 -0.946,
            12.153 -3.687 -0.946,
            12.319 -3.086 -0.946,
            12.456 -2.478 -0.946,
            12.563 -1.863 -0.946,
            12.639 -1.245 -0.946,
            12.685 -0.623 -0.946,
            9.736 7.511 -1.185,
            11.244 5.142 -1.146,
            8.183 8.451 -1.485,
            9.736 6.051 -1.647,
            6.593 9.378 -1.647,
            11.244 3.690 -1.447,
            8.183 6.969 -2.010,
            4.971 10.278 -1.671,
            9.736 4.563 -2.008,
            6.593 7.882 -2.234,
            3.327 11.140 -1.560,
            11.244 2.221 -1.648,
            8.183 5.454 -2.432,
            4.971 8.779 -2.319,
            1.667 11.951 -1.317,
            9.736 3.054 -2.267,
            6.593 6.350 -2.718,
            3.327 9.646 -2.267,
            11.244 0.741 -1.749,
            8.183 3.914 -2.751,
            4.971 7.239 -2.864,
            1.667 10.472 -2.080,
            9.736 1.530 -2.423,
            6.593 4.788 -3.097,
            3.327 8.108 -2.871,
            11.244 -0.741 -1.749,
            8.183 2.355 -2.964,
            4.971 5.665 -3.303,
            1.667 8.944 -2.740,
            9.736 0.000 -2.475,
            6.593 3.205 -3.369,
            3.327 6.532 -3.369,
            11.244 -2.221 -1.648,
            8.183 0.786 -3.071,
            4.971 4.065 -3.634,
            1.667 7.375 -3.296,
            9.736 -1.530 -2.423,
            6.593 1.606 -3.533,
            3.327 4.925 -3.759,
            11.244 -3.690 -1.447,
            8.183 -0.786 -3.071,
            4.971 2.447 -3.856,
            1.667 5.772 -3.743,
            9.736 -3.054 -2.267,
            6.593 0.000 -3.588,
            3.327 3.296 -4.039,
            11.244 -5.142 -1.146,
            8.183 -2.355 -2.964,
            4.971 0.817 -3.967,
            1.667 4.142 -4.080,
            9.736 -4.563 -2.008,
            6.593 -1.606 -3.533,
            3.327 1.652 -4.207,
            8.183 -3.914 -2.751,
            4.971 -0.817 -3.967,
            1.667 2.493 -4.306,
            9.736 -6.051 -1.647,
            6.593 -3.205 -3.369,
            3.327 0.000 -4.263,
            8.183 -5.454 -2.432,
            4.971 -2.447 -3.856,
            1.667 0.832 -4.419,
            9.736 -7.511 -1.185,
            6.593 -4.788 -3.097,
            3.327 -1.652 -4.207,
            8.183 -6.969 -2.010,
            4.971 -4.065 -3.634,
            1.667 -0.832 -4.419,
            6.593 -6.350 -2.718,
            3.327 -3.296 -4.039,
            8.183 -8.451 -1.485,
            4.971 -5.665 -3.303,
            1.667 -2.493 -4.306,
            6.593 -7.882 -2.234,
            3.327 -4.925 -3.759,
            4.971 -7.239 -2.864,
            1.667 -4.142 -4.080,
            6.593 -9.378 -1.647,
            3.327 -6.532 -3.369,
            4.971 -8.779 -2.319,
            1.667 -5.772 -3.743,
            3.327 -8.108 -2.871,
            4.971 -10.278 -1.671,
            1.667 -7.375 -3.296,
            3.327 -9.646 -2.267,
            1.667 -8.944 -2.740,
            3.327 -11.140 -1.560,
            1.667 -10.472 -2.080,
            1.667 -11.951 -1.317
          ]
        }
        coordIndex [
          0, 1, 2, -1,
          3, 4, 5, -1,
          6, 7, 1, -1,
          6, 8, 7, -1,
          6, 9, 8, -1,
          6, 1, 0, -1,
          10, 11, 12, -1,
          10, 0, 11, -1,
          10, 6, 0, -1,
          13, 9, 6, -1,
          13, 14, 9, -1,
          13, 15, 14, -1,
          13, 16, 15, -1,
          13, 17, 16, -1,
          13, 6, 10, -1,
          18, 12, 19, -1,
          18, 10, 12, -1,
          20, 10, 18, -1,
          20, 13, 10, -1,
          21, 19, 22, -1,
          21, 18, 19, -1,
          23, 13, 20, -1,
          23, 17, 13, -1,
          23, 24, 17, -1,
          23, 25, 24, -1,
          23, 26, 25, -1,
          27, 20, 18, -1,
          27, 18, 21, -1,
          28, 29, 30, -1,
          28, 22, 29, -1,
          28, 21, 22, -1,
          31, 20, 27, -1,
          31, 23, 20, -1,
          32, 27, 21, -1,
          32, 21, 28, -1,
          33, 23, 31, -1,
          33, 34, 26, -1,
          33, 35, 34, -1,
          33, 36, 35, -1,
          33, 26, 23, -1,
          37, 30, 38, -1,
          37, 28, 30, -1,
          39, 27, 32, -1,
          39, 31, 27, -1,
          40, 32, 28, -1,
          40, 28, 37, -1,
          41, 31, 39, -1,
          41, 33, 31, -1,
          42, 43, 44, -1,
          42, 38, 43, -1,
          42, 37, 38, -1,
          45, 32, 40, -1,
          45, 39, 32, -1,
          46, 33, 41, -1,
          46, 47, 36, -1,
          46, 48, 47, -1,
          46, 49, 48, -1,
          46, 36, 33, -1,
          50, 37, 42, -1,
          50, 40, 37, -1,
          51, 41, 39, -1,
          51, 39, 45, -1,
          52, 44, 53, -1,
          52, 42, 44, -1,
          54, 45, 40, -1,
          54, 40, 50, -1,
          55, 41, 51, -1,
          55, 46, 41, -1,
          56, 50, 42, -1,
          56, 42, 52, -1,
          57, 45, 54, -1,
          57, 51, 45, -1,
          58, 46, 55, -1,
          58, 59, 49, -1,
          58, 60, 59, -1,
          58, 61, 60, -1,
          58, 49, 46, -1,
          62, 53, 63, -1,
          62, 52, 53, -1,
          64, 50, 56, -1,
          64, 54, 50, -1,
          65, 55, 51, -1,
          65, 51, 57, -1,
          66, 56, 52, -1,
          66, 52, 62, -1,
          67, 54, 64, -1,
          67, 57, 54, -1,
          68, 58, 55, -1,
          68, 55, 65, -1,
          68, 69, 61, -1,
          68, 70, 69, -1,
          68, 61, 58, -1,
          71, 63, 72, -1,
          71, 72, 73, -1,
          71, 62, 63, -1,
          74, 56, 66, -1,
          74, 64, 56, -1,
          75, 65, 57, -1,
          75, 57, 67, -1,
          76, 66, 62, -1,
          76, 62, 71, -1,
          77, 67, 64, -1,
          77, 64, 74, -1,
          78, 68, 65, -1,
          78, 65, 75, -1,
          79, 73, 80, -1,
          79, 71, 73, -1,
          81, 74, 66, -1,
          81, 66, 76, -1,
          82, 67, 77, -1,
          82, 75, 67, -1,
          83, 68, 78, -1,
          83, 70, 68, -1,
          83, 84, 70, -1,
          83, 85, 84, -1,
          86, 76, 71, -1,
          86, 71, 79, -1,
          87, 77, 74, -1,
          87, 74, 81, -1,
          88, 75, 82, -1,
          88, 78, 75, -1,
          89, 80, 90, -1,
          89, 79, 80, -1,
          91, 81, 76, -1,
          91, 76, 86, -1,
          92, 82, 77, -1,
          92, 77, 87, -1,
          93, 83, 78, -1,
          93, 94, 85, -1,
          93, 95, 94, -1,
          93, 96, 95, -1,
          93, 78, 88, -1,
          93, 85, 83, -1,
          97, 79, 89, -1,
          97, 86, 79, -1,
          98, 87, 81, -1,
          98, 81, 91, -1,
          99, 82, 92, -1,
          99, 88, 82, -1,
          100, 90, 101, -1,
          100, 101, 102, -1,
          100, 89, 90, -1,
          103, 86, 97, -1,
          103, 91, 86, -1,
          104, 92, 87, -1,
          104, 87, 98, -1,
          105, 88, 99, -1,
          105, 96, 93, -1,
          105, 93, 88, -1,
          105, 106, 96, -1,
          105, 107, 106, -1,
          105, 108, 107, -1,
          109, 89, 100, -1,
          109, 97, 89, -1,
          110, 98, 91, -1,
          110, 91, 103, -1,
          111, 99, 92, -1,
          111, 92, 104, -1,
          112, 102, 113, -1,
          112, 100, 102, -1,
          114, 97, 109, -1,
          114, 103, 97, -1,
          115, 104, 98, -1,
          115, 98, 110, -1,
          116, 105, 99, -1,
          116, 108, 105, -1,
          116, 99, 111, -1,
          116, 117, 108, -1,
          116, 118, 117, -1,
          119, 109, 100, -1,
          119, 100, 112, -1,
          120, 103, 114, -1,
          120, 110, 103, -1,
          121, 104, 115, -1,
          121, 111, 104, -1,
          122, 113, 123, -1,
          122, 123, 4, -1,
          122, 112, 113, -1,
          124, 109, 119, -1,
          124, 114, 109, -1,
          125, 115, 110, -1,
          125, 110, 120, -1,
          126, 127, 118, -1,
          126, 128, 127, -1,
          126, 118, 116, -1,
          126, 116, 111, -1,
          126, 111, 121, -1,
          129, 119, 112, -1,
          129, 112, 122, -1,
          130, 114, 124, -1,
          130, 120, 114, -1,
          131, 115, 125, -1,
          131, 121, 115, -1,
          132, 122, 4, -1,
          132, 133, 134, -1,
          132, 135, 133, -1,
          132, 3, 135, -1,
          132, 4, 3, -1,
          136, 124, 119, -1,
          136, 119, 129, -1,
          137, 125, 120, -1,
          137, 120, 130, -1,
          138, 121, 131, -1,
          138, 126, 121, -1,
          138, 139, 128, -1,
          138, 140, 139, -1,
          138, 141, 140, -1,
          138, 128, 126, -1,
          142, 143, 144, -1,
          142, 129, 122, -1,
          142, 145, 143, -1,
          142, 132, 134, -1,
          142, 146, 145, -1,
          142, 134, 146, -1,
          142, 122, 132, -1,
          147, 124, 136, -1,
          147, 130, 124, -1,
          148, 131, 125, -1,
          148, 125, 137, -1,
          149, 142, 144, -1,
          149, 150, 151, -1,
          149, 152, 150, -1,
          149, 144, 152, -1,
          149, 136, 129, -1,
          149, 129, 142, -1,
          153, 130, 147, -1,
          153, 137, 130, -1,
          154, 131, 148, -1,
          154, 155, 141, -1,
          154, 156, 155, -1,
          154, 157, 156, -1,
          154, 138, 131, -1,
          154, 141, 138, -1,
          158, 147, 136, -1,
          158, 136, 149, -1,
          158, 159, 160, -1,
          158, 161, 159, -1,
          158, 151, 161, -1,
          158, 149, 151, -1,
          162, 137, 153, -1,
          162, 163, 164, -1,
          162, 165, 163, -1,
          162, 148, 137, -1,
          166, 167, 168, -1,
          166, 169, 167, -1,
          166, 160, 169, -1,
          166, 158, 160, -1,
          166, 153, 147, -1,
          166, 147, 158, -1,
          170, 148, 162, -1,
          170, 157, 154, -1,
          170, 171, 157, -1,
          170, 164, 171, -1,
          170, 154, 148, -1,
          170, 162, 164, -1,
          172, 166, 168, -1,
          172, 165, 162, -1,
          172, 153, 166, -1,
          172, 173, 165, -1,
          172, 174, 173, -1,
          172, 168, 174, -1,
          172, 162, 153, -1,
          175, 176, 177, -1,
          175, 178, 176, -1,
          179, 177, 180, -1,
          179, 175, 177, -1,
          181, 180, 182, -1,
          181, 179, 180, -1,
          183, 182, 184, -1,
          183, 181, 182, -1,
          185, 184, 186, -1,
          185, 183, 184, -1,
          187, 186, 188, -1,
          187, 185, 186, -1,
          189, 188, 190, -1,
          189, 187, 188, -1,
          191, 190, 192, -1,
          191, 189, 190, -1,
          193, 192, 194, -1,
          193, 191, 192, -1,
          195, 194, 196, -1,
          195, 193, 194, -1,
          197, 196, 198, -1,
          197, 195, 196, -1,
          199, 198, 200, -1,
          199, 197, 198, -1,
          201, 200, 202, -1,
          201, 199, 200, -1,
          203, 202, 204, -1,
          203, 204, 205, -1,
          203, 201, 202, -1,
          206, 203, 205, -1,
          207, 205, 208, -1,
          207, 206, 205, -1,
          209, 208, 210, -1,
          209, 210, 211, -1,
          209, 207, 208, -1,
          212, 209, 211, -1,
          213, 212, 211, -1,
          213, 211, 214, -1,
          215, 213, 214, -1,
          215, 214, 216, -1,
          217, 215, 216, -1,
          217, 216, 218, -1,
          219, 218, 220, -1,
          219, 217, 218, -1,
          219, 220, 221, -1,
          222, 219, 221, -1,
          223, 221, 224, -1,
          223, 224, 225, -1,
          223, 222, 221, -1,
          226, 223, 225, -1,
          227, 225, 228, -1,
          227, 226, 225, -1,
          229, 228, 230, -1,
          229, 227, 228, -1,
          231, 230, 232, -1,
          231, 229, 230, -1,
          233, 232, 234, -1,
          233, 231, 232, -1,
          235, 234, 236, -1,
          235, 233, 234, -1,
          237, 236, 238, -1,
          237, 235, 236, -1,
          239, 238, 2, -1,
          239, 2, 1, -1,
          239, 237, 238, -1,
          240, 239, 1, -1,
          241, 1, 7, -1,
          241, 7, 8, -1,
          241, 240, 1, -1,
          242, 241, 8, -1,
          243, 8, 9, -1,
          243, 242, 8, -1,
          244, 9, 14, -1,
          244, 243, 9, -1,
          245, 14, 15, -1,
          245, 244, 14, -1,
          246, 15, 16, -1,
          246, 245, 15, -1,
          247, 16, 17, -1,
          247, 246, 16, -1,
          248, 17, 24, -1,
          248, 24, 25, -1,
          248, 247, 17, -1,
          249, 248, 25, -1,
          249, 25, 26, -1,
          250, 249, 26, -1,
          251, 250, 26, -1,
          251, 26, 34, -1,
          251, 34, 35, -1,
          252, 251, 35, -1,
          253, 252, 35, -1,
          253, 35, 36, -1,
          254, 253, 36, -1,
          254, 36, 47, -1,
          255, 254, 47, -1,
          255, 47, 48, -1,
          256, 255, 48, -1,
          256, 48, 49, -1,
          257, 256, 49, -1,
          257, 49, 59, -1,
          258, 257, 59, -1,
          258, 59, 60, -1,
          259, 258, 60, -1,
          259, 60, 61, -1,
          260, 259, 61, -1,
          260, 61, 69, -1,
          261, 260, 69, -1,
          261, 69, 70, -1,
          262, 261, 70, -1,
          262, 70, 84, -1,
          263, 84, 85, -1,
          263, 262, 84, -1,
          264, 85, 94, -1,
          264, 263, 85, -1,
          265, 94, 95, -1,
          265, 264, 94, -1,
          266, 95, 96, -1,
          266, 265, 95, -1,
          267, 96, 106, -1,
          267, 266, 96, -1,
          268, 106, 107, -1,
          268, 267, 106, -1,
          269, 107, 108, -1,
          269, 268, 107, -1,
          270, 108, 117, -1,
          270, 117, 118, -1,
          270, 269, 108, -1,
          271, 270, 118, -1,
          272, 273, 274, -1,
          240, 275, 239, -1,
          276, 277, 278, -1,
          276, 278, 279, -1,
          276, 279, 273, -1,
          276, 273, 272, -1,
          280, 276, 272, -1,
          280, 272, 281, -1,
          280, 281, 282, -1,
          283, 276, 280, -1,
          283, 284, 285, -1,
          283, 285, 286, -1,
          283, 286, 287, -1,
          283, 287, 277, -1,
          283, 277, 276, -1,
          288, 280, 282, -1,
          288, 282, 289, -1,
          290, 280, 288, -1,
          290, 283, 280, -1,
          291, 288, 289, -1,
          291, 289, 292, -1,
          293, 283, 290, -1,
          293, 294, 295, -1,
          293, 295, 296, -1,
          293, 296, 284, -1,
          293, 284, 283, -1,
          297, 290, 288, -1,
          297, 288, 291, -1,
          298, 291, 292, -1,
          298, 292, 299, -1,
          298, 299, 300, -1,
          301, 290, 297, -1,
          301, 293, 290, -1,
          302, 291, 298, -1,
          302, 297, 291, -1,
          303, 294, 293, -1,
          303, 293, 301, -1,
          303, 304, 305, -1,
          303, 305, 306, -1,
          303, 306, 294, -1,
          307, 298, 300, -1,
          307, 300, 308, -1,
          309, 297, 302, -1,
          309, 301, 297, -1,
          310, 298, 307, -1,
          310, 302, 298, -1,
          311, 301, 309, -1,
          311, 303, 301, -1,
          312, 307, 308, -1,
          312, 308, 313, -1,
          312, 313, 314, -1,
          315, 309, 302, -1,
          315, 302, 310, -1,
          316, 303, 311, -1,
          316, 317, 318, -1,
          316, 318, 319, -1,
          316, 319, 304, -1,
          316, 304, 303, -1,
          320, 307, 312, -1,
          320, 310, 307, -1,
          321, 311, 309, -1,
          321, 309, 315, -1,
          322, 312, 314, -1,
          322, 314, 323, -1,
          324, 310, 320, -1,
          324, 315, 310, -1,
          325, 316, 311, -1,
          325, 311, 321, -1,
          326, 320, 312, -1,
          326, 312, 322, -1,
          327, 321, 315, -1,
          327, 315, 324, -1,
          328, 316, 325, -1,
          328, 317, 316, -1,
          328, 329, 330, -1,
          328, 330, 331, -1,
          328, 331, 317, -1,
          332, 322, 323, -1,
          332, 323, 333, -1,
          334, 324, 320, -1,
          334, 320, 326, -1,
          335, 325, 321, -1,
          335, 321, 327, -1,
          336, 322, 332, -1,
          336, 326, 322, -1,
          337, 324, 334, -1,
          337, 327, 324, -1,
          338, 325, 335, -1,
          338, 339, 340, -1,
          338, 340, 329, -1,
          338, 329, 328, -1,
          338, 328, 325, -1,
          341, 332, 333, -1,
          341, 342, 343, -1,
          341, 333, 342, -1,
          344, 334, 326, -1,
          344, 326, 336, -1,
          345, 335, 327, -1,
          345, 327, 337, -1,
          346, 332, 341, -1,
          346, 336, 332, -1,
          347, 337, 334, -1,
          347, 334, 344, -1,
          348, 338, 335, -1,
          348, 335, 345, -1,
          349, 341, 343, -1,
          349, 343, 350, -1,
          351, 344, 336, -1,
          351, 336, 346, -1,
          352, 345, 337, -1,
          352, 337, 347, -1,
          353, 339, 338, -1,
          353, 354, 355, -1,
          353, 355, 339, -1,
          353, 338, 348, -1,
          356, 341, 349, -1,
          356, 346, 341, -1,
          357, 347, 344, -1,
          357, 344, 351, -1,
          358, 348, 345, -1,
          358, 345, 352, -1,
          359, 350, 360, -1,
          359, 349, 350, -1,
          361, 351, 346, -1,
          361, 346, 356, -1,
          362, 347, 357, -1,
          362, 352, 347, -1,
          363, 348, 358, -1,
          363, 364, 365, -1,
          363, 365, 366, -1,
          363, 366, 354, -1,
          363, 354, 353, -1,
          363, 353, 348, -1,
          367, 349, 359, -1,
          367, 356, 349, -1,
          368, 357, 351, -1,
          368, 351, 361, -1,
          369, 358, 352, -1,
          369, 352, 362, -1,
          370, 359, 360, -1,
          370, 371, 372, -1,
          370, 360, 371, -1,
          373, 356, 367, -1,
          373, 361, 356, -1,
          374, 357, 368, -1,
          374, 362, 357, -1,
          375, 363, 358, -1,
          375, 358, 369, -1,
          375, 376, 377, -1,
          375, 377, 378, -1,
          375, 378, 364, -1,
          375, 364, 363, -1,
          379, 359, 370, -1,
          379, 367, 359, -1,
          380, 361, 373, -1,
          380, 368, 361, -1,
          381, 362, 374, -1,
          381, 369, 362, -1,
          382, 370, 372, -1,
          382, 372, 383, -1,
          384, 373, 367, -1,
          384, 367, 379, -1,
          385, 374, 368, -1,
          385, 368, 380, -1,
          386, 369, 381, -1,
          386, 271, 387, -1,
          386, 387, 376, -1,
          386, 375, 369, -1,
          386, 376, 375, -1,
          388, 370, 382, -1,
          388, 379, 370, -1,
          389, 373, 384, -1,
          389, 380, 373, -1,
          390, 381, 374, -1,
          390, 374, 385, -1,
          391, 382, 383, -1,
          391, 392, 275, -1,
          391, 383, 392, -1,
          393, 384, 379, -1,
          393, 379, 388, -1,
          394, 385, 380, -1,
          394, 380, 389, -1,
          395, 269, 270, -1,
          395, 270, 271, -1,
          395, 381, 390, -1,
          395, 271, 386, -1,
          395, 386, 381, -1,
          396, 388, 382, -1,
          396, 382, 391, -1,
          397, 384, 393, -1,
          397, 389, 384, -1,
          398, 390, 385, -1,
          398, 385, 394, -1,
          399, 240, 241, -1,
          399, 241, 242, -1,
          399, 242, 243, -1,
          399, 391, 275, -1,
          399, 275, 240, -1,
          400, 388, 396, -1,
          400, 393, 388, -1,
          401, 394, 389, -1,
          401, 389, 397, -1,
          402, 266, 267, -1,
          402, 267, 268, -1,
          402, 268, 269, -1,
          402, 269, 395, -1,
          402, 395, 390, -1,
          402, 390, 398, -1,
          403, 243, 244, -1,
          403, 244, 245, -1,
          403, 245, 246, -1,
          403, 246, 247, -1,
          403, 396, 391, -1,
          403, 399, 243, -1,
          403, 391, 399, -1,
          404, 397, 393, -1,
          404, 393, 400, -1,
          405, 398, 394, -1,
          405, 394, 401, -1,
          406, 396, 403, -1,
          406, 247, 248, -1,
          406, 248, 249, -1,
          406, 249, 250, -1,
          406, 403, 247, -1,
          406, 400, 396, -1,
          407, 397, 404, -1,
          407, 401, 397, -1,
          408, 266, 402, -1,
          408, 263, 264, -1,
          408, 264, 265, -1,
          408, 265, 266, -1,
          408, 398, 405, -1,
          408, 402, 398, -1,
          409, 404, 400, -1,
          409, 406, 250, -1,
          409, 400, 406, -1,
          409, 250, 251, -1,
          409, 251, 252, -1,
          409, 252, 253, -1,
          410, 405, 401, -1,
          410, 259, 260, -1,
          410, 260, 261, -1,
          410, 401, 407, -1,
          411, 407, 404, -1,
          411, 253, 254, -1,
          411, 254, 255, -1,
          411, 255, 256, -1,
          411, 409, 253, -1,
          411, 404, 409, -1,
          412, 405, 410, -1,
          412, 410, 261, -1,
          412, 261, 262, -1,
          412, 262, 263, -1,
          412, 408, 405, -1,
          412, 263, 408, -1,
          413, 256, 257, -1,
          413, 257, 258, -1,
          413, 258, 259, -1,
          413, 410, 407, -1,
          413, 411, 256, -1,
          413, 407, 411, -1,
          413, 259, 410, -1,
          272, 274, 414, -1,
          239, 275, 237, -1,
          415, 416, 417, -1,
          415, 417, 418, -1,
          415, 418, 419, -1,
          420, 421, 422, -1,
          420, 422, 423, -1,
          424, 425, 426, -1,
          424, 426, 427, -1,
          424, 427, 416, -1,
          424, 416, 415, -1,
          428, 421, 420, -1,
          428, 419, 429, -1,
          428, 429, 421, -1,
          428, 415, 419, -1,
          430, 425, 424, -1,
          430, 431, 432, -1,
          430, 432, 433, -1,
          430, 433, 425, -1,
          434, 420, 423, -1,
          434, 423, 435, -1,
          434, 435, 436, -1,
          434, 436, 437, -1,
          438, 415, 428, -1,
          438, 424, 415, -1,
          439, 440, 441, -1,
          439, 441, 442, -1,
          439, 442, 431, -1,
          439, 431, 430, -1,
          443, 420, 434, -1,
          443, 428, 420, -1,
          444, 424, 438, -1,
          444, 430, 424, -1,
          445, 446, 447, -1,
          445, 447, 448, -1,
          445, 448, 449, -1,
          445, 449, 440, -1,
          445, 440, 439, -1,
          450, 434, 437, -1,
          450, 437, 451, -1,
          450, 451, 452, -1,
          450, 452, 453, -1,
          454, 428, 443, -1,
          454, 438, 428, -1,
          455, 430, 444, -1,
          455, 439, 430, -1,
          456, 414, 457, -1,
          456, 457, 458, -1,
          456, 458, 446, -1,
          456, 446, 445, -1,
          456, 272, 414, -1,
          459, 443, 434, -1,
          459, 434, 450, -1,
          460, 444, 438, -1,
          460, 438, 454, -1,
          461, 439, 455, -1,
          461, 445, 439, -1,
          462, 453, 463, -1,
          462, 463, 178, -1,
          462, 450, 453, -1,
          464, 443, 459, -1,
          464, 454, 443, -1,
          465, 444, 460, -1,
          465, 455, 444, -1,
          466, 445, 461, -1,
          466, 281, 272, -1,
          466, 282, 281, -1,
          466, 456, 445, -1,
          466, 272, 456, -1,
          467, 459, 450, -1,
          467, 450, 462, -1,
          468, 460, 454, -1,
          468, 454, 464, -1,
          469, 455, 465, -1,
          469, 461, 455, -1,
          470, 462, 178, -1,
          470, 178, 175, -1,
          470, 175, 179, -1,
          471, 459, 467, -1,
          471, 464, 459, -1,
          472, 460, 468, -1,
          472, 465, 460, -1,
          473, 289, 282, -1,
          473, 466, 461, -1,
          473, 461, 469, -1,
          473, 282, 466, -1,
          474, 462, 470, -1,
          474, 467, 462, -1,
          475, 468, 464, -1,
          475, 464, 471, -1,
          476, 465, 472, -1,
          476, 469, 465, -1,
          477, 470, 179, -1,
          477, 179, 181, -1,
          477, 181, 183, -1,
          477, 183, 185, -1,
          478, 471, 467, -1,
          478, 467, 474, -1,
          479, 472, 468, -1,
          479, 468, 475, -1,
          480, 292, 289, -1,
          480, 473, 469, -1,
          480, 289, 473, -1,
          480, 469, 476, -1,
          481, 474, 470, -1,
          481, 470, 477, -1,
          482, 471, 478, -1,
          482, 475, 471, -1,
          483, 472, 479, -1,
          483, 476, 472, -1,
          484, 185, 187, -1,
          484, 187, 189, -1,
          484, 189, 191, -1,
          484, 477, 185, -1,
          485, 478, 474, -1,
          485, 474, 481, -1,
          486, 479, 475, -1,
          486, 475, 482, -1,
          487, 299, 292, -1,
          487, 300, 299, -1,
          487, 292, 480, -1,
          487, 480, 476, -1,
          487, 476, 483, -1,
          488, 481, 477, -1,
          488, 477, 484, -1,
          489, 478, 485, -1,
          489, 482, 478, -1,
          490, 479, 486, -1,
          490, 483, 479, -1,
          491, 484, 191, -1,
          491, 191, 193, -1,
          491, 193, 195, -1,
          492, 485, 481, -1,
          492, 481, 488, -1,
          493, 482, 489, -1,
          493, 486, 482, -1,
          494, 483, 490, -1,
          494, 308, 300, -1,
          494, 300, 487, -1,
          494, 487, 483, -1,
          495, 488, 484, -1,
          495, 484, 491, -1,
          496, 485, 492, -1,
          496, 489, 485, -1,
          497, 490, 486, -1,
          497, 486, 493, -1,
          498, 488, 495, -1,
          498, 492, 488, -1,
          499, 489, 496, -1,
          499, 493, 489, -1,
          500, 313, 308, -1,
          500, 314, 313, -1,
          500, 308, 494, -1,
          500, 494, 490, -1,
          500, 490, 497, -1,
          501, 491, 195, -1,
          501, 195, 197, -1,
          501, 197, 199, -1,
          501, 495, 491, -1,
          502, 496, 492, -1,
          502, 492, 498, -1,
          503, 493, 499, -1,
          503, 497, 493, -1,
          504, 498, 495, -1,
          504, 495, 501, -1,
          505, 496, 502, -1,
          505, 499, 496, -1,
          506, 314, 500, -1,
          506, 323, 314, -1,
          506, 497, 503, -1,
          506, 500, 497, -1,
          507, 199, 201, -1,
          507, 201, 203, -1,
          507, 203, 206, -1,
          507, 501, 199, -1,
          508, 498, 504, -1,
          508, 502, 498, -1,
          509, 503, 499, -1,
          509, 499, 505, -1,
          510, 504, 501, -1,
          510, 501, 507, -1,
          511, 505, 502, -1,
          511, 502, 508, -1,
          512, 323, 506, -1,
          512, 503, 509, -1,
          512, 506, 503, -1,
          512, 333, 323, -1,
          513, 504, 510, -1,
          513, 508, 504, -1,
          514, 505, 511, -1,
          514, 509, 505, -1,
          515, 510, 507, -1,
          515, 507, 206, -1,
          515, 206, 207, -1,
          515, 207, 209, -1,
          515, 209, 212, -1,
          516, 511, 508, -1,
          516, 508, 513, -1,
          517, 509, 514, -1,
          517, 512, 509, -1,
          517, 333, 512, -1,
          517, 343, 342, -1,
          517, 342, 333, -1,
          518, 510, 515, -1,
          518, 513, 510, -1,
          519, 511, 516, -1,
          519, 514, 511, -1,
          520, 513, 518, -1,
          520, 516, 513, -1,
          521, 514, 519, -1,
          521, 517, 514, -1,
          521, 350, 343, -1,
          521, 343, 517, -1,
          522, 518, 515, -1,
          522, 212, 213, -1,
          522, 213, 215, -1,
          522, 215, 217, -1,
          522, 515, 212, -1,
          523, 516, 520, -1,
          523, 519, 516, -1,
          524, 518, 522, -1,
          524, 520, 518, -1,
          525, 521, 519, -1,
          525, 360, 350, -1,
          525, 519, 523, -1,
          525, 350, 521, -1,
          526, 523, 520, -1,
          526, 520, 524, -1,
          527, 524, 522, -1,
          527, 522, 217, -1,
          527, 217, 219, -1,
          527, 219, 222, -1,
          527, 222, 223, -1,
          528, 525, 523, -1,
          528, 360, 525, -1,
          528, 372, 371, -1,
          528, 371, 360, -1,
          528, 523, 526, -1,
          529, 524, 527, -1,
          529, 526, 524, -1,
          530, 372, 528, -1,
          530, 526, 529, -1,
          530, 383, 372, -1,
          530, 528, 526, -1,
          531, 527, 223, -1,
          531, 223, 226, -1,
          531, 226, 227, -1,
          531, 227, 229, -1,
          531, 229, 231, -1,
          531, 529, 527, -1,
          532, 529, 531, -1,
          532, 530, 529, -1,
          532, 383, 530, -1,
          532, 275, 392, -1,
          532, 392, 383, -1,
          533, 531, 231, -1,
          533, 275, 532, -1,
          533, 237, 275, -1,
          533, 231, 233, -1,
          533, 233, 235, -1,
          533, 235, 237, -1,
          533, 532, 531, -1,
          387, 271, 118, -1,
          387, 118, 127, -1,
          376, 127, 128, -1,
          376, 387, 127, -1,
          377, 128, 139, -1,
          377, 376, 128, -1,
          378, 139, 140, -1,
          378, 377, 139, -1,
          364, 140, 141, -1,
          364, 378, 140, -1,
          365, 141, 155, -1,
          365, 364, 141, -1,
          366, 155, 156, -1,
          366, 365, 155, -1,
          354, 156, 157, -1,
          354, 366, 156, -1,
          355, 157, 171, -1,
          355, 354, 157, -1,
          339, 171, 164, -1,
          339, 355, 171, -1,
          340, 164, 163, -1,
          340, 163, 165, -1,
          340, 339, 164, -1,
          329, 340, 165, -1,
          330, 165, 173, -1,
          330, 173, 174, -1,
          330, 329, 165, -1,
          331, 330, 174, -1,
          317, 174, 168, -1,
          317, 168, 167, -1,
          317, 331, 174, -1,
          318, 317, 167, -1,
          319, 167, 169, -1,
          319, 318, 167, -1,
          304, 319, 169, -1,
          304, 169, 160, -1,
          304, 160, 159, -1,
          305, 304, 159, -1,
          306, 305, 159, -1,
          306, 159, 161, -1,
          294, 306, 161, -1,
          294, 161, 151, -1,
          295, 151, 150, -1,
          295, 294, 151, -1,
          295, 150, 152, -1,
          296, 295, 152, -1,
          284, 296, 152, -1,
          284, 152, 144, -1,
          285, 144, 143, -1,
          285, 284, 144, -1,
          286, 143, 145, -1,
          286, 285, 143, -1,
          287, 145, 146, -1,
          287, 146, 134, -1,
          287, 286, 145, -1,
          277, 287, 134, -1,
          278, 134, 133, -1,
          278, 277, 134, -1,
          279, 133, 135, -1,
          279, 135, 3, -1,
          279, 278, 133, -1,
          273, 3, 5, -1,
          273, 279, 3, -1,
          274, 5, 534, -1,
          274, 273, 5, -1,
          414, 534, 535, -1,
          414, 274, 534, -1,
          457, 414, 535, -1,
          458, 535, 536, -1,
          458, 457, 535, -1,
          446, 536, 537, -1,
          446, 458, 536, -1,
          447, 537, 538, -1,
          447, 538, 539, -1,
          447, 446, 537, -1,
          448, 447, 539, -1,
          449, 539, 540, -1,
          449, 540, 541, -1,
          449, 448, 539, -1,
          440, 541, 542, -1,
          440, 449, 541, -1,
          441, 440, 542, -1,
          442, 441, 542, -1,
          442, 542, 543, -1,
          431, 442, 543, -1,
          431, 543, 544, -1,
          432, 431, 544, -1,
          432, 544, 545, -1,
          433, 432, 545, -1,
          433, 545, 546, -1,
          433, 546, 547, -1,
          425, 433, 547, -1,
          426, 425, 547, -1,
          426, 547, 548, -1,
          427, 426, 548, -1,
          427, 548, 549, -1,
          416, 427, 549, -1,
          416, 549, 550, -1,
          417, 416, 550, -1,
          417, 550, 551, -1,
          418, 417, 551, -1,
          418, 551, 552, -1,
          419, 418, 552, -1,
          419, 552, 553, -1,
          429, 419, 553, -1,
          429, 553, 554, -1,
          421, 429, 554, -1,
          421, 554, 555, -1,
          422, 421, 555, -1,
          422, 555, 556, -1,
          423, 556, 557, -1,
          423, 422, 556, -1,
          435, 557, 558, -1,
          435, 423, 557, -1,
          436, 558, 559, -1,
          436, 435, 558, -1,
          437, 559, 560, -1,
          437, 436, 559, -1,
          451, 560, 561, -1,
          451, 437, 560, -1,
          452, 561, 562, -1,
          452, 451, 561, -1,
          453, 562, 563, -1,
          453, 452, 562, -1,
          463, 563, 564, -1,
          463, 453, 563, -1,
          178, 564, 176, -1,
          178, 463, 564, -1,
          0, 2, 238, -1,
          5, 4, 534, -1,
          565, 202, 200, -1,
          565, 204, 202, -1,
          565, 205, 204, -1,
          566, 194, 192, -1,
          566, 196, 194, -1,
          567, 208, 205, -1,
          567, 210, 208, -1,
          567, 211, 210, -1,
          567, 205, 565, -1,
          568, 196, 566, -1,
          568, 198, 196, -1,
          568, 200, 198, -1,
          568, 565, 200, -1,
          569, 214, 211, -1,
          569, 216, 214, -1,
          569, 218, 216, -1,
          569, 211, 567, -1,
          570, 188, 186, -1,
          570, 190, 188, -1,
          570, 192, 190, -1,
          570, 566, 192, -1,
          571, 567, 565, -1,
          571, 565, 568, -1,
          572, 220, 218, -1,
          572, 221, 220, -1,
          572, 224, 221, -1,
          572, 218, 569, -1,
          573, 568, 566, -1,
          573, 566, 570, -1,
          574, 569, 567, -1,
          574, 567, 571, -1,
          575, 225, 224, -1,
          575, 228, 225, -1,
          575, 230, 228, -1,
          575, 232, 230, -1,
          575, 224, 572, -1,
          576, 182, 180, -1,
          576, 184, 182, -1,
          576, 186, 184, -1,
          576, 570, 186, -1,
          577, 568, 573, -1,
          577, 571, 568, -1,
          578, 572, 569, -1,
          578, 569, 574, -1,
          579, 232, 575, -1,
          579, 234, 232, -1,
          579, 236, 234, -1,
          579, 238, 236, -1,
          579, 0, 238, -1,
          580, 570, 576, -1,
          580, 573, 570, -1,
          581, 574, 571, -1,
          581, 571, 577, -1,
          582, 572, 578, -1,
          582, 575, 572, -1,
          583, 177, 176, -1,
          583, 180, 177, -1,
          583, 576, 180, -1,
          584, 577, 573, -1,
          584, 573, 580, -1,
          585, 574, 581, -1,
          585, 578, 574, -1,
          586, 12, 11, -1,
          586, 11, 0, -1,
          586, 0, 579, -1,
          586, 575, 582, -1,
          586, 579, 575, -1,
          587, 576, 583, -1,
          587, 580, 576, -1,
          588, 577, 584, -1,
          588, 581, 577, -1,
          589, 578, 585, -1,
          589, 582, 578, -1,
          590, 583, 176, -1,
          590, 564, 563, -1,
          590, 176, 564, -1,
          591, 584, 580, -1,
          591, 580, 587, -1,
          592, 585, 581, -1,
          592, 581, 588, -1,
          593, 19, 12, -1,
          593, 12, 586, -1,
          593, 586, 582, -1,
          593, 582, 589, -1,
          594, 583, 590, -1,
          594, 587, 583, -1,
          595, 588, 584, -1,
          595, 584, 591, -1,
          596, 585, 592, -1,
          596, 589, 585, -1,
          597, 590, 563, -1,
          597, 561, 560, -1,
          597, 562, 561, -1,
          597, 563, 562, -1,
          598, 587, 594, -1,
          598, 591, 587, -1,
          599, 588, 595, -1,
          599, 592, 588, -1,
          600, 19, 593, -1,
          600, 22, 19, -1,
          600, 589, 596, -1,
          600, 593, 589, -1,
          601, 594, 590, -1,
          601, 590, 597, -1,
          602, 595, 591, -1,
          602, 591, 598, -1,
          603, 596, 592, -1,
          603, 592, 599, -1,
          604, 597, 560, -1,
          604, 558, 557, -1,
          604, 559, 558, -1,
          604, 560, 559, -1,
          605, 598, 594, -1,
          605, 594, 601, -1,
          606, 599, 595, -1,
          606, 595, 602, -1,
          607, 30, 29, -1,
          607, 29, 22, -1,
          607, 596, 603, -1,
          607, 22, 600, -1,
          607, 600, 596, -1,
          608, 601, 597, -1,
          608, 597, 604, -1,
          609, 602, 598, -1,
          609, 598, 605, -1,
          610, 603, 599, -1,
          610, 599, 606, -1,
          611, 556, 555, -1,
          611, 557, 556, -1,
          611, 604, 557, -1,
          612, 601, 608, -1,
          612, 605, 601, -1,
          613, 606, 602, -1,
          613, 602, 609, -1,
          614, 603, 610, -1,
          614, 38, 30, -1,
          614, 30, 607, -1,
          614, 607, 603, -1,
          615, 604, 611, -1,
          615, 608, 604, -1,
          616, 609, 605, -1,
          616, 605, 612, -1,
          617, 606, 613, -1,
          617, 610, 606, -1,
          618, 608, 615, -1,
          618, 612, 608, -1,
          619, 613, 609, -1,
          619, 609, 616, -1,
          620, 44, 43, -1,
          620, 38, 614, -1,
          620, 43, 38, -1,
          620, 614, 610, -1,
          620, 610, 617, -1,
          621, 615, 611, -1,
          621, 611, 555, -1,
          621, 554, 553, -1,
          621, 555, 554, -1,
          622, 616, 612, -1,
          622, 612, 618, -1,
          623, 613, 619, -1,
          623, 617, 613, -1,
          624, 615, 621, -1,
          624, 618, 615, -1,
          625, 616, 622, -1,
          625, 619, 616, -1,
          626, 53, 44, -1,
          626, 44, 620, -1,
          626, 620, 617, -1,
          626, 617, 623, -1,
          627, 621, 553, -1,
          627, 551, 550, -1,
          627, 552, 551, -1,
          627, 553, 552, -1,
          628, 622, 618, -1,
          628, 618, 624, -1,
          629, 619, 625, -1,
          629, 623, 619, -1,
          630, 624, 621, -1,
          630, 621, 627, -1,
          631, 622, 628, -1,
          631, 625, 622, -1,
          632, 63, 53, -1,
          632, 53, 626, -1,
          632, 626, 623, -1,
          632, 623, 629, -1,
          633, 628, 624, -1,
          633, 624, 630, -1,
          634, 629, 625, -1,
          634, 625, 631, -1,
          635, 630, 627, -1,
          635, 627, 550, -1,
          635, 548, 547, -1,
          635, 549, 548, -1,
          635, 550, 549, -1,
          636, 628, 633, -1,
          636, 631, 628, -1,
          637, 72, 63, -1,
          637, 73, 72, -1,
          637, 63, 632, -1,
          637, 632, 629, -1,
          637, 629, 634, -1,
          638, 630, 635, -1,
          638, 633, 630, -1,
          639, 631, 636, -1,
          639, 634, 631, -1,
          640, 636, 633, -1,
          640, 633, 638, -1,
          641, 80, 73, -1,
          641, 73, 637, -1,
          641, 637, 634, -1,
          641, 634, 639, -1,
          642, 635, 547, -1,
          642, 545, 544, -1,
          642, 546, 545, -1,
          642, 547, 546, -1,
          642, 638, 635, -1,
          643, 636, 640, -1,
          643, 639, 636, -1,
          644, 640, 638, -1,
          644, 638, 642, -1,
          645, 639, 643, -1,
          645, 90, 80, -1,
          645, 80, 641, -1,
          645, 641, 639, -1,
          646, 643, 640, -1,
          646, 640, 644, -1,
          647, 644, 642, -1,
          647, 642, 544, -1,
          647, 542, 541, -1,
          647, 543, 542, -1,
          647, 544, 543, -1,
          648, 101, 90, -1,
          648, 102, 101, -1,
          648, 90, 645, -1,
          648, 643, 646, -1,
          648, 645, 643, -1,
          649, 644, 647, -1,
          649, 646, 644, -1,
          650, 113, 102, -1,
          650, 646, 649, -1,
          650, 648, 646, -1,
          650, 102, 648, -1,
          651, 647, 541, -1,
          651, 649, 647, -1,
          651, 538, 537, -1,
          651, 539, 538, -1,
          651, 540, 539, -1,
          651, 541, 540, -1,
          652, 113, 650, -1,
          652, 123, 113, -1,
          652, 4, 123, -1,
          652, 650, 649, -1,
          652, 649, 651, -1,
          653, 4, 652, -1,
          653, 652, 651, -1,
          653, 535, 534, -1,
          653, 536, 535, -1,
          653, 534, 4, -1,
          653, 537, 536, -1,
          653, 651, 537, -1
        ]
      }
    }
}
