{"asset":{"version":"2.0","generator":"microscope_builder_4 scripts/catalog/dedupe-mounted-lens-housings.mjs"},"scene":0,"scenes":[{"nodes":[0]}],"nodes":[{"mesh":0}],"meshes":[{"primitives":[{"attributes":{"POSITION":1,"NORMAL":2},"indices":0,"mode":4},{"attributes":{"POSITION":4,"NORMAL":5},"indices":3,"mode":4},{"attributes":{"POSITION":7,"NORMAL":8},"indices":6,"mode":4}]}],"buffers":[{"uri":"../shared/lens-components/e9/e9d134c3b39c8819ce273ac4d9b4ec5254eb2499a3695b0e2ffe4d9332aef631.bin","byteLength":2928},{"uri":"lb1869-b-ml.bin","byteLength":146592}],"bufferViews":[{"buffer":0,"byteOffset":0,"byteLength":960,"target":34963},{"buffer":0,"byteOffset":960,"byteLength":984,"target":34962},{"buffer":0,"byteOffset":1944,"byteLength":984,"target":34962},{"buffer":1,"byteOffset":0,"byteLength":44928,"target":34963},{"buffer":1,"byteOffset":44928,"byteLength":44928,"target":34962},{"buffer":1,"byteOffset":89856,"byteLength":44928,"target":34962},{"buffer":1,"byteOffset":134784,"byteLength":3936,"target":34963},{"buffer":1,"byteOffset":138720,"byteLength":3936,"target":34962},{"buffer":1,"byteOffset":142656,"byteLength":3936,"target":34962}],"accessors":[{"bufferView":0,"componentType":5123,"count":480,"type":"SCALAR"},{"bufferView":1,"componentType":5126,"count":82,"type":"VEC3","min":[-2.0450000762939453,-12.699999809265137,-12.699999809265137],"max":[0.26499998569488525,12.699999809265137,12.699999809265137]},{"bufferView":2,"componentType":5126,"count":82,"type":"VEC3"},{"bufferView":3,"componentType":5123,"count":22464,"type":"SCALAR"},{"bufferView":4,"componentType":5126,"count":3744,"type":"VEC3","min":[-5.715000152587891,-15.239999771118164,-15.239999771118164],"max":[5.715000152587891,15.239999771118164,15.239999771118164]},{"bufferView":5,"componentType":5126,"count":3744,"type":"VEC3"},{"bufferView":6,"componentType":5123,"count":1968,"type":"SCALAR"},{"bufferView":7,"componentType":5126,"count":328,"type":"VEC3","min":[0.13199999928474426,-13.144000053405762,-13.144000053405762],"max":[2.1640000343322754,13.144000053405762,13.144000053405762]},{"bufferView":8,"componentType":5126,"count":328,"type":"VEC3"}]}
