{"asset":{"version":"2.0","generator":"microscope_builder_4 scripts/catalog/dedupe-mounted-lens-housings.mjs"},"scene":0,"scenes":[{"nodes":[0]}],"nodes":[{"mesh":0}],"meshes":[{"primitives":[{"attributes":{"POSITION":1,"NORMAL":2},"indices":0,"mode":4},{"attributes":{"POSITION":4,"NORMAL":5},"indices":3,"mode":4},{"attributes":{"POSITION":7,"NORMAL":8},"indices":6,"mode":4}]}],"buffers":[{"uri":"../shared/lens-components/78/78d90ac63e621975d70f7234ea9c4bd5f909db0e8b90f7be1c5652eb0f85ef24.bin","byteLength":3360},{"uri":"lb1904-b-ml.bin","byteLength":139788}],"bufferViews":[{"buffer":0,"byteOffset":0,"byteLength":1104,"target":34963},{"buffer":0,"byteOffset":1104,"byteLength":1128,"target":34962},{"buffer":0,"byteOffset":2232,"byteLength":1128,"target":34962},{"buffer":1,"byteOffset":0,"byteLength":42660,"target":34963},{"buffer":1,"byteOffset":42660,"byteLength":42660,"target":34962},{"buffer":1,"byteOffset":85320,"byteLength":42660,"target":34962},{"buffer":1,"byteOffset":127980,"byteLength":3936,"target":34963},{"buffer":1,"byteOffset":131916,"byteLength":3936,"target":34962},{"buffer":1,"byteOffset":135852,"byteLength":3936,"target":34962}],"accessors":[{"bufferView":0,"componentType":5123,"count":552,"type":"SCALAR"},{"bufferView":1,"componentType":5126,"count":94,"type":"VEC3","min":[-2.4679999351501465,-12.699999809265137,-12.699999809265137],"max":[0.7919999957084656,12.699999809265137,12.699999809265137]},{"bufferView":2,"componentType":5126,"count":94,"type":"VEC3"},{"bufferView":3,"componentType":5123,"count":21330,"type":"SCALAR"},{"bufferView":4,"componentType":5126,"count":3555,"type":"VEC3","min":[-5.715000152587891,-15.239999771118164,-15.239999771118164],"max":[5.715000152587891,15.239999771118164,15.239999771118164]},{"bufferView":5,"componentType":5126,"count":3555,"type":"VEC3"},{"bufferView":6,"componentType":5123,"count":1968,"type":"SCALAR"},{"bufferView":7,"componentType":5126,"count":328,"type":"VEC3","min":[0.25600001215934753,-13.144000053405762,-13.144000053405762],"max":[2.2880001068115234,13.144000053405762,13.144000053405762]},{"bufferView":8,"componentType":5126,"count":328,"type":"VEC3"}]}
