#VRML V2.0 utf8
WorldInfo {
  title "Exported triangle mesh to VRML97"
  info ["Created by FreeCAD"
        "<https://www.freecad.org>"]
}

Transform {
  scale 1 1 1
  rotation 0 0 1 0
  scaleOrientation 0 0 1 0
  center 0.000 0.000 0.000
  translation 0.000 0.000 0.000
  children
    Shape { 
      appearance
      Appearance {
        material
        Material {
          diffuseColor 0.8 0.8 0.8
        }
      }
      geometry
      IndexedFaceSet {
        coord
        Coordinate {
          point [
            0.000 8.470 -1.220,
            -0.623 12.685 -1.002,
            0.000 12.700 -1.002,
            -1.245 12.639 -1.002,
            -1.863 12.563 -1.002,
            -2.478 12.456 -1.002,
            -3.086 12.319 -1.002,
            -3.687 12.153 -1.002,
            -4.279 11.958 -1.002,
            -0.623 -12.685 -1.002,
            -0.000 -8.470 -1.220,
            -0.000 -12.700 -1.002,
            -1.245 -12.639 -1.002,
            -1.863 -12.563 -1.002,
            -2.478 -12.456 -1.002,
            -3.086 -12.319 -1.002,
            -3.687 -12.153 -1.002,
            -4.279 -11.958 -1.002,
            -6.353 8.466 -1.122,
            0.000 4.236 -1.351,
            -4.860 11.733 -1.002,
            -5.430 11.481 -1.002,
            -5.987 11.200 -1.002,
            -6.529 10.893 -1.002,
            -7.056 10.560 -1.002,
            -7.565 10.201 -1.002,
            -8.057 9.817 -1.002,
            -8.529 9.410 -1.002,
            -8.980 8.980 -1.002,
            -9.410 8.529 -1.002,
            -9.817 8.057 -1.002,
            -10.201 7.565 -1.002,
            -10.560 7.056 -1.002,
            -10.893 6.529 -1.002,
            -6.353 0.000 -1.297,
            0.000 -0.000 -1.395,
            -0.000 -4.236 -1.351,
            -12.685 -0.623 -1.002,
            -12.700 -0.000 -1.002,
            -12.639 -1.245 -1.002,
            -12.563 -1.863 -1.002,
            -12.456 -2.478 -1.002,
            -12.319 -3.086 -1.002,
            -12.153 -3.687 -1.002,
            -11.958 -4.279 -1.002,
            -11.733 -4.860 -1.002,
            -11.481 -5.430 -1.002,
            -11.200 -5.987 -1.002,
            -10.893 -6.529 -1.002,
            -11.200 5.987 -1.002,
            -11.481 5.430 -1.002,
            -11.733 4.860 -1.002,
            -11.958 4.279 -1.002,
            -12.153 3.687 -1.002,
            -12.319 3.086 -1.002,
            -12.456 2.478 -1.002,
            -12.563 1.863 -1.002,
            -12.639 1.245 -1.002,
            -12.685 0.623 -1.002,
            -6.353 -8.466 -1.122,
            -10.560 -7.056 -1.002,
            -10.201 -7.565 -1.002,
            -9.817 -8.057 -1.002,
            -9.410 -8.529 -1.002,
            -8.980 -8.980 -1.002,
            -8.529 -9.410 -1.002,
            -8.057 -9.817 -1.002,
            -7.565 -10.201 -1.002,
            -7.056 -10.560 -1.002,
            -6.529 -10.893 -1.002,
            -5.987 -11.200 -1.002,
            -5.430 -11.481 -1.002,
            -4.860 -11.733 -1.002,
            12.685 0.623 1.002,
            12.700 -0.000 -1.002,
            12.685 0.623 -1.002,
            12.700 -0.000 1.002,
            12.639 1.245 1.002,
            12.639 1.245 -1.002,
            12.563 1.863 1.002,
            12.563 1.863 -1.002,
            12.456 2.478 1.002,
            12.456 2.478 -1.002,
            12.319 3.086 1.002,
            12.319 3.086 -1.002,
            12.153 3.687 1.002,
            12.153 3.687 -1.002,
            11.958 4.279 1.002,
            11.958 4.279 -1.002,
            11.733 4.860 1.002,
            11.733 4.860 -1.002,
            11.481 5.430 1.002,
            11.481 5.430 -1.002,
            11.200 5.987 -1.002,
            11.200 5.987 1.002,
            10.893 6.529 -1.002,
            10.893 6.529 1.002,
            10.560 7.056 1.002,
            10.560 7.056 -1.002,
            10.201 7.565 1.002,
            10.201 7.565 -1.002,
            9.817 8.057 -1.002,
            9.817 8.057 1.002,
            9.410 8.529 1.002,
            9.410 8.529 -1.002,
            8.980 8.980 1.002,
            8.980 8.980 -1.002,
            8.529 9.410 1.002,
            8.529 9.410 -1.002,
            8.057 9.817 -1.002,
            8.057 9.817 1.002,
            7.565 10.201 1.002,
            7.565 10.201 -1.002,
            7.056 10.560 1.002,
            7.056 10.560 -1.002,
            6.529 10.893 1.002,
            6.529 10.893 -1.002,
            5.987 11.200 -1.002,
            5.987 11.200 1.002,
            5.430 11.481 1.002,
            5.430 11.481 -1.002,
            4.860 11.733 -1.002,
            4.860 11.733 1.002,
            4.279 11.958 1.002,
            4.279 11.958 -1.002,
            3.687 12.153 1.002,
            3.687 12.153 -1.002,
            3.086 12.319 -1.002,
            3.086 12.319 1.002,
            2.478 12.456 1.002,
            2.478 12.456 -1.002,
            1.863 12.563 1.002,
            1.863 12.563 -1.002,
            1.245 12.639 1.002,
            1.245 12.639 -1.002,
            0.623 12.685 1.002,
            0.623 12.685 -1.002,
            0.000 12.700 1.002,
            -0.623 12.685 1.002,
            -1.245 12.639 1.002,
            -1.863 12.563 1.002,
            -2.478 12.456 1.002,
            -3.086 12.319 1.002,
            -3.687 12.153 1.002,
            -4.279 11.958 1.002,
            -4.860 11.733 1.002,
            -5.430 11.481 1.002,
            -5.987 11.200 1.002,
            -6.529 10.893 1.002,
            -7.056 10.560 1.002,
            -7.565 10.201 1.002,
            -8.057 9.817 1.002,
            -8.529 9.410 1.002,
            -8.980 8.980 1.002,
            -9.410 8.529 1.002,
            -9.817 8.057 1.002,
            -10.201 7.565 1.002,
            -10.560 7.056 1.002,
            -10.893 6.529 1.002,
            -11.200 5.987 1.002,
            -11.481 5.430 1.002,
            -11.733 4.860 1.002,
            -11.958 4.279 1.002,
            -12.153 3.687 1.002,
            -12.319 3.086 1.002,
            -12.456 2.478 1.002,
            -12.563 1.863 1.002,
            -12.639 1.245 1.002,
            -12.685 0.623 1.002,
            -12.700 -0.000 1.002,
            -0.000 -8.470 1.220,
            -3.687 -12.153 1.002,
            -3.086 -12.319 1.002,
            -2.478 -12.456 1.002,
            -1.863 -12.563 1.002,
            -1.245 -12.639 1.002,
            -0.623 -12.685 1.002,
            -0.000 -12.700 1.002,
            -4.279 -11.958 1.002,
            0.000 8.470 1.220,
            -6.353 -8.466 1.122,
            -10.893 -6.529 1.002,
            -10.560 -7.056 1.002,
            -10.201 -7.565 1.002,
            -9.817 -8.057 1.002,
            -9.410 -8.529 1.002,
            -8.980 -8.980 1.002,
            -8.529 -9.410 1.002,
            -8.057 -9.817 1.002,
            -7.565 -10.201 1.002,
            -7.056 -10.560 1.002,
            -6.529 -10.893 1.002,
            -5.987 -11.200 1.002,
            -5.430 -11.481 1.002,
            -4.860 -11.733 1.002,
            -0.000 -4.236 1.351,
            -6.353 -0.000 1.297,
            -12.685 -0.623 1.002,
            -12.639 -1.245 1.002,
            -12.563 -1.863 1.002,
            -12.456 -2.478 1.002,
            -12.319 -3.086 1.002,
            -12.153 -3.687 1.002,
            -11.958 -4.279 1.002,
            -11.733 -4.860 1.002,
            -11.481 -5.430 1.002,
            -11.200 -5.987 1.002,
            0.000 0.000 1.395,
            0.000 4.236 1.351,
            -6.353 8.466 1.122,
            0.623 -12.685 1.002,
            1.245 -12.639 1.002,
            1.863 -12.563 1.002,
            2.478 -12.456 1.002,
            3.086 -12.319 1.002,
            3.687 -12.153 1.002,
            4.279 -11.958 1.002,
            6.353 -8.466 1.122,
            4.860 -11.733 1.002,
            5.430 -11.481 1.002,
            5.987 -11.200 1.002,
            6.529 -10.893 1.002,
            7.056 -10.560 1.002,
            7.565 -10.201 1.002,
            8.057 -9.817 1.002,
            8.529 -9.410 1.002,
            8.980 -8.980 1.002,
            9.410 -8.529 1.002,
            9.817 -8.057 1.002,
            10.201 -7.565 1.002,
            10.560 -7.056 1.002,
            10.893 -6.529 1.002,
            6.353 -0.000 1.297,
            11.200 -5.987 1.002,
            11.481 -5.430 1.002,
            11.733 -4.860 1.002,
            11.958 -4.279 1.002,
            12.153 -3.687 1.002,
            12.319 -3.086 1.002,
            12.456 -2.478 1.002,
            12.563 -1.863 1.002,
            12.639 -1.245 1.002,
            12.685 -0.623 1.002,
            6.353 8.466 1.122,
            0.623 -12.685 -1.002,
            1.245 -12.639 -1.002,
            1.863 -12.563 -1.002,
            2.478 -12.456 -1.002,
            3.086 -12.319 -1.002,
            3.687 -12.153 -1.002,
            4.279 -11.958 -1.002,
            4.860 -11.733 -1.002,
            5.430 -11.481 -1.002,
            5.987 -11.200 -1.002,
            6.529 -10.893 -1.002,
            7.056 -10.560 -1.002,
            7.565 -10.201 -1.002,
            8.057 -9.817 -1.002,
            8.529 -9.410 -1.002,
            8.980 -8.980 -1.002,
            9.410 -8.529 -1.002,
            9.817 -8.057 -1.002,
            10.201 -7.565 -1.002,
            10.560 -7.056 -1.002,
            10.893 -6.529 -1.002,
            11.200 -5.987 -1.002,
            11.481 -5.430 -1.002,
            11.733 -4.860 -1.002,
            11.958 -4.279 -1.002,
            12.153 -3.687 -1.002,
            12.319 -3.086 -1.002,
            12.456 -2.478 -1.002,
            12.563 -1.863 -1.002,
            12.639 -1.245 -1.002,
            12.685 -0.623 -1.002,
            6.353 8.466 -1.122,
            6.353 0.000 -1.297,
            6.353 -8.466 -1.122
          ]
        }
        coordIndex [
          0, 1, 2, -1,
          0, 3, 1, -1,
          0, 4, 3, -1,
          0, 5, 4, -1,
          0, 6, 5, -1,
          0, 7, 6, -1,
          8, 7, 0, -1,
          9, 10, 11, -1,
          12, 10, 9, -1,
          13, 10, 12, -1,
          14, 10, 13, -1,
          15, 10, 14, -1,
          16, 10, 15, -1,
          17, 10, 16, -1,
          18, 0, 19, -1,
          18, 20, 8, -1,
          18, 21, 20, -1,
          18, 22, 21, -1,
          18, 23, 22, -1,
          18, 24, 23, -1,
          18, 25, 24, -1,
          18, 26, 25, -1,
          18, 27, 26, -1,
          18, 28, 27, -1,
          18, 29, 28, -1,
          18, 30, 29, -1,
          18, 31, 30, -1,
          18, 32, 31, -1,
          18, 33, 32, -1,
          18, 8, 0, -1,
          34, 19, 35, -1,
          34, 35, 36, -1,
          34, 33, 18, -1,
          34, 37, 38, -1,
          34, 39, 37, -1,
          34, 40, 39, -1,
          34, 41, 40, -1,
          34, 42, 41, -1,
          34, 43, 42, -1,
          34, 44, 43, -1,
          34, 45, 44, -1,
          34, 46, 45, -1,
          34, 47, 46, -1,
          34, 48, 47, -1,
          34, 49, 33, -1,
          34, 50, 49, -1,
          34, 51, 50, -1,
          34, 52, 51, -1,
          34, 53, 52, -1,
          34, 54, 53, -1,
          34, 55, 54, -1,
          34, 56, 55, -1,
          34, 57, 56, -1,
          34, 58, 57, -1,
          34, 38, 58, -1,
          34, 18, 19, -1,
          59, 36, 10, -1,
          59, 60, 48, -1,
          59, 61, 60, -1,
          59, 62, 61, -1,
          59, 63, 62, -1,
          59, 64, 63, -1,
          59, 65, 64, -1,
          59, 66, 65, -1,
          59, 67, 66, -1,
          59, 68, 67, -1,
          59, 69, 68, -1,
          59, 70, 69, -1,
          59, 71, 70, -1,
          59, 72, 71, -1,
          59, 17, 72, -1,
          59, 10, 17, -1,
          59, 48, 34, -1,
          59, 34, 36, -1,
          73, 74, 75, -1,
          73, 76, 74, -1,
          77, 75, 78, -1,
          77, 73, 75, -1,
          79, 78, 80, -1,
          79, 77, 78, -1,
          81, 80, 82, -1,
          81, 79, 80, -1,
          83, 82, 84, -1,
          83, 81, 82, -1,
          85, 84, 86, -1,
          85, 83, 84, -1,
          87, 86, 88, -1,
          87, 85, 86, -1,
          89, 88, 90, -1,
          89, 87, 88, -1,
          91, 90, 92, -1,
          91, 92, 93, -1,
          91, 89, 90, -1,
          94, 93, 95, -1,
          94, 91, 93, -1,
          96, 94, 95, -1,
          97, 95, 98, -1,
          97, 96, 95, -1,
          99, 98, 100, -1,
          99, 100, 101, -1,
          99, 97, 98, -1,
          102, 99, 101, -1,
          103, 101, 104, -1,
          103, 102, 101, -1,
          105, 104, 106, -1,
          105, 103, 104, -1,
          107, 106, 108, -1,
          107, 108, 109, -1,
          107, 105, 106, -1,
          110, 107, 109, -1,
          111, 110, 109, -1,
          111, 109, 112, -1,
          113, 111, 112, -1,
          113, 112, 114, -1,
          115, 113, 114, -1,
          115, 114, 116, -1,
          115, 116, 117, -1,
          118, 115, 117, -1,
          119, 117, 120, -1,
          119, 120, 121, -1,
          119, 118, 117, -1,
          122, 119, 121, -1,
          123, 121, 124, -1,
          123, 122, 121, -1,
          125, 124, 126, -1,
          125, 126, 127, -1,
          125, 123, 124, -1,
          128, 125, 127, -1,
          129, 127, 130, -1,
          129, 128, 127, -1,
          131, 130, 132, -1,
          131, 129, 130, -1,
          133, 132, 134, -1,
          133, 131, 132, -1,
          135, 134, 136, -1,
          135, 133, 134, -1,
          137, 136, 2, -1,
          137, 2, 1, -1,
          137, 135, 136, -1,
          138, 137, 1, -1,
          139, 1, 3, -1,
          139, 138, 1, -1,
          140, 3, 4, -1,
          140, 139, 3, -1,
          141, 4, 5, -1,
          141, 140, 4, -1,
          142, 5, 6, -1,
          142, 141, 5, -1,
          143, 6, 7, -1,
          143, 142, 6, -1,
          144, 7, 8, -1,
          144, 143, 7, -1,
          145, 8, 20, -1,
          145, 144, 8, -1,
          146, 20, 21, -1,
          146, 145, 20, -1,
          147, 146, 21, -1,
          147, 21, 22, -1,
          148, 147, 22, -1,
          148, 22, 23, -1,
          149, 148, 23, -1,
          149, 23, 24, -1,
          150, 149, 24, -1,
          150, 24, 25, -1,
          151, 150, 25, -1,
          151, 25, 26, -1,
          152, 151, 26, -1,
          152, 26, 27, -1,
          153, 152, 27, -1,
          153, 27, 28, -1,
          154, 153, 28, -1,
          154, 28, 29, -1,
          155, 154, 29, -1,
          155, 29, 30, -1,
          156, 155, 30, -1,
          156, 30, 31, -1,
          157, 156, 31, -1,
          157, 31, 32, -1,
          158, 157, 32, -1,
          158, 32, 33, -1,
          159, 158, 33, -1,
          159, 33, 49, -1,
          160, 159, 49, -1,
          160, 49, 50, -1,
          161, 50, 51, -1,
          161, 160, 50, -1,
          162, 51, 52, -1,
          162, 161, 51, -1,
          163, 52, 53, -1,
          163, 162, 52, -1,
          164, 53, 54, -1,
          164, 163, 53, -1,
          165, 54, 55, -1,
          165, 164, 54, -1,
          166, 55, 56, -1,
          166, 165, 55, -1,
          167, 56, 57, -1,
          167, 166, 56, -1,
          168, 57, 58, -1,
          168, 58, 38, -1,
          168, 167, 57, -1,
          169, 168, 38, -1,
          170, 171, 172, -1,
          170, 172, 173, -1,
          170, 173, 174, -1,
          170, 174, 175, -1,
          170, 175, 176, -1,
          170, 176, 177, -1,
          178, 171, 170, -1,
          138, 179, 137, -1,
          139, 179, 138, -1,
          140, 179, 139, -1,
          141, 179, 140, -1,
          142, 179, 141, -1,
          143, 179, 142, -1,
          144, 179, 143, -1,
          180, 181, 182, -1,
          180, 182, 183, -1,
          180, 183, 184, -1,
          180, 184, 185, -1,
          180, 185, 186, -1,
          180, 186, 187, -1,
          180, 187, 188, -1,
          180, 188, 189, -1,
          180, 189, 190, -1,
          180, 190, 191, -1,
          180, 191, 192, -1,
          180, 192, 193, -1,
          180, 193, 194, -1,
          180, 194, 178, -1,
          180, 170, 195, -1,
          180, 178, 170, -1,
          196, 158, 159, -1,
          196, 159, 160, -1,
          196, 160, 161, -1,
          196, 161, 162, -1,
          196, 162, 163, -1,
          196, 163, 164, -1,
          196, 164, 165, -1,
          196, 165, 166, -1,
          196, 166, 167, -1,
          196, 167, 168, -1,
          196, 168, 169, -1,
          196, 169, 197, -1,
          196, 197, 198, -1,
          196, 198, 199, -1,
          196, 199, 200, -1,
          196, 200, 201, -1,
          196, 201, 202, -1,
          196, 202, 203, -1,
          196, 203, 204, -1,
          196, 204, 205, -1,
          196, 205, 206, -1,
          196, 206, 181, -1,
          196, 180, 195, -1,
          196, 181, 180, -1,
          196, 195, 207, -1,
          196, 207, 208, -1,
          209, 144, 145, -1,
          209, 145, 146, -1,
          209, 146, 147, -1,
          209, 147, 148, -1,
          209, 148, 149, -1,
          209, 149, 150, -1,
          209, 150, 151, -1,
          209, 151, 152, -1,
          209, 152, 153, -1,
          209, 153, 154, -1,
          209, 154, 155, -1,
          209, 155, 156, -1,
          209, 156, 157, -1,
          209, 157, 158, -1,
          209, 158, 196, -1,
          209, 208, 179, -1,
          209, 179, 144, -1,
          209, 196, 208, -1,
          170, 177, 210, -1,
          170, 210, 211, -1,
          170, 211, 212, -1,
          170, 212, 213, -1,
          170, 213, 214, -1,
          170, 214, 215, -1,
          170, 215, 216, -1,
          125, 179, 123, -1,
          128, 179, 125, -1,
          129, 179, 128, -1,
          131, 179, 129, -1,
          133, 179, 131, -1,
          135, 179, 133, -1,
          137, 179, 135, -1,
          217, 195, 170, -1,
          217, 216, 218, -1,
          217, 218, 219, -1,
          217, 219, 220, -1,
          217, 220, 221, -1,
          217, 221, 222, -1,
          217, 222, 223, -1,
          217, 223, 224, -1,
          217, 224, 225, -1,
          217, 225, 226, -1,
          217, 226, 227, -1,
          217, 227, 228, -1,
          217, 228, 229, -1,
          217, 229, 230, -1,
          217, 230, 231, -1,
          217, 170, 216, -1,
          232, 207, 195, -1,
          232, 231, 233, -1,
          232, 233, 234, -1,
          232, 234, 235, -1,
          232, 235, 236, -1,
          232, 236, 237, -1,
          232, 237, 238, -1,
          232, 238, 239, -1,
          232, 239, 240, -1,
          232, 240, 241, -1,
          232, 241, 242, -1,
          232, 242, 76, -1,
          232, 76, 73, -1,
          232, 73, 77, -1,
          232, 77, 79, -1,
          232, 79, 81, -1,
          232, 81, 83, -1,
          232, 83, 85, -1,
          232, 85, 87, -1,
          232, 87, 89, -1,
          232, 89, 91, -1,
          232, 91, 94, -1,
          232, 94, 96, -1,
          232, 208, 207, -1,
          232, 217, 231, -1,
          232, 195, 217, -1,
          243, 96, 97, -1,
          243, 97, 99, -1,
          243, 99, 102, -1,
          243, 102, 103, -1,
          243, 103, 105, -1,
          243, 105, 107, -1,
          243, 107, 110, -1,
          243, 110, 111, -1,
          243, 111, 113, -1,
          243, 113, 115, -1,
          243, 115, 118, -1,
          243, 118, 119, -1,
          243, 119, 122, -1,
          243, 122, 123, -1,
          243, 232, 96, -1,
          243, 179, 208, -1,
          243, 208, 232, -1,
          243, 123, 179, -1,
          197, 169, 38, -1,
          197, 38, 37, -1,
          198, 37, 39, -1,
          198, 197, 37, -1,
          199, 39, 40, -1,
          199, 198, 39, -1,
          200, 40, 41, -1,
          200, 199, 40, -1,
          201, 41, 42, -1,
          201, 200, 41, -1,
          202, 42, 43, -1,
          202, 201, 42, -1,
          203, 43, 44, -1,
          203, 202, 43, -1,
          204, 44, 45, -1,
          204, 203, 44, -1,
          205, 45, 46, -1,
          205, 46, 47, -1,
          205, 204, 45, -1,
          206, 47, 48, -1,
          206, 205, 47, -1,
          181, 206, 48, -1,
          182, 48, 60, -1,
          182, 181, 48, -1,
          183, 60, 61, -1,
          183, 182, 60, -1,
          184, 61, 62, -1,
          184, 183, 61, -1,
          185, 62, 63, -1,
          185, 184, 62, -1,
          186, 63, 64, -1,
          186, 185, 63, -1,
          187, 64, 65, -1,
          187, 186, 64, -1,
          188, 187, 65, -1,
          188, 65, 66, -1,
          188, 66, 67, -1,
          189, 188, 67, -1,
          190, 189, 67, -1,
          190, 67, 68, -1,
          191, 190, 68, -1,
          191, 68, 69, -1,
          191, 69, 70, -1,
          192, 191, 70, -1,
          193, 70, 71, -1,
          193, 71, 72, -1,
          193, 192, 70, -1,
          194, 193, 72, -1,
          178, 72, 17, -1,
          178, 17, 16, -1,
          178, 194, 72, -1,
          171, 16, 15, -1,
          171, 178, 16, -1,
          172, 171, 15, -1,
          173, 15, 14, -1,
          173, 14, 13, -1,
          173, 172, 15, -1,
          174, 173, 13, -1,
          175, 13, 12, -1,
          175, 12, 9, -1,
          175, 174, 13, -1,
          176, 175, 9, -1,
          177, 9, 11, -1,
          177, 11, 244, -1,
          177, 176, 9, -1,
          210, 177, 244, -1,
          211, 244, 245, -1,
          211, 210, 244, -1,
          212, 245, 246, -1,
          212, 211, 245, -1,
          213, 246, 247, -1,
          213, 212, 246, -1,
          214, 247, 248, -1,
          214, 213, 247, -1,
          215, 248, 249, -1,
          215, 214, 248, -1,
          216, 249, 250, -1,
          216, 215, 249, -1,
          218, 250, 251, -1,
          218, 216, 250, -1,
          219, 251, 252, -1,
          219, 218, 251, -1,
          220, 219, 252, -1,
          220, 252, 253, -1,
          221, 220, 253, -1,
          221, 253, 254, -1,
          222, 221, 254, -1,
          222, 254, 255, -1,
          223, 222, 255, -1,
          223, 255, 256, -1,
          224, 223, 256, -1,
          224, 256, 257, -1,
          225, 224, 257, -1,
          225, 257, 258, -1,
          226, 225, 258, -1,
          226, 258, 259, -1,
          227, 226, 259, -1,
          227, 259, 260, -1,
          228, 227, 260, -1,
          228, 260, 261, -1,
          229, 228, 261, -1,
          229, 261, 262, -1,
          230, 229, 262, -1,
          230, 262, 263, -1,
          231, 230, 263, -1,
          231, 263, 264, -1,
          233, 231, 264, -1,
          233, 264, 265, -1,
          234, 233, 265, -1,
          234, 265, 266, -1,
          235, 266, 267, -1,
          235, 234, 266, -1,
          236, 267, 268, -1,
          236, 235, 267, -1,
          237, 268, 269, -1,
          237, 236, 268, -1,
          238, 269, 270, -1,
          238, 237, 269, -1,
          239, 270, 271, -1,
          239, 238, 270, -1,
          240, 271, 272, -1,
          240, 239, 271, -1,
          241, 272, 273, -1,
          241, 240, 272, -1,
          242, 273, 274, -1,
          242, 241, 273, -1,
          76, 274, 74, -1,
          76, 242, 274, -1,
          0, 126, 124, -1,
          0, 127, 126, -1,
          0, 130, 127, -1,
          0, 132, 130, -1,
          0, 134, 132, -1,
          0, 136, 134, -1,
          0, 2, 136, -1,
          249, 10, 250, -1,
          248, 10, 249, -1,
          247, 10, 248, -1,
          246, 10, 247, -1,
          245, 10, 246, -1,
          244, 10, 245, -1,
          11, 10, 244, -1,
          275, 0, 124, -1,
          275, 19, 0, -1,
          275, 98, 95, -1,
          275, 100, 98, -1,
          275, 101, 100, -1,
          275, 104, 101, -1,
          275, 106, 104, -1,
          275, 108, 106, -1,
          275, 109, 108, -1,
          275, 112, 109, -1,
          275, 114, 112, -1,
          275, 116, 114, -1,
          275, 117, 116, -1,
          275, 120, 117, -1,
          275, 121, 120, -1,
          275, 124, 121, -1,
          276, 36, 35, -1,
          276, 35, 19, -1,
          276, 75, 74, -1,
          276, 78, 75, -1,
          276, 80, 78, -1,
          276, 82, 80, -1,
          276, 84, 82, -1,
          276, 86, 84, -1,
          276, 88, 86, -1,
          276, 90, 88, -1,
          276, 92, 90, -1,
          276, 93, 92, -1,
          276, 95, 93, -1,
          276, 275, 95, -1,
          276, 19, 275, -1,
          276, 265, 264, -1,
          276, 266, 265, -1,
          276, 267, 266, -1,
          276, 268, 267, -1,
          276, 269, 268, -1,
          276, 270, 269, -1,
          276, 271, 270, -1,
          276, 272, 271, -1,
          276, 273, 272, -1,
          276, 274, 273, -1,
          276, 74, 274, -1,
          277, 10, 36, -1,
          277, 251, 250, -1,
          277, 252, 251, -1,
          277, 253, 252, -1,
          277, 254, 253, -1,
          277, 255, 254, -1,
          277, 256, 255, -1,
          277, 257, 256, -1,
          277, 258, 257, -1,
          277, 259, 258, -1,
          277, 260, 259, -1,
          277, 261, 260, -1,
          277, 262, 261, -1,
          277, 263, 262, -1,
          277, 264, 263, -1,
          277, 36, 276, -1,
          277, 276, 264, -1,
          277, 250, 10, -1
        ]
      }
    }
}
