#VRML V2.0 utf8
WorldInfo {
  title "Exported triangle mesh to VRML97"
  info ["Created by FreeCAD"
        "<https://www.freecad.org>"]
}

Transform {
  scale 1 1 1
  rotation 0 0 1 0
  scaleOrientation 0 0 1 0
  center 0.000 0.000 0.000
  translation 0.000 0.000 0.000
  children
    Shape { 
      appearance
      Appearance {
        material
        Material {
          diffuseColor 0.8 0.8 0.8
        }
      }
      geometry
      IndexedFaceSet {
        coord
        Coordinate {
          point [
            -0.000 -9.544 1.463,
            -2.478 -12.456 0.999,
            -1.863 -12.563 0.999,
            -1.245 -12.639 0.999,
            -0.623 -12.685 0.999,
            -0.000 -12.700 0.999,
            -0.623 12.685 0.999,
            0.000 9.544 1.463,
            0.000 12.700 0.999,
            -1.245 12.639 0.999,
            -1.863 12.563 0.999,
            -2.478 12.456 0.999,
            -4.251 -10.161 1.263,
            -7.565 -10.201 0.999,
            -7.056 -10.560 0.999,
            -6.529 -10.893 0.999,
            -5.987 -11.200 0.999,
            -5.430 -11.481 0.999,
            -4.860 -11.733 0.999,
            -4.279 -11.958 0.999,
            -3.687 -12.153 0.999,
            -3.086 -12.319 0.999,
            -0.000 -6.372 1.794,
            -4.251 -5.092 1.772,
            -0.000 -3.189 1.994,
            -8.489 -7.596 1.208,
            -10.893 -6.529 0.999,
            -10.560 -7.056 0.999,
            -10.201 -7.565 0.999,
            -9.817 -8.057 0.999,
            -9.410 -8.529 0.999,
            -8.980 -8.980 0.999,
            -8.529 -9.410 0.999,
            -8.057 -9.817 0.999,
            -4.251 -0.000 1.942,
            0.000 0.000 2.060,
            0.000 3.189 1.994,
            -8.489 -2.536 1.546,
            -12.700 -0.000 0.999,
            -12.685 -0.623 0.999,
            -12.639 -1.245 0.999,
            -12.563 -1.863 0.999,
            -12.456 -2.478 0.999,
            -12.319 -3.086 0.999,
            -12.153 -3.687 0.999,
            -11.958 -4.279 0.999,
            -11.733 -4.860 0.999,
            -11.481 -5.430 0.999,
            -11.200 -5.987 0.999,
            -4.251 5.092 1.772,
            0.000 6.372 1.794,
            -8.489 2.536 1.546,
            -10.893 6.529 0.999,
            -11.200 5.987 0.999,
            -11.481 5.430 0.999,
            -11.733 4.860 0.999,
            -11.958 4.279 0.999,
            -12.153 3.687 0.999,
            -12.319 3.086 0.999,
            -12.456 2.478 0.999,
            -12.563 1.863 0.999,
            -12.639 1.245 0.999,
            -12.685 0.623 0.999,
            -4.251 10.161 1.263,
            -3.086 12.319 0.999,
            -3.687 12.153 0.999,
            -4.279 11.958 0.999,
            -4.860 11.733 0.999,
            -5.430 11.481 0.999,
            -5.987 11.200 0.999,
            -6.529 10.893 0.999,
            -7.056 10.560 0.999,
            -7.565 10.201 0.999,
            -8.489 7.596 1.208,
            -8.057 9.817 0.999,
            -8.529 9.410 0.999,
            -8.980 8.980 0.999,
            -9.410 8.529 0.999,
            -9.817 8.057 0.999,
            -10.201 7.565 0.999,
            -10.560 7.056 0.999,
            12.685 0.623 0.999,
            12.700 -0.000 0.999,
            12.700 -0.000 -0.999,
            12.685 0.623 -0.999,
            12.639 1.245 0.999,
            12.639 1.245 -0.999,
            12.563 1.863 0.999,
            12.563 1.863 -0.999,
            12.456 2.478 0.999,
            12.456 2.478 -0.999,
            12.319 3.086 0.999,
            12.319 3.086 -0.999,
            12.153 3.687 0.999,
            12.153 3.687 -0.999,
            11.958 4.279 0.999,
            11.958 4.279 -0.999,
            11.733 4.860 -0.999,
            11.733 4.860 0.999,
            11.481 5.430 0.999,
            11.481 5.430 -0.999,
            11.200 5.987 -0.999,
            11.200 5.987 0.999,
            10.893 6.529 -0.999,
            10.893 6.529 0.999,
            10.560 7.056 0.999,
            10.560 7.056 -0.999,
            10.201 7.565 0.999,
            10.201 7.565 -0.999,
            9.817 8.057 0.999,
            9.817 8.057 -0.999,
            9.410 8.529 0.999,
            9.410 8.529 -0.999,
            8.980 8.980 -0.999,
            8.980 8.980 0.999,
            8.529 9.410 0.999,
            8.529 9.410 -0.999,
            8.057 9.817 0.999,
            8.057 9.817 -0.999,
            7.565 10.201 0.999,
            7.565 10.201 -0.999,
            7.056 10.560 0.999,
            7.056 10.560 -0.999,
            6.529 10.893 0.999,
            6.529 10.893 -0.999,
            5.987 11.200 0.999,
            5.987 11.200 -0.999,
            5.430 11.481 0.999,
            5.430 11.481 -0.999,
            4.860 11.733 -0.999,
            4.860 11.733 0.999,
            4.279 11.958 0.999,
            4.279 11.958 -0.999,
            3.687 12.153 0.999,
            3.687 12.153 -0.999,
            3.086 12.319 -0.999,
            3.086 12.319 0.999,
            2.478 12.456 0.999,
            2.478 12.456 -0.999,
            1.863 12.563 0.999,
            1.863 12.563 -0.999,
            1.245 12.639 -0.999,
            1.245 12.639 0.999,
            0.623 12.685 -0.999,
            0.623 12.685 0.999,
            0.000 12.700 -0.999,
            -0.623 12.685 -0.999,
            -1.245 12.639 -0.999,
            -1.863 12.563 -0.999,
            -2.478 12.456 -0.999,
            -3.086 12.319 -0.999,
            -3.687 12.153 -0.999,
            -4.279 11.958 -0.999,
            -4.860 11.733 -0.999,
            -5.430 11.481 -0.999,
            -5.987 11.200 -0.999,
            -6.529 10.893 -0.999,
            -7.056 10.560 -0.999,
            -7.565 10.201 -0.999,
            -8.057 9.817 -0.999,
            -8.529 9.410 -0.999,
            -8.980 8.980 -0.999,
            -9.410 8.529 -0.999,
            -9.817 8.057 -0.999,
            -10.201 7.565 -0.999,
            -10.560 7.056 -0.999,
            -10.893 6.529 -0.999,
            -11.200 5.987 -0.999,
            -11.481 5.430 -0.999,
            -11.733 4.860 -0.999,
            -11.958 4.279 -0.999,
            -12.153 3.687 -0.999,
            -12.319 3.086 -0.999,
            -12.456 2.478 -0.999,
            -12.563 1.863 -0.999,
            -12.639 1.245 -0.999,
            -12.685 0.623 -0.999,
            -12.700 -0.000 -0.999,
            0.000 9.544 -1.463,
            -0.623 -12.685 -0.999,
            -0.000 -9.544 -1.463,
            -0.000 -12.700 -0.999,
            -1.245 -12.639 -0.999,
            -1.863 -12.563 -0.999,
            -2.478 -12.456 -0.999,
            -4.251 10.161 -1.263,
            0.000 6.372 -1.794,
            -4.251 5.092 -1.772,
            0.000 3.189 -1.994,
            -8.489 7.596 -1.208,
            -4.251 -0.000 -1.942,
            0.000 -0.000 -2.060,
            -0.000 -3.189 -1.994,
            -8.489 2.536 -1.546,
            -4.251 -5.092 -1.772,
            -0.000 -6.372 -1.794,
            -8.489 -2.536 -1.546,
            -12.685 -0.623 -0.999,
            -12.639 -1.245 -0.999,
            -12.563 -1.863 -0.999,
            -12.456 -2.478 -0.999,
            -12.319 -3.086 -0.999,
            -12.153 -3.687 -0.999,
            -11.958 -4.279 -0.999,
            -11.733 -4.860 -0.999,
            -11.481 -5.430 -0.999,
            -11.200 -5.987 -0.999,
            -10.893 -6.529 -0.999,
            -4.251 -10.161 -1.263,
            -7.056 -10.560 -0.999,
            -7.565 -10.201 -0.999,
            -6.529 -10.893 -0.999,
            -5.987 -11.200 -0.999,
            -5.430 -11.481 -0.999,
            -4.860 -11.733 -0.999,
            -4.279 -11.958 -0.999,
            -3.687 -12.153 -0.999,
            -3.086 -12.319 -0.999,
            -8.489 -7.596 -1.208,
            -10.560 -7.056 -0.999,
            -10.201 -7.565 -0.999,
            -9.817 -8.057 -0.999,
            -9.410 -8.529 -0.999,
            -8.980 -8.980 -0.999,
            -8.529 -9.410 -0.999,
            -8.057 -9.817 -0.999,
            2.478 -12.456 -0.999,
            3.086 -12.319 -0.999,
            1.863 -12.563 -0.999,
            1.245 -12.639 -0.999,
            0.623 -12.685 -0.999,
            8.489 5.068 -1.419,
            4.251 7.631 -1.560,
            8.489 -0.000 -1.588,
            12.456 -2.478 -0.999,
            12.319 -3.086 -0.999,
            12.563 -1.863 -0.999,
            12.639 -1.245 -0.999,
            12.685 -0.623 -0.999,
            4.251 2.547 -1.899,
            8.489 -5.068 -1.419,
            8.980 -8.980 -0.999,
            8.529 -9.410 -0.999,
            9.410 -8.529 -0.999,
            9.817 -8.057 -0.999,
            10.201 -7.565 -0.999,
            10.560 -7.056 -0.999,
            10.893 -6.529 -0.999,
            11.200 -5.987 -0.999,
            11.481 -5.430 -0.999,
            11.733 -4.860 -0.999,
            11.958 -4.279 -0.999,
            12.153 -3.687 -0.999,
            4.251 -2.547 -1.899,
            4.251 -7.631 -1.560,
            3.687 -12.153 -0.999,
            4.279 -11.958 -0.999,
            4.860 -11.733 -0.999,
            5.430 -11.481 -0.999,
            5.987 -11.200 -0.999,
            6.529 -10.893 -0.999,
            7.056 -10.560 -0.999,
            7.565 -10.201 -0.999,
            8.057 -9.817 -0.999,
            0.623 -12.685 0.999,
            1.245 -12.639 0.999,
            1.863 -12.563 0.999,
            2.478 -12.456 0.999,
            3.086 -12.319 0.999,
            3.687 -12.153 0.999,
            4.279 -11.958 0.999,
            4.860 -11.733 0.999,
            5.430 -11.481 0.999,
            5.987 -11.200 0.999,
            6.529 -10.893 0.999,
            7.056 -10.560 0.999,
            7.565 -10.201 0.999,
            8.057 -9.817 0.999,
            8.529 -9.410 0.999,
            8.980 -8.980 0.999,
            9.410 -8.529 0.999,
            9.817 -8.057 0.999,
            10.201 -7.565 0.999,
            10.560 -7.056 0.999,
            10.893 -6.529 0.999,
            11.200 -5.987 0.999,
            11.481 -5.430 0.999,
            11.733 -4.860 0.999,
            11.958 -4.279 0.999,
            12.153 -3.687 0.999,
            12.319 -3.086 0.999,
            12.456 -2.478 0.999,
            12.563 -1.863 0.999,
            12.639 -1.245 0.999,
            12.685 -0.623 0.999,
            8.489 -5.068 1.419,
            4.251 -7.631 1.560,
            8.489 -0.000 1.588,
            4.251 -2.547 1.899,
            8.489 5.068 1.419,
            4.251 2.547 1.899,
            4.251 7.631 1.560
          ]
        }
        coordIndex [
          0, 1, 2, -1,
          0, 2, 3, -1,
          0, 3, 4, -1,
          0, 4, 5, -1,
          6, 7, 8, -1,
          9, 7, 6, -1,
          10, 7, 9, -1,
          11, 7, 10, -1,
          12, 13, 14, -1,
          12, 14, 15, -1,
          12, 15, 16, -1,
          12, 16, 17, -1,
          12, 17, 18, -1,
          12, 18, 19, -1,
          12, 19, 20, -1,
          12, 20, 21, -1,
          12, 21, 1, -1,
          12, 0, 22, -1,
          12, 1, 0, -1,
          23, 12, 22, -1,
          23, 22, 24, -1,
          25, 26, 27, -1,
          25, 27, 28, -1,
          25, 28, 29, -1,
          25, 29, 30, -1,
          25, 30, 31, -1,
          25, 31, 32, -1,
          25, 32, 33, -1,
          25, 33, 13, -1,
          25, 13, 12, -1,
          25, 12, 23, -1,
          34, 24, 35, -1,
          34, 35, 36, -1,
          34, 23, 24, -1,
          37, 38, 39, -1,
          37, 39, 40, -1,
          37, 40, 41, -1,
          37, 41, 42, -1,
          37, 42, 43, -1,
          37, 43, 44, -1,
          37, 44, 45, -1,
          37, 25, 23, -1,
          37, 45, 46, -1,
          37, 46, 47, -1,
          37, 47, 48, -1,
          37, 48, 26, -1,
          37, 23, 34, -1,
          37, 26, 25, -1,
          49, 36, 50, -1,
          49, 34, 36, -1,
          51, 38, 37, -1,
          51, 34, 49, -1,
          51, 52, 53, -1,
          51, 53, 54, -1,
          51, 54, 55, -1,
          51, 55, 56, -1,
          51, 56, 57, -1,
          51, 57, 58, -1,
          51, 58, 59, -1,
          51, 59, 60, -1,
          51, 60, 61, -1,
          51, 61, 62, -1,
          51, 62, 38, -1,
          51, 37, 34, -1,
          63, 50, 7, -1,
          63, 11, 64, -1,
          63, 64, 65, -1,
          63, 65, 66, -1,
          63, 66, 67, -1,
          63, 67, 68, -1,
          63, 68, 69, -1,
          63, 69, 70, -1,
          63, 49, 50, -1,
          63, 70, 71, -1,
          63, 71, 72, -1,
          63, 7, 11, -1,
          73, 52, 51, -1,
          73, 72, 74, -1,
          73, 74, 75, -1,
          73, 75, 76, -1,
          73, 76, 77, -1,
          73, 77, 78, -1,
          73, 78, 79, -1,
          73, 79, 80, -1,
          73, 80, 52, -1,
          73, 51, 49, -1,
          73, 49, 63, -1,
          73, 63, 72, -1,
          81, 82, 83, -1,
          81, 83, 84, -1,
          85, 81, 84, -1,
          85, 84, 86, -1,
          87, 86, 88, -1,
          87, 85, 86, -1,
          89, 88, 90, -1,
          89, 87, 88, -1,
          91, 90, 92, -1,
          91, 89, 90, -1,
          93, 92, 94, -1,
          93, 91, 92, -1,
          95, 94, 96, -1,
          95, 96, 97, -1,
          95, 93, 94, -1,
          98, 95, 97, -1,
          99, 97, 100, -1,
          99, 100, 101, -1,
          99, 98, 97, -1,
          102, 101, 103, -1,
          102, 99, 101, -1,
          104, 102, 103, -1,
          105, 103, 106, -1,
          105, 104, 103, -1,
          107, 106, 108, -1,
          107, 105, 106, -1,
          109, 108, 110, -1,
          109, 107, 108, -1,
          111, 110, 112, -1,
          111, 112, 113, -1,
          111, 109, 110, -1,
          114, 111, 113, -1,
          115, 113, 116, -1,
          115, 114, 113, -1,
          117, 115, 116, -1,
          117, 116, 118, -1,
          119, 117, 118, -1,
          119, 118, 120, -1,
          121, 119, 120, -1,
          121, 120, 122, -1,
          123, 122, 124, -1,
          123, 121, 122, -1,
          125, 124, 126, -1,
          125, 123, 124, -1,
          127, 126, 128, -1,
          127, 128, 129, -1,
          127, 125, 126, -1,
          130, 127, 129, -1,
          131, 129, 132, -1,
          131, 130, 129, -1,
          133, 132, 134, -1,
          133, 134, 135, -1,
          133, 131, 132, -1,
          136, 133, 135, -1,
          137, 135, 138, -1,
          137, 136, 135, -1,
          139, 138, 140, -1,
          139, 140, 141, -1,
          139, 137, 138, -1,
          142, 141, 143, -1,
          142, 139, 141, -1,
          144, 143, 145, -1,
          144, 142, 143, -1,
          8, 144, 145, -1,
          6, 145, 146, -1,
          6, 146, 147, -1,
          6, 8, 145, -1,
          9, 6, 147, -1,
          10, 147, 148, -1,
          10, 9, 147, -1,
          11, 148, 149, -1,
          11, 10, 148, -1,
          64, 149, 150, -1,
          64, 11, 149, -1,
          65, 150, 151, -1,
          65, 151, 152, -1,
          65, 64, 150, -1,
          66, 65, 152, -1,
          67, 152, 153, -1,
          67, 66, 152, -1,
          68, 153, 154, -1,
          68, 154, 155, -1,
          68, 67, 153, -1,
          69, 68, 155, -1,
          70, 69, 155, -1,
          70, 155, 156, -1,
          70, 156, 157, -1,
          71, 70, 157, -1,
          72, 157, 158, -1,
          72, 71, 157, -1,
          74, 72, 158, -1,
          74, 158, 159, -1,
          75, 159, 160, -1,
          75, 160, 161, -1,
          75, 74, 159, -1,
          76, 75, 161, -1,
          77, 161, 162, -1,
          77, 76, 161, -1,
          78, 162, 163, -1,
          78, 77, 162, -1,
          79, 163, 164, -1,
          79, 78, 163, -1,
          80, 164, 165, -1,
          80, 79, 164, -1,
          52, 165, 166, -1,
          52, 80, 165, -1,
          53, 166, 167, -1,
          53, 52, 166, -1,
          54, 167, 168, -1,
          54, 53, 167, -1,
          55, 168, 169, -1,
          55, 169, 170, -1,
          55, 54, 168, -1,
          56, 55, 170, -1,
          57, 170, 171, -1,
          57, 171, 172, -1,
          57, 56, 170, -1,
          58, 57, 172, -1,
          59, 172, 173, -1,
          59, 58, 172, -1,
          60, 173, 174, -1,
          60, 59, 173, -1,
          61, 174, 175, -1,
          61, 175, 176, -1,
          61, 60, 174, -1,
          62, 176, 177, -1,
          62, 61, 176, -1,
          38, 62, 177, -1,
          178, 146, 145, -1,
          178, 147, 146, -1,
          178, 148, 147, -1,
          178, 149, 148, -1,
          179, 180, 181, -1,
          182, 180, 179, -1,
          183, 180, 182, -1,
          184, 180, 183, -1,
          185, 178, 186, -1,
          185, 150, 149, -1,
          185, 151, 150, -1,
          185, 152, 151, -1,
          185, 153, 152, -1,
          185, 154, 153, -1,
          185, 155, 154, -1,
          185, 156, 155, -1,
          185, 157, 156, -1,
          185, 158, 157, -1,
          185, 149, 178, -1,
          187, 186, 188, -1,
          187, 185, 186, -1,
          189, 185, 187, -1,
          189, 159, 158, -1,
          189, 160, 159, -1,
          189, 161, 160, -1,
          189, 162, 161, -1,
          189, 163, 162, -1,
          189, 164, 163, -1,
          189, 165, 164, -1,
          189, 166, 165, -1,
          189, 158, 185, -1,
          190, 188, 191, -1,
          190, 191, 192, -1,
          190, 187, 188, -1,
          193, 187, 190, -1,
          193, 166, 189, -1,
          193, 167, 166, -1,
          193, 168, 167, -1,
          193, 169, 168, -1,
          193, 170, 169, -1,
          193, 171, 170, -1,
          193, 172, 171, -1,
          193, 173, 172, -1,
          193, 174, 173, -1,
          193, 175, 174, -1,
          193, 176, 175, -1,
          193, 177, 176, -1,
          193, 189, 187, -1,
          194, 192, 195, -1,
          194, 190, 192, -1,
          196, 197, 177, -1,
          196, 198, 197, -1,
          196, 199, 198, -1,
          196, 200, 199, -1,
          196, 201, 200, -1,
          196, 202, 201, -1,
          196, 203, 202, -1,
          196, 204, 203, -1,
          196, 205, 204, -1,
          196, 177, 193, -1,
          196, 206, 205, -1,
          196, 207, 206, -1,
          196, 190, 194, -1,
          196, 193, 190, -1,
          208, 195, 180, -1,
          208, 209, 210, -1,
          208, 211, 209, -1,
          208, 212, 211, -1,
          208, 213, 212, -1,
          208, 214, 213, -1,
          208, 215, 214, -1,
          208, 216, 215, -1,
          208, 217, 216, -1,
          208, 184, 217, -1,
          208, 194, 195, -1,
          208, 180, 184, -1,
          218, 208, 210, -1,
          218, 219, 207, -1,
          218, 220, 219, -1,
          218, 221, 220, -1,
          218, 222, 221, -1,
          218, 223, 222, -1,
          218, 224, 223, -1,
          218, 225, 224, -1,
          218, 210, 225, -1,
          218, 194, 208, -1,
          218, 207, 196, -1,
          218, 196, 194, -1,
          178, 138, 135, -1,
          178, 140, 138, -1,
          178, 141, 140, -1,
          178, 143, 141, -1,
          178, 145, 143, -1,
          226, 180, 227, -1,
          228, 180, 226, -1,
          229, 180, 228, -1,
          230, 180, 229, -1,
          181, 180, 230, -1,
          231, 94, 92, -1,
          231, 96, 94, -1,
          231, 97, 96, -1,
          231, 100, 97, -1,
          231, 101, 100, -1,
          231, 103, 101, -1,
          231, 106, 103, -1,
          231, 108, 106, -1,
          231, 110, 108, -1,
          231, 112, 110, -1,
          231, 113, 112, -1,
          231, 116, 113, -1,
          232, 186, 178, -1,
          232, 118, 116, -1,
          232, 120, 118, -1,
          232, 122, 120, -1,
          232, 124, 122, -1,
          232, 126, 124, -1,
          232, 128, 126, -1,
          232, 129, 128, -1,
          232, 132, 129, -1,
          232, 134, 132, -1,
          232, 135, 134, -1,
          232, 116, 231, -1,
          232, 178, 135, -1,
          233, 84, 83, -1,
          233, 86, 84, -1,
          233, 88, 86, -1,
          233, 90, 88, -1,
          233, 92, 90, -1,
          233, 231, 92, -1,
          233, 234, 235, -1,
          233, 236, 234, -1,
          233, 237, 236, -1,
          233, 238, 237, -1,
          233, 83, 238, -1,
          239, 186, 232, -1,
          239, 191, 188, -1,
          239, 188, 186, -1,
          239, 232, 231, -1,
          239, 231, 233, -1,
          240, 233, 235, -1,
          240, 241, 242, -1,
          240, 243, 241, -1,
          240, 244, 243, -1,
          240, 245, 244, -1,
          240, 246, 245, -1,
          240, 247, 246, -1,
          240, 248, 247, -1,
          240, 249, 248, -1,
          240, 250, 249, -1,
          240, 251, 250, -1,
          240, 252, 251, -1,
          240, 235, 252, -1,
          253, 192, 191, -1,
          253, 195, 192, -1,
          253, 191, 239, -1,
          253, 239, 233, -1,
          253, 233, 240, -1,
          254, 180, 195, -1,
          254, 227, 180, -1,
          254, 253, 240, -1,
          254, 255, 227, -1,
          254, 256, 255, -1,
          254, 257, 256, -1,
          254, 258, 257, -1,
          254, 259, 258, -1,
          254, 260, 259, -1,
          254, 261, 260, -1,
          254, 262, 261, -1,
          254, 240, 242, -1,
          254, 263, 262, -1,
          254, 242, 263, -1,
          254, 195, 253, -1,
          39, 38, 177, -1,
          39, 177, 197, -1,
          40, 197, 198, -1,
          40, 39, 197, -1,
          41, 198, 199, -1,
          41, 40, 198, -1,
          42, 199, 200, -1,
          42, 200, 201, -1,
          42, 41, 199, -1,
          43, 42, 201, -1,
          44, 201, 202, -1,
          44, 43, 201, -1,
          45, 202, 203, -1,
          45, 203, 204, -1,
          45, 44, 202, -1,
          46, 45, 204, -1,
          47, 204, 205, -1,
          47, 205, 206, -1,
          47, 46, 204, -1,
          48, 47, 206, -1,
          26, 206, 207, -1,
          26, 48, 206, -1,
          27, 207, 219, -1,
          27, 26, 207, -1,
          28, 219, 220, -1,
          28, 27, 219, -1,
          29, 220, 221, -1,
          29, 28, 220, -1,
          30, 221, 222, -1,
          30, 222, 223, -1,
          30, 29, 221, -1,
          31, 30, 223, -1,
          32, 223, 224, -1,
          32, 31, 223, -1,
          33, 32, 224, -1,
          33, 224, 225, -1,
          13, 33, 225, -1,
          13, 225, 210, -1,
          14, 13, 210, -1,
          14, 210, 209, -1,
          15, 14, 209, -1,
          15, 209, 211, -1,
          15, 211, 212, -1,
          16, 15, 212, -1,
          17, 212, 213, -1,
          17, 16, 212, -1,
          18, 213, 214, -1,
          18, 214, 215, -1,
          18, 17, 213, -1,
          19, 18, 215, -1,
          20, 215, 216, -1,
          20, 216, 217, -1,
          20, 19, 215, -1,
          21, 20, 217, -1,
          1, 217, 184, -1,
          1, 21, 217, -1,
          2, 184, 183, -1,
          2, 1, 184, -1,
          3, 183, 182, -1,
          3, 182, 179, -1,
          3, 2, 183, -1,
          4, 179, 181, -1,
          4, 3, 179, -1,
          5, 181, 230, -1,
          5, 4, 181, -1,
          264, 230, 229, -1,
          264, 5, 230, -1,
          265, 264, 229, -1,
          266, 229, 228, -1,
          266, 265, 229, -1,
          267, 228, 226, -1,
          267, 266, 228, -1,
          268, 226, 227, -1,
          268, 267, 226, -1,
          269, 227, 255, -1,
          269, 268, 227, -1,
          270, 255, 256, -1,
          270, 269, 255, -1,
          271, 256, 257, -1,
          271, 270, 256, -1,
          272, 257, 258, -1,
          272, 271, 257, -1,
          273, 272, 258, -1,
          273, 258, 259, -1,
          274, 273, 259, -1,
          274, 259, 260, -1,
          275, 274, 260, -1,
          275, 260, 261, -1,
          276, 275, 261, -1,
          276, 261, 262, -1,
          277, 276, 262, -1,
          277, 262, 263, -1,
          278, 277, 263, -1,
          278, 263, 242, -1,
          279, 278, 242, -1,
          279, 242, 241, -1,
          279, 241, 243, -1,
          280, 279, 243, -1,
          281, 280, 243, -1,
          281, 243, 244, -1,
          281, 244, 245, -1,
          282, 281, 245, -1,
          283, 282, 245, -1,
          283, 245, 246, -1,
          284, 283, 246, -1,
          284, 246, 247, -1,
          284, 247, 248, -1,
          285, 284, 248, -1,
          286, 285, 248, -1,
          286, 248, 249, -1,
          287, 249, 250, -1,
          287, 286, 249, -1,
          288, 250, 251, -1,
          288, 287, 250, -1,
          288, 251, 252, -1,
          289, 288, 252, -1,
          290, 252, 235, -1,
          290, 289, 252, -1,
          291, 235, 234, -1,
          291, 290, 235, -1,
          292, 234, 236, -1,
          292, 236, 237, -1,
          292, 291, 234, -1,
          293, 237, 238, -1,
          293, 292, 237, -1,
          294, 238, 83, -1,
          294, 293, 238, -1,
          82, 294, 83, -1,
          0, 5, 264, -1,
          0, 264, 265, -1,
          0, 265, 266, -1,
          0, 266, 267, -1,
          0, 267, 268, -1,
          137, 7, 136, -1,
          139, 7, 137, -1,
          142, 7, 139, -1,
          144, 7, 142, -1,
          8, 7, 144, -1,
          295, 278, 279, -1,
          295, 279, 280, -1,
          295, 280, 281, -1,
          295, 281, 282, -1,
          295, 282, 283, -1,
          295, 283, 284, -1,
          295, 284, 285, -1,
          295, 285, 286, -1,
          295, 286, 287, -1,
          295, 287, 288, -1,
          295, 288, 289, -1,
          295, 289, 290, -1,
          296, 22, 0, -1,
          296, 268, 269, -1,
          296, 269, 270, -1,
          296, 270, 271, -1,
          296, 271, 272, -1,
          296, 272, 273, -1,
          296, 273, 274, -1,
          296, 274, 275, -1,
          296, 275, 276, -1,
          296, 276, 277, -1,
          296, 277, 278, -1,
          296, 278, 295, -1,
          296, 0, 268, -1,
          297, 290, 291, -1,
          297, 291, 292, -1,
          297, 292, 293, -1,
          297, 293, 294, -1,
          297, 294, 82, -1,
          297, 82, 81, -1,
          297, 81, 85, -1,
          297, 85, 87, -1,
          297, 87, 89, -1,
          297, 89, 91, -1,
          297, 295, 290, -1,
          298, 22, 296, -1,
          298, 24, 22, -1,
          298, 35, 24, -1,
          298, 296, 295, -1,
          298, 295, 297, -1,
          299, 91, 93, -1,
          299, 93, 95, -1,
          299, 95, 98, -1,
          299, 98, 99, -1,
          299, 99, 102, -1,
          299, 102, 104, -1,
          299, 104, 105, -1,
          299, 105, 107, -1,
          299, 107, 109, -1,
          299, 109, 111, -1,
          299, 111, 114, -1,
          299, 114, 115, -1,
          299, 297, 91, -1,
          300, 35, 298, -1,
          300, 298, 297, -1,
          300, 297, 299, -1,
          300, 50, 36, -1,
          300, 36, 35, -1,
          301, 136, 7, -1,
          301, 115, 117, -1,
          301, 117, 119, -1,
          301, 119, 121, -1,
          301, 121, 123, -1,
          301, 123, 125, -1,
          301, 125, 127, -1,
          301, 127, 130, -1,
          301, 130, 131, -1,
          301, 131, 133, -1,
          301, 133, 136, -1,
          301, 50, 300, -1,
          301, 7, 50, -1,
          301, 300, 299, -1,
          301, 299, 115, -1
        ]
      }
    }
}
