#VRML V2.0 utf8
WorldInfo {
  title "Exported triangle mesh to VRML97"
  info ["Created by FreeCAD"
        "<https://www.freecad.org>"]
}

Transform {
  scale 1 1 1
  rotation 0 0 1 0
  scaleOrientation 0 0 1 0
  center 0.000 0.000 0.000
  translation 0.000 0.000 0.000
  children
    Shape { 
      appearance
      Appearance {
        material
        Material {
          diffuseColor 0.8 0.8 0.8
        }
      }
      geometry
      IndexedFaceSet {
        coord
        Coordinate {
          point [
            0.000 8.470 -1.220,
            -0.623 12.685 -1.002,
            0.000 12.700 -1.002,
            -1.245 12.639 -1.002,
            -1.863 12.563 -1.002,
            -2.478 12.456 -1.002,
            -3.086 12.319 -1.002,
            -3.687 12.153 -1.002,
            -4.279 11.958 -1.002,
            -0.623 -12.685 -1.002,
            -0.000 -8.470 -1.220,
            -0.000 -12.700 -1.002,
            -1.245 -12.639 -1.002,
            -1.863 -12.563 -1.002,
            -2.478 -12.456 -1.002,
            -3.086 -12.319 -1.002,
            -3.687 -12.153 -1.002,
            -4.279 -11.958 -1.002,
            -6.353 8.466 -1.122,
            0.000 4.236 -1.351,
            -4.860 11.733 -1.002,
            -5.430 11.481 -1.002,
            -5.987 11.200 -1.002,
            -6.529 10.893 -1.002,
            -7.056 10.560 -1.002,
            -7.565 10.201 -1.002,
            -8.057 9.817 -1.002,
            -8.529 9.410 -1.002,
            -8.980 8.980 -1.002,
            -9.410 8.529 -1.002,
            -9.817 8.057 -1.002,
            -10.201 7.565 -1.002,
            -10.560 7.056 -1.002,
            -10.893 6.529 -1.002,
            -6.353 0.000 -1.297,
            0.000 -0.000 -1.395,
            -0.000 -4.236 -1.351,
            -12.685 -0.623 -1.002,
            -12.700 -0.000 -1.002,
            -12.639 -1.245 -1.002,
            -12.563 -1.863 -1.002,
            -12.456 -2.478 -1.002,
            -12.319 -3.086 -1.002,
            -12.153 -3.687 -1.002,
            -11.958 -4.279 -1.002,
            -11.733 -4.860 -1.002,
            -11.481 -5.430 -1.002,
            -11.200 -5.987 -1.002,
            -10.893 -6.529 -1.002,
            -11.200 5.987 -1.002,
            -11.481 5.430 -1.002,
            -11.733 4.860 -1.002,
            -11.958 4.279 -1.002,
            -12.153 3.687 -1.002,
            -12.319 3.086 -1.002,
            -12.456 2.478 -1.002,
            -12.563 1.863 -1.002,
            -12.639 1.245 -1.002,
            -12.685 0.623 -1.002,
            -6.353 -8.466 -1.122,
            -10.560 -7.056 -1.002,
            -10.201 -7.565 -1.002,
            -9.817 -8.057 -1.002,
            -9.410 -8.529 -1.002,
            -8.980 -8.980 -1.002,
            -8.529 -9.410 -1.002,
            -8.057 -9.817 -1.002,
            -7.565 -10.201 -1.002,
            -7.056 -10.560 -1.002,
            -6.529 -10.893 -1.002,
            -5.987 -11.200 -1.002,
            -5.430 -11.481 -1.002,
            -4.860 -11.733 -1.002,
            -0.000 -8.470 1.220,
            -3.687 -12.153 1.002,
            -3.086 -12.319 1.002,
            -2.478 -12.456 1.002,
            -1.863 -12.563 1.002,
            -1.245 -12.639 1.002,
            -0.623 -12.685 1.002,
            -0.000 -12.700 1.002,
            -4.279 -11.958 1.002,
            -0.623 12.685 1.002,
            0.000 8.470 1.220,
            0.000 12.700 1.002,
            -1.245 12.639 1.002,
            -1.863 12.563 1.002,
            -2.478 12.456 1.002,
            -3.086 12.319 1.002,
            -3.687 12.153 1.002,
            -4.279 11.958 1.002,
            -6.353 -8.466 1.122,
            -10.893 -6.529 1.002,
            -10.560 -7.056 1.002,
            -10.201 -7.565 1.002,
            -9.817 -8.057 1.002,
            -9.410 -8.529 1.002,
            -8.980 -8.980 1.002,
            -8.529 -9.410 1.002,
            -8.057 -9.817 1.002,
            -7.565 -10.201 1.002,
            -7.056 -10.560 1.002,
            -6.529 -10.893 1.002,
            -5.987 -11.200 1.002,
            -5.430 -11.481 1.002,
            -4.860 -11.733 1.002,
            -0.000 -4.236 1.351,
            -6.353 -0.000 1.297,
            -12.700 -0.000 1.002,
            -12.685 -0.623 1.002,
            -12.639 -1.245 1.002,
            -12.563 -1.863 1.002,
            -12.456 -2.478 1.002,
            -12.319 -3.086 1.002,
            -12.153 -3.687 1.002,
            -11.958 -4.279 1.002,
            -11.733 -4.860 1.002,
            -11.481 -5.430 1.002,
            -11.200 -5.987 1.002,
            0.000 0.000 1.395,
            0.000 4.236 1.351,
            -10.893 6.529 1.002,
            -11.200 5.987 1.002,
            -11.481 5.430 1.002,
            -11.733 4.860 1.002,
            -11.958 4.279 1.002,
            -12.153 3.687 1.002,
            -12.319 3.086 1.002,
            -12.456 2.478 1.002,
            -12.563 1.863 1.002,
            -12.639 1.245 1.002,
            -12.685 0.623 1.002,
            -6.353 8.466 1.122,
            -4.860 11.733 1.002,
            -5.430 11.481 1.002,
            -5.987 11.200 1.002,
            -6.529 10.893 1.002,
            -7.056 10.560 1.002,
            -7.565 10.201 1.002,
            -8.057 9.817 1.002,
            -8.529 9.410 1.002,
            -8.980 8.980 1.002,
            -9.410 8.529 1.002,
            -9.817 8.057 1.002,
            -10.201 7.565 1.002,
            -10.560 7.056 1.002,
            12.685 0.623 1.002,
            12.700 -0.000 -1.002,
            12.685 0.623 -1.002,
            12.700 -0.000 1.002,
            12.639 1.245 1.002,
            12.639 1.245 -1.002,
            12.563 1.863 1.002,
            12.563 1.863 -1.002,
            12.456 2.478 1.002,
            12.456 2.478 -1.002,
            12.319 3.086 1.002,
            12.319 3.086 -1.002,
            12.153 3.687 1.002,
            12.153 3.687 -1.002,
            11.958 4.279 1.002,
            11.958 4.279 -1.002,
            11.733 4.860 1.002,
            11.733 4.860 -1.002,
            11.481 5.430 1.002,
            11.481 5.430 -1.002,
            11.200 5.987 -1.002,
            11.200 5.987 1.002,
            10.893 6.529 -1.002,
            10.893 6.529 1.002,
            10.560 7.056 1.002,
            10.560 7.056 -1.002,
            10.201 7.565 1.002,
            10.201 7.565 -1.002,
            9.817 8.057 -1.002,
            9.817 8.057 1.002,
            9.410 8.529 1.002,
            9.410 8.529 -1.002,
            8.980 8.980 1.002,
            8.980 8.980 -1.002,
            8.529 9.410 1.002,
            8.529 9.410 -1.002,
            8.057 9.817 -1.002,
            8.057 9.817 1.002,
            7.565 10.201 1.002,
            7.565 10.201 -1.002,
            7.056 10.560 1.002,
            7.056 10.560 -1.002,
            6.529 10.893 1.002,
            6.529 10.893 -1.002,
            5.987 11.200 -1.002,
            5.987 11.200 1.002,
            5.430 11.481 1.002,
            5.430 11.481 -1.002,
            4.860 11.733 -1.002,
            4.860 11.733 1.002,
            4.279 11.958 1.002,
            4.279 11.958 -1.002,
            3.687 12.153 1.002,
            3.687 12.153 -1.002,
            3.086 12.319 -1.002,
            3.086 12.319 1.002,
            2.478 12.456 1.002,
            2.478 12.456 -1.002,
            1.863 12.563 1.002,
            1.863 12.563 -1.002,
            1.245 12.639 1.002,
            1.245 12.639 -1.002,
            0.623 12.685 1.002,
            0.623 12.685 -1.002,
            0.623 -12.685 -1.002,
            0.623 -12.685 1.002,
            1.245 -12.639 1.002,
            1.245 -12.639 -1.002,
            1.863 -12.563 1.002,
            1.863 -12.563 -1.002,
            2.478 -12.456 1.002,
            2.478 -12.456 -1.002,
            3.086 -12.319 1.002,
            3.086 -12.319 -1.002,
            3.687 -12.153 1.002,
            3.687 -12.153 -1.002,
            4.279 -11.958 1.002,
            4.279 -11.958 -1.002,
            4.860 -11.733 1.002,
            4.860 -11.733 -1.002,
            5.430 -11.481 1.002,
            5.430 -11.481 -1.002,
            5.987 -11.200 1.002,
            5.987 -11.200 -1.002,
            6.529 -10.893 1.002,
            6.529 -10.893 -1.002,
            7.056 -10.560 1.002,
            7.056 -10.560 -1.002,
            7.565 -10.201 1.002,
            7.565 -10.201 -1.002,
            8.057 -9.817 1.002,
            8.057 -9.817 -1.002,
            8.529 -9.410 1.002,
            8.529 -9.410 -1.002,
            8.980 -8.980 1.002,
            8.980 -8.980 -1.002,
            9.410 -8.529 1.002,
            9.410 -8.529 -1.002,
            9.817 -8.057 1.002,
            9.817 -8.057 -1.002,
            10.201 -7.565 1.002,
            10.201 -7.565 -1.002,
            10.560 -7.056 1.002,
            10.560 -7.056 -1.002,
            10.893 -6.529 1.002,
            10.893 -6.529 -1.002,
            11.200 -5.987 1.002,
            11.200 -5.987 -1.002,
            11.481 -5.430 1.002,
            11.481 -5.430 -1.002,
            11.733 -4.860 1.002,
            11.733 -4.860 -1.002,
            11.958 -4.279 1.002,
            11.958 -4.279 -1.002,
            12.153 -3.687 1.002,
            12.153 -3.687 -1.002,
            12.319 -3.086 1.002,
            12.319 -3.086 -1.002,
            12.456 -2.478 1.002,
            12.456 -2.478 -1.002,
            12.563 -1.863 1.002,
            12.563 -1.863 -1.002,
            12.639 -1.245 1.002,
            12.639 -1.245 -1.002,
            12.685 -0.623 1.002,
            12.685 -0.623 -1.002,
            6.353 -8.466 1.122,
            6.353 -0.000 1.297,
            6.353 8.466 1.122,
            6.353 8.466 -1.122,
            6.353 0.000 -1.297,
            6.353 -8.466 -1.122
          ]
        }
        coordIndex [
          0, 1, 2, -1,
          0, 3, 1, -1,
          0, 4, 3, -1,
          0, 5, 4, -1,
          0, 6, 5, -1,
          0, 7, 6, -1,
          8, 7, 0, -1,
          9, 10, 11, -1,
          12, 10, 9, -1,
          13, 10, 12, -1,
          14, 10, 13, -1,
          15, 10, 14, -1,
          16, 10, 15, -1,
          17, 10, 16, -1,
          18, 0, 19, -1,
          18, 20, 8, -1,
          18, 21, 20, -1,
          18, 22, 21, -1,
          18, 23, 22, -1,
          18, 24, 23, -1,
          18, 25, 24, -1,
          18, 26, 25, -1,
          18, 27, 26, -1,
          18, 28, 27, -1,
          18, 29, 28, -1,
          18, 30, 29, -1,
          18, 31, 30, -1,
          18, 32, 31, -1,
          18, 33, 32, -1,
          18, 8, 0, -1,
          34, 19, 35, -1,
          34, 35, 36, -1,
          34, 33, 18, -1,
          34, 37, 38, -1,
          34, 39, 37, -1,
          34, 40, 39, -1,
          34, 41, 40, -1,
          34, 42, 41, -1,
          34, 43, 42, -1,
          34, 44, 43, -1,
          34, 45, 44, -1,
          34, 46, 45, -1,
          34, 47, 46, -1,
          34, 48, 47, -1,
          34, 49, 33, -1,
          34, 50, 49, -1,
          34, 51, 50, -1,
          34, 52, 51, -1,
          34, 53, 52, -1,
          34, 54, 53, -1,
          34, 55, 54, -1,
          34, 56, 55, -1,
          34, 57, 56, -1,
          34, 58, 57, -1,
          34, 38, 58, -1,
          34, 18, 19, -1,
          59, 36, 10, -1,
          59, 60, 48, -1,
          59, 61, 60, -1,
          59, 62, 61, -1,
          59, 63, 62, -1,
          59, 64, 63, -1,
          59, 65, 64, -1,
          59, 66, 65, -1,
          59, 67, 66, -1,
          59, 68, 67, -1,
          59, 69, 68, -1,
          59, 70, 69, -1,
          59, 71, 70, -1,
          59, 72, 71, -1,
          59, 17, 72, -1,
          59, 10, 17, -1,
          59, 48, 34, -1,
          59, 34, 36, -1,
          73, 74, 75, -1,
          73, 75, 76, -1,
          73, 76, 77, -1,
          73, 77, 78, -1,
          73, 78, 79, -1,
          73, 79, 80, -1,
          81, 74, 73, -1,
          82, 83, 84, -1,
          85, 83, 82, -1,
          86, 83, 85, -1,
          87, 83, 86, -1,
          88, 83, 87, -1,
          89, 83, 88, -1,
          90, 83, 89, -1,
          91, 92, 93, -1,
          91, 93, 94, -1,
          91, 94, 95, -1,
          91, 95, 96, -1,
          91, 96, 97, -1,
          91, 97, 98, -1,
          91, 98, 99, -1,
          91, 99, 100, -1,
          91, 100, 101, -1,
          91, 101, 102, -1,
          91, 102, 103, -1,
          91, 103, 104, -1,
          91, 104, 105, -1,
          91, 105, 81, -1,
          91, 73, 106, -1,
          91, 81, 73, -1,
          107, 108, 109, -1,
          107, 109, 110, -1,
          107, 110, 111, -1,
          107, 111, 112, -1,
          107, 112, 113, -1,
          107, 113, 114, -1,
          107, 114, 115, -1,
          107, 115, 116, -1,
          107, 116, 117, -1,
          107, 117, 118, -1,
          107, 118, 92, -1,
          107, 106, 119, -1,
          107, 92, 91, -1,
          107, 119, 120, -1,
          107, 121, 122, -1,
          107, 122, 123, -1,
          107, 123, 124, -1,
          107, 124, 125, -1,
          107, 125, 126, -1,
          107, 126, 127, -1,
          107, 127, 128, -1,
          107, 128, 129, -1,
          107, 129, 130, -1,
          107, 130, 131, -1,
          107, 131, 108, -1,
          107, 91, 106, -1,
          132, 107, 120, -1,
          132, 120, 83, -1,
          132, 90, 133, -1,
          132, 133, 134, -1,
          132, 134, 135, -1,
          132, 135, 136, -1,
          132, 136, 137, -1,
          132, 137, 138, -1,
          132, 138, 139, -1,
          132, 139, 140, -1,
          132, 140, 141, -1,
          132, 141, 142, -1,
          132, 142, 143, -1,
          132, 143, 144, -1,
          132, 144, 145, -1,
          132, 145, 121, -1,
          132, 83, 90, -1,
          132, 121, 107, -1,
          146, 147, 148, -1,
          146, 149, 147, -1,
          150, 148, 151, -1,
          150, 146, 148, -1,
          152, 151, 153, -1,
          152, 150, 151, -1,
          154, 153, 155, -1,
          154, 152, 153, -1,
          156, 155, 157, -1,
          156, 154, 155, -1,
          158, 157, 159, -1,
          158, 156, 157, -1,
          160, 159, 161, -1,
          160, 158, 159, -1,
          162, 161, 163, -1,
          162, 160, 161, -1,
          164, 163, 165, -1,
          164, 165, 166, -1,
          164, 162, 163, -1,
          167, 166, 168, -1,
          167, 164, 166, -1,
          169, 167, 168, -1,
          170, 168, 171, -1,
          170, 169, 168, -1,
          172, 171, 173, -1,
          172, 173, 174, -1,
          172, 170, 171, -1,
          175, 172, 174, -1,
          176, 174, 177, -1,
          176, 175, 174, -1,
          178, 177, 179, -1,
          178, 176, 177, -1,
          180, 179, 181, -1,
          180, 181, 182, -1,
          180, 178, 179, -1,
          183, 180, 182, -1,
          184, 183, 182, -1,
          184, 182, 185, -1,
          186, 184, 185, -1,
          186, 185, 187, -1,
          188, 186, 187, -1,
          188, 187, 189, -1,
          188, 189, 190, -1,
          191, 188, 190, -1,
          192, 190, 193, -1,
          192, 193, 194, -1,
          192, 191, 190, -1,
          195, 192, 194, -1,
          196, 194, 197, -1,
          196, 195, 194, -1,
          198, 197, 199, -1,
          198, 199, 200, -1,
          198, 196, 197, -1,
          201, 198, 200, -1,
          202, 200, 203, -1,
          202, 201, 200, -1,
          204, 203, 205, -1,
          204, 202, 203, -1,
          206, 205, 207, -1,
          206, 204, 205, -1,
          208, 207, 209, -1,
          208, 206, 207, -1,
          84, 209, 2, -1,
          84, 2, 1, -1,
          84, 208, 209, -1,
          82, 84, 1, -1,
          85, 1, 3, -1,
          85, 82, 1, -1,
          86, 3, 4, -1,
          86, 85, 3, -1,
          87, 4, 5, -1,
          87, 86, 4, -1,
          88, 5, 6, -1,
          88, 87, 5, -1,
          89, 6, 7, -1,
          89, 88, 6, -1,
          90, 7, 8, -1,
          90, 89, 7, -1,
          133, 8, 20, -1,
          133, 90, 8, -1,
          134, 20, 21, -1,
          134, 133, 20, -1,
          135, 134, 21, -1,
          135, 21, 22, -1,
          136, 135, 22, -1,
          136, 22, 23, -1,
          137, 136, 23, -1,
          137, 23, 24, -1,
          138, 137, 24, -1,
          138, 24, 25, -1,
          139, 138, 25, -1,
          139, 25, 26, -1,
          140, 139, 26, -1,
          140, 26, 27, -1,
          141, 140, 27, -1,
          141, 27, 28, -1,
          142, 141, 28, -1,
          142, 28, 29, -1,
          143, 142, 29, -1,
          143, 29, 30, -1,
          144, 143, 30, -1,
          144, 30, 31, -1,
          145, 144, 31, -1,
          145, 31, 32, -1,
          121, 145, 32, -1,
          121, 32, 33, -1,
          122, 121, 33, -1,
          122, 33, 49, -1,
          123, 122, 49, -1,
          123, 49, 50, -1,
          124, 50, 51, -1,
          124, 123, 50, -1,
          125, 51, 52, -1,
          125, 124, 51, -1,
          126, 52, 53, -1,
          126, 125, 52, -1,
          127, 53, 54, -1,
          127, 126, 53, -1,
          128, 54, 55, -1,
          128, 127, 54, -1,
          129, 55, 56, -1,
          129, 128, 55, -1,
          130, 56, 57, -1,
          130, 129, 56, -1,
          131, 57, 58, -1,
          131, 58, 38, -1,
          131, 130, 57, -1,
          108, 131, 38, -1,
          109, 108, 38, -1,
          109, 38, 37, -1,
          110, 37, 39, -1,
          110, 109, 37, -1,
          111, 39, 40, -1,
          111, 110, 39, -1,
          112, 40, 41, -1,
          112, 111, 40, -1,
          113, 41, 42, -1,
          113, 112, 41, -1,
          114, 42, 43, -1,
          114, 113, 42, -1,
          115, 43, 44, -1,
          115, 114, 43, -1,
          116, 44, 45, -1,
          116, 115, 44, -1,
          117, 45, 46, -1,
          117, 46, 47, -1,
          117, 116, 45, -1,
          118, 47, 48, -1,
          118, 117, 47, -1,
          92, 118, 48, -1,
          93, 48, 60, -1,
          93, 92, 48, -1,
          94, 60, 61, -1,
          94, 93, 60, -1,
          95, 61, 62, -1,
          95, 94, 61, -1,
          96, 62, 63, -1,
          96, 95, 62, -1,
          97, 63, 64, -1,
          97, 96, 63, -1,
          98, 64, 65, -1,
          98, 97, 64, -1,
          99, 98, 65, -1,
          99, 65, 66, -1,
          99, 66, 67, -1,
          100, 99, 67, -1,
          101, 100, 67, -1,
          101, 67, 68, -1,
          102, 101, 68, -1,
          102, 68, 69, -1,
          102, 69, 70, -1,
          103, 102, 70, -1,
          104, 70, 71, -1,
          104, 71, 72, -1,
          104, 103, 70, -1,
          105, 104, 72, -1,
          81, 72, 17, -1,
          81, 17, 16, -1,
          81, 105, 72, -1,
          74, 16, 15, -1,
          74, 81, 16, -1,
          75, 74, 15, -1,
          76, 15, 14, -1,
          76, 14, 13, -1,
          76, 75, 15, -1,
          77, 76, 13, -1,
          78, 13, 12, -1,
          78, 12, 9, -1,
          78, 77, 13, -1,
          79, 78, 9, -1,
          80, 9, 11, -1,
          80, 11, 210, -1,
          80, 79, 9, -1,
          211, 80, 210, -1,
          212, 210, 213, -1,
          212, 211, 210, -1,
          214, 213, 215, -1,
          214, 212, 213, -1,
          216, 215, 217, -1,
          216, 214, 215, -1,
          218, 217, 219, -1,
          218, 216, 217, -1,
          220, 219, 221, -1,
          220, 218, 219, -1,
          222, 221, 223, -1,
          222, 220, 221, -1,
          224, 223, 225, -1,
          224, 222, 223, -1,
          226, 225, 227, -1,
          226, 224, 225, -1,
          228, 226, 227, -1,
          228, 227, 229, -1,
          230, 228, 229, -1,
          230, 229, 231, -1,
          232, 230, 231, -1,
          232, 231, 233, -1,
          234, 232, 233, -1,
          234, 233, 235, -1,
          236, 234, 235, -1,
          236, 235, 237, -1,
          238, 236, 237, -1,
          238, 237, 239, -1,
          240, 238, 239, -1,
          240, 239, 241, -1,
          242, 240, 241, -1,
          242, 241, 243, -1,
          244, 242, 243, -1,
          244, 243, 245, -1,
          246, 244, 245, -1,
          246, 245, 247, -1,
          248, 246, 247, -1,
          248, 247, 249, -1,
          250, 248, 249, -1,
          250, 249, 251, -1,
          252, 250, 251, -1,
          252, 251, 253, -1,
          254, 252, 253, -1,
          254, 253, 255, -1,
          256, 255, 257, -1,
          256, 254, 255, -1,
          258, 257, 259, -1,
          258, 256, 257, -1,
          260, 259, 261, -1,
          260, 258, 259, -1,
          262, 261, 263, -1,
          262, 260, 261, -1,
          264, 263, 265, -1,
          264, 262, 263, -1,
          266, 265, 267, -1,
          266, 264, 265, -1,
          268, 267, 269, -1,
          268, 266, 267, -1,
          270, 269, 271, -1,
          270, 268, 269, -1,
          149, 271, 147, -1,
          149, 270, 271, -1,
          73, 80, 211, -1,
          73, 211, 212, -1,
          73, 212, 214, -1,
          73, 214, 216, -1,
          73, 216, 218, -1,
          73, 218, 220, -1,
          73, 220, 222, -1,
          198, 83, 196, -1,
          201, 83, 198, -1,
          202, 83, 201, -1,
          204, 83, 202, -1,
          206, 83, 204, -1,
          208, 83, 206, -1,
          84, 83, 208, -1,
          272, 106, 73, -1,
          272, 222, 224, -1,
          272, 224, 226, -1,
          272, 226, 228, -1,
          272, 228, 230, -1,
          272, 230, 232, -1,
          272, 232, 234, -1,
          272, 234, 236, -1,
          272, 236, 238, -1,
          272, 238, 240, -1,
          272, 240, 242, -1,
          272, 242, 244, -1,
          272, 244, 246, -1,
          272, 246, 248, -1,
          272, 248, 250, -1,
          272, 73, 222, -1,
          273, 119, 106, -1,
          273, 250, 252, -1,
          273, 252, 254, -1,
          273, 254, 256, -1,
          273, 256, 258, -1,
          273, 258, 260, -1,
          273, 260, 262, -1,
          273, 262, 264, -1,
          273, 264, 266, -1,
          273, 266, 268, -1,
          273, 268, 270, -1,
          273, 270, 149, -1,
          273, 149, 146, -1,
          273, 146, 150, -1,
          273, 150, 152, -1,
          273, 152, 154, -1,
          273, 154, 156, -1,
          273, 156, 158, -1,
          273, 158, 160, -1,
          273, 160, 162, -1,
          273, 162, 164, -1,
          273, 164, 167, -1,
          273, 167, 169, -1,
          273, 120, 119, -1,
          273, 272, 250, -1,
          273, 106, 272, -1,
          274, 169, 170, -1,
          274, 170, 172, -1,
          274, 172, 175, -1,
          274, 175, 176, -1,
          274, 176, 178, -1,
          274, 178, 180, -1,
          274, 180, 183, -1,
          274, 183, 184, -1,
          274, 184, 186, -1,
          274, 186, 188, -1,
          274, 188, 191, -1,
          274, 191, 192, -1,
          274, 192, 195, -1,
          274, 195, 196, -1,
          274, 273, 169, -1,
          274, 83, 120, -1,
          274, 120, 273, -1,
          274, 196, 83, -1,
          0, 199, 197, -1,
          0, 200, 199, -1,
          0, 203, 200, -1,
          0, 205, 203, -1,
          0, 207, 205, -1,
          0, 209, 207, -1,
          0, 2, 209, -1,
          221, 10, 223, -1,
          219, 10, 221, -1,
          217, 10, 219, -1,
          215, 10, 217, -1,
          213, 10, 215, -1,
          210, 10, 213, -1,
          11, 10, 210, -1,
          275, 0, 197, -1,
          275, 19, 0, -1,
          275, 171, 168, -1,
          275, 173, 171, -1,
          275, 174, 173, -1,
          275, 177, 174, -1,
          275, 179, 177, -1,
          275, 181, 179, -1,
          275, 182, 181, -1,
          275, 185, 182, -1,
          275, 187, 185, -1,
          275, 189, 187, -1,
          275, 190, 189, -1,
          275, 193, 190, -1,
          275, 194, 193, -1,
          275, 197, 194, -1,
          276, 36, 35, -1,
          276, 35, 19, -1,
          276, 148, 147, -1,
          276, 151, 148, -1,
          276, 153, 151, -1,
          276, 155, 153, -1,
          276, 157, 155, -1,
          276, 159, 157, -1,
          276, 161, 159, -1,
          276, 163, 161, -1,
          276, 165, 163, -1,
          276, 166, 165, -1,
          276, 168, 166, -1,
          276, 275, 168, -1,
          276, 19, 275, -1,
          276, 253, 251, -1,
          276, 255, 253, -1,
          276, 257, 255, -1,
          276, 259, 257, -1,
          276, 261, 259, -1,
          276, 263, 261, -1,
          276, 265, 263, -1,
          276, 267, 265, -1,
          276, 269, 267, -1,
          276, 271, 269, -1,
          276, 147, 271, -1,
          277, 10, 36, -1,
          277, 225, 223, -1,
          277, 227, 225, -1,
          277, 229, 227, -1,
          277, 231, 229, -1,
          277, 233, 231, -1,
          277, 235, 233, -1,
          277, 237, 235, -1,
          277, 239, 237, -1,
          277, 241, 239, -1,
          277, 243, 241, -1,
          277, 245, 243, -1,
          277, 247, 245, -1,
          277, 249, 247, -1,
          277, 251, 249, -1,
          277, 36, 276, -1,
          277, 276, 251, -1,
          277, 223, 10, -1
        ]
      }
    }
}
