{"asset":{"version":"2.0","generator":"microscope_builder_4 scripts/catalog/dedupe-mounted-lens-housings.mjs"},"scene":0,"scenes":[{"nodes":[0]}],"nodes":[{"mesh":0}],"meshes":[{"primitives":[{"attributes":{"POSITION":1,"NORMAL":2},"indices":0,"mode":4},{"attributes":{"POSITION":4,"NORMAL":5},"indices":3,"mode":4},{"attributes":{"POSITION":7,"NORMAL":8},"indices":6,"mode":4}]}],"buffers":[{"uri":"lb4293-ab-ml.bin","byteLength":158664}],"bufferViews":[{"buffer":0,"byteOffset":0,"byteLength":42408,"target":34963},{"buffer":0,"byteOffset":42408,"byteLength":42408,"target":34962},{"buffer":0,"byteOffset":84816,"byteLength":42408,"target":34962},{"buffer":0,"byteOffset":127224,"byteLength":3744,"target":34963},{"buffer":0,"byteOffset":130968,"byteLength":3744,"target":34962},{"buffer":0,"byteOffset":134712,"byteLength":3744,"target":34962},{"buffer":0,"byteOffset":138456,"byteLength":6720,"target":34963},{"buffer":0,"byteOffset":145176,"byteLength":6744,"target":34962},{"buffer":0,"byteOffset":151920,"byteLength":6744,"target":34962}],"accessors":[{"bufferView":0,"componentType":5123,"count":21204,"type":"SCALAR"},{"bufferView":1,"componentType":5126,"count":3534,"type":"VEC3","min":[-6.4770002365112305,-27.940000534057617,-27.940000534057617],"max":[6.4770002365112305,27.940000534057617,27.940000534057617]},{"bufferView":2,"componentType":5126,"count":3534,"type":"VEC3"},{"bufferView":3,"componentType":5123,"count":1872,"type":"SCALAR"},{"bufferView":4,"componentType":5126,"count":312,"type":"VEC3","min":[0.3880000114440918,-25.8439998626709,-25.8439998626709],"max":[2.927999973297119,25.8439998626709,25.8439998626709]},{"bufferView":5,"componentType":5126,"count":312,"type":"VEC3"},{"bufferView":6,"componentType":5123,"count":3360,"type":"SCALAR"},{"bufferView":7,"componentType":5126,"count":562,"type":"VEC3","min":[-2.9839999675750732,-25.340999603271484,-25.340999603271484],"max":[0.7160000205039978,25.340999603271484,25.340999603271484]},{"bufferView":8,"componentType":5126,"count":562,"type":"VEC3"}]}
