{"asset":{"version":"2.0","generator":"microscope_builder_4 scripts/catalog/dedupe-mounted-lens-housings.mjs"},"scene":0,"scenes":[{"nodes":[0]}],"nodes":[{"mesh":0}],"meshes":[{"primitives":[{"attributes":{"POSITION":1,"NORMAL":2},"indices":0,"mode":4},{"attributes":{"POSITION":4,"NORMAL":5},"indices":3,"mode":4},{"attributes":{"POSITION":7,"NORMAL":8},"indices":6,"mode":4}]}],"buffers":[{"uri":"lb4553-ab-ml.bin","byteLength":155784}],"bufferViews":[{"buffer":0,"byteOffset":0,"byteLength":3744,"target":34963},{"buffer":0,"byteOffset":3744,"byteLength":3744,"target":34962},{"buffer":0,"byteOffset":7488,"byteLength":3744,"target":34962},{"buffer":0,"byteOffset":11232,"byteLength":40812,"target":34963},{"buffer":0,"byteOffset":52044,"byteLength":40812,"target":34962},{"buffer":0,"byteOffset":92856,"byteLength":40812,"target":34962},{"buffer":0,"byteOffset":133668,"byteLength":7356,"target":34963},{"buffer":0,"byteOffset":141024,"byteLength":7380,"target":34962},{"buffer":0,"byteOffset":148404,"byteLength":7380,"target":34962}],"accessors":[{"bufferView":0,"componentType":5123,"count":1872,"type":"SCALAR"},{"bufferView":1,"componentType":5126,"count":312,"type":"VEC3","min":[0.1679999977350235,-25.8439998626709,-25.8439998626709],"max":[2.7079999446868896,25.8439998626709,25.8439998626709]},{"bufferView":2,"componentType":5126,"count":312,"type":"VEC3"},{"bufferView":3,"componentType":5123,"count":20406,"type":"SCALAR"},{"bufferView":4,"componentType":5126,"count":3401,"type":"VEC3","min":[-9.524999618530273,-27.940000534057617,-27.940000534057617],"max":[9.524999618530273,27.940000534057617,27.940000534057617]},{"bufferView":5,"componentType":5126,"count":3401,"type":"VEC3"},{"bufferView":6,"componentType":5123,"count":3678,"type":"SCALAR"},{"bufferView":7,"componentType":5126,"count":615,"type":"VEC3","min":[-7.671999931335449,-25.399999618530273,-25.399999618530273],"max":[4.8379998207092285,25.399999618530273,25.399999618530273]},{"bufferView":8,"componentType":5126,"count":615,"type":"VEC3"}]}
