#VRML V2.0 utf8
WorldInfo {
  title "Exported triangle mesh to VRML97"
  info ["Created by FreeCAD"
        "<https://www.freecad.org>"]
}

Transform {
  scale 1 1 1
  rotation 0 0 1 0
  scaleOrientation 0 0 1 0
  center 0.000 0.000 0.000
  translation 0.000 0.000 0.000
  children
    Shape { 
      appearance
      Appearance {
        material
        Material {
          diffuseColor 0.8 0.8 0.8
        }
      }
      geometry
      IndexedFaceSet {
        coord
        Coordinate {
          point [
            -3.000 0.000 0.510,
            -2.759 0.000 0.813,
            -2.755 0.135 0.813,
            -2.996 0.150 0.510,
            3.000 0.000 0.510,
            2.755 0.135 0.813,
            2.759 0.000 0.813,
            2.996 0.150 0.510,
            -2.865 0.282 0.661,
            -2.745 0.270 0.813,
            -2.729 0.405 0.813,
            -2.985 0.299 0.510,
            -2.966 0.447 0.510,
            -2.824 0.562 0.661,
            -2.706 0.538 0.813,
            -2.676 0.670 0.813,
            -2.941 0.594 0.510,
            -2.907 0.740 0.510,
            -2.755 0.836 0.661,
            -2.640 0.801 0.813,
            -2.597 0.929 0.813,
            -2.867 0.884 0.510,
            -2.819 1.026 0.510,
            -2.660 1.102 0.661,
            -2.549 1.056 0.813,
            -2.494 1.179 0.813,
            -2.764 1.165 0.510,
            -2.703 1.302 0.510,
            -2.539 1.357 0.661,
            -2.433 1.300 0.813,
            -2.366 1.418 0.813,
            -2.635 1.435 0.510,
            -2.560 1.564 0.510,
            -2.394 1.600 0.661,
            -2.294 1.533 0.813,
            -2.216 1.643 0.813,
            -2.479 1.690 0.510,
            -2.391 1.811 0.510,
            -2.226 1.827 0.661,
            -2.132 1.750 0.813,
            -2.044 1.853 0.813,
            -2.298 1.928 0.510,
            -2.199 2.041 0.510,
            -2.036 2.036 0.661,
            -1.951 1.951 0.813,
            -1.853 2.044 0.813,
            -2.095 2.148 0.510,
            -1.985 2.249 0.510,
            -1.827 2.226 0.661,
            -1.750 2.132 0.813,
            -1.643 2.216 0.813,
            -1.870 2.345 0.510,
            -1.751 2.436 0.510,
            -1.600 2.394 0.661,
            -1.533 2.294 0.813,
            -1.418 2.366 0.813,
            -1.628 2.520 0.510,
            -1.500 2.598 0.510,
            -1.357 2.539 0.661,
            -1.300 2.433 0.813,
            -1.179 2.494 0.813,
            -1.369 2.670 0.510,
            -1.234 2.735 0.510,
            -1.102 2.660 0.661,
            -1.056 2.549 0.813,
            -0.929 2.597 0.813,
            -1.096 2.793 0.510,
            -0.955 2.844 0.510,
            -0.836 2.755 0.661,
            -0.801 2.640 0.813,
            -0.670 2.676 0.813,
            -0.813 2.888 0.510,
            -0.668 2.925 0.510,
            -0.562 2.824 0.661,
            -0.538 2.706 0.813,
            -0.405 2.729 0.813,
            -0.521 2.954 0.510,
            -0.373 2.977 0.510,
            -0.282 2.865 0.661,
            -0.224 2.992 0.510,
            -0.075 2.999 0.510,
            -0.270 2.745 0.813,
            -0.135 2.755 0.813,
            0.000 2.879 0.661,
            0.000 2.759 0.813,
            0.135 2.755 0.813,
            0.075 2.999 0.510,
            0.282 2.865 0.661,
            0.270 2.745 0.813,
            0.405 2.729 0.813,
            0.224 2.992 0.510,
            0.373 2.977 0.510,
            0.562 2.824 0.661,
            0.538 2.706 0.813,
            0.670 2.676 0.813,
            0.521 2.954 0.510,
            0.668 2.925 0.510,
            0.836 2.755 0.661,
            0.801 2.640 0.813,
            0.929 2.597 0.813,
            0.813 2.888 0.510,
            0.955 2.844 0.510,
            1.102 2.660 0.661,
            1.056 2.549 0.813,
            1.179 2.494 0.813,
            1.096 2.793 0.510,
            1.234 2.735 0.510,
            1.357 2.539 0.661,
            1.300 2.433 0.813,
            1.418 2.366 0.813,
            1.369 2.670 0.510,
            1.500 2.598 0.510,
            1.600 2.394 0.661,
            1.533 2.294 0.813,
            1.643 2.216 0.813,
            1.628 2.520 0.510,
            1.751 2.436 0.510,
            1.827 2.226 0.661,
            1.750 2.132 0.813,
            1.853 2.044 0.813,
            1.870 2.345 0.510,
            1.985 2.249 0.510,
            2.036 2.036 0.661,
            1.951 1.951 0.813,
            2.044 1.853 0.813,
            2.095 2.148 0.510,
            2.199 2.041 0.510,
            2.226 1.827 0.661,
            2.132 1.750 0.813,
            2.216 1.643 0.813,
            2.298 1.928 0.510,
            2.391 1.811 0.510,
            2.394 1.600 0.661,
            2.294 1.533 0.813,
            2.366 1.418 0.813,
            2.479 1.690 0.510,
            2.560 1.564 0.510,
            2.539 1.357 0.661,
            2.433 1.300 0.813,
            2.494 1.179 0.813,
            2.635 1.435 0.510,
            2.703 1.302 0.510,
            2.660 1.102 0.661,
            2.549 1.056 0.813,
            2.597 0.929 0.813,
            2.764 1.165 0.510,
            2.819 1.026 0.510,
            2.755 0.836 0.661,
            2.640 0.801 0.813,
            2.676 0.670 0.813,
            2.867 0.884 0.510,
            2.907 0.740 0.510,
            2.824 0.562 0.661,
            2.706 0.538 0.813,
            2.729 0.405 0.813,
            2.941 0.594 0.510,
            2.966 0.447 0.510,
            2.865 0.282 0.661,
            2.745 0.270 0.813,
            2.985 0.299 0.510,
            3.000 0.000 -0.510,
            2.759 0.000 -0.813,
            2.755 0.135 -0.813,
            2.996 0.150 -0.510,
            -3.000 0.000 -0.510,
            -2.755 0.135 -0.813,
            -2.759 0.000 -0.813,
            -2.996 0.150 -0.510,
            2.865 0.282 -0.661,
            2.745 0.270 -0.813,
            2.729 0.405 -0.813,
            2.985 0.299 -0.510,
            2.966 0.447 -0.510,
            2.824 0.562 -0.661,
            2.706 0.538 -0.813,
            2.676 0.670 -0.813,
            2.941 0.594 -0.510,
            2.907 0.740 -0.510,
            2.755 0.836 -0.661,
            2.640 0.801 -0.813,
            2.597 0.929 -0.813,
            2.867 0.884 -0.510,
            2.819 1.026 -0.510,
            2.660 1.102 -0.661,
            2.549 1.056 -0.813,
            2.494 1.179 -0.813,
            2.764 1.165 -0.510,
            2.703 1.302 -0.510,
            2.539 1.357 -0.661,
            2.433 1.300 -0.813,
            2.366 1.418 -0.813,
            2.635 1.435 -0.510,
            2.560 1.564 -0.510,
            2.394 1.600 -0.661,
            2.294 1.533 -0.813,
            2.216 1.643 -0.813,
            2.479 1.690 -0.510,
            2.391 1.811 -0.510,
            2.226 1.827 -0.661,
            2.132 1.750 -0.813,
            2.044 1.853 -0.813,
            2.298 1.928 -0.510,
            2.199 2.041 -0.510,
            2.036 2.036 -0.661,
            1.951 1.951 -0.813,
            1.853 2.044 -0.813,
            2.095 2.148 -0.510,
            1.985 2.249 -0.510,
            1.827 2.226 -0.661,
            1.750 2.132 -0.813,
            1.643 2.216 -0.813,
            1.870 2.345 -0.510,
            1.751 2.436 -0.510,
            1.600 2.394 -0.661,
            1.533 2.294 -0.813,
            1.418 2.366 -0.813,
            1.628 2.520 -0.510,
            1.500 2.598 -0.510,
            1.357 2.539 -0.661,
            1.300 2.433 -0.813,
            1.179 2.494 -0.813,
            1.369 2.670 -0.510,
            1.234 2.735 -0.510,
            1.102 2.660 -0.661,
            1.056 2.549 -0.813,
            0.929 2.597 -0.813,
            1.096 2.793 -0.510,
            0.955 2.844 -0.510,
            0.836 2.755 -0.661,
            0.801 2.640 -0.813,
            0.670 2.676 -0.813,
            0.813 2.888 -0.510,
            0.668 2.925 -0.510,
            0.562 2.824 -0.661,
            0.538 2.706 -0.813,
            0.405 2.729 -0.813,
            0.521 2.954 -0.510,
            0.373 2.977 -0.510,
            0.282 2.865 -0.661,
            0.224 2.992 -0.510,
            0.075 2.999 -0.510,
            0.270 2.745 -0.813,
            0.135 2.755 -0.813,
            -0.000 2.879 -0.661,
            0.000 2.759 -0.813,
            -0.135 2.755 -0.813,
            -0.075 2.999 -0.510,
            -0.282 2.865 -0.661,
            -0.270 2.745 -0.813,
            -0.405 2.729 -0.813,
            -0.224 2.992 -0.510,
            -0.373 2.977 -0.510,
            -0.562 2.824 -0.661,
            -0.538 2.706 -0.813,
            -0.670 2.676 -0.813,
            -0.521 2.954 -0.510,
            -0.668 2.925 -0.510,
            -0.836 2.755 -0.661,
            -0.801 2.640 -0.813,
            -0.929 2.597 -0.813,
            -0.813 2.888 -0.510,
            -0.955 2.844 -0.510,
            -1.102 2.660 -0.661,
            -1.056 2.549 -0.813,
            -1.179 2.494 -0.813,
            -1.096 2.793 -0.510,
            -1.234 2.735 -0.510,
            -1.357 2.539 -0.661,
            -1.300 2.433 -0.813,
            -1.418 2.366 -0.813,
            -1.369 2.670 -0.510,
            -1.500 2.598 -0.510,
            -1.600 2.394 -0.661,
            -1.533 2.294 -0.813,
            -1.643 2.216 -0.813,
            -1.628 2.520 -0.510,
            -1.751 2.436 -0.510,
            -1.827 2.226 -0.661,
            -1.750 2.132 -0.813,
            -1.853 2.044 -0.813,
            -1.870 2.345 -0.510,
            -1.985 2.249 -0.510,
            -2.036 2.036 -0.661,
            -1.951 1.951 -0.813,
            -2.044 1.853 -0.813,
            -2.095 2.148 -0.510,
            -2.199 2.041 -0.510,
            -2.226 1.827 -0.661,
            -2.132 1.750 -0.813,
            -2.216 1.643 -0.813,
            -2.298 1.928 -0.510,
            -2.391 1.811 -0.510,
            -2.394 1.600 -0.661,
            -2.294 1.533 -0.813,
            -2.366 1.418 -0.813,
            -2.479 1.690 -0.510,
            -2.560 1.564 -0.510,
            -2.539 1.357 -0.661,
            -2.433 1.300 -0.813,
            -2.494 1.179 -0.813,
            -2.635 1.435 -0.510,
            -2.703 1.302 -0.510,
            -2.660 1.102 -0.661,
            -2.549 1.056 -0.813,
            -2.597 0.929 -0.813,
            -2.764 1.165 -0.510,
            -2.819 1.026 -0.510,
            -2.755 0.836 -0.661,
            -2.640 0.801 -0.813,
            -2.676 0.670 -0.813,
            -2.867 0.884 -0.510,
            -2.907 0.740 -0.510,
            -2.824 0.562 -0.661,
            -2.706 0.538 -0.813,
            -2.729 0.405 -0.813,
            -2.941 0.594 -0.510,
            -2.966 0.447 -0.510,
            -2.865 0.282 -0.661,
            -2.745 0.270 -0.813,
            -2.985 0.299 -0.510,
            0.000 2.213 -0.916,
            -0.135 -2.755 -0.813,
            -0.000 -2.213 -0.916,
            -0.000 -2.759 -0.813,
            -0.270 -2.745 -0.813,
            -0.405 -2.729 -0.813,
            -0.538 -2.706 -0.813,
            -0.925 2.298 -0.869,
            0.000 1.663 -0.996,
            -0.925 1.383 -0.996,
            0.000 1.110 -1.054,
            -1.846 1.829 -0.846,
            -0.925 0.462 -1.060,
            0.000 0.556 -1.088,
            0.000 0.000 -1.100,
            -1.846 0.917 -0.940,
            -0.925 -0.462 -1.060,
            -0.000 -0.556 -1.088,
            -0.000 -1.110 -1.054,
            -1.846 -0.000 -0.972,
            -2.706 -0.538 -0.813,
            -2.729 -0.405 -0.813,
            -2.745 -0.270 -0.813,
            -2.755 -0.135 -0.813,
            -0.925 -1.383 -0.996,
            -0.000 -1.663 -0.996,
            -1.533 -2.294 -0.813,
            -1.643 -2.216 -0.813,
            -1.846 -0.917 -0.940,
            -2.216 -1.643 -0.813,
            -2.294 -1.533 -0.813,
            -2.366 -1.418 -0.813,
            -2.433 -1.300 -0.813,
            -2.494 -1.179 -0.813,
            -2.549 -1.056 -0.813,
            -2.597 -0.929 -0.813,
            -2.640 -0.801 -0.813,
            -2.676 -0.670 -0.813,
            -0.925 -2.298 -0.869,
            -0.670 -2.676 -0.813,
            -0.801 -2.640 -0.813,
            -0.929 -2.597 -0.813,
            -1.056 -2.549 -0.813,
            -1.179 -2.494 -0.813,
            -1.300 -2.433 -0.813,
            -1.418 -2.366 -0.813,
            -1.846 -1.829 -0.846,
            -1.750 -2.132 -0.813,
            -1.853 -2.044 -0.813,
            -1.951 -1.951 -0.813,
            -2.044 -1.853 -0.813,
            -2.132 -1.750 -0.813,
            -0.000 -2.213 0.916,
            -0.405 -2.729 0.813,
            -0.270 -2.745 0.813,
            -0.135 -2.755 0.813,
            -0.000 -2.759 0.813,
            -0.538 -2.706 0.813,
            0.000 2.213 0.916,
            -0.925 -2.298 0.869,
            -1.533 -2.294 0.813,
            -1.418 -2.366 0.813,
            -1.300 -2.433 0.813,
            -1.179 -2.494 0.813,
            -1.056 -2.549 0.813,
            -0.929 -2.597 0.813,
            -0.801 -2.640 0.813,
            -0.670 -2.676 0.813,
            -0.000 -1.663 0.996,
            -0.925 -1.383 0.996,
            -1.643 -2.216 0.813,
            -0.000 -1.110 1.054,
            -1.846 -1.829 0.846,
            -2.216 -1.643 0.813,
            -2.132 -1.750 0.813,
            -2.044 -1.853 0.813,
            -1.951 -1.951 0.813,
            -1.853 -2.044 0.813,
            -1.750 -2.132 0.813,
            -0.925 -0.462 1.060,
            -0.000 -0.556 1.088,
            0.000 0.000 1.100,
            -1.846 -0.917 0.940,
            -2.706 -0.538 0.813,
            -2.676 -0.670 0.813,
            -2.640 -0.801 0.813,
            -2.597 -0.929 0.813,
            -2.549 -1.056 0.813,
            -2.494 -1.179 0.813,
            -2.433 -1.300 0.813,
            -2.366 -1.418 0.813,
            -2.294 -1.533 0.813,
            -0.925 0.462 1.060,
            0.000 0.556 1.088,
            0.000 1.110 1.054,
            -1.846 -0.000 0.972,
            -2.755 -0.135 0.813,
            -2.745 -0.270 0.813,
            -2.729 -0.405 0.813,
            -0.925 1.383 0.996,
            0.000 1.663 0.996,
            -1.846 0.917 0.940,
            -0.925 2.298 0.869,
            -1.846 1.829 0.846,
            0.135 -2.755 0.813,
            0.270 -2.745 0.813,
            0.405 -2.729 0.813,
            0.538 -2.706 0.813,
            0.670 -2.676 0.813,
            1.846 -1.374 0.901,
            1.750 -2.132 0.813,
            1.853 -2.044 0.813,
            1.951 -1.951 0.813,
            2.044 -1.853 0.813,
            2.132 -1.750 0.813,
            2.216 -1.643 0.813,
            2.294 -1.533 0.813,
            2.366 -1.418 0.813,
            2.433 -1.300 0.813,
            2.494 -1.179 0.813,
            2.549 -1.056 0.813,
            0.925 -1.842 0.940,
            0.801 -2.640 0.813,
            0.929 -2.597 0.813,
            1.056 -2.549 0.813,
            1.179 -2.494 0.813,
            1.300 -2.433 0.813,
            1.418 -2.366 0.813,
            1.533 -2.294 0.813,
            1.643 -2.216 0.813,
            1.846 -0.459 0.964,
            2.597 -0.929 0.813,
            2.640 -0.801 0.813,
            2.676 -0.670 0.813,
            2.706 -0.538 0.813,
            2.729 -0.405 0.813,
            2.745 -0.270 0.813,
            2.755 -0.135 0.813,
            0.925 -0.923 1.036,
            1.846 0.459 0.964,
            0.925 -0.000 1.068,
            1.846 1.374 0.901,
            0.925 0.923 1.036,
            0.925 1.842 0.940,
            -2.996 -0.150 0.510,
            -2.996 -0.150 -0.510,
            -2.985 -0.299 0.510,
            -2.985 -0.299 -0.510,
            -2.966 -0.447 0.510,
            -2.966 -0.447 -0.510,
            -2.941 -0.594 0.510,
            -2.941 -0.594 -0.510,
            -2.907 -0.740 0.510,
            -2.907 -0.740 -0.510,
            -2.867 -0.884 0.510,
            -2.867 -0.884 -0.510,
            -2.819 -1.026 0.510,
            -2.819 -1.026 -0.510,
            -2.764 -1.165 0.510,
            -2.764 -1.165 -0.510,
            -2.703 -1.302 0.510,
            -2.703 -1.302 -0.510,
            -2.635 -1.435 0.510,
            -2.635 -1.435 -0.510,
            -2.560 -1.564 0.510,
            -2.560 -1.564 -0.510,
            -2.479 -1.690 0.510,
            -2.479 -1.690 -0.510,
            -2.391 -1.811 0.510,
            -2.391 -1.811 -0.510,
            -2.298 -1.928 0.510,
            -2.298 -1.928 -0.510,
            -2.199 -2.041 0.510,
            -2.199 -2.041 -0.510,
            -2.095 -2.148 0.510,
            -2.095 -2.148 -0.510,
            -1.985 -2.249 0.510,
            -1.985 -2.249 -0.510,
            -1.870 -2.345 0.510,
            -1.870 -2.345 -0.510,
            -1.751 -2.436 0.510,
            -1.751 -2.436 -0.510,
            -1.628 -2.520 0.510,
            -1.628 -2.520 -0.510,
            -1.500 -2.598 0.510,
            -1.500 -2.598 -0.510,
            -1.369 -2.670 0.510,
            -1.369 -2.670 -0.510,
            -1.234 -2.735 0.510,
            -1.234 -2.735 -0.510,
            -1.096 -2.793 0.510,
            -1.096 -2.793 -0.510,
            -0.955 -2.844 0.510,
            -0.955 -2.844 -0.510,
            -0.813 -2.888 0.510,
            -0.813 -2.888 -0.510,
            -0.668 -2.925 0.510,
            -0.668 -2.925 -0.510,
            -0.521 -2.954 0.510,
            -0.521 -2.954 -0.510,
            -0.373 -2.977 0.510,
            -0.373 -2.977 -0.510,
            -0.224 -2.992 0.510,
            -0.224 -2.992 -0.510,
            -0.075 -2.999 0.510,
            -0.075 -2.999 -0.510,
            0.075 -2.999 0.510,
            0.075 -2.999 -0.510,
            0.224 -2.992 0.510,
            0.224 -2.992 -0.510,
            0.373 -2.977 0.510,
            0.373 -2.977 -0.510,
            0.521 -2.954 0.510,
            0.521 -2.954 -0.510,
            0.668 -2.925 0.510,
            0.668 -2.925 -0.510,
            0.813 -2.888 0.510,
            0.813 -2.888 -0.510,
            0.955 -2.844 0.510,
            0.955 -2.844 -0.510,
            1.096 -2.793 0.510,
            1.096 -2.793 -0.510,
            1.234 -2.735 0.510,
            1.234 -2.735 -0.510,
            1.369 -2.670 0.510,
            1.369 -2.670 -0.510,
            1.500 -2.598 0.510,
            1.500 -2.598 -0.510,
            1.628 -2.520 0.510,
            1.628 -2.520 -0.510,
            1.751 -2.436 0.510,
            1.751 -2.436 -0.510,
            1.870 -2.345 0.510,
            1.870 -2.345 -0.510,
            1.985 -2.249 0.510,
            1.985 -2.249 -0.510,
            2.095 -2.148 0.510,
            2.095 -2.148 -0.510,
            2.199 -2.041 0.510,
            2.199 -2.041 -0.510,
            2.298 -1.928 0.510,
            2.298 -1.928 -0.510,
            2.391 -1.811 0.510,
            2.391 -1.811 -0.510,
            2.479 -1.690 0.510,
            2.479 -1.690 -0.510,
            2.560 -1.564 0.510,
            2.560 -1.564 -0.510,
            2.635 -1.435 0.510,
            2.635 -1.435 -0.510,
            2.703 -1.302 0.510,
            2.703 -1.302 -0.510,
            2.764 -1.165 0.510,
            2.764 -1.165 -0.510,
            2.819 -1.026 0.510,
            2.819 -1.026 -0.510,
            2.867 -0.884 0.510,
            2.867 -0.884 -0.510,
            2.907 -0.740 0.510,
            2.907 -0.740 -0.510,
            2.941 -0.594 0.510,
            2.941 -0.594 -0.510,
            2.966 -0.447 0.510,
            2.966 -0.447 -0.510,
            2.985 -0.299 0.510,
            2.985 -0.299 -0.510,
            2.996 -0.150 0.510,
            2.996 -0.150 -0.510,
            0.670 -2.676 -0.813,
            0.538 -2.706 -0.813,
            0.405 -2.729 -0.813,
            0.270 -2.745 -0.813,
            0.135 -2.755 -0.813,
            1.846 1.374 -0.901,
            0.925 1.842 -0.940,
            1.846 0.459 -0.964,
            0.925 0.923 -1.036,
            1.846 -0.459 -0.964,
            2.755 -0.135 -0.813,
            2.745 -0.270 -0.813,
            2.729 -0.405 -0.813,
            2.706 -0.538 -0.813,
            2.676 -0.670 -0.813,
            2.640 -0.801 -0.813,
            2.597 -0.929 -0.813,
            2.549 -1.056 -0.813,
            0.925 -0.000 -1.068,
            1.846 -1.374 -0.901,
            2.494 -1.179 -0.813,
            2.433 -1.300 -0.813,
            2.366 -1.418 -0.813,
            2.294 -1.533 -0.813,
            2.216 -1.643 -0.813,
            2.132 -1.750 -0.813,
            2.044 -1.853 -0.813,
            1.951 -1.951 -0.813,
            1.853 -2.044 -0.813,
            1.750 -2.132 -0.813,
            0.925 -0.923 -1.036,
            0.925 -1.842 -0.940,
            1.643 -2.216 -0.813,
            1.533 -2.294 -0.813,
            1.418 -2.366 -0.813,
            1.300 -2.433 -0.813,
            1.179 -2.494 -0.813,
            1.056 -2.549 -0.813,
            0.929 -2.597 -0.813,
            0.801 -2.640 -0.813,
            -2.865 -0.282 -0.661,
            -2.824 -0.562 -0.661,
            -2.755 -0.836 -0.661,
            -2.660 -1.102 -0.661,
            -2.539 -1.357 -0.661,
            -2.394 -1.600 -0.661,
            -2.226 -1.827 -0.661,
            -2.036 -2.036 -0.661,
            -1.827 -2.226 -0.661,
            -1.600 -2.394 -0.661,
            -1.357 -2.539 -0.661,
            -1.102 -2.660 -0.661,
            -0.836 -2.755 -0.661,
            -0.562 -2.824 -0.661,
            -0.282 -2.865 -0.661,
            -0.000 -2.879 -0.661,
            0.282 -2.865 -0.661,
            0.562 -2.824 -0.661,
            0.836 -2.755 -0.661,
            1.102 -2.660 -0.661,
            1.357 -2.539 -0.661,
            1.600 -2.394 -0.661,
            1.827 -2.226 -0.661,
            2.036 -2.036 -0.661,
            2.226 -1.827 -0.661,
            2.394 -1.600 -0.661,
            2.539 -1.357 -0.661,
            2.660 -1.102 -0.661,
            2.755 -0.836 -0.661,
            2.824 -0.562 -0.661,
            2.865 -0.282 -0.661,
            2.865 -0.282 0.661,
            2.824 -0.562 0.661,
            2.755 -0.836 0.661,
            2.660 -1.102 0.661,
            2.539 -1.357 0.661,
            2.394 -1.600 0.661,
            2.226 -1.827 0.661,
            2.036 -2.036 0.661,
            1.827 -2.226 0.661,
            1.600 -2.394 0.661,
            1.357 -2.539 0.661,
            1.102 -2.660 0.661,
            0.836 -2.755 0.661,
            0.562 -2.824 0.661,
            0.282 -2.865 0.661,
            0.000 -2.879 0.661,
            -0.282 -2.865 0.661,
            -0.562 -2.824 0.661,
            -0.836 -2.755 0.661,
            -1.102 -2.660 0.661,
            -1.357 -2.539 0.661,
            -1.600 -2.394 0.661,
            -1.827 -2.226 0.661,
            -2.036 -2.036 0.661,
            -2.226 -1.827 0.661,
            -2.394 -1.600 0.661,
            -2.539 -1.357 0.661,
            -2.660 -1.102 0.661,
            -2.755 -0.836 0.661,
            -2.824 -0.562 0.661,
            -2.865 -0.282 0.661
          ]
        }
        coordIndex [
          0, 1, 2, -1,
          3, 0, 2, -1,
          4, 5, 6, -1,
          4, 7, 5, -1,
          8, 9, 10, -1,
          8, 2, 9, -1,
          8, 11, 3, -1,
          8, 12, 11, -1,
          8, 3, 2, -1,
          13, 14, 15, -1,
          13, 10, 14, -1,
          13, 16, 12, -1,
          13, 17, 16, -1,
          13, 12, 8, -1,
          13, 8, 10, -1,
          18, 19, 20, -1,
          18, 15, 19, -1,
          18, 17, 13, -1,
          18, 21, 17, -1,
          18, 22, 21, -1,
          18, 13, 15, -1,
          23, 22, 18, -1,
          23, 24, 25, -1,
          23, 20, 24, -1,
          23, 18, 20, -1,
          23, 26, 22, -1,
          23, 27, 26, -1,
          28, 29, 30, -1,
          28, 25, 29, -1,
          28, 31, 27, -1,
          28, 32, 31, -1,
          28, 27, 23, -1,
          28, 23, 25, -1,
          33, 34, 35, -1,
          33, 30, 34, -1,
          33, 32, 28, -1,
          33, 36, 32, -1,
          33, 37, 36, -1,
          33, 28, 30, -1,
          38, 39, 40, -1,
          38, 35, 39, -1,
          38, 41, 37, -1,
          38, 42, 41, -1,
          38, 33, 35, -1,
          38, 37, 33, -1,
          43, 44, 45, -1,
          43, 40, 44, -1,
          43, 46, 42, -1,
          43, 47, 46, -1,
          43, 38, 40, -1,
          43, 42, 38, -1,
          48, 43, 45, -1,
          48, 47, 43, -1,
          48, 49, 50, -1,
          48, 45, 49, -1,
          48, 51, 47, -1,
          48, 52, 51, -1,
          53, 48, 50, -1,
          53, 54, 55, -1,
          53, 50, 54, -1,
          53, 52, 48, -1,
          53, 56, 52, -1,
          53, 57, 56, -1,
          58, 59, 60, -1,
          58, 55, 59, -1,
          58, 61, 57, -1,
          58, 62, 61, -1,
          58, 53, 55, -1,
          58, 57, 53, -1,
          63, 62, 58, -1,
          63, 64, 65, -1,
          63, 60, 64, -1,
          63, 66, 62, -1,
          63, 67, 66, -1,
          63, 58, 60, -1,
          68, 69, 70, -1,
          68, 65, 69, -1,
          68, 63, 65, -1,
          68, 67, 63, -1,
          68, 71, 67, -1,
          68, 72, 71, -1,
          73, 74, 75, -1,
          73, 70, 74, -1,
          73, 68, 70, -1,
          73, 76, 72, -1,
          73, 77, 76, -1,
          73, 72, 68, -1,
          78, 77, 73, -1,
          78, 79, 77, -1,
          78, 80, 79, -1,
          78, 73, 75, -1,
          78, 81, 82, -1,
          78, 75, 81, -1,
          83, 78, 82, -1,
          83, 80, 78, -1,
          83, 84, 85, -1,
          83, 86, 80, -1,
          83, 82, 84, -1,
          87, 88, 89, -1,
          87, 85, 88, -1,
          87, 90, 86, -1,
          87, 91, 90, -1,
          87, 86, 83, -1,
          87, 83, 85, -1,
          92, 93, 94, -1,
          92, 89, 93, -1,
          92, 91, 87, -1,
          92, 95, 91, -1,
          92, 96, 95, -1,
          92, 87, 89, -1,
          97, 98, 99, -1,
          97, 94, 98, -1,
          97, 96, 92, -1,
          97, 92, 94, -1,
          97, 100, 96, -1,
          97, 101, 100, -1,
          102, 103, 104, -1,
          102, 99, 103, -1,
          102, 97, 99, -1,
          102, 105, 101, -1,
          102, 106, 105, -1,
          102, 101, 97, -1,
          107, 108, 109, -1,
          107, 104, 108, -1,
          107, 102, 104, -1,
          107, 106, 102, -1,
          107, 110, 106, -1,
          107, 111, 110, -1,
          112, 113, 114, -1,
          112, 109, 113, -1,
          112, 107, 109, -1,
          112, 111, 107, -1,
          112, 115, 111, -1,
          112, 116, 115, -1,
          117, 118, 119, -1,
          117, 114, 118, -1,
          117, 120, 116, -1,
          117, 112, 114, -1,
          117, 121, 120, -1,
          117, 116, 112, -1,
          122, 121, 117, -1,
          122, 123, 124, -1,
          122, 119, 123, -1,
          122, 125, 121, -1,
          122, 126, 125, -1,
          122, 117, 119, -1,
          127, 128, 129, -1,
          127, 124, 128, -1,
          127, 122, 124, -1,
          127, 126, 122, -1,
          127, 130, 126, -1,
          127, 131, 130, -1,
          132, 133, 134, -1,
          132, 129, 133, -1,
          132, 127, 129, -1,
          132, 131, 127, -1,
          132, 135, 131, -1,
          132, 136, 135, -1,
          137, 138, 139, -1,
          137, 134, 138, -1,
          137, 132, 134, -1,
          137, 136, 132, -1,
          137, 140, 136, -1,
          137, 141, 140, -1,
          142, 143, 144, -1,
          142, 139, 143, -1,
          142, 137, 139, -1,
          142, 141, 137, -1,
          142, 145, 141, -1,
          142, 146, 145, -1,
          147, 148, 149, -1,
          147, 144, 148, -1,
          147, 142, 144, -1,
          147, 146, 142, -1,
          147, 150, 146, -1,
          147, 151, 150, -1,
          152, 153, 154, -1,
          152, 149, 153, -1,
          152, 151, 147, -1,
          152, 155, 151, -1,
          152, 147, 149, -1,
          152, 156, 155, -1,
          157, 158, 5, -1,
          157, 156, 152, -1,
          157, 154, 158, -1,
          157, 5, 7, -1,
          157, 159, 156, -1,
          157, 7, 159, -1,
          157, 152, 154, -1,
          160, 161, 162, -1,
          163, 160, 162, -1,
          164, 165, 166, -1,
          164, 167, 165, -1,
          168, 169, 170, -1,
          168, 162, 169, -1,
          168, 171, 163, -1,
          168, 172, 171, -1,
          168, 163, 162, -1,
          173, 174, 175, -1,
          173, 170, 174, -1,
          173, 176, 172, -1,
          173, 177, 176, -1,
          173, 172, 168, -1,
          173, 168, 170, -1,
          178, 179, 180, -1,
          178, 175, 179, -1,
          178, 177, 173, -1,
          178, 181, 177, -1,
          178, 182, 181, -1,
          178, 173, 175, -1,
          183, 182, 178, -1,
          183, 184, 185, -1,
          183, 180, 184, -1,
          183, 178, 180, -1,
          183, 186, 182, -1,
          183, 187, 186, -1,
          188, 189, 190, -1,
          188, 185, 189, -1,
          188, 191, 187, -1,
          188, 192, 191, -1,
          188, 187, 183, -1,
          188, 183, 185, -1,
          193, 194, 195, -1,
          193, 190, 194, -1,
          193, 192, 188, -1,
          193, 196, 192, -1,
          193, 197, 196, -1,
          193, 188, 190, -1,
          198, 199, 200, -1,
          198, 195, 199, -1,
          198, 201, 197, -1,
          198, 202, 201, -1,
          198, 193, 195, -1,
          198, 197, 193, -1,
          203, 204, 205, -1,
          203, 200, 204, -1,
          203, 206, 202, -1,
          203, 207, 206, -1,
          203, 198, 200, -1,
          203, 202, 198, -1,
          208, 203, 205, -1,
          208, 207, 203, -1,
          208, 209, 210, -1,
          208, 205, 209, -1,
          208, 211, 207, -1,
          208, 212, 211, -1,
          213, 208, 210, -1,
          213, 214, 215, -1,
          213, 210, 214, -1,
          213, 212, 208, -1,
          213, 216, 212, -1,
          213, 217, 216, -1,
          218, 219, 220, -1,
          218, 215, 219, -1,
          218, 221, 217, -1,
          218, 222, 221, -1,
          218, 213, 215, -1,
          218, 217, 213, -1,
          223, 222, 218, -1,
          223, 224, 225, -1,
          223, 220, 224, -1,
          223, 226, 222, -1,
          223, 227, 226, -1,
          223, 218, 220, -1,
          228, 229, 230, -1,
          228, 225, 229, -1,
          228, 223, 225, -1,
          228, 227, 223, -1,
          228, 231, 227, -1,
          228, 232, 231, -1,
          233, 234, 235, -1,
          233, 230, 234, -1,
          233, 228, 230, -1,
          233, 236, 232, -1,
          233, 237, 236, -1,
          233, 232, 228, -1,
          238, 237, 233, -1,
          238, 239, 237, -1,
          238, 240, 239, -1,
          238, 233, 235, -1,
          238, 241, 242, -1,
          238, 235, 241, -1,
          243, 238, 242, -1,
          243, 240, 238, -1,
          243, 244, 245, -1,
          243, 246, 240, -1,
          243, 242, 244, -1,
          247, 248, 249, -1,
          247, 245, 248, -1,
          247, 250, 246, -1,
          247, 251, 250, -1,
          247, 246, 243, -1,
          247, 243, 245, -1,
          252, 253, 254, -1,
          252, 249, 253, -1,
          252, 251, 247, -1,
          252, 255, 251, -1,
          252, 256, 255, -1,
          252, 247, 249, -1,
          257, 258, 259, -1,
          257, 254, 258, -1,
          257, 256, 252, -1,
          257, 252, 254, -1,
          257, 260, 256, -1,
          257, 261, 260, -1,
          262, 263, 264, -1,
          262, 259, 263, -1,
          262, 257, 259, -1,
          262, 265, 261, -1,
          262, 266, 265, -1,
          262, 261, 257, -1,
          267, 268, 269, -1,
          267, 264, 268, -1,
          267, 262, 264, -1,
          267, 266, 262, -1,
          267, 270, 266, -1,
          267, 271, 270, -1,
          272, 273, 274, -1,
          272, 269, 273, -1,
          272, 267, 269, -1,
          272, 271, 267, -1,
          272, 275, 271, -1,
          272, 276, 275, -1,
          277, 278, 279, -1,
          277, 274, 278, -1,
          277, 280, 276, -1,
          277, 272, 274, -1,
          277, 281, 280, -1,
          277, 276, 272, -1,
          282, 281, 277, -1,
          282, 283, 284, -1,
          282, 279, 283, -1,
          282, 285, 281, -1,
          282, 286, 285, -1,
          282, 277, 279, -1,
          287, 288, 289, -1,
          287, 284, 288, -1,
          287, 282, 284, -1,
          287, 286, 282, -1,
          287, 290, 286, -1,
          287, 291, 290, -1,
          292, 293, 294, -1,
          292, 289, 293, -1,
          292, 287, 289, -1,
          292, 291, 287, -1,
          292, 295, 291, -1,
          292, 296, 295, -1,
          297, 298, 299, -1,
          297, 294, 298, -1,
          297, 292, 294, -1,
          297, 296, 292, -1,
          297, 300, 296, -1,
          297, 301, 300, -1,
          302, 303, 304, -1,
          302, 299, 303, -1,
          302, 297, 299, -1,
          302, 301, 297, -1,
          302, 305, 301, -1,
          302, 306, 305, -1,
          307, 308, 309, -1,
          307, 304, 308, -1,
          307, 302, 304, -1,
          307, 306, 302, -1,
          307, 310, 306, -1,
          307, 311, 310, -1,
          312, 313, 314, -1,
          312, 309, 313, -1,
          312, 311, 307, -1,
          312, 315, 311, -1,
          312, 307, 309, -1,
          312, 316, 315, -1,
          317, 318, 165, -1,
          317, 316, 312, -1,
          317, 314, 318, -1,
          317, 165, 167, -1,
          317, 319, 316, -1,
          317, 167, 319, -1,
          317, 312, 314, -1,
          320, 249, 248, -1,
          320, 248, 245, -1,
          320, 245, 244, -1,
          253, 249, 320, -1,
          321, 322, 323, -1,
          324, 322, 321, -1,
          325, 322, 324, -1,
          326, 322, 325, -1,
          327, 320, 328, -1,
          327, 273, 269, -1,
          327, 269, 268, -1,
          327, 268, 264, -1,
          327, 264, 263, -1,
          327, 263, 259, -1,
          327, 259, 258, -1,
          327, 258, 254, -1,
          327, 254, 253, -1,
          327, 253, 320, -1,
          329, 328, 330, -1,
          329, 327, 328, -1,
          329, 273, 327, -1,
          329, 274, 273, -1,
          331, 289, 288, -1,
          331, 288, 284, -1,
          331, 284, 283, -1,
          331, 274, 329, -1,
          331, 283, 279, -1,
          331, 279, 278, -1,
          331, 278, 274, -1,
          332, 333, 334, -1,
          332, 330, 333, -1,
          332, 329, 330, -1,
          335, 331, 329, -1,
          335, 313, 309, -1,
          335, 309, 308, -1,
          335, 308, 304, -1,
          335, 304, 303, -1,
          335, 289, 331, -1,
          335, 303, 299, -1,
          335, 299, 298, -1,
          335, 298, 294, -1,
          335, 294, 293, -1,
          335, 293, 289, -1,
          335, 329, 332, -1,
          336, 334, 337, -1,
          336, 337, 338, -1,
          336, 332, 334, -1,
          339, 332, 336, -1,
          339, 335, 332, -1,
          339, 340, 341, -1,
          339, 341, 342, -1,
          339, 342, 343, -1,
          339, 343, 166, -1,
          339, 166, 165, -1,
          339, 165, 318, -1,
          339, 318, 314, -1,
          339, 314, 313, -1,
          339, 313, 335, -1,
          344, 338, 345, -1,
          344, 346, 347, -1,
          344, 336, 338, -1,
          348, 339, 336, -1,
          348, 349, 350, -1,
          348, 350, 351, -1,
          348, 351, 352, -1,
          348, 352, 353, -1,
          348, 353, 354, -1,
          348, 354, 355, -1,
          348, 355, 356, -1,
          348, 356, 357, -1,
          348, 357, 340, -1,
          348, 336, 344, -1,
          348, 340, 339, -1,
          358, 345, 322, -1,
          358, 346, 344, -1,
          358, 326, 359, -1,
          358, 359, 360, -1,
          358, 360, 361, -1,
          358, 361, 362, -1,
          358, 362, 363, -1,
          358, 363, 364, -1,
          358, 364, 365, -1,
          358, 365, 346, -1,
          358, 322, 326, -1,
          358, 344, 345, -1,
          366, 344, 347, -1,
          366, 348, 344, -1,
          366, 347, 367, -1,
          366, 367, 368, -1,
          366, 368, 369, -1,
          366, 369, 370, -1,
          366, 370, 371, -1,
          366, 371, 349, -1,
          366, 349, 348, -1,
          7, 160, 163, -1,
          7, 4, 160, -1,
          159, 163, 171, -1,
          159, 7, 163, -1,
          156, 171, 172, -1,
          156, 159, 171, -1,
          155, 172, 176, -1,
          155, 156, 172, -1,
          151, 176, 177, -1,
          151, 155, 176, -1,
          150, 177, 181, -1,
          150, 151, 177, -1,
          146, 181, 182, -1,
          146, 150, 181, -1,
          145, 182, 186, -1,
          145, 146, 182, -1,
          141, 186, 187, -1,
          141, 145, 186, -1,
          140, 187, 191, -1,
          140, 141, 187, -1,
          136, 191, 192, -1,
          136, 140, 191, -1,
          135, 192, 196, -1,
          135, 136, 192, -1,
          131, 196, 197, -1,
          131, 135, 196, -1,
          130, 197, 201, -1,
          130, 131, 197, -1,
          126, 201, 202, -1,
          126, 130, 201, -1,
          125, 202, 206, -1,
          125, 126, 202, -1,
          121, 206, 207, -1,
          121, 207, 211, -1,
          121, 125, 206, -1,
          120, 121, 211, -1,
          116, 120, 211, -1,
          116, 211, 212, -1,
          115, 116, 212, -1,
          115, 212, 216, -1,
          115, 216, 217, -1,
          111, 115, 217, -1,
          111, 217, 221, -1,
          110, 111, 221, -1,
          106, 221, 222, -1,
          106, 110, 221, -1,
          105, 222, 226, -1,
          105, 106, 222, -1,
          101, 226, 227, -1,
          101, 227, 231, -1,
          101, 105, 226, -1,
          100, 231, 232, -1,
          100, 101, 231, -1,
          96, 100, 232, -1,
          95, 232, 236, -1,
          95, 96, 232, -1,
          91, 236, 237, -1,
          91, 237, 239, -1,
          91, 95, 236, -1,
          90, 91, 239, -1,
          86, 239, 240, -1,
          86, 90, 239, -1,
          80, 240, 246, -1,
          80, 86, 240, -1,
          79, 246, 250, -1,
          79, 250, 251, -1,
          79, 80, 246, -1,
          77, 79, 251, -1,
          76, 251, 255, -1,
          76, 77, 251, -1,
          72, 255, 256, -1,
          72, 76, 255, -1,
          71, 256, 260, -1,
          71, 72, 256, -1,
          67, 260, 261, -1,
          67, 71, 260, -1,
          66, 261, 265, -1,
          66, 67, 261, -1,
          62, 265, 266, -1,
          62, 66, 265, -1,
          61, 266, 270, -1,
          61, 62, 266, -1,
          57, 270, 271, -1,
          57, 61, 270, -1,
          56, 57, 271, -1,
          56, 271, 275, -1,
          52, 56, 275, -1,
          52, 275, 276, -1,
          51, 52, 276, -1,
          51, 276, 280, -1,
          47, 51, 280, -1,
          47, 280, 281, -1,
          47, 281, 285, -1,
          46, 47, 285, -1,
          42, 46, 285, -1,
          42, 285, 286, -1,
          41, 42, 286, -1,
          41, 286, 290, -1,
          37, 41, 290, -1,
          37, 290, 291, -1,
          37, 291, 295, -1,
          36, 37, 295, -1,
          32, 36, 295, -1,
          32, 295, 296, -1,
          31, 32, 296, -1,
          31, 296, 300, -1,
          27, 31, 300, -1,
          27, 300, 301, -1,
          27, 301, 305, -1,
          26, 27, 305, -1,
          22, 305, 306, -1,
          22, 26, 305, -1,
          21, 306, 310, -1,
          21, 22, 306, -1,
          17, 310, 311, -1,
          17, 21, 310, -1,
          16, 311, 315, -1,
          16, 17, 311, -1,
          12, 315, 316, -1,
          12, 16, 315, -1,
          11, 316, 319, -1,
          11, 12, 316, -1,
          3, 319, 167, -1,
          3, 167, 164, -1,
          3, 11, 319, -1,
          0, 3, 164, -1,
          372, 373, 374, -1,
          372, 374, 375, -1,
          372, 375, 376, -1,
          377, 373, 372, -1,
          82, 378, 84, -1,
          81, 378, 82, -1,
          75, 378, 81, -1,
          74, 378, 75, -1,
          379, 380, 381, -1,
          379, 381, 382, -1,
          379, 382, 383, -1,
          379, 383, 384, -1,
          379, 384, 385, -1,
          379, 385, 386, -1,
          379, 386, 387, -1,
          379, 387, 377, -1,
          379, 372, 388, -1,
          379, 377, 372, -1,
          389, 379, 388, -1,
          389, 390, 380, -1,
          389, 388, 391, -1,
          389, 380, 379, -1,
          392, 390, 389, -1,
          392, 393, 394, -1,
          392, 394, 395, -1,
          392, 395, 396, -1,
          392, 396, 397, -1,
          392, 397, 398, -1,
          392, 398, 390, -1,
          399, 389, 391, -1,
          399, 391, 400, -1,
          399, 400, 401, -1,
          402, 393, 392, -1,
          402, 392, 389, -1,
          402, 389, 399, -1,
          402, 403, 404, -1,
          402, 404, 405, -1,
          402, 405, 406, -1,
          402, 406, 407, -1,
          402, 407, 408, -1,
          402, 408, 409, -1,
          402, 409, 410, -1,
          402, 410, 411, -1,
          402, 411, 393, -1,
          412, 399, 401, -1,
          412, 413, 414, -1,
          412, 401, 413, -1,
          415, 403, 402, -1,
          415, 402, 399, -1,
          415, 14, 10, -1,
          415, 10, 9, -1,
          415, 9, 2, -1,
          415, 2, 1, -1,
          415, 1, 416, -1,
          415, 416, 417, -1,
          415, 417, 418, -1,
          415, 418, 403, -1,
          415, 399, 412, -1,
          419, 54, 50, -1,
          419, 412, 414, -1,
          419, 414, 420, -1,
          421, 412, 419, -1,
          421, 415, 412, -1,
          421, 35, 34, -1,
          421, 34, 30, -1,
          421, 30, 29, -1,
          421, 29, 25, -1,
          421, 25, 24, -1,
          421, 24, 20, -1,
          421, 20, 19, -1,
          421, 19, 15, -1,
          421, 15, 14, -1,
          421, 14, 415, -1,
          422, 74, 70, -1,
          422, 70, 69, -1,
          422, 69, 65, -1,
          422, 65, 64, -1,
          422, 64, 60, -1,
          422, 60, 59, -1,
          422, 54, 419, -1,
          422, 59, 55, -1,
          422, 55, 54, -1,
          422, 419, 420, -1,
          422, 420, 378, -1,
          422, 378, 74, -1,
          423, 419, 50, -1,
          423, 50, 49, -1,
          423, 49, 45, -1,
          423, 45, 44, -1,
          423, 44, 40, -1,
          423, 40, 39, -1,
          423, 39, 35, -1,
          423, 421, 419, -1,
          423, 35, 421, -1,
          372, 376, 424, -1,
          372, 424, 425, -1,
          372, 425, 426, -1,
          372, 426, 427, -1,
          372, 427, 428, -1,
          378, 94, 93, -1,
          89, 378, 93, -1,
          88, 378, 89, -1,
          85, 378, 88, -1,
          84, 378, 85, -1,
          429, 430, 431, -1,
          429, 431, 432, -1,
          429, 432, 433, -1,
          429, 433, 434, -1,
          429, 434, 435, -1,
          429, 435, 436, -1,
          429, 436, 437, -1,
          429, 437, 438, -1,
          429, 438, 439, -1,
          429, 439, 440, -1,
          441, 388, 372, -1,
          441, 428, 442, -1,
          441, 442, 443, -1,
          441, 443, 444, -1,
          441, 444, 445, -1,
          441, 445, 446, -1,
          441, 446, 447, -1,
          441, 447, 448, -1,
          441, 448, 449, -1,
          441, 449, 430, -1,
          441, 430, 429, -1,
          441, 372, 428, -1,
          450, 440, 451, -1,
          450, 451, 452, -1,
          450, 452, 453, -1,
          450, 453, 454, -1,
          450, 454, 455, -1,
          450, 455, 456, -1,
          450, 456, 457, -1,
          450, 457, 6, -1,
          450, 429, 440, -1,
          458, 391, 388, -1,
          458, 400, 391, -1,
          458, 429, 450, -1,
          458, 441, 429, -1,
          458, 388, 441, -1,
          459, 6, 5, -1,
          459, 5, 158, -1,
          459, 158, 154, -1,
          459, 154, 153, -1,
          459, 153, 149, -1,
          459, 149, 148, -1,
          459, 148, 144, -1,
          459, 144, 143, -1,
          459, 450, 6, -1,
          460, 401, 400, -1,
          460, 450, 459, -1,
          460, 413, 401, -1,
          460, 458, 450, -1,
          460, 400, 458, -1,
          461, 143, 139, -1,
          461, 139, 138, -1,
          461, 138, 134, -1,
          461, 134, 133, -1,
          461, 133, 129, -1,
          461, 129, 128, -1,
          461, 128, 124, -1,
          461, 124, 123, -1,
          461, 123, 119, -1,
          461, 119, 118, -1,
          461, 459, 143, -1,
          462, 460, 459, -1,
          462, 414, 413, -1,
          462, 459, 461, -1,
          462, 413, 460, -1,
          463, 414, 462, -1,
          463, 94, 378, -1,
          463, 118, 114, -1,
          463, 114, 113, -1,
          463, 113, 109, -1,
          463, 109, 108, -1,
          463, 108, 104, -1,
          463, 104, 103, -1,
          463, 103, 99, -1,
          463, 99, 98, -1,
          463, 98, 94, -1,
          463, 378, 420, -1,
          463, 420, 414, -1,
          463, 461, 118, -1,
          463, 462, 461, -1,
          464, 0, 164, -1,
          464, 164, 465, -1,
          466, 465, 467, -1,
          466, 464, 465, -1,
          468, 467, 469, -1,
          468, 466, 467, -1,
          470, 469, 471, -1,
          470, 468, 469, -1,
          472, 471, 473, -1,
          472, 470, 471, -1,
          474, 473, 475, -1,
          474, 472, 473, -1,
          476, 475, 477, -1,
          476, 474, 475, -1,
          478, 477, 479, -1,
          478, 476, 477, -1,
          480, 479, 481, -1,
          480, 478, 479, -1,
          482, 481, 483, -1,
          482, 480, 481, -1,
          484, 483, 485, -1,
          484, 482, 483, -1,
          486, 485, 487, -1,
          486, 484, 485, -1,
          488, 487, 489, -1,
          488, 486, 487, -1,
          490, 489, 491, -1,
          490, 488, 489, -1,
          492, 491, 493, -1,
          492, 490, 491, -1,
          494, 493, 495, -1,
          494, 492, 493, -1,
          496, 495, 497, -1,
          496, 494, 495, -1,
          498, 497, 499, -1,
          498, 496, 497, -1,
          500, 498, 499, -1,
          500, 499, 501, -1,
          502, 500, 501, -1,
          502, 501, 503, -1,
          504, 502, 503, -1,
          504, 503, 505, -1,
          506, 504, 505, -1,
          506, 505, 507, -1,
          508, 507, 509, -1,
          508, 506, 507, -1,
          510, 509, 511, -1,
          510, 508, 509, -1,
          512, 511, 513, -1,
          512, 510, 511, -1,
          514, 513, 515, -1,
          514, 512, 513, -1,
          516, 515, 517, -1,
          516, 514, 515, -1,
          518, 517, 519, -1,
          518, 516, 517, -1,
          520, 519, 521, -1,
          520, 518, 519, -1,
          522, 521, 523, -1,
          522, 520, 521, -1,
          524, 523, 525, -1,
          524, 522, 523, -1,
          526, 525, 527, -1,
          526, 524, 525, -1,
          528, 527, 529, -1,
          528, 526, 527, -1,
          530, 529, 531, -1,
          530, 528, 529, -1,
          532, 531, 533, -1,
          532, 530, 531, -1,
          534, 533, 535, -1,
          534, 532, 533, -1,
          536, 535, 537, -1,
          536, 534, 535, -1,
          538, 537, 539, -1,
          538, 536, 537, -1,
          540, 539, 541, -1,
          540, 538, 539, -1,
          542, 541, 543, -1,
          542, 540, 541, -1,
          544, 543, 545, -1,
          544, 542, 543, -1,
          546, 545, 547, -1,
          546, 544, 545, -1,
          548, 546, 547, -1,
          548, 547, 549, -1,
          550, 548, 549, -1,
          550, 549, 551, -1,
          552, 550, 551, -1,
          552, 551, 553, -1,
          554, 552, 553, -1,
          554, 553, 555, -1,
          556, 554, 555, -1,
          556, 555, 557, -1,
          558, 556, 557, -1,
          558, 557, 559, -1,
          560, 558, 559, -1,
          560, 559, 561, -1,
          562, 560, 561, -1,
          562, 561, 563, -1,
          564, 562, 563, -1,
          564, 563, 565, -1,
          566, 564, 565, -1,
          566, 565, 567, -1,
          568, 566, 567, -1,
          568, 567, 569, -1,
          570, 568, 569, -1,
          570, 569, 571, -1,
          572, 570, 571, -1,
          572, 571, 573, -1,
          574, 572, 573, -1,
          574, 573, 575, -1,
          576, 575, 577, -1,
          576, 574, 575, -1,
          578, 577, 579, -1,
          578, 576, 577, -1,
          580, 579, 581, -1,
          580, 578, 579, -1,
          582, 581, 583, -1,
          582, 580, 581, -1,
          584, 583, 585, -1,
          584, 582, 583, -1,
          586, 585, 587, -1,
          586, 584, 585, -1,
          4, 587, 160, -1,
          4, 586, 587, -1,
          320, 244, 242, -1,
          320, 242, 241, -1,
          320, 241, 235, -1,
          320, 235, 234, -1,
          320, 234, 230, -1,
          322, 588, 589, -1,
          590, 322, 589, -1,
          591, 322, 590, -1,
          592, 322, 591, -1,
          323, 322, 592, -1,
          593, 209, 205, -1,
          593, 205, 204, -1,
          593, 204, 200, -1,
          593, 200, 199, -1,
          593, 199, 195, -1,
          593, 195, 194, -1,
          593, 194, 190, -1,
          593, 190, 189, -1,
          593, 189, 185, -1,
          593, 185, 184, -1,
          594, 330, 328, -1,
          594, 328, 320, -1,
          594, 230, 229, -1,
          594, 229, 225, -1,
          594, 225, 224, -1,
          594, 224, 220, -1,
          594, 220, 219, -1,
          594, 219, 215, -1,
          594, 215, 214, -1,
          594, 214, 210, -1,
          594, 210, 209, -1,
          594, 320, 230, -1,
          594, 209, 593, -1,
          595, 593, 184, -1,
          595, 184, 180, -1,
          595, 180, 179, -1,
          595, 179, 175, -1,
          595, 175, 174, -1,
          595, 174, 170, -1,
          595, 170, 169, -1,
          595, 169, 162, -1,
          595, 162, 161, -1,
          596, 333, 330, -1,
          596, 594, 593, -1,
          596, 593, 595, -1,
          596, 330, 594, -1,
          597, 161, 598, -1,
          597, 598, 599, -1,
          597, 599, 600, -1,
          597, 600, 601, -1,
          597, 601, 602, -1,
          597, 602, 603, -1,
          597, 603, 604, -1,
          597, 604, 605, -1,
          597, 595, 161, -1,
          606, 337, 334, -1,
          606, 334, 333, -1,
          606, 333, 596, -1,
          606, 596, 595, -1,
          606, 595, 597, -1,
          607, 605, 608, -1,
          607, 608, 609, -1,
          607, 609, 610, -1,
          607, 610, 611, -1,
          607, 611, 612, -1,
          607, 612, 613, -1,
          607, 613, 614, -1,
          607, 614, 615, -1,
          607, 615, 616, -1,
          607, 616, 617, -1,
          607, 597, 605, -1,
          618, 338, 337, -1,
          618, 345, 338, -1,
          618, 337, 606, -1,
          618, 606, 597, -1,
          618, 597, 607, -1,
          619, 618, 607, -1,
          619, 322, 345, -1,
          619, 588, 322, -1,
          619, 617, 620, -1,
          619, 620, 621, -1,
          619, 621, 622, -1,
          619, 622, 623, -1,
          619, 623, 624, -1,
          619, 624, 625, -1,
          619, 625, 626, -1,
          619, 626, 627, -1,
          619, 627, 588, -1,
          619, 607, 617, -1,
          619, 345, 618, -1,
          164, 166, 343, -1,
          465, 164, 343, -1,
          160, 598, 161, -1,
          160, 587, 598, -1,
          628, 342, 341, -1,
          628, 343, 342, -1,
          628, 465, 343, -1,
          628, 467, 465, -1,
          628, 469, 467, -1,
          629, 340, 357, -1,
          629, 341, 340, -1,
          629, 469, 628, -1,
          629, 628, 341, -1,
          629, 471, 469, -1,
          629, 473, 471, -1,
          630, 473, 629, -1,
          630, 629, 357, -1,
          630, 356, 355, -1,
          630, 357, 356, -1,
          630, 475, 473, -1,
          630, 477, 475, -1,
          631, 354, 353, -1,
          631, 355, 354, -1,
          631, 479, 477, -1,
          631, 481, 479, -1,
          631, 477, 630, -1,
          631, 630, 355, -1,
          632, 352, 351, -1,
          632, 353, 352, -1,
          632, 481, 631, -1,
          632, 631, 353, -1,
          632, 483, 481, -1,
          632, 485, 483, -1,
          633, 350, 349, -1,
          633, 351, 350, -1,
          633, 632, 351, -1,
          633, 485, 632, -1,
          633, 487, 485, -1,
          633, 489, 487, -1,
          634, 371, 370, -1,
          634, 349, 371, -1,
          634, 489, 633, -1,
          634, 633, 349, -1,
          634, 491, 489, -1,
          634, 493, 491, -1,
          635, 369, 368, -1,
          635, 493, 634, -1,
          635, 370, 369, -1,
          635, 634, 370, -1,
          635, 495, 493, -1,
          635, 497, 495, -1,
          636, 497, 635, -1,
          636, 635, 368, -1,
          636, 367, 347, -1,
          636, 368, 367, -1,
          636, 499, 497, -1,
          636, 501, 499, -1,
          637, 346, 365, -1,
          637, 347, 346, -1,
          637, 636, 347, -1,
          637, 501, 636, -1,
          637, 503, 501, -1,
          637, 505, 503, -1,
          638, 364, 363, -1,
          638, 365, 364, -1,
          638, 505, 637, -1,
          638, 637, 365, -1,
          638, 507, 505, -1,
          638, 509, 507, -1,
          639, 362, 361, -1,
          639, 363, 362, -1,
          639, 638, 363, -1,
          639, 509, 638, -1,
          639, 511, 509, -1,
          639, 513, 511, -1,
          640, 360, 359, -1,
          640, 361, 360, -1,
          640, 513, 639, -1,
          640, 515, 513, -1,
          640, 517, 515, -1,
          640, 639, 361, -1,
          641, 326, 325, -1,
          641, 359, 326, -1,
          641, 640, 359, -1,
          641, 517, 640, -1,
          641, 519, 517, -1,
          641, 521, 519, -1,
          642, 324, 321, -1,
          642, 325, 324, -1,
          642, 641, 325, -1,
          642, 521, 641, -1,
          642, 523, 521, -1,
          642, 525, 523, -1,
          643, 321, 323, -1,
          643, 323, 592, -1,
          643, 642, 321, -1,
          643, 525, 642, -1,
          643, 527, 525, -1,
          644, 643, 592, -1,
          644, 527, 643, -1,
          644, 591, 590, -1,
          644, 592, 591, -1,
          644, 529, 527, -1,
          644, 531, 529, -1,
          645, 533, 531, -1,
          645, 535, 533, -1,
          645, 531, 644, -1,
          645, 644, 590, -1,
          645, 589, 588, -1,
          645, 590, 589, -1,
          646, 537, 535, -1,
          646, 539, 537, -1,
          646, 645, 588, -1,
          646, 627, 626, -1,
          646, 588, 627, -1,
          646, 535, 645, -1,
          647, 541, 539, -1,
          647, 543, 541, -1,
          647, 539, 646, -1,
          647, 625, 624, -1,
          647, 626, 625, -1,
          647, 646, 626, -1,
          648, 545, 543, -1,
          648, 547, 545, -1,
          648, 647, 624, -1,
          648, 543, 647, -1,
          648, 623, 622, -1,
          648, 624, 623, -1,
          649, 549, 547, -1,
          649, 551, 549, -1,
          649, 621, 620, -1,
          649, 622, 621, -1,
          649, 547, 648, -1,
          649, 648, 622, -1,
          650, 553, 551, -1,
          650, 555, 553, -1,
          650, 617, 616, -1,
          650, 620, 617, -1,
          650, 551, 649, -1,
          650, 649, 620, -1,
          651, 650, 616, -1,
          651, 557, 555, -1,
          651, 559, 557, -1,
          651, 615, 614, -1,
          651, 616, 615, -1,
          651, 555, 650, -1,
          652, 561, 559, -1,
          652, 651, 614, -1,
          652, 563, 561, -1,
          652, 559, 651, -1,
          652, 613, 612, -1,
          652, 614, 613, -1,
          653, 565, 563, -1,
          653, 567, 565, -1,
          653, 563, 652, -1,
          653, 652, 612, -1,
          653, 611, 610, -1,
          653, 612, 611, -1,
          654, 569, 567, -1,
          654, 571, 569, -1,
          654, 567, 653, -1,
          654, 609, 608, -1,
          654, 610, 609, -1,
          654, 653, 610, -1,
          655, 573, 571, -1,
          655, 575, 573, -1,
          655, 605, 604, -1,
          655, 608, 605, -1,
          655, 571, 654, -1,
          655, 654, 608, -1,
          656, 577, 575, -1,
          656, 579, 577, -1,
          656, 603, 602, -1,
          656, 604, 603, -1,
          656, 575, 655, -1,
          656, 655, 604, -1,
          657, 581, 579, -1,
          657, 583, 581, -1,
          657, 601, 600, -1,
          657, 602, 601, -1,
          657, 656, 602, -1,
          657, 579, 656, -1,
          658, 657, 600, -1,
          658, 585, 583, -1,
          658, 587, 585, -1,
          658, 599, 598, -1,
          658, 583, 657, -1,
          658, 600, 599, -1,
          658, 598, 587, -1,
          4, 6, 457, -1,
          586, 4, 457, -1,
          0, 416, 1, -1,
          0, 464, 416, -1,
          659, 456, 455, -1,
          659, 457, 456, -1,
          659, 586, 457, -1,
          659, 584, 586, -1,
          659, 582, 584, -1,
          660, 454, 453, -1,
          660, 455, 454, -1,
          660, 582, 659, -1,
          660, 659, 455, -1,
          660, 580, 582, -1,
          660, 578, 580, -1,
          661, 578, 660, -1,
          661, 660, 453, -1,
          661, 452, 451, -1,
          661, 453, 452, -1,
          661, 576, 578, -1,
          661, 574, 576, -1,
          662, 440, 439, -1,
          662, 451, 440, -1,
          662, 572, 574, -1,
          662, 570, 572, -1,
          662, 574, 661, -1,
          662, 661, 451, -1,
          663, 438, 437, -1,
          663, 439, 438, -1,
          663, 570, 662, -1,
          663, 662, 439, -1,
          663, 568, 570, -1,
          663, 566, 568, -1,
          664, 436, 435, -1,
          664, 437, 436, -1,
          664, 663, 437, -1,
          664, 566, 663, -1,
          664, 564, 566, -1,
          664, 562, 564, -1,
          665, 434, 433, -1,
          665, 435, 434, -1,
          665, 562, 664, -1,
          665, 664, 435, -1,
          665, 560, 562, -1,
          665, 558, 560, -1,
          666, 432, 431, -1,
          666, 558, 665, -1,
          666, 433, 432, -1,
          666, 665, 433, -1,
          666, 556, 558, -1,
          666, 554, 556, -1,
          667, 554, 666, -1,
          667, 666, 431, -1,
          667, 430, 449, -1,
          667, 431, 430, -1,
          667, 552, 554, -1,
          667, 550, 552, -1,
          668, 448, 447, -1,
          668, 449, 448, -1,
          668, 667, 449, -1,
          668, 550, 667, -1,
          668, 548, 550, -1,
          668, 546, 548, -1,
          669, 446, 445, -1,
          669, 447, 446, -1,
          669, 546, 668, -1,
          669, 668, 447, -1,
          669, 544, 546, -1,
          669, 542, 544, -1,
          670, 444, 443, -1,
          670, 445, 444, -1,
          670, 669, 445, -1,
          670, 542, 669, -1,
          670, 540, 542, -1,
          670, 538, 540, -1,
          671, 442, 428, -1,
          671, 443, 442, -1,
          671, 538, 670, -1,
          671, 536, 538, -1,
          671, 534, 536, -1,
          671, 670, 443, -1,
          672, 427, 426, -1,
          672, 428, 427, -1,
          672, 671, 428, -1,
          672, 534, 671, -1,
          672, 532, 534, -1,
          672, 530, 532, -1,
          673, 425, 424, -1,
          673, 426, 425, -1,
          673, 672, 426, -1,
          673, 530, 672, -1,
          673, 528, 530, -1,
          673, 526, 528, -1,
          674, 424, 376, -1,
          674, 376, 375, -1,
          674, 673, 424, -1,
          674, 526, 673, -1,
          674, 524, 526, -1,
          675, 674, 375, -1,
          675, 524, 674, -1,
          675, 374, 373, -1,
          675, 375, 374, -1,
          675, 522, 524, -1,
          675, 520, 522, -1,
          676, 518, 520, -1,
          676, 516, 518, -1,
          676, 520, 675, -1,
          676, 675, 373, -1,
          676, 377, 387, -1,
          676, 373, 377, -1,
          677, 514, 516, -1,
          677, 512, 514, -1,
          677, 676, 387, -1,
          677, 386, 385, -1,
          677, 387, 386, -1,
          677, 516, 676, -1,
          678, 510, 512, -1,
          678, 508, 510, -1,
          678, 512, 677, -1,
          678, 384, 383, -1,
          678, 385, 384, -1,
          678, 677, 385, -1,
          679, 506, 508, -1,
          679, 504, 506, -1,
          679, 678, 383, -1,
          679, 508, 678, -1,
          679, 382, 381, -1,
          679, 383, 382, -1,
          680, 502, 504, -1,
          680, 500, 502, -1,
          680, 380, 390, -1,
          680, 381, 380, -1,
          680, 504, 679, -1,
          680, 679, 381, -1,
          681, 498, 500, -1,
          681, 496, 498, -1,
          681, 398, 397, -1,
          681, 390, 398, -1,
          681, 500, 680, -1,
          681, 680, 390, -1,
          682, 681, 397, -1,
          682, 494, 496, -1,
          682, 492, 494, -1,
          682, 396, 395, -1,
          682, 397, 396, -1,
          682, 496, 681, -1,
          683, 490, 492, -1,
          683, 682, 395, -1,
          683, 488, 490, -1,
          683, 492, 682, -1,
          683, 394, 393, -1,
          683, 395, 394, -1,
          684, 486, 488, -1,
          684, 484, 486, -1,
          684, 488, 683, -1,
          684, 683, 393, -1,
          684, 411, 410, -1,
          684, 393, 411, -1,
          685, 482, 484, -1,
          685, 480, 482, -1,
          685, 484, 684, -1,
          685, 409, 408, -1,
          685, 410, 409, -1,
          685, 684, 410, -1,
          686, 478, 480, -1,
          686, 476, 478, -1,
          686, 407, 406, -1,
          686, 408, 407, -1,
          686, 480, 685, -1,
          686, 685, 408, -1,
          687, 474, 476, -1,
          687, 472, 474, -1,
          687, 405, 404, -1,
          687, 406, 405, -1,
          687, 476, 686, -1,
          687, 686, 406, -1,
          688, 470, 472, -1,
          688, 468, 470, -1,
          688, 403, 418, -1,
          688, 404, 403, -1,
          688, 687, 404, -1,
          688, 472, 687, -1,
          689, 688, 418, -1,
          689, 466, 468, -1,
          689, 464, 466, -1,
          689, 417, 416, -1,
          689, 468, 688, -1,
          689, 418, 417, -1,
          689, 416, 464, -1
        ]
      }
    }
}
