#VRML V2.0 utf8
WorldInfo {
  title "Exported triangle mesh to VRML97"
  info ["Created by FreeCAD"
        "<https://www.freecad.org>"]
}

Transform {
  scale 1 1 1
  rotation 0 0 1 0
  scaleOrientation 0 0 1 0
  center 0.000 0.000 0.000
  translation 0.000 0.000 0.000
  children
    Shape { 
      appearance
      Appearance {
        material
        Material {
          diffuseColor 0.8 0.8 0.8
        }
      }
      geometry
      IndexedFaceSet {
        coord
        Coordinate {
          point [
            2.566 16.580 3.099,
            1.641 24.758 5.005,
            2.566 16.419 3.862,
            3.103 8.298 1.551,
            3.103 8.360 1.166,
            2.566 16.705 2.330,
            1.641 24.976 3.765,
            1.641 25.133 2.515,
            2.566 16.795 1.556,
            1.641 25.227 1.259,
            3.103 8.405 0.779,
            2.566 16.849 0.779,
            3.103 8.441 0.000,
            2.566 16.867 0.000,
            1.641 25.259 0.000,
            3.103 8.432 0.390,
            3.103 -8.432 0.390,
            3.103 -8.441 0.000,
            3.250 0.000 0.000,
            3.103 -8.405 0.779,
            3.103 -8.360 1.166,
            3.103 -8.298 1.551,
            3.103 -8.217 1.933,
            3.103 -8.119 2.310,
            3.103 -8.004 2.683,
            3.103 -7.871 3.049,
            3.103 -7.722 3.410,
            3.103 -7.556 3.763,
            3.103 -7.374 4.108,
            3.103 -7.177 4.444,
            3.103 -6.964 4.770,
            3.103 -6.736 5.087,
            3.103 -6.494 5.393,
            2.566 -16.849 0.779,
            2.566 -16.867 0.000,
            1.641 -25.259 0.000,
            1.641 -25.227 1.259,
            3.103 -6.238 5.687,
            2.566 -16.795 1.556,
            1.641 -25.133 2.515,
            3.103 -5.969 5.969,
            2.566 -16.705 2.330,
            1.641 -24.976 3.765,
            3.103 -5.687 6.238,
            2.566 -16.580 3.099,
            1.641 -24.758 5.005,
            3.103 -5.393 6.494,
            2.566 -16.419 3.862,
            1.641 -24.478 6.233,
            3.103 -5.087 6.736,
            2.566 -16.223 4.616,
            1.641 -24.136 7.445,
            3.103 -4.770 6.964,
            2.566 -15.992 5.360,
            1.641 -23.735 8.639,
            3.103 -4.444 7.177,
            2.566 -15.728 6.093,
            1.641 -23.275 9.811,
            3.103 -4.108 7.374,
            2.566 -15.430 6.813,
            1.641 -22.757 10.959,
            3.103 -3.763 7.556,
            2.566 -15.099 7.518,
            1.641 -22.183 12.080,
            3.103 -3.410 7.722,
            2.566 -14.735 8.207,
            1.641 -21.553 13.171,
            3.103 -3.049 7.871,
            2.566 -14.340 8.879,
            1.641 -20.870 14.229,
            3.103 -2.683 8.004,
            2.566 -13.915 9.532,
            1.641 -20.134 15.251,
            3.103 -2.310 8.119,
            2.566 -13.460 10.165,
            3.103 -1.933 8.217,
            2.566 -12.976 10.775,
            1.641 -19.349 16.236,
            3.103 -1.551 8.298,
            2.566 -12.465 11.363,
            1.641 -18.516 17.180,
            3.103 -1.166 8.360,
            2.566 -11.927 11.927,
            1.641 -17.636 18.082,
            3.103 -0.779 8.405,
            2.566 -11.363 12.465,
            1.641 -16.713 18.938,
            3.103 -0.390 8.432,
            2.566 -10.775 12.976,
            1.641 -15.748 19.748,
            3.103 0.000 8.441,
            2.566 -10.165 13.460,
            1.641 -14.745 20.508,
            3.103 0.390 8.432,
            2.566 -9.532 13.915,
            1.641 -13.704 21.218,
            3.103 0.779 8.405,
            2.566 -8.879 14.340,
            1.641 -12.629 21.875,
            3.103 1.166 8.360,
            2.566 -8.207 14.735,
            1.641 -11.523 22.477,
            3.103 1.551 8.298,
            2.566 -7.518 15.099,
            1.641 -10.389 23.023,
            3.103 1.933 8.217,
            2.566 -6.813 15.430,
            1.641 -9.228 23.513,
            3.103 2.310 8.119,
            2.566 -6.093 15.728,
            1.641 -8.045 23.943,
            3.103 2.683 8.004,
            2.566 -5.360 15.992,
            3.103 3.049 7.871,
            2.566 -4.616 16.223,
            1.641 -6.841 24.315,
            3.103 3.410 7.722,
            2.566 -3.862 16.419,
            1.641 -5.621 24.625,
            3.103 3.763 7.556,
            2.566 -3.099 16.580,
            1.641 -4.386 24.875,
            3.103 4.108 7.374,
            2.566 -2.330 16.705,
            1.641 -3.141 25.063,
            3.103 4.444 7.177,
            2.566 -1.556 16.795,
            1.641 -1.888 25.188,
            3.103 4.770 6.964,
            2.566 -0.779 16.849,
            1.641 -0.630 25.251,
            3.103 5.087 6.736,
            2.566 0.000 16.867,
            1.641 0.630 25.251,
            3.103 5.393 6.494,
            2.566 0.779 16.849,
            1.641 1.888 25.188,
            3.103 5.687 6.238,
            2.566 1.556 16.795,
            1.641 3.141 25.063,
            3.103 5.969 5.969,
            2.566 2.330 16.705,
            1.641 4.386 24.875,
            3.103 6.238 5.687,
            2.566 3.099 16.580,
            1.641 5.621 24.625,
            3.103 6.494 5.393,
            2.566 3.862 16.419,
            1.641 6.841 24.315,
            3.103 6.736 5.087,
            2.566 4.616 16.223,
            1.641 8.045 23.943,
            3.103 6.964 4.770,
            2.566 5.360 15.992,
            3.103 7.177 4.444,
            2.566 6.093 15.728,
            1.641 9.228 23.513,
            3.103 7.374 4.108,
            2.566 6.813 15.430,
            1.641 10.389 23.023,
            3.103 7.556 3.763,
            2.566 7.518 15.099,
            1.641 11.523 22.477,
            3.103 7.722 3.410,
            2.566 8.207 14.735,
            1.641 12.629 21.875,
            3.103 7.871 3.049,
            2.566 8.879 14.340,
            1.641 13.704 21.218,
            3.103 8.004 2.683,
            2.566 9.532 13.915,
            1.641 14.745 20.508,
            3.103 8.119 2.310,
            2.566 10.165 13.460,
            1.641 15.748 19.748,
            3.103 8.217 1.933,
            2.566 10.775 12.976,
            1.641 16.713 18.938,
            2.566 11.363 12.465,
            1.641 17.636 18.082,
            2.566 11.927 11.927,
            1.641 18.516 17.180,
            2.566 12.465 11.363,
            1.641 19.349 16.236,
            2.566 12.976 10.775,
            1.641 20.134 15.251,
            2.566 13.460 10.165,
            2.566 13.915 9.532,
            1.641 20.870 14.229,
            2.566 14.340 8.879,
            1.641 21.553 13.171,
            2.566 14.735 8.207,
            1.641 22.183 12.080,
            2.566 15.099 7.518,
            1.641 22.757 10.959,
            2.566 15.430 6.813,
            1.641 23.275 9.811,
            2.566 15.728 6.093,
            1.641 23.735 8.639,
            2.566 15.992 5.360,
            1.641 24.136 7.445,
            2.566 16.223 4.616,
            1.641 24.478 6.233,
            1.500 -25.368 1.266,
            1.500 -25.400 0.000,
            1.500 -25.274 2.529,
            1.500 -25.116 3.786,
            1.500 -24.896 5.033,
            1.500 -24.615 6.268,
            1.500 -24.272 7.487,
            1.500 -23.868 8.687,
            1.500 -23.405 9.866,
            1.500 -22.885 11.021,
            1.500 -22.307 12.148,
            1.500 -21.674 13.244,
            1.500 -20.986 14.308,
            1.500 -20.247 15.337,
            1.500 -19.458 16.327,
            1.500 -18.620 17.276,
            1.500 -17.735 18.183,
            1.500 -16.807 19.044,
            1.500 -15.837 19.859,
            1.500 -14.827 20.623,
            1.500 -13.781 21.337,
            1.500 -12.700 21.997,
            1.500 -11.588 22.603,
            1.500 -10.447 23.152,
            1.500 -9.280 23.644,
            1.500 -8.090 24.077,
            1.500 -6.879 24.451,
            1.500 -5.652 24.763,
            1.500 -4.411 25.014,
            1.500 -3.158 25.203,
            1.500 -1.898 25.329,
            1.500 -0.633 25.392,
            1.500 0.633 25.392,
            1.500 1.898 25.329,
            1.500 3.158 25.203,
            1.500 4.411 25.014,
            1.500 5.652 24.763,
            1.500 6.879 24.451,
            1.500 8.090 24.077,
            1.500 9.280 23.644,
            1.500 10.447 23.152,
            1.500 11.588 22.603,
            1.500 12.700 21.997,
            1.500 13.781 21.337,
            1.500 14.827 20.623,
            1.500 15.837 19.859,
            1.500 16.807 19.044,
            1.500 17.735 18.183,
            1.500 18.620 17.276,
            1.500 19.458 16.327,
            1.500 20.247 15.337,
            1.500 20.986 14.308,
            1.500 21.674 13.244,
            1.500 22.307 12.148,
            1.500 22.885 11.021,
            1.500 23.405 9.866,
            1.500 23.868 8.687,
            1.500 24.272 7.487,
            1.500 24.615 6.268,
            1.500 24.896 5.033,
            1.500 25.116 3.786,
            1.500 25.274 2.529,
            1.500 25.368 1.266,
            1.500 25.400 0.000,
            -1.500 -25.368 1.266,
            -1.500 -25.400 0.000,
            -1.500 -25.274 2.529,
            -1.500 -25.116 3.786,
            -1.500 -24.896 5.033,
            -1.500 -24.615 6.268,
            -1.500 -24.272 7.487,
            -1.500 -23.868 8.687,
            -1.500 -23.405 9.866,
            -1.500 -22.885 11.021,
            -1.500 -22.307 12.148,
            -1.500 -21.674 13.244,
            -1.500 -20.986 14.308,
            -1.500 -20.247 15.337,
            -1.500 -19.458 16.327,
            -1.500 -18.620 17.276,
            -1.500 -17.735 18.183,
            -1.500 -16.807 19.044,
            -1.500 -15.837 19.859,
            -1.500 -14.827 20.623,
            -1.500 -13.781 21.337,
            -1.500 -12.700 21.997,
            -1.500 -11.588 22.603,
            -1.500 -10.447 23.152,
            -1.500 -9.280 23.644,
            -1.500 -8.090 24.077,
            -1.500 -6.879 24.451,
            -1.500 -5.652 24.763,
            -1.500 -4.411 25.014,
            -1.500 -3.158 25.203,
            -1.500 -1.898 25.329,
            -1.500 -0.633 25.392,
            -1.500 0.633 25.392,
            -1.500 1.898 25.329,
            -1.500 3.158 25.203,
            -1.500 4.411 25.014,
            -1.500 5.652 24.763,
            -1.500 6.879 24.451,
            -1.500 8.090 24.077,
            -1.500 9.280 23.644,
            -1.500 10.447 23.152,
            -1.500 11.588 22.603,
            -1.500 12.700 21.997,
            -1.500 13.781 21.337,
            -1.500 14.827 20.623,
            -1.500 15.837 19.859,
            -1.500 16.807 19.044,
            -1.500 17.735 18.183,
            -1.500 18.620 17.276,
            -1.500 19.458 16.327,
            -1.500 20.247 15.337,
            -1.500 20.986 14.308,
            -1.500 21.674 13.244,
            -1.500 22.307 12.148,
            -1.500 22.885 11.021,
            -1.500 23.405 9.866,
            -1.500 23.868 8.687,
            -1.500 24.272 7.487,
            -1.500 24.615 6.268,
            -1.500 24.896 5.033,
            -1.500 25.116 3.786,
            -1.500 25.274 2.529,
            -1.500 25.368 1.266,
            -1.500 25.400 0.000,
            -1.641 25.259 0.000,
            -1.641 25.227 1.259,
            -1.641 25.133 2.515,
            -1.641 24.976 3.765,
            -1.641 24.758 5.005,
            -1.641 24.478 6.233,
            -1.641 24.136 7.445,
            -1.641 23.735 8.639,
            -1.641 23.275 9.811,
            -1.641 22.757 10.959,
            -1.641 22.183 12.080,
            -1.641 21.553 13.171,
            -1.641 20.870 14.229,
            -1.641 20.134 15.251,
            -1.641 19.349 16.236,
            -1.641 18.516 17.180,
            -1.641 17.636 18.082,
            -1.641 16.713 18.938,
            -1.641 15.748 19.748,
            -1.641 14.745 20.508,
            -1.641 13.704 21.218,
            -1.641 12.629 21.875,
            -1.641 11.523 22.477,
            -1.641 10.389 23.023,
            -1.641 9.228 23.513,
            -1.641 8.045 23.943,
            -1.641 6.841 24.315,
            -1.641 5.621 24.625,
            -1.641 4.386 24.875,
            -1.641 3.141 25.063,
            -1.641 1.888 25.188,
            -1.641 0.630 25.251,
            -1.641 -0.630 25.251,
            -1.641 -1.888 25.188,
            -1.641 -3.141 25.063,
            -1.641 -4.386 24.875,
            -1.641 -5.621 24.625,
            -1.641 -6.841 24.315,
            -1.641 -8.045 23.943,
            -1.641 -9.228 23.513,
            -1.641 -10.389 23.023,
            -1.641 -11.523 22.477,
            -1.641 -12.629 21.875,
            -1.641 -13.704 21.218,
            -1.641 -14.745 20.508,
            -1.641 -15.748 19.748,
            -1.641 -16.713 18.938,
            -1.641 -17.636 18.082,
            -1.641 -18.516 17.180,
            -1.641 -19.349 16.236,
            -1.641 -20.134 15.251,
            -1.641 -20.870 14.229,
            -1.641 -21.553 13.171,
            -1.641 -22.183 12.080,
            -1.641 -22.757 10.959,
            -1.641 -23.275 9.811,
            -1.641 -23.735 8.639,
            -1.641 -24.136 7.445,
            -1.641 -24.478 6.233,
            -1.641 -24.758 5.005,
            -1.641 -24.976 3.765,
            -1.641 -25.133 2.515,
            -1.641 -25.227 1.259,
            -1.641 -25.259 0.000,
            -2.566 -16.849 0.779,
            -2.566 -16.867 0.000,
            -3.103 -8.441 0.000,
            -2.566 -16.795 1.556,
            -2.566 -16.705 2.330,
            -2.566 -16.580 3.099,
            -2.566 -16.419 3.862,
            -2.566 -16.223 4.616,
            -2.566 -15.992 5.360,
            -2.566 -15.728 6.093,
            -2.566 -15.430 6.813,
            -2.566 -15.099 7.518,
            -2.566 -14.735 8.207,
            -2.566 -14.340 8.879,
            -2.566 -13.915 9.532,
            -2.566 -13.460 10.165,
            -2.566 -12.976 10.775,
            -3.103 -8.432 0.390,
            -3.250 0.000 0.000,
            -2.566 -12.465 11.363,
            -3.103 -8.405 0.779,
            -2.566 -11.927 11.927,
            -3.103 -8.360 1.166,
            -2.566 -11.363 12.465,
            -3.103 -8.298 1.551,
            -2.566 -10.775 12.976,
            -3.103 -8.217 1.933,
            -2.566 -10.165 13.460,
            -3.103 -8.119 2.310,
            -2.566 -9.532 13.915,
            -3.103 -8.004 2.683,
            -2.566 -8.879 14.340,
            -3.103 -7.871 3.049,
            -2.566 -8.207 14.735,
            -3.103 -7.722 3.410,
            -2.566 -7.518 15.099,
            -3.103 -7.556 3.763,
            -2.566 -6.813 15.430,
            -3.103 -7.374 4.108,
            -2.566 -6.093 15.728,
            -3.103 -7.177 4.444,
            -2.566 -5.360 15.992,
            -3.103 -6.964 4.770,
            -2.566 -4.616 16.223,
            -3.103 -6.736 5.087,
            -2.566 -3.862 16.419,
            -3.103 -6.494 5.393,
            -2.566 -3.099 16.580,
            -3.103 -6.238 5.687,
            -2.566 -2.330 16.705,
            -3.103 -5.969 5.969,
            -2.566 -1.556 16.795,
            -3.103 -5.687 6.238,
            -2.566 -0.779 16.849,
            -3.103 -5.393 6.494,
            -2.566 0.000 16.867,
            -3.103 -5.087 6.736,
            -2.566 0.779 16.849,
            -3.103 -4.770 6.964,
            -2.566 1.556 16.795,
            -3.103 -4.444 7.177,
            -2.566 2.330 16.705,
            -3.103 -4.108 7.374,
            -2.566 3.099 16.580,
            -3.103 -3.763 7.556,
            -2.566 3.862 16.419,
            -3.103 -3.410 7.722,
            -2.566 4.616 16.223,
            -3.103 -3.049 7.871,
            -2.566 5.360 15.992,
            -3.103 -2.683 8.004,
            -2.566 6.093 15.728,
            -3.103 -2.310 8.119,
            -2.566 6.813 15.430,
            -3.103 -1.933 8.217,
            -2.566 7.518 15.099,
            -3.103 -1.551 8.298,
            -2.566 8.207 14.735,
            -3.103 -1.166 8.360,
            -2.566 8.879 14.340,
            -3.103 -0.779 8.405,
            -2.566 9.532 13.915,
            -3.103 -0.390 8.432,
            -2.566 10.165 13.460,
            -3.103 0.000 8.441,
            -2.566 10.775 12.976,
            -3.103 0.390 8.432,
            -2.566 11.363 12.465,
            -3.103 0.779 8.405,
            -2.566 11.927 11.927,
            -3.103 1.166 8.360,
            -2.566 12.465 11.363,
            -3.103 1.551 8.298,
            -2.566 12.976 10.775,
            -3.103 1.933 8.217,
            -2.566 13.460 10.165,
            -3.103 2.310 8.119,
            -2.566 13.915 9.532,
            -3.103 2.683 8.004,
            -2.566 14.340 8.879,
            -3.103 3.049 7.871,
            -2.566 14.735 8.207,
            -3.103 3.410 7.722,
            -2.566 15.099 7.518,
            -3.103 3.763 7.556,
            -2.566 15.430 6.813,
            -3.103 4.108 7.374,
            -2.566 15.728 6.093,
            -3.103 4.444 7.177,
            -2.566 15.992 5.360,
            -3.103 4.770 6.964,
            -2.566 16.223 4.616,
            -3.103 5.087 6.736,
            -2.566 16.419 3.862,
            -3.103 5.393 6.494,
            -2.566 16.580 3.099,
            -3.103 5.687 6.238,
            -2.566 16.705 2.330,
            -3.103 5.969 5.969,
            -2.566 16.795 1.556,
            -3.103 6.238 5.687,
            -2.566 16.849 0.779,
            -2.566 16.867 0.000,
            -3.103 6.494 5.393,
            -3.103 6.736 5.087,
            -3.103 6.964 4.770,
            -3.103 7.177 4.444,
            -3.103 7.374 4.108,
            -3.103 7.556 3.763,
            -3.103 7.722 3.410,
            -3.103 7.871 3.049,
            -3.103 8.004 2.683,
            -3.103 8.119 2.310,
            -3.103 8.217 1.933,
            -3.103 8.298 1.551,
            -3.103 8.360 1.166,
            -3.103 8.405 0.779,
            -3.103 8.432 0.390,
            -3.103 8.441 0.000,
            -2.566 16.849 -0.779,
            -1.641 25.227 -1.259,
            -2.566 16.795 -1.556,
            -1.641 25.133 -2.515,
            -2.566 16.705 -2.330,
            -1.641 24.976 -3.765,
            -2.566 16.580 -3.099,
            -1.641 24.758 -5.005,
            -2.566 16.419 -3.862,
            -1.641 24.478 -6.233,
            -2.566 16.223 -4.616,
            -1.641 24.136 -7.445,
            -2.566 15.992 -5.360,
            -1.641 23.735 -8.639,
            -2.566 15.728 -6.093,
            -1.641 23.275 -9.811,
            -2.566 15.430 -6.813,
            -1.641 22.757 -10.959,
            -2.566 15.099 -7.518,
            -1.641 22.183 -12.080,
            -2.566 14.735 -8.207,
            -1.641 21.553 -13.171,
            -2.566 14.340 -8.879,
            -1.641 20.870 -14.229,
            -2.566 13.915 -9.532,
            -1.641 20.134 -15.251,
            -2.566 13.460 -10.165,
            -2.566 12.976 -10.775,
            -1.641 19.349 -16.236,
            -3.103 8.432 -0.390,
            -2.566 12.465 -11.363,
            -1.641 18.516 -17.180,
            -3.103 8.405 -0.779,
            -2.566 11.927 -11.927,
            -1.641 17.636 -18.082,
            -3.103 8.360 -1.166,
            -2.566 11.363 -12.465,
            -1.641 16.713 -18.938,
            -3.103 8.298 -1.551,
            -2.566 10.775 -12.976,
            -1.641 15.748 -19.748,
            -3.103 8.217 -1.933,
            -2.566 10.165 -13.460,
            -1.641 14.745 -20.508,
            -3.103 8.119 -2.310,
            -2.566 9.532 -13.915,
            -1.641 13.704 -21.218,
            -3.103 8.004 -2.683,
            -2.566 8.879 -14.340,
            -1.641 12.629 -21.875,
            -3.103 7.871 -3.049,
            -2.566 8.207 -14.735,
            -1.641 11.523 -22.477,
            -3.103 7.722 -3.410,
            -2.566 7.518 -15.099,
            -1.641 10.389 -23.023,
            -3.103 7.556 -3.763,
            -2.566 6.813 -15.430,
            -1.641 9.228 -23.513,
            -3.103 7.374 -4.108,
            -2.566 6.093 -15.728,
            -1.641 8.045 -23.943,
            -3.103 7.177 -4.444,
            -2.566 5.360 -15.992,
            -3.103 6.964 -4.770,
            -2.566 4.616 -16.223,
            -1.641 6.841 -24.315,
            -3.103 6.736 -5.087,
            -2.566 3.862 -16.419,
            -1.641 5.621 -24.625,
            -3.103 6.494 -5.393,
            -2.566 3.099 -16.580,
            -1.641 4.386 -24.875,
            -3.103 6.238 -5.687,
            -2.566 2.330 -16.705,
            -1.641 3.141 -25.063,
            -3.103 5.969 -5.969,
            -2.566 1.556 -16.795,
            -1.641 1.888 -25.188,
            -3.103 5.687 -6.238,
            -2.566 0.779 -16.849,
            -1.641 0.630 -25.251,
            -3.103 5.393 -6.494,
            -2.566 0.000 -16.867,
            -1.641 -0.630 -25.251,
            -3.103 5.087 -6.736,
            -2.566 -0.779 -16.849,
            -1.641 -1.888 -25.188,
            -3.103 4.770 -6.964,
            -2.566 -1.556 -16.795,
            -1.641 -3.141 -25.063,
            -3.103 4.444 -7.177,
            -2.566 -2.330 -16.705,
            -1.641 -4.386 -24.875,
            -3.103 4.108 -7.374,
            -2.566 -3.099 -16.580,
            -1.641 -5.621 -24.625,
            -3.103 3.763 -7.556,
            -2.566 -3.862 -16.419,
            -1.641 -6.841 -24.315,
            -3.103 3.410 -7.722,
            -2.566 -4.616 -16.223,
            -1.641 -8.045 -23.943,
            -3.103 3.049 -7.871,
            -2.566 -5.360 -15.992,
            -3.103 2.683 -8.004,
            -2.566 -6.093 -15.728,
            -1.641 -9.228 -23.513,
            -3.103 2.310 -8.119,
            -2.566 -6.813 -15.430,
            -1.641 -10.389 -23.023,
            -3.103 1.933 -8.217,
            -2.566 -7.518 -15.099,
            -1.641 -11.523 -22.477,
            -3.103 1.551 -8.298,
            -2.566 -8.207 -14.735,
            -1.641 -12.629 -21.875,
            -3.103 1.166 -8.360,
            -2.566 -8.879 -14.340,
            -1.641 -13.704 -21.218,
            -3.103 0.779 -8.405,
            -2.566 -9.532 -13.915,
            -1.641 -14.745 -20.508,
            -3.103 0.390 -8.432,
            -2.566 -10.165 -13.460,
            -1.641 -15.748 -19.748,
            -3.103 0.000 -8.441,
            -2.566 -10.775 -12.976,
            -1.641 -16.713 -18.938,
            -3.103 -0.390 -8.432,
            -2.566 -11.363 -12.465,
            -1.641 -17.636 -18.082,
            -3.103 -0.779 -8.405,
            -2.566 -11.927 -11.927,
            -1.641 -18.516 -17.180,
            -3.103 -1.166 -8.360,
            -2.566 -12.465 -11.363,
            -1.641 -19.349 -16.236,
            -3.103 -1.551 -8.298,
            -2.566 -12.976 -10.775,
            -1.641 -20.134 -15.251,
            -3.103 -1.933 -8.217,
            -2.566 -13.460 -10.165,
            -3.103 -2.310 -8.119,
            -2.566 -13.915 -9.532,
            -1.641 -20.870 -14.229,
            -3.103 -2.683 -8.004,
            -2.566 -14.340 -8.879,
            -1.641 -21.553 -13.171,
            -3.103 -3.049 -7.871,
            -2.566 -14.735 -8.207,
            -1.641 -22.183 -12.080,
            -3.103 -3.410 -7.722,
            -2.566 -15.099 -7.518,
            -1.641 -22.757 -10.959,
            -3.103 -3.763 -7.556,
            -2.566 -15.430 -6.813,
            -1.641 -23.275 -9.811,
            -3.103 -4.108 -7.374,
            -2.566 -15.728 -6.093,
            -1.641 -23.735 -8.639,
            -3.103 -4.444 -7.177,
            -2.566 -15.992 -5.360,
            -1.641 -24.136 -7.445,
            -3.103 -4.770 -6.964,
            -2.566 -16.223 -4.616,
            -1.641 -24.478 -6.233,
            -3.103 -5.087 -6.736,
            -2.566 -16.419 -3.862,
            -1.641 -24.758 -5.005,
            -3.103 -5.393 -6.494,
            -2.566 -16.580 -3.099,
            -1.641 -24.976 -3.765,
            -3.103 -5.687 -6.238,
            -2.566 -16.705 -2.330,
            -1.641 -25.133 -2.515,
            -3.103 -5.969 -5.969,
            -2.566 -16.795 -1.556,
            -1.641 -25.227 -1.259,
            -3.103 -6.238 -5.687,
            -2.566 -16.849 -0.779,
            -3.103 -6.494 -5.393,
            -3.103 -6.736 -5.087,
            -3.103 -6.964 -4.770,
            -3.103 -7.177 -4.444,
            -3.103 -7.374 -4.108,
            -3.103 -7.556 -3.763,
            -3.103 -7.722 -3.410,
            -3.103 -7.871 -3.049,
            -3.103 -8.004 -2.683,
            -3.103 -8.119 -2.310,
            -3.103 -8.217 -1.933,
            -3.103 -8.298 -1.551,
            -3.103 -8.360 -1.166,
            -3.103 -8.405 -0.779,
            -3.103 -8.432 -0.390,
            -1.500 -25.368 -1.266,
            -1.500 -25.274 -2.529,
            -1.500 -25.116 -3.786,
            -1.500 -24.896 -5.033,
            -1.500 -24.615 -6.268,
            -1.500 -24.272 -7.487,
            -1.500 -23.868 -8.687,
            -1.500 -23.405 -9.866,
            -1.500 -22.885 -11.021,
            -1.500 -22.307 -12.148,
            -1.500 -21.674 -13.244,
            -1.500 -20.986 -14.308,
            -1.500 -20.247 -15.337,
            -1.500 -19.458 -16.327,
            -1.500 -18.620 -17.276,
            -1.500 -17.735 -18.183,
            -1.500 -16.807 -19.044,
            -1.500 -15.837 -19.859,
            -1.500 -14.827 -20.623,
            -1.500 -13.781 -21.337,
            -1.500 -12.700 -21.997,
            -1.500 -11.588 -22.603,
            -1.500 -10.447 -23.152,
            -1.500 -9.280 -23.644,
            -1.500 -8.090 -24.077,
            -1.500 -6.879 -24.451,
            -1.500 -5.652 -24.763,
            -1.500 -4.411 -25.014,
            -1.500 -3.158 -25.203,
            -1.500 -1.898 -25.329,
            -1.500 -0.633 -25.392,
            -1.500 0.633 -25.392,
            -1.500 1.898 -25.329,
            -1.500 3.158 -25.203,
            -1.500 4.411 -25.014,
            -1.500 5.652 -24.763,
            -1.500 6.879 -24.451,
            -1.500 8.090 -24.077,
            -1.500 9.280 -23.644,
            -1.500 10.447 -23.152,
            -1.500 11.588 -22.603,
            -1.500 12.700 -21.997,
            -1.500 13.781 -21.337,
            -1.500 14.827 -20.623,
            -1.500 15.837 -19.859,
            -1.500 16.807 -19.044,
            -1.500 17.735 -18.183,
            -1.500 18.620 -17.276,
            -1.500 19.458 -16.327,
            -1.500 20.247 -15.337,
            -1.500 20.986 -14.308,
            -1.500 21.674 -13.244,
            -1.500 22.307 -12.148,
            -1.500 22.885 -11.021,
            -1.500 23.405 -9.866,
            -1.500 23.868 -8.687,
            -1.500 24.272 -7.487,
            -1.500 24.615 -6.268,
            -1.500 24.896 -5.033,
            -1.500 25.116 -3.786,
            -1.500 25.274 -2.529,
            -1.500 25.368 -1.266,
            1.500 25.368 -1.266,
            1.500 25.274 -2.529,
            1.500 25.116 -3.786,
            1.500 24.896 -5.033,
            1.500 24.615 -6.268,
            1.500 24.272 -7.487,
            1.500 23.868 -8.687,
            1.500 23.405 -9.866,
            1.500 22.885 -11.021,
            1.500 22.307 -12.148,
            1.500 21.674 -13.244,
            1.500 20.986 -14.308,
            1.500 20.247 -15.337,
            1.500 19.458 -16.327,
            1.500 18.620 -17.276,
            1.500 17.735 -18.183,
            1.500 16.807 -19.044,
            1.500 15.837 -19.859,
            1.500 14.827 -20.623,
            1.500 13.781 -21.337,
            1.500 12.700 -21.997,
            1.500 11.588 -22.603,
            1.500 10.447 -23.152,
            1.500 9.280 -23.644,
            1.500 8.090 -24.077,
            1.500 6.879 -24.451,
            1.500 5.652 -24.763,
            1.500 4.411 -25.014,
            1.500 3.158 -25.203,
            1.500 1.898 -25.329,
            1.500 0.633 -25.392,
            1.500 -0.633 -25.392,
            1.500 -1.898 -25.329,
            1.500 -3.158 -25.203,
            1.500 -4.411 -25.014,
            1.500 -5.652 -24.763,
            1.500 -6.879 -24.451,
            1.500 -8.090 -24.077,
            1.500 -9.280 -23.644,
            1.500 -10.447 -23.152,
            1.500 -11.588 -22.603,
            1.500 -12.700 -21.997,
            1.500 -13.781 -21.337,
            1.500 -14.827 -20.623,
            1.500 -15.837 -19.859,
            1.500 -16.807 -19.044,
            1.500 -17.735 -18.183,
            1.500 -18.620 -17.276,
            1.500 -19.458 -16.327,
            1.500 -20.247 -15.337,
            1.500 -20.986 -14.308,
            1.500 -21.674 -13.244,
            1.500 -22.307 -12.148,
            1.500 -22.885 -11.021,
            1.500 -23.405 -9.866,
            1.500 -23.868 -8.687,
            1.500 -24.272 -7.487,
            1.500 -24.615 -6.268,
            1.500 -24.896 -5.033,
            1.500 -25.116 -3.786,
            1.500 -25.274 -2.529,
            1.500 -25.368 -1.266,
            1.641 25.227 -1.259,
            1.641 25.133 -2.515,
            1.641 24.976 -3.765,
            1.641 24.758 -5.005,
            1.641 24.478 -6.233,
            1.641 24.136 -7.445,
            1.641 23.735 -8.639,
            1.641 23.275 -9.811,
            1.641 22.757 -10.959,
            1.641 22.183 -12.080,
            1.641 21.553 -13.171,
            1.641 20.870 -14.229,
            1.641 20.134 -15.251,
            1.641 19.349 -16.236,
            1.641 18.516 -17.180,
            1.641 17.636 -18.082,
            1.641 16.713 -18.938,
            1.641 15.748 -19.748,
            1.641 14.745 -20.508,
            1.641 13.704 -21.218,
            1.641 12.629 -21.875,
            1.641 11.523 -22.477,
            1.641 10.389 -23.023,
            1.641 9.228 -23.513,
            1.641 8.045 -23.943,
            1.641 6.841 -24.315,
            1.641 5.621 -24.625,
            1.641 4.386 -24.875,
            1.641 3.141 -25.063,
            1.641 1.888 -25.188,
            1.641 0.630 -25.251,
            1.641 -0.630 -25.251,
            1.641 -1.888 -25.188,
            1.641 -3.141 -25.063,
            1.641 -4.386 -24.875,
            1.641 -5.621 -24.625,
            1.641 -6.841 -24.315,
            1.641 -8.045 -23.943,
            1.641 -9.228 -23.513,
            1.641 -10.389 -23.023,
            1.641 -11.523 -22.477,
            1.641 -12.629 -21.875,
            1.641 -13.704 -21.218,
            1.641 -14.745 -20.508,
            1.641 -15.748 -19.748,
            1.641 -16.713 -18.938,
            1.641 -17.636 -18.082,
            1.641 -18.516 -17.180,
            1.641 -19.349 -16.236,
            1.641 -20.134 -15.251,
            1.641 -20.870 -14.229,
            1.641 -21.553 -13.171,
            1.641 -22.183 -12.080,
            1.641 -22.757 -10.959,
            1.641 -23.275 -9.811,
            1.641 -23.735 -8.639,
            1.641 -24.136 -7.445,
            1.641 -24.478 -6.233,
            1.641 -24.758 -5.005,
            1.641 -24.976 -3.765,
            1.641 -25.133 -2.515,
            1.641 -25.227 -1.259,
            2.566 -16.580 -3.099,
            2.566 -16.419 -3.862,
            3.103 -8.298 -1.551,
            3.103 -8.360 -1.166,
            2.566 -16.705 -2.330,
            3.103 -8.405 -0.779,
            2.566 -16.795 -1.556,
            2.566 -16.849 -0.779,
            3.103 -8.432 -0.390,
            3.103 8.432 -0.390,
            3.103 8.405 -0.779,
            3.103 8.360 -1.166,
            3.103 8.298 -1.551,
            3.103 8.217 -1.933,
            3.103 8.119 -2.310,
            3.103 8.004 -2.683,
            3.103 7.871 -3.049,
            3.103 7.722 -3.410,
            3.103 7.556 -3.763,
            3.103 7.374 -4.108,
            3.103 7.177 -4.444,
            3.103 6.964 -4.770,
            3.103 6.736 -5.087,
            3.103 6.494 -5.393,
            2.566 16.849 -0.779,
            3.103 6.238 -5.687,
            2.566 16.795 -1.556,
            3.103 5.969 -5.969,
            2.566 16.705 -2.330,
            3.103 5.687 -6.238,
            2.566 16.580 -3.099,
            3.103 5.393 -6.494,
            2.566 16.419 -3.862,
            3.103 5.087 -6.736,
            2.566 16.223 -4.616,
            3.103 4.770 -6.964,
            2.566 15.992 -5.360,
            3.103 4.444 -7.177,
            2.566 15.728 -6.093,
            3.103 4.108 -7.374,
            2.566 15.430 -6.813,
            3.103 3.763 -7.556,
            2.566 15.099 -7.518,
            3.103 3.410 -7.722,
            2.566 14.735 -8.207,
            3.103 3.049 -7.871,
            2.566 14.340 -8.879,
            3.103 2.683 -8.004,
            2.566 13.915 -9.532,
            3.103 2.310 -8.119,
            2.566 13.460 -10.165,
            3.103 1.933 -8.217,
            2.566 12.976 -10.775,
            3.103 1.551 -8.298,
            2.566 12.465 -11.363,
            3.103 1.166 -8.360,
            2.566 11.927 -11.927,
            3.103 0.779 -8.405,
            2.566 11.363 -12.465,
            3.103 0.390 -8.432,
            2.566 10.775 -12.976,
            3.103 0.000 -8.441,
            2.566 10.165 -13.460,
            3.103 -0.390 -8.432,
            2.566 9.532 -13.915,
            3.103 -0.779 -8.405,
            2.566 8.879 -14.340,
            3.103 -1.166 -8.360,
            2.566 8.207 -14.735,
            3.103 -1.551 -8.298,
            2.566 7.518 -15.099,
            3.103 -1.933 -8.217,
            2.566 6.813 -15.430,
            3.103 -2.310 -8.119,
            2.566 6.093 -15.728,
            3.103 -2.683 -8.004,
            2.566 5.360 -15.992,
            3.103 -3.049 -7.871,
            2.566 4.616 -16.223,
            3.103 -3.410 -7.722,
            2.566 3.862 -16.419,
            3.103 -3.763 -7.556,
            2.566 3.099 -16.580,
            3.103 -4.108 -7.374,
            2.566 2.330 -16.705,
            3.103 -4.444 -7.177,
            2.566 1.556 -16.795,
            3.103 -4.770 -6.964,
            2.566 0.779 -16.849,
            3.103 -5.087 -6.736,
            2.566 0.000 -16.867,
            3.103 -5.393 -6.494,
            2.566 -0.779 -16.849,
            3.103 -5.687 -6.238,
            2.566 -1.556 -16.795,
            3.103 -5.969 -5.969,
            2.566 -2.330 -16.705,
            3.103 -6.238 -5.687,
            2.566 -3.099 -16.580,
            3.103 -6.494 -5.393,
            2.566 -3.862 -16.419,
            3.103 -6.736 -5.087,
            2.566 -4.616 -16.223,
            3.103 -6.964 -4.770,
            2.566 -5.360 -15.992,
            3.103 -7.177 -4.444,
            2.566 -6.093 -15.728,
            3.103 -7.374 -4.108,
            2.566 -6.813 -15.430,
            3.103 -7.556 -3.763,
            2.566 -7.518 -15.099,
            3.103 -7.722 -3.410,
            2.566 -8.207 -14.735,
            3.103 -7.871 -3.049,
            2.566 -8.879 -14.340,
            3.103 -8.004 -2.683,
            2.566 -9.532 -13.915,
            3.103 -8.119 -2.310,
            2.566 -10.165 -13.460,
            3.103 -8.217 -1.933,
            2.566 -10.775 -12.976,
            2.566 -11.363 -12.465,
            2.566 -11.927 -11.927,
            2.566 -12.465 -11.363,
            2.566 -12.976 -10.775,
            2.566 -13.460 -10.165,
            2.566 -13.915 -9.532,
            2.566 -14.340 -8.879,
            2.566 -14.735 -8.207,
            2.566 -15.099 -7.518,
            2.566 -15.430 -6.813,
            2.566 -15.728 -6.093,
            2.566 -15.992 -5.360,
            2.566 -16.223 -4.616
          ]
        }
        coordIndex [
          0, 1, 2, -1,
          0, 3, 4, -1,
          5, 6, 0, -1,
          5, 0, 4, -1,
          5, 7, 6, -1,
          8, 5, 4, -1,
          8, 7, 5, -1,
          8, 9, 7, -1,
          8, 4, 10, -1,
          11, 12, 13, -1,
          11, 13, 14, -1,
          11, 9, 8, -1,
          11, 8, 10, -1,
          11, 14, 9, -1,
          11, 15, 12, -1,
          11, 10, 15, -1,
          16, 17, 18, -1,
          19, 16, 18, -1,
          20, 19, 18, -1,
          21, 20, 18, -1,
          22, 21, 18, -1,
          23, 22, 18, -1,
          24, 23, 18, -1,
          25, 24, 18, -1,
          26, 25, 18, -1,
          27, 26, 18, -1,
          28, 27, 18, -1,
          29, 28, 18, -1,
          30, 29, 18, -1,
          31, 30, 18, -1,
          32, 31, 18, -1,
          33, 34, 17, -1,
          33, 35, 34, -1,
          33, 36, 35, -1,
          33, 17, 16, -1,
          37, 32, 18, -1,
          38, 39, 36, -1,
          38, 36, 33, -1,
          38, 16, 19, -1,
          38, 33, 16, -1,
          40, 37, 18, -1,
          41, 42, 39, -1,
          41, 39, 38, -1,
          41, 19, 20, -1,
          41, 38, 19, -1,
          43, 40, 18, -1,
          44, 21, 22, -1,
          44, 41, 20, -1,
          44, 45, 42, -1,
          44, 20, 21, -1,
          44, 42, 41, -1,
          46, 43, 18, -1,
          47, 48, 45, -1,
          47, 45, 44, -1,
          47, 22, 23, -1,
          47, 44, 22, -1,
          49, 46, 18, -1,
          50, 51, 48, -1,
          50, 48, 47, -1,
          50, 47, 23, -1,
          52, 49, 18, -1,
          53, 50, 23, -1,
          53, 54, 51, -1,
          53, 23, 24, -1,
          53, 51, 50, -1,
          55, 52, 18, -1,
          56, 54, 53, -1,
          56, 24, 25, -1,
          56, 53, 24, -1,
          56, 57, 54, -1,
          58, 55, 18, -1,
          59, 60, 57, -1,
          59, 25, 26, -1,
          59, 26, 27, -1,
          59, 57, 56, -1,
          59, 56, 25, -1,
          61, 58, 18, -1,
          62, 63, 60, -1,
          62, 59, 27, -1,
          62, 60, 59, -1,
          64, 61, 18, -1,
          65, 66, 63, -1,
          65, 63, 62, -1,
          65, 62, 27, -1,
          65, 27, 28, -1,
          65, 28, 29, -1,
          67, 64, 18, -1,
          68, 66, 65, -1,
          68, 69, 66, -1,
          68, 65, 29, -1,
          70, 67, 18, -1,
          71, 72, 69, -1,
          71, 69, 68, -1,
          71, 68, 29, -1,
          71, 29, 30, -1,
          73, 70, 18, -1,
          74, 30, 31, -1,
          74, 72, 71, -1,
          74, 31, 32, -1,
          74, 71, 30, -1,
          75, 73, 18, -1,
          76, 77, 72, -1,
          76, 74, 32, -1,
          76, 72, 74, -1,
          78, 75, 18, -1,
          79, 32, 37, -1,
          79, 80, 77, -1,
          79, 76, 32, -1,
          79, 77, 76, -1,
          81, 78, 18, -1,
          82, 83, 80, -1,
          82, 80, 79, -1,
          82, 79, 37, -1,
          82, 37, 40, -1,
          84, 81, 18, -1,
          85, 86, 83, -1,
          85, 43, 46, -1,
          85, 83, 82, -1,
          85, 40, 43, -1,
          85, 82, 40, -1,
          87, 84, 18, -1,
          88, 89, 86, -1,
          88, 85, 46, -1,
          88, 86, 85, -1,
          90, 87, 18, -1,
          91, 88, 46, -1,
          91, 92, 89, -1,
          91, 46, 49, -1,
          91, 89, 88, -1,
          93, 90, 18, -1,
          94, 49, 52, -1,
          94, 95, 92, -1,
          94, 91, 49, -1,
          94, 92, 91, -1,
          96, 93, 18, -1,
          97, 52, 55, -1,
          97, 98, 95, -1,
          97, 95, 94, -1,
          97, 55, 58, -1,
          97, 94, 52, -1,
          99, 96, 18, -1,
          100, 101, 98, -1,
          100, 98, 97, -1,
          100, 97, 58, -1,
          102, 99, 18, -1,
          103, 100, 58, -1,
          103, 104, 101, -1,
          103, 101, 100, -1,
          103, 58, 61, -1,
          105, 102, 18, -1,
          106, 107, 104, -1,
          106, 104, 103, -1,
          106, 61, 64, -1,
          106, 103, 61, -1,
          108, 105, 18, -1,
          109, 106, 64, -1,
          109, 64, 67, -1,
          109, 110, 107, -1,
          109, 107, 106, -1,
          111, 108, 18, -1,
          112, 110, 109, -1,
          112, 109, 67, -1,
          112, 67, 70, -1,
          113, 111, 18, -1,
          114, 115, 110, -1,
          114, 73, 75, -1,
          114, 110, 112, -1,
          114, 112, 70, -1,
          114, 70, 73, -1,
          116, 113, 18, -1,
          117, 115, 114, -1,
          117, 118, 115, -1,
          117, 114, 75, -1,
          117, 75, 78, -1,
          119, 116, 18, -1,
          120, 118, 117, -1,
          120, 121, 118, -1,
          120, 117, 78, -1,
          122, 119, 18, -1,
          123, 121, 120, -1,
          123, 124, 121, -1,
          123, 120, 78, -1,
          123, 78, 81, -1,
          125, 122, 18, -1,
          126, 124, 123, -1,
          126, 127, 124, -1,
          126, 123, 81, -1,
          126, 81, 84, -1,
          128, 125, 18, -1,
          129, 127, 126, -1,
          129, 130, 127, -1,
          129, 126, 84, -1,
          129, 84, 87, -1,
          129, 87, 90, -1,
          131, 128, 18, -1,
          132, 133, 130, -1,
          132, 129, 90, -1,
          132, 130, 129, -1,
          134, 131, 18, -1,
          135, 136, 133, -1,
          135, 133, 132, -1,
          135, 132, 90, -1,
          135, 90, 93, -1,
          137, 134, 18, -1,
          138, 93, 96, -1,
          138, 96, 99, -1,
          138, 139, 136, -1,
          138, 136, 135, -1,
          138, 135, 93, -1,
          140, 137, 18, -1,
          141, 139, 138, -1,
          141, 99, 102, -1,
          141, 142, 139, -1,
          141, 138, 99, -1,
          143, 140, 18, -1,
          144, 142, 141, -1,
          144, 145, 142, -1,
          144, 141, 102, -1,
          146, 143, 18, -1,
          147, 102, 105, -1,
          147, 105, 108, -1,
          147, 148, 145, -1,
          147, 145, 144, -1,
          147, 144, 102, -1,
          149, 146, 18, -1,
          150, 148, 147, -1,
          150, 151, 148, -1,
          150, 147, 108, -1,
          152, 149, 18, -1,
          153, 108, 111, -1,
          153, 150, 108, -1,
          153, 111, 113, -1,
          153, 151, 150, -1,
          154, 152, 18, -1,
          155, 151, 153, -1,
          155, 113, 116, -1,
          155, 156, 151, -1,
          155, 153, 113, -1,
          157, 154, 18, -1,
          158, 159, 156, -1,
          158, 155, 116, -1,
          158, 156, 155, -1,
          160, 157, 18, -1,
          161, 159, 158, -1,
          161, 158, 116, -1,
          161, 116, 119, -1,
          161, 162, 159, -1,
          161, 119, 122, -1,
          163, 160, 18, -1,
          164, 165, 162, -1,
          164, 162, 161, -1,
          164, 161, 122, -1,
          164, 122, 125, -1,
          166, 163, 18, -1,
          167, 164, 125, -1,
          167, 168, 165, -1,
          167, 165, 164, -1,
          169, 166, 18, -1,
          170, 167, 125, -1,
          170, 171, 168, -1,
          170, 125, 128, -1,
          170, 128, 131, -1,
          170, 168, 167, -1,
          172, 169, 18, -1,
          173, 171, 170, -1,
          173, 170, 131, -1,
          173, 174, 171, -1,
          175, 172, 18, -1,
          176, 173, 131, -1,
          176, 177, 174, -1,
          176, 131, 134, -1,
          176, 174, 173, -1,
          176, 134, 137, -1,
          3, 175, 18, -1,
          178, 177, 176, -1,
          178, 179, 177, -1,
          178, 176, 137, -1,
          178, 137, 140, -1,
          4, 3, 18, -1,
          180, 181, 179, -1,
          180, 178, 140, -1,
          180, 179, 178, -1,
          10, 4, 18, -1,
          182, 140, 143, -1,
          182, 181, 180, -1,
          182, 183, 181, -1,
          182, 180, 140, -1,
          15, 18, 12, -1,
          15, 10, 18, -1,
          184, 143, 146, -1,
          184, 185, 183, -1,
          184, 182, 143, -1,
          184, 183, 182, -1,
          186, 149, 152, -1,
          186, 185, 184, -1,
          186, 184, 146, -1,
          186, 146, 149, -1,
          187, 186, 152, -1,
          187, 185, 186, -1,
          187, 188, 185, -1,
          189, 152, 154, -1,
          189, 154, 157, -1,
          189, 188, 187, -1,
          189, 190, 188, -1,
          189, 187, 152, -1,
          191, 157, 160, -1,
          191, 192, 190, -1,
          191, 189, 157, -1,
          191, 190, 189, -1,
          193, 192, 191, -1,
          193, 160, 163, -1,
          193, 194, 192, -1,
          193, 191, 160, -1,
          195, 163, 166, -1,
          195, 196, 194, -1,
          195, 194, 193, -1,
          195, 193, 163, -1,
          197, 195, 166, -1,
          197, 198, 196, -1,
          197, 196, 195, -1,
          199, 198, 197, -1,
          199, 197, 166, -1,
          199, 166, 169, -1,
          199, 169, 172, -1,
          199, 200, 198, -1,
          201, 199, 172, -1,
          201, 200, 199, -1,
          201, 202, 200, -1,
          2, 202, 201, -1,
          2, 201, 172, -1,
          2, 1, 202, -1,
          2, 172, 175, -1,
          2, 175, 3, -1,
          0, 2, 3, -1,
          0, 6, 1, -1,
          203, 35, 36, -1,
          203, 204, 35, -1,
          205, 36, 39, -1,
          205, 203, 36, -1,
          206, 39, 42, -1,
          206, 205, 39, -1,
          207, 42, 45, -1,
          207, 206, 42, -1,
          208, 45, 48, -1,
          208, 207, 45, -1,
          209, 48, 51, -1,
          209, 208, 48, -1,
          210, 51, 54, -1,
          210, 209, 51, -1,
          211, 54, 57, -1,
          211, 210, 54, -1,
          212, 57, 60, -1,
          212, 211, 57, -1,
          213, 60, 63, -1,
          213, 212, 60, -1,
          214, 63, 66, -1,
          214, 213, 63, -1,
          215, 66, 69, -1,
          215, 214, 66, -1,
          72, 215, 69, -1,
          216, 215, 72, -1,
          217, 72, 77, -1,
          217, 216, 72, -1,
          80, 217, 77, -1,
          218, 217, 80, -1,
          219, 80, 83, -1,
          219, 218, 80, -1,
          86, 219, 83, -1,
          220, 219, 86, -1,
          221, 86, 89, -1,
          221, 220, 86, -1,
          222, 221, 89, -1,
          222, 89, 92, -1,
          223, 222, 92, -1,
          223, 92, 95, -1,
          224, 223, 95, -1,
          224, 95, 98, -1,
          225, 224, 98, -1,
          225, 98, 101, -1,
          104, 225, 101, -1,
          226, 225, 104, -1,
          227, 104, 107, -1,
          227, 226, 104, -1,
          110, 227, 107, -1,
          228, 227, 110, -1,
          229, 110, 115, -1,
          229, 228, 110, -1,
          118, 229, 115, -1,
          230, 229, 118, -1,
          231, 118, 121, -1,
          231, 230, 118, -1,
          232, 121, 124, -1,
          232, 231, 121, -1,
          233, 124, 127, -1,
          233, 232, 124, -1,
          234, 127, 130, -1,
          234, 233, 127, -1,
          235, 130, 133, -1,
          235, 234, 130, -1,
          236, 133, 136, -1,
          236, 235, 133, -1,
          237, 136, 139, -1,
          237, 236, 136, -1,
          238, 139, 142, -1,
          238, 237, 139, -1,
          239, 142, 145, -1,
          239, 238, 142, -1,
          240, 145, 148, -1,
          240, 239, 145, -1,
          241, 148, 151, -1,
          241, 240, 148, -1,
          242, 151, 156, -1,
          242, 241, 151, -1,
          243, 156, 159, -1,
          243, 242, 156, -1,
          244, 159, 162, -1,
          244, 243, 159, -1,
          245, 162, 165, -1,
          245, 244, 162, -1,
          246, 245, 165, -1,
          246, 165, 168, -1,
          247, 168, 171, -1,
          247, 246, 168, -1,
          248, 247, 171, -1,
          248, 171, 174, -1,
          249, 248, 174, -1,
          249, 174, 177, -1,
          250, 249, 177, -1,
          250, 177, 179, -1,
          251, 250, 179, -1,
          251, 179, 181, -1,
          252, 251, 181, -1,
          252, 181, 183, -1,
          253, 252, 183, -1,
          253, 183, 185, -1,
          254, 253, 185, -1,
          254, 185, 188, -1,
          255, 254, 188, -1,
          255, 188, 190, -1,
          256, 255, 190, -1,
          256, 190, 192, -1,
          257, 256, 192, -1,
          257, 192, 194, -1,
          258, 257, 194, -1,
          258, 194, 196, -1,
          259, 258, 196, -1,
          259, 196, 198, -1,
          260, 259, 198, -1,
          260, 198, 200, -1,
          261, 200, 202, -1,
          261, 260, 200, -1,
          262, 202, 1, -1,
          262, 261, 202, -1,
          263, 1, 6, -1,
          263, 262, 1, -1,
          264, 6, 7, -1,
          264, 263, 6, -1,
          265, 7, 9, -1,
          265, 264, 7, -1,
          266, 9, 14, -1,
          266, 265, 9, -1,
          267, 204, 203, -1,
          267, 268, 204, -1,
          269, 203, 205, -1,
          269, 267, 203, -1,
          270, 205, 206, -1,
          270, 269, 205, -1,
          271, 206, 207, -1,
          271, 270, 206, -1,
          272, 207, 208, -1,
          272, 271, 207, -1,
          273, 208, 209, -1,
          273, 272, 208, -1,
          274, 209, 210, -1,
          274, 273, 209, -1,
          275, 210, 211, -1,
          275, 211, 212, -1,
          275, 274, 210, -1,
          276, 275, 212, -1,
          277, 212, 213, -1,
          277, 213, 214, -1,
          277, 276, 212, -1,
          278, 277, 214, -1,
          279, 214, 215, -1,
          279, 278, 214, -1,
          280, 215, 216, -1,
          280, 279, 215, -1,
          281, 216, 217, -1,
          281, 217, 218, -1,
          281, 280, 216, -1,
          282, 281, 218, -1,
          283, 218, 219, -1,
          283, 282, 218, -1,
          284, 219, 220, -1,
          284, 283, 219, -1,
          285, 220, 221, -1,
          285, 284, 220, -1,
          286, 285, 221, -1,
          286, 221, 222, -1,
          287, 286, 222, -1,
          287, 222, 223, -1,
          287, 223, 224, -1,
          288, 287, 224, -1,
          289, 288, 224, -1,
          289, 224, 225, -1,
          290, 225, 226, -1,
          290, 226, 227, -1,
          290, 289, 225, -1,
          291, 227, 228, -1,
          291, 290, 227, -1,
          292, 291, 228, -1,
          293, 228, 229, -1,
          293, 229, 230, -1,
          293, 292, 228, -1,
          294, 293, 230, -1,
          295, 230, 231, -1,
          295, 294, 230, -1,
          296, 231, 232, -1,
          296, 232, 233, -1,
          296, 295, 231, -1,
          297, 296, 233, -1,
          298, 233, 234, -1,
          298, 297, 233, -1,
          299, 234, 235, -1,
          299, 235, 236, -1,
          299, 298, 234, -1,
          300, 299, 236, -1,
          301, 236, 237, -1,
          301, 237, 238, -1,
          301, 300, 236, -1,
          302, 301, 238, -1,
          303, 238, 239, -1,
          303, 302, 238, -1,
          304, 239, 240, -1,
          304, 303, 239, -1,
          305, 240, 241, -1,
          305, 304, 240, -1,
          306, 241, 242, -1,
          306, 305, 241, -1,
          307, 242, 243, -1,
          307, 306, 242, -1,
          308, 243, 244, -1,
          308, 307, 243, -1,
          309, 244, 245, -1,
          309, 245, 246, -1,
          309, 308, 244, -1,
          310, 309, 246, -1,
          311, 310, 246, -1,
          311, 246, 247, -1,
          312, 311, 247, -1,
          312, 247, 248, -1,
          313, 312, 248, -1,
          313, 248, 249, -1,
          313, 249, 250, -1,
          314, 313, 250, -1,
          315, 314, 250, -1,
          315, 250, 251, -1,
          316, 315, 251, -1,
          316, 251, 252, -1,
          317, 316, 252, -1,
          317, 252, 253, -1,
          318, 317, 253, -1,
          318, 253, 254, -1,
          319, 318, 254, -1,
          319, 254, 255, -1,
          320, 319, 255, -1,
          320, 255, 256, -1,
          321, 320, 256, -1,
          321, 256, 257, -1,
          322, 321, 257, -1,
          322, 257, 258, -1,
          323, 258, 259, -1,
          323, 322, 258, -1,
          324, 259, 260, -1,
          324, 323, 259, -1,
          325, 260, 261, -1,
          325, 324, 260, -1,
          326, 261, 262, -1,
          326, 325, 261, -1,
          327, 262, 263, -1,
          327, 326, 262, -1,
          328, 263, 264, -1,
          328, 327, 263, -1,
          329, 264, 265, -1,
          329, 328, 264, -1,
          330, 265, 266, -1,
          330, 329, 265, -1,
          329, 330, 331, -1,
          329, 331, 332, -1,
          328, 329, 332, -1,
          328, 332, 333, -1,
          327, 328, 333, -1,
          327, 333, 334, -1,
          326, 327, 334, -1,
          326, 334, 335, -1,
          325, 326, 335, -1,
          325, 335, 336, -1,
          324, 325, 336, -1,
          324, 336, 337, -1,
          323, 337, 338, -1,
          323, 324, 337, -1,
          322, 338, 339, -1,
          322, 323, 338, -1,
          321, 339, 340, -1,
          321, 322, 339, -1,
          320, 340, 341, -1,
          320, 321, 340, -1,
          319, 341, 342, -1,
          319, 320, 341, -1,
          318, 342, 343, -1,
          318, 319, 342, -1,
          317, 343, 344, -1,
          317, 318, 343, -1,
          316, 344, 345, -1,
          316, 317, 344, -1,
          315, 345, 346, -1,
          315, 316, 345, -1,
          314, 346, 347, -1,
          314, 315, 346, -1,
          313, 347, 348, -1,
          313, 314, 347, -1,
          312, 313, 348, -1,
          312, 348, 349, -1,
          311, 312, 349, -1,
          311, 349, 350, -1,
          351, 311, 350, -1,
          310, 311, 351, -1,
          309, 310, 351, -1,
          309, 351, 352, -1,
          308, 309, 352, -1,
          308, 352, 353, -1,
          307, 308, 353, -1,
          307, 353, 354, -1,
          355, 307, 354, -1,
          306, 307, 355, -1,
          305, 306, 355, -1,
          305, 355, 356, -1,
          357, 305, 356, -1,
          304, 305, 357, -1,
          303, 357, 358, -1,
          303, 304, 357, -1,
          302, 358, 359, -1,
          302, 303, 358, -1,
          360, 302, 359, -1,
          301, 302, 360, -1,
          300, 360, 361, -1,
          300, 301, 360, -1,
          299, 361, 362, -1,
          299, 300, 361, -1,
          298, 362, 363, -1,
          298, 299, 362, -1,
          297, 363, 364, -1,
          297, 298, 363, -1,
          296, 364, 365, -1,
          296, 297, 364, -1,
          295, 365, 366, -1,
          295, 296, 365, -1,
          294, 366, 367, -1,
          294, 295, 366, -1,
          293, 367, 368, -1,
          293, 294, 367, -1,
          292, 368, 369, -1,
          292, 293, 368, -1,
          291, 369, 370, -1,
          291, 292, 369, -1,
          290, 370, 371, -1,
          290, 291, 370, -1,
          289, 371, 372, -1,
          289, 290, 371, -1,
          288, 372, 373, -1,
          288, 289, 372, -1,
          287, 373, 374, -1,
          287, 288, 373, -1,
          286, 287, 374, -1,
          286, 374, 375, -1,
          285, 286, 375, -1,
          285, 375, 376, -1,
          284, 285, 376, -1,
          284, 376, 377, -1,
          283, 284, 377, -1,
          283, 377, 378, -1,
          282, 378, 379, -1,
          282, 283, 378, -1,
          281, 379, 380, -1,
          281, 282, 379, -1,
          381, 281, 380, -1,
          280, 281, 381, -1,
          279, 381, 382, -1,
          279, 280, 381, -1,
          278, 382, 383, -1,
          278, 279, 382, -1,
          277, 383, 384, -1,
          277, 278, 383, -1,
          276, 384, 385, -1,
          276, 277, 384, -1,
          275, 385, 386, -1,
          275, 276, 385, -1,
          274, 386, 387, -1,
          274, 275, 386, -1,
          273, 387, 388, -1,
          273, 274, 387, -1,
          272, 388, 389, -1,
          272, 273, 388, -1,
          271, 389, 390, -1,
          271, 272, 389, -1,
          270, 390, 391, -1,
          270, 271, 390, -1,
          269, 391, 392, -1,
          269, 270, 391, -1,
          267, 392, 393, -1,
          267, 269, 392, -1,
          268, 393, 394, -1,
          268, 267, 393, -1,
          395, 394, 393, -1,
          395, 396, 394, -1,
          395, 397, 396, -1,
          398, 393, 392, -1,
          398, 395, 393, -1,
          399, 392, 391, -1,
          399, 398, 392, -1,
          400, 391, 390, -1,
          400, 399, 391, -1,
          401, 390, 389, -1,
          401, 400, 390, -1,
          402, 389, 388, -1,
          402, 401, 389, -1,
          403, 388, 387, -1,
          403, 402, 388, -1,
          404, 387, 386, -1,
          404, 403, 387, -1,
          405, 386, 385, -1,
          405, 404, 386, -1,
          406, 385, 384, -1,
          406, 405, 385, -1,
          407, 384, 383, -1,
          407, 406, 384, -1,
          408, 383, 382, -1,
          408, 407, 383, -1,
          409, 382, 381, -1,
          409, 408, 382, -1,
          410, 409, 381, -1,
          411, 381, 380, -1,
          411, 410, 381, -1,
          412, 397, 395, -1,
          412, 413, 397, -1,
          414, 380, 379, -1,
          414, 411, 380, -1,
          415, 412, 395, -1,
          415, 413, 412, -1,
          415, 395, 398, -1,
          416, 379, 378, -1,
          416, 414, 379, -1,
          417, 415, 398, -1,
          417, 413, 415, -1,
          417, 398, 399, -1,
          418, 378, 377, -1,
          418, 416, 378, -1,
          419, 417, 399, -1,
          419, 399, 400, -1,
          419, 400, 401, -1,
          419, 413, 417, -1,
          420, 377, 376, -1,
          420, 418, 377, -1,
          421, 419, 401, -1,
          421, 413, 419, -1,
          422, 376, 375, -1,
          422, 420, 376, -1,
          423, 421, 401, -1,
          423, 401, 402, -1,
          423, 413, 421, -1,
          424, 375, 374, -1,
          424, 422, 375, -1,
          425, 413, 423, -1,
          425, 402, 403, -1,
          425, 423, 402, -1,
          426, 374, 373, -1,
          426, 424, 374, -1,
          427, 413, 425, -1,
          427, 425, 403, -1,
          427, 403, 404, -1,
          428, 373, 372, -1,
          428, 426, 373, -1,
          429, 404, 405, -1,
          429, 427, 404, -1,
          429, 405, 406, -1,
          429, 413, 427, -1,
          430, 372, 371, -1,
          430, 428, 372, -1,
          431, 413, 429, -1,
          431, 429, 406, -1,
          432, 371, 370, -1,
          432, 430, 371, -1,
          433, 413, 431, -1,
          433, 431, 406, -1,
          433, 406, 407, -1,
          434, 370, 369, -1,
          434, 432, 370, -1,
          435, 413, 433, -1,
          435, 433, 407, -1,
          435, 407, 408, -1,
          435, 408, 409, -1,
          436, 434, 369, -1,
          437, 413, 435, -1,
          437, 435, 409, -1,
          438, 369, 368, -1,
          438, 436, 369, -1,
          439, 413, 437, -1,
          439, 437, 409, -1,
          439, 409, 410, -1,
          439, 410, 411, -1,
          440, 368, 367, -1,
          440, 438, 368, -1,
          441, 413, 439, -1,
          441, 439, 411, -1,
          442, 367, 366, -1,
          442, 440, 367, -1,
          443, 414, 416, -1,
          443, 441, 411, -1,
          443, 413, 441, -1,
          443, 411, 414, -1,
          444, 442, 366, -1,
          444, 366, 365, -1,
          445, 443, 416, -1,
          445, 413, 443, -1,
          446, 365, 364, -1,
          446, 444, 365, -1,
          447, 445, 416, -1,
          447, 416, 418, -1,
          447, 413, 445, -1,
          448, 364, 363, -1,
          448, 446, 364, -1,
          449, 420, 422, -1,
          449, 447, 418, -1,
          449, 418, 420, -1,
          449, 413, 447, -1,
          450, 363, 362, -1,
          450, 448, 363, -1,
          451, 413, 449, -1,
          451, 449, 422, -1,
          452, 362, 361, -1,
          452, 450, 362, -1,
          453, 422, 424, -1,
          453, 413, 451, -1,
          453, 451, 422, -1,
          454, 361, 360, -1,
          454, 452, 361, -1,
          455, 413, 453, -1,
          455, 424, 426, -1,
          455, 426, 428, -1,
          455, 453, 424, -1,
          456, 360, 359, -1,
          456, 454, 360, -1,
          457, 413, 455, -1,
          457, 455, 428, -1,
          458, 359, 358, -1,
          458, 456, 359, -1,
          459, 413, 457, -1,
          459, 457, 428, -1,
          459, 428, 430, -1,
          459, 430, 432, -1,
          460, 358, 357, -1,
          460, 458, 358, -1,
          461, 413, 459, -1,
          461, 432, 434, -1,
          461, 459, 432, -1,
          462, 460, 357, -1,
          462, 357, 356, -1,
          463, 413, 461, -1,
          463, 461, 434, -1,
          464, 462, 356, -1,
          465, 413, 463, -1,
          465, 434, 436, -1,
          465, 463, 434, -1,
          466, 464, 356, -1,
          466, 356, 355, -1,
          467, 413, 465, -1,
          467, 436, 438, -1,
          467, 438, 440, -1,
          467, 465, 436, -1,
          468, 355, 354, -1,
          468, 466, 355, -1,
          469, 413, 467, -1,
          469, 467, 440, -1,
          470, 354, 353, -1,
          470, 468, 354, -1,
          471, 413, 469, -1,
          471, 440, 442, -1,
          471, 469, 440, -1,
          472, 353, 352, -1,
          472, 470, 353, -1,
          473, 413, 471, -1,
          473, 471, 442, -1,
          473, 442, 444, -1,
          473, 444, 446, -1,
          474, 352, 351, -1,
          474, 472, 352, -1,
          475, 413, 473, -1,
          475, 473, 446, -1,
          475, 446, 448, -1,
          476, 351, 350, -1,
          476, 474, 351, -1,
          477, 413, 475, -1,
          477, 475, 448, -1,
          477, 448, 450, -1,
          478, 350, 349, -1,
          478, 476, 350, -1,
          479, 413, 477, -1,
          479, 477, 450, -1,
          480, 349, 348, -1,
          480, 478, 349, -1,
          481, 413, 479, -1,
          481, 479, 450, -1,
          481, 450, 452, -1,
          482, 348, 347, -1,
          482, 480, 348, -1,
          483, 454, 456, -1,
          483, 413, 481, -1,
          483, 452, 454, -1,
          483, 481, 452, -1,
          484, 347, 346, -1,
          484, 482, 347, -1,
          485, 413, 483, -1,
          485, 483, 456, -1,
          486, 346, 345, -1,
          486, 484, 346, -1,
          487, 456, 458, -1,
          487, 458, 460, -1,
          487, 413, 485, -1,
          487, 485, 456, -1,
          488, 345, 344, -1,
          488, 486, 345, -1,
          489, 460, 462, -1,
          489, 487, 460, -1,
          489, 413, 487, -1,
          490, 488, 344, -1,
          491, 489, 462, -1,
          491, 413, 489, -1,
          492, 344, 343, -1,
          492, 490, 344, -1,
          493, 413, 491, -1,
          493, 462, 464, -1,
          493, 464, 466, -1,
          493, 491, 462, -1,
          494, 343, 342, -1,
          494, 492, 343, -1,
          495, 413, 493, -1,
          495, 466, 468, -1,
          495, 493, 466, -1,
          496, 494, 342, -1,
          496, 342, 341, -1,
          497, 495, 468, -1,
          497, 413, 495, -1,
          498, 496, 341, -1,
          498, 341, 340, -1,
          499, 497, 468, -1,
          499, 413, 497, -1,
          499, 468, 470, -1,
          499, 470, 472, -1,
          500, 498, 340, -1,
          500, 340, 339, -1,
          501, 499, 472, -1,
          501, 413, 499, -1,
          501, 472, 474, -1,
          502, 500, 339, -1,
          502, 339, 338, -1,
          503, 413, 501, -1,
          503, 501, 474, -1,
          503, 474, 476, -1,
          504, 502, 338, -1,
          504, 338, 337, -1,
          505, 413, 503, -1,
          505, 503, 476, -1,
          506, 504, 337, -1,
          506, 337, 336, -1,
          507, 478, 480, -1,
          507, 413, 505, -1,
          507, 505, 476, -1,
          507, 476, 478, -1,
          508, 336, 335, -1,
          508, 506, 336, -1,
          509, 413, 507, -1,
          509, 507, 480, -1,
          509, 480, 482, -1,
          510, 335, 334, -1,
          510, 508, 335, -1,
          511, 413, 509, -1,
          511, 509, 482, -1,
          512, 334, 333, -1,
          512, 510, 334, -1,
          513, 484, 486, -1,
          513, 413, 511, -1,
          513, 511, 482, -1,
          513, 482, 484, -1,
          514, 333, 332, -1,
          514, 512, 333, -1,
          515, 413, 513, -1,
          515, 513, 486, -1,
          516, 514, 332, -1,
          516, 332, 331, -1,
          516, 331, 517, -1,
          518, 486, 488, -1,
          518, 515, 486, -1,
          518, 413, 515, -1,
          519, 488, 490, -1,
          519, 518, 488, -1,
          519, 413, 518, -1,
          520, 490, 492, -1,
          520, 519, 490, -1,
          520, 413, 519, -1,
          521, 520, 492, -1,
          521, 492, 494, -1,
          521, 494, 496, -1,
          521, 413, 520, -1,
          522, 413, 521, -1,
          522, 521, 496, -1,
          523, 413, 522, -1,
          523, 522, 496, -1,
          523, 496, 498, -1,
          524, 413, 523, -1,
          524, 498, 500, -1,
          524, 500, 502, -1,
          524, 523, 498, -1,
          525, 413, 524, -1,
          525, 524, 502, -1,
          526, 525, 502, -1,
          526, 413, 525, -1,
          526, 502, 504, -1,
          527, 413, 526, -1,
          527, 504, 506, -1,
          527, 506, 508, -1,
          527, 526, 504, -1,
          528, 413, 527, -1,
          528, 527, 508, -1,
          529, 413, 528, -1,
          529, 508, 510, -1,
          529, 528, 508, -1,
          530, 413, 529, -1,
          530, 529, 510, -1,
          530, 510, 512, -1,
          530, 512, 514, -1,
          531, 413, 530, -1,
          531, 530, 514, -1,
          532, 413, 531, -1,
          532, 531, 514, -1,
          532, 514, 516, -1,
          532, 517, 533, -1,
          532, 533, 413, -1,
          532, 516, 517, -1,
          534, 517, 331, -1,
          534, 533, 517, -1,
          534, 331, 535, -1,
          536, 535, 537, -1,
          536, 534, 535, -1,
          538, 537, 539, -1,
          538, 536, 537, -1,
          540, 539, 541, -1,
          540, 538, 539, -1,
          542, 541, 543, -1,
          542, 540, 541, -1,
          544, 542, 543, -1,
          544, 543, 545, -1,
          546, 545, 547, -1,
          546, 544, 545, -1,
          548, 546, 547, -1,
          548, 547, 549, -1,
          550, 549, 551, -1,
          550, 548, 549, -1,
          552, 550, 551, -1,
          552, 551, 553, -1,
          554, 552, 553, -1,
          554, 553, 555, -1,
          556, 555, 557, -1,
          556, 554, 555, -1,
          558, 557, 559, -1,
          558, 556, 557, -1,
          560, 558, 559, -1,
          561, 559, 562, -1,
          561, 560, 559, -1,
          563, 413, 533, -1,
          563, 533, 534, -1,
          564, 562, 565, -1,
          564, 561, 562, -1,
          566, 413, 563, -1,
          566, 534, 536, -1,
          566, 563, 534, -1,
          567, 564, 565, -1,
          567, 565, 568, -1,
          569, 536, 538, -1,
          569, 566, 536, -1,
          569, 413, 566, -1,
          570, 567, 568, -1,
          570, 568, 571, -1,
          572, 569, 538, -1,
          572, 538, 540, -1,
          572, 413, 569, -1,
          573, 571, 574, -1,
          573, 570, 571, -1,
          575, 413, 572, -1,
          575, 572, 540, -1,
          575, 540, 542, -1,
          576, 574, 577, -1,
          576, 573, 574, -1,
          578, 542, 544, -1,
          578, 575, 542, -1,
          578, 413, 575, -1,
          579, 577, 580, -1,
          579, 576, 577, -1,
          581, 544, 546, -1,
          581, 546, 548, -1,
          581, 413, 578, -1,
          581, 578, 544, -1,
          582, 579, 580, -1,
          582, 580, 583, -1,
          584, 581, 548, -1,
          584, 413, 581, -1,
          585, 583, 586, -1,
          585, 582, 583, -1,
          587, 548, 550, -1,
          587, 584, 548, -1,
          587, 413, 584, -1,
          588, 585, 586, -1,
          588, 586, 589, -1,
          590, 550, 552, -1,
          590, 413, 587, -1,
          590, 587, 550, -1,
          591, 588, 589, -1,
          591, 589, 592, -1,
          593, 413, 590, -1,
          593, 590, 552, -1,
          593, 552, 554, -1,
          594, 591, 592, -1,
          594, 592, 595, -1,
          596, 554, 556, -1,
          596, 593, 554, -1,
          596, 413, 593, -1,
          597, 594, 595, -1,
          598, 556, 558, -1,
          598, 596, 556, -1,
          598, 413, 596, -1,
          599, 595, 600, -1,
          599, 597, 595, -1,
          601, 558, 560, -1,
          601, 413, 598, -1,
          601, 598, 558, -1,
          601, 560, 561, -1,
          602, 600, 603, -1,
          602, 599, 600, -1,
          604, 413, 601, -1,
          604, 601, 561, -1,
          605, 603, 606, -1,
          605, 602, 603, -1,
          607, 413, 604, -1,
          607, 604, 561, -1,
          607, 561, 564, -1,
          608, 606, 609, -1,
          608, 605, 606, -1,
          610, 413, 607, -1,
          610, 607, 564, -1,
          610, 564, 567, -1,
          610, 567, 570, -1,
          611, 609, 612, -1,
          611, 608, 609, -1,
          613, 610, 570, -1,
          613, 413, 610, -1,
          614, 612, 615, -1,
          614, 611, 612, -1,
          616, 573, 576, -1,
          616, 570, 573, -1,
          616, 413, 613, -1,
          616, 613, 570, -1,
          617, 615, 618, -1,
          617, 614, 615, -1,
          619, 616, 576, -1,
          619, 413, 616, -1,
          620, 618, 621, -1,
          620, 617, 618, -1,
          622, 413, 619, -1,
          622, 619, 576, -1,
          622, 576, 579, -1,
          623, 621, 624, -1,
          623, 620, 621, -1,
          625, 579, 582, -1,
          625, 622, 579, -1,
          625, 413, 622, -1,
          626, 624, 627, -1,
          626, 623, 624, -1,
          628, 413, 625, -1,
          628, 582, 585, -1,
          628, 625, 582, -1,
          629, 627, 630, -1,
          629, 626, 627, -1,
          631, 413, 628, -1,
          631, 585, 588, -1,
          631, 628, 585, -1,
          632, 629, 630, -1,
          632, 630, 633, -1,
          634, 413, 631, -1,
          634, 631, 588, -1,
          634, 588, 591, -1,
          635, 633, 636, -1,
          635, 632, 633, -1,
          637, 413, 634, -1,
          637, 594, 597, -1,
          637, 634, 591, -1,
          637, 591, 594, -1,
          638, 635, 636, -1,
          639, 637, 597, -1,
          639, 413, 637, -1,
          640, 638, 636, -1,
          640, 636, 641, -1,
          642, 597, 599, -1,
          642, 639, 597, -1,
          642, 413, 639, -1,
          642, 599, 602, -1,
          643, 640, 641, -1,
          643, 641, 644, -1,
          645, 642, 602, -1,
          645, 602, 605, -1,
          645, 413, 642, -1,
          646, 644, 647, -1,
          646, 643, 644, -1,
          648, 645, 605, -1,
          648, 413, 645, -1,
          649, 647, 650, -1,
          649, 646, 647, -1,
          651, 648, 605, -1,
          651, 413, 648, -1,
          651, 605, 608, -1,
          652, 650, 653, -1,
          652, 649, 650, -1,
          654, 651, 608, -1,
          654, 413, 651, -1,
          654, 608, 611, -1,
          654, 611, 614, -1,
          655, 652, 653, -1,
          655, 653, 656, -1,
          657, 413, 654, -1,
          657, 654, 614, -1,
          658, 656, 659, -1,
          658, 655, 656, -1,
          660, 413, 657, -1,
          660, 657, 614, -1,
          660, 614, 617, -1,
          661, 659, 662, -1,
          661, 658, 659, -1,
          663, 413, 660, -1,
          663, 620, 623, -1,
          663, 660, 617, -1,
          663, 617, 620, -1,
          664, 662, 665, -1,
          664, 661, 662, -1,
          666, 413, 663, -1,
          666, 663, 623, -1,
          667, 664, 665, -1,
          667, 665, 668, -1,
          669, 623, 626, -1,
          669, 413, 666, -1,
          669, 666, 623, -1,
          670, 668, 671, -1,
          670, 667, 668, -1,
          672, 629, 632, -1,
          672, 626, 629, -1,
          672, 413, 669, -1,
          672, 669, 626, -1,
          673, 671, 674, -1,
          673, 670, 671, -1,
          675, 413, 672, -1,
          675, 672, 632, -1,
          676, 673, 674, -1,
          677, 413, 675, -1,
          677, 632, 635, -1,
          677, 675, 632, -1,
          678, 676, 674, -1,
          678, 674, 679, -1,
          680, 638, 640, -1,
          680, 635, 638, -1,
          680, 413, 677, -1,
          680, 677, 635, -1,
          681, 678, 679, -1,
          681, 679, 682, -1,
          683, 413, 680, -1,
          683, 640, 643, -1,
          683, 680, 640, -1,
          684, 682, 685, -1,
          684, 681, 682, -1,
          686, 683, 643, -1,
          686, 413, 683, -1,
          687, 685, 688, -1,
          687, 684, 685, -1,
          689, 686, 643, -1,
          689, 413, 686, -1,
          689, 646, 649, -1,
          689, 643, 646, -1,
          690, 688, 691, -1,
          690, 687, 688, -1,
          692, 689, 649, -1,
          692, 413, 689, -1,
          692, 649, 652, -1,
          693, 690, 691, -1,
          693, 691, 694, -1,
          695, 413, 692, -1,
          695, 692, 652, -1,
          696, 693, 694, -1,
          696, 694, 697, -1,
          698, 413, 695, -1,
          698, 695, 652, -1,
          698, 652, 655, -1,
          698, 655, 658, -1,
          699, 696, 697, -1,
          699, 697, 700, -1,
          701, 413, 698, -1,
          701, 698, 658, -1,
          702, 699, 700, -1,
          702, 700, 703, -1,
          704, 413, 701, -1,
          704, 701, 658, -1,
          704, 658, 661, -1,
          705, 703, 706, -1,
          705, 702, 703, -1,
          707, 413, 704, -1,
          707, 704, 661, -1,
          707, 664, 667, -1,
          707, 661, 664, -1,
          708, 706, 709, -1,
          708, 705, 706, -1,
          710, 413, 707, -1,
          710, 707, 667, -1,
          711, 709, 712, -1,
          711, 708, 709, -1,
          713, 667, 670, -1,
          713, 670, 673, -1,
          713, 413, 710, -1,
          713, 710, 667, -1,
          714, 711, 712, -1,
          714, 712, 394, -1,
          714, 394, 396, -1,
          715, 673, 676, -1,
          715, 713, 673, -1,
          715, 413, 713, -1,
          716, 715, 676, -1,
          716, 413, 715, -1,
          717, 676, 678, -1,
          717, 716, 676, -1,
          717, 413, 716, -1,
          718, 678, 681, -1,
          718, 681, 684, -1,
          718, 717, 678, -1,
          718, 413, 717, -1,
          719, 413, 718, -1,
          719, 718, 684, -1,
          720, 413, 719, -1,
          720, 684, 687, -1,
          720, 719, 684, -1,
          721, 413, 720, -1,
          721, 687, 690, -1,
          721, 690, 693, -1,
          721, 720, 687, -1,
          722, 413, 721, -1,
          722, 721, 693, -1,
          723, 722, 693, -1,
          723, 413, 722, -1,
          723, 693, 696, -1,
          724, 413, 723, -1,
          724, 696, 699, -1,
          724, 723, 696, -1,
          724, 699, 702, -1,
          725, 413, 724, -1,
          725, 724, 702, -1,
          726, 725, 702, -1,
          726, 413, 725, -1,
          726, 702, 705, -1,
          727, 413, 726, -1,
          727, 726, 705, -1,
          727, 705, 708, -1,
          727, 708, 711, -1,
          728, 727, 711, -1,
          728, 413, 727, -1,
          729, 413, 728, -1,
          729, 711, 714, -1,
          729, 396, 397, -1,
          729, 397, 413, -1,
          729, 728, 711, -1,
          729, 714, 396, -1,
          730, 268, 394, -1,
          730, 394, 712, -1,
          731, 730, 712, -1,
          731, 712, 709, -1,
          732, 731, 709, -1,
          732, 709, 706, -1,
          733, 732, 706, -1,
          733, 706, 703, -1,
          700, 733, 703, -1,
          734, 733, 700, -1,
          735, 734, 700, -1,
          735, 700, 697, -1,
          736, 697, 694, -1,
          736, 735, 697, -1,
          737, 694, 691, -1,
          737, 736, 694, -1,
          738, 691, 688, -1,
          738, 737, 691, -1,
          739, 688, 685, -1,
          739, 738, 688, -1,
          682, 739, 685, -1,
          740, 739, 682, -1,
          679, 740, 682, -1,
          741, 740, 679, -1,
          742, 679, 674, -1,
          742, 741, 679, -1,
          743, 674, 671, -1,
          743, 742, 674, -1,
          744, 671, 668, -1,
          744, 743, 671, -1,
          745, 668, 665, -1,
          745, 744, 668, -1,
          746, 665, 662, -1,
          746, 745, 665, -1,
          747, 746, 662, -1,
          747, 662, 659, -1,
          748, 747, 659, -1,
          748, 659, 656, -1,
          653, 748, 656, -1,
          749, 748, 653, -1,
          750, 749, 653, -1,
          750, 653, 650, -1,
          751, 750, 650, -1,
          751, 650, 647, -1,
          752, 751, 647, -1,
          752, 647, 644, -1,
          753, 752, 644, -1,
          753, 644, 641, -1,
          754, 753, 641, -1,
          754, 641, 636, -1,
          755, 754, 636, -1,
          755, 636, 633, -1,
          756, 755, 633, -1,
          756, 633, 630, -1,
          757, 630, 627, -1,
          757, 756, 630, -1,
          758, 627, 624, -1,
          758, 757, 627, -1,
          621, 758, 624, -1,
          759, 758, 621, -1,
          760, 621, 618, -1,
          760, 759, 621, -1,
          761, 618, 615, -1,
          761, 760, 618, -1,
          762, 615, 612, -1,
          762, 761, 615, -1,
          763, 612, 609, -1,
          763, 762, 612, -1,
          764, 609, 606, -1,
          764, 763, 609, -1,
          765, 606, 603, -1,
          765, 764, 606, -1,
          766, 603, 600, -1,
          766, 765, 603, -1,
          767, 600, 595, -1,
          767, 766, 600, -1,
          768, 595, 592, -1,
          768, 767, 595, -1,
          769, 592, 589, -1,
          769, 768, 592, -1,
          770, 589, 586, -1,
          770, 769, 589, -1,
          771, 586, 583, -1,
          771, 770, 586, -1,
          772, 583, 580, -1,
          772, 771, 583, -1,
          773, 772, 580, -1,
          773, 580, 577, -1,
          774, 773, 577, -1,
          774, 577, 574, -1,
          775, 774, 574, -1,
          775, 574, 571, -1,
          776, 775, 571, -1,
          776, 571, 568, -1,
          777, 568, 565, -1,
          777, 776, 568, -1,
          778, 565, 562, -1,
          778, 777, 565, -1,
          779, 562, 559, -1,
          779, 778, 562, -1,
          780, 559, 557, -1,
          780, 779, 559, -1,
          781, 557, 555, -1,
          781, 780, 557, -1,
          782, 555, 553, -1,
          782, 781, 555, -1,
          783, 553, 551, -1,
          783, 782, 553, -1,
          784, 551, 549, -1,
          784, 783, 551, -1,
          785, 549, 547, -1,
          785, 784, 549, -1,
          786, 547, 545, -1,
          786, 785, 547, -1,
          787, 545, 543, -1,
          787, 786, 545, -1,
          788, 543, 541, -1,
          788, 787, 543, -1,
          789, 541, 539, -1,
          789, 788, 541, -1,
          790, 539, 537, -1,
          790, 789, 539, -1,
          791, 537, 535, -1,
          791, 790, 537, -1,
          330, 535, 331, -1,
          330, 791, 535, -1,
          791, 330, 266, -1,
          791, 266, 792, -1,
          790, 792, 793, -1,
          790, 791, 792, -1,
          789, 793, 794, -1,
          789, 790, 793, -1,
          788, 794, 795, -1,
          788, 789, 794, -1,
          787, 795, 796, -1,
          787, 796, 797, -1,
          787, 788, 795, -1,
          786, 797, 798, -1,
          786, 787, 797, -1,
          785, 786, 798, -1,
          784, 798, 799, -1,
          784, 799, 800, -1,
          784, 785, 798, -1,
          783, 784, 800, -1,
          782, 800, 801, -1,
          782, 783, 800, -1,
          781, 801, 802, -1,
          781, 782, 801, -1,
          780, 802, 803, -1,
          780, 803, 804, -1,
          780, 781, 802, -1,
          779, 780, 804, -1,
          778, 804, 805, -1,
          778, 779, 804, -1,
          777, 805, 806, -1,
          777, 778, 805, -1,
          776, 806, 807, -1,
          776, 807, 808, -1,
          776, 777, 806, -1,
          775, 776, 808, -1,
          774, 775, 808, -1,
          774, 808, 809, -1,
          773, 774, 809, -1,
          773, 809, 810, -1,
          772, 773, 810, -1,
          772, 810, 811, -1,
          771, 772, 811, -1,
          771, 811, 812, -1,
          770, 771, 812, -1,
          770, 812, 813, -1,
          769, 813, 814, -1,
          769, 770, 813, -1,
          768, 814, 815, -1,
          768, 769, 814, -1,
          767, 815, 816, -1,
          767, 768, 815, -1,
          766, 816, 817, -1,
          766, 767, 816, -1,
          765, 817, 818, -1,
          765, 766, 817, -1,
          764, 818, 819, -1,
          764, 819, 820, -1,
          764, 765, 818, -1,
          763, 764, 820, -1,
          762, 820, 821, -1,
          762, 763, 820, -1,
          761, 821, 822, -1,
          761, 822, 823, -1,
          761, 762, 821, -1,
          760, 761, 823, -1,
          759, 823, 824, -1,
          759, 824, 825, -1,
          759, 760, 823, -1,
          758, 759, 825, -1,
          757, 825, 826, -1,
          757, 758, 825, -1,
          756, 826, 827, -1,
          756, 757, 826, -1,
          755, 827, 828, -1,
          755, 828, 829, -1,
          755, 756, 827, -1,
          754, 755, 829, -1,
          753, 829, 830, -1,
          753, 754, 829, -1,
          752, 830, 831, -1,
          752, 753, 830, -1,
          751, 831, 832, -1,
          751, 752, 831, -1,
          750, 832, 833, -1,
          750, 751, 832, -1,
          749, 750, 833, -1,
          749, 833, 834, -1,
          748, 749, 834, -1,
          748, 834, 835, -1,
          747, 748, 835, -1,
          747, 835, 836, -1,
          746, 747, 836, -1,
          746, 836, 837, -1,
          745, 746, 837, -1,
          745, 837, 838, -1,
          745, 838, 839, -1,
          744, 745, 839, -1,
          743, 744, 839, -1,
          743, 839, 840, -1,
          742, 743, 840, -1,
          742, 840, 841, -1,
          741, 742, 841, -1,
          741, 841, 842, -1,
          740, 741, 842, -1,
          740, 842, 843, -1,
          739, 740, 843, -1,
          739, 843, 844, -1,
          738, 739, 844, -1,
          738, 844, 845, -1,
          737, 738, 845, -1,
          737, 845, 846, -1,
          736, 737, 846, -1,
          736, 846, 847, -1,
          735, 847, 848, -1,
          735, 848, 849, -1,
          735, 736, 847, -1,
          734, 735, 849, -1,
          733, 849, 850, -1,
          733, 734, 849, -1,
          732, 850, 851, -1,
          732, 733, 850, -1,
          731, 851, 852, -1,
          731, 732, 851, -1,
          730, 852, 853, -1,
          730, 853, 204, -1,
          730, 731, 852, -1,
          268, 730, 204, -1,
          792, 266, 14, -1,
          792, 14, 854, -1,
          793, 854, 855, -1,
          793, 792, 854, -1,
          794, 855, 856, -1,
          794, 793, 855, -1,
          795, 856, 857, -1,
          795, 794, 856, -1,
          796, 857, 858, -1,
          796, 795, 857, -1,
          797, 858, 859, -1,
          797, 796, 858, -1,
          798, 859, 860, -1,
          798, 797, 859, -1,
          799, 860, 861, -1,
          799, 798, 860, -1,
          800, 861, 862, -1,
          800, 799, 861, -1,
          801, 862, 863, -1,
          801, 800, 862, -1,
          802, 863, 864, -1,
          802, 801, 863, -1,
          803, 864, 865, -1,
          803, 802, 864, -1,
          866, 803, 865, -1,
          804, 803, 866, -1,
          805, 866, 867, -1,
          805, 804, 866, -1,
          868, 805, 867, -1,
          806, 805, 868, -1,
          807, 868, 869, -1,
          807, 806, 868, -1,
          808, 869, 870, -1,
          808, 807, 869, -1,
          871, 808, 870, -1,
          809, 808, 871, -1,
          810, 809, 871, -1,
          810, 871, 872, -1,
          811, 810, 872, -1,
          811, 872, 873, -1,
          874, 811, 873, -1,
          812, 811, 874, -1,
          813, 812, 874, -1,
          813, 874, 875, -1,
          814, 813, 875, -1,
          814, 875, 876, -1,
          815, 876, 877, -1,
          815, 814, 876, -1,
          816, 877, 878, -1,
          816, 815, 877, -1,
          817, 878, 879, -1,
          817, 816, 878, -1,
          818, 879, 880, -1,
          818, 817, 879, -1,
          819, 880, 881, -1,
          819, 818, 880, -1,
          882, 819, 881, -1,
          820, 819, 882, -1,
          821, 882, 883, -1,
          821, 820, 882, -1,
          884, 821, 883, -1,
          822, 821, 884, -1,
          823, 884, 885, -1,
          823, 822, 884, -1,
          824, 885, 886, -1,
          824, 823, 885, -1,
          825, 886, 887, -1,
          825, 824, 886, -1,
          826, 887, 888, -1,
          826, 825, 887, -1,
          827, 888, 889, -1,
          827, 826, 888, -1,
          828, 889, 890, -1,
          828, 827, 889, -1,
          829, 890, 891, -1,
          829, 828, 890, -1,
          830, 891, 892, -1,
          830, 829, 891, -1,
          831, 892, 893, -1,
          831, 830, 892, -1,
          832, 893, 894, -1,
          832, 831, 893, -1,
          833, 894, 895, -1,
          833, 832, 894, -1,
          834, 833, 895, -1,
          834, 895, 896, -1,
          835, 896, 897, -1,
          835, 834, 896, -1,
          836, 835, 897, -1,
          836, 897, 898, -1,
          837, 836, 898, -1,
          837, 898, 899, -1,
          838, 837, 899, -1,
          838, 899, 900, -1,
          839, 838, 900, -1,
          839, 900, 901, -1,
          840, 839, 901, -1,
          840, 901, 902, -1,
          841, 840, 902, -1,
          841, 902, 903, -1,
          842, 841, 903, -1,
          842, 903, 904, -1,
          843, 842, 904, -1,
          843, 904, 905, -1,
          844, 843, 905, -1,
          844, 905, 906, -1,
          907, 844, 906, -1,
          845, 844, 907, -1,
          846, 845, 907, -1,
          846, 907, 908, -1,
          847, 846, 908, -1,
          847, 908, 909, -1,
          848, 847, 909, -1,
          848, 909, 910, -1,
          849, 910, 911, -1,
          849, 848, 910, -1,
          850, 911, 912, -1,
          850, 849, 911, -1,
          851, 912, 913, -1,
          851, 850, 912, -1,
          852, 913, 914, -1,
          852, 851, 913, -1,
          853, 914, 915, -1,
          853, 852, 914, -1,
          204, 915, 35, -1,
          204, 853, 915, -1,
          916, 917, 918, -1,
          916, 913, 912, -1,
          916, 912, 917, -1,
          916, 918, 919, -1,
          920, 913, 916, -1,
          920, 916, 919, -1,
          920, 914, 913, -1,
          920, 919, 921, -1,
          922, 914, 920, -1,
          922, 920, 921, -1,
          922, 915, 914, -1,
          923, 17, 34, -1,
          923, 34, 35, -1,
          923, 915, 922, -1,
          923, 922, 921, -1,
          923, 35, 915, -1,
          923, 924, 17, -1,
          923, 921, 924, -1,
          925, 12, 18, -1,
          926, 925, 18, -1,
          927, 926, 18, -1,
          928, 927, 18, -1,
          929, 928, 18, -1,
          930, 929, 18, -1,
          931, 930, 18, -1,
          932, 931, 18, -1,
          933, 932, 18, -1,
          934, 933, 18, -1,
          935, 934, 18, -1,
          936, 935, 18, -1,
          937, 936, 18, -1,
          938, 937, 18, -1,
          939, 938, 18, -1,
          940, 13, 12, -1,
          940, 14, 13, -1,
          940, 854, 14, -1,
          940, 12, 925, -1,
          941, 939, 18, -1,
          942, 855, 854, -1,
          942, 925, 926, -1,
          942, 854, 940, -1,
          942, 940, 925, -1,
          943, 941, 18, -1,
          944, 856, 855, -1,
          944, 855, 942, -1,
          944, 926, 927, -1,
          944, 942, 926, -1,
          945, 943, 18, -1,
          946, 944, 927, -1,
          946, 857, 856, -1,
          946, 927, 928, -1,
          946, 856, 944, -1,
          947, 945, 18, -1,
          948, 858, 857, -1,
          948, 928, 929, -1,
          948, 946, 928, -1,
          948, 857, 946, -1,
          949, 947, 18, -1,
          950, 859, 858, -1,
          950, 948, 929, -1,
          950, 858, 948, -1,
          950, 929, 930, -1,
          951, 949, 18, -1,
          952, 859, 950, -1,
          952, 931, 932, -1,
          952, 860, 859, -1,
          952, 930, 931, -1,
          952, 950, 930, -1,
          953, 951, 18, -1,
          954, 861, 860, -1,
          954, 860, 952, -1,
          954, 952, 932, -1,
          955, 953, 18, -1,
          956, 862, 861, -1,
          956, 954, 932, -1,
          956, 932, 933, -1,
          956, 933, 934, -1,
          956, 861, 954, -1,
          957, 955, 18, -1,
          958, 862, 956, -1,
          958, 863, 862, -1,
          958, 956, 934, -1,
          959, 957, 18, -1,
          960, 864, 863, -1,
          960, 958, 934, -1,
          960, 934, 935, -1,
          960, 863, 958, -1,
          961, 959, 18, -1,
          962, 960, 935, -1,
          962, 865, 864, -1,
          962, 864, 960, -1,
          962, 935, 936, -1,
          963, 961, 18, -1,
          964, 866, 865, -1,
          964, 865, 962, -1,
          964, 962, 936, -1,
          964, 936, 937, -1,
          965, 963, 18, -1,
          966, 938, 939, -1,
          966, 964, 937, -1,
          966, 866, 964, -1,
          966, 937, 938, -1,
          967, 965, 18, -1,
          968, 966, 939, -1,
          968, 867, 866, -1,
          968, 866, 966, -1,
          969, 967, 18, -1,
          970, 939, 941, -1,
          970, 868, 867, -1,
          970, 968, 939, -1,
          970, 867, 968, -1,
          971, 969, 18, -1,
          972, 869, 868, -1,
          972, 868, 970, -1,
          972, 970, 941, -1,
          972, 941, 943, -1,
          973, 971, 18, -1,
          974, 945, 947, -1,
          974, 972, 943, -1,
          974, 870, 869, -1,
          974, 943, 945, -1,
          974, 869, 972, -1,
          975, 973, 18, -1,
          976, 871, 870, -1,
          976, 870, 974, -1,
          976, 974, 947, -1,
          977, 975, 18, -1,
          978, 947, 949, -1,
          978, 872, 871, -1,
          978, 976, 947, -1,
          978, 871, 976, -1,
          979, 977, 18, -1,
          980, 951, 953, -1,
          980, 873, 872, -1,
          980, 949, 951, -1,
          980, 872, 978, -1,
          980, 978, 949, -1,
          981, 979, 18, -1,
          982, 874, 873, -1,
          982, 953, 955, -1,
          982, 873, 980, -1,
          982, 980, 953, -1,
          983, 981, 18, -1,
          984, 875, 874, -1,
          984, 874, 982, -1,
          984, 982, 955, -1,
          985, 983, 18, -1,
          986, 955, 957, -1,
          986, 875, 984, -1,
          986, 876, 875, -1,
          986, 984, 955, -1,
          987, 985, 18, -1,
          988, 876, 986, -1,
          988, 957, 959, -1,
          988, 959, 961, -1,
          988, 877, 876, -1,
          988, 986, 957, -1,
          989, 987, 18, -1,
          990, 988, 961, -1,
          990, 878, 877, -1,
          990, 877, 988, -1,
          991, 989, 18, -1,
          992, 990, 961, -1,
          992, 878, 990, -1,
          992, 961, 963, -1,
          993, 991, 18, -1,
          994, 963, 965, -1,
          994, 879, 878, -1,
          994, 965, 967, -1,
          994, 878, 992, -1,
          994, 992, 963, -1,
          995, 993, 18, -1,
          996, 994, 967, -1,
          996, 880, 879, -1,
          996, 879, 994, -1,
          996, 967, 969, -1,
          997, 995, 18, -1,
          998, 996, 969, -1,
          998, 881, 880, -1,
          998, 880, 996, -1,
          999, 997, 18, -1,
          1000, 882, 881, -1,
          1000, 998, 969, -1,
          1000, 881, 998, -1,
          1000, 969, 971, -1,
          1000, 971, 973, -1,
          1001, 999, 18, -1,
          1002, 882, 1000, -1,
          1002, 883, 882, -1,
          1002, 1000, 973, -1,
          1002, 973, 975, -1,
          1003, 1001, 18, -1,
          1004, 883, 1002, -1,
          1004, 884, 883, -1,
          1004, 1002, 975, -1,
          1005, 1003, 18, -1,
          1006, 884, 1004, -1,
          1006, 885, 884, -1,
          1006, 1004, 975, -1,
          1006, 975, 977, -1,
          1006, 977, 979, -1,
          1007, 1005, 18, -1,
          1008, 1006, 979, -1,
          1008, 886, 885, -1,
          1008, 885, 1006, -1,
          1009, 1007, 18, -1,
          1010, 979, 981, -1,
          1010, 981, 983, -1,
          1010, 887, 886, -1,
          1010, 886, 1008, -1,
          1010, 1008, 979, -1,
          1011, 1009, 18, -1,
          1012, 983, 985, -1,
          1012, 888, 887, -1,
          1012, 887, 1010, -1,
          1012, 1010, 983, -1,
          1013, 1011, 18, -1,
          1014, 889, 888, -1,
          1014, 1012, 985, -1,
          1014, 888, 1012, -1,
          1015, 1013, 18, -1,
          1016, 985, 987, -1,
          1016, 987, 989, -1,
          1016, 890, 889, -1,
          1016, 889, 1014, -1,
          1016, 1014, 985, -1,
          1017, 1015, 18, -1,
          1018, 890, 1016, -1,
          1018, 891, 890, -1,
          1018, 1016, 989, -1,
          1019, 1017, 18, -1,
          1020, 989, 991, -1,
          1020, 1018, 989, -1,
          1020, 891, 1018, -1,
          1021, 1019, 18, -1,
          1022, 991, 993, -1,
          1022, 993, 995, -1,
          1022, 892, 891, -1,
          1022, 1020, 991, -1,
          1022, 891, 1020, -1,
          1023, 1021, 18, -1,
          1024, 892, 1022, -1,
          1024, 893, 892, -1,
          1024, 1022, 995, -1,
          1025, 1023, 18, -1,
          1026, 893, 1024, -1,
          1026, 1024, 995, -1,
          1026, 995, 997, -1,
          1026, 894, 893, -1,
          1026, 997, 999, -1,
          1027, 1025, 18, -1,
          1028, 894, 1026, -1,
          1028, 1026, 999, -1,
          1028, 895, 894, -1,
          1029, 1027, 18, -1,
          1030, 895, 1028, -1,
          1030, 896, 895, -1,
          1030, 999, 1001, -1,
          1030, 1028, 999, -1,
          1031, 1029, 18, -1,
          1032, 1030, 1001, -1,
          1032, 897, 896, -1,
          1032, 1001, 1003, -1,
          1032, 1003, 1005, -1,
          1032, 896, 1030, -1,
          1033, 1031, 18, -1,
          1034, 1032, 1005, -1,
          1034, 898, 897, -1,
          1034, 1005, 1007, -1,
          1034, 897, 1032, -1,
          1035, 1033, 18, -1,
          1036, 898, 1034, -1,
          1036, 899, 898, -1,
          1036, 1034, 1007, -1,
          918, 1035, 18, -1,
          1037, 899, 1036, -1,
          1037, 900, 899, -1,
          1037, 1036, 1007, -1,
          1037, 1007, 1009, -1,
          1037, 1009, 1011, -1,
          919, 918, 18, -1,
          1038, 900, 1037, -1,
          1038, 901, 900, -1,
          1038, 1037, 1011, -1,
          921, 919, 18, -1,
          1039, 1011, 1013, -1,
          1039, 901, 1038, -1,
          1039, 902, 901, -1,
          1039, 1038, 1011, -1,
          924, 18, 17, -1,
          924, 921, 18, -1,
          1040, 1013, 1015, -1,
          1040, 903, 902, -1,
          1040, 1039, 1013, -1,
          1040, 902, 1039, -1,
          1040, 1015, 1017, -1,
          1041, 1017, 1019, -1,
          1041, 903, 1040, -1,
          1041, 1040, 1017, -1,
          1042, 903, 1041, -1,
          1042, 904, 903, -1,
          1042, 1041, 1019, -1,
          1043, 1019, 1021, -1,
          1043, 1021, 1023, -1,
          1043, 905, 904, -1,
          1043, 1042, 1019, -1,
          1043, 904, 1042, -1,
          1044, 1023, 1025, -1,
          1044, 1043, 1023, -1,
          1044, 906, 905, -1,
          1044, 905, 1043, -1,
          1045, 1025, 1027, -1,
          1045, 1044, 1025, -1,
          1045, 907, 906, -1,
          1045, 906, 1044, -1,
          1046, 1045, 1027, -1,
          1046, 1027, 1029, -1,
          1046, 908, 907, -1,
          1046, 907, 1045, -1,
          1047, 908, 1046, -1,
          1047, 1046, 1029, -1,
          1047, 1029, 1031, -1,
          1047, 909, 908, -1,
          1048, 1047, 1031, -1,
          1048, 910, 909, -1,
          1048, 909, 1047, -1,
          1049, 910, 1048, -1,
          1049, 1048, 1031, -1,
          1049, 1031, 1033, -1,
          1049, 911, 910, -1,
          1049, 1033, 1035, -1,
          917, 911, 1049, -1,
          917, 1049, 1035, -1,
          917, 912, 911, -1,
          917, 1035, 918, -1
        ]
      }
    }
}
