{"asset":{"version":"2.0","generator":"microscope_builder_4 scripts/catalog/dedupe-mounted-lens-housings.mjs"},"scene":0,"scenes":[{"nodes":[0]}],"nodes":[{"mesh":0}],"meshes":[{"primitives":[{"attributes":{"POSITION":1,"NORMAL":2},"indices":0,"mode":4},{"attributes":{"POSITION":4,"NORMAL":5},"indices":3,"mode":4},{"attributes":{"POSITION":7,"NORMAL":8},"indices":6,"mode":4}]}],"buffers":[{"uri":"lb4879-ab-ml.bin","byteLength":156864}],"bufferViews":[{"buffer":0,"byteOffset":0,"byteLength":41016,"target":34963},{"buffer":0,"byteOffset":41016,"byteLength":41016,"target":34962},{"buffer":0,"byteOffset":82032,"byteLength":41016,"target":34962},{"buffer":0,"byteOffset":123048,"byteLength":3936,"target":34963},{"buffer":0,"byteOffset":126984,"byteLength":3936,"target":34962},{"buffer":0,"byteOffset":130920,"byteLength":3936,"target":34962},{"buffer":0,"byteOffset":134856,"byteLength":7320,"target":34963},{"buffer":0,"byteOffset":142176,"byteLength":7344,"target":34962},{"buffer":0,"byteOffset":149520,"byteLength":7344,"target":34962}],"accessors":[{"bufferView":0,"componentType":5123,"count":20508,"type":"SCALAR"},{"bufferView":1,"componentType":5126,"count":3418,"type":"VEC3","min":[-3.809999942779541,-15.239999771118164,-15.239999771118164],"max":[9.144000053405762,15.239999771118164,15.239999771118164]},{"bufferView":2,"componentType":5126,"count":3418,"type":"VEC3"},{"bufferView":3,"componentType":5123,"count":1968,"type":"SCALAR"},{"bufferView":4,"componentType":5126,"count":328,"type":"VEC3","min":[2.7230000495910645,-13.144000053405762,-13.144000053405762],"max":[4.755000114440918,13.144000053405762,13.144000053405762]},{"bufferView":5,"componentType":5126,"count":328,"type":"VEC3"},{"bufferView":6,"componentType":5123,"count":3660,"type":"SCALAR"},{"bufferView":7,"componentType":5126,"count":612,"type":"VEC3","min":[-2.4189999103546143,-12.682000160217285,-12.682000160217285],"max":[5.020999908447266,12.682000160217285,12.682000160217285]},{"bufferView":8,"componentType":5126,"count":612,"type":"VEC3"}]}
