#VRML V2.0 utf8
WorldInfo {
  title "Exported triangle mesh to VRML97"
  info ["Created by FreeCAD"
        "<https://www.freecad.org>"]
}

Transform {
  scale 1 1 1
  rotation 0 0 1 0
  scaleOrientation 0 0 1 0
  center 0.000 0.000 0.000
  translation 0.000 0.000 0.000
  children
    Shape { 
      appearance
      Appearance {
        material
        Material {
          diffuseColor 0.8 0.8 0.8
        }
      }
      geometry
      IndexedFaceSet {
        coord
        Coordinate {
          point [
            0.000 -8.484 -1.521,
            0.633 -12.684 -0.999,
            0.000 -12.700 -0.999,
            1.265 -12.637 -0.999,
            1.893 -12.558 -0.999,
            2.516 -12.448 -0.999,
            0.633 12.684 -0.999,
            0.000 8.484 -1.521,
            0.000 12.700 -0.999,
            1.265 12.637 -0.999,
            1.893 12.558 -0.999,
            2.516 12.448 -0.999,
            4.246 -10.161 -1.233,
            3.134 -12.307 -0.999,
            3.743 -12.136 -0.999,
            4.344 -11.934 -0.999,
            4.933 -11.703 -0.999,
            5.510 -11.442 -0.999,
            6.074 -11.153 -0.999,
            6.622 -10.837 -0.999,
            7.154 -10.493 -0.999,
            7.668 -10.124 -0.999,
            4.246 -5.089 -1.685,
            0.000 -4.247 -1.835,
            8.481 -7.601 -1.184,
            8.163 -9.729 -0.999,
            8.638 -9.310 -0.999,
            9.092 -8.868 -0.999,
            9.522 -8.403 -0.999,
            9.929 -7.918 -0.999,
            10.312 -7.414 -0.999,
            10.668 -6.890 -0.999,
            10.999 -6.350 -0.999,
            4.246 0.000 -1.835,
            0.000 0.000 -1.940,
            0.000 4.247 -1.835,
            8.481 -2.537 -1.484,
            11.301 -5.794 -0.999,
            11.576 -5.223 -0.999,
            11.822 -4.640 -0.999,
            12.039 -4.045 -0.999,
            12.225 -3.440 -0.999,
            12.382 -2.826 -0.999,
            12.507 -2.205 -0.999,
            12.601 -1.579 -0.999,
            12.664 -0.949 -0.999,
            12.696 -0.317 -0.999,
            12.696 0.317 -0.999,
            4.246 5.089 -1.685,
            8.481 2.537 -1.484,
            12.664 0.949 -0.999,
            12.601 1.579 -0.999,
            12.507 2.205 -0.999,
            12.382 2.826 -0.999,
            12.225 3.440 -0.999,
            12.039 4.045 -0.999,
            11.822 4.640 -0.999,
            11.576 5.223 -0.999,
            11.301 5.794 -0.999,
            10.999 6.350 -0.999,
            4.246 10.161 -1.233,
            7.154 10.493 -0.999,
            7.668 10.124 -0.999,
            6.622 10.837 -0.999,
            6.074 11.153 -0.999,
            5.510 11.442 -0.999,
            4.933 11.703 -0.999,
            4.344 11.934 -0.999,
            3.743 12.136 -0.999,
            3.134 12.307 -0.999,
            8.481 7.601 -1.184,
            10.668 6.890 -0.999,
            10.312 7.414 -0.999,
            9.929 7.918 -0.999,
            9.522 8.403 -0.999,
            9.092 8.868 -0.999,
            8.638 9.310 -0.999,
            8.163 9.729 -0.999,
            0.633 -12.684 0.999,
            -0.000 -12.700 0.999,
            1.265 -12.637 0.999,
            1.893 -12.558 0.999,
            2.516 -12.448 0.999,
            3.134 -12.307 0.999,
            3.743 -12.136 0.999,
            4.344 -11.934 0.999,
            4.933 -11.703 0.999,
            5.510 -11.442 0.999,
            6.074 -11.153 0.999,
            6.622 -10.837 0.999,
            7.154 -10.493 0.999,
            7.668 -10.124 0.999,
            8.163 -9.729 0.999,
            8.638 -9.310 0.999,
            9.092 -8.868 0.999,
            9.522 -8.403 0.999,
            9.929 -7.918 0.999,
            10.312 -7.414 0.999,
            10.668 -6.890 0.999,
            10.999 -6.350 0.999,
            11.301 -5.794 0.999,
            11.576 -5.223 0.999,
            11.822 -4.640 0.999,
            12.039 -4.045 0.999,
            12.225 -3.440 0.999,
            12.382 -2.826 0.999,
            12.507 -2.205 0.999,
            12.601 -1.579 0.999,
            12.664 -0.949 0.999,
            12.696 -0.317 0.999,
            12.696 0.317 0.999,
            12.664 0.949 0.999,
            12.601 1.579 0.999,
            12.507 2.205 0.999,
            12.382 2.826 0.999,
            12.225 3.440 0.999,
            12.039 4.045 0.999,
            11.822 4.640 0.999,
            11.576 5.223 0.999,
            11.301 5.794 0.999,
            10.999 6.350 0.999,
            10.668 6.890 0.999,
            10.312 7.414 0.999,
            9.929 7.918 0.999,
            9.522 8.403 0.999,
            9.092 8.868 0.999,
            8.638 9.310 0.999,
            8.163 9.729 0.999,
            7.668 10.124 0.999,
            7.154 10.493 0.999,
            6.622 10.837 0.999,
            6.074 11.153 0.999,
            5.510 11.442 0.999,
            4.933 11.703 0.999,
            4.344 11.934 0.999,
            3.743 12.136 0.999,
            3.134 12.307 0.999,
            2.516 12.448 0.999,
            1.893 12.558 0.999,
            1.265 12.637 0.999,
            0.633 12.684 0.999,
            0.000 12.700 0.999,
            -0.000 -8.484 1.521,
            -2.516 -12.448 0.999,
            -1.893 -12.558 0.999,
            -1.265 -12.637 0.999,
            -0.633 -12.684 0.999,
            -0.633 12.684 0.999,
            0.000 8.484 1.521,
            -1.265 12.637 0.999,
            -1.893 12.558 0.999,
            -2.516 12.448 0.999,
            -4.246 -10.161 1.233,
            -7.668 -10.124 0.999,
            -7.154 -10.493 0.999,
            -6.622 -10.837 0.999,
            -6.074 -11.153 0.999,
            -5.510 -11.442 0.999,
            -4.933 -11.703 0.999,
            -4.344 -11.934 0.999,
            -3.743 -12.136 0.999,
            -3.134 -12.307 0.999,
            -4.246 -5.089 1.685,
            -0.000 -4.247 1.835,
            -8.481 -7.601 1.184,
            -10.999 -6.350 0.999,
            -10.668 -6.890 0.999,
            -10.312 -7.414 0.999,
            -9.929 -7.918 0.999,
            -9.522 -8.403 0.999,
            -9.092 -8.868 0.999,
            -8.638 -9.310 0.999,
            -8.163 -9.729 0.999,
            -4.246 -0.000 1.835,
            0.000 -0.000 1.940,
            0.000 4.247 1.835,
            -8.481 -2.537 1.484,
            -12.696 0.317 0.999,
            -12.696 -0.317 0.999,
            -12.664 -0.949 0.999,
            -12.601 -1.579 0.999,
            -12.507 -2.205 0.999,
            -12.382 -2.826 0.999,
            -12.225 -3.440 0.999,
            -12.039 -4.045 0.999,
            -11.822 -4.640 0.999,
            -11.576 -5.223 0.999,
            -11.301 -5.794 0.999,
            -4.246 5.089 1.685,
            -8.481 2.537 1.484,
            -10.999 6.350 0.999,
            -11.301 5.794 0.999,
            -11.576 5.223 0.999,
            -11.822 4.640 0.999,
            -12.039 4.045 0.999,
            -12.225 3.440 0.999,
            -12.382 2.826 0.999,
            -12.507 2.205 0.999,
            -12.601 1.579 0.999,
            -12.664 0.949 0.999,
            -4.246 10.161 1.233,
            -3.134 12.307 0.999,
            -3.743 12.136 0.999,
            -4.344 11.934 0.999,
            -4.933 11.703 0.999,
            -5.510 11.442 0.999,
            -6.074 11.153 0.999,
            -6.622 10.837 0.999,
            -7.154 10.493 0.999,
            -7.668 10.124 0.999,
            -8.481 7.601 1.184,
            -8.163 9.729 0.999,
            -8.638 9.310 0.999,
            -9.092 8.868 0.999,
            -9.522 8.403 0.999,
            -9.929 7.918 0.999,
            -10.312 7.414 0.999,
            -10.668 6.890 0.999,
            8.481 -5.071 1.372,
            4.246 -7.629 1.497,
            8.481 -0.000 1.522,
            4.246 -2.546 1.798,
            8.481 5.071 1.372,
            4.246 2.546 1.798,
            4.246 7.629 1.497,
            -0.633 12.684 -0.999,
            -1.265 12.637 -0.999,
            -1.893 12.558 -0.999,
            -2.516 12.448 -0.999,
            -3.134 12.307 -0.999,
            -3.743 12.136 -0.999,
            -4.344 11.934 -0.999,
            -4.933 11.703 -0.999,
            -5.510 11.442 -0.999,
            -6.074 11.153 -0.999,
            -6.622 10.837 -0.999,
            -7.154 10.493 -0.999,
            -7.668 10.124 -0.999,
            -8.163 9.729 -0.999,
            -8.638 9.310 -0.999,
            -9.092 8.868 -0.999,
            -9.522 8.403 -0.999,
            -9.929 7.918 -0.999,
            -10.312 7.414 -0.999,
            -10.668 6.890 -0.999,
            -10.999 6.350 -0.999,
            -11.301 5.794 -0.999,
            -11.576 5.223 -0.999,
            -11.822 4.640 -0.999,
            -12.039 4.045 -0.999,
            -12.225 3.440 -0.999,
            -12.382 2.826 -0.999,
            -12.507 2.205 -0.999,
            -12.601 1.579 -0.999,
            -12.664 0.949 -0.999,
            -12.696 0.317 -0.999,
            -12.696 -0.317 -0.999,
            -12.664 -0.949 -0.999,
            -12.601 -1.579 -0.999,
            -12.507 -2.205 -0.999,
            -12.382 -2.826 -0.999,
            -12.225 -3.440 -0.999,
            -12.039 -4.045 -0.999,
            -11.822 -4.640 -0.999,
            -11.576 -5.223 -0.999,
            -11.301 -5.794 -0.999,
            -10.999 -6.350 -0.999,
            -10.668 -6.890 -0.999,
            -10.312 -7.414 -0.999,
            -9.929 -7.918 -0.999,
            -9.522 -8.403 -0.999,
            -9.092 -8.868 -0.999,
            -8.638 -9.310 -0.999,
            -8.163 -9.729 -0.999,
            -7.668 -10.124 -0.999,
            -7.154 -10.493 -0.999,
            -6.622 -10.837 -0.999,
            -6.074 -11.153 -0.999,
            -5.510 -11.442 -0.999,
            -4.933 -11.703 -0.999,
            -4.344 -11.934 -0.999,
            -3.743 -12.136 -0.999,
            -3.134 -12.307 -0.999,
            -2.516 -12.448 -0.999,
            -1.893 -12.558 -0.999,
            -1.265 -12.637 -0.999,
            -0.633 -12.684 -0.999,
            -8.481 -5.071 -1.372,
            -4.246 -7.629 -1.497,
            -8.481 0.000 -1.522,
            -4.246 -2.546 -1.798,
            -8.481 5.071 -1.372,
            -4.246 2.546 -1.798,
            -4.246 7.629 -1.497
          ]
        }
        coordIndex [
          0, 1, 2, -1,
          0, 3, 1, -1,
          0, 4, 3, -1,
          0, 5, 4, -1,
          6, 7, 8, -1,
          9, 7, 6, -1,
          10, 7, 9, -1,
          11, 7, 10, -1,
          12, 13, 5, -1,
          12, 14, 13, -1,
          12, 15, 14, -1,
          12, 16, 15, -1,
          12, 17, 16, -1,
          12, 18, 17, -1,
          12, 19, 18, -1,
          12, 20, 19, -1,
          12, 21, 20, -1,
          12, 5, 0, -1,
          22, 0, 23, -1,
          22, 12, 0, -1,
          24, 25, 21, -1,
          24, 26, 25, -1,
          24, 27, 26, -1,
          24, 28, 27, -1,
          24, 29, 28, -1,
          24, 30, 29, -1,
          24, 31, 30, -1,
          24, 32, 31, -1,
          24, 12, 22, -1,
          24, 21, 12, -1,
          33, 23, 34, -1,
          33, 34, 35, -1,
          33, 22, 23, -1,
          36, 32, 24, -1,
          36, 22, 33, -1,
          36, 37, 32, -1,
          36, 38, 37, -1,
          36, 39, 38, -1,
          36, 40, 39, -1,
          36, 41, 40, -1,
          36, 42, 41, -1,
          36, 43, 42, -1,
          36, 44, 43, -1,
          36, 45, 44, -1,
          36, 46, 45, -1,
          36, 47, 46, -1,
          36, 24, 22, -1,
          48, 35, 7, -1,
          48, 33, 35, -1,
          49, 47, 36, -1,
          49, 50, 47, -1,
          49, 51, 50, -1,
          49, 52, 51, -1,
          49, 53, 52, -1,
          49, 54, 53, -1,
          49, 55, 54, -1,
          49, 56, 55, -1,
          49, 57, 56, -1,
          49, 58, 57, -1,
          49, 59, 58, -1,
          49, 33, 48, -1,
          49, 36, 33, -1,
          60, 48, 7, -1,
          60, 61, 62, -1,
          60, 63, 61, -1,
          60, 64, 63, -1,
          60, 65, 64, -1,
          60, 7, 11, -1,
          60, 66, 65, -1,
          60, 67, 66, -1,
          60, 68, 67, -1,
          60, 69, 68, -1,
          60, 11, 69, -1,
          70, 71, 59, -1,
          70, 72, 71, -1,
          70, 73, 72, -1,
          70, 74, 73, -1,
          70, 75, 74, -1,
          70, 76, 75, -1,
          70, 77, 76, -1,
          70, 62, 77, -1,
          70, 59, 49, -1,
          70, 49, 48, -1,
          70, 48, 60, -1,
          70, 60, 62, -1,
          78, 2, 1, -1,
          78, 79, 2, -1,
          80, 1, 3, -1,
          80, 78, 1, -1,
          81, 3, 4, -1,
          81, 80, 3, -1,
          82, 4, 5, -1,
          82, 81, 4, -1,
          83, 5, 13, -1,
          83, 82, 5, -1,
          84, 13, 14, -1,
          84, 14, 15, -1,
          84, 83, 13, -1,
          85, 84, 15, -1,
          86, 15, 16, -1,
          86, 85, 15, -1,
          87, 16, 17, -1,
          87, 86, 16, -1,
          88, 17, 18, -1,
          88, 87, 17, -1,
          89, 18, 19, -1,
          89, 88, 18, -1,
          90, 19, 20, -1,
          90, 20, 21, -1,
          90, 89, 19, -1,
          91, 21, 25, -1,
          91, 90, 21, -1,
          92, 91, 25, -1,
          93, 25, 26, -1,
          93, 92, 25, -1,
          94, 26, 27, -1,
          94, 27, 28, -1,
          94, 93, 26, -1,
          95, 28, 29, -1,
          95, 94, 28, -1,
          96, 95, 29, -1,
          97, 96, 29, -1,
          97, 29, 30, -1,
          98, 97, 30, -1,
          98, 30, 31, -1,
          99, 98, 31, -1,
          99, 31, 32, -1,
          100, 99, 32, -1,
          100, 32, 37, -1,
          101, 37, 38, -1,
          101, 38, 39, -1,
          101, 100, 37, -1,
          102, 39, 40, -1,
          102, 101, 39, -1,
          103, 102, 40, -1,
          104, 40, 41, -1,
          104, 41, 42, -1,
          104, 103, 40, -1,
          105, 42, 43, -1,
          105, 104, 42, -1,
          106, 43, 44, -1,
          106, 105, 43, -1,
          107, 106, 44, -1,
          108, 44, 45, -1,
          108, 45, 46, -1,
          108, 107, 44, -1,
          109, 108, 46, -1,
          110, 46, 47, -1,
          110, 47, 50, -1,
          110, 109, 46, -1,
          111, 50, 51, -1,
          111, 110, 50, -1,
          112, 111, 51, -1,
          113, 51, 52, -1,
          113, 52, 53, -1,
          113, 112, 51, -1,
          114, 113, 53, -1,
          115, 53, 54, -1,
          115, 114, 53, -1,
          116, 54, 55, -1,
          116, 115, 54, -1,
          117, 55, 56, -1,
          117, 56, 57, -1,
          117, 116, 55, -1,
          118, 117, 57, -1,
          119, 57, 58, -1,
          119, 58, 59, -1,
          119, 118, 57, -1,
          120, 119, 59, -1,
          121, 120, 59, -1,
          121, 59, 71, -1,
          122, 121, 71, -1,
          122, 71, 72, -1,
          122, 72, 73, -1,
          123, 122, 73, -1,
          124, 123, 73, -1,
          124, 73, 74, -1,
          125, 124, 74, -1,
          125, 74, 75, -1,
          126, 125, 75, -1,
          126, 75, 76, -1,
          127, 126, 76, -1,
          127, 76, 77, -1,
          128, 127, 77, -1,
          128, 77, 62, -1,
          129, 128, 62, -1,
          129, 62, 61, -1,
          130, 129, 61, -1,
          130, 61, 63, -1,
          131, 130, 63, -1,
          131, 63, 64, -1,
          132, 131, 64, -1,
          132, 64, 65, -1,
          132, 65, 66, -1,
          133, 132, 66, -1,
          134, 66, 67, -1,
          134, 133, 66, -1,
          135, 67, 68, -1,
          135, 68, 69, -1,
          135, 134, 67, -1,
          136, 135, 69, -1,
          137, 69, 11, -1,
          137, 11, 10, -1,
          137, 136, 69, -1,
          138, 137, 10, -1,
          139, 10, 9, -1,
          139, 138, 10, -1,
          140, 9, 6, -1,
          140, 139, 9, -1,
          141, 6, 8, -1,
          141, 140, 6, -1,
          142, 143, 144, -1,
          142, 144, 145, -1,
          142, 145, 146, -1,
          142, 146, 79, -1,
          147, 148, 141, -1,
          149, 148, 147, -1,
          150, 148, 149, -1,
          151, 148, 150, -1,
          152, 153, 154, -1,
          152, 154, 155, -1,
          152, 155, 156, -1,
          152, 156, 157, -1,
          152, 157, 158, -1,
          152, 158, 159, -1,
          152, 159, 160, -1,
          152, 160, 161, -1,
          152, 161, 143, -1,
          152, 143, 142, -1,
          162, 152, 142, -1,
          162, 142, 163, -1,
          164, 152, 162, -1,
          164, 165, 166, -1,
          164, 166, 167, -1,
          164, 167, 168, -1,
          164, 168, 169, -1,
          164, 169, 170, -1,
          164, 170, 171, -1,
          164, 171, 172, -1,
          164, 172, 153, -1,
          164, 153, 152, -1,
          173, 162, 163, -1,
          173, 163, 174, -1,
          173, 174, 175, -1,
          176, 165, 164, -1,
          176, 164, 162, -1,
          176, 177, 178, -1,
          176, 178, 179, -1,
          176, 179, 180, -1,
          176, 180, 181, -1,
          176, 181, 182, -1,
          176, 182, 183, -1,
          176, 183, 184, -1,
          176, 184, 185, -1,
          176, 185, 186, -1,
          176, 186, 187, -1,
          176, 187, 165, -1,
          176, 162, 173, -1,
          188, 175, 148, -1,
          188, 173, 175, -1,
          189, 173, 188, -1,
          189, 190, 191, -1,
          189, 191, 192, -1,
          189, 192, 193, -1,
          189, 193, 194, -1,
          189, 194, 195, -1,
          189, 177, 176, -1,
          189, 195, 196, -1,
          189, 196, 197, -1,
          189, 197, 198, -1,
          189, 198, 199, -1,
          189, 199, 177, -1,
          189, 176, 173, -1,
          200, 151, 201, -1,
          200, 201, 202, -1,
          200, 202, 203, -1,
          200, 203, 204, -1,
          200, 204, 205, -1,
          200, 205, 206, -1,
          200, 206, 207, -1,
          200, 207, 208, -1,
          200, 208, 209, -1,
          200, 188, 148, -1,
          200, 148, 151, -1,
          210, 188, 200, -1,
          210, 200, 209, -1,
          210, 209, 211, -1,
          210, 211, 212, -1,
          210, 212, 213, -1,
          210, 213, 214, -1,
          210, 214, 215, -1,
          210, 215, 216, -1,
          210, 216, 217, -1,
          210, 217, 190, -1,
          210, 190, 189, -1,
          210, 189, 188, -1,
          142, 79, 78, -1,
          142, 78, 80, -1,
          142, 80, 81, -1,
          142, 81, 82, -1,
          142, 82, 83, -1,
          137, 148, 136, -1,
          138, 148, 137, -1,
          139, 148, 138, -1,
          140, 148, 139, -1,
          141, 148, 140, -1,
          218, 93, 94, -1,
          218, 94, 95, -1,
          218, 95, 96, -1,
          218, 96, 97, -1,
          218, 97, 98, -1,
          218, 98, 99, -1,
          218, 99, 100, -1,
          218, 100, 101, -1,
          218, 101, 102, -1,
          218, 102, 103, -1,
          218, 103, 104, -1,
          219, 163, 142, -1,
          219, 83, 84, -1,
          219, 84, 85, -1,
          219, 85, 86, -1,
          219, 86, 87, -1,
          219, 93, 218, -1,
          219, 87, 88, -1,
          219, 88, 89, -1,
          219, 89, 90, -1,
          219, 90, 91, -1,
          219, 91, 92, -1,
          219, 92, 93, -1,
          219, 142, 83, -1,
          220, 104, 105, -1,
          220, 105, 106, -1,
          220, 106, 107, -1,
          220, 107, 108, -1,
          220, 108, 109, -1,
          220, 109, 110, -1,
          220, 110, 111, -1,
          220, 111, 112, -1,
          220, 112, 113, -1,
          220, 113, 114, -1,
          220, 114, 115, -1,
          220, 218, 104, -1,
          221, 163, 219, -1,
          221, 174, 163, -1,
          221, 219, 218, -1,
          221, 218, 220, -1,
          222, 115, 116, -1,
          222, 116, 117, -1,
          222, 117, 118, -1,
          222, 118, 119, -1,
          222, 119, 120, -1,
          222, 120, 121, -1,
          222, 121, 122, -1,
          222, 122, 123, -1,
          222, 123, 124, -1,
          222, 124, 125, -1,
          222, 125, 126, -1,
          222, 220, 115, -1,
          223, 174, 221, -1,
          223, 221, 220, -1,
          223, 175, 174, -1,
          223, 220, 222, -1,
          224, 126, 127, -1,
          224, 127, 128, -1,
          224, 128, 129, -1,
          224, 129, 130, -1,
          224, 175, 223, -1,
          224, 130, 131, -1,
          224, 131, 132, -1,
          224, 223, 222, -1,
          224, 132, 133, -1,
          224, 133, 134, -1,
          224, 134, 135, -1,
          224, 135, 136, -1,
          224, 222, 126, -1,
          224, 148, 175, -1,
          224, 136, 148, -1,
          147, 141, 8, -1,
          147, 8, 225, -1,
          149, 225, 226, -1,
          149, 147, 225, -1,
          150, 226, 227, -1,
          150, 149, 226, -1,
          151, 227, 228, -1,
          151, 150, 227, -1,
          201, 228, 229, -1,
          201, 151, 228, -1,
          202, 229, 230, -1,
          202, 230, 231, -1,
          202, 201, 229, -1,
          203, 202, 231, -1,
          204, 231, 232, -1,
          204, 232, 233, -1,
          204, 203, 231, -1,
          205, 204, 233, -1,
          206, 233, 234, -1,
          206, 205, 233, -1,
          207, 234, 235, -1,
          207, 206, 234, -1,
          208, 235, 236, -1,
          208, 207, 235, -1,
          209, 236, 237, -1,
          209, 237, 238, -1,
          209, 208, 236, -1,
          211, 209, 238, -1,
          212, 238, 239, -1,
          212, 211, 238, -1,
          213, 239, 240, -1,
          213, 240, 241, -1,
          213, 212, 239, -1,
          214, 241, 242, -1,
          214, 213, 241, -1,
          215, 214, 242, -1,
          216, 215, 242, -1,
          216, 242, 243, -1,
          217, 216, 243, -1,
          217, 243, 244, -1,
          190, 217, 244, -1,
          190, 244, 245, -1,
          191, 190, 245, -1,
          191, 245, 246, -1,
          192, 246, 247, -1,
          192, 191, 246, -1,
          192, 247, 248, -1,
          193, 192, 248, -1,
          194, 248, 249, -1,
          194, 193, 248, -1,
          195, 249, 250, -1,
          195, 250, 251, -1,
          195, 194, 249, -1,
          196, 195, 251, -1,
          197, 251, 252, -1,
          197, 196, 251, -1,
          198, 252, 253, -1,
          198, 197, 252, -1,
          199, 253, 254, -1,
          199, 198, 253, -1,
          177, 254, 255, -1,
          177, 199, 254, -1,
          178, 255, 256, -1,
          178, 177, 255, -1,
          179, 256, 257, -1,
          179, 257, 258, -1,
          179, 178, 256, -1,
          180, 179, 258, -1,
          181, 258, 259, -1,
          181, 259, 260, -1,
          181, 180, 258, -1,
          182, 181, 260, -1,
          183, 260, 261, -1,
          183, 261, 262, -1,
          183, 182, 260, -1,
          184, 183, 262, -1,
          185, 262, 263, -1,
          185, 263, 264, -1,
          185, 184, 262, -1,
          186, 185, 264, -1,
          187, 264, 265, -1,
          187, 265, 266, -1,
          187, 186, 264, -1,
          165, 187, 266, -1,
          166, 165, 266, -1,
          166, 266, 267, -1,
          166, 267, 268, -1,
          167, 166, 268, -1,
          167, 268, 269, -1,
          168, 167, 269, -1,
          169, 168, 269, -1,
          169, 269, 270, -1,
          170, 169, 270, -1,
          170, 270, 271, -1,
          171, 170, 271, -1,
          171, 271, 272, -1,
          172, 171, 272, -1,
          172, 272, 273, -1,
          153, 172, 273, -1,
          153, 273, 274, -1,
          153, 274, 275, -1,
          154, 153, 275, -1,
          155, 154, 275, -1,
          155, 275, 276, -1,
          156, 155, 276, -1,
          156, 276, 277, -1,
          157, 156, 277, -1,
          157, 277, 278, -1,
          158, 157, 278, -1,
          158, 278, 279, -1,
          159, 158, 279, -1,
          159, 279, 280, -1,
          160, 280, 281, -1,
          160, 159, 280, -1,
          161, 281, 282, -1,
          161, 160, 281, -1,
          143, 282, 283, -1,
          143, 283, 284, -1,
          143, 161, 282, -1,
          144, 143, 284, -1,
          145, 284, 285, -1,
          145, 285, 286, -1,
          145, 144, 284, -1,
          146, 145, 286, -1,
          79, 286, 2, -1,
          79, 146, 286, -1,
          0, 283, 282, -1,
          0, 284, 283, -1,
          0, 285, 284, -1,
          0, 286, 285, -1,
          0, 2, 286, -1,
          228, 7, 229, -1,
          227, 7, 228, -1,
          226, 7, 227, -1,
          225, 7, 226, -1,
          8, 7, 225, -1,
          287, 262, 261, -1,
          287, 263, 262, -1,
          287, 264, 263, -1,
          287, 265, 264, -1,
          287, 266, 265, -1,
          287, 267, 266, -1,
          287, 268, 267, -1,
          287, 269, 268, -1,
          287, 270, 269, -1,
          287, 271, 270, -1,
          287, 272, 271, -1,
          288, 23, 0, -1,
          288, 273, 272, -1,
          288, 274, 273, -1,
          288, 275, 274, -1,
          288, 276, 275, -1,
          288, 277, 276, -1,
          288, 278, 277, -1,
          288, 279, 278, -1,
          288, 280, 279, -1,
          288, 281, 280, -1,
          288, 282, 281, -1,
          288, 272, 287, -1,
          288, 0, 282, -1,
          289, 251, 250, -1,
          289, 252, 251, -1,
          289, 253, 252, -1,
          289, 254, 253, -1,
          289, 255, 254, -1,
          289, 256, 255, -1,
          289, 257, 256, -1,
          289, 258, 257, -1,
          289, 259, 258, -1,
          289, 260, 259, -1,
          289, 261, 260, -1,
          289, 287, 261, -1,
          290, 288, 287, -1,
          290, 34, 23, -1,
          290, 287, 289, -1,
          290, 23, 288, -1,
          291, 240, 239, -1,
          291, 241, 240, -1,
          291, 242, 241, -1,
          291, 243, 242, -1,
          291, 244, 243, -1,
          291, 245, 244, -1,
          291, 246, 245, -1,
          291, 247, 246, -1,
          291, 248, 247, -1,
          291, 249, 248, -1,
          291, 250, 249, -1,
          291, 289, 250, -1,
          292, 35, 34, -1,
          292, 34, 290, -1,
          292, 290, 289, -1,
          292, 289, 291, -1,
          293, 7, 35, -1,
          293, 291, 239, -1,
          293, 230, 229, -1,
          293, 231, 230, -1,
          293, 232, 231, -1,
          293, 233, 232, -1,
          293, 234, 233, -1,
          293, 235, 234, -1,
          293, 236, 235, -1,
          293, 237, 236, -1,
          293, 238, 237, -1,
          293, 239, 238, -1,
          293, 35, 292, -1,
          293, 292, 291, -1,
          293, 229, 7, -1
        ]
      }
    }
}
