{"asset":{"version":"2.0","generator":"microscope_builder_4 scripts/catalog/dedupe-mounted-lens-housings.mjs"},"scene":0,"scenes":[{"nodes":[0]}],"nodes":[{"mesh":0}],"meshes":[{"primitives":[{"attributes":{"POSITION":1,"NORMAL":2},"indices":0,"mode":4},{"attributes":{"POSITION":4,"NORMAL":5},"indices":3,"mode":4},{"attributes":{"POSITION":7,"NORMAL":8},"indices":6,"mode":4}]}],"buffers":[{"uri":"../shared/lens-components/5c/5cf440979a26dea426c85ab6c39f58bee8a4db10857cdca1a792ad7b68c7bd02.bin","byteLength":3324},{"uri":"lc1054-c-ml.bin","byteLength":159984}],"bufferViews":[{"buffer":0,"byteOffset":0,"byteLength":1092,"target":34963},{"buffer":0,"byteOffset":1092,"byteLength":1116,"target":34962},{"buffer":0,"byteOffset":2208,"byteLength":1116,"target":34962},{"buffer":1,"byteOffset":0,"byteLength":50484,"target":34963},{"buffer":1,"byteOffset":50484,"byteLength":50484,"target":34962},{"buffer":1,"byteOffset":100968,"byteLength":50484,"target":34962},{"buffer":1,"byteOffset":151452,"byteLength":2844,"target":34963},{"buffer":1,"byteOffset":154296,"byteLength":2844,"target":34962},{"buffer":1,"byteOffset":157140,"byteLength":2844,"target":34962}],"accessors":[{"bufferView":0,"componentType":5123,"count":546,"type":"SCALAR"},{"bufferView":1,"componentType":5126,"count":93,"type":"VEC3","min":[-3.683000087738037,-6.349999904632568,-6.349999904632568],"max":[0.9940000176429749,6.349999904632568,6.349999904632568]},{"bufferView":2,"componentType":5126,"count":93,"type":"VEC3"},{"bufferView":3,"componentType":5123,"count":25242,"type":"SCALAR"},{"bufferView":4,"componentType":5126,"count":4207,"type":"VEC3","min":[-6.4770002365112305,-8.890000343322754,-8.890000343322754],"max":[6.4770002365112305,8.890000343322754,8.890000343322754]},{"bufferView":5,"componentType":5126,"count":4207,"type":"VEC3"},{"bufferView":6,"componentType":5123,"count":1422,"type":"SCALAR"},{"bufferView":7,"componentType":5126,"count":237,"type":"VEC3","min":[0.9940000176429749,-6.794000148773193,-6.794000148773193],"max":[2.6449999809265137,6.794000148773193,6.794000148773193]},{"bufferView":8,"componentType":5126,"count":237,"type":"VEC3"}]}
