{"asset":{"version":"2.0","generator":"microscope_builder_4 scripts/catalog/dedupe-mounted-lens-housings.mjs"},"scene":0,"scenes":[{"nodes":[0]}],"nodes":[{"mesh":0}],"meshes":[{"primitives":[{"attributes":{"POSITION":1,"NORMAL":2},"indices":0,"mode":4},{"attributes":{"POSITION":4,"NORMAL":5},"indices":3,"mode":4},{"attributes":{"POSITION":7,"NORMAL":8},"indices":6,"mode":4}]}],"buffers":[{"uri":"../shared/lens-components/30/306e389d330a4d690a9489d40e608201c7f6c6f87d937154daf6d2d8279dcb81.bin","byteLength":8532},{"uri":"lc1439-ml.bin","byteLength":100596}],"bufferViews":[{"buffer":0,"byteOffset":0,"byteLength":2844,"target":34963},{"buffer":0,"byteOffset":2844,"byteLength":2844,"target":34962},{"buffer":0,"byteOffset":5688,"byteLength":2844,"target":34962},{"buffer":1,"byteOffset":0,"byteLength":32520,"target":34963},{"buffer":1,"byteOffset":32520,"byteLength":32520,"target":34962},{"buffer":1,"byteOffset":65040,"byteLength":32520,"target":34962},{"buffer":1,"byteOffset":97560,"byteLength":996,"target":34963},{"buffer":1,"byteOffset":98556,"byteLength":1020,"target":34962},{"buffer":1,"byteOffset":99576,"byteLength":1020,"target":34962}],"accessors":[{"bufferView":0,"componentType":5123,"count":1422,"type":"SCALAR"},{"bufferView":1,"componentType":5126,"count":237,"type":"VEC3","min":[1.121000051498413,-6.794000148773193,-6.794000148773193],"max":[2.7720000743865967,6.794000148773193,6.794000148773193]},{"bufferView":2,"componentType":5126,"count":237,"type":"VEC3"},{"bufferView":3,"componentType":5123,"count":16260,"type":"SCALAR"},{"bufferView":4,"componentType":5126,"count":2710,"type":"VEC3","min":[-5.968999862670898,-8.890000343322754,-8.890000343322754],"max":[5.968999862670898,8.890000343322754,8.890000343322754]},{"bufferView":5,"componentType":5126,"count":2710,"type":"VEC3"},{"bufferView":6,"componentType":5123,"count":498,"type":"SCALAR"},{"bufferView":7,"componentType":5126,"count":85,"type":"VEC3","min":[-3.174999952316284,-6.349999904632568,-6.349999904632568],"max":[1.121000051498413,6.349999904632568,6.349999904632568]},{"bufferView":8,"componentType":5126,"count":85,"type":"VEC3"}]}
