#VRML V2.0 utf8
WorldInfo {
  title "Exported triangle mesh to VRML97"
  info ["Created by FreeCAD"
        "<https://www.freecad.org>"]
}

Transform {
  scale 1 1 1
  rotation 0 0 1 0
  scaleOrientation 0 0 1 0
  center 0.000 0.000 0.000
  translation 0.000 0.000 0.000
  children
    Shape { 
      appearance
      Appearance {
        material
        Material {
          diffuseColor 0.8 0.8 0.8
        }
      }
      geometry
      IndexedFaceSet {
        coord
        Coordinate {
          point [
            6.342 0.312 2.148,
            6.350 0.000 -2.148,
            6.342 0.317 -2.148,
            6.350 0.000 2.148,
            6.319 0.622 2.148,
            6.318 0.632 -2.148,
            6.281 0.932 2.148,
            6.279 0.946 -2.148,
            6.228 1.239 2.148,
            6.224 1.258 -2.148,
            6.160 1.543 2.148,
            6.154 1.567 -2.148,
            6.077 1.843 2.148,
            6.068 1.872 -2.148,
            5.979 2.139 2.148,
            5.967 2.172 -2.148,
            5.867 2.430 2.148,
            5.851 2.467 -2.148,
            5.740 2.715 2.148,
            5.721 2.755 -2.148,
            5.600 2.993 2.148,
            5.577 3.037 -2.148,
            5.447 3.265 2.148,
            5.418 3.311 -2.148,
            5.280 3.528 2.148,
            5.247 3.577 -2.148,
            5.100 3.783 2.148,
            5.062 3.834 -2.148,
            4.909 4.028 2.148,
            4.864 4.082 -2.148,
            4.705 4.264 2.148,
            4.655 4.319 -2.148,
            4.490 4.490 2.148,
            4.434 4.546 -2.148,
            4.264 4.705 2.148,
            4.202 4.761 -2.148,
            4.028 4.909 2.148,
            3.959 4.965 -2.148,
            3.783 5.100 2.148,
            3.707 5.156 -2.148,
            3.528 5.280 2.148,
            3.445 5.334 -2.148,
            3.265 5.447 2.148,
            3.175 5.499 -2.148,
            2.993 5.600 2.148,
            2.897 5.651 -2.148,
            2.715 5.740 2.148,
            2.612 5.788 -2.148,
            2.430 5.867 2.148,
            2.320 5.911 -2.148,
            2.139 5.979 2.148,
            2.022 6.019 -2.148,
            1.843 6.077 2.148,
            1.720 6.113 -2.148,
            1.543 6.160 2.148,
            1.413 6.191 -2.148,
            1.239 6.228 2.148,
            1.103 6.254 -2.148,
            0.932 6.281 2.148,
            0.790 6.301 -2.148,
            0.622 6.319 2.148,
            0.475 6.332 -2.148,
            0.312 6.342 2.148,
            0.158 6.348 -2.148,
            0.000 6.350 2.148,
            -0.158 6.348 -2.148,
            -0.312 6.342 2.148,
            -0.475 6.332 -2.148,
            -0.622 6.319 2.148,
            -0.790 6.301 -2.148,
            -0.932 6.281 2.148,
            -1.103 6.254 -2.148,
            -1.239 6.228 2.148,
            -1.413 6.191 -2.148,
            -1.543 6.160 2.148,
            -1.720 6.113 -2.148,
            -1.843 6.077 2.148,
            -2.022 6.019 -2.148,
            -2.139 5.979 2.148,
            -2.320 5.911 -2.148,
            -2.430 5.867 2.148,
            -2.612 5.788 -2.148,
            -2.715 5.740 2.148,
            -2.897 5.651 -2.148,
            -2.993 5.600 2.148,
            -3.175 5.499 -2.148,
            -3.265 5.447 2.148,
            -3.445 5.334 -2.148,
            -3.528 5.280 2.148,
            -3.707 5.156 -2.148,
            -3.783 5.100 2.148,
            -3.959 4.965 -2.148,
            -4.028 4.909 2.148,
            -4.202 4.761 -2.148,
            -4.264 4.705 2.148,
            -4.434 4.546 -2.148,
            -4.490 4.490 2.148,
            -4.655 4.319 -2.148,
            -4.705 4.264 2.148,
            -4.864 4.082 -2.148,
            -4.909 4.028 2.148,
            -5.062 3.834 -2.148,
            -5.100 3.783 2.148,
            -5.247 3.577 -2.148,
            -5.280 3.528 2.148,
            -5.418 3.311 -2.148,
            -5.447 3.265 2.148,
            -5.577 3.037 -2.148,
            -5.600 2.993 2.148,
            -5.721 2.755 -2.148,
            -5.740 2.715 2.148,
            -5.851 2.467 -2.148,
            -5.867 2.430 2.148,
            -5.967 2.172 -2.148,
            -5.979 2.139 2.148,
            -6.068 1.872 -2.148,
            -6.077 1.843 2.148,
            -6.154 1.567 -2.148,
            -6.160 1.543 2.148,
            -6.224 1.258 -2.148,
            -6.228 1.239 2.148,
            -6.279 0.946 -2.148,
            -6.281 0.932 2.148,
            -6.318 0.632 -2.148,
            -6.319 0.622 2.148,
            -6.342 0.317 -2.148,
            -6.342 0.312 2.148,
            -6.350 0.000 -2.148,
            -6.350 0.000 2.148,
            0.000 5.099 1.862,
            -0.000 -5.099 1.862,
            0.622 -6.319 2.148,
            0.932 -6.281 2.148,
            0.312 -6.342 2.148,
            -0.000 -6.350 2.148,
            4.784 3.924 2.107,
            3.200 4.747 1.997,
            4.784 2.361 1.911,
            1.603 5.559 2.011,
            3.200 3.175 1.750,
            4.784 0.788 1.813,
            1.603 3.986 1.713,
            0.000 2.562 1.480,
            0.000 3.835 1.640,
            3.200 1.591 1.601,
            6.160 -1.543 2.148,
            4.784 -0.788 1.813,
            6.077 -1.843 2.148,
            6.228 -1.239 2.148,
            6.281 -0.932 2.148,
            6.319 -0.622 2.148,
            6.342 -0.312 2.148,
            1.603 2.398 1.514,
            0.000 1.283 1.384,
            3.200 -0.000 1.552,
            5.447 -3.265 2.148,
            4.784 -2.361 1.911,
            5.280 -3.528 2.148,
            5.600 -2.993 2.148,
            5.740 -2.715 2.148,
            5.867 -2.430 2.148,
            5.979 -2.139 2.148,
            1.603 0.800 1.415,
            0.000 0.000 1.352,
            3.200 -1.591 1.601,
            4.705 -4.264 2.148,
            4.784 -3.924 2.107,
            4.490 -4.490 2.148,
            4.909 -4.028 2.148,
            5.100 -3.783 2.148,
            1.603 -0.800 1.415,
            -0.000 -1.283 1.384,
            3.200 -3.175 1.750,
            4.264 -4.705 2.148,
            -0.000 -2.562 1.480,
            1.603 -2.398 1.514,
            3.200 -4.747 1.997,
            2.993 -5.600 2.148,
            2.715 -5.740 2.148,
            3.265 -5.447 2.148,
            3.528 -5.280 2.148,
            3.783 -5.100 2.148,
            4.028 -4.909 2.148,
            1.603 -3.986 1.713,
            -0.000 -3.835 1.640,
            1.603 -5.559 2.011,
            1.239 -6.228 2.148,
            1.543 -6.160 2.148,
            1.843 -6.077 2.148,
            2.139 -5.979 2.148,
            2.430 -5.867 2.148,
            -0.312 -6.342 2.148,
            -0.622 -6.319 2.148,
            -0.932 -6.281 2.148,
            -1.603 5.559 2.011,
            -1.603 3.986 1.713,
            -3.200 4.747 1.997,
            -1.603 2.398 1.514,
            -3.200 3.175 1.750,
            -1.603 0.800 1.415,
            -4.784 3.924 2.107,
            -3.200 1.591 1.601,
            -1.603 -0.800 1.415,
            -4.784 2.361 1.911,
            -3.200 -0.000 1.552,
            -1.603 -2.398 1.514,
            -4.784 0.788 1.813,
            -3.200 -1.591 1.601,
            -1.603 -3.986 1.713,
            -6.342 -0.312 2.148,
            -4.784 -0.788 1.813,
            -6.319 -0.622 2.148,
            -6.281 -0.932 2.148,
            -6.228 -1.239 2.148,
            -6.160 -1.543 2.148,
            -6.077 -1.843 2.148,
            -4.264 -4.705 2.148,
            -3.200 -3.175 1.750,
            -4.490 -4.490 2.148,
            -1.603 -5.559 2.011,
            -2.430 -5.867 2.148,
            -2.715 -5.740 2.148,
            -2.139 -5.979 2.148,
            -1.843 -6.077 2.148,
            -1.543 -6.160 2.148,
            -1.239 -6.228 2.148,
            -5.979 -2.139 2.148,
            -4.784 -2.361 1.911,
            -5.867 -2.430 2.148,
            -5.740 -2.715 2.148,
            -5.600 -2.993 2.148,
            -5.447 -3.265 2.148,
            -5.280 -3.528 2.148,
            -3.200 -4.747 1.997,
            -4.028 -4.909 2.148,
            -3.783 -5.100 2.148,
            -3.528 -5.280 2.148,
            -3.265 -5.447 2.148,
            -2.993 -5.600 2.148,
            -5.100 -3.783 2.148,
            -4.784 -3.924 2.107,
            -4.909 -4.028 2.148,
            -4.705 -4.264 2.148,
            -4.655 -4.319 -2.148,
            -4.202 -4.761 -2.148,
            -4.434 -4.546 -2.148,
            -4.864 -4.082 -2.148,
            -5.062 -3.834 -2.148,
            -3.445 -5.334 -2.148,
            -3.959 -4.965 -2.148,
            -3.707 -5.156 -2.148,
            -5.577 -3.037 -2.148,
            -5.721 -2.755 -2.148,
            -5.418 -3.311 -2.148,
            -2.612 -5.788 -2.148,
            -3.175 -5.499 -2.148,
            -2.897 -5.651 -2.148,
            -5.851 -2.467 -2.148,
            -5.967 -2.172 -2.148,
            -6.068 -1.872 -2.148,
            -2.022 -6.019 -2.148,
            -1.413 -6.191 -2.148,
            -1.720 -6.113 -2.148,
            -6.154 -1.567 -2.148,
            -6.224 -1.258 -2.148,
            -5.247 -3.577 -2.148,
            -2.320 -5.911 -2.148,
            -0.790 -6.301 -2.148,
            -1.103 -6.254 -2.148,
            -6.279 -0.946 -2.148,
            -6.318 -0.632 -2.148,
            -0.475 -6.332 -2.148,
            -6.342 -0.317 -2.148,
            0.158 -6.348 -2.148,
            0.790 -6.301 -2.148,
            0.475 -6.332 -2.148,
            1.413 -6.191 -2.148,
            -0.158 -6.348 -2.148,
            1.103 -6.254 -2.148,
            1.720 -6.113 -2.148,
            2.320 -5.911 -2.148,
            2.022 -6.019 -2.148,
            2.612 -5.788 -2.148,
            2.897 -5.651 -2.148,
            3.175 -5.499 -2.148,
            3.707 -5.156 -2.148,
            3.445 -5.334 -2.148,
            4.202 -4.761 -2.148,
            3.959 -4.965 -2.148,
            4.655 -4.319 -2.148,
            4.434 -4.546 -2.148,
            4.864 -4.082 -2.148,
            5.418 -3.311 -2.148,
            5.062 -3.834 -2.148,
            5.247 -3.577 -2.148,
            5.577 -3.037 -2.148,
            5.851 -2.467 -2.148,
            5.721 -2.755 -2.148,
            6.068 -1.872 -2.148,
            5.967 -2.172 -2.148,
            6.224 -1.258 -2.148,
            6.154 -1.567 -2.148,
            6.279 -0.946 -2.148,
            6.318 -0.632 -2.148,
            6.342 -0.317 -2.148
          ]
        }
        coordIndex [
          0, 1, 2, -1,
          0, 3, 1, -1,
          4, 2, 5, -1,
          4, 0, 2, -1,
          6, 5, 7, -1,
          6, 4, 5, -1,
          8, 7, 9, -1,
          8, 6, 7, -1,
          10, 9, 11, -1,
          10, 8, 9, -1,
          12, 11, 13, -1,
          12, 10, 11, -1,
          14, 13, 15, -1,
          14, 12, 13, -1,
          16, 15, 17, -1,
          16, 14, 15, -1,
          18, 17, 19, -1,
          18, 16, 17, -1,
          20, 19, 21, -1,
          20, 18, 19, -1,
          22, 21, 23, -1,
          22, 20, 21, -1,
          24, 23, 25, -1,
          24, 22, 23, -1,
          26, 25, 27, -1,
          26, 24, 25, -1,
          28, 27, 29, -1,
          28, 26, 27, -1,
          30, 29, 31, -1,
          30, 28, 29, -1,
          32, 31, 33, -1,
          32, 30, 31, -1,
          34, 33, 35, -1,
          34, 32, 33, -1,
          36, 34, 35, -1,
          36, 35, 37, -1,
          38, 36, 37, -1,
          38, 37, 39, -1,
          40, 38, 39, -1,
          40, 39, 41, -1,
          42, 40, 41, -1,
          42, 41, 43, -1,
          44, 42, 43, -1,
          44, 43, 45, -1,
          46, 45, 47, -1,
          46, 44, 45, -1,
          48, 47, 49, -1,
          48, 46, 47, -1,
          50, 49, 51, -1,
          50, 48, 49, -1,
          52, 51, 53, -1,
          52, 50, 51, -1,
          54, 53, 55, -1,
          54, 52, 53, -1,
          56, 55, 57, -1,
          56, 54, 55, -1,
          58, 57, 59, -1,
          58, 56, 57, -1,
          60, 59, 61, -1,
          60, 58, 59, -1,
          62, 61, 63, -1,
          62, 60, 61, -1,
          64, 63, 65, -1,
          64, 62, 63, -1,
          66, 65, 67, -1,
          66, 64, 65, -1,
          68, 67, 69, -1,
          68, 66, 67, -1,
          70, 69, 71, -1,
          70, 68, 69, -1,
          72, 71, 73, -1,
          72, 70, 71, -1,
          74, 73, 75, -1,
          74, 72, 73, -1,
          76, 75, 77, -1,
          76, 74, 75, -1,
          78, 77, 79, -1,
          78, 76, 77, -1,
          80, 79, 81, -1,
          80, 78, 79, -1,
          82, 81, 83, -1,
          82, 80, 81, -1,
          84, 83, 85, -1,
          84, 82, 83, -1,
          86, 84, 85, -1,
          86, 85, 87, -1,
          88, 86, 87, -1,
          88, 87, 89, -1,
          90, 88, 89, -1,
          90, 89, 91, -1,
          92, 90, 91, -1,
          92, 91, 93, -1,
          94, 92, 93, -1,
          94, 93, 95, -1,
          96, 94, 95, -1,
          96, 95, 97, -1,
          98, 96, 97, -1,
          98, 97, 99, -1,
          100, 98, 99, -1,
          100, 99, 101, -1,
          102, 100, 101, -1,
          102, 101, 103, -1,
          104, 102, 103, -1,
          104, 103, 105, -1,
          106, 104, 105, -1,
          106, 105, 107, -1,
          108, 106, 107, -1,
          108, 107, 109, -1,
          110, 108, 109, -1,
          110, 109, 111, -1,
          112, 111, 113, -1,
          112, 110, 111, -1,
          114, 113, 115, -1,
          114, 112, 113, -1,
          116, 115, 117, -1,
          116, 114, 115, -1,
          118, 117, 119, -1,
          118, 116, 117, -1,
          120, 119, 121, -1,
          120, 118, 119, -1,
          122, 121, 123, -1,
          122, 120, 121, -1,
          124, 123, 125, -1,
          124, 122, 123, -1,
          126, 125, 127, -1,
          126, 124, 125, -1,
          128, 126, 127, -1,
          60, 129, 58, -1,
          62, 129, 60, -1,
          64, 129, 62, -1,
          130, 131, 132, -1,
          130, 133, 131, -1,
          130, 134, 133, -1,
          26, 135, 24, -1,
          28, 135, 26, -1,
          30, 135, 28, -1,
          32, 135, 30, -1,
          36, 136, 34, -1,
          38, 136, 36, -1,
          40, 136, 38, -1,
          42, 136, 40, -1,
          44, 136, 42, -1,
          46, 136, 44, -1,
          14, 137, 12, -1,
          16, 137, 14, -1,
          18, 137, 16, -1,
          20, 137, 18, -1,
          22, 137, 20, -1,
          24, 137, 22, -1,
          135, 137, 24, -1,
          46, 138, 136, -1,
          48, 138, 46, -1,
          50, 138, 48, -1,
          52, 138, 50, -1,
          54, 138, 52, -1,
          56, 138, 54, -1,
          58, 138, 56, -1,
          129, 138, 58, -1,
          135, 139, 137, -1,
          32, 139, 135, -1,
          34, 139, 32, -1,
          136, 139, 34, -1,
          0, 140, 3, -1,
          4, 140, 0, -1,
          6, 140, 4, -1,
          8, 140, 6, -1,
          10, 140, 8, -1,
          12, 140, 10, -1,
          137, 140, 12, -1,
          129, 141, 138, -1,
          142, 141, 143, -1,
          143, 141, 129, -1,
          138, 141, 136, -1,
          136, 141, 139, -1,
          137, 144, 140, -1,
          139, 144, 137, -1,
          145, 146, 147, -1,
          148, 146, 145, -1,
          149, 146, 148, -1,
          150, 146, 149, -1,
          151, 146, 150, -1,
          3, 146, 151, -1,
          140, 146, 3, -1,
          141, 152, 139, -1,
          142, 152, 141, -1,
          139, 152, 144, -1,
          153, 152, 142, -1,
          144, 154, 140, -1,
          140, 154, 146, -1,
          155, 156, 157, -1,
          158, 156, 155, -1,
          159, 156, 158, -1,
          160, 156, 159, -1,
          161, 156, 160, -1,
          147, 156, 161, -1,
          146, 156, 147, -1,
          152, 162, 144, -1,
          153, 162, 152, -1,
          163, 162, 153, -1,
          144, 162, 154, -1,
          146, 164, 156, -1,
          154, 164, 146, -1,
          165, 166, 167, -1,
          168, 166, 165, -1,
          169, 166, 168, -1,
          157, 166, 169, -1,
          156, 166, 157, -1,
          154, 170, 164, -1,
          162, 170, 154, -1,
          171, 170, 163, -1,
          163, 170, 162, -1,
          166, 172, 167, -1,
          167, 172, 173, -1,
          164, 172, 156, -1,
          156, 172, 166, -1,
          174, 175, 171, -1,
          164, 175, 172, -1,
          170, 175, 164, -1,
          171, 175, 170, -1,
          172, 176, 173, -1,
          177, 176, 178, -1,
          179, 176, 177, -1,
          180, 176, 179, -1,
          181, 176, 180, -1,
          182, 176, 181, -1,
          173, 176, 182, -1,
          172, 183, 176, -1,
          184, 183, 174, -1,
          130, 183, 184, -1,
          175, 183, 172, -1,
          174, 183, 175, -1,
          132, 185, 130, -1,
          186, 185, 132, -1,
          187, 185, 186, -1,
          188, 185, 187, -1,
          189, 185, 188, -1,
          190, 185, 189, -1,
          178, 185, 190, -1,
          130, 185, 183, -1,
          176, 185, 178, -1,
          183, 185, 176, -1,
          66, 129, 64, -1,
          68, 129, 66, -1,
          70, 129, 68, -1,
          130, 191, 134, -1,
          130, 192, 191, -1,
          130, 193, 192, -1,
          72, 194, 70, -1,
          74, 194, 72, -1,
          76, 194, 74, -1,
          78, 194, 76, -1,
          80, 194, 78, -1,
          82, 194, 80, -1,
          70, 194, 129, -1,
          194, 195, 129, -1,
          143, 195, 142, -1,
          129, 195, 143, -1,
          194, 196, 195, -1,
          84, 196, 82, -1,
          86, 196, 84, -1,
          88, 196, 86, -1,
          90, 196, 88, -1,
          92, 196, 90, -1,
          94, 196, 92, -1,
          82, 196, 194, -1,
          142, 197, 153, -1,
          195, 197, 142, -1,
          94, 198, 196, -1,
          195, 198, 197, -1,
          96, 198, 94, -1,
          196, 198, 195, -1,
          153, 199, 163, -1,
          197, 199, 153, -1,
          96, 200, 198, -1,
          98, 200, 96, -1,
          100, 200, 98, -1,
          102, 200, 100, -1,
          104, 200, 102, -1,
          198, 201, 197, -1,
          197, 201, 199, -1,
          163, 202, 171, -1,
          199, 202, 163, -1,
          104, 203, 200, -1,
          198, 203, 201, -1,
          106, 203, 104, -1,
          108, 203, 106, -1,
          110, 203, 108, -1,
          112, 203, 110, -1,
          114, 203, 112, -1,
          116, 203, 114, -1,
          200, 203, 198, -1,
          199, 204, 202, -1,
          201, 204, 199, -1,
          171, 205, 174, -1,
          202, 205, 171, -1,
          201, 206, 204, -1,
          118, 206, 116, -1,
          120, 206, 118, -1,
          122, 206, 120, -1,
          124, 206, 122, -1,
          126, 206, 124, -1,
          128, 206, 126, -1,
          116, 206, 203, -1,
          203, 206, 201, -1,
          204, 207, 202, -1,
          202, 207, 205, -1,
          205, 208, 174, -1,
          174, 208, 184, -1,
          184, 208, 130, -1,
          209, 210, 128, -1,
          211, 210, 209, -1,
          212, 210, 211, -1,
          213, 210, 212, -1,
          214, 210, 213, -1,
          215, 210, 214, -1,
          128, 210, 206, -1,
          204, 210, 207, -1,
          206, 210, 204, -1,
          216, 217, 218, -1,
          205, 217, 208, -1,
          207, 217, 205, -1,
          208, 219, 130, -1,
          220, 219, 221, -1,
          222, 219, 220, -1,
          223, 219, 222, -1,
          224, 219, 223, -1,
          225, 219, 224, -1,
          193, 219, 225, -1,
          130, 219, 193, -1,
          226, 227, 215, -1,
          228, 227, 226, -1,
          215, 227, 210, -1,
          229, 227, 228, -1,
          207, 227, 217, -1,
          230, 227, 229, -1,
          231, 227, 230, -1,
          232, 227, 231, -1,
          210, 227, 207, -1,
          217, 233, 208, -1,
          234, 233, 216, -1,
          235, 233, 234, -1,
          236, 233, 235, -1,
          237, 233, 236, -1,
          216, 233, 217, -1,
          238, 233, 237, -1,
          221, 233, 238, -1,
          219, 233, 221, -1,
          208, 233, 219, -1,
          239, 240, 232, -1,
          241, 240, 239, -1,
          242, 240, 241, -1,
          218, 240, 242, -1,
          217, 240, 218, -1,
          232, 240, 227, -1,
          227, 240, 217, -1,
          243, 244, 245, -1,
          246, 247, 243, -1,
          243, 247, 244, -1,
          244, 248, 249, -1,
          249, 248, 250, -1,
          251, 252, 253, -1,
          248, 254, 255, -1,
          255, 254, 256, -1,
          247, 254, 244, -1,
          244, 254, 248, -1,
          257, 258, 252, -1,
          258, 259, 252, -1,
          260, 261, 262, -1,
          263, 264, 259, -1,
          253, 264, 265, -1,
          252, 264, 253, -1,
          259, 264, 252, -1,
          266, 267, 260, -1,
          261, 267, 268, -1,
          260, 267, 261, -1,
          269, 270, 264, -1,
          265, 271, 247, -1,
          254, 271, 266, -1,
          247, 271, 254, -1,
          266, 271, 267, -1,
          270, 272, 264, -1,
          273, 274, 275, -1,
          123, 121, 125, -1,
          125, 121, 127, -1,
          271, 276, 277, -1,
          277, 276, 273, -1,
          274, 276, 278, -1,
          273, 276, 274, -1,
          271, 279, 276, -1,
          265, 279, 271, -1,
          127, 115, 272, -1,
          117, 115, 119, -1,
          119, 115, 121, -1,
          272, 115, 264, -1,
          121, 115, 127, -1,
          279, 280, 281, -1,
          113, 111, 115, -1,
          279, 282, 280, -1,
          111, 109, 115, -1,
          279, 283, 282, -1,
          107, 105, 109, -1,
          105, 103, 109, -1,
          284, 285, 286, -1,
          285, 287, 288, -1,
          99, 97, 101, -1,
          101, 95, 103, -1,
          103, 95, 109, -1,
          97, 95, 101, -1,
          279, 289, 283, -1,
          284, 289, 285, -1,
          283, 289, 284, -1,
          287, 289, 290, -1,
          285, 289, 287, -1,
          279, 291, 289, -1,
          291, 292, 293, -1,
          293, 292, 294, -1,
          85, 83, 87, -1,
          87, 83, 89, -1,
          89, 83, 91, -1,
          91, 81, 93, -1,
          93, 81, 95, -1,
          95, 81, 109, -1,
          83, 81, 91, -1,
          295, 296, 297, -1,
          115, 298, 264, -1,
          265, 298, 279, -1,
          292, 298, 295, -1,
          279, 298, 291, -1,
          296, 298, 299, -1,
          295, 298, 296, -1,
          291, 298, 292, -1,
          264, 298, 265, -1,
          77, 75, 79, -1,
          79, 75, 81, -1,
          298, 300, 301, -1,
          73, 71, 75, -1,
          298, 302, 300, -1,
          81, 69, 109, -1,
          71, 69, 75, -1,
          75, 69, 81, -1,
          67, 65, 69, -1,
          65, 63, 69, -1,
          63, 61, 69, -1,
          302, 5, 303, -1,
          303, 5, 304, -1,
          304, 5, 1, -1,
          1, 5, 2, -1,
          61, 59, 69, -1,
          298, 11, 302, -1,
          302, 11, 5, -1,
          5, 11, 7, -1,
          7, 11, 9, -1,
          55, 53, 57, -1,
          298, 13, 11, -1,
          53, 51, 57, -1,
          57, 51, 59, -1,
          298, 15, 13, -1,
          51, 49, 59, -1,
          15, 19, 17, -1,
          59, 45, 69, -1,
          49, 45, 59, -1,
          47, 45, 49, -1,
          15, 21, 19, -1,
          43, 41, 45, -1,
          109, 25, 115, -1,
          298, 25, 15, -1,
          15, 25, 21, -1,
          21, 25, 23, -1,
          115, 25, 298, -1,
          41, 39, 45, -1,
          109, 27, 25, -1,
          69, 29, 109, -1,
          109, 29, 27, -1,
          45, 29, 69, -1,
          39, 33, 45, -1,
          45, 33, 29, -1,
          29, 33, 31, -1,
          35, 33, 37, -1,
          37, 33, 39, -1,
          209, 128, 127, -1,
          209, 127, 272, -1,
          211, 272, 270, -1,
          211, 209, 272, -1,
          212, 270, 269, -1,
          212, 211, 270, -1,
          213, 269, 264, -1,
          213, 212, 269, -1,
          214, 264, 263, -1,
          214, 213, 264, -1,
          215, 263, 259, -1,
          215, 214, 263, -1,
          226, 259, 258, -1,
          226, 215, 259, -1,
          228, 258, 257, -1,
          228, 226, 258, -1,
          229, 257, 252, -1,
          229, 228, 257, -1,
          230, 252, 251, -1,
          230, 229, 252, -1,
          231, 251, 253, -1,
          231, 230, 251, -1,
          232, 253, 265, -1,
          232, 231, 253, -1,
          239, 265, 247, -1,
          239, 232, 265, -1,
          241, 247, 246, -1,
          241, 239, 247, -1,
          242, 246, 243, -1,
          242, 241, 246, -1,
          218, 243, 245, -1,
          218, 242, 243, -1,
          216, 245, 244, -1,
          216, 218, 245, -1,
          234, 216, 244, -1,
          234, 244, 249, -1,
          235, 234, 249, -1,
          235, 249, 250, -1,
          236, 235, 250, -1,
          236, 250, 248, -1,
          237, 236, 248, -1,
          237, 248, 255, -1,
          238, 237, 255, -1,
          238, 255, 256, -1,
          221, 256, 254, -1,
          221, 238, 256, -1,
          220, 254, 266, -1,
          220, 221, 254, -1,
          222, 266, 260, -1,
          222, 220, 266, -1,
          223, 260, 262, -1,
          223, 222, 260, -1,
          224, 262, 261, -1,
          224, 223, 262, -1,
          225, 261, 268, -1,
          225, 224, 261, -1,
          193, 268, 267, -1,
          193, 225, 268, -1,
          192, 267, 271, -1,
          192, 193, 267, -1,
          191, 271, 277, -1,
          191, 192, 271, -1,
          134, 277, 273, -1,
          134, 191, 277, -1,
          133, 273, 275, -1,
          133, 134, 273, -1,
          131, 275, 274, -1,
          131, 133, 275, -1,
          132, 274, 278, -1,
          132, 131, 274, -1,
          186, 278, 276, -1,
          186, 132, 278, -1,
          187, 276, 279, -1,
          187, 186, 276, -1,
          188, 279, 281, -1,
          188, 187, 279, -1,
          189, 281, 280, -1,
          189, 188, 281, -1,
          190, 280, 282, -1,
          190, 189, 280, -1,
          178, 282, 283, -1,
          178, 190, 282, -1,
          177, 283, 284, -1,
          177, 178, 283, -1,
          179, 177, 284, -1,
          179, 284, 286, -1,
          180, 179, 286, -1,
          180, 286, 285, -1,
          181, 180, 285, -1,
          181, 285, 288, -1,
          182, 181, 288, -1,
          182, 288, 287, -1,
          173, 182, 287, -1,
          173, 287, 290, -1,
          167, 173, 290, -1,
          167, 290, 289, -1,
          165, 167, 289, -1,
          165, 289, 291, -1,
          168, 165, 291, -1,
          168, 291, 293, -1,
          169, 168, 293, -1,
          169, 293, 294, -1,
          157, 169, 294, -1,
          157, 294, 292, -1,
          155, 157, 292, -1,
          155, 292, 295, -1,
          158, 155, 295, -1,
          158, 295, 297, -1,
          159, 158, 297, -1,
          159, 297, 296, -1,
          160, 159, 296, -1,
          160, 296, 299, -1,
          161, 299, 298, -1,
          161, 160, 299, -1,
          147, 298, 301, -1,
          147, 161, 298, -1,
          145, 301, 300, -1,
          145, 147, 301, -1,
          148, 300, 302, -1,
          148, 145, 300, -1,
          149, 302, 303, -1,
          149, 148, 302, -1,
          150, 303, 304, -1,
          150, 149, 303, -1,
          151, 304, 1, -1,
          151, 150, 304, -1,
          3, 151, 1, -1
        ]
      }
    }
}
