#VRML V2.0 utf8
WorldInfo {
  title "Exported triangle mesh to VRML97"
  info ["Created by FreeCAD"
        "<https://www.freecad.org>"]
}

Transform {
  scale 1 1 1
  rotation 0 0 1 0
  scaleOrientation 0 0 1 0
  center 0.000 0.000 0.000
  translation 0.000 0.000 0.000
  children
    Shape { 
      appearance
      Appearance {
        material
        Material {
          diffuseColor 0.8 0.8 0.8
        }
      }
      geometry
      IndexedFaceSet {
        coord
        Coordinate {
          point [
            4.495 0.221 1.375,
            4.500 0.000 -1.375,
            4.494 0.224 -1.375,
            4.500 0.000 1.375,
            4.478 0.441 1.375,
            4.478 0.448 -1.375,
            4.451 0.660 1.375,
            4.450 0.671 -1.375,
            4.414 0.878 1.375,
            4.411 0.892 -1.375,
            4.365 1.093 1.375,
            4.361 1.110 -1.375,
            4.306 1.306 1.375,
            4.300 1.326 -1.375,
            4.237 1.516 1.375,
            4.229 1.539 -1.375,
            4.157 1.722 1.375,
            4.147 1.748 -1.375,
            4.068 1.924 1.375,
            4.054 1.952 -1.375,
            3.969 2.121 1.375,
            3.952 2.152 -1.375,
            3.860 2.313 1.375,
            3.840 2.346 -1.375,
            3.742 2.500 1.375,
            3.718 2.535 -1.375,
            3.614 2.681 1.375,
            3.587 2.717 -1.375,
            3.479 2.855 1.375,
            3.447 2.893 -1.375,
            3.334 3.022 1.375,
            3.299 3.061 -1.375,
            3.182 3.182 1.375,
            3.142 3.221 -1.375,
            3.022 3.334 1.375,
            2.978 3.374 -1.375,
            2.855 3.479 1.375,
            2.806 3.518 -1.375,
            2.681 3.614 1.375,
            2.627 3.654 -1.375,
            2.500 3.742 1.375,
            2.441 3.780 -1.375,
            2.313 3.860 1.375,
            2.250 3.897 -1.375,
            2.121 3.969 1.375,
            2.053 4.004 -1.375,
            1.924 4.068 1.375,
            1.851 4.102 -1.375,
            1.722 4.157 1.375,
            1.644 4.189 -1.375,
            1.516 4.237 1.375,
            1.433 4.266 -1.375,
            1.306 4.306 1.375,
            1.219 4.332 -1.375,
            1.093 4.365 1.375,
            1.001 4.387 -1.375,
            0.878 4.414 1.375,
            0.781 4.432 -1.375,
            0.660 4.451 1.375,
            0.560 4.465 -1.375,
            0.441 4.478 1.375,
            0.336 4.487 -1.375,
            0.221 4.495 1.375,
            0.112 4.499 -1.375,
            0.000 4.500 1.375,
            -0.112 4.499 -1.375,
            -0.221 4.495 1.375,
            -0.336 4.487 -1.375,
            -0.441 4.478 1.375,
            -0.560 4.465 -1.375,
            -0.660 4.451 1.375,
            -0.781 4.432 -1.375,
            -0.878 4.414 1.375,
            -1.001 4.387 -1.375,
            -1.093 4.365 1.375,
            -1.219 4.332 -1.375,
            -1.306 4.306 1.375,
            -1.433 4.266 -1.375,
            -1.516 4.237 1.375,
            -1.644 4.189 -1.375,
            -1.722 4.157 1.375,
            -1.851 4.102 -1.375,
            -1.924 4.068 1.375,
            -2.053 4.004 -1.375,
            -2.121 3.969 1.375,
            -2.250 3.897 -1.375,
            -2.313 3.860 1.375,
            -2.441 3.780 -1.375,
            -2.500 3.742 1.375,
            -2.627 3.654 -1.375,
            -2.681 3.614 1.375,
            -2.806 3.518 -1.375,
            -2.855 3.479 1.375,
            -2.978 3.374 -1.375,
            -3.022 3.334 1.375,
            -3.142 3.221 -1.375,
            -3.182 3.182 1.375,
            -3.299 3.061 -1.375,
            -3.334 3.022 1.375,
            -3.447 2.893 -1.375,
            -3.479 2.855 1.375,
            -3.587 2.717 -1.375,
            -3.614 2.681 1.375,
            -3.718 2.535 -1.375,
            -3.742 2.500 1.375,
            -3.840 2.346 -1.375,
            -3.860 2.313 1.375,
            -3.952 2.152 -1.375,
            -3.969 2.121 1.375,
            -4.054 1.952 -1.375,
            -4.068 1.924 1.375,
            -4.147 1.748 -1.375,
            -4.157 1.722 1.375,
            -4.229 1.539 -1.375,
            -4.237 1.516 1.375,
            -4.300 1.326 -1.375,
            -4.306 1.306 1.375,
            -4.361 1.110 -1.375,
            -4.365 1.093 1.375,
            -4.411 0.892 -1.375,
            -4.414 0.878 1.375,
            -4.450 0.671 -1.375,
            -4.451 0.660 1.375,
            -4.478 0.448 -1.375,
            -4.478 0.441 1.375,
            -4.494 0.224 -1.375,
            -4.495 0.221 1.375,
            -4.500 0.000 -1.375,
            -4.500 0.000 1.375,
            0.000 3.876 1.177,
            -0.000 -3.876 1.177,
            0.441 -4.478 1.375,
            0.660 -4.451 1.375,
            0.221 -4.495 1.375,
            -0.000 -4.500 1.375,
            3.624 2.202 1.288,
            1.828 4.029 1.349,
            2.732 2.678 1.163,
            3.624 1.325 1.172,
            1.828 3.152 1.112,
            2.732 1.792 1.015,
            0.916 3.616 1.136,
            0.000 3.243 1.009,
            3.624 0.442 1.114,
            1.828 2.261 0.933,
            2.732 0.898 0.926,
            0.916 2.726 0.926,
            0.000 2.603 0.872,
            4.451 -0.660 1.375,
            3.624 -0.442 1.114,
            4.414 -0.878 1.375,
            4.478 -0.441 1.375,
            4.495 -0.221 1.375,
            1.828 1.361 0.814,
            2.732 0.000 0.897,
            0.916 1.824 0.776,
            0.000 1.307 0.687,
            0.000 1.957 0.764,
            3.624 -1.325 1.172,
            4.157 -1.722 1.375,
            4.068 -1.924 1.375,
            4.237 -1.516 1.375,
            4.306 -1.306 1.375,
            4.365 -1.093 1.375,
            1.828 0.454 0.754,
            2.732 -0.898 0.926,
            0.916 0.914 0.686,
            0.000 0.654 0.641,
            3.742 -2.500 1.375,
            3.624 -2.202 1.288,
            3.614 -2.681 1.375,
            3.860 -2.313 1.375,
            3.969 -2.121 1.375,
            1.828 -0.454 0.754,
            2.732 -1.792 1.015,
            0.916 0.000 0.656,
            -0.000 -0.654 0.641,
            0.000 0.000 0.625,
            1.828 -1.361 0.814,
            2.732 -2.678 1.163,
            2.855 -3.479 1.375,
            2.681 -3.614 1.375,
            3.022 -3.334 1.375,
            3.182 -3.182 1.375,
            3.334 -3.022 1.375,
            3.479 -2.855 1.375,
            0.916 -0.914 0.686,
            -0.000 -1.307 0.687,
            1.828 -2.261 0.933,
            -0.000 -1.957 0.764,
            0.916 -1.824 0.776,
            -0.000 -2.603 0.872,
            2.313 -3.860 1.375,
            1.828 -3.152 1.112,
            2.121 -3.969 1.375,
            2.500 -3.742 1.375,
            0.916 -2.726 0.926,
            -0.000 -3.243 1.009,
            1.828 -4.029 1.349,
            1.722 -4.157 1.375,
            1.516 -4.237 1.375,
            1.924 -4.068 1.375,
            0.916 -3.616 1.136,
            0.878 -4.414 1.375,
            1.093 -4.365 1.375,
            1.306 -4.306 1.375,
            -0.221 -4.495 1.375,
            -0.441 -4.478 1.375,
            -0.916 4.055 1.262,
            -0.916 3.173 1.024,
            -1.828 3.592 1.223,
            -0.916 2.276 0.844,
            -1.828 2.708 1.015,
            -0.916 1.370 0.723,
            -2.732 3.117 1.258,
            -1.828 1.812 0.866,
            -0.916 0.457 0.663,
            -2.732 2.236 1.082,
            -1.828 0.908 0.776,
            -0.916 -0.457 0.663,
            -2.732 1.346 0.963,
            -1.828 0.000 0.746,
            -3.624 1.764 1.223,
            -0.916 -1.370 0.723,
            -2.732 0.449 0.904,
            -1.828 -0.908 0.776,
            -3.624 0.884 1.136,
            -0.916 -2.276 0.844,
            -2.732 -0.449 0.904,
            -1.828 -1.812 0.866,
            -4.495 -0.221 1.375,
            -3.624 0.000 1.106,
            -4.478 -0.441 1.375,
            -0.916 -3.173 1.024,
            -2.732 -1.346 0.963,
            -1.828 -2.708 1.015,
            -4.451 -0.660 1.375,
            -3.624 -0.884 1.136,
            -4.414 -0.878 1.375,
            -4.365 -1.093 1.375,
            -4.306 -1.306 1.375,
            -4.237 -1.516 1.375,
            -1.306 -4.306 1.375,
            -0.916 -4.055 1.262,
            -1.516 -4.237 1.375,
            -1.093 -4.365 1.375,
            -0.878 -4.414 1.375,
            -0.660 -4.451 1.375,
            -2.732 -2.236 1.082,
            -3.614 -2.681 1.375,
            -3.742 -2.500 1.375,
            -3.479 -2.855 1.375,
            -3.334 -3.022 1.375,
            -2.313 -3.860 1.375,
            -1.828 -3.592 1.223,
            -2.500 -3.742 1.375,
            -2.121 -3.969 1.375,
            -1.924 -4.068 1.375,
            -1.722 -4.157 1.375,
            -4.157 -1.722 1.375,
            -3.624 -1.764 1.223,
            -4.068 -1.924 1.375,
            -3.969 -2.121 1.375,
            -3.860 -2.313 1.375,
            -2.732 -3.117 1.258,
            -3.182 -3.182 1.375,
            -3.022 -3.334 1.375,
            -2.855 -3.479 1.375,
            -2.681 -3.614 1.375,
            -3.587 -2.717 -1.375,
            -3.718 -2.535 -1.375,
            -3.447 -2.893 -1.375,
            -3.299 -3.061 -1.375,
            -3.142 -3.221 -1.375,
            -2.978 -3.374 -1.375,
            -2.806 -3.518 -1.375,
            -2.250 -3.897 -1.375,
            -2.627 -3.654 -1.375,
            -2.441 -3.780 -1.375,
            -3.840 -2.346 -1.375,
            -3.952 -2.152 -1.375,
            -1.851 -4.102 -1.375,
            -2.053 -4.004 -1.375,
            -4.054 -1.952 -1.375,
            -4.147 -1.748 -1.375,
            -4.411 -0.892 -1.375,
            -4.450 -0.671 -1.375,
            -4.361 -1.110 -1.375,
            -4.300 -1.326 -1.375,
            -4.229 -1.539 -1.375,
            -1.433 -4.266 -1.375,
            -0.560 -4.465 -1.375,
            -1.219 -4.332 -1.375,
            -1.001 -4.387 -1.375,
            -0.781 -4.432 -1.375,
            -0.112 -4.499 -1.375,
            -0.336 -4.487 -1.375,
            -4.494 -0.224 -1.375,
            -4.478 -0.448 -1.375,
            0.336 -4.487 -1.375,
            0.112 -4.499 -1.375,
            0.781 -4.432 -1.375,
            0.560 -4.465 -1.375,
            1.001 -4.387 -1.375,
            1.433 -4.266 -1.375,
            1.219 -4.332 -1.375,
            1.851 -4.102 -1.375,
            1.644 -4.189 -1.375,
            -1.644 -4.189 -1.375,
            2.806 -3.518 -1.375,
            2.053 -4.004 -1.375,
            2.250 -3.897 -1.375,
            2.441 -3.780 -1.375,
            2.627 -3.654 -1.375,
            3.299 -3.061 -1.375,
            2.978 -3.374 -1.375,
            3.142 -3.221 -1.375,
            3.587 -2.717 -1.375,
            3.447 -2.893 -1.375,
            3.718 -2.535 -1.375,
            3.840 -2.346 -1.375,
            3.952 -2.152 -1.375,
            4.411 -0.892 -1.375,
            4.054 -1.952 -1.375,
            4.147 -1.748 -1.375,
            4.229 -1.539 -1.375,
            4.300 -1.326 -1.375,
            4.361 -1.110 -1.375,
            4.450 -0.671 -1.375,
            4.478 -0.448 -1.375,
            4.494 -0.224 -1.375
          ]
        }
        coordIndex [
          0, 1, 2, -1,
          0, 3, 1, -1,
          4, 2, 5, -1,
          4, 0, 2, -1,
          6, 5, 7, -1,
          6, 4, 5, -1,
          8, 7, 9, -1,
          8, 6, 7, -1,
          10, 9, 11, -1,
          10, 8, 9, -1,
          12, 11, 13, -1,
          12, 10, 11, -1,
          14, 13, 15, -1,
          14, 12, 13, -1,
          16, 15, 17, -1,
          16, 14, 15, -1,
          18, 17, 19, -1,
          18, 16, 17, -1,
          20, 19, 21, -1,
          20, 18, 19, -1,
          22, 21, 23, -1,
          22, 20, 21, -1,
          24, 23, 25, -1,
          24, 22, 23, -1,
          26, 25, 27, -1,
          26, 24, 25, -1,
          28, 27, 29, -1,
          28, 26, 27, -1,
          30, 29, 31, -1,
          30, 28, 29, -1,
          32, 31, 33, -1,
          32, 30, 31, -1,
          34, 33, 35, -1,
          34, 32, 33, -1,
          36, 34, 35, -1,
          36, 35, 37, -1,
          38, 36, 37, -1,
          38, 37, 39, -1,
          40, 38, 39, -1,
          40, 39, 41, -1,
          42, 40, 41, -1,
          42, 41, 43, -1,
          44, 42, 43, -1,
          44, 43, 45, -1,
          46, 45, 47, -1,
          46, 44, 45, -1,
          48, 47, 49, -1,
          48, 46, 47, -1,
          50, 49, 51, -1,
          50, 48, 49, -1,
          52, 51, 53, -1,
          52, 50, 51, -1,
          54, 53, 55, -1,
          54, 52, 53, -1,
          56, 55, 57, -1,
          56, 54, 55, -1,
          58, 57, 59, -1,
          58, 56, 57, -1,
          60, 59, 61, -1,
          60, 58, 59, -1,
          62, 61, 63, -1,
          62, 60, 61, -1,
          64, 63, 65, -1,
          64, 62, 63, -1,
          66, 65, 67, -1,
          66, 64, 65, -1,
          68, 67, 69, -1,
          68, 66, 67, -1,
          70, 69, 71, -1,
          70, 68, 69, -1,
          72, 71, 73, -1,
          72, 70, 71, -1,
          74, 73, 75, -1,
          74, 72, 73, -1,
          76, 75, 77, -1,
          76, 74, 75, -1,
          78, 77, 79, -1,
          78, 76, 77, -1,
          80, 79, 81, -1,
          80, 78, 79, -1,
          82, 81, 83, -1,
          82, 80, 81, -1,
          84, 83, 85, -1,
          84, 82, 83, -1,
          86, 84, 85, -1,
          86, 85, 87, -1,
          88, 86, 87, -1,
          88, 87, 89, -1,
          90, 88, 89, -1,
          90, 89, 91, -1,
          92, 90, 91, -1,
          92, 91, 93, -1,
          94, 92, 93, -1,
          94, 93, 95, -1,
          96, 94, 95, -1,
          96, 95, 97, -1,
          98, 96, 97, -1,
          98, 97, 99, -1,
          100, 98, 99, -1,
          100, 99, 101, -1,
          102, 100, 101, -1,
          102, 101, 103, -1,
          104, 102, 103, -1,
          104, 103, 105, -1,
          106, 104, 105, -1,
          106, 105, 107, -1,
          108, 106, 107, -1,
          108, 107, 109, -1,
          110, 108, 109, -1,
          110, 109, 111, -1,
          112, 111, 113, -1,
          112, 110, 111, -1,
          114, 113, 115, -1,
          114, 112, 113, -1,
          116, 115, 117, -1,
          116, 114, 115, -1,
          118, 117, 119, -1,
          118, 116, 117, -1,
          120, 119, 121, -1,
          120, 118, 119, -1,
          122, 121, 123, -1,
          122, 120, 121, -1,
          124, 123, 125, -1,
          124, 122, 123, -1,
          126, 125, 127, -1,
          126, 124, 125, -1,
          128, 126, 127, -1,
          60, 129, 58, -1,
          62, 129, 60, -1,
          64, 129, 62, -1,
          130, 131, 132, -1,
          130, 133, 131, -1,
          130, 134, 133, -1,
          20, 135, 18, -1,
          22, 135, 20, -1,
          24, 135, 22, -1,
          26, 135, 24, -1,
          46, 136, 44, -1,
          48, 136, 46, -1,
          50, 136, 48, -1,
          26, 137, 135, -1,
          28, 137, 26, -1,
          30, 137, 28, -1,
          32, 137, 30, -1,
          34, 137, 32, -1,
          36, 137, 34, -1,
          38, 137, 36, -1,
          10, 138, 8, -1,
          12, 138, 10, -1,
          14, 138, 12, -1,
          16, 138, 14, -1,
          18, 138, 16, -1,
          135, 138, 18, -1,
          136, 139, 44, -1,
          40, 139, 38, -1,
          42, 139, 40, -1,
          44, 139, 42, -1,
          38, 139, 137, -1,
          137, 140, 135, -1,
          135, 140, 138, -1,
          50, 141, 136, -1,
          52, 141, 50, -1,
          54, 141, 52, -1,
          56, 141, 54, -1,
          58, 141, 56, -1,
          136, 141, 139, -1,
          142, 141, 129, -1,
          129, 141, 58, -1,
          0, 143, 3, -1,
          4, 143, 0, -1,
          6, 143, 4, -1,
          8, 143, 6, -1,
          138, 143, 8, -1,
          137, 144, 140, -1,
          139, 144, 137, -1,
          140, 145, 138, -1,
          138, 145, 143, -1,
          139, 146, 144, -1,
          142, 146, 141, -1,
          147, 146, 142, -1,
          141, 146, 139, -1,
          148, 149, 150, -1,
          151, 149, 148, -1,
          152, 149, 151, -1,
          3, 149, 152, -1,
          143, 149, 3, -1,
          140, 153, 145, -1,
          144, 153, 140, -1,
          145, 154, 143, -1,
          143, 154, 149, -1,
          147, 155, 146, -1,
          144, 155, 153, -1,
          156, 155, 157, -1,
          157, 155, 147, -1,
          146, 155, 144, -1,
          149, 158, 150, -1,
          159, 158, 160, -1,
          161, 158, 159, -1,
          162, 158, 161, -1,
          163, 158, 162, -1,
          150, 158, 163, -1,
          153, 164, 145, -1,
          145, 164, 154, -1,
          149, 165, 158, -1,
          154, 165, 149, -1,
          153, 166, 164, -1,
          155, 166, 153, -1,
          156, 166, 155, -1,
          167, 166, 156, -1,
          168, 169, 170, -1,
          171, 169, 168, -1,
          172, 169, 171, -1,
          160, 169, 172, -1,
          158, 169, 160, -1,
          164, 173, 154, -1,
          154, 173, 165, -1,
          158, 174, 169, -1,
          165, 174, 158, -1,
          167, 175, 166, -1,
          176, 175, 177, -1,
          177, 175, 167, -1,
          166, 175, 164, -1,
          164, 175, 173, -1,
          173, 178, 165, -1,
          165, 178, 174, -1,
          174, 179, 169, -1,
          180, 179, 181, -1,
          182, 179, 180, -1,
          183, 179, 182, -1,
          184, 179, 183, -1,
          185, 179, 184, -1,
          170, 179, 185, -1,
          169, 179, 170, -1,
          173, 186, 178, -1,
          175, 186, 173, -1,
          187, 186, 176, -1,
          176, 186, 175, -1,
          174, 188, 179, -1,
          178, 188, 174, -1,
          189, 190, 187, -1,
          191, 190, 189, -1,
          187, 190, 186, -1,
          186, 190, 178, -1,
          178, 190, 188, -1,
          192, 193, 194, -1,
          195, 193, 192, -1,
          181, 193, 195, -1,
          188, 193, 179, -1,
          179, 193, 181, -1,
          191, 196, 190, -1,
          190, 196, 188, -1,
          197, 196, 191, -1,
          188, 196, 193, -1,
          193, 198, 194, -1,
          199, 198, 200, -1,
          201, 198, 199, -1,
          194, 198, 201, -1,
          193, 202, 198, -1,
          132, 202, 130, -1,
          198, 202, 200, -1,
          203, 202, 132, -1,
          204, 202, 203, -1,
          205, 202, 204, -1,
          200, 202, 205, -1,
          197, 202, 196, -1,
          130, 202, 197, -1,
          196, 202, 193, -1,
          66, 129, 64, -1,
          68, 129, 66, -1,
          130, 206, 134, -1,
          130, 207, 206, -1,
          70, 208, 68, -1,
          72, 208, 70, -1,
          74, 208, 72, -1,
          76, 208, 74, -1,
          78, 208, 76, -1,
          68, 208, 129, -1,
          208, 209, 129, -1,
          142, 209, 147, -1,
          129, 209, 142, -1,
          208, 210, 209, -1,
          80, 210, 78, -1,
          82, 210, 80, -1,
          84, 210, 82, -1,
          86, 210, 84, -1,
          88, 210, 86, -1,
          78, 210, 208, -1,
          147, 211, 157, -1,
          209, 211, 147, -1,
          209, 212, 211, -1,
          210, 212, 209, -1,
          211, 213, 157, -1,
          156, 213, 167, -1,
          157, 213, 156, -1,
          88, 214, 210, -1,
          90, 214, 88, -1,
          92, 214, 90, -1,
          94, 214, 92, -1,
          96, 214, 94, -1,
          98, 214, 96, -1,
          210, 214, 212, -1,
          212, 215, 211, -1,
          211, 215, 213, -1,
          213, 216, 167, -1,
          167, 216, 177, -1,
          98, 217, 214, -1,
          212, 217, 215, -1,
          100, 217, 98, -1,
          102, 217, 100, -1,
          104, 217, 102, -1,
          214, 217, 212, -1,
          213, 218, 216, -1,
          215, 218, 213, -1,
          216, 219, 177, -1,
          177, 219, 176, -1,
          217, 220, 215, -1,
          215, 220, 218, -1,
          216, 221, 219, -1,
          218, 221, 216, -1,
          106, 222, 104, -1,
          108, 222, 106, -1,
          110, 222, 108, -1,
          112, 222, 110, -1,
          114, 222, 112, -1,
          104, 222, 217, -1,
          217, 222, 220, -1,
          176, 223, 187, -1,
          187, 223, 189, -1,
          219, 223, 176, -1,
          220, 224, 218, -1,
          218, 224, 221, -1,
          221, 225, 219, -1,
          219, 225, 223, -1,
          114, 226, 222, -1,
          220, 226, 224, -1,
          116, 226, 114, -1,
          118, 226, 116, -1,
          120, 226, 118, -1,
          122, 226, 120, -1,
          124, 226, 122, -1,
          222, 226, 220, -1,
          223, 227, 189, -1,
          189, 227, 191, -1,
          221, 228, 225, -1,
          224, 228, 221, -1,
          223, 229, 227, -1,
          225, 229, 223, -1,
          230, 231, 128, -1,
          232, 231, 230, -1,
          124, 231, 226, -1,
          226, 231, 224, -1,
          126, 231, 124, -1,
          128, 231, 126, -1,
          224, 231, 228, -1,
          227, 233, 191, -1,
          191, 233, 197, -1,
          197, 233, 130, -1,
          228, 234, 225, -1,
          225, 234, 229, -1,
          229, 235, 227, -1,
          227, 235, 233, -1,
          236, 237, 232, -1,
          238, 237, 236, -1,
          239, 237, 238, -1,
          240, 237, 239, -1,
          241, 237, 240, -1,
          232, 237, 231, -1,
          231, 237, 228, -1,
          228, 237, 234, -1,
          242, 243, 244, -1,
          245, 243, 242, -1,
          246, 243, 245, -1,
          247, 243, 246, -1,
          207, 243, 247, -1,
          233, 243, 130, -1,
          130, 243, 207, -1,
          234, 248, 229, -1,
          229, 248, 235, -1,
          249, 248, 250, -1,
          251, 248, 249, -1,
          252, 248, 251, -1,
          253, 254, 255, -1,
          256, 254, 253, -1,
          257, 254, 256, -1,
          258, 254, 257, -1,
          244, 254, 258, -1,
          233, 254, 243, -1,
          243, 254, 244, -1,
          235, 254, 233, -1,
          259, 260, 241, -1,
          261, 260, 259, -1,
          234, 260, 248, -1,
          262, 260, 261, -1,
          263, 260, 262, -1,
          250, 260, 263, -1,
          237, 260, 234, -1,
          241, 260, 237, -1,
          248, 260, 250, -1,
          252, 264, 248, -1,
          265, 264, 252, -1,
          266, 264, 265, -1,
          267, 264, 266, -1,
          268, 264, 267, -1,
          255, 264, 268, -1,
          254, 264, 255, -1,
          235, 264, 254, -1,
          248, 264, 235, -1,
          269, 270, 271, -1,
          271, 270, 272, -1,
          272, 270, 273, -1,
          273, 270, 274, -1,
          274, 270, 275, -1,
          275, 276, 277, -1,
          277, 276, 278, -1,
          279, 280, 270, -1,
          276, 281, 282, -1,
          283, 284, 280, -1,
          285, 286, 287, -1,
          287, 286, 288, -1,
          288, 286, 289, -1,
          290, 291, 292, -1,
          292, 291, 293, -1,
          293, 291, 294, -1,
          291, 295, 296, -1,
          297, 127, 298, -1,
          298, 127, 286, -1,
          289, 127, 284, -1,
          284, 127, 280, -1,
          270, 127, 275, -1,
          280, 127, 270, -1,
          275, 127, 276, -1,
          276, 127, 281, -1,
          286, 127, 289, -1,
          295, 299, 300, -1,
          291, 299, 295, -1,
          125, 123, 127, -1,
          299, 301, 302, -1,
          291, 301, 299, -1,
          121, 119, 123, -1,
          123, 119, 127, -1,
          303, 304, 305, -1,
          113, 111, 115, -1,
          303, 306, 304, -1,
          301, 306, 303, -1,
          304, 306, 307, -1,
          119, 105, 127, -1,
          107, 105, 109, -1,
          109, 105, 111, -1,
          111, 105, 115, -1,
          115, 105, 117, -1,
          117, 105, 119, -1,
          281, 105, 308, -1,
          127, 105, 281, -1,
          103, 101, 105, -1,
          306, 309, 310, -1,
          310, 309, 311, -1,
          311, 309, 312, -1,
          312, 309, 313, -1,
          101, 99, 105, -1,
          99, 97, 105, -1,
          97, 95, 105, -1,
          306, 314, 309, -1,
          309, 314, 315, -1,
          315, 314, 316, -1,
          301, 317, 306, -1,
          314, 317, 318, -1,
          306, 317, 314, -1,
          91, 89, 93, -1,
          301, 319, 317, -1,
          301, 320, 319, -1,
          87, 85, 89, -1,
          93, 85, 95, -1,
          105, 85, 308, -1,
          308, 85, 290, -1,
          89, 85, 93, -1,
          95, 85, 105, -1,
          290, 85, 291, -1,
          83, 81, 85, -1,
          85, 79, 291, -1,
          81, 79, 85, -1,
          321, 322, 323, -1,
          323, 322, 324, -1,
          324, 322, 325, -1,
          325, 322, 326, -1,
          326, 322, 327, -1,
          75, 71, 77, -1,
          77, 71, 79, -1,
          73, 71, 75, -1,
          79, 65, 291, -1,
          67, 65, 69, -1,
          71, 65, 79, -1,
          69, 65, 71, -1,
          328, 1, 329, -1,
          329, 1, 330, -1,
          328, 2, 1, -1,
          322, 2, 328, -1,
          61, 59, 63, -1,
          59, 57, 63, -1,
          322, 9, 2, -1,
          2, 9, 5, -1,
          5, 9, 7, -1,
          57, 53, 63, -1,
          65, 53, 291, -1,
          55, 53, 57, -1,
          63, 53, 65, -1,
          9, 13, 11, -1,
          322, 15, 9, -1,
          9, 15, 13, -1,
          320, 15, 321, -1,
          301, 15, 320, -1,
          321, 15, 322, -1,
          49, 47, 51, -1,
          51, 47, 53, -1,
          15, 19, 17, -1,
          19, 23, 21, -1,
          41, 39, 43, -1,
          19, 27, 23, -1,
          23, 27, 25, -1,
          39, 37, 43, -1,
          43, 37, 45, -1,
          19, 29, 27, -1,
          291, 31, 301, -1,
          301, 31, 15, -1,
          15, 31, 19, -1,
          19, 31, 29, -1,
          53, 33, 291, -1,
          47, 33, 53, -1,
          37, 33, 45, -1,
          291, 33, 31, -1,
          35, 33, 37, -1,
          45, 33, 47, -1,
          230, 128, 127, -1,
          230, 127, 297, -1,
          232, 297, 298, -1,
          232, 230, 297, -1,
          236, 298, 286, -1,
          236, 232, 298, -1,
          238, 286, 285, -1,
          238, 236, 286, -1,
          239, 285, 287, -1,
          239, 238, 285, -1,
          240, 287, 288, -1,
          240, 239, 287, -1,
          241, 288, 289, -1,
          241, 240, 288, -1,
          259, 289, 284, -1,
          259, 241, 289, -1,
          261, 284, 283, -1,
          261, 259, 284, -1,
          262, 283, 280, -1,
          262, 261, 283, -1,
          263, 280, 279, -1,
          263, 262, 280, -1,
          250, 279, 270, -1,
          250, 263, 279, -1,
          249, 270, 269, -1,
          249, 250, 270, -1,
          251, 269, 271, -1,
          251, 249, 269, -1,
          252, 271, 272, -1,
          252, 251, 271, -1,
          265, 272, 273, -1,
          265, 252, 272, -1,
          266, 273, 274, -1,
          266, 265, 273, -1,
          267, 266, 274, -1,
          267, 274, 275, -1,
          268, 267, 275, -1,
          268, 275, 277, -1,
          255, 268, 277, -1,
          255, 277, 278, -1,
          253, 255, 278, -1,
          253, 278, 276, -1,
          256, 253, 276, -1,
          256, 276, 282, -1,
          257, 282, 281, -1,
          257, 256, 282, -1,
          258, 281, 308, -1,
          258, 257, 281, -1,
          244, 308, 290, -1,
          244, 258, 308, -1,
          242, 290, 292, -1,
          242, 244, 290, -1,
          245, 292, 293, -1,
          245, 242, 292, -1,
          246, 293, 294, -1,
          246, 245, 293, -1,
          247, 294, 291, -1,
          247, 246, 294, -1,
          207, 291, 296, -1,
          207, 247, 291, -1,
          206, 296, 295, -1,
          206, 207, 296, -1,
          134, 295, 300, -1,
          134, 206, 295, -1,
          133, 300, 299, -1,
          133, 134, 300, -1,
          131, 299, 302, -1,
          131, 133, 299, -1,
          132, 302, 301, -1,
          132, 131, 302, -1,
          203, 301, 303, -1,
          203, 132, 301, -1,
          204, 303, 305, -1,
          204, 203, 303, -1,
          205, 305, 304, -1,
          205, 204, 305, -1,
          200, 304, 307, -1,
          200, 205, 304, -1,
          199, 307, 306, -1,
          199, 200, 307, -1,
          201, 306, 310, -1,
          201, 199, 306, -1,
          194, 310, 311, -1,
          194, 201, 310, -1,
          192, 194, 311, -1,
          192, 311, 312, -1,
          195, 192, 312, -1,
          195, 312, 313, -1,
          181, 195, 313, -1,
          181, 313, 309, -1,
          180, 181, 309, -1,
          180, 309, 315, -1,
          182, 180, 315, -1,
          182, 315, 316, -1,
          183, 182, 316, -1,
          183, 316, 314, -1,
          184, 183, 314, -1,
          184, 314, 318, -1,
          185, 184, 318, -1,
          185, 318, 317, -1,
          170, 185, 317, -1,
          170, 317, 319, -1,
          168, 170, 319, -1,
          168, 319, 320, -1,
          171, 168, 320, -1,
          171, 320, 321, -1,
          172, 171, 321, -1,
          172, 321, 323, -1,
          160, 172, 323, -1,
          160, 323, 324, -1,
          159, 160, 324, -1,
          159, 324, 325, -1,
          161, 325, 326, -1,
          161, 159, 325, -1,
          162, 326, 327, -1,
          162, 161, 326, -1,
          163, 327, 322, -1,
          163, 162, 327, -1,
          150, 322, 328, -1,
          150, 163, 322, -1,
          148, 328, 329, -1,
          148, 150, 328, -1,
          151, 329, 330, -1,
          151, 148, 329, -1,
          152, 330, 1, -1,
          152, 151, 330, -1,
          3, 152, 1, -1
        ]
      }
    }
}
