#VRML V2.0 utf8
WorldInfo {
  title "Exported triangle mesh to VRML97"
  info ["Created by FreeCAD"
        "<https://www.freecad.org>"]
}

Transform {
  scale 1 1 1
  rotation 0 0 1 0
  scaleOrientation 0 0 1 0
  center 0.000 0.000 0.000
  translation 0.000 0.000 0.000
  children
    Shape { 
      appearance
      Appearance {
        material
        Material {
          diffuseColor 0.8 0.8 0.8
        }
      }
      geometry
      IndexedFaceSet {
        coord
        Coordinate {
          point [
            -6.201 0.305 3.289,
            -6.350 0.000 3.147,
            -6.209 0.000 3.289,
            -6.342 0.317 3.147,
            -6.179 0.609 3.289,
            -6.318 0.632 3.147,
            -6.141 0.911 3.289,
            -6.279 0.946 3.147,
            -6.089 1.211 3.289,
            -6.224 1.258 3.147,
            -6.023 1.509 3.289,
            -6.154 1.567 3.147,
            -5.941 1.802 3.289,
            -6.068 1.872 3.147,
            -5.846 2.092 3.289,
            -5.967 2.172 3.147,
            -5.736 2.376 3.289,
            -5.851 2.467 3.147,
            -5.612 2.655 3.289,
            -5.721 2.755 3.147,
            -5.475 2.927 3.289,
            -5.577 3.037 3.147,
            -5.325 3.192 3.289,
            -5.418 3.311 3.147,
            -5.162 3.449 3.289,
            -5.247 3.577 3.147,
            -4.987 3.698 3.289,
            -5.062 3.834 3.147,
            -4.799 3.939 3.289,
            -4.864 4.082 3.147,
            -4.600 4.169 3.289,
            -4.655 4.319 3.147,
            -4.390 4.390 3.289,
            -4.434 4.546 3.147,
            -4.169 4.600 3.289,
            -4.202 4.761 3.147,
            -3.939 4.799 3.289,
            -3.959 4.965 3.147,
            -3.698 4.987 3.289,
            -3.707 5.156 3.147,
            -3.449 5.162 3.289,
            -3.445 5.334 3.147,
            -3.192 5.325 3.289,
            -3.175 5.499 3.147,
            -2.927 5.475 3.289,
            -2.897 5.651 3.147,
            -2.655 5.612 3.289,
            -2.612 5.788 3.147,
            -2.376 5.736 3.289,
            -2.320 5.911 3.147,
            -2.092 5.846 3.289,
            -2.022 6.019 3.147,
            -1.802 5.941 3.289,
            -1.720 6.113 3.147,
            -1.509 6.023 3.289,
            -1.413 6.191 3.147,
            -1.211 6.089 3.289,
            -1.103 6.254 3.147,
            -0.911 6.141 3.289,
            -0.790 6.301 3.147,
            -0.609 6.179 3.289,
            -0.475 6.332 3.147,
            -0.305 6.201 3.289,
            -0.158 6.348 3.147,
            0.000 6.209 3.289,
            0.158 6.348 3.147,
            0.305 6.201 3.289,
            0.475 6.332 3.147,
            0.609 6.179 3.289,
            0.790 6.301 3.147,
            0.911 6.141 3.289,
            1.103 6.254 3.147,
            1.211 6.089 3.289,
            1.413 6.191 3.147,
            1.509 6.023 3.289,
            1.720 6.113 3.147,
            1.802 5.941 3.289,
            2.022 6.019 3.147,
            2.092 5.846 3.289,
            2.320 5.911 3.147,
            2.376 5.736 3.289,
            2.612 5.788 3.147,
            2.655 5.612 3.289,
            2.897 5.651 3.147,
            2.927 5.475 3.289,
            3.175 5.499 3.147,
            3.192 5.325 3.289,
            3.445 5.334 3.147,
            3.449 5.162 3.289,
            3.707 5.156 3.147,
            3.698 4.987 3.289,
            3.959 4.965 3.147,
            3.939 4.799 3.289,
            4.202 4.761 3.147,
            4.169 4.600 3.289,
            4.434 4.546 3.147,
            4.390 4.390 3.289,
            4.655 4.319 3.147,
            4.600 4.169 3.289,
            4.864 4.082 3.147,
            4.799 3.939 3.289,
            5.062 3.834 3.147,
            4.987 3.698 3.289,
            5.247 3.577 3.147,
            5.162 3.449 3.289,
            5.418 3.311 3.147,
            5.325 3.192 3.289,
            5.577 3.037 3.147,
            5.475 2.927 3.289,
            5.721 2.755 3.147,
            5.612 2.655 3.289,
            5.851 2.467 3.147,
            5.736 2.376 3.289,
            5.967 2.172 3.147,
            5.846 2.092 3.289,
            6.068 1.872 3.147,
            5.941 1.802 3.289,
            6.154 1.567 3.147,
            6.023 1.509 3.289,
            6.224 1.258 3.147,
            6.089 1.211 3.289,
            6.279 0.946 3.147,
            6.141 0.911 3.289,
            6.318 0.632 3.147,
            6.179 0.609 3.289,
            6.342 0.317 3.147,
            6.201 0.305 3.289,
            6.350 0.000 3.147,
            6.209 0.000 3.289,
            6.350 0.000 -1.359,
            6.342 0.317 -1.359,
            6.318 0.632 -1.359,
            6.279 0.946 -1.359,
            6.224 1.258 -1.359,
            6.154 1.567 -1.359,
            6.068 1.872 -1.359,
            5.967 2.172 -1.359,
            5.851 2.467 -1.359,
            5.721 2.755 -1.359,
            5.577 3.037 -1.359,
            5.418 3.311 -1.359,
            5.247 3.577 -1.359,
            5.062 3.834 -1.359,
            4.864 4.082 -1.359,
            4.655 4.319 -1.359,
            4.434 4.546 -1.359,
            4.202 4.761 -1.359,
            3.959 4.965 -1.359,
            3.707 5.156 -1.359,
            3.445 5.334 -1.359,
            3.175 5.499 -1.359,
            2.897 5.651 -1.359,
            2.612 5.788 -1.359,
            2.320 5.911 -1.359,
            2.022 6.019 -1.359,
            1.720 6.113 -1.359,
            1.413 6.191 -1.359,
            1.103 6.254 -1.359,
            0.790 6.301 -1.359,
            0.475 6.332 -1.359,
            0.158 6.348 -1.359,
            -0.158 6.348 -1.359,
            -0.475 6.332 -1.359,
            -0.790 6.301 -1.359,
            -1.103 6.254 -1.359,
            -1.413 6.191 -1.359,
            -1.720 6.113 -1.359,
            -2.022 6.019 -1.359,
            -2.320 5.911 -1.359,
            -2.612 5.788 -1.359,
            -2.897 5.651 -1.359,
            -3.175 5.499 -1.359,
            -3.445 5.334 -1.359,
            -3.707 5.156 -1.359,
            -3.959 4.965 -1.359,
            -4.202 4.761 -1.359,
            -4.434 4.546 -1.359,
            -4.655 4.319 -1.359,
            -4.864 4.082 -1.359,
            -5.062 3.834 -1.359,
            -5.247 3.577 -1.359,
            -5.418 3.311 -1.359,
            -5.577 3.037 -1.359,
            -5.721 2.755 -1.359,
            -5.851 2.467 -1.359,
            -5.967 2.172 -1.359,
            -6.068 1.872 -1.359,
            -6.154 1.567 -1.359,
            -6.224 1.258 -1.359,
            -6.279 0.946 -1.359,
            -6.318 0.632 -1.359,
            -6.342 0.317 -1.359,
            -6.350 0.000 -1.359,
            6.209 0.000 -1.500,
            6.201 0.309 -1.500,
            6.178 0.618 -1.500,
            6.139 0.925 -1.500,
            6.085 1.230 -1.500,
            6.017 1.532 -1.500,
            5.933 1.830 -1.500,
            5.834 2.123 -1.500,
            5.721 2.412 -1.500,
            5.594 2.694 -1.500,
            5.453 2.969 -1.500,
            5.298 3.237 -1.500,
            5.130 3.497 -1.500,
            4.949 3.749 -1.500,
            4.756 3.991 -1.500,
            4.551 4.223 -1.500,
            4.335 4.445 -1.500,
            4.108 4.655 -1.500,
            3.871 4.854 -1.500,
            3.624 5.041 -1.500,
            3.368 5.215 -1.500,
            3.104 5.377 -1.500,
            2.832 5.525 -1.500,
            2.554 5.659 -1.500,
            2.268 5.779 -1.500,
            1.977 5.885 -1.500,
            1.682 5.977 -1.500,
            1.382 6.053 -1.500,
            1.078 6.114 -1.500,
            0.772 6.160 -1.500,
            0.464 6.191 -1.500,
            0.155 6.207 -1.500,
            -0.155 6.207 -1.500,
            -0.464 6.191 -1.500,
            -0.772 6.160 -1.500,
            -1.078 6.114 -1.500,
            -1.382 6.053 -1.500,
            -1.682 5.977 -1.500,
            -1.977 5.885 -1.500,
            -2.268 5.779 -1.500,
            -2.554 5.659 -1.500,
            -2.832 5.525 -1.500,
            -3.104 5.377 -1.500,
            -3.368 5.215 -1.500,
            -3.624 5.041 -1.500,
            -3.871 4.854 -1.500,
            -4.108 4.655 -1.500,
            -4.335 4.445 -1.500,
            -4.551 4.223 -1.500,
            -4.756 3.991 -1.500,
            -4.949 3.749 -1.500,
            -5.130 3.497 -1.500,
            -5.298 3.237 -1.500,
            -5.453 2.969 -1.500,
            -5.594 2.694 -1.500,
            -5.721 2.412 -1.500,
            -5.834 2.123 -1.500,
            -5.933 1.830 -1.500,
            -6.017 1.532 -1.500,
            -6.085 1.230 -1.500,
            -6.139 0.925 -1.500,
            -6.178 0.618 -1.500,
            -6.201 0.309 -1.500,
            -6.209 0.000 -1.500,
            0.000 5.740 3.009,
            -0.000 -5.740 3.009,
            -0.000 -6.209 3.289,
            0.305 -6.201 3.289,
            4.263 4.190 3.147,
            4.932 3.095 3.056,
            3.578 4.620 3.069,
            5.581 2.016 3.121,
            4.263 3.520 2.893,
            2.880 5.041 3.046,
            4.932 2.421 2.874,
            3.578 3.944 2.786,
            2.169 5.447 3.080,
            5.581 1.349 3.010,
            4.263 2.835 2.683,
            2.880 4.362 2.736,
            1.451 5.834 3.167,
            4.932 1.737 2.737,
            3.578 3.251 2.548,
            2.169 4.769 2.742,
            5.581 0.676 2.943,
            4.263 2.137 2.519,
            2.880 3.664 2.471,
            1.451 5.161 2.804,
            4.932 1.045 2.645,
            3.578 2.543 2.357,
            2.169 4.071 2.451,
            0.727 5.533 2.921,
            0.000 5.259 2.752,
            5.581 0.000 2.921,
            6.201 -0.305 3.289,
            4.263 1.430 2.401,
            2.880 2.951 2.253,
            1.451 4.466 2.487,
            4.932 0.349 2.599,
            3.578 1.824 2.213,
            2.169 3.356 2.205,
            0.727 4.845 2.578,
            0.000 4.263 2.307,
            0.000 4.766 2.518,
            5.581 -0.676 2.943,
            6.179 -0.609 3.289,
            6.141 -0.911 3.289,
            4.263 0.716 2.330,
            2.880 2.225 2.082,
            1.451 3.752 2.215,
            4.932 -0.349 2.599,
            3.578 1.098 2.117,
            2.169 2.625 2.008,
            0.727 4.136 2.282,
            0.000 3.751 2.119,
            6.023 -1.509 3.289,
            5.581 -1.349 3.010,
            5.941 -1.802 3.289,
            6.089 -1.211 3.289,
            4.263 0.000 2.307,
            2.880 1.488 1.959,
            1.451 3.021 1.992,
            4.932 -1.045 2.645,
            3.578 0.366 2.068,
            2.169 1.883 1.859,
            0.000 3.231 1.956,
            0.727 3.408 2.033,
            5.846 -2.092 3.289,
            5.581 -2.016 3.121,
            5.736 -2.376 3.289,
            4.263 -0.716 2.330,
            2.880 0.746 1.885,
            1.451 2.278 1.817,
            4.932 -1.737 2.737,
            3.578 -0.366 2.068,
            2.169 1.133 1.760,
            0.727 2.667 1.832,
            0.000 2.169 1.703,
            0.000 2.703 1.817,
            4.263 -1.430 2.401,
            2.880 0.000 1.861,
            1.451 1.524 1.691,
            4.932 -2.421 2.874,
            5.612 -2.655 3.289,
            5.475 -2.927 3.289,
            3.578 -1.098 2.117,
            2.169 0.378 1.710,
            0.727 1.913 1.681,
            0.000 1.631 1.615,
            4.263 -2.137 2.519,
            2.880 -0.746 1.885,
            1.451 0.764 1.616,
            4.932 -3.095 3.056,
            5.162 -3.449 3.289,
            4.987 -3.698 3.289,
            5.325 -3.192 3.289,
            3.578 -1.824 2.213,
            2.169 -0.378 1.710,
            0.727 1.151 1.580,
            0.000 0.545 1.513,
            0.000 1.090 1.551,
            4.263 -2.835 2.683,
            2.880 -1.488 1.959,
            1.451 0.000 1.591,
            3.578 -2.543 2.357,
            2.169 -1.133 1.760,
            0.727 0.384 1.529,
            0.000 0.000 1.500,
            4.263 -3.520 2.893,
            4.799 -3.939 3.289,
            2.880 -2.225 2.082,
            1.451 -0.764 1.616,
            3.578 -3.251 2.548,
            2.169 -1.883 1.859,
            0.727 -0.384 1.529,
            -0.000 -0.545 1.513,
            4.390 -4.390 3.289,
            4.263 -4.190 3.147,
            4.169 -4.600 3.289,
            4.600 -4.169 3.289,
            2.880 -2.951 2.253,
            1.451 -1.524 1.691,
            3.578 -3.944 2.786,
            2.169 -2.625 2.008,
            0.727 -1.151 1.580,
            -0.000 -1.090 1.551,
            -0.000 -1.631 1.615,
            2.880 -3.664 2.471,
            1.451 -2.278 1.817,
            3.578 -4.620 3.069,
            3.698 -4.987 3.289,
            3.449 -5.162 3.289,
            3.939 -4.799 3.289,
            2.169 -3.356 2.205,
            0.727 -1.913 1.681,
            -0.000 -2.169 1.703,
            2.880 -4.362 2.736,
            1.451 -3.021 1.992,
            2.169 -4.071 2.451,
            0.727 -2.667 1.832,
            -0.000 -2.703 1.817,
            -0.000 -3.231 1.956,
            2.880 -5.041 3.046,
            2.927 -5.475 3.289,
            2.655 -5.612 3.289,
            3.192 -5.325 3.289,
            1.451 -3.752 2.215,
            2.169 -4.769 2.742,
            0.727 -3.408 2.033,
            -0.000 -3.751 2.119,
            1.451 -4.466 2.487,
            2.092 -5.846 3.289,
            2.169 -5.447 3.080,
            1.802 -5.941 3.289,
            2.376 -5.736 3.289,
            0.727 -4.136 2.282,
            -0.000 -4.263 2.307,
            1.451 -5.161 2.804,
            -0.000 -4.766 2.518,
            0.727 -4.845 2.578,
            -0.000 -5.259 2.752,
            1.509 -6.023 3.289,
            1.451 -5.834 3.167,
            1.211 -6.089 3.289,
            0.609 -6.179 3.289,
            0.727 -5.533 2.921,
            0.911 -6.141 3.289,
            -0.305 -6.201 3.289,
            -0.727 5.868 3.109,
            -0.727 5.191 2.744,
            -1.451 5.500 2.980,
            -0.727 4.493 2.424,
            -1.451 4.816 2.640,
            -0.727 3.774 2.151,
            -2.169 5.111 2.905,
            -1.451 4.111 2.345,
            -2.880 5.372 3.218,
            -0.727 3.039 1.926,
            -2.169 4.423 2.591,
            -1.451 3.389 2.097,
            -2.880 4.704 2.886,
            -0.727 2.291 1.750,
            -2.169 3.716 2.322,
            -3.578 4.951 3.227,
            -1.451 2.651 1.898,
            -2.880 4.015 2.598,
            -0.727 1.533 1.624,
            -2.169 2.992 2.101,
            -3.578 4.284 2.922,
            -1.451 1.902 1.748,
            -2.880 3.310 2.356,
            -0.727 0.768 1.548,
            -2.169 2.255 1.927,
            -3.578 3.599 2.661,
            -1.451 1.144 1.647,
            -2.880 2.589 2.161,
            -4.263 3.857 3.014,
            -0.727 0.000 1.523,
            -2.169 1.509 1.803,
            -3.578 2.898 2.447,
            -1.451 0.382 1.597,
            -2.880 1.857 2.014,
            -4.263 3.179 2.782,
            -0.727 -0.768 1.548,
            -2.169 0.756 1.728,
            -3.578 2.185 2.279,
            -4.932 3.427 3.164,
            -1.451 -0.382 1.597,
            -2.880 1.118 1.916,
            -4.263 2.487 2.595,
            -0.727 -1.533 1.624,
            -2.169 0.000 1.703,
            -3.578 1.462 2.159,
            -4.932 2.760 2.960,
            -1.451 -1.144 1.647,
            -2.880 0.373 1.867,
            -4.263 1.784 2.454,
            -0.727 -2.291 1.750,
            -2.169 -0.756 1.728,
            -3.578 0.733 2.086,
            -4.932 2.080 2.800,
            -1.451 -1.902 1.748,
            -2.880 -0.373 1.867,
            -4.263 1.074 2.360,
            -5.581 2.346 3.193,
            -0.727 -3.039 1.926,
            -2.169 -1.509 1.803,
            -3.578 0.000 2.062,
            -4.932 1.392 2.685,
            -1.451 -2.651 1.898,
            -2.880 -1.118 1.916,
            -4.263 0.358 2.313,
            -5.581 1.683 3.060,
            -0.727 -3.774 2.151,
            -2.169 -2.255 1.927,
            -3.578 -0.733 2.086,
            -4.932 0.698 2.616,
            -1.451 -3.389 2.097,
            -2.880 -1.857 2.014,
            -4.263 -0.358 2.313,
            -5.581 1.013 2.971,
            -0.727 -4.493 2.424,
            -2.169 -2.992 2.101,
            -3.578 -1.462 2.159,
            -4.932 0.000 2.593,
            -1.451 -4.111 2.345,
            -2.880 -2.589 2.161,
            -4.263 -1.074 2.360,
            -5.581 0.338 2.927,
            -0.727 -5.191 2.744,
            -2.169 -3.716 2.322,
            -3.578 -2.185 2.279,
            -4.932 -0.698 2.616,
            -1.451 -4.816 2.640,
            -2.880 -3.310 2.356,
            -4.263 -1.784 2.454,
            -6.201 -0.305 3.289,
            -5.581 -0.338 2.927,
            -6.179 -0.609 3.289,
            -0.727 -5.868 3.109,
            -0.911 -6.141 3.289,
            -1.211 -6.089 3.289,
            -0.609 -6.179 3.289,
            -2.169 -4.423 2.591,
            -3.578 -2.898 2.447,
            -4.932 -1.392 2.685,
            -1.802 -5.941 3.289,
            -1.451 -5.500 2.980,
            -2.092 -5.846 3.289,
            -1.509 -6.023 3.289,
            -2.880 -4.015 2.598,
            -4.263 -2.487 2.595,
            -6.141 -0.911 3.289,
            -5.581 -1.013 2.971,
            -6.089 -1.211 3.289,
            -6.023 -1.509 3.289,
            -2.169 -5.111 2.905,
            -2.376 -5.736 3.289,
            -2.655 -5.612 3.289,
            -3.578 -3.599 2.661,
            -4.932 -2.080 2.800,
            -3.192 -5.325 3.289,
            -2.880 -4.704 2.886,
            -3.449 -5.162 3.289,
            -4.263 -3.179 2.782,
            -5.581 -1.683 3.060,
            -5.941 -1.802 3.289,
            -5.846 -2.092 3.289,
            -3.578 -4.284 2.922,
            -3.939 -4.799 3.289,
            -4.169 -4.600 3.289,
            -5.475 -2.927 3.289,
            -4.932 -2.760 2.960,
            -5.612 -2.655 3.289,
            -5.325 -3.192 3.289,
            -2.880 -5.372 3.218,
            -2.927 -5.475 3.289,
            -4.600 -4.169 3.289,
            -4.263 -3.857 3.014,
            -4.799 -3.939 3.289,
            -4.390 -4.390 3.289,
            -5.736 -2.376 3.289,
            -5.581 -2.346 3.193,
            -3.698 -4.987 3.289,
            -3.578 -4.951 3.227,
            -5.162 -3.449 3.289,
            -4.932 -3.427 3.164,
            -4.987 -3.698 3.289,
            -4.551 -4.223 -1.500,
            -4.756 -3.991 -1.500,
            -4.335 -4.445 -1.500,
            -4.108 -4.655 -1.500,
            -3.368 -5.215 -1.500,
            -3.871 -4.854 -1.500,
            -3.624 -5.041 -1.500,
            -2.832 -5.525 -1.500,
            -3.104 -5.377 -1.500,
            -2.554 -5.659 -1.500,
            -5.594 -2.694 -1.500,
            -5.721 -2.412 -1.500,
            -5.453 -2.969 -1.500,
            -5.298 -3.237 -1.500,
            -5.130 -3.497 -1.500,
            -2.268 -5.779 -1.500,
            -5.933 -1.830 -1.500,
            -6.017 -1.532 -1.500,
            -5.834 -2.123 -1.500,
            -1.382 -6.053 -1.500,
            -1.977 -5.885 -1.500,
            -1.682 -5.977 -1.500,
            -0.772 -6.160 -1.500,
            -1.078 -6.114 -1.500,
            -0.464 -6.191 -1.500,
            -6.201 -0.309 -1.500,
            -6.178 -0.618 -1.500,
            -6.139 -0.925 -1.500,
            -6.085 -1.230 -1.500,
            -4.949 -3.749 -1.500,
            -0.155 -6.207 -1.500,
            0.772 -6.160 -1.500,
            0.155 -6.207 -1.500,
            0.464 -6.191 -1.500,
            2.268 -5.779 -1.500,
            1.078 -6.114 -1.500,
            1.382 -6.053 -1.500,
            1.682 -5.977 -1.500,
            1.977 -5.885 -1.500,
            2.832 -5.525 -1.500,
            2.554 -5.659 -1.500,
            3.624 -5.041 -1.500,
            3.104 -5.377 -1.500,
            3.368 -5.215 -1.500,
            3.871 -4.854 -1.500,
            4.335 -4.445 -1.500,
            4.108 -4.655 -1.500,
            4.551 -4.223 -1.500,
            4.949 -3.749 -1.500,
            4.756 -3.991 -1.500,
            5.130 -3.497 -1.500,
            5.298 -3.237 -1.500,
            5.453 -2.969 -1.500,
            5.721 -2.412 -1.500,
            5.594 -2.694 -1.500,
            5.834 -2.123 -1.500,
            6.139 -0.925 -1.500,
            5.933 -1.830 -1.500,
            6.017 -1.532 -1.500,
            6.085 -1.230 -1.500,
            6.178 -0.618 -1.500,
            6.201 -0.309 -1.500,
            -6.342 -0.317 -1.359,
            -6.318 -0.632 -1.359,
            -6.279 -0.946 -1.359,
            -6.224 -1.258 -1.359,
            -6.154 -1.567 -1.359,
            -6.068 -1.872 -1.359,
            -5.967 -2.172 -1.359,
            -5.851 -2.467 -1.359,
            -5.721 -2.755 -1.359,
            -5.577 -3.037 -1.359,
            -5.418 -3.311 -1.359,
            -5.247 -3.577 -1.359,
            -5.062 -3.834 -1.359,
            -4.864 -4.082 -1.359,
            -4.655 -4.319 -1.359,
            -4.434 -4.546 -1.359,
            -4.202 -4.761 -1.359,
            -3.959 -4.965 -1.359,
            -3.707 -5.156 -1.359,
            -3.445 -5.334 -1.359,
            -3.175 -5.499 -1.359,
            -2.897 -5.651 -1.359,
            -2.612 -5.788 -1.359,
            -2.320 -5.911 -1.359,
            -2.022 -6.019 -1.359,
            -1.720 -6.113 -1.359,
            -1.413 -6.191 -1.359,
            -1.103 -6.254 -1.359,
            -0.790 -6.301 -1.359,
            -0.475 -6.332 -1.359,
            -0.158 -6.348 -1.359,
            0.158 -6.348 -1.359,
            0.475 -6.332 -1.359,
            0.790 -6.301 -1.359,
            1.103 -6.254 -1.359,
            1.413 -6.191 -1.359,
            1.720 -6.113 -1.359,
            2.022 -6.019 -1.359,
            2.320 -5.911 -1.359,
            2.612 -5.788 -1.359,
            2.897 -5.651 -1.359,
            3.175 -5.499 -1.359,
            3.445 -5.334 -1.359,
            3.707 -5.156 -1.359,
            3.959 -4.965 -1.359,
            4.202 -4.761 -1.359,
            4.434 -4.546 -1.359,
            4.655 -4.319 -1.359,
            4.864 -4.082 -1.359,
            5.062 -3.834 -1.359,
            5.247 -3.577 -1.359,
            5.418 -3.311 -1.359,
            5.577 -3.037 -1.359,
            5.721 -2.755 -1.359,
            5.851 -2.467 -1.359,
            5.967 -2.172 -1.359,
            6.068 -1.872 -1.359,
            6.154 -1.567 -1.359,
            6.224 -1.258 -1.359,
            6.279 -0.946 -1.359,
            6.318 -0.632 -1.359,
            6.342 -0.317 -1.359,
            -6.342 -0.317 3.147,
            -6.318 -0.632 3.147,
            -6.279 -0.946 3.147,
            -6.224 -1.258 3.147,
            -6.154 -1.567 3.147,
            -6.068 -1.872 3.147,
            -5.967 -2.172 3.147,
            -5.851 -2.467 3.147,
            -5.721 -2.755 3.147,
            -5.577 -3.037 3.147,
            -5.418 -3.311 3.147,
            -5.247 -3.577 3.147,
            -5.062 -3.834 3.147,
            -4.864 -4.082 3.147,
            -4.655 -4.319 3.147,
            -4.434 -4.546 3.147,
            -4.202 -4.761 3.147,
            -3.959 -4.965 3.147,
            -3.707 -5.156 3.147,
            -3.445 -5.334 3.147,
            -3.175 -5.499 3.147,
            -2.897 -5.651 3.147,
            -2.612 -5.788 3.147,
            -2.320 -5.911 3.147,
            -2.022 -6.019 3.147,
            -1.720 -6.113 3.147,
            -1.413 -6.191 3.147,
            -1.103 -6.254 3.147,
            -0.790 -6.301 3.147,
            -0.475 -6.332 3.147,
            -0.158 -6.348 3.147,
            0.158 -6.348 3.147,
            0.475 -6.332 3.147,
            0.790 -6.301 3.147,
            1.103 -6.254 3.147,
            1.413 -6.191 3.147,
            1.720 -6.113 3.147,
            2.022 -6.019 3.147,
            2.320 -5.911 3.147,
            2.612 -5.788 3.147,
            2.897 -5.651 3.147,
            3.175 -5.499 3.147,
            3.445 -5.334 3.147,
            3.707 -5.156 3.147,
            3.959 -4.965 3.147,
            4.202 -4.761 3.147,
            4.434 -4.546 3.147,
            4.655 -4.319 3.147,
            4.864 -4.082 3.147,
            5.062 -3.834 3.147,
            5.247 -3.577 3.147,
            5.418 -3.311 3.147,
            5.577 -3.037 3.147,
            5.721 -2.755 3.147,
            5.851 -2.467 3.147,
            5.967 -2.172 3.147,
            6.068 -1.872 3.147,
            6.154 -1.567 3.147,
            6.224 -1.258 3.147,
            6.279 -0.946 3.147,
            6.318 -0.632 3.147,
            6.342 -0.317 3.147
          ]
        }
        coordIndex [
          0, 1, 2, -1,
          3, 1, 0, -1,
          4, 3, 0, -1,
          5, 3, 4, -1,
          6, 5, 4, -1,
          7, 5, 6, -1,
          8, 7, 6, -1,
          9, 7, 8, -1,
          10, 9, 8, -1,
          11, 9, 10, -1,
          12, 11, 10, -1,
          13, 11, 12, -1,
          14, 13, 12, -1,
          15, 13, 14, -1,
          16, 15, 14, -1,
          17, 15, 16, -1,
          18, 17, 16, -1,
          19, 17, 18, -1,
          20, 19, 18, -1,
          21, 19, 20, -1,
          22, 21, 20, -1,
          23, 21, 22, -1,
          24, 23, 22, -1,
          25, 23, 24, -1,
          26, 25, 24, -1,
          27, 25, 26, -1,
          28, 27, 26, -1,
          29, 27, 28, -1,
          30, 29, 28, -1,
          31, 29, 30, -1,
          32, 31, 30, -1,
          33, 31, 32, -1,
          34, 33, 32, -1,
          35, 33, 34, -1,
          36, 35, 34, -1,
          37, 35, 36, -1,
          38, 37, 36, -1,
          39, 37, 38, -1,
          40, 39, 38, -1,
          41, 39, 40, -1,
          42, 41, 40, -1,
          43, 41, 42, -1,
          44, 43, 42, -1,
          45, 43, 44, -1,
          46, 45, 44, -1,
          47, 46, 48, -1,
          47, 45, 46, -1,
          49, 48, 50, -1,
          49, 47, 48, -1,
          51, 50, 52, -1,
          51, 49, 50, -1,
          53, 52, 54, -1,
          53, 51, 52, -1,
          55, 54, 56, -1,
          55, 53, 54, -1,
          57, 56, 58, -1,
          57, 55, 56, -1,
          59, 57, 58, -1,
          59, 58, 60, -1,
          61, 59, 60, -1,
          61, 60, 62, -1,
          63, 61, 62, -1,
          63, 62, 64, -1,
          65, 64, 66, -1,
          65, 63, 64, -1,
          67, 66, 68, -1,
          67, 65, 66, -1,
          69, 68, 70, -1,
          69, 67, 68, -1,
          71, 70, 72, -1,
          71, 69, 70, -1,
          73, 72, 74, -1,
          73, 71, 72, -1,
          75, 74, 76, -1,
          75, 73, 74, -1,
          77, 76, 78, -1,
          77, 75, 76, -1,
          79, 78, 80, -1,
          79, 77, 78, -1,
          81, 80, 82, -1,
          81, 79, 80, -1,
          83, 82, 84, -1,
          83, 81, 82, -1,
          85, 84, 86, -1,
          85, 83, 84, -1,
          87, 86, 88, -1,
          87, 85, 86, -1,
          89, 87, 88, -1,
          89, 88, 90, -1,
          91, 89, 90, -1,
          91, 90, 92, -1,
          93, 91, 92, -1,
          93, 92, 94, -1,
          95, 94, 96, -1,
          95, 93, 94, -1,
          97, 96, 98, -1,
          97, 95, 96, -1,
          99, 98, 100, -1,
          99, 97, 98, -1,
          101, 100, 102, -1,
          101, 99, 100, -1,
          103, 102, 104, -1,
          103, 101, 102, -1,
          105, 104, 106, -1,
          105, 103, 104, -1,
          107, 106, 108, -1,
          107, 105, 106, -1,
          109, 108, 110, -1,
          109, 107, 108, -1,
          111, 110, 112, -1,
          111, 109, 110, -1,
          113, 112, 114, -1,
          113, 111, 112, -1,
          115, 114, 116, -1,
          115, 113, 114, -1,
          117, 116, 118, -1,
          117, 115, 116, -1,
          119, 118, 120, -1,
          119, 117, 118, -1,
          121, 120, 122, -1,
          121, 119, 120, -1,
          123, 122, 124, -1,
          123, 121, 122, -1,
          125, 124, 126, -1,
          125, 123, 124, -1,
          127, 126, 128, -1,
          127, 125, 126, -1,
          125, 129, 130, -1,
          125, 127, 129, -1,
          123, 130, 131, -1,
          123, 125, 130, -1,
          121, 131, 132, -1,
          121, 132, 133, -1,
          121, 123, 131, -1,
          119, 121, 133, -1,
          117, 133, 134, -1,
          117, 119, 133, -1,
          115, 134, 135, -1,
          115, 117, 134, -1,
          113, 135, 136, -1,
          113, 136, 137, -1,
          113, 115, 135, -1,
          111, 113, 137, -1,
          109, 137, 138, -1,
          109, 111, 137, -1,
          107, 138, 139, -1,
          107, 109, 138, -1,
          105, 139, 140, -1,
          105, 140, 141, -1,
          105, 107, 139, -1,
          103, 141, 142, -1,
          103, 105, 141, -1,
          101, 103, 142, -1,
          99, 142, 143, -1,
          99, 101, 142, -1,
          97, 143, 144, -1,
          97, 99, 143, -1,
          95, 144, 145, -1,
          95, 97, 144, -1,
          93, 145, 146, -1,
          93, 95, 145, -1,
          91, 146, 147, -1,
          91, 93, 146, -1,
          89, 91, 147, -1,
          89, 147, 148, -1,
          89, 148, 149, -1,
          87, 89, 149, -1,
          85, 87, 149, -1,
          85, 149, 150, -1,
          83, 85, 150, -1,
          83, 150, 151, -1,
          81, 151, 152, -1,
          81, 83, 151, -1,
          79, 152, 153, -1,
          79, 153, 154, -1,
          79, 81, 152, -1,
          77, 79, 154, -1,
          75, 154, 155, -1,
          75, 155, 156, -1,
          75, 77, 154, -1,
          73, 156, 157, -1,
          73, 75, 156, -1,
          71, 73, 157, -1,
          69, 157, 158, -1,
          69, 71, 157, -1,
          67, 158, 159, -1,
          67, 159, 160, -1,
          67, 69, 158, -1,
          65, 67, 160, -1,
          63, 160, 161, -1,
          63, 161, 162, -1,
          63, 65, 160, -1,
          61, 162, 163, -1,
          61, 63, 162, -1,
          59, 61, 163, -1,
          57, 163, 164, -1,
          57, 59, 163, -1,
          55, 164, 165, -1,
          55, 165, 166, -1,
          55, 57, 164, -1,
          53, 55, 166, -1,
          51, 166, 167, -1,
          51, 53, 166, -1,
          49, 167, 168, -1,
          49, 168, 169, -1,
          49, 51, 167, -1,
          47, 169, 170, -1,
          47, 49, 169, -1,
          45, 47, 170, -1,
          43, 170, 171, -1,
          43, 45, 170, -1,
          41, 43, 171, -1,
          41, 171, 172, -1,
          41, 172, 173, -1,
          39, 41, 173, -1,
          37, 39, 173, -1,
          37, 173, 174, -1,
          37, 174, 175, -1,
          35, 37, 175, -1,
          35, 175, 176, -1,
          33, 35, 176, -1,
          31, 33, 176, -1,
          31, 176, 177, -1,
          29, 31, 177, -1,
          29, 177, 178, -1,
          27, 29, 178, -1,
          27, 178, 179, -1,
          27, 179, 180, -1,
          25, 27, 180, -1,
          23, 25, 180, -1,
          23, 180, 181, -1,
          23, 181, 182, -1,
          21, 23, 182, -1,
          19, 21, 182, -1,
          19, 182, 183, -1,
          17, 19, 183, -1,
          17, 183, 184, -1,
          17, 184, 185, -1,
          15, 17, 185, -1,
          13, 185, 186, -1,
          13, 15, 185, -1,
          11, 186, 187, -1,
          11, 13, 186, -1,
          9, 187, 188, -1,
          9, 11, 187, -1,
          7, 188, 189, -1,
          7, 9, 188, -1,
          5, 189, 190, -1,
          5, 7, 189, -1,
          3, 190, 191, -1,
          3, 5, 190, -1,
          1, 191, 192, -1,
          1, 3, 191, -1,
          130, 193, 194, -1,
          130, 129, 193, -1,
          131, 194, 195, -1,
          131, 130, 194, -1,
          132, 195, 196, -1,
          132, 131, 195, -1,
          133, 196, 197, -1,
          133, 132, 196, -1,
          134, 197, 198, -1,
          134, 133, 197, -1,
          135, 198, 199, -1,
          135, 134, 198, -1,
          136, 199, 200, -1,
          136, 135, 199, -1,
          137, 200, 201, -1,
          137, 136, 200, -1,
          202, 137, 201, -1,
          138, 137, 202, -1,
          203, 138, 202, -1,
          139, 138, 203, -1,
          140, 203, 204, -1,
          140, 139, 203, -1,
          205, 140, 204, -1,
          141, 140, 205, -1,
          206, 141, 205, -1,
          142, 141, 206, -1,
          143, 206, 207, -1,
          143, 142, 206, -1,
          144, 207, 208, -1,
          144, 143, 207, -1,
          145, 208, 209, -1,
          145, 144, 208, -1,
          146, 209, 210, -1,
          146, 145, 209, -1,
          147, 210, 211, -1,
          147, 146, 210, -1,
          148, 147, 211, -1,
          148, 211, 212, -1,
          149, 148, 212, -1,
          149, 212, 213, -1,
          150, 149, 213, -1,
          150, 213, 214, -1,
          151, 150, 214, -1,
          151, 214, 215, -1,
          216, 151, 215, -1,
          152, 151, 216, -1,
          153, 216, 217, -1,
          153, 152, 216, -1,
          154, 217, 218, -1,
          154, 153, 217, -1,
          219, 154, 218, -1,
          155, 154, 219, -1,
          156, 219, 220, -1,
          156, 155, 219, -1,
          157, 220, 221, -1,
          157, 156, 220, -1,
          158, 221, 222, -1,
          158, 157, 221, -1,
          159, 222, 223, -1,
          159, 158, 222, -1,
          160, 223, 224, -1,
          160, 159, 223, -1,
          161, 224, 225, -1,
          161, 160, 224, -1,
          162, 225, 226, -1,
          162, 161, 225, -1,
          163, 226, 227, -1,
          163, 162, 226, -1,
          164, 227, 228, -1,
          164, 163, 227, -1,
          165, 228, 229, -1,
          165, 164, 228, -1,
          166, 229, 230, -1,
          166, 165, 229, -1,
          167, 230, 231, -1,
          167, 166, 230, -1,
          232, 167, 231, -1,
          168, 167, 232, -1,
          169, 232, 233, -1,
          169, 168, 232, -1,
          170, 233, 234, -1,
          170, 169, 233, -1,
          235, 170, 234, -1,
          171, 170, 235, -1,
          172, 171, 235, -1,
          172, 235, 236, -1,
          173, 172, 236, -1,
          173, 236, 237, -1,
          174, 173, 237, -1,
          174, 237, 238, -1,
          239, 174, 238, -1,
          175, 174, 239, -1,
          176, 175, 239, -1,
          176, 239, 240, -1,
          241, 176, 240, -1,
          177, 176, 241, -1,
          178, 177, 241, -1,
          178, 241, 242, -1,
          243, 178, 242, -1,
          179, 178, 243, -1,
          244, 179, 243, -1,
          180, 179, 244, -1,
          181, 180, 244, -1,
          181, 244, 245, -1,
          182, 181, 245, -1,
          182, 245, 246, -1,
          183, 182, 246, -1,
          183, 246, 247, -1,
          184, 183, 247, -1,
          184, 247, 248, -1,
          185, 184, 248, -1,
          185, 248, 249, -1,
          186, 185, 249, -1,
          186, 249, 250, -1,
          187, 250, 251, -1,
          187, 186, 250, -1,
          188, 251, 252, -1,
          188, 187, 251, -1,
          189, 252, 253, -1,
          189, 188, 252, -1,
          190, 253, 254, -1,
          190, 189, 253, -1,
          191, 254, 255, -1,
          191, 190, 254, -1,
          192, 255, 256, -1,
          192, 191, 255, -1,
          64, 257, 66, -1,
          258, 259, 260, -1,
          98, 261, 100, -1,
          96, 261, 98, -1,
          94, 261, 96, -1,
          106, 262, 108, -1,
          104, 262, 106, -1,
          102, 262, 104, -1,
          94, 263, 261, -1,
          92, 263, 94, -1,
          90, 263, 92, -1,
          88, 263, 90, -1,
          114, 264, 116, -1,
          112, 264, 114, -1,
          100, 265, 102, -1,
          261, 265, 100, -1,
          102, 265, 262, -1,
          86, 266, 88, -1,
          84, 266, 86, -1,
          82, 266, 84, -1,
          88, 266, 263, -1,
          110, 267, 112, -1,
          108, 267, 110, -1,
          262, 267, 108, -1,
          112, 267, 264, -1,
          261, 268, 265, -1,
          263, 268, 261, -1,
          80, 269, 82, -1,
          78, 269, 80, -1,
          76, 269, 78, -1,
          82, 269, 266, -1,
          120, 270, 122, -1,
          118, 270, 120, -1,
          116, 270, 118, -1,
          264, 270, 116, -1,
          265, 271, 262, -1,
          262, 271, 267, -1,
          263, 272, 268, -1,
          266, 272, 263, -1,
          74, 273, 76, -1,
          72, 273, 74, -1,
          76, 273, 269, -1,
          264, 274, 270, -1,
          267, 274, 264, -1,
          265, 275, 271, -1,
          268, 275, 265, -1,
          266, 276, 272, -1,
          269, 276, 266, -1,
          124, 277, 126, -1,
          122, 277, 124, -1,
          270, 277, 122, -1,
          271, 278, 267, -1,
          267, 278, 274, -1,
          272, 279, 268, -1,
          268, 279, 275, -1,
          273, 280, 269, -1,
          269, 280, 276, -1,
          270, 281, 277, -1,
          274, 281, 270, -1,
          271, 282, 278, -1,
          275, 282, 271, -1,
          276, 283, 272, -1,
          272, 283, 279, -1,
          273, 284, 280, -1,
          70, 284, 72, -1,
          68, 284, 70, -1,
          66, 284, 68, -1,
          72, 284, 273, -1,
          285, 284, 257, -1,
          257, 284, 66, -1,
          126, 286, 128, -1,
          128, 286, 287, -1,
          277, 286, 126, -1,
          278, 288, 274, -1,
          274, 288, 281, -1,
          275, 289, 282, -1,
          279, 289, 275, -1,
          276, 290, 283, -1,
          280, 290, 276, -1,
          281, 291, 277, -1,
          277, 291, 286, -1,
          278, 292, 288, -1,
          282, 292, 278, -1,
          279, 293, 289, -1,
          283, 293, 279, -1,
          284, 294, 280, -1,
          280, 294, 290, -1,
          285, 294, 284, -1,
          295, 294, 296, -1,
          296, 294, 285, -1,
          286, 297, 287, -1,
          298, 297, 299, -1,
          287, 297, 298, -1,
          281, 300, 291, -1,
          288, 300, 281, -1,
          289, 301, 282, -1,
          282, 301, 292, -1,
          283, 302, 293, -1,
          290, 302, 283, -1,
          286, 303, 297, -1,
          291, 303, 286, -1,
          292, 304, 288, -1,
          288, 304, 300, -1,
          289, 305, 301, -1,
          293, 305, 289, -1,
          295, 306, 294, -1,
          290, 306, 302, -1,
          294, 306, 290, -1,
          307, 306, 295, -1,
          308, 309, 310, -1,
          311, 309, 308, -1,
          299, 309, 311, -1,
          297, 309, 299, -1,
          300, 312, 291, -1,
          291, 312, 303, -1,
          301, 313, 292, -1,
          292, 313, 304, -1,
          302, 314, 293, -1,
          293, 314, 305, -1,
          297, 315, 309, -1,
          303, 315, 297, -1,
          304, 316, 300, -1,
          300, 316, 312, -1,
          305, 317, 301, -1,
          301, 317, 313, -1,
          318, 319, 307, -1,
          302, 319, 314, -1,
          306, 319, 302, -1,
          307, 319, 306, -1,
          320, 321, 322, -1,
          310, 321, 320, -1,
          309, 321, 310, -1,
          303, 323, 315, -1,
          312, 323, 303, -1,
          304, 324, 316, -1,
          313, 324, 304, -1,
          314, 325, 305, -1,
          305, 325, 317, -1,
          309, 326, 321, -1,
          315, 326, 309, -1,
          312, 327, 323, -1,
          316, 327, 312, -1,
          317, 328, 313, -1,
          313, 328, 324, -1,
          319, 329, 314, -1,
          314, 329, 325, -1,
          330, 329, 331, -1,
          331, 329, 318, -1,
          318, 329, 319, -1,
          323, 332, 315, -1,
          315, 332, 326, -1,
          316, 333, 327, -1,
          324, 333, 316, -1,
          325, 334, 317, -1,
          317, 334, 328, -1,
          321, 335, 322, -1,
          326, 335, 321, -1,
          336, 335, 337, -1,
          322, 335, 336, -1,
          323, 338, 332, -1,
          327, 338, 323, -1,
          328, 339, 324, -1,
          324, 339, 333, -1,
          329, 340, 325, -1,
          330, 340, 329, -1,
          341, 340, 330, -1,
          325, 340, 334, -1,
          326, 342, 335, -1,
          332, 342, 326, -1,
          333, 343, 327, -1,
          327, 343, 338, -1,
          334, 344, 328, -1,
          328, 344, 339, -1,
          335, 345, 337, -1,
          346, 345, 347, -1,
          348, 345, 346, -1,
          337, 345, 348, -1,
          338, 349, 332, -1,
          332, 349, 342, -1,
          339, 350, 333, -1,
          333, 350, 343, -1,
          334, 351, 344, -1,
          340, 351, 334, -1,
          341, 351, 340, -1,
          352, 351, 353, -1,
          353, 351, 341, -1,
          342, 354, 335, -1,
          335, 354, 345, -1,
          338, 355, 349, -1,
          343, 355, 338, -1,
          344, 356, 339, -1,
          339, 356, 350, -1,
          342, 357, 354, -1,
          349, 357, 342, -1,
          343, 358, 355, -1,
          350, 358, 343, -1,
          351, 359, 344, -1,
          344, 359, 356, -1,
          360, 359, 352, -1,
          352, 359, 351, -1,
          347, 361, 362, -1,
          345, 361, 347, -1,
          354, 361, 345, -1,
          355, 363, 349, -1,
          349, 363, 357, -1,
          356, 364, 350, -1,
          350, 364, 358, -1,
          354, 365, 361, -1,
          357, 365, 354, -1,
          358, 366, 355, -1,
          355, 366, 363, -1,
          359, 367, 356, -1,
          368, 367, 360, -1,
          356, 367, 364, -1,
          360, 367, 359, -1,
          369, 370, 371, -1,
          372, 370, 369, -1,
          362, 370, 372, -1,
          361, 370, 362, -1,
          357, 373, 365, -1,
          363, 373, 357, -1,
          358, 374, 366, -1,
          364, 374, 358, -1,
          365, 375, 361, -1,
          361, 375, 370, -1,
          363, 376, 373, -1,
          366, 376, 363, -1,
          364, 377, 374, -1,
          367, 377, 364, -1,
          378, 377, 368, -1,
          379, 377, 378, -1,
          368, 377, 367, -1,
          373, 380, 365, -1,
          365, 380, 375, -1,
          374, 381, 366, -1,
          366, 381, 376, -1,
          375, 382, 370, -1,
          383, 382, 384, -1,
          385, 382, 383, -1,
          371, 382, 385, -1,
          370, 382, 371, -1,
          373, 386, 380, -1,
          376, 386, 373, -1,
          377, 387, 374, -1,
          379, 387, 377, -1,
          388, 387, 379, -1,
          374, 387, 381, -1,
          380, 389, 375, -1,
          375, 389, 382, -1,
          381, 390, 376, -1,
          376, 390, 386, -1,
          386, 391, 380, -1,
          380, 391, 389, -1,
          387, 392, 381, -1,
          388, 392, 387, -1,
          381, 392, 390, -1,
          393, 392, 388, -1,
          394, 392, 393, -1,
          382, 395, 384, -1,
          396, 395, 397, -1,
          398, 395, 396, -1,
          384, 395, 398, -1,
          389, 395, 382, -1,
          390, 399, 386, -1,
          386, 399, 391, -1,
          391, 400, 389, -1,
          389, 400, 395, -1,
          390, 401, 399, -1,
          392, 401, 390, -1,
          394, 401, 392, -1,
          402, 401, 394, -1,
          399, 403, 391, -1,
          391, 403, 400, -1,
          404, 405, 406, -1,
          400, 405, 395, -1,
          407, 405, 404, -1,
          397, 405, 407, -1,
          395, 405, 397, -1,
          399, 408, 403, -1,
          401, 408, 399, -1,
          402, 408, 401, -1,
          409, 408, 402, -1,
          400, 410, 405, -1,
          403, 410, 400, -1,
          411, 412, 409, -1,
          408, 412, 403, -1,
          413, 412, 411, -1,
          409, 412, 408, -1,
          403, 412, 410, -1,
          414, 415, 416, -1,
          406, 415, 414, -1,
          405, 415, 406, -1,
          410, 415, 405, -1,
          417, 418, 260, -1,
          419, 418, 417, -1,
          416, 418, 419, -1,
          415, 418, 416, -1,
          260, 418, 258, -1,
          410, 418, 415, -1,
          258, 418, 413, -1,
          412, 418, 410, -1,
          413, 418, 412, -1,
          62, 257, 64, -1,
          258, 420, 259, -1,
          60, 421, 62, -1,
          58, 421, 60, -1,
          56, 421, 58, -1,
          62, 421, 257, -1,
          421, 422, 257, -1,
          285, 422, 296, -1,
          257, 422, 285, -1,
          421, 423, 422, -1,
          54, 423, 56, -1,
          52, 423, 54, -1,
          50, 423, 52, -1,
          56, 423, 421, -1,
          422, 424, 296, -1,
          296, 424, 295, -1,
          423, 425, 422, -1,
          422, 425, 424, -1,
          424, 426, 295, -1,
          307, 426, 318, -1,
          295, 426, 307, -1,
          48, 427, 50, -1,
          46, 427, 48, -1,
          423, 427, 425, -1,
          50, 427, 423, -1,
          424, 428, 426, -1,
          425, 428, 424, -1,
          46, 429, 427, -1,
          44, 429, 46, -1,
          42, 429, 44, -1,
          318, 430, 331, -1,
          426, 430, 318, -1,
          427, 431, 425, -1,
          425, 431, 428, -1,
          428, 432, 426, -1,
          426, 432, 430, -1,
          429, 433, 427, -1,
          427, 433, 431, -1,
          40, 433, 42, -1,
          42, 433, 429, -1,
          430, 434, 331, -1,
          331, 434, 330, -1,
          431, 435, 428, -1,
          428, 435, 432, -1,
          40, 436, 433, -1,
          38, 436, 40, -1,
          36, 436, 38, -1,
          432, 437, 430, -1,
          430, 437, 434, -1,
          431, 438, 435, -1,
          433, 438, 431, -1,
          434, 439, 330, -1,
          341, 439, 353, -1,
          330, 439, 341, -1,
          432, 440, 437, -1,
          435, 440, 432, -1,
          433, 441, 438, -1,
          36, 441, 436, -1,
          34, 441, 36, -1,
          436, 441, 433, -1,
          437, 442, 434, -1,
          434, 442, 439, -1,
          438, 443, 435, -1,
          435, 443, 440, -1,
          353, 444, 352, -1,
          439, 444, 353, -1,
          440, 445, 437, -1,
          437, 445, 442, -1,
          441, 446, 438, -1,
          438, 446, 443, -1,
          439, 447, 444, -1,
          442, 447, 439, -1,
          443, 448, 440, -1,
          440, 448, 445, -1,
          34, 449, 441, -1,
          441, 449, 446, -1,
          32, 449, 34, -1,
          30, 449, 32, -1,
          28, 449, 30, -1,
          444, 450, 352, -1,
          352, 450, 360, -1,
          360, 450, 368, -1,
          442, 451, 447, -1,
          445, 451, 442, -1,
          446, 452, 443, -1,
          443, 452, 448, -1,
          444, 453, 450, -1,
          447, 453, 444, -1,
          448, 454, 445, -1,
          445, 454, 451, -1,
          446, 455, 452, -1,
          449, 455, 446, -1,
          450, 456, 368, -1,
          368, 456, 378, -1,
          451, 457, 447, -1,
          447, 457, 453, -1,
          448, 458, 454, -1,
          452, 458, 448, -1,
          26, 459, 28, -1,
          24, 459, 26, -1,
          22, 459, 24, -1,
          449, 459, 455, -1,
          28, 459, 449, -1,
          450, 460, 456, -1,
          453, 460, 450, -1,
          454, 461, 451, -1,
          451, 461, 457, -1,
          455, 462, 452, -1,
          452, 462, 458, -1,
          456, 463, 378, -1,
          378, 463, 379, -1,
          379, 463, 388, -1,
          457, 464, 453, -1,
          453, 464, 460, -1,
          454, 465, 461, -1,
          458, 465, 454, -1,
          20, 466, 22, -1,
          18, 466, 20, -1,
          22, 466, 459, -1,
          459, 466, 455, -1,
          455, 466, 462, -1,
          456, 467, 463, -1,
          460, 467, 456, -1,
          461, 468, 457, -1,
          457, 468, 464, -1,
          458, 469, 465, -1,
          462, 469, 458, -1,
          388, 470, 393, -1,
          463, 470, 388, -1,
          464, 471, 460, -1,
          460, 471, 467, -1,
          461, 472, 468, -1,
          465, 472, 461, -1,
          466, 473, 462, -1,
          462, 473, 469, -1,
          467, 474, 463, -1,
          463, 474, 470, -1,
          464, 475, 471, -1,
          468, 475, 464, -1,
          465, 476, 472, -1,
          469, 476, 465, -1,
          466, 477, 473, -1,
          18, 477, 466, -1,
          16, 477, 18, -1,
          14, 477, 16, -1,
          470, 478, 393, -1,
          393, 478, 394, -1,
          467, 479, 474, -1,
          471, 479, 467, -1,
          472, 480, 468, -1,
          468, 480, 475, -1,
          469, 481, 476, -1,
          473, 481, 469, -1,
          474, 482, 470, -1,
          470, 482, 478, -1,
          475, 483, 471, -1,
          471, 483, 479, -1,
          472, 484, 480, -1,
          476, 484, 472, -1,
          473, 485, 481, -1,
          14, 485, 477, -1,
          12, 485, 14, -1,
          10, 485, 12, -1,
          477, 485, 473, -1,
          478, 486, 394, -1,
          394, 486, 402, -1,
          402, 486, 409, -1,
          479, 487, 474, -1,
          474, 487, 482, -1,
          480, 488, 475, -1,
          475, 488, 483, -1,
          481, 489, 476, -1,
          476, 489, 484, -1,
          478, 490, 486, -1,
          482, 490, 478, -1,
          483, 491, 479, -1,
          479, 491, 487, -1,
          480, 492, 488, -1,
          484, 492, 480, -1,
          485, 493, 481, -1,
          481, 493, 489, -1,
          8, 493, 10, -1,
          6, 493, 8, -1,
          4, 493, 6, -1,
          10, 493, 485, -1,
          486, 494, 409, -1,
          409, 494, 411, -1,
          487, 495, 482, -1,
          482, 495, 490, -1,
          483, 496, 491, -1,
          488, 496, 483, -1,
          489, 497, 484, -1,
          484, 497, 492, -1,
          490, 498, 486, -1,
          486, 498, 494, -1,
          491, 499, 487, -1,
          487, 499, 495, -1,
          492, 500, 488, -1,
          488, 500, 496, -1,
          0, 501, 4, -1,
          2, 501, 0, -1,
          493, 501, 489, -1,
          489, 501, 497, -1,
          4, 501, 493, -1,
          411, 502, 413, -1,
          413, 502, 258, -1,
          494, 502, 411, -1,
          490, 503, 498, -1,
          495, 503, 490, -1,
          491, 504, 499, -1,
          496, 504, 491, -1,
          492, 505, 500, -1,
          497, 505, 492, -1,
          498, 506, 494, -1,
          494, 506, 502, -1,
          499, 507, 495, -1,
          495, 507, 503, -1,
          500, 508, 496, -1,
          496, 508, 504, -1,
          509, 510, 2, -1,
          511, 510, 509, -1,
          501, 510, 497, -1,
          497, 510, 505, -1,
          2, 510, 501, -1,
          258, 512, 420, -1,
          502, 512, 258, -1,
          513, 512, 514, -1,
          515, 512, 513, -1,
          420, 512, 515, -1,
          498, 516, 506, -1,
          503, 516, 498, -1,
          499, 517, 507, -1,
          504, 517, 499, -1,
          505, 518, 500, -1,
          500, 518, 508, -1,
          519, 520, 521, -1,
          522, 520, 519, -1,
          506, 520, 502, -1,
          514, 520, 522, -1,
          512, 520, 514, -1,
          502, 520, 512, -1,
          507, 523, 503, -1,
          503, 523, 516, -1,
          508, 524, 504, -1,
          504, 524, 517, -1,
          525, 526, 511, -1,
          527, 526, 525, -1,
          528, 526, 527, -1,
          510, 526, 505, -1,
          505, 526, 518, -1,
          511, 526, 510, -1,
          520, 529, 521, -1,
          516, 529, 506, -1,
          530, 529, 531, -1,
          506, 529, 520, -1,
          521, 529, 530, -1,
          517, 532, 507, -1,
          507, 532, 523, -1,
          508, 533, 524, -1,
          518, 533, 508, -1,
          534, 535, 536, -1,
          516, 535, 529, -1,
          523, 535, 516, -1,
          524, 537, 517, -1,
          517, 537, 532, -1,
          528, 538, 526, -1,
          539, 538, 528, -1,
          540, 538, 539, -1,
          526, 538, 518, -1,
          518, 538, 533, -1,
          532, 541, 523, -1,
          542, 541, 543, -1,
          523, 541, 535, -1,
          544, 545, 546, -1,
          547, 545, 544, -1,
          533, 545, 524, -1,
          524, 545, 537, -1,
          534, 548, 535, -1,
          549, 548, 534, -1,
          531, 548, 549, -1,
          529, 548, 531, -1,
          535, 548, 529, -1,
          550, 551, 552, -1,
          553, 551, 550, -1,
          543, 551, 553, -1,
          541, 551, 543, -1,
          537, 551, 532, -1,
          532, 551, 541, -1,
          554, 555, 540, -1,
          546, 555, 554, -1,
          545, 555, 546, -1,
          538, 555, 533, -1,
          540, 555, 538, -1,
          533, 555, 545, -1,
          556, 557, 542, -1,
          536, 557, 556, -1,
          535, 557, 536, -1,
          542, 557, 541, -1,
          541, 557, 535, -1,
          558, 559, 547, -1,
          560, 559, 558, -1,
          552, 559, 560, -1,
          551, 559, 552, -1,
          547, 559, 545, -1,
          545, 559, 537, -1,
          537, 559, 551, -1,
          561, 562, 563, -1,
          564, 565, 566, -1,
          566, 565, 567, -1,
          565, 568, 569, -1,
          565, 570, 568, -1,
          571, 572, 573, -1,
          573, 572, 574, -1,
          574, 572, 575, -1,
          563, 576, 564, -1,
          562, 576, 563, -1,
          564, 576, 565, -1,
          565, 576, 570, -1,
          577, 578, 579, -1,
          579, 578, 572, -1,
          572, 578, 575, -1,
          576, 580, 581, -1,
          581, 580, 582, -1,
          580, 583, 584, -1,
          562, 585, 576, -1,
          576, 585, 580, -1,
          580, 585, 583, -1,
          586, 256, 587, -1,
          587, 256, 588, -1,
          588, 256, 589, -1,
          589, 256, 578, -1,
          575, 256, 590, -1,
          590, 256, 562, -1,
          578, 256, 575, -1,
          591, 592, 593, -1,
          593, 592, 594, -1,
          254, 253, 255, -1,
          255, 253, 256, -1,
          252, 251, 253, -1,
          251, 250, 253, -1,
          591, 595, 592, -1,
          585, 595, 591, -1,
          592, 595, 596, -1,
          596, 595, 597, -1,
          597, 595, 598, -1,
          598, 595, 599, -1,
          595, 600, 601, -1,
          247, 246, 248, -1,
          246, 245, 248, -1,
          595, 602, 600, -1,
          600, 602, 603, -1,
          603, 602, 604, -1,
          585, 602, 595, -1,
          585, 605, 602, -1,
          242, 241, 243, -1,
          243, 241, 244, -1,
          244, 241, 245, -1,
          605, 606, 607, -1,
          241, 240, 245, -1,
          605, 608, 606, -1,
          239, 238, 240, -1,
          245, 238, 248, -1,
          240, 238, 245, -1,
          608, 609, 610, -1,
          605, 611, 608, -1,
          608, 611, 609, -1,
          237, 236, 238, -1,
          248, 236, 249, -1,
          249, 236, 250, -1,
          238, 236, 248, -1,
          605, 612, 611, -1,
          605, 613, 612, -1,
          585, 614, 605, -1,
          613, 614, 615, -1,
          605, 614, 613, -1,
          233, 232, 234, -1,
          234, 232, 235, -1,
          231, 230, 232, -1,
          232, 230, 235, -1,
          616, 617, 618, -1,
          618, 617, 619, -1,
          619, 617, 620, -1,
          614, 621, 616, -1,
          616, 621, 617, -1,
          614, 622, 621, -1,
          235, 225, 236, -1,
          230, 225, 235, -1,
          226, 225, 227, -1,
          227, 225, 228, -1,
          228, 225, 229, -1,
          229, 225, 230, -1,
          622, 195, 193, -1,
          193, 195, 194, -1,
          585, 195, 614, -1,
          253, 195, 256, -1,
          256, 195, 562, -1,
          562, 195, 585, -1,
          614, 195, 622, -1,
          223, 222, 224, -1,
          224, 222, 225, -1,
          253, 197, 195, -1,
          195, 197, 196, -1,
          253, 200, 197, -1,
          197, 200, 198, -1,
          198, 200, 199, -1,
          222, 217, 225, -1,
          218, 217, 219, -1,
          219, 217, 220, -1,
          220, 217, 221, -1,
          221, 217, 222, -1,
          216, 215, 217, -1,
          200, 203, 201, -1,
          201, 203, 202, -1,
          215, 214, 217, -1,
          213, 212, 214, -1,
          203, 206, 204, -1,
          204, 206, 205, -1,
          214, 211, 217, -1,
          212, 211, 214, -1,
          203, 207, 206, -1,
          200, 208, 203, -1,
          203, 208, 207, -1,
          225, 209, 236, -1,
          250, 209, 253, -1,
          253, 209, 200, -1,
          217, 209, 225, -1,
          211, 209, 217, -1,
          236, 209, 250, -1,
          200, 209, 208, -1,
          210, 209, 211, -1,
          623, 192, 256, -1,
          623, 256, 586, -1,
          624, 586, 587, -1,
          624, 623, 586, -1,
          625, 587, 588, -1,
          625, 624, 587, -1,
          626, 588, 589, -1,
          626, 625, 588, -1,
          627, 589, 578, -1,
          627, 626, 589, -1,
          628, 578, 577, -1,
          628, 627, 578, -1,
          629, 577, 579, -1,
          629, 628, 577, -1,
          630, 579, 572, -1,
          630, 629, 579, -1,
          631, 572, 571, -1,
          631, 630, 572, -1,
          632, 571, 573, -1,
          632, 631, 571, -1,
          633, 573, 574, -1,
          633, 632, 573, -1,
          575, 633, 574, -1,
          634, 633, 575, -1,
          635, 575, 590, -1,
          635, 634, 575, -1,
          562, 635, 590, -1,
          636, 635, 562, -1,
          637, 562, 561, -1,
          637, 636, 562, -1,
          563, 637, 561, -1,
          638, 637, 563, -1,
          639, 563, 564, -1,
          639, 638, 563, -1,
          566, 639, 564, -1,
          640, 639, 566, -1,
          641, 640, 566, -1,
          641, 566, 567, -1,
          565, 641, 567, -1,
          642, 641, 565, -1,
          569, 642, 565, -1,
          643, 642, 569, -1,
          644, 643, 569, -1,
          644, 569, 568, -1,
          570, 644, 568, -1,
          645, 644, 570, -1,
          646, 570, 576, -1,
          646, 645, 570, -1,
          647, 576, 581, -1,
          647, 646, 576, -1,
          648, 581, 582, -1,
          648, 647, 581, -1,
          649, 582, 580, -1,
          649, 648, 582, -1,
          650, 580, 584, -1,
          650, 649, 580, -1,
          651, 584, 583, -1,
          651, 650, 584, -1,
          652, 583, 585, -1,
          652, 651, 583, -1,
          653, 585, 591, -1,
          653, 652, 585, -1,
          654, 591, 593, -1,
          654, 653, 591, -1,
          655, 593, 594, -1,
          655, 654, 593, -1,
          656, 594, 592, -1,
          656, 655, 594, -1,
          657, 592, 596, -1,
          657, 656, 592, -1,
          658, 596, 597, -1,
          658, 657, 596, -1,
          659, 597, 598, -1,
          659, 658, 597, -1,
          660, 598, 599, -1,
          660, 659, 598, -1,
          595, 660, 599, -1,
          661, 660, 595, -1,
          662, 595, 601, -1,
          662, 661, 595, -1,
          663, 601, 600, -1,
          663, 662, 601, -1,
          664, 600, 603, -1,
          664, 663, 600, -1,
          665, 664, 603, -1,
          665, 603, 604, -1,
          666, 604, 602, -1,
          666, 665, 604, -1,
          605, 666, 602, -1,
          667, 666, 605, -1,
          607, 667, 605, -1,
          668, 667, 607, -1,
          669, 668, 607, -1,
          669, 607, 606, -1,
          608, 669, 606, -1,
          670, 669, 608, -1,
          671, 670, 608, -1,
          671, 608, 610, -1,
          609, 671, 610, -1,
          672, 671, 609, -1,
          673, 672, 609, -1,
          673, 609, 611, -1,
          612, 673, 611, -1,
          674, 673, 612, -1,
          675, 674, 612, -1,
          675, 612, 613, -1,
          676, 675, 613, -1,
          676, 613, 615, -1,
          677, 676, 615, -1,
          677, 615, 614, -1,
          678, 677, 614, -1,
          678, 614, 616, -1,
          679, 678, 616, -1,
          679, 616, 618, -1,
          680, 618, 619, -1,
          680, 679, 618, -1,
          681, 619, 620, -1,
          681, 680, 619, -1,
          682, 620, 617, -1,
          682, 681, 620, -1,
          683, 617, 621, -1,
          683, 682, 617, -1,
          684, 621, 622, -1,
          684, 683, 621, -1,
          129, 622, 193, -1,
          129, 684, 622, -1,
          685, 1, 192, -1,
          685, 192, 623, -1,
          686, 623, 624, -1,
          686, 685, 623, -1,
          687, 624, 625, -1,
          687, 686, 624, -1,
          688, 625, 626, -1,
          688, 687, 625, -1,
          689, 626, 627, -1,
          689, 688, 626, -1,
          690, 627, 628, -1,
          690, 689, 627, -1,
          691, 628, 629, -1,
          691, 690, 628, -1,
          692, 629, 630, -1,
          692, 630, 631, -1,
          692, 691, 629, -1,
          693, 692, 631, -1,
          694, 631, 632, -1,
          694, 693, 631, -1,
          695, 632, 633, -1,
          695, 633, 634, -1,
          695, 694, 632, -1,
          696, 695, 634, -1,
          697, 634, 635, -1,
          697, 696, 634, -1,
          698, 635, 636, -1,
          698, 636, 637, -1,
          698, 697, 635, -1,
          699, 698, 637, -1,
          700, 637, 638, -1,
          700, 699, 637, -1,
          701, 638, 639, -1,
          701, 639, 640, -1,
          701, 700, 638, -1,
          702, 701, 640, -1,
          703, 702, 640, -1,
          703, 640, 641, -1,
          704, 703, 641, -1,
          704, 641, 642, -1,
          705, 704, 642, -1,
          705, 642, 643, -1,
          706, 705, 643, -1,
          706, 643, 644, -1,
          706, 644, 645, -1,
          707, 706, 645, -1,
          708, 645, 646, -1,
          708, 707, 645, -1,
          709, 646, 647, -1,
          709, 708, 646, -1,
          710, 647, 648, -1,
          710, 709, 647, -1,
          711, 648, 649, -1,
          711, 649, 650, -1,
          711, 710, 648, -1,
          712, 711, 650, -1,
          713, 650, 651, -1,
          713, 712, 650, -1,
          714, 651, 652, -1,
          714, 652, 653, -1,
          714, 713, 651, -1,
          715, 714, 653, -1,
          716, 653, 654, -1,
          716, 654, 655, -1,
          716, 715, 653, -1,
          717, 716, 655, -1,
          718, 655, 656, -1,
          718, 656, 657, -1,
          718, 717, 655, -1,
          719, 718, 657, -1,
          720, 657, 658, -1,
          720, 719, 657, -1,
          721, 658, 659, -1,
          721, 720, 658, -1,
          722, 659, 660, -1,
          722, 721, 659, -1,
          723, 660, 661, -1,
          723, 661, 662, -1,
          723, 722, 660, -1,
          724, 723, 662, -1,
          725, 662, 663, -1,
          725, 724, 662, -1,
          726, 663, 664, -1,
          726, 664, 665, -1,
          726, 725, 663, -1,
          727, 726, 665, -1,
          728, 727, 665, -1,
          728, 665, 666, -1,
          728, 666, 667, -1,
          729, 728, 667, -1,
          729, 667, 668, -1,
          730, 729, 668, -1,
          731, 730, 668, -1,
          731, 668, 669, -1,
          732, 731, 669, -1,
          732, 669, 670, -1,
          733, 732, 670, -1,
          733, 670, 671, -1,
          734, 733, 671, -1,
          734, 671, 672, -1,
          735, 734, 672, -1,
          735, 672, 673, -1,
          736, 735, 673, -1,
          736, 673, 674, -1,
          737, 736, 674, -1,
          737, 674, 675, -1,
          737, 675, 676, -1,
          738, 737, 676, -1,
          739, 738, 676, -1,
          739, 676, 677, -1,
          740, 739, 677, -1,
          740, 677, 678, -1,
          740, 678, 679, -1,
          741, 740, 679, -1,
          742, 741, 679, -1,
          742, 679, 680, -1,
          743, 680, 681, -1,
          743, 742, 680, -1,
          744, 681, 682, -1,
          744, 743, 681, -1,
          745, 682, 683, -1,
          745, 744, 682, -1,
          746, 683, 684, -1,
          746, 745, 683, -1,
          127, 684, 129, -1,
          127, 746, 684, -1,
          287, 127, 128, -1,
          746, 127, 287, -1,
          298, 746, 287, -1,
          745, 746, 298, -1,
          299, 745, 298, -1,
          744, 745, 299, -1,
          311, 744, 299, -1,
          743, 744, 311, -1,
          308, 743, 311, -1,
          742, 743, 308, -1,
          310, 742, 308, -1,
          741, 742, 310, -1,
          320, 741, 310, -1,
          740, 741, 320, -1,
          322, 740, 320, -1,
          739, 740, 322, -1,
          336, 739, 322, -1,
          738, 739, 336, -1,
          337, 738, 336, -1,
          737, 738, 337, -1,
          348, 737, 337, -1,
          736, 737, 348, -1,
          346, 736, 348, -1,
          735, 736, 346, -1,
          347, 735, 346, -1,
          734, 735, 347, -1,
          362, 734, 347, -1,
          733, 734, 362, -1,
          372, 733, 362, -1,
          732, 733, 372, -1,
          369, 732, 372, -1,
          731, 732, 369, -1,
          371, 731, 369, -1,
          730, 731, 371, -1,
          385, 730, 371, -1,
          729, 730, 385, -1,
          383, 729, 385, -1,
          728, 729, 383, -1,
          384, 728, 383, -1,
          727, 728, 384, -1,
          398, 727, 384, -1,
          726, 727, 398, -1,
          396, 726, 398, -1,
          725, 726, 396, -1,
          397, 725, 396, -1,
          724, 397, 407, -1,
          724, 725, 397, -1,
          723, 407, 404, -1,
          723, 724, 407, -1,
          722, 404, 406, -1,
          722, 723, 404, -1,
          721, 406, 414, -1,
          721, 722, 406, -1,
          720, 414, 416, -1,
          720, 721, 414, -1,
          719, 416, 419, -1,
          719, 720, 416, -1,
          718, 419, 417, -1,
          718, 719, 419, -1,
          717, 417, 260, -1,
          717, 718, 417, -1,
          716, 260, 259, -1,
          716, 717, 260, -1,
          715, 716, 259, -1,
          715, 259, 420, -1,
          714, 420, 515, -1,
          714, 715, 420, -1,
          713, 515, 513, -1,
          713, 714, 515, -1,
          712, 513, 514, -1,
          712, 713, 513, -1,
          711, 514, 522, -1,
          711, 712, 514, -1,
          710, 522, 519, -1,
          710, 711, 522, -1,
          709, 519, 521, -1,
          709, 710, 519, -1,
          708, 521, 530, -1,
          708, 709, 521, -1,
          707, 530, 531, -1,
          707, 708, 530, -1,
          706, 531, 549, -1,
          706, 707, 531, -1,
          705, 706, 549, -1,
          705, 549, 534, -1,
          704, 534, 536, -1,
          704, 705, 534, -1,
          703, 704, 536, -1,
          703, 536, 556, -1,
          702, 703, 556, -1,
          702, 556, 542, -1,
          701, 702, 542, -1,
          701, 542, 543, -1,
          700, 701, 543, -1,
          700, 543, 553, -1,
          699, 700, 553, -1,
          699, 553, 550, -1,
          698, 699, 550, -1,
          698, 550, 552, -1,
          697, 698, 552, -1,
          697, 552, 560, -1,
          696, 697, 560, -1,
          696, 560, 558, -1,
          695, 696, 558, -1,
          695, 558, 547, -1,
          694, 695, 547, -1,
          694, 547, 544, -1,
          693, 544, 546, -1,
          693, 694, 544, -1,
          692, 546, 554, -1,
          692, 693, 546, -1,
          691, 554, 540, -1,
          691, 692, 554, -1,
          690, 540, 539, -1,
          690, 691, 540, -1,
          689, 539, 528, -1,
          689, 690, 539, -1,
          688, 528, 527, -1,
          688, 689, 528, -1,
          687, 527, 525, -1,
          687, 688, 527, -1,
          686, 525, 511, -1,
          686, 687, 525, -1,
          685, 511, 509, -1,
          685, 686, 511, -1,
          1, 509, 2, -1,
          1, 685, 509, -1
        ]
      }
    }
}
