#VRML V2.0 utf8
WorldInfo {
  title "Exported triangle mesh to VRML97"
  info ["Created by FreeCAD"
        "<https://www.freecad.org>"]
}

Transform {
  scale 1 1 1
  rotation 0 0 1 0
  scaleOrientation 0 0 1 0
  center 0.000 0.000 0.000
  translation 0.000 0.000 0.000
  children
    Shape { 
      appearance
      Appearance {
        material
        Material {
          diffuseColor 0.8 0.8 0.8
        }
      }
      geometry
      IndexedFaceSet {
        coord
        Coordinate {
          point [
            -3.818 0.188 1.773,
            -4.000 0.000 1.702,
            -3.823 0.000 1.773,
            -3.995 0.199 1.702,
            -3.804 0.375 1.773,
            -3.980 0.398 1.702,
            -3.781 0.561 1.773,
            -3.955 0.596 1.702,
            -3.749 0.746 1.773,
            -3.921 0.793 1.702,
            -3.708 0.929 1.773,
            -3.876 0.987 1.702,
            -3.658 1.110 1.773,
            -3.822 1.179 1.702,
            -3.599 1.288 1.773,
            -3.759 1.368 1.702,
            -3.532 1.463 1.773,
            -3.686 1.554 1.702,
            -3.456 1.634 1.773,
            -3.604 1.736 1.702,
            -3.371 1.802 1.773,
            -3.513 1.913 1.702,
            -3.279 1.965 1.773,
            -3.413 2.086 1.702,
            -3.178 2.124 1.773,
            -3.305 2.253 1.702,
            -3.070 2.277 1.773,
            -3.189 2.415 1.702,
            -2.955 2.425 1.773,
            -3.064 2.571 1.702,
            -2.832 2.567 1.773,
            -2.932 2.721 1.702,
            -2.703 2.703 1.773,
            -2.793 2.863 1.702,
            -2.567 2.832 1.773,
            -2.647 2.999 1.702,
            -2.425 2.955 1.773,
            -2.494 3.127 1.702,
            -2.277 3.070 1.773,
            -2.335 3.248 1.702,
            -2.124 3.178 1.773,
            -2.170 3.360 1.702,
            -1.965 3.279 1.773,
            -2.000 3.464 1.702,
            -1.802 3.371 1.773,
            -1.825 3.559 1.702,
            -1.634 3.456 1.773,
            -1.645 3.646 1.702,
            -1.463 3.532 1.773,
            -1.461 3.723 1.702,
            -1.288 3.599 1.773,
            -1.274 3.792 1.702,
            -1.110 3.658 1.773,
            -1.083 3.850 1.702,
            -0.929 3.708 1.773,
            -0.890 3.900 1.702,
            -0.746 3.749 1.773,
            -0.695 3.939 1.702,
            -0.561 3.781 1.773,
            -0.497 3.969 1.702,
            -0.375 3.804 1.773,
            -0.299 3.989 1.702,
            -0.188 3.818 1.773,
            -0.100 3.999 1.702,
            0.000 3.823 1.773,
            0.100 3.999 1.702,
            0.188 3.818 1.773,
            0.299 3.989 1.702,
            0.375 3.804 1.773,
            0.497 3.969 1.702,
            0.561 3.781 1.773,
            0.695 3.939 1.702,
            0.746 3.749 1.773,
            0.890 3.900 1.702,
            0.929 3.708 1.773,
            1.083 3.850 1.702,
            1.110 3.658 1.773,
            1.274 3.792 1.702,
            1.288 3.599 1.773,
            1.461 3.723 1.702,
            1.463 3.532 1.773,
            1.645 3.646 1.702,
            1.634 3.456 1.773,
            1.825 3.559 1.702,
            1.802 3.371 1.773,
            2.000 3.464 1.702,
            1.965 3.279 1.773,
            2.170 3.360 1.702,
            2.124 3.178 1.773,
            2.335 3.248 1.702,
            2.277 3.070 1.773,
            2.494 3.127 1.702,
            2.425 2.955 1.773,
            2.647 2.999 1.702,
            2.567 2.832 1.773,
            2.793 2.863 1.702,
            2.703 2.703 1.773,
            2.932 2.721 1.702,
            2.832 2.567 1.773,
            3.064 2.571 1.702,
            2.955 2.425 1.773,
            3.189 2.415 1.702,
            3.070 2.277 1.773,
            3.305 2.253 1.702,
            3.178 2.124 1.773,
            3.413 2.086 1.702,
            3.279 1.965 1.773,
            3.513 1.913 1.702,
            3.371 1.802 1.773,
            3.604 1.736 1.702,
            3.456 1.634 1.773,
            3.686 1.554 1.702,
            3.532 1.463 1.773,
            3.759 1.368 1.702,
            3.599 1.288 1.773,
            3.822 1.179 1.702,
            3.658 1.110 1.773,
            3.876 0.987 1.702,
            3.708 0.929 1.773,
            3.921 0.793 1.702,
            3.749 0.746 1.773,
            3.955 0.596 1.702,
            3.781 0.561 1.773,
            3.980 0.398 1.702,
            3.804 0.375 1.773,
            3.995 0.199 1.702,
            3.818 0.188 1.773,
            4.000 0.000 1.702,
            3.823 0.000 1.773,
            4.000 0.000 -1.523,
            3.750 0.000 -1.773,
            3.745 0.187 -1.773,
            3.995 0.199 -1.523,
            3.731 0.373 -1.773,
            3.980 0.398 -1.523,
            3.708 0.559 -1.773,
            3.955 0.596 -1.523,
            3.676 0.743 -1.773,
            3.921 0.793 -1.523,
            3.634 0.925 -1.773,
            3.876 0.987 -1.523,
            3.583 1.105 -1.773,
            3.822 1.179 -1.523,
            3.524 1.283 -1.773,
            3.759 1.368 -1.523,
            3.456 1.457 -1.773,
            3.686 1.554 -1.523,
            3.379 1.627 -1.773,
            3.604 1.736 -1.523,
            3.293 1.793 -1.773,
            3.513 1.913 -1.523,
            3.200 1.955 -1.773,
            3.413 2.086 -1.523,
            3.098 2.112 -1.773,
            3.305 2.253 -1.523,
            2.989 2.264 -1.773,
            3.189 2.415 -1.523,
            2.873 2.410 -1.773,
            3.064 2.571 -1.523,
            2.749 2.551 -1.773,
            2.932 2.721 -1.523,
            2.618 2.685 -1.773,
            2.793 2.863 -1.523,
            2.481 2.812 -1.773,
            2.647 2.999 -1.523,
            2.338 2.932 -1.773,
            2.494 3.127 -1.523,
            2.189 3.045 -1.773,
            2.335 3.248 -1.523,
            2.035 3.150 -1.773,
            2.170 3.360 -1.523,
            1.875 3.248 -1.773,
            2.000 3.464 -1.523,
            1.711 3.337 -1.773,
            1.825 3.559 -1.523,
            1.542 3.418 -1.773,
            1.645 3.646 -1.523,
            1.370 3.491 -1.773,
            1.461 3.723 -1.523,
            1.194 3.555 -1.773,
            1.274 3.792 -1.523,
            1.016 3.610 -1.773,
            1.083 3.850 -1.523,
            0.834 3.656 -1.773,
            0.890 3.900 -1.523,
            0.651 3.693 -1.773,
            0.695 3.939 -1.523,
            0.497 3.969 -1.523,
            0.466 3.721 -1.773,
            0.280 3.740 -1.773,
            0.299 3.989 -1.523,
            0.100 3.999 -1.523,
            0.093 3.749 -1.773,
            -0.093 3.749 -1.773,
            -0.100 3.999 -1.523,
            -0.280 3.740 -1.773,
            -0.299 3.989 -1.523,
            -0.466 3.721 -1.773,
            -0.497 3.969 -1.523,
            -0.651 3.693 -1.773,
            -0.695 3.939 -1.523,
            -0.890 3.900 -1.523,
            -0.834 3.656 -1.773,
            -1.016 3.610 -1.773,
            -1.083 3.850 -1.523,
            -1.194 3.555 -1.773,
            -1.274 3.792 -1.523,
            -1.370 3.491 -1.773,
            -1.461 3.723 -1.523,
            -1.542 3.418 -1.773,
            -1.645 3.646 -1.523,
            -1.711 3.337 -1.773,
            -1.825 3.559 -1.523,
            -2.000 3.464 -1.523,
            -1.875 3.248 -1.773,
            -2.170 3.360 -1.523,
            -2.035 3.150 -1.773,
            -2.189 3.045 -1.773,
            -2.335 3.248 -1.523,
            -2.338 2.932 -1.773,
            -2.494 3.127 -1.523,
            -2.647 2.999 -1.523,
            -2.481 2.812 -1.773,
            -2.618 2.685 -1.773,
            -2.793 2.863 -1.523,
            -2.932 2.721 -1.523,
            -2.749 2.551 -1.773,
            -3.064 2.571 -1.523,
            -2.873 2.410 -1.773,
            -2.989 2.264 -1.773,
            -3.189 2.415 -1.523,
            -3.098 2.112 -1.773,
            -3.305 2.253 -1.523,
            -3.413 2.086 -1.523,
            -3.200 1.955 -1.773,
            -3.293 1.793 -1.773,
            -3.513 1.913 -1.523,
            -3.604 1.736 -1.523,
            -3.379 1.627 -1.773,
            -3.686 1.554 -1.523,
            -3.456 1.457 -1.773,
            -3.524 1.283 -1.773,
            -3.759 1.368 -1.523,
            -3.822 1.179 -1.523,
            -3.583 1.105 -1.773,
            -3.634 0.925 -1.773,
            -3.876 0.987 -1.523,
            -3.921 0.793 -1.523,
            -3.676 0.743 -1.773,
            -3.708 0.559 -1.773,
            -3.955 0.596 -1.523,
            -3.980 0.398 -1.523,
            -3.731 0.373 -1.773,
            -3.995 0.199 -1.523,
            -3.745 0.187 -1.773,
            -3.750 0.000 -1.773,
            -4.000 0.000 -1.523,
            0.000 3.628 1.594,
            -0.000 -3.628 1.594,
            -0.000 -3.823 1.773,
            0.188 -3.818 1.773,
            2.916 2.333 1.690,
            3.235 1.810 1.664,
            2.584 2.574 1.611,
            3.537 1.302 1.722,
            2.916 2.045 1.537,
            2.238 2.811 1.563,
            3.235 1.522 1.548,
            2.584 2.281 1.441,
            3.537 1.020 1.641,
            1.882 3.039 1.548,
            2.916 1.748 1.404,
            2.238 2.513 1.377,
            3.235 1.227 1.452,
            1.517 3.257 1.563,
            2.584 1.976 1.292,
            3.537 0.732 1.580,
            1.882 2.740 1.346,
            2.916 1.442 1.293,
            1.144 3.460 1.608,
            2.238 2.204 1.212,
            3.235 0.925 1.376,
            1.517 2.958 1.346,
            2.584 1.662 1.165,
            3.537 0.441 1.539,
            0.766 3.646 1.682,
            1.882 2.428 1.165,
            2.916 1.129 1.203,
            1.144 3.164 1.376,
            2.238 1.883 1.070,
            3.235 0.619 1.322,
            1.517 2.645 1.150,
            2.584 1.339 1.060,
            3.537 0.147 1.518,
            0.766 3.355 1.437,
            1.882 2.103 1.007,
            2.916 0.810 1.135,
            1.144 2.852 1.166,
            2.238 1.553 0.950,
            3.235 0.310 1.290,
            0.384 3.529 1.526,
            0.000 3.426 1.424,
            1.517 2.319 0.976,
            2.584 1.010 0.978,
            3.537 -0.147 1.518,
            3.818 -0.188 1.773,
            3.804 -0.375 1.773,
            0.766 3.047 1.213,
            1.882 1.769 0.871,
            2.916 0.488 1.090,
            1.144 2.527 0.978,
            2.238 1.216 0.853,
            3.235 0.000 1.279,
            0.384 3.227 1.290,
            0.000 2.997 1.116,
            0.000 3.215 1.265,
            1.517 1.982 0.826,
            2.584 0.676 0.919,
            3.537 -0.441 1.539,
            3.781 -0.561 1.773,
            0.766 2.725 1.011,
            1.882 1.425 0.760,
            2.916 0.163 1.067,
            1.144 2.189 0.813,
            2.238 0.873 0.780,
            3.235 -0.310 1.290,
            0.384 2.909 1.075,
            0.000 2.772 0.977,
            1.517 1.635 0.700,
            2.584 0.339 0.884,
            3.537 -0.732 1.580,
            3.749 -0.746 1.773,
            3.708 -0.929 1.773,
            0.766 2.389 0.833,
            1.882 1.075 0.672,
            2.916 -0.163 1.067,
            1.144 1.841 0.672,
            2.238 0.525 0.731,
            3.235 -0.619 1.322,
            0.384 2.577 0.884,
            0.000 2.304 0.733,
            0.000 2.541 0.849,
            1.517 1.280 0.598,
            2.584 0.000 0.872,
            3.537 -1.020 1.641,
            3.658 -1.110 1.773,
            0.766 2.042 0.678,
            1.882 0.720 0.610,
            2.916 -0.488 1.090,
            1.144 1.484 0.556,
            2.238 0.175 0.706,
            3.235 -0.925 1.376,
            0.384 2.233 0.716,
            0.000 2.062 0.628,
            1.517 0.919 0.521,
            2.584 -0.339 0.884,
            3.537 -1.302 1.722,
            3.599 -1.288 1.773,
            3.532 -1.463 1.773,
            0.766 1.684 0.548,
            1.882 0.361 0.572,
            2.916 -0.810 1.135,
            1.144 1.119 0.465,
            2.238 -0.175 0.706,
            3.235 -1.227 1.452,
            0.384 1.878 0.572,
            0.000 1.814 0.535,
            1.517 0.553 0.470,
            2.584 -0.676 0.919,
            0.766 1.318 0.443,
            1.882 0.000 0.559,
            2.916 -1.129 1.203,
            1.144 0.749 0.400,
            2.238 -0.525 0.731,
            3.235 -1.522 1.548,
            3.456 -1.634 1.773,
            0.384 1.513 0.453,
            0.000 1.308 0.385,
            0.000 1.563 0.454,
            1.517 0.185 0.444,
            2.584 -1.010 0.978,
            0.766 0.946 0.364,
            1.882 -0.361 0.572,
            2.916 -1.442 1.293,
            1.144 0.376 0.361,
            2.238 -0.873 0.780,
            3.371 -1.802 1.773,
            3.235 -1.810 1.664,
            3.279 -1.965 1.773,
            0.384 1.141 0.361,
            0.000 1.050 0.328,
            1.517 -0.185 0.444,
            2.584 -1.339 1.060,
            0.766 0.570 0.311,
            1.882 -0.720 0.610,
            2.916 -1.748 1.404,
            1.144 0.000 0.348,
            2.238 -1.216 0.853,
            0.384 0.764 0.294,
            0.000 0.527 0.253,
            0.000 0.790 0.284,
            1.517 -0.553 0.470,
            2.584 -1.662 1.165,
            0.766 0.190 0.284,
            1.882 -1.075 0.672,
            2.916 -2.045 1.537,
            3.178 -2.124 1.773,
            3.070 -2.277 1.773,
            1.144 -0.376 0.361,
            2.238 -1.553 0.950,
            0.384 0.383 0.254,
            0.000 0.264 0.234,
            1.517 -0.919 0.521,
            2.584 -1.976 1.292,
            0.766 -0.190 0.284,
            1.882 -1.425 0.760,
            2.916 -2.333 1.690,
            2.955 -2.425 1.773,
            2.832 -2.567 1.773,
            1.144 -0.749 0.400,
            2.238 -1.883 1.070,
            0.384 0.000 0.241,
            -0.000 -0.264 0.234,
            0.000 0.000 0.227,
            1.517 -1.280 0.598,
            2.584 -2.281 1.441,
            0.766 -0.570 0.311,
            1.882 -1.769 0.871,
            1.144 -1.119 0.465,
            2.238 -2.204 1.212,
            0.384 -0.383 0.254,
            -0.000 -0.527 0.253,
            1.517 -1.635 0.700,
            2.584 -2.574 1.611,
            2.703 -2.703 1.773,
            2.567 -2.832 1.773,
            0.766 -0.946 0.364,
            1.882 -2.103 1.007,
            1.144 -1.484 0.556,
            2.238 -2.513 1.377,
            -0.000 -0.790 0.284,
            0.384 -0.764 0.294,
            -0.000 -1.050 0.328,
            1.517 -1.982 0.826,
            0.766 -1.318 0.443,
            1.882 -2.428 1.165,
            1.144 -1.841 0.672,
            2.238 -2.811 1.563,
            2.277 -3.070 1.773,
            2.124 -3.178 1.773,
            2.425 -2.955 1.773,
            0.384 -1.141 0.361,
            -0.000 -1.308 0.385,
            1.517 -2.319 0.976,
            0.766 -1.684 0.548,
            1.882 -2.740 1.346,
            1.144 -2.189 0.813,
            0.384 -1.513 0.453,
            -0.000 -1.563 0.454,
            -0.000 -1.814 0.535,
            1.517 -2.645 1.150,
            0.766 -2.042 0.678,
            1.882 -3.039 1.548,
            1.965 -3.279 1.773,
            1.802 -3.371 1.773,
            1.144 -2.527 0.978,
            0.384 -1.878 0.572,
            -0.000 -2.062 0.628,
            1.517 -2.958 1.346,
            0.766 -2.389 0.833,
            1.144 -2.852 1.166,
            0.384 -2.233 0.716,
            -0.000 -2.304 0.733,
            1.634 -3.456 1.773,
            1.517 -3.257 1.563,
            1.463 -3.532 1.773,
            0.766 -2.725 1.011,
            1.144 -3.164 1.376,
            0.384 -2.577 0.884,
            -0.000 -2.541 0.849,
            -0.000 -2.772 0.977,
            0.766 -3.047 1.213,
            1.144 -3.460 1.608,
            1.110 -3.658 1.773,
            0.929 -3.708 1.773,
            1.288 -3.599 1.773,
            -0.000 -2.997 1.116,
            0.384 -2.909 1.075,
            0.766 -3.355 1.437,
            0.384 -3.227 1.290,
            -0.000 -3.215 1.265,
            -0.000 -3.426 1.424,
            0.746 -3.749 1.773,
            0.766 -3.646 1.682,
            0.561 -3.781 1.773,
            0.384 -3.529 1.526,
            0.375 -3.804 1.773,
            -0.188 -3.818 1.773,
            -0.384 3.673 1.652,
            -0.384 3.380 1.405,
            -0.766 3.503 1.557,
            -0.384 3.070 1.180,
            -1.144 3.602 1.731,
            -0.766 3.203 1.322,
            -0.384 2.745 0.977,
            -1.144 3.314 1.489,
            -0.766 2.888 1.109,
            -1.517 3.400 1.679,
            -0.384 2.407 0.797,
            -1.144 3.010 1.268,
            -0.766 2.558 0.919,
            -1.517 3.109 1.452,
            -0.384 2.057 0.641,
            -1.144 2.691 1.069,
            -1.882 3.183 1.656,
            -0.766 2.217 0.752,
            -1.517 2.803 1.245,
            -0.384 1.697 0.510,
            -1.144 2.360 0.893,
            -1.882 2.892 1.444,
            -0.766 1.864 0.610,
            -1.517 2.483 1.060,
            -0.384 1.328 0.404,
            -2.238 2.955 1.664,
            -1.144 2.017 0.740,
            -1.882 2.585 1.253,
            -0.766 1.502 0.492,
            -1.517 2.152 0.898,
            -0.384 0.953 0.324,
            -2.238 2.664 1.468,
            -1.144 1.663 0.611,
            -1.882 2.267 1.083,
            -0.766 1.133 0.400,
            -2.584 2.717 1.703,
            -1.517 1.809 0.760,
            -0.384 0.574 0.271,
            -2.238 2.360 1.292,
            -1.144 1.302 0.508,
            -1.882 1.937 0.936,
            -0.766 0.758 0.334,
            -2.584 2.429 1.523,
            -1.517 1.458 0.646,
            -0.384 0.192 0.244,
            -2.238 2.045 1.138,
            -1.144 0.935 0.429,
            -1.882 1.598 0.813,
            -0.766 0.380 0.294,
            -2.584 2.130 1.364,
            -1.517 1.100 0.556,
            -0.384 -0.192 0.244,
            -2.238 1.719 1.007,
            -1.144 0.563 0.377,
            -2.916 2.191 1.611,
            -1.882 1.251 0.713,
            -0.766 0.000 0.281,
            -2.584 1.820 1.226,
            -1.517 0.736 0.492,
            -0.384 -0.574 0.271,
            -2.238 1.386 0.898,
            -1.144 0.188 0.351,
            -2.916 1.898 1.468,
            -1.882 0.898 0.638,
            -0.766 -0.380 0.294,
            -2.584 1.501 1.110,
            -1.517 0.369 0.453,
            -0.384 -0.953 0.324,
            -3.235 1.951 1.730,
            -2.238 1.045 0.813,
            -1.144 -0.188 0.351,
            -2.916 1.596 1.346,
            -1.882 0.541 0.588,
            -0.766 -0.758 0.334,
            -2.584 1.175 1.016,
            -1.517 0.000 0.441,
            -0.384 -1.328 0.404,
            -3.235 1.667 1.603,
            -2.238 0.700 0.752,
            -1.144 -0.563 0.377,
            -2.916 1.286 1.245,
            -1.882 0.180 0.562,
            -0.766 -1.133 0.400,
            -2.584 0.844 0.946,
            -1.517 -0.369 0.453,
            -0.384 -1.697 0.510,
            -3.235 1.375 1.497,
            -2.238 0.351 0.716,
            -1.144 -0.935 0.429,
            -2.916 0.970 1.166,
            -1.882 -0.180 0.562,
            -0.766 -1.502 0.492,
            -2.584 0.508 0.898,
            -1.517 -0.736 0.492,
            -0.384 -2.057 0.641,
            -3.235 1.077 1.411,
            -2.238 0.000 0.703,
            -1.144 -1.302 0.508,
            -2.916 0.649 1.109,
            -1.882 -0.541 0.588,
            -0.766 -1.864 0.610,
            -3.537 1.162 1.679,
            -2.584 0.170 0.875,
            -1.517 -1.100 0.556,
            -0.384 -2.407 0.797,
            -3.235 0.773 1.347,
            -2.238 -0.351 0.716,
            -1.144 -1.663 0.611,
            -2.916 0.326 1.075,
            -1.882 -0.898 0.638,
            -0.766 -2.217 0.752,
            -3.537 0.876 1.608,
            -2.584 -0.170 0.875,
            -1.517 -1.458 0.646,
            -0.384 -2.745 0.977,
            -3.235 0.465 1.303,
            -2.238 -0.700 0.752,
            -1.144 -2.017 0.740,
            -2.916 0.000 1.064,
            -1.882 -1.251 0.713,
            -0.766 -2.558 0.919,
            -3.537 0.587 1.557,
            -2.584 -0.508 0.898,
            -1.517 -1.809 0.760,
            -0.384 -3.070 1.180,
            -3.235 0.155 1.282,
            -2.238 -1.045 0.813,
            -1.144 -2.360 0.893,
            -2.916 -0.326 1.075,
            -1.882 -1.598 0.813,
            -0.766 -2.888 1.109,
            -3.537 0.294 1.526,
            -2.584 -0.844 0.946,
            -1.517 -2.152 0.898,
            -0.384 -3.380 1.405,
            -3.235 -0.155 1.282,
            -2.238 -1.386 0.898,
            -1.144 -2.691 1.069,
            -2.916 -0.649 1.109,
            -1.882 -1.937 0.936,
            -0.766 -3.203 1.322,
            -3.818 -0.188 1.773,
            -3.537 0.000 1.516,
            -2.584 -1.175 1.016,
            -1.517 -2.483 1.060,
            -0.384 -3.673 1.652,
            -0.375 -3.804 1.773,
            -0.561 -3.781 1.773,
            -3.235 -0.465 1.303,
            -2.238 -1.719 1.007,
            -1.144 -3.010 1.268,
            -2.916 -0.970 1.166,
            -1.882 -2.267 1.083,
            -0.766 -3.503 1.557,
            -0.746 -3.749 1.773,
            -0.929 -3.708 1.773,
            -3.804 -0.375 1.773,
            -3.537 -0.294 1.526,
            -2.584 -1.501 1.110,
            -1.517 -2.803 1.245,
            -3.235 -0.773 1.347,
            -2.238 -2.045 1.138,
            -1.144 -3.314 1.489,
            -2.916 -1.286 1.245,
            -1.882 -2.585 1.253,
            -3.781 -0.561 1.773,
            -3.537 -0.587 1.557,
            -3.749 -0.746 1.773,
            -2.584 -1.820 1.226,
            -1.517 -3.109 1.452,
            -3.235 -1.077 1.411,
            -2.238 -2.360 1.292,
            -1.110 -3.658 1.773,
            -1.144 -3.602 1.731,
            -1.288 -3.599 1.773,
            -2.916 -1.596 1.346,
            -1.882 -2.892 1.444,
            -3.708 -0.929 1.773,
            -3.537 -0.876 1.608,
            -3.658 -1.110 1.773,
            -2.584 -2.130 1.364,
            -1.634 -3.456 1.773,
            -1.517 -3.400 1.679,
            -1.802 -3.371 1.773,
            -1.463 -3.532 1.773,
            -3.532 -1.463 1.773,
            -3.235 -1.375 1.497,
            -3.599 -1.288 1.773,
            -2.238 -2.664 1.468,
            -2.916 -1.898 1.468,
            -1.965 -3.279 1.773,
            -1.882 -3.183 1.656,
            -2.124 -3.178 1.773,
            -3.537 -1.162 1.679,
            -2.832 -2.567 1.773,
            -2.584 -2.429 1.523,
            -2.955 -2.425 1.773,
            -3.456 -1.634 1.773,
            -3.235 -1.667 1.603,
            -3.371 -1.802 1.773,
            -2.238 -2.955 1.664,
            -2.277 -3.070 1.773,
            -2.425 -2.955 1.773,
            -2.916 -2.191 1.611,
            -3.070 -2.277 1.773,
            -3.178 -2.124 1.773,
            -2.584 -2.717 1.703,
            -2.703 -2.703 1.773,
            -2.567 -2.832 1.773,
            -3.235 -1.951 1.730,
            -3.279 -1.965 1.773,
            -3.995 -0.199 1.702,
            -3.995 -0.199 -1.523,
            -3.980 -0.398 1.702,
            -3.980 -0.398 -1.523,
            -3.955 -0.596 1.702,
            -3.955 -0.596 -1.523,
            -3.921 -0.793 1.702,
            -3.921 -0.793 -1.523,
            -3.876 -0.987 1.702,
            -3.876 -0.987 -1.523,
            -3.822 -1.179 1.702,
            -3.822 -1.179 -1.523,
            -3.759 -1.368 1.702,
            -3.759 -1.368 -1.523,
            -3.686 -1.554 1.702,
            -3.686 -1.554 -1.523,
            -3.604 -1.736 1.702,
            -3.604 -1.736 -1.523,
            -3.513 -1.913 1.702,
            -3.513 -1.913 -1.523,
            -3.413 -2.086 1.702,
            -3.413 -2.086 -1.523,
            -3.305 -2.253 1.702,
            -3.305 -2.253 -1.523,
            -3.189 -2.415 1.702,
            -3.189 -2.415 -1.523,
            -3.064 -2.571 1.702,
            -3.064 -2.571 -1.523,
            -2.932 -2.721 1.702,
            -2.932 -2.721 -1.523,
            -2.793 -2.863 1.702,
            -2.793 -2.863 -1.523,
            -2.647 -2.999 1.702,
            -2.647 -2.999 -1.523,
            -2.494 -3.127 1.702,
            -2.494 -3.127 -1.523,
            -2.335 -3.248 1.702,
            -2.335 -3.248 -1.523,
            -2.170 -3.360 1.702,
            -2.170 -3.360 -1.523,
            -2.000 -3.464 1.702,
            -2.000 -3.464 -1.523,
            -1.825 -3.559 1.702,
            -1.825 -3.559 -1.523,
            -1.645 -3.646 1.702,
            -1.645 -3.646 -1.523,
            -1.461 -3.723 1.702,
            -1.461 -3.723 -1.523,
            -1.274 -3.792 1.702,
            -1.274 -3.792 -1.523,
            -1.083 -3.850 1.702,
            -1.083 -3.850 -1.523,
            -0.890 -3.900 1.702,
            -0.890 -3.900 -1.523,
            -0.695 -3.939 1.702,
            -0.695 -3.939 -1.523,
            -0.497 -3.969 1.702,
            -0.497 -3.969 -1.523,
            -0.299 -3.989 1.702,
            -0.299 -3.989 -1.523,
            -0.100 -3.999 1.702,
            -0.100 -3.999 -1.523,
            0.100 -3.999 1.702,
            0.100 -3.999 -1.523,
            0.299 -3.989 1.702,
            0.299 -3.989 -1.523,
            0.497 -3.969 1.702,
            0.497 -3.969 -1.523,
            0.695 -3.939 1.702,
            0.695 -3.939 -1.523,
            0.890 -3.900 1.702,
            0.890 -3.900 -1.523,
            1.083 -3.850 1.702,
            1.083 -3.850 -1.523,
            1.274 -3.792 1.702,
            1.274 -3.792 -1.523,
            1.461 -3.723 1.702,
            1.461 -3.723 -1.523,
            1.645 -3.646 1.702,
            1.645 -3.646 -1.523,
            1.825 -3.559 1.702,
            1.825 -3.559 -1.523,
            2.000 -3.464 1.702,
            2.000 -3.464 -1.523,
            2.170 -3.360 1.702,
            2.170 -3.360 -1.523,
            2.335 -3.248 1.702,
            2.335 -3.248 -1.523,
            2.494 -3.127 1.702,
            2.494 -3.127 -1.523,
            2.647 -2.999 1.702,
            2.647 -2.999 -1.523,
            2.793 -2.863 1.702,
            2.793 -2.863 -1.523,
            2.932 -2.721 1.702,
            2.932 -2.721 -1.523,
            3.064 -2.571 1.702,
            3.064 -2.571 -1.523,
            3.189 -2.415 1.702,
            3.189 -2.415 -1.523,
            3.305 -2.253 1.702,
            3.305 -2.253 -1.523,
            3.413 -2.086 1.702,
            3.413 -2.086 -1.523,
            3.513 -1.913 1.702,
            3.513 -1.913 -1.523,
            3.604 -1.736 1.702,
            3.604 -1.736 -1.523,
            3.686 -1.554 1.702,
            3.686 -1.554 -1.523,
            3.759 -1.368 -1.523,
            3.759 -1.368 1.702,
            3.822 -1.179 1.702,
            3.822 -1.179 -1.523,
            3.876 -0.987 1.702,
            3.876 -0.987 -1.523,
            3.921 -0.793 1.702,
            3.921 -0.793 -1.523,
            3.955 -0.596 1.702,
            3.955 -0.596 -1.523,
            3.980 -0.398 1.702,
            3.980 -0.398 -1.523,
            3.995 -0.199 1.702,
            3.995 -0.199 -1.523,
            -2.481 -2.812 -1.773,
            -2.189 -3.045 -1.773,
            -2.338 -2.932 -1.773,
            -2.989 -2.264 -1.773,
            -3.098 -2.112 -1.773,
            -2.873 -2.410 -1.773,
            -2.035 -3.150 -1.773,
            -1.711 -3.337 -1.773,
            -1.875 -3.248 -1.773,
            -1.542 -3.418 -1.773,
            -3.456 -1.457 -1.773,
            -3.524 -1.283 -1.773,
            -3.379 -1.627 -1.773,
            -2.749 -2.551 -1.773,
            -3.583 -1.105 -1.773,
            -2.618 -2.685 -1.773,
            -3.200 -1.955 -1.773,
            -3.293 -1.793 -1.773,
            -1.370 -3.491 -1.773,
            -1.016 -3.610 -1.773,
            -1.194 -3.555 -1.773,
            -0.834 -3.656 -1.773,
            -3.634 -0.925 -1.773,
            -3.708 -0.559 -1.773,
            -3.676 -0.743 -1.773,
            -0.651 -3.693 -1.773,
            -0.280 -3.740 -1.773,
            -0.466 -3.721 -1.773,
            -0.093 -3.749 -1.773,
            -3.731 -0.373 -1.773,
            -3.745 -0.187 -1.773,
            0.280 -3.740 -1.773,
            0.093 -3.749 -1.773,
            0.466 -3.721 -1.773,
            0.834 -3.656 -1.773,
            0.651 -3.693 -1.773,
            1.016 -3.610 -1.773,
            1.370 -3.491 -1.773,
            1.194 -3.555 -1.773,
            1.542 -3.418 -1.773,
            1.711 -3.337 -1.773,
            2.035 -3.150 -1.773,
            1.875 -3.248 -1.773,
            2.338 -2.932 -1.773,
            2.189 -3.045 -1.773,
            2.618 -2.685 -1.773,
            2.481 -2.812 -1.773,
            2.749 -2.551 -1.773,
            2.873 -2.410 -1.773,
            3.098 -2.112 -1.773,
            2.989 -2.264 -1.773,
            3.200 -1.955 -1.773,
            3.379 -1.627 -1.773,
            3.293 -1.793 -1.773,
            3.524 -1.283 -1.773,
            3.456 -1.457 -1.773,
            3.583 -1.105 -1.773,
            3.676 -0.743 -1.773,
            3.634 -0.925 -1.773,
            3.731 -0.373 -1.773,
            3.708 -0.559 -1.773,
            3.745 -0.187 -1.773
          ]
        }
        coordIndex [
          0, 1, 2, -1,
          3, 0, 4, -1,
          3, 1, 0, -1,
          5, 4, 6, -1,
          5, 3, 4, -1,
          7, 6, 8, -1,
          7, 5, 6, -1,
          9, 8, 10, -1,
          9, 7, 8, -1,
          11, 10, 12, -1,
          11, 9, 10, -1,
          13, 12, 14, -1,
          13, 11, 12, -1,
          15, 14, 16, -1,
          15, 13, 14, -1,
          17, 16, 18, -1,
          17, 15, 16, -1,
          19, 18, 20, -1,
          19, 17, 18, -1,
          21, 20, 22, -1,
          21, 19, 20, -1,
          23, 22, 24, -1,
          23, 21, 22, -1,
          25, 24, 26, -1,
          25, 23, 24, -1,
          27, 26, 28, -1,
          27, 25, 26, -1,
          29, 28, 30, -1,
          29, 27, 28, -1,
          31, 30, 32, -1,
          31, 29, 30, -1,
          33, 32, 34, -1,
          33, 31, 32, -1,
          35, 33, 34, -1,
          35, 34, 36, -1,
          37, 35, 36, -1,
          37, 36, 38, -1,
          39, 37, 38, -1,
          39, 38, 40, -1,
          41, 40, 42, -1,
          41, 39, 40, -1,
          43, 42, 44, -1,
          43, 41, 42, -1,
          45, 44, 46, -1,
          45, 43, 44, -1,
          47, 46, 48, -1,
          47, 45, 46, -1,
          49, 48, 50, -1,
          49, 47, 48, -1,
          51, 50, 52, -1,
          51, 49, 50, -1,
          53, 52, 54, -1,
          53, 51, 52, -1,
          55, 54, 56, -1,
          55, 53, 54, -1,
          57, 56, 58, -1,
          57, 55, 56, -1,
          59, 57, 58, -1,
          59, 58, 60, -1,
          61, 59, 60, -1,
          61, 60, 62, -1,
          63, 61, 62, -1,
          63, 62, 64, -1,
          65, 64, 66, -1,
          65, 63, 64, -1,
          67, 66, 68, -1,
          67, 65, 66, -1,
          69, 68, 70, -1,
          69, 67, 68, -1,
          71, 70, 72, -1,
          71, 69, 70, -1,
          73, 72, 74, -1,
          73, 71, 72, -1,
          75, 74, 76, -1,
          75, 73, 74, -1,
          77, 76, 78, -1,
          77, 75, 76, -1,
          79, 78, 80, -1,
          79, 77, 78, -1,
          81, 80, 82, -1,
          81, 79, 80, -1,
          83, 82, 84, -1,
          83, 81, 82, -1,
          85, 84, 86, -1,
          85, 83, 84, -1,
          87, 86, 88, -1,
          87, 85, 86, -1,
          89, 87, 88, -1,
          89, 88, 90, -1,
          91, 89, 90, -1,
          91, 90, 92, -1,
          93, 91, 92, -1,
          93, 92, 94, -1,
          95, 94, 96, -1,
          95, 93, 94, -1,
          97, 96, 98, -1,
          97, 95, 96, -1,
          99, 98, 100, -1,
          99, 97, 98, -1,
          101, 100, 102, -1,
          101, 99, 100, -1,
          103, 102, 104, -1,
          103, 101, 102, -1,
          105, 104, 106, -1,
          105, 103, 104, -1,
          107, 106, 108, -1,
          107, 105, 106, -1,
          109, 108, 110, -1,
          109, 107, 108, -1,
          111, 110, 112, -1,
          111, 109, 110, -1,
          113, 112, 114, -1,
          113, 111, 112, -1,
          115, 114, 116, -1,
          115, 113, 114, -1,
          117, 116, 118, -1,
          117, 115, 116, -1,
          119, 118, 120, -1,
          119, 117, 118, -1,
          121, 120, 122, -1,
          121, 119, 120, -1,
          123, 122, 124, -1,
          123, 121, 122, -1,
          125, 124, 126, -1,
          125, 123, 124, -1,
          127, 126, 128, -1,
          127, 125, 126, -1,
          129, 130, 131, -1,
          132, 129, 131, -1,
          132, 131, 133, -1,
          134, 132, 133, -1,
          134, 133, 135, -1,
          136, 134, 135, -1,
          136, 135, 137, -1,
          138, 136, 137, -1,
          138, 137, 139, -1,
          140, 138, 139, -1,
          140, 139, 141, -1,
          142, 141, 143, -1,
          142, 140, 141, -1,
          144, 143, 145, -1,
          144, 142, 143, -1,
          146, 145, 147, -1,
          146, 144, 145, -1,
          148, 147, 149, -1,
          148, 146, 147, -1,
          150, 149, 151, -1,
          150, 148, 149, -1,
          152, 151, 153, -1,
          152, 150, 151, -1,
          154, 153, 155, -1,
          154, 152, 153, -1,
          156, 155, 157, -1,
          156, 154, 155, -1,
          158, 157, 159, -1,
          158, 156, 157, -1,
          160, 159, 161, -1,
          160, 158, 159, -1,
          162, 161, 163, -1,
          162, 160, 161, -1,
          164, 163, 165, -1,
          164, 162, 163, -1,
          166, 164, 165, -1,
          166, 165, 167, -1,
          168, 166, 167, -1,
          168, 167, 169, -1,
          170, 168, 169, -1,
          170, 169, 171, -1,
          172, 170, 171, -1,
          172, 171, 173, -1,
          174, 172, 173, -1,
          174, 173, 175, -1,
          176, 174, 175, -1,
          176, 175, 177, -1,
          178, 176, 177, -1,
          178, 177, 179, -1,
          180, 178, 179, -1,
          180, 179, 181, -1,
          182, 180, 181, -1,
          182, 181, 183, -1,
          184, 183, 185, -1,
          184, 182, 183, -1,
          186, 184, 185, -1,
          187, 188, 189, -1,
          187, 185, 188, -1,
          187, 186, 185, -1,
          190, 187, 189, -1,
          191, 192, 193, -1,
          191, 189, 192, -1,
          191, 190, 189, -1,
          194, 193, 195, -1,
          194, 191, 193, -1,
          196, 195, 197, -1,
          196, 194, 195, -1,
          198, 197, 199, -1,
          198, 196, 197, -1,
          200, 198, 199, -1,
          201, 202, 203, -1,
          201, 199, 202, -1,
          201, 200, 199, -1,
          204, 203, 205, -1,
          204, 201, 203, -1,
          206, 205, 207, -1,
          206, 204, 205, -1,
          208, 207, 209, -1,
          208, 206, 207, -1,
          210, 209, 211, -1,
          210, 208, 209, -1,
          212, 210, 211, -1,
          213, 211, 214, -1,
          213, 212, 211, -1,
          215, 213, 214, -1,
          215, 216, 217, -1,
          215, 214, 216, -1,
          218, 215, 217, -1,
          218, 217, 219, -1,
          220, 218, 219, -1,
          221, 220, 219, -1,
          221, 222, 223, -1,
          221, 219, 222, -1,
          224, 221, 223, -1,
          225, 223, 226, -1,
          225, 224, 223, -1,
          227, 228, 229, -1,
          227, 226, 228, -1,
          227, 225, 226, -1,
          230, 229, 231, -1,
          230, 227, 229, -1,
          232, 230, 231, -1,
          233, 234, 235, -1,
          233, 231, 234, -1,
          233, 232, 231, -1,
          236, 233, 235, -1,
          237, 235, 238, -1,
          237, 236, 235, -1,
          239, 240, 241, -1,
          239, 238, 240, -1,
          239, 237, 238, -1,
          242, 239, 241, -1,
          243, 244, 245, -1,
          243, 241, 244, -1,
          243, 242, 241, -1,
          246, 243, 245, -1,
          247, 248, 249, -1,
          247, 245, 248, -1,
          247, 246, 245, -1,
          250, 247, 249, -1,
          251, 249, 252, -1,
          251, 250, 249, -1,
          253, 254, 255, -1,
          253, 252, 254, -1,
          253, 251, 252, -1,
          256, 253, 255, -1,
          125, 129, 132, -1,
          125, 127, 129, -1,
          123, 132, 134, -1,
          123, 125, 132, -1,
          121, 134, 136, -1,
          121, 123, 134, -1,
          119, 136, 138, -1,
          119, 121, 136, -1,
          117, 138, 140, -1,
          117, 119, 138, -1,
          115, 140, 142, -1,
          115, 117, 140, -1,
          113, 142, 144, -1,
          113, 115, 142, -1,
          111, 144, 146, -1,
          111, 113, 144, -1,
          109, 146, 148, -1,
          109, 111, 146, -1,
          107, 148, 150, -1,
          107, 109, 148, -1,
          105, 150, 152, -1,
          105, 107, 150, -1,
          103, 152, 154, -1,
          103, 105, 152, -1,
          101, 154, 156, -1,
          101, 103, 154, -1,
          99, 156, 158, -1,
          99, 101, 156, -1,
          97, 158, 160, -1,
          97, 99, 158, -1,
          95, 160, 162, -1,
          95, 162, 164, -1,
          95, 97, 160, -1,
          93, 95, 164, -1,
          91, 93, 164, -1,
          91, 164, 166, -1,
          89, 91, 166, -1,
          89, 166, 168, -1,
          89, 168, 170, -1,
          87, 89, 170, -1,
          87, 170, 172, -1,
          85, 87, 172, -1,
          83, 85, 172, -1,
          83, 172, 174, -1,
          81, 174, 176, -1,
          81, 176, 178, -1,
          81, 83, 174, -1,
          79, 178, 180, -1,
          79, 81, 178, -1,
          77, 79, 180, -1,
          75, 180, 182, -1,
          75, 77, 180, -1,
          73, 182, 184, -1,
          73, 75, 182, -1,
          71, 184, 186, -1,
          71, 186, 187, -1,
          71, 73, 184, -1,
          69, 71, 187, -1,
          67, 187, 190, -1,
          67, 190, 191, -1,
          67, 69, 187, -1,
          65, 191, 194, -1,
          65, 67, 191, -1,
          63, 65, 194, -1,
          61, 194, 196, -1,
          61, 63, 194, -1,
          59, 196, 198, -1,
          59, 198, 200, -1,
          59, 61, 196, -1,
          57, 59, 200, -1,
          55, 200, 201, -1,
          55, 201, 204, -1,
          55, 57, 200, -1,
          53, 55, 204, -1,
          51, 204, 206, -1,
          51, 53, 204, -1,
          49, 206, 208, -1,
          49, 208, 210, -1,
          49, 51, 206, -1,
          47, 49, 210, -1,
          45, 210, 212, -1,
          45, 212, 213, -1,
          45, 47, 210, -1,
          43, 45, 213, -1,
          41, 43, 213, -1,
          41, 213, 215, -1,
          39, 41, 215, -1,
          39, 215, 218, -1,
          37, 39, 218, -1,
          37, 218, 220, -1,
          37, 220, 221, -1,
          35, 37, 221, -1,
          33, 35, 221, -1,
          33, 221, 224, -1,
          31, 33, 224, -1,
          31, 224, 225, -1,
          29, 31, 225, -1,
          29, 225, 227, -1,
          27, 29, 227, -1,
          27, 227, 230, -1,
          25, 27, 230, -1,
          25, 230, 232, -1,
          25, 232, 233, -1,
          23, 25, 233, -1,
          21, 23, 233, -1,
          21, 233, 236, -1,
          21, 236, 237, -1,
          19, 21, 237, -1,
          17, 19, 237, -1,
          17, 237, 239, -1,
          17, 239, 242, -1,
          15, 17, 242, -1,
          13, 242, 243, -1,
          13, 15, 242, -1,
          11, 243, 246, -1,
          11, 13, 243, -1,
          9, 246, 247, -1,
          9, 11, 246, -1,
          7, 247, 250, -1,
          7, 9, 247, -1,
          5, 250, 251, -1,
          5, 7, 250, -1,
          3, 251, 253, -1,
          3, 5, 251, -1,
          1, 253, 256, -1,
          1, 3, 253, -1,
          64, 257, 66, -1,
          258, 259, 260, -1,
          100, 261, 102, -1,
          98, 261, 100, -1,
          108, 262, 110, -1,
          106, 262, 108, -1,
          98, 263, 261, -1,
          96, 263, 98, -1,
          94, 263, 96, -1,
          114, 264, 116, -1,
          112, 264, 114, -1,
          104, 265, 106, -1,
          102, 265, 104, -1,
          261, 265, 102, -1,
          106, 265, 262, -1,
          92, 266, 94, -1,
          90, 266, 92, -1,
          88, 266, 90, -1,
          94, 266, 263, -1,
          110, 267, 112, -1,
          262, 267, 110, -1,
          112, 267, 264, -1,
          261, 268, 265, -1,
          263, 268, 261, -1,
          116, 269, 118, -1,
          264, 269, 116, -1,
          86, 270, 88, -1,
          84, 270, 86, -1,
          88, 270, 266, -1,
          262, 271, 267, -1,
          265, 271, 262, -1,
          263, 272, 268, -1,
          266, 272, 263, -1,
          264, 273, 269, -1,
          267, 273, 264, -1,
          82, 274, 84, -1,
          80, 274, 82, -1,
          84, 274, 270, -1,
          265, 275, 271, -1,
          268, 275, 265, -1,
          120, 276, 122, -1,
          118, 276, 120, -1,
          269, 276, 118, -1,
          270, 277, 266, -1,
          266, 277, 272, -1,
          267, 278, 273, -1,
          271, 278, 267, -1,
          78, 279, 80, -1,
          76, 279, 78, -1,
          74, 279, 76, -1,
          80, 279, 274, -1,
          272, 280, 268, -1,
          268, 280, 275, -1,
          269, 281, 276, -1,
          273, 281, 269, -1,
          274, 282, 270, -1,
          270, 282, 277, -1,
          275, 283, 271, -1,
          271, 283, 278, -1,
          122, 284, 124, -1,
          276, 284, 122, -1,
          74, 285, 279, -1,
          72, 285, 74, -1,
          70, 285, 72, -1,
          272, 286, 280, -1,
          277, 286, 272, -1,
          278, 287, 273, -1,
          273, 287, 281, -1,
          274, 288, 282, -1,
          279, 288, 274, -1,
          275, 289, 283, -1,
          280, 289, 275, -1,
          276, 290, 284, -1,
          281, 290, 276, -1,
          277, 291, 286, -1,
          282, 291, 277, -1,
          283, 292, 278, -1,
          278, 292, 287, -1,
          284, 293, 124, -1,
          126, 293, 128, -1,
          124, 293, 126, -1,
          279, 294, 288, -1,
          285, 294, 279, -1,
          286, 295, 280, -1,
          280, 295, 289, -1,
          281, 296, 290, -1,
          287, 296, 281, -1,
          288, 297, 282, -1,
          282, 297, 291, -1,
          289, 298, 283, -1,
          283, 298, 292, -1,
          290, 299, 284, -1,
          284, 299, 293, -1,
          70, 300, 285, -1,
          285, 300, 294, -1,
          68, 300, 70, -1,
          66, 300, 68, -1,
          257, 300, 66, -1,
          301, 300, 257, -1,
          286, 302, 295, -1,
          291, 302, 286, -1,
          292, 303, 287, -1,
          287, 303, 296, -1,
          293, 304, 128, -1,
          305, 304, 306, -1,
          128, 304, 305, -1,
          294, 307, 288, -1,
          288, 307, 297, -1,
          289, 308, 298, -1,
          295, 308, 289, -1,
          290, 309, 299, -1,
          296, 309, 290, -1,
          297, 310, 291, -1,
          291, 310, 302, -1,
          298, 311, 292, -1,
          292, 311, 303, -1,
          299, 312, 293, -1,
          293, 312, 304, -1,
          301, 313, 300, -1,
          300, 313, 294, -1,
          314, 313, 315, -1,
          315, 313, 301, -1,
          294, 313, 307, -1,
          295, 316, 308, -1,
          302, 316, 295, -1,
          296, 317, 309, -1,
          303, 317, 296, -1,
          304, 318, 306, -1,
          306, 318, 319, -1,
          297, 320, 310, -1,
          307, 320, 297, -1,
          298, 321, 311, -1,
          308, 321, 298, -1,
          309, 322, 299, -1,
          299, 322, 312, -1,
          302, 323, 316, -1,
          310, 323, 302, -1,
          303, 324, 317, -1,
          311, 324, 303, -1,
          304, 325, 318, -1,
          312, 325, 304, -1,
          307, 326, 320, -1,
          314, 326, 313, -1,
          313, 326, 307, -1,
          327, 326, 314, -1,
          308, 328, 321, -1,
          316, 328, 308, -1,
          317, 329, 309, -1,
          309, 329, 322, -1,
          318, 330, 319, -1,
          331, 330, 332, -1,
          319, 330, 331, -1,
          310, 333, 323, -1,
          320, 333, 310, -1,
          321, 334, 311, -1,
          311, 334, 324, -1,
          312, 335, 325, -1,
          322, 335, 312, -1,
          323, 336, 316, -1,
          316, 336, 328, -1,
          317, 337, 329, -1,
          324, 337, 317, -1,
          318, 338, 330, -1,
          325, 338, 318, -1,
          326, 339, 320, -1,
          320, 339, 333, -1,
          327, 339, 326, -1,
          340, 339, 341, -1,
          341, 339, 327, -1,
          321, 342, 334, -1,
          328, 342, 321, -1,
          322, 343, 335, -1,
          329, 343, 322, -1,
          332, 344, 345, -1,
          330, 344, 332, -1,
          333, 346, 323, -1,
          323, 346, 336, -1,
          334, 347, 324, -1,
          324, 347, 337, -1,
          325, 348, 338, -1,
          335, 348, 325, -1,
          336, 349, 328, -1,
          328, 349, 342, -1,
          337, 350, 329, -1,
          329, 350, 343, -1,
          338, 351, 330, -1,
          330, 351, 344, -1,
          339, 352, 333, -1,
          333, 352, 346, -1,
          353, 352, 340, -1,
          340, 352, 339, -1,
          334, 354, 347, -1,
          342, 354, 334, -1,
          335, 355, 348, -1,
          343, 355, 335, -1,
          344, 356, 345, -1,
          357, 356, 358, -1,
          345, 356, 357, -1,
          346, 359, 336, -1,
          336, 359, 349, -1,
          347, 360, 337, -1,
          337, 360, 350, -1,
          338, 361, 351, -1,
          348, 361, 338, -1,
          342, 362, 354, -1,
          349, 362, 342, -1,
          350, 363, 343, -1,
          343, 363, 355, -1,
          351, 364, 344, -1,
          344, 364, 356, -1,
          352, 365, 346, -1,
          346, 365, 359, -1,
          353, 365, 352, -1,
          366, 365, 353, -1,
          347, 367, 360, -1,
          354, 367, 347, -1,
          355, 368, 348, -1,
          348, 368, 361, -1,
          349, 369, 362, -1,
          359, 369, 349, -1,
          350, 370, 363, -1,
          360, 370, 350, -1,
          351, 371, 364, -1,
          361, 371, 351, -1,
          362, 372, 354, -1,
          354, 372, 367, -1,
          363, 373, 355, -1,
          355, 373, 368, -1,
          356, 374, 358, -1,
          364, 374, 356, -1,
          358, 374, 375, -1,
          366, 376, 365, -1,
          359, 376, 369, -1,
          377, 376, 378, -1,
          378, 376, 366, -1,
          365, 376, 359, -1,
          360, 379, 370, -1,
          367, 379, 360, -1,
          361, 380, 371, -1,
          368, 380, 361, -1,
          369, 381, 362, -1,
          362, 381, 372, -1,
          370, 382, 363, -1,
          363, 382, 373, -1,
          371, 383, 364, -1,
          364, 383, 374, -1,
          372, 384, 367, -1,
          367, 384, 379, -1,
          373, 385, 368, -1,
          368, 385, 380, -1,
          386, 387, 388, -1,
          375, 387, 386, -1,
          374, 387, 375, -1,
          369, 389, 381, -1,
          376, 389, 369, -1,
          377, 389, 376, -1,
          390, 389, 377, -1,
          379, 391, 370, -1,
          370, 391, 382, -1,
          380, 392, 371, -1,
          371, 392, 383, -1,
          381, 393, 372, -1,
          372, 393, 384, -1,
          373, 394, 385, -1,
          382, 394, 373, -1,
          383, 395, 374, -1,
          374, 395, 387, -1,
          379, 396, 391, -1,
          384, 396, 379, -1,
          380, 397, 392, -1,
          385, 397, 380, -1,
          390, 398, 389, -1,
          381, 398, 393, -1,
          399, 398, 400, -1,
          400, 398, 390, -1,
          389, 398, 381, -1,
          382, 401, 394, -1,
          391, 401, 382, -1,
          392, 402, 383, -1,
          383, 402, 395, -1,
          384, 403, 396, -1,
          393, 403, 384, -1,
          394, 404, 385, -1,
          385, 404, 397, -1,
          387, 405, 388, -1,
          395, 405, 387, -1,
          406, 405, 407, -1,
          388, 405, 406, -1,
          391, 408, 401, -1,
          396, 408, 391, -1,
          397, 409, 392, -1,
          392, 409, 402, -1,
          398, 410, 393, -1,
          399, 410, 398, -1,
          393, 410, 403, -1,
          411, 410, 399, -1,
          394, 412, 404, -1,
          401, 412, 394, -1,
          402, 413, 395, -1,
          395, 413, 405, -1,
          396, 414, 408, -1,
          403, 414, 396, -1,
          404, 415, 397, -1,
          397, 415, 409, -1,
          405, 416, 407, -1,
          417, 416, 418, -1,
          407, 416, 417, -1,
          408, 419, 401, -1,
          401, 419, 412, -1,
          402, 420, 413, -1,
          409, 420, 402, -1,
          410, 421, 403, -1,
          411, 421, 410, -1,
          422, 421, 423, -1,
          423, 421, 411, -1,
          403, 421, 414, -1,
          404, 424, 415, -1,
          412, 424, 404, -1,
          405, 425, 416, -1,
          413, 425, 405, -1,
          414, 426, 408, -1,
          408, 426, 419, -1,
          415, 427, 409, -1,
          409, 427, 420, -1,
          419, 428, 412, -1,
          412, 428, 424, -1,
          420, 429, 413, -1,
          413, 429, 425, -1,
          421, 430, 414, -1,
          431, 430, 422, -1,
          422, 430, 421, -1,
          414, 430, 426, -1,
          424, 432, 415, -1,
          415, 432, 427, -1,
          425, 433, 416, -1,
          434, 433, 435, -1,
          418, 433, 434, -1,
          416, 433, 418, -1,
          426, 436, 419, -1,
          419, 436, 428, -1,
          420, 437, 429, -1,
          427, 437, 420, -1,
          428, 438, 424, -1,
          424, 438, 432, -1,
          429, 439, 425, -1,
          425, 439, 433, -1,
          440, 441, 431, -1,
          442, 441, 440, -1,
          430, 441, 426, -1,
          426, 441, 436, -1,
          431, 441, 430, -1,
          427, 443, 437, -1,
          432, 443, 427, -1,
          436, 444, 428, -1,
          428, 444, 438, -1,
          437, 445, 429, -1,
          429, 445, 439, -1,
          432, 446, 443, -1,
          438, 446, 432, -1,
          433, 447, 435, -1,
          439, 447, 433, -1,
          448, 447, 449, -1,
          450, 447, 448, -1,
          435, 447, 450, -1,
          441, 451, 436, -1,
          442, 451, 441, -1,
          452, 451, 442, -1,
          436, 451, 444, -1,
          443, 453, 437, -1,
          437, 453, 445, -1,
          444, 454, 438, -1,
          438, 454, 446, -1,
          439, 455, 447, -1,
          445, 455, 439, -1,
          446, 456, 443, -1,
          443, 456, 453, -1,
          452, 457, 451, -1,
          444, 457, 454, -1,
          458, 457, 452, -1,
          459, 457, 458, -1,
          451, 457, 444, -1,
          453, 460, 445, -1,
          445, 460, 455, -1,
          454, 461, 446, -1,
          446, 461, 456, -1,
          455, 462, 447, -1,
          447, 462, 449, -1,
          463, 462, 464, -1,
          449, 462, 463, -1,
          456, 465, 453, -1,
          453, 465, 460, -1,
          457, 466, 454, -1,
          459, 466, 457, -1,
          454, 466, 461, -1,
          467, 466, 459, -1,
          455, 468, 462, -1,
          460, 468, 455, -1,
          461, 469, 456, -1,
          456, 469, 465, -1,
          460, 470, 468, -1,
          465, 470, 460, -1,
          466, 471, 461, -1,
          467, 471, 466, -1,
          472, 471, 467, -1,
          461, 471, 469, -1,
          473, 474, 475, -1,
          464, 474, 473, -1,
          462, 474, 464, -1,
          468, 474, 462, -1,
          465, 476, 470, -1,
          469, 476, 465, -1,
          470, 477, 468, -1,
          468, 477, 474, -1,
          472, 478, 471, -1,
          479, 478, 472, -1,
          480, 478, 479, -1,
          469, 478, 476, -1,
          471, 478, 469, -1,
          476, 481, 470, -1,
          470, 481, 477, -1,
          474, 482, 475, -1,
          483, 482, 484, -1,
          485, 482, 483, -1,
          475, 482, 485, -1,
          477, 482, 474, -1,
          486, 487, 480, -1,
          480, 487, 478, -1,
          478, 487, 476, -1,
          476, 487, 481, -1,
          481, 488, 477, -1,
          477, 488, 482, -1,
          487, 489, 481, -1,
          481, 489, 488, -1,
          490, 489, 486, -1,
          491, 489, 490, -1,
          486, 489, 487, -1,
          492, 493, 494, -1,
          484, 493, 492, -1,
          482, 493, 484, -1,
          488, 493, 482, -1,
          491, 495, 489, -1,
          488, 495, 493, -1,
          496, 495, 260, -1,
          494, 495, 496, -1,
          258, 495, 491, -1,
          489, 495, 488, -1,
          260, 495, 258, -1,
          493, 495, 494, -1,
          62, 257, 64, -1,
          258, 497, 259, -1,
          62, 498, 257, -1,
          60, 498, 62, -1,
          58, 498, 60, -1,
          498, 499, 257, -1,
          301, 499, 315, -1,
          257, 499, 301, -1,
          56, 500, 58, -1,
          54, 500, 56, -1,
          58, 500, 498, -1,
          498, 500, 499, -1,
          499, 501, 315, -1,
          315, 501, 314, -1,
          52, 502, 54, -1,
          50, 502, 52, -1,
          54, 502, 500, -1,
          500, 503, 499, -1,
          499, 503, 501, -1,
          501, 504, 314, -1,
          327, 504, 341, -1,
          314, 504, 327, -1,
          502, 505, 500, -1,
          500, 505, 503, -1,
          50, 505, 502, -1,
          503, 506, 501, -1,
          501, 506, 504, -1,
          48, 507, 50, -1,
          46, 507, 48, -1,
          44, 507, 46, -1,
          50, 507, 505, -1,
          504, 508, 341, -1,
          341, 508, 340, -1,
          503, 509, 506, -1,
          505, 509, 503, -1,
          504, 510, 508, -1,
          506, 510, 504, -1,
          505, 511, 509, -1,
          507, 511, 505, -1,
          508, 512, 340, -1,
          353, 512, 366, -1,
          340, 512, 353, -1,
          509, 513, 506, -1,
          506, 513, 510, -1,
          42, 514, 44, -1,
          40, 514, 42, -1,
          44, 514, 507, -1,
          507, 514, 511, -1,
          510, 515, 508, -1,
          508, 515, 512, -1,
          509, 516, 513, -1,
          511, 516, 509, -1,
          366, 517, 378, -1,
          512, 517, 366, -1,
          510, 518, 515, -1,
          513, 518, 510, -1,
          511, 519, 516, -1,
          514, 519, 511, -1,
          515, 520, 512, -1,
          512, 520, 517, -1,
          513, 521, 518, -1,
          516, 521, 513, -1,
          517, 522, 378, -1,
          377, 522, 390, -1,
          378, 522, 377, -1,
          40, 523, 514, -1,
          38, 523, 40, -1,
          36, 523, 38, -1,
          514, 523, 519, -1,
          518, 524, 515, -1,
          515, 524, 520, -1,
          516, 525, 521, -1,
          519, 525, 516, -1,
          517, 526, 522, -1,
          520, 526, 517, -1,
          521, 527, 518, -1,
          518, 527, 524, -1,
          390, 528, 400, -1,
          522, 528, 390, -1,
          519, 529, 525, -1,
          523, 529, 519, -1,
          524, 530, 520, -1,
          520, 530, 526, -1,
          521, 531, 527, -1,
          525, 531, 521, -1,
          526, 532, 522, -1,
          522, 532, 528, -1,
          36, 533, 523, -1,
          34, 533, 36, -1,
          32, 533, 34, -1,
          30, 533, 32, -1,
          523, 533, 529, -1,
          524, 534, 530, -1,
          527, 534, 524, -1,
          528, 535, 400, -1,
          399, 535, 411, -1,
          400, 535, 399, -1,
          525, 536, 531, -1,
          529, 536, 525, -1,
          526, 537, 532, -1,
          530, 537, 526, -1,
          531, 538, 527, -1,
          527, 538, 534, -1,
          528, 539, 535, -1,
          532, 539, 528, -1,
          529, 540, 536, -1,
          28, 540, 30, -1,
          533, 540, 529, -1,
          30, 540, 533, -1,
          530, 541, 537, -1,
          534, 541, 530, -1,
          411, 542, 423, -1,
          535, 542, 411, -1,
          531, 543, 538, -1,
          536, 543, 531, -1,
          532, 544, 539, -1,
          537, 544, 532, -1,
          534, 545, 541, -1,
          538, 545, 534, -1,
          535, 546, 542, -1,
          539, 546, 535, -1,
          536, 547, 543, -1,
          540, 547, 536, -1,
          537, 548, 544, -1,
          541, 548, 537, -1,
          542, 549, 423, -1,
          423, 549, 422, -1,
          538, 550, 545, -1,
          543, 550, 538, -1,
          539, 551, 546, -1,
          544, 551, 539, -1,
          28, 552, 540, -1,
          540, 552, 547, -1,
          26, 552, 28, -1,
          24, 552, 26, -1,
          545, 553, 541, -1,
          541, 553, 548, -1,
          546, 554, 542, -1,
          542, 554, 549, -1,
          547, 555, 543, -1,
          543, 555, 550, -1,
          548, 556, 544, -1,
          544, 556, 551, -1,
          549, 557, 422, -1,
          422, 557, 431, -1,
          431, 557, 440, -1,
          550, 558, 545, -1,
          545, 558, 553, -1,
          551, 559, 546, -1,
          546, 559, 554, -1,
          547, 560, 555, -1,
          552, 560, 547, -1,
          548, 561, 556, -1,
          553, 561, 548, -1,
          549, 562, 557, -1,
          554, 562, 549, -1,
          555, 563, 550, -1,
          550, 563, 558, -1,
          551, 564, 559, -1,
          556, 564, 551, -1,
          557, 565, 440, -1,
          440, 565, 442, -1,
          24, 566, 552, -1,
          22, 566, 24, -1,
          20, 566, 22, -1,
          552, 566, 560, -1,
          558, 567, 553, -1,
          553, 567, 561, -1,
          554, 568, 562, -1,
          559, 568, 554, -1,
          560, 569, 555, -1,
          555, 569, 563, -1,
          561, 570, 556, -1,
          556, 570, 564, -1,
          557, 571, 565, -1,
          562, 571, 557, -1,
          558, 572, 567, -1,
          563, 572, 558, -1,
          564, 573, 559, -1,
          559, 573, 568, -1,
          565, 574, 442, -1,
          442, 574, 452, -1,
          452, 574, 458, -1,
          18, 575, 20, -1,
          16, 575, 18, -1,
          560, 575, 569, -1,
          566, 575, 560, -1,
          20, 575, 566, -1,
          561, 576, 570, -1,
          567, 576, 561, -1,
          562, 577, 571, -1,
          568, 577, 562, -1,
          569, 578, 563, -1,
          563, 578, 572, -1,
          570, 579, 564, -1,
          564, 579, 573, -1,
          571, 580, 565, -1,
          565, 580, 574, -1,
          567, 581, 576, -1,
          572, 581, 567, -1,
          568, 582, 577, -1,
          573, 582, 568, -1,
          574, 583, 458, -1,
          458, 583, 459, -1,
          16, 584, 575, -1,
          575, 584, 569, -1,
          569, 584, 578, -1,
          14, 584, 16, -1,
          570, 585, 579, -1,
          576, 585, 570, -1,
          577, 586, 571, -1,
          571, 586, 580, -1,
          572, 587, 581, -1,
          578, 587, 572, -1,
          579, 588, 573, -1,
          573, 588, 582, -1,
          574, 589, 583, -1,
          580, 589, 574, -1,
          581, 590, 576, -1,
          576, 590, 585, -1,
          582, 591, 577, -1,
          577, 591, 586, -1,
          583, 592, 459, -1,
          459, 592, 467, -1,
          467, 592, 472, -1,
          578, 593, 587, -1,
          584, 593, 578, -1,
          585, 594, 579, -1,
          579, 594, 588, -1,
          586, 595, 580, -1,
          580, 595, 589, -1,
          587, 596, 581, -1,
          581, 596, 590, -1,
          588, 597, 582, -1,
          582, 597, 591, -1,
          583, 598, 592, -1,
          589, 598, 583, -1,
          14, 599, 584, -1,
          584, 599, 593, -1,
          12, 599, 14, -1,
          590, 600, 585, -1,
          585, 600, 594, -1,
          591, 601, 586, -1,
          586, 601, 595, -1,
          592, 602, 472, -1,
          472, 602, 479, -1,
          587, 603, 596, -1,
          593, 603, 587, -1,
          588, 604, 597, -1,
          594, 604, 588, -1,
          595, 605, 589, -1,
          589, 605, 598, -1,
          590, 606, 600, -1,
          596, 606, 590, -1,
          597, 607, 591, -1,
          591, 607, 601, -1,
          592, 608, 602, -1,
          598, 608, 592, -1,
          593, 609, 603, -1,
          10, 609, 12, -1,
          8, 609, 10, -1,
          599, 609, 593, -1,
          12, 609, 599, -1,
          594, 610, 604, -1,
          600, 610, 594, -1,
          595, 611, 605, -1,
          601, 611, 595, -1,
          479, 612, 480, -1,
          480, 612, 486, -1,
          602, 612, 479, -1,
          596, 613, 606, -1,
          603, 613, 596, -1,
          597, 614, 607, -1,
          604, 614, 597, -1,
          598, 615, 608, -1,
          605, 615, 598, -1,
          606, 616, 600, -1,
          600, 616, 610, -1,
          607, 617, 601, -1,
          601, 617, 611, -1,
          602, 618, 612, -1,
          608, 618, 602, -1,
          8, 619, 609, -1,
          603, 619, 613, -1,
          6, 619, 8, -1,
          4, 619, 6, -1,
          609, 619, 603, -1,
          610, 620, 604, -1,
          604, 620, 614, -1,
          611, 621, 605, -1,
          605, 621, 615, -1,
          612, 622, 486, -1,
          486, 622, 490, -1,
          613, 623, 606, -1,
          606, 623, 616, -1,
          607, 624, 617, -1,
          614, 624, 607, -1,
          615, 625, 608, -1,
          608, 625, 618, -1,
          616, 626, 610, -1,
          610, 626, 620, -1,
          611, 627, 621, -1,
          617, 627, 611, -1,
          612, 628, 622, -1,
          618, 628, 612, -1,
          619, 629, 613, -1,
          613, 629, 623, -1,
          4, 629, 619, -1,
          0, 629, 4, -1,
          620, 630, 614, -1,
          614, 630, 624, -1,
          621, 631, 615, -1,
          615, 631, 625, -1,
          622, 632, 490, -1,
          490, 632, 491, -1,
          491, 632, 258, -1,
          623, 633, 616, -1,
          616, 633, 626, -1,
          624, 634, 617, -1,
          617, 634, 627, -1,
          625, 635, 618, -1,
          618, 635, 628, -1,
          626, 636, 620, -1,
          620, 636, 630, -1,
          627, 637, 621, -1,
          621, 637, 631, -1,
          622, 638, 632, -1,
          628, 638, 622, -1,
          639, 640, 2, -1,
          629, 640, 623, -1,
          2, 640, 0, -1,
          0, 640, 629, -1,
          623, 640, 633, -1,
          630, 641, 624, -1,
          624, 641, 634, -1,
          631, 642, 625, -1,
          625, 642, 635, -1,
          258, 643, 497, -1,
          644, 643, 645, -1,
          497, 643, 644, -1,
          632, 643, 258, -1,
          633, 646, 626, -1,
          626, 646, 636, -1,
          627, 647, 637, -1,
          634, 647, 627, -1,
          628, 648, 638, -1,
          635, 648, 628, -1,
          630, 649, 641, -1,
          636, 649, 630, -1,
          637, 650, 631, -1,
          631, 650, 642, -1,
          638, 651, 632, -1,
          632, 651, 643, -1,
          652, 651, 653, -1,
          645, 651, 652, -1,
          643, 651, 645, -1,
          654, 655, 639, -1,
          640, 655, 633, -1,
          633, 655, 646, -1,
          639, 655, 640, -1,
          634, 656, 647, -1,
          641, 656, 634, -1,
          642, 657, 635, -1,
          635, 657, 648, -1,
          646, 658, 636, -1,
          636, 658, 649, -1,
          637, 659, 650, -1,
          647, 659, 637, -1,
          648, 660, 638, -1,
          638, 660, 651, -1,
          649, 661, 641, -1,
          641, 661, 656, -1,
          642, 662, 657, -1,
          650, 662, 642, -1,
          663, 664, 654, -1,
          665, 664, 663, -1,
          654, 664, 655, -1,
          655, 664, 646, -1,
          646, 664, 658, -1,
          656, 666, 647, -1,
          647, 666, 659, -1,
          648, 667, 660, -1,
          657, 667, 648, -1,
          658, 668, 649, -1,
          649, 668, 661, -1,
          659, 669, 650, -1,
          650, 669, 662, -1,
          670, 671, 672, -1,
          653, 671, 670, -1,
          651, 671, 653, -1,
          660, 671, 651, -1,
          672, 671, 660, -1,
          661, 673, 656, -1,
          656, 673, 666, -1,
          662, 674, 657, -1,
          657, 674, 667, -1,
          675, 676, 665, -1,
          677, 676, 675, -1,
          665, 676, 664, -1,
          664, 676, 658, -1,
          658, 676, 668, -1,
          666, 678, 659, -1,
          659, 678, 669, -1,
          679, 680, 681, -1,
          682, 680, 679, -1,
          672, 680, 682, -1,
          667, 680, 660, -1,
          660, 680, 672, -1,
          683, 684, 685, -1,
          668, 684, 661, -1,
          661, 684, 673, -1,
          669, 686, 662, -1,
          662, 686, 674, -1,
          673, 687, 666, -1,
          666, 687, 678, -1,
          688, 689, 690, -1,
          681, 689, 688, -1,
          680, 689, 681, -1,
          674, 689, 667, -1,
          667, 689, 680, -1,
          685, 691, 677, -1,
          684, 691, 685, -1,
          676, 691, 668, -1,
          677, 691, 676, -1,
          668, 691, 684, -1,
          692, 693, 694, -1,
          678, 693, 669, -1,
          669, 693, 686, -1,
          695, 696, 683, -1,
          697, 696, 695, -1,
          683, 696, 684, -1,
          684, 696, 673, -1,
          673, 696, 687, -1,
          674, 698, 689, -1,
          699, 698, 700, -1,
          690, 698, 699, -1,
          689, 698, 690, -1,
          686, 698, 674, -1,
          687, 701, 678, -1,
          678, 701, 693, -1,
          702, 701, 703, -1,
          694, 701, 702, -1,
          693, 701, 694, -1,
          693, 704, 686, -1,
          698, 704, 700, -1,
          686, 704, 698, -1,
          705, 704, 692, -1,
          706, 704, 705, -1,
          700, 704, 706, -1,
          692, 704, 693, -1,
          697, 707, 696, -1,
          708, 707, 697, -1,
          703, 707, 708, -1,
          701, 707, 703, -1,
          687, 707, 701, -1,
          696, 707, 687, -1,
          709, 1, 256, -1,
          709, 256, 710, -1,
          711, 710, 712, -1,
          711, 709, 710, -1,
          713, 712, 714, -1,
          713, 711, 712, -1,
          715, 714, 716, -1,
          715, 713, 714, -1,
          717, 716, 718, -1,
          717, 715, 716, -1,
          719, 718, 720, -1,
          719, 717, 718, -1,
          721, 720, 722, -1,
          721, 719, 720, -1,
          723, 722, 724, -1,
          723, 721, 722, -1,
          725, 724, 726, -1,
          725, 723, 724, -1,
          727, 726, 728, -1,
          727, 725, 726, -1,
          729, 728, 730, -1,
          729, 727, 728, -1,
          731, 730, 732, -1,
          731, 729, 730, -1,
          733, 732, 734, -1,
          733, 731, 732, -1,
          735, 734, 736, -1,
          735, 733, 734, -1,
          737, 736, 738, -1,
          737, 735, 736, -1,
          739, 738, 740, -1,
          739, 737, 738, -1,
          741, 740, 742, -1,
          741, 739, 740, -1,
          743, 742, 744, -1,
          743, 741, 742, -1,
          745, 743, 744, -1,
          745, 744, 746, -1,
          747, 745, 746, -1,
          747, 746, 748, -1,
          749, 747, 748, -1,
          749, 748, 750, -1,
          751, 749, 750, -1,
          751, 750, 752, -1,
          753, 752, 754, -1,
          753, 751, 752, -1,
          755, 754, 756, -1,
          755, 753, 754, -1,
          757, 756, 758, -1,
          757, 755, 756, -1,
          759, 758, 760, -1,
          759, 757, 758, -1,
          761, 760, 762, -1,
          761, 759, 760, -1,
          763, 762, 764, -1,
          763, 761, 762, -1,
          765, 764, 766, -1,
          765, 763, 764, -1,
          767, 766, 768, -1,
          767, 765, 766, -1,
          769, 768, 770, -1,
          769, 767, 768, -1,
          771, 770, 772, -1,
          771, 769, 770, -1,
          773, 772, 774, -1,
          773, 771, 772, -1,
          775, 774, 776, -1,
          775, 773, 774, -1,
          777, 776, 778, -1,
          777, 775, 776, -1,
          779, 778, 780, -1,
          779, 777, 778, -1,
          781, 780, 782, -1,
          781, 779, 780, -1,
          783, 782, 784, -1,
          783, 781, 782, -1,
          785, 784, 786, -1,
          785, 783, 784, -1,
          787, 786, 788, -1,
          787, 785, 786, -1,
          789, 788, 790, -1,
          789, 787, 788, -1,
          791, 790, 792, -1,
          791, 789, 790, -1,
          793, 791, 792, -1,
          793, 792, 794, -1,
          795, 793, 794, -1,
          795, 794, 796, -1,
          797, 795, 796, -1,
          797, 796, 798, -1,
          799, 797, 798, -1,
          799, 798, 800, -1,
          801, 799, 800, -1,
          801, 800, 802, -1,
          803, 801, 802, -1,
          803, 802, 804, -1,
          805, 803, 804, -1,
          805, 804, 806, -1,
          807, 805, 806, -1,
          807, 806, 808, -1,
          809, 807, 808, -1,
          809, 808, 810, -1,
          811, 809, 810, -1,
          811, 810, 812, -1,
          813, 811, 812, -1,
          813, 812, 814, -1,
          815, 813, 814, -1,
          815, 814, 816, -1,
          817, 815, 816, -1,
          817, 816, 818, -1,
          817, 818, 819, -1,
          820, 817, 819, -1,
          821, 819, 822, -1,
          821, 820, 819, -1,
          823, 822, 824, -1,
          823, 821, 822, -1,
          825, 824, 826, -1,
          825, 823, 824, -1,
          827, 826, 828, -1,
          827, 825, 826, -1,
          829, 828, 830, -1,
          829, 827, 828, -1,
          831, 830, 832, -1,
          831, 829, 830, -1,
          127, 832, 129, -1,
          127, 831, 832, -1,
          833, 834, 835, -1,
          836, 837, 838, -1,
          839, 840, 841, -1,
          834, 842, 839, -1,
          839, 842, 840, -1,
          843, 844, 845, -1,
          846, 847, 848, -1,
          838, 847, 846, -1,
          849, 847, 837, -1,
          850, 847, 849, -1,
          845, 847, 850, -1,
          844, 847, 845, -1,
          837, 847, 838, -1,
          851, 852, 853, -1,
          842, 852, 851, -1,
          848, 854, 833, -1,
          833, 854, 834, -1,
          834, 854, 842, -1,
          842, 854, 852, -1,
          855, 856, 847, -1,
          857, 856, 855, -1,
          858, 859, 860, -1,
          858, 861, 859, -1,
          854, 861, 858, -1,
          862, 255, 856, -1,
          863, 255, 862, -1,
          861, 864, 865, -1,
          254, 249, 255, -1,
          252, 249, 254, -1,
          866, 867, 868, -1,
          866, 869, 867, -1,
          864, 869, 866, -1,
          861, 869, 864, -1,
          248, 241, 249, -1,
          245, 241, 248, -1,
          244, 241, 245, -1,
          869, 870, 871, -1,
          869, 872, 870, -1,
          240, 238, 241, -1,
          869, 873, 872, -1,
          238, 235, 241, -1,
          241, 235, 249, -1,
          869, 874, 873, -1,
          873, 874, 875, -1,
          234, 231, 235, -1,
          235, 231, 249, -1,
          874, 876, 877, -1,
          229, 228, 231, -1,
          231, 228, 249, -1,
          876, 878, 879, -1,
          226, 223, 228, -1,
          874, 880, 876, -1,
          876, 880, 878, -1,
          223, 222, 228, -1,
          222, 219, 228, -1,
          219, 217, 228, -1,
          881, 882, 883, -1,
          880, 882, 881, -1,
          216, 214, 217, -1,
          214, 211, 217, -1,
          884, 885, 886, -1,
          882, 885, 884, -1,
          217, 209, 228, -1,
          211, 209, 217, -1,
          885, 887, 888, -1,
          882, 887, 885, -1,
          207, 205, 209, -1,
          228, 205, 249, -1,
          209, 205, 228, -1,
          249, 205, 255, -1,
          882, 889, 887, -1,
          889, 890, 891, -1,
          202, 199, 203, -1,
          203, 197, 205, -1,
          199, 197, 203, -1,
          847, 197, 848, -1,
          255, 197, 856, -1,
          205, 197, 255, -1,
          856, 197, 847, -1,
          889, 892, 890, -1,
          890, 892, 893, -1,
          195, 192, 197, -1,
          193, 192, 195, -1,
          894, 131, 130, -1,
          892, 131, 894, -1,
          882, 131, 889, -1,
          889, 131, 892, -1,
          189, 188, 192, -1,
          882, 135, 131, -1,
          131, 135, 133, -1,
          185, 183, 188, -1,
          135, 139, 137, -1,
          188, 181, 192, -1,
          183, 181, 188, -1,
          848, 181, 854, -1,
          192, 181, 197, -1,
          197, 181, 848, -1,
          135, 143, 139, -1,
          139, 143, 141, -1,
          861, 177, 869, -1,
          869, 177, 874, -1,
          179, 177, 181, -1,
          181, 177, 854, -1,
          854, 177, 861, -1,
          135, 147, 143, -1,
          143, 147, 145, -1,
          175, 173, 177, -1,
          173, 171, 177, -1,
          169, 167, 171, -1,
          171, 167, 177, -1,
          151, 155, 153, -1,
          167, 165, 177, -1,
          882, 161, 135, -1,
          177, 161, 874, -1,
          163, 161, 165, -1,
          157, 161, 159, -1,
          155, 161, 157, -1,
          135, 161, 147, -1,
          149, 161, 151, -1,
          147, 161, 149, -1,
          874, 161, 880, -1,
          151, 161, 155, -1,
          165, 161, 177, -1,
          880, 161, 882, -1,
          256, 255, 863, -1,
          710, 256, 863, -1,
          710, 863, 862, -1,
          712, 710, 862, -1,
          712, 862, 856, -1,
          714, 712, 856, -1,
          714, 856, 857, -1,
          716, 714, 857, -1,
          716, 857, 855, -1,
          718, 716, 855, -1,
          718, 855, 847, -1,
          720, 718, 847, -1,
          720, 847, 844, -1,
          722, 844, 843, -1,
          722, 720, 844, -1,
          724, 843, 845, -1,
          724, 722, 843, -1,
          726, 845, 850, -1,
          726, 724, 845, -1,
          728, 850, 849, -1,
          728, 726, 850, -1,
          730, 849, 837, -1,
          730, 728, 849, -1,
          732, 837, 836, -1,
          732, 730, 837, -1,
          734, 836, 838, -1,
          734, 732, 836, -1,
          736, 838, 846, -1,
          736, 734, 838, -1,
          738, 846, 848, -1,
          738, 736, 846, -1,
          740, 848, 833, -1,
          740, 738, 848, -1,
          742, 833, 835, -1,
          742, 740, 833, -1,
          744, 742, 835, -1,
          744, 835, 834, -1,
          746, 744, 834, -1,
          746, 834, 839, -1,
          748, 746, 839, -1,
          748, 839, 841, -1,
          750, 748, 841, -1,
          750, 841, 840, -1,
          752, 750, 840, -1,
          752, 840, 842, -1,
          754, 752, 842, -1,
          754, 842, 851, -1,
          756, 754, 851, -1,
          756, 851, 853, -1,
          758, 756, 853, -1,
          760, 758, 853, -1,
          760, 852, 854, -1,
          760, 853, 852, -1,
          762, 760, 854, -1,
          762, 854, 858, -1,
          764, 858, 860, -1,
          764, 762, 858, -1,
          766, 860, 859, -1,
          766, 764, 860, -1,
          768, 766, 859, -1,
          770, 861, 865, -1,
          770, 859, 861, -1,
          770, 768, 859, -1,
          772, 865, 864, -1,
          772, 770, 865, -1,
          774, 864, 866, -1,
          774, 772, 864, -1,
          776, 866, 868, -1,
          776, 774, 866, -1,
          778, 868, 867, -1,
          778, 776, 868, -1,
          780, 778, 867, -1,
          782, 869, 871, -1,
          782, 867, 869, -1,
          782, 780, 867, -1,
          784, 871, 870, -1,
          784, 782, 871, -1,
          786, 870, 872, -1,
          786, 784, 870, -1,
          788, 872, 873, -1,
          788, 786, 872, -1,
          790, 873, 875, -1,
          790, 788, 873, -1,
          792, 875, 874, -1,
          792, 790, 875, -1,
          794, 792, 874, -1,
          794, 874, 877, -1,
          796, 794, 877, -1,
          796, 877, 876, -1,
          798, 796, 876, -1,
          798, 876, 879, -1,
          800, 798, 879, -1,
          800, 879, 878, -1,
          802, 878, 880, -1,
          802, 800, 878, -1,
          804, 802, 880, -1,
          806, 881, 883, -1,
          806, 880, 881, -1,
          806, 804, 880, -1,
          808, 806, 883, -1,
          810, 882, 884, -1,
          810, 883, 882, -1,
          810, 808, 883, -1,
          812, 884, 886, -1,
          812, 810, 884, -1,
          814, 812, 886, -1,
          816, 885, 888, -1,
          816, 886, 885, -1,
          816, 814, 886, -1,
          818, 888, 887, -1,
          818, 816, 888, -1,
          819, 887, 889, -1,
          819, 818, 887, -1,
          822, 819, 889, -1,
          824, 891, 890, -1,
          824, 889, 891, -1,
          824, 822, 889, -1,
          826, 824, 890, -1,
          828, 893, 892, -1,
          828, 890, 893, -1,
          828, 826, 890, -1,
          830, 892, 894, -1,
          830, 828, 892, -1,
          832, 894, 130, -1,
          832, 830, 894, -1,
          129, 832, 130, -1,
          305, 127, 128, -1,
          831, 305, 306, -1,
          831, 127, 305, -1,
          829, 306, 319, -1,
          829, 831, 306, -1,
          827, 319, 331, -1,
          827, 829, 319, -1,
          825, 331, 332, -1,
          825, 827, 331, -1,
          823, 332, 345, -1,
          823, 825, 332, -1,
          821, 345, 357, -1,
          821, 823, 345, -1,
          820, 357, 358, -1,
          820, 821, 357, -1,
          817, 358, 375, -1,
          817, 820, 358, -1,
          815, 375, 386, -1,
          815, 817, 375, -1,
          813, 386, 388, -1,
          813, 815, 386, -1,
          811, 388, 406, -1,
          811, 813, 388, -1,
          809, 406, 407, -1,
          809, 811, 406, -1,
          807, 407, 417, -1,
          807, 809, 407, -1,
          805, 417, 418, -1,
          805, 807, 417, -1,
          803, 418, 434, -1,
          803, 805, 418, -1,
          801, 434, 435, -1,
          801, 803, 434, -1,
          799, 801, 435, -1,
          799, 435, 450, -1,
          797, 799, 450, -1,
          797, 450, 448, -1,
          795, 797, 448, -1,
          795, 448, 449, -1,
          793, 795, 449, -1,
          793, 449, 463, -1,
          791, 463, 464, -1,
          791, 793, 463, -1,
          789, 464, 473, -1,
          789, 791, 464, -1,
          787, 473, 475, -1,
          787, 789, 473, -1,
          785, 475, 485, -1,
          785, 787, 475, -1,
          783, 485, 483, -1,
          783, 785, 485, -1,
          781, 483, 484, -1,
          781, 783, 483, -1,
          779, 484, 492, -1,
          779, 781, 484, -1,
          777, 492, 494, -1,
          777, 779, 492, -1,
          775, 494, 496, -1,
          775, 777, 494, -1,
          773, 496, 260, -1,
          773, 775, 496, -1,
          771, 260, 259, -1,
          771, 773, 260, -1,
          769, 771, 259, -1,
          769, 259, 497, -1,
          767, 497, 644, -1,
          767, 769, 497, -1,
          765, 644, 645, -1,
          765, 767, 644, -1,
          763, 645, 652, -1,
          763, 765, 645, -1,
          761, 652, 653, -1,
          761, 763, 652, -1,
          759, 653, 670, -1,
          759, 761, 653, -1,
          757, 670, 672, -1,
          757, 759, 670, -1,
          755, 672, 682, -1,
          755, 757, 672, -1,
          753, 682, 679, -1,
          753, 755, 682, -1,
          751, 679, 681, -1,
          751, 753, 679, -1,
          749, 751, 681, -1,
          749, 681, 688, -1,
          747, 688, 690, -1,
          747, 749, 688, -1,
          745, 747, 690, -1,
          745, 690, 699, -1,
          743, 745, 699, -1,
          743, 699, 700, -1,
          741, 743, 700, -1,
          741, 700, 706, -1,
          739, 741, 706, -1,
          739, 706, 705, -1,
          737, 739, 705, -1,
          737, 705, 692, -1,
          735, 737, 692, -1,
          735, 692, 694, -1,
          733, 735, 694, -1,
          733, 694, 702, -1,
          731, 733, 702, -1,
          731, 702, 703, -1,
          729, 731, 703, -1,
          729, 703, 708, -1,
          727, 708, 697, -1,
          727, 729, 708, -1,
          725, 697, 695, -1,
          725, 727, 697, -1,
          723, 695, 683, -1,
          723, 725, 695, -1,
          721, 683, 685, -1,
          721, 723, 683, -1,
          719, 685, 677, -1,
          719, 721, 685, -1,
          717, 677, 675, -1,
          717, 719, 677, -1,
          715, 675, 665, -1,
          715, 717, 675, -1,
          713, 665, 663, -1,
          713, 715, 665, -1,
          711, 663, 654, -1,
          711, 713, 663, -1,
          709, 654, 639, -1,
          709, 711, 654, -1,
          1, 639, 2, -1,
          1, 709, 639, -1
        ]
      }
    }
}
