#VRML V2.0 utf8
WorldInfo {
  title "Exported triangle mesh to VRML97"
  info ["Created by FreeCAD"
        "<https://www.freecad.org>"]
}

Transform {
  scale 1 1 1
  rotation 0 0 1 0
  scaleOrientation 0 0 1 0
  center 0.000 0.000 0.000
  translation 0.000 0.000 0.000
  children
    Shape { 
      appearance
      Appearance {
        material
        Material {
          diffuseColor 0.8 0.8 0.8
        }
      }
      geometry
      IndexedFaceSet {
        coord
        Coordinate {
          point [
            0.317 -6.342 -1.609,
            0.000 -6.350 -1.609,
            0.000 -6.209 -1.750,
            0.309 -6.201 -1.750,
            0.632 -6.318 -1.609,
            0.618 -6.178 -1.750,
            0.946 -6.279 -1.609,
            0.925 -6.139 -1.750,
            1.258 -6.224 -1.609,
            1.230 -6.085 -1.750,
            1.567 -6.154 -1.609,
            1.532 -6.017 -1.750,
            1.872 -6.068 -1.609,
            1.830 -5.933 -1.750,
            2.172 -5.967 -1.609,
            2.123 -5.834 -1.750,
            2.467 -5.851 -1.609,
            2.412 -5.721 -1.750,
            2.755 -5.721 -1.609,
            2.694 -5.594 -1.750,
            3.037 -5.577 -1.609,
            2.969 -5.453 -1.750,
            3.311 -5.418 -1.609,
            3.237 -5.298 -1.750,
            3.577 -5.247 -1.609,
            3.497 -5.130 -1.750,
            3.834 -5.062 -1.609,
            3.749 -4.949 -1.750,
            4.082 -4.864 -1.609,
            3.991 -4.756 -1.750,
            4.319 -4.655 -1.609,
            4.223 -4.551 -1.750,
            4.546 -4.434 -1.609,
            4.445 -4.335 -1.750,
            4.761 -4.202 -1.609,
            4.655 -4.108 -1.750,
            4.854 -3.871 -1.750,
            4.965 -3.959 -1.609,
            5.156 -3.707 -1.609,
            5.041 -3.624 -1.750,
            5.334 -3.445 -1.609,
            5.215 -3.368 -1.750,
            5.377 -3.104 -1.750,
            5.499 -3.175 -1.609,
            5.651 -2.897 -1.609,
            5.525 -2.832 -1.750,
            5.788 -2.612 -1.609,
            5.659 -2.554 -1.750,
            5.911 -2.320 -1.609,
            5.779 -2.268 -1.750,
            6.019 -2.022 -1.609,
            5.885 -1.977 -1.750,
            6.113 -1.720 -1.609,
            5.977 -1.682 -1.750,
            6.191 -1.413 -1.609,
            6.053 -1.382 -1.750,
            6.254 -1.103 -1.609,
            6.114 -1.078 -1.750,
            6.301 -0.790 -1.609,
            6.160 -0.772 -1.750,
            6.332 -0.475 -1.609,
            6.191 -0.464 -1.750,
            6.348 -0.158 -1.609,
            6.207 -0.155 -1.750,
            6.348 0.158 -1.609,
            6.207 0.155 -1.750,
            6.332 0.475 -1.609,
            6.191 0.464 -1.750,
            6.301 0.790 -1.609,
            6.160 0.772 -1.750,
            6.254 1.103 -1.609,
            6.114 1.078 -1.750,
            6.191 1.413 -1.609,
            6.053 1.382 -1.750,
            6.113 1.720 -1.609,
            5.977 1.682 -1.750,
            6.019 2.022 -1.609,
            5.885 1.977 -1.750,
            5.779 2.268 -1.750,
            5.911 2.320 -1.609,
            5.788 2.612 -1.609,
            5.659 2.554 -1.750,
            5.651 2.897 -1.609,
            5.525 2.832 -1.750,
            5.499 3.175 -1.609,
            5.377 3.104 -1.750,
            5.334 3.445 -1.609,
            5.215 3.368 -1.750,
            5.156 3.707 -1.609,
            5.041 3.624 -1.750,
            4.854 3.871 -1.750,
            4.965 3.959 -1.609,
            4.761 4.202 -1.609,
            4.655 4.108 -1.750,
            4.546 4.434 -1.609,
            4.445 4.335 -1.750,
            4.319 4.655 -1.609,
            4.223 4.551 -1.750,
            3.991 4.756 -1.750,
            4.082 4.864 -1.609,
            3.834 5.062 -1.609,
            3.749 4.949 -1.750,
            3.577 5.247 -1.609,
            3.497 5.130 -1.750,
            3.237 5.298 -1.750,
            3.311 5.418 -1.609,
            3.037 5.577 -1.609,
            2.969 5.453 -1.750,
            2.755 5.721 -1.609,
            2.694 5.594 -1.750,
            2.467 5.851 -1.609,
            2.412 5.721 -1.750,
            2.172 5.967 -1.609,
            2.123 5.834 -1.750,
            1.872 6.068 -1.609,
            1.830 5.933 -1.750,
            1.567 6.154 -1.609,
            1.532 6.017 -1.750,
            1.258 6.224 -1.609,
            1.230 6.085 -1.750,
            0.946 6.279 -1.609,
            0.925 6.139 -1.750,
            0.632 6.318 -1.609,
            0.618 6.178 -1.750,
            0.317 6.342 -1.609,
            0.309 6.201 -1.750,
            0.000 6.350 -1.609,
            0.000 6.209 -1.750,
            0.000 6.350 2.029,
            0.317 6.342 2.029,
            0.632 6.318 2.029,
            0.946 6.279 2.029,
            1.258 6.224 2.029,
            1.567 6.154 2.029,
            1.872 6.068 2.029,
            2.172 5.967 2.029,
            2.467 5.851 2.029,
            2.755 5.721 2.029,
            3.037 5.577 2.029,
            3.311 5.418 2.029,
            3.577 5.247 2.029,
            3.834 5.062 2.029,
            4.082 4.864 2.029,
            4.319 4.655 2.029,
            4.546 4.434 2.029,
            4.761 4.202 2.029,
            4.965 3.959 2.029,
            5.156 3.707 2.029,
            5.334 3.445 2.029,
            5.499 3.175 2.029,
            5.651 2.897 2.029,
            5.788 2.612 2.029,
            5.911 2.320 2.029,
            6.019 2.022 2.029,
            6.113 1.720 2.029,
            6.191 1.413 2.029,
            6.254 1.103 2.029,
            6.301 0.790 2.029,
            6.332 0.475 2.029,
            6.348 0.158 2.029,
            6.348 -0.158 2.029,
            6.332 -0.475 2.029,
            6.301 -0.790 2.029,
            6.254 -1.103 2.029,
            6.191 -1.413 2.029,
            6.113 -1.720 2.029,
            6.019 -2.022 2.029,
            5.911 -2.320 2.029,
            5.788 -2.612 2.029,
            5.651 -2.897 2.029,
            5.499 -3.175 2.029,
            5.334 -3.445 2.029,
            5.156 -3.707 2.029,
            4.965 -3.959 2.029,
            4.761 -4.202 2.029,
            4.546 -4.434 2.029,
            4.319 -4.655 2.029,
            4.082 -4.864 2.029,
            3.834 -5.062 2.029,
            3.577 -5.247 2.029,
            3.311 -5.418 2.029,
            3.037 -5.577 2.029,
            2.755 -5.721 2.029,
            2.467 -5.851 2.029,
            2.172 -5.967 2.029,
            1.872 -6.068 2.029,
            1.567 -6.154 2.029,
            1.258 -6.224 2.029,
            0.946 -6.279 2.029,
            0.632 -6.318 2.029,
            0.317 -6.342 2.029,
            0.000 -6.350 2.029,
            0.000 6.209 2.171,
            0.309 6.201 2.171,
            0.618 6.178 2.171,
            0.925 6.139 2.171,
            1.230 6.085 2.171,
            1.532 6.017 2.171,
            1.830 5.933 2.171,
            2.123 5.834 2.171,
            2.412 5.721 2.171,
            2.694 5.594 2.171,
            2.969 5.453 2.171,
            3.237 5.298 2.171,
            3.497 5.130 2.171,
            3.749 4.949 2.171,
            3.991 4.756 2.171,
            4.223 4.551 2.171,
            4.445 4.335 2.171,
            4.655 4.108 2.171,
            4.854 3.871 2.171,
            5.041 3.624 2.171,
            5.215 3.368 2.171,
            5.377 3.104 2.171,
            5.525 2.832 2.171,
            5.659 2.554 2.171,
            5.779 2.268 2.171,
            5.885 1.977 2.171,
            5.977 1.682 2.171,
            6.053 1.382 2.171,
            6.114 1.078 2.171,
            6.160 0.772 2.171,
            6.191 0.464 2.171,
            6.207 0.155 2.171,
            6.207 -0.155 2.171,
            6.191 -0.464 2.171,
            6.160 -0.772 2.171,
            6.114 -1.078 2.171,
            6.053 -1.382 2.171,
            5.977 -1.682 2.171,
            5.885 -1.977 2.171,
            5.779 -2.268 2.171,
            5.659 -2.554 2.171,
            5.525 -2.832 2.171,
            5.377 -3.104 2.171,
            5.215 -3.368 2.171,
            5.041 -3.624 2.171,
            4.854 -3.871 2.171,
            4.655 -4.108 2.171,
            4.445 -4.335 2.171,
            4.223 -4.551 2.171,
            3.991 -4.756 2.171,
            3.749 -4.949 2.171,
            3.497 -5.130 2.171,
            3.237 -5.298 2.171,
            2.969 -5.453 2.171,
            2.694 -5.594 2.171,
            2.412 -5.721 2.171,
            2.123 -5.834 2.171,
            1.830 -5.933 2.171,
            1.532 -6.017 2.171,
            1.230 -6.085 2.171,
            0.925 -6.139 2.171,
            0.618 -6.178 2.171,
            0.309 -6.201 2.171,
            0.000 -6.209 2.171,
            0.000 -4.146 1.937,
            -0.309 -6.201 2.171,
            -0.618 -6.178 2.171,
            -0.925 -6.139 2.171,
            -1.230 -6.085 2.171,
            -1.532 -6.017 2.171,
            -1.830 -5.933 2.171,
            -2.123 -5.834 2.171,
            -2.123 5.834 2.171,
            0.000 4.146 1.937,
            -1.830 5.933 2.171,
            -1.532 6.017 2.171,
            -1.230 6.085 2.171,
            -0.925 6.139 2.171,
            -0.618 6.178 2.171,
            -0.309 6.201 2.171,
            0.000 -2.075 1.797,
            -3.110 -4.652 2.092,
            -2.412 -5.721 2.171,
            -2.694 -5.594 2.171,
            -2.969 -5.453 2.171,
            -3.237 -5.298 2.171,
            -3.497 -5.130 2.171,
            -3.749 -4.949 2.171,
            -3.991 -4.756 2.171,
            -4.223 -4.551 2.171,
            -4.445 -4.335 2.171,
            -4.655 -4.108 2.171,
            -3.110 -1.553 1.882,
            0.000 0.000 1.750,
            -4.854 -3.871 2.171,
            -5.041 -3.624 2.171,
            -5.215 -3.368 2.171,
            -5.377 -3.104 2.171,
            -5.525 -2.832 2.171,
            -5.659 -2.554 2.171,
            -5.779 -2.268 2.171,
            -5.885 -1.977 2.171,
            -5.977 -1.682 2.171,
            -6.053 -1.382 2.171,
            -6.114 -1.078 2.171,
            -6.160 -0.772 2.171,
            -6.191 -0.464 2.171,
            -6.207 -0.155 2.171,
            -6.207 0.155 2.171,
            0.000 2.075 1.797,
            -3.110 1.553 1.882,
            -6.191 0.464 2.171,
            -6.160 0.772 2.171,
            -6.114 1.078 2.171,
            -6.053 1.382 2.171,
            -5.977 1.682 2.171,
            -5.885 1.977 2.171,
            -5.779 2.268 2.171,
            -5.659 2.554 2.171,
            -5.525 2.832 2.171,
            -5.377 3.104 2.171,
            -5.215 3.368 2.171,
            -5.041 3.624 2.171,
            -4.854 3.871 2.171,
            -4.655 4.108 2.171,
            -3.110 4.652 2.092,
            -4.445 4.335 2.171,
            -4.223 4.551 2.171,
            -3.991 4.756 2.171,
            -3.749 4.949 2.171,
            -3.497 5.130 2.171,
            -3.237 5.298 2.171,
            -2.969 5.453 2.171,
            -2.694 5.594 2.171,
            -2.412 5.721 2.171,
            3.110 -4.652 2.092,
            3.110 -1.553 1.882,
            3.110 1.553 1.882,
            3.110 4.652 2.092,
            -0.317 -6.342 2.029,
            -0.632 -6.318 2.029,
            -0.946 -6.279 2.029,
            -1.258 -6.224 2.029,
            -1.567 -6.154 2.029,
            -1.872 -6.068 2.029,
            -2.172 -5.967 2.029,
            -2.467 -5.851 2.029,
            -2.755 -5.721 2.029,
            -3.037 -5.577 2.029,
            -3.311 -5.418 2.029,
            -3.577 -5.247 2.029,
            -3.834 -5.062 2.029,
            -4.082 -4.864 2.029,
            -4.319 -4.655 2.029,
            -4.546 -4.434 2.029,
            -4.761 -4.202 2.029,
            -4.965 -3.959 2.029,
            -5.156 -3.707 2.029,
            -5.334 -3.445 2.029,
            -5.499 -3.175 2.029,
            -5.651 -2.897 2.029,
            -5.788 -2.612 2.029,
            -5.911 -2.320 2.029,
            -6.019 -2.022 2.029,
            -6.113 -1.720 2.029,
            -6.191 -1.413 2.029,
            -6.254 -1.103 2.029,
            -6.301 -0.790 2.029,
            -6.332 -0.475 2.029,
            -6.348 -0.158 2.029,
            -6.348 0.158 2.029,
            -6.332 0.475 2.029,
            -6.301 0.790 2.029,
            -6.254 1.103 2.029,
            -6.191 1.413 2.029,
            -6.113 1.720 2.029,
            -6.019 2.022 2.029,
            -5.911 2.320 2.029,
            -5.788 2.612 2.029,
            -5.651 2.897 2.029,
            -5.499 3.175 2.029,
            -5.334 3.445 2.029,
            -5.156 3.707 2.029,
            -4.965 3.959 2.029,
            -4.761 4.202 2.029,
            -4.546 4.434 2.029,
            -4.319 4.655 2.029,
            -4.082 4.864 2.029,
            -3.834 5.062 2.029,
            -3.577 5.247 2.029,
            -3.311 5.418 2.029,
            -3.037 5.577 2.029,
            -2.755 5.721 2.029,
            -2.467 5.851 2.029,
            -2.172 5.967 2.029,
            -1.872 6.068 2.029,
            -1.567 6.154 2.029,
            -1.258 6.224 2.029,
            -0.946 6.279 2.029,
            -0.632 6.318 2.029,
            -0.317 6.342 2.029,
            -0.317 -6.342 -1.609,
            -0.632 -6.318 -1.609,
            -0.946 -6.279 -1.609,
            -1.258 -6.224 -1.609,
            -1.567 -6.154 -1.609,
            -1.872 -6.068 -1.609,
            -2.172 -5.967 -1.609,
            -2.467 -5.851 -1.609,
            -2.755 -5.721 -1.609,
            -3.037 -5.577 -1.609,
            -3.311 -5.418 -1.609,
            -3.577 -5.247 -1.609,
            -3.834 -5.062 -1.609,
            -4.082 -4.864 -1.609,
            -4.319 -4.655 -1.609,
            -4.546 -4.434 -1.609,
            -4.761 -4.202 -1.609,
            -4.965 -3.959 -1.609,
            -5.156 -3.707 -1.609,
            -5.334 -3.445 -1.609,
            -5.499 -3.175 -1.609,
            -5.651 -2.897 -1.609,
            -5.788 -2.612 -1.609,
            -5.911 -2.320 -1.609,
            -6.019 -2.022 -1.609,
            -6.113 -1.720 -1.609,
            -6.191 -1.413 -1.609,
            -6.254 -1.103 -1.609,
            -6.301 -0.790 -1.609,
            -6.332 -0.475 -1.609,
            -6.348 -0.158 -1.609,
            -6.348 0.158 -1.609,
            -6.332 0.475 -1.609,
            -6.301 0.790 -1.609,
            -6.254 1.103 -1.609,
            -6.191 1.413 -1.609,
            -6.113 1.720 -1.609,
            -6.019 2.022 -1.609,
            -5.911 2.320 -1.609,
            -5.788 2.612 -1.609,
            -5.651 2.897 -1.609,
            -5.499 3.175 -1.609,
            -5.334 3.445 -1.609,
            -5.156 3.707 -1.609,
            -4.965 3.959 -1.609,
            -4.761 4.202 -1.609,
            -4.546 4.434 -1.609,
            -4.319 4.655 -1.609,
            -4.082 4.864 -1.609,
            -3.834 5.062 -1.609,
            -3.577 5.247 -1.609,
            -3.311 5.418 -1.609,
            -3.037 5.577 -1.609,
            -2.755 5.721 -1.609,
            -2.467 5.851 -1.609,
            -2.172 5.967 -1.609,
            -1.872 6.068 -1.609,
            -1.567 6.154 -1.609,
            -1.258 6.224 -1.609,
            -0.946 6.279 -1.609,
            -0.632 6.318 -1.609,
            -0.317 6.342 -1.609,
            -0.309 6.201 -1.750,
            -0.618 6.178 -1.750,
            -0.925 6.139 -1.750,
            -1.230 6.085 -1.750,
            -1.532 6.017 -1.750,
            -1.830 5.933 -1.750,
            -2.123 5.834 -1.750,
            -2.412 5.721 -1.750,
            -2.694 5.594 -1.750,
            -2.969 5.453 -1.750,
            -3.237 5.298 -1.750,
            -3.497 5.130 -1.750,
            -3.749 4.949 -1.750,
            -3.991 4.756 -1.750,
            -4.223 4.551 -1.750,
            -4.445 4.335 -1.750,
            -4.655 4.108 -1.750,
            -4.854 3.871 -1.750,
            -5.041 3.624 -1.750,
            -5.215 3.368 -1.750,
            -5.377 3.104 -1.750,
            -5.525 2.832 -1.750,
            -5.659 2.554 -1.750,
            -5.779 2.268 -1.750,
            -5.885 1.977 -1.750,
            -5.977 1.682 -1.750,
            -6.053 1.382 -1.750,
            -6.114 1.078 -1.750,
            -6.160 0.772 -1.750,
            -6.191 0.464 -1.750,
            -6.207 0.155 -1.750,
            -6.207 -0.155 -1.750,
            -6.191 -0.464 -1.750,
            -6.160 -0.772 -1.750,
            -6.114 -1.078 -1.750,
            -6.053 -1.382 -1.750,
            -5.977 -1.682 -1.750,
            -5.885 -1.977 -1.750,
            -5.779 -2.268 -1.750,
            -5.659 -2.554 -1.750,
            -5.525 -2.832 -1.750,
            -5.377 -3.104 -1.750,
            -5.215 -3.368 -1.750,
            -5.041 -3.624 -1.750,
            -4.854 -3.871 -1.750,
            -4.655 -4.108 -1.750,
            -4.445 -4.335 -1.750,
            -4.223 -4.551 -1.750,
            -3.991 -4.756 -1.750,
            -3.749 -4.949 -1.750,
            -3.497 -5.130 -1.750,
            -3.237 -5.298 -1.750,
            -2.969 -5.453 -1.750,
            -2.694 -5.594 -1.750,
            -2.412 -5.721 -1.750,
            -2.123 -5.834 -1.750,
            -1.830 -5.933 -1.750,
            -1.532 -6.017 -1.750,
            -1.230 -6.085 -1.750,
            -0.925 -6.139 -1.750,
            -0.618 -6.178 -1.750,
            -0.309 -6.201 -1.750
          ]
        }
        coordIndex [
          0, 1, 2, -1,
          0, 2, 3, -1,
          4, 0, 3, -1,
          4, 3, 5, -1,
          6, 4, 5, -1,
          6, 5, 7, -1,
          8, 6, 7, -1,
          8, 7, 9, -1,
          10, 8, 9, -1,
          10, 9, 11, -1,
          12, 10, 11, -1,
          12, 11, 13, -1,
          14, 13, 15, -1,
          14, 12, 13, -1,
          16, 15, 17, -1,
          16, 14, 15, -1,
          18, 17, 19, -1,
          18, 16, 17, -1,
          20, 19, 21, -1,
          20, 18, 19, -1,
          22, 21, 23, -1,
          22, 20, 21, -1,
          24, 23, 25, -1,
          24, 22, 23, -1,
          26, 25, 27, -1,
          26, 24, 25, -1,
          28, 27, 29, -1,
          28, 26, 27, -1,
          30, 29, 31, -1,
          30, 28, 29, -1,
          32, 31, 33, -1,
          32, 30, 31, -1,
          34, 33, 35, -1,
          34, 32, 33, -1,
          36, 34, 35, -1,
          37, 34, 36, -1,
          38, 37, 36, -1,
          38, 36, 39, -1,
          40, 38, 39, -1,
          40, 39, 41, -1,
          42, 40, 41, -1,
          43, 40, 42, -1,
          44, 43, 42, -1,
          44, 42, 45, -1,
          46, 44, 45, -1,
          46, 45, 47, -1,
          48, 46, 47, -1,
          48, 47, 49, -1,
          50, 48, 49, -1,
          50, 49, 51, -1,
          52, 50, 51, -1,
          52, 51, 53, -1,
          54, 53, 55, -1,
          54, 52, 53, -1,
          56, 55, 57, -1,
          56, 54, 55, -1,
          58, 57, 59, -1,
          58, 56, 57, -1,
          60, 59, 61, -1,
          60, 58, 59, -1,
          62, 61, 63, -1,
          62, 60, 61, -1,
          64, 63, 65, -1,
          64, 62, 63, -1,
          66, 65, 67, -1,
          66, 64, 65, -1,
          68, 67, 69, -1,
          68, 66, 67, -1,
          70, 69, 71, -1,
          70, 68, 69, -1,
          72, 71, 73, -1,
          72, 70, 71, -1,
          74, 73, 75, -1,
          74, 72, 73, -1,
          76, 75, 77, -1,
          76, 74, 75, -1,
          78, 76, 77, -1,
          79, 76, 78, -1,
          80, 78, 81, -1,
          80, 79, 78, -1,
          82, 81, 83, -1,
          82, 80, 81, -1,
          84, 83, 85, -1,
          84, 82, 83, -1,
          86, 85, 87, -1,
          86, 84, 85, -1,
          88, 86, 87, -1,
          88, 87, 89, -1,
          90, 88, 89, -1,
          91, 88, 90, -1,
          92, 91, 90, -1,
          92, 90, 93, -1,
          94, 92, 93, -1,
          94, 93, 95, -1,
          96, 95, 97, -1,
          96, 94, 95, -1,
          98, 96, 97, -1,
          99, 96, 98, -1,
          100, 98, 101, -1,
          100, 99, 98, -1,
          102, 101, 103, -1,
          102, 100, 101, -1,
          104, 102, 103, -1,
          105, 102, 104, -1,
          106, 104, 107, -1,
          106, 105, 104, -1,
          108, 107, 109, -1,
          108, 106, 107, -1,
          110, 109, 111, -1,
          110, 108, 109, -1,
          112, 111, 113, -1,
          112, 110, 111, -1,
          114, 113, 115, -1,
          114, 112, 113, -1,
          116, 115, 117, -1,
          116, 114, 115, -1,
          118, 117, 119, -1,
          118, 116, 117, -1,
          120, 119, 121, -1,
          120, 118, 119, -1,
          122, 121, 123, -1,
          122, 120, 121, -1,
          124, 123, 125, -1,
          124, 122, 123, -1,
          126, 125, 127, -1,
          126, 124, 125, -1,
          124, 128, 129, -1,
          124, 126, 128, -1,
          122, 129, 130, -1,
          122, 130, 131, -1,
          122, 124, 129, -1,
          120, 122, 131, -1,
          118, 131, 132, -1,
          118, 120, 131, -1,
          116, 132, 133, -1,
          116, 133, 134, -1,
          116, 118, 132, -1,
          114, 134, 135, -1,
          114, 116, 134, -1,
          112, 114, 135, -1,
          110, 135, 136, -1,
          110, 112, 135, -1,
          108, 136, 137, -1,
          108, 110, 136, -1,
          106, 137, 138, -1,
          106, 108, 137, -1,
          105, 138, 139, -1,
          105, 106, 138, -1,
          102, 139, 140, -1,
          102, 105, 139, -1,
          100, 140, 141, -1,
          100, 102, 140, -1,
          99, 141, 142, -1,
          99, 100, 141, -1,
          96, 142, 143, -1,
          96, 99, 142, -1,
          94, 143, 144, -1,
          94, 144, 145, -1,
          94, 96, 143, -1,
          92, 145, 146, -1,
          92, 94, 145, -1,
          91, 92, 146, -1,
          88, 91, 146, -1,
          88, 146, 147, -1,
          86, 88, 147, -1,
          86, 147, 148, -1,
          86, 148, 149, -1,
          84, 86, 149, -1,
          82, 84, 149, -1,
          82, 149, 150, -1,
          80, 150, 151, -1,
          80, 82, 150, -1,
          79, 151, 152, -1,
          79, 80, 151, -1,
          76, 152, 153, -1,
          76, 153, 154, -1,
          76, 79, 152, -1,
          74, 154, 155, -1,
          74, 76, 154, -1,
          72, 74, 155, -1,
          70, 155, 156, -1,
          70, 156, 157, -1,
          70, 72, 155, -1,
          68, 70, 157, -1,
          66, 157, 158, -1,
          66, 158, 159, -1,
          66, 68, 157, -1,
          64, 66, 159, -1,
          62, 159, 160, -1,
          62, 64, 159, -1,
          60, 160, 161, -1,
          60, 62, 160, -1,
          58, 161, 162, -1,
          58, 60, 161, -1,
          56, 162, 163, -1,
          56, 58, 162, -1,
          54, 163, 164, -1,
          54, 56, 163, -1,
          52, 164, 165, -1,
          52, 165, 166, -1,
          52, 54, 164, -1,
          50, 52, 166, -1,
          48, 166, 167, -1,
          48, 50, 166, -1,
          46, 167, 168, -1,
          46, 48, 167, -1,
          44, 168, 169, -1,
          44, 169, 170, -1,
          44, 46, 168, -1,
          43, 44, 170, -1,
          40, 43, 170, -1,
          40, 170, 171, -1,
          38, 40, 171, -1,
          38, 171, 172, -1,
          37, 38, 172, -1,
          37, 172, 173, -1,
          37, 173, 174, -1,
          34, 37, 174, -1,
          32, 34, 174, -1,
          32, 174, 175, -1,
          30, 32, 175, -1,
          30, 175, 176, -1,
          28, 30, 176, -1,
          28, 176, 177, -1,
          26, 28, 177, -1,
          26, 177, 178, -1,
          24, 26, 178, -1,
          24, 178, 179, -1,
          22, 24, 179, -1,
          22, 179, 180, -1,
          20, 22, 180, -1,
          20, 180, 181, -1,
          18, 20, 181, -1,
          18, 181, 182, -1,
          16, 18, 182, -1,
          16, 182, 183, -1,
          14, 183, 184, -1,
          14, 16, 183, -1,
          14, 184, 185, -1,
          12, 14, 185, -1,
          10, 12, 185, -1,
          10, 185, 186, -1,
          10, 186, 187, -1,
          8, 10, 187, -1,
          6, 187, 188, -1,
          6, 8, 187, -1,
          4, 188, 189, -1,
          4, 6, 188, -1,
          0, 189, 190, -1,
          0, 4, 189, -1,
          1, 190, 191, -1,
          1, 0, 190, -1,
          129, 192, 193, -1,
          129, 128, 192, -1,
          130, 193, 194, -1,
          130, 129, 193, -1,
          131, 194, 195, -1,
          131, 130, 194, -1,
          132, 195, 196, -1,
          132, 131, 195, -1,
          133, 196, 197, -1,
          133, 132, 196, -1,
          134, 197, 198, -1,
          134, 133, 197, -1,
          135, 198, 199, -1,
          135, 134, 198, -1,
          136, 199, 200, -1,
          136, 135, 199, -1,
          137, 200, 201, -1,
          137, 136, 200, -1,
          138, 201, 202, -1,
          138, 137, 201, -1,
          203, 138, 202, -1,
          139, 138, 203, -1,
          140, 203, 204, -1,
          140, 139, 203, -1,
          141, 204, 205, -1,
          141, 140, 204, -1,
          206, 141, 205, -1,
          142, 141, 206, -1,
          143, 206, 207, -1,
          143, 142, 206, -1,
          208, 143, 207, -1,
          144, 143, 208, -1,
          145, 208, 209, -1,
          145, 144, 208, -1,
          146, 209, 210, -1,
          146, 145, 209, -1,
          147, 146, 210, -1,
          147, 210, 211, -1,
          212, 147, 211, -1,
          148, 147, 212, -1,
          149, 148, 212, -1,
          149, 212, 213, -1,
          150, 149, 213, -1,
          150, 213, 214, -1,
          151, 150, 214, -1,
          151, 214, 215, -1,
          152, 215, 216, -1,
          152, 151, 215, -1,
          217, 152, 216, -1,
          153, 152, 217, -1,
          218, 153, 217, -1,
          154, 153, 218, -1,
          155, 218, 219, -1,
          155, 154, 218, -1,
          156, 219, 220, -1,
          156, 155, 219, -1,
          157, 220, 221, -1,
          157, 156, 220, -1,
          158, 221, 222, -1,
          158, 157, 221, -1,
          159, 222, 223, -1,
          159, 158, 222, -1,
          160, 223, 224, -1,
          160, 159, 223, -1,
          161, 224, 225, -1,
          161, 160, 224, -1,
          162, 225, 226, -1,
          162, 161, 225, -1,
          163, 226, 227, -1,
          163, 162, 226, -1,
          164, 227, 228, -1,
          164, 163, 227, -1,
          165, 228, 229, -1,
          165, 164, 228, -1,
          166, 229, 230, -1,
          166, 165, 229, -1,
          167, 230, 231, -1,
          167, 166, 230, -1,
          168, 231, 232, -1,
          168, 167, 231, -1,
          169, 232, 233, -1,
          169, 168, 232, -1,
          170, 233, 234, -1,
          170, 169, 233, -1,
          235, 170, 234, -1,
          171, 170, 235, -1,
          172, 171, 235, -1,
          172, 235, 236, -1,
          173, 172, 236, -1,
          173, 236, 237, -1,
          238, 173, 237, -1,
          174, 173, 238, -1,
          175, 174, 238, -1,
          175, 238, 239, -1,
          240, 175, 239, -1,
          176, 175, 240, -1,
          177, 176, 240, -1,
          177, 240, 241, -1,
          178, 177, 241, -1,
          178, 241, 242, -1,
          179, 178, 242, -1,
          179, 242, 243, -1,
          244, 179, 243, -1,
          180, 179, 244, -1,
          181, 180, 244, -1,
          181, 244, 245, -1,
          182, 181, 245, -1,
          182, 245, 246, -1,
          183, 182, 246, -1,
          183, 246, 247, -1,
          184, 183, 247, -1,
          184, 247, 248, -1,
          185, 184, 248, -1,
          185, 248, 249, -1,
          186, 249, 250, -1,
          186, 185, 249, -1,
          187, 250, 251, -1,
          187, 186, 250, -1,
          188, 251, 252, -1,
          188, 187, 251, -1,
          253, 188, 252, -1,
          189, 188, 253, -1,
          190, 253, 254, -1,
          190, 189, 253, -1,
          191, 254, 255, -1,
          191, 190, 254, -1,
          255, 256, 257, -1,
          257, 256, 258, -1,
          258, 256, 259, -1,
          259, 256, 260, -1,
          260, 256, 261, -1,
          261, 256, 262, -1,
          262, 256, 263, -1,
          264, 265, 266, -1,
          265, 267, 266, -1,
          265, 268, 267, -1,
          265, 269, 268, -1,
          265, 270, 269, -1,
          265, 271, 270, -1,
          265, 192, 271, -1,
          272, 273, 256, -1,
          263, 273, 274, -1,
          274, 273, 275, -1,
          275, 273, 276, -1,
          276, 273, 277, -1,
          277, 273, 278, -1,
          278, 273, 279, -1,
          279, 273, 280, -1,
          280, 273, 281, -1,
          281, 273, 282, -1,
          282, 273, 283, -1,
          256, 273, 263, -1,
          273, 284, 283, -1,
          285, 284, 272, -1,
          283, 284, 286, -1,
          286, 284, 287, -1,
          287, 284, 288, -1,
          288, 284, 289, -1,
          289, 284, 290, -1,
          290, 284, 291, -1,
          291, 284, 292, -1,
          292, 284, 293, -1,
          293, 284, 294, -1,
          294, 284, 295, -1,
          295, 284, 296, -1,
          296, 284, 297, -1,
          297, 284, 298, -1,
          298, 284, 299, -1,
          299, 284, 300, -1,
          272, 284, 273, -1,
          301, 302, 285, -1,
          284, 302, 300, -1,
          300, 302, 303, -1,
          303, 302, 304, -1,
          304, 302, 305, -1,
          305, 302, 306, -1,
          306, 302, 307, -1,
          307, 302, 308, -1,
          308, 302, 309, -1,
          309, 302, 310, -1,
          310, 302, 311, -1,
          311, 302, 312, -1,
          312, 302, 313, -1,
          313, 302, 314, -1,
          314, 302, 315, -1,
          315, 302, 316, -1,
          285, 302, 284, -1,
          265, 317, 301, -1,
          302, 317, 316, -1,
          316, 317, 318, -1,
          318, 317, 319, -1,
          319, 317, 320, -1,
          320, 317, 321, -1,
          321, 317, 322, -1,
          322, 317, 323, -1,
          323, 317, 324, -1,
          324, 317, 325, -1,
          301, 317, 302, -1,
          325, 317, 326, -1,
          326, 317, 264, -1,
          264, 317, 265, -1,
          250, 256, 251, -1,
          251, 256, 252, -1,
          252, 256, 253, -1,
          253, 256, 254, -1,
          254, 256, 255, -1,
          250, 249, 256, -1,
          249, 248, 256, -1,
          265, 193, 192, -1,
          265, 194, 193, -1,
          265, 195, 194, -1,
          265, 196, 195, -1,
          265, 197, 196, -1,
          265, 198, 197, -1,
          265, 199, 198, -1,
          238, 327, 239, -1,
          239, 327, 240, -1,
          240, 327, 241, -1,
          241, 327, 242, -1,
          242, 327, 243, -1,
          243, 327, 244, -1,
          244, 327, 245, -1,
          245, 327, 246, -1,
          246, 327, 247, -1,
          247, 327, 248, -1,
          248, 327, 256, -1,
          224, 328, 225, -1,
          225, 328, 226, -1,
          226, 328, 227, -1,
          227, 328, 228, -1,
          228, 328, 229, -1,
          229, 328, 230, -1,
          230, 328, 231, -1,
          231, 328, 232, -1,
          232, 328, 233, -1,
          233, 328, 234, -1,
          234, 328, 235, -1,
          235, 328, 236, -1,
          236, 328, 237, -1,
          237, 328, 238, -1,
          238, 328, 327, -1,
          256, 328, 272, -1,
          272, 328, 285, -1,
          327, 328, 256, -1,
          285, 329, 301, -1,
          328, 329, 285, -1,
          209, 329, 210, -1,
          210, 329, 211, -1,
          211, 329, 212, -1,
          212, 329, 213, -1,
          213, 329, 214, -1,
          214, 329, 215, -1,
          215, 329, 216, -1,
          216, 329, 217, -1,
          217, 329, 218, -1,
          218, 329, 219, -1,
          219, 329, 220, -1,
          220, 329, 221, -1,
          221, 329, 222, -1,
          222, 329, 223, -1,
          223, 329, 224, -1,
          224, 329, 328, -1,
          301, 330, 265, -1,
          199, 330, 200, -1,
          200, 330, 201, -1,
          201, 330, 202, -1,
          202, 330, 203, -1,
          329, 330, 301, -1,
          203, 330, 204, -1,
          204, 330, 205, -1,
          205, 330, 206, -1,
          206, 330, 207, -1,
          207, 330, 208, -1,
          208, 330, 209, -1,
          265, 330, 199, -1,
          209, 330, 329, -1,
          331, 191, 255, -1,
          331, 255, 257, -1,
          332, 257, 258, -1,
          332, 331, 257, -1,
          333, 258, 259, -1,
          333, 332, 258, -1,
          334, 259, 260, -1,
          334, 333, 259, -1,
          335, 260, 261, -1,
          335, 334, 260, -1,
          336, 261, 262, -1,
          336, 335, 261, -1,
          337, 262, 263, -1,
          337, 336, 262, -1,
          338, 263, 274, -1,
          338, 337, 263, -1,
          339, 274, 275, -1,
          339, 338, 274, -1,
          340, 275, 276, -1,
          340, 339, 275, -1,
          341, 276, 277, -1,
          341, 340, 276, -1,
          342, 277, 278, -1,
          342, 341, 277, -1,
          343, 278, 279, -1,
          343, 342, 278, -1,
          280, 343, 279, -1,
          344, 343, 280, -1,
          345, 280, 281, -1,
          345, 344, 280, -1,
          346, 281, 282, -1,
          346, 345, 281, -1,
          283, 346, 282, -1,
          347, 346, 283, -1,
          286, 347, 283, -1,
          348, 347, 286, -1,
          349, 348, 286, -1,
          349, 286, 287, -1,
          350, 349, 287, -1,
          350, 287, 288, -1,
          289, 350, 288, -1,
          351, 350, 289, -1,
          352, 351, 289, -1,
          352, 289, 290, -1,
          291, 352, 290, -1,
          353, 352, 291, -1,
          354, 291, 292, -1,
          354, 353, 291, -1,
          355, 292, 293, -1,
          355, 354, 292, -1,
          356, 293, 294, -1,
          356, 355, 293, -1,
          357, 294, 295, -1,
          357, 356, 294, -1,
          358, 295, 296, -1,
          358, 357, 295, -1,
          359, 296, 297, -1,
          359, 358, 296, -1,
          360, 297, 298, -1,
          360, 359, 297, -1,
          361, 298, 299, -1,
          361, 360, 298, -1,
          362, 299, 300, -1,
          362, 361, 299, -1,
          363, 300, 303, -1,
          363, 362, 300, -1,
          364, 303, 304, -1,
          364, 363, 303, -1,
          365, 304, 305, -1,
          365, 364, 304, -1,
          366, 305, 306, -1,
          366, 365, 305, -1,
          367, 306, 307, -1,
          367, 366, 306, -1,
          368, 307, 308, -1,
          368, 367, 307, -1,
          309, 368, 308, -1,
          369, 368, 309, -1,
          370, 309, 310, -1,
          370, 369, 309, -1,
          371, 310, 311, -1,
          371, 370, 310, -1,
          372, 311, 312, -1,
          372, 371, 311, -1,
          313, 372, 312, -1,
          373, 372, 313, -1,
          374, 373, 313, -1,
          374, 313, 314, -1,
          315, 374, 314, -1,
          375, 374, 315, -1,
          316, 375, 315, -1,
          376, 375, 316, -1,
          377, 376, 316, -1,
          377, 316, 318, -1,
          378, 377, 318, -1,
          378, 318, 319, -1,
          379, 378, 319, -1,
          379, 319, 320, -1,
          321, 379, 320, -1,
          380, 379, 321, -1,
          381, 380, 321, -1,
          381, 321, 322, -1,
          323, 381, 322, -1,
          382, 381, 323, -1,
          383, 382, 323, -1,
          383, 323, 324, -1,
          384, 383, 324, -1,
          384, 324, 325, -1,
          385, 384, 325, -1,
          385, 325, 326, -1,
          386, 385, 326, -1,
          386, 326, 264, -1,
          387, 386, 264, -1,
          387, 264, 266, -1,
          388, 266, 267, -1,
          388, 387, 266, -1,
          389, 267, 268, -1,
          389, 388, 267, -1,
          390, 268, 269, -1,
          390, 389, 268, -1,
          391, 269, 270, -1,
          391, 390, 269, -1,
          392, 270, 271, -1,
          392, 391, 270, -1,
          128, 271, 192, -1,
          128, 392, 271, -1,
          393, 1, 191, -1,
          393, 191, 331, -1,
          394, 331, 332, -1,
          394, 393, 331, -1,
          395, 332, 333, -1,
          395, 394, 332, -1,
          396, 333, 334, -1,
          396, 395, 333, -1,
          397, 334, 335, -1,
          397, 335, 336, -1,
          397, 396, 334, -1,
          398, 397, 336, -1,
          399, 336, 337, -1,
          399, 337, 338, -1,
          399, 398, 336, -1,
          400, 399, 338, -1,
          401, 338, 339, -1,
          401, 400, 338, -1,
          402, 339, 340, -1,
          402, 340, 341, -1,
          402, 401, 339, -1,
          403, 402, 341, -1,
          404, 341, 342, -1,
          404, 403, 341, -1,
          405, 342, 343, -1,
          405, 404, 342, -1,
          406, 343, 344, -1,
          406, 344, 345, -1,
          406, 405, 343, -1,
          407, 406, 345, -1,
          408, 345, 346, -1,
          408, 346, 347, -1,
          408, 407, 345, -1,
          409, 408, 347, -1,
          410, 409, 347, -1,
          410, 347, 348, -1,
          411, 410, 348, -1,
          411, 348, 349, -1,
          412, 411, 349, -1,
          412, 349, 350, -1,
          413, 412, 350, -1,
          413, 350, 351, -1,
          414, 413, 351, -1,
          414, 351, 352, -1,
          415, 352, 353, -1,
          415, 414, 352, -1,
          416, 353, 354, -1,
          416, 415, 353, -1,
          417, 354, 355, -1,
          417, 416, 354, -1,
          418, 355, 356, -1,
          418, 417, 355, -1,
          419, 356, 357, -1,
          419, 418, 356, -1,
          420, 357, 358, -1,
          420, 358, 359, -1,
          420, 419, 357, -1,
          421, 420, 359, -1,
          422, 359, 360, -1,
          422, 421, 359, -1,
          423, 360, 361, -1,
          423, 422, 360, -1,
          424, 361, 362, -1,
          424, 423, 361, -1,
          425, 362, 363, -1,
          425, 424, 362, -1,
          426, 363, 364, -1,
          426, 425, 363, -1,
          427, 364, 365, -1,
          427, 426, 364, -1,
          428, 365, 366, -1,
          428, 366, 367, -1,
          428, 427, 365, -1,
          429, 428, 367, -1,
          430, 367, 368, -1,
          430, 368, 369, -1,
          430, 429, 367, -1,
          431, 430, 369, -1,
          432, 369, 370, -1,
          432, 370, 371, -1,
          432, 431, 369, -1,
          433, 432, 371, -1,
          434, 371, 372, -1,
          434, 372, 373, -1,
          434, 433, 371, -1,
          435, 434, 373, -1,
          436, 435, 373, -1,
          436, 373, 374, -1,
          436, 374, 375, -1,
          437, 436, 375, -1,
          437, 375, 376, -1,
          438, 437, 376, -1,
          438, 376, 377, -1,
          439, 438, 377, -1,
          440, 439, 377, -1,
          440, 377, 378, -1,
          441, 440, 378, -1,
          441, 378, 379, -1,
          442, 441, 379, -1,
          442, 379, 380, -1,
          443, 442, 380, -1,
          443, 380, 381, -1,
          444, 443, 381, -1,
          444, 381, 382, -1,
          445, 444, 382, -1,
          445, 382, 383, -1,
          445, 383, 384, -1,
          446, 445, 384, -1,
          447, 446, 384, -1,
          447, 384, 385, -1,
          448, 447, 385, -1,
          448, 385, 386, -1,
          448, 386, 387, -1,
          449, 448, 387, -1,
          450, 449, 387, -1,
          450, 387, 388, -1,
          451, 388, 389, -1,
          451, 450, 388, -1,
          452, 389, 390, -1,
          452, 390, 391, -1,
          452, 451, 389, -1,
          453, 452, 391, -1,
          454, 391, 392, -1,
          454, 453, 391, -1,
          126, 392, 128, -1,
          126, 454, 392, -1,
          454, 126, 127, -1,
          454, 127, 455, -1,
          453, 454, 455, -1,
          453, 455, 456, -1,
          452, 453, 456, -1,
          452, 456, 457, -1,
          451, 452, 457, -1,
          451, 457, 458, -1,
          450, 451, 458, -1,
          450, 458, 459, -1,
          449, 450, 459, -1,
          449, 459, 460, -1,
          448, 460, 461, -1,
          448, 449, 460, -1,
          447, 461, 462, -1,
          447, 448, 461, -1,
          446, 462, 463, -1,
          446, 447, 462, -1,
          445, 463, 464, -1,
          445, 446, 463, -1,
          465, 445, 464, -1,
          444, 445, 465, -1,
          443, 465, 466, -1,
          443, 444, 465, -1,
          442, 466, 467, -1,
          442, 443, 466, -1,
          468, 442, 467, -1,
          441, 442, 468, -1,
          440, 468, 469, -1,
          440, 441, 468, -1,
          439, 469, 470, -1,
          439, 440, 469, -1,
          438, 470, 471, -1,
          438, 439, 470, -1,
          437, 438, 471, -1,
          437, 471, 472, -1,
          436, 437, 472, -1,
          436, 472, 473, -1,
          435, 436, 473, -1,
          435, 473, 474, -1,
          434, 435, 474, -1,
          434, 474, 475, -1,
          476, 434, 475, -1,
          433, 434, 476, -1,
          432, 433, 476, -1,
          432, 476, 477, -1,
          431, 432, 477, -1,
          431, 477, 478, -1,
          430, 431, 478, -1,
          430, 478, 479, -1,
          429, 430, 479, -1,
          429, 479, 480, -1,
          428, 429, 480, -1,
          428, 480, 481, -1,
          427, 481, 482, -1,
          427, 428, 481, -1,
          426, 482, 483, -1,
          426, 427, 482, -1,
          425, 483, 484, -1,
          425, 426, 483, -1,
          424, 484, 485, -1,
          424, 425, 484, -1,
          423, 485, 486, -1,
          423, 424, 485, -1,
          422, 486, 487, -1,
          422, 423, 486, -1,
          421, 487, 488, -1,
          421, 422, 487, -1,
          420, 488, 489, -1,
          420, 421, 488, -1,
          419, 489, 490, -1,
          419, 420, 489, -1,
          418, 490, 491, -1,
          418, 419, 490, -1,
          417, 491, 492, -1,
          417, 418, 491, -1,
          416, 492, 493, -1,
          416, 417, 492, -1,
          494, 416, 493, -1,
          415, 416, 494, -1,
          414, 494, 495, -1,
          414, 415, 494, -1,
          413, 495, 496, -1,
          413, 414, 495, -1,
          412, 496, 497, -1,
          412, 413, 496, -1,
          411, 412, 497, -1,
          411, 497, 498, -1,
          410, 411, 498, -1,
          410, 498, 499, -1,
          409, 410, 499, -1,
          409, 499, 500, -1,
          501, 409, 500, -1,
          408, 409, 501, -1,
          407, 501, 502, -1,
          407, 408, 501, -1,
          503, 407, 502, -1,
          406, 407, 503, -1,
          405, 503, 504, -1,
          405, 406, 503, -1,
          404, 504, 505, -1,
          404, 405, 504, -1,
          506, 404, 505, -1,
          403, 404, 506, -1,
          402, 506, 507, -1,
          402, 403, 506, -1,
          401, 507, 508, -1,
          401, 402, 507, -1,
          400, 508, 509, -1,
          400, 401, 508, -1,
          399, 509, 510, -1,
          399, 400, 509, -1,
          398, 510, 511, -1,
          398, 399, 510, -1,
          397, 511, 512, -1,
          397, 398, 511, -1,
          396, 512, 513, -1,
          396, 397, 512, -1,
          395, 513, 514, -1,
          395, 396, 513, -1,
          394, 514, 515, -1,
          394, 395, 514, -1,
          393, 515, 516, -1,
          393, 394, 515, -1,
          1, 516, 2, -1,
          1, 393, 516, -1,
          504, 503, 502, -1,
          498, 501, 500, -1,
          498, 500, 499, -1,
          505, 502, 501, -1,
          505, 504, 502, -1,
          496, 498, 497, -1,
          507, 506, 505, -1,
          494, 496, 495, -1,
          494, 501, 498, -1,
          494, 505, 501, -1,
          494, 498, 496, -1,
          511, 510, 509, -1,
          511, 509, 508, -1,
          511, 508, 507, -1,
          511, 507, 505, -1,
          490, 493, 492, -1,
          490, 492, 491, -1,
          488, 494, 493, -1,
          488, 490, 489, -1,
          488, 493, 490, -1,
          487, 512, 511, -1,
          487, 505, 494, -1,
          487, 511, 505, -1,
          487, 494, 488, -1,
          2, 516, 515, -1,
          2, 515, 514, -1,
          2, 514, 513, -1,
          2, 513, 512, -1,
          484, 486, 485, -1,
          13, 11, 9, -1,
          13, 9, 7, -1,
          13, 7, 5, -1,
          13, 5, 3, -1,
          13, 3, 2, -1,
          478, 484, 483, -1,
          478, 483, 482, -1,
          478, 482, 481, -1,
          478, 481, 480, -1,
          478, 480, 479, -1,
          478, 486, 484, -1,
          17, 13, 2, -1,
          17, 15, 13, -1,
          21, 17, 2, -1,
          21, 19, 17, -1,
          21, 2, 512, -1,
          475, 477, 476, -1,
          474, 477, 475, -1,
          474, 478, 477, -1,
          473, 486, 478, -1,
          473, 478, 474, -1,
          27, 25, 23, -1,
          27, 23, 21, -1,
          31, 29, 27, -1,
          33, 27, 21, -1,
          33, 31, 27, -1,
          469, 473, 472, -1,
          469, 472, 471, -1,
          469, 471, 470, -1,
          35, 33, 21, -1,
          36, 35, 21, -1,
          467, 469, 468, -1,
          467, 473, 469, -1,
          39, 36, 21, -1,
          41, 39, 21, -1,
          463, 465, 464, -1,
          462, 467, 466, -1,
          462, 466, 465, -1,
          462, 465, 463, -1,
          49, 47, 45, -1,
          49, 45, 42, -1,
          49, 42, 41, -1,
          49, 41, 21, -1,
          460, 462, 461, -1,
          460, 467, 462, -1,
          53, 51, 49, -1,
          459, 467, 460, -1,
          55, 53, 49, -1,
          457, 459, 458, -1,
          456, 459, 457, -1,
          456, 473, 467, -1,
          456, 467, 459, -1,
          61, 59, 57, -1,
          61, 57, 55, -1,
          71, 61, 55, -1,
          71, 487, 486, -1,
          71, 21, 512, -1,
          71, 486, 473, -1,
          71, 512, 487, -1,
          71, 49, 21, -1,
          71, 69, 67, -1,
          71, 67, 65, -1,
          71, 65, 63, -1,
          71, 63, 61, -1,
          71, 55, 49, -1,
          119, 456, 455, -1,
          119, 455, 127, -1,
          119, 127, 125, -1,
          119, 125, 123, -1,
          119, 123, 121, -1,
          75, 73, 71, -1,
          115, 473, 456, -1,
          115, 456, 119, -1,
          115, 119, 117, -1,
          77, 75, 71, -1,
          78, 77, 71, -1,
          111, 115, 113, -1,
          81, 78, 71, -1,
          107, 473, 115, -1,
          107, 115, 111, -1,
          107, 111, 109, -1,
          85, 71, 473, -1,
          85, 473, 107, -1,
          85, 81, 71, -1,
          85, 83, 81, -1,
          90, 89, 87, -1,
          90, 87, 85, -1,
          93, 85, 107, -1,
          93, 90, 85, -1,
          93, 107, 104, -1,
          93, 104, 103, -1,
          93, 103, 101, -1,
          93, 101, 98, -1,
          95, 93, 98, -1,
          95, 98, 97, -1
        ]
      }
    }
}
