#VRML V2.0 utf8
WorldInfo {
  title "Exported triangle mesh to VRML97"
  info ["Created by FreeCAD"
        "<https://www.freecad.org>"]
}

Transform {
  scale 1 1 1
  rotation 0 0 1 0
  scaleOrientation 0 0 1 0
  center 0.000 0.000 0.000
  translation 0.000 0.000 0.000
  children
    Shape { 
      appearance
      Appearance {
        material
        Material {
          diffuseColor 0.8 0.8 0.8
        }
      }
      geometry
      IndexedFaceSet {
        coord
        Coordinate {
          point [
            -6.101 0.300 2.163,
            -6.350 0.000 1.981,
            -6.108 0.000 2.163,
            -6.342 0.317 1.981,
            -6.079 0.599 2.163,
            -6.318 0.632 1.981,
            -6.042 0.896 2.163,
            -6.279 0.946 1.981,
            -5.991 1.192 2.163,
            -6.224 1.258 1.981,
            -5.925 1.484 2.163,
            -6.154 1.567 1.981,
            -5.845 1.773 2.163,
            -6.068 1.872 1.981,
            -5.751 2.058 2.163,
            -5.967 2.172 1.981,
            -5.643 2.338 2.163,
            -5.851 2.467 1.981,
            -5.522 2.612 2.163,
            -5.721 2.755 1.981,
            -5.387 2.879 2.163,
            -5.577 3.037 1.981,
            -5.239 3.140 2.163,
            -5.418 3.311 1.981,
            -5.079 3.394 2.163,
            -5.247 3.577 1.981,
            -4.906 3.639 2.163,
            -5.062 3.834 1.981,
            -4.722 3.875 2.163,
            -4.864 4.082 1.981,
            -4.526 4.102 2.163,
            -4.655 4.319 1.981,
            -4.319 4.319 2.163,
            -4.434 4.546 1.981,
            -4.102 4.526 2.163,
            -4.202 4.761 1.981,
            -3.875 4.722 2.163,
            -3.959 4.965 1.981,
            -3.639 4.906 2.163,
            -3.707 5.156 1.981,
            -3.394 5.079 2.163,
            -3.445 5.334 1.981,
            -3.140 5.239 2.163,
            -3.175 5.499 1.981,
            -2.879 5.387 2.163,
            -2.897 5.651 1.981,
            -2.612 5.522 2.163,
            -2.612 5.788 1.981,
            -2.338 5.643 2.163,
            -2.320 5.911 1.981,
            -2.058 5.751 2.163,
            -2.022 6.019 1.981,
            -1.773 5.845 2.163,
            -1.720 6.113 1.981,
            -1.484 5.925 2.163,
            -1.413 6.191 1.981,
            -1.192 5.991 2.163,
            -1.103 6.254 1.981,
            -0.896 6.042 2.163,
            -0.790 6.301 1.981,
            -0.599 6.079 2.163,
            -0.475 6.332 1.981,
            -0.300 6.101 2.163,
            -0.158 6.348 1.981,
            0.000 6.108 2.163,
            0.158 6.348 1.981,
            0.300 6.101 2.163,
            0.475 6.332 1.981,
            0.599 6.079 2.163,
            0.790 6.301 1.981,
            0.896 6.042 2.163,
            1.103 6.254 1.981,
            1.192 5.991 2.163,
            1.413 6.191 1.981,
            1.484 5.925 2.163,
            1.720 6.113 1.981,
            1.773 5.845 2.163,
            2.022 6.019 1.981,
            2.058 5.751 2.163,
            2.320 5.911 1.981,
            2.338 5.643 2.163,
            2.612 5.788 1.981,
            2.612 5.522 2.163,
            2.897 5.651 1.981,
            2.879 5.387 2.163,
            3.175 5.499 1.981,
            3.140 5.239 2.163,
            3.445 5.334 1.981,
            3.394 5.079 2.163,
            3.707 5.156 1.981,
            3.639 4.906 2.163,
            3.959 4.965 1.981,
            3.875 4.722 2.163,
            4.202 4.761 1.981,
            4.102 4.526 2.163,
            4.434 4.546 1.981,
            4.319 4.319 2.163,
            4.655 4.319 1.981,
            4.526 4.102 2.163,
            4.864 4.082 1.981,
            4.722 3.875 2.163,
            5.062 3.834 1.981,
            4.906 3.639 2.163,
            5.247 3.577 1.981,
            5.079 3.394 2.163,
            5.418 3.311 1.981,
            5.239 3.140 2.163,
            5.577 3.037 1.981,
            5.387 2.879 2.163,
            5.721 2.755 1.981,
            5.522 2.612 2.163,
            5.851 2.467 1.981,
            5.643 2.338 2.163,
            5.967 2.172 1.981,
            5.751 2.058 2.163,
            6.068 1.872 1.981,
            5.845 1.773 2.163,
            6.154 1.567 1.981,
            5.925 1.484 2.163,
            6.224 1.258 1.981,
            5.991 1.192 2.163,
            6.279 0.946 1.981,
            6.042 0.896 2.163,
            6.318 0.632 1.981,
            6.079 0.599 2.163,
            6.342 0.317 1.981,
            6.101 0.300 2.163,
            6.350 0.000 1.981,
            6.108 0.000 2.163,
            6.350 0.000 -1.913,
            6.100 0.000 -2.163,
            6.092 0.304 -2.163,
            6.342 0.317 -1.913,
            6.070 0.607 -2.163,
            6.318 0.632 -1.913,
            6.032 0.909 -2.163,
            6.279 0.946 -1.913,
            5.979 1.209 -2.163,
            6.224 1.258 -1.913,
            5.911 1.505 -2.163,
            6.154 1.567 -1.913,
            5.829 1.798 -2.163,
            6.068 1.872 -1.913,
            5.732 2.086 -2.163,
            5.967 2.172 -1.913,
            5.621 2.369 -2.163,
            5.851 2.467 -1.913,
            5.496 2.647 -2.163,
            5.721 2.755 -1.913,
            5.357 2.917 -2.163,
            5.577 3.037 -1.913,
            5.205 3.181 -2.163,
            5.418 3.311 -1.913,
            5.040 3.436 -2.163,
            5.247 3.577 -1.913,
            4.863 3.683 -2.163,
            5.062 3.834 -1.913,
            4.673 3.921 -2.163,
            4.864 4.082 -1.913,
            4.472 4.149 -2.163,
            4.655 4.319 -1.913,
            4.259 4.367 -2.163,
            4.434 4.546 -1.913,
            4.036 4.574 -2.163,
            4.202 4.761 -1.913,
            3.803 4.769 -2.163,
            3.959 4.965 -1.913,
            3.561 4.953 -2.163,
            3.707 5.156 -1.913,
            3.310 5.124 -2.163,
            3.445 5.334 -1.913,
            3.050 5.283 -2.163,
            3.175 5.499 -1.913,
            2.783 5.428 -2.163,
            2.897 5.651 -1.913,
            2.509 5.560 -2.163,
            2.612 5.788 -1.913,
            2.229 5.678 -2.163,
            2.320 5.911 -1.913,
            1.943 5.782 -2.163,
            2.022 6.019 -1.913,
            1.652 5.872 -2.163,
            1.720 6.113 -1.913,
            1.357 5.947 -2.163,
            1.413 6.191 -1.913,
            1.059 6.007 -2.163,
            1.103 6.254 -1.913,
            0.758 6.053 -2.163,
            0.790 6.301 -1.913,
            0.456 6.083 -2.163,
            0.475 6.332 -1.913,
            0.152 6.098 -2.163,
            0.158 6.348 -1.913,
            -0.152 6.098 -2.163,
            -0.158 6.348 -1.913,
            -0.456 6.083 -2.163,
            -0.475 6.332 -1.913,
            -0.758 6.053 -2.163,
            -0.790 6.301 -1.913,
            -1.059 6.007 -2.163,
            -1.103 6.254 -1.913,
            -1.357 5.947 -2.163,
            -1.413 6.191 -1.913,
            -1.720 6.113 -1.913,
            -1.652 5.872 -2.163,
            -1.943 5.782 -2.163,
            -2.022 6.019 -1.913,
            -2.229 5.678 -2.163,
            -2.320 5.911 -1.913,
            -2.509 5.560 -2.163,
            -2.612 5.788 -1.913,
            -2.897 5.651 -1.913,
            -2.783 5.428 -2.163,
            -3.050 5.283 -2.163,
            -3.175 5.499 -1.913,
            -3.445 5.334 -1.913,
            -3.310 5.124 -2.163,
            -3.707 5.156 -1.913,
            -3.561 4.953 -2.163,
            -3.803 4.769 -2.163,
            -3.959 4.965 -1.913,
            -4.036 4.574 -2.163,
            -4.202 4.761 -1.913,
            -4.434 4.546 -1.913,
            -4.259 4.367 -2.163,
            -4.655 4.319 -1.913,
            -4.472 4.149 -2.163,
            -4.864 4.082 -1.913,
            -4.673 3.921 -2.163,
            -4.863 3.683 -2.163,
            -5.062 3.834 -1.913,
            -5.247 3.577 -1.913,
            -5.040 3.436 -2.163,
            -5.418 3.311 -1.913,
            -5.205 3.181 -2.163,
            -5.577 3.037 -1.913,
            -5.357 2.917 -2.163,
            -5.721 2.755 -1.913,
            -5.496 2.647 -2.163,
            -5.851 2.467 -1.913,
            -5.621 2.369 -2.163,
            -5.967 2.172 -1.913,
            -5.732 2.086 -2.163,
            -5.829 1.798 -2.163,
            -6.068 1.872 -1.913,
            -6.154 1.567 -1.913,
            -5.911 1.505 -2.163,
            -6.224 1.258 -1.913,
            -5.979 1.209 -2.163,
            -6.032 0.909 -2.163,
            -6.279 0.946 -1.913,
            -6.070 0.607 -2.163,
            -6.318 0.632 -1.913,
            -6.092 0.304 -2.163,
            -6.342 0.317 -1.913,
            -6.350 0.000 -1.913,
            -6.100 0.000 -2.163,
            0.000 5.109 1.912,
            -0.000 -5.109 1.912,
            0.599 -6.079 2.163,
            0.896 -6.042 2.163,
            0.300 -6.101 2.163,
            -0.000 -6.108 2.163,
            4.606 3.768 2.120,
            3.082 4.564 2.006,
            4.606 2.268 1.917,
            1.544 5.348 2.021,
            3.082 3.054 1.750,
            4.606 0.757 1.816,
            1.544 3.837 1.712,
            0.000 3.082 1.544,
            0.000 4.100 1.705,
            3.082 1.531 1.596,
            4.606 -0.757 1.816,
            5.925 -1.484 2.163,
            5.845 -1.773 2.163,
            5.991 -1.192 2.163,
            6.042 -0.896 2.163,
            6.079 -0.599 2.163,
            6.101 -0.300 2.163,
            1.544 2.309 1.505,
            0.000 2.058 1.429,
            3.082 -0.000 1.544,
            5.239 -3.140 2.163,
            4.606 -2.268 1.917,
            5.079 -3.394 2.163,
            5.387 -2.879 2.163,
            5.522 -2.612 2.163,
            5.643 -2.338 2.163,
            5.751 -2.058 2.163,
            1.544 0.771 1.402,
            0.000 0.000 1.337,
            0.000 1.030 1.360,
            3.082 -1.531 1.596,
            4.606 -3.768 2.120,
            4.526 -4.102 2.163,
            4.319 -4.319 2.163,
            4.722 -3.875 2.163,
            4.906 -3.639 2.163,
            1.544 -0.771 1.402,
            -0.000 -1.030 1.360,
            3.082 -3.054 1.750,
            4.102 -4.526 2.163,
            1.544 -2.309 1.505,
            -0.000 -2.058 1.429,
            -0.000 -3.082 1.544,
            3.082 -4.564 2.006,
            2.879 -5.387 2.163,
            2.612 -5.522 2.163,
            3.140 -5.239 2.163,
            3.394 -5.079 2.163,
            3.639 -4.906 2.163,
            3.875 -4.722 2.163,
            1.544 -3.837 1.712,
            -0.000 -4.100 1.705,
            1.544 -5.348 2.021,
            1.192 -5.991 2.163,
            1.484 -5.925 2.163,
            1.773 -5.845 2.163,
            2.058 -5.751 2.163,
            2.338 -5.643 2.163,
            -0.300 -6.101 2.163,
            -0.599 -6.079 2.163,
            -0.896 -6.042 2.163,
            -1.544 5.348 2.021,
            -1.544 3.837 1.712,
            -3.082 4.564 2.006,
            -1.544 2.309 1.505,
            -3.082 3.054 1.750,
            -1.544 0.771 1.402,
            -4.606 3.768 2.120,
            -3.082 1.531 1.596,
            -1.544 -0.771 1.402,
            -4.606 2.268 1.917,
            -3.082 -0.000 1.544,
            -1.544 -2.309 1.505,
            -4.606 0.757 1.816,
            -3.082 -1.531 1.596,
            -1.544 -3.837 1.712,
            -6.101 -0.300 2.163,
            -4.606 -0.757 1.816,
            -6.079 -0.599 2.163,
            -6.042 -0.896 2.163,
            -5.991 -1.192 2.163,
            -5.925 -1.484 2.163,
            -5.845 -1.773 2.163,
            -4.102 -4.526 2.163,
            -3.082 -3.054 1.750,
            -4.319 -4.319 2.163,
            -2.338 -5.643 2.163,
            -1.544 -5.348 2.021,
            -2.612 -5.522 2.163,
            -2.058 -5.751 2.163,
            -1.773 -5.845 2.163,
            -1.484 -5.925 2.163,
            -1.192 -5.991 2.163,
            -5.751 -2.058 2.163,
            -4.606 -2.268 1.917,
            -5.643 -2.338 2.163,
            -5.522 -2.612 2.163,
            -5.387 -2.879 2.163,
            -5.239 -3.140 2.163,
            -5.079 -3.394 2.163,
            -3.082 -4.564 2.006,
            -3.875 -4.722 2.163,
            -3.639 -4.906 2.163,
            -3.394 -5.079 2.163,
            -3.140 -5.239 2.163,
            -2.879 -5.387 2.163,
            -4.606 -3.768 2.120,
            -4.906 -3.639 2.163,
            -4.722 -3.875 2.163,
            -4.526 -4.102 2.163,
            -6.342 -0.317 1.981,
            -6.342 -0.317 -1.913,
            -6.318 -0.632 1.981,
            -6.318 -0.632 -1.913,
            -6.279 -0.946 1.981,
            -6.279 -0.946 -1.913,
            -6.224 -1.258 1.981,
            -6.224 -1.258 -1.913,
            -6.154 -1.567 1.981,
            -6.154 -1.567 -1.913,
            -6.068 -1.872 1.981,
            -6.068 -1.872 -1.913,
            -5.967 -2.172 1.981,
            -5.967 -2.172 -1.913,
            -5.851 -2.467 1.981,
            -5.851 -2.467 -1.913,
            -5.721 -2.755 1.981,
            -5.721 -2.755 -1.913,
            -5.577 -3.037 1.981,
            -5.577 -3.037 -1.913,
            -5.418 -3.311 1.981,
            -5.418 -3.311 -1.913,
            -5.247 -3.577 1.981,
            -5.247 -3.577 -1.913,
            -5.062 -3.834 1.981,
            -5.062 -3.834 -1.913,
            -4.864 -4.082 1.981,
            -4.864 -4.082 -1.913,
            -4.655 -4.319 1.981,
            -4.655 -4.319 -1.913,
            -4.434 -4.546 1.981,
            -4.434 -4.546 -1.913,
            -4.202 -4.761 1.981,
            -4.202 -4.761 -1.913,
            -3.959 -4.965 1.981,
            -3.959 -4.965 -1.913,
            -3.707 -5.156 1.981,
            -3.707 -5.156 -1.913,
            -3.445 -5.334 1.981,
            -3.445 -5.334 -1.913,
            -3.175 -5.499 1.981,
            -3.175 -5.499 -1.913,
            -2.897 -5.651 1.981,
            -2.897 -5.651 -1.913,
            -2.612 -5.788 1.981,
            -2.612 -5.788 -1.913,
            -2.320 -5.911 1.981,
            -2.320 -5.911 -1.913,
            -2.022 -6.019 1.981,
            -2.022 -6.019 -1.913,
            -1.720 -6.113 1.981,
            -1.720 -6.113 -1.913,
            -1.413 -6.191 1.981,
            -1.413 -6.191 -1.913,
            -1.103 -6.254 1.981,
            -1.103 -6.254 -1.913,
            -0.790 -6.301 1.981,
            -0.790 -6.301 -1.913,
            -0.475 -6.332 1.981,
            -0.475 -6.332 -1.913,
            -0.158 -6.348 1.981,
            -0.158 -6.348 -1.913,
            0.158 -6.348 1.981,
            0.158 -6.348 -1.913,
            0.475 -6.332 1.981,
            0.475 -6.332 -1.913,
            0.790 -6.301 1.981,
            0.790 -6.301 -1.913,
            1.103 -6.254 1.981,
            1.103 -6.254 -1.913,
            1.413 -6.191 1.981,
            1.413 -6.191 -1.913,
            1.720 -6.113 1.981,
            1.720 -6.113 -1.913,
            2.022 -6.019 1.981,
            2.022 -6.019 -1.913,
            2.320 -5.911 1.981,
            2.320 -5.911 -1.913,
            2.612 -5.788 1.981,
            2.612 -5.788 -1.913,
            2.897 -5.651 1.981,
            2.897 -5.651 -1.913,
            3.175 -5.499 1.981,
            3.175 -5.499 -1.913,
            3.445 -5.334 1.981,
            3.445 -5.334 -1.913,
            3.707 -5.156 1.981,
            3.707 -5.156 -1.913,
            3.959 -4.965 1.981,
            3.959 -4.965 -1.913,
            4.202 -4.761 1.981,
            4.202 -4.761 -1.913,
            4.434 -4.546 1.981,
            4.434 -4.546 -1.913,
            4.655 -4.319 1.981,
            4.655 -4.319 -1.913,
            4.864 -4.082 1.981,
            4.864 -4.082 -1.913,
            5.062 -3.834 1.981,
            5.062 -3.834 -1.913,
            5.247 -3.577 1.981,
            5.247 -3.577 -1.913,
            5.418 -3.311 1.981,
            5.418 -3.311 -1.913,
            5.577 -3.037 1.981,
            5.577 -3.037 -1.913,
            5.721 -2.755 1.981,
            5.721 -2.755 -1.913,
            5.851 -2.467 1.981,
            5.851 -2.467 -1.913,
            5.967 -2.172 1.981,
            5.967 -2.172 -1.913,
            6.068 -1.872 1.981,
            6.068 -1.872 -1.913,
            6.154 -1.567 1.981,
            6.154 -1.567 -1.913,
            6.224 -1.258 1.981,
            6.224 -1.258 -1.913,
            6.279 -0.946 1.981,
            6.279 -0.946 -1.913,
            6.318 -0.632 1.981,
            6.318 -0.632 -1.913,
            6.342 -0.317 1.981,
            6.342 -0.317 -1.913,
            -4.036 -4.574 -2.163,
            -3.561 -4.953 -2.163,
            -3.803 -4.769 -2.163,
            -4.259 -4.367 -2.163,
            -4.863 -3.683 -2.163,
            -5.040 -3.436 -2.163,
            -4.673 -3.921 -2.163,
            -5.205 -3.181 -2.163,
            -5.357 -2.917 -2.163,
            -3.310 -5.124 -2.163,
            -2.783 -5.428 -2.163,
            -3.050 -5.283 -2.163,
            -4.472 -4.149 -2.163,
            -5.496 -2.647 -2.163,
            -2.229 -5.678 -2.163,
            -2.509 -5.560 -2.163,
            -5.621 -2.369 -2.163,
            -5.732 -2.086 -2.163,
            -1.943 -5.782 -2.163,
            -1.059 -6.007 -2.163,
            -1.652 -5.872 -2.163,
            -1.357 -5.947 -2.163,
            -0.456 -6.083 -2.163,
            -0.758 -6.053 -2.163,
            -0.152 -6.098 -2.163,
            -5.829 -1.798 -2.163,
            -5.911 -1.505 -2.163,
            -5.979 -1.209 -2.163,
            -6.032 -0.909 -2.163,
            -6.070 -0.607 -2.163,
            -6.092 -0.304 -2.163,
            0.152 -6.098 -2.163,
            0.758 -6.053 -2.163,
            0.456 -6.083 -2.163,
            1.357 -5.947 -2.163,
            1.059 -6.007 -2.163,
            1.652 -5.872 -2.163,
            2.229 -5.678 -2.163,
            2.783 -5.428 -2.163,
            2.509 -5.560 -2.163,
            3.310 -5.124 -2.163,
            3.050 -5.283 -2.163,
            1.943 -5.782 -2.163,
            3.803 -4.769 -2.163,
            3.561 -4.953 -2.163,
            4.259 -4.367 -2.163,
            4.036 -4.574 -2.163,
            4.472 -4.149 -2.163,
            4.863 -3.683 -2.163,
            4.673 -3.921 -2.163,
            5.040 -3.436 -2.163,
            5.205 -3.181 -2.163,
            5.357 -2.917 -2.163,
            5.621 -2.369 -2.163,
            5.496 -2.647 -2.163,
            5.732 -2.086 -2.163,
            5.829 -1.798 -2.163,
            5.911 -1.505 -2.163,
            6.032 -0.909 -2.163,
            5.979 -1.209 -2.163,
            6.070 -0.607 -2.163,
            6.092 -0.304 -2.163
          ]
        }
        coordIndex [
          0, 1, 2, -1,
          3, 0, 4, -1,
          3, 1, 0, -1,
          5, 4, 6, -1,
          5, 3, 4, -1,
          7, 6, 8, -1,
          7, 5, 6, -1,
          9, 8, 10, -1,
          9, 7, 8, -1,
          11, 10, 12, -1,
          11, 9, 10, -1,
          13, 12, 14, -1,
          13, 11, 12, -1,
          15, 14, 16, -1,
          15, 13, 14, -1,
          17, 16, 18, -1,
          17, 15, 16, -1,
          19, 18, 20, -1,
          19, 17, 18, -1,
          21, 20, 22, -1,
          21, 19, 20, -1,
          23, 22, 24, -1,
          23, 21, 22, -1,
          25, 24, 26, -1,
          25, 23, 24, -1,
          27, 26, 28, -1,
          27, 25, 26, -1,
          29, 28, 30, -1,
          29, 27, 28, -1,
          31, 30, 32, -1,
          31, 29, 30, -1,
          33, 32, 34, -1,
          33, 31, 32, -1,
          35, 33, 34, -1,
          35, 34, 36, -1,
          37, 35, 36, -1,
          37, 36, 38, -1,
          39, 37, 38, -1,
          39, 38, 40, -1,
          41, 40, 42, -1,
          41, 39, 40, -1,
          43, 42, 44, -1,
          43, 41, 42, -1,
          45, 44, 46, -1,
          45, 43, 44, -1,
          47, 46, 48, -1,
          47, 45, 46, -1,
          49, 48, 50, -1,
          49, 47, 48, -1,
          51, 50, 52, -1,
          51, 49, 50, -1,
          53, 52, 54, -1,
          53, 51, 52, -1,
          55, 54, 56, -1,
          55, 53, 54, -1,
          57, 56, 58, -1,
          57, 55, 56, -1,
          59, 57, 58, -1,
          59, 58, 60, -1,
          61, 59, 60, -1,
          61, 60, 62, -1,
          63, 61, 62, -1,
          63, 62, 64, -1,
          65, 64, 66, -1,
          65, 63, 64, -1,
          67, 66, 68, -1,
          67, 65, 66, -1,
          69, 68, 70, -1,
          69, 67, 68, -1,
          71, 70, 72, -1,
          71, 69, 70, -1,
          73, 72, 74, -1,
          73, 71, 72, -1,
          75, 74, 76, -1,
          75, 73, 74, -1,
          77, 76, 78, -1,
          77, 75, 76, -1,
          79, 78, 80, -1,
          79, 77, 78, -1,
          81, 80, 82, -1,
          81, 79, 80, -1,
          83, 82, 84, -1,
          83, 81, 82, -1,
          85, 84, 86, -1,
          85, 83, 84, -1,
          87, 86, 88, -1,
          87, 85, 86, -1,
          89, 87, 88, -1,
          89, 88, 90, -1,
          91, 89, 90, -1,
          91, 90, 92, -1,
          93, 91, 92, -1,
          93, 92, 94, -1,
          95, 94, 96, -1,
          95, 93, 94, -1,
          97, 96, 98, -1,
          97, 95, 96, -1,
          99, 98, 100, -1,
          99, 97, 98, -1,
          101, 100, 102, -1,
          101, 99, 100, -1,
          103, 102, 104, -1,
          103, 101, 102, -1,
          105, 104, 106, -1,
          105, 103, 104, -1,
          107, 106, 108, -1,
          107, 105, 106, -1,
          109, 108, 110, -1,
          109, 107, 108, -1,
          111, 110, 112, -1,
          111, 109, 110, -1,
          113, 112, 114, -1,
          113, 111, 112, -1,
          115, 114, 116, -1,
          115, 113, 114, -1,
          117, 116, 118, -1,
          117, 115, 116, -1,
          119, 118, 120, -1,
          119, 117, 118, -1,
          121, 120, 122, -1,
          121, 119, 120, -1,
          123, 122, 124, -1,
          123, 121, 122, -1,
          125, 124, 126, -1,
          125, 123, 124, -1,
          127, 126, 128, -1,
          127, 125, 126, -1,
          129, 130, 131, -1,
          132, 129, 131, -1,
          132, 131, 133, -1,
          134, 132, 133, -1,
          134, 133, 135, -1,
          136, 134, 135, -1,
          136, 135, 137, -1,
          138, 136, 137, -1,
          138, 137, 139, -1,
          140, 138, 139, -1,
          140, 139, 141, -1,
          142, 141, 143, -1,
          142, 140, 141, -1,
          144, 143, 145, -1,
          144, 142, 143, -1,
          146, 145, 147, -1,
          146, 144, 145, -1,
          148, 147, 149, -1,
          148, 146, 147, -1,
          150, 149, 151, -1,
          150, 148, 149, -1,
          152, 151, 153, -1,
          152, 150, 151, -1,
          154, 153, 155, -1,
          154, 152, 153, -1,
          156, 155, 157, -1,
          156, 154, 155, -1,
          158, 157, 159, -1,
          158, 156, 157, -1,
          160, 159, 161, -1,
          160, 158, 159, -1,
          162, 161, 163, -1,
          162, 160, 161, -1,
          164, 163, 165, -1,
          164, 162, 163, -1,
          166, 164, 165, -1,
          166, 165, 167, -1,
          168, 166, 167, -1,
          168, 167, 169, -1,
          170, 168, 169, -1,
          170, 169, 171, -1,
          172, 170, 171, -1,
          172, 171, 173, -1,
          174, 172, 173, -1,
          174, 173, 175, -1,
          176, 174, 175, -1,
          176, 175, 177, -1,
          178, 176, 177, -1,
          178, 177, 179, -1,
          180, 178, 179, -1,
          180, 179, 181, -1,
          182, 180, 181, -1,
          182, 181, 183, -1,
          184, 183, 185, -1,
          184, 182, 183, -1,
          186, 185, 187, -1,
          186, 184, 185, -1,
          188, 187, 189, -1,
          188, 186, 187, -1,
          190, 189, 191, -1,
          190, 188, 189, -1,
          192, 191, 193, -1,
          192, 190, 191, -1,
          194, 193, 195, -1,
          194, 192, 193, -1,
          196, 195, 197, -1,
          196, 194, 195, -1,
          198, 197, 199, -1,
          198, 196, 197, -1,
          200, 199, 201, -1,
          200, 198, 199, -1,
          202, 200, 201, -1,
          203, 204, 205, -1,
          203, 201, 204, -1,
          203, 202, 201, -1,
          206, 205, 207, -1,
          206, 203, 205, -1,
          208, 207, 209, -1,
          208, 206, 207, -1,
          210, 208, 209, -1,
          211, 212, 213, -1,
          211, 209, 212, -1,
          211, 210, 209, -1,
          214, 211, 213, -1,
          215, 214, 213, -1,
          215, 213, 216, -1,
          217, 215, 216, -1,
          217, 218, 219, -1,
          217, 216, 218, -1,
          220, 217, 219, -1,
          220, 219, 221, -1,
          222, 220, 221, -1,
          223, 222, 221, -1,
          223, 221, 224, -1,
          225, 224, 226, -1,
          225, 223, 224, -1,
          227, 228, 229, -1,
          227, 226, 228, -1,
          227, 225, 226, -1,
          230, 227, 229, -1,
          231, 229, 232, -1,
          231, 230, 229, -1,
          233, 232, 234, -1,
          233, 231, 232, -1,
          235, 234, 236, -1,
          235, 233, 234, -1,
          237, 236, 238, -1,
          237, 235, 236, -1,
          239, 238, 240, -1,
          239, 237, 238, -1,
          241, 242, 243, -1,
          241, 240, 242, -1,
          241, 239, 240, -1,
          244, 241, 243, -1,
          245, 243, 246, -1,
          245, 244, 243, -1,
          247, 248, 249, -1,
          247, 246, 248, -1,
          247, 245, 246, -1,
          250, 249, 251, -1,
          250, 247, 249, -1,
          252, 251, 253, -1,
          252, 250, 251, -1,
          254, 252, 253, -1,
          255, 253, 256, -1,
          255, 254, 253, -1,
          125, 129, 132, -1,
          125, 127, 129, -1,
          123, 132, 134, -1,
          123, 125, 132, -1,
          121, 134, 136, -1,
          121, 123, 134, -1,
          119, 136, 138, -1,
          119, 121, 136, -1,
          117, 138, 140, -1,
          117, 119, 138, -1,
          115, 140, 142, -1,
          115, 117, 140, -1,
          113, 142, 144, -1,
          113, 115, 142, -1,
          111, 144, 146, -1,
          111, 113, 144, -1,
          109, 146, 148, -1,
          109, 111, 146, -1,
          107, 148, 150, -1,
          107, 109, 148, -1,
          105, 150, 152, -1,
          105, 107, 150, -1,
          103, 152, 154, -1,
          103, 105, 152, -1,
          101, 154, 156, -1,
          101, 103, 154, -1,
          99, 156, 158, -1,
          99, 101, 156, -1,
          97, 158, 160, -1,
          97, 99, 158, -1,
          95, 160, 162, -1,
          95, 97, 160, -1,
          93, 162, 164, -1,
          93, 164, 166, -1,
          93, 95, 162, -1,
          91, 93, 166, -1,
          89, 91, 166, -1,
          89, 166, 168, -1,
          89, 168, 170, -1,
          87, 89, 170, -1,
          85, 87, 170, -1,
          85, 170, 172, -1,
          83, 85, 172, -1,
          83, 172, 174, -1,
          81, 174, 176, -1,
          81, 176, 178, -1,
          81, 83, 174, -1,
          79, 81, 178, -1,
          77, 178, 180, -1,
          77, 180, 182, -1,
          77, 79, 178, -1,
          75, 77, 182, -1,
          73, 182, 184, -1,
          73, 75, 182, -1,
          71, 184, 186, -1,
          71, 73, 184, -1,
          69, 186, 188, -1,
          69, 188, 190, -1,
          69, 71, 186, -1,
          67, 190, 192, -1,
          67, 69, 190, -1,
          65, 67, 192, -1,
          63, 192, 194, -1,
          63, 65, 192, -1,
          61, 194, 196, -1,
          61, 63, 194, -1,
          59, 196, 198, -1,
          59, 198, 200, -1,
          59, 61, 196, -1,
          57, 59, 200, -1,
          55, 200, 202, -1,
          55, 202, 203, -1,
          55, 57, 200, -1,
          53, 55, 203, -1,
          51, 203, 206, -1,
          51, 206, 208, -1,
          51, 53, 203, -1,
          49, 51, 208, -1,
          47, 208, 210, -1,
          47, 49, 208, -1,
          45, 210, 211, -1,
          45, 211, 214, -1,
          45, 47, 210, -1,
          43, 45, 214, -1,
          41, 43, 214, -1,
          41, 214, 215, -1,
          39, 41, 215, -1,
          39, 215, 217, -1,
          37, 39, 217, -1,
          37, 217, 220, -1,
          37, 220, 222, -1,
          35, 37, 222, -1,
          33, 35, 222, -1,
          33, 222, 223, -1,
          31, 33, 223, -1,
          31, 223, 225, -1,
          29, 31, 225, -1,
          29, 225, 227, -1,
          29, 227, 230, -1,
          27, 29, 230, -1,
          25, 27, 230, -1,
          25, 230, 231, -1,
          23, 25, 231, -1,
          23, 231, 233, -1,
          23, 233, 235, -1,
          21, 23, 235, -1,
          19, 21, 235, -1,
          19, 235, 237, -1,
          17, 19, 237, -1,
          17, 237, 239, -1,
          15, 239, 241, -1,
          15, 17, 239, -1,
          13, 241, 244, -1,
          13, 15, 241, -1,
          11, 244, 245, -1,
          11, 13, 244, -1,
          9, 245, 247, -1,
          9, 11, 245, -1,
          7, 247, 250, -1,
          7, 9, 247, -1,
          5, 250, 252, -1,
          5, 252, 254, -1,
          5, 7, 250, -1,
          3, 5, 254, -1,
          1, 254, 255, -1,
          1, 3, 254, -1,
          68, 257, 70, -1,
          66, 257, 68, -1,
          64, 257, 66, -1,
          258, 259, 260, -1,
          258, 261, 259, -1,
          258, 262, 261, -1,
          102, 263, 104, -1,
          100, 263, 102, -1,
          98, 263, 100, -1,
          96, 263, 98, -1,
          92, 264, 94, -1,
          90, 264, 92, -1,
          88, 264, 90, -1,
          86, 264, 88, -1,
          84, 264, 86, -1,
          82, 264, 84, -1,
          114, 265, 116, -1,
          112, 265, 114, -1,
          110, 265, 112, -1,
          108, 265, 110, -1,
          106, 265, 108, -1,
          104, 265, 106, -1,
          263, 265, 104, -1,
          82, 266, 264, -1,
          80, 266, 82, -1,
          78, 266, 80, -1,
          76, 266, 78, -1,
          74, 266, 76, -1,
          72, 266, 74, -1,
          70, 266, 72, -1,
          257, 266, 70, -1,
          263, 267, 265, -1,
          96, 267, 263, -1,
          94, 267, 96, -1,
          264, 267, 94, -1,
          126, 268, 128, -1,
          124, 268, 126, -1,
          122, 268, 124, -1,
          120, 268, 122, -1,
          118, 268, 120, -1,
          116, 268, 118, -1,
          265, 268, 116, -1,
          257, 269, 266, -1,
          270, 269, 271, -1,
          271, 269, 257, -1,
          266, 269, 264, -1,
          264, 269, 267, -1,
          265, 272, 268, -1,
          267, 272, 265, -1,
          268, 273, 128, -1,
          274, 273, 275, -1,
          276, 273, 274, -1,
          277, 273, 276, -1,
          278, 273, 277, -1,
          279, 273, 278, -1,
          128, 273, 279, -1,
          269, 280, 267, -1,
          267, 280, 272, -1,
          270, 280, 269, -1,
          281, 280, 270, -1,
          272, 282, 268, -1,
          268, 282, 273, -1,
          283, 284, 285, -1,
          286, 284, 283, -1,
          287, 284, 286, -1,
          288, 284, 287, -1,
          289, 284, 288, -1,
          275, 284, 289, -1,
          273, 284, 275, -1,
          280, 290, 272, -1,
          281, 290, 280, -1,
          291, 290, 292, -1,
          292, 290, 281, -1,
          272, 290, 282, -1,
          282, 293, 273, -1,
          273, 293, 284, -1,
          284, 294, 285, -1,
          295, 294, 296, -1,
          297, 294, 295, -1,
          298, 294, 297, -1,
          285, 294, 298, -1,
          290, 299, 282, -1,
          282, 299, 293, -1,
          300, 299, 291, -1,
          291, 299, 290, -1,
          294, 301, 296, -1,
          296, 301, 302, -1,
          293, 301, 284, -1,
          284, 301, 294, -1,
          293, 303, 301, -1,
          304, 303, 300, -1,
          305, 303, 304, -1,
          299, 303, 293, -1,
          300, 303, 299, -1,
          301, 306, 302, -1,
          307, 306, 308, -1,
          309, 306, 307, -1,
          310, 306, 309, -1,
          311, 306, 310, -1,
          312, 306, 311, -1,
          302, 306, 312, -1,
          305, 313, 303, -1,
          314, 313, 305, -1,
          303, 313, 301, -1,
          301, 313, 306, -1,
          260, 315, 258, -1,
          316, 315, 260, -1,
          317, 315, 316, -1,
          318, 315, 317, -1,
          319, 315, 318, -1,
          320, 315, 319, -1,
          308, 315, 320, -1,
          313, 315, 306, -1,
          258, 315, 314, -1,
          306, 315, 308, -1,
          314, 315, 313, -1,
          62, 257, 64, -1,
          60, 257, 62, -1,
          58, 257, 60, -1,
          258, 321, 262, -1,
          258, 322, 321, -1,
          258, 323, 322, -1,
          56, 324, 58, -1,
          54, 324, 56, -1,
          52, 324, 54, -1,
          50, 324, 52, -1,
          48, 324, 50, -1,
          46, 324, 48, -1,
          58, 324, 257, -1,
          324, 325, 257, -1,
          271, 325, 270, -1,
          257, 325, 271, -1,
          324, 326, 325, -1,
          44, 326, 46, -1,
          42, 326, 44, -1,
          40, 326, 42, -1,
          38, 326, 40, -1,
          36, 326, 38, -1,
          34, 326, 36, -1,
          46, 326, 324, -1,
          270, 327, 281, -1,
          325, 327, 270, -1,
          34, 328, 326, -1,
          32, 328, 34, -1,
          325, 328, 327, -1,
          326, 328, 325, -1,
          327, 329, 281, -1,
          292, 329, 291, -1,
          281, 329, 292, -1,
          32, 330, 328, -1,
          30, 330, 32, -1,
          28, 330, 30, -1,
          26, 330, 28, -1,
          24, 330, 26, -1,
          327, 331, 329, -1,
          328, 331, 327, -1,
          329, 332, 291, -1,
          291, 332, 300, -1,
          24, 333, 330, -1,
          328, 333, 331, -1,
          22, 333, 24, -1,
          20, 333, 22, -1,
          18, 333, 20, -1,
          16, 333, 18, -1,
          14, 333, 16, -1,
          12, 333, 14, -1,
          330, 333, 328, -1,
          329, 334, 332, -1,
          331, 334, 329, -1,
          332, 335, 300, -1,
          300, 335, 304, -1,
          304, 335, 305, -1,
          331, 336, 334, -1,
          10, 336, 12, -1,
          8, 336, 10, -1,
          6, 336, 8, -1,
          4, 336, 6, -1,
          0, 336, 4, -1,
          2, 336, 0, -1,
          333, 336, 331, -1,
          12, 336, 333, -1,
          332, 337, 335, -1,
          334, 337, 332, -1,
          335, 338, 305, -1,
          305, 338, 314, -1,
          339, 340, 2, -1,
          341, 340, 339, -1,
          342, 340, 341, -1,
          343, 340, 342, -1,
          344, 340, 343, -1,
          345, 340, 344, -1,
          334, 340, 337, -1,
          2, 340, 336, -1,
          336, 340, 334, -1,
          346, 347, 348, -1,
          335, 347, 338, -1,
          337, 347, 335, -1,
          349, 350, 351, -1,
          352, 350, 349, -1,
          353, 350, 352, -1,
          354, 350, 353, -1,
          355, 350, 354, -1,
          323, 350, 355, -1,
          314, 350, 258, -1,
          258, 350, 323, -1,
          338, 350, 314, -1,
          356, 357, 345, -1,
          358, 357, 356, -1,
          359, 357, 358, -1,
          360, 357, 359, -1,
          361, 357, 360, -1,
          362, 357, 361, -1,
          337, 357, 347, -1,
          340, 357, 337, -1,
          345, 357, 340, -1,
          346, 363, 347, -1,
          364, 363, 346, -1,
          365, 363, 364, -1,
          366, 363, 365, -1,
          367, 363, 366, -1,
          368, 363, 367, -1,
          351, 363, 368, -1,
          338, 363, 350, -1,
          347, 363, 338, -1,
          350, 363, 351, -1,
          347, 369, 348, -1,
          370, 369, 362, -1,
          371, 369, 370, -1,
          372, 369, 371, -1,
          348, 369, 372, -1,
          357, 369, 347, -1,
          362, 369, 357, -1,
          373, 1, 255, -1,
          373, 255, 374, -1,
          375, 374, 376, -1,
          375, 373, 374, -1,
          377, 376, 378, -1,
          377, 375, 376, -1,
          379, 378, 380, -1,
          379, 377, 378, -1,
          381, 380, 382, -1,
          381, 379, 380, -1,
          383, 382, 384, -1,
          383, 381, 382, -1,
          385, 384, 386, -1,
          385, 383, 384, -1,
          387, 386, 388, -1,
          387, 385, 386, -1,
          389, 388, 390, -1,
          389, 387, 388, -1,
          391, 390, 392, -1,
          391, 389, 390, -1,
          393, 392, 394, -1,
          393, 391, 392, -1,
          395, 394, 396, -1,
          395, 393, 394, -1,
          397, 396, 398, -1,
          397, 395, 396, -1,
          399, 398, 400, -1,
          399, 397, 398, -1,
          401, 400, 402, -1,
          401, 399, 400, -1,
          403, 402, 404, -1,
          403, 401, 402, -1,
          405, 404, 406, -1,
          405, 403, 404, -1,
          407, 406, 408, -1,
          407, 405, 406, -1,
          409, 407, 408, -1,
          409, 408, 410, -1,
          411, 409, 410, -1,
          411, 410, 412, -1,
          413, 411, 412, -1,
          413, 412, 414, -1,
          415, 413, 414, -1,
          415, 414, 416, -1,
          417, 416, 418, -1,
          417, 415, 416, -1,
          419, 418, 420, -1,
          419, 417, 418, -1,
          421, 420, 422, -1,
          421, 419, 420, -1,
          423, 422, 424, -1,
          423, 421, 422, -1,
          425, 424, 426, -1,
          425, 423, 424, -1,
          427, 426, 428, -1,
          427, 425, 426, -1,
          429, 428, 430, -1,
          429, 427, 428, -1,
          431, 430, 432, -1,
          431, 429, 430, -1,
          433, 432, 434, -1,
          433, 431, 432, -1,
          435, 434, 436, -1,
          435, 433, 434, -1,
          437, 436, 438, -1,
          437, 435, 436, -1,
          439, 438, 440, -1,
          439, 437, 438, -1,
          441, 440, 442, -1,
          441, 439, 440, -1,
          443, 442, 444, -1,
          443, 441, 442, -1,
          445, 444, 446, -1,
          445, 443, 444, -1,
          447, 446, 448, -1,
          447, 445, 446, -1,
          449, 448, 450, -1,
          449, 447, 448, -1,
          451, 450, 452, -1,
          451, 449, 450, -1,
          453, 452, 454, -1,
          453, 451, 452, -1,
          455, 454, 456, -1,
          455, 453, 454, -1,
          457, 455, 456, -1,
          457, 456, 458, -1,
          459, 457, 458, -1,
          459, 458, 460, -1,
          461, 459, 460, -1,
          461, 460, 462, -1,
          463, 461, 462, -1,
          463, 462, 464, -1,
          465, 463, 464, -1,
          465, 464, 466, -1,
          467, 465, 466, -1,
          467, 466, 468, -1,
          469, 467, 468, -1,
          469, 468, 470, -1,
          471, 469, 470, -1,
          471, 470, 472, -1,
          473, 471, 472, -1,
          473, 472, 474, -1,
          475, 473, 474, -1,
          475, 474, 476, -1,
          477, 475, 476, -1,
          477, 476, 478, -1,
          479, 477, 478, -1,
          479, 478, 480, -1,
          481, 479, 480, -1,
          481, 480, 482, -1,
          483, 481, 482, -1,
          483, 482, 484, -1,
          485, 484, 486, -1,
          485, 483, 484, -1,
          487, 486, 488, -1,
          487, 485, 486, -1,
          489, 488, 490, -1,
          489, 487, 488, -1,
          491, 490, 492, -1,
          491, 489, 490, -1,
          493, 492, 494, -1,
          493, 491, 492, -1,
          495, 494, 496, -1,
          495, 493, 494, -1,
          127, 496, 129, -1,
          127, 495, 496, -1,
          497, 498, 499, -1,
          500, 498, 497, -1,
          501, 502, 503, -1,
          504, 505, 502, -1,
          506, 507, 508, -1,
          509, 510, 500, -1,
          503, 510, 509, -1,
          502, 510, 503, -1,
          505, 510, 502, -1,
          507, 511, 512, -1,
          513, 514, 510, -1,
          515, 516, 517, -1,
          511, 516, 515, -1,
          498, 516, 506, -1,
          500, 516, 498, -1,
          506, 516, 507, -1,
          507, 516, 511, -1,
          517, 516, 518, -1,
          516, 519, 520, -1,
          516, 521, 519, -1,
          522, 253, 514, -1,
          523, 253, 522, -1,
          524, 253, 523, -1,
          525, 253, 524, -1,
          526, 253, 525, -1,
          527, 253, 526, -1,
          256, 253, 527, -1,
          528, 529, 530, -1,
          528, 531, 529, -1,
          529, 531, 532, -1,
          521, 531, 528, -1,
          251, 246, 253, -1,
          249, 246, 251, -1,
          248, 246, 249, -1,
          521, 533, 531, -1,
          500, 533, 516, -1,
          516, 533, 521, -1,
          243, 240, 246, -1,
          242, 240, 243, -1,
          246, 240, 253, -1,
          534, 535, 536, -1,
          534, 537, 535, -1,
          535, 537, 538, -1,
          539, 537, 534, -1,
          234, 229, 236, -1,
          232, 229, 234, -1,
          539, 540, 537, -1,
          537, 540, 541, -1,
          533, 540, 539, -1,
          228, 226, 229, -1,
          229, 226, 236, -1,
          533, 542, 540, -1,
          540, 542, 543, -1,
          221, 219, 224, -1,
          544, 545, 546, -1,
          219, 218, 224, -1,
          544, 547, 545, -1,
          542, 547, 544, -1,
          218, 216, 224, -1,
          533, 548, 542, -1,
          510, 548, 500, -1,
          500, 548, 533, -1,
          542, 548, 547, -1,
          238, 212, 240, -1,
          236, 212, 238, -1,
          224, 212, 226, -1,
          226, 212, 236, -1,
          213, 212, 216, -1,
          216, 212, 224, -1,
          549, 550, 551, -1,
          549, 552, 550, -1,
          209, 205, 212, -1,
          207, 205, 209, -1,
          548, 553, 549, -1,
          549, 553, 552, -1,
          548, 554, 553, -1,
          204, 199, 205, -1,
          201, 199, 204, -1,
          548, 555, 554, -1,
          510, 555, 548, -1,
          554, 555, 556, -1,
          195, 193, 197, -1,
          557, 130, 558, -1,
          557, 131, 130, -1,
          199, 189, 205, -1,
          193, 189, 197, -1,
          197, 189, 199, -1,
          191, 189, 193, -1,
          205, 189, 212, -1,
          510, 133, 555, -1,
          514, 133, 510, -1,
          557, 133, 131, -1,
          555, 133, 557, -1,
          253, 133, 514, -1,
          189, 183, 212, -1,
          187, 183, 189, -1,
          185, 183, 187, -1,
          137, 141, 139, -1,
          181, 179, 183, -1,
          137, 143, 141, -1,
          135, 143, 137, -1,
          133, 143, 135, -1,
          240, 177, 253, -1,
          183, 177, 212, -1,
          179, 177, 183, -1,
          212, 177, 240, -1,
          175, 171, 177, -1,
          173, 171, 175, -1,
          147, 151, 149, -1,
          145, 151, 147, -1,
          143, 151, 145, -1,
          143, 153, 151, -1,
          169, 165, 171, -1,
          167, 165, 169, -1,
          165, 163, 171, -1,
          155, 159, 157, -1,
          177, 161, 253, -1,
          133, 161, 143, -1,
          153, 161, 155, -1,
          171, 161, 177, -1,
          155, 161, 159, -1,
          143, 161, 153, -1,
          163, 161, 171, -1,
          253, 161, 133, -1,
          255, 256, 527, -1,
          374, 255, 527, -1,
          374, 527, 526, -1,
          376, 374, 526, -1,
          376, 526, 525, -1,
          378, 376, 525, -1,
          378, 525, 524, -1,
          380, 378, 524, -1,
          380, 524, 523, -1,
          382, 380, 523, -1,
          382, 523, 522, -1,
          384, 382, 522, -1,
          384, 522, 514, -1,
          386, 514, 513, -1,
          386, 384, 514, -1,
          388, 513, 510, -1,
          388, 386, 513, -1,
          390, 510, 505, -1,
          390, 388, 510, -1,
          392, 505, 504, -1,
          392, 390, 505, -1,
          394, 504, 502, -1,
          394, 392, 504, -1,
          396, 502, 501, -1,
          396, 394, 502, -1,
          398, 501, 503, -1,
          398, 396, 501, -1,
          400, 503, 509, -1,
          400, 398, 503, -1,
          402, 509, 500, -1,
          402, 400, 509, -1,
          404, 500, 497, -1,
          404, 402, 500, -1,
          406, 497, 499, -1,
          406, 404, 497, -1,
          408, 406, 499, -1,
          408, 499, 498, -1,
          410, 408, 498, -1,
          410, 498, 506, -1,
          412, 410, 506, -1,
          412, 506, 508, -1,
          414, 412, 508, -1,
          416, 414, 508, -1,
          416, 507, 512, -1,
          416, 508, 507, -1,
          418, 416, 512, -1,
          418, 512, 511, -1,
          420, 418, 511, -1,
          422, 420, 511, -1,
          422, 515, 517, -1,
          422, 511, 515, -1,
          424, 422, 517, -1,
          424, 517, 518, -1,
          426, 518, 516, -1,
          426, 424, 518, -1,
          428, 516, 520, -1,
          428, 426, 516, -1,
          430, 520, 519, -1,
          430, 428, 520, -1,
          432, 519, 521, -1,
          432, 430, 519, -1,
          434, 521, 528, -1,
          434, 432, 521, -1,
          436, 434, 528, -1,
          438, 530, 529, -1,
          438, 528, 530, -1,
          438, 436, 528, -1,
          440, 529, 532, -1,
          440, 438, 529, -1,
          442, 532, 531, -1,
          442, 440, 532, -1,
          444, 531, 533, -1,
          444, 442, 531, -1,
          446, 444, 533, -1,
          448, 539, 534, -1,
          448, 533, 539, -1,
          448, 446, 533, -1,
          450, 534, 536, -1,
          450, 448, 534, -1,
          452, 536, 535, -1,
          452, 450, 536, -1,
          454, 535, 538, -1,
          454, 452, 535, -1,
          456, 454, 538, -1,
          458, 456, 538, -1,
          458, 537, 541, -1,
          458, 538, 537, -1,
          460, 458, 541, -1,
          460, 541, 540, -1,
          462, 460, 540, -1,
          462, 540, 543, -1,
          464, 462, 543, -1,
          464, 543, 542, -1,
          466, 464, 542, -1,
          468, 544, 546, -1,
          468, 542, 544, -1,
          468, 466, 542, -1,
          470, 546, 545, -1,
          470, 468, 546, -1,
          472, 545, 547, -1,
          472, 470, 545, -1,
          474, 547, 548, -1,
          474, 472, 547, -1,
          476, 474, 548, -1,
          478, 549, 551, -1,
          478, 548, 549, -1,
          478, 476, 548, -1,
          480, 551, 550, -1,
          480, 478, 551, -1,
          482, 550, 552, -1,
          482, 480, 550, -1,
          484, 552, 553, -1,
          484, 482, 552, -1,
          486, 553, 554, -1,
          486, 484, 553, -1,
          488, 554, 556, -1,
          488, 486, 554, -1,
          490, 556, 555, -1,
          490, 488, 556, -1,
          492, 490, 555, -1,
          494, 557, 558, -1,
          494, 555, 557, -1,
          494, 492, 555, -1,
          496, 494, 558, -1,
          129, 558, 130, -1,
          129, 496, 558, -1,
          279, 127, 128, -1,
          495, 279, 278, -1,
          495, 127, 279, -1,
          493, 278, 277, -1,
          493, 495, 278, -1,
          491, 277, 276, -1,
          491, 493, 277, -1,
          489, 276, 274, -1,
          489, 491, 276, -1,
          487, 274, 275, -1,
          487, 489, 274, -1,
          485, 275, 289, -1,
          485, 487, 275, -1,
          483, 289, 288, -1,
          483, 485, 289, -1,
          481, 288, 287, -1,
          481, 483, 288, -1,
          479, 287, 286, -1,
          479, 481, 287, -1,
          477, 286, 283, -1,
          477, 479, 286, -1,
          475, 283, 285, -1,
          475, 477, 283, -1,
          473, 285, 298, -1,
          473, 475, 285, -1,
          471, 298, 297, -1,
          471, 473, 298, -1,
          469, 297, 295, -1,
          469, 471, 297, -1,
          467, 295, 296, -1,
          467, 469, 295, -1,
          465, 296, 302, -1,
          465, 467, 296, -1,
          463, 465, 302, -1,
          463, 302, 312, -1,
          461, 463, 312, -1,
          461, 312, 311, -1,
          459, 461, 311, -1,
          459, 311, 310, -1,
          457, 459, 310, -1,
          457, 310, 309, -1,
          455, 309, 307, -1,
          455, 457, 309, -1,
          453, 307, 308, -1,
          453, 455, 307, -1,
          451, 308, 320, -1,
          451, 453, 308, -1,
          449, 320, 319, -1,
          449, 451, 320, -1,
          447, 319, 318, -1,
          447, 449, 319, -1,
          445, 318, 317, -1,
          445, 447, 318, -1,
          443, 317, 316, -1,
          443, 445, 317, -1,
          441, 316, 260, -1,
          441, 443, 316, -1,
          439, 260, 259, -1,
          439, 441, 260, -1,
          437, 259, 261, -1,
          437, 439, 259, -1,
          435, 261, 262, -1,
          435, 437, 261, -1,
          433, 435, 262, -1,
          433, 262, 321, -1,
          431, 321, 322, -1,
          431, 433, 321, -1,
          429, 322, 323, -1,
          429, 431, 322, -1,
          427, 323, 355, -1,
          427, 429, 323, -1,
          425, 355, 354, -1,
          425, 427, 355, -1,
          423, 354, 353, -1,
          423, 425, 354, -1,
          421, 353, 352, -1,
          421, 423, 353, -1,
          419, 352, 349, -1,
          419, 421, 352, -1,
          417, 349, 351, -1,
          417, 419, 349, -1,
          415, 351, 368, -1,
          415, 417, 351, -1,
          413, 415, 368, -1,
          413, 368, 367, -1,
          411, 367, 366, -1,
          411, 413, 367, -1,
          409, 411, 366, -1,
          409, 366, 365, -1,
          407, 409, 365, -1,
          407, 365, 364, -1,
          405, 407, 364, -1,
          405, 364, 346, -1,
          403, 405, 346, -1,
          403, 346, 348, -1,
          401, 403, 348, -1,
          401, 348, 372, -1,
          399, 401, 372, -1,
          399, 372, 371, -1,
          397, 399, 371, -1,
          397, 371, 370, -1,
          395, 397, 370, -1,
          395, 370, 362, -1,
          393, 395, 362, -1,
          393, 362, 361, -1,
          391, 361, 360, -1,
          391, 393, 361, -1,
          389, 360, 359, -1,
          389, 391, 360, -1,
          387, 359, 358, -1,
          387, 389, 359, -1,
          385, 358, 356, -1,
          385, 387, 358, -1,
          383, 356, 345, -1,
          383, 385, 356, -1,
          381, 345, 344, -1,
          381, 383, 345, -1,
          379, 344, 343, -1,
          379, 381, 344, -1,
          377, 343, 342, -1,
          377, 379, 343, -1,
          375, 342, 341, -1,
          375, 377, 342, -1,
          373, 341, 339, -1,
          373, 375, 341, -1,
          1, 339, 2, -1,
          1, 373, 339, -1
        ]
      }
    }
}
