#VRML V2.0 utf8
WorldInfo {
  title "Exported triangle mesh to VRML97"
  info ["Created by FreeCAD"
        "<https://www.freecad.org>"]
}

Transform {
  scale 1 1 1
  rotation 0 0 1 0
  scaleOrientation 0 0 1 0
  center 0.000 0.000 0.000
  translation 0.000 0.000 0.000
  children
    Shape { 
      appearance
      Appearance {
        material
        Material {
          diffuseColor 0.8 0.8 0.8
        }
      }
      geometry
      IndexedFaceSet {
        coord
        Coordinate {
          point [
            0.317 -6.342 -1.609,
            0.000 -6.350 -1.609,
            0.000 -6.209 -1.750,
            0.309 -6.201 -1.750,
            0.632 -6.318 -1.609,
            0.618 -6.178 -1.750,
            0.946 -6.279 -1.609,
            0.925 -6.139 -1.750,
            1.258 -6.224 -1.609,
            1.230 -6.085 -1.750,
            1.567 -6.154 -1.609,
            1.532 -6.017 -1.750,
            1.872 -6.068 -1.609,
            1.830 -5.933 -1.750,
            2.172 -5.967 -1.609,
            2.123 -5.834 -1.750,
            2.467 -5.851 -1.609,
            2.412 -5.721 -1.750,
            2.755 -5.721 -1.609,
            2.694 -5.594 -1.750,
            3.037 -5.577 -1.609,
            2.969 -5.453 -1.750,
            3.311 -5.418 -1.609,
            3.237 -5.298 -1.750,
            3.577 -5.247 -1.609,
            3.497 -5.130 -1.750,
            3.834 -5.062 -1.609,
            3.749 -4.949 -1.750,
            4.082 -4.864 -1.609,
            3.991 -4.756 -1.750,
            4.319 -4.655 -1.609,
            4.223 -4.551 -1.750,
            4.546 -4.434 -1.609,
            4.445 -4.335 -1.750,
            4.761 -4.202 -1.609,
            4.655 -4.108 -1.750,
            4.854 -3.871 -1.750,
            4.965 -3.959 -1.609,
            5.156 -3.707 -1.609,
            5.041 -3.624 -1.750,
            5.334 -3.445 -1.609,
            5.215 -3.368 -1.750,
            5.377 -3.104 -1.750,
            5.499 -3.175 -1.609,
            5.651 -2.897 -1.609,
            5.525 -2.832 -1.750,
            5.788 -2.612 -1.609,
            5.659 -2.554 -1.750,
            5.911 -2.320 -1.609,
            5.779 -2.268 -1.750,
            6.019 -2.022 -1.609,
            5.885 -1.977 -1.750,
            6.113 -1.720 -1.609,
            5.977 -1.682 -1.750,
            6.191 -1.413 -1.609,
            6.053 -1.382 -1.750,
            6.254 -1.103 -1.609,
            6.114 -1.078 -1.750,
            6.301 -0.790 -1.609,
            6.160 -0.772 -1.750,
            6.332 -0.475 -1.609,
            6.191 -0.464 -1.750,
            6.348 -0.158 -1.609,
            6.207 -0.155 -1.750,
            6.348 0.158 -1.609,
            6.207 0.155 -1.750,
            6.332 0.475 -1.609,
            6.191 0.464 -1.750,
            6.301 0.790 -1.609,
            6.160 0.772 -1.750,
            6.254 1.103 -1.609,
            6.114 1.078 -1.750,
            6.191 1.413 -1.609,
            6.053 1.382 -1.750,
            6.113 1.720 -1.609,
            5.977 1.682 -1.750,
            6.019 2.022 -1.609,
            5.885 1.977 -1.750,
            5.779 2.268 -1.750,
            5.911 2.320 -1.609,
            5.788 2.612 -1.609,
            5.659 2.554 -1.750,
            5.651 2.897 -1.609,
            5.525 2.832 -1.750,
            5.499 3.175 -1.609,
            5.377 3.104 -1.750,
            5.334 3.445 -1.609,
            5.215 3.368 -1.750,
            5.156 3.707 -1.609,
            5.041 3.624 -1.750,
            4.854 3.871 -1.750,
            4.965 3.959 -1.609,
            4.761 4.202 -1.609,
            4.655 4.108 -1.750,
            4.546 4.434 -1.609,
            4.445 4.335 -1.750,
            4.319 4.655 -1.609,
            4.223 4.551 -1.750,
            3.991 4.756 -1.750,
            4.082 4.864 -1.609,
            3.834 5.062 -1.609,
            3.749 4.949 -1.750,
            3.577 5.247 -1.609,
            3.497 5.130 -1.750,
            3.237 5.298 -1.750,
            3.311 5.418 -1.609,
            3.037 5.577 -1.609,
            2.969 5.453 -1.750,
            2.755 5.721 -1.609,
            2.694 5.594 -1.750,
            2.467 5.851 -1.609,
            2.412 5.721 -1.750,
            2.172 5.967 -1.609,
            2.123 5.834 -1.750,
            1.872 6.068 -1.609,
            1.830 5.933 -1.750,
            1.567 6.154 -1.609,
            1.532 6.017 -1.750,
            1.258 6.224 -1.609,
            1.230 6.085 -1.750,
            0.946 6.279 -1.609,
            0.925 6.139 -1.750,
            0.632 6.318 -1.609,
            0.618 6.178 -1.750,
            0.317 6.342 -1.609,
            0.309 6.201 -1.750,
            0.000 6.350 -1.609,
            0.000 6.209 -1.750,
            0.000 6.350 2.462,
            0.317 6.342 2.462,
            0.632 6.318 2.462,
            0.946 6.279 2.462,
            1.258 6.224 2.462,
            1.567 6.154 2.462,
            1.872 6.068 2.462,
            2.172 5.967 2.462,
            2.467 5.851 2.462,
            2.755 5.721 2.462,
            3.037 5.577 2.462,
            3.311 5.418 2.462,
            3.577 5.247 2.462,
            3.834 5.062 2.462,
            4.082 4.864 2.462,
            4.319 4.655 2.462,
            4.546 4.434 2.462,
            4.761 4.202 2.462,
            4.965 3.959 2.462,
            5.156 3.707 2.462,
            5.334 3.445 2.462,
            5.499 3.175 2.462,
            5.651 2.897 2.462,
            5.788 2.612 2.462,
            5.911 2.320 2.462,
            6.019 2.022 2.462,
            6.113 1.720 2.462,
            6.191 1.413 2.462,
            6.254 1.103 2.462,
            6.301 0.790 2.462,
            6.332 0.475 2.462,
            6.348 0.158 2.462,
            6.348 -0.158 2.462,
            6.332 -0.475 2.462,
            6.301 -0.790 2.462,
            6.254 -1.103 2.462,
            6.191 -1.413 2.462,
            6.113 -1.720 2.462,
            6.019 -2.022 2.462,
            5.911 -2.320 2.462,
            5.788 -2.612 2.462,
            5.651 -2.897 2.462,
            5.499 -3.175 2.462,
            5.334 -3.445 2.462,
            5.156 -3.707 2.462,
            4.965 -3.959 2.462,
            4.761 -4.202 2.462,
            4.546 -4.434 2.462,
            4.319 -4.655 2.462,
            4.082 -4.864 2.462,
            3.834 -5.062 2.462,
            3.577 -5.247 2.462,
            3.311 -5.418 2.462,
            3.037 -5.577 2.462,
            2.755 -5.721 2.462,
            2.467 -5.851 2.462,
            2.172 -5.967 2.462,
            1.872 -6.068 2.462,
            1.567 -6.154 2.462,
            1.258 -6.224 2.462,
            0.946 -6.279 2.462,
            0.632 -6.318 2.462,
            0.317 -6.342 2.462,
            0.000 -6.350 2.462,
            0.000 6.209 2.604,
            0.309 6.201 2.604,
            0.618 6.178 2.604,
            0.925 6.139 2.604,
            1.230 6.085 2.604,
            1.532 6.017 2.604,
            1.830 5.933 2.604,
            2.123 5.834 2.604,
            2.412 5.721 2.604,
            2.694 5.594 2.604,
            2.969 5.453 2.604,
            3.237 5.298 2.604,
            3.497 5.130 2.604,
            3.749 4.949 2.604,
            3.991 4.756 2.604,
            4.223 4.551 2.604,
            4.445 4.335 2.604,
            4.655 4.108 2.604,
            4.854 3.871 2.604,
            5.041 3.624 2.604,
            5.215 3.368 2.604,
            5.377 3.104 2.604,
            5.525 2.832 2.604,
            5.659 2.554 2.604,
            5.779 2.268 2.604,
            5.885 1.977 2.604,
            5.977 1.682 2.604,
            6.053 1.382 2.604,
            6.114 1.078 2.604,
            6.160 0.772 2.604,
            6.191 0.464 2.604,
            6.207 0.155 2.604,
            6.207 -0.155 2.604,
            6.191 -0.464 2.604,
            6.160 -0.772 2.604,
            6.114 -1.078 2.604,
            6.053 -1.382 2.604,
            5.977 -1.682 2.604,
            5.885 -1.977 2.604,
            5.779 -2.268 2.604,
            5.659 -2.554 2.604,
            5.525 -2.832 2.604,
            5.377 -3.104 2.604,
            5.215 -3.368 2.604,
            5.041 -3.624 2.604,
            4.854 -3.871 2.604,
            4.655 -4.108 2.604,
            4.445 -4.335 2.604,
            4.223 -4.551 2.604,
            3.991 -4.756 2.604,
            3.749 -4.949 2.604,
            3.497 -5.130 2.604,
            3.237 -5.298 2.604,
            2.969 -5.453 2.604,
            2.694 -5.594 2.604,
            2.412 -5.721 2.604,
            2.123 -5.834 2.604,
            1.830 -5.933 2.604,
            1.532 -6.017 2.604,
            1.230 -6.085 2.604,
            0.925 -6.139 2.604,
            0.618 -6.178 2.604,
            0.309 -6.201 2.604,
            0.000 -6.209 2.604,
            0.000 -5.194 2.344,
            -0.309 -6.201 2.604,
            -0.618 -6.178 2.604,
            -0.925 -6.139 2.604,
            0.000 5.194 2.344,
            -0.618 6.178 2.604,
            -0.925 6.139 2.604,
            -0.309 6.201 2.604,
            -4.445 -4.335 2.604,
            -4.680 -3.828 2.559,
            -4.655 -4.108 2.604,
            -4.854 -3.871 2.604,
            -5.041 -3.624 2.604,
            -5.215 -3.368 2.604,
            -2.694 -5.594 2.604,
            -3.133 -4.638 2.441,
            -2.969 -5.453 2.604,
            -3.237 -5.298 2.604,
            -3.497 -5.130 2.604,
            -3.749 -4.949 2.604,
            -3.991 -4.756 2.604,
            -4.223 -4.551 2.604,
            -4.680 -2.304 2.349,
            -5.377 -3.104 2.604,
            -5.525 -2.832 2.604,
            -5.659 -2.554 2.604,
            -5.779 -2.268 2.604,
            -5.885 -1.977 2.604,
            -5.977 -1.682 2.604,
            0.000 -4.168 2.131,
            -1.570 -5.436 2.457,
            -1.230 -6.085 2.604,
            -1.532 -6.017 2.604,
            -1.830 -5.933 2.604,
            -2.123 -5.834 2.604,
            -2.412 -5.721 2.604,
            -3.133 -3.104 2.177,
            -4.680 -0.769 2.244,
            -6.053 -1.382 2.604,
            -6.114 -1.078 2.604,
            -6.160 -0.772 2.604,
            -6.191 -0.464 2.604,
            -6.207 -0.155 2.604,
            -1.570 -3.901 2.138,
            0.000 -3.134 1.964,
            -3.133 -1.556 2.017,
            -4.680 0.769 2.244,
            -6.207 0.155 2.604,
            -6.191 0.464 2.604,
            -6.160 0.772 2.604,
            -6.114 1.078 2.604,
            -6.053 1.382 2.604,
            -5.977 1.682 2.604,
            0.000 -2.093 1.845,
            -1.570 -2.348 1.924,
            0.000 -1.047 1.774,
            -3.133 0.000 1.964,
            -4.680 2.304 2.349,
            -5.885 1.977 2.604,
            -5.779 2.268 2.604,
            -5.659 2.554 2.604,
            -5.525 2.832 2.604,
            -5.377 3.104 2.604,
            -5.215 3.368 2.604,
            0.000 0.000 1.750,
            -1.570 -0.784 1.817,
            -3.133 1.556 2.017,
            -4.680 3.828 2.559,
            -5.041 3.624 2.604,
            -4.854 3.871 2.604,
            -4.655 4.108 2.604,
            -4.445 4.335 2.604,
            0.000 1.047 1.774,
            -1.570 0.784 1.817,
            -3.133 3.104 2.177,
            -4.223 4.551 2.604,
            0.000 3.134 1.964,
            -1.570 2.348 1.924,
            0.000 2.093 1.845,
            -3.133 4.638 2.441,
            -3.991 4.756 2.604,
            -3.749 4.949 2.604,
            -3.497 5.130 2.604,
            -3.237 5.298 2.604,
            -2.969 5.453 2.604,
            -2.694 5.594 2.604,
            -1.570 3.901 2.138,
            0.000 4.168 2.131,
            -1.570 5.436 2.457,
            -2.412 5.721 2.604,
            -2.123 5.834 2.604,
            -1.830 5.933 2.604,
            -1.532 6.017 2.604,
            -1.230 6.085 2.604,
            1.570 -5.436 2.457,
            1.570 -3.901 2.138,
            3.133 -4.638 2.441,
            1.570 -2.348 1.924,
            3.133 -3.104 2.177,
            1.570 -0.784 1.817,
            4.680 -3.828 2.559,
            3.133 -1.556 2.017,
            1.570 0.784 1.817,
            4.680 -2.304 2.349,
            3.133 -0.000 1.964,
            1.570 2.348 1.924,
            4.680 -0.769 2.244,
            3.133 1.556 2.017,
            1.570 3.901 2.138,
            4.680 0.769 2.244,
            3.133 3.104 2.177,
            1.570 5.436 2.457,
            4.680 2.304 2.349,
            3.133 4.638 2.441,
            4.680 3.828 2.559,
            -0.317 -6.342 2.462,
            -0.632 -6.318 2.462,
            -0.946 -6.279 2.462,
            -1.258 -6.224 2.462,
            -1.567 -6.154 2.462,
            -1.872 -6.068 2.462,
            -2.172 -5.967 2.462,
            -2.467 -5.851 2.462,
            -2.755 -5.721 2.462,
            -3.037 -5.577 2.462,
            -3.311 -5.418 2.462,
            -3.577 -5.247 2.462,
            -3.834 -5.062 2.462,
            -4.082 -4.864 2.462,
            -4.319 -4.655 2.462,
            -4.546 -4.434 2.462,
            -4.761 -4.202 2.462,
            -4.965 -3.959 2.462,
            -5.156 -3.707 2.462,
            -5.334 -3.445 2.462,
            -5.499 -3.175 2.462,
            -5.651 -2.897 2.462,
            -5.788 -2.612 2.462,
            -5.911 -2.320 2.462,
            -6.019 -2.022 2.462,
            -6.113 -1.720 2.462,
            -6.191 -1.413 2.462,
            -6.254 -1.103 2.462,
            -6.301 -0.790 2.462,
            -6.332 -0.475 2.462,
            -6.348 -0.158 2.462,
            -6.348 0.158 2.462,
            -6.332 0.475 2.462,
            -6.301 0.790 2.462,
            -6.254 1.103 2.462,
            -6.191 1.413 2.462,
            -6.113 1.720 2.462,
            -6.019 2.022 2.462,
            -5.911 2.320 2.462,
            -5.788 2.612 2.462,
            -5.651 2.897 2.462,
            -5.499 3.175 2.462,
            -5.334 3.445 2.462,
            -5.156 3.707 2.462,
            -4.965 3.959 2.462,
            -4.761 4.202 2.462,
            -4.546 4.434 2.462,
            -4.319 4.655 2.462,
            -4.082 4.864 2.462,
            -3.834 5.062 2.462,
            -3.577 5.247 2.462,
            -3.311 5.418 2.462,
            -3.037 5.577 2.462,
            -2.755 5.721 2.462,
            -2.467 5.851 2.462,
            -2.172 5.967 2.462,
            -1.872 6.068 2.462,
            -1.567 6.154 2.462,
            -1.258 6.224 2.462,
            -0.946 6.279 2.462,
            -0.632 6.318 2.462,
            -0.317 6.342 2.462,
            -0.317 -6.342 -1.609,
            -0.632 -6.318 -1.609,
            -0.946 -6.279 -1.609,
            -1.258 -6.224 -1.609,
            -1.567 -6.154 -1.609,
            -1.872 -6.068 -1.609,
            -2.172 -5.967 -1.609,
            -2.467 -5.851 -1.609,
            -2.755 -5.721 -1.609,
            -3.037 -5.577 -1.609,
            -3.311 -5.418 -1.609,
            -3.577 -5.247 -1.609,
            -3.834 -5.062 -1.609,
            -4.082 -4.864 -1.609,
            -4.319 -4.655 -1.609,
            -4.546 -4.434 -1.609,
            -4.761 -4.202 -1.609,
            -4.965 -3.959 -1.609,
            -5.156 -3.707 -1.609,
            -5.334 -3.445 -1.609,
            -5.499 -3.175 -1.609,
            -5.651 -2.897 -1.609,
            -5.788 -2.612 -1.609,
            -5.911 -2.320 -1.609,
            -6.019 -2.022 -1.609,
            -6.113 -1.720 -1.609,
            -6.191 -1.413 -1.609,
            -6.254 -1.103 -1.609,
            -6.301 -0.790 -1.609,
            -6.332 -0.475 -1.609,
            -6.348 -0.158 -1.609,
            -6.348 0.158 -1.609,
            -6.332 0.475 -1.609,
            -6.301 0.790 -1.609,
            -6.254 1.103 -1.609,
            -6.191 1.413 -1.609,
            -6.113 1.720 -1.609,
            -6.019 2.022 -1.609,
            -5.911 2.320 -1.609,
            -5.788 2.612 -1.609,
            -5.651 2.897 -1.609,
            -5.499 3.175 -1.609,
            -5.334 3.445 -1.609,
            -5.156 3.707 -1.609,
            -4.965 3.959 -1.609,
            -4.761 4.202 -1.609,
            -4.546 4.434 -1.609,
            -4.319 4.655 -1.609,
            -4.082 4.864 -1.609,
            -3.834 5.062 -1.609,
            -3.577 5.247 -1.609,
            -3.311 5.418 -1.609,
            -3.037 5.577 -1.609,
            -2.755 5.721 -1.609,
            -2.467 5.851 -1.609,
            -2.172 5.967 -1.609,
            -1.872 6.068 -1.609,
            -1.567 6.154 -1.609,
            -1.258 6.224 -1.609,
            -0.946 6.279 -1.609,
            -0.632 6.318 -1.609,
            -0.317 6.342 -1.609,
            -0.309 6.201 -1.750,
            -0.618 6.178 -1.750,
            -0.925 6.139 -1.750,
            -1.230 6.085 -1.750,
            -1.532 6.017 -1.750,
            -1.830 5.933 -1.750,
            -2.123 5.834 -1.750,
            -2.412 5.721 -1.750,
            -2.694 5.594 -1.750,
            -2.969 5.453 -1.750,
            -3.237 5.298 -1.750,
            -3.497 5.130 -1.750,
            -3.749 4.949 -1.750,
            -3.991 4.756 -1.750,
            -4.223 4.551 -1.750,
            -4.445 4.335 -1.750,
            -4.655 4.108 -1.750,
            -4.854 3.871 -1.750,
            -5.041 3.624 -1.750,
            -5.215 3.368 -1.750,
            -5.377 3.104 -1.750,
            -5.525 2.832 -1.750,
            -5.659 2.554 -1.750,
            -5.779 2.268 -1.750,
            -5.885 1.977 -1.750,
            -5.977 1.682 -1.750,
            -6.053 1.382 -1.750,
            -6.114 1.078 -1.750,
            -6.160 0.772 -1.750,
            -6.191 0.464 -1.750,
            -6.207 0.155 -1.750,
            -6.207 -0.155 -1.750,
            -6.191 -0.464 -1.750,
            -6.160 -0.772 -1.750,
            -6.114 -1.078 -1.750,
            -6.053 -1.382 -1.750,
            -5.977 -1.682 -1.750,
            -5.885 -1.977 -1.750,
            -5.779 -2.268 -1.750,
            -5.659 -2.554 -1.750,
            -5.525 -2.832 -1.750,
            -5.377 -3.104 -1.750,
            -5.215 -3.368 -1.750,
            -5.041 -3.624 -1.750,
            -4.854 -3.871 -1.750,
            -4.655 -4.108 -1.750,
            -4.445 -4.335 -1.750,
            -4.223 -4.551 -1.750,
            -3.991 -4.756 -1.750,
            -3.749 -4.949 -1.750,
            -3.497 -5.130 -1.750,
            -3.237 -5.298 -1.750,
            -2.969 -5.453 -1.750,
            -2.694 -5.594 -1.750,
            -2.412 -5.721 -1.750,
            -2.123 -5.834 -1.750,
            -1.830 -5.933 -1.750,
            -1.532 -6.017 -1.750,
            -1.230 -6.085 -1.750,
            -0.925 -6.139 -1.750,
            -0.618 -6.178 -1.750,
            -0.309 -6.201 -1.750
          ]
        }
        coordIndex [
          0, 1, 2, -1,
          0, 2, 3, -1,
          4, 0, 3, -1,
          4, 3, 5, -1,
          6, 4, 5, -1,
          6, 5, 7, -1,
          8, 6, 7, -1,
          8, 7, 9, -1,
          10, 8, 9, -1,
          10, 9, 11, -1,
          12, 10, 11, -1,
          12, 11, 13, -1,
          14, 13, 15, -1,
          14, 12, 13, -1,
          16, 15, 17, -1,
          16, 14, 15, -1,
          18, 17, 19, -1,
          18, 16, 17, -1,
          20, 19, 21, -1,
          20, 18, 19, -1,
          22, 21, 23, -1,
          22, 20, 21, -1,
          24, 23, 25, -1,
          24, 22, 23, -1,
          26, 25, 27, -1,
          26, 24, 25, -1,
          28, 27, 29, -1,
          28, 26, 27, -1,
          30, 29, 31, -1,
          30, 28, 29, -1,
          32, 31, 33, -1,
          32, 30, 31, -1,
          34, 33, 35, -1,
          34, 32, 33, -1,
          36, 34, 35, -1,
          37, 34, 36, -1,
          38, 37, 36, -1,
          38, 36, 39, -1,
          40, 38, 39, -1,
          40, 39, 41, -1,
          42, 40, 41, -1,
          43, 40, 42, -1,
          44, 43, 42, -1,
          44, 42, 45, -1,
          46, 44, 45, -1,
          46, 45, 47, -1,
          48, 46, 47, -1,
          48, 47, 49, -1,
          50, 48, 49, -1,
          50, 49, 51, -1,
          52, 50, 51, -1,
          52, 51, 53, -1,
          54, 53, 55, -1,
          54, 52, 53, -1,
          56, 55, 57, -1,
          56, 54, 55, -1,
          58, 57, 59, -1,
          58, 56, 57, -1,
          60, 59, 61, -1,
          60, 58, 59, -1,
          62, 61, 63, -1,
          62, 60, 61, -1,
          64, 63, 65, -1,
          64, 62, 63, -1,
          66, 65, 67, -1,
          66, 64, 65, -1,
          68, 67, 69, -1,
          68, 66, 67, -1,
          70, 69, 71, -1,
          70, 68, 69, -1,
          72, 71, 73, -1,
          72, 70, 71, -1,
          74, 73, 75, -1,
          74, 72, 73, -1,
          76, 75, 77, -1,
          76, 74, 75, -1,
          78, 76, 77, -1,
          79, 76, 78, -1,
          80, 78, 81, -1,
          80, 79, 78, -1,
          82, 81, 83, -1,
          82, 80, 81, -1,
          84, 83, 85, -1,
          84, 82, 83, -1,
          86, 85, 87, -1,
          86, 84, 85, -1,
          88, 86, 87, -1,
          88, 87, 89, -1,
          90, 88, 89, -1,
          91, 88, 90, -1,
          92, 91, 90, -1,
          92, 90, 93, -1,
          94, 92, 93, -1,
          94, 93, 95, -1,
          96, 95, 97, -1,
          96, 94, 95, -1,
          98, 96, 97, -1,
          99, 96, 98, -1,
          100, 98, 101, -1,
          100, 99, 98, -1,
          102, 101, 103, -1,
          102, 100, 101, -1,
          104, 102, 103, -1,
          105, 102, 104, -1,
          106, 104, 107, -1,
          106, 105, 104, -1,
          108, 107, 109, -1,
          108, 106, 107, -1,
          110, 109, 111, -1,
          110, 108, 109, -1,
          112, 111, 113, -1,
          112, 110, 111, -1,
          114, 113, 115, -1,
          114, 112, 113, -1,
          116, 115, 117, -1,
          116, 114, 115, -1,
          118, 117, 119, -1,
          118, 116, 117, -1,
          120, 119, 121, -1,
          120, 118, 119, -1,
          122, 121, 123, -1,
          122, 120, 121, -1,
          124, 123, 125, -1,
          124, 122, 123, -1,
          126, 125, 127, -1,
          126, 124, 125, -1,
          124, 128, 129, -1,
          124, 126, 128, -1,
          122, 129, 130, -1,
          122, 130, 131, -1,
          122, 124, 129, -1,
          120, 122, 131, -1,
          118, 131, 132, -1,
          118, 132, 133, -1,
          118, 120, 131, -1,
          116, 118, 133, -1,
          114, 133, 134, -1,
          114, 116, 133, -1,
          112, 134, 135, -1,
          112, 114, 134, -1,
          110, 135, 136, -1,
          110, 136, 137, -1,
          110, 112, 135, -1,
          108, 110, 137, -1,
          106, 137, 138, -1,
          106, 138, 139, -1,
          106, 108, 137, -1,
          105, 106, 139, -1,
          102, 139, 140, -1,
          102, 105, 139, -1,
          100, 140, 141, -1,
          100, 102, 140, -1,
          99, 141, 142, -1,
          99, 142, 143, -1,
          99, 100, 141, -1,
          96, 99, 143, -1,
          94, 143, 144, -1,
          94, 96, 143, -1,
          92, 144, 145, -1,
          92, 94, 144, -1,
          91, 145, 146, -1,
          91, 92, 145, -1,
          88, 91, 146, -1,
          88, 146, 147, -1,
          86, 88, 147, -1,
          86, 147, 148, -1,
          84, 86, 148, -1,
          84, 148, 149, -1,
          82, 84, 149, -1,
          82, 149, 150, -1,
          80, 150, 151, -1,
          80, 82, 150, -1,
          79, 151, 152, -1,
          79, 152, 153, -1,
          79, 80, 151, -1,
          76, 79, 153, -1,
          74, 153, 154, -1,
          74, 76, 153, -1,
          72, 154, 155, -1,
          72, 155, 156, -1,
          72, 74, 154, -1,
          70, 72, 156, -1,
          68, 156, 157, -1,
          68, 157, 158, -1,
          68, 70, 156, -1,
          66, 68, 158, -1,
          64, 158, 159, -1,
          64, 159, 160, -1,
          64, 66, 158, -1,
          62, 64, 160, -1,
          60, 160, 161, -1,
          60, 62, 160, -1,
          58, 161, 162, -1,
          58, 162, 163, -1,
          58, 60, 161, -1,
          56, 58, 163, -1,
          54, 163, 164, -1,
          54, 164, 165, -1,
          54, 56, 163, -1,
          52, 54, 165, -1,
          50, 165, 166, -1,
          50, 52, 165, -1,
          48, 166, 167, -1,
          48, 50, 166, -1,
          46, 167, 168, -1,
          46, 48, 167, -1,
          44, 168, 169, -1,
          44, 46, 168, -1,
          43, 169, 170, -1,
          43, 44, 169, -1,
          40, 43, 170, -1,
          40, 170, 171, -1,
          38, 40, 171, -1,
          38, 171, 172, -1,
          37, 38, 172, -1,
          37, 172, 173, -1,
          37, 173, 174, -1,
          34, 37, 174, -1,
          32, 34, 174, -1,
          32, 174, 175, -1,
          32, 175, 176, -1,
          30, 32, 176, -1,
          28, 30, 176, -1,
          28, 176, 177, -1,
          28, 177, 178, -1,
          26, 28, 178, -1,
          24, 26, 178, -1,
          24, 178, 179, -1,
          22, 24, 179, -1,
          22, 179, 180, -1,
          22, 180, 181, -1,
          20, 22, 181, -1,
          18, 20, 181, -1,
          18, 181, 182, -1,
          18, 182, 183, -1,
          16, 18, 183, -1,
          14, 183, 184, -1,
          14, 16, 183, -1,
          14, 184, 185, -1,
          12, 14, 185, -1,
          10, 12, 185, -1,
          10, 185, 186, -1,
          10, 186, 187, -1,
          8, 10, 187, -1,
          6, 187, 188, -1,
          6, 188, 189, -1,
          6, 8, 187, -1,
          4, 189, 190, -1,
          4, 6, 189, -1,
          0, 4, 190, -1,
          1, 190, 191, -1,
          1, 0, 190, -1,
          129, 192, 193, -1,
          129, 128, 192, -1,
          130, 193, 194, -1,
          130, 129, 193, -1,
          131, 194, 195, -1,
          131, 130, 194, -1,
          132, 195, 196, -1,
          132, 131, 195, -1,
          133, 196, 197, -1,
          133, 132, 196, -1,
          134, 197, 198, -1,
          134, 133, 197, -1,
          135, 198, 199, -1,
          135, 134, 198, -1,
          200, 135, 199, -1,
          136, 135, 200, -1,
          201, 136, 200, -1,
          137, 136, 201, -1,
          202, 137, 201, -1,
          138, 137, 202, -1,
          139, 202, 203, -1,
          139, 138, 202, -1,
          204, 139, 203, -1,
          140, 139, 204, -1,
          205, 140, 204, -1,
          141, 140, 205, -1,
          142, 205, 206, -1,
          142, 141, 205, -1,
          143, 206, 207, -1,
          143, 142, 206, -1,
          144, 207, 208, -1,
          144, 143, 207, -1,
          145, 208, 209, -1,
          145, 144, 208, -1,
          146, 209, 210, -1,
          146, 145, 209, -1,
          147, 146, 210, -1,
          147, 210, 211, -1,
          148, 147, 211, -1,
          148, 211, 212, -1,
          149, 148, 212, -1,
          149, 212, 213, -1,
          150, 149, 213, -1,
          150, 213, 214, -1,
          215, 150, 214, -1,
          151, 150, 215, -1,
          152, 215, 216, -1,
          152, 151, 215, -1,
          153, 216, 217, -1,
          153, 152, 216, -1,
          218, 153, 217, -1,
          154, 153, 218, -1,
          155, 218, 219, -1,
          155, 154, 218, -1,
          156, 219, 220, -1,
          156, 155, 219, -1,
          157, 220, 221, -1,
          157, 156, 220, -1,
          158, 221, 222, -1,
          158, 157, 221, -1,
          159, 222, 223, -1,
          159, 158, 222, -1,
          160, 223, 224, -1,
          160, 159, 223, -1,
          161, 224, 225, -1,
          161, 160, 224, -1,
          162, 225, 226, -1,
          162, 161, 225, -1,
          163, 226, 227, -1,
          163, 162, 226, -1,
          164, 227, 228, -1,
          164, 163, 227, -1,
          165, 228, 229, -1,
          165, 164, 228, -1,
          166, 229, 230, -1,
          166, 165, 229, -1,
          231, 166, 230, -1,
          167, 166, 231, -1,
          168, 231, 232, -1,
          168, 167, 231, -1,
          169, 232, 233, -1,
          169, 168, 232, -1,
          170, 233, 234, -1,
          170, 169, 233, -1,
          171, 170, 234, -1,
          171, 234, 235, -1,
          172, 235, 236, -1,
          172, 171, 235, -1,
          173, 172, 236, -1,
          173, 236, 237, -1,
          238, 173, 237, -1,
          174, 173, 238, -1,
          175, 174, 238, -1,
          175, 238, 239, -1,
          176, 175, 239, -1,
          176, 239, 240, -1,
          177, 176, 240, -1,
          177, 240, 241, -1,
          178, 177, 241, -1,
          178, 241, 242, -1,
          243, 178, 242, -1,
          179, 178, 243, -1,
          244, 179, 243, -1,
          180, 179, 244, -1,
          181, 180, 244, -1,
          181, 244, 245, -1,
          182, 181, 245, -1,
          182, 245, 246, -1,
          183, 182, 246, -1,
          183, 246, 247, -1,
          184, 183, 247, -1,
          184, 247, 248, -1,
          185, 184, 248, -1,
          185, 248, 249, -1,
          186, 249, 250, -1,
          186, 185, 249, -1,
          187, 250, 251, -1,
          187, 186, 250, -1,
          188, 251, 252, -1,
          188, 187, 251, -1,
          189, 252, 253, -1,
          189, 188, 252, -1,
          190, 253, 254, -1,
          190, 189, 253, -1,
          191, 254, 255, -1,
          191, 190, 254, -1,
          255, 256, 257, -1,
          257, 256, 258, -1,
          258, 256, 259, -1,
          260, 261, 262, -1,
          260, 263, 261, -1,
          260, 192, 263, -1,
          264, 265, 266, -1,
          266, 265, 267, -1,
          267, 265, 268, -1,
          268, 265, 269, -1,
          270, 271, 272, -1,
          272, 271, 273, -1,
          273, 271, 274, -1,
          274, 271, 275, -1,
          275, 271, 276, -1,
          276, 271, 277, -1,
          269, 278, 279, -1,
          279, 278, 280, -1,
          280, 278, 281, -1,
          281, 278, 282, -1,
          282, 278, 283, -1,
          283, 278, 284, -1,
          265, 278, 269, -1,
          285, 286, 256, -1,
          270, 286, 271, -1,
          259, 286, 287, -1,
          287, 286, 288, -1,
          288, 286, 289, -1,
          289, 286, 290, -1,
          290, 286, 291, -1,
          291, 286, 270, -1,
          256, 286, 259, -1,
          277, 292, 264, -1,
          265, 292, 278, -1,
          271, 292, 277, -1,
          264, 292, 265, -1,
          278, 293, 284, -1,
          284, 293, 294, -1,
          294, 293, 295, -1,
          295, 293, 296, -1,
          296, 293, 297, -1,
          297, 293, 298, -1,
          271, 299, 292, -1,
          300, 299, 285, -1,
          285, 299, 286, -1,
          286, 299, 271, -1,
          292, 301, 278, -1,
          278, 301, 293, -1,
          298, 302, 303, -1,
          303, 302, 304, -1,
          304, 302, 305, -1,
          305, 302, 306, -1,
          306, 302, 307, -1,
          307, 302, 308, -1,
          293, 302, 298, -1,
          309, 310, 300, -1,
          311, 310, 309, -1,
          292, 310, 301, -1,
          300, 310, 299, -1,
          299, 310, 292, -1,
          301, 312, 293, -1,
          293, 312, 302, -1,
          308, 313, 314, -1,
          314, 313, 315, -1,
          315, 313, 316, -1,
          316, 313, 317, -1,
          317, 313, 318, -1,
          318, 313, 319, -1,
          302, 313, 308, -1,
          320, 321, 311, -1,
          310, 321, 301, -1,
          301, 321, 312, -1,
          311, 321, 310, -1,
          302, 322, 313, -1,
          312, 322, 302, -1,
          319, 323, 324, -1,
          324, 323, 325, -1,
          325, 323, 326, -1,
          326, 323, 327, -1,
          313, 323, 319, -1,
          328, 329, 320, -1,
          321, 329, 312, -1,
          312, 329, 322, -1,
          320, 329, 321, -1,
          323, 330, 327, -1,
          327, 330, 331, -1,
          322, 330, 313, -1,
          313, 330, 323, -1,
          332, 333, 334, -1,
          334, 333, 328, -1,
          328, 333, 329, -1,
          329, 333, 322, -1,
          322, 333, 330, -1,
          330, 335, 331, -1,
          331, 335, 336, -1,
          336, 335, 337, -1,
          337, 335, 338, -1,
          338, 335, 339, -1,
          339, 335, 340, -1,
          340, 335, 341, -1,
          332, 342, 333, -1,
          343, 342, 332, -1,
          333, 342, 330, -1,
          330, 342, 335, -1,
          260, 344, 343, -1,
          342, 344, 335, -1,
          262, 344, 260, -1,
          341, 344, 345, -1,
          345, 344, 346, -1,
          346, 344, 347, -1,
          347, 344, 348, -1,
          348, 344, 349, -1,
          349, 344, 262, -1,
          343, 344, 342, -1,
          335, 344, 341, -1,
          252, 256, 253, -1,
          253, 256, 254, -1,
          254, 256, 255, -1,
          260, 193, 192, -1,
          260, 194, 193, -1,
          260, 195, 194, -1,
          246, 350, 247, -1,
          247, 350, 248, -1,
          248, 350, 249, -1,
          249, 350, 250, -1,
          250, 350, 251, -1,
          251, 350, 252, -1,
          256, 350, 285, -1,
          252, 350, 256, -1,
          285, 351, 300, -1,
          350, 351, 285, -1,
          246, 352, 350, -1,
          240, 352, 241, -1,
          241, 352, 242, -1,
          242, 352, 243, -1,
          243, 352, 244, -1,
          244, 352, 245, -1,
          245, 352, 246, -1,
          350, 352, 351, -1,
          300, 353, 309, -1,
          309, 353, 311, -1,
          351, 353, 300, -1,
          240, 354, 352, -1,
          239, 354, 240, -1,
          352, 354, 351, -1,
          351, 354, 353, -1,
          311, 355, 320, -1,
          353, 355, 311, -1,
          235, 356, 236, -1,
          236, 356, 237, -1,
          237, 356, 238, -1,
          238, 356, 239, -1,
          239, 356, 354, -1,
          353, 357, 355, -1,
          354, 357, 353, -1,
          320, 358, 328, -1,
          355, 358, 320, -1,
          354, 359, 357, -1,
          356, 359, 354, -1,
          229, 359, 230, -1,
          230, 359, 231, -1,
          231, 359, 232, -1,
          232, 359, 233, -1,
          233, 359, 234, -1,
          234, 359, 235, -1,
          235, 359, 356, -1,
          355, 360, 358, -1,
          357, 360, 355, -1,
          334, 361, 332, -1,
          328, 361, 334, -1,
          358, 361, 328, -1,
          359, 362, 357, -1,
          224, 362, 225, -1,
          225, 362, 226, -1,
          226, 362, 227, -1,
          227, 362, 228, -1,
          228, 362, 229, -1,
          229, 362, 359, -1,
          357, 362, 360, -1,
          360, 363, 358, -1,
          358, 363, 361, -1,
          332, 364, 343, -1,
          361, 364, 332, -1,
          360, 365, 363, -1,
          218, 365, 219, -1,
          219, 365, 220, -1,
          220, 365, 221, -1,
          221, 365, 222, -1,
          222, 365, 223, -1,
          223, 365, 224, -1,
          224, 365, 362, -1,
          362, 365, 360, -1,
          361, 366, 364, -1,
          207, 366, 208, -1,
          363, 366, 361, -1,
          343, 367, 260, -1,
          364, 367, 343, -1,
          195, 367, 196, -1,
          196, 367, 197, -1,
          197, 367, 198, -1,
          198, 367, 199, -1,
          199, 367, 200, -1,
          200, 367, 201, -1,
          260, 367, 195, -1,
          212, 368, 213, -1,
          213, 368, 214, -1,
          214, 368, 215, -1,
          215, 368, 216, -1,
          216, 368, 217, -1,
          217, 368, 218, -1,
          365, 368, 363, -1,
          218, 368, 365, -1,
          363, 368, 366, -1,
          366, 369, 364, -1,
          207, 369, 366, -1,
          201, 369, 202, -1,
          202, 369, 203, -1,
          203, 369, 204, -1,
          204, 369, 205, -1,
          205, 369, 206, -1,
          206, 369, 207, -1,
          367, 369, 201, -1,
          364, 369, 367, -1,
          368, 370, 366, -1,
          208, 370, 209, -1,
          209, 370, 210, -1,
          210, 370, 211, -1,
          211, 370, 212, -1,
          366, 370, 208, -1,
          212, 370, 368, -1,
          371, 191, 255, -1,
          371, 255, 257, -1,
          372, 257, 258, -1,
          372, 371, 257, -1,
          373, 258, 259, -1,
          373, 372, 258, -1,
          374, 259, 287, -1,
          374, 373, 259, -1,
          375, 287, 288, -1,
          375, 374, 287, -1,
          376, 288, 289, -1,
          376, 375, 288, -1,
          377, 289, 290, -1,
          377, 376, 289, -1,
          378, 290, 291, -1,
          378, 377, 290, -1,
          379, 291, 270, -1,
          379, 378, 291, -1,
          380, 270, 272, -1,
          380, 379, 270, -1,
          381, 272, 273, -1,
          381, 380, 272, -1,
          274, 381, 273, -1,
          382, 381, 274, -1,
          383, 274, 275, -1,
          383, 382, 274, -1,
          384, 275, 276, -1,
          384, 383, 275, -1,
          277, 384, 276, -1,
          385, 384, 277, -1,
          264, 385, 277, -1,
          386, 385, 264, -1,
          387, 264, 266, -1,
          387, 386, 264, -1,
          267, 387, 266, -1,
          388, 387, 267, -1,
          389, 388, 267, -1,
          389, 267, 268, -1,
          269, 389, 268, -1,
          390, 389, 269, -1,
          279, 390, 269, -1,
          391, 390, 279, -1,
          392, 391, 279, -1,
          392, 279, 280, -1,
          281, 392, 280, -1,
          393, 392, 281, -1,
          394, 281, 282, -1,
          394, 393, 281, -1,
          395, 282, 283, -1,
          395, 394, 282, -1,
          396, 283, 284, -1,
          396, 395, 283, -1,
          397, 284, 294, -1,
          397, 396, 284, -1,
          398, 294, 295, -1,
          398, 397, 294, -1,
          399, 295, 296, -1,
          399, 398, 295, -1,
          400, 296, 297, -1,
          400, 399, 296, -1,
          401, 297, 298, -1,
          401, 400, 297, -1,
          402, 298, 303, -1,
          402, 401, 298, -1,
          403, 303, 304, -1,
          403, 402, 303, -1,
          404, 304, 305, -1,
          404, 403, 304, -1,
          405, 305, 306, -1,
          405, 404, 305, -1,
          406, 306, 307, -1,
          406, 405, 306, -1,
          407, 307, 308, -1,
          407, 406, 307, -1,
          408, 308, 314, -1,
          408, 407, 308, -1,
          315, 408, 314, -1,
          409, 408, 315, -1,
          316, 409, 315, -1,
          410, 409, 316, -1,
          317, 410, 316, -1,
          411, 410, 317, -1,
          412, 317, 318, -1,
          412, 411, 317, -1,
          413, 412, 318, -1,
          413, 318, 319, -1,
          324, 413, 319, -1,
          414, 413, 324, -1,
          325, 414, 324, -1,
          415, 414, 325, -1,
          326, 415, 325, -1,
          416, 415, 326, -1,
          417, 416, 326, -1,
          417, 326, 327, -1,
          418, 417, 327, -1,
          418, 327, 331, -1,
          419, 418, 331, -1,
          419, 331, 336, -1,
          337, 419, 336, -1,
          420, 419, 337, -1,
          421, 420, 337, -1,
          421, 337, 338, -1,
          422, 421, 338, -1,
          422, 338, 339, -1,
          423, 422, 339, -1,
          423, 339, 340, -1,
          424, 423, 340, -1,
          424, 340, 341, -1,
          425, 424, 341, -1,
          425, 341, 345, -1,
          426, 425, 345, -1,
          426, 345, 346, -1,
          427, 426, 346, -1,
          427, 346, 347, -1,
          428, 347, 348, -1,
          428, 427, 347, -1,
          429, 348, 349, -1,
          429, 428, 348, -1,
          430, 349, 262, -1,
          430, 429, 349, -1,
          431, 262, 261, -1,
          431, 430, 262, -1,
          432, 261, 263, -1,
          432, 431, 261, -1,
          128, 263, 192, -1,
          128, 432, 263, -1,
          433, 1, 191, -1,
          433, 191, 371, -1,
          434, 371, 372, -1,
          434, 433, 371, -1,
          435, 372, 373, -1,
          435, 434, 372, -1,
          436, 373, 374, -1,
          436, 435, 373, -1,
          437, 374, 375, -1,
          437, 436, 374, -1,
          438, 375, 376, -1,
          438, 376, 377, -1,
          438, 437, 375, -1,
          439, 377, 378, -1,
          439, 438, 377, -1,
          440, 439, 378, -1,
          441, 378, 379, -1,
          441, 440, 378, -1,
          442, 379, 380, -1,
          442, 441, 379, -1,
          443, 380, 381, -1,
          443, 442, 380, -1,
          444, 381, 382, -1,
          444, 443, 381, -1,
          445, 382, 383, -1,
          445, 383, 384, -1,
          445, 444, 382, -1,
          446, 445, 384, -1,
          447, 384, 385, -1,
          447, 446, 384, -1,
          448, 385, 386, -1,
          448, 447, 385, -1,
          449, 386, 387, -1,
          449, 448, 386, -1,
          450, 387, 388, -1,
          450, 449, 387, -1,
          451, 450, 388, -1,
          451, 388, 389, -1,
          452, 451, 389, -1,
          452, 389, 390, -1,
          453, 452, 390, -1,
          453, 390, 391, -1,
          454, 453, 391, -1,
          454, 391, 392, -1,
          455, 392, 393, -1,
          455, 454, 392, -1,
          456, 393, 394, -1,
          456, 455, 393, -1,
          456, 394, 395, -1,
          457, 456, 395, -1,
          458, 395, 396, -1,
          458, 457, 395, -1,
          459, 396, 397, -1,
          459, 458, 396, -1,
          460, 397, 398, -1,
          460, 459, 397, -1,
          461, 398, 399, -1,
          461, 460, 398, -1,
          462, 399, 400, -1,
          462, 461, 399, -1,
          463, 400, 401, -1,
          463, 401, 402, -1,
          463, 462, 400, -1,
          464, 463, 402, -1,
          465, 402, 403, -1,
          465, 464, 402, -1,
          466, 403, 404, -1,
          466, 465, 403, -1,
          467, 404, 405, -1,
          467, 466, 404, -1,
          468, 405, 406, -1,
          468, 467, 405, -1,
          469, 406, 407, -1,
          469, 407, 408, -1,
          469, 468, 406, -1,
          470, 469, 408, -1,
          471, 408, 409, -1,
          471, 470, 408, -1,
          472, 409, 410, -1,
          472, 410, 411, -1,
          472, 471, 409, -1,
          473, 472, 411, -1,
          474, 411, 412, -1,
          474, 412, 413, -1,
          474, 473, 411, -1,
          475, 474, 413, -1,
          476, 475, 413, -1,
          476, 413, 414, -1,
          477, 476, 414, -1,
          477, 414, 415, -1,
          478, 477, 415, -1,
          478, 415, 416, -1,
          478, 416, 417, -1,
          479, 478, 417, -1,
          480, 479, 417, -1,
          480, 417, 418, -1,
          480, 418, 419, -1,
          481, 480, 419, -1,
          482, 481, 419, -1,
          482, 419, 420, -1,
          482, 420, 421, -1,
          483, 482, 421, -1,
          484, 483, 421, -1,
          484, 421, 422, -1,
          485, 484, 422, -1,
          485, 422, 423, -1,
          485, 423, 424, -1,
          486, 485, 424, -1,
          486, 424, 425, -1,
          487, 486, 425, -1,
          487, 425, 426, -1,
          488, 487, 426, -1,
          489, 426, 427, -1,
          489, 427, 428, -1,
          489, 488, 426, -1,
          490, 489, 428, -1,
          491, 428, 429, -1,
          491, 429, 430, -1,
          491, 490, 428, -1,
          492, 491, 430, -1,
          493, 430, 431, -1,
          493, 431, 432, -1,
          493, 492, 430, -1,
          494, 493, 432, -1,
          126, 432, 128, -1,
          126, 494, 432, -1,
          494, 126, 127, -1,
          494, 127, 495, -1,
          493, 494, 495, -1,
          493, 495, 496, -1,
          492, 493, 496, -1,
          492, 496, 497, -1,
          491, 492, 497, -1,
          491, 497, 498, -1,
          490, 491, 498, -1,
          490, 498, 499, -1,
          489, 490, 499, -1,
          489, 499, 500, -1,
          488, 500, 501, -1,
          488, 489, 500, -1,
          487, 501, 502, -1,
          487, 488, 501, -1,
          486, 502, 503, -1,
          486, 487, 502, -1,
          485, 503, 504, -1,
          485, 486, 503, -1,
          505, 485, 504, -1,
          484, 485, 505, -1,
          483, 505, 506, -1,
          483, 484, 505, -1,
          482, 506, 507, -1,
          482, 483, 506, -1,
          508, 482, 507, -1,
          481, 482, 508, -1,
          480, 508, 509, -1,
          480, 481, 508, -1,
          479, 509, 510, -1,
          479, 480, 509, -1,
          478, 510, 511, -1,
          478, 479, 510, -1,
          477, 478, 511, -1,
          477, 511, 512, -1,
          476, 477, 512, -1,
          476, 512, 513, -1,
          475, 476, 513, -1,
          475, 513, 514, -1,
          474, 475, 514, -1,
          474, 514, 515, -1,
          516, 474, 515, -1,
          473, 474, 516, -1,
          472, 473, 516, -1,
          472, 516, 517, -1,
          471, 472, 517, -1,
          471, 517, 518, -1,
          470, 471, 518, -1,
          470, 518, 519, -1,
          469, 470, 519, -1,
          469, 519, 520, -1,
          468, 469, 520, -1,
          468, 520, 521, -1,
          467, 521, 522, -1,
          467, 468, 521, -1,
          466, 522, 523, -1,
          466, 467, 522, -1,
          465, 523, 524, -1,
          465, 466, 523, -1,
          464, 524, 525, -1,
          464, 465, 524, -1,
          463, 525, 526, -1,
          463, 464, 525, -1,
          462, 526, 527, -1,
          462, 463, 526, -1,
          461, 527, 528, -1,
          461, 462, 527, -1,
          460, 528, 529, -1,
          460, 461, 528, -1,
          459, 529, 530, -1,
          459, 460, 529, -1,
          458, 530, 531, -1,
          458, 459, 530, -1,
          457, 531, 532, -1,
          457, 458, 531, -1,
          456, 532, 533, -1,
          456, 457, 532, -1,
          534, 456, 533, -1,
          455, 456, 534, -1,
          454, 534, 535, -1,
          454, 455, 534, -1,
          453, 535, 536, -1,
          453, 454, 535, -1,
          452, 536, 537, -1,
          452, 453, 536, -1,
          451, 452, 537, -1,
          451, 537, 538, -1,
          450, 451, 538, -1,
          450, 538, 539, -1,
          449, 450, 539, -1,
          449, 539, 540, -1,
          541, 449, 540, -1,
          448, 449, 541, -1,
          447, 541, 542, -1,
          447, 448, 541, -1,
          543, 447, 542, -1,
          446, 447, 543, -1,
          445, 543, 544, -1,
          445, 446, 543, -1,
          444, 544, 545, -1,
          444, 445, 544, -1,
          546, 444, 545, -1,
          443, 444, 546, -1,
          442, 546, 547, -1,
          442, 443, 546, -1,
          441, 547, 548, -1,
          441, 442, 547, -1,
          440, 548, 549, -1,
          440, 441, 548, -1,
          439, 549, 550, -1,
          439, 440, 549, -1,
          438, 550, 551, -1,
          438, 439, 550, -1,
          437, 551, 552, -1,
          437, 438, 551, -1,
          436, 552, 553, -1,
          436, 437, 552, -1,
          435, 553, 554, -1,
          435, 436, 553, -1,
          434, 554, 555, -1,
          434, 435, 554, -1,
          433, 555, 556, -1,
          433, 434, 555, -1,
          1, 556, 2, -1,
          1, 433, 556, -1,
          544, 543, 542, -1,
          538, 541, 540, -1,
          538, 540, 539, -1,
          545, 542, 541, -1,
          545, 544, 542, -1,
          536, 538, 537, -1,
          547, 546, 545, -1,
          534, 536, 535, -1,
          534, 541, 538, -1,
          534, 545, 541, -1,
          534, 538, 536, -1,
          551, 550, 549, -1,
          551, 549, 548, -1,
          551, 548, 547, -1,
          551, 547, 545, -1,
          530, 533, 532, -1,
          530, 532, 531, -1,
          528, 534, 533, -1,
          528, 530, 529, -1,
          528, 533, 530, -1,
          527, 552, 551, -1,
          527, 545, 534, -1,
          527, 551, 545, -1,
          527, 534, 528, -1,
          2, 556, 555, -1,
          2, 555, 554, -1,
          2, 554, 553, -1,
          2, 553, 552, -1,
          524, 526, 525, -1,
          13, 11, 9, -1,
          13, 9, 7, -1,
          13, 7, 5, -1,
          13, 5, 3, -1,
          13, 3, 2, -1,
          518, 524, 523, -1,
          518, 523, 522, -1,
          518, 522, 521, -1,
          518, 521, 520, -1,
          518, 520, 519, -1,
          518, 526, 524, -1,
          17, 13, 2, -1,
          17, 15, 13, -1,
          21, 17, 2, -1,
          21, 19, 17, -1,
          21, 2, 552, -1,
          515, 517, 516, -1,
          514, 517, 515, -1,
          514, 518, 517, -1,
          513, 526, 518, -1,
          513, 518, 514, -1,
          27, 25, 23, -1,
          27, 23, 21, -1,
          31, 29, 27, -1,
          33, 27, 21, -1,
          33, 31, 27, -1,
          509, 513, 512, -1,
          509, 512, 511, -1,
          509, 511, 510, -1,
          35, 33, 21, -1,
          36, 35, 21, -1,
          507, 509, 508, -1,
          507, 513, 509, -1,
          39, 36, 21, -1,
          41, 39, 21, -1,
          503, 505, 504, -1,
          502, 507, 506, -1,
          502, 506, 505, -1,
          502, 505, 503, -1,
          49, 47, 45, -1,
          49, 45, 42, -1,
          49, 42, 41, -1,
          49, 41, 21, -1,
          500, 502, 501, -1,
          500, 507, 502, -1,
          53, 51, 49, -1,
          499, 507, 500, -1,
          55, 53, 49, -1,
          497, 499, 498, -1,
          496, 499, 497, -1,
          496, 513, 507, -1,
          496, 507, 499, -1,
          61, 59, 57, -1,
          61, 57, 55, -1,
          71, 61, 55, -1,
          71, 527, 526, -1,
          71, 21, 552, -1,
          71, 526, 513, -1,
          71, 552, 527, -1,
          71, 49, 21, -1,
          71, 69, 67, -1,
          71, 67, 65, -1,
          71, 65, 63, -1,
          71, 63, 61, -1,
          71, 55, 49, -1,
          119, 496, 495, -1,
          119, 495, 127, -1,
          119, 127, 125, -1,
          119, 125, 123, -1,
          119, 123, 121, -1,
          75, 73, 71, -1,
          115, 513, 496, -1,
          115, 496, 119, -1,
          115, 119, 117, -1,
          77, 75, 71, -1,
          78, 77, 71, -1,
          111, 115, 113, -1,
          81, 78, 71, -1,
          107, 513, 115, -1,
          107, 115, 111, -1,
          107, 111, 109, -1,
          85, 71, 513, -1,
          85, 513, 107, -1,
          85, 81, 71, -1,
          85, 83, 81, -1,
          90, 89, 87, -1,
          90, 87, 85, -1,
          93, 85, 107, -1,
          93, 90, 85, -1,
          93, 107, 104, -1,
          93, 104, 103, -1,
          93, 103, 101, -1,
          93, 101, 98, -1,
          95, 93, 98, -1,
          95, 98, 97, -1
        ]
      }
    }
}
