#VRML V2.0 utf8
WorldInfo {
  title "Exported triangle mesh to VRML97"
  info ["Created by FreeCAD"
        "<https://www.freecad.org>"]
}

Transform {
  scale 1 1 1
  rotation 0 0 1 0
  scaleOrientation 0 0 1 0
  center 0.000 0.000 0.000
  translation 0.000 0.000 0.000
  children
    Shape { 
      appearance
      Appearance {
        material
        Material {
          diffuseColor 0.8 0.8 0.8
        }
      }
      geometry
      IndexedFaceSet {
        coord
        Coordinate {
          point [
            0.317 -6.342 -1.609,
            0.000 -6.350 -1.609,
            0.000 -6.209 -1.750,
            0.309 -6.201 -1.750,
            0.632 -6.318 -1.609,
            0.618 -6.178 -1.750,
            0.946 -6.279 -1.609,
            0.925 -6.139 -1.750,
            1.258 -6.224 -1.609,
            1.230 -6.085 -1.750,
            1.567 -6.154 -1.609,
            1.532 -6.017 -1.750,
            1.872 -6.068 -1.609,
            1.830 -5.933 -1.750,
            2.172 -5.967 -1.609,
            2.123 -5.834 -1.750,
            2.467 -5.851 -1.609,
            2.412 -5.721 -1.750,
            2.755 -5.721 -1.609,
            2.694 -5.594 -1.750,
            3.037 -5.577 -1.609,
            2.969 -5.453 -1.750,
            3.311 -5.418 -1.609,
            3.237 -5.298 -1.750,
            3.577 -5.247 -1.609,
            3.497 -5.130 -1.750,
            3.834 -5.062 -1.609,
            3.749 -4.949 -1.750,
            4.082 -4.864 -1.609,
            3.991 -4.756 -1.750,
            4.319 -4.655 -1.609,
            4.223 -4.551 -1.750,
            4.546 -4.434 -1.609,
            4.445 -4.335 -1.750,
            4.761 -4.202 -1.609,
            4.655 -4.108 -1.750,
            4.854 -3.871 -1.750,
            4.965 -3.959 -1.609,
            5.156 -3.707 -1.609,
            5.041 -3.624 -1.750,
            5.334 -3.445 -1.609,
            5.215 -3.368 -1.750,
            5.377 -3.104 -1.750,
            5.499 -3.175 -1.609,
            5.651 -2.897 -1.609,
            5.525 -2.832 -1.750,
            5.788 -2.612 -1.609,
            5.659 -2.554 -1.750,
            5.911 -2.320 -1.609,
            5.779 -2.268 -1.750,
            6.019 -2.022 -1.609,
            5.885 -1.977 -1.750,
            6.113 -1.720 -1.609,
            5.977 -1.682 -1.750,
            6.191 -1.413 -1.609,
            6.053 -1.382 -1.750,
            6.254 -1.103 -1.609,
            6.114 -1.078 -1.750,
            6.301 -0.790 -1.609,
            6.160 -0.772 -1.750,
            6.332 -0.475 -1.609,
            6.191 -0.464 -1.750,
            6.348 -0.158 -1.609,
            6.207 -0.155 -1.750,
            6.348 0.158 -1.609,
            6.207 0.155 -1.750,
            6.332 0.475 -1.609,
            6.191 0.464 -1.750,
            6.301 0.790 -1.609,
            6.160 0.772 -1.750,
            6.254 1.103 -1.609,
            6.114 1.078 -1.750,
            6.191 1.413 -1.609,
            6.053 1.382 -1.750,
            6.113 1.720 -1.609,
            5.977 1.682 -1.750,
            6.019 2.022 -1.609,
            5.885 1.977 -1.750,
            5.779 2.268 -1.750,
            5.911 2.320 -1.609,
            5.788 2.612 -1.609,
            5.659 2.554 -1.750,
            5.651 2.897 -1.609,
            5.525 2.832 -1.750,
            5.499 3.175 -1.609,
            5.377 3.104 -1.750,
            5.334 3.445 -1.609,
            5.215 3.368 -1.750,
            5.156 3.707 -1.609,
            5.041 3.624 -1.750,
            4.854 3.871 -1.750,
            4.965 3.959 -1.609,
            4.761 4.202 -1.609,
            4.655 4.108 -1.750,
            4.546 4.434 -1.609,
            4.445 4.335 -1.750,
            4.319 4.655 -1.609,
            4.223 4.551 -1.750,
            3.991 4.756 -1.750,
            4.082 4.864 -1.609,
            3.834 5.062 -1.609,
            3.749 4.949 -1.750,
            3.577 5.247 -1.609,
            3.497 5.130 -1.750,
            3.237 5.298 -1.750,
            3.311 5.418 -1.609,
            3.037 5.577 -1.609,
            2.969 5.453 -1.750,
            2.755 5.721 -1.609,
            2.694 5.594 -1.750,
            2.467 5.851 -1.609,
            2.412 5.721 -1.750,
            2.172 5.967 -1.609,
            2.123 5.834 -1.750,
            1.872 6.068 -1.609,
            1.830 5.933 -1.750,
            1.567 6.154 -1.609,
            1.532 6.017 -1.750,
            1.258 6.224 -1.609,
            1.230 6.085 -1.750,
            0.946 6.279 -1.609,
            0.925 6.139 -1.750,
            0.632 6.318 -1.609,
            0.618 6.178 -1.750,
            0.317 6.342 -1.609,
            0.309 6.201 -1.750,
            0.000 6.350 -1.609,
            0.000 6.209 -1.750,
            0.000 6.350 2.172,
            0.317 6.342 2.172,
            0.632 6.318 2.172,
            0.946 6.279 2.172,
            1.258 6.224 2.172,
            1.567 6.154 2.172,
            1.872 6.068 2.172,
            2.172 5.967 2.172,
            2.467 5.851 2.172,
            2.755 5.721 2.172,
            3.037 5.577 2.172,
            3.311 5.418 2.172,
            3.577 5.247 2.172,
            3.834 5.062 2.172,
            4.082 4.864 2.172,
            4.319 4.655 2.172,
            4.546 4.434 2.172,
            4.761 4.202 2.172,
            4.965 3.959 2.172,
            5.156 3.707 2.172,
            5.334 3.445 2.172,
            5.499 3.175 2.172,
            5.651 2.897 2.172,
            5.788 2.612 2.172,
            5.911 2.320 2.172,
            6.019 2.022 2.172,
            6.113 1.720 2.172,
            6.191 1.413 2.172,
            6.254 1.103 2.172,
            6.301 0.790 2.172,
            6.332 0.475 2.172,
            6.348 0.158 2.172,
            6.348 -0.158 2.172,
            6.332 -0.475 2.172,
            6.301 -0.790 2.172,
            6.254 -1.103 2.172,
            6.191 -1.413 2.172,
            6.113 -1.720 2.172,
            6.019 -2.022 2.172,
            5.911 -2.320 2.172,
            5.788 -2.612 2.172,
            5.651 -2.897 2.172,
            5.499 -3.175 2.172,
            5.334 -3.445 2.172,
            5.156 -3.707 2.172,
            4.965 -3.959 2.172,
            4.761 -4.202 2.172,
            4.546 -4.434 2.172,
            4.319 -4.655 2.172,
            4.082 -4.864 2.172,
            3.834 -5.062 2.172,
            3.577 -5.247 2.172,
            3.311 -5.418 2.172,
            3.037 -5.577 2.172,
            2.755 -5.721 2.172,
            2.467 -5.851 2.172,
            2.172 -5.967 2.172,
            1.872 -6.068 2.172,
            1.567 -6.154 2.172,
            1.258 -6.224 2.172,
            0.946 -6.279 2.172,
            0.632 -6.318 2.172,
            0.317 -6.342 2.172,
            0.000 -6.350 2.172,
            0.000 6.209 2.313,
            0.309 6.201 2.313,
            0.618 6.178 2.313,
            0.925 6.139 2.313,
            1.230 6.085 2.313,
            1.532 6.017 2.313,
            1.830 5.933 2.313,
            2.123 5.834 2.313,
            2.412 5.721 2.313,
            2.694 5.594 2.313,
            2.969 5.453 2.313,
            3.237 5.298 2.313,
            3.497 5.130 2.313,
            3.749 4.949 2.313,
            3.991 4.756 2.313,
            4.223 4.551 2.313,
            4.445 4.335 2.313,
            4.655 4.108 2.313,
            4.854 3.871 2.313,
            5.041 3.624 2.313,
            5.215 3.368 2.313,
            5.377 3.104 2.313,
            5.525 2.832 2.313,
            5.659 2.554 2.313,
            5.779 2.268 2.313,
            5.885 1.977 2.313,
            5.977 1.682 2.313,
            6.053 1.382 2.313,
            6.114 1.078 2.313,
            6.160 0.772 2.313,
            6.191 0.464 2.313,
            6.207 0.155 2.313,
            6.207 -0.155 2.313,
            6.191 -0.464 2.313,
            6.160 -0.772 2.313,
            6.114 -1.078 2.313,
            6.053 -1.382 2.313,
            5.977 -1.682 2.313,
            5.885 -1.977 2.313,
            5.779 -2.268 2.313,
            5.659 -2.554 2.313,
            5.525 -2.832 2.313,
            5.377 -3.104 2.313,
            5.215 -3.368 2.313,
            5.041 -3.624 2.313,
            4.854 -3.871 2.313,
            4.655 -4.108 2.313,
            4.445 -4.335 2.313,
            4.223 -4.551 2.313,
            3.991 -4.756 2.313,
            3.749 -4.949 2.313,
            3.497 -5.130 2.313,
            3.237 -5.298 2.313,
            2.969 -5.453 2.313,
            2.694 -5.594 2.313,
            2.412 -5.721 2.313,
            2.123 -5.834 2.313,
            1.830 -5.933 2.313,
            1.532 -6.017 2.313,
            1.230 -6.085 2.313,
            0.925 -6.139 2.313,
            0.618 -6.178 2.313,
            0.309 -6.201 2.313,
            0.000 -6.209 2.313,
            0.000 -4.668 2.067,
            -0.309 -6.201 2.313,
            -0.618 -6.178 2.313,
            -0.925 -6.139 2.313,
            -1.230 -6.085 2.313,
            -1.532 -6.017 2.313,
            0.000 4.668 2.067,
            -1.230 6.085 2.313,
            -1.532 6.017 2.313,
            -0.925 6.139 2.313,
            -0.618 6.178 2.313,
            -0.309 6.201 2.313,
            -3.991 -4.756 2.313,
            -4.150 -3.094 2.141,
            -4.223 -4.551 2.313,
            -4.445 -4.335 2.313,
            -4.655 -4.108 2.313,
            -4.854 -3.871 2.313,
            -5.041 -3.624 2.313,
            -5.215 -3.368 2.313,
            -5.377 -3.104 2.313,
            -5.525 -2.832 2.313,
            -5.659 -2.554 2.313,
            0.000 -3.117 1.891,
            -2.079 -4.144 2.063,
            -1.830 -5.933 2.313,
            -2.123 -5.834 2.313,
            -2.412 -5.721 2.313,
            -2.694 -5.594 2.313,
            -2.969 -5.453 2.313,
            -3.237 -5.298 2.313,
            -3.497 -5.130 2.313,
            -3.749 -4.949 2.313,
            -4.150 -1.033 2.016,
            -5.779 -2.268 2.313,
            -5.885 -1.977 2.313,
            -5.977 -1.682 2.313,
            -6.053 -1.382 2.313,
            -6.114 -1.078 2.313,
            -6.160 -0.772 2.313,
            -6.191 -0.464 2.313,
            -6.207 -0.155 2.313,
            0.000 -1.560 1.785,
            -2.079 -2.076 1.875,
            -4.150 1.033 2.016,
            -6.207 0.155 2.313,
            -6.191 0.464 2.313,
            -6.160 0.772 2.313,
            -6.114 1.078 2.313,
            -6.053 1.382 2.313,
            -5.977 1.682 2.313,
            -5.885 1.977 2.313,
            -5.779 2.268 2.313,
            -5.659 2.554 2.313,
            0.000 1.560 1.785,
            -2.079 -0.000 1.813,
            0.000 0.000 1.750,
            -4.150 3.094 2.141,
            -5.525 2.832 2.313,
            -5.377 3.104 2.313,
            -5.215 3.368 2.313,
            -5.041 3.624 2.313,
            -4.854 3.871 2.313,
            -4.655 4.108 2.313,
            -4.445 4.335 2.313,
            -4.223 4.551 2.313,
            -3.991 4.756 2.313,
            0.000 3.117 1.891,
            -2.079 2.076 1.875,
            -2.079 4.144 2.063,
            -3.749 4.949 2.313,
            -3.497 5.130 2.313,
            -3.237 5.298 2.313,
            -2.969 5.453 2.313,
            -2.694 5.594 2.313,
            -2.412 5.721 2.313,
            -2.123 5.834 2.313,
            -1.830 5.933 2.313,
            2.079 -5.173 2.203,
            2.079 -3.111 1.954,
            4.150 -4.121 2.249,
            2.079 -1.038 1.828,
            4.150 -2.064 2.063,
            2.079 1.038 1.828,
            4.150 -0.000 2.001,
            2.079 3.111 1.954,
            4.150 2.064 2.063,
            2.079 5.173 2.203,
            4.150 4.121 2.249,
            -0.317 -6.342 2.172,
            -0.632 -6.318 2.172,
            -0.946 -6.279 2.172,
            -1.258 -6.224 2.172,
            -1.567 -6.154 2.172,
            -1.872 -6.068 2.172,
            -2.172 -5.967 2.172,
            -2.467 -5.851 2.172,
            -2.755 -5.721 2.172,
            -3.037 -5.577 2.172,
            -3.311 -5.418 2.172,
            -3.577 -5.247 2.172,
            -3.834 -5.062 2.172,
            -4.082 -4.864 2.172,
            -4.319 -4.655 2.172,
            -4.546 -4.434 2.172,
            -4.761 -4.202 2.172,
            -4.965 -3.959 2.172,
            -5.156 -3.707 2.172,
            -5.334 -3.445 2.172,
            -5.499 -3.175 2.172,
            -5.651 -2.897 2.172,
            -5.788 -2.612 2.172,
            -5.911 -2.320 2.172,
            -6.019 -2.022 2.172,
            -6.113 -1.720 2.172,
            -6.191 -1.413 2.172,
            -6.254 -1.103 2.172,
            -6.301 -0.790 2.172,
            -6.332 -0.475 2.172,
            -6.348 -0.158 2.172,
            -6.348 0.158 2.172,
            -6.332 0.475 2.172,
            -6.301 0.790 2.172,
            -6.254 1.103 2.172,
            -6.191 1.413 2.172,
            -6.113 1.720 2.172,
            -6.019 2.022 2.172,
            -5.911 2.320 2.172,
            -5.788 2.612 2.172,
            -5.651 2.897 2.172,
            -5.499 3.175 2.172,
            -5.334 3.445 2.172,
            -5.156 3.707 2.172,
            -4.965 3.959 2.172,
            -4.761 4.202 2.172,
            -4.546 4.434 2.172,
            -4.319 4.655 2.172,
            -4.082 4.864 2.172,
            -3.834 5.062 2.172,
            -3.577 5.247 2.172,
            -3.311 5.418 2.172,
            -3.037 5.577 2.172,
            -2.755 5.721 2.172,
            -2.467 5.851 2.172,
            -2.172 5.967 2.172,
            -1.872 6.068 2.172,
            -1.567 6.154 2.172,
            -1.258 6.224 2.172,
            -0.946 6.279 2.172,
            -0.632 6.318 2.172,
            -0.317 6.342 2.172,
            -0.317 -6.342 -1.609,
            -0.632 -6.318 -1.609,
            -0.946 -6.279 -1.609,
            -1.258 -6.224 -1.609,
            -1.567 -6.154 -1.609,
            -1.872 -6.068 -1.609,
            -2.172 -5.967 -1.609,
            -2.467 -5.851 -1.609,
            -2.755 -5.721 -1.609,
            -3.037 -5.577 -1.609,
            -3.311 -5.418 -1.609,
            -3.577 -5.247 -1.609,
            -3.834 -5.062 -1.609,
            -4.082 -4.864 -1.609,
            -4.319 -4.655 -1.609,
            -4.546 -4.434 -1.609,
            -4.761 -4.202 -1.609,
            -4.965 -3.959 -1.609,
            -5.156 -3.707 -1.609,
            -5.334 -3.445 -1.609,
            -5.499 -3.175 -1.609,
            -5.651 -2.897 -1.609,
            -5.788 -2.612 -1.609,
            -5.911 -2.320 -1.609,
            -6.019 -2.022 -1.609,
            -6.113 -1.720 -1.609,
            -6.191 -1.413 -1.609,
            -6.254 -1.103 -1.609,
            -6.301 -0.790 -1.609,
            -6.332 -0.475 -1.609,
            -6.348 -0.158 -1.609,
            -6.348 0.158 -1.609,
            -6.332 0.475 -1.609,
            -6.301 0.790 -1.609,
            -6.254 1.103 -1.609,
            -6.191 1.413 -1.609,
            -6.113 1.720 -1.609,
            -6.019 2.022 -1.609,
            -5.911 2.320 -1.609,
            -5.788 2.612 -1.609,
            -5.651 2.897 -1.609,
            -5.499 3.175 -1.609,
            -5.334 3.445 -1.609,
            -5.156 3.707 -1.609,
            -4.965 3.959 -1.609,
            -4.761 4.202 -1.609,
            -4.546 4.434 -1.609,
            -4.319 4.655 -1.609,
            -4.082 4.864 -1.609,
            -3.834 5.062 -1.609,
            -3.577 5.247 -1.609,
            -3.311 5.418 -1.609,
            -3.037 5.577 -1.609,
            -2.755 5.721 -1.609,
            -2.467 5.851 -1.609,
            -2.172 5.967 -1.609,
            -1.872 6.068 -1.609,
            -1.567 6.154 -1.609,
            -1.258 6.224 -1.609,
            -0.946 6.279 -1.609,
            -0.632 6.318 -1.609,
            -0.317 6.342 -1.609,
            -0.309 6.201 -1.750,
            -0.618 6.178 -1.750,
            -0.925 6.139 -1.750,
            -1.230 6.085 -1.750,
            -1.532 6.017 -1.750,
            -1.830 5.933 -1.750,
            -2.123 5.834 -1.750,
            -2.412 5.721 -1.750,
            -2.694 5.594 -1.750,
            -2.969 5.453 -1.750,
            -3.237 5.298 -1.750,
            -3.497 5.130 -1.750,
            -3.749 4.949 -1.750,
            -3.991 4.756 -1.750,
            -4.223 4.551 -1.750,
            -4.445 4.335 -1.750,
            -4.655 4.108 -1.750,
            -4.854 3.871 -1.750,
            -5.041 3.624 -1.750,
            -5.215 3.368 -1.750,
            -5.377 3.104 -1.750,
            -5.525 2.832 -1.750,
            -5.659 2.554 -1.750,
            -5.779 2.268 -1.750,
            -5.885 1.977 -1.750,
            -5.977 1.682 -1.750,
            -6.053 1.382 -1.750,
            -6.114 1.078 -1.750,
            -6.160 0.772 -1.750,
            -6.191 0.464 -1.750,
            -6.207 0.155 -1.750,
            -6.207 -0.155 -1.750,
            -6.191 -0.464 -1.750,
            -6.160 -0.772 -1.750,
            -6.114 -1.078 -1.750,
            -6.053 -1.382 -1.750,
            -5.977 -1.682 -1.750,
            -5.885 -1.977 -1.750,
            -5.779 -2.268 -1.750,
            -5.659 -2.554 -1.750,
            -5.525 -2.832 -1.750,
            -5.377 -3.104 -1.750,
            -5.215 -3.368 -1.750,
            -5.041 -3.624 -1.750,
            -4.854 -3.871 -1.750,
            -4.655 -4.108 -1.750,
            -4.445 -4.335 -1.750,
            -4.223 -4.551 -1.750,
            -3.991 -4.756 -1.750,
            -3.749 -4.949 -1.750,
            -3.497 -5.130 -1.750,
            -3.237 -5.298 -1.750,
            -2.969 -5.453 -1.750,
            -2.694 -5.594 -1.750,
            -2.412 -5.721 -1.750,
            -2.123 -5.834 -1.750,
            -1.830 -5.933 -1.750,
            -1.532 -6.017 -1.750,
            -1.230 -6.085 -1.750,
            -0.925 -6.139 -1.750,
            -0.618 -6.178 -1.750,
            -0.309 -6.201 -1.750
          ]
        }
        coordIndex [
          0, 1, 2, -1,
          0, 2, 3, -1,
          4, 0, 3, -1,
          4, 3, 5, -1,
          6, 4, 5, -1,
          6, 5, 7, -1,
          8, 6, 7, -1,
          8, 7, 9, -1,
          10, 8, 9, -1,
          10, 9, 11, -1,
          12, 10, 11, -1,
          12, 11, 13, -1,
          14, 13, 15, -1,
          14, 12, 13, -1,
          16, 15, 17, -1,
          16, 14, 15, -1,
          18, 17, 19, -1,
          18, 16, 17, -1,
          20, 19, 21, -1,
          20, 18, 19, -1,
          22, 21, 23, -1,
          22, 20, 21, -1,
          24, 23, 25, -1,
          24, 22, 23, -1,
          26, 25, 27, -1,
          26, 24, 25, -1,
          28, 27, 29, -1,
          28, 26, 27, -1,
          30, 29, 31, -1,
          30, 28, 29, -1,
          32, 31, 33, -1,
          32, 30, 31, -1,
          34, 33, 35, -1,
          34, 32, 33, -1,
          36, 34, 35, -1,
          37, 34, 36, -1,
          38, 37, 36, -1,
          38, 36, 39, -1,
          40, 38, 39, -1,
          40, 39, 41, -1,
          42, 40, 41, -1,
          43, 40, 42, -1,
          44, 43, 42, -1,
          44, 42, 45, -1,
          46, 44, 45, -1,
          46, 45, 47, -1,
          48, 46, 47, -1,
          48, 47, 49, -1,
          50, 48, 49, -1,
          50, 49, 51, -1,
          52, 50, 51, -1,
          52, 51, 53, -1,
          54, 53, 55, -1,
          54, 52, 53, -1,
          56, 55, 57, -1,
          56, 54, 55, -1,
          58, 57, 59, -1,
          58, 56, 57, -1,
          60, 59, 61, -1,
          60, 58, 59, -1,
          62, 61, 63, -1,
          62, 60, 61, -1,
          64, 63, 65, -1,
          64, 62, 63, -1,
          66, 65, 67, -1,
          66, 64, 65, -1,
          68, 67, 69, -1,
          68, 66, 67, -1,
          70, 69, 71, -1,
          70, 68, 69, -1,
          72, 71, 73, -1,
          72, 70, 71, -1,
          74, 73, 75, -1,
          74, 72, 73, -1,
          76, 75, 77, -1,
          76, 74, 75, -1,
          78, 76, 77, -1,
          79, 76, 78, -1,
          80, 78, 81, -1,
          80, 79, 78, -1,
          82, 81, 83, -1,
          82, 80, 81, -1,
          84, 83, 85, -1,
          84, 82, 83, -1,
          86, 85, 87, -1,
          86, 84, 85, -1,
          88, 86, 87, -1,
          88, 87, 89, -1,
          90, 88, 89, -1,
          91, 88, 90, -1,
          92, 91, 90, -1,
          92, 90, 93, -1,
          94, 92, 93, -1,
          94, 93, 95, -1,
          96, 95, 97, -1,
          96, 94, 95, -1,
          98, 96, 97, -1,
          99, 96, 98, -1,
          100, 98, 101, -1,
          100, 99, 98, -1,
          102, 101, 103, -1,
          102, 100, 101, -1,
          104, 102, 103, -1,
          105, 102, 104, -1,
          106, 104, 107, -1,
          106, 105, 104, -1,
          108, 107, 109, -1,
          108, 106, 107, -1,
          110, 109, 111, -1,
          110, 108, 109, -1,
          112, 111, 113, -1,
          112, 110, 111, -1,
          114, 113, 115, -1,
          114, 112, 113, -1,
          116, 115, 117, -1,
          116, 114, 115, -1,
          118, 117, 119, -1,
          118, 116, 117, -1,
          120, 119, 121, -1,
          120, 118, 119, -1,
          122, 121, 123, -1,
          122, 120, 121, -1,
          124, 123, 125, -1,
          124, 122, 123, -1,
          126, 125, 127, -1,
          126, 124, 125, -1,
          124, 128, 129, -1,
          124, 126, 128, -1,
          122, 129, 130, -1,
          122, 124, 129, -1,
          120, 130, 131, -1,
          120, 122, 130, -1,
          118, 131, 132, -1,
          118, 120, 131, -1,
          116, 132, 133, -1,
          116, 118, 132, -1,
          114, 133, 134, -1,
          114, 116, 133, -1,
          112, 134, 135, -1,
          112, 114, 134, -1,
          110, 135, 136, -1,
          110, 136, 137, -1,
          110, 112, 135, -1,
          108, 110, 137, -1,
          106, 137, 138, -1,
          106, 138, 139, -1,
          106, 108, 137, -1,
          105, 106, 139, -1,
          102, 139, 140, -1,
          102, 105, 139, -1,
          100, 140, 141, -1,
          100, 102, 140, -1,
          99, 141, 142, -1,
          99, 142, 143, -1,
          99, 100, 141, -1,
          96, 99, 143, -1,
          94, 143, 144, -1,
          94, 96, 143, -1,
          92, 144, 145, -1,
          92, 94, 144, -1,
          91, 145, 146, -1,
          91, 92, 145, -1,
          88, 91, 146, -1,
          88, 146, 147, -1,
          86, 88, 147, -1,
          86, 147, 148, -1,
          86, 148, 149, -1,
          84, 86, 149, -1,
          82, 84, 149, -1,
          82, 149, 150, -1,
          80, 150, 151, -1,
          80, 82, 150, -1,
          79, 151, 152, -1,
          79, 152, 153, -1,
          79, 80, 151, -1,
          76, 79, 153, -1,
          74, 153, 154, -1,
          74, 154, 155, -1,
          74, 76, 153, -1,
          72, 74, 155, -1,
          70, 155, 156, -1,
          70, 156, 157, -1,
          70, 72, 155, -1,
          68, 70, 157, -1,
          66, 157, 158, -1,
          66, 158, 159, -1,
          66, 68, 157, -1,
          64, 66, 159, -1,
          62, 159, 160, -1,
          62, 64, 159, -1,
          60, 160, 161, -1,
          60, 62, 160, -1,
          58, 161, 162, -1,
          58, 162, 163, -1,
          58, 60, 161, -1,
          56, 163, 164, -1,
          56, 58, 163, -1,
          54, 164, 165, -1,
          54, 56, 164, -1,
          52, 54, 165, -1,
          50, 165, 166, -1,
          50, 52, 165, -1,
          48, 166, 167, -1,
          48, 167, 168, -1,
          48, 50, 166, -1,
          46, 168, 169, -1,
          46, 48, 168, -1,
          44, 169, 170, -1,
          44, 46, 169, -1,
          43, 44, 170, -1,
          40, 43, 170, -1,
          40, 170, 171, -1,
          40, 171, 172, -1,
          38, 40, 172, -1,
          37, 38, 172, -1,
          37, 172, 173, -1,
          37, 173, 174, -1,
          34, 37, 174, -1,
          32, 34, 174, -1,
          32, 174, 175, -1,
          30, 32, 175, -1,
          30, 175, 176, -1,
          28, 30, 176, -1,
          28, 176, 177, -1,
          26, 28, 177, -1,
          26, 177, 178, -1,
          24, 26, 178, -1,
          24, 178, 179, -1,
          22, 24, 179, -1,
          22, 179, 180, -1,
          20, 22, 180, -1,
          20, 180, 181, -1,
          18, 20, 181, -1,
          18, 181, 182, -1,
          16, 18, 182, -1,
          16, 182, 183, -1,
          14, 183, 184, -1,
          14, 16, 183, -1,
          12, 184, 185, -1,
          12, 14, 184, -1,
          10, 185, 186, -1,
          10, 12, 185, -1,
          8, 186, 187, -1,
          8, 10, 186, -1,
          6, 187, 188, -1,
          6, 8, 187, -1,
          4, 188, 189, -1,
          4, 6, 188, -1,
          0, 189, 190, -1,
          0, 4, 189, -1,
          1, 190, 191, -1,
          1, 0, 190, -1,
          129, 192, 193, -1,
          129, 128, 192, -1,
          130, 193, 194, -1,
          130, 129, 193, -1,
          131, 194, 195, -1,
          131, 130, 194, -1,
          132, 195, 196, -1,
          132, 131, 195, -1,
          133, 196, 197, -1,
          133, 132, 196, -1,
          134, 197, 198, -1,
          134, 133, 197, -1,
          135, 198, 199, -1,
          135, 134, 198, -1,
          136, 199, 200, -1,
          136, 135, 199, -1,
          137, 200, 201, -1,
          137, 136, 200, -1,
          138, 201, 202, -1,
          138, 137, 201, -1,
          139, 202, 203, -1,
          139, 138, 202, -1,
          140, 203, 204, -1,
          140, 139, 203, -1,
          205, 140, 204, -1,
          141, 140, 205, -1,
          142, 205, 206, -1,
          142, 141, 205, -1,
          207, 142, 206, -1,
          143, 142, 207, -1,
          144, 207, 208, -1,
          144, 143, 207, -1,
          209, 144, 208, -1,
          145, 144, 209, -1,
          146, 209, 210, -1,
          146, 145, 209, -1,
          147, 146, 210, -1,
          147, 210, 211, -1,
          148, 147, 211, -1,
          148, 211, 212, -1,
          149, 148, 212, -1,
          149, 212, 213, -1,
          150, 149, 213, -1,
          150, 213, 214, -1,
          215, 150, 214, -1,
          151, 150, 215, -1,
          152, 215, 216, -1,
          152, 151, 215, -1,
          153, 216, 217, -1,
          153, 152, 216, -1,
          218, 153, 217, -1,
          154, 153, 218, -1,
          155, 218, 219, -1,
          155, 154, 218, -1,
          156, 219, 220, -1,
          156, 155, 219, -1,
          157, 220, 221, -1,
          157, 156, 220, -1,
          158, 221, 222, -1,
          158, 157, 221, -1,
          159, 222, 223, -1,
          159, 158, 222, -1,
          160, 223, 224, -1,
          160, 159, 223, -1,
          161, 224, 225, -1,
          161, 160, 224, -1,
          162, 225, 226, -1,
          162, 161, 225, -1,
          163, 226, 227, -1,
          163, 162, 226, -1,
          164, 227, 228, -1,
          164, 163, 227, -1,
          165, 228, 229, -1,
          165, 164, 228, -1,
          166, 229, 230, -1,
          166, 165, 229, -1,
          231, 166, 230, -1,
          167, 166, 231, -1,
          168, 231, 232, -1,
          168, 167, 231, -1,
          233, 168, 232, -1,
          169, 168, 233, -1,
          170, 233, 234, -1,
          170, 169, 233, -1,
          235, 170, 234, -1,
          171, 170, 235, -1,
          172, 171, 235, -1,
          172, 235, 236, -1,
          173, 172, 236, -1,
          173, 236, 237, -1,
          238, 173, 237, -1,
          174, 173, 238, -1,
          175, 174, 238, -1,
          175, 238, 239, -1,
          176, 175, 239, -1,
          176, 239, 240, -1,
          241, 176, 240, -1,
          177, 176, 241, -1,
          178, 177, 241, -1,
          178, 241, 242, -1,
          179, 178, 242, -1,
          179, 242, 243, -1,
          244, 179, 243, -1,
          180, 179, 244, -1,
          181, 180, 244, -1,
          181, 244, 245, -1,
          182, 181, 245, -1,
          182, 245, 246, -1,
          183, 182, 246, -1,
          183, 246, 247, -1,
          184, 183, 247, -1,
          184, 247, 248, -1,
          185, 184, 248, -1,
          185, 248, 249, -1,
          186, 249, 250, -1,
          186, 185, 249, -1,
          187, 250, 251, -1,
          187, 186, 250, -1,
          188, 251, 252, -1,
          188, 187, 251, -1,
          189, 252, 253, -1,
          189, 188, 252, -1,
          190, 253, 254, -1,
          190, 189, 253, -1,
          191, 254, 255, -1,
          191, 190, 254, -1,
          255, 256, 257, -1,
          257, 256, 258, -1,
          258, 256, 259, -1,
          259, 256, 260, -1,
          260, 256, 261, -1,
          262, 263, 264, -1,
          262, 265, 263, -1,
          262, 266, 265, -1,
          262, 267, 266, -1,
          262, 192, 267, -1,
          268, 269, 270, -1,
          270, 269, 271, -1,
          271, 269, 272, -1,
          272, 269, 273, -1,
          273, 269, 274, -1,
          274, 269, 275, -1,
          275, 269, 276, -1,
          276, 269, 277, -1,
          277, 269, 278, -1,
          279, 280, 256, -1,
          261, 280, 281, -1,
          281, 280, 282, -1,
          282, 280, 283, -1,
          283, 280, 284, -1,
          284, 280, 285, -1,
          285, 280, 286, -1,
          286, 280, 287, -1,
          287, 280, 288, -1,
          288, 280, 268, -1,
          256, 280, 261, -1,
          268, 280, 269, -1,
          269, 289, 278, -1,
          278, 289, 290, -1,
          290, 289, 291, -1,
          291, 289, 292, -1,
          292, 289, 293, -1,
          293, 289, 294, -1,
          294, 289, 295, -1,
          295, 289, 296, -1,
          296, 289, 297, -1,
          298, 299, 279, -1,
          269, 299, 289, -1,
          280, 299, 269, -1,
          279, 299, 280, -1,
          297, 300, 301, -1,
          301, 300, 302, -1,
          302, 300, 303, -1,
          303, 300, 304, -1,
          304, 300, 305, -1,
          305, 300, 306, -1,
          306, 300, 307, -1,
          307, 300, 308, -1,
          308, 300, 309, -1,
          289, 300, 297, -1,
          310, 311, 312, -1,
          312, 311, 298, -1,
          299, 311, 289, -1,
          289, 311, 300, -1,
          298, 311, 299, -1,
          300, 313, 309, -1,
          309, 313, 314, -1,
          314, 313, 315, -1,
          315, 313, 316, -1,
          316, 313, 317, -1,
          317, 313, 318, -1,
          318, 313, 319, -1,
          319, 313, 320, -1,
          320, 313, 321, -1,
          321, 313, 322, -1,
          323, 324, 310, -1,
          311, 324, 300, -1,
          300, 324, 313, -1,
          310, 324, 311, -1,
          264, 325, 262, -1,
          262, 325, 323, -1,
          322, 325, 326, -1,
          326, 325, 327, -1,
          327, 325, 328, -1,
          328, 325, 329, -1,
          329, 325, 330, -1,
          330, 325, 331, -1,
          331, 325, 332, -1,
          332, 325, 333, -1,
          333, 325, 264, -1,
          323, 325, 324, -1,
          324, 325, 313, -1,
          313, 325, 322, -1,
          251, 256, 252, -1,
          252, 256, 253, -1,
          253, 256, 254, -1,
          254, 256, 255, -1,
          262, 193, 192, -1,
          262, 194, 193, -1,
          262, 195, 194, -1,
          262, 196, 195, -1,
          243, 334, 244, -1,
          244, 334, 245, -1,
          245, 334, 246, -1,
          246, 334, 247, -1,
          247, 334, 248, -1,
          248, 334, 249, -1,
          249, 334, 250, -1,
          250, 334, 251, -1,
          251, 334, 256, -1,
          243, 335, 334, -1,
          256, 335, 279, -1,
          279, 335, 298, -1,
          334, 335, 256, -1,
          236, 336, 237, -1,
          237, 336, 238, -1,
          238, 336, 239, -1,
          243, 336, 335, -1,
          239, 336, 240, -1,
          240, 336, 241, -1,
          241, 336, 242, -1,
          242, 336, 243, -1,
          335, 337, 298, -1,
          298, 337, 312, -1,
          336, 338, 335, -1,
          236, 338, 336, -1,
          228, 338, 229, -1,
          229, 338, 230, -1,
          230, 338, 231, -1,
          231, 338, 232, -1,
          232, 338, 233, -1,
          233, 338, 234, -1,
          234, 338, 235, -1,
          235, 338, 236, -1,
          335, 338, 337, -1,
          312, 339, 310, -1,
          337, 339, 312, -1,
          338, 340, 337, -1,
          219, 340, 220, -1,
          220, 340, 221, -1,
          221, 340, 222, -1,
          222, 340, 223, -1,
          223, 340, 224, -1,
          337, 340, 339, -1,
          224, 340, 225, -1,
          225, 340, 226, -1,
          226, 340, 227, -1,
          227, 340, 228, -1,
          228, 340, 338, -1,
          323, 341, 262, -1,
          310, 341, 323, -1,
          339, 341, 310, -1,
          340, 342, 339, -1,
          211, 342, 212, -1,
          212, 342, 213, -1,
          213, 342, 214, -1,
          214, 342, 215, -1,
          215, 342, 216, -1,
          216, 342, 217, -1,
          217, 342, 218, -1,
          218, 342, 219, -1,
          219, 342, 340, -1,
          339, 342, 341, -1,
          196, 343, 197, -1,
          197, 343, 198, -1,
          198, 343, 199, -1,
          199, 343, 200, -1,
          200, 343, 201, -1,
          201, 343, 202, -1,
          202, 343, 203, -1,
          203, 343, 204, -1,
          262, 343, 196, -1,
          341, 343, 262, -1,
          204, 343, 341, -1,
          342, 344, 341, -1,
          204, 344, 205, -1,
          205, 344, 206, -1,
          206, 344, 207, -1,
          207, 344, 208, -1,
          208, 344, 209, -1,
          209, 344, 210, -1,
          210, 344, 211, -1,
          341, 344, 204, -1,
          211, 344, 342, -1,
          345, 191, 255, -1,
          345, 255, 257, -1,
          346, 257, 258, -1,
          346, 345, 257, -1,
          347, 258, 259, -1,
          347, 346, 258, -1,
          348, 259, 260, -1,
          348, 347, 259, -1,
          349, 260, 261, -1,
          349, 348, 260, -1,
          350, 261, 281, -1,
          350, 349, 261, -1,
          351, 281, 282, -1,
          351, 350, 281, -1,
          352, 282, 283, -1,
          352, 351, 282, -1,
          353, 283, 284, -1,
          353, 352, 283, -1,
          354, 284, 285, -1,
          354, 353, 284, -1,
          355, 285, 286, -1,
          355, 354, 285, -1,
          287, 355, 286, -1,
          356, 355, 287, -1,
          357, 287, 288, -1,
          357, 356, 287, -1,
          268, 357, 288, -1,
          358, 357, 268, -1,
          359, 268, 270, -1,
          359, 358, 268, -1,
          271, 359, 270, -1,
          360, 359, 271, -1,
          361, 271, 272, -1,
          361, 360, 271, -1,
          362, 272, 273, -1,
          362, 361, 272, -1,
          363, 362, 273, -1,
          363, 273, 274, -1,
          275, 363, 274, -1,
          364, 363, 275, -1,
          365, 364, 275, -1,
          365, 275, 276, -1,
          366, 365, 276, -1,
          366, 276, 277, -1,
          367, 366, 277, -1,
          367, 277, 278, -1,
          368, 278, 290, -1,
          368, 367, 278, -1,
          369, 290, 291, -1,
          369, 368, 290, -1,
          370, 291, 292, -1,
          370, 369, 291, -1,
          371, 292, 293, -1,
          371, 370, 292, -1,
          372, 293, 294, -1,
          372, 371, 293, -1,
          373, 294, 295, -1,
          373, 372, 294, -1,
          374, 295, 296, -1,
          374, 373, 295, -1,
          375, 296, 297, -1,
          375, 374, 296, -1,
          376, 297, 301, -1,
          376, 375, 297, -1,
          377, 301, 302, -1,
          377, 376, 301, -1,
          378, 302, 303, -1,
          378, 377, 302, -1,
          379, 303, 304, -1,
          379, 378, 303, -1,
          380, 304, 305, -1,
          380, 379, 304, -1,
          381, 305, 306, -1,
          381, 380, 305, -1,
          382, 306, 307, -1,
          382, 381, 306, -1,
          383, 307, 308, -1,
          383, 382, 307, -1,
          384, 308, 309, -1,
          384, 383, 308, -1,
          385, 309, 314, -1,
          385, 384, 309, -1,
          386, 314, 315, -1,
          386, 385, 314, -1,
          316, 386, 315, -1,
          387, 386, 316, -1,
          317, 387, 316, -1,
          388, 387, 317, -1,
          389, 388, 317, -1,
          389, 317, 318, -1,
          319, 389, 318, -1,
          390, 389, 319, -1,
          391, 390, 319, -1,
          391, 319, 320, -1,
          321, 391, 320, -1,
          392, 391, 321, -1,
          393, 392, 321, -1,
          393, 321, 322, -1,
          326, 393, 322, -1,
          394, 393, 326, -1,
          395, 394, 326, -1,
          395, 326, 327, -1,
          396, 395, 327, -1,
          396, 327, 328, -1,
          397, 396, 328, -1,
          397, 328, 329, -1,
          398, 397, 329, -1,
          398, 329, 330, -1,
          399, 398, 330, -1,
          399, 330, 331, -1,
          400, 399, 331, -1,
          400, 331, 332, -1,
          401, 400, 332, -1,
          401, 332, 333, -1,
          402, 333, 264, -1,
          402, 401, 333, -1,
          403, 264, 263, -1,
          403, 402, 264, -1,
          404, 263, 265, -1,
          404, 403, 263, -1,
          405, 265, 266, -1,
          405, 404, 265, -1,
          406, 266, 267, -1,
          406, 405, 266, -1,
          128, 267, 192, -1,
          128, 406, 267, -1,
          407, 1, 191, -1,
          407, 191, 345, -1,
          407, 345, 346, -1,
          408, 407, 346, -1,
          409, 346, 347, -1,
          409, 408, 346, -1,
          410, 347, 348, -1,
          410, 409, 347, -1,
          411, 348, 349, -1,
          411, 349, 350, -1,
          411, 410, 348, -1,
          412, 411, 350, -1,
          413, 350, 351, -1,
          413, 351, 352, -1,
          413, 412, 350, -1,
          414, 352, 353, -1,
          414, 413, 352, -1,
          415, 414, 353, -1,
          416, 353, 354, -1,
          416, 354, 355, -1,
          416, 415, 353, -1,
          417, 355, 356, -1,
          417, 416, 355, -1,
          418, 417, 356, -1,
          419, 356, 357, -1,
          419, 418, 356, -1,
          420, 357, 358, -1,
          420, 419, 357, -1,
          421, 358, 359, -1,
          421, 420, 358, -1,
          422, 359, 360, -1,
          422, 421, 359, -1,
          423, 360, 361, -1,
          423, 422, 360, -1,
          424, 361, 362, -1,
          424, 423, 361, -1,
          425, 424, 362, -1,
          425, 362, 363, -1,
          426, 425, 363, -1,
          426, 363, 364, -1,
          426, 364, 365, -1,
          427, 426, 365, -1,
          428, 427, 365, -1,
          428, 365, 366, -1,
          429, 366, 367, -1,
          429, 428, 366, -1,
          430, 367, 368, -1,
          430, 429, 367, -1,
          431, 368, 369, -1,
          431, 430, 368, -1,
          432, 369, 370, -1,
          432, 431, 369, -1,
          433, 370, 371, -1,
          433, 432, 370, -1,
          434, 371, 372, -1,
          434, 433, 371, -1,
          435, 372, 373, -1,
          435, 373, 374, -1,
          435, 434, 372, -1,
          436, 435, 374, -1,
          437, 374, 375, -1,
          437, 436, 374, -1,
          438, 375, 376, -1,
          438, 437, 375, -1,
          439, 376, 377, -1,
          439, 438, 376, -1,
          440, 377, 378, -1,
          440, 378, 379, -1,
          440, 439, 377, -1,
          441, 379, 380, -1,
          441, 440, 379, -1,
          442, 441, 380, -1,
          443, 380, 381, -1,
          443, 442, 380, -1,
          444, 381, 382, -1,
          444, 382, 383, -1,
          444, 443, 381, -1,
          445, 444, 383, -1,
          446, 383, 384, -1,
          446, 445, 383, -1,
          447, 384, 385, -1,
          447, 385, 386, -1,
          447, 446, 384, -1,
          448, 447, 386, -1,
          449, 448, 386, -1,
          449, 386, 387, -1,
          449, 387, 388, -1,
          450, 449, 388, -1,
          451, 450, 388, -1,
          451, 388, 389, -1,
          452, 451, 389, -1,
          452, 389, 390, -1,
          453, 452, 390, -1,
          453, 390, 391, -1,
          453, 391, 392, -1,
          454, 453, 392, -1,
          455, 454, 392, -1,
          455, 392, 393, -1,
          456, 455, 393, -1,
          456, 393, 394, -1,
          457, 456, 394, -1,
          457, 394, 395, -1,
          458, 457, 395, -1,
          458, 395, 396, -1,
          459, 458, 396, -1,
          459, 396, 397, -1,
          460, 459, 397, -1,
          460, 397, 398, -1,
          461, 460, 398, -1,
          461, 398, 399, -1,
          462, 461, 399, -1,
          462, 399, 400, -1,
          463, 400, 401, -1,
          463, 462, 400, -1,
          464, 401, 402, -1,
          464, 463, 401, -1,
          465, 402, 403, -1,
          465, 464, 402, -1,
          466, 403, 404, -1,
          466, 465, 403, -1,
          467, 404, 405, -1,
          467, 466, 404, -1,
          468, 405, 406, -1,
          468, 467, 405, -1,
          126, 406, 128, -1,
          126, 468, 406, -1,
          468, 126, 127, -1,
          468, 127, 469, -1,
          467, 468, 469, -1,
          467, 469, 470, -1,
          466, 467, 470, -1,
          466, 470, 471, -1,
          465, 466, 471, -1,
          465, 471, 472, -1,
          464, 465, 472, -1,
          464, 472, 473, -1,
          463, 464, 473, -1,
          463, 473, 474, -1,
          462, 474, 475, -1,
          462, 463, 474, -1,
          461, 475, 476, -1,
          461, 462, 475, -1,
          460, 476, 477, -1,
          460, 461, 476, -1,
          459, 477, 478, -1,
          459, 460, 477, -1,
          479, 459, 478, -1,
          458, 459, 479, -1,
          457, 479, 480, -1,
          457, 458, 479, -1,
          456, 480, 481, -1,
          456, 457, 480, -1,
          482, 456, 481, -1,
          455, 456, 482, -1,
          454, 482, 483, -1,
          454, 455, 482, -1,
          453, 483, 484, -1,
          453, 454, 483, -1,
          452, 484, 485, -1,
          452, 453, 484, -1,
          451, 452, 485, -1,
          451, 485, 486, -1,
          450, 451, 486, -1,
          450, 486, 487, -1,
          449, 450, 487, -1,
          449, 487, 488, -1,
          448, 449, 488, -1,
          448, 488, 489, -1,
          490, 448, 489, -1,
          447, 448, 490, -1,
          446, 447, 490, -1,
          446, 490, 491, -1,
          445, 446, 491, -1,
          445, 491, 492, -1,
          444, 445, 492, -1,
          444, 492, 493, -1,
          443, 444, 493, -1,
          443, 493, 494, -1,
          442, 443, 494, -1,
          442, 494, 495, -1,
          441, 495, 496, -1,
          441, 442, 495, -1,
          440, 496, 497, -1,
          440, 441, 496, -1,
          439, 497, 498, -1,
          439, 440, 497, -1,
          438, 498, 499, -1,
          438, 439, 498, -1,
          437, 499, 500, -1,
          437, 438, 499, -1,
          436, 500, 501, -1,
          436, 437, 500, -1,
          435, 501, 502, -1,
          435, 436, 501, -1,
          434, 502, 503, -1,
          434, 435, 502, -1,
          433, 503, 504, -1,
          433, 434, 503, -1,
          432, 504, 505, -1,
          432, 433, 504, -1,
          431, 505, 506, -1,
          431, 432, 505, -1,
          430, 506, 507, -1,
          430, 431, 506, -1,
          508, 430, 507, -1,
          429, 430, 508, -1,
          428, 508, 509, -1,
          428, 429, 508, -1,
          427, 509, 510, -1,
          427, 428, 509, -1,
          426, 510, 511, -1,
          426, 427, 510, -1,
          425, 426, 511, -1,
          425, 511, 512, -1,
          424, 425, 512, -1,
          424, 512, 513, -1,
          423, 424, 513, -1,
          423, 513, 514, -1,
          515, 423, 514, -1,
          422, 423, 515, -1,
          421, 515, 516, -1,
          421, 422, 515, -1,
          517, 421, 516, -1,
          420, 421, 517, -1,
          419, 517, 518, -1,
          419, 420, 517, -1,
          418, 518, 519, -1,
          418, 419, 518, -1,
          520, 418, 519, -1,
          417, 418, 520, -1,
          416, 520, 521, -1,
          416, 417, 520, -1,
          415, 521, 522, -1,
          415, 416, 521, -1,
          414, 522, 523, -1,
          414, 415, 522, -1,
          413, 523, 524, -1,
          413, 414, 523, -1,
          412, 524, 525, -1,
          412, 413, 524, -1,
          411, 525, 526, -1,
          411, 412, 525, -1,
          410, 526, 527, -1,
          410, 411, 526, -1,
          409, 527, 528, -1,
          409, 410, 527, -1,
          408, 528, 529, -1,
          408, 409, 528, -1,
          407, 529, 530, -1,
          407, 408, 529, -1,
          1, 530, 2, -1,
          1, 407, 530, -1,
          518, 517, 516, -1,
          512, 515, 514, -1,
          512, 514, 513, -1,
          519, 516, 515, -1,
          519, 518, 516, -1,
          510, 512, 511, -1,
          521, 520, 519, -1,
          508, 510, 509, -1,
          508, 515, 512, -1,
          508, 519, 515, -1,
          508, 512, 510, -1,
          525, 524, 523, -1,
          525, 523, 522, -1,
          525, 522, 521, -1,
          525, 521, 519, -1,
          504, 507, 506, -1,
          504, 506, 505, -1,
          502, 508, 507, -1,
          502, 504, 503, -1,
          502, 507, 504, -1,
          501, 526, 525, -1,
          501, 519, 508, -1,
          501, 525, 519, -1,
          501, 508, 502, -1,
          2, 530, 529, -1,
          2, 529, 528, -1,
          2, 528, 527, -1,
          2, 527, 526, -1,
          498, 500, 499, -1,
          13, 11, 9, -1,
          13, 9, 7, -1,
          13, 7, 5, -1,
          13, 5, 3, -1,
          13, 3, 2, -1,
          492, 498, 497, -1,
          492, 497, 496, -1,
          492, 496, 495, -1,
          492, 495, 494, -1,
          492, 494, 493, -1,
          492, 500, 498, -1,
          17, 13, 2, -1,
          17, 15, 13, -1,
          21, 17, 2, -1,
          21, 19, 17, -1,
          21, 2, 526, -1,
          489, 491, 490, -1,
          488, 491, 489, -1,
          488, 492, 491, -1,
          487, 500, 492, -1,
          487, 492, 488, -1,
          27, 25, 23, -1,
          27, 23, 21, -1,
          31, 29, 27, -1,
          33, 27, 21, -1,
          33, 31, 27, -1,
          483, 487, 486, -1,
          483, 486, 485, -1,
          483, 485, 484, -1,
          35, 33, 21, -1,
          36, 35, 21, -1,
          481, 483, 482, -1,
          481, 487, 483, -1,
          39, 36, 21, -1,
          41, 39, 21, -1,
          477, 479, 478, -1,
          476, 481, 480, -1,
          476, 480, 479, -1,
          476, 479, 477, -1,
          49, 47, 45, -1,
          49, 45, 42, -1,
          49, 42, 41, -1,
          49, 41, 21, -1,
          474, 476, 475, -1,
          474, 481, 476, -1,
          53, 51, 49, -1,
          473, 481, 474, -1,
          55, 53, 49, -1,
          471, 473, 472, -1,
          470, 473, 471, -1,
          470, 487, 481, -1,
          470, 481, 473, -1,
          61, 59, 57, -1,
          61, 57, 55, -1,
          71, 61, 55, -1,
          71, 501, 500, -1,
          71, 21, 526, -1,
          71, 500, 487, -1,
          71, 526, 501, -1,
          71, 49, 21, -1,
          71, 69, 67, -1,
          71, 67, 65, -1,
          71, 65, 63, -1,
          71, 63, 61, -1,
          71, 55, 49, -1,
          119, 470, 469, -1,
          119, 469, 127, -1,
          119, 127, 125, -1,
          119, 125, 123, -1,
          119, 123, 121, -1,
          75, 73, 71, -1,
          115, 487, 470, -1,
          115, 470, 119, -1,
          115, 119, 117, -1,
          77, 75, 71, -1,
          78, 77, 71, -1,
          111, 115, 113, -1,
          81, 78, 71, -1,
          107, 487, 115, -1,
          107, 115, 111, -1,
          107, 111, 109, -1,
          85, 71, 487, -1,
          85, 487, 107, -1,
          85, 81, 71, -1,
          85, 83, 81, -1,
          90, 89, 87, -1,
          90, 87, 85, -1,
          93, 85, 107, -1,
          93, 90, 85, -1,
          93, 107, 104, -1,
          93, 104, 103, -1,
          93, 103, 101, -1,
          93, 101, 98, -1,
          95, 93, 98, -1,
          95, 98, 97, -1
        ]
      }
    }
}
