#VRML V2.0 utf8
WorldInfo {
  title "Exported triangle mesh to VRML97"
  info ["Created by FreeCAD"
        "<https://www.freecad.org>"]
}

Transform {
  scale 1 1 1
  rotation 0 0 1 0
  scaleOrientation 0 0 1 0
  center 0.000 0.000 0.000
  translation 0.000 0.000 0.000
  children
    Shape { 
      appearance
      Appearance {
        material
        Material {
          diffuseColor 0.8 0.8 0.8
        }
      }
      geometry
      IndexedFaceSet {
        coord
        Coordinate {
          point [
            0.623 12.487 2.123,
            0.000 12.700 1.959,
            0.000 12.503 2.123,
            0.633 12.684 1.959,
            1.245 12.441 2.123,
            1.265 12.637 1.959,
            1.863 12.363 2.123,
            1.893 12.558 1.959,
            2.477 12.255 2.123,
            2.516 12.448 1.959,
            3.085 12.116 2.123,
            3.134 12.307 1.959,
            3.685 11.948 2.123,
            3.743 12.136 1.959,
            4.276 11.749 2.123,
            4.344 11.934 1.959,
            4.857 11.521 2.123,
            4.933 11.703 1.959,
            5.425 11.265 2.123,
            5.510 11.442 1.959,
            5.980 10.980 2.123,
            6.074 11.153 1.959,
            6.520 10.669 2.123,
            6.622 10.837 1.959,
            7.043 10.330 2.123,
            7.154 10.493 1.959,
            7.549 9.967 2.123,
            7.668 10.124 1.959,
            8.037 9.578 2.123,
            8.163 9.729 1.959,
            8.504 9.165 2.123,
            8.638 9.310 1.959,
            8.950 8.730 2.123,
            9.092 8.868 1.959,
            9.375 8.273 2.123,
            9.522 8.403 1.959,
            9.775 7.796 2.123,
            9.929 7.918 1.959,
            10.152 7.299 2.123,
            10.312 7.414 1.959,
            10.503 6.783 2.123,
            10.668 6.890 1.959,
            10.828 6.252 2.123,
            10.999 6.350 1.959,
            11.126 5.704 2.123,
            11.301 5.794 1.959,
            11.397 5.142 2.123,
            11.576 5.223 1.959,
            11.639 4.568 2.123,
            11.822 4.640 1.959,
            11.852 3.982 2.123,
            12.039 4.045 1.959,
            12.036 3.386 2.123,
            12.225 3.440 1.959,
            12.190 2.782 2.123,
            12.382 2.826 1.959,
            12.313 2.171 2.123,
            12.507 2.205 1.959,
            12.406 1.555 2.123,
            12.601 1.579 1.959,
            12.468 0.934 2.123,
            12.664 0.949 1.959,
            12.499 0.312 2.123,
            12.696 0.317 1.959,
            12.696 -0.317 1.959,
            12.499 -0.312 2.123,
            12.468 -0.934 2.123,
            12.664 -0.949 1.959,
            12.406 -1.555 2.123,
            12.601 -1.579 1.959,
            12.313 -2.171 2.123,
            12.507 -2.205 1.959,
            12.190 -2.782 2.123,
            12.382 -2.826 1.959,
            12.036 -3.386 2.123,
            12.225 -3.440 1.959,
            11.852 -3.982 2.123,
            12.039 -4.045 1.959,
            11.639 -4.568 2.123,
            11.822 -4.640 1.959,
            11.397 -5.142 2.123,
            11.576 -5.223 1.959,
            11.126 -5.704 2.123,
            11.301 -5.794 1.959,
            10.828 -6.252 2.123,
            10.999 -6.350 1.959,
            10.503 -6.783 2.123,
            10.668 -6.890 1.959,
            10.312 -7.414 1.959,
            10.152 -7.299 2.123,
            9.775 -7.796 2.123,
            9.929 -7.918 1.959,
            9.375 -8.273 2.123,
            9.522 -8.403 1.959,
            8.950 -8.730 2.123,
            9.092 -8.868 1.959,
            8.504 -9.165 2.123,
            8.638 -9.310 1.959,
            8.037 -9.578 2.123,
            8.163 -9.729 1.959,
            7.668 -10.124 1.959,
            7.549 -9.967 2.123,
            7.043 -10.330 2.123,
            7.154 -10.493 1.959,
            6.520 -10.669 2.123,
            6.622 -10.837 1.959,
            5.980 -10.980 2.123,
            6.074 -11.153 1.959,
            5.425 -11.265 2.123,
            5.510 -11.442 1.959,
            4.933 -11.703 1.959,
            4.857 -11.521 2.123,
            4.344 -11.934 1.959,
            4.276 -11.749 2.123,
            3.743 -12.136 1.959,
            3.685 -11.948 2.123,
            3.085 -12.116 2.123,
            3.134 -12.307 1.959,
            2.477 -12.255 2.123,
            2.516 -12.448 1.959,
            1.863 -12.363 2.123,
            1.893 -12.558 1.959,
            1.245 -12.441 2.123,
            1.265 -12.637 1.959,
            0.623 -12.487 2.123,
            0.633 -12.684 1.959,
            0.000 -12.503 2.123,
            0.000 -12.700 1.959,
            0.623 -12.484 -1.000,
            0.000 -12.700 -0.800,
            0.000 -12.500 -1.000,
            0.633 -12.684 -0.800,
            1.245 -12.438 -1.000,
            1.265 -12.637 -0.800,
            1.863 -12.360 -1.000,
            1.893 -12.558 -0.800,
            2.477 -12.252 -1.000,
            2.516 -12.448 -0.800,
            3.084 -12.113 -1.000,
            3.134 -12.307 -0.800,
            3.684 -11.945 -1.000,
            3.743 -12.136 -0.800,
            4.275 -11.746 -1.000,
            4.344 -11.934 -0.800,
            4.855 -11.518 -1.000,
            4.933 -11.703 -0.800,
            5.424 -11.262 -1.000,
            5.510 -11.442 -0.800,
            5.978 -10.978 -1.000,
            6.074 -11.153 -0.800,
            6.518 -10.666 -1.000,
            6.622 -10.837 -0.800,
            7.042 -10.328 -1.000,
            7.154 -10.493 -0.800,
            7.548 -9.964 -1.000,
            7.668 -10.124 -0.800,
            8.035 -9.576 -1.000,
            8.163 -9.729 -0.800,
            8.502 -9.163 -1.000,
            8.638 -9.310 -0.800,
            8.948 -8.728 -1.000,
            9.092 -8.868 -0.800,
            9.372 -8.271 -1.000,
            9.522 -8.403 -0.800,
            9.773 -7.794 -1.000,
            9.929 -7.918 -0.800,
            10.149 -7.297 -1.000,
            10.312 -7.414 -0.800,
            10.500 -6.782 -1.000,
            10.668 -6.890 -0.800,
            10.825 -6.250 -1.000,
            10.999 -6.350 -0.800,
            11.123 -5.703 -1.000,
            11.301 -5.794 -0.800,
            11.394 -5.141 -1.000,
            11.576 -5.223 -0.800,
            11.636 -4.567 -1.000,
            11.822 -4.640 -0.800,
            12.039 -4.045 -0.800,
            11.849 -3.981 -1.000,
            12.033 -3.386 -1.000,
            12.225 -3.440 -0.800,
            12.187 -2.782 -1.000,
            12.382 -2.826 -0.800,
            12.310 -2.171 -1.000,
            12.507 -2.205 -0.800,
            12.403 -1.554 -1.000,
            12.601 -1.579 -0.800,
            12.465 -0.934 -1.000,
            12.664 -0.949 -0.800,
            12.496 -0.312 -1.000,
            12.696 -0.317 -0.800,
            12.496 0.312 -1.000,
            12.696 0.317 -0.800,
            12.465 0.934 -1.000,
            12.664 0.949 -0.800,
            12.403 1.554 -1.000,
            12.601 1.579 -0.800,
            12.310 2.171 -1.000,
            12.507 2.205 -0.800,
            12.187 2.782 -1.000,
            12.382 2.826 -0.800,
            12.033 3.386 -1.000,
            12.225 3.440 -0.800,
            11.849 3.981 -1.000,
            12.039 4.045 -0.800,
            11.636 4.567 -1.000,
            11.822 4.640 -0.800,
            11.576 5.223 -0.800,
            11.394 5.141 -1.000,
            11.123 5.703 -1.000,
            11.301 5.794 -0.800,
            10.825 6.250 -1.000,
            10.999 6.350 -0.800,
            10.668 6.890 -0.800,
            10.500 6.782 -1.000,
            10.149 7.297 -1.000,
            10.312 7.414 -0.800,
            9.773 7.794 -1.000,
            9.929 7.918 -0.800,
            9.372 8.271 -1.000,
            9.522 8.403 -0.800,
            9.092 8.868 -0.800,
            8.948 8.728 -1.000,
            8.502 9.163 -1.000,
            8.638 9.310 -0.800,
            8.035 9.576 -1.000,
            8.163 9.729 -0.800,
            7.548 9.964 -1.000,
            7.668 10.124 -0.800,
            7.154 10.493 -0.800,
            7.042 10.328 -1.000,
            6.518 10.666 -1.000,
            6.622 10.837 -0.800,
            5.978 10.978 -1.000,
            6.074 11.153 -0.800,
            5.510 11.442 -0.800,
            5.424 11.262 -1.000,
            4.855 11.518 -1.000,
            4.933 11.703 -0.800,
            4.275 11.746 -1.000,
            4.344 11.934 -0.800,
            3.684 11.945 -1.000,
            3.743 12.136 -0.800,
            3.084 12.113 -1.000,
            3.134 12.307 -0.800,
            2.477 12.252 -1.000,
            2.516 12.448 -0.800,
            1.863 12.360 -1.000,
            1.893 12.558 -0.800,
            1.245 12.438 -1.000,
            1.265 12.637 -0.800,
            0.633 12.684 -0.800,
            0.623 12.484 -1.000,
            0.000 12.500 -1.000,
            0.000 12.700 -0.800,
            -2.477 -12.255 2.123,
            0.000 -9.399 1.633,
            -3.085 -12.116 2.123,
            -1.863 -12.363 2.123,
            -1.245 -12.441 2.123,
            -0.623 -12.487 2.123,
            0.000 9.399 1.633,
            -2.477 12.255 2.123,
            -3.085 12.116 2.123,
            -1.863 12.363 2.123,
            -1.245 12.441 2.123,
            -0.623 12.487 2.123,
            -11.126 -5.704 2.123,
            -8.358 -6.232 1.779,
            -11.397 -5.142 2.123,
            -10.828 -6.252 2.123,
            -10.503 -6.783 2.123,
            -10.152 -7.299 2.123,
            -9.775 -7.796 2.123,
            -9.375 -8.273 2.123,
            -8.950 -8.730 2.123,
            -8.504 -9.165 2.123,
            -8.037 -9.578 2.123,
            0.000 -6.277 1.281,
            -4.186 -8.345 1.624,
            -7.549 -9.967 2.123,
            -7.043 -10.330 2.123,
            -6.520 -10.669 2.123,
            -5.980 -10.980 2.123,
            -5.425 -11.265 2.123,
            -4.857 -11.521 2.123,
            -4.276 -11.749 2.123,
            -3.685 -11.948 2.123,
            -8.358 -2.080 1.531,
            -12.499 -0.312 2.123,
            -12.499 0.312 2.123,
            -12.468 -0.934 2.123,
            -12.406 -1.555 2.123,
            -12.313 -2.171 2.123,
            -12.190 -2.782 2.123,
            -12.036 -3.386 2.123,
            -11.852 -3.982 2.123,
            -11.639 -4.568 2.123,
            0.000 -3.142 1.070,
            -4.186 -4.180 1.250,
            -11.639 4.568 2.123,
            -8.358 2.080 1.531,
            -11.397 5.142 2.123,
            -11.852 3.982 2.123,
            -12.036 3.386 2.123,
            -12.190 2.782 2.123,
            -12.313 2.171 2.123,
            -12.406 1.555 2.123,
            -12.468 0.934 2.123,
            0.000 3.142 1.070,
            -4.186 0.000 1.125,
            0.000 0.000 1.000,
            -8.358 6.232 1.779,
            -8.504 9.165 2.123,
            -8.037 9.578 2.123,
            -8.950 8.730 2.123,
            -9.375 8.273 2.123,
            -9.775 7.796 2.123,
            -10.152 7.299 2.123,
            -10.503 6.783 2.123,
            -10.828 6.252 2.123,
            -11.126 5.704 2.123,
            0.000 6.277 1.281,
            -4.186 4.180 1.250,
            -4.186 8.345 1.624,
            -3.685 11.948 2.123,
            -4.276 11.749 2.123,
            -4.857 11.521 2.123,
            -5.425 11.265 2.123,
            -5.980 10.980 2.123,
            -6.520 10.669 2.123,
            -7.043 10.330 2.123,
            -7.549 9.967 2.123,
            -7.548 -9.964 -1.000,
            -8.035 -9.576 -1.000,
            -8.502 -9.163 -1.000,
            -8.948 -8.728 -1.000,
            -10.149 -7.297 -1.000,
            -9.372 -8.271 -1.000,
            -9.773 -7.794 -1.000,
            -10.500 -6.782 -1.000,
            -5.424 -11.262 -1.000,
            -5.978 -10.978 -1.000,
            -6.518 -10.666 -1.000,
            -7.042 -10.328 -1.000,
            -11.394 -5.141 -1.000,
            -10.825 -6.250 -1.000,
            -11.123 -5.703 -1.000,
            -11.849 -3.981 -1.000,
            -11.636 -4.567 -1.000,
            -3.684 -11.945 -1.000,
            -4.275 -11.746 -1.000,
            -4.855 -11.518 -1.000,
            -3.084 -12.113 -1.000,
            -12.187 -2.782 -1.000,
            -12.033 -3.386 -1.000,
            -12.310 -2.171 -1.000,
            -1.863 -12.360 -1.000,
            -2.477 -12.252 -1.000,
            -12.465 -0.934 -1.000,
            -12.403 -1.554 -1.000,
            -0.623 -12.484 -1.000,
            -1.245 -12.438 -1.000,
            -12.465 0.934 -1.000,
            -12.496 -0.312 -1.000,
            -12.496 0.312 -1.000,
            -12.310 2.171 -1.000,
            -12.403 1.554 -1.000,
            -12.187 2.782 -1.000,
            -11.394 5.141 -1.000,
            -12.033 3.386 -1.000,
            -11.849 3.981 -1.000,
            -11.636 4.567 -1.000,
            -11.123 5.703 -1.000,
            -10.149 7.297 -1.000,
            -10.825 6.250 -1.000,
            -10.500 6.782 -1.000,
            -9.773 7.794 -1.000,
            -9.372 8.271 -1.000,
            -8.035 9.576 -1.000,
            -8.948 8.728 -1.000,
            -8.502 9.163 -1.000,
            -7.042 10.328 -1.000,
            -7.548 9.964 -1.000,
            -6.518 10.666 -1.000,
            -5.978 10.978 -1.000,
            -3.684 11.945 -1.000,
            -5.424 11.262 -1.000,
            -4.855 11.518 -1.000,
            -4.275 11.746 -1.000,
            -3.084 12.113 -1.000,
            -2.477 12.252 -1.000,
            -1.863 12.360 -1.000,
            -1.245 12.438 -1.000,
            -0.623 12.484 -1.000,
            -0.633 -12.684 -0.800,
            -0.633 -12.684 1.959,
            -1.265 -12.637 -0.800,
            -1.265 -12.637 1.959,
            -1.893 -12.558 -0.800,
            -1.893 -12.558 1.959,
            -2.516 -12.448 -0.800,
            -2.516 -12.448 1.959,
            -3.134 -12.307 -0.800,
            -3.134 -12.307 1.959,
            -3.743 -12.136 -0.800,
            -3.743 -12.136 1.959,
            -4.344 -11.934 -0.800,
            -4.344 -11.934 1.959,
            -4.933 -11.703 -0.800,
            -4.933 -11.703 1.959,
            -5.510 -11.442 -0.800,
            -5.510 -11.442 1.959,
            -6.074 -11.153 -0.800,
            -6.074 -11.153 1.959,
            -6.622 -10.837 -0.800,
            -6.622 -10.837 1.959,
            -7.154 -10.493 -0.800,
            -7.154 -10.493 1.959,
            -7.668 -10.124 -0.800,
            -7.668 -10.124 1.959,
            -8.163 -9.729 -0.800,
            -8.163 -9.729 1.959,
            -8.638 -9.310 -0.800,
            -8.638 -9.310 1.959,
            -9.092 -8.868 -0.800,
            -9.092 -8.868 1.959,
            -9.522 -8.403 -0.800,
            -9.522 -8.403 1.959,
            -9.929 -7.918 1.959,
            -9.929 -7.918 -0.800,
            -10.312 -7.414 -0.800,
            -10.312 -7.414 1.959,
            -10.668 -6.890 1.959,
            -10.668 -6.890 -0.800,
            -10.999 -6.350 1.959,
            -10.999 -6.350 -0.800,
            -11.301 -5.794 -0.800,
            -11.301 -5.794 1.959,
            -11.576 -5.223 1.959,
            -11.576 -5.223 -0.800,
            -11.822 -4.640 1.959,
            -11.822 -4.640 -0.800,
            -12.039 -4.045 1.959,
            -12.039 -4.045 -0.800,
            -12.225 -3.440 -0.800,
            -12.225 -3.440 1.959,
            -12.382 -2.826 -0.800,
            -12.382 -2.826 1.959,
            -12.507 -2.205 -0.800,
            -12.507 -2.205 1.959,
            -12.601 -1.579 -0.800,
            -12.601 -1.579 1.959,
            -12.664 -0.949 1.959,
            -12.664 -0.949 -0.800,
            -12.696 -0.317 -0.800,
            -12.696 -0.317 1.959,
            -12.696 0.317 -0.800,
            -12.696 0.317 1.959,
            -12.664 0.949 1.959,
            -12.664 0.949 -0.800,
            -12.601 1.579 -0.800,
            -12.601 1.579 1.959,
            -12.507 2.205 1.959,
            -12.507 2.205 -0.800,
            -12.382 2.826 1.959,
            -12.382 2.826 -0.800,
            -12.225 3.440 -0.800,
            -12.225 3.440 1.959,
            -12.039 4.045 -0.800,
            -12.039 4.045 1.959,
            -11.822 4.640 -0.800,
            -11.822 4.640 1.959,
            -11.576 5.223 -0.800,
            -11.576 5.223 1.959,
            -11.301 5.794 -0.800,
            -11.301 5.794 1.959,
            -10.999 6.350 -0.800,
            -10.999 6.350 1.959,
            -10.668 6.890 -0.800,
            -10.668 6.890 1.959,
            -10.312 7.414 -0.800,
            -10.312 7.414 1.959,
            -9.929 7.918 -0.800,
            -9.929 7.918 1.959,
            -9.522 8.403 -0.800,
            -9.522 8.403 1.959,
            -9.092 8.868 -0.800,
            -9.092 8.868 1.959,
            -8.638 9.310 -0.800,
            -8.638 9.310 1.959,
            -8.163 9.729 -0.800,
            -8.163 9.729 1.959,
            -7.668 10.124 -0.800,
            -7.668 10.124 1.959,
            -7.154 10.493 1.959,
            -7.154 10.493 -0.800,
            -6.622 10.837 1.959,
            -6.622 10.837 -0.800,
            -6.074 11.153 -0.800,
            -6.074 11.153 1.959,
            -5.510 11.442 -0.800,
            -5.510 11.442 1.959,
            -4.933 11.703 -0.800,
            -4.933 11.703 1.959,
            -4.344 11.934 -0.800,
            -4.344 11.934 1.959,
            -3.743 12.136 1.959,
            -3.743 12.136 -0.800,
            -3.134 12.307 -0.800,
            -3.134 12.307 1.959,
            -2.516 12.448 -0.800,
            -2.516 12.448 1.959,
            -1.893 12.558 -0.800,
            -1.893 12.558 1.959,
            -1.265 12.637 -0.800,
            -1.265 12.637 1.959,
            -0.633 12.684 1.959,
            -0.633 12.684 -0.800,
            4.186 -10.418 1.905,
            4.186 -6.266 1.406,
            8.358 -8.301 1.996,
            4.186 -2.091 1.156,
            8.358 -4.158 1.624,
            4.186 2.091 1.156,
            8.358 -0.000 1.500,
            4.186 6.266 1.406,
            8.358 4.158 1.624,
            4.186 10.418 1.905,
            8.358 8.301 1.996
          ]
        }
        coordIndex [
          0, 1, 2, -1,
          3, 1, 0, -1,
          4, 3, 0, -1,
          5, 3, 4, -1,
          6, 5, 4, -1,
          7, 5, 6, -1,
          8, 7, 6, -1,
          9, 7, 8, -1,
          10, 9, 8, -1,
          11, 9, 10, -1,
          12, 11, 10, -1,
          13, 11, 12, -1,
          14, 13, 12, -1,
          15, 13, 14, -1,
          16, 15, 14, -1,
          17, 15, 16, -1,
          18, 17, 16, -1,
          19, 17, 18, -1,
          20, 19, 18, -1,
          21, 19, 20, -1,
          22, 21, 20, -1,
          23, 21, 22, -1,
          24, 23, 22, -1,
          25, 23, 24, -1,
          26, 25, 24, -1,
          27, 25, 26, -1,
          28, 27, 26, -1,
          29, 27, 28, -1,
          30, 29, 28, -1,
          31, 29, 30, -1,
          32, 31, 30, -1,
          33, 31, 32, -1,
          34, 33, 32, -1,
          35, 33, 34, -1,
          36, 35, 34, -1,
          37, 35, 36, -1,
          38, 37, 36, -1,
          39, 37, 38, -1,
          40, 39, 38, -1,
          41, 39, 40, -1,
          42, 41, 40, -1,
          43, 41, 42, -1,
          44, 43, 42, -1,
          45, 43, 44, -1,
          46, 45, 44, -1,
          47, 45, 46, -1,
          48, 47, 46, -1,
          49, 47, 48, -1,
          50, 49, 48, -1,
          51, 49, 50, -1,
          52, 51, 50, -1,
          53, 51, 52, -1,
          54, 53, 52, -1,
          55, 53, 54, -1,
          56, 55, 54, -1,
          57, 55, 56, -1,
          58, 57, 56, -1,
          59, 57, 58, -1,
          60, 59, 58, -1,
          61, 59, 60, -1,
          62, 61, 60, -1,
          63, 61, 62, -1,
          64, 62, 65, -1,
          64, 63, 62, -1,
          66, 64, 65, -1,
          67, 64, 66, -1,
          68, 67, 66, -1,
          69, 67, 68, -1,
          70, 69, 68, -1,
          71, 69, 70, -1,
          72, 71, 70, -1,
          73, 71, 72, -1,
          74, 73, 72, -1,
          75, 73, 74, -1,
          76, 75, 74, -1,
          77, 75, 76, -1,
          78, 77, 76, -1,
          79, 77, 78, -1,
          80, 79, 78, -1,
          81, 79, 80, -1,
          82, 81, 80, -1,
          83, 81, 82, -1,
          84, 83, 82, -1,
          85, 83, 84, -1,
          86, 85, 84, -1,
          87, 85, 86, -1,
          88, 87, 86, -1,
          88, 86, 89, -1,
          90, 88, 89, -1,
          91, 88, 90, -1,
          92, 91, 90, -1,
          93, 91, 92, -1,
          94, 93, 92, -1,
          95, 93, 94, -1,
          96, 95, 94, -1,
          97, 95, 96, -1,
          98, 97, 96, -1,
          99, 97, 98, -1,
          100, 98, 101, -1,
          100, 99, 98, -1,
          102, 100, 101, -1,
          103, 100, 102, -1,
          104, 103, 102, -1,
          105, 103, 104, -1,
          106, 105, 104, -1,
          107, 105, 106, -1,
          108, 107, 106, -1,
          109, 107, 108, -1,
          110, 108, 111, -1,
          110, 109, 108, -1,
          112, 111, 113, -1,
          112, 110, 111, -1,
          114, 113, 115, -1,
          114, 112, 113, -1,
          116, 114, 115, -1,
          117, 114, 116, -1,
          118, 117, 116, -1,
          119, 117, 118, -1,
          120, 119, 118, -1,
          121, 119, 120, -1,
          122, 121, 120, -1,
          123, 121, 122, -1,
          124, 123, 122, -1,
          125, 123, 124, -1,
          126, 125, 124, -1,
          127, 125, 126, -1,
          128, 129, 130, -1,
          131, 129, 128, -1,
          132, 131, 128, -1,
          133, 131, 132, -1,
          134, 133, 132, -1,
          135, 133, 134, -1,
          136, 135, 134, -1,
          137, 135, 136, -1,
          138, 137, 136, -1,
          139, 137, 138, -1,
          140, 139, 138, -1,
          141, 139, 140, -1,
          142, 141, 140, -1,
          143, 141, 142, -1,
          144, 143, 142, -1,
          145, 143, 144, -1,
          146, 145, 144, -1,
          147, 145, 146, -1,
          148, 147, 146, -1,
          149, 147, 148, -1,
          150, 149, 148, -1,
          151, 149, 150, -1,
          152, 151, 150, -1,
          153, 151, 152, -1,
          154, 153, 152, -1,
          155, 153, 154, -1,
          156, 155, 154, -1,
          157, 155, 156, -1,
          158, 157, 156, -1,
          159, 157, 158, -1,
          160, 159, 158, -1,
          161, 159, 160, -1,
          162, 161, 160, -1,
          163, 161, 162, -1,
          164, 163, 162, -1,
          165, 163, 164, -1,
          166, 165, 164, -1,
          167, 165, 166, -1,
          168, 167, 166, -1,
          169, 167, 168, -1,
          170, 169, 168, -1,
          171, 169, 170, -1,
          172, 171, 170, -1,
          173, 171, 172, -1,
          174, 173, 172, -1,
          175, 173, 174, -1,
          176, 175, 174, -1,
          177, 175, 176, -1,
          178, 177, 176, -1,
          178, 176, 179, -1,
          180, 178, 179, -1,
          181, 178, 180, -1,
          182, 181, 180, -1,
          183, 181, 182, -1,
          184, 183, 182, -1,
          185, 183, 184, -1,
          186, 185, 184, -1,
          187, 185, 186, -1,
          188, 187, 186, -1,
          189, 187, 188, -1,
          190, 189, 188, -1,
          191, 189, 190, -1,
          192, 191, 190, -1,
          193, 191, 192, -1,
          194, 193, 192, -1,
          195, 193, 194, -1,
          196, 195, 194, -1,
          197, 195, 196, -1,
          198, 197, 196, -1,
          199, 197, 198, -1,
          200, 199, 198, -1,
          201, 199, 200, -1,
          202, 201, 200, -1,
          203, 201, 202, -1,
          204, 203, 202, -1,
          205, 203, 204, -1,
          206, 205, 204, -1,
          207, 205, 206, -1,
          208, 206, 209, -1,
          208, 207, 206, -1,
          210, 208, 209, -1,
          211, 208, 210, -1,
          212, 211, 210, -1,
          213, 211, 212, -1,
          214, 213, 212, -1,
          214, 212, 215, -1,
          216, 214, 215, -1,
          217, 214, 216, -1,
          218, 217, 216, -1,
          219, 217, 218, -1,
          220, 219, 218, -1,
          221, 219, 220, -1,
          222, 221, 220, -1,
          222, 220, 223, -1,
          224, 222, 223, -1,
          225, 222, 224, -1,
          226, 225, 224, -1,
          227, 225, 226, -1,
          228, 227, 226, -1,
          229, 227, 228, -1,
          230, 228, 231, -1,
          230, 229, 228, -1,
          232, 230, 231, -1,
          233, 230, 232, -1,
          234, 233, 232, -1,
          235, 233, 234, -1,
          236, 234, 237, -1,
          236, 235, 234, -1,
          238, 236, 237, -1,
          239, 236, 238, -1,
          240, 239, 238, -1,
          241, 239, 240, -1,
          242, 241, 240, -1,
          243, 241, 242, -1,
          244, 243, 242, -1,
          245, 243, 244, -1,
          246, 245, 244, -1,
          247, 245, 246, -1,
          248, 247, 246, -1,
          249, 247, 248, -1,
          250, 249, 248, -1,
          251, 249, 250, -1,
          252, 250, 253, -1,
          252, 251, 250, -1,
          254, 252, 253, -1,
          255, 252, 254, -1,
          256, 257, 258, -1,
          259, 257, 256, -1,
          260, 257, 259, -1,
          261, 257, 260, -1,
          126, 257, 261, -1,
          262, 263, 264, -1,
          262, 265, 263, -1,
          262, 266, 265, -1,
          262, 267, 266, -1,
          262, 2, 267, -1,
          268, 269, 270, -1,
          271, 269, 268, -1,
          272, 269, 271, -1,
          273, 269, 272, -1,
          274, 269, 273, -1,
          275, 269, 274, -1,
          276, 269, 275, -1,
          277, 269, 276, -1,
          278, 269, 277, -1,
          279, 280, 257, -1,
          281, 280, 278, -1,
          282, 280, 281, -1,
          283, 280, 282, -1,
          284, 280, 283, -1,
          285, 280, 284, -1,
          286, 280, 285, -1,
          287, 280, 286, -1,
          288, 280, 287, -1,
          258, 280, 288, -1,
          278, 280, 269, -1,
          257, 280, 258, -1,
          269, 289, 270, -1,
          290, 289, 291, -1,
          292, 289, 290, -1,
          293, 289, 292, -1,
          294, 289, 293, -1,
          295, 289, 294, -1,
          296, 289, 295, -1,
          297, 289, 296, -1,
          298, 289, 297, -1,
          270, 289, 298, -1,
          299, 300, 279, -1,
          269, 300, 289, -1,
          279, 300, 280, -1,
          280, 300, 269, -1,
          301, 302, 303, -1,
          304, 302, 301, -1,
          305, 302, 304, -1,
          306, 302, 305, -1,
          307, 302, 306, -1,
          308, 302, 307, -1,
          309, 302, 308, -1,
          291, 302, 309, -1,
          289, 302, 291, -1,
          310, 311, 312, -1,
          312, 311, 299, -1,
          299, 311, 300, -1,
          289, 311, 302, -1,
          300, 311, 289, -1,
          302, 313, 303, -1,
          314, 313, 315, -1,
          316, 313, 314, -1,
          317, 313, 316, -1,
          318, 313, 317, -1,
          319, 313, 318, -1,
          320, 313, 319, -1,
          321, 313, 320, -1,
          322, 313, 321, -1,
          303, 313, 322, -1,
          323, 324, 310, -1,
          311, 324, 302, -1,
          310, 324, 311, -1,
          302, 324, 313, -1,
          264, 325, 262, -1,
          323, 325, 324, -1,
          262, 325, 323, -1,
          326, 325, 264, -1,
          327, 325, 326, -1,
          328, 325, 327, -1,
          329, 325, 328, -1,
          330, 325, 329, -1,
          331, 325, 330, -1,
          332, 325, 331, -1,
          333, 325, 332, -1,
          315, 325, 333, -1,
          324, 325, 313, -1,
          313, 325, 315, -1,
          252, 1, 3, -1,
          252, 255, 1, -1,
          251, 3, 5, -1,
          251, 252, 3, -1,
          249, 5, 7, -1,
          249, 251, 5, -1,
          247, 7, 9, -1,
          247, 249, 7, -1,
          245, 9, 11, -1,
          245, 247, 9, -1,
          243, 11, 13, -1,
          243, 245, 11, -1,
          241, 13, 15, -1,
          241, 243, 13, -1,
          239, 15, 17, -1,
          239, 241, 15, -1,
          236, 17, 19, -1,
          236, 239, 17, -1,
          235, 19, 21, -1,
          235, 236, 19, -1,
          233, 21, 23, -1,
          233, 235, 21, -1,
          230, 23, 25, -1,
          230, 233, 23, -1,
          229, 25, 27, -1,
          229, 230, 25, -1,
          227, 27, 29, -1,
          227, 229, 27, -1,
          225, 29, 31, -1,
          225, 227, 29, -1,
          222, 31, 33, -1,
          222, 225, 31, -1,
          221, 33, 35, -1,
          221, 222, 33, -1,
          219, 35, 37, -1,
          219, 221, 35, -1,
          217, 219, 37, -1,
          217, 37, 39, -1,
          214, 217, 39, -1,
          214, 39, 41, -1,
          213, 214, 41, -1,
          213, 41, 43, -1,
          211, 213, 43, -1,
          211, 43, 45, -1,
          208, 45, 47, -1,
          208, 211, 45, -1,
          207, 47, 49, -1,
          207, 208, 47, -1,
          205, 49, 51, -1,
          205, 207, 49, -1,
          203, 51, 53, -1,
          203, 205, 51, -1,
          201, 53, 55, -1,
          201, 203, 53, -1,
          199, 55, 57, -1,
          199, 201, 55, -1,
          197, 57, 59, -1,
          197, 199, 57, -1,
          195, 59, 61, -1,
          195, 197, 59, -1,
          193, 61, 63, -1,
          193, 195, 61, -1,
          191, 63, 64, -1,
          191, 193, 63, -1,
          189, 64, 67, -1,
          189, 191, 64, -1,
          187, 67, 69, -1,
          187, 189, 67, -1,
          185, 69, 71, -1,
          185, 187, 69, -1,
          183, 71, 73, -1,
          183, 185, 71, -1,
          181, 73, 75, -1,
          181, 183, 73, -1,
          178, 75, 77, -1,
          178, 181, 75, -1,
          177, 77, 79, -1,
          177, 178, 77, -1,
          175, 79, 81, -1,
          175, 177, 79, -1,
          173, 81, 83, -1,
          173, 175, 81, -1,
          171, 83, 85, -1,
          171, 173, 83, -1,
          169, 171, 85, -1,
          169, 85, 87, -1,
          167, 169, 87, -1,
          167, 87, 88, -1,
          165, 167, 88, -1,
          165, 88, 91, -1,
          163, 165, 91, -1,
          163, 91, 93, -1,
          161, 163, 93, -1,
          161, 93, 95, -1,
          159, 161, 95, -1,
          159, 95, 97, -1,
          157, 159, 97, -1,
          157, 97, 99, -1,
          155, 157, 99, -1,
          155, 99, 100, -1,
          153, 155, 100, -1,
          153, 100, 103, -1,
          151, 153, 103, -1,
          151, 103, 105, -1,
          149, 151, 105, -1,
          149, 105, 107, -1,
          147, 149, 107, -1,
          147, 107, 109, -1,
          145, 147, 109, -1,
          145, 109, 110, -1,
          143, 110, 112, -1,
          143, 145, 110, -1,
          141, 112, 114, -1,
          141, 143, 112, -1,
          139, 114, 117, -1,
          139, 141, 114, -1,
          137, 117, 119, -1,
          137, 139, 117, -1,
          135, 119, 121, -1,
          135, 137, 119, -1,
          133, 121, 123, -1,
          133, 135, 121, -1,
          131, 123, 125, -1,
          131, 133, 123, -1,
          129, 125, 127, -1,
          129, 131, 125, -1,
          334, 335, 336, -1,
          334, 336, 337, -1,
          338, 339, 340, -1,
          341, 337, 339, -1,
          341, 339, 338, -1,
          342, 343, 344, -1,
          342, 344, 345, -1,
          342, 345, 334, -1,
          346, 347, 348, -1,
          349, 341, 347, -1,
          349, 346, 350, -1,
          349, 334, 337, -1,
          349, 337, 341, -1,
          349, 347, 346, -1,
          351, 352, 353, -1,
          354, 351, 353, -1,
          355, 349, 356, -1,
          357, 342, 334, -1,
          357, 349, 355, -1,
          357, 334, 349, -1,
          358, 359, 354, -1,
          358, 354, 353, -1,
          360, 357, 361, -1,
          360, 342, 357, -1,
          362, 363, 358, -1,
          362, 353, 342, -1,
          362, 358, 353, -1,
          128, 130, 362, -1,
          364, 360, 365, -1,
          364, 365, 366, -1,
          134, 132, 128, -1,
          367, 364, 368, -1,
          367, 342, 360, -1,
          367, 360, 364, -1,
          136, 128, 362, -1,
          136, 134, 128, -1,
          140, 342, 367, -1,
          140, 136, 362, -1,
          140, 138, 136, -1,
          140, 367, 369, -1,
          140, 362, 342, -1,
          370, 369, 371, -1,
          370, 371, 372, -1,
          370, 372, 373, -1,
          374, 369, 370, -1,
          375, 376, 377, -1,
          154, 152, 150, -1,
          154, 150, 148, -1,
          154, 148, 146, -1,
          154, 146, 144, -1,
          154, 144, 142, -1,
          378, 376, 375, -1,
          378, 374, 376, -1,
          156, 142, 140, -1,
          156, 154, 142, -1,
          379, 374, 378, -1,
          160, 158, 156, -1,
          160, 156, 140, -1,
          380, 379, 381, -1,
          380, 381, 382, -1,
          166, 164, 162, -1,
          383, 374, 379, -1,
          383, 380, 384, -1,
          383, 379, 380, -1,
          385, 374, 383, -1,
          386, 374, 385, -1,
          174, 172, 170, -1,
          174, 170, 168, -1,
          174, 168, 166, -1,
          179, 176, 174, -1,
          179, 174, 166, -1,
          387, 369, 374, -1,
          387, 386, 388, -1,
          387, 388, 389, -1,
          387, 389, 390, -1,
          387, 374, 386, -1,
          180, 179, 166, -1,
          391, 162, 160, -1,
          391, 140, 369, -1,
          391, 160, 140, -1,
          391, 369, 387, -1,
          392, 162, 391, -1,
          186, 184, 182, -1,
          186, 182, 180, -1,
          190, 186, 180, -1,
          190, 188, 186, -1,
          254, 392, 393, -1,
          254, 393, 394, -1,
          254, 394, 395, -1,
          192, 190, 180, -1,
          250, 392, 254, -1,
          250, 254, 253, -1,
          248, 392, 250, -1,
          198, 196, 194, -1,
          198, 194, 192, -1,
          200, 192, 180, -1,
          200, 198, 192, -1,
          200, 166, 162, -1,
          200, 180, 166, -1,
          244, 392, 248, -1,
          244, 248, 246, -1,
          240, 244, 242, -1,
          206, 204, 202, -1,
          206, 202, 200, -1,
          238, 392, 244, -1,
          238, 244, 240, -1,
          237, 392, 238, -1,
          234, 392, 237, -1,
          212, 210, 209, -1,
          212, 209, 206, -1,
          215, 206, 200, -1,
          215, 212, 206, -1,
          231, 234, 232, -1,
          216, 215, 200, -1,
          220, 216, 200, -1,
          220, 218, 216, -1,
          224, 234, 231, -1,
          224, 231, 228, -1,
          224, 228, 226, -1,
          223, 200, 162, -1,
          223, 392, 234, -1,
          223, 234, 224, -1,
          223, 220, 200, -1,
          223, 162, 392, -1,
          396, 129, 127, -1,
          396, 127, 397, -1,
          398, 397, 399, -1,
          398, 396, 397, -1,
          400, 399, 401, -1,
          400, 398, 399, -1,
          402, 401, 403, -1,
          402, 400, 401, -1,
          404, 403, 405, -1,
          404, 402, 403, -1,
          406, 405, 407, -1,
          406, 404, 405, -1,
          408, 407, 409, -1,
          408, 406, 407, -1,
          410, 409, 411, -1,
          410, 408, 409, -1,
          412, 411, 413, -1,
          412, 410, 411, -1,
          414, 413, 415, -1,
          414, 412, 413, -1,
          416, 415, 417, -1,
          416, 414, 415, -1,
          418, 417, 419, -1,
          418, 416, 417, -1,
          420, 419, 421, -1,
          420, 418, 419, -1,
          422, 421, 423, -1,
          422, 420, 421, -1,
          424, 423, 425, -1,
          424, 422, 423, -1,
          426, 425, 427, -1,
          426, 424, 425, -1,
          428, 427, 429, -1,
          428, 429, 430, -1,
          428, 426, 427, -1,
          431, 428, 430, -1,
          432, 431, 430, -1,
          432, 430, 433, -1,
          432, 433, 434, -1,
          435, 432, 434, -1,
          435, 434, 436, -1,
          437, 435, 436, -1,
          438, 437, 436, -1,
          438, 436, 439, -1,
          438, 439, 440, -1,
          441, 440, 442, -1,
          441, 438, 440, -1,
          443, 442, 444, -1,
          443, 441, 442, -1,
          445, 443, 444, -1,
          446, 444, 447, -1,
          446, 445, 444, -1,
          448, 447, 449, -1,
          448, 446, 447, -1,
          450, 449, 451, -1,
          450, 448, 449, -1,
          452, 451, 453, -1,
          452, 453, 454, -1,
          452, 450, 451, -1,
          455, 452, 454, -1,
          456, 454, 457, -1,
          456, 455, 454, -1,
          458, 457, 459, -1,
          458, 459, 460, -1,
          458, 456, 457, -1,
          461, 458, 460, -1,
          462, 460, 463, -1,
          462, 463, 464, -1,
          462, 461, 460, -1,
          465, 464, 466, -1,
          465, 462, 464, -1,
          467, 465, 466, -1,
          468, 466, 469, -1,
          468, 467, 466, -1,
          470, 469, 471, -1,
          470, 468, 469, -1,
          472, 471, 473, -1,
          472, 470, 471, -1,
          474, 473, 475, -1,
          474, 472, 473, -1,
          476, 475, 477, -1,
          476, 474, 475, -1,
          478, 477, 479, -1,
          478, 476, 477, -1,
          480, 478, 479, -1,
          480, 479, 481, -1,
          482, 480, 481, -1,
          482, 481, 483, -1,
          484, 482, 483, -1,
          484, 483, 485, -1,
          486, 484, 485, -1,
          486, 485, 487, -1,
          488, 486, 487, -1,
          488, 487, 489, -1,
          490, 488, 489, -1,
          490, 489, 491, -1,
          492, 490, 491, -1,
          492, 491, 493, -1,
          494, 492, 493, -1,
          494, 493, 495, -1,
          494, 495, 496, -1,
          497, 494, 496, -1,
          497, 496, 498, -1,
          499, 497, 498, -1,
          500, 499, 498, -1,
          500, 498, 501, -1,
          502, 500, 501, -1,
          502, 501, 503, -1,
          504, 502, 503, -1,
          504, 503, 505, -1,
          506, 504, 505, -1,
          506, 505, 507, -1,
          506, 507, 508, -1,
          509, 506, 508, -1,
          510, 509, 508, -1,
          510, 508, 511, -1,
          512, 511, 513, -1,
          512, 510, 511, -1,
          514, 513, 515, -1,
          514, 512, 513, -1,
          516, 515, 517, -1,
          516, 517, 518, -1,
          516, 514, 515, -1,
          519, 516, 518, -1,
          255, 518, 1, -1,
          255, 519, 518, -1,
          124, 257, 126, -1,
          122, 257, 124, -1,
          120, 257, 122, -1,
          118, 257, 120, -1,
          262, 0, 2, -1,
          262, 4, 0, -1,
          262, 6, 4, -1,
          262, 8, 6, -1,
          116, 520, 118, -1,
          115, 520, 116, -1,
          113, 520, 115, -1,
          111, 520, 113, -1,
          108, 520, 111, -1,
          106, 520, 108, -1,
          104, 520, 106, -1,
          102, 520, 104, -1,
          118, 520, 257, -1,
          520, 521, 257, -1,
          257, 521, 279, -1,
          279, 521, 299, -1,
          102, 521, 520, -1,
          102, 522, 521, -1,
          101, 522, 102, -1,
          98, 522, 101, -1,
          96, 522, 98, -1,
          94, 522, 96, -1,
          92, 522, 94, -1,
          90, 522, 92, -1,
          89, 522, 90, -1,
          299, 523, 312, -1,
          521, 523, 299, -1,
          89, 524, 522, -1,
          86, 524, 89, -1,
          84, 524, 86, -1,
          82, 524, 84, -1,
          80, 524, 82, -1,
          78, 524, 80, -1,
          76, 524, 78, -1,
          74, 524, 76, -1,
          72, 524, 74, -1,
          521, 524, 523, -1,
          522, 524, 521, -1,
          312, 525, 310, -1,
          523, 525, 312, -1,
          524, 526, 523, -1,
          70, 526, 72, -1,
          68, 526, 70, -1,
          66, 526, 68, -1,
          523, 526, 525, -1,
          65, 526, 66, -1,
          62, 526, 65, -1,
          60, 526, 62, -1,
          58, 526, 60, -1,
          56, 526, 58, -1,
          54, 526, 56, -1,
          72, 526, 524, -1,
          323, 527, 262, -1,
          310, 527, 323, -1,
          525, 527, 310, -1,
          52, 528, 54, -1,
          50, 528, 52, -1,
          48, 528, 50, -1,
          46, 528, 48, -1,
          44, 528, 46, -1,
          42, 528, 44, -1,
          526, 528, 525, -1,
          40, 528, 42, -1,
          38, 528, 40, -1,
          54, 528, 526, -1,
          525, 528, 527, -1,
          22, 529, 24, -1,
          20, 529, 22, -1,
          18, 529, 20, -1,
          16, 529, 18, -1,
          14, 529, 16, -1,
          12, 529, 14, -1,
          10, 529, 12, -1,
          8, 529, 10, -1,
          24, 529, 527, -1,
          262, 529, 8, -1,
          527, 529, 262, -1,
          528, 530, 527, -1,
          38, 530, 528, -1,
          36, 530, 38, -1,
          34, 530, 36, -1,
          32, 530, 34, -1,
          30, 530, 32, -1,
          28, 530, 30, -1,
          26, 530, 28, -1,
          24, 530, 26, -1,
          527, 530, 24, -1,
          395, 255, 254, -1,
          519, 255, 395, -1,
          394, 519, 395, -1,
          516, 519, 394, -1,
          393, 516, 394, -1,
          514, 516, 393, -1,
          392, 514, 393, -1,
          512, 514, 392, -1,
          391, 512, 392, -1,
          510, 512, 391, -1,
          387, 510, 391, -1,
          509, 510, 387, -1,
          390, 509, 387, -1,
          506, 509, 390, -1,
          389, 506, 390, -1,
          504, 506, 389, -1,
          388, 504, 389, -1,
          502, 504, 388, -1,
          386, 502, 388, -1,
          500, 502, 386, -1,
          385, 500, 386, -1,
          499, 500, 385, -1,
          383, 499, 385, -1,
          497, 499, 383, -1,
          384, 497, 383, -1,
          494, 497, 384, -1,
          380, 494, 384, -1,
          492, 494, 380, -1,
          382, 492, 380, -1,
          490, 492, 382, -1,
          381, 490, 382, -1,
          488, 490, 381, -1,
          379, 488, 381, -1,
          486, 488, 379, -1,
          378, 486, 379, -1,
          484, 486, 378, -1,
          375, 484, 378, -1,
          482, 484, 375, -1,
          377, 482, 375, -1,
          480, 482, 377, -1,
          376, 480, 377, -1,
          478, 480, 376, -1,
          374, 478, 376, -1,
          476, 478, 374, -1,
          370, 476, 374, -1,
          474, 476, 370, -1,
          373, 474, 370, -1,
          472, 474, 373, -1,
          372, 472, 373, -1,
          470, 472, 372, -1,
          371, 470, 372, -1,
          468, 470, 371, -1,
          369, 468, 371, -1,
          467, 468, 369, -1,
          367, 467, 369, -1,
          465, 467, 367, -1,
          368, 465, 367, -1,
          462, 465, 368, -1,
          364, 462, 368, -1,
          461, 462, 364, -1,
          366, 461, 364, -1,
          458, 461, 366, -1,
          365, 458, 366, -1,
          456, 458, 365, -1,
          360, 456, 365, -1,
          455, 456, 360, -1,
          361, 455, 360, -1,
          452, 455, 361, -1,
          357, 452, 361, -1,
          450, 452, 357, -1,
          448, 357, 355, -1,
          448, 450, 357, -1,
          356, 448, 355, -1,
          446, 448, 356, -1,
          445, 356, 349, -1,
          445, 446, 356, -1,
          443, 349, 350, -1,
          443, 445, 349, -1,
          346, 443, 350, -1,
          441, 443, 346, -1,
          438, 346, 348, -1,
          438, 441, 346, -1,
          347, 438, 348, -1,
          437, 438, 347, -1,
          435, 437, 347, -1,
          435, 347, 341, -1,
          338, 435, 341, -1,
          432, 435, 338, -1,
          431, 432, 338, -1,
          431, 338, 340, -1,
          428, 431, 340, -1,
          428, 340, 339, -1,
          337, 428, 339, -1,
          426, 428, 337, -1,
          424, 337, 336, -1,
          424, 426, 337, -1,
          422, 336, 335, -1,
          422, 424, 336, -1,
          420, 335, 334, -1,
          420, 422, 335, -1,
          418, 334, 345, -1,
          418, 420, 334, -1,
          344, 418, 345, -1,
          416, 418, 344, -1,
          343, 416, 344, -1,
          414, 416, 343, -1,
          412, 343, 342, -1,
          412, 414, 343, -1,
          410, 342, 353, -1,
          410, 412, 342, -1,
          408, 353, 352, -1,
          408, 410, 353, -1,
          406, 352, 351, -1,
          406, 408, 352, -1,
          404, 351, 354, -1,
          404, 406, 351, -1,
          402, 354, 359, -1,
          402, 404, 354, -1,
          358, 402, 359, -1,
          400, 402, 358, -1,
          398, 358, 363, -1,
          398, 400, 358, -1,
          396, 363, 362, -1,
          396, 398, 363, -1,
          129, 362, 130, -1,
          129, 396, 362, -1,
          261, 127, 126, -1,
          397, 127, 261, -1,
          260, 397, 261, -1,
          399, 397, 260, -1,
          259, 399, 260, -1,
          401, 399, 259, -1,
          256, 401, 259, -1,
          403, 401, 256, -1,
          258, 403, 256, -1,
          405, 403, 258, -1,
          288, 405, 258, -1,
          407, 405, 288, -1,
          287, 407, 288, -1,
          409, 407, 287, -1,
          286, 409, 287, -1,
          411, 409, 286, -1,
          285, 411, 286, -1,
          413, 411, 285, -1,
          284, 413, 285, -1,
          415, 413, 284, -1,
          283, 415, 284, -1,
          417, 415, 283, -1,
          282, 417, 283, -1,
          419, 417, 282, -1,
          281, 419, 282, -1,
          421, 419, 281, -1,
          278, 421, 281, -1,
          423, 421, 278, -1,
          277, 423, 278, -1,
          425, 423, 277, -1,
          276, 425, 277, -1,
          427, 425, 276, -1,
          275, 427, 276, -1,
          429, 427, 275, -1,
          274, 429, 275, -1,
          430, 429, 274, -1,
          273, 430, 274, -1,
          433, 430, 273, -1,
          272, 433, 273, -1,
          434, 433, 272, -1,
          271, 434, 272, -1,
          436, 434, 271, -1,
          268, 436, 271, -1,
          439, 436, 268, -1,
          270, 439, 268, -1,
          440, 439, 270, -1,
          298, 440, 270, -1,
          442, 440, 298, -1,
          297, 442, 298, -1,
          444, 442, 297, -1,
          296, 444, 297, -1,
          447, 444, 296, -1,
          295, 447, 296, -1,
          449, 447, 295, -1,
          294, 449, 295, -1,
          451, 449, 294, -1,
          293, 451, 294, -1,
          453, 451, 293, -1,
          454, 293, 292, -1,
          454, 453, 293, -1,
          290, 454, 292, -1,
          457, 454, 290, -1,
          291, 457, 290, -1,
          459, 457, 291, -1,
          309, 459, 291, -1,
          460, 459, 309, -1,
          308, 460, 309, -1,
          463, 460, 308, -1,
          464, 308, 307, -1,
          464, 463, 308, -1,
          306, 464, 307, -1,
          466, 464, 306, -1,
          305, 466, 306, -1,
          469, 466, 305, -1,
          304, 469, 305, -1,
          471, 469, 304, -1,
          473, 304, 301, -1,
          473, 471, 304, -1,
          303, 473, 301, -1,
          475, 473, 303, -1,
          477, 303, 322, -1,
          477, 475, 303, -1,
          479, 322, 321, -1,
          479, 477, 322, -1,
          320, 479, 321, -1,
          481, 479, 320, -1,
          319, 481, 320, -1,
          483, 481, 319, -1,
          318, 483, 319, -1,
          485, 483, 318, -1,
          317, 485, 318, -1,
          487, 485, 317, -1,
          316, 487, 317, -1,
          489, 487, 316, -1,
          491, 316, 314, -1,
          491, 489, 316, -1,
          315, 491, 314, -1,
          493, 491, 315, -1,
          495, 315, 333, -1,
          495, 493, 315, -1,
          496, 333, 332, -1,
          496, 495, 333, -1,
          498, 332, 331, -1,
          498, 496, 332, -1,
          501, 331, 330, -1,
          501, 498, 331, -1,
          503, 330, 329, -1,
          503, 501, 330, -1,
          328, 503, 329, -1,
          505, 503, 328, -1,
          327, 505, 328, -1,
          507, 505, 327, -1,
          326, 507, 327, -1,
          508, 507, 326, -1,
          511, 326, 264, -1,
          511, 508, 326, -1,
          513, 264, 263, -1,
          513, 511, 264, -1,
          515, 263, 265, -1,
          515, 513, 263, -1,
          266, 515, 265, -1,
          517, 515, 266, -1,
          518, 266, 267, -1,
          518, 517, 266, -1,
          2, 518, 267, -1,
          1, 518, 2, -1
        ]
      }
    }
}
