#VRML V2.0 utf8
WorldInfo {
  title "Exported triangle mesh to VRML97"
  info ["Created by FreeCAD"
        "<https://www.freecad.org>"]
}

Transform {
  scale 1 1 1
  rotation 0 0 1 0
  scaleOrientation 0 0 1 0
  center 0.000 0.000 0.000
  translation 0.000 0.000 0.000
  children
    Shape { 
      appearance
      Appearance {
        material
        Material {
          diffuseColor 0.8 0.8 0.8
        }
      }
      geometry
      IndexedFaceSet {
        coord
        Coordinate {
          point [
            0.623 12.485 1.270,
            0.000 12.700 1.088,
            0.000 12.501 1.270,
            0.633 12.684 1.088,
            1.245 12.439 1.270,
            1.265 12.637 1.088,
            1.863 12.361 1.270,
            1.893 12.558 1.088,
            2.477 12.253 1.270,
            2.516 12.448 1.088,
            3.085 12.114 1.270,
            3.134 12.307 1.088,
            3.685 11.945 1.270,
            3.743 12.136 1.088,
            4.275 11.747 1.270,
            4.344 11.934 1.088,
            4.856 11.519 1.270,
            4.933 11.703 1.088,
            5.424 11.263 1.270,
            5.510 11.442 1.088,
            5.978 10.978 1.270,
            6.074 11.153 1.088,
            6.518 10.667 1.270,
            6.622 10.837 1.088,
            7.042 10.329 1.270,
            7.154 10.493 1.088,
            7.548 9.965 1.270,
            7.668 10.124 1.088,
            8.035 9.576 1.270,
            8.163 9.729 1.088,
            8.503 9.164 1.270,
            8.638 9.310 1.088,
            8.949 8.728 1.270,
            9.092 8.868 1.088,
            9.373 8.272 1.270,
            9.522 8.403 1.088,
            9.773 7.794 1.270,
            9.929 7.918 1.088,
            10.150 7.297 1.270,
            10.312 7.414 1.088,
            10.501 6.782 1.270,
            10.668 6.890 1.088,
            10.999 6.350 1.088,
            10.826 6.250 1.270,
            11.301 5.794 1.088,
            11.124 5.703 1.270,
            11.394 5.141 1.270,
            11.576 5.223 1.088,
            11.637 4.567 1.270,
            11.822 4.640 1.088,
            12.039 4.045 1.088,
            11.850 3.981 1.270,
            12.033 3.386 1.270,
            12.225 3.440 1.088,
            12.187 2.782 1.270,
            12.382 2.826 1.088,
            12.311 2.171 1.270,
            12.507 2.205 1.088,
            12.404 1.554 1.270,
            12.601 1.579 1.088,
            12.466 0.934 1.270,
            12.664 0.949 1.088,
            12.497 0.312 1.270,
            12.696 0.317 1.088,
            12.497 -0.312 1.270,
            12.696 -0.317 1.088,
            12.466 -0.934 1.270,
            12.664 -0.949 1.088,
            12.404 -1.554 1.270,
            12.601 -1.579 1.088,
            12.311 -2.171 1.270,
            12.507 -2.205 1.088,
            12.187 -2.782 1.270,
            12.382 -2.826 1.088,
            12.033 -3.386 1.270,
            12.225 -3.440 1.088,
            11.850 -3.981 1.270,
            12.039 -4.045 1.088,
            11.637 -4.567 1.270,
            11.822 -4.640 1.088,
            11.576 -5.223 1.088,
            11.394 -5.141 1.270,
            11.301 -5.794 1.088,
            11.124 -5.703 1.270,
            10.999 -6.350 1.088,
            10.826 -6.250 1.270,
            10.501 -6.782 1.270,
            10.668 -6.890 1.088,
            10.312 -7.414 1.088,
            10.150 -7.297 1.270,
            9.773 -7.794 1.270,
            9.929 -7.918 1.088,
            9.522 -8.403 1.088,
            9.373 -8.272 1.270,
            8.949 -8.728 1.270,
            9.092 -8.868 1.088,
            8.503 -9.164 1.270,
            8.638 -9.310 1.088,
            8.035 -9.576 1.270,
            8.163 -9.729 1.088,
            7.548 -9.965 1.270,
            7.668 -10.124 1.088,
            7.154 -10.493 1.088,
            7.042 -10.329 1.270,
            6.518 -10.667 1.270,
            6.622 -10.837 1.088,
            5.978 -10.978 1.270,
            6.074 -11.153 1.088,
            5.424 -11.263 1.270,
            5.510 -11.442 1.088,
            4.856 -11.519 1.270,
            4.933 -11.703 1.088,
            4.275 -11.747 1.270,
            4.344 -11.934 1.088,
            3.685 -11.945 1.270,
            3.743 -12.136 1.088,
            3.085 -12.114 1.270,
            3.134 -12.307 1.088,
            2.477 -12.253 1.270,
            2.516 -12.448 1.088,
            1.863 -12.361 1.270,
            1.893 -12.558 1.088,
            1.245 -12.439 1.270,
            1.265 -12.637 1.088,
            0.623 -12.485 1.270,
            0.633 -12.684 1.088,
            0.000 -12.700 1.088,
            0.000 -12.501 1.270,
            0.623 -12.484 -1.288,
            0.000 -12.700 -1.088,
            0.000 -12.500 -1.288,
            0.633 -12.684 -1.088,
            1.245 -12.438 -1.288,
            1.265 -12.637 -1.088,
            1.863 -12.360 -1.288,
            1.893 -12.558 -1.088,
            2.477 -12.252 -1.288,
            2.516 -12.448 -1.088,
            3.084 -12.113 -1.288,
            3.134 -12.307 -1.088,
            3.684 -11.945 -1.288,
            3.743 -12.136 -1.088,
            4.275 -11.746 -1.288,
            4.344 -11.934 -1.088,
            4.855 -11.518 -1.288,
            4.933 -11.703 -1.088,
            5.424 -11.262 -1.288,
            5.510 -11.442 -1.088,
            5.978 -10.978 -1.288,
            6.074 -11.153 -1.088,
            6.518 -10.666 -1.288,
            6.622 -10.837 -1.088,
            7.042 -10.328 -1.288,
            7.154 -10.493 -1.088,
            7.548 -9.964 -1.288,
            7.668 -10.124 -1.088,
            8.035 -9.576 -1.288,
            8.163 -9.729 -1.088,
            8.502 -9.163 -1.288,
            8.638 -9.310 -1.088,
            8.948 -8.728 -1.288,
            9.092 -8.868 -1.088,
            9.372 -8.271 -1.288,
            9.522 -8.403 -1.088,
            9.773 -7.794 -1.288,
            9.929 -7.918 -1.088,
            10.149 -7.297 -1.288,
            10.312 -7.414 -1.088,
            10.500 -6.782 -1.288,
            10.668 -6.890 -1.088,
            10.825 -6.250 -1.288,
            10.999 -6.350 -1.088,
            11.123 -5.703 -1.288,
            11.301 -5.794 -1.088,
            11.394 -5.141 -1.288,
            11.576 -5.223 -1.088,
            11.636 -4.567 -1.288,
            11.822 -4.640 -1.088,
            11.849 -3.981 -1.288,
            12.039 -4.045 -1.088,
            12.033 -3.386 -1.288,
            12.225 -3.440 -1.088,
            12.382 -2.826 -1.088,
            12.187 -2.782 -1.288,
            12.310 -2.171 -1.288,
            12.507 -2.205 -1.088,
            12.403 -1.554 -1.288,
            12.601 -1.579 -1.088,
            12.465 -0.934 -1.288,
            12.664 -0.949 -1.088,
            12.696 -0.317 -1.088,
            12.496 -0.312 -1.288,
            12.496 0.312 -1.288,
            12.696 0.317 -1.088,
            12.465 0.934 -1.288,
            12.664 0.949 -1.088,
            12.403 1.554 -1.288,
            12.601 1.579 -1.088,
            12.310 2.171 -1.288,
            12.507 2.205 -1.088,
            12.382 2.826 -1.088,
            12.187 2.782 -1.288,
            12.033 3.386 -1.288,
            12.225 3.440 -1.088,
            12.039 4.045 -1.088,
            11.849 3.981 -1.288,
            11.822 4.640 -1.088,
            11.636 4.567 -1.288,
            11.394 5.141 -1.288,
            11.576 5.223 -1.088,
            11.301 5.794 -1.088,
            11.123 5.703 -1.288,
            10.825 6.250 -1.288,
            10.999 6.350 -1.088,
            10.500 6.782 -1.288,
            10.668 6.890 -1.088,
            10.312 7.414 -1.088,
            10.149 7.297 -1.288,
            9.773 7.794 -1.288,
            9.929 7.918 -1.088,
            9.372 8.271 -1.288,
            9.522 8.403 -1.088,
            8.948 8.728 -1.288,
            9.092 8.868 -1.088,
            8.502 9.163 -1.288,
            8.638 9.310 -1.088,
            8.163 9.729 -1.088,
            8.035 9.576 -1.288,
            7.548 9.964 -1.288,
            7.668 10.124 -1.088,
            7.154 10.493 -1.088,
            7.042 10.328 -1.288,
            6.518 10.666 -1.288,
            6.622 10.837 -1.088,
            5.978 10.978 -1.288,
            6.074 11.153 -1.088,
            5.510 11.442 -1.088,
            5.424 11.262 -1.288,
            4.855 11.518 -1.288,
            4.933 11.703 -1.088,
            4.275 11.746 -1.288,
            4.344 11.934 -1.088,
            3.684 11.945 -1.288,
            3.743 12.136 -1.088,
            3.084 12.113 -1.288,
            3.134 12.307 -1.088,
            2.477 12.252 -1.288,
            2.516 12.448 -1.088,
            1.863 12.360 -1.288,
            1.893 12.558 -1.088,
            1.265 12.637 -1.088,
            1.245 12.438 -1.288,
            0.623 12.484 -1.288,
            0.633 12.684 -1.088,
            0.000 12.500 -1.288,
            0.000 12.700 -1.088,
            -3.685 -11.945 1.270,
            0.000 -8.340 0.960,
            -4.275 -11.747 1.270,
            -3.085 -12.114 1.270,
            -2.477 -12.253 1.270,
            -1.863 -12.361 1.270,
            -1.245 -12.439 1.270,
            -0.623 -12.485 1.270,
            -4.275 11.747 1.270,
            0.000 8.340 0.960,
            -3.685 11.945 1.270,
            -3.085 12.114 1.270,
            -2.477 12.253 1.270,
            -1.863 12.361 1.270,
            -1.245 12.439 1.270,
            -0.623 12.485 1.270,
            0.000 -4.172 0.774,
            -6.255 -9.372 1.165,
            -8.949 -8.728 1.270,
            -9.373 -8.272 1.270,
            -8.503 -9.164 1.270,
            -8.035 -9.576 1.270,
            -7.548 -9.965 1.270,
            -7.042 -10.329 1.270,
            -6.518 -10.667 1.270,
            -5.978 -10.978 1.270,
            -5.424 -11.263 1.270,
            -4.856 -11.519 1.270,
            -6.255 -3.126 0.886,
            0.000 0.000 0.712,
            -12.466 -0.934 1.270,
            -12.497 -0.312 1.270,
            -12.404 -1.554 1.270,
            -12.311 -2.171 1.270,
            -12.187 -2.782 1.270,
            -12.033 -3.386 1.270,
            -11.850 -3.981 1.270,
            -11.637 -4.567 1.270,
            -11.394 -5.141 1.270,
            -11.124 -5.703 1.270,
            -10.826 -6.250 1.270,
            -10.501 -6.782 1.270,
            -10.150 -7.297 1.270,
            -9.773 -7.794 1.270,
            0.000 4.172 0.774,
            -6.255 3.126 0.886,
            -9.773 7.794 1.270,
            -9.373 8.272 1.270,
            -10.150 7.297 1.270,
            -10.501 6.782 1.270,
            -10.826 6.250 1.270,
            -11.124 5.703 1.270,
            -11.394 5.141 1.270,
            -11.637 4.567 1.270,
            -11.850 3.981 1.270,
            -12.033 3.386 1.270,
            -12.187 2.782 1.270,
            -12.311 2.171 1.270,
            -12.404 1.554 1.270,
            -12.466 0.934 1.270,
            -12.497 0.312 1.270,
            -6.255 9.372 1.165,
            -4.856 11.519 1.270,
            -5.424 11.263 1.270,
            -5.978 10.978 1.270,
            -6.518 10.667 1.270,
            -7.042 10.329 1.270,
            -7.548 9.965 1.270,
            -8.035 9.576 1.270,
            -8.503 9.164 1.270,
            -8.949 8.728 1.270,
            -8.035 -9.576 -1.288,
            -8.502 -9.163 -1.288,
            -8.948 -8.728 -1.288,
            -10.149 -7.297 -1.288,
            -9.372 -8.271 -1.288,
            -9.773 -7.794 -1.288,
            -7.042 -10.328 -1.288,
            -7.548 -9.964 -1.288,
            -5.978 -10.978 -1.288,
            -6.518 -10.666 -1.288,
            -11.394 -5.141 -1.288,
            -10.500 -6.782 -1.288,
            -10.825 -6.250 -1.288,
            -11.123 -5.703 -1.288,
            -4.855 -11.518 -1.288,
            -5.424 -11.262 -1.288,
            -3.084 -12.113 -1.288,
            -3.684 -11.945 -1.288,
            -4.275 -11.746 -1.288,
            -12.187 -2.782 -1.288,
            -11.636 -4.567 -1.288,
            -11.849 -3.981 -1.288,
            -12.033 -3.386 -1.288,
            -12.403 -1.554 -1.288,
            -12.310 -2.171 -1.288,
            -0.623 -12.484 -1.288,
            -1.245 -12.438 -1.288,
            -1.863 -12.360 -1.288,
            -2.477 -12.252 -1.288,
            -12.496 0.312 -1.288,
            -12.465 -0.934 -1.288,
            -12.496 -0.312 -1.288,
            -12.465 0.934 -1.288,
            -12.403 1.554 -1.288,
            -12.187 2.782 -1.288,
            -12.310 2.171 -1.288,
            -11.636 4.567 -1.288,
            -12.033 3.386 -1.288,
            -11.849 3.981 -1.288,
            -10.825 6.250 -1.288,
            -11.394 5.141 -1.288,
            -11.123 5.703 -1.288,
            -10.500 6.782 -1.288,
            -9.372 8.271 -1.288,
            -10.149 7.297 -1.288,
            -9.773 7.794 -1.288,
            -8.948 8.728 -1.288,
            -7.548 9.964 -1.288,
            -8.502 9.163 -1.288,
            -8.035 9.576 -1.288,
            -7.042 10.328 -1.288,
            -6.518 10.666 -1.288,
            -5.978 10.978 -1.288,
            -4.275 11.746 -1.288,
            -5.424 11.262 -1.288,
            -4.855 11.518 -1.288,
            -3.684 11.945 -1.288,
            -3.084 12.113 -1.288,
            -0.623 12.484 -1.288,
            -2.477 12.252 -1.288,
            -1.863 12.360 -1.288,
            -1.245 12.438 -1.288,
            -0.633 -12.684 -1.088,
            -0.633 -12.684 1.088,
            -1.265 -12.637 -1.088,
            -1.265 -12.637 1.088,
            -1.893 -12.558 -1.088,
            -1.893 -12.558 1.088,
            -2.516 -12.448 -1.088,
            -2.516 -12.448 1.088,
            -3.134 -12.307 -1.088,
            -3.134 -12.307 1.088,
            -3.743 -12.136 -1.088,
            -3.743 -12.136 1.088,
            -4.344 -11.934 -1.088,
            -4.344 -11.934 1.088,
            -4.933 -11.703 -1.088,
            -4.933 -11.703 1.088,
            -5.510 -11.442 -1.088,
            -5.510 -11.442 1.088,
            -6.074 -11.153 -1.088,
            -6.074 -11.153 1.088,
            -6.622 -10.837 -1.088,
            -6.622 -10.837 1.088,
            -7.154 -10.493 -1.088,
            -7.154 -10.493 1.088,
            -7.668 -10.124 -1.088,
            -7.668 -10.124 1.088,
            -8.163 -9.729 -1.088,
            -8.163 -9.729 1.088,
            -8.638 -9.310 -1.088,
            -8.638 -9.310 1.088,
            -9.092 -8.868 -1.088,
            -9.092 -8.868 1.088,
            -9.522 -8.403 -1.088,
            -9.522 -8.403 1.088,
            -9.929 -7.918 -1.088,
            -9.929 -7.918 1.088,
            -10.312 -7.414 -1.088,
            -10.312 -7.414 1.088,
            -10.668 -6.890 1.088,
            -10.668 -6.890 -1.088,
            -10.999 -6.350 -1.088,
            -10.999 -6.350 1.088,
            -11.301 -5.794 1.088,
            -11.301 -5.794 -1.088,
            -11.576 -5.223 -1.088,
            -11.576 -5.223 1.088,
            -11.822 -4.640 1.088,
            -11.822 -4.640 -1.088,
            -12.039 -4.045 1.088,
            -12.039 -4.045 -1.088,
            -12.225 -3.440 1.088,
            -12.225 -3.440 -1.088,
            -12.382 -2.826 -1.088,
            -12.382 -2.826 1.088,
            -12.507 -2.205 1.088,
            -12.507 -2.205 -1.088,
            -12.601 -1.579 1.088,
            -12.601 -1.579 -1.088,
            -12.664 -0.949 -1.088,
            -12.664 -0.949 1.088,
            -12.696 -0.317 -1.088,
            -12.696 -0.317 1.088,
            -12.696 0.317 -1.088,
            -12.696 0.317 1.088,
            -12.664 0.949 1.088,
            -12.664 0.949 -1.088,
            -12.601 1.579 -1.088,
            -12.601 1.579 1.088,
            -12.507 2.205 1.088,
            -12.507 2.205 -1.088,
            -12.382 2.826 -1.088,
            -12.382 2.826 1.088,
            -12.225 3.440 -1.088,
            -12.225 3.440 1.088,
            -12.039 4.045 -1.088,
            -12.039 4.045 1.088,
            -11.822 4.640 1.088,
            -11.822 4.640 -1.088,
            -11.576 5.223 1.088,
            -11.576 5.223 -1.088,
            -11.301 5.794 -1.088,
            -11.301 5.794 1.088,
            -10.999 6.350 1.088,
            -10.999 6.350 -1.088,
            -10.668 6.890 -1.088,
            -10.668 6.890 1.088,
            -10.312 7.414 -1.088,
            -10.312 7.414 1.088,
            -9.929 7.918 -1.088,
            -9.929 7.918 1.088,
            -9.522 8.403 -1.088,
            -9.522 8.403 1.088,
            -9.092 8.868 -1.088,
            -9.092 8.868 1.088,
            -8.638 9.310 -1.088,
            -8.638 9.310 1.088,
            -8.163 9.729 -1.088,
            -8.163 9.729 1.088,
            -7.668 10.124 -1.088,
            -7.668 10.124 1.088,
            -7.154 10.493 -1.088,
            -7.154 10.493 1.088,
            -6.622 10.837 1.088,
            -6.622 10.837 -1.088,
            -6.074 11.153 -1.088,
            -6.074 11.153 1.088,
            -5.510 11.442 -1.088,
            -5.510 11.442 1.088,
            -4.933 11.703 -1.088,
            -4.933 11.703 1.088,
            -4.344 11.934 -1.088,
            -4.344 11.934 1.088,
            -3.743 12.136 -1.088,
            -3.743 12.136 1.088,
            -3.134 12.307 -1.088,
            -3.134 12.307 1.088,
            -2.516 12.448 -1.088,
            -2.516 12.448 1.088,
            -1.893 12.558 -1.088,
            -1.893 12.558 1.088,
            -1.265 12.637 -1.088,
            -1.265 12.637 1.088,
            -0.633 12.684 1.088,
            -0.633 12.684 -1.088,
            6.255 -9.372 1.165,
            6.255 -3.126 0.886,
            6.255 3.126 0.886,
            6.255 9.372 1.165
          ]
        }
        coordIndex [
          0, 1, 2, -1,
          3, 1, 0, -1,
          4, 3, 0, -1,
          5, 3, 4, -1,
          6, 5, 4, -1,
          7, 5, 6, -1,
          8, 7, 6, -1,
          9, 7, 8, -1,
          10, 9, 8, -1,
          11, 9, 10, -1,
          12, 11, 10, -1,
          13, 11, 12, -1,
          14, 13, 12, -1,
          15, 13, 14, -1,
          16, 15, 14, -1,
          17, 15, 16, -1,
          18, 17, 16, -1,
          19, 17, 18, -1,
          20, 19, 18, -1,
          21, 19, 20, -1,
          22, 21, 20, -1,
          23, 21, 22, -1,
          24, 23, 22, -1,
          25, 23, 24, -1,
          26, 25, 24, -1,
          27, 25, 26, -1,
          28, 27, 26, -1,
          29, 27, 28, -1,
          30, 29, 28, -1,
          31, 29, 30, -1,
          32, 31, 30, -1,
          33, 31, 32, -1,
          34, 33, 32, -1,
          35, 33, 34, -1,
          36, 35, 34, -1,
          37, 35, 36, -1,
          38, 37, 36, -1,
          39, 37, 38, -1,
          40, 39, 38, -1,
          41, 39, 40, -1,
          42, 41, 40, -1,
          42, 40, 43, -1,
          44, 42, 43, -1,
          44, 43, 45, -1,
          46, 44, 45, -1,
          47, 44, 46, -1,
          48, 47, 46, -1,
          49, 47, 48, -1,
          50, 49, 48, -1,
          50, 48, 51, -1,
          52, 50, 51, -1,
          53, 50, 52, -1,
          54, 53, 52, -1,
          55, 53, 54, -1,
          56, 55, 54, -1,
          57, 55, 56, -1,
          58, 57, 56, -1,
          59, 57, 58, -1,
          60, 59, 58, -1,
          61, 59, 60, -1,
          62, 61, 60, -1,
          63, 61, 62, -1,
          64, 63, 62, -1,
          65, 63, 64, -1,
          66, 65, 64, -1,
          67, 65, 66, -1,
          68, 67, 66, -1,
          69, 67, 68, -1,
          70, 69, 68, -1,
          71, 69, 70, -1,
          72, 71, 70, -1,
          73, 71, 72, -1,
          74, 73, 72, -1,
          75, 73, 74, -1,
          76, 75, 74, -1,
          77, 75, 76, -1,
          78, 77, 76, -1,
          79, 77, 78, -1,
          80, 78, 81, -1,
          80, 79, 78, -1,
          82, 81, 83, -1,
          82, 80, 81, -1,
          84, 83, 85, -1,
          84, 82, 83, -1,
          86, 84, 85, -1,
          87, 84, 86, -1,
          88, 87, 86, -1,
          88, 86, 89, -1,
          90, 88, 89, -1,
          91, 88, 90, -1,
          92, 91, 90, -1,
          92, 90, 93, -1,
          94, 92, 93, -1,
          95, 92, 94, -1,
          96, 95, 94, -1,
          97, 95, 96, -1,
          98, 97, 96, -1,
          99, 97, 98, -1,
          100, 99, 98, -1,
          101, 99, 100, -1,
          102, 100, 103, -1,
          102, 101, 100, -1,
          104, 102, 103, -1,
          105, 102, 104, -1,
          106, 105, 104, -1,
          107, 105, 106, -1,
          108, 107, 106, -1,
          109, 107, 108, -1,
          110, 109, 108, -1,
          111, 109, 110, -1,
          112, 111, 110, -1,
          113, 111, 112, -1,
          114, 113, 112, -1,
          115, 113, 114, -1,
          116, 115, 114, -1,
          117, 115, 116, -1,
          118, 117, 116, -1,
          119, 117, 118, -1,
          120, 119, 118, -1,
          121, 119, 120, -1,
          122, 121, 120, -1,
          123, 121, 122, -1,
          124, 123, 122, -1,
          125, 123, 124, -1,
          126, 124, 127, -1,
          126, 125, 124, -1,
          128, 129, 130, -1,
          131, 129, 128, -1,
          132, 131, 128, -1,
          133, 131, 132, -1,
          134, 133, 132, -1,
          135, 133, 134, -1,
          136, 135, 134, -1,
          137, 135, 136, -1,
          138, 137, 136, -1,
          139, 137, 138, -1,
          140, 139, 138, -1,
          141, 139, 140, -1,
          142, 141, 140, -1,
          143, 141, 142, -1,
          144, 143, 142, -1,
          145, 143, 144, -1,
          146, 145, 144, -1,
          147, 145, 146, -1,
          148, 147, 146, -1,
          149, 147, 148, -1,
          150, 149, 148, -1,
          151, 149, 150, -1,
          152, 151, 150, -1,
          153, 151, 152, -1,
          154, 153, 152, -1,
          155, 153, 154, -1,
          156, 155, 154, -1,
          157, 155, 156, -1,
          158, 157, 156, -1,
          159, 157, 158, -1,
          160, 159, 158, -1,
          161, 159, 160, -1,
          162, 161, 160, -1,
          163, 161, 162, -1,
          164, 163, 162, -1,
          165, 163, 164, -1,
          166, 165, 164, -1,
          167, 165, 166, -1,
          168, 167, 166, -1,
          169, 167, 168, -1,
          170, 169, 168, -1,
          171, 169, 170, -1,
          172, 171, 170, -1,
          173, 171, 172, -1,
          174, 173, 172, -1,
          175, 173, 174, -1,
          176, 175, 174, -1,
          177, 175, 176, -1,
          178, 177, 176, -1,
          179, 177, 178, -1,
          180, 179, 178, -1,
          181, 179, 180, -1,
          182, 180, 183, -1,
          182, 181, 180, -1,
          184, 182, 183, -1,
          185, 182, 184, -1,
          186, 185, 184, -1,
          187, 185, 186, -1,
          188, 187, 186, -1,
          189, 187, 188, -1,
          190, 188, 191, -1,
          190, 189, 188, -1,
          192, 190, 191, -1,
          193, 190, 192, -1,
          194, 193, 192, -1,
          195, 193, 194, -1,
          196, 195, 194, -1,
          197, 195, 196, -1,
          198, 197, 196, -1,
          199, 197, 198, -1,
          200, 198, 201, -1,
          200, 199, 198, -1,
          202, 200, 201, -1,
          203, 200, 202, -1,
          204, 202, 205, -1,
          204, 203, 202, -1,
          206, 205, 207, -1,
          206, 204, 205, -1,
          208, 206, 207, -1,
          209, 206, 208, -1,
          210, 208, 211, -1,
          210, 209, 208, -1,
          212, 210, 211, -1,
          213, 210, 212, -1,
          214, 213, 212, -1,
          215, 213, 214, -1,
          216, 215, 214, -1,
          216, 214, 217, -1,
          218, 216, 217, -1,
          219, 216, 218, -1,
          220, 219, 218, -1,
          221, 219, 220, -1,
          222, 221, 220, -1,
          223, 221, 222, -1,
          224, 223, 222, -1,
          225, 223, 224, -1,
          226, 224, 227, -1,
          226, 225, 224, -1,
          228, 226, 227, -1,
          229, 226, 228, -1,
          230, 228, 231, -1,
          230, 229, 228, -1,
          232, 230, 231, -1,
          233, 230, 232, -1,
          234, 233, 232, -1,
          235, 233, 234, -1,
          236, 234, 237, -1,
          236, 235, 234, -1,
          238, 236, 237, -1,
          239, 236, 238, -1,
          240, 239, 238, -1,
          241, 239, 240, -1,
          242, 241, 240, -1,
          243, 241, 242, -1,
          244, 243, 242, -1,
          245, 243, 244, -1,
          246, 245, 244, -1,
          247, 245, 246, -1,
          248, 247, 246, -1,
          249, 247, 248, -1,
          250, 248, 251, -1,
          250, 249, 248, -1,
          252, 250, 251, -1,
          253, 250, 252, -1,
          254, 253, 252, -1,
          255, 253, 254, -1,
          256, 257, 258, -1,
          259, 257, 256, -1,
          260, 257, 259, -1,
          261, 257, 260, -1,
          262, 257, 261, -1,
          263, 257, 262, -1,
          127, 257, 263, -1,
          264, 265, 266, -1,
          265, 267, 266, -1,
          265, 268, 267, -1,
          265, 269, 268, -1,
          265, 270, 269, -1,
          265, 271, 270, -1,
          265, 2, 271, -1,
          272, 273, 257, -1,
          274, 273, 275, -1,
          276, 273, 274, -1,
          277, 273, 276, -1,
          278, 273, 277, -1,
          279, 273, 278, -1,
          280, 273, 279, -1,
          281, 273, 280, -1,
          282, 273, 281, -1,
          283, 273, 282, -1,
          258, 273, 283, -1,
          257, 273, 258, -1,
          273, 284, 275, -1,
          285, 284, 272, -1,
          286, 284, 287, -1,
          288, 284, 286, -1,
          289, 284, 288, -1,
          290, 284, 289, -1,
          291, 284, 290, -1,
          292, 284, 291, -1,
          293, 284, 292, -1,
          294, 284, 293, -1,
          295, 284, 294, -1,
          296, 284, 295, -1,
          297, 284, 296, -1,
          298, 284, 297, -1,
          299, 284, 298, -1,
          275, 284, 299, -1,
          272, 284, 273, -1,
          300, 301, 285, -1,
          302, 301, 303, -1,
          304, 301, 302, -1,
          305, 301, 304, -1,
          306, 301, 305, -1,
          307, 301, 306, -1,
          308, 301, 307, -1,
          309, 301, 308, -1,
          310, 301, 309, -1,
          311, 301, 310, -1,
          312, 301, 311, -1,
          313, 301, 312, -1,
          314, 301, 313, -1,
          315, 301, 314, -1,
          316, 301, 315, -1,
          287, 301, 316, -1,
          284, 301, 287, -1,
          285, 301, 284, -1,
          265, 317, 300, -1,
          318, 317, 264, -1,
          319, 317, 318, -1,
          320, 317, 319, -1,
          321, 317, 320, -1,
          322, 317, 321, -1,
          323, 317, 322, -1,
          324, 317, 323, -1,
          325, 317, 324, -1,
          326, 317, 325, -1,
          303, 317, 326, -1,
          300, 317, 301, -1,
          301, 317, 303, -1,
          264, 317, 265, -1,
          253, 1, 3, -1,
          253, 255, 1, -1,
          250, 3, 5, -1,
          250, 253, 3, -1,
          249, 5, 7, -1,
          249, 250, 5, -1,
          247, 7, 9, -1,
          247, 249, 7, -1,
          245, 9, 11, -1,
          245, 247, 9, -1,
          243, 11, 13, -1,
          243, 245, 11, -1,
          241, 13, 15, -1,
          241, 243, 13, -1,
          239, 15, 17, -1,
          239, 241, 15, -1,
          236, 17, 19, -1,
          236, 239, 17, -1,
          235, 19, 21, -1,
          235, 236, 19, -1,
          233, 21, 23, -1,
          233, 235, 21, -1,
          230, 23, 25, -1,
          230, 233, 23, -1,
          229, 25, 27, -1,
          229, 230, 25, -1,
          226, 27, 29, -1,
          226, 229, 27, -1,
          225, 29, 31, -1,
          225, 226, 29, -1,
          223, 31, 33, -1,
          223, 225, 31, -1,
          221, 33, 35, -1,
          221, 223, 33, -1,
          219, 35, 37, -1,
          219, 221, 35, -1,
          216, 219, 37, -1,
          216, 37, 39, -1,
          215, 216, 39, -1,
          215, 39, 41, -1,
          213, 215, 41, -1,
          213, 41, 42, -1,
          210, 213, 42, -1,
          210, 42, 44, -1,
          209, 44, 47, -1,
          209, 210, 44, -1,
          206, 47, 49, -1,
          206, 209, 47, -1,
          204, 49, 50, -1,
          204, 206, 49, -1,
          203, 50, 53, -1,
          203, 204, 50, -1,
          200, 53, 55, -1,
          200, 203, 53, -1,
          199, 55, 57, -1,
          199, 200, 55, -1,
          197, 57, 59, -1,
          197, 199, 57, -1,
          195, 59, 61, -1,
          195, 197, 59, -1,
          193, 61, 63, -1,
          193, 195, 61, -1,
          190, 63, 65, -1,
          190, 193, 63, -1,
          189, 65, 67, -1,
          189, 190, 65, -1,
          187, 67, 69, -1,
          187, 189, 67, -1,
          185, 69, 71, -1,
          185, 187, 69, -1,
          182, 71, 73, -1,
          182, 185, 71, -1,
          181, 73, 75, -1,
          181, 182, 73, -1,
          179, 75, 77, -1,
          179, 181, 75, -1,
          177, 77, 79, -1,
          177, 179, 77, -1,
          175, 79, 80, -1,
          175, 177, 79, -1,
          173, 80, 82, -1,
          173, 175, 80, -1,
          171, 82, 84, -1,
          171, 173, 82, -1,
          169, 171, 84, -1,
          169, 84, 87, -1,
          167, 169, 87, -1,
          167, 87, 88, -1,
          165, 167, 88, -1,
          165, 88, 91, -1,
          163, 165, 91, -1,
          163, 91, 92, -1,
          161, 163, 92, -1,
          161, 92, 95, -1,
          159, 161, 95, -1,
          159, 95, 97, -1,
          157, 159, 97, -1,
          157, 97, 99, -1,
          155, 157, 99, -1,
          155, 99, 101, -1,
          153, 155, 101, -1,
          153, 101, 102, -1,
          151, 153, 102, -1,
          151, 102, 105, -1,
          149, 151, 105, -1,
          149, 105, 107, -1,
          147, 149, 107, -1,
          147, 107, 109, -1,
          145, 147, 109, -1,
          145, 109, 111, -1,
          143, 111, 113, -1,
          143, 145, 111, -1,
          141, 113, 115, -1,
          141, 143, 113, -1,
          139, 115, 117, -1,
          139, 141, 115, -1,
          137, 117, 119, -1,
          137, 139, 117, -1,
          135, 119, 121, -1,
          135, 137, 119, -1,
          133, 121, 123, -1,
          133, 123, 125, -1,
          133, 135, 121, -1,
          131, 133, 125, -1,
          129, 125, 126, -1,
          129, 131, 125, -1,
          327, 328, 329, -1,
          330, 329, 331, -1,
          330, 331, 332, -1,
          333, 334, 327, -1,
          335, 336, 333, -1,
          337, 330, 338, -1,
          337, 338, 339, -1,
          337, 339, 340, -1,
          337, 329, 330, -1,
          341, 342, 335, -1,
          341, 335, 333, -1,
          341, 327, 329, -1,
          341, 333, 327, -1,
          343, 344, 345, -1,
          343, 345, 341, -1,
          343, 329, 337, -1,
          343, 341, 329, -1,
          346, 347, 348, -1,
          346, 348, 349, -1,
          350, 337, 347, -1,
          350, 346, 351, -1,
          350, 347, 346, -1,
          352, 353, 354, -1,
          352, 354, 355, -1,
          352, 355, 343, -1,
          352, 343, 337, -1,
          356, 357, 358, -1,
          359, 357, 356, -1,
          360, 357, 359, -1,
          136, 130, 352, -1,
          136, 134, 132, -1,
          136, 132, 128, -1,
          136, 128, 130, -1,
          361, 360, 362, -1,
          361, 357, 360, -1,
          140, 138, 136, -1,
          142, 140, 136, -1,
          363, 357, 361, -1,
          363, 350, 357, -1,
          363, 361, 364, -1,
          363, 364, 365, -1,
          146, 144, 142, -1,
          148, 146, 142, -1,
          366, 363, 367, -1,
          366, 367, 368, -1,
          369, 363, 366, -1,
          154, 152, 150, -1,
          154, 150, 148, -1,
          154, 148, 142, -1,
          370, 371, 372, -1,
          373, 371, 370, -1,
          374, 375, 376, -1,
          166, 164, 162, -1,
          166, 162, 160, -1,
          166, 160, 158, -1,
          377, 375, 374, -1,
          168, 158, 156, -1,
          168, 156, 154, -1,
          168, 166, 158, -1,
          378, 375, 377, -1,
          379, 373, 375, -1,
          379, 375, 378, -1,
          172, 170, 168, -1,
          174, 172, 168, -1,
          176, 168, 154, -1,
          176, 154, 142, -1,
          176, 174, 168, -1,
          380, 379, 381, -1,
          380, 381, 382, -1,
          380, 373, 379, -1,
          178, 176, 142, -1,
          383, 363, 369, -1,
          383, 369, 371, -1,
          383, 371, 373, -1,
          383, 373, 380, -1,
          384, 142, 136, -1,
          384, 136, 352, -1,
          384, 350, 363, -1,
          384, 337, 350, -1,
          384, 363, 383, -1,
          384, 352, 337, -1,
          184, 180, 178, -1,
          184, 183, 180, -1,
          188, 184, 178, -1,
          188, 178, 142, -1,
          188, 186, 184, -1,
          385, 386, 387, -1,
          385, 387, 388, -1,
          252, 385, 254, -1,
          194, 192, 191, -1,
          198, 196, 194, -1,
          246, 251, 248, -1,
          244, 385, 252, -1,
          244, 251, 246, -1,
          244, 252, 251, -1,
          202, 194, 191, -1,
          202, 198, 194, -1,
          202, 201, 198, -1,
          202, 191, 188, -1,
          240, 244, 242, -1,
          207, 188, 142, -1,
          207, 202, 188, -1,
          207, 384, 386, -1,
          207, 142, 384, -1,
          207, 205, 202, -1,
          238, 386, 385, -1,
          238, 385, 244, -1,
          238, 207, 386, -1,
          238, 244, 240, -1,
          212, 211, 208, -1,
          212, 208, 207, -1,
          232, 238, 237, -1,
          232, 237, 234, -1,
          231, 238, 232, -1,
          217, 212, 207, -1,
          217, 214, 212, -1,
          218, 217, 207, -1,
          227, 238, 231, -1,
          227, 231, 228, -1,
          220, 218, 207, -1,
          222, 207, 238, -1,
          222, 238, 227, -1,
          222, 220, 207, -1,
          222, 227, 224, -1,
          389, 129, 126, -1,
          389, 126, 390, -1,
          391, 390, 392, -1,
          391, 389, 390, -1,
          393, 392, 394, -1,
          393, 391, 392, -1,
          395, 394, 396, -1,
          395, 393, 394, -1,
          397, 396, 398, -1,
          397, 395, 396, -1,
          399, 398, 400, -1,
          399, 397, 398, -1,
          401, 400, 402, -1,
          401, 399, 400, -1,
          403, 402, 404, -1,
          403, 401, 402, -1,
          405, 404, 406, -1,
          405, 403, 404, -1,
          407, 406, 408, -1,
          407, 405, 406, -1,
          409, 408, 410, -1,
          409, 407, 408, -1,
          411, 410, 412, -1,
          411, 409, 410, -1,
          413, 412, 414, -1,
          413, 411, 412, -1,
          415, 414, 416, -1,
          415, 413, 414, -1,
          417, 416, 418, -1,
          417, 415, 416, -1,
          419, 418, 420, -1,
          419, 417, 418, -1,
          421, 420, 422, -1,
          421, 419, 420, -1,
          423, 422, 424, -1,
          423, 421, 422, -1,
          425, 423, 424, -1,
          425, 424, 426, -1,
          425, 426, 427, -1,
          428, 425, 427, -1,
          429, 428, 427, -1,
          429, 427, 430, -1,
          429, 430, 431, -1,
          432, 429, 431, -1,
          433, 431, 434, -1,
          433, 432, 431, -1,
          433, 434, 435, -1,
          436, 435, 437, -1,
          436, 433, 435, -1,
          438, 437, 439, -1,
          438, 436, 437, -1,
          440, 438, 439, -1,
          441, 439, 442, -1,
          441, 442, 443, -1,
          441, 440, 439, -1,
          444, 443, 445, -1,
          444, 441, 443, -1,
          446, 444, 445, -1,
          447, 445, 448, -1,
          447, 446, 445, -1,
          449, 448, 450, -1,
          449, 447, 448, -1,
          451, 450, 452, -1,
          451, 452, 453, -1,
          451, 449, 450, -1,
          454, 451, 453, -1,
          455, 453, 456, -1,
          455, 456, 457, -1,
          455, 454, 453, -1,
          458, 455, 457, -1,
          459, 457, 460, -1,
          459, 458, 457, -1,
          461, 460, 462, -1,
          461, 459, 460, -1,
          463, 462, 464, -1,
          463, 464, 465, -1,
          463, 461, 462, -1,
          466, 465, 467, -1,
          466, 463, 465, -1,
          468, 466, 467, -1,
          469, 467, 470, -1,
          469, 470, 471, -1,
          469, 468, 467, -1,
          472, 469, 471, -1,
          473, 472, 471, -1,
          473, 471, 474, -1,
          475, 473, 474, -1,
          475, 474, 476, -1,
          477, 475, 476, -1,
          477, 476, 478, -1,
          479, 477, 478, -1,
          479, 478, 480, -1,
          481, 479, 480, -1,
          481, 480, 482, -1,
          483, 481, 482, -1,
          483, 482, 484, -1,
          485, 483, 484, -1,
          485, 484, 486, -1,
          487, 485, 486, -1,
          487, 486, 488, -1,
          489, 487, 488, -1,
          489, 488, 490, -1,
          489, 490, 491, -1,
          492, 489, 491, -1,
          493, 492, 491, -1,
          493, 491, 494, -1,
          495, 493, 494, -1,
          495, 494, 496, -1,
          497, 495, 496, -1,
          497, 496, 498, -1,
          499, 497, 498, -1,
          499, 498, 500, -1,
          501, 500, 502, -1,
          501, 499, 500, -1,
          503, 502, 504, -1,
          503, 501, 502, -1,
          505, 504, 506, -1,
          505, 503, 504, -1,
          507, 506, 508, -1,
          507, 505, 506, -1,
          509, 508, 510, -1,
          509, 510, 511, -1,
          509, 507, 508, -1,
          512, 509, 511, -1,
          255, 511, 1, -1,
          255, 512, 511, -1,
          124, 257, 127, -1,
          122, 257, 124, -1,
          120, 257, 122, -1,
          118, 257, 120, -1,
          116, 257, 118, -1,
          116, 114, 257, -1,
          114, 112, 257, -1,
          265, 0, 2, -1,
          265, 4, 0, -1,
          265, 6, 4, -1,
          265, 8, 6, -1,
          265, 10, 8, -1,
          265, 12, 10, -1,
          265, 14, 12, -1,
          110, 513, 112, -1,
          108, 513, 110, -1,
          106, 513, 108, -1,
          104, 513, 106, -1,
          103, 513, 104, -1,
          100, 513, 103, -1,
          98, 513, 100, -1,
          96, 513, 98, -1,
          94, 513, 96, -1,
          93, 513, 94, -1,
          257, 513, 272, -1,
          112, 513, 257, -1,
          93, 514, 513, -1,
          90, 514, 93, -1,
          89, 514, 90, -1,
          86, 514, 89, -1,
          85, 514, 86, -1,
          83, 514, 85, -1,
          81, 514, 83, -1,
          78, 514, 81, -1,
          76, 514, 78, -1,
          74, 514, 76, -1,
          72, 514, 74, -1,
          70, 514, 72, -1,
          68, 514, 70, -1,
          66, 514, 68, -1,
          64, 514, 66, -1,
          62, 514, 64, -1,
          272, 514, 285, -1,
          513, 514, 272, -1,
          285, 515, 300, -1,
          514, 515, 285, -1,
          60, 515, 62, -1,
          58, 515, 60, -1,
          56, 515, 58, -1,
          54, 515, 56, -1,
          52, 515, 54, -1,
          51, 515, 52, -1,
          48, 515, 51, -1,
          46, 515, 48, -1,
          45, 515, 46, -1,
          43, 515, 45, -1,
          40, 515, 43, -1,
          38, 515, 40, -1,
          36, 515, 38, -1,
          34, 515, 36, -1,
          62, 515, 514, -1,
          515, 516, 300, -1,
          300, 516, 265, -1,
          32, 516, 34, -1,
          30, 516, 32, -1,
          28, 516, 30, -1,
          26, 516, 28, -1,
          24, 516, 26, -1,
          22, 516, 24, -1,
          20, 516, 22, -1,
          18, 516, 20, -1,
          16, 516, 18, -1,
          14, 516, 16, -1,
          265, 516, 14, -1,
          34, 516, 515, -1,
          385, 255, 254, -1,
          512, 255, 385, -1,
          388, 512, 385, -1,
          509, 512, 388, -1,
          387, 509, 388, -1,
          507, 509, 387, -1,
          386, 507, 387, -1,
          505, 507, 386, -1,
          384, 505, 386, -1,
          503, 505, 384, -1,
          383, 503, 384, -1,
          501, 503, 383, -1,
          380, 501, 383, -1,
          499, 501, 380, -1,
          382, 499, 380, -1,
          497, 499, 382, -1,
          381, 497, 382, -1,
          495, 497, 381, -1,
          379, 495, 381, -1,
          493, 495, 379, -1,
          378, 493, 379, -1,
          492, 493, 378, -1,
          377, 492, 378, -1,
          489, 492, 377, -1,
          374, 489, 377, -1,
          487, 489, 374, -1,
          376, 487, 374, -1,
          485, 487, 376, -1,
          375, 485, 376, -1,
          483, 485, 375, -1,
          373, 483, 375, -1,
          481, 483, 373, -1,
          370, 481, 373, -1,
          479, 481, 370, -1,
          372, 479, 370, -1,
          477, 479, 372, -1,
          371, 477, 372, -1,
          475, 477, 371, -1,
          369, 475, 371, -1,
          473, 475, 369, -1,
          366, 473, 369, -1,
          472, 473, 366, -1,
          368, 472, 366, -1,
          469, 472, 368, -1,
          367, 469, 368, -1,
          468, 469, 367, -1,
          363, 468, 367, -1,
          466, 468, 363, -1,
          365, 466, 363, -1,
          463, 466, 365, -1,
          364, 463, 365, -1,
          461, 463, 364, -1,
          361, 461, 364, -1,
          459, 461, 361, -1,
          362, 459, 361, -1,
          458, 459, 362, -1,
          360, 458, 362, -1,
          455, 458, 360, -1,
          359, 455, 360, -1,
          454, 455, 359, -1,
          356, 454, 359, -1,
          451, 454, 356, -1,
          358, 451, 356, -1,
          449, 451, 358, -1,
          357, 449, 358, -1,
          447, 449, 357, -1,
          350, 447, 357, -1,
          446, 447, 350, -1,
          444, 350, 351, -1,
          444, 446, 350, -1,
          346, 444, 351, -1,
          441, 444, 346, -1,
          349, 441, 346, -1,
          440, 441, 349, -1,
          348, 440, 349, -1,
          438, 440, 348, -1,
          436, 348, 347, -1,
          436, 438, 348, -1,
          433, 347, 337, -1,
          433, 436, 347, -1,
          432, 337, 340, -1,
          432, 433, 337, -1,
          429, 340, 339, -1,
          429, 432, 340, -1,
          428, 339, 338, -1,
          428, 429, 339, -1,
          330, 428, 338, -1,
          425, 428, 330, -1,
          423, 425, 330, -1,
          423, 330, 332, -1,
          421, 423, 332, -1,
          421, 332, 331, -1,
          419, 421, 331, -1,
          419, 331, 329, -1,
          417, 329, 328, -1,
          417, 419, 329, -1,
          415, 328, 327, -1,
          415, 417, 328, -1,
          413, 327, 334, -1,
          413, 415, 327, -1,
          411, 334, 333, -1,
          411, 413, 334, -1,
          336, 411, 333, -1,
          409, 411, 336, -1,
          335, 409, 336, -1,
          407, 409, 335, -1,
          342, 407, 335, -1,
          405, 407, 342, -1,
          341, 405, 342, -1,
          403, 405, 341, -1,
          401, 341, 345, -1,
          401, 403, 341, -1,
          344, 401, 345, -1,
          399, 401, 344, -1,
          397, 344, 343, -1,
          397, 399, 344, -1,
          395, 343, 355, -1,
          395, 397, 343, -1,
          393, 355, 354, -1,
          393, 395, 355, -1,
          353, 393, 354, -1,
          391, 393, 353, -1,
          389, 353, 352, -1,
          389, 391, 353, -1,
          129, 352, 130, -1,
          129, 389, 352, -1,
          263, 126, 127, -1,
          390, 126, 263, -1,
          262, 390, 263, -1,
          392, 390, 262, -1,
          261, 392, 262, -1,
          394, 392, 261, -1,
          260, 394, 261, -1,
          396, 394, 260, -1,
          259, 396, 260, -1,
          398, 396, 259, -1,
          256, 398, 259, -1,
          400, 398, 256, -1,
          258, 400, 256, -1,
          402, 400, 258, -1,
          283, 402, 258, -1,
          404, 402, 283, -1,
          282, 404, 283, -1,
          406, 404, 282, -1,
          281, 406, 282, -1,
          408, 406, 281, -1,
          280, 408, 281, -1,
          410, 408, 280, -1,
          279, 410, 280, -1,
          412, 410, 279, -1,
          278, 412, 279, -1,
          414, 412, 278, -1,
          277, 414, 278, -1,
          416, 414, 277, -1,
          276, 416, 277, -1,
          418, 416, 276, -1,
          274, 418, 276, -1,
          420, 418, 274, -1,
          275, 420, 274, -1,
          422, 420, 275, -1,
          299, 422, 275, -1,
          424, 422, 299, -1,
          298, 424, 299, -1,
          426, 424, 298, -1,
          297, 426, 298, -1,
          427, 426, 297, -1,
          296, 427, 297, -1,
          430, 427, 296, -1,
          295, 430, 296, -1,
          431, 430, 295, -1,
          294, 431, 295, -1,
          434, 431, 294, -1,
          293, 434, 294, -1,
          435, 434, 293, -1,
          292, 435, 293, -1,
          437, 435, 292, -1,
          291, 437, 292, -1,
          439, 437, 291, -1,
          290, 439, 291, -1,
          442, 439, 290, -1,
          289, 442, 290, -1,
          443, 442, 289, -1,
          288, 443, 289, -1,
          445, 443, 288, -1,
          286, 445, 288, -1,
          448, 445, 286, -1,
          287, 448, 286, -1,
          450, 448, 287, -1,
          316, 450, 287, -1,
          452, 450, 316, -1,
          315, 452, 316, -1,
          453, 452, 315, -1,
          314, 453, 315, -1,
          456, 453, 314, -1,
          313, 456, 314, -1,
          457, 456, 313, -1,
          460, 313, 312, -1,
          460, 457, 313, -1,
          311, 460, 312, -1,
          462, 460, 311, -1,
          310, 462, 311, -1,
          464, 462, 310, -1,
          309, 464, 310, -1,
          465, 464, 309, -1,
          308, 465, 309, -1,
          467, 465, 308, -1,
          307, 467, 308, -1,
          470, 467, 307, -1,
          306, 470, 307, -1,
          471, 470, 306, -1,
          305, 471, 306, -1,
          474, 471, 305, -1,
          476, 474, 305, -1,
          476, 305, 304, -1,
          478, 476, 304, -1,
          478, 304, 302, -1,
          480, 478, 302, -1,
          480, 302, 303, -1,
          482, 480, 303, -1,
          482, 303, 326, -1,
          484, 326, 325, -1,
          484, 482, 326, -1,
          324, 484, 325, -1,
          486, 484, 324, -1,
          323, 486, 324, -1,
          488, 486, 323, -1,
          490, 323, 322, -1,
          490, 488, 323, -1,
          491, 322, 321, -1,
          491, 490, 322, -1,
          494, 321, 320, -1,
          494, 491, 321, -1,
          319, 494, 320, -1,
          496, 494, 319, -1,
          498, 319, 318, -1,
          498, 496, 319, -1,
          264, 498, 318, -1,
          500, 498, 264, -1,
          502, 264, 266, -1,
          502, 500, 264, -1,
          267, 502, 266, -1,
          504, 502, 267, -1,
          506, 267, 268, -1,
          506, 504, 267, -1,
          269, 506, 268, -1,
          508, 506, 269, -1,
          270, 508, 269, -1,
          510, 508, 270, -1,
          271, 510, 270, -1,
          511, 510, 271, -1,
          1, 271, 2, -1,
          1, 511, 271, -1
        ]
      }
    }
}
