#VRML V2.0 utf8
WorldInfo {
  title "Exported triangle mesh to VRML97"
  info ["Created by FreeCAD"
        "<https://www.freecad.org>"]
}

Transform {
  scale 1 1 1
  rotation 0 0 1 0
  scaleOrientation 0 0 1 0
  center 0.000 0.000 0.000
  translation 0.000 0.000 0.000
  children
    Shape { 
      appearance
      Appearance {
        material
        Material {
          diffuseColor 0.8 0.8 0.8
        }
      }
      geometry
      IndexedFaceSet {
        coord
        Coordinate {
          point [
            0.317 -6.342 2.138,
            -0.000 -6.350 -2.138,
            0.317 -6.342 -2.138,
            -0.000 -6.350 2.138,
            0.632 -6.318 2.138,
            0.632 -6.318 -2.138,
            0.946 -6.279 2.138,
            0.946 -6.279 -2.138,
            1.258 -6.224 2.138,
            1.258 -6.224 -2.138,
            1.567 -6.154 2.138,
            1.567 -6.154 -2.138,
            1.872 -6.068 2.138,
            1.872 -6.068 -2.138,
            2.172 -5.967 2.138,
            2.172 -5.967 -2.138,
            2.467 -5.851 2.138,
            2.467 -5.851 -2.138,
            2.755 -5.721 -2.138,
            2.755 -5.721 2.138,
            3.037 -5.577 -2.138,
            3.037 -5.577 2.138,
            3.311 -5.418 2.138,
            3.311 -5.418 -2.138,
            3.577 -5.247 -2.138,
            3.577 -5.247 2.138,
            3.834 -5.062 2.138,
            3.834 -5.062 -2.138,
            4.082 -4.864 2.138,
            4.082 -4.864 -2.138,
            4.319 -4.655 -2.138,
            4.319 -4.655 2.138,
            4.546 -4.434 2.138,
            4.546 -4.434 -2.138,
            4.761 -4.202 -2.138,
            4.761 -4.202 2.138,
            4.965 -3.959 2.138,
            4.965 -3.959 -2.138,
            5.156 -3.707 2.138,
            5.156 -3.707 -2.138,
            5.334 -3.445 -2.138,
            5.334 -3.445 2.138,
            5.499 -3.175 2.138,
            5.499 -3.175 -2.138,
            5.651 -2.897 2.138,
            5.651 -2.897 -2.138,
            5.788 -2.612 -2.138,
            5.788 -2.612 2.138,
            5.911 -2.320 2.138,
            5.911 -2.320 -2.138,
            6.019 -2.022 2.138,
            6.019 -2.022 -2.138,
            6.113 -1.720 2.138,
            6.113 -1.720 -2.138,
            6.191 -1.413 2.138,
            6.191 -1.413 -2.138,
            6.254 -1.103 2.138,
            6.254 -1.103 -2.138,
            6.301 -0.790 -2.138,
            6.301 -0.790 2.138,
            6.332 -0.475 2.138,
            6.332 -0.475 -2.138,
            6.348 -0.158 -2.138,
            6.348 -0.158 2.138,
            6.348 0.158 2.138,
            6.348 0.158 -2.138,
            6.332 0.475 -2.138,
            6.332 0.475 2.138,
            6.301 0.790 2.138,
            6.301 0.790 -2.138,
            6.254 1.103 2.138,
            6.254 1.103 -2.138,
            6.191 1.413 2.138,
            6.191 1.413 -2.138,
            6.113 1.720 2.138,
            6.113 1.720 -2.138,
            6.019 2.022 2.138,
            6.019 2.022 -2.138,
            5.911 2.320 2.138,
            5.911 2.320 -2.138,
            5.788 2.612 2.138,
            5.788 2.612 -2.138,
            5.651 2.897 2.138,
            5.651 2.897 -2.138,
            5.499 3.175 -2.138,
            5.499 3.175 2.138,
            5.334 3.445 -2.138,
            5.334 3.445 2.138,
            5.156 3.707 2.138,
            5.156 3.707 -2.138,
            4.965 3.959 -2.138,
            4.965 3.959 2.138,
            4.761 4.202 -2.138,
            4.761 4.202 2.138,
            4.546 4.434 -2.138,
            4.546 4.434 2.138,
            4.319 4.655 2.138,
            4.319 4.655 -2.138,
            4.082 4.864 2.138,
            4.082 4.864 -2.138,
            3.834 5.062 -2.138,
            3.834 5.062 2.138,
            3.577 5.247 2.138,
            3.577 5.247 -2.138,
            3.311 5.418 -2.138,
            3.311 5.418 2.138,
            3.037 5.577 -2.138,
            3.037 5.577 2.138,
            2.755 5.721 2.138,
            2.755 5.721 -2.138,
            2.467 5.851 2.138,
            2.467 5.851 -2.138,
            2.172 5.967 -2.138,
            2.172 5.967 2.138,
            1.872 6.068 -2.138,
            1.872 6.068 2.138,
            1.567 6.154 2.138,
            1.567 6.154 -2.138,
            1.258 6.224 -2.138,
            1.258 6.224 2.138,
            0.946 6.279 2.138,
            0.946 6.279 -2.138,
            0.632 6.318 2.138,
            0.632 6.318 -2.138,
            0.317 6.342 -2.138,
            0.317 6.342 2.138,
            0.000 6.350 -2.138,
            0.000 6.350 2.138,
            0.000 4.239 1.923,
            -0.000 -4.239 1.923,
            3.180 4.759 2.065,
            3.180 1.588 1.871,
            0.000 0.000 1.750,
            0.000 2.121 1.793,
            3.180 -1.588 1.871,
            -0.000 -2.121 1.793,
            3.180 -4.759 2.065,
            -0.000 -4.239 -1.923,
            0.000 4.239 -1.923,
            3.180 -4.759 -2.065,
            3.180 -1.588 -1.871,
            -0.000 -2.121 -1.793,
            0.000 0.000 -1.750,
            0.000 2.121 -1.793,
            3.180 1.588 -1.871,
            3.180 4.759 -2.065,
            -1.567 -6.154 -2.138,
            -1.258 -6.224 -2.138,
            -0.946 -6.279 -2.138,
            -0.632 -6.318 -2.138,
            -0.317 -6.342 -2.138,
            -1.872 -6.068 -2.138,
            -2.172 -5.967 -2.138,
            -0.317 6.342 -2.138,
            -0.632 6.318 -2.138,
            -0.946 6.279 -2.138,
            -1.258 6.224 -2.138,
            -1.567 6.154 -2.138,
            -1.872 6.068 -2.138,
            -2.172 5.967 -2.138,
            -4.761 -4.202 -2.138,
            -3.180 -4.759 -2.065,
            -4.546 -4.434 -2.138,
            -4.319 -4.655 -2.138,
            -4.082 -4.864 -2.138,
            -3.834 -5.062 -2.138,
            -3.577 -5.247 -2.138,
            -3.311 -5.418 -2.138,
            -3.037 -5.577 -2.138,
            -2.755 -5.721 -2.138,
            -2.467 -5.851 -2.138,
            -6.348 0.158 -2.138,
            -3.180 -1.588 -1.871,
            -6.348 -0.158 -2.138,
            -6.332 -0.475 -2.138,
            -6.301 -0.790 -2.138,
            -6.254 -1.103 -2.138,
            -6.191 -1.413 -2.138,
            -6.113 -1.720 -2.138,
            -6.019 -2.022 -2.138,
            -5.911 -2.320 -2.138,
            -5.788 -2.612 -2.138,
            -5.651 -2.897 -2.138,
            -5.499 -3.175 -2.138,
            -5.334 -3.445 -2.138,
            -5.156 -3.707 -2.138,
            -4.965 -3.959 -2.138,
            -3.180 1.588 -1.871,
            -4.761 4.202 -2.138,
            -4.965 3.959 -2.138,
            -5.156 3.707 -2.138,
            -5.334 3.445 -2.138,
            -5.499 3.175 -2.138,
            -5.651 2.897 -2.138,
            -5.788 2.612 -2.138,
            -5.911 2.320 -2.138,
            -6.019 2.022 -2.138,
            -6.113 1.720 -2.138,
            -6.191 1.413 -2.138,
            -6.254 1.103 -2.138,
            -6.301 0.790 -2.138,
            -6.332 0.475 -2.138,
            -3.180 4.759 -2.065,
            -2.467 5.851 -2.138,
            -2.755 5.721 -2.138,
            -3.037 5.577 -2.138,
            -3.311 5.418 -2.138,
            -3.577 5.247 -2.138,
            -3.834 5.062 -2.138,
            -4.082 4.864 -2.138,
            -4.319 4.655 -2.138,
            -4.546 4.434 -2.138,
            -0.317 6.342 2.138,
            -0.632 6.318 2.138,
            -0.946 6.279 2.138,
            -1.258 6.224 2.138,
            -1.567 6.154 2.138,
            -1.872 6.068 2.138,
            -2.172 5.967 2.138,
            -0.317 -6.342 2.138,
            -0.632 -6.318 2.138,
            -0.946 -6.279 2.138,
            -1.258 -6.224 2.138,
            -1.567 -6.154 2.138,
            -1.872 -6.068 2.138,
            -2.172 -5.967 2.138,
            -2.467 5.851 2.138,
            -3.180 4.759 2.065,
            -2.755 5.721 2.138,
            -3.037 5.577 2.138,
            -3.311 5.418 2.138,
            -3.577 5.247 2.138,
            -3.834 5.062 2.138,
            -4.082 4.864 2.138,
            -4.319 4.655 2.138,
            -4.546 4.434 2.138,
            -4.761 4.202 2.138,
            -3.180 1.588 1.871,
            -4.965 3.959 2.138,
            -5.156 3.707 2.138,
            -5.334 3.445 2.138,
            -5.499 3.175 2.138,
            -5.651 2.897 2.138,
            -5.788 2.612 2.138,
            -5.911 2.320 2.138,
            -6.019 2.022 2.138,
            -6.113 1.720 2.138,
            -6.191 1.413 2.138,
            -6.254 1.103 2.138,
            -6.301 0.790 2.138,
            -6.332 0.475 2.138,
            -6.348 0.158 2.138,
            -3.180 -1.588 1.871,
            -6.348 -0.158 2.138,
            -6.332 -0.475 2.138,
            -6.301 -0.790 2.138,
            -6.254 -1.103 2.138,
            -6.191 -1.413 2.138,
            -6.113 -1.720 2.138,
            -6.019 -2.022 2.138,
            -5.911 -2.320 2.138,
            -5.788 -2.612 2.138,
            -5.651 -2.897 2.138,
            -5.499 -3.175 2.138,
            -5.334 -3.445 2.138,
            -5.156 -3.707 2.138,
            -4.965 -3.959 2.138,
            -4.761 -4.202 2.138,
            -4.546 -4.434 2.138,
            -3.180 -4.759 2.065,
            -4.319 -4.655 2.138,
            -4.082 -4.864 2.138,
            -3.834 -5.062 2.138,
            -3.577 -5.247 2.138,
            -3.311 -5.418 2.138,
            -3.037 -5.577 2.138,
            -2.755 -5.721 2.138,
            -2.467 -5.851 2.138
          ]
        }
        coordIndex [
          0, 1, 2, -1,
          0, 3, 1, -1,
          4, 2, 5, -1,
          4, 0, 2, -1,
          6, 5, 7, -1,
          6, 4, 5, -1,
          8, 7, 9, -1,
          8, 6, 7, -1,
          10, 9, 11, -1,
          10, 8, 9, -1,
          12, 11, 13, -1,
          12, 10, 11, -1,
          14, 13, 15, -1,
          14, 12, 13, -1,
          16, 15, 17, -1,
          16, 17, 18, -1,
          16, 14, 15, -1,
          19, 18, 20, -1,
          19, 16, 18, -1,
          21, 19, 20, -1,
          22, 20, 23, -1,
          22, 23, 24, -1,
          22, 21, 20, -1,
          25, 22, 24, -1,
          26, 24, 27, -1,
          26, 25, 24, -1,
          28, 27, 29, -1,
          28, 29, 30, -1,
          28, 26, 27, -1,
          31, 28, 30, -1,
          32, 30, 33, -1,
          32, 33, 34, -1,
          32, 31, 30, -1,
          35, 32, 34, -1,
          36, 35, 34, -1,
          36, 34, 37, -1,
          38, 36, 37, -1,
          38, 37, 39, -1,
          38, 39, 40, -1,
          41, 38, 40, -1,
          42, 41, 40, -1,
          42, 40, 43, -1,
          44, 42, 43, -1,
          44, 43, 45, -1,
          44, 45, 46, -1,
          47, 44, 46, -1,
          48, 47, 46, -1,
          48, 46, 49, -1,
          50, 49, 51, -1,
          50, 48, 49, -1,
          52, 51, 53, -1,
          52, 50, 51, -1,
          54, 53, 55, -1,
          54, 52, 53, -1,
          56, 55, 57, -1,
          56, 57, 58, -1,
          56, 54, 55, -1,
          59, 56, 58, -1,
          60, 58, 61, -1,
          60, 61, 62, -1,
          60, 59, 58, -1,
          63, 60, 62, -1,
          64, 62, 65, -1,
          64, 65, 66, -1,
          64, 63, 62, -1,
          67, 64, 66, -1,
          68, 66, 69, -1,
          68, 67, 66, -1,
          70, 69, 71, -1,
          70, 68, 69, -1,
          72, 71, 73, -1,
          72, 70, 71, -1,
          74, 73, 75, -1,
          74, 72, 73, -1,
          76, 75, 77, -1,
          76, 74, 75, -1,
          78, 77, 79, -1,
          78, 76, 77, -1,
          80, 79, 81, -1,
          80, 78, 79, -1,
          82, 81, 83, -1,
          82, 83, 84, -1,
          82, 80, 81, -1,
          85, 84, 86, -1,
          85, 82, 84, -1,
          87, 85, 86, -1,
          88, 87, 86, -1,
          88, 86, 89, -1,
          88, 89, 90, -1,
          91, 88, 90, -1,
          91, 90, 92, -1,
          93, 91, 92, -1,
          93, 92, 94, -1,
          95, 93, 94, -1,
          96, 95, 94, -1,
          96, 94, 97, -1,
          98, 96, 97, -1,
          98, 97, 99, -1,
          98, 99, 100, -1,
          101, 98, 100, -1,
          102, 101, 100, -1,
          102, 100, 103, -1,
          102, 103, 104, -1,
          105, 102, 104, -1,
          105, 104, 106, -1,
          107, 105, 106, -1,
          108, 107, 106, -1,
          108, 106, 109, -1,
          110, 108, 109, -1,
          110, 109, 111, -1,
          110, 111, 112, -1,
          113, 112, 114, -1,
          113, 110, 112, -1,
          115, 113, 114, -1,
          116, 115, 114, -1,
          116, 114, 117, -1,
          116, 117, 118, -1,
          119, 116, 118, -1,
          120, 118, 121, -1,
          120, 119, 118, -1,
          122, 121, 123, -1,
          122, 123, 124, -1,
          122, 120, 121, -1,
          125, 124, 126, -1,
          125, 122, 124, -1,
          127, 125, 126, -1,
          115, 128, 113, -1,
          116, 128, 115, -1,
          119, 128, 116, -1,
          120, 128, 119, -1,
          122, 128, 120, -1,
          125, 128, 122, -1,
          127, 128, 125, -1,
          14, 129, 12, -1,
          129, 10, 12, -1,
          129, 8, 10, -1,
          129, 6, 8, -1,
          129, 4, 6, -1,
          129, 0, 4, -1,
          129, 3, 0, -1,
          95, 130, 93, -1,
          96, 130, 95, -1,
          98, 130, 96, -1,
          101, 130, 98, -1,
          102, 130, 101, -1,
          105, 130, 102, -1,
          107, 130, 105, -1,
          108, 130, 107, -1,
          110, 130, 108, -1,
          113, 130, 110, -1,
          128, 130, 113, -1,
          67, 131, 64, -1,
          68, 131, 67, -1,
          70, 131, 68, -1,
          72, 131, 70, -1,
          74, 131, 72, -1,
          76, 131, 74, -1,
          78, 131, 76, -1,
          80, 131, 78, -1,
          82, 131, 80, -1,
          85, 131, 82, -1,
          87, 131, 85, -1,
          88, 131, 87, -1,
          91, 131, 88, -1,
          93, 131, 91, -1,
          132, 131, 133, -1,
          133, 131, 128, -1,
          128, 131, 130, -1,
          130, 131, 93, -1,
          36, 134, 35, -1,
          38, 134, 36, -1,
          41, 134, 38, -1,
          42, 134, 41, -1,
          44, 134, 42, -1,
          47, 134, 44, -1,
          48, 134, 47, -1,
          50, 134, 48, -1,
          52, 134, 50, -1,
          54, 134, 52, -1,
          56, 134, 54, -1,
          59, 134, 56, -1,
          60, 134, 59, -1,
          63, 134, 60, -1,
          64, 134, 63, -1,
          131, 134, 64, -1,
          135, 134, 132, -1,
          132, 134, 131, -1,
          16, 136, 14, -1,
          19, 136, 16, -1,
          21, 136, 19, -1,
          22, 136, 21, -1,
          25, 136, 22, -1,
          26, 136, 25, -1,
          28, 136, 26, -1,
          31, 136, 28, -1,
          32, 136, 31, -1,
          35, 136, 32, -1,
          135, 136, 134, -1,
          129, 136, 135, -1,
          14, 136, 129, -1,
          134, 136, 35, -1,
          1, 137, 2, -1,
          2, 137, 5, -1,
          5, 137, 7, -1,
          7, 137, 9, -1,
          9, 137, 11, -1,
          11, 137, 13, -1,
          13, 137, 15, -1,
          112, 138, 114, -1,
          138, 117, 114, -1,
          138, 118, 117, -1,
          138, 121, 118, -1,
          138, 123, 121, -1,
          138, 124, 123, -1,
          138, 126, 124, -1,
          15, 139, 17, -1,
          17, 139, 18, -1,
          18, 139, 20, -1,
          20, 139, 23, -1,
          23, 139, 24, -1,
          24, 139, 27, -1,
          27, 139, 29, -1,
          29, 139, 30, -1,
          30, 139, 33, -1,
          33, 139, 34, -1,
          137, 139, 15, -1,
          139, 140, 34, -1,
          141, 140, 137, -1,
          142, 140, 141, -1,
          34, 140, 37, -1,
          37, 140, 39, -1,
          39, 140, 40, -1,
          40, 140, 43, -1,
          43, 140, 45, -1,
          45, 140, 46, -1,
          46, 140, 49, -1,
          49, 140, 51, -1,
          51, 140, 53, -1,
          53, 140, 55, -1,
          55, 140, 57, -1,
          57, 140, 58, -1,
          58, 140, 61, -1,
          61, 140, 62, -1,
          137, 140, 139, -1,
          143, 144, 142, -1,
          140, 144, 62, -1,
          62, 144, 65, -1,
          65, 144, 66, -1,
          66, 144, 69, -1,
          69, 144, 71, -1,
          71, 144, 73, -1,
          73, 144, 75, -1,
          75, 144, 77, -1,
          77, 144, 79, -1,
          79, 144, 81, -1,
          81, 144, 83, -1,
          83, 144, 84, -1,
          84, 144, 86, -1,
          86, 144, 89, -1,
          89, 144, 90, -1,
          90, 144, 92, -1,
          142, 144, 140, -1,
          138, 145, 143, -1,
          144, 145, 92, -1,
          92, 145, 94, -1,
          94, 145, 97, -1,
          97, 145, 99, -1,
          99, 145, 100, -1,
          100, 145, 103, -1,
          103, 145, 104, -1,
          104, 145, 106, -1,
          106, 145, 109, -1,
          109, 145, 111, -1,
          111, 145, 112, -1,
          143, 145, 144, -1,
          112, 145, 138, -1,
          146, 137, 147, -1,
          147, 137, 148, -1,
          148, 137, 149, -1,
          149, 137, 150, -1,
          150, 137, 1, -1,
          146, 151, 137, -1,
          151, 152, 137, -1,
          138, 153, 126, -1,
          138, 154, 153, -1,
          138, 155, 154, -1,
          138, 156, 155, -1,
          138, 157, 156, -1,
          138, 158, 157, -1,
          138, 159, 158, -1,
          160, 161, 162, -1,
          162, 161, 163, -1,
          163, 161, 164, -1,
          164, 161, 165, -1,
          165, 161, 166, -1,
          166, 161, 167, -1,
          167, 161, 168, -1,
          168, 161, 169, -1,
          169, 161, 170, -1,
          170, 161, 152, -1,
          152, 161, 137, -1,
          171, 172, 173, -1,
          173, 172, 174, -1,
          174, 172, 175, -1,
          175, 172, 176, -1,
          176, 172, 177, -1,
          177, 172, 178, -1,
          178, 172, 179, -1,
          179, 172, 180, -1,
          180, 172, 181, -1,
          181, 172, 182, -1,
          182, 172, 183, -1,
          183, 172, 184, -1,
          184, 172, 185, -1,
          185, 172, 186, -1,
          186, 172, 160, -1,
          160, 172, 161, -1,
          137, 172, 141, -1,
          141, 172, 142, -1,
          161, 172, 137, -1,
          142, 187, 143, -1,
          172, 187, 142, -1,
          188, 187, 189, -1,
          189, 187, 190, -1,
          190, 187, 191, -1,
          191, 187, 192, -1,
          192, 187, 193, -1,
          193, 187, 194, -1,
          194, 187, 195, -1,
          195, 187, 196, -1,
          196, 187, 197, -1,
          197, 187, 198, -1,
          198, 187, 199, -1,
          199, 187, 200, -1,
          200, 187, 201, -1,
          201, 187, 171, -1,
          171, 187, 172, -1,
          143, 202, 138, -1,
          159, 202, 203, -1,
          203, 202, 204, -1,
          204, 202, 205, -1,
          205, 202, 206, -1,
          187, 202, 143, -1,
          206, 202, 207, -1,
          207, 202, 208, -1,
          208, 202, 209, -1,
          209, 202, 210, -1,
          210, 202, 211, -1,
          211, 202, 188, -1,
          138, 202, 159, -1,
          188, 202, 187, -1,
          212, 128, 127, -1,
          213, 128, 212, -1,
          214, 128, 213, -1,
          215, 128, 214, -1,
          216, 128, 215, -1,
          216, 217, 128, -1,
          217, 218, 128, -1,
          129, 219, 3, -1,
          129, 220, 219, -1,
          129, 221, 220, -1,
          129, 222, 221, -1,
          129, 223, 222, -1,
          129, 224, 223, -1,
          129, 225, 224, -1,
          226, 227, 218, -1,
          228, 227, 226, -1,
          229, 227, 228, -1,
          230, 227, 229, -1,
          231, 227, 230, -1,
          232, 227, 231, -1,
          233, 227, 232, -1,
          234, 227, 233, -1,
          235, 227, 234, -1,
          236, 227, 235, -1,
          218, 227, 128, -1,
          236, 237, 227, -1,
          227, 237, 128, -1,
          238, 237, 236, -1,
          239, 237, 238, -1,
          240, 237, 239, -1,
          241, 237, 240, -1,
          242, 237, 241, -1,
          243, 237, 242, -1,
          244, 237, 243, -1,
          245, 237, 244, -1,
          246, 237, 245, -1,
          247, 237, 246, -1,
          248, 237, 247, -1,
          249, 237, 248, -1,
          250, 237, 249, -1,
          251, 237, 250, -1,
          133, 237, 132, -1,
          128, 237, 133, -1,
          237, 252, 132, -1,
          253, 252, 251, -1,
          254, 252, 253, -1,
          255, 252, 254, -1,
          256, 252, 255, -1,
          257, 252, 256, -1,
          258, 252, 257, -1,
          259, 252, 258, -1,
          260, 252, 259, -1,
          261, 252, 260, -1,
          262, 252, 261, -1,
          263, 252, 262, -1,
          264, 252, 263, -1,
          265, 252, 264, -1,
          266, 252, 265, -1,
          267, 252, 266, -1,
          251, 252, 237, -1,
          132, 252, 135, -1,
          268, 269, 267, -1,
          270, 269, 268, -1,
          271, 269, 270, -1,
          272, 269, 271, -1,
          273, 269, 272, -1,
          274, 269, 273, -1,
          275, 269, 274, -1,
          276, 269, 275, -1,
          277, 269, 276, -1,
          225, 269, 277, -1,
          135, 269, 129, -1,
          252, 269, 135, -1,
          129, 269, 225, -1,
          267, 269, 252, -1,
          212, 127, 126, -1,
          212, 126, 153, -1,
          212, 153, 154, -1,
          213, 212, 154, -1,
          214, 154, 155, -1,
          214, 155, 156, -1,
          214, 213, 154, -1,
          215, 214, 156, -1,
          216, 156, 157, -1,
          216, 157, 158, -1,
          216, 215, 156, -1,
          217, 216, 158, -1,
          218, 158, 159, -1,
          218, 159, 203, -1,
          218, 217, 158, -1,
          226, 218, 203, -1,
          228, 203, 204, -1,
          228, 226, 203, -1,
          229, 204, 205, -1,
          229, 205, 206, -1,
          229, 228, 204, -1,
          230, 206, 207, -1,
          230, 229, 206, -1,
          231, 230, 207, -1,
          232, 207, 208, -1,
          232, 208, 209, -1,
          232, 231, 207, -1,
          233, 232, 209, -1,
          234, 209, 210, -1,
          234, 233, 209, -1,
          235, 210, 211, -1,
          235, 234, 210, -1,
          236, 211, 188, -1,
          236, 188, 189, -1,
          236, 235, 211, -1,
          238, 236, 189, -1,
          239, 238, 189, -1,
          239, 189, 190, -1,
          240, 239, 190, -1,
          240, 190, 191, -1,
          241, 240, 191, -1,
          241, 191, 192, -1,
          242, 241, 192, -1,
          242, 192, 193, -1,
          243, 193, 194, -1,
          243, 242, 193, -1,
          243, 194, 195, -1,
          244, 243, 195, -1,
          245, 195, 196, -1,
          245, 244, 195, -1,
          246, 196, 197, -1,
          246, 245, 196, -1,
          247, 197, 198, -1,
          247, 198, 199, -1,
          247, 246, 197, -1,
          248, 199, 200, -1,
          248, 247, 199, -1,
          249, 248, 200, -1,
          250, 200, 201, -1,
          250, 201, 171, -1,
          250, 249, 200, -1,
          251, 250, 171, -1,
          253, 171, 173, -1,
          253, 251, 171, -1,
          254, 173, 174, -1,
          254, 253, 173, -1,
          255, 174, 175, -1,
          255, 254, 174, -1,
          256, 175, 176, -1,
          256, 176, 177, -1,
          256, 255, 175, -1,
          257, 256, 177, -1,
          258, 177, 178, -1,
          258, 178, 179, -1,
          258, 257, 177, -1,
          259, 258, 179, -1,
          260, 179, 180, -1,
          260, 259, 179, -1,
          261, 180, 181, -1,
          261, 181, 182, -1,
          261, 260, 180, -1,
          262, 261, 182, -1,
          263, 182, 183, -1,
          263, 262, 182, -1,
          264, 263, 183, -1,
          264, 183, 184, -1,
          265, 264, 184, -1,
          265, 184, 185, -1,
          266, 265, 185, -1,
          266, 185, 186, -1,
          266, 186, 160, -1,
          267, 266, 160, -1,
          268, 267, 160, -1,
          268, 160, 162, -1,
          268, 162, 163, -1,
          270, 268, 163, -1,
          271, 270, 163, -1,
          271, 163, 164, -1,
          271, 164, 165, -1,
          272, 271, 165, -1,
          273, 272, 165, -1,
          273, 165, 166, -1,
          273, 166, 167, -1,
          274, 273, 167, -1,
          274, 167, 168, -1,
          275, 274, 168, -1,
          276, 275, 168, -1,
          276, 168, 169, -1,
          276, 169, 170, -1,
          277, 276, 170, -1,
          277, 170, 152, -1,
          225, 277, 152, -1,
          224, 152, 151, -1,
          224, 151, 146, -1,
          224, 225, 152, -1,
          223, 224, 146, -1,
          222, 146, 147, -1,
          222, 223, 146, -1,
          221, 147, 148, -1,
          221, 222, 147, -1,
          220, 148, 149, -1,
          220, 221, 148, -1,
          219, 149, 150, -1,
          219, 220, 149, -1,
          3, 150, 1, -1,
          3, 219, 150, -1
        ]
      }
    }
}
