{"asset":{"version":"2.0","generator":"microscope_builder_4 scripts/catalog/dedupe-mounted-lens-housings.mjs"},"scene":0,"scenes":[{"nodes":[0]}],"nodes":[{"mesh":0}],"meshes":[{"primitives":[{"attributes":{"POSITION":1,"NORMAL":2},"indices":0,"mode":4},{"attributes":{"POSITION":4,"NORMAL":5},"indices":3,"mode":4},{"attributes":{"POSITION":7,"NORMAL":8},"indices":6,"mode":4}]}],"buffers":[{"uri":"../shared/lens-components/a2/a2f577a7ad120fd564ac8677ba9aaf8e7ba0a95f63b82e9d0984cb60f7efe0bc.bin","byteLength":3504},{"uri":"ld1464-ml.bin","byteLength":90432}],"bufferViews":[{"buffer":0,"byteOffset":0,"byteLength":1152,"target":34963},{"buffer":0,"byteOffset":1152,"byteLength":1176,"target":34962},{"buffer":0,"byteOffset":2328,"byteLength":1176,"target":34962},{"buffer":1,"byteOffset":0,"byteLength":26208,"target":34963},{"buffer":1,"byteOffset":26208,"byteLength":26208,"target":34962},{"buffer":1,"byteOffset":52416,"byteLength":26208,"target":34962},{"buffer":1,"byteOffset":78624,"byteLength":3936,"target":34963},{"buffer":1,"byteOffset":82560,"byteLength":3936,"target":34962},{"buffer":1,"byteOffset":86496,"byteLength":3936,"target":34962}],"accessors":[{"bufferView":0,"componentType":5123,"count":576,"type":"SCALAR"},{"bufferView":1,"componentType":5126,"count":98,"type":"VEC3","min":[-3.937000036239624,-12.699999809265137,-12.699999809265137],"max":[2.2119998931884766,12.699999809265137,12.699999809265137]},{"bufferView":2,"componentType":5126,"count":98,"type":"VEC3"},{"bufferView":3,"componentType":5123,"count":13104,"type":"SCALAR"},{"bufferView":4,"componentType":5126,"count":2184,"type":"VEC3","min":[-7.747000217437744,-15.239999771118164,-15.239999771118164],"max":[7.747000217437744,15.239999771118164,15.239999771118164]},{"bufferView":5,"componentType":5126,"count":2184,"type":"VEC3"},{"bufferView":6,"componentType":5123,"count":1968,"type":"SCALAR"},{"bufferView":7,"componentType":5126,"count":328,"type":"VEC3","min":[2.2119998931884766,-13.144000053405762,-13.144000053405762],"max":[4.24399995803833,13.144000053405762,13.144000053405762]},{"bufferView":8,"componentType":5126,"count":328,"type":"VEC3"}]}
