#VRML V2.0 utf8
WorldInfo {
  title "Exported triangle mesh to VRML97"
  info ["Created by FreeCAD"
        "<https://www.freecad.org>"]
}

Transform {
  scale 1 1 1
  rotation 0 0 1 0
  scaleOrientation 0 0 1 0
  center 0.000 0.000 0.000
  translation 0.000 0.000 0.000
  children
    Shape { 
      appearance
      Appearance {
        material
        Material {
          diffuseColor 0.8 0.8 0.8
        }
      }
      geometry
      IndexedFaceSet {
        coord
        Coordinate {
          point [
            4.495 0.221 1.720,
            4.500 -0.000 1.720,
            4.500 -0.000 -1.720,
            4.495 0.221 -1.720,
            4.478 0.441 1.720,
            4.478 0.441 -1.720,
            4.451 0.660 1.720,
            4.451 0.660 -1.720,
            4.414 0.878 1.720,
            4.414 0.878 -1.720,
            4.365 1.093 1.720,
            4.365 1.093 -1.720,
            4.306 1.306 1.720,
            4.306 1.306 -1.720,
            4.237 1.516 1.720,
            4.237 1.516 -1.720,
            4.157 1.722 1.720,
            4.157 1.722 -1.720,
            4.068 1.924 1.720,
            4.068 1.924 -1.720,
            3.969 2.121 1.720,
            3.969 2.121 -1.720,
            3.860 2.313 -1.720,
            3.860 2.313 1.720,
            3.742 2.500 1.720,
            3.742 2.500 -1.720,
            3.614 2.681 1.720,
            3.614 2.681 -1.720,
            3.479 2.855 -1.720,
            3.479 2.855 1.720,
            3.334 3.022 -1.720,
            3.334 3.022 1.720,
            3.182 3.182 1.720,
            3.182 3.182 -1.720,
            3.022 3.334 -1.720,
            3.022 3.334 1.720,
            2.855 3.479 -1.720,
            2.855 3.479 1.720,
            2.681 3.614 -1.720,
            2.681 3.614 1.720,
            2.500 3.742 -1.720,
            2.500 3.742 1.720,
            2.313 3.860 1.720,
            2.313 3.860 -1.720,
            2.121 3.969 1.720,
            2.121 3.969 -1.720,
            1.924 4.068 1.720,
            1.924 4.068 -1.720,
            1.722 4.157 1.720,
            1.722 4.157 -1.720,
            1.516 4.237 -1.720,
            1.516 4.237 1.720,
            1.306 4.306 1.720,
            1.306 4.306 -1.720,
            1.093 4.365 1.720,
            1.093 4.365 -1.720,
            0.878 4.414 1.720,
            0.878 4.414 -1.720,
            0.660 4.451 1.720,
            0.660 4.451 -1.720,
            0.441 4.478 1.720,
            0.441 4.478 -1.720,
            0.221 4.495 1.720,
            0.221 4.495 -1.720,
            0.000 4.500 -1.720,
            0.000 4.500 1.720,
            -0.221 4.495 1.720,
            -0.221 4.495 -1.720,
            -0.441 4.478 1.720,
            -0.441 4.478 -1.720,
            -0.660 4.451 -1.720,
            -0.660 4.451 1.720,
            -0.878 4.414 1.720,
            -0.878 4.414 -1.720,
            -1.093 4.365 1.720,
            -1.093 4.365 -1.720,
            -1.306 4.306 1.720,
            -1.306 4.306 -1.720,
            -1.516 4.237 1.720,
            -1.516 4.237 -1.720,
            -1.722 4.157 1.720,
            -1.722 4.157 -1.720,
            -1.924 4.068 1.720,
            -1.924 4.068 -1.720,
            -2.121 3.969 1.720,
            -2.121 3.969 -1.720,
            -2.313 3.860 1.720,
            -2.313 3.860 -1.720,
            -2.500 3.742 -1.720,
            -2.500 3.742 1.720,
            -2.681 3.614 1.720,
            -2.681 3.614 -1.720,
            -2.855 3.479 -1.720,
            -2.855 3.479 1.720,
            -3.022 3.334 -1.720,
            -3.022 3.334 1.720,
            -3.182 3.182 1.720,
            -3.182 3.182 -1.720,
            -3.334 3.022 1.720,
            -3.334 3.022 -1.720,
            -3.479 2.855 -1.720,
            -3.479 2.855 1.720,
            -3.614 2.681 1.720,
            -3.614 2.681 -1.720,
            -3.742 2.500 -1.720,
            -3.742 2.500 1.720,
            -3.860 2.313 1.720,
            -3.860 2.313 -1.720,
            -3.969 2.121 -1.720,
            -3.969 2.121 1.720,
            -4.068 1.924 1.720,
            -4.068 1.924 -1.720,
            -4.157 1.722 -1.720,
            -4.157 1.722 1.720,
            -4.237 1.516 1.720,
            -4.237 1.516 -1.720,
            -4.306 1.306 1.720,
            -4.306 1.306 -1.720,
            -4.365 1.093 1.720,
            -4.365 1.093 -1.720,
            -4.414 0.878 1.720,
            -4.414 0.878 -1.720,
            -4.451 0.660 1.720,
            -4.451 0.660 -1.720,
            -4.478 0.441 1.720,
            -4.478 0.441 -1.720,
            -4.495 0.221 -1.720,
            -4.495 0.221 1.720,
            -4.500 -0.000 1.720,
            -4.500 -0.000 -1.720,
            0.000 3.874 1.530,
            -0.000 -3.874 1.530,
            0.441 -4.478 1.720,
            0.660 -4.451 1.720,
            0.221 -4.495 1.720,
            -0.000 -4.500 1.720,
            3.622 2.206 1.637,
            1.826 4.030 1.695,
            2.729 2.680 1.516,
            3.622 1.327 1.525,
            1.826 3.152 1.467,
            2.729 1.793 1.374,
            0.915 3.615 1.490,
            0.000 3.241 1.369,
            3.622 0.443 1.469,
            1.826 2.260 1.296,
            2.729 0.898 1.289,
            0.915 2.724 1.289,
            0.000 2.601 1.236,
            4.451 -0.660 1.720,
            3.622 -0.443 1.469,
            4.414 -0.878 1.720,
            4.478 -0.441 1.720,
            4.495 -0.221 1.720,
            1.826 1.360 1.181,
            2.729 0.000 1.260,
            0.915 1.822 1.145,
            0.000 1.306 1.059,
            0.000 1.955 1.133,
            4.157 -1.722 1.720,
            3.622 -1.327 1.525,
            4.068 -1.924 1.720,
            4.237 -1.516 1.720,
            4.306 -1.306 1.720,
            4.365 -1.093 1.720,
            1.826 0.454 1.123,
            2.729 -0.898 1.289,
            0.915 0.913 1.058,
            0.000 0.654 1.015,
            3.742 -2.500 1.720,
            3.622 -2.206 1.637,
            3.614 -2.681 1.720,
            3.860 -2.313 1.720,
            3.969 -2.121 1.720,
            1.826 -0.454 1.123,
            2.729 -1.793 1.374,
            0.915 0.000 1.029,
            -0.000 -0.654 1.015,
            0.000 -0.000 1.000,
            1.826 -1.360 1.181,
            2.855 -3.479 1.720,
            2.729 -2.680 1.516,
            2.681 -3.614 1.720,
            3.022 -3.334 1.720,
            3.182 -3.182 1.720,
            3.334 -3.022 1.720,
            3.479 -2.855 1.720,
            0.915 -0.913 1.058,
            -0.000 -1.306 1.059,
            1.826 -2.260 1.296,
            0.915 -1.822 1.145,
            -0.000 -1.955 1.133,
            -0.000 -2.601 1.236,
            1.826 -3.152 1.467,
            2.313 -3.860 1.720,
            2.121 -3.969 1.720,
            2.500 -3.742 1.720,
            0.915 -2.724 1.289,
            -0.000 -3.241 1.369,
            1.826 -4.030 1.695,
            1.722 -4.157 1.720,
            1.516 -4.237 1.720,
            1.924 -4.068 1.720,
            0.915 -3.615 1.490,
            0.878 -4.414 1.720,
            1.093 -4.365 1.720,
            1.306 -4.306 1.720,
            0.000 3.874 -1.530,
            0.000 -3.874 -1.530,
            -0.441 -4.478 -1.720,
            -0.660 -4.451 -1.720,
            -0.221 -4.495 -1.720,
            0.000 -4.500 -1.720,
            -3.622 2.206 -1.637,
            -1.826 4.030 -1.695,
            -2.729 2.680 -1.516,
            -3.622 1.327 -1.525,
            -1.826 3.152 -1.467,
            -2.729 1.793 -1.374,
            -0.915 3.615 -1.490,
            0.000 3.241 -1.369,
            -3.622 0.443 -1.469,
            -1.826 2.260 -1.296,
            -2.729 0.898 -1.289,
            -0.915 2.724 -1.289,
            0.000 2.601 -1.236,
            -3.622 -0.443 -1.469,
            -4.495 -0.221 -1.720,
            -4.478 -0.441 -1.720,
            -4.451 -0.660 -1.720,
            -4.414 -0.878 -1.720,
            -1.826 1.360 -1.181,
            -2.729 0.000 -1.260,
            -0.915 1.822 -1.145,
            0.000 1.955 -1.133,
            0.000 1.306 -1.059,
            -3.622 -1.327 -1.525,
            -4.365 -1.093 -1.720,
            -4.306 -1.306 -1.720,
            -4.237 -1.516 -1.720,
            -4.157 -1.722 -1.720,
            -4.068 -1.924 -1.720,
            -1.826 0.454 -1.123,
            -2.729 -0.898 -1.289,
            0.000 0.654 -1.015,
            -0.915 0.913 -1.058,
            -3.622 -2.206 -1.637,
            -3.969 -2.121 -1.720,
            -3.860 -2.313 -1.720,
            -3.742 -2.500 -1.720,
            -3.614 -2.681 -1.720,
            -1.826 -0.454 -1.123,
            -2.729 -1.793 -1.374,
            -0.915 0.000 -1.029,
            0.000 -0.654 -1.015,
            0.000 0.000 -1.000,
            -1.826 -1.360 -1.181,
            -2.729 -2.680 -1.516,
            -3.479 -2.855 -1.720,
            -3.334 -3.022 -1.720,
            -3.182 -3.182 -1.720,
            -3.022 -3.334 -1.720,
            -2.855 -3.479 -1.720,
            -2.681 -3.614 -1.720,
            0.000 -1.306 -1.059,
            -0.915 -0.913 -1.058,
            -1.826 -2.260 -1.296,
            -0.915 -1.822 -1.145,
            0.000 -2.601 -1.236,
            0.000 -1.955 -1.133,
            -1.826 -3.152 -1.467,
            -2.500 -3.742 -1.720,
            -2.313 -3.860 -1.720,
            -2.121 -3.969 -1.720,
            -0.915 -2.724 -1.289,
            0.000 -3.241 -1.369,
            -1.826 -4.030 -1.695,
            -1.924 -4.068 -1.720,
            -1.722 -4.157 -1.720,
            -1.516 -4.237 -1.720,
            -0.915 -3.615 -1.490,
            -1.306 -4.306 -1.720,
            -1.093 -4.365 -1.720,
            -0.878 -4.414 -1.720,
            0.221 -4.495 -1.720,
            0.441 -4.478 -1.720,
            0.915 4.055 -1.612,
            0.915 3.171 -1.382,
            1.826 3.593 -1.574,
            0.915 2.274 -1.210,
            1.826 2.707 -1.374,
            0.915 1.368 -1.094,
            2.729 3.120 -1.608,
            1.826 1.811 -1.231,
            0.915 0.457 -1.036,
            2.729 2.237 -1.438,
            1.826 0.907 -1.145,
            0.915 -0.457 -1.036,
            2.729 1.346 -1.325,
            1.826 0.000 -1.116,
            3.622 1.767 -1.574,
            0.915 -1.368 -1.094,
            2.729 0.449 -1.268,
            1.826 -0.907 -1.145,
            3.622 0.885 -1.490,
            0.915 -2.274 -1.210,
            2.729 -0.449 -1.268,
            1.826 -1.811 -1.231,
            4.478 -0.441 -1.720,
            3.622 0.000 -1.462,
            4.495 -0.221 -1.720,
            0.915 -3.171 -1.382,
            2.729 -1.346 -1.325,
            1.826 -2.707 -1.374,
            3.622 -0.885 -1.490,
            4.237 -1.516 -1.720,
            4.306 -1.306 -1.720,
            4.365 -1.093 -1.720,
            4.414 -0.878 -1.720,
            4.451 -0.660 -1.720,
            0.915 -4.055 -1.612,
            0.660 -4.451 -1.720,
            0.878 -4.414 -1.720,
            1.093 -4.365 -1.720,
            1.306 -4.306 -1.720,
            1.516 -4.237 -1.720,
            2.729 -2.237 -1.438,
            3.334 -3.022 -1.720,
            3.479 -2.855 -1.720,
            3.614 -2.681 -1.720,
            3.742 -2.500 -1.720,
            1.826 -3.593 -1.574,
            1.722 -4.157 -1.720,
            1.924 -4.068 -1.720,
            2.121 -3.969 -1.720,
            2.313 -3.860 -1.720,
            2.500 -3.742 -1.720,
            3.622 -1.767 -1.574,
            3.860 -2.313 -1.720,
            3.969 -2.121 -1.720,
            4.068 -1.924 -1.720,
            4.157 -1.722 -1.720,
            2.729 -3.120 -1.608,
            2.681 -3.614 -1.720,
            2.855 -3.479 -1.720,
            3.022 -3.334 -1.720,
            3.182 -3.182 -1.720,
            -0.221 -4.495 1.720,
            -0.441 -4.478 1.720,
            -0.915 4.055 1.612,
            -0.915 3.171 1.382,
            -1.826 3.593 1.574,
            -0.915 2.274 1.210,
            -1.826 2.707 1.374,
            -0.915 1.368 1.094,
            -2.729 3.120 1.608,
            -1.826 1.811 1.231,
            -0.915 0.457 1.036,
            -2.729 2.237 1.438,
            -1.826 0.907 1.145,
            -0.915 -0.457 1.036,
            -2.729 1.346 1.325,
            -1.826 0.000 1.116,
            -3.622 1.767 1.574,
            -0.915 -1.368 1.094,
            -2.729 0.449 1.268,
            -1.826 -0.907 1.145,
            -3.622 0.885 1.490,
            -0.915 -2.274 1.210,
            -2.729 -0.449 1.268,
            -1.826 -1.811 1.231,
            -4.495 -0.221 1.720,
            -3.622 0.000 1.462,
            -4.478 -0.441 1.720,
            -0.915 -3.171 1.382,
            -2.729 -1.346 1.325,
            -1.826 -2.707 1.374,
            -3.622 -0.885 1.490,
            -4.451 -0.660 1.720,
            -4.414 -0.878 1.720,
            -4.365 -1.093 1.720,
            -4.306 -1.306 1.720,
            -4.237 -1.516 1.720,
            -1.306 -4.306 1.720,
            -0.915 -4.055 1.612,
            -1.516 -4.237 1.720,
            -1.093 -4.365 1.720,
            -0.878 -4.414 1.720,
            -0.660 -4.451 1.720,
            -2.729 -2.237 1.438,
            -3.614 -2.681 1.720,
            -3.742 -2.500 1.720,
            -3.479 -2.855 1.720,
            -3.334 -3.022 1.720,
            -1.826 -3.593 1.574,
            -2.313 -3.860 1.720,
            -2.500 -3.742 1.720,
            -2.121 -3.969 1.720,
            -1.924 -4.068 1.720,
            -1.722 -4.157 1.720,
            -3.622 -1.767 1.574,
            -4.157 -1.722 1.720,
            -4.068 -1.924 1.720,
            -3.969 -2.121 1.720,
            -3.860 -2.313 1.720,
            -3.182 -3.182 1.720,
            -2.729 -3.120 1.608,
            -3.022 -3.334 1.720,
            -2.855 -3.479 1.720,
            -2.681 -3.614 1.720
          ]
        }
        coordIndex [
          0, 1, 2, -1,
          0, 2, 3, -1,
          4, 0, 3, -1,
          4, 3, 5, -1,
          6, 5, 7, -1,
          6, 4, 5, -1,
          8, 7, 9, -1,
          8, 6, 7, -1,
          10, 9, 11, -1,
          10, 8, 9, -1,
          12, 11, 13, -1,
          12, 10, 11, -1,
          14, 13, 15, -1,
          14, 12, 13, -1,
          16, 15, 17, -1,
          16, 14, 15, -1,
          18, 17, 19, -1,
          18, 16, 17, -1,
          20, 19, 21, -1,
          20, 21, 22, -1,
          20, 18, 19, -1,
          23, 20, 22, -1,
          24, 22, 25, -1,
          24, 23, 22, -1,
          26, 25, 27, -1,
          26, 27, 28, -1,
          26, 24, 25, -1,
          29, 28, 30, -1,
          29, 26, 28, -1,
          31, 29, 30, -1,
          32, 30, 33, -1,
          32, 33, 34, -1,
          32, 31, 30, -1,
          35, 32, 34, -1,
          35, 34, 36, -1,
          37, 35, 36, -1,
          37, 36, 38, -1,
          39, 37, 38, -1,
          39, 38, 40, -1,
          41, 39, 40, -1,
          42, 40, 43, -1,
          42, 41, 40, -1,
          44, 43, 45, -1,
          44, 42, 43, -1,
          46, 45, 47, -1,
          46, 44, 45, -1,
          48, 47, 49, -1,
          48, 49, 50, -1,
          48, 46, 47, -1,
          51, 48, 50, -1,
          52, 50, 53, -1,
          52, 51, 50, -1,
          54, 53, 55, -1,
          54, 52, 53, -1,
          56, 55, 57, -1,
          56, 54, 55, -1,
          58, 57, 59, -1,
          58, 56, 57, -1,
          60, 59, 61, -1,
          60, 58, 59, -1,
          62, 61, 63, -1,
          62, 63, 64, -1,
          62, 60, 61, -1,
          65, 62, 64, -1,
          66, 64, 67, -1,
          66, 65, 64, -1,
          68, 67, 69, -1,
          68, 69, 70, -1,
          68, 66, 67, -1,
          71, 68, 70, -1,
          72, 70, 73, -1,
          72, 71, 70, -1,
          74, 73, 75, -1,
          74, 72, 73, -1,
          76, 75, 77, -1,
          76, 74, 75, -1,
          78, 77, 79, -1,
          78, 76, 77, -1,
          80, 79, 81, -1,
          80, 78, 79, -1,
          82, 81, 83, -1,
          82, 80, 81, -1,
          84, 82, 83, -1,
          84, 83, 85, -1,
          86, 84, 85, -1,
          86, 85, 87, -1,
          86, 87, 88, -1,
          89, 86, 88, -1,
          90, 88, 91, -1,
          90, 89, 88, -1,
          90, 91, 92, -1,
          93, 92, 94, -1,
          93, 90, 92, -1,
          95, 93, 94, -1,
          96, 94, 97, -1,
          96, 95, 94, -1,
          98, 97, 99, -1,
          98, 99, 100, -1,
          98, 96, 97, -1,
          101, 98, 100, -1,
          102, 100, 103, -1,
          102, 103, 104, -1,
          102, 101, 100, -1,
          105, 102, 104, -1,
          106, 104, 107, -1,
          106, 107, 108, -1,
          106, 105, 104, -1,
          109, 106, 108, -1,
          110, 108, 111, -1,
          110, 111, 112, -1,
          110, 109, 108, -1,
          113, 110, 112, -1,
          114, 112, 115, -1,
          114, 113, 112, -1,
          116, 115, 117, -1,
          116, 114, 115, -1,
          118, 117, 119, -1,
          118, 116, 117, -1,
          120, 119, 121, -1,
          120, 118, 119, -1,
          122, 121, 123, -1,
          122, 120, 121, -1,
          124, 123, 125, -1,
          124, 125, 126, -1,
          124, 122, 123, -1,
          127, 124, 126, -1,
          128, 126, 129, -1,
          128, 127, 126, -1,
          60, 130, 58, -1,
          62, 130, 60, -1,
          65, 130, 62, -1,
          131, 132, 133, -1,
          131, 134, 132, -1,
          131, 135, 134, -1,
          20, 136, 18, -1,
          23, 136, 20, -1,
          24, 136, 23, -1,
          26, 136, 24, -1,
          46, 137, 44, -1,
          48, 137, 46, -1,
          51, 137, 48, -1,
          26, 138, 136, -1,
          29, 138, 26, -1,
          31, 138, 29, -1,
          32, 138, 31, -1,
          35, 138, 32, -1,
          37, 138, 35, -1,
          39, 138, 37, -1,
          10, 139, 8, -1,
          12, 139, 10, -1,
          14, 139, 12, -1,
          16, 139, 14, -1,
          18, 139, 16, -1,
          136, 139, 18, -1,
          137, 140, 44, -1,
          41, 140, 39, -1,
          42, 140, 41, -1,
          44, 140, 42, -1,
          39, 140, 138, -1,
          138, 141, 136, -1,
          136, 141, 139, -1,
          51, 142, 137, -1,
          52, 142, 51, -1,
          54, 142, 52, -1,
          56, 142, 54, -1,
          58, 142, 56, -1,
          137, 142, 140, -1,
          143, 142, 130, -1,
          130, 142, 58, -1,
          0, 144, 1, -1,
          4, 144, 0, -1,
          6, 144, 4, -1,
          8, 144, 6, -1,
          139, 144, 8, -1,
          140, 145, 138, -1,
          138, 145, 141, -1,
          141, 146, 139, -1,
          139, 146, 144, -1,
          143, 147, 142, -1,
          140, 147, 145, -1,
          148, 147, 143, -1,
          142, 147, 140, -1,
          149, 150, 151, -1,
          152, 150, 149, -1,
          153, 150, 152, -1,
          1, 150, 153, -1,
          144, 150, 1, -1,
          145, 154, 141, -1,
          141, 154, 146, -1,
          146, 155, 144, -1,
          144, 155, 150, -1,
          147, 156, 145, -1,
          148, 156, 147, -1,
          145, 156, 154, -1,
          157, 156, 158, -1,
          158, 156, 148, -1,
          159, 160, 161, -1,
          162, 160, 159, -1,
          163, 160, 162, -1,
          164, 160, 163, -1,
          151, 160, 164, -1,
          150, 160, 151, -1,
          154, 165, 146, -1,
          146, 165, 155, -1,
          155, 166, 150, -1,
          150, 166, 160, -1,
          154, 167, 165, -1,
          156, 167, 154, -1,
          157, 167, 156, -1,
          168, 167, 157, -1,
          169, 170, 171, -1,
          172, 170, 169, -1,
          173, 170, 172, -1,
          161, 170, 173, -1,
          160, 170, 161, -1,
          165, 174, 155, -1,
          155, 174, 166, -1,
          160, 175, 170, -1,
          166, 175, 160, -1,
          167, 176, 165, -1,
          177, 176, 178, -1,
          178, 176, 168, -1,
          165, 176, 174, -1,
          168, 176, 167, -1,
          174, 179, 166, -1,
          166, 179, 175, -1,
          180, 181, 182, -1,
          183, 181, 180, -1,
          184, 181, 183, -1,
          185, 181, 184, -1,
          186, 181, 185, -1,
          171, 181, 186, -1,
          170, 181, 171, -1,
          175, 181, 170, -1,
          174, 187, 179, -1,
          177, 187, 176, -1,
          188, 187, 177, -1,
          176, 187, 174, -1,
          175, 189, 181, -1,
          179, 189, 175, -1,
          188, 190, 187, -1,
          179, 190, 189, -1,
          191, 190, 188, -1,
          192, 190, 191, -1,
          187, 190, 179, -1,
          181, 193, 182, -1,
          189, 193, 181, -1,
          194, 193, 195, -1,
          196, 193, 194, -1,
          182, 193, 196, -1,
          189, 197, 193, -1,
          192, 197, 190, -1,
          198, 197, 192, -1,
          190, 197, 189, -1,
          193, 199, 195, -1,
          200, 199, 201, -1,
          202, 199, 200, -1,
          195, 199, 202, -1,
          133, 203, 131, -1,
          204, 203, 133, -1,
          205, 203, 204, -1,
          197, 203, 193, -1,
          206, 203, 205, -1,
          201, 203, 206, -1,
          198, 203, 197, -1,
          199, 203, 201, -1,
          131, 203, 198, -1,
          193, 203, 199, -1,
          64, 207, 67, -1,
          67, 207, 69, -1,
          69, 207, 70, -1,
          208, 209, 210, -1,
          208, 211, 209, -1,
          208, 212, 211, -1,
          103, 213, 104, -1,
          104, 213, 107, -1,
          107, 213, 108, -1,
          108, 213, 111, -1,
          79, 214, 81, -1,
          81, 214, 83, -1,
          83, 214, 85, -1,
          91, 215, 92, -1,
          92, 215, 94, -1,
          94, 215, 97, -1,
          97, 215, 99, -1,
          99, 215, 100, -1,
          100, 215, 103, -1,
          103, 215, 213, -1,
          111, 216, 112, -1,
          112, 216, 115, -1,
          115, 216, 117, -1,
          117, 216, 119, -1,
          119, 216, 121, -1,
          213, 216, 111, -1,
          91, 217, 215, -1,
          214, 217, 85, -1,
          85, 217, 87, -1,
          87, 217, 88, -1,
          88, 217, 91, -1,
          215, 218, 213, -1,
          213, 218, 216, -1,
          79, 219, 214, -1,
          220, 219, 207, -1,
          70, 219, 73, -1,
          207, 219, 70, -1,
          73, 219, 75, -1,
          75, 219, 77, -1,
          77, 219, 79, -1,
          214, 219, 217, -1,
          121, 221, 123, -1,
          123, 221, 125, -1,
          125, 221, 126, -1,
          126, 221, 129, -1,
          216, 221, 121, -1,
          215, 222, 218, -1,
          217, 222, 215, -1,
          218, 223, 216, -1,
          216, 223, 221, -1,
          220, 224, 219, -1,
          219, 224, 217, -1,
          217, 224, 222, -1,
          225, 224, 220, -1,
          129, 226, 227, -1,
          227, 226, 228, -1,
          228, 226, 229, -1,
          229, 226, 230, -1,
          221, 226, 129, -1,
          218, 231, 223, -1,
          222, 231, 218, -1,
          221, 232, 226, -1,
          223, 232, 221, -1,
          225, 233, 224, -1,
          224, 233, 222, -1,
          234, 233, 225, -1,
          235, 233, 234, -1,
          222, 233, 231, -1,
          230, 236, 237, -1,
          226, 236, 230, -1,
          237, 236, 238, -1,
          238, 236, 239, -1,
          239, 236, 240, -1,
          240, 236, 241, -1,
          223, 242, 232, -1,
          231, 242, 223, -1,
          232, 243, 226, -1,
          226, 243, 236, -1,
          244, 245, 235, -1,
          233, 245, 231, -1,
          235, 245, 233, -1,
          231, 245, 242, -1,
          241, 246, 247, -1,
          247, 246, 248, -1,
          248, 246, 249, -1,
          249, 246, 250, -1,
          236, 246, 241, -1,
          242, 251, 232, -1,
          232, 251, 243, -1,
          243, 252, 236, -1,
          236, 252, 246, -1,
          245, 253, 242, -1,
          254, 253, 255, -1,
          255, 253, 244, -1,
          242, 253, 251, -1,
          244, 253, 245, -1,
          243, 256, 252, -1,
          251, 256, 243, -1,
          246, 257, 250, -1,
          250, 257, 258, -1,
          258, 257, 259, -1,
          259, 257, 260, -1,
          260, 257, 261, -1,
          261, 257, 262, -1,
          262, 257, 263, -1,
          252, 257, 246, -1,
          264, 265, 254, -1,
          253, 265, 251, -1,
          254, 265, 253, -1,
          251, 265, 256, -1,
          256, 266, 252, -1,
          252, 266, 257, -1,
          256, 267, 266, -1,
          264, 267, 265, -1,
          268, 267, 269, -1,
          269, 267, 264, -1,
          265, 267, 256, -1,
          257, 270, 263, -1,
          266, 270, 257, -1,
          263, 270, 271, -1,
          271, 270, 272, -1,
          272, 270, 273, -1,
          267, 274, 266, -1,
          268, 274, 267, -1,
          266, 274, 270, -1,
          275, 274, 268, -1,
          273, 276, 277, -1,
          277, 276, 278, -1,
          278, 276, 279, -1,
          270, 276, 273, -1,
          210, 280, 208, -1,
          279, 280, 281, -1,
          281, 280, 282, -1,
          282, 280, 283, -1,
          283, 280, 210, -1,
          208, 280, 275, -1,
          274, 280, 270, -1,
          275, 280, 274, -1,
          276, 280, 279, -1,
          270, 280, 276, -1,
          61, 207, 63, -1,
          63, 207, 64, -1,
          208, 284, 212, -1,
          208, 285, 284, -1,
          50, 286, 53, -1,
          53, 286, 55, -1,
          55, 286, 57, -1,
          57, 286, 59, -1,
          59, 286, 61, -1,
          61, 286, 207, -1,
          207, 287, 220, -1,
          220, 287, 225, -1,
          286, 287, 207, -1,
          286, 288, 287, -1,
          50, 288, 286, -1,
          40, 288, 43, -1,
          43, 288, 45, -1,
          45, 288, 47, -1,
          47, 288, 49, -1,
          49, 288, 50, -1,
          287, 289, 225, -1,
          225, 289, 234, -1,
          287, 290, 289, -1,
          288, 290, 287, -1,
          234, 291, 235, -1,
          235, 291, 244, -1,
          289, 291, 234, -1,
          30, 292, 33, -1,
          33, 292, 34, -1,
          34, 292, 36, -1,
          36, 292, 38, -1,
          38, 292, 40, -1,
          40, 292, 288, -1,
          288, 292, 290, -1,
          289, 293, 291, -1,
          290, 293, 289, -1,
          291, 294, 244, -1,
          244, 294, 255, -1,
          292, 295, 290, -1,
          30, 295, 292, -1,
          290, 295, 293, -1,
          25, 295, 27, -1,
          27, 295, 28, -1,
          28, 295, 30, -1,
          291, 296, 294, -1,
          293, 296, 291, -1,
          255, 297, 254, -1,
          294, 297, 255, -1,
          293, 298, 296, -1,
          295, 298, 293, -1,
          294, 299, 297, -1,
          296, 299, 294, -1,
          15, 300, 17, -1,
          17, 300, 19, -1,
          19, 300, 21, -1,
          21, 300, 22, -1,
          22, 300, 25, -1,
          295, 300, 298, -1,
          25, 300, 295, -1,
          264, 301, 269, -1,
          254, 301, 264, -1,
          297, 301, 254, -1,
          298, 302, 296, -1,
          296, 302, 299, -1,
          299, 303, 297, -1,
          297, 303, 301, -1,
          15, 304, 300, -1,
          5, 304, 7, -1,
          7, 304, 9, -1,
          9, 304, 11, -1,
          11, 304, 13, -1,
          13, 304, 15, -1,
          300, 304, 298, -1,
          298, 304, 302, -1,
          269, 305, 268, -1,
          301, 305, 269, -1,
          299, 306, 303, -1,
          302, 306, 299, -1,
          303, 307, 301, -1,
          301, 307, 305, -1,
          308, 309, 310, -1,
          310, 309, 2, -1,
          2, 309, 3, -1,
          3, 309, 5, -1,
          304, 309, 302, -1,
          302, 309, 306, -1,
          5, 309, 304, -1,
          275, 311, 208, -1,
          268, 311, 275, -1,
          305, 311, 268, -1,
          303, 312, 307, -1,
          306, 312, 303, -1,
          305, 313, 311, -1,
          307, 313, 305, -1,
          306, 314, 312, -1,
          315, 314, 316, -1,
          316, 314, 317, -1,
          317, 314, 318, -1,
          318, 314, 319, -1,
          319, 314, 308, -1,
          309, 314, 306, -1,
          308, 314, 309, -1,
          285, 320, 321, -1,
          321, 320, 322, -1,
          322, 320, 323, -1,
          323, 320, 324, -1,
          324, 320, 325, -1,
          311, 320, 208, -1,
          208, 320, 285, -1,
          307, 326, 313, -1,
          327, 326, 328, -1,
          328, 326, 329, -1,
          329, 326, 330, -1,
          312, 326, 307, -1,
          313, 331, 311, -1,
          325, 331, 332, -1,
          332, 331, 333, -1,
          333, 331, 334, -1,
          334, 331, 335, -1,
          335, 331, 336, -1,
          311, 331, 320, -1,
          320, 331, 325, -1,
          315, 337, 314, -1,
          330, 337, 338, -1,
          338, 337, 339, -1,
          339, 337, 340, -1,
          340, 337, 341, -1,
          341, 337, 315, -1,
          326, 337, 330, -1,
          314, 337, 312, -1,
          312, 337, 326, -1,
          336, 342, 343, -1,
          343, 342, 344, -1,
          344, 342, 345, -1,
          345, 342, 346, -1,
          346, 342, 327, -1,
          313, 342, 331, -1,
          326, 342, 313, -1,
          327, 342, 326, -1,
          331, 342, 336, -1,
          66, 130, 65, -1,
          68, 130, 66, -1,
          131, 347, 135, -1,
          131, 348, 347, -1,
          71, 349, 68, -1,
          72, 349, 71, -1,
          74, 349, 72, -1,
          76, 349, 74, -1,
          78, 349, 76, -1,
          68, 349, 130, -1,
          349, 350, 130, -1,
          143, 350, 148, -1,
          130, 350, 143, -1,
          349, 351, 350, -1,
          80, 351, 78, -1,
          82, 351, 80, -1,
          84, 351, 82, -1,
          86, 351, 84, -1,
          89, 351, 86, -1,
          78, 351, 349, -1,
          148, 352, 158, -1,
          350, 352, 148, -1,
          350, 353, 352, -1,
          351, 353, 350, -1,
          352, 354, 158, -1,
          157, 354, 168, -1,
          158, 354, 157, -1,
          89, 355, 351, -1,
          90, 355, 89, -1,
          93, 355, 90, -1,
          95, 355, 93, -1,
          96, 355, 95, -1,
          98, 355, 96, -1,
          351, 355, 353, -1,
          353, 356, 352, -1,
          352, 356, 354, -1,
          354, 357, 168, -1,
          168, 357, 178, -1,
          353, 358, 356, -1,
          101, 358, 98, -1,
          102, 358, 101, -1,
          105, 358, 102, -1,
          355, 358, 353, -1,
          98, 358, 355, -1,
          354, 359, 357, -1,
          356, 359, 354, -1,
          357, 360, 178, -1,
          178, 360, 177, -1,
          356, 361, 359, -1,
          358, 361, 356, -1,
          357, 362, 360, -1,
          359, 362, 357, -1,
          106, 363, 105, -1,
          109, 363, 106, -1,
          110, 363, 109, -1,
          113, 363, 110, -1,
          105, 363, 358, -1,
          114, 363, 113, -1,
          358, 363, 361, -1,
          177, 364, 188, -1,
          188, 364, 191, -1,
          360, 364, 177, -1,
          361, 365, 359, -1,
          359, 365, 362, -1,
          362, 366, 360, -1,
          360, 366, 364, -1,
          114, 367, 363, -1,
          363, 367, 361, -1,
          361, 367, 365, -1,
          116, 367, 114, -1,
          118, 367, 116, -1,
          120, 367, 118, -1,
          122, 367, 120, -1,
          124, 367, 122, -1,
          364, 368, 191, -1,
          191, 368, 192, -1,
          362, 369, 366, -1,
          365, 369, 362, -1,
          366, 370, 364, -1,
          364, 370, 368, -1,
          371, 372, 128, -1,
          373, 372, 371, -1,
          124, 372, 367, -1,
          367, 372, 365, -1,
          365, 372, 369, -1,
          127, 372, 124, -1,
          128, 372, 127, -1,
          368, 374, 192, -1,
          192, 374, 198, -1,
          198, 374, 131, -1,
          369, 375, 366, -1,
          366, 375, 370, -1,
          368, 376, 374, -1,
          370, 376, 368, -1,
          373, 377, 372, -1,
          378, 377, 373, -1,
          379, 377, 378, -1,
          380, 377, 379, -1,
          381, 377, 380, -1,
          382, 377, 381, -1,
          369, 377, 375, -1,
          372, 377, 369, -1,
          383, 384, 385, -1,
          386, 384, 383, -1,
          387, 384, 386, -1,
          388, 384, 387, -1,
          348, 384, 388, -1,
          374, 384, 131, -1,
          131, 384, 348, -1,
          375, 389, 370, -1,
          390, 389, 391, -1,
          392, 389, 390, -1,
          393, 389, 392, -1,
          370, 389, 376, -1,
          376, 394, 374, -1,
          374, 394, 384, -1,
          395, 394, 396, -1,
          397, 394, 395, -1,
          398, 394, 397, -1,
          399, 394, 398, -1,
          385, 394, 399, -1,
          384, 394, 385, -1,
          377, 400, 375, -1,
          389, 400, 391, -1,
          401, 400, 382, -1,
          375, 400, 389, -1,
          402, 400, 401, -1,
          403, 400, 402, -1,
          404, 400, 403, -1,
          391, 400, 404, -1,
          382, 400, 377, -1,
          405, 406, 393, -1,
          407, 406, 405, -1,
          408, 406, 407, -1,
          409, 406, 408, -1,
          396, 406, 409, -1,
          394, 406, 396, -1,
          389, 406, 376, -1,
          393, 406, 389, -1,
          376, 406, 394, -1,
          371, 128, 129, -1,
          371, 129, 227, -1,
          373, 227, 228, -1,
          373, 228, 229, -1,
          373, 371, 227, -1,
          378, 373, 229, -1,
          379, 229, 230, -1,
          379, 230, 237, -1,
          379, 378, 229, -1,
          380, 237, 238, -1,
          380, 379, 237, -1,
          381, 380, 238, -1,
          382, 238, 239, -1,
          382, 381, 238, -1,
          401, 239, 240, -1,
          401, 240, 241, -1,
          401, 382, 239, -1,
          402, 241, 247, -1,
          402, 401, 241, -1,
          403, 247, 248, -1,
          403, 402, 247, -1,
          404, 403, 248, -1,
          391, 248, 249, -1,
          391, 404, 248, -1,
          390, 249, 250, -1,
          390, 391, 249, -1,
          392, 250, 258, -1,
          392, 258, 259, -1,
          392, 390, 250, -1,
          393, 392, 259, -1,
          405, 259, 260, -1,
          405, 393, 259, -1,
          407, 260, 261, -1,
          407, 261, 262, -1,
          407, 405, 260, -1,
          408, 407, 262, -1,
          408, 262, 263, -1,
          409, 408, 263, -1,
          396, 409, 263, -1,
          396, 263, 271, -1,
          395, 396, 271, -1,
          395, 271, 272, -1,
          395, 272, 273, -1,
          397, 395, 273, -1,
          398, 273, 277, -1,
          398, 277, 278, -1,
          398, 397, 273, -1,
          399, 398, 278, -1,
          385, 278, 279, -1,
          385, 279, 281, -1,
          385, 399, 278, -1,
          383, 385, 281, -1,
          386, 281, 282, -1,
          386, 383, 281, -1,
          387, 282, 283, -1,
          387, 283, 210, -1,
          387, 386, 282, -1,
          388, 387, 210, -1,
          348, 210, 209, -1,
          348, 209, 211, -1,
          348, 388, 210, -1,
          347, 211, 212, -1,
          347, 348, 211, -1,
          135, 347, 212, -1,
          134, 212, 284, -1,
          134, 135, 212, -1,
          132, 284, 285, -1,
          132, 285, 321, -1,
          132, 134, 284, -1,
          133, 132, 321, -1,
          204, 321, 322, -1,
          204, 133, 321, -1,
          205, 322, 323, -1,
          205, 204, 322, -1,
          206, 323, 324, -1,
          206, 205, 323, -1,
          201, 324, 325, -1,
          201, 206, 324, -1,
          200, 325, 332, -1,
          200, 201, 325, -1,
          202, 332, 333, -1,
          202, 200, 332, -1,
          195, 202, 333, -1,
          195, 333, 334, -1,
          194, 195, 334, -1,
          194, 334, 335, -1,
          196, 194, 335, -1,
          196, 335, 336, -1,
          182, 196, 336, -1,
          182, 336, 343, -1,
          180, 182, 343, -1,
          180, 343, 344, -1,
          183, 180, 344, -1,
          183, 344, 345, -1,
          183, 345, 346, -1,
          184, 183, 346, -1,
          185, 184, 346, -1,
          185, 346, 327, -1,
          186, 185, 327, -1,
          186, 327, 328, -1,
          171, 186, 328, -1,
          171, 328, 329, -1,
          169, 171, 329, -1,
          169, 329, 330, -1,
          172, 169, 330, -1,
          172, 330, 338, -1,
          173, 172, 338, -1,
          173, 338, 339, -1,
          161, 173, 339, -1,
          161, 339, 340, -1,
          159, 340, 341, -1,
          159, 161, 340, -1,
          162, 341, 315, -1,
          162, 159, 341, -1,
          163, 315, 316, -1,
          163, 162, 315, -1,
          164, 316, 317, -1,
          164, 163, 316, -1,
          151, 317, 318, -1,
          151, 164, 317, -1,
          149, 318, 319, -1,
          149, 319, 308, -1,
          149, 151, 318, -1,
          152, 308, 310, -1,
          152, 149, 308, -1,
          153, 152, 310, -1,
          1, 310, 2, -1,
          1, 153, 310, -1
        ]
      }
    }
}
