#VRML V2.0 utf8
WorldInfo {
  title "Exported triangle mesh to VRML97"
  info ["Created by FreeCAD"
        "<https://www.freecad.org>"]
}

Transform {
  scale 1 1 1
  rotation 0 0 1 0
  scaleOrientation 0 0 1 0
  center 0.000 0.000 0.000
  translation 0.000 0.000 0.000
  children
    Shape { 
      appearance
      Appearance {
        material
        Material {
          diffuseColor 0.8 0.8 0.8
        }
      }
      geometry
      IndexedFaceSet {
        coord
        Coordinate {
          point [
            1.648 0.000 3.000,
            1.835 0.000 2.756,
            1.835 0.135 2.753,
            1.648 0.150 2.996,
            1.648 0.000 -3.000,
            1.835 0.135 -2.753,
            1.835 0.000 -2.756,
            1.648 0.150 -2.996,
            1.742 0.282 2.864,
            1.835 0.270 2.743,
            1.835 0.404 2.726,
            1.648 0.299 2.985,
            1.648 0.447 2.966,
            1.742 0.561 2.823,
            1.835 0.538 2.703,
            1.835 0.670 2.673,
            1.648 0.594 2.941,
            1.648 0.740 2.907,
            1.742 0.835 2.754,
            1.835 0.800 2.637,
            1.835 0.928 2.595,
            1.648 0.884 2.867,
            1.648 1.026 2.819,
            1.742 1.101 2.659,
            1.835 1.055 2.546,
            1.835 1.178 2.491,
            1.648 1.165 2.764,
            1.648 1.302 2.703,
            1.742 1.357 2.538,
            1.835 1.299 2.430,
            1.835 1.417 2.364,
            1.648 1.435 2.635,
            1.648 1.564 2.560,
            1.742 1.599 2.393,
            1.835 1.531 2.291,
            1.835 1.642 2.214,
            1.648 1.690 2.479,
            1.648 1.811 2.391,
            1.742 1.826 2.225,
            1.835 1.748 2.130,
            1.835 1.851 2.042,
            1.648 1.928 2.298,
            1.648 2.041 2.199,
            1.742 2.035 2.035,
            1.835 1.949 1.949,
            1.835 2.042 1.851,
            1.648 2.148 2.095,
            1.648 2.249 1.985,
            1.742 2.225 1.826,
            1.835 2.130 1.748,
            1.835 2.214 1.642,
            1.648 2.345 1.870,
            1.648 2.436 1.751,
            1.742 2.393 1.599,
            1.835 2.291 1.531,
            1.835 2.364 1.417,
            1.648 2.520 1.628,
            1.648 2.598 1.500,
            1.742 2.538 1.357,
            1.835 2.430 1.299,
            1.835 2.491 1.178,
            1.648 2.670 1.369,
            1.648 2.735 1.234,
            1.742 2.659 1.101,
            1.835 2.546 1.055,
            1.835 2.595 0.928,
            1.648 2.793 1.096,
            1.648 2.844 0.955,
            1.742 2.754 0.835,
            1.835 2.637 0.800,
            1.835 2.673 0.670,
            1.648 2.888 0.813,
            1.648 2.925 0.668,
            1.742 2.823 0.561,
            1.835 2.703 0.538,
            1.835 2.726 0.404,
            1.648 2.954 0.521,
            1.648 2.977 0.373,
            1.742 2.864 0.282,
            1.648 2.992 0.224,
            1.648 2.999 0.075,
            1.835 2.743 0.270,
            1.835 2.753 0.135,
            1.742 2.878 -0.000,
            1.835 2.756 0.000,
            1.835 2.753 -0.135,
            1.648 2.999 -0.075,
            1.742 2.864 -0.282,
            1.835 2.743 -0.270,
            1.835 2.726 -0.404,
            1.648 2.992 -0.224,
            1.648 2.977 -0.373,
            1.742 2.823 -0.561,
            1.835 2.703 -0.538,
            1.835 2.673 -0.670,
            1.648 2.954 -0.521,
            1.648 2.925 -0.668,
            1.742 2.754 -0.835,
            1.835 2.637 -0.800,
            1.835 2.595 -0.928,
            1.648 2.888 -0.813,
            1.648 2.844 -0.955,
            1.742 2.659 -1.101,
            1.835 2.546 -1.055,
            1.835 2.491 -1.178,
            1.648 2.793 -1.096,
            1.648 2.735 -1.234,
            1.742 2.538 -1.357,
            1.835 2.430 -1.299,
            1.835 2.364 -1.417,
            1.648 2.670 -1.369,
            1.648 2.598 -1.500,
            1.742 2.393 -1.599,
            1.835 2.291 -1.531,
            1.835 2.214 -1.642,
            1.648 2.520 -1.628,
            1.648 2.436 -1.751,
            1.742 2.225 -1.826,
            1.835 2.130 -1.748,
            1.835 2.042 -1.851,
            1.648 2.345 -1.870,
            1.648 2.249 -1.985,
            1.742 2.035 -2.035,
            1.835 1.949 -1.949,
            1.835 1.851 -2.042,
            1.648 2.148 -2.095,
            1.648 2.041 -2.199,
            1.742 1.826 -2.225,
            1.835 1.748 -2.130,
            1.835 1.642 -2.214,
            1.648 1.928 -2.298,
            1.648 1.811 -2.391,
            1.742 1.599 -2.393,
            1.835 1.531 -2.291,
            1.835 1.417 -2.364,
            1.648 1.690 -2.479,
            1.648 1.564 -2.560,
            1.742 1.357 -2.538,
            1.835 1.299 -2.430,
            1.835 1.178 -2.491,
            1.648 1.435 -2.635,
            1.648 1.302 -2.703,
            1.742 1.101 -2.659,
            1.835 1.055 -2.546,
            1.835 0.928 -2.595,
            1.648 1.165 -2.764,
            1.648 1.026 -2.819,
            1.742 0.835 -2.754,
            1.835 0.800 -2.637,
            1.835 0.670 -2.673,
            1.648 0.884 -2.867,
            1.648 0.740 -2.907,
            1.742 0.561 -2.823,
            1.835 0.538 -2.703,
            1.835 0.404 -2.726,
            1.648 0.594 -2.941,
            1.648 0.447 -2.966,
            1.742 0.282 -2.864,
            1.835 0.270 -2.743,
            1.648 0.299 -2.985,
            -1.648 0.000 -3.000,
            -1.835 0.000 -2.756,
            -1.835 0.135 -2.753,
            -1.648 0.150 -2.996,
            -1.648 0.000 3.000,
            -1.835 0.135 2.753,
            -1.835 0.000 2.756,
            -1.648 0.150 2.996,
            -1.742 0.282 -2.864,
            -1.835 0.270 -2.743,
            -1.835 0.404 -2.726,
            -1.648 0.299 -2.985,
            -1.648 0.447 -2.966,
            -1.742 0.561 -2.823,
            -1.835 0.538 -2.703,
            -1.835 0.670 -2.673,
            -1.648 0.594 -2.941,
            -1.648 0.740 -2.907,
            -1.742 0.835 -2.754,
            -1.835 0.800 -2.637,
            -1.835 0.928 -2.595,
            -1.648 0.884 -2.867,
            -1.648 1.026 -2.819,
            -1.742 1.101 -2.659,
            -1.835 1.055 -2.546,
            -1.835 1.178 -2.491,
            -1.648 1.165 -2.764,
            -1.648 1.302 -2.703,
            -1.742 1.357 -2.538,
            -1.835 1.299 -2.430,
            -1.835 1.417 -2.364,
            -1.648 1.435 -2.635,
            -1.648 1.564 -2.560,
            -1.742 1.599 -2.393,
            -1.835 1.531 -2.291,
            -1.835 1.642 -2.214,
            -1.648 1.690 -2.479,
            -1.648 1.811 -2.391,
            -1.742 1.826 -2.225,
            -1.835 1.748 -2.130,
            -1.835 1.851 -2.042,
            -1.648 1.928 -2.298,
            -1.648 2.041 -2.199,
            -1.742 2.035 -2.035,
            -1.835 1.949 -1.949,
            -1.835 2.042 -1.851,
            -1.648 2.148 -2.095,
            -1.648 2.249 -1.985,
            -1.742 2.225 -1.826,
            -1.835 2.130 -1.748,
            -1.835 2.214 -1.642,
            -1.648 2.345 -1.870,
            -1.648 2.436 -1.751,
            -1.742 2.393 -1.599,
            -1.835 2.291 -1.531,
            -1.835 2.364 -1.417,
            -1.648 2.520 -1.628,
            -1.648 2.598 -1.500,
            -1.742 2.538 -1.357,
            -1.835 2.430 -1.299,
            -1.835 2.491 -1.178,
            -1.648 2.670 -1.369,
            -1.648 2.735 -1.234,
            -1.742 2.659 -1.101,
            -1.835 2.546 -1.055,
            -1.835 2.595 -0.928,
            -1.648 2.793 -1.096,
            -1.648 2.844 -0.955,
            -1.742 2.754 -0.835,
            -1.835 2.637 -0.800,
            -1.835 2.673 -0.670,
            -1.648 2.888 -0.813,
            -1.648 2.925 -0.668,
            -1.742 2.823 -0.561,
            -1.835 2.703 -0.538,
            -1.835 2.726 -0.404,
            -1.648 2.954 -0.521,
            -1.648 2.977 -0.373,
            -1.742 2.864 -0.282,
            -1.648 2.992 -0.224,
            -1.648 2.999 -0.075,
            -1.835 2.743 -0.270,
            -1.835 2.753 -0.135,
            -1.742 2.878 0.000,
            -1.835 2.756 0.000,
            -1.835 2.753 0.135,
            -1.648 2.999 0.075,
            -1.742 2.864 0.282,
            -1.835 2.743 0.270,
            -1.835 2.726 0.404,
            -1.648 2.992 0.224,
            -1.648 2.977 0.373,
            -1.742 2.823 0.561,
            -1.835 2.703 0.538,
            -1.835 2.673 0.670,
            -1.648 2.954 0.521,
            -1.648 2.925 0.668,
            -1.742 2.754 0.835,
            -1.835 2.637 0.800,
            -1.835 2.595 0.928,
            -1.648 2.888 0.813,
            -1.648 2.844 0.955,
            -1.742 2.659 1.101,
            -1.835 2.546 1.055,
            -1.835 2.491 1.178,
            -1.648 2.793 1.096,
            -1.648 2.735 1.234,
            -1.742 2.538 1.357,
            -1.835 2.430 1.299,
            -1.835 2.364 1.417,
            -1.648 2.670 1.369,
            -1.648 2.598 1.500,
            -1.742 2.393 1.599,
            -1.835 2.291 1.531,
            -1.835 2.214 1.642,
            -1.648 2.520 1.628,
            -1.648 2.436 1.751,
            -1.742 2.225 1.826,
            -1.835 2.130 1.748,
            -1.835 2.042 1.851,
            -1.648 2.345 1.870,
            -1.648 2.249 1.985,
            -1.742 2.035 2.035,
            -1.835 1.949 1.949,
            -1.835 1.851 2.042,
            -1.648 2.148 2.095,
            -1.648 2.041 2.199,
            -1.742 1.826 2.225,
            -1.835 1.748 2.130,
            -1.835 1.642 2.214,
            -1.648 1.928 2.298,
            -1.648 1.811 2.391,
            -1.742 1.599 2.393,
            -1.835 1.531 2.291,
            -1.835 1.417 2.364,
            -1.648 1.690 2.479,
            -1.648 1.564 2.560,
            -1.742 1.357 2.538,
            -1.835 1.299 2.430,
            -1.835 1.178 2.491,
            -1.648 1.435 2.635,
            -1.648 1.302 2.703,
            -1.742 1.101 2.659,
            -1.835 1.055 2.546,
            -1.835 0.928 2.595,
            -1.648 1.165 2.764,
            -1.648 1.026 2.819,
            -1.742 0.835 2.754,
            -1.835 0.800 2.637,
            -1.835 0.670 2.673,
            -1.648 0.884 2.867,
            -1.648 0.740 2.907,
            -1.742 0.561 2.823,
            -1.835 0.538 2.703,
            -1.835 0.404 2.726,
            -1.648 0.594 2.941,
            -1.648 0.447 2.966,
            -1.742 0.282 2.864,
            -1.835 0.270 2.743,
            -1.648 0.299 2.985,
            1.715 2.212 0.000,
            1.715 -2.212 0.000,
            1.835 -2.743 -0.270,
            1.835 -2.726 -0.404,
            1.835 -2.753 -0.135,
            1.835 -2.756 0.000,
            1.797 1.559 -2.076,
            1.754 1.963 -1.388,
            1.767 2.364 -0.695,
            1.716 0.781 -2.076,
            1.645 1.182 -1.388,
            1.631 1.582 -0.695,
            1.621 1.664 0.000,
            1.554 1.111 0.000,
            1.689 0.000 -2.076,
            1.835 -0.270 -2.743,
            1.835 -0.404 -2.726,
            1.835 -0.135 -2.753,
            1.591 0.395 -1.388,
            1.513 0.556 0.000,
            1.548 0.793 -0.695,
            1.835 -1.178 -2.491,
            1.716 -0.781 -2.076,
            1.835 -1.299 -2.430,
            1.835 -1.055 -2.546,
            1.835 -0.928 -2.595,
            1.835 -0.800 -2.637,
            1.835 -0.670 -2.673,
            1.835 -0.538 -2.703,
            1.591 -0.395 -1.388,
            1.513 -0.556 0.000,
            1.521 0.000 -0.695,
            1.500 -0.000 0.000,
            1.835 -1.851 -2.042,
            1.797 -1.559 -2.076,
            1.835 -1.949 -1.949,
            1.835 -1.748 -2.130,
            1.835 -1.642 -2.214,
            1.835 -1.531 -2.291,
            1.835 -1.417 -2.364,
            1.645 -1.182 -1.388,
            1.548 -0.793 -0.695,
            1.554 -1.111 0.000,
            1.754 -1.963 -1.388,
            1.835 -2.430 -1.299,
            1.835 -2.491 -1.178,
            1.835 -2.364 -1.417,
            1.835 -2.291 -1.531,
            1.835 -2.214 -1.642,
            1.835 -2.130 -1.748,
            1.835 -2.042 -1.851,
            1.631 -1.582 -0.695,
            1.621 -1.664 0.000,
            1.767 -2.364 -0.695,
            1.835 -2.703 -0.538,
            1.835 -2.673 -0.670,
            1.835 -2.637 -0.800,
            1.835 -2.595 -0.928,
            1.835 -2.546 -1.055,
            -1.715 2.212 0.000,
            -1.715 -2.212 -0.000,
            -1.835 -2.743 0.270,
            -1.835 -2.726 0.404,
            -1.835 -2.753 0.135,
            -1.835 -2.756 -0.000,
            -1.797 1.559 2.076,
            -1.754 1.963 1.388,
            -1.767 2.364 0.695,
            -1.716 0.781 2.076,
            -1.645 1.182 1.388,
            -1.631 1.582 0.695,
            -1.554 1.111 0.000,
            -1.621 1.664 0.000,
            -1.689 0.000 2.076,
            -1.835 -0.270 2.743,
            -1.835 -0.404 2.726,
            -1.835 -0.135 2.753,
            -1.591 0.395 1.388,
            -1.548 0.793 0.695,
            -1.513 0.556 0.000,
            -1.835 -1.178 2.491,
            -1.716 -0.781 2.076,
            -1.835 -1.299 2.430,
            -1.835 -1.055 2.546,
            -1.835 -0.928 2.595,
            -1.835 -0.800 2.637,
            -1.835 -0.670 2.673,
            -1.835 -0.538 2.703,
            -1.591 -0.395 1.388,
            -1.521 0.000 0.695,
            -1.513 -0.556 -0.000,
            -1.500 0.000 0.000,
            -1.835 -1.851 2.042,
            -1.797 -1.559 2.076,
            -1.835 -1.949 1.949,
            -1.835 -1.748 2.130,
            -1.835 -1.642 2.214,
            -1.835 -1.531 2.291,
            -1.835 -1.417 2.364,
            -1.645 -1.182 1.388,
            -1.548 -0.793 0.695,
            -1.554 -1.111 -0.000,
            -1.754 -1.963 1.388,
            -1.835 -2.430 1.299,
            -1.835 -2.491 1.178,
            -1.835 -2.364 1.417,
            -1.835 -2.291 1.531,
            -1.835 -2.214 1.642,
            -1.835 -2.130 1.748,
            -1.835 -2.042 1.851,
            -1.631 -1.582 0.695,
            -1.621 -1.664 -0.000,
            -1.767 -2.364 0.695,
            -1.835 -2.703 0.538,
            -1.835 -2.673 0.670,
            -1.835 -2.637 0.800,
            -1.835 -2.595 0.928,
            -1.835 -2.546 1.055,
            -1.835 -2.753 -0.135,
            -1.835 -2.743 -0.270,
            -1.835 -2.726 -0.404,
            -1.767 2.364 -0.695,
            -1.631 1.582 -0.695,
            -1.754 1.963 -1.388,
            -1.548 0.793 -0.695,
            -1.645 1.182 -1.388,
            -1.797 1.559 -2.076,
            -1.521 0.000 -0.695,
            -1.591 0.395 -1.388,
            -1.716 0.781 -2.076,
            -1.548 -0.793 -0.695,
            -1.591 -0.395 -1.388,
            -1.835 -0.135 -2.753,
            -1.689 0.000 -2.076,
            -1.835 -0.270 -2.743,
            -1.835 -0.404 -2.726,
            -1.631 -1.582 -0.695,
            -1.645 -1.182 -1.388,
            -1.835 -0.538 -2.703,
            -1.716 -0.781 -2.076,
            -1.835 -0.670 -2.673,
            -1.835 -0.800 -2.637,
            -1.835 -0.928 -2.595,
            -1.835 -1.055 -2.546,
            -1.835 -1.178 -2.491,
            -1.835 -1.299 -2.430,
            -1.835 -2.546 -1.055,
            -1.767 -2.364 -0.695,
            -1.835 -2.491 -1.178,
            -1.835 -2.595 -0.928,
            -1.835 -2.637 -0.800,
            -1.835 -2.673 -0.670,
            -1.835 -2.703 -0.538,
            -1.835 -2.042 -1.851,
            -1.754 -1.963 -1.388,
            -1.835 -1.949 -1.949,
            -1.835 -2.130 -1.748,
            -1.835 -2.214 -1.642,
            -1.835 -2.291 -1.531,
            -1.835 -2.364 -1.417,
            -1.835 -2.430 -1.299,
            -1.835 -1.417 -2.364,
            -1.797 -1.559 -2.076,
            -1.835 -1.531 -2.291,
            -1.835 -1.642 -2.214,
            -1.835 -1.748 -2.130,
            -1.835 -1.851 -2.042,
            1.835 -2.753 0.135,
            1.835 -2.743 0.270,
            1.835 -2.726 0.404,
            1.767 2.364 0.695,
            1.631 1.582 0.695,
            1.754 1.963 1.388,
            1.548 0.793 0.695,
            1.645 1.182 1.388,
            1.797 1.559 2.076,
            1.521 -0.000 0.695,
            1.591 0.395 1.388,
            1.716 0.781 2.076,
            1.548 -0.793 0.695,
            1.591 -0.395 1.388,
            1.689 -0.000 2.076,
            1.835 -0.135 2.753,
            1.835 -0.270 2.743,
            1.835 -0.404 2.726,
            1.631 -1.582 0.695,
            1.645 -1.182 1.388,
            1.835 -0.538 2.703,
            1.716 -0.781 2.076,
            1.835 -0.670 2.673,
            1.835 -0.800 2.637,
            1.835 -0.928 2.595,
            1.835 -1.055 2.546,
            1.835 -1.178 2.491,
            1.835 -1.299 2.430,
            1.767 -2.364 0.695,
            1.835 -2.546 1.055,
            1.835 -2.491 1.178,
            1.835 -2.595 0.928,
            1.835 -2.637 0.800,
            1.835 -2.673 0.670,
            1.835 -2.703 0.538,
            1.835 -2.042 1.851,
            1.754 -1.963 1.388,
            1.835 -1.949 1.949,
            1.835 -2.130 1.748,
            1.835 -2.214 1.642,
            1.835 -2.291 1.531,
            1.835 -2.364 1.417,
            1.835 -2.430 1.299,
            1.797 -1.559 2.076,
            1.835 -1.417 2.364,
            1.835 -1.531 2.291,
            1.835 -1.642 2.214,
            1.835 -1.748 2.130,
            1.835 -1.851 2.042,
            -1.648 -0.150 -2.996,
            1.648 -0.150 -2.996,
            -1.648 -0.299 -2.985,
            1.648 -0.299 -2.985,
            -1.648 -0.447 -2.966,
            1.648 -0.447 -2.966,
            -1.648 -0.594 -2.941,
            1.648 -0.594 -2.941,
            -1.648 -0.740 -2.907,
            1.648 -0.740 -2.907,
            -1.648 -0.884 -2.867,
            1.648 -0.884 -2.867,
            -1.648 -1.026 -2.819,
            1.648 -1.026 -2.819,
            -1.648 -1.165 -2.764,
            1.648 -1.165 -2.764,
            -1.648 -1.302 -2.703,
            1.648 -1.302 -2.703,
            -1.648 -1.435 -2.635,
            1.648 -1.435 -2.635,
            -1.648 -1.564 -2.560,
            1.648 -1.564 -2.560,
            -1.648 -1.690 -2.479,
            1.648 -1.690 -2.479,
            -1.648 -1.811 -2.391,
            1.648 -1.811 -2.391,
            -1.648 -1.928 -2.298,
            1.648 -1.928 -2.298,
            -1.648 -2.041 -2.199,
            1.648 -2.041 -2.199,
            -1.648 -2.148 -2.095,
            1.648 -2.148 -2.095,
            -1.648 -2.249 -1.985,
            1.648 -2.249 -1.985,
            -1.648 -2.345 -1.870,
            1.648 -2.345 -1.870,
            -1.648 -2.436 -1.751,
            1.648 -2.436 -1.751,
            -1.648 -2.520 -1.628,
            1.648 -2.520 -1.628,
            -1.648 -2.598 -1.500,
            1.648 -2.598 -1.500,
            -1.648 -2.670 -1.369,
            1.648 -2.670 -1.369,
            -1.648 -2.735 -1.234,
            1.648 -2.735 -1.234,
            -1.648 -2.793 -1.096,
            1.648 -2.793 -1.096,
            -1.648 -2.844 -0.955,
            1.648 -2.844 -0.955,
            -1.648 -2.888 -0.813,
            1.648 -2.888 -0.813,
            -1.648 -2.925 -0.668,
            1.648 -2.925 -0.668,
            -1.648 -2.954 -0.521,
            1.648 -2.954 -0.521,
            -1.648 -2.977 -0.373,
            1.648 -2.977 -0.373,
            -1.648 -2.992 -0.224,
            1.648 -2.992 -0.224,
            -1.648 -2.999 -0.075,
            1.648 -2.999 -0.075,
            -1.648 -2.999 0.075,
            1.648 -2.999 0.075,
            -1.648 -2.992 0.224,
            1.648 -2.992 0.224,
            -1.648 -2.977 0.373,
            1.648 -2.977 0.373,
            -1.648 -2.954 0.521,
            1.648 -2.954 0.521,
            -1.648 -2.925 0.668,
            1.648 -2.925 0.668,
            -1.648 -2.888 0.813,
            1.648 -2.888 0.813,
            -1.648 -2.844 0.955,
            1.648 -2.844 0.955,
            -1.648 -2.793 1.096,
            1.648 -2.793 1.096,
            -1.648 -2.735 1.234,
            1.648 -2.735 1.234,
            -1.648 -2.670 1.369,
            1.648 -2.670 1.369,
            -1.648 -2.598 1.500,
            1.648 -2.598 1.500,
            -1.648 -2.520 1.628,
            1.648 -2.520 1.628,
            -1.648 -2.436 1.751,
            1.648 -2.436 1.751,
            -1.648 -2.345 1.870,
            1.648 -2.345 1.870,
            -1.648 -2.249 1.985,
            1.648 -2.249 1.985,
            -1.648 -2.148 2.095,
            1.648 -2.148 2.095,
            -1.648 -2.041 2.199,
            1.648 -2.041 2.199,
            -1.648 -1.928 2.298,
            1.648 -1.928 2.298,
            -1.648 -1.811 2.391,
            1.648 -1.811 2.391,
            -1.648 -1.690 2.479,
            1.648 -1.690 2.479,
            -1.648 -1.564 2.560,
            1.648 -1.564 2.560,
            -1.648 -1.435 2.635,
            1.648 -1.435 2.635,
            -1.648 -1.302 2.703,
            1.648 -1.302 2.703,
            -1.648 -1.165 2.764,
            1.648 -1.165 2.764,
            -1.648 -1.026 2.819,
            1.648 -1.026 2.819,
            -1.648 -0.884 2.867,
            1.648 -0.884 2.867,
            -1.648 -0.740 2.907,
            1.648 -0.740 2.907,
            -1.648 -0.594 2.941,
            1.648 -0.594 2.941,
            -1.648 -0.447 2.966,
            1.648 -0.447 2.966,
            -1.648 -0.299 2.985,
            1.648 -0.299 2.985,
            -1.648 -0.150 2.996,
            1.648 -0.150 2.996,
            -1.742 -0.282 2.864,
            -1.742 -0.561 2.823,
            -1.742 -0.835 2.754,
            -1.742 -1.101 2.659,
            -1.742 -1.357 2.538,
            -1.742 -1.599 2.393,
            -1.742 -1.826 2.225,
            -1.742 -2.035 2.035,
            -1.742 -2.225 1.826,
            -1.742 -2.393 1.599,
            -1.742 -2.538 1.357,
            -1.742 -2.659 1.101,
            -1.742 -2.754 0.835,
            -1.742 -2.823 0.561,
            -1.742 -2.864 0.282,
            -1.742 -2.878 0.000,
            -1.742 -2.864 -0.282,
            -1.742 -2.823 -0.561,
            -1.742 -2.754 -0.835,
            -1.742 -2.659 -1.101,
            -1.742 -2.538 -1.357,
            -1.742 -2.393 -1.599,
            -1.742 -2.225 -1.826,
            -1.742 -2.035 -2.035,
            -1.742 -1.826 -2.225,
            -1.742 -1.599 -2.393,
            -1.742 -1.357 -2.538,
            -1.742 -1.101 -2.659,
            -1.742 -0.835 -2.754,
            -1.742 -0.561 -2.823,
            -1.742 -0.282 -2.864,
            1.742 -0.282 -2.864,
            1.742 -0.561 -2.823,
            1.742 -0.835 -2.754,
            1.742 -1.101 -2.659,
            1.742 -1.357 -2.538,
            1.742 -1.599 -2.393,
            1.742 -1.826 -2.225,
            1.742 -2.035 -2.035,
            1.742 -2.225 -1.826,
            1.742 -2.393 -1.599,
            1.742 -2.538 -1.357,
            1.742 -2.659 -1.101,
            1.742 -2.754 -0.835,
            1.742 -2.823 -0.561,
            1.742 -2.864 -0.282,
            1.742 -2.878 -0.000,
            1.742 -2.864 0.282,
            1.742 -2.823 0.561,
            1.742 -2.754 0.835,
            1.742 -2.659 1.101,
            1.742 -2.538 1.357,
            1.742 -2.393 1.599,
            1.742 -2.225 1.826,
            1.742 -2.035 2.035,
            1.742 -1.826 2.225,
            1.742 -1.599 2.393,
            1.742 -1.357 2.538,
            1.742 -1.101 2.659,
            1.742 -0.835 2.754,
            1.742 -0.561 2.823,
            1.742 -0.282 2.864
          ]
        }
        coordIndex [
          0, 1, 2, -1,
          3, 0, 2, -1,
          4, 5, 6, -1,
          4, 7, 5, -1,
          8, 9, 10, -1,
          8, 2, 9, -1,
          8, 11, 3, -1,
          8, 12, 11, -1,
          8, 3, 2, -1,
          13, 14, 15, -1,
          13, 10, 14, -1,
          13, 16, 12, -1,
          13, 17, 16, -1,
          13, 12, 8, -1,
          13, 8, 10, -1,
          18, 19, 20, -1,
          18, 15, 19, -1,
          18, 17, 13, -1,
          18, 21, 17, -1,
          18, 22, 21, -1,
          18, 13, 15, -1,
          23, 22, 18, -1,
          23, 24, 25, -1,
          23, 20, 24, -1,
          23, 18, 20, -1,
          23, 26, 22, -1,
          23, 27, 26, -1,
          28, 29, 30, -1,
          28, 25, 29, -1,
          28, 31, 27, -1,
          28, 32, 31, -1,
          28, 27, 23, -1,
          28, 23, 25, -1,
          33, 34, 35, -1,
          33, 30, 34, -1,
          33, 32, 28, -1,
          33, 36, 32, -1,
          33, 37, 36, -1,
          33, 28, 30, -1,
          38, 39, 40, -1,
          38, 35, 39, -1,
          38, 41, 37, -1,
          38, 42, 41, -1,
          38, 33, 35, -1,
          38, 37, 33, -1,
          43, 44, 45, -1,
          43, 40, 44, -1,
          43, 46, 42, -1,
          43, 47, 46, -1,
          43, 38, 40, -1,
          43, 42, 38, -1,
          48, 47, 43, -1,
          48, 43, 45, -1,
          48, 49, 50, -1,
          48, 45, 49, -1,
          48, 51, 47, -1,
          48, 52, 51, -1,
          53, 54, 55, -1,
          53, 50, 54, -1,
          53, 48, 50, -1,
          53, 52, 48, -1,
          53, 56, 52, -1,
          53, 57, 56, -1,
          58, 59, 60, -1,
          58, 55, 59, -1,
          58, 61, 57, -1,
          58, 62, 61, -1,
          58, 53, 55, -1,
          58, 57, 53, -1,
          63, 62, 58, -1,
          63, 64, 65, -1,
          63, 60, 64, -1,
          63, 66, 62, -1,
          63, 67, 66, -1,
          63, 58, 60, -1,
          68, 69, 70, -1,
          68, 65, 69, -1,
          68, 63, 65, -1,
          68, 67, 63, -1,
          68, 71, 67, -1,
          68, 72, 71, -1,
          73, 74, 75, -1,
          73, 70, 74, -1,
          73, 68, 70, -1,
          73, 76, 72, -1,
          73, 77, 76, -1,
          73, 72, 68, -1,
          78, 77, 73, -1,
          78, 79, 77, -1,
          78, 80, 79, -1,
          78, 73, 75, -1,
          78, 81, 82, -1,
          78, 75, 81, -1,
          83, 80, 78, -1,
          83, 78, 82, -1,
          83, 84, 85, -1,
          83, 86, 80, -1,
          83, 82, 84, -1,
          87, 88, 89, -1,
          87, 85, 88, -1,
          87, 90, 86, -1,
          87, 91, 90, -1,
          87, 86, 83, -1,
          87, 83, 85, -1,
          92, 93, 94, -1,
          92, 89, 93, -1,
          92, 91, 87, -1,
          92, 95, 91, -1,
          92, 96, 95, -1,
          92, 87, 89, -1,
          97, 98, 99, -1,
          97, 94, 98, -1,
          97, 96, 92, -1,
          97, 92, 94, -1,
          97, 100, 96, -1,
          97, 101, 100, -1,
          102, 103, 104, -1,
          102, 99, 103, -1,
          102, 97, 99, -1,
          102, 105, 101, -1,
          102, 106, 105, -1,
          102, 101, 97, -1,
          107, 108, 109, -1,
          107, 104, 108, -1,
          107, 102, 104, -1,
          107, 106, 102, -1,
          107, 110, 106, -1,
          107, 111, 110, -1,
          112, 113, 114, -1,
          112, 109, 113, -1,
          112, 111, 107, -1,
          112, 107, 109, -1,
          112, 115, 111, -1,
          112, 116, 115, -1,
          117, 118, 119, -1,
          117, 114, 118, -1,
          117, 116, 112, -1,
          117, 120, 116, -1,
          117, 112, 114, -1,
          117, 121, 120, -1,
          122, 123, 124, -1,
          122, 119, 123, -1,
          122, 125, 121, -1,
          122, 126, 125, -1,
          122, 117, 119, -1,
          122, 121, 117, -1,
          127, 126, 122, -1,
          127, 128, 129, -1,
          127, 124, 128, -1,
          127, 130, 126, -1,
          127, 131, 130, -1,
          127, 122, 124, -1,
          132, 131, 127, -1,
          132, 133, 134, -1,
          132, 129, 133, -1,
          132, 127, 129, -1,
          132, 135, 131, -1,
          132, 136, 135, -1,
          137, 138, 139, -1,
          137, 134, 138, -1,
          137, 132, 134, -1,
          137, 136, 132, -1,
          137, 140, 136, -1,
          137, 141, 140, -1,
          142, 143, 144, -1,
          142, 139, 143, -1,
          142, 137, 139, -1,
          142, 141, 137, -1,
          142, 145, 141, -1,
          142, 146, 145, -1,
          147, 148, 149, -1,
          147, 144, 148, -1,
          147, 142, 144, -1,
          147, 146, 142, -1,
          147, 150, 146, -1,
          147, 151, 150, -1,
          152, 153, 154, -1,
          152, 149, 153, -1,
          152, 147, 149, -1,
          152, 151, 147, -1,
          152, 155, 151, -1,
          152, 156, 155, -1,
          157, 158, 5, -1,
          157, 154, 158, -1,
          157, 152, 154, -1,
          157, 5, 7, -1,
          157, 156, 152, -1,
          157, 159, 156, -1,
          157, 7, 159, -1,
          160, 161, 162, -1,
          163, 160, 162, -1,
          164, 165, 166, -1,
          164, 167, 165, -1,
          168, 169, 170, -1,
          168, 162, 169, -1,
          168, 171, 163, -1,
          168, 172, 171, -1,
          168, 163, 162, -1,
          173, 174, 175, -1,
          173, 170, 174, -1,
          173, 176, 172, -1,
          173, 177, 176, -1,
          173, 172, 168, -1,
          173, 168, 170, -1,
          178, 179, 180, -1,
          178, 175, 179, -1,
          178, 177, 173, -1,
          178, 181, 177, -1,
          178, 182, 181, -1,
          178, 173, 175, -1,
          183, 182, 178, -1,
          183, 184, 185, -1,
          183, 180, 184, -1,
          183, 178, 180, -1,
          183, 186, 182, -1,
          183, 187, 186, -1,
          188, 189, 190, -1,
          188, 185, 189, -1,
          188, 191, 187, -1,
          188, 192, 191, -1,
          188, 187, 183, -1,
          188, 183, 185, -1,
          193, 194, 195, -1,
          193, 190, 194, -1,
          193, 192, 188, -1,
          193, 196, 192, -1,
          193, 197, 196, -1,
          193, 188, 190, -1,
          198, 199, 200, -1,
          198, 195, 199, -1,
          198, 201, 197, -1,
          198, 202, 201, -1,
          198, 193, 195, -1,
          198, 197, 193, -1,
          203, 204, 205, -1,
          203, 200, 204, -1,
          203, 206, 202, -1,
          203, 207, 206, -1,
          203, 198, 200, -1,
          203, 202, 198, -1,
          208, 207, 203, -1,
          208, 203, 205, -1,
          208, 209, 210, -1,
          208, 205, 209, -1,
          208, 211, 207, -1,
          208, 212, 211, -1,
          213, 214, 215, -1,
          213, 210, 214, -1,
          213, 208, 210, -1,
          213, 212, 208, -1,
          213, 216, 212, -1,
          213, 217, 216, -1,
          218, 219, 220, -1,
          218, 215, 219, -1,
          218, 221, 217, -1,
          218, 222, 221, -1,
          218, 213, 215, -1,
          218, 217, 213, -1,
          223, 222, 218, -1,
          223, 224, 225, -1,
          223, 220, 224, -1,
          223, 226, 222, -1,
          223, 227, 226, -1,
          223, 218, 220, -1,
          228, 229, 230, -1,
          228, 225, 229, -1,
          228, 223, 225, -1,
          228, 227, 223, -1,
          228, 231, 227, -1,
          228, 232, 231, -1,
          233, 234, 235, -1,
          233, 230, 234, -1,
          233, 228, 230, -1,
          233, 236, 232, -1,
          233, 237, 236, -1,
          233, 232, 228, -1,
          238, 237, 233, -1,
          238, 239, 237, -1,
          238, 240, 239, -1,
          238, 233, 235, -1,
          238, 241, 242, -1,
          238, 235, 241, -1,
          243, 240, 238, -1,
          243, 238, 242, -1,
          243, 244, 245, -1,
          243, 246, 240, -1,
          243, 242, 244, -1,
          247, 248, 249, -1,
          247, 245, 248, -1,
          247, 250, 246, -1,
          247, 251, 250, -1,
          247, 246, 243, -1,
          247, 243, 245, -1,
          252, 253, 254, -1,
          252, 249, 253, -1,
          252, 251, 247, -1,
          252, 255, 251, -1,
          252, 256, 255, -1,
          252, 247, 249, -1,
          257, 258, 259, -1,
          257, 254, 258, -1,
          257, 256, 252, -1,
          257, 252, 254, -1,
          257, 260, 256, -1,
          257, 261, 260, -1,
          262, 263, 264, -1,
          262, 259, 263, -1,
          262, 257, 259, -1,
          262, 265, 261, -1,
          262, 266, 265, -1,
          262, 261, 257, -1,
          267, 268, 269, -1,
          267, 264, 268, -1,
          267, 262, 264, -1,
          267, 266, 262, -1,
          267, 270, 266, -1,
          267, 271, 270, -1,
          272, 273, 274, -1,
          272, 269, 273, -1,
          272, 271, 267, -1,
          272, 267, 269, -1,
          272, 275, 271, -1,
          272, 276, 275, -1,
          277, 278, 279, -1,
          277, 274, 278, -1,
          277, 276, 272, -1,
          277, 280, 276, -1,
          277, 272, 274, -1,
          277, 281, 280, -1,
          282, 283, 284, -1,
          282, 279, 283, -1,
          282, 285, 281, -1,
          282, 286, 285, -1,
          282, 277, 279, -1,
          282, 281, 277, -1,
          287, 286, 282, -1,
          287, 288, 289, -1,
          287, 284, 288, -1,
          287, 290, 286, -1,
          287, 291, 290, -1,
          287, 282, 284, -1,
          292, 291, 287, -1,
          292, 293, 294, -1,
          292, 289, 293, -1,
          292, 287, 289, -1,
          292, 295, 291, -1,
          292, 296, 295, -1,
          297, 298, 299, -1,
          297, 294, 298, -1,
          297, 292, 294, -1,
          297, 296, 292, -1,
          297, 300, 296, -1,
          297, 301, 300, -1,
          302, 303, 304, -1,
          302, 299, 303, -1,
          302, 297, 299, -1,
          302, 301, 297, -1,
          302, 305, 301, -1,
          302, 306, 305, -1,
          307, 308, 309, -1,
          307, 304, 308, -1,
          307, 302, 304, -1,
          307, 306, 302, -1,
          307, 310, 306, -1,
          307, 311, 310, -1,
          312, 313, 314, -1,
          312, 309, 313, -1,
          312, 307, 309, -1,
          312, 311, 307, -1,
          312, 315, 311, -1,
          312, 316, 315, -1,
          317, 318, 165, -1,
          317, 314, 318, -1,
          317, 312, 314, -1,
          317, 165, 167, -1,
          317, 316, 312, -1,
          317, 319, 316, -1,
          317, 167, 319, -1,
          167, 0, 3, -1,
          167, 164, 0, -1,
          319, 3, 11, -1,
          319, 167, 3, -1,
          316, 11, 12, -1,
          316, 319, 11, -1,
          315, 12, 16, -1,
          315, 316, 12, -1,
          311, 16, 17, -1,
          311, 315, 16, -1,
          310, 17, 21, -1,
          310, 311, 17, -1,
          306, 21, 22, -1,
          306, 310, 21, -1,
          305, 22, 26, -1,
          305, 306, 22, -1,
          301, 26, 27, -1,
          301, 305, 26, -1,
          300, 27, 31, -1,
          300, 301, 27, -1,
          296, 31, 32, -1,
          296, 300, 31, -1,
          295, 32, 36, -1,
          295, 296, 32, -1,
          291, 36, 37, -1,
          291, 295, 36, -1,
          290, 37, 41, -1,
          290, 291, 37, -1,
          286, 41, 42, -1,
          286, 290, 41, -1,
          285, 42, 46, -1,
          285, 286, 42, -1,
          281, 46, 47, -1,
          281, 47, 51, -1,
          281, 285, 46, -1,
          280, 281, 51, -1,
          280, 51, 52, -1,
          276, 280, 52, -1,
          275, 276, 52, -1,
          275, 52, 56, -1,
          275, 56, 57, -1,
          271, 275, 57, -1,
          270, 271, 57, -1,
          270, 57, 61, -1,
          270, 61, 62, -1,
          266, 270, 62, -1,
          265, 266, 62, -1,
          265, 62, 66, -1,
          265, 66, 67, -1,
          261, 67, 71, -1,
          261, 265, 67, -1,
          260, 71, 72, -1,
          260, 261, 71, -1,
          256, 72, 76, -1,
          256, 260, 72, -1,
          255, 256, 76, -1,
          251, 76, 77, -1,
          251, 255, 76, -1,
          250, 77, 79, -1,
          250, 79, 80, -1,
          250, 251, 77, -1,
          246, 250, 80, -1,
          240, 80, 86, -1,
          240, 246, 80, -1,
          239, 86, 90, -1,
          239, 240, 86, -1,
          237, 90, 91, -1,
          237, 239, 90, -1,
          236, 91, 95, -1,
          236, 95, 96, -1,
          236, 237, 91, -1,
          232, 236, 96, -1,
          231, 96, 100, -1,
          231, 100, 101, -1,
          231, 232, 96, -1,
          227, 231, 101, -1,
          226, 101, 105, -1,
          226, 227, 101, -1,
          222, 105, 106, -1,
          222, 106, 110, -1,
          222, 226, 105, -1,
          221, 222, 110, -1,
          217, 110, 111, -1,
          217, 221, 110, -1,
          216, 217, 111, -1,
          216, 111, 115, -1,
          216, 115, 116, -1,
          212, 216, 116, -1,
          211, 212, 116, -1,
          211, 116, 120, -1,
          207, 211, 120, -1,
          207, 120, 121, -1,
          206, 207, 121, -1,
          206, 121, 125, -1,
          202, 206, 125, -1,
          202, 125, 126, -1,
          201, 202, 126, -1,
          201, 126, 130, -1,
          197, 201, 130, -1,
          197, 130, 131, -1,
          197, 131, 135, -1,
          196, 197, 135, -1,
          192, 196, 135, -1,
          192, 135, 136, -1,
          191, 192, 136, -1,
          191, 136, 140, -1,
          187, 191, 140, -1,
          187, 140, 141, -1,
          186, 187, 141, -1,
          186, 141, 145, -1,
          186, 145, 146, -1,
          182, 186, 146, -1,
          181, 146, 150, -1,
          181, 182, 146, -1,
          177, 150, 151, -1,
          177, 181, 150, -1,
          176, 151, 155, -1,
          176, 177, 151, -1,
          172, 155, 156, -1,
          172, 176, 155, -1,
          171, 156, 159, -1,
          171, 172, 156, -1,
          163, 159, 7, -1,
          163, 171, 159, -1,
          160, 7, 4, -1,
          160, 163, 7, -1,
          88, 320, 89, -1,
          85, 320, 88, -1,
          84, 320, 85, -1,
          321, 322, 323, -1,
          321, 324, 322, -1,
          321, 325, 324, -1,
          134, 326, 138, -1,
          133, 326, 134, -1,
          129, 326, 133, -1,
          128, 326, 129, -1,
          124, 326, 128, -1,
          123, 326, 124, -1,
          123, 327, 326, -1,
          119, 327, 123, -1,
          118, 327, 119, -1,
          114, 327, 118, -1,
          113, 327, 114, -1,
          109, 327, 113, -1,
          108, 327, 109, -1,
          104, 327, 108, -1,
          103, 328, 104, -1,
          99, 328, 103, -1,
          98, 328, 99, -1,
          94, 328, 98, -1,
          93, 328, 94, -1,
          89, 328, 93, -1,
          104, 328, 327, -1,
          320, 328, 89, -1,
          153, 329, 154, -1,
          149, 329, 153, -1,
          148, 329, 149, -1,
          144, 329, 148, -1,
          143, 329, 144, -1,
          139, 329, 143, -1,
          138, 329, 139, -1,
          326, 329, 138, -1,
          326, 330, 329, -1,
          327, 330, 326, -1,
          328, 331, 327, -1,
          332, 331, 320, -1,
          333, 331, 332, -1,
          320, 331, 328, -1,
          327, 331, 330, -1,
          329, 334, 154, -1,
          5, 334, 6, -1,
          158, 334, 5, -1,
          154, 334, 158, -1,
          335, 334, 336, -1,
          337, 334, 335, -1,
          6, 334, 337, -1,
          330, 338, 329, -1,
          329, 338, 334, -1,
          339, 340, 333, -1,
          330, 340, 338, -1,
          333, 340, 331, -1,
          331, 340, 330, -1,
          341, 342, 343, -1,
          344, 342, 341, -1,
          345, 342, 344, -1,
          346, 342, 345, -1,
          347, 342, 346, -1,
          348, 342, 347, -1,
          336, 342, 348, -1,
          334, 342, 336, -1,
          338, 349, 334, -1,
          334, 349, 342, -1,
          350, 351, 352, -1,
          338, 351, 349, -1,
          352, 351, 339, -1,
          340, 351, 338, -1,
          339, 351, 340, -1,
          353, 354, 355, -1,
          356, 354, 353, -1,
          357, 354, 356, -1,
          358, 354, 357, -1,
          359, 354, 358, -1,
          343, 354, 359, -1,
          342, 354, 343, -1,
          342, 360, 354, -1,
          349, 360, 342, -1,
          351, 361, 349, -1,
          362, 361, 350, -1,
          350, 361, 351, -1,
          349, 361, 360, -1,
          360, 363, 354, -1,
          364, 363, 365, -1,
          366, 363, 364, -1,
          367, 363, 366, -1,
          368, 363, 367, -1,
          369, 363, 368, -1,
          370, 363, 369, -1,
          355, 363, 370, -1,
          354, 363, 355, -1,
          321, 371, 372, -1,
          372, 371, 362, -1,
          361, 371, 360, -1,
          360, 371, 363, -1,
          362, 371, 361, -1,
          371, 373, 363, -1,
          321, 373, 371, -1,
          323, 373, 321, -1,
          374, 373, 323, -1,
          375, 373, 374, -1,
          376, 373, 375, -1,
          377, 373, 376, -1,
          378, 373, 377, -1,
          365, 373, 378, -1,
          363, 373, 365, -1,
          248, 379, 249, -1,
          245, 379, 248, -1,
          244, 379, 245, -1,
          380, 381, 382, -1,
          380, 383, 381, -1,
          380, 384, 383, -1,
          294, 385, 298, -1,
          293, 385, 294, -1,
          289, 385, 293, -1,
          288, 385, 289, -1,
          284, 385, 288, -1,
          283, 385, 284, -1,
          279, 386, 283, -1,
          278, 386, 279, -1,
          274, 386, 278, -1,
          273, 386, 274, -1,
          269, 386, 273, -1,
          268, 386, 269, -1,
          264, 386, 268, -1,
          283, 386, 385, -1,
          264, 387, 386, -1,
          263, 387, 264, -1,
          259, 387, 263, -1,
          258, 387, 259, -1,
          254, 387, 258, -1,
          253, 387, 254, -1,
          249, 387, 253, -1,
          379, 387, 249, -1,
          313, 388, 314, -1,
          309, 388, 313, -1,
          308, 388, 309, -1,
          304, 388, 308, -1,
          303, 388, 304, -1,
          299, 388, 303, -1,
          298, 388, 299, -1,
          385, 388, 298, -1,
          386, 389, 385, -1,
          385, 389, 388, -1,
          379, 390, 387, -1,
          387, 390, 386, -1,
          391, 390, 392, -1,
          392, 390, 379, -1,
          386, 390, 389, -1,
          165, 393, 166, -1,
          318, 393, 165, -1,
          314, 393, 318, -1,
          394, 393, 395, -1,
          396, 393, 394, -1,
          166, 393, 396, -1,
          388, 393, 314, -1,
          389, 397, 388, -1,
          388, 397, 393, -1,
          389, 398, 397, -1,
          390, 398, 389, -1,
          391, 398, 390, -1,
          399, 398, 391, -1,
          400, 401, 402, -1,
          403, 401, 400, -1,
          404, 401, 403, -1,
          405, 401, 404, -1,
          406, 401, 405, -1,
          407, 401, 406, -1,
          395, 401, 407, -1,
          393, 401, 395, -1,
          397, 408, 393, -1,
          393, 408, 401, -1,
          397, 409, 408, -1,
          398, 409, 397, -1,
          410, 409, 411, -1,
          411, 409, 399, -1,
          399, 409, 398, -1,
          412, 413, 414, -1,
          415, 413, 412, -1,
          416, 413, 415, -1,
          417, 413, 416, -1,
          418, 413, 417, -1,
          402, 413, 418, -1,
          401, 413, 402, -1,
          401, 419, 413, -1,
          408, 419, 401, -1,
          408, 420, 419, -1,
          410, 420, 409, -1,
          409, 420, 408, -1,
          421, 420, 410, -1,
          419, 422, 413, -1,
          423, 422, 424, -1,
          425, 422, 423, -1,
          426, 422, 425, -1,
          427, 422, 426, -1,
          428, 422, 427, -1,
          429, 422, 428, -1,
          414, 422, 429, -1,
          413, 422, 414, -1,
          421, 430, 420, -1,
          419, 430, 422, -1,
          431, 430, 421, -1,
          380, 430, 431, -1,
          420, 430, 419, -1,
          422, 432, 424, -1,
          382, 432, 380, -1,
          430, 432, 422, -1,
          433, 432, 382, -1,
          434, 432, 433, -1,
          435, 432, 434, -1,
          436, 432, 435, -1,
          437, 432, 436, -1,
          424, 432, 437, -1,
          380, 432, 430, -1,
          242, 379, 244, -1,
          241, 379, 242, -1,
          235, 379, 241, -1,
          380, 438, 384, -1,
          380, 439, 438, -1,
          380, 440, 439, -1,
          234, 441, 235, -1,
          230, 441, 234, -1,
          229, 441, 230, -1,
          225, 441, 229, -1,
          224, 441, 225, -1,
          220, 441, 224, -1,
          235, 441, 379, -1,
          441, 442, 379, -1,
          392, 442, 391, -1,
          379, 442, 392, -1,
          441, 443, 442, -1,
          219, 443, 220, -1,
          215, 443, 219, -1,
          214, 443, 215, -1,
          210, 443, 214, -1,
          209, 443, 210, -1,
          205, 443, 209, -1,
          204, 443, 205, -1,
          220, 443, 441, -1,
          391, 444, 399, -1,
          442, 444, 391, -1,
          443, 445, 442, -1,
          442, 445, 444, -1,
          443, 446, 445, -1,
          204, 446, 443, -1,
          200, 446, 204, -1,
          199, 446, 200, -1,
          195, 446, 199, -1,
          194, 446, 195, -1,
          190, 446, 194, -1,
          189, 446, 190, -1,
          444, 447, 399, -1,
          399, 447, 411, -1,
          411, 447, 410, -1,
          445, 448, 444, -1,
          444, 448, 447, -1,
          445, 449, 448, -1,
          189, 449, 446, -1,
          446, 449, 445, -1,
          185, 449, 189, -1,
          184, 449, 185, -1,
          180, 449, 184, -1,
          179, 449, 180, -1,
          175, 449, 179, -1,
          174, 449, 175, -1,
          170, 449, 174, -1,
          410, 450, 421, -1,
          447, 450, 410, -1,
          447, 451, 450, -1,
          448, 451, 447, -1,
          452, 453, 161, -1,
          454, 453, 452, -1,
          455, 453, 454, -1,
          449, 453, 448, -1,
          169, 453, 170, -1,
          162, 453, 169, -1,
          161, 453, 162, -1,
          448, 453, 451, -1,
          170, 453, 449, -1,
          450, 456, 421, -1,
          421, 456, 431, -1,
          431, 456, 380, -1,
          451, 457, 450, -1,
          450, 457, 456, -1,
          458, 459, 455, -1,
          460, 459, 458, -1,
          461, 459, 460, -1,
          462, 459, 461, -1,
          463, 459, 462, -1,
          464, 459, 463, -1,
          465, 459, 464, -1,
          451, 459, 457, -1,
          455, 459, 453, -1,
          453, 459, 451, -1,
          466, 467, 468, -1,
          469, 467, 466, -1,
          470, 467, 469, -1,
          471, 467, 470, -1,
          472, 467, 471, -1,
          440, 467, 472, -1,
          380, 467, 440, -1,
          456, 467, 380, -1,
          473, 474, 475, -1,
          476, 474, 473, -1,
          477, 474, 476, -1,
          478, 474, 477, -1,
          479, 474, 478, -1,
          480, 474, 479, -1,
          468, 474, 480, -1,
          467, 474, 468, -1,
          457, 474, 456, -1,
          456, 474, 467, -1,
          481, 482, 465, -1,
          483, 482, 481, -1,
          457, 482, 474, -1,
          484, 482, 483, -1,
          485, 482, 484, -1,
          486, 482, 485, -1,
          475, 482, 486, -1,
          465, 482, 459, -1,
          474, 482, 475, -1,
          459, 482, 457, -1,
          82, 320, 84, -1,
          81, 320, 82, -1,
          75, 320, 81, -1,
          321, 487, 325, -1,
          321, 488, 487, -1,
          321, 489, 488, -1,
          74, 490, 75, -1,
          70, 490, 74, -1,
          69, 490, 70, -1,
          65, 490, 69, -1,
          64, 490, 65, -1,
          60, 490, 64, -1,
          75, 490, 320, -1,
          320, 491, 332, -1,
          332, 491, 333, -1,
          490, 491, 320, -1,
          59, 492, 60, -1,
          55, 492, 59, -1,
          54, 492, 55, -1,
          50, 492, 54, -1,
          49, 492, 50, -1,
          45, 492, 49, -1,
          44, 492, 45, -1,
          60, 492, 490, -1,
          490, 492, 491, -1,
          333, 493, 339, -1,
          491, 493, 333, -1,
          492, 494, 491, -1,
          491, 494, 493, -1,
          40, 495, 44, -1,
          39, 495, 40, -1,
          35, 495, 39, -1,
          34, 495, 35, -1,
          30, 495, 34, -1,
          29, 495, 30, -1,
          492, 495, 494, -1,
          44, 495, 492, -1,
          352, 496, 350, -1,
          493, 496, 339, -1,
          339, 496, 352, -1,
          493, 497, 496, -1,
          494, 497, 493, -1,
          25, 498, 29, -1,
          24, 498, 25, -1,
          20, 498, 24, -1,
          19, 498, 20, -1,
          15, 498, 19, -1,
          14, 498, 15, -1,
          10, 498, 14, -1,
          494, 498, 497, -1,
          29, 498, 495, -1,
          495, 498, 494, -1,
          350, 499, 362, -1,
          496, 499, 350, -1,
          497, 500, 496, -1,
          496, 500, 499, -1,
          498, 501, 497, -1,
          502, 501, 1, -1,
          503, 501, 502, -1,
          504, 501, 503, -1,
          497, 501, 500, -1,
          10, 501, 498, -1,
          9, 501, 10, -1,
          2, 501, 9, -1,
          1, 501, 2, -1,
          499, 505, 362, -1,
          372, 505, 321, -1,
          362, 505, 372, -1,
          499, 506, 505, -1,
          500, 506, 499, -1,
          507, 508, 504, -1,
          509, 508, 507, -1,
          510, 508, 509, -1,
          511, 508, 510, -1,
          512, 508, 511, -1,
          513, 508, 512, -1,
          514, 508, 513, -1,
          500, 508, 506, -1,
          504, 508, 501, -1,
          501, 508, 500, -1,
          505, 515, 321, -1,
          516, 515, 517, -1,
          518, 515, 516, -1,
          519, 515, 518, -1,
          520, 515, 519, -1,
          521, 515, 520, -1,
          489, 515, 521, -1,
          321, 515, 489, -1,
          522, 523, 524, -1,
          525, 523, 522, -1,
          526, 523, 525, -1,
          527, 523, 526, -1,
          528, 523, 527, -1,
          529, 523, 528, -1,
          517, 523, 529, -1,
          505, 523, 515, -1,
          515, 523, 517, -1,
          506, 523, 505, -1,
          514, 530, 508, -1,
          508, 530, 506, -1,
          531, 530, 514, -1,
          532, 530, 531, -1,
          533, 530, 532, -1,
          534, 530, 533, -1,
          535, 530, 534, -1,
          524, 530, 535, -1,
          523, 530, 524, -1,
          506, 530, 523, -1,
          536, 160, 4, -1,
          536, 4, 537, -1,
          538, 537, 539, -1,
          538, 536, 537, -1,
          540, 539, 541, -1,
          540, 538, 539, -1,
          542, 541, 543, -1,
          542, 540, 541, -1,
          544, 543, 545, -1,
          544, 542, 543, -1,
          546, 545, 547, -1,
          546, 544, 545, -1,
          548, 547, 549, -1,
          548, 546, 547, -1,
          550, 549, 551, -1,
          550, 548, 549, -1,
          552, 551, 553, -1,
          552, 550, 551, -1,
          554, 553, 555, -1,
          554, 552, 553, -1,
          556, 555, 557, -1,
          556, 554, 555, -1,
          558, 557, 559, -1,
          558, 556, 557, -1,
          560, 559, 561, -1,
          560, 558, 559, -1,
          562, 561, 563, -1,
          562, 560, 561, -1,
          564, 563, 565, -1,
          564, 562, 563, -1,
          566, 565, 567, -1,
          566, 564, 565, -1,
          568, 567, 569, -1,
          568, 566, 567, -1,
          570, 569, 571, -1,
          570, 568, 569, -1,
          572, 570, 571, -1,
          572, 571, 573, -1,
          574, 572, 573, -1,
          574, 573, 575, -1,
          576, 574, 575, -1,
          576, 575, 577, -1,
          578, 576, 577, -1,
          578, 577, 579, -1,
          580, 579, 581, -1,
          580, 578, 579, -1,
          582, 581, 583, -1,
          582, 580, 581, -1,
          584, 583, 585, -1,
          584, 582, 583, -1,
          586, 585, 587, -1,
          586, 584, 585, -1,
          588, 587, 589, -1,
          588, 586, 587, -1,
          590, 589, 591, -1,
          590, 588, 589, -1,
          592, 591, 593, -1,
          592, 590, 591, -1,
          594, 593, 595, -1,
          594, 592, 593, -1,
          596, 595, 597, -1,
          596, 594, 595, -1,
          598, 597, 599, -1,
          598, 596, 597, -1,
          600, 599, 601, -1,
          600, 598, 599, -1,
          602, 601, 603, -1,
          602, 600, 601, -1,
          604, 603, 605, -1,
          604, 602, 603, -1,
          606, 605, 607, -1,
          606, 604, 605, -1,
          608, 607, 609, -1,
          608, 606, 607, -1,
          610, 609, 611, -1,
          610, 608, 609, -1,
          612, 611, 613, -1,
          612, 610, 611, -1,
          614, 613, 615, -1,
          614, 612, 613, -1,
          616, 615, 617, -1,
          616, 614, 615, -1,
          618, 617, 619, -1,
          618, 616, 617, -1,
          620, 618, 619, -1,
          620, 619, 621, -1,
          622, 620, 621, -1,
          622, 621, 623, -1,
          624, 622, 623, -1,
          624, 623, 625, -1,
          626, 624, 625, -1,
          626, 625, 627, -1,
          628, 626, 627, -1,
          628, 627, 629, -1,
          630, 628, 629, -1,
          630, 629, 631, -1,
          632, 630, 631, -1,
          632, 631, 633, -1,
          634, 632, 633, -1,
          634, 633, 635, -1,
          636, 634, 635, -1,
          636, 635, 637, -1,
          638, 636, 637, -1,
          638, 637, 639, -1,
          640, 638, 639, -1,
          640, 639, 641, -1,
          642, 640, 641, -1,
          642, 641, 643, -1,
          644, 642, 643, -1,
          644, 643, 645, -1,
          646, 644, 645, -1,
          646, 645, 647, -1,
          648, 647, 649, -1,
          648, 646, 647, -1,
          650, 649, 651, -1,
          650, 648, 649, -1,
          652, 651, 653, -1,
          652, 650, 651, -1,
          654, 653, 655, -1,
          654, 652, 653, -1,
          656, 655, 657, -1,
          656, 654, 655, -1,
          658, 657, 659, -1,
          658, 656, 657, -1,
          164, 659, 0, -1,
          164, 658, 659, -1,
          164, 166, 396, -1,
          658, 164, 396, -1,
          160, 452, 161, -1,
          160, 536, 452, -1,
          660, 394, 395, -1,
          660, 396, 394, -1,
          660, 658, 396, -1,
          660, 656, 658, -1,
          660, 654, 656, -1,
          661, 407, 406, -1,
          661, 395, 407, -1,
          661, 654, 660, -1,
          661, 660, 395, -1,
          661, 652, 654, -1,
          661, 650, 652, -1,
          662, 650, 661, -1,
          662, 661, 406, -1,
          662, 405, 404, -1,
          662, 406, 405, -1,
          662, 648, 650, -1,
          662, 646, 648, -1,
          663, 403, 400, -1,
          663, 404, 403, -1,
          663, 644, 646, -1,
          663, 642, 644, -1,
          663, 646, 662, -1,
          663, 662, 404, -1,
          664, 402, 418, -1,
          664, 400, 402, -1,
          664, 642, 663, -1,
          664, 663, 400, -1,
          664, 640, 642, -1,
          664, 638, 640, -1,
          665, 417, 416, -1,
          665, 418, 417, -1,
          665, 664, 418, -1,
          665, 638, 664, -1,
          665, 636, 638, -1,
          665, 634, 636, -1,
          666, 415, 412, -1,
          666, 416, 415, -1,
          666, 634, 665, -1,
          666, 665, 416, -1,
          666, 632, 634, -1,
          666, 630, 632, -1,
          667, 414, 429, -1,
          667, 412, 414, -1,
          667, 630, 666, -1,
          667, 666, 412, -1,
          667, 628, 630, -1,
          667, 626, 628, -1,
          668, 626, 667, -1,
          668, 428, 427, -1,
          668, 667, 429, -1,
          668, 429, 428, -1,
          668, 624, 626, -1,
          668, 622, 624, -1,
          669, 426, 425, -1,
          669, 427, 426, -1,
          669, 622, 668, -1,
          669, 668, 427, -1,
          669, 620, 622, -1,
          669, 618, 620, -1,
          670, 423, 424, -1,
          670, 425, 423, -1,
          670, 618, 669, -1,
          670, 669, 425, -1,
          670, 616, 618, -1,
          670, 614, 616, -1,
          671, 437, 436, -1,
          671, 424, 437, -1,
          671, 670, 424, -1,
          671, 614, 670, -1,
          671, 612, 614, -1,
          671, 610, 612, -1,
          672, 435, 434, -1,
          672, 436, 435, -1,
          672, 610, 671, -1,
          672, 608, 610, -1,
          672, 606, 608, -1,
          672, 671, 436, -1,
          673, 433, 382, -1,
          673, 434, 433, -1,
          673, 672, 434, -1,
          673, 606, 672, -1,
          673, 604, 606, -1,
          673, 602, 604, -1,
          674, 381, 383, -1,
          674, 382, 381, -1,
          674, 673, 382, -1,
          674, 602, 673, -1,
          674, 600, 602, -1,
          674, 598, 600, -1,
          675, 383, 384, -1,
          675, 384, 438, -1,
          675, 674, 383, -1,
          675, 598, 674, -1,
          675, 596, 598, -1,
          676, 675, 438, -1,
          676, 596, 675, -1,
          676, 439, 440, -1,
          676, 438, 439, -1,
          676, 594, 596, -1,
          676, 592, 594, -1,
          677, 590, 592, -1,
          677, 588, 590, -1,
          677, 592, 676, -1,
          677, 676, 440, -1,
          677, 472, 471, -1,
          677, 440, 472, -1,
          678, 586, 588, -1,
          678, 584, 586, -1,
          678, 677, 471, -1,
          678, 470, 469, -1,
          678, 471, 470, -1,
          678, 588, 677, -1,
          679, 582, 584, -1,
          679, 580, 582, -1,
          679, 584, 678, -1,
          679, 466, 468, -1,
          679, 469, 466, -1,
          679, 678, 469, -1,
          680, 578, 580, -1,
          680, 576, 578, -1,
          680, 679, 468, -1,
          680, 580, 679, -1,
          680, 480, 479, -1,
          680, 468, 480, -1,
          681, 574, 576, -1,
          681, 572, 574, -1,
          681, 478, 477, -1,
          681, 479, 478, -1,
          681, 576, 680, -1,
          681, 680, 479, -1,
          682, 570, 572, -1,
          682, 568, 570, -1,
          682, 476, 473, -1,
          682, 477, 476, -1,
          682, 572, 681, -1,
          682, 681, 477, -1,
          683, 566, 568, -1,
          683, 564, 566, -1,
          683, 475, 486, -1,
          683, 473, 475, -1,
          683, 682, 473, -1,
          683, 568, 682, -1,
          684, 564, 683, -1,
          684, 683, 486, -1,
          684, 562, 564, -1,
          684, 560, 562, -1,
          684, 485, 484, -1,
          684, 486, 485, -1,
          685, 558, 560, -1,
          685, 556, 558, -1,
          685, 560, 684, -1,
          685, 684, 484, -1,
          685, 483, 481, -1,
          685, 484, 483, -1,
          686, 556, 685, -1,
          686, 554, 556, -1,
          686, 552, 554, -1,
          686, 685, 481, -1,
          686, 465, 464, -1,
          686, 481, 465, -1,
          687, 550, 552, -1,
          687, 548, 550, -1,
          687, 552, 686, -1,
          687, 463, 462, -1,
          687, 464, 463, -1,
          687, 686, 464, -1,
          688, 546, 548, -1,
          688, 544, 546, -1,
          688, 461, 460, -1,
          688, 462, 461, -1,
          688, 687, 462, -1,
          688, 548, 687, -1,
          689, 542, 544, -1,
          689, 540, 542, -1,
          689, 458, 455, -1,
          689, 460, 458, -1,
          689, 544, 688, -1,
          689, 688, 460, -1,
          690, 538, 540, -1,
          690, 536, 538, -1,
          690, 454, 452, -1,
          690, 455, 454, -1,
          690, 452, 536, -1,
          690, 689, 455, -1,
          690, 540, 689, -1,
          4, 6, 337, -1,
          537, 4, 337, -1,
          0, 502, 1, -1,
          0, 659, 502, -1,
          691, 335, 336, -1,
          691, 337, 335, -1,
          691, 537, 337, -1,
          691, 539, 537, -1,
          691, 541, 539, -1,
          692, 348, 347, -1,
          692, 336, 348, -1,
          692, 541, 691, -1,
          692, 691, 336, -1,
          692, 543, 541, -1,
          692, 545, 543, -1,
          693, 545, 692, -1,
          693, 692, 347, -1,
          693, 346, 345, -1,
          693, 347, 346, -1,
          693, 547, 545, -1,
          693, 549, 547, -1,
          694, 344, 341, -1,
          694, 345, 344, -1,
          694, 551, 549, -1,
          694, 553, 551, -1,
          694, 549, 693, -1,
          694, 693, 345, -1,
          695, 343, 359, -1,
          695, 341, 343, -1,
          695, 553, 694, -1,
          695, 694, 341, -1,
          695, 555, 553, -1,
          695, 557, 555, -1,
          696, 358, 357, -1,
          696, 359, 358, -1,
          696, 695, 359, -1,
          696, 557, 695, -1,
          696, 559, 557, -1,
          696, 561, 559, -1,
          697, 356, 353, -1,
          697, 357, 356, -1,
          697, 561, 696, -1,
          697, 696, 357, -1,
          697, 563, 561, -1,
          697, 565, 563, -1,
          698, 355, 370, -1,
          698, 353, 355, -1,
          698, 565, 697, -1,
          698, 697, 353, -1,
          698, 567, 565, -1,
          698, 569, 567, -1,
          699, 569, 698, -1,
          699, 369, 368, -1,
          699, 698, 370, -1,
          699, 370, 369, -1,
          699, 571, 569, -1,
          699, 573, 571, -1,
          700, 367, 366, -1,
          700, 368, 367, -1,
          700, 573, 699, -1,
          700, 699, 368, -1,
          700, 575, 573, -1,
          700, 577, 575, -1,
          701, 364, 365, -1,
          701, 366, 364, -1,
          701, 577, 700, -1,
          701, 700, 366, -1,
          701, 579, 577, -1,
          701, 581, 579, -1,
          702, 378, 377, -1,
          702, 365, 378, -1,
          702, 701, 365, -1,
          702, 581, 701, -1,
          702, 583, 581, -1,
          702, 585, 583, -1,
          703, 376, 375, -1,
          703, 377, 376, -1,
          703, 585, 702, -1,
          703, 587, 585, -1,
          703, 589, 587, -1,
          703, 702, 377, -1,
          704, 374, 323, -1,
          704, 375, 374, -1,
          704, 703, 375, -1,
          704, 589, 703, -1,
          704, 591, 589, -1,
          704, 593, 591, -1,
          705, 322, 324, -1,
          705, 323, 322, -1,
          705, 704, 323, -1,
          705, 593, 704, -1,
          705, 595, 593, -1,
          705, 597, 595, -1,
          706, 324, 325, -1,
          706, 325, 487, -1,
          706, 705, 324, -1,
          706, 597, 705, -1,
          706, 599, 597, -1,
          707, 706, 487, -1,
          707, 599, 706, -1,
          707, 488, 489, -1,
          707, 487, 488, -1,
          707, 601, 599, -1,
          707, 603, 601, -1,
          708, 605, 603, -1,
          708, 607, 605, -1,
          708, 603, 707, -1,
          708, 707, 489, -1,
          708, 521, 520, -1,
          708, 489, 521, -1,
          709, 609, 607, -1,
          709, 611, 609, -1,
          709, 708, 520, -1,
          709, 519, 518, -1,
          709, 520, 519, -1,
          709, 607, 708, -1,
          710, 613, 611, -1,
          710, 615, 613, -1,
          710, 611, 709, -1,
          710, 516, 517, -1,
          710, 518, 516, -1,
          710, 709, 518, -1,
          711, 617, 615, -1,
          711, 619, 617, -1,
          711, 710, 517, -1,
          711, 615, 710, -1,
          711, 529, 528, -1,
          711, 517, 529, -1,
          712, 621, 619, -1,
          712, 623, 621, -1,
          712, 527, 526, -1,
          712, 528, 527, -1,
          712, 619, 711, -1,
          712, 711, 528, -1,
          713, 625, 623, -1,
          713, 627, 625, -1,
          713, 525, 522, -1,
          713, 526, 525, -1,
          713, 623, 712, -1,
          713, 712, 526, -1,
          714, 629, 627, -1,
          714, 631, 629, -1,
          714, 524, 535, -1,
          714, 522, 524, -1,
          714, 713, 522, -1,
          714, 627, 713, -1,
          715, 631, 714, -1,
          715, 714, 535, -1,
          715, 633, 631, -1,
          715, 635, 633, -1,
          715, 534, 533, -1,
          715, 535, 534, -1,
          716, 637, 635, -1,
          716, 639, 637, -1,
          716, 635, 715, -1,
          716, 715, 533, -1,
          716, 532, 531, -1,
          716, 533, 532, -1,
          717, 639, 716, -1,
          717, 641, 639, -1,
          717, 643, 641, -1,
          717, 716, 531, -1,
          717, 514, 513, -1,
          717, 531, 514, -1,
          718, 645, 643, -1,
          718, 647, 645, -1,
          718, 643, 717, -1,
          718, 512, 511, -1,
          718, 513, 512, -1,
          718, 717, 513, -1,
          719, 649, 647, -1,
          719, 651, 649, -1,
          719, 510, 509, -1,
          719, 511, 510, -1,
          719, 718, 511, -1,
          719, 647, 718, -1,
          720, 653, 651, -1,
          720, 655, 653, -1,
          720, 507, 504, -1,
          720, 509, 507, -1,
          720, 651, 719, -1,
          720, 719, 509, -1,
          721, 657, 655, -1,
          721, 659, 657, -1,
          721, 503, 502, -1,
          721, 504, 503, -1,
          721, 502, 659, -1,
          721, 720, 504, -1,
          721, 655, 720, -1
        ]
      }
    }
}
