#VRML V2.0 utf8
WorldInfo {
  title "Exported triangle mesh to VRML97"
  info ["Created by FreeCAD"
        "<https://www.freecad.org>"]
}

Transform {
  scale 1 1 1
  rotation 0 0 1 0
  scaleOrientation 0 0 1 0
  center 0.000 0.000 0.000
  translation 0.000 0.000 0.000
  children
    Shape { 
      appearance
      Appearance {
        material
        Material {
          diffuseColor 0.8 0.8 0.8
        }
      }
      geometry
      IndexedFaceSet {
        coord
        Coordinate {
          point [
            7.091 1.248 4.997,
            6.774 1.240 4.997,
            6.774 1.381 4.855,
            7.084 1.389 4.855,
            7.407 1.271 4.997,
            7.393 1.412 4.855,
            7.721 1.311 4.997,
            7.700 1.451 4.855,
            8.033 1.366 4.997,
            8.005 1.504 4.855,
            8.341 1.436 4.997,
            8.306 1.573 4.855,
            8.646 1.522 4.997,
            8.604 1.657 4.855,
            8.946 1.623 4.997,
            8.898 1.756 4.855,
            9.241 1.738 4.997,
            9.186 1.869 4.855,
            9.530 1.869 4.997,
            9.468 1.996 4.855,
            9.811 2.013 4.997,
            9.744 2.137 4.855,
            10.086 2.171 4.997,
            10.012 2.292 4.855,
            10.351 2.343 4.997,
            10.272 2.460 4.855,
            10.523 2.641 4.855,
            10.609 2.528 4.997,
            10.856 2.725 4.997,
            10.765 2.834 4.855,
            11.093 2.935 4.997,
            10.997 3.039 4.855,
            11.219 3.255 4.855,
            11.320 3.156 4.997,
            11.429 3.482 4.855,
            11.536 3.388 4.997,
            11.739 3.631 4.997,
            11.628 3.719 4.855,
            11.815 3.966 4.855,
            11.930 3.883 4.997,
            12.109 4.145 4.997,
            11.990 4.221 4.855,
            12.151 4.486 4.855,
            12.274 4.415 4.997,
            12.425 4.693 4.997,
            12.299 4.757 4.855,
            12.562 4.978 4.997,
            12.434 5.036 4.855,
            12.685 5.270 4.997,
            12.554 5.322 4.855,
            12.794 5.567 4.997,
            12.660 5.613 4.855,
            12.887 5.870 4.997,
            12.751 5.908 4.855,
            12.965 6.177 4.997,
            12.827 6.208 4.855,
            13.028 6.487 4.997,
            12.889 6.512 4.855,
            13.075 6.800 4.997,
            12.935 6.818 4.855,
            13.107 7.115 4.997,
            12.966 7.126 4.855,
            13.122 7.432 4.997,
            12.981 7.435 4.855,
            13.122 7.748 4.997,
            12.981 7.745 4.855,
            13.107 8.064 4.997,
            12.966 8.054 4.855,
            13.075 8.379 4.997,
            12.935 8.362 4.855,
            13.028 8.693 4.997,
            12.889 8.668 4.855,
            12.965 9.003 4.997,
            12.827 8.971 4.855,
            12.887 9.310 4.997,
            12.751 9.271 4.855,
            12.794 9.612 4.997,
            12.660 9.567 4.855,
            12.685 9.910 4.997,
            12.554 9.858 4.855,
            12.562 10.202 4.997,
            12.434 10.143 4.855,
            12.425 10.487 4.997,
            12.299 10.422 4.855,
            12.274 10.765 4.997,
            12.151 10.694 4.855,
            12.109 11.035 4.997,
            11.990 10.958 4.855,
            11.930 11.297 4.997,
            11.815 11.214 4.855,
            11.739 11.549 4.997,
            11.628 11.461 4.855,
            11.536 11.792 4.997,
            11.429 11.698 4.855,
            11.320 12.024 4.997,
            11.219 11.925 4.855,
            10.997 12.141 4.855,
            11.093 12.245 4.997,
            10.856 12.454 4.997,
            10.765 12.346 4.855,
            10.609 12.652 4.997,
            10.523 12.539 4.855,
            10.351 12.836 4.997,
            10.272 12.720 4.855,
            10.012 12.888 4.855,
            10.086 13.008 4.997,
            9.811 13.167 4.997,
            9.744 13.042 4.855,
            9.530 13.311 4.997,
            9.468 13.184 4.855,
            9.241 13.441 4.997,
            9.186 13.311 4.855,
            8.946 13.557 4.997,
            8.898 13.424 4.855,
            8.646 13.658 4.997,
            8.604 13.523 4.855,
            8.341 13.743 4.997,
            8.306 13.606 4.855,
            8.033 13.814 4.997,
            8.005 13.675 4.855,
            7.721 13.869 4.997,
            7.700 13.729 4.855,
            7.407 13.908 4.997,
            7.393 13.768 4.855,
            7.091 13.932 4.997,
            7.084 13.791 4.855,
            6.774 13.940 4.997,
            6.774 13.798 4.855,
            6.774 13.940 10.269,
            7.091 13.932 10.269,
            7.407 13.908 10.269,
            7.721 13.869 10.269,
            8.033 13.814 10.269,
            8.341 13.743 10.269,
            8.646 13.658 10.269,
            8.946 13.557 10.269,
            9.241 13.441 10.269,
            9.530 13.311 10.269,
            9.811 13.167 10.269,
            10.086 13.008 10.269,
            10.351 12.836 10.269,
            10.609 12.652 10.269,
            10.856 12.454 10.269,
            11.093 12.245 10.269,
            11.320 12.024 10.269,
            11.536 11.792 10.269,
            11.739 11.549 10.269,
            11.930 11.297 10.269,
            12.109 11.035 10.269,
            12.274 10.765 10.269,
            12.425 10.487 10.269,
            12.562 10.202 10.269,
            12.685 9.910 10.269,
            12.794 9.612 10.269,
            12.887 9.310 10.269,
            12.965 9.003 10.269,
            13.028 8.693 10.269,
            13.075 8.379 10.269,
            13.107 8.064 10.269,
            13.122 7.748 10.269,
            13.122 7.432 10.269,
            13.107 7.115 10.269,
            13.075 6.800 10.269,
            13.028 6.487 10.269,
            12.965 6.177 10.269,
            12.887 5.870 10.269,
            12.794 5.567 10.269,
            12.685 5.270 10.269,
            12.562 4.978 10.269,
            12.425 4.693 10.269,
            12.274 4.415 10.269,
            12.109 4.145 10.269,
            11.930 3.883 10.269,
            11.739 3.631 10.269,
            11.536 3.388 10.269,
            11.320 3.156 10.269,
            11.093 2.935 10.269,
            10.856 2.725 10.269,
            10.609 2.528 10.269,
            10.351 2.343 10.269,
            10.086 2.171 10.269,
            9.811 2.013 10.269,
            9.530 1.869 10.269,
            9.241 1.738 10.269,
            8.946 1.623 10.269,
            8.646 1.522 10.269,
            8.341 1.436 10.269,
            8.033 1.366 10.269,
            7.721 1.311 10.269,
            7.407 1.271 10.269,
            7.091 1.248 10.269,
            6.774 1.240 10.269,
            6.774 13.798 10.411,
            7.084 13.791 10.411,
            7.393 13.768 10.411,
            7.700 13.729 10.411,
            8.005 13.675 10.411,
            8.306 13.606 10.411,
            8.604 13.523 10.411,
            8.898 13.424 10.411,
            9.186 13.311 10.411,
            9.468 13.184 10.411,
            9.744 13.042 10.411,
            10.012 12.888 10.411,
            10.272 12.720 10.411,
            10.523 12.539 10.411,
            10.765 12.346 10.411,
            10.997 12.141 10.411,
            11.219 11.925 10.411,
            11.429 11.698 10.411,
            11.628 11.461 10.411,
            11.815 11.214 10.411,
            11.990 10.958 10.411,
            12.151 10.694 10.411,
            12.299 10.422 10.411,
            12.434 10.143 10.411,
            12.554 9.858 10.411,
            12.660 9.567 10.411,
            12.751 9.271 10.411,
            12.827 8.971 10.411,
            12.889 8.668 10.411,
            12.935 8.362 10.411,
            12.966 8.054 10.411,
            12.981 7.745 10.411,
            12.981 7.435 10.411,
            12.966 7.126 10.411,
            12.935 6.818 10.411,
            12.889 6.512 10.411,
            12.827 6.208 10.411,
            12.751 5.908 10.411,
            12.660 5.613 10.411,
            12.554 5.322 10.411,
            12.434 5.036 10.411,
            12.299 4.757 10.411,
            12.151 4.486 10.411,
            11.990 4.221 10.411,
            11.815 3.966 10.411,
            11.628 3.719 10.411,
            11.429 3.482 10.411,
            11.219 3.255 10.411,
            10.997 3.039 10.411,
            10.765 2.834 10.411,
            10.523 2.641 10.411,
            10.272 2.460 10.411,
            10.012 2.292 10.411,
            9.744 2.137 10.411,
            9.468 1.996 10.411,
            9.186 1.869 10.411,
            8.898 1.756 10.411,
            8.604 1.657 10.411,
            8.306 1.573 10.411,
            8.005 1.504 10.411,
            7.700 1.451 10.411,
            7.393 1.412 10.411,
            7.084 1.389 10.411,
            6.774 1.381 10.411,
            6.774 1.960 10.125,
            6.465 1.389 10.411,
            6.156 1.412 10.411,
            6.774 13.220 10.125,
            6.465 13.791 10.411,
            6.156 13.768 10.411,
            1.559 4.221 10.411,
            1.399 4.662 10.365,
            1.398 4.486 10.411,
            1.250 4.757 10.411,
            1.115 5.036 10.411,
            3.537 2.292 10.411,
            3.133 2.825 10.302,
            3.277 2.460 10.411,
            3.026 2.641 10.411,
            2.784 2.834 10.411,
            2.551 3.039 10.411,
            2.255 4.161 10.145,
            2.330 3.255 10.411,
            2.119 3.482 10.411,
            1.920 3.719 10.411,
            1.733 3.966 10.411,
            4.363 1.869 10.411,
            4.028 2.327 10.272,
            4.081 1.996 10.411,
            3.805 2.137 10.411,
            1.399 5.489 10.192,
            0.995 5.322 10.411,
            0.889 5.613 10.411,
            0.798 5.908 10.411,
            3.133 3.660 10.002,
            5.242 1.573 10.411,
            4.936 1.848 10.318,
            4.944 1.657 10.411,
            4.651 1.756 10.411,
            2.255 5.004 9.938,
            4.028 3.165 9.938,
            1.399 6.325 10.076,
            0.721 6.208 10.411,
            0.660 6.512 10.411,
            0.614 6.818 10.411,
            3.133 4.514 9.761,
            4.936 2.685 9.951,
            2.255 5.859 9.789,
            4.028 4.025 9.662,
            6.774 2.552 9.867,
            5.853 2.225 10.040,
            5.849 1.451 10.411,
            5.544 1.504 10.411,
            1.399 7.168 10.018,
            0.583 7.126 10.411,
            0.568 7.435 10.411,
            3.133 5.382 9.579,
            4.936 3.544 9.642,
            2.255 6.722 9.699,
            4.028 4.901 9.447,
            5.853 3.080 9.700,
            6.774 3.156 9.639,
            6.774 3.770 9.440,
            1.399 8.012 10.018,
            0.568 7.745 10.411,
            0.583 8.054 10.411,
            0.614 8.362 10.411,
            3.133 6.261 9.457,
            4.936 4.423 9.394,
            2.255 7.590 9.669,
            4.028 5.790 9.292,
            5.853 3.956 9.419,
            6.774 4.393 9.270,
            1.399 8.854 10.076,
            0.660 8.668 10.411,
            0.721 8.971 10.411,
            0.798 9.271 10.411,
            3.133 7.146 9.396,
            4.936 5.317 9.206,
            2.255 8.457 9.699,
            4.028 6.688 9.199,
            5.853 4.849 9.199,
            6.774 5.023 9.131,
            1.399 9.691 10.192,
            0.889 9.567 10.411,
            0.995 9.858 10.411,
            1.115 10.143 10.411,
            3.133 8.034 9.396,
            4.936 6.222 9.080,
            2.255 9.321 9.789,
            4.028 7.590 9.168,
            5.853 5.755 9.041,
            6.774 5.660 9.023,
            6.774 6.301 8.945,
            1.399 10.517 10.365,
            1.250 10.422 10.411,
            1.398 10.694 10.411,
            1.559 10.958 10.411,
            3.133 8.919 9.457,
            4.936 7.133 9.018,
            2.255 10.176 9.938,
            4.028 8.492 9.199,
            6.774 6.944 8.898,
            5.853 6.670 8.946,
            3.133 9.798 9.579,
            4.936 8.047 9.018,
            2.255 11.018 10.145,
            1.733 11.214 10.411,
            1.920 11.461 10.411,
            2.119 11.698 10.411,
            2.330 11.925 10.411,
            4.028 9.389 9.292,
            5.853 7.590 8.915,
            6.774 8.235 8.898,
            6.774 7.590 8.883,
            3.133 10.666 9.761,
            4.936 8.958 9.080,
            4.028 10.279 9.447,
            6.774 8.879 8.945,
            5.853 8.509 8.946,
            3.133 11.520 10.002,
            2.551 12.141 10.411,
            4.936 9.862 9.206,
            4.028 11.155 9.662,
            6.774 10.156 9.131,
            5.853 9.424 9.041,
            6.774 9.520 9.023,
            3.133 12.355 10.302,
            2.784 12.346 10.411,
            3.026 12.539 10.411,
            3.277 12.720 10.411,
            3.537 12.888 10.411,
            4.936 10.756 9.394,
            4.028 12.014 9.938,
            6.774 10.787 9.270,
            5.853 10.331 9.199,
            4.936 11.635 9.642,
            4.028 12.853 10.272,
            3.805 13.042 10.411,
            4.081 13.184 10.411,
            4.363 13.311 10.411,
            6.774 11.410 9.440,
            5.853 11.224 9.419,
            4.936 12.495 9.951,
            6.774 12.628 9.867,
            5.853 12.100 9.700,
            6.774 12.024 9.639,
            4.936 13.331 10.318,
            4.651 13.424 10.411,
            4.944 13.523 10.411,
            5.242 13.606 10.411,
            5.853 12.955 10.040,
            5.544 13.675 10.411,
            5.849 13.729 10.411,
            6.465 13.791 4.855,
            6.774 13.220 5.141,
            6.156 13.768 4.855,
            6.774 1.960 5.141,
            6.465 1.389 4.855,
            6.156 1.412 4.855,
            1.250 10.422 4.855,
            1.399 10.517 4.901,
            1.115 10.143 4.855,
            1.398 10.694 4.855,
            1.559 10.958 4.855,
            2.784 12.346 4.855,
            3.133 12.355 4.963,
            2.551 12.141 4.855,
            3.026 12.539 4.855,
            3.277 12.720 4.855,
            3.537 12.888 4.855,
            2.255 11.018 5.121,
            1.733 11.214 4.855,
            1.920 11.461 4.855,
            2.119 11.698 4.855,
            2.330 11.925 4.855,
            3.805 13.042 4.855,
            4.028 12.853 4.994,
            4.081 13.184 4.855,
            4.363 13.311 4.855,
            0.889 9.567 4.855,
            1.399 9.691 5.074,
            0.798 9.271 4.855,
            0.995 9.858 4.855,
            3.133 11.520 5.263,
            4.651 13.424 4.855,
            4.936 13.331 4.948,
            4.944 13.523 4.855,
            5.242 13.606 4.855,
            2.255 10.176 5.328,
            4.028 12.014 5.328,
            1.399 8.854 5.190,
            0.660 8.668 4.855,
            0.614 8.362 4.855,
            0.721 8.971 4.855,
            3.133 10.666 5.505,
            4.936 12.495 5.315,
            2.255 9.321 5.477,
            4.028 11.155 5.603,
            5.853 12.955 5.226,
            5.544 13.675 4.855,
            5.849 13.729 4.855,
            6.774 12.628 5.398,
            0.568 7.745 4.855,
            1.399 8.012 5.248,
            0.568 7.435 4.855,
            0.583 8.054 4.855,
            3.133 9.798 5.687,
            4.936 11.635 5.623,
            2.255 8.457 5.567,
            4.028 10.279 5.819,
            5.853 12.100 5.566,
            6.774 11.410 5.826,
            6.774 12.024 5.627,
            1.399 7.168 5.248,
            0.583 7.126 4.855,
            0.614 6.818 4.855,
            3.133 8.919 5.809,
            4.936 10.756 5.872,
            2.255 7.590 5.596,
            4.028 9.389 5.974,
            5.853 11.224 5.847,
            6.774 10.787 5.995,
            1.399 6.325 5.190,
            0.721 6.208 4.855,
            0.798 5.908 4.855,
            0.660 6.512 4.855,
            3.133 8.034 5.870,
            4.936 9.862 6.060,
            2.255 6.722 5.567,
            4.028 8.492 6.067,
            5.853 10.331 6.067,
            6.774 10.156 6.134,
            0.995 5.322 4.855,
            1.399 5.489 5.074,
            1.115 5.036 4.855,
            0.889 5.613 4.855,
            3.133 7.146 5.870,
            4.936 8.958 6.185,
            2.255 5.859 5.477,
            4.028 7.590 6.098,
            5.853 9.424 6.224,
            6.774 8.879 6.321,
            6.774 9.520 6.243,
            1.399 4.662 4.901,
            1.398 4.486 4.855,
            1.559 4.221 4.855,
            1.250 4.757 4.855,
            3.133 6.261 5.809,
            4.936 8.047 6.248,
            2.255 5.004 5.328,
            4.028 6.688 6.067,
            5.853 8.509 6.319,
            6.774 8.235 6.367,
            3.133 5.382 5.687,
            4.936 7.133 6.248,
            2.119 3.482 4.855,
            2.255 4.161 5.121,
            2.330 3.255 4.855,
            1.920 3.719 4.855,
            1.733 3.966 4.855,
            4.028 5.790 5.974,
            5.853 7.590 6.351,
            6.774 6.944 6.367,
            6.774 7.590 6.383,
            3.133 4.514 5.505,
            4.936 6.222 6.185,
            4.028 4.901 5.819,
            6.774 6.301 6.321,
            5.853 6.670 6.319,
            3.133 3.660 5.263,
            2.551 3.039 4.855,
            4.936 5.317 6.060,
            4.028 4.025 5.603,
            5.853 5.755 6.224,
            6.774 5.660 6.243,
            6.774 5.023 6.134,
            3.277 2.460 4.855,
            3.133 2.825 4.963,
            3.537 2.292 4.855,
            3.026 2.641 4.855,
            2.784 2.834 4.855,
            4.936 4.423 5.872,
            4.028 3.165 5.328,
            5.853 4.849 6.067,
            6.774 4.393 5.995,
            4.936 3.544 5.623,
            4.081 1.996 4.855,
            4.028 2.327 4.994,
            4.363 1.869 4.855,
            3.805 2.137 4.855,
            5.853 3.956 5.847,
            6.774 3.770 5.826,
            4.936 2.685 5.315,
            5.853 3.080 5.566,
            6.774 3.156 5.627,
            6.774 2.552 5.398,
            4.944 1.657 4.855,
            4.936 1.848 4.948,
            5.242 1.573 4.855,
            4.651 1.756 4.855,
            5.849 1.451 4.855,
            5.853 2.225 5.226,
            5.544 1.504 4.855,
            7.696 13.373 5.033,
            7.696 12.530 5.403,
            8.613 12.916 5.138,
            7.696 11.664 5.714,
            8.613 12.068 5.477,
            7.696 10.779 5.964,
            9.521 12.436 5.168,
            8.613 11.198 5.755,
            7.696 9.879 6.153,
            9.521 11.587 5.473,
            8.613 10.311 5.974,
            10.416 11.940 5.121,
            7.696 8.968 6.280,
            9.521 10.719 5.719,
            8.613 9.411 6.130,
            10.416 11.095 5.391,
            7.696 8.050 6.343,
            9.521 9.835 5.904,
            11.294 11.434 4.995,
            8.613 8.503 6.224,
            10.416 10.233 5.603,
            7.696 7.130 6.343,
            9.521 8.941 6.028,
            11.294 10.599 5.232,
            8.613 7.590 6.256,
            10.416 9.359 5.756,
            7.696 6.212 6.280,
            9.521 8.041 6.090,
            11.294 9.749 5.410,
            8.613 6.677 6.224,
            10.416 8.477 5.847,
            12.150 10.106 4.994,
            7.696 5.301 6.153,
            9.521 7.139 6.090,
            11.294 8.890 5.529,
            8.613 5.768 6.130,
            10.416 7.590 5.878,
            12.150 9.274 5.139,
            7.696 4.401 5.964,
            9.521 6.238 6.028,
            11.294 8.024 5.589,
            8.613 4.869 5.974,
            10.416 6.703 5.847,
            12.150 8.434 5.226,
            7.696 3.515 5.714,
            9.521 5.344 5.904,
            11.294 7.156 5.589,
            8.613 3.982 5.755,
            10.416 5.820 5.756,
            12.150 7.590 5.255,
            7.696 2.650 5.403,
            9.521 4.461 5.719,
            11.294 6.290 5.529,
            8.613 3.112 5.477,
            10.416 4.946 5.603,
            12.150 6.746 5.226,
            7.696 1.807 5.033,
            9.521 3.593 5.473,
            11.294 5.430 5.410,
            8.613 2.263 5.138,
            10.416 4.085 5.391,
            12.150 5.906 5.139,
            9.521 2.743 5.168,
            11.294 4.581 5.232,
            10.416 3.240 5.121,
            12.150 5.074 4.994,
            11.294 3.746 4.995,
            7.696 1.807 10.232,
            7.696 2.650 9.862,
            8.613 2.263 10.127,
            7.696 3.515 9.552,
            8.613 3.112 9.789,
            7.696 4.401 9.301,
            9.521 2.743 10.098,
            8.613 3.982 9.510,
            7.696 5.301 9.112,
            9.521 3.593 9.793,
            8.613 4.869 9.292,
            10.416 3.240 10.145,
            7.696 6.212 8.986,
            9.521 4.461 9.547,
            8.613 5.768 9.135,
            10.416 4.085 9.874,
            7.696 7.130 8.923,
            9.521 5.344 9.362,
            11.294 3.746 10.270,
            8.613 6.677 9.041,
            10.416 4.946 9.662,
            7.696 8.050 8.923,
            9.521 6.238 9.238,
            11.294 4.581 10.034,
            8.613 7.590 9.010,
            10.416 5.820 9.510,
            7.696 8.968 8.986,
            9.521 7.139 9.176,
            11.294 5.430 9.856,
            8.613 8.503 9.041,
            10.416 6.703 9.418,
            12.150 5.074 10.271,
            7.696 9.879 9.112,
            9.521 8.041 9.176,
            11.294 6.290 9.736,
            8.613 9.411 9.135,
            10.416 7.590 9.388,
            12.150 5.906 10.127,
            7.696 10.779 9.301,
            9.521 8.941 9.238,
            11.294 7.156 9.677,
            8.613 10.311 9.292,
            10.416 8.477 9.418,
            12.150 6.746 10.039,
            7.696 11.664 9.552,
            9.521 9.835 9.362,
            11.294 8.024 9.677,
            8.613 11.198 9.510,
            10.416 9.359 9.510,
            12.150 7.590 10.010,
            7.696 12.530 9.862,
            9.521 10.719 9.547,
            11.294 8.890 9.736,
            8.613 12.068 9.789,
            10.416 10.233 9.662,
            12.150 8.434 10.039,
            7.696 13.373 10.232,
            9.521 11.587 9.793,
            11.294 9.749 9.856,
            8.613 12.916 10.127,
            10.416 11.095 9.874,
            12.150 9.274 10.127,
            9.521 12.436 10.098,
            11.294 10.599 10.034,
            10.416 11.940 10.145,
            12.150 10.106 10.271,
            11.294 11.434 10.270,
            6.458 1.248 10.269,
            6.142 1.271 10.269,
            5.828 1.311 10.269,
            5.516 1.366 10.269,
            5.207 1.436 10.269,
            4.903 1.522 10.269,
            4.603 1.623 10.269,
            4.308 1.738 10.269,
            4.019 1.869 10.269,
            3.737 2.013 10.269,
            3.463 2.171 10.269,
            3.197 2.343 10.269,
            2.940 2.528 10.269,
            2.693 2.725 10.269,
            2.455 2.935 10.269,
            2.229 3.156 10.269,
            2.013 3.388 10.269,
            1.810 3.631 10.269,
            1.619 3.883 10.269,
            1.440 4.145 10.269,
            1.275 4.415 10.269,
            1.124 4.693 10.269,
            0.986 4.978 10.269,
            0.863 5.270 10.269,
            0.755 5.567 10.269,
            0.662 5.870 10.269,
            0.584 6.177 10.269,
            0.521 6.487 10.269,
            0.474 6.800 10.269,
            0.442 7.115 10.269,
            0.426 7.432 10.269,
            0.426 7.748 10.269,
            0.442 8.064 10.269,
            0.474 8.379 10.269,
            0.521 8.693 10.269,
            0.584 9.003 10.269,
            0.662 9.310 10.269,
            0.755 9.612 10.269,
            0.863 9.910 10.269,
            0.986 10.202 10.269,
            1.124 10.487 10.269,
            1.275 10.765 10.269,
            1.440 11.035 10.269,
            1.619 11.297 10.269,
            1.810 11.549 10.269,
            2.013 11.792 10.269,
            2.229 12.024 10.269,
            2.455 12.245 10.269,
            2.693 12.454 10.269,
            2.940 12.652 10.269,
            3.197 12.836 10.269,
            3.463 13.008 10.269,
            3.737 13.167 10.269,
            4.019 13.311 10.269,
            4.308 13.441 10.269,
            4.603 13.557 10.269,
            4.903 13.658 10.269,
            5.207 13.743 10.269,
            5.516 13.814 10.269,
            5.828 13.869 10.269,
            6.142 13.908 10.269,
            6.458 13.932 10.269,
            6.458 1.248 4.997,
            6.142 1.271 4.997,
            5.828 1.311 4.997,
            5.516 1.366 4.997,
            5.207 1.436 4.997,
            4.903 1.522 4.997,
            4.603 1.623 4.997,
            4.308 1.738 4.997,
            4.019 1.869 4.997,
            3.737 2.013 4.997,
            3.463 2.171 4.997,
            3.197 2.343 4.997,
            2.940 2.528 4.997,
            2.693 2.725 4.997,
            2.455 2.935 4.997,
            2.229 3.156 4.997,
            2.013 3.388 4.997,
            1.810 3.631 4.997,
            1.619 3.883 4.997,
            1.440 4.145 4.997,
            1.275 4.415 4.997,
            1.124 4.693 4.997,
            0.986 4.978 4.997,
            0.863 5.270 4.997,
            0.755 5.567 4.997,
            0.662 5.870 4.997,
            0.584 6.177 4.997,
            0.521 6.487 4.997,
            0.474 6.800 4.997,
            0.442 7.115 4.997,
            0.426 7.432 4.997,
            0.426 7.748 4.997,
            0.442 8.064 4.997,
            0.474 8.379 4.997,
            0.521 8.693 4.997,
            0.584 9.003 4.997,
            0.662 9.310 4.997,
            0.755 9.612 4.997,
            0.863 9.910 4.997,
            0.986 10.202 4.997,
            1.124 10.487 4.997,
            1.275 10.765 4.997,
            1.440 11.035 4.997,
            1.619 11.297 4.997,
            1.810 11.549 4.997,
            2.013 11.792 4.997,
            2.229 12.024 4.997,
            2.455 12.245 4.997,
            2.693 12.454 4.997,
            2.940 12.652 4.997,
            3.197 12.836 4.997,
            3.463 13.008 4.997,
            3.737 13.167 4.997,
            4.019 13.311 4.997,
            4.308 13.441 4.997,
            4.603 13.557 4.997,
            4.903 13.658 4.997,
            5.207 13.743 4.997,
            5.516 13.814 4.997,
            5.828 13.869 4.997,
            6.142 13.908 4.997,
            6.458 13.932 4.997
          ]
        }
        coordIndex [
          0, 1, 2, -1,
          0, 2, 3, -1,
          4, 0, 3, -1,
          4, 3, 5, -1,
          6, 4, 5, -1,
          6, 5, 7, -1,
          8, 6, 7, -1,
          8, 7, 9, -1,
          10, 8, 9, -1,
          10, 9, 11, -1,
          12, 10, 11, -1,
          12, 11, 13, -1,
          14, 13, 15, -1,
          14, 12, 13, -1,
          16, 15, 17, -1,
          16, 14, 15, -1,
          18, 17, 19, -1,
          18, 16, 17, -1,
          20, 19, 21, -1,
          20, 18, 19, -1,
          22, 21, 23, -1,
          22, 20, 21, -1,
          24, 23, 25, -1,
          24, 22, 23, -1,
          26, 24, 25, -1,
          27, 24, 26, -1,
          28, 26, 29, -1,
          28, 27, 26, -1,
          30, 29, 31, -1,
          30, 28, 29, -1,
          32, 30, 31, -1,
          33, 30, 32, -1,
          34, 33, 32, -1,
          35, 33, 34, -1,
          36, 34, 37, -1,
          36, 35, 34, -1,
          38, 36, 37, -1,
          39, 36, 38, -1,
          40, 39, 38, -1,
          40, 38, 41, -1,
          42, 40, 41, -1,
          43, 40, 42, -1,
          44, 43, 42, -1,
          44, 42, 45, -1,
          46, 44, 45, -1,
          46, 45, 47, -1,
          48, 46, 47, -1,
          48, 47, 49, -1,
          50, 48, 49, -1,
          50, 49, 51, -1,
          52, 50, 51, -1,
          52, 51, 53, -1,
          54, 53, 55, -1,
          54, 52, 53, -1,
          56, 55, 57, -1,
          56, 54, 55, -1,
          58, 57, 59, -1,
          58, 56, 57, -1,
          60, 59, 61, -1,
          60, 58, 59, -1,
          62, 61, 63, -1,
          62, 60, 61, -1,
          64, 63, 65, -1,
          64, 62, 63, -1,
          66, 65, 67, -1,
          66, 64, 65, -1,
          68, 67, 69, -1,
          68, 66, 67, -1,
          70, 69, 71, -1,
          70, 68, 69, -1,
          72, 71, 73, -1,
          72, 70, 71, -1,
          74, 73, 75, -1,
          74, 72, 73, -1,
          76, 75, 77, -1,
          76, 74, 75, -1,
          78, 77, 79, -1,
          78, 76, 77, -1,
          80, 79, 81, -1,
          80, 78, 79, -1,
          82, 81, 83, -1,
          82, 80, 81, -1,
          84, 83, 85, -1,
          84, 82, 83, -1,
          86, 85, 87, -1,
          86, 84, 85, -1,
          88, 86, 87, -1,
          88, 87, 89, -1,
          90, 88, 89, -1,
          90, 89, 91, -1,
          92, 90, 91, -1,
          92, 91, 93, -1,
          94, 92, 93, -1,
          94, 93, 95, -1,
          96, 94, 95, -1,
          97, 94, 96, -1,
          98, 96, 99, -1,
          98, 97, 96, -1,
          100, 99, 101, -1,
          100, 98, 99, -1,
          102, 101, 103, -1,
          102, 100, 101, -1,
          104, 102, 103, -1,
          105, 102, 104, -1,
          106, 104, 107, -1,
          106, 105, 104, -1,
          108, 107, 109, -1,
          108, 106, 107, -1,
          110, 109, 111, -1,
          110, 108, 109, -1,
          112, 111, 113, -1,
          112, 110, 111, -1,
          114, 113, 115, -1,
          114, 112, 113, -1,
          116, 115, 117, -1,
          116, 114, 115, -1,
          118, 117, 119, -1,
          118, 116, 117, -1,
          120, 119, 121, -1,
          120, 118, 119, -1,
          122, 121, 123, -1,
          122, 120, 121, -1,
          124, 123, 125, -1,
          124, 122, 123, -1,
          126, 125, 127, -1,
          126, 124, 125, -1,
          124, 128, 129, -1,
          124, 126, 128, -1,
          122, 129, 130, -1,
          122, 124, 129, -1,
          120, 130, 131, -1,
          120, 122, 130, -1,
          118, 131, 132, -1,
          118, 132, 133, -1,
          118, 120, 131, -1,
          116, 118, 133, -1,
          114, 133, 134, -1,
          114, 116, 133, -1,
          112, 134, 135, -1,
          112, 135, 136, -1,
          112, 114, 134, -1,
          110, 112, 136, -1,
          108, 136, 137, -1,
          108, 110, 136, -1,
          106, 137, 138, -1,
          106, 108, 137, -1,
          105, 138, 139, -1,
          105, 106, 138, -1,
          102, 139, 140, -1,
          102, 140, 141, -1,
          102, 105, 139, -1,
          100, 102, 141, -1,
          98, 141, 142, -1,
          98, 100, 141, -1,
          97, 142, 143, -1,
          97, 98, 142, -1,
          94, 143, 144, -1,
          94, 97, 143, -1,
          92, 144, 145, -1,
          92, 94, 144, -1,
          90, 145, 146, -1,
          90, 92, 145, -1,
          88, 90, 146, -1,
          88, 146, 147, -1,
          88, 147, 148, -1,
          86, 88, 148, -1,
          86, 148, 149, -1,
          84, 86, 149, -1,
          82, 84, 149, -1,
          82, 149, 150, -1,
          82, 150, 151, -1,
          80, 82, 151, -1,
          78, 80, 151, -1,
          78, 151, 152, -1,
          76, 152, 153, -1,
          76, 78, 152, -1,
          74, 153, 154, -1,
          74, 154, 155, -1,
          74, 76, 153, -1,
          72, 155, 156, -1,
          72, 74, 155, -1,
          70, 72, 156, -1,
          68, 156, 157, -1,
          68, 157, 158, -1,
          68, 70, 156, -1,
          66, 68, 158, -1,
          64, 158, 159, -1,
          64, 66, 158, -1,
          62, 159, 160, -1,
          62, 64, 159, -1,
          60, 160, 161, -1,
          60, 161, 162, -1,
          60, 62, 160, -1,
          58, 60, 162, -1,
          56, 162, 163, -1,
          56, 163, 164, -1,
          56, 58, 162, -1,
          54, 164, 165, -1,
          54, 56, 164, -1,
          52, 165, 166, -1,
          52, 54, 165, -1,
          50, 52, 166, -1,
          48, 166, 167, -1,
          48, 167, 168, -1,
          48, 50, 166, -1,
          46, 48, 168, -1,
          44, 168, 169, -1,
          44, 169, 170, -1,
          44, 46, 168, -1,
          43, 44, 170, -1,
          40, 43, 170, -1,
          40, 170, 171, -1,
          40, 171, 172, -1,
          39, 40, 172, -1,
          36, 39, 172, -1,
          36, 172, 173, -1,
          35, 36, 173, -1,
          35, 173, 174, -1,
          35, 174, 175, -1,
          33, 35, 175, -1,
          30, 33, 175, -1,
          30, 175, 176, -1,
          30, 176, 177, -1,
          28, 30, 177, -1,
          27, 28, 177, -1,
          27, 177, 178, -1,
          24, 27, 178, -1,
          24, 178, 179, -1,
          22, 24, 179, -1,
          22, 179, 180, -1,
          20, 22, 180, -1,
          20, 180, 181, -1,
          18, 20, 181, -1,
          18, 181, 182, -1,
          18, 182, 183, -1,
          16, 18, 183, -1,
          14, 183, 184, -1,
          14, 16, 183, -1,
          12, 184, 185, -1,
          12, 185, 186, -1,
          12, 14, 184, -1,
          10, 186, 187, -1,
          10, 12, 186, -1,
          8, 10, 187, -1,
          6, 187, 188, -1,
          6, 188, 189, -1,
          6, 8, 187, -1,
          4, 6, 189, -1,
          0, 189, 190, -1,
          0, 4, 189, -1,
          1, 190, 191, -1,
          1, 0, 190, -1,
          129, 192, 193, -1,
          129, 128, 192, -1,
          130, 193, 194, -1,
          130, 129, 193, -1,
          131, 194, 195, -1,
          131, 130, 194, -1,
          132, 195, 196, -1,
          132, 131, 195, -1,
          133, 196, 197, -1,
          133, 132, 196, -1,
          134, 197, 198, -1,
          134, 133, 197, -1,
          135, 198, 199, -1,
          135, 134, 198, -1,
          136, 199, 200, -1,
          136, 135, 199, -1,
          137, 200, 201, -1,
          137, 136, 200, -1,
          138, 201, 202, -1,
          138, 137, 201, -1,
          203, 138, 202, -1,
          139, 138, 203, -1,
          140, 203, 204, -1,
          140, 139, 203, -1,
          141, 204, 205, -1,
          141, 140, 204, -1,
          206, 141, 205, -1,
          142, 141, 206, -1,
          143, 206, 207, -1,
          143, 142, 206, -1,
          208, 143, 207, -1,
          144, 143, 208, -1,
          209, 144, 208, -1,
          145, 144, 209, -1,
          210, 145, 209, -1,
          146, 145, 210, -1,
          147, 146, 210, -1,
          147, 210, 211, -1,
          212, 147, 211, -1,
          148, 147, 212, -1,
          149, 148, 212, -1,
          149, 212, 213, -1,
          214, 149, 213, -1,
          150, 149, 214, -1,
          151, 150, 214, -1,
          151, 214, 215, -1,
          152, 215, 216, -1,
          152, 151, 215, -1,
          217, 152, 216, -1,
          153, 152, 217, -1,
          154, 217, 218, -1,
          154, 153, 217, -1,
          155, 218, 219, -1,
          155, 154, 218, -1,
          156, 219, 220, -1,
          156, 155, 219, -1,
          157, 220, 221, -1,
          157, 156, 220, -1,
          158, 221, 222, -1,
          158, 157, 221, -1,
          159, 222, 223, -1,
          159, 158, 222, -1,
          160, 223, 224, -1,
          160, 159, 223, -1,
          161, 224, 225, -1,
          161, 160, 224, -1,
          162, 225, 226, -1,
          162, 161, 225, -1,
          163, 226, 227, -1,
          163, 162, 226, -1,
          164, 227, 228, -1,
          164, 163, 227, -1,
          165, 228, 229, -1,
          165, 164, 228, -1,
          166, 229, 230, -1,
          166, 165, 229, -1,
          167, 230, 231, -1,
          167, 166, 230, -1,
          168, 231, 232, -1,
          168, 167, 231, -1,
          169, 232, 233, -1,
          169, 168, 232, -1,
          170, 233, 234, -1,
          170, 169, 233, -1,
          171, 170, 234, -1,
          171, 234, 235, -1,
          236, 171, 235, -1,
          172, 171, 236, -1,
          173, 172, 236, -1,
          173, 236, 237, -1,
          174, 173, 237, -1,
          174, 237, 238, -1,
          175, 174, 238, -1,
          175, 238, 239, -1,
          176, 175, 239, -1,
          176, 239, 240, -1,
          177, 176, 240, -1,
          177, 240, 241, -1,
          242, 177, 241, -1,
          178, 177, 242, -1,
          243, 178, 242, -1,
          179, 178, 243, -1,
          244, 179, 243, -1,
          180, 179, 244, -1,
          181, 180, 244, -1,
          181, 244, 245, -1,
          182, 181, 245, -1,
          182, 245, 246, -1,
          183, 182, 246, -1,
          183, 246, 247, -1,
          184, 183, 247, -1,
          184, 247, 248, -1,
          185, 184, 248, -1,
          185, 248, 249, -1,
          186, 249, 250, -1,
          186, 185, 249, -1,
          187, 250, 251, -1,
          187, 186, 250, -1,
          188, 251, 252, -1,
          188, 187, 251, -1,
          189, 252, 253, -1,
          189, 188, 252, -1,
          190, 253, 254, -1,
          190, 189, 253, -1,
          191, 254, 255, -1,
          191, 190, 254, -1,
          255, 256, 257, -1,
          257, 256, 258, -1,
          259, 260, 261, -1,
          259, 192, 260, -1,
          262, 263, 264, -1,
          264, 263, 265, -1,
          265, 263, 266, -1,
          267, 268, 269, -1,
          269, 268, 270, -1,
          270, 268, 271, -1,
          271, 268, 272, -1,
          262, 273, 263, -1,
          274, 273, 275, -1,
          275, 273, 276, -1,
          276, 273, 277, -1,
          277, 273, 262, -1,
          278, 279, 280, -1,
          280, 279, 281, -1,
          281, 279, 267, -1,
          266, 282, 283, -1,
          283, 282, 284, -1,
          284, 282, 285, -1,
          263, 282, 266, -1,
          268, 286, 272, -1,
          272, 286, 274, -1,
          274, 286, 273, -1,
          287, 288, 289, -1,
          289, 288, 290, -1,
          290, 288, 278, -1,
          273, 291, 263, -1,
          263, 291, 282, -1,
          268, 292, 286, -1,
          279, 292, 267, -1,
          267, 292, 268, -1,
          285, 293, 294, -1,
          294, 293, 295, -1,
          295, 293, 296, -1,
          282, 293, 285, -1,
          286, 297, 273, -1,
          273, 297, 291, -1,
          278, 298, 279, -1,
          288, 298, 278, -1,
          279, 298, 292, -1,
          282, 299, 293, -1,
          291, 299, 282, -1,
          292, 300, 286, -1,
          286, 300, 297, -1,
          301, 302, 256, -1,
          258, 302, 303, -1,
          303, 302, 304, -1,
          304, 302, 287, -1,
          256, 302, 258, -1,
          287, 302, 288, -1,
          288, 302, 298, -1,
          293, 305, 296, -1,
          296, 305, 306, -1,
          306, 305, 307, -1,
          291, 308, 299, -1,
          297, 308, 291, -1,
          292, 309, 300, -1,
          298, 309, 292, -1,
          293, 310, 305, -1,
          299, 310, 293, -1,
          300, 311, 297, -1,
          297, 311, 308, -1,
          302, 312, 298, -1,
          313, 312, 301, -1,
          314, 312, 313, -1,
          301, 312, 302, -1,
          298, 312, 309, -1,
          305, 315, 307, -1,
          307, 315, 316, -1,
          316, 315, 317, -1,
          317, 315, 318, -1,
          299, 319, 310, -1,
          308, 319, 299, -1,
          309, 320, 300, -1,
          300, 320, 311, -1,
          305, 321, 315, -1,
          310, 321, 305, -1,
          311, 322, 308, -1,
          308, 322, 319, -1,
          312, 323, 309, -1,
          324, 323, 314, -1,
          314, 323, 312, -1,
          309, 323, 320, -1,
          315, 325, 318, -1,
          318, 325, 326, -1,
          326, 325, 327, -1,
          327, 325, 328, -1,
          310, 329, 321, -1,
          319, 329, 310, -1,
          311, 330, 322, -1,
          320, 330, 311, -1,
          315, 331, 325, -1,
          321, 331, 315, -1,
          322, 332, 319, -1,
          319, 332, 329, -1,
          324, 333, 323, -1,
          334, 333, 324, -1,
          323, 333, 320, -1,
          320, 333, 330, -1,
          325, 335, 328, -1,
          328, 335, 336, -1,
          336, 335, 337, -1,
          337, 335, 338, -1,
          321, 339, 331, -1,
          329, 339, 321, -1,
          330, 340, 322, -1,
          322, 340, 332, -1,
          331, 341, 325, -1,
          325, 341, 335, -1,
          332, 342, 329, -1,
          329, 342, 339, -1,
          330, 343, 340, -1,
          344, 343, 334, -1,
          345, 343, 344, -1,
          334, 343, 333, -1,
          333, 343, 330, -1,
          335, 346, 338, -1,
          338, 346, 347, -1,
          347, 346, 348, -1,
          348, 346, 349, -1,
          331, 350, 341, -1,
          339, 350, 331, -1,
          340, 351, 332, -1,
          332, 351, 342, -1,
          341, 352, 335, -1,
          335, 352, 346, -1,
          342, 353, 339, -1,
          339, 353, 350, -1,
          354, 355, 345, -1,
          345, 355, 343, -1,
          340, 355, 351, -1,
          343, 355, 340, -1,
          350, 356, 341, -1,
          341, 356, 352, -1,
          342, 357, 353, -1,
          351, 357, 342, -1,
          349, 358, 359, -1,
          359, 358, 360, -1,
          360, 358, 361, -1,
          361, 358, 362, -1,
          346, 358, 349, -1,
          352, 358, 346, -1,
          350, 363, 356, -1,
          353, 363, 350, -1,
          351, 364, 357, -1,
          365, 364, 366, -1,
          366, 364, 354, -1,
          354, 364, 355, -1,
          355, 364, 351, -1,
          356, 367, 352, -1,
          352, 367, 358, -1,
          353, 368, 363, -1,
          357, 368, 353, -1,
          363, 369, 356, -1,
          356, 369, 367, -1,
          370, 371, 365, -1,
          357, 371, 368, -1,
          365, 371, 364, -1,
          364, 371, 357, -1,
          358, 372, 362, -1,
          362, 372, 373, -1,
          367, 372, 358, -1,
          368, 374, 363, -1,
          363, 374, 369, -1,
          367, 375, 372, -1,
          369, 375, 367, -1,
          376, 377, 378, -1,
          378, 377, 370, -1,
          371, 377, 368, -1,
          368, 377, 374, -1,
          370, 377, 371, -1,
          372, 379, 373, -1,
          373, 379, 380, -1,
          380, 379, 381, -1,
          381, 379, 382, -1,
          382, 379, 383, -1,
          369, 384, 375, -1,
          374, 384, 369, -1,
          379, 385, 383, -1,
          375, 385, 372, -1,
          372, 385, 379, -1,
          386, 387, 376, -1,
          376, 387, 377, -1,
          377, 387, 374, -1,
          374, 387, 384, -1,
          375, 388, 385, -1,
          384, 388, 375, -1,
          385, 389, 383, -1,
          383, 389, 390, -1,
          390, 389, 391, -1,
          391, 389, 392, -1,
          393, 394, 386, -1,
          386, 394, 387, -1,
          387, 394, 384, -1,
          384, 394, 388, -1,
          388, 395, 385, -1,
          385, 395, 389, -1,
          389, 395, 392, -1,
          396, 397, 398, -1,
          398, 397, 393, -1,
          393, 397, 394, -1,
          388, 397, 395, -1,
          394, 397, 388, -1,
          395, 399, 392, -1,
          392, 399, 400, -1,
          400, 399, 401, -1,
          401, 399, 402, -1,
          259, 403, 396, -1,
          396, 403, 397, -1,
          261, 403, 259, -1,
          395, 403, 399, -1,
          397, 403, 395, -1,
          399, 403, 402, -1,
          402, 403, 404, -1,
          404, 403, 405, -1,
          405, 403, 261, -1,
          406, 407, 408, -1,
          127, 407, 406, -1,
          409, 410, 411, -1,
          409, 2, 410, -1,
          412, 413, 414, -1,
          415, 413, 412, -1,
          416, 413, 415, -1,
          417, 418, 419, -1,
          420, 418, 417, -1,
          421, 418, 420, -1,
          422, 418, 421, -1,
          416, 423, 413, -1,
          424, 423, 416, -1,
          425, 423, 424, -1,
          426, 423, 425, -1,
          427, 423, 426, -1,
          428, 429, 422, -1,
          430, 429, 428, -1,
          431, 429, 430, -1,
          432, 433, 434, -1,
          413, 433, 414, -1,
          435, 433, 432, -1,
          414, 433, 435, -1,
          427, 436, 423, -1,
          419, 436, 427, -1,
          418, 436, 419, -1,
          437, 438, 431, -1,
          439, 438, 437, -1,
          440, 438, 439, -1,
          413, 441, 433, -1,
          423, 441, 413, -1,
          418, 442, 436, -1,
          422, 442, 418, -1,
          429, 442, 422, -1,
          433, 443, 434, -1,
          444, 443, 445, -1,
          446, 443, 444, -1,
          434, 443, 446, -1,
          423, 447, 441, -1,
          436, 447, 423, -1,
          429, 448, 442, -1,
          438, 448, 431, -1,
          431, 448, 429, -1,
          433, 449, 443, -1,
          441, 449, 433, -1,
          436, 450, 447, -1,
          442, 450, 436, -1,
          438, 451, 448, -1,
          440, 451, 438, -1,
          407, 451, 408, -1,
          452, 451, 440, -1,
          453, 451, 452, -1,
          408, 451, 453, -1,
          454, 451, 407, -1,
          455, 456, 457, -1,
          458, 456, 455, -1,
          445, 456, 458, -1,
          443, 456, 445, -1,
          447, 459, 441, -1,
          441, 459, 449, -1,
          442, 460, 450, -1,
          448, 460, 442, -1,
          443, 461, 456, -1,
          449, 461, 443, -1,
          450, 462, 447, -1,
          447, 462, 459, -1,
          448, 463, 460, -1,
          451, 463, 448, -1,
          454, 463, 451, -1,
          464, 463, 465, -1,
          465, 463, 454, -1,
          456, 466, 457, -1,
          467, 466, 468, -1,
          457, 466, 467, -1,
          459, 469, 449, -1,
          449, 469, 461, -1,
          450, 470, 462, -1,
          460, 470, 450, -1,
          461, 471, 456, -1,
          456, 471, 466, -1,
          459, 472, 469, -1,
          462, 472, 459, -1,
          463, 473, 460, -1,
          460, 473, 470, -1,
          464, 473, 463, -1,
          474, 473, 464, -1,
          466, 475, 468, -1,
          476, 475, 477, -1,
          478, 475, 476, -1,
          468, 475, 478, -1,
          461, 479, 471, -1,
          469, 479, 461, -1,
          462, 480, 472, -1,
          470, 480, 462, -1,
          471, 481, 466, -1,
          466, 481, 475, -1,
          472, 482, 469, -1,
          469, 482, 479, -1,
          473, 483, 470, -1,
          474, 483, 473, -1,
          484, 483, 474, -1,
          470, 483, 480, -1,
          485, 486, 487, -1,
          488, 486, 485, -1,
          477, 486, 488, -1,
          475, 486, 477, -1,
          479, 489, 471, -1,
          471, 489, 481, -1,
          472, 490, 482, -1,
          480, 490, 472, -1,
          475, 491, 486, -1,
          481, 491, 475, -1,
          479, 492, 489, -1,
          482, 492, 479, -1,
          480, 493, 490, -1,
          483, 493, 480, -1,
          484, 493, 483, -1,
          494, 493, 495, -1,
          495, 493, 484, -1,
          486, 496, 487, -1,
          497, 496, 498, -1,
          499, 496, 497, -1,
          487, 496, 499, -1,
          481, 500, 491, -1,
          489, 500, 481, -1,
          482, 501, 492, -1,
          490, 501, 482, -1,
          486, 502, 496, -1,
          491, 502, 486, -1,
          492, 503, 489, -1,
          489, 503, 500, -1,
          493, 504, 490, -1,
          505, 504, 494, -1,
          494, 504, 493, -1,
          490, 504, 501, -1,
          500, 506, 491, -1,
          491, 506, 502, -1,
          501, 507, 492, -1,
          492, 507, 503, -1,
          508, 509, 510, -1,
          511, 509, 508, -1,
          512, 509, 511, -1,
          498, 509, 512, -1,
          496, 509, 498, -1,
          502, 509, 496, -1,
          500, 513, 506, -1,
          503, 513, 500, -1,
          501, 514, 507, -1,
          515, 514, 516, -1,
          516, 514, 505, -1,
          504, 514, 501, -1,
          505, 514, 504, -1,
          502, 517, 509, -1,
          506, 517, 502, -1,
          507, 518, 503, -1,
          503, 518, 513, -1,
          513, 519, 506, -1,
          506, 519, 517, -1,
          520, 521, 515, -1,
          514, 521, 507, -1,
          515, 521, 514, -1,
          507, 521, 518, -1,
          510, 522, 523, -1,
          509, 522, 510, -1,
          517, 522, 509, -1,
          513, 524, 519, -1,
          518, 524, 513, -1,
          519, 525, 517, -1,
          517, 525, 522, -1,
          520, 526, 521, -1,
          518, 526, 524, -1,
          527, 526, 520, -1,
          528, 526, 527, -1,
          521, 526, 518, -1,
          529, 530, 531, -1,
          532, 530, 529, -1,
          533, 530, 532, -1,
          523, 530, 533, -1,
          522, 530, 523, -1,
          519, 534, 525, -1,
          524, 534, 519, -1,
          525, 535, 522, -1,
          522, 535, 530, -1,
          530, 535, 531, -1,
          524, 536, 534, -1,
          526, 536, 524, -1,
          528, 536, 526, -1,
          537, 536, 528, -1,
          534, 538, 525, -1,
          525, 538, 535, -1,
          539, 540, 541, -1,
          542, 540, 539, -1,
          531, 540, 542, -1,
          535, 540, 531, -1,
          534, 543, 538, -1,
          536, 543, 534, -1,
          537, 543, 536, -1,
          544, 543, 537, -1,
          540, 545, 541, -1,
          538, 545, 535, -1,
          535, 545, 540, -1,
          543, 546, 538, -1,
          538, 546, 545, -1,
          544, 546, 543, -1,
          547, 546, 544, -1,
          548, 546, 547, -1,
          549, 550, 551, -1,
          552, 550, 549, -1,
          541, 550, 552, -1,
          545, 550, 541, -1,
          553, 554, 411, -1,
          555, 554, 553, -1,
          551, 554, 555, -1,
          550, 554, 551, -1,
          411, 554, 409, -1,
          546, 554, 545, -1,
          548, 554, 546, -1,
          545, 554, 550, -1,
          409, 554, 548, -1,
          125, 407, 127, -1,
          125, 123, 407, -1,
          409, 3, 2, -1,
          409, 5, 3, -1,
          121, 556, 123, -1,
          119, 556, 121, -1,
          117, 556, 119, -1,
          123, 556, 407, -1,
          556, 557, 407, -1,
          454, 557, 465, -1,
          407, 557, 454, -1,
          115, 558, 117, -1,
          113, 558, 115, -1,
          111, 558, 113, -1,
          556, 558, 557, -1,
          117, 558, 556, -1,
          557, 559, 465, -1,
          465, 559, 464, -1,
          558, 560, 557, -1,
          557, 560, 559, -1,
          474, 561, 484, -1,
          464, 561, 474, -1,
          559, 561, 464, -1,
          109, 562, 111, -1,
          107, 562, 109, -1,
          104, 562, 107, -1,
          103, 562, 104, -1,
          111, 562, 558, -1,
          558, 562, 560, -1,
          559, 563, 561, -1,
          560, 563, 559, -1,
          561, 564, 484, -1,
          484, 564, 495, -1,
          560, 565, 563, -1,
          562, 565, 560, -1,
          563, 566, 561, -1,
          561, 566, 564, -1,
          103, 567, 562, -1,
          101, 567, 103, -1,
          99, 567, 101, -1,
          96, 567, 99, -1,
          95, 567, 96, -1,
          562, 567, 565, -1,
          564, 568, 495, -1,
          494, 568, 505, -1,
          495, 568, 494, -1,
          563, 569, 566, -1,
          565, 569, 563, -1,
          564, 570, 568, -1,
          566, 570, 564, -1,
          567, 571, 565, -1,
          565, 571, 569, -1,
          505, 572, 516, -1,
          568, 572, 505, -1,
          569, 573, 566, -1,
          566, 573, 570, -1,
          93, 574, 95, -1,
          91, 574, 93, -1,
          89, 574, 91, -1,
          95, 574, 567, -1,
          567, 574, 571, -1,
          568, 575, 572, -1,
          570, 575, 568, -1,
          571, 576, 569, -1,
          569, 576, 573, -1,
          572, 577, 516, -1,
          516, 577, 515, -1,
          570, 578, 575, -1,
          573, 578, 570, -1,
          87, 579, 89, -1,
          85, 579, 87, -1,
          89, 579, 574, -1,
          574, 579, 571, -1,
          571, 579, 576, -1,
          572, 580, 577, -1,
          575, 580, 572, -1,
          573, 581, 578, -1,
          576, 581, 573, -1,
          577, 582, 515, -1,
          515, 582, 520, -1,
          520, 582, 527, -1,
          578, 583, 575, -1,
          575, 583, 580, -1,
          579, 584, 576, -1,
          576, 584, 581, -1,
          580, 585, 577, -1,
          577, 585, 582, -1,
          581, 586, 578, -1,
          578, 586, 583, -1,
          83, 587, 85, -1,
          81, 587, 83, -1,
          79, 587, 81, -1,
          579, 587, 584, -1,
          85, 587, 579, -1,
          582, 588, 527, -1,
          527, 588, 528, -1,
          580, 589, 585, -1,
          583, 589, 580, -1,
          581, 590, 586, -1,
          584, 590, 581, -1,
          585, 591, 582, -1,
          582, 591, 588, -1,
          586, 592, 583, -1,
          583, 592, 589, -1,
          77, 593, 79, -1,
          75, 593, 77, -1,
          73, 593, 75, -1,
          79, 593, 587, -1,
          587, 593, 584, -1,
          584, 593, 590, -1,
          588, 594, 528, -1,
          528, 594, 537, -1,
          537, 594, 544, -1,
          585, 595, 591, -1,
          589, 595, 585, -1,
          590, 596, 586, -1,
          586, 596, 592, -1,
          588, 597, 594, -1,
          591, 597, 588, -1,
          592, 598, 589, -1,
          589, 598, 595, -1,
          71, 599, 73, -1,
          69, 599, 71, -1,
          67, 599, 69, -1,
          593, 599, 590, -1,
          590, 599, 596, -1,
          73, 599, 593, -1,
          594, 600, 544, -1,
          544, 600, 547, -1,
          595, 601, 591, -1,
          591, 601, 597, -1,
          596, 602, 592, -1,
          592, 602, 598, -1,
          597, 603, 594, -1,
          594, 603, 600, -1,
          598, 604, 595, -1,
          595, 604, 601, -1,
          596, 605, 602, -1,
          65, 605, 67, -1,
          63, 605, 65, -1,
          61, 605, 63, -1,
          67, 605, 599, -1,
          599, 605, 596, -1,
          547, 606, 548, -1,
          548, 606, 409, -1,
          600, 606, 547, -1,
          601, 607, 597, -1,
          597, 607, 603, -1,
          602, 608, 598, -1,
          598, 608, 604, -1,
          603, 609, 600, -1,
          600, 609, 606, -1,
          604, 610, 601, -1,
          601, 610, 607, -1,
          59, 611, 61, -1,
          57, 611, 59, -1,
          55, 611, 57, -1,
          61, 611, 605, -1,
          605, 611, 602, -1,
          602, 611, 608, -1,
          606, 612, 409, -1,
          9, 612, 11, -1,
          7, 612, 9, -1,
          5, 612, 7, -1,
          409, 612, 5, -1,
          607, 613, 603, -1,
          603, 613, 609, -1,
          608, 614, 604, -1,
          604, 614, 610, -1,
          15, 615, 17, -1,
          13, 615, 15, -1,
          11, 615, 13, -1,
          609, 615, 606, -1,
          606, 615, 612, -1,
          612, 615, 11, -1,
          607, 616, 613, -1,
          610, 616, 607, -1,
          55, 617, 611, -1,
          608, 617, 614, -1,
          611, 617, 608, -1,
          53, 617, 55, -1,
          51, 617, 53, -1,
          49, 617, 51, -1,
          615, 618, 17, -1,
          609, 618, 615, -1,
          23, 618, 25, -1,
          21, 618, 23, -1,
          19, 618, 21, -1,
          17, 618, 19, -1,
          613, 618, 609, -1,
          614, 619, 610, -1,
          41, 619, 42, -1,
          38, 619, 41, -1,
          610, 619, 616, -1,
          618, 620, 25, -1,
          613, 620, 618, -1,
          31, 620, 32, -1,
          29, 620, 31, -1,
          26, 620, 29, -1,
          25, 620, 26, -1,
          616, 620, 613, -1,
          619, 621, 42, -1,
          47, 621, 49, -1,
          45, 621, 47, -1,
          42, 621, 45, -1,
          49, 621, 617, -1,
          617, 621, 614, -1,
          614, 621, 619, -1,
          620, 622, 32, -1,
          616, 622, 620, -1,
          619, 622, 616, -1,
          37, 622, 38, -1,
          34, 622, 37, -1,
          32, 622, 34, -1,
          38, 622, 619, -1,
          254, 256, 255, -1,
          254, 253, 256, -1,
          259, 193, 192, -1,
          259, 194, 193, -1,
          250, 623, 251, -1,
          251, 623, 252, -1,
          252, 623, 253, -1,
          253, 623, 256, -1,
          623, 624, 256, -1,
          256, 624, 301, -1,
          301, 624, 313, -1,
          247, 625, 248, -1,
          250, 625, 623, -1,
          248, 625, 249, -1,
          249, 625, 250, -1,
          623, 625, 624, -1,
          624, 626, 313, -1,
          313, 626, 314, -1,
          625, 627, 624, -1,
          624, 627, 626, -1,
          626, 628, 314, -1,
          314, 628, 324, -1,
          324, 628, 334, -1,
          247, 629, 625, -1,
          625, 629, 627, -1,
          243, 629, 244, -1,
          244, 629, 245, -1,
          245, 629, 246, -1,
          246, 629, 247, -1,
          626, 630, 628, -1,
          627, 630, 626, -1,
          628, 631, 334, -1,
          334, 631, 344, -1,
          627, 632, 630, -1,
          629, 632, 627, -1,
          630, 633, 628, -1,
          628, 633, 631, -1,
          243, 634, 629, -1,
          239, 634, 240, -1,
          240, 634, 241, -1,
          241, 634, 242, -1,
          242, 634, 243, -1,
          629, 634, 632, -1,
          631, 635, 344, -1,
          344, 635, 345, -1,
          345, 635, 354, -1,
          630, 636, 633, -1,
          632, 636, 630, -1,
          633, 637, 631, -1,
          631, 637, 635, -1,
          632, 638, 636, -1,
          634, 638, 632, -1,
          635, 639, 354, -1,
          354, 639, 366, -1,
          633, 640, 637, -1,
          636, 640, 633, -1,
          236, 641, 237, -1,
          237, 641, 238, -1,
          238, 641, 239, -1,
          634, 641, 638, -1,
          239, 641, 634, -1,
          635, 642, 639, -1,
          637, 642, 635, -1,
          638, 643, 636, -1,
          636, 643, 640, -1,
          366, 644, 365, -1,
          639, 644, 366, -1,
          640, 645, 637, -1,
          637, 645, 642, -1,
          236, 646, 641, -1,
          638, 646, 643, -1,
          234, 646, 235, -1,
          235, 646, 236, -1,
          641, 646, 638, -1,
          642, 647, 639, -1,
          639, 647, 644, -1,
          640, 648, 645, -1,
          643, 648, 640, -1,
          370, 649, 378, -1,
          365, 649, 370, -1,
          644, 649, 365, -1,
          642, 650, 647, -1,
          645, 650, 642, -1,
          646, 651, 643, -1,
          643, 651, 648, -1,
          647, 652, 644, -1,
          644, 652, 649, -1,
          645, 653, 650, -1,
          648, 653, 645, -1,
          646, 654, 651, -1,
          231, 654, 232, -1,
          232, 654, 233, -1,
          233, 654, 234, -1,
          234, 654, 646, -1,
          378, 655, 376, -1,
          649, 655, 378, -1,
          647, 656, 652, -1,
          650, 656, 647, -1,
          651, 657, 648, -1,
          648, 657, 653, -1,
          652, 658, 649, -1,
          649, 658, 655, -1,
          653, 659, 650, -1,
          650, 659, 656, -1,
          654, 660, 651, -1,
          231, 660, 654, -1,
          228, 660, 229, -1,
          229, 660, 230, -1,
          230, 660, 231, -1,
          651, 660, 657, -1,
          386, 661, 393, -1,
          376, 661, 386, -1,
          655, 661, 376, -1,
          652, 662, 658, -1,
          656, 662, 652, -1,
          657, 663, 653, -1,
          653, 663, 659, -1,
          658, 664, 655, -1,
          655, 664, 661, -1,
          659, 665, 656, -1,
          656, 665, 662, -1,
          228, 666, 660, -1,
          225, 666, 226, -1,
          226, 666, 227, -1,
          227, 666, 228, -1,
          657, 666, 663, -1,
          660, 666, 657, -1,
          393, 667, 398, -1,
          661, 667, 393, -1,
          662, 668, 658, -1,
          658, 668, 664, -1,
          659, 669, 665, -1,
          663, 669, 659, -1,
          664, 670, 661, -1,
          661, 670, 667, -1,
          665, 671, 662, -1,
          662, 671, 668, -1,
          663, 672, 669, -1,
          222, 672, 223, -1,
          223, 672, 224, -1,
          224, 672, 225, -1,
          666, 672, 663, -1,
          225, 672, 666, -1,
          396, 673, 259, -1,
          398, 673, 396, -1,
          667, 673, 398, -1,
          668, 674, 664, -1,
          664, 674, 670, -1,
          665, 675, 671, -1,
          669, 675, 665, -1,
          667, 676, 673, -1,
          670, 676, 667, -1,
          668, 677, 674, -1,
          671, 677, 668, -1,
          669, 678, 675, -1,
          222, 678, 672, -1,
          219, 678, 220, -1,
          220, 678, 221, -1,
          221, 678, 222, -1,
          672, 678, 669, -1,
          194, 679, 195, -1,
          195, 679, 196, -1,
          196, 679, 197, -1,
          673, 679, 259, -1,
          259, 679, 194, -1,
          674, 680, 670, -1,
          670, 680, 676, -1,
          671, 681, 677, -1,
          675, 681, 671, -1,
          197, 682, 198, -1,
          198, 682, 199, -1,
          199, 682, 200, -1,
          673, 682, 679, -1,
          679, 682, 197, -1,
          676, 682, 673, -1,
          674, 683, 680, -1,
          677, 683, 674, -1,
          219, 684, 678, -1,
          216, 684, 217, -1,
          217, 684, 218, -1,
          218, 684, 219, -1,
          675, 684, 681, -1,
          678, 684, 675, -1,
          682, 685, 200, -1,
          200, 685, 201, -1,
          201, 685, 202, -1,
          202, 685, 203, -1,
          203, 685, 204, -1,
          676, 685, 682, -1,
          680, 685, 676, -1,
          677, 686, 683, -1,
          211, 686, 212, -1,
          212, 686, 213, -1,
          681, 686, 677, -1,
          680, 687, 685, -1,
          204, 687, 205, -1,
          205, 687, 206, -1,
          206, 687, 207, -1,
          207, 687, 208, -1,
          683, 687, 680, -1,
          685, 687, 204, -1,
          213, 688, 214, -1,
          214, 688, 215, -1,
          216, 688, 684, -1,
          215, 688, 216, -1,
          684, 688, 681, -1,
          686, 688, 213, -1,
          681, 688, 686, -1,
          211, 689, 686, -1,
          208, 689, 209, -1,
          209, 689, 210, -1,
          210, 689, 211, -1,
          686, 689, 683, -1,
          687, 689, 208, -1,
          683, 689, 687, -1,
          690, 191, 255, -1,
          690, 255, 257, -1,
          691, 257, 258, -1,
          691, 690, 257, -1,
          692, 258, 303, -1,
          692, 691, 258, -1,
          693, 303, 304, -1,
          693, 692, 303, -1,
          694, 304, 287, -1,
          694, 693, 304, -1,
          695, 287, 289, -1,
          695, 694, 287, -1,
          696, 289, 290, -1,
          696, 695, 289, -1,
          697, 290, 278, -1,
          697, 696, 290, -1,
          280, 697, 278, -1,
          698, 697, 280, -1,
          699, 280, 281, -1,
          699, 698, 280, -1,
          700, 281, 267, -1,
          700, 699, 281, -1,
          701, 267, 269, -1,
          701, 700, 267, -1,
          702, 269, 270, -1,
          702, 701, 269, -1,
          703, 270, 271, -1,
          703, 702, 270, -1,
          704, 271, 272, -1,
          704, 703, 271, -1,
          705, 272, 274, -1,
          705, 704, 272, -1,
          275, 705, 274, -1,
          706, 705, 275, -1,
          276, 706, 275, -1,
          707, 706, 276, -1,
          708, 707, 276, -1,
          708, 276, 277, -1,
          709, 708, 277, -1,
          709, 277, 262, -1,
          710, 709, 262, -1,
          710, 262, 264, -1,
          265, 710, 264, -1,
          711, 710, 265, -1,
          266, 711, 265, -1,
          712, 711, 266, -1,
          713, 266, 283, -1,
          713, 712, 266, -1,
          284, 713, 283, -1,
          714, 713, 284, -1,
          715, 284, 285, -1,
          715, 714, 284, -1,
          716, 285, 294, -1,
          716, 715, 285, -1,
          717, 294, 295, -1,
          717, 716, 294, -1,
          718, 295, 296, -1,
          718, 717, 295, -1,
          719, 296, 306, -1,
          719, 718, 296, -1,
          720, 306, 307, -1,
          720, 719, 306, -1,
          721, 307, 316, -1,
          721, 720, 307, -1,
          722, 316, 317, -1,
          722, 721, 316, -1,
          723, 317, 318, -1,
          723, 722, 317, -1,
          724, 318, 326, -1,
          724, 723, 318, -1,
          725, 326, 327, -1,
          725, 724, 326, -1,
          726, 327, 328, -1,
          726, 725, 327, -1,
          727, 328, 336, -1,
          727, 726, 328, -1,
          728, 336, 337, -1,
          728, 727, 336, -1,
          338, 728, 337, -1,
          729, 728, 338, -1,
          730, 338, 347, -1,
          730, 729, 338, -1,
          731, 347, 348, -1,
          731, 730, 347, -1,
          732, 731, 348, -1,
          732, 348, 349, -1,
          359, 732, 349, -1,
          733, 732, 359, -1,
          734, 733, 359, -1,
          734, 359, 360, -1,
          361, 734, 360, -1,
          735, 734, 361, -1,
          736, 735, 361, -1,
          736, 361, 362, -1,
          737, 736, 362, -1,
          737, 362, 373, -1,
          380, 737, 373, -1,
          738, 737, 380, -1,
          739, 738, 380, -1,
          739, 380, 381, -1,
          740, 739, 381, -1,
          740, 381, 382, -1,
          741, 740, 382, -1,
          741, 382, 383, -1,
          742, 741, 383, -1,
          742, 383, 390, -1,
          743, 742, 390, -1,
          743, 390, 391, -1,
          744, 743, 391, -1,
          744, 391, 392, -1,
          745, 744, 392, -1,
          745, 392, 400, -1,
          746, 745, 400, -1,
          746, 400, 401, -1,
          747, 401, 402, -1,
          747, 746, 401, -1,
          748, 402, 404, -1,
          748, 747, 402, -1,
          749, 404, 405, -1,
          749, 748, 404, -1,
          750, 405, 261, -1,
          750, 749, 405, -1,
          751, 261, 260, -1,
          751, 750, 261, -1,
          128, 260, 192, -1,
          128, 751, 260, -1,
          752, 1, 191, -1,
          752, 191, 690, -1,
          753, 690, 691, -1,
          753, 752, 690, -1,
          754, 691, 692, -1,
          754, 692, 693, -1,
          754, 753, 691, -1,
          755, 754, 693, -1,
          756, 693, 694, -1,
          756, 755, 693, -1,
          757, 694, 695, -1,
          757, 756, 694, -1,
          758, 695, 696, -1,
          758, 757, 695, -1,
          759, 696, 697, -1,
          759, 758, 696, -1,
          760, 697, 698, -1,
          760, 759, 697, -1,
          761, 698, 699, -1,
          761, 760, 698, -1,
          762, 699, 700, -1,
          762, 700, 701, -1,
          762, 761, 699, -1,
          763, 701, 702, -1,
          763, 762, 701, -1,
          764, 763, 702, -1,
          765, 702, 703, -1,
          765, 764, 702, -1,
          766, 703, 704, -1,
          766, 765, 703, -1,
          767, 704, 705, -1,
          767, 766, 704, -1,
          768, 705, 706, -1,
          768, 767, 705, -1,
          769, 706, 707, -1,
          769, 768, 706, -1,
          770, 769, 707, -1,
          770, 707, 708, -1,
          770, 708, 709, -1,
          771, 770, 709, -1,
          771, 709, 710, -1,
          772, 771, 710, -1,
          773, 772, 710, -1,
          773, 710, 711, -1,
          774, 711, 712, -1,
          774, 773, 711, -1,
          774, 712, 713, -1,
          775, 713, 714, -1,
          775, 774, 713, -1,
          776, 775, 714, -1,
          777, 714, 715, -1,
          777, 776, 714, -1,
          778, 715, 716, -1,
          778, 777, 715, -1,
          779, 716, 717, -1,
          779, 778, 716, -1,
          780, 717, 718, -1,
          780, 779, 717, -1,
          781, 718, 719, -1,
          781, 780, 718, -1,
          782, 719, 720, -1,
          782, 781, 719, -1,
          783, 720, 721, -1,
          783, 782, 720, -1,
          784, 721, 722, -1,
          784, 783, 721, -1,
          785, 722, 723, -1,
          785, 784, 722, -1,
          786, 723, 724, -1,
          786, 785, 723, -1,
          787, 724, 725, -1,
          787, 786, 724, -1,
          788, 725, 726, -1,
          788, 787, 725, -1,
          789, 726, 727, -1,
          789, 727, 728, -1,
          789, 788, 726, -1,
          790, 789, 728, -1,
          791, 728, 729, -1,
          791, 790, 728, -1,
          792, 729, 730, -1,
          792, 730, 731, -1,
          792, 791, 729, -1,
          793, 792, 731, -1,
          794, 793, 731, -1,
          794, 731, 732, -1,
          795, 794, 732, -1,
          795, 732, 733, -1,
          796, 795, 733, -1,
          796, 733, 734, -1,
          797, 796, 734, -1,
          797, 734, 735, -1,
          798, 797, 735, -1,
          798, 735, 736, -1,
          798, 736, 737, -1,
          799, 798, 737, -1,
          799, 737, 738, -1,
          800, 799, 738, -1,
          800, 738, 739, -1,
          801, 800, 739, -1,
          802, 801, 739, -1,
          802, 739, 740, -1,
          802, 740, 741, -1,
          803, 802, 741, -1,
          803, 741, 742, -1,
          804, 803, 742, -1,
          805, 804, 742, -1,
          805, 742, 743, -1,
          805, 743, 744, -1,
          806, 805, 744, -1,
          807, 806, 744, -1,
          807, 744, 745, -1,
          807, 745, 746, -1,
          808, 746, 747, -1,
          808, 807, 746, -1,
          809, 808, 747, -1,
          810, 747, 748, -1,
          810, 748, 749, -1,
          810, 809, 747, -1,
          811, 810, 749, -1,
          812, 749, 750, -1,
          812, 811, 749, -1,
          813, 750, 751, -1,
          813, 812, 750, -1,
          126, 751, 128, -1,
          126, 813, 751, -1,
          813, 126, 127, -1,
          813, 127, 406, -1,
          812, 813, 406, -1,
          812, 406, 408, -1,
          811, 812, 408, -1,
          811, 408, 453, -1,
          810, 811, 453, -1,
          810, 453, 452, -1,
          440, 810, 452, -1,
          809, 810, 440, -1,
          808, 809, 440, -1,
          808, 440, 439, -1,
          807, 439, 437, -1,
          807, 808, 439, -1,
          806, 437, 431, -1,
          806, 807, 437, -1,
          805, 431, 430, -1,
          805, 806, 431, -1,
          804, 430, 428, -1,
          804, 805, 430, -1,
          422, 804, 428, -1,
          803, 804, 422, -1,
          802, 422, 421, -1,
          802, 803, 422, -1,
          801, 421, 420, -1,
          801, 802, 421, -1,
          800, 420, 417, -1,
          800, 801, 420, -1,
          419, 800, 417, -1,
          799, 800, 419, -1,
          427, 799, 419, -1,
          798, 799, 427, -1,
          426, 798, 427, -1,
          797, 798, 426, -1,
          796, 426, 425, -1,
          796, 797, 426, -1,
          795, 796, 425, -1,
          795, 425, 424, -1,
          416, 795, 424, -1,
          794, 795, 416, -1,
          415, 794, 416, -1,
          793, 794, 415, -1,
          792, 793, 415, -1,
          792, 415, 412, -1,
          414, 792, 412, -1,
          791, 792, 414, -1,
          790, 791, 414, -1,
          790, 414, 435, -1,
          789, 790, 435, -1,
          789, 435, 432, -1,
          788, 789, 432, -1,
          788, 432, 434, -1,
          787, 788, 434, -1,
          787, 434, 446, -1,
          786, 446, 444, -1,
          786, 787, 446, -1,
          785, 444, 445, -1,
          785, 786, 444, -1,
          784, 445, 458, -1,
          784, 785, 445, -1,
          783, 458, 455, -1,
          783, 784, 458, -1,
          782, 455, 457, -1,
          782, 783, 455, -1,
          781, 457, 467, -1,
          781, 782, 457, -1,
          780, 467, 468, -1,
          780, 781, 467, -1,
          779, 468, 478, -1,
          779, 780, 468, -1,
          778, 478, 476, -1,
          778, 779, 478, -1,
          777, 476, 477, -1,
          777, 778, 476, -1,
          776, 477, 488, -1,
          776, 777, 477, -1,
          775, 488, 485, -1,
          775, 776, 488, -1,
          487, 775, 485, -1,
          774, 775, 487, -1,
          773, 487, 499, -1,
          773, 774, 487, -1,
          772, 499, 497, -1,
          772, 773, 499, -1,
          771, 497, 498, -1,
          771, 772, 497, -1,
          770, 771, 498, -1,
          770, 498, 512, -1,
          769, 770, 512, -1,
          769, 512, 511, -1,
          768, 769, 511, -1,
          768, 511, 508, -1,
          767, 768, 508, -1,
          767, 508, 510, -1,
          523, 767, 510, -1,
          766, 767, 523, -1,
          533, 766, 523, -1,
          765, 766, 533, -1,
          764, 533, 532, -1,
          764, 765, 533, -1,
          529, 764, 532, -1,
          763, 764, 529, -1,
          762, 529, 531, -1,
          762, 763, 529, -1,
          761, 531, 542, -1,
          761, 762, 531, -1,
          760, 542, 539, -1,
          760, 761, 542, -1,
          759, 539, 541, -1,
          759, 760, 539, -1,
          758, 541, 552, -1,
          758, 759, 541, -1,
          757, 552, 549, -1,
          757, 758, 552, -1,
          756, 549, 551, -1,
          756, 757, 549, -1,
          755, 551, 555, -1,
          755, 756, 551, -1,
          754, 555, 553, -1,
          754, 755, 555, -1,
          753, 553, 411, -1,
          753, 754, 553, -1,
          752, 411, 410, -1,
          752, 753, 411, -1,
          1, 410, 2, -1,
          1, 752, 410, -1
        ]
      }
    }
}
