#VRML V2.0 utf8
WorldInfo {
  title "Exported triangle mesh to VRML97"
  info ["Created by FreeCAD"
        "<https://www.freecad.org>"]
}

Transform {
  scale 1 1 1
  rotation 0 0 1 0
  scaleOrientation 0 0 1 0
  center 0.000 0.000 0.000
  translation 0.000 0.000 0.000
  children
    Shape { 
      appearance
      Appearance {
        material
        Material {
          diffuseColor 0.8 0.8 0.8
        }
      }
      geometry
      IndexedFaceSet {
        coord
        Coordinate {
          point [
            0.623 12.487 2.096,
            0.000 12.700 1.932,
            0.000 12.503 2.096,
            0.633 12.684 1.932,
            1.245 12.441 2.096,
            1.265 12.637 1.932,
            1.863 12.363 2.096,
            1.893 12.558 1.932,
            2.477 12.255 2.096,
            2.516 12.448 1.932,
            3.085 12.116 2.096,
            3.134 12.307 1.932,
            3.685 11.947 2.096,
            3.743 12.136 1.932,
            4.276 11.749 2.096,
            4.344 11.934 1.932,
            4.857 11.521 2.096,
            4.933 11.703 1.932,
            5.425 11.265 2.096,
            5.510 11.442 1.932,
            5.980 10.980 2.096,
            6.074 11.153 1.932,
            6.519 10.669 2.096,
            6.622 10.837 1.932,
            7.043 10.330 2.096,
            7.154 10.493 1.932,
            7.549 9.966 2.096,
            7.668 10.124 1.932,
            8.037 9.578 2.096,
            8.163 9.729 1.932,
            8.504 9.165 2.096,
            8.638 9.310 1.932,
            8.950 8.730 2.096,
            9.092 8.868 1.932,
            9.374 8.273 2.096,
            9.522 8.403 1.932,
            9.775 7.795 2.096,
            9.929 7.918 1.932,
            10.152 7.298 2.096,
            10.312 7.414 1.932,
            10.503 6.783 2.096,
            10.668 6.890 1.932,
            10.828 6.251 2.096,
            10.999 6.350 1.932,
            11.126 5.704 2.096,
            11.301 5.794 1.932,
            11.396 5.142 2.096,
            11.576 5.223 1.932,
            11.639 4.568 2.096,
            11.822 4.640 1.932,
            11.852 3.982 2.096,
            12.039 4.045 1.932,
            12.036 3.386 2.096,
            12.225 3.440 1.932,
            12.189 2.782 2.096,
            12.382 2.826 1.932,
            12.313 2.171 2.096,
            12.507 2.205 1.932,
            12.406 1.555 2.096,
            12.601 1.579 1.932,
            12.468 0.934 2.096,
            12.664 0.949 1.932,
            12.499 0.312 2.096,
            12.696 0.317 1.932,
            12.499 -0.312 2.096,
            12.696 -0.317 1.932,
            12.468 -0.934 2.096,
            12.664 -0.949 1.932,
            12.406 -1.555 2.096,
            12.601 -1.579 1.932,
            12.313 -2.171 2.096,
            12.507 -2.205 1.932,
            12.382 -2.826 1.932,
            12.189 -2.782 2.096,
            12.036 -3.386 2.096,
            12.225 -3.440 1.932,
            11.852 -3.982 2.096,
            12.039 -4.045 1.932,
            11.639 -4.568 2.096,
            11.822 -4.640 1.932,
            11.396 -5.142 2.096,
            11.576 -5.223 1.932,
            11.126 -5.704 2.096,
            11.301 -5.794 1.932,
            10.828 -6.251 2.096,
            10.999 -6.350 1.932,
            10.503 -6.783 2.096,
            10.668 -6.890 1.932,
            10.152 -7.298 2.096,
            10.312 -7.414 1.932,
            9.775 -7.795 2.096,
            9.929 -7.918 1.932,
            9.374 -8.273 2.096,
            9.522 -8.403 1.932,
            8.950 -8.730 2.096,
            9.092 -8.868 1.932,
            8.504 -9.165 2.096,
            8.638 -9.310 1.932,
            8.163 -9.729 1.932,
            8.037 -9.578 2.096,
            7.549 -9.966 2.096,
            7.668 -10.124 1.932,
            7.043 -10.330 2.096,
            7.154 -10.493 1.932,
            6.622 -10.837 1.932,
            6.519 -10.669 2.096,
            6.074 -11.153 1.932,
            5.980 -10.980 2.096,
            5.510 -11.442 1.932,
            5.425 -11.265 2.096,
            4.857 -11.521 2.096,
            4.933 -11.703 1.932,
            4.344 -11.934 1.932,
            4.276 -11.749 2.096,
            3.743 -12.136 1.932,
            3.685 -11.947 2.096,
            3.134 -12.307 1.932,
            3.085 -12.116 2.096,
            2.516 -12.448 1.932,
            2.477 -12.255 2.096,
            1.863 -12.363 2.096,
            1.893 -12.558 1.932,
            1.245 -12.441 2.096,
            1.265 -12.637 1.932,
            0.633 -12.684 1.932,
            0.623 -12.487 2.096,
            0.000 -12.700 1.932,
            0.000 -12.503 2.096,
            0.623 -12.487 -2.096,
            0.000 -12.700 -1.932,
            0.000 -12.503 -2.096,
            0.633 -12.684 -1.932,
            1.245 -12.441 -2.096,
            1.265 -12.637 -1.932,
            1.863 -12.363 -2.096,
            1.893 -12.558 -1.932,
            2.477 -12.255 -2.096,
            2.516 -12.448 -1.932,
            3.085 -12.116 -2.096,
            3.134 -12.307 -1.932,
            3.685 -11.947 -2.096,
            3.743 -12.136 -1.932,
            4.276 -11.749 -2.096,
            4.344 -11.934 -1.932,
            4.857 -11.521 -2.096,
            4.933 -11.703 -1.932,
            5.425 -11.265 -2.096,
            5.510 -11.442 -1.932,
            5.980 -10.980 -2.096,
            6.074 -11.153 -1.932,
            6.519 -10.669 -2.096,
            6.622 -10.837 -1.932,
            7.043 -10.330 -2.096,
            7.154 -10.493 -1.932,
            7.549 -9.966 -2.096,
            7.668 -10.124 -1.932,
            8.037 -9.578 -2.096,
            8.163 -9.729 -1.932,
            8.504 -9.165 -2.096,
            8.638 -9.310 -1.932,
            8.950 -8.730 -2.096,
            9.092 -8.868 -1.932,
            9.374 -8.273 -2.096,
            9.522 -8.403 -1.932,
            9.775 -7.795 -2.096,
            9.929 -7.918 -1.932,
            10.152 -7.298 -2.096,
            10.312 -7.414 -1.932,
            10.503 -6.783 -2.096,
            10.668 -6.890 -1.932,
            10.828 -6.251 -2.096,
            10.999 -6.350 -1.932,
            11.126 -5.704 -2.096,
            11.301 -5.794 -1.932,
            11.396 -5.142 -2.096,
            11.576 -5.223 -1.932,
            11.639 -4.568 -2.096,
            11.822 -4.640 -1.932,
            11.852 -3.982 -2.096,
            12.039 -4.045 -1.932,
            12.036 -3.386 -2.096,
            12.225 -3.440 -1.932,
            12.189 -2.782 -2.096,
            12.382 -2.826 -1.932,
            12.313 -2.171 -2.096,
            12.507 -2.205 -1.932,
            12.406 -1.555 -2.096,
            12.601 -1.579 -1.932,
            12.468 -0.934 -2.096,
            12.664 -0.949 -1.932,
            12.696 -0.317 -1.932,
            12.499 -0.312 -2.096,
            12.499 0.312 -2.096,
            12.696 0.317 -1.932,
            12.664 0.949 -1.932,
            12.468 0.934 -2.096,
            12.406 1.555 -2.096,
            12.601 1.579 -1.932,
            12.313 2.171 -2.096,
            12.507 2.205 -1.932,
            12.382 2.826 -1.932,
            12.189 2.782 -2.096,
            12.036 3.386 -2.096,
            12.225 3.440 -1.932,
            11.852 3.982 -2.096,
            12.039 4.045 -1.932,
            11.822 4.640 -1.932,
            11.639 4.568 -2.096,
            11.396 5.142 -2.096,
            11.576 5.223 -1.932,
            11.126 5.704 -2.096,
            11.301 5.794 -1.932,
            10.999 6.350 -1.932,
            10.828 6.251 -2.096,
            10.503 6.783 -2.096,
            10.668 6.890 -1.932,
            10.312 7.414 -1.932,
            10.152 7.298 -2.096,
            9.775 7.795 -2.096,
            9.929 7.918 -1.932,
            9.374 8.273 -2.096,
            9.522 8.403 -1.932,
            9.092 8.868 -1.932,
            8.950 8.730 -2.096,
            8.504 9.165 -2.096,
            8.638 9.310 -1.932,
            8.037 9.578 -2.096,
            8.163 9.729 -1.932,
            7.668 10.124 -1.932,
            7.549 9.966 -2.096,
            7.154 10.493 -1.932,
            7.043 10.330 -2.096,
            6.519 10.669 -2.096,
            6.622 10.837 -1.932,
            6.074 11.153 -1.932,
            5.980 10.980 -2.096,
            5.510 11.442 -1.932,
            5.425 11.265 -2.096,
            4.933 11.703 -1.932,
            4.857 11.521 -2.096,
            4.276 11.749 -2.096,
            4.344 11.934 -1.932,
            3.685 11.947 -2.096,
            3.743 12.136 -1.932,
            3.085 12.116 -2.096,
            3.134 12.307 -1.932,
            2.477 12.255 -2.096,
            2.516 12.448 -1.932,
            1.893 12.558 -1.932,
            1.863 12.363 -2.096,
            1.265 12.637 -1.932,
            1.245 12.441 -2.096,
            0.623 12.487 -2.096,
            0.633 12.684 -1.932,
            0.000 12.503 -2.096,
            0.000 12.700 -1.932,
            -2.477 -12.255 2.096,
            0.000 -9.398 1.617,
            -3.085 -12.116 2.096,
            -1.863 -12.363 2.096,
            -1.245 -12.441 2.096,
            -0.623 -12.487 2.096,
            0.000 9.398 1.617,
            -2.477 12.255 2.096,
            -3.085 12.116 2.096,
            -1.863 12.363 2.096,
            -1.245 12.441 2.096,
            -0.623 12.487 2.096,
            -11.852 -3.982 2.096,
            -8.356 -4.989 1.662,
            -12.036 -3.386 2.096,
            -11.639 -4.568 2.096,
            -11.396 -5.142 2.096,
            -11.126 -5.704 2.096,
            -10.828 -6.251 2.096,
            -10.503 -6.783 2.096,
            -10.152 -7.298 2.096,
            -9.775 -7.795 2.096,
            -9.374 -8.273 2.096,
            -8.950 -8.730 2.096,
            -8.504 -9.165 2.096,
            0.000 -6.275 1.275,
            -4.185 -7.514 1.517,
            -8.037 -9.578 2.096,
            -7.549 -9.966 2.096,
            -7.043 -10.330 2.096,
            -6.519 -10.669 2.096,
            -5.980 -10.980 2.096,
            -5.425 -11.265 2.096,
            -4.857 -11.521 2.096,
            -4.276 -11.749 2.096,
            -3.685 -11.947 2.096,
            -8.356 0.000 1.488,
            -12.189 2.782 2.096,
            -12.036 3.386 2.096,
            -12.313 2.171 2.096,
            -12.406 1.555 2.096,
            -12.468 0.934 2.096,
            -12.499 0.312 2.096,
            -12.499 -0.312 2.096,
            -12.468 -0.934 2.096,
            -12.406 -1.555 2.096,
            -12.313 -2.171 2.096,
            -12.189 -2.782 2.096,
            0.000 -3.141 1.069,
            -4.185 -2.509 1.166,
            0.000 0.000 1.000,
            -8.950 8.730 2.096,
            -8.356 4.989 1.662,
            -8.504 9.165 2.096,
            -9.374 8.273 2.096,
            -9.775 7.795 2.096,
            -10.152 7.298 2.096,
            -10.503 6.783 2.096,
            -10.828 6.251 2.096,
            -11.126 5.704 2.096,
            -11.396 5.142 2.096,
            -11.639 4.568 2.096,
            -11.852 3.982 2.096,
            0.000 6.275 1.275,
            -4.185 2.509 1.166,
            0.000 3.141 1.069,
            -4.185 7.514 1.517,
            -3.685 11.947 2.096,
            -4.276 11.749 2.096,
            -4.857 11.521 2.096,
            -5.425 11.265 2.096,
            -5.980 10.980 2.096,
            -6.519 10.669 2.096,
            -7.043 10.330 2.096,
            -7.549 9.966 2.096,
            -8.037 9.578 2.096,
            -2.477 12.255 -2.096,
            0.000 9.398 -1.617,
            -3.085 12.116 -2.096,
            -1.863 12.363 -2.096,
            -1.245 12.441 -2.096,
            -0.623 12.487 -2.096,
            0.000 -9.398 -1.617,
            -2.477 -12.255 -2.096,
            -3.085 -12.116 -2.096,
            -1.863 -12.363 -2.096,
            -1.245 -12.441 -2.096,
            -0.623 -12.487 -2.096,
            -11.852 3.982 -2.096,
            -8.356 4.989 -1.662,
            -12.036 3.386 -2.096,
            -11.639 4.568 -2.096,
            -11.396 5.142 -2.096,
            -11.126 5.704 -2.096,
            -10.828 6.251 -2.096,
            -10.503 6.783 -2.096,
            -10.152 7.298 -2.096,
            -9.775 7.795 -2.096,
            -9.374 8.273 -2.096,
            -8.950 8.730 -2.096,
            -8.504 9.165 -2.096,
            -8.037 9.578 -2.096,
            -4.185 7.514 -1.517,
            -7.549 9.966 -2.096,
            -7.043 10.330 -2.096,
            -6.519 10.669 -2.096,
            -5.980 10.980 -2.096,
            -5.425 11.265 -2.096,
            -4.857 11.521 -2.096,
            -4.276 11.749 -2.096,
            -3.685 11.947 -2.096,
            0.000 6.275 -1.275,
            -12.189 -2.782 -2.096,
            -8.356 -0.000 -1.488,
            -12.036 -3.386 -2.096,
            -12.313 -2.171 -2.096,
            -12.406 -1.555 -2.096,
            -12.468 -0.934 -2.096,
            -12.499 -0.312 -2.096,
            -12.499 0.312 -2.096,
            -12.468 0.934 -2.096,
            -12.406 1.555 -2.096,
            -12.313 2.171 -2.096,
            -12.189 2.782 -2.096,
            -4.185 2.509 -1.166,
            0.000 -0.000 -1.000,
            0.000 3.141 -1.069,
            -8.950 -8.730 -2.096,
            -8.356 -4.989 -1.662,
            -8.504 -9.165 -2.096,
            -9.374 -8.273 -2.096,
            -9.775 -7.795 -2.096,
            -10.152 -7.298 -2.096,
            -10.503 -6.783 -2.096,
            -10.828 -6.251 -2.096,
            -11.126 -5.704 -2.096,
            -11.396 -5.142 -2.096,
            -11.639 -4.568 -2.096,
            -11.852 -3.982 -2.096,
            -4.185 -2.509 -1.166,
            0.000 -3.141 -1.069,
            0.000 -6.275 -1.275,
            -4.185 -7.514 -1.517,
            -3.685 -11.947 -2.096,
            -4.276 -11.749 -2.096,
            -4.857 -11.521 -2.096,
            -5.425 -11.265 -2.096,
            -5.980 -10.980 -2.096,
            -6.519 -10.669 -2.096,
            -7.043 -10.330 -2.096,
            -7.549 -9.966 -2.096,
            -8.037 -9.578 -2.096,
            4.185 10.004 -1.823,
            4.185 5.014 -1.298,
            8.356 7.475 -1.880,
            4.185 -0.000 -1.122,
            8.356 2.496 -1.531,
            4.185 -5.014 -1.298,
            8.356 -2.496 -1.531,
            4.185 -10.004 -1.823,
            8.356 -7.475 -1.880,
            4.185 -10.004 1.823,
            4.185 -5.014 1.298,
            8.356 -7.475 1.880,
            4.185 0.000 1.122,
            8.356 -2.496 1.531,
            4.185 5.014 1.298,
            8.356 2.496 1.531,
            4.185 10.004 1.823,
            8.356 7.475 1.880,
            -0.633 -12.684 -1.932,
            -0.633 -12.684 1.932,
            -1.265 -12.637 -1.932,
            -1.265 -12.637 1.932,
            -1.893 -12.558 -1.932,
            -1.893 -12.558 1.932,
            -2.516 -12.448 -1.932,
            -2.516 -12.448 1.932,
            -3.134 -12.307 -1.932,
            -3.134 -12.307 1.932,
            -3.743 -12.136 -1.932,
            -3.743 -12.136 1.932,
            -4.344 -11.934 -1.932,
            -4.344 -11.934 1.932,
            -4.933 -11.703 -1.932,
            -4.933 -11.703 1.932,
            -5.510 -11.442 -1.932,
            -5.510 -11.442 1.932,
            -6.074 -11.153 -1.932,
            -6.074 -11.153 1.932,
            -6.622 -10.837 -1.932,
            -6.622 -10.837 1.932,
            -7.154 -10.493 -1.932,
            -7.154 -10.493 1.932,
            -7.668 -10.124 -1.932,
            -7.668 -10.124 1.932,
            -8.163 -9.729 -1.932,
            -8.163 -9.729 1.932,
            -8.638 -9.310 -1.932,
            -8.638 -9.310 1.932,
            -9.092 -8.868 -1.932,
            -9.092 -8.868 1.932,
            -9.522 -8.403 -1.932,
            -9.522 -8.403 1.932,
            -9.929 -7.918 1.932,
            -9.929 -7.918 -1.932,
            -10.312 -7.414 -1.932,
            -10.312 -7.414 1.932,
            -10.668 -6.890 1.932,
            -10.668 -6.890 -1.932,
            -10.999 -6.350 1.932,
            -10.999 -6.350 -1.932,
            -11.301 -5.794 1.932,
            -11.301 -5.794 -1.932,
            -11.576 -5.223 1.932,
            -11.576 -5.223 -1.932,
            -11.822 -4.640 -1.932,
            -11.822 -4.640 1.932,
            -12.039 -4.045 1.932,
            -12.039 -4.045 -1.932,
            -12.225 -3.440 -1.932,
            -12.225 -3.440 1.932,
            -12.382 -2.826 -1.932,
            -12.382 -2.826 1.932,
            -12.507 -2.205 1.932,
            -12.507 -2.205 -1.932,
            -12.601 -1.579 -1.932,
            -12.601 -1.579 1.932,
            -12.664 -0.949 1.932,
            -12.664 -0.949 -1.932,
            -12.696 -0.317 1.932,
            -12.696 -0.317 -1.932,
            -12.696 0.317 -1.932,
            -12.696 0.317 1.932,
            -12.664 0.949 -1.932,
            -12.664 0.949 1.932,
            -12.601 1.579 1.932,
            -12.601 1.579 -1.932,
            -12.507 2.205 1.932,
            -12.507 2.205 -1.932,
            -12.382 2.826 -1.932,
            -12.382 2.826 1.932,
            -12.225 3.440 -1.932,
            -12.225 3.440 1.932,
            -12.039 4.045 -1.932,
            -12.039 4.045 1.932,
            -11.822 4.640 -1.932,
            -11.822 4.640 1.932,
            -11.576 5.223 -1.932,
            -11.576 5.223 1.932,
            -11.301 5.794 1.932,
            -11.301 5.794 -1.932,
            -10.999 6.350 1.932,
            -10.999 6.350 -1.932,
            -10.668 6.890 1.932,
            -10.668 6.890 -1.932,
            -10.312 7.414 -1.932,
            -10.312 7.414 1.932,
            -9.929 7.918 -1.932,
            -9.929 7.918 1.932,
            -9.522 8.403 -1.932,
            -9.522 8.403 1.932,
            -9.092 8.868 -1.932,
            -9.092 8.868 1.932,
            -8.638 9.310 -1.932,
            -8.638 9.310 1.932,
            -8.163 9.729 1.932,
            -8.163 9.729 -1.932,
            -7.668 10.124 -1.932,
            -7.668 10.124 1.932,
            -7.154 10.493 -1.932,
            -7.154 10.493 1.932,
            -6.622 10.837 -1.932,
            -6.622 10.837 1.932,
            -6.074 11.153 -1.932,
            -6.074 11.153 1.932,
            -5.510 11.442 -1.932,
            -5.510 11.442 1.932,
            -4.933 11.703 -1.932,
            -4.933 11.703 1.932,
            -4.344 11.934 -1.932,
            -4.344 11.934 1.932,
            -3.743 12.136 -1.932,
            -3.743 12.136 1.932,
            -3.134 12.307 -1.932,
            -3.134 12.307 1.932,
            -2.516 12.448 1.932,
            -2.516 12.448 -1.932,
            -1.893 12.558 -1.932,
            -1.893 12.558 1.932,
            -1.265 12.637 -1.932,
            -1.265 12.637 1.932,
            -0.633 12.684 1.932,
            -0.633 12.684 -1.932
          ]
        }
        coordIndex [
          0, 1, 2, -1,
          3, 1, 0, -1,
          4, 3, 0, -1,
          5, 3, 4, -1,
          6, 5, 4, -1,
          7, 5, 6, -1,
          8, 7, 6, -1,
          9, 7, 8, -1,
          10, 9, 8, -1,
          11, 9, 10, -1,
          12, 11, 10, -1,
          13, 11, 12, -1,
          14, 13, 12, -1,
          15, 13, 14, -1,
          16, 15, 14, -1,
          17, 15, 16, -1,
          18, 17, 16, -1,
          19, 17, 18, -1,
          20, 19, 18, -1,
          21, 19, 20, -1,
          22, 21, 20, -1,
          23, 21, 22, -1,
          24, 23, 22, -1,
          25, 23, 24, -1,
          26, 25, 24, -1,
          27, 25, 26, -1,
          28, 27, 26, -1,
          29, 27, 28, -1,
          30, 29, 28, -1,
          31, 29, 30, -1,
          32, 31, 30, -1,
          33, 31, 32, -1,
          34, 33, 32, -1,
          35, 33, 34, -1,
          36, 35, 34, -1,
          37, 35, 36, -1,
          38, 37, 36, -1,
          39, 37, 38, -1,
          40, 39, 38, -1,
          41, 39, 40, -1,
          42, 41, 40, -1,
          43, 41, 42, -1,
          44, 43, 42, -1,
          45, 43, 44, -1,
          46, 45, 44, -1,
          47, 45, 46, -1,
          48, 47, 46, -1,
          49, 47, 48, -1,
          50, 49, 48, -1,
          51, 49, 50, -1,
          52, 51, 50, -1,
          53, 51, 52, -1,
          54, 53, 52, -1,
          55, 53, 54, -1,
          56, 55, 54, -1,
          57, 55, 56, -1,
          58, 57, 56, -1,
          59, 57, 58, -1,
          60, 59, 58, -1,
          61, 59, 60, -1,
          62, 61, 60, -1,
          63, 61, 62, -1,
          64, 63, 62, -1,
          65, 63, 64, -1,
          66, 65, 64, -1,
          67, 65, 66, -1,
          68, 67, 66, -1,
          69, 67, 68, -1,
          70, 69, 68, -1,
          71, 69, 70, -1,
          72, 70, 73, -1,
          72, 71, 70, -1,
          74, 72, 73, -1,
          75, 72, 74, -1,
          76, 75, 74, -1,
          77, 75, 76, -1,
          78, 77, 76, -1,
          79, 77, 78, -1,
          80, 79, 78, -1,
          81, 79, 80, -1,
          82, 81, 80, -1,
          83, 81, 82, -1,
          84, 83, 82, -1,
          85, 83, 84, -1,
          86, 85, 84, -1,
          87, 85, 86, -1,
          88, 87, 86, -1,
          89, 87, 88, -1,
          90, 89, 88, -1,
          91, 89, 90, -1,
          92, 91, 90, -1,
          93, 91, 92, -1,
          94, 93, 92, -1,
          95, 93, 94, -1,
          96, 95, 94, -1,
          97, 95, 96, -1,
          98, 96, 99, -1,
          98, 97, 96, -1,
          100, 98, 99, -1,
          101, 98, 100, -1,
          102, 101, 100, -1,
          103, 101, 102, -1,
          104, 102, 105, -1,
          104, 103, 102, -1,
          106, 105, 107, -1,
          106, 104, 105, -1,
          108, 107, 109, -1,
          108, 106, 107, -1,
          110, 108, 109, -1,
          111, 108, 110, -1,
          112, 110, 113, -1,
          112, 111, 110, -1,
          114, 113, 115, -1,
          114, 112, 113, -1,
          116, 115, 117, -1,
          116, 114, 115, -1,
          118, 117, 119, -1,
          118, 116, 117, -1,
          120, 118, 119, -1,
          121, 118, 120, -1,
          122, 121, 120, -1,
          123, 121, 122, -1,
          124, 122, 125, -1,
          124, 123, 122, -1,
          126, 125, 127, -1,
          126, 124, 125, -1,
          128, 129, 130, -1,
          131, 129, 128, -1,
          132, 131, 128, -1,
          133, 131, 132, -1,
          134, 133, 132, -1,
          135, 133, 134, -1,
          136, 135, 134, -1,
          137, 135, 136, -1,
          138, 137, 136, -1,
          139, 137, 138, -1,
          140, 139, 138, -1,
          141, 139, 140, -1,
          142, 141, 140, -1,
          143, 141, 142, -1,
          144, 143, 142, -1,
          145, 143, 144, -1,
          146, 145, 144, -1,
          147, 145, 146, -1,
          148, 147, 146, -1,
          149, 147, 148, -1,
          150, 149, 148, -1,
          151, 149, 150, -1,
          152, 151, 150, -1,
          153, 151, 152, -1,
          154, 153, 152, -1,
          155, 153, 154, -1,
          156, 155, 154, -1,
          157, 155, 156, -1,
          158, 157, 156, -1,
          159, 157, 158, -1,
          160, 159, 158, -1,
          161, 159, 160, -1,
          162, 161, 160, -1,
          163, 161, 162, -1,
          164, 163, 162, -1,
          165, 163, 164, -1,
          166, 165, 164, -1,
          167, 165, 166, -1,
          168, 167, 166, -1,
          169, 167, 168, -1,
          170, 169, 168, -1,
          171, 169, 170, -1,
          172, 171, 170, -1,
          173, 171, 172, -1,
          174, 173, 172, -1,
          175, 173, 174, -1,
          176, 175, 174, -1,
          177, 175, 176, -1,
          178, 177, 176, -1,
          179, 177, 178, -1,
          180, 179, 178, -1,
          181, 179, 180, -1,
          182, 181, 180, -1,
          183, 181, 182, -1,
          184, 183, 182, -1,
          185, 183, 184, -1,
          186, 185, 184, -1,
          187, 185, 186, -1,
          188, 187, 186, -1,
          189, 187, 188, -1,
          190, 188, 191, -1,
          190, 189, 188, -1,
          192, 190, 191, -1,
          193, 190, 192, -1,
          194, 192, 195, -1,
          194, 193, 192, -1,
          196, 194, 195, -1,
          197, 194, 196, -1,
          198, 197, 196, -1,
          199, 197, 198, -1,
          200, 198, 201, -1,
          200, 199, 198, -1,
          202, 200, 201, -1,
          203, 200, 202, -1,
          204, 203, 202, -1,
          205, 203, 204, -1,
          206, 204, 207, -1,
          206, 205, 204, -1,
          208, 206, 207, -1,
          209, 206, 208, -1,
          210, 209, 208, -1,
          211, 209, 210, -1,
          212, 210, 213, -1,
          212, 211, 210, -1,
          214, 212, 213, -1,
          215, 212, 214, -1,
          216, 215, 214, -1,
          216, 214, 217, -1,
          218, 216, 217, -1,
          219, 216, 218, -1,
          220, 219, 218, -1,
          221, 219, 220, -1,
          222, 221, 220, -1,
          222, 220, 223, -1,
          224, 222, 223, -1,
          225, 222, 224, -1,
          226, 225, 224, -1,
          227, 225, 226, -1,
          228, 226, 229, -1,
          228, 227, 226, -1,
          230, 229, 231, -1,
          230, 228, 229, -1,
          232, 230, 231, -1,
          233, 230, 232, -1,
          234, 232, 235, -1,
          234, 233, 232, -1,
          236, 235, 237, -1,
          236, 234, 235, -1,
          238, 237, 239, -1,
          238, 236, 237, -1,
          240, 238, 239, -1,
          241, 238, 240, -1,
          242, 241, 240, -1,
          243, 241, 242, -1,
          244, 243, 242, -1,
          245, 243, 244, -1,
          246, 245, 244, -1,
          247, 245, 246, -1,
          248, 246, 249, -1,
          248, 247, 246, -1,
          250, 249, 251, -1,
          250, 248, 249, -1,
          252, 250, 251, -1,
          253, 250, 252, -1,
          254, 253, 252, -1,
          255, 253, 254, -1,
          253, 1, 3, -1,
          253, 255, 1, -1,
          250, 3, 5, -1,
          250, 253, 3, -1,
          248, 5, 7, -1,
          248, 250, 5, -1,
          247, 7, 9, -1,
          247, 248, 7, -1,
          245, 9, 11, -1,
          245, 247, 9, -1,
          243, 11, 13, -1,
          243, 245, 11, -1,
          241, 13, 15, -1,
          241, 243, 13, -1,
          238, 15, 17, -1,
          238, 241, 15, -1,
          236, 17, 19, -1,
          236, 238, 17, -1,
          234, 19, 21, -1,
          234, 236, 19, -1,
          233, 21, 23, -1,
          233, 234, 21, -1,
          230, 23, 25, -1,
          230, 233, 23, -1,
          228, 25, 27, -1,
          228, 230, 25, -1,
          227, 27, 29, -1,
          227, 228, 27, -1,
          225, 29, 31, -1,
          225, 227, 29, -1,
          222, 31, 33, -1,
          222, 225, 31, -1,
          221, 33, 35, -1,
          221, 222, 33, -1,
          219, 35, 37, -1,
          219, 221, 35, -1,
          216, 219, 37, -1,
          216, 37, 39, -1,
          215, 216, 39, -1,
          215, 39, 41, -1,
          212, 215, 41, -1,
          212, 41, 43, -1,
          211, 212, 43, -1,
          211, 43, 45, -1,
          209, 45, 47, -1,
          209, 211, 45, -1,
          206, 47, 49, -1,
          206, 209, 47, -1,
          205, 49, 51, -1,
          205, 206, 49, -1,
          203, 51, 53, -1,
          203, 205, 51, -1,
          200, 53, 55, -1,
          200, 203, 53, -1,
          199, 55, 57, -1,
          199, 200, 55, -1,
          197, 57, 59, -1,
          197, 199, 57, -1,
          194, 59, 61, -1,
          194, 197, 59, -1,
          193, 61, 63, -1,
          193, 194, 61, -1,
          190, 63, 65, -1,
          190, 193, 63, -1,
          189, 65, 67, -1,
          189, 190, 65, -1,
          187, 67, 69, -1,
          187, 189, 67, -1,
          185, 69, 71, -1,
          185, 187, 69, -1,
          183, 71, 72, -1,
          183, 185, 71, -1,
          181, 72, 75, -1,
          181, 183, 72, -1,
          179, 75, 77, -1,
          179, 181, 75, -1,
          177, 77, 79, -1,
          177, 179, 77, -1,
          175, 79, 81, -1,
          175, 177, 79, -1,
          173, 81, 83, -1,
          173, 175, 81, -1,
          171, 83, 85, -1,
          171, 173, 83, -1,
          169, 171, 85, -1,
          169, 85, 87, -1,
          167, 169, 87, -1,
          167, 87, 89, -1,
          165, 167, 89, -1,
          165, 89, 91, -1,
          163, 165, 91, -1,
          163, 91, 93, -1,
          161, 163, 93, -1,
          161, 93, 95, -1,
          159, 161, 95, -1,
          159, 95, 97, -1,
          157, 159, 97, -1,
          157, 97, 98, -1,
          155, 157, 98, -1,
          155, 98, 101, -1,
          153, 155, 101, -1,
          153, 101, 103, -1,
          151, 153, 103, -1,
          151, 103, 104, -1,
          149, 151, 104, -1,
          149, 104, 106, -1,
          147, 149, 106, -1,
          147, 106, 108, -1,
          145, 147, 108, -1,
          145, 108, 111, -1,
          143, 111, 112, -1,
          143, 145, 111, -1,
          141, 112, 114, -1,
          141, 143, 112, -1,
          139, 114, 116, -1,
          139, 141, 114, -1,
          137, 116, 118, -1,
          137, 139, 116, -1,
          135, 118, 121, -1,
          135, 137, 118, -1,
          133, 121, 123, -1,
          133, 135, 121, -1,
          131, 123, 124, -1,
          131, 133, 123, -1,
          129, 124, 126, -1,
          129, 131, 124, -1,
          256, 257, 258, -1,
          259, 257, 256, -1,
          260, 257, 259, -1,
          261, 257, 260, -1,
          127, 257, 261, -1,
          262, 263, 264, -1,
          262, 265, 263, -1,
          262, 266, 265, -1,
          262, 267, 266, -1,
          262, 2, 267, -1,
          268, 269, 270, -1,
          271, 269, 268, -1,
          272, 269, 271, -1,
          273, 269, 272, -1,
          274, 269, 273, -1,
          275, 269, 274, -1,
          276, 269, 275, -1,
          277, 269, 276, -1,
          278, 269, 277, -1,
          279, 269, 278, -1,
          280, 269, 279, -1,
          281, 282, 257, -1,
          283, 282, 280, -1,
          284, 282, 283, -1,
          285, 282, 284, -1,
          286, 282, 285, -1,
          287, 282, 286, -1,
          288, 282, 287, -1,
          289, 282, 288, -1,
          290, 282, 289, -1,
          291, 282, 290, -1,
          258, 282, 291, -1,
          280, 282, 269, -1,
          257, 282, 258, -1,
          269, 292, 270, -1,
          293, 292, 294, -1,
          295, 292, 293, -1,
          296, 292, 295, -1,
          297, 292, 296, -1,
          298, 292, 297, -1,
          299, 292, 298, -1,
          300, 292, 299, -1,
          301, 292, 300, -1,
          302, 292, 301, -1,
          303, 292, 302, -1,
          270, 292, 303, -1,
          304, 305, 281, -1,
          306, 305, 304, -1,
          281, 305, 282, -1,
          282, 305, 269, -1,
          269, 305, 292, -1,
          307, 308, 309, -1,
          310, 308, 307, -1,
          311, 308, 310, -1,
          312, 308, 311, -1,
          313, 308, 312, -1,
          314, 308, 313, -1,
          315, 308, 314, -1,
          316, 308, 315, -1,
          317, 308, 316, -1,
          318, 308, 317, -1,
          294, 308, 318, -1,
          292, 308, 294, -1,
          319, 320, 321, -1,
          321, 320, 306, -1,
          306, 320, 305, -1,
          305, 320, 292, -1,
          292, 320, 308, -1,
          264, 322, 262, -1,
          262, 322, 319, -1,
          320, 322, 308, -1,
          323, 322, 264, -1,
          324, 322, 323, -1,
          325, 322, 324, -1,
          326, 322, 325, -1,
          327, 322, 326, -1,
          328, 322, 327, -1,
          329, 322, 328, -1,
          330, 322, 329, -1,
          331, 322, 330, -1,
          309, 322, 331, -1,
          319, 322, 320, -1,
          308, 322, 309, -1,
          332, 333, 334, -1,
          335, 333, 332, -1,
          336, 333, 335, -1,
          337, 333, 336, -1,
          254, 333, 337, -1,
          338, 339, 340, -1,
          338, 341, 339, -1,
          338, 342, 341, -1,
          338, 343, 342, -1,
          338, 130, 343, -1,
          344, 345, 346, -1,
          347, 345, 344, -1,
          348, 345, 347, -1,
          349, 345, 348, -1,
          350, 345, 349, -1,
          351, 345, 350, -1,
          352, 345, 351, -1,
          353, 345, 352, -1,
          354, 345, 353, -1,
          355, 345, 354, -1,
          356, 345, 355, -1,
          357, 358, 356, -1,
          359, 358, 357, -1,
          360, 358, 359, -1,
          361, 358, 360, -1,
          362, 358, 361, -1,
          363, 358, 362, -1,
          364, 358, 363, -1,
          365, 358, 364, -1,
          366, 358, 365, -1,
          334, 358, 366, -1,
          356, 358, 345, -1,
          367, 358, 333, -1,
          333, 358, 334, -1,
          368, 369, 370, -1,
          371, 369, 368, -1,
          372, 369, 371, -1,
          373, 369, 372, -1,
          374, 369, 373, -1,
          375, 369, 374, -1,
          376, 369, 375, -1,
          377, 369, 376, -1,
          378, 369, 377, -1,
          379, 369, 378, -1,
          346, 369, 379, -1,
          345, 369, 346, -1,
          358, 380, 345, -1,
          381, 380, 382, -1,
          382, 380, 367, -1,
          345, 380, 369, -1,
          367, 380, 358, -1,
          383, 384, 385, -1,
          386, 384, 383, -1,
          387, 384, 386, -1,
          388, 384, 387, -1,
          389, 384, 388, -1,
          390, 384, 389, -1,
          391, 384, 390, -1,
          392, 384, 391, -1,
          393, 384, 392, -1,
          394, 384, 393, -1,
          370, 384, 394, -1,
          369, 384, 370, -1,
          381, 395, 380, -1,
          380, 395, 369, -1,
          369, 395, 384, -1,
          396, 395, 381, -1,
          397, 395, 396, -1,
          340, 398, 338, -1,
          399, 398, 340, -1,
          400, 398, 399, -1,
          401, 398, 400, -1,
          397, 398, 395, -1,
          402, 398, 401, -1,
          403, 398, 402, -1,
          404, 398, 403, -1,
          405, 398, 404, -1,
          395, 398, 384, -1,
          406, 398, 405, -1,
          407, 398, 406, -1,
          385, 398, 407, -1,
          384, 398, 385, -1,
          338, 398, 397, -1,
          252, 333, 254, -1,
          251, 333, 252, -1,
          249, 333, 251, -1,
          246, 333, 249, -1,
          338, 128, 130, -1,
          338, 132, 128, -1,
          338, 134, 132, -1,
          338, 136, 134, -1,
          244, 408, 246, -1,
          242, 408, 244, -1,
          240, 408, 242, -1,
          239, 408, 240, -1,
          237, 408, 239, -1,
          235, 408, 237, -1,
          232, 408, 235, -1,
          231, 408, 232, -1,
          229, 408, 231, -1,
          333, 408, 367, -1,
          246, 408, 333, -1,
          408, 409, 367, -1,
          367, 409, 382, -1,
          226, 410, 229, -1,
          224, 410, 226, -1,
          223, 410, 224, -1,
          220, 410, 223, -1,
          218, 410, 220, -1,
          217, 410, 218, -1,
          214, 410, 217, -1,
          213, 410, 214, -1,
          408, 410, 409, -1,
          229, 410, 408, -1,
          409, 411, 382, -1,
          382, 411, 381, -1,
          381, 411, 396, -1,
          210, 412, 213, -1,
          208, 412, 210, -1,
          207, 412, 208, -1,
          204, 412, 207, -1,
          202, 412, 204, -1,
          201, 412, 202, -1,
          198, 412, 201, -1,
          196, 412, 198, -1,
          195, 412, 196, -1,
          192, 412, 195, -1,
          409, 412, 411, -1,
          410, 412, 409, -1,
          213, 412, 410, -1,
          411, 413, 396, -1,
          396, 413, 397, -1,
          192, 414, 412, -1,
          191, 414, 192, -1,
          188, 414, 191, -1,
          186, 414, 188, -1,
          184, 414, 186, -1,
          182, 414, 184, -1,
          180, 414, 182, -1,
          178, 414, 180, -1,
          176, 414, 178, -1,
          174, 414, 176, -1,
          172, 414, 174, -1,
          170, 414, 172, -1,
          412, 414, 411, -1,
          411, 414, 413, -1,
          413, 415, 397, -1,
          152, 415, 154, -1,
          150, 415, 152, -1,
          148, 415, 150, -1,
          146, 415, 148, -1,
          144, 415, 146, -1,
          142, 415, 144, -1,
          140, 415, 142, -1,
          138, 415, 140, -1,
          136, 415, 138, -1,
          338, 415, 136, -1,
          397, 415, 338, -1,
          415, 416, 154, -1,
          168, 416, 170, -1,
          166, 416, 168, -1,
          164, 416, 166, -1,
          162, 416, 164, -1,
          160, 416, 162, -1,
          158, 416, 160, -1,
          156, 416, 158, -1,
          154, 416, 156, -1,
          170, 416, 414, -1,
          413, 416, 415, -1,
          414, 416, 413, -1,
          125, 257, 127, -1,
          122, 257, 125, -1,
          120, 257, 122, -1,
          119, 257, 120, -1,
          262, 0, 2, -1,
          262, 4, 0, -1,
          262, 6, 4, -1,
          262, 8, 6, -1,
          117, 417, 119, -1,
          115, 417, 117, -1,
          113, 417, 115, -1,
          110, 417, 113, -1,
          109, 417, 110, -1,
          107, 417, 109, -1,
          105, 417, 107, -1,
          102, 417, 105, -1,
          100, 417, 102, -1,
          257, 417, 281, -1,
          119, 417, 257, -1,
          417, 418, 281, -1,
          281, 418, 304, -1,
          417, 419, 418, -1,
          99, 419, 100, -1,
          96, 419, 99, -1,
          94, 419, 96, -1,
          92, 419, 94, -1,
          90, 419, 92, -1,
          88, 419, 90, -1,
          86, 419, 88, -1,
          84, 419, 86, -1,
          100, 419, 417, -1,
          306, 420, 321, -1,
          304, 420, 306, -1,
          418, 420, 304, -1,
          418, 421, 420, -1,
          82, 421, 84, -1,
          80, 421, 82, -1,
          78, 421, 80, -1,
          76, 421, 78, -1,
          74, 421, 76, -1,
          73, 421, 74, -1,
          70, 421, 73, -1,
          68, 421, 70, -1,
          66, 421, 68, -1,
          64, 421, 66, -1,
          419, 421, 418, -1,
          84, 421, 419, -1,
          321, 422, 319, -1,
          420, 422, 321, -1,
          62, 423, 64, -1,
          60, 423, 62, -1,
          420, 423, 422, -1,
          64, 423, 421, -1,
          58, 423, 60, -1,
          56, 423, 58, -1,
          54, 423, 56, -1,
          52, 423, 54, -1,
          50, 423, 52, -1,
          48, 423, 50, -1,
          46, 423, 48, -1,
          44, 423, 46, -1,
          42, 423, 44, -1,
          421, 423, 420, -1,
          319, 424, 262, -1,
          422, 424, 319, -1,
          24, 424, 26, -1,
          22, 424, 24, -1,
          20, 424, 22, -1,
          18, 424, 20, -1,
          16, 424, 18, -1,
          14, 424, 16, -1,
          12, 424, 14, -1,
          10, 424, 12, -1,
          8, 424, 10, -1,
          262, 424, 8, -1,
          422, 425, 424, -1,
          424, 425, 26, -1,
          40, 425, 42, -1,
          38, 425, 40, -1,
          36, 425, 38, -1,
          34, 425, 36, -1,
          32, 425, 34, -1,
          30, 425, 32, -1,
          28, 425, 30, -1,
          26, 425, 28, -1,
          42, 425, 423, -1,
          423, 425, 422, -1,
          426, 129, 126, -1,
          426, 126, 427, -1,
          428, 427, 429, -1,
          428, 426, 427, -1,
          430, 429, 431, -1,
          430, 428, 429, -1,
          432, 431, 433, -1,
          432, 430, 431, -1,
          434, 433, 435, -1,
          434, 432, 433, -1,
          436, 435, 437, -1,
          436, 434, 435, -1,
          438, 437, 439, -1,
          438, 436, 437, -1,
          440, 439, 441, -1,
          440, 438, 439, -1,
          442, 441, 443, -1,
          442, 440, 441, -1,
          444, 443, 445, -1,
          444, 442, 443, -1,
          446, 445, 447, -1,
          446, 444, 445, -1,
          448, 447, 449, -1,
          448, 446, 447, -1,
          450, 449, 451, -1,
          450, 448, 449, -1,
          452, 451, 453, -1,
          452, 450, 451, -1,
          454, 453, 455, -1,
          454, 452, 453, -1,
          456, 455, 457, -1,
          456, 454, 455, -1,
          458, 457, 459, -1,
          458, 459, 460, -1,
          458, 456, 457, -1,
          461, 458, 460, -1,
          462, 461, 460, -1,
          462, 460, 463, -1,
          462, 463, 464, -1,
          465, 462, 464, -1,
          465, 464, 466, -1,
          467, 465, 466, -1,
          467, 466, 468, -1,
          469, 467, 468, -1,
          469, 468, 470, -1,
          471, 469, 470, -1,
          472, 470, 473, -1,
          472, 473, 474, -1,
          472, 471, 470, -1,
          475, 472, 474, -1,
          476, 474, 477, -1,
          476, 475, 474, -1,
          478, 477, 479, -1,
          478, 479, 480, -1,
          478, 476, 477, -1,
          481, 478, 480, -1,
          482, 480, 483, -1,
          482, 483, 484, -1,
          482, 481, 480, -1,
          485, 484, 486, -1,
          485, 482, 484, -1,
          487, 485, 486, -1,
          488, 486, 489, -1,
          488, 487, 486, -1,
          490, 489, 491, -1,
          490, 491, 492, -1,
          490, 488, 489, -1,
          493, 492, 494, -1,
          493, 490, 492, -1,
          495, 493, 494, -1,
          496, 494, 497, -1,
          496, 495, 494, -1,
          498, 497, 499, -1,
          498, 496, 497, -1,
          500, 499, 501, -1,
          500, 498, 499, -1,
          502, 501, 503, -1,
          502, 500, 501, -1,
          504, 503, 505, -1,
          504, 505, 506, -1,
          504, 502, 503, -1,
          507, 506, 508, -1,
          507, 504, 506, -1,
          509, 508, 510, -1,
          509, 507, 508, -1,
          511, 509, 510, -1,
          512, 511, 510, -1,
          512, 510, 513, -1,
          514, 512, 513, -1,
          514, 513, 515, -1,
          516, 514, 515, -1,
          516, 515, 517, -1,
          518, 516, 517, -1,
          518, 517, 519, -1,
          520, 518, 519, -1,
          520, 519, 521, -1,
          520, 521, 522, -1,
          523, 520, 522, -1,
          524, 523, 522, -1,
          524, 522, 525, -1,
          526, 524, 525, -1,
          526, 525, 527, -1,
          528, 526, 527, -1,
          528, 527, 529, -1,
          530, 528, 529, -1,
          530, 529, 531, -1,
          532, 530, 531, -1,
          532, 531, 533, -1,
          534, 532, 533, -1,
          534, 533, 535, -1,
          536, 534, 535, -1,
          536, 535, 537, -1,
          538, 537, 539, -1,
          538, 536, 537, -1,
          540, 539, 541, -1,
          540, 541, 542, -1,
          540, 538, 539, -1,
          543, 540, 542, -1,
          544, 542, 545, -1,
          544, 543, 542, -1,
          546, 545, 547, -1,
          546, 547, 548, -1,
          546, 544, 545, -1,
          549, 546, 548, -1,
          255, 548, 1, -1,
          255, 549, 548, -1,
          337, 255, 254, -1,
          549, 255, 337, -1,
          336, 549, 337, -1,
          546, 549, 336, -1,
          335, 546, 336, -1,
          544, 546, 335, -1,
          332, 544, 335, -1,
          543, 544, 332, -1,
          334, 543, 332, -1,
          540, 543, 334, -1,
          366, 540, 334, -1,
          538, 540, 366, -1,
          365, 538, 366, -1,
          536, 538, 365, -1,
          364, 536, 365, -1,
          534, 536, 364, -1,
          363, 534, 364, -1,
          532, 534, 363, -1,
          362, 532, 363, -1,
          530, 532, 362, -1,
          361, 530, 362, -1,
          528, 530, 361, -1,
          360, 528, 361, -1,
          526, 528, 360, -1,
          359, 526, 360, -1,
          524, 526, 359, -1,
          357, 524, 359, -1,
          523, 524, 357, -1,
          356, 523, 357, -1,
          520, 523, 356, -1,
          355, 520, 356, -1,
          518, 520, 355, -1,
          354, 518, 355, -1,
          516, 518, 354, -1,
          353, 516, 354, -1,
          514, 516, 353, -1,
          352, 514, 353, -1,
          512, 514, 352, -1,
          351, 512, 352, -1,
          511, 512, 351, -1,
          350, 511, 351, -1,
          509, 511, 350, -1,
          349, 509, 350, -1,
          507, 509, 349, -1,
          348, 507, 349, -1,
          504, 507, 348, -1,
          347, 504, 348, -1,
          502, 504, 347, -1,
          344, 502, 347, -1,
          500, 502, 344, -1,
          346, 500, 344, -1,
          498, 500, 346, -1,
          379, 498, 346, -1,
          496, 498, 379, -1,
          378, 496, 379, -1,
          495, 496, 378, -1,
          377, 495, 378, -1,
          493, 495, 377, -1,
          376, 493, 377, -1,
          490, 493, 376, -1,
          375, 490, 376, -1,
          488, 490, 375, -1,
          374, 488, 375, -1,
          487, 488, 374, -1,
          373, 487, 374, -1,
          485, 487, 373, -1,
          482, 373, 372, -1,
          482, 485, 373, -1,
          371, 482, 372, -1,
          481, 482, 371, -1,
          368, 481, 371, -1,
          478, 481, 368, -1,
          476, 368, 370, -1,
          476, 478, 368, -1,
          394, 476, 370, -1,
          475, 476, 394, -1,
          393, 475, 394, -1,
          472, 475, 393, -1,
          471, 393, 392, -1,
          471, 472, 393, -1,
          391, 471, 392, -1,
          469, 471, 391, -1,
          467, 391, 390, -1,
          467, 469, 391, -1,
          389, 467, 390, -1,
          465, 467, 389, -1,
          462, 465, 389, -1,
          462, 389, 388, -1,
          387, 462, 388, -1,
          461, 462, 387, -1,
          458, 461, 387, -1,
          458, 387, 386, -1,
          383, 458, 386, -1,
          456, 458, 383, -1,
          385, 456, 383, -1,
          454, 456, 385, -1,
          452, 385, 407, -1,
          452, 454, 385, -1,
          450, 407, 406, -1,
          450, 452, 407, -1,
          448, 406, 405, -1,
          448, 450, 406, -1,
          404, 448, 405, -1,
          446, 448, 404, -1,
          444, 404, 403, -1,
          444, 446, 404, -1,
          442, 403, 402, -1,
          442, 444, 403, -1,
          440, 402, 401, -1,
          440, 442, 402, -1,
          438, 401, 400, -1,
          438, 440, 401, -1,
          436, 400, 399, -1,
          436, 438, 400, -1,
          434, 399, 340, -1,
          434, 436, 399, -1,
          432, 340, 339, -1,
          432, 434, 340, -1,
          430, 339, 341, -1,
          430, 432, 339, -1,
          342, 430, 341, -1,
          428, 430, 342, -1,
          426, 342, 343, -1,
          426, 428, 342, -1,
          130, 426, 343, -1,
          129, 426, 130, -1,
          261, 126, 127, -1,
          427, 126, 261, -1,
          260, 427, 261, -1,
          429, 427, 260, -1,
          259, 429, 260, -1,
          431, 429, 259, -1,
          256, 431, 259, -1,
          433, 431, 256, -1,
          258, 433, 256, -1,
          435, 433, 258, -1,
          291, 435, 258, -1,
          437, 435, 291, -1,
          290, 437, 291, -1,
          439, 437, 290, -1,
          289, 439, 290, -1,
          441, 439, 289, -1,
          288, 441, 289, -1,
          443, 441, 288, -1,
          287, 443, 288, -1,
          445, 443, 287, -1,
          286, 445, 287, -1,
          447, 445, 286, -1,
          285, 447, 286, -1,
          449, 447, 285, -1,
          284, 449, 285, -1,
          451, 449, 284, -1,
          283, 451, 284, -1,
          453, 451, 283, -1,
          280, 453, 283, -1,
          455, 453, 280, -1,
          279, 455, 280, -1,
          457, 455, 279, -1,
          278, 457, 279, -1,
          459, 457, 278, -1,
          277, 459, 278, -1,
          460, 459, 277, -1,
          276, 460, 277, -1,
          463, 460, 276, -1,
          275, 463, 276, -1,
          464, 463, 275, -1,
          274, 464, 275, -1,
          466, 464, 274, -1,
          273, 466, 274, -1,
          468, 466, 273, -1,
          272, 468, 273, -1,
          470, 468, 272, -1,
          271, 470, 272, -1,
          473, 470, 271, -1,
          268, 473, 271, -1,
          474, 473, 268, -1,
          270, 474, 268, -1,
          477, 474, 270, -1,
          303, 477, 270, -1,
          479, 477, 303, -1,
          302, 479, 303, -1,
          480, 479, 302, -1,
          301, 480, 302, -1,
          483, 480, 301, -1,
          300, 483, 301, -1,
          484, 483, 300, -1,
          299, 484, 300, -1,
          486, 484, 299, -1,
          298, 486, 299, -1,
          489, 486, 298, -1,
          297, 489, 298, -1,
          491, 489, 297, -1,
          296, 491, 297, -1,
          492, 491, 296, -1,
          295, 492, 296, -1,
          494, 492, 295, -1,
          293, 494, 295, -1,
          497, 494, 293, -1,
          294, 497, 293, -1,
          499, 497, 294, -1,
          501, 294, 318, -1,
          501, 499, 294, -1,
          317, 501, 318, -1,
          503, 501, 317, -1,
          316, 503, 317, -1,
          505, 503, 316, -1,
          315, 505, 316, -1,
          506, 505, 315, -1,
          314, 506, 315, -1,
          508, 506, 314, -1,
          510, 508, 314, -1,
          510, 314, 313, -1,
          513, 510, 313, -1,
          513, 313, 312, -1,
          311, 513, 312, -1,
          515, 513, 311, -1,
          310, 515, 311, -1,
          517, 515, 310, -1,
          307, 517, 310, -1,
          519, 517, 307, -1,
          521, 307, 309, -1,
          521, 519, 307, -1,
          331, 521, 309, -1,
          522, 521, 331, -1,
          525, 331, 330, -1,
          525, 522, 331, -1,
          329, 525, 330, -1,
          527, 525, 329, -1,
          529, 329, 328, -1,
          529, 527, 329, -1,
          327, 529, 328, -1,
          531, 529, 327, -1,
          533, 327, 326, -1,
          533, 531, 327, -1,
          535, 326, 325, -1,
          535, 533, 326, -1,
          537, 325, 324, -1,
          537, 535, 325, -1,
          539, 324, 323, -1,
          539, 537, 324, -1,
          541, 323, 264, -1,
          541, 539, 323, -1,
          542, 264, 263, -1,
          542, 541, 264, -1,
          545, 263, 265, -1,
          545, 542, 263, -1,
          547, 265, 266, -1,
          547, 545, 265, -1,
          267, 547, 266, -1,
          548, 547, 267, -1,
          2, 548, 267, -1,
          1, 548, 2, -1
        ]
      }
    }
}
