#VRML V2.0 utf8
WorldInfo {
  title "Exported triangle mesh to VRML97"
  info ["Created by FreeCAD"
        "<https://www.freecad.org>"]
}

Transform {
  scale 1 1 1
  rotation 0 0 1 0
  scaleOrientation 0 0 1 0
  center 0.000 0.000 0.000
  translation 0.000 0.000 0.000
  children
    Shape { 
      appearance
      Appearance {
        material
        Material {
          diffuseColor 0.8 0.8 0.8
        }
      }
      geometry
      IndexedFaceSet {
        coord
        Coordinate {
          point [
            -0.000 -12.700 -1.617,
            -0.000 -8.470 -1.370,
            0.623 -12.685 -1.617,
            1.245 -12.639 -1.617,
            1.863 -12.563 -1.617,
            2.478 -12.456 -1.617,
            3.086 -12.319 -1.617,
            3.687 -12.153 -1.617,
            4.279 -11.958 -1.617,
            0.000 8.470 -1.370,
            3.687 12.153 -1.617,
            4.279 11.958 -1.617,
            3.086 12.319 -1.617,
            2.478 12.456 -1.617,
            1.863 12.563 -1.617,
            1.245 12.639 -1.617,
            0.623 12.685 -1.617,
            0.000 12.700 -1.617,
            6.354 -9.523 -1.533,
            -0.000 -4.236 -1.223,
            4.860 -11.733 -1.617,
            5.430 -11.481 -1.617,
            5.987 -11.200 -1.617,
            6.529 -10.893 -1.617,
            7.056 -10.560 -1.617,
            7.565 -10.201 -1.617,
            8.057 -9.817 -1.617,
            8.529 -9.410 -1.617,
            8.980 -8.980 -1.617,
            9.410 -8.529 -1.617,
            6.354 -3.175 -1.312,
            0.000 0.000 -1.173,
            9.817 -8.057 -1.617,
            10.201 -7.565 -1.617,
            10.560 -7.056 -1.617,
            10.893 -6.529 -1.617,
            11.200 -5.987 -1.617,
            11.481 -5.430 -1.617,
            11.733 -4.860 -1.617,
            11.958 -4.279 -1.617,
            12.153 -3.687 -1.617,
            12.319 -3.086 -1.617,
            12.456 -2.478 -1.617,
            12.563 -1.863 -1.617,
            12.639 -1.245 -1.617,
            12.685 -0.623 -1.617,
            12.700 0.000 -1.617,
            6.354 3.175 -1.312,
            12.685 0.623 -1.617,
            12.639 1.245 -1.617,
            12.563 1.863 -1.617,
            12.456 2.478 -1.617,
            12.319 3.086 -1.617,
            12.153 3.687 -1.617,
            11.958 4.279 -1.617,
            11.733 4.860 -1.617,
            11.481 5.430 -1.617,
            11.200 5.987 -1.617,
            10.893 6.529 -1.617,
            10.560 7.056 -1.617,
            10.201 7.565 -1.617,
            9.817 8.057 -1.617,
            9.410 8.529 -1.617,
            0.000 4.236 -1.223,
            6.354 9.523 -1.533,
            8.980 8.980 -1.617,
            8.529 9.410 -1.617,
            8.057 9.817 -1.617,
            7.565 10.201 -1.617,
            7.056 10.560 -1.617,
            6.529 10.893 -1.617,
            5.987 11.200 -1.617,
            5.430 11.481 -1.617,
            4.860 11.733 -1.617,
            12.685 0.623 0.386,
            12.700 0.000 0.386,
            12.639 1.245 0.386,
            12.563 1.863 0.386,
            12.456 2.478 0.386,
            12.319 3.086 0.386,
            12.153 3.687 0.386,
            11.958 4.279 0.386,
            11.733 4.860 0.386,
            11.481 5.430 0.386,
            11.200 5.987 0.386,
            10.893 6.529 0.386,
            10.560 7.056 0.386,
            10.201 7.565 0.386,
            9.817 8.057 0.386,
            9.410 8.529 0.386,
            8.980 8.980 0.386,
            8.529 9.410 0.386,
            8.057 9.817 0.386,
            7.565 10.201 0.386,
            7.056 10.560 0.386,
            6.529 10.893 0.386,
            5.987 11.200 0.386,
            5.430 11.481 0.386,
            4.860 11.733 0.386,
            4.279 11.958 0.386,
            3.687 12.153 0.386,
            3.086 12.319 0.386,
            2.478 12.456 0.386,
            1.863 12.563 0.386,
            1.245 12.639 0.386,
            0.623 12.685 0.386,
            0.000 12.700 0.386,
            -0.623 12.685 -1.617,
            -0.623 12.685 0.386,
            -1.245 12.639 0.386,
            -1.245 12.639 -1.617,
            -1.863 12.563 0.386,
            -1.863 12.563 -1.617,
            -2.478 12.456 0.386,
            -2.478 12.456 -1.617,
            -3.086 12.319 0.386,
            -3.086 12.319 -1.617,
            -3.687 12.153 0.386,
            -3.687 12.153 -1.617,
            -4.279 11.958 0.386,
            -4.279 11.958 -1.617,
            -4.860 11.733 -1.617,
            -4.860 11.733 0.386,
            -5.430 11.481 0.386,
            -5.430 11.481 -1.617,
            -5.987 11.200 0.386,
            -5.987 11.200 -1.617,
            -6.529 10.893 -1.617,
            -6.529 10.893 0.386,
            -7.056 10.560 0.386,
            -7.056 10.560 -1.617,
            -7.565 10.201 -1.617,
            -7.565 10.201 0.386,
            -8.057 9.817 0.386,
            -8.057 9.817 -1.617,
            -8.529 9.410 0.386,
            -8.529 9.410 -1.617,
            -8.980 8.980 -1.617,
            -8.980 8.980 0.386,
            -9.410 8.529 0.386,
            -9.410 8.529 -1.617,
            -9.817 8.057 -1.617,
            -9.817 8.057 0.386,
            -10.201 7.565 0.386,
            -10.201 7.565 -1.617,
            -10.560 7.056 0.386,
            -10.560 7.056 -1.617,
            -10.893 6.529 0.386,
            -10.893 6.529 -1.617,
            -11.200 5.987 0.386,
            -11.200 5.987 -1.617,
            -11.481 5.430 0.386,
            -11.481 5.430 -1.617,
            -11.733 4.860 0.386,
            -11.733 4.860 -1.617,
            -11.958 4.279 0.386,
            -11.958 4.279 -1.617,
            -12.153 3.687 0.386,
            -12.153 3.687 -1.617,
            -12.319 3.086 0.386,
            -12.319 3.086 -1.617,
            -12.456 2.478 0.386,
            -12.456 2.478 -1.617,
            -12.563 1.863 0.386,
            -12.563 1.863 -1.617,
            -12.639 1.245 0.386,
            -12.639 1.245 -1.617,
            -12.685 0.623 0.386,
            -12.685 0.623 -1.617,
            -12.700 0.000 0.386,
            -12.700 0.000 -1.617,
            -0.000 -9.551 0.923,
            -2.478 -12.456 0.386,
            -1.863 -12.563 0.386,
            -1.245 -12.639 0.386,
            -0.623 -12.685 0.386,
            -0.000 -12.700 0.386,
            0.000 9.551 0.923,
            -4.257 -10.582 0.626,
            -7.056 -10.560 0.386,
            -6.529 -10.893 0.386,
            -5.987 -11.200 0.386,
            -5.430 -11.481 0.386,
            -4.860 -11.733 0.386,
            -4.279 -11.958 0.386,
            -3.687 -12.153 0.386,
            -3.086 -12.319 0.386,
            -4.257 -6.367 1.172,
            -7.565 -10.201 0.386,
            -0.000 -6.380 1.308,
            -0.000 -3.194 1.539,
            -8.496 -8.426 0.525,
            -10.201 -7.565 0.386,
            -9.817 -8.057 0.386,
            -9.410 -8.529 0.386,
            -8.980 -8.980 0.386,
            -8.529 -9.410 0.386,
            -8.057 -9.817 0.386,
            -4.257 -2.125 1.445,
            0.000 0.000 1.617,
            -8.496 -4.222 0.933,
            -12.456 -2.478 0.386,
            -12.319 -3.086 0.386,
            -12.153 -3.687 0.386,
            -11.958 -4.279 0.386,
            -11.733 -4.860 0.386,
            -11.481 -5.430 0.386,
            -11.200 -5.987 0.386,
            -10.893 -6.529 0.386,
            -10.560 -7.056 0.386,
            -4.257 2.125 1.445,
            0.000 3.194 1.539,
            -8.496 -0.000 1.069,
            -12.685 -0.623 0.386,
            -12.639 -1.245 0.386,
            -12.563 -1.863 0.386,
            -4.257 6.367 1.172,
            0.000 6.380 1.308,
            -8.496 4.222 0.933,
            -4.257 10.582 0.626,
            -8.496 8.426 0.525,
            0.623 -12.685 0.386,
            1.245 -12.639 0.386,
            1.863 -12.563 0.386,
            2.478 -12.456 0.386,
            3.086 -12.319 0.386,
            8.496 -6.327 0.763,
            8.057 -9.817 0.386,
            8.529 -9.410 0.386,
            8.980 -8.980 0.386,
            9.410 -8.529 0.386,
            9.817 -8.057 0.386,
            10.201 -7.565 0.386,
            10.560 -7.056 0.386,
            10.893 -6.529 0.386,
            11.200 -5.987 0.386,
            11.481 -5.430 0.386,
            11.733 -4.860 0.386,
            4.257 -8.478 0.933,
            3.687 -12.153 0.386,
            4.279 -11.958 0.386,
            4.860 -11.733 0.386,
            5.430 -11.481 0.386,
            5.987 -11.200 0.386,
            6.529 -10.893 0.386,
            7.056 -10.560 0.386,
            7.565 -10.201 0.386,
            8.496 -2.112 1.035,
            11.958 -4.279 0.386,
            12.153 -3.687 0.386,
            12.319 -3.086 0.386,
            12.456 -2.478 0.386,
            12.563 -1.863 0.386,
            12.639 -1.245 0.386,
            12.685 -0.623 0.386,
            4.257 -4.248 1.343,
            8.496 2.112 1.035,
            4.257 -0.000 1.479,
            8.496 6.327 0.763,
            4.257 4.248 1.343,
            4.257 8.478 0.933,
            -12.685 -0.623 -1.617,
            -12.639 -1.245 -1.617,
            -12.563 -1.863 -1.617,
            -12.456 -2.478 -1.617,
            -12.319 -3.086 -1.617,
            -12.153 -3.687 -1.617,
            -11.958 -4.279 -1.617,
            -11.733 -4.860 -1.617,
            -11.481 -5.430 -1.617,
            -11.200 -5.987 -1.617,
            -10.893 -6.529 -1.617,
            -10.560 -7.056 -1.617,
            -10.201 -7.565 -1.617,
            -9.817 -8.057 -1.617,
            -9.410 -8.529 -1.617,
            -8.980 -8.980 -1.617,
            -8.529 -9.410 -1.617,
            -8.057 -9.817 -1.617,
            -7.565 -10.201 -1.617,
            -7.056 -10.560 -1.617,
            -6.529 -10.893 -1.617,
            -5.987 -11.200 -1.617,
            -5.430 -11.481 -1.617,
            -4.860 -11.733 -1.617,
            -4.279 -11.958 -1.617,
            -3.687 -12.153 -1.617,
            -3.086 -12.319 -1.617,
            -2.478 -12.456 -1.617,
            -1.863 -12.563 -1.617,
            -1.245 -12.639 -1.617,
            -0.623 -12.685 -1.617,
            -6.354 -9.523 -1.533,
            -6.354 -3.175 -1.312,
            -6.354 3.175 -1.312,
            -6.354 9.523 -1.533
          ]
        }
        coordIndex [
          0, 1, 2, -1,
          2, 1, 3, -1,
          3, 1, 4, -1,
          4, 1, 5, -1,
          5, 1, 6, -1,
          6, 1, 7, -1,
          7, 1, 8, -1,
          9, 10, 11, -1,
          9, 12, 10, -1,
          9, 13, 12, -1,
          9, 14, 13, -1,
          9, 15, 14, -1,
          9, 16, 15, -1,
          9, 17, 16, -1,
          1, 18, 8, -1,
          19, 18, 1, -1,
          8, 18, 20, -1,
          20, 18, 21, -1,
          21, 18, 22, -1,
          22, 18, 23, -1,
          23, 18, 24, -1,
          24, 18, 25, -1,
          25, 18, 26, -1,
          26, 18, 27, -1,
          27, 18, 28, -1,
          28, 18, 29, -1,
          19, 30, 18, -1,
          31, 30, 19, -1,
          29, 30, 32, -1,
          32, 30, 33, -1,
          33, 30, 34, -1,
          34, 30, 35, -1,
          35, 30, 36, -1,
          36, 30, 37, -1,
          37, 30, 38, -1,
          38, 30, 39, -1,
          39, 30, 40, -1,
          40, 30, 41, -1,
          41, 30, 42, -1,
          42, 30, 43, -1,
          43, 30, 44, -1,
          18, 30, 29, -1,
          44, 30, 45, -1,
          45, 30, 46, -1,
          46, 47, 48, -1,
          48, 47, 49, -1,
          49, 47, 50, -1,
          50, 47, 51, -1,
          51, 47, 52, -1,
          52, 47, 53, -1,
          31, 47, 30, -1,
          53, 47, 54, -1,
          54, 47, 55, -1,
          55, 47, 56, -1,
          56, 47, 57, -1,
          57, 47, 58, -1,
          58, 47, 59, -1,
          59, 47, 60, -1,
          60, 47, 61, -1,
          61, 47, 62, -1,
          9, 47, 63, -1,
          63, 47, 31, -1,
          30, 47, 46, -1,
          47, 64, 62, -1,
          62, 64, 65, -1,
          65, 64, 66, -1,
          66, 64, 67, -1,
          67, 64, 68, -1,
          68, 64, 69, -1,
          69, 64, 70, -1,
          70, 64, 71, -1,
          71, 64, 72, -1,
          72, 64, 73, -1,
          73, 64, 11, -1,
          9, 64, 47, -1,
          11, 64, 9, -1,
          74, 46, 48, -1,
          74, 75, 46, -1,
          76, 48, 49, -1,
          76, 74, 48, -1,
          77, 49, 50, -1,
          77, 76, 49, -1,
          78, 50, 51, -1,
          78, 51, 52, -1,
          78, 77, 50, -1,
          79, 78, 52, -1,
          80, 52, 53, -1,
          80, 79, 52, -1,
          81, 53, 54, -1,
          81, 80, 53, -1,
          82, 54, 55, -1,
          82, 55, 56, -1,
          82, 81, 54, -1,
          83, 82, 56, -1,
          84, 56, 57, -1,
          84, 83, 56, -1,
          85, 57, 58, -1,
          85, 84, 57, -1,
          86, 58, 59, -1,
          86, 85, 58, -1,
          87, 59, 60, -1,
          87, 60, 61, -1,
          87, 86, 59, -1,
          88, 61, 62, -1,
          88, 87, 61, -1,
          89, 88, 62, -1,
          90, 62, 65, -1,
          90, 89, 62, -1,
          91, 65, 66, -1,
          91, 66, 67, -1,
          91, 90, 65, -1,
          92, 91, 67, -1,
          92, 67, 68, -1,
          93, 92, 68, -1,
          94, 93, 68, -1,
          94, 68, 69, -1,
          95, 94, 69, -1,
          95, 69, 70, -1,
          96, 70, 71, -1,
          96, 95, 70, -1,
          97, 71, 72, -1,
          97, 96, 71, -1,
          98, 72, 73, -1,
          98, 73, 11, -1,
          98, 97, 72, -1,
          99, 98, 11, -1,
          100, 11, 10, -1,
          100, 10, 12, -1,
          100, 99, 11, -1,
          101, 100, 12, -1,
          102, 12, 13, -1,
          102, 13, 14, -1,
          102, 101, 12, -1,
          103, 102, 14, -1,
          104, 14, 15, -1,
          104, 15, 16, -1,
          104, 103, 14, -1,
          105, 104, 16, -1,
          106, 16, 17, -1,
          106, 17, 107, -1,
          106, 105, 16, -1,
          108, 106, 107, -1,
          109, 107, 110, -1,
          109, 108, 107, -1,
          111, 110, 112, -1,
          111, 109, 110, -1,
          113, 112, 114, -1,
          113, 111, 112, -1,
          115, 114, 116, -1,
          115, 113, 114, -1,
          117, 116, 118, -1,
          117, 115, 116, -1,
          119, 118, 120, -1,
          119, 120, 121, -1,
          119, 117, 118, -1,
          122, 119, 121, -1,
          123, 121, 124, -1,
          123, 122, 121, -1,
          125, 123, 124, -1,
          125, 124, 126, -1,
          125, 126, 127, -1,
          128, 125, 127, -1,
          129, 128, 127, -1,
          129, 127, 130, -1,
          129, 130, 131, -1,
          132, 129, 131, -1,
          133, 132, 131, -1,
          133, 131, 134, -1,
          135, 133, 134, -1,
          135, 134, 136, -1,
          135, 136, 137, -1,
          138, 135, 137, -1,
          139, 138, 137, -1,
          139, 137, 140, -1,
          139, 140, 141, -1,
          142, 139, 141, -1,
          143, 142, 141, -1,
          143, 141, 144, -1,
          145, 143, 144, -1,
          145, 144, 146, -1,
          147, 145, 146, -1,
          147, 146, 148, -1,
          149, 147, 148, -1,
          149, 148, 150, -1,
          151, 149, 150, -1,
          151, 150, 152, -1,
          153, 152, 154, -1,
          153, 151, 152, -1,
          155, 154, 156, -1,
          155, 153, 154, -1,
          157, 156, 158, -1,
          157, 155, 156, -1,
          159, 158, 160, -1,
          159, 157, 158, -1,
          161, 160, 162, -1,
          161, 159, 160, -1,
          163, 162, 164, -1,
          163, 161, 162, -1,
          165, 164, 166, -1,
          165, 163, 164, -1,
          167, 166, 168, -1,
          167, 165, 166, -1,
          169, 168, 170, -1,
          169, 167, 168, -1,
          171, 172, 173, -1,
          171, 173, 174, -1,
          171, 174, 175, -1,
          171, 175, 176, -1,
          108, 177, 106, -1,
          109, 177, 108, -1,
          111, 177, 109, -1,
          113, 177, 111, -1,
          178, 179, 180, -1,
          178, 180, 181, -1,
          178, 181, 182, -1,
          178, 182, 183, -1,
          178, 183, 184, -1,
          178, 184, 185, -1,
          178, 185, 186, -1,
          178, 186, 172, -1,
          178, 172, 171, -1,
          187, 178, 171, -1,
          187, 188, 179, -1,
          187, 179, 178, -1,
          187, 171, 189, -1,
          187, 189, 190, -1,
          191, 188, 187, -1,
          191, 192, 193, -1,
          191, 193, 194, -1,
          191, 194, 195, -1,
          191, 195, 196, -1,
          191, 196, 197, -1,
          191, 197, 188, -1,
          198, 187, 190, -1,
          198, 190, 199, -1,
          200, 192, 191, -1,
          200, 191, 187, -1,
          200, 201, 202, -1,
          200, 202, 203, -1,
          200, 203, 204, -1,
          200, 204, 205, -1,
          200, 205, 206, -1,
          200, 206, 207, -1,
          200, 207, 208, -1,
          200, 208, 209, -1,
          200, 209, 192, -1,
          200, 187, 198, -1,
          210, 199, 211, -1,
          210, 198, 199, -1,
          212, 201, 200, -1,
          212, 200, 198, -1,
          212, 161, 163, -1,
          212, 163, 165, -1,
          212, 165, 167, -1,
          212, 167, 169, -1,
          212, 169, 213, -1,
          212, 213, 214, -1,
          212, 214, 215, -1,
          212, 215, 201, -1,
          212, 198, 210, -1,
          216, 129, 132, -1,
          216, 210, 211, -1,
          216, 217, 177, -1,
          216, 211, 217, -1,
          218, 143, 145, -1,
          218, 145, 147, -1,
          218, 147, 149, -1,
          218, 149, 151, -1,
          218, 151, 153, -1,
          218, 153, 155, -1,
          218, 155, 157, -1,
          218, 157, 159, -1,
          218, 159, 161, -1,
          218, 210, 216, -1,
          218, 161, 212, -1,
          218, 212, 210, -1,
          219, 113, 115, -1,
          219, 115, 117, -1,
          219, 117, 119, -1,
          219, 119, 122, -1,
          219, 129, 216, -1,
          219, 122, 123, -1,
          219, 123, 125, -1,
          219, 125, 128, -1,
          219, 128, 129, -1,
          219, 177, 113, -1,
          219, 216, 177, -1,
          220, 216, 132, -1,
          220, 132, 133, -1,
          220, 133, 135, -1,
          220, 135, 138, -1,
          220, 138, 139, -1,
          220, 139, 142, -1,
          220, 142, 143, -1,
          220, 218, 216, -1,
          220, 143, 218, -1,
          171, 176, 221, -1,
          171, 221, 222, -1,
          171, 222, 223, -1,
          171, 223, 224, -1,
          171, 224, 225, -1,
          102, 177, 101, -1,
          103, 177, 102, -1,
          104, 177, 103, -1,
          105, 177, 104, -1,
          106, 177, 105, -1,
          226, 227, 228, -1,
          226, 228, 229, -1,
          226, 229, 230, -1,
          226, 230, 231, -1,
          226, 231, 232, -1,
          226, 232, 233, -1,
          226, 233, 234, -1,
          226, 234, 235, -1,
          226, 235, 236, -1,
          226, 236, 237, -1,
          238, 189, 171, -1,
          238, 225, 239, -1,
          238, 239, 240, -1,
          238, 240, 241, -1,
          238, 241, 242, -1,
          238, 242, 243, -1,
          238, 243, 244, -1,
          238, 244, 245, -1,
          238, 245, 246, -1,
          238, 246, 227, -1,
          238, 227, 226, -1,
          238, 171, 225, -1,
          247, 237, 248, -1,
          247, 248, 249, -1,
          247, 249, 250, -1,
          247, 250, 251, -1,
          247, 251, 252, -1,
          247, 252, 253, -1,
          247, 253, 254, -1,
          247, 254, 75, -1,
          247, 226, 237, -1,
          255, 190, 189, -1,
          255, 226, 247, -1,
          255, 238, 226, -1,
          255, 189, 238, -1,
          256, 75, 74, -1,
          256, 74, 76, -1,
          256, 76, 77, -1,
          256, 77, 78, -1,
          256, 78, 79, -1,
          256, 79, 80, -1,
          256, 80, 81, -1,
          256, 81, 82, -1,
          256, 247, 75, -1,
          257, 199, 190, -1,
          257, 190, 255, -1,
          257, 247, 256, -1,
          257, 211, 199, -1,
          257, 255, 247, -1,
          258, 82, 83, -1,
          258, 83, 84, -1,
          258, 84, 85, -1,
          258, 85, 86, -1,
          258, 86, 87, -1,
          258, 87, 88, -1,
          258, 88, 89, -1,
          258, 89, 90, -1,
          258, 90, 91, -1,
          258, 91, 92, -1,
          258, 256, 82, -1,
          259, 211, 257, -1,
          259, 217, 211, -1,
          259, 256, 258, -1,
          259, 257, 256, -1,
          260, 101, 177, -1,
          260, 217, 259, -1,
          260, 92, 93, -1,
          260, 93, 94, -1,
          260, 94, 95, -1,
          260, 95, 96, -1,
          260, 96, 97, -1,
          260, 97, 98, -1,
          260, 98, 99, -1,
          260, 99, 100, -1,
          260, 100, 101, -1,
          260, 177, 217, -1,
          260, 258, 92, -1,
          260, 259, 258, -1,
          213, 169, 170, -1,
          213, 170, 261, -1,
          214, 261, 262, -1,
          214, 213, 261, -1,
          215, 262, 263, -1,
          215, 214, 262, -1,
          201, 263, 264, -1,
          201, 264, 265, -1,
          201, 215, 263, -1,
          202, 201, 265, -1,
          203, 265, 266, -1,
          203, 202, 265, -1,
          204, 266, 267, -1,
          204, 203, 266, -1,
          205, 267, 268, -1,
          205, 204, 267, -1,
          206, 268, 269, -1,
          206, 205, 268, -1,
          207, 269, 270, -1,
          207, 206, 269, -1,
          208, 270, 271, -1,
          208, 271, 272, -1,
          208, 207, 270, -1,
          209, 208, 272, -1,
          192, 272, 273, -1,
          192, 209, 272, -1,
          193, 273, 274, -1,
          193, 192, 273, -1,
          194, 274, 275, -1,
          194, 193, 274, -1,
          195, 275, 276, -1,
          195, 194, 275, -1,
          196, 276, 277, -1,
          196, 195, 276, -1,
          197, 196, 277, -1,
          197, 277, 278, -1,
          197, 278, 279, -1,
          188, 197, 279, -1,
          179, 188, 279, -1,
          179, 279, 280, -1,
          180, 179, 280, -1,
          180, 280, 281, -1,
          181, 281, 282, -1,
          181, 180, 281, -1,
          182, 282, 283, -1,
          182, 181, 282, -1,
          183, 283, 284, -1,
          183, 182, 283, -1,
          184, 284, 285, -1,
          184, 183, 284, -1,
          185, 285, 286, -1,
          185, 286, 287, -1,
          185, 184, 285, -1,
          186, 185, 287, -1,
          172, 287, 288, -1,
          172, 288, 289, -1,
          172, 186, 287, -1,
          173, 289, 290, -1,
          173, 172, 289, -1,
          174, 173, 290, -1,
          175, 290, 291, -1,
          175, 174, 290, -1,
          176, 291, 0, -1,
          176, 0, 2, -1,
          176, 175, 291, -1,
          221, 176, 2, -1,
          222, 2, 3, -1,
          222, 221, 2, -1,
          223, 3, 4, -1,
          223, 222, 3, -1,
          224, 4, 5, -1,
          224, 223, 4, -1,
          225, 5, 6, -1,
          225, 224, 5, -1,
          239, 6, 7, -1,
          239, 225, 6, -1,
          240, 7, 8, -1,
          240, 239, 7, -1,
          241, 8, 20, -1,
          241, 240, 8, -1,
          242, 20, 21, -1,
          242, 241, 20, -1,
          243, 242, 21, -1,
          243, 21, 22, -1,
          244, 243, 22, -1,
          244, 22, 23, -1,
          245, 244, 23, -1,
          245, 23, 24, -1,
          245, 24, 25, -1,
          246, 245, 25, -1,
          227, 246, 25, -1,
          227, 25, 26, -1,
          228, 227, 26, -1,
          228, 26, 27, -1,
          228, 27, 28, -1,
          229, 228, 28, -1,
          230, 229, 28, -1,
          230, 28, 29, -1,
          231, 230, 29, -1,
          231, 29, 32, -1,
          232, 231, 32, -1,
          232, 32, 33, -1,
          233, 232, 33, -1,
          233, 33, 34, -1,
          234, 233, 34, -1,
          234, 34, 35, -1,
          235, 234, 35, -1,
          235, 35, 36, -1,
          235, 36, 37, -1,
          236, 235, 37, -1,
          237, 37, 38, -1,
          237, 236, 37, -1,
          248, 38, 39, -1,
          248, 237, 38, -1,
          249, 39, 40, -1,
          249, 248, 39, -1,
          250, 40, 41, -1,
          250, 41, 42, -1,
          250, 249, 40, -1,
          251, 250, 42, -1,
          252, 42, 43, -1,
          252, 251, 42, -1,
          253, 43, 44, -1,
          253, 252, 43, -1,
          254, 44, 45, -1,
          254, 253, 44, -1,
          75, 45, 46, -1,
          75, 254, 45, -1,
          286, 1, 287, -1,
          287, 1, 288, -1,
          288, 1, 289, -1,
          289, 1, 290, -1,
          290, 1, 291, -1,
          291, 1, 0, -1,
          286, 285, 1, -1,
          9, 107, 17, -1,
          9, 110, 107, -1,
          9, 112, 110, -1,
          9, 114, 112, -1,
          9, 116, 114, -1,
          9, 118, 116, -1,
          9, 120, 118, -1,
          275, 292, 276, -1,
          276, 292, 277, -1,
          277, 292, 278, -1,
          278, 292, 279, -1,
          279, 292, 280, -1,
          280, 292, 281, -1,
          281, 292, 282, -1,
          282, 292, 283, -1,
          283, 292, 284, -1,
          284, 292, 285, -1,
          1, 292, 19, -1,
          285, 292, 1, -1,
          292, 293, 19, -1,
          170, 293, 261, -1,
          261, 293, 262, -1,
          262, 293, 263, -1,
          263, 293, 264, -1,
          264, 293, 265, -1,
          265, 293, 266, -1,
          266, 293, 267, -1,
          267, 293, 268, -1,
          268, 293, 269, -1,
          269, 293, 270, -1,
          270, 293, 271, -1,
          271, 293, 272, -1,
          272, 293, 273, -1,
          273, 293, 274, -1,
          274, 293, 275, -1,
          275, 293, 292, -1,
          19, 293, 31, -1,
          63, 294, 9, -1,
          31, 294, 63, -1,
          293, 294, 31, -1,
          140, 294, 141, -1,
          141, 294, 144, -1,
          144, 294, 146, -1,
          146, 294, 148, -1,
          148, 294, 150, -1,
          150, 294, 152, -1,
          152, 294, 154, -1,
          154, 294, 156, -1,
          156, 294, 158, -1,
          158, 294, 160, -1,
          160, 294, 162, -1,
          162, 294, 164, -1,
          164, 294, 166, -1,
          166, 294, 168, -1,
          168, 294, 170, -1,
          170, 294, 293, -1,
          120, 295, 121, -1,
          121, 295, 124, -1,
          124, 295, 126, -1,
          126, 295, 127, -1,
          127, 295, 130, -1,
          130, 295, 131, -1,
          131, 295, 134, -1,
          134, 295, 136, -1,
          294, 295, 9, -1,
          136, 295, 137, -1,
          137, 295, 140, -1,
          9, 295, 120, -1,
          140, 295, 294, -1
        ]
      }
    }
}
