#VRML V2.0 utf8
WorldInfo {
  title "Exported triangle mesh to VRML97"
  info ["Created by FreeCAD"
        "<https://www.freecad.org>"]
}

Transform {
  scale 1 1 1
  rotation 0 0 1 0
  scaleOrientation 0 0 1 0
  center 0.000 0.000 0.000
  translation 0.000 0.000 0.000
  children
    Shape { 
      appearance
      Appearance {
        material
        Material {
          diffuseColor 0.8 0.8 0.8
        }
      }
      geometry
      IndexedFaceSet {
        coord
        Coordinate {
          point [
            0.308 6.175 3.337,
            0.000 6.350 3.248,
            0.000 6.183 3.337,
            0.317 6.342 3.248,
            0.616 6.152 3.337,
            0.632 6.318 3.248,
            0.921 6.114 3.337,
            0.946 6.279 3.248,
            1.225 6.060 3.337,
            1.258 6.224 3.248,
            1.526 5.991 3.337,
            1.567 6.154 3.248,
            1.822 5.908 3.337,
            1.872 6.068 3.248,
            2.115 5.810 3.337,
            2.172 5.967 3.248,
            2.402 5.697 3.337,
            2.467 5.851 3.248,
            2.683 5.570 3.337,
            2.755 5.721 3.248,
            2.957 5.430 3.337,
            3.037 5.577 3.248,
            3.224 5.276 3.337,
            3.311 5.418 3.248,
            3.483 5.108 3.337,
            3.577 5.247 3.248,
            3.733 4.928 3.337,
            3.834 5.062 3.248,
            3.974 4.736 3.337,
            4.082 4.864 3.248,
            4.319 4.655 3.248,
            4.205 4.532 3.337,
            4.546 4.434 3.248,
            4.426 4.317 3.337,
            4.761 4.202 3.248,
            4.636 4.091 3.337,
            4.965 3.959 3.248,
            4.834 3.855 3.337,
            5.156 3.707 3.248,
            5.020 3.609 3.337,
            5.334 3.445 3.248,
            5.194 3.354 3.337,
            5.499 3.175 3.248,
            5.354 3.091 3.337,
            5.651 2.897 3.248,
            5.502 2.821 3.337,
            5.788 2.612 3.248,
            5.636 2.543 3.337,
            5.911 2.320 3.248,
            5.755 2.259 3.337,
            6.019 2.022 3.248,
            5.861 1.969 3.337,
            6.113 1.720 3.248,
            5.952 1.675 3.337,
            6.191 1.413 3.248,
            6.028 1.376 3.337,
            6.254 1.103 3.248,
            6.089 1.074 3.337,
            6.301 0.790 3.248,
            6.135 0.769 3.337,
            6.332 0.475 3.248,
            6.165 0.462 3.337,
            6.348 0.158 3.248,
            6.181 0.154 3.337,
            6.348 -0.158 3.248,
            6.181 -0.154 3.337,
            6.332 -0.475 3.248,
            6.165 -0.462 3.337,
            6.301 -0.790 3.248,
            6.135 -0.769 3.337,
            6.089 -1.074 3.337,
            6.254 -1.103 3.248,
            6.191 -1.413 3.248,
            6.028 -1.376 3.337,
            6.113 -1.720 3.248,
            5.952 -1.675 3.337,
            6.019 -2.022 3.248,
            5.861 -1.969 3.337,
            5.911 -2.320 3.248,
            5.755 -2.259 3.337,
            5.788 -2.612 3.248,
            5.636 -2.543 3.337,
            5.651 -2.897 3.248,
            5.502 -2.821 3.337,
            5.499 -3.175 3.248,
            5.354 -3.091 3.337,
            5.334 -3.445 3.248,
            5.194 -3.354 3.337,
            5.156 -3.707 3.248,
            5.020 -3.609 3.337,
            4.834 -3.855 3.337,
            4.965 -3.959 3.248,
            4.761 -4.202 3.248,
            4.636 -4.091 3.337,
            4.546 -4.434 3.248,
            4.426 -4.317 3.337,
            4.319 -4.655 3.248,
            4.205 -4.532 3.337,
            4.082 -4.864 3.248,
            3.974 -4.736 3.337,
            3.834 -5.062 3.248,
            3.733 -4.928 3.337,
            3.577 -5.247 3.248,
            3.483 -5.108 3.337,
            3.311 -5.418 3.248,
            3.224 -5.276 3.337,
            3.037 -5.577 3.248,
            2.957 -5.430 3.337,
            2.683 -5.570 3.337,
            2.755 -5.721 3.248,
            2.402 -5.697 3.337,
            2.467 -5.851 3.248,
            2.172 -5.967 3.248,
            2.115 -5.810 3.337,
            1.872 -6.068 3.248,
            1.822 -5.908 3.337,
            1.567 -6.154 3.248,
            1.526 -5.991 3.337,
            1.225 -6.060 3.337,
            1.258 -6.224 3.248,
            0.946 -6.279 3.248,
            0.921 -6.114 3.337,
            0.616 -6.152 3.337,
            0.632 -6.318 3.248,
            0.317 -6.342 3.248,
            0.308 -6.175 3.337,
            0.000 -6.350 3.248,
            -0.000 -6.183 3.337,
            0.000 -6.350 0.746,
            0.000 -6.189 0.432,
            0.309 -6.182 0.432,
            0.317 -6.342 0.746,
            0.616 -6.159 0.432,
            0.632 -6.318 0.746,
            0.922 -6.120 0.432,
            0.946 -6.279 0.746,
            1.226 -6.067 0.432,
            1.258 -6.224 0.746,
            1.527 -5.998 0.432,
            1.567 -6.154 0.746,
            1.824 -5.914 0.432,
            1.872 -6.068 0.746,
            2.117 -5.816 0.432,
            2.172 -5.967 0.746,
            2.404 -5.703 0.432,
            2.467 -5.851 0.746,
            2.685 -5.576 0.432,
            2.755 -5.721 0.746,
            2.960 -5.436 0.432,
            3.037 -5.577 0.746,
            3.227 -5.281 0.432,
            3.311 -5.418 0.746,
            3.487 -5.114 0.432,
            3.577 -5.247 0.746,
            3.737 -4.934 0.432,
            3.834 -5.062 0.746,
            3.978 -4.741 0.432,
            4.082 -4.864 0.746,
            4.210 -4.537 0.432,
            4.319 -4.655 0.746,
            4.431 -4.322 0.432,
            4.546 -4.434 0.746,
            4.641 -4.095 0.432,
            4.761 -4.202 0.746,
            4.839 -3.859 0.432,
            4.965 -3.959 0.746,
            5.025 -3.613 0.432,
            5.156 -3.707 0.746,
            5.199 -3.358 0.432,
            5.334 -3.445 0.746,
            5.360 -3.095 0.432,
            5.499 -3.175 0.746,
            5.508 -2.824 0.432,
            5.651 -2.897 0.746,
            5.642 -2.546 0.432,
            5.788 -2.612 0.746,
            5.762 -2.261 0.432,
            5.911 -2.320 0.746,
            5.867 -1.971 0.432,
            6.019 -2.022 0.746,
            5.958 -1.676 0.432,
            6.113 -1.720 0.746,
            6.034 -1.377 0.432,
            6.191 -1.413 0.746,
            6.095 -1.075 0.432,
            6.254 -1.103 0.746,
            6.141 -0.770 0.432,
            6.301 -0.790 0.746,
            6.172 -0.463 0.432,
            6.332 -0.475 0.746,
            6.187 -0.154 0.432,
            6.348 -0.158 0.746,
            6.187 0.154 0.432,
            6.348 0.158 0.746,
            6.172 0.463 0.432,
            6.332 0.475 0.746,
            6.141 0.770 0.432,
            6.301 0.790 0.746,
            6.095 1.075 0.432,
            6.254 1.103 0.746,
            6.034 1.377 0.432,
            6.191 1.413 0.746,
            6.113 1.720 0.746,
            5.958 1.676 0.432,
            5.867 1.971 0.432,
            6.019 2.022 0.746,
            5.762 2.261 0.432,
            5.911 2.320 0.746,
            5.642 2.546 0.432,
            5.788 2.612 0.746,
            5.508 2.824 0.432,
            5.651 2.897 0.746,
            5.360 3.095 0.432,
            5.499 3.175 0.746,
            5.199 3.358 0.432,
            5.334 3.445 0.746,
            5.156 3.707 0.746,
            5.025 3.613 0.432,
            4.839 3.859 0.432,
            4.965 3.959 0.746,
            4.761 4.202 0.746,
            4.641 4.095 0.432,
            4.546 4.434 0.746,
            4.431 4.322 0.432,
            4.210 4.537 0.432,
            4.319 4.655 0.746,
            3.978 4.741 0.432,
            4.082 4.864 0.746,
            3.834 5.062 0.746,
            3.737 4.934 0.432,
            3.577 5.247 0.746,
            3.487 5.114 0.432,
            3.311 5.418 0.746,
            3.227 5.281 0.432,
            3.037 5.577 0.746,
            2.960 5.436 0.432,
            2.755 5.721 0.746,
            2.685 5.576 0.432,
            2.404 5.703 0.432,
            2.467 5.851 0.746,
            2.172 5.967 0.746,
            2.117 5.816 0.432,
            1.824 5.914 0.432,
            1.872 6.068 0.746,
            1.527 5.998 0.432,
            1.567 6.154 0.746,
            1.258 6.224 0.746,
            1.226 6.067 0.432,
            0.922 6.120 0.432,
            0.946 6.279 0.746,
            0.616 6.159 0.432,
            0.632 6.318 0.746,
            0.309 6.182 0.432,
            0.317 6.342 0.746,
            0.000 6.350 0.746,
            0.000 6.189 0.432,
            0.000 -5.766 0.154,
            0.000 5.766 0.154,
            0.731 -5.872 0.250,
            0.731 -5.245 -0.124,
            0.000 -5.331 -0.104,
            0.000 -4.884 -0.342,
            1.458 -5.524 0.121,
            0.731 -4.595 -0.455,
            0.000 -4.426 -0.559,
            1.458 -4.889 -0.229,
            0.731 -3.924 -0.741,
            0.000 -3.959 -0.754,
            0.000 -3.483 -0.927,
            2.179 -5.150 0.047,
            1.458 -4.233 -0.536,
            2.890 -5.374 0.372,
            0.731 -3.235 -0.982,
            0.000 -2.999 -1.078,
            2.179 -4.512 -0.277,
            1.458 -3.557 -0.798,
            2.890 -4.757 0.032,
            0.731 -2.531 -1.176,
            0.000 -2.510 -1.207,
            0.000 -2.014 -1.312,
            2.179 -3.853 -0.559,
            3.588 -4.963 0.387,
            1.458 -2.865 -1.014,
            2.890 -4.118 -0.267,
            0.731 -1.816 -1.322,
            0.000 -1.514 -1.394,
            2.179 -3.176 -0.795,
            3.588 -4.347 0.074,
            1.458 -2.160 -1.183,
            2.890 -3.460 -0.522,
            0.731 -1.093 -1.420,
            0.000 -1.011 -1.453,
            0.000 -0.506 -1.488,
            2.179 -2.485 -0.986,
            3.588 -3.712 -0.197,
            1.458 -1.446 -1.304,
            2.890 -2.787 -0.732,
            4.270 -3.928 0.176,
            0.731 -0.365 -1.469,
            0.000 0.000 -1.500,
            2.179 -1.783 -1.129,
            3.588 -3.061 -0.425,
            1.458 -0.724 -1.377,
            2.890 -2.101 -0.896,
            4.270 -3.301 -0.067,
            0.731 0.365 -1.469,
            0.000 0.506 -1.488,
            2.179 -1.073 -1.225,
            3.588 -2.395 -0.608,
            4.932 -3.505 0.338,
            1.458 -0.000 -1.402,
            2.890 -1.406 -1.014,
            4.270 -2.659 -0.267,
            0.731 1.093 -1.420,
            0.000 1.011 -1.453,
            0.000 1.514 -1.394,
            2.179 -0.358 -1.274,
            3.588 -1.718 -0.746,
            4.932 -2.890 0.123,
            1.458 0.724 -1.377,
            2.890 -0.705 -1.085,
            4.270 -2.005 -0.424,
            0.731 1.816 -1.322,
            0.000 2.014 -1.312,
            2.179 0.358 -1.274,
            3.588 -1.034 -0.839,
            4.932 -2.261 -0.050,
            1.458 1.446 -1.304,
            2.890 -0.000 -1.109,
            4.270 -1.342 -0.537,
            0.731 2.531 -1.176,
            0.000 2.510 -1.207,
            0.000 2.999 -1.078,
            5.572 -2.483 0.371,
            2.179 1.073 -1.225,
            3.588 -0.345 -0.885,
            4.932 -1.622 -0.181,
            1.458 2.160 -1.183,
            2.890 0.705 -1.085,
            4.270 -0.672 -0.604,
            0.731 3.235 -0.982,
            0.000 3.483 -0.927,
            5.572 -1.872 0.225,
            2.179 1.783 -1.129,
            3.588 0.345 -0.885,
            4.932 -0.976 -0.268,
            1.458 2.865 -1.014,
            2.890 1.406 -1.014,
            4.270 -0.000 -0.627,
            0.731 3.924 -0.741,
            0.000 3.959 -0.754,
            0.000 4.426 -0.559,
            5.572 -1.253 0.120,
            2.179 2.485 -0.986,
            3.588 1.034 -0.839,
            4.932 -0.326 -0.312,
            1.458 3.557 -0.798,
            2.890 2.101 -0.896,
            4.270 0.672 -0.604,
            0.731 4.595 -0.455,
            0.000 4.884 -0.342,
            5.572 -0.628 0.057,
            2.179 3.176 -0.795,
            3.588 1.718 -0.746,
            4.932 0.326 -0.312,
            1.458 4.233 -0.536,
            2.890 2.787 -0.732,
            4.270 1.342 -0.537,
            0.731 5.245 -0.124,
            0.000 5.331 -0.104,
            5.572 -0.000 0.036,
            2.179 3.853 -0.559,
            3.588 2.395 -0.608,
            4.932 0.976 -0.268,
            1.458 4.889 -0.229,
            2.890 3.460 -0.522,
            4.270 2.005 -0.424,
            0.731 5.872 0.250,
            5.572 0.628 0.057,
            2.179 4.512 -0.277,
            3.588 3.061 -0.425,
            4.932 1.622 -0.181,
            1.458 5.524 0.121,
            2.890 4.118 -0.267,
            4.270 2.659 -0.267,
            5.572 1.253 0.120,
            2.179 5.150 0.047,
            3.588 3.712 -0.197,
            4.932 2.261 -0.050,
            2.890 4.757 0.032,
            4.270 3.301 -0.067,
            5.572 1.872 0.225,
            3.588 4.347 0.074,
            4.932 2.890 0.123,
            2.890 5.374 0.372,
            4.270 3.928 0.176,
            5.572 2.483 0.371,
            3.588 4.963 0.387,
            4.932 3.505 0.338,
            0.000 5.719 3.050,
            -0.000 -5.719 3.050,
            4.252 4.161 3.189,
            4.916 3.071 3.096,
            3.570 4.593 3.109,
            5.560 1.997 3.163,
            4.252 3.497 2.929,
            2.874 5.015 3.087,
            4.916 2.403 2.910,
            3.570 3.923 2.819,
            2.166 5.422 3.122,
            5.560 1.336 3.050,
            4.252 2.818 2.714,
            2.874 4.343 2.769,
            1.449 5.809 3.212,
            4.916 1.725 2.770,
            3.570 3.235 2.576,
            2.166 4.751 2.776,
            5.560 0.670 2.982,
            4.252 2.125 2.546,
            2.874 3.650 2.497,
            1.449 5.143 2.840,
            4.916 1.038 2.676,
            3.570 2.532 2.380,
            2.166 4.058 2.476,
            0.726 5.513 2.959,
            0.000 5.242 2.787,
            5.560 0.000 2.959,
            4.252 1.422 2.425,
            2.874 2.940 2.273,
            1.449 4.453 2.514,
            4.916 0.347 2.629,
            3.570 1.817 2.232,
            2.166 3.346 2.225,
            0.726 4.830 2.608,
            0.000 4.253 2.329,
            0.000 4.753 2.546,
            5.560 -0.670 2.982,
            4.252 0.713 2.353,
            2.874 2.217 2.098,
            1.449 3.743 2.235,
            4.916 -0.347 2.629,
            3.570 1.093 2.133,
            2.166 2.618 2.022,
            0.726 4.126 2.303,
            0.000 3.743 2.137,
            5.560 -1.336 3.050,
            4.252 0.000 2.329,
            2.874 1.484 1.972,
            1.449 3.015 2.005,
            4.916 -1.038 2.676,
            3.570 0.365 2.084,
            2.166 1.879 1.869,
            0.726 3.402 2.048,
            0.000 3.225 1.969,
            5.560 -1.997 3.163,
            4.252 -0.713 2.353,
            2.874 0.744 1.896,
            1.449 2.274 1.826,
            4.916 -1.725 2.770,
            3.570 -0.365 2.084,
            2.166 1.131 1.767,
            0.726 2.662 1.841,
            0.000 2.167 1.709,
            0.000 2.699 1.826,
            4.252 -1.422 2.425,
            2.874 0.000 1.871,
            1.449 1.522 1.697,
            4.916 -2.403 2.910,
            3.570 -1.093 2.133,
            2.166 0.378 1.715,
            0.726 1.910 1.686,
            0.000 1.629 1.618,
            4.252 -2.125 2.546,
            2.874 -0.744 1.896,
            1.449 0.763 1.619,
            4.916 -3.071 3.096,
            3.570 -1.817 2.232,
            2.166 -0.378 1.715,
            0.726 1.150 1.582,
            0.000 0.545 1.513,
            0.000 1.088 1.552,
            4.252 -2.818 2.714,
            2.874 -1.484 1.972,
            1.449 0.000 1.593,
            3.570 -2.532 2.380,
            2.166 -1.131 1.767,
            0.726 0.384 1.530,
            0.000 0.000 1.500,
            4.252 -3.497 2.929,
            2.874 -2.217 2.098,
            1.449 -0.763 1.619,
            3.570 -3.235 2.576,
            2.166 -1.879 1.869,
            -0.000 -0.545 1.513,
            0.726 -0.384 1.530,
            4.252 -4.161 3.189,
            2.874 -2.940 2.273,
            1.449 -1.522 1.697,
            3.570 -3.923 2.819,
            2.166 -2.618 2.022,
            0.726 -1.150 1.582,
            -0.000 -1.088 1.552,
            -0.000 -1.629 1.618,
            2.874 -3.650 2.497,
            1.449 -2.274 1.826,
            3.570 -4.593 3.109,
            2.166 -3.346 2.225,
            0.726 -1.910 1.686,
            -0.000 -2.167 1.709,
            2.874 -4.343 2.769,
            1.449 -3.015 2.005,
            2.166 -4.058 2.476,
            0.726 -2.662 1.841,
            -0.000 -2.699 1.826,
            -0.000 -3.225 1.969,
            2.874 -5.015 3.087,
            1.449 -3.743 2.235,
            2.166 -4.751 2.776,
            0.726 -3.402 2.048,
            -0.000 -3.743 2.137,
            1.449 -4.453 2.514,
            2.166 -5.422 3.122,
            0.726 -4.126 2.303,
            -0.000 -4.253 2.329,
            1.449 -5.143 2.840,
            0.726 -4.830 2.608,
            -0.000 -4.753 2.546,
            -0.000 -5.242 2.787,
            1.449 -5.809 3.212,
            0.726 -5.513 2.959,
            -0.308 6.175 3.337,
            -0.308 -6.175 3.337,
            -0.616 6.152 3.337,
            -0.726 5.845 3.152,
            -0.921 6.114 3.337,
            -1.225 6.060 3.337,
            -0.726 5.175 2.778,
            -1.449 5.479 3.020,
            -1.526 5.991 3.337,
            -1.822 5.908 3.337,
            -2.115 5.810 3.337,
            -0.726 4.481 2.450,
            -1.449 4.801 2.671,
            -0.726 3.766 2.169,
            -2.402 5.697 3.337,
            -2.166 5.090 2.943,
            -2.683 5.570 3.337,
            -1.449 4.100 2.368,
            -2.957 5.430 3.337,
            -2.874 5.343 3.263,
            -3.224 5.276 3.337,
            -0.726 3.034 1.938,
            -2.166 4.407 2.620,
            -1.449 3.381 2.114,
            -2.874 4.682 2.922,
            -0.726 2.288 1.757,
            -2.166 3.704 2.344,
            -3.483 5.108 3.337,
            -3.570 4.921 3.271,
            -3.733 4.928 3.337,
            -3.974 4.736 3.337,
            -1.449 2.646 1.909,
            -2.874 3.999 2.627,
            -0.726 1.531 1.627,
            -2.166 2.984 2.117,
            -4.205 4.532 3.337,
            -3.570 4.261 2.958,
            -1.449 1.899 1.755,
            -2.874 3.297 2.379,
            -0.726 0.767 1.549,
            -2.166 2.250 1.939,
            -3.570 3.581 2.692,
            -1.449 1.143 1.651,
            -2.874 2.580 2.179,
            -4.252 3.832 3.053,
            -4.426 4.317 3.337,
            -4.636 4.091 3.337,
            -4.834 3.855 3.337,
            -0.726 0.000 1.523,
            -2.166 1.506 1.812,
            -3.570 2.885 2.472,
            -1.449 0.381 1.600,
            -2.874 1.852 2.028,
            -4.252 3.159 2.815,
            -0.726 -0.767 1.549,
            -2.166 0.755 1.735,
            -3.570 2.175 2.300,
            -5.020 3.609 3.337,
            -4.916 3.399 3.206,
            -5.194 3.354 3.337,
            -5.354 3.091 3.337,
            -1.449 -0.381 1.600,
            -2.874 1.114 1.928,
            -4.252 2.473 2.624,
            -0.726 -1.531 1.627,
            -2.166 0.000 1.709,
            -3.570 1.456 2.177,
            -5.502 2.821 3.337,
            -4.916 2.739 2.997,
            -1.449 -1.143 1.651,
            -2.874 0.372 1.877,
            -4.252 1.774 2.480,
            -0.726 -2.288 1.757,
            -2.166 -0.755 1.735,
            -3.570 0.730 2.102,
            -4.916 2.065 2.834,
            -1.449 -1.899 1.755,
            -2.874 -0.372 1.877,
            -4.252 1.068 2.383,
            -5.560 2.324 3.237,
            -5.636 2.543 3.337,
            -5.755 2.259 3.337,
            -5.861 1.969 3.337,
            -0.726 -3.034 1.938,
            -2.166 -1.506 1.812,
            -3.570 0.000 2.078,
            -4.916 1.382 2.717,
            -1.449 -2.646 1.909,
            -2.874 -1.114 1.928,
            -4.252 0.357 2.335,
            -5.952 1.675 3.337,
            -5.560 1.668 3.101,
            -6.028 1.376 3.337,
            -0.726 -3.766 2.169,
            -2.166 -2.250 1.939,
            -3.570 -0.730 2.102,
            -4.916 0.693 2.646,
            -1.449 -3.381 2.114,
            -2.874 -1.852 2.028,
            -4.252 -0.357 2.335,
            -5.560 1.004 3.010,
            -6.089 1.074 3.337,
            -6.135 0.769 3.337,
            -0.726 -4.481 2.450,
            -2.166 -2.984 2.117,
            -3.570 -1.456 2.177,
            -4.916 0.000 2.623,
            -1.449 -4.100 2.368,
            -2.874 -2.580 2.179,
            -4.252 -1.068 2.383,
            -5.560 0.335 2.965,
            -6.165 0.462 3.337,
            -6.181 0.154 3.337,
            -0.726 -5.175 2.778,
            -2.166 -3.704 2.344,
            -3.570 -2.175 2.300,
            -4.916 -0.693 2.646,
            -1.449 -4.801 2.671,
            -2.874 -3.297 2.379,
            -4.252 -1.774 2.480,
            -5.560 -0.335 2.965,
            -6.181 -0.154 3.337,
            -6.165 -0.462 3.337,
            -6.135 -0.769 3.337,
            -0.726 -5.845 3.152,
            -0.921 -6.114 3.337,
            -1.225 -6.060 3.337,
            -0.616 -6.152 3.337,
            -2.166 -4.407 2.620,
            -3.570 -2.885 2.472,
            -4.916 -1.382 2.717,
            -1.449 -5.479 3.020,
            -1.822 -5.908 3.337,
            -2.115 -5.810 3.337,
            -1.526 -5.991 3.337,
            -2.874 -3.999 2.627,
            -4.252 -2.473 2.624,
            -5.560 -1.004 3.010,
            -6.089 -1.074 3.337,
            -6.028 -1.376 3.337,
            -2.166 -5.090 2.943,
            -2.402 -5.697 3.337,
            -2.683 -5.570 3.337,
            -3.570 -3.581 2.692,
            -4.916 -2.065 2.834,
            -2.874 -4.682 2.922,
            -4.252 -3.159 2.815,
            -5.952 -1.675 3.337,
            -5.560 -1.668 3.101,
            -5.861 -1.969 3.337,
            -3.570 -4.261 2.958,
            -3.974 -4.736 3.337,
            -4.205 -4.532 3.337,
            -4.916 -2.739 2.997,
            -5.354 -3.091 3.337,
            -5.502 -2.821 3.337,
            -2.874 -5.343 3.263,
            -2.957 -5.430 3.337,
            -3.224 -5.276 3.337,
            -4.636 -4.091 3.337,
            -4.252 -3.832 3.053,
            -4.834 -3.855 3.337,
            -4.426 -4.317 3.337,
            -5.755 -2.259 3.337,
            -5.560 -2.324 3.237,
            -5.636 -2.543 3.337,
            -3.570 -4.921 3.271,
            -3.733 -4.928 3.337,
            -3.483 -5.108 3.337,
            -5.194 -3.354 3.337,
            -4.916 -3.399 3.206,
            -5.020 -3.609 3.337,
            -0.309 -6.182 0.432,
            -0.309 6.182 0.432,
            -4.270 -4.236 0.314,
            -4.210 -4.537 0.432,
            -4.431 -4.322 0.432,
            -4.641 -4.095 0.432,
            -4.932 -3.199 0.225,
            -5.025 -3.613 0.432,
            -5.199 -3.358 0.432,
            -5.360 -3.095 0.432,
            -3.588 -4.658 0.226,
            -3.487 -5.114 0.432,
            -3.737 -4.934 0.432,
            -3.978 -4.741 0.432,
            -5.572 -2.179 0.293,
            -5.642 -2.546 0.432,
            -5.762 -2.261 0.432,
            -5.867 -1.971 0.432,
            -4.270 -3.617 0.050,
            -4.839 -3.859 0.432,
            -2.890 -5.068 0.197,
            -2.685 -5.576 0.432,
            -2.960 -5.436 0.432,
            -3.227 -5.281 0.432,
            -4.932 -2.577 0.031,
            -5.508 -2.824 0.432,
            -3.588 -4.032 -0.067,
            -2.179 -5.461 0.226,
            -1.824 -5.914 0.432,
            -2.117 -5.816 0.432,
            -2.404 -5.703 0.432,
            -5.572 -1.563 0.167,
            -5.958 -1.676 0.432,
            -6.034 -1.377 0.432,
            -4.270 -2.982 -0.172,
            -2.890 -4.440 -0.123,
            -1.458 -5.832 0.312,
            -1.226 -6.067 0.432,
            -1.527 -5.998 0.432,
            -4.932 -1.943 -0.121,
            -3.588 -3.388 -0.316,
            -2.179 -4.834 -0.120,
            -5.572 -0.941 0.083,
            -6.095 -1.075 0.432,
            -6.141 -0.770 0.432,
            -4.270 -2.333 -0.351,
            -2.890 -3.791 -0.400,
            -1.458 -5.210 -0.060,
            -4.932 -1.300 -0.230,
            -3.588 -2.729 -0.522,
            -2.179 -4.185 -0.424,
            -5.572 -0.314 0.041,
            -6.172 -0.463 0.432,
            -6.187 -0.154 0.432,
            -0.731 -5.562 0.058,
            -0.616 -6.159 0.432,
            -0.922 -6.120 0.432,
            -4.270 -1.674 -0.486,
            -2.890 -3.126 -0.633,
            -1.458 -4.564 -0.388,
            -4.932 -0.652 -0.296,
            -3.588 -2.058 -0.683,
            -2.179 -3.517 -0.683,
            -5.572 0.314 0.041,
            -6.187 0.154 0.432,
            -6.172 0.463 0.432,
            -6.141 0.770 0.432,
            -0.731 -4.923 -0.295,
            -4.270 -1.008 -0.576,
            -2.890 -2.446 -0.820,
            -1.458 -3.897 -0.673,
            -4.932 -0.000 -0.318,
            -3.588 -1.377 -0.799,
            -2.179 -2.832 -0.896,
            -5.572 0.941 0.083,
            -6.095 1.075 0.432,
            -6.034 1.377 0.432,
            -0.731 -4.262 -0.604,
            -4.270 -0.336 -0.621,
            -2.890 -1.755 -0.961,
            -1.458 -3.213 -0.912,
            -4.932 0.652 -0.296,
            -3.588 -0.690 -0.868,
            -2.179 -2.136 -1.063,
            -5.572 1.563 0.167,
            -5.958 1.676 0.432,
            -5.867 1.971 0.432,
            -0.731 -3.581 -0.868,
            -4.270 0.336 -0.621,
            -2.890 -1.056 -1.056,
            -1.458 -2.514 -1.105,
            -4.932 1.300 -0.230,
            -3.588 -0.000 -0.891,
            -2.179 -1.429 -1.183,
            -5.572 2.179 0.293,
            -5.762 2.261 0.432,
            -5.642 2.546 0.432,
            -0.731 -2.885 -1.085,
            -4.270 1.008 -0.576,
            -2.890 -0.353 -1.103,
            -1.458 -1.804 -1.250,
            -4.932 1.943 -0.121,
            -3.588 0.690 -0.868,
            -2.179 -0.716 -1.255,
            -0.731 -2.175 -1.255,
            -4.270 1.674 -0.486,
            -2.890 0.353 -1.103,
            -1.458 -1.086 -1.347,
            -4.932 2.577 0.031,
            -5.508 2.824 0.432,
            -5.360 3.095 0.432,
            -3.588 1.377 -0.799,
            -2.179 -0.000 -1.280,
            -0.731 -1.455 -1.377,
            -4.270 2.333 -0.351,
            -2.890 1.056 -1.056,
            -1.458 -0.362 -1.396,
            -4.932 3.199 0.225,
            -5.199 3.358 0.432,
            -5.025 3.613 0.432,
            -3.588 2.058 -0.683,
            -2.179 0.716 -1.255,
            -0.731 -0.729 -1.451,
            -4.270 2.982 -0.172,
            -2.890 1.755 -0.961,
            -1.458 0.362 -1.396,
            -3.588 2.729 -0.522,
            -2.179 1.429 -1.183,
            -0.731 -0.000 -1.475,
            -4.270 3.617 0.050,
            -4.839 3.859 0.432,
            -4.641 4.095 0.432,
            -2.890 2.446 -0.820,
            -1.458 1.086 -1.347,
            -3.588 3.388 -0.316,
            -2.179 2.136 -1.063,
            -0.731 0.729 -1.451,
            -4.270 4.236 0.314,
            -4.431 4.322 0.432,
            -4.210 4.537 0.432,
            -2.890 3.126 -0.633,
            -1.458 1.804 -1.250,
            -3.588 4.032 -0.067,
            -2.179 2.832 -0.896,
            -0.731 1.455 -1.377,
            -2.890 3.791 -0.400,
            -1.458 2.514 -1.105,
            -3.588 4.658 0.226,
            -3.978 4.741 0.432,
            -3.737 4.934 0.432,
            -3.487 5.114 0.432,
            -2.179 3.517 -0.683,
            -0.731 2.175 -1.255,
            -2.890 4.440 -0.123,
            -1.458 3.213 -0.912,
            -2.179 4.185 -0.424,
            -0.731 2.885 -1.085,
            -2.890 5.068 0.197,
            -3.227 5.281 0.432,
            -2.960 5.436 0.432,
            -2.685 5.576 0.432,
            -1.458 3.897 -0.673,
            -2.179 4.834 -0.120,
            -0.731 3.581 -0.868,
            -1.458 4.564 -0.388,
            -2.179 5.461 0.226,
            -2.404 5.703 0.432,
            -2.117 5.816 0.432,
            -1.824 5.914 0.432,
            -0.731 4.262 -0.604,
            -1.458 5.210 -0.060,
            -0.731 4.923 -0.295,
            -1.458 5.832 0.312,
            -1.527 5.998 0.432,
            -1.226 6.067 0.432,
            -0.731 5.562 0.058,
            -0.922 6.120 0.432,
            -0.616 6.159 0.432,
            -0.317 6.342 3.248,
            -0.317 6.342 0.746,
            -0.632 6.318 3.248,
            -0.632 6.318 0.746,
            -0.946 6.279 3.248,
            -0.946 6.279 0.746,
            -1.258 6.224 3.248,
            -1.258 6.224 0.746,
            -1.567 6.154 3.248,
            -1.567 6.154 0.746,
            -1.872 6.068 3.248,
            -1.872 6.068 0.746,
            -2.172 5.967 3.248,
            -2.172 5.967 0.746,
            -2.467 5.851 3.248,
            -2.467 5.851 0.746,
            -2.755 5.721 3.248,
            -2.755 5.721 0.746,
            -3.037 5.577 3.248,
            -3.037 5.577 0.746,
            -3.311 5.418 3.248,
            -3.311 5.418 0.746,
            -3.577 5.247 3.248,
            -3.577 5.247 0.746,
            -3.834 5.062 3.248,
            -3.834 5.062 0.746,
            -4.082 4.864 3.248,
            -4.082 4.864 0.746,
            -4.319 4.655 3.248,
            -4.319 4.655 0.746,
            -4.546 4.434 3.248,
            -4.546 4.434 0.746,
            -4.761 4.202 3.248,
            -4.761 4.202 0.746,
            -4.965 3.959 3.248,
            -4.965 3.959 0.746,
            -5.156 3.707 3.248,
            -5.156 3.707 0.746,
            -5.334 3.445 3.248,
            -5.334 3.445 0.746,
            -5.499 3.175 3.248,
            -5.499 3.175 0.746,
            -5.651 2.897 3.248,
            -5.651 2.897 0.746,
            -5.788 2.612 3.248,
            -5.788 2.612 0.746,
            -5.911 2.320 3.248,
            -5.911 2.320 0.746,
            -6.019 2.022 3.248,
            -6.019 2.022 0.746,
            -6.113 1.720 3.248,
            -6.113 1.720 0.746,
            -6.191 1.413 3.248,
            -6.191 1.413 0.746,
            -6.254 1.103 3.248,
            -6.254 1.103 0.746,
            -6.301 0.790 3.248,
            -6.301 0.790 0.746,
            -6.332 0.475 3.248,
            -6.332 0.475 0.746,
            -6.348 0.158 3.248,
            -6.348 0.158 0.746,
            -6.348 -0.158 3.248,
            -6.348 -0.158 0.746,
            -6.332 -0.475 3.248,
            -6.332 -0.475 0.746,
            -6.301 -0.790 3.248,
            -6.301 -0.790 0.746,
            -6.254 -1.103 3.248,
            -6.254 -1.103 0.746,
            -6.191 -1.413 3.248,
            -6.191 -1.413 0.746,
            -6.113 -1.720 3.248,
            -6.113 -1.720 0.746,
            -6.019 -2.022 3.248,
            -6.019 -2.022 0.746,
            -5.911 -2.320 3.248,
            -5.911 -2.320 0.746,
            -5.788 -2.612 3.248,
            -5.788 -2.612 0.746,
            -5.651 -2.897 3.248,
            -5.651 -2.897 0.746,
            -5.499 -3.175 3.248,
            -5.499 -3.175 0.746,
            -5.334 -3.445 3.248,
            -5.334 -3.445 0.746,
            -5.156 -3.707 3.248,
            -5.156 -3.707 0.746,
            -4.965 -3.959 3.248,
            -4.965 -3.959 0.746,
            -4.761 -4.202 3.248,
            -4.761 -4.202 0.746,
            -4.546 -4.434 3.248,
            -4.546 -4.434 0.746,
            -4.319 -4.655 3.248,
            -4.319 -4.655 0.746,
            -4.082 -4.864 3.248,
            -4.082 -4.864 0.746,
            -3.834 -5.062 3.248,
            -3.834 -5.062 0.746,
            -3.577 -5.247 3.248,
            -3.577 -5.247 0.746,
            -3.311 -5.418 3.248,
            -3.311 -5.418 0.746,
            -3.037 -5.577 0.746,
            -3.037 -5.577 3.248,
            -2.755 -5.721 3.248,
            -2.755 -5.721 0.746,
            -2.467 -5.851 3.248,
            -2.467 -5.851 0.746,
            -2.172 -5.967 3.248,
            -2.172 -5.967 0.746,
            -1.872 -6.068 3.248,
            -1.872 -6.068 0.746,
            -1.567 -6.154 3.248,
            -1.567 -6.154 0.746,
            -1.258 -6.224 3.248,
            -1.258 -6.224 0.746,
            -0.946 -6.279 3.248,
            -0.946 -6.279 0.746,
            -0.632 -6.318 3.248,
            -0.632 -6.318 0.746,
            -0.317 -6.342 3.248,
            -0.317 -6.342 0.746
          ]
        }
        coordIndex [
          0, 1, 2, -1,
          3, 1, 0, -1,
          4, 3, 0, -1,
          5, 3, 4, -1,
          6, 5, 4, -1,
          7, 5, 6, -1,
          8, 7, 6, -1,
          9, 7, 8, -1,
          10, 9, 8, -1,
          11, 9, 10, -1,
          12, 11, 10, -1,
          13, 11, 12, -1,
          14, 13, 12, -1,
          15, 13, 14, -1,
          16, 15, 14, -1,
          17, 15, 16, -1,
          18, 17, 16, -1,
          19, 17, 18, -1,
          20, 19, 18, -1,
          21, 19, 20, -1,
          22, 21, 20, -1,
          23, 21, 22, -1,
          24, 23, 22, -1,
          25, 23, 24, -1,
          26, 25, 24, -1,
          27, 25, 26, -1,
          28, 27, 26, -1,
          29, 27, 28, -1,
          30, 28, 31, -1,
          30, 29, 28, -1,
          32, 31, 33, -1,
          32, 30, 31, -1,
          34, 33, 35, -1,
          34, 32, 33, -1,
          36, 34, 35, -1,
          36, 35, 37, -1,
          38, 36, 37, -1,
          38, 37, 39, -1,
          40, 38, 39, -1,
          40, 39, 41, -1,
          42, 40, 41, -1,
          42, 41, 43, -1,
          44, 42, 43, -1,
          44, 43, 45, -1,
          46, 44, 45, -1,
          46, 45, 47, -1,
          48, 46, 47, -1,
          48, 47, 49, -1,
          50, 48, 49, -1,
          50, 49, 51, -1,
          52, 50, 51, -1,
          52, 51, 53, -1,
          54, 53, 55, -1,
          54, 52, 53, -1,
          56, 55, 57, -1,
          56, 54, 55, -1,
          58, 57, 59, -1,
          58, 56, 57, -1,
          60, 59, 61, -1,
          60, 58, 59, -1,
          62, 61, 63, -1,
          62, 60, 61, -1,
          64, 63, 65, -1,
          64, 62, 63, -1,
          66, 65, 67, -1,
          66, 64, 65, -1,
          68, 67, 69, -1,
          68, 66, 67, -1,
          70, 68, 69, -1,
          71, 68, 70, -1,
          72, 70, 73, -1,
          72, 71, 70, -1,
          74, 73, 75, -1,
          74, 72, 73, -1,
          76, 75, 77, -1,
          76, 74, 75, -1,
          78, 77, 79, -1,
          78, 76, 77, -1,
          80, 79, 81, -1,
          80, 78, 79, -1,
          82, 81, 83, -1,
          82, 80, 81, -1,
          84, 83, 85, -1,
          84, 82, 83, -1,
          86, 85, 87, -1,
          86, 84, 85, -1,
          88, 86, 87, -1,
          88, 87, 89, -1,
          90, 88, 89, -1,
          91, 88, 90, -1,
          92, 91, 90, -1,
          92, 90, 93, -1,
          94, 92, 93, -1,
          94, 93, 95, -1,
          96, 95, 97, -1,
          96, 94, 95, -1,
          98, 97, 99, -1,
          98, 96, 97, -1,
          100, 99, 101, -1,
          100, 98, 99, -1,
          102, 101, 103, -1,
          102, 100, 101, -1,
          104, 103, 105, -1,
          104, 102, 103, -1,
          106, 105, 107, -1,
          106, 104, 105, -1,
          108, 106, 107, -1,
          109, 106, 108, -1,
          110, 109, 108, -1,
          111, 109, 110, -1,
          112, 110, 113, -1,
          112, 111, 110, -1,
          114, 113, 115, -1,
          114, 112, 113, -1,
          116, 115, 117, -1,
          116, 114, 115, -1,
          118, 116, 117, -1,
          119, 116, 118, -1,
          120, 118, 121, -1,
          120, 119, 118, -1,
          122, 120, 121, -1,
          123, 120, 122, -1,
          124, 122, 125, -1,
          124, 123, 122, -1,
          126, 125, 127, -1,
          126, 124, 125, -1,
          128, 129, 130, -1,
          131, 128, 130, -1,
          131, 130, 132, -1,
          133, 131, 132, -1,
          133, 132, 134, -1,
          135, 133, 134, -1,
          135, 134, 136, -1,
          137, 135, 136, -1,
          137, 136, 138, -1,
          139, 137, 138, -1,
          139, 138, 140, -1,
          141, 140, 142, -1,
          141, 139, 140, -1,
          143, 142, 144, -1,
          143, 141, 142, -1,
          145, 144, 146, -1,
          145, 143, 144, -1,
          147, 146, 148, -1,
          147, 145, 146, -1,
          149, 148, 150, -1,
          149, 147, 148, -1,
          151, 150, 152, -1,
          151, 149, 150, -1,
          153, 152, 154, -1,
          153, 151, 152, -1,
          155, 154, 156, -1,
          155, 153, 154, -1,
          157, 156, 158, -1,
          157, 155, 156, -1,
          159, 158, 160, -1,
          159, 157, 158, -1,
          161, 160, 162, -1,
          161, 159, 160, -1,
          163, 162, 164, -1,
          163, 161, 162, -1,
          165, 163, 164, -1,
          165, 164, 166, -1,
          167, 165, 166, -1,
          167, 166, 168, -1,
          169, 167, 168, -1,
          169, 168, 170, -1,
          171, 169, 170, -1,
          171, 170, 172, -1,
          173, 171, 172, -1,
          173, 172, 174, -1,
          175, 173, 174, -1,
          175, 174, 176, -1,
          177, 175, 176, -1,
          177, 176, 178, -1,
          179, 177, 178, -1,
          179, 178, 180, -1,
          181, 179, 180, -1,
          181, 180, 182, -1,
          183, 182, 184, -1,
          183, 181, 182, -1,
          185, 184, 186, -1,
          185, 183, 184, -1,
          187, 186, 188, -1,
          187, 185, 186, -1,
          189, 188, 190, -1,
          189, 187, 188, -1,
          191, 190, 192, -1,
          191, 189, 190, -1,
          193, 192, 194, -1,
          193, 191, 192, -1,
          195, 194, 196, -1,
          195, 193, 194, -1,
          197, 196, 198, -1,
          197, 195, 196, -1,
          199, 198, 200, -1,
          199, 197, 198, -1,
          201, 199, 200, -1,
          202, 203, 204, -1,
          202, 200, 203, -1,
          202, 201, 200, -1,
          205, 204, 206, -1,
          205, 202, 204, -1,
          207, 206, 208, -1,
          207, 205, 206, -1,
          209, 208, 210, -1,
          209, 207, 208, -1,
          211, 210, 212, -1,
          211, 209, 210, -1,
          213, 212, 214, -1,
          213, 211, 212, -1,
          215, 213, 214, -1,
          216, 215, 214, -1,
          216, 217, 218, -1,
          216, 214, 217, -1,
          219, 216, 218, -1,
          220, 219, 218, -1,
          220, 218, 221, -1,
          222, 220, 221, -1,
          222, 223, 224, -1,
          222, 221, 223, -1,
          225, 224, 226, -1,
          225, 222, 224, -1,
          227, 225, 226, -1,
          228, 226, 229, -1,
          228, 227, 226, -1,
          230, 229, 231, -1,
          230, 228, 229, -1,
          232, 231, 233, -1,
          232, 230, 231, -1,
          234, 233, 235, -1,
          234, 232, 233, -1,
          236, 237, 238, -1,
          236, 235, 237, -1,
          236, 234, 235, -1,
          239, 236, 238, -1,
          240, 241, 242, -1,
          240, 238, 241, -1,
          240, 239, 238, -1,
          243, 242, 244, -1,
          243, 240, 242, -1,
          245, 243, 244, -1,
          246, 247, 248, -1,
          246, 244, 247, -1,
          246, 245, 244, -1,
          249, 248, 250, -1,
          249, 246, 248, -1,
          251, 250, 252, -1,
          251, 249, 250, -1,
          253, 251, 252, -1,
          254, 252, 255, -1,
          254, 253, 252, -1,
          124, 128, 131, -1,
          124, 126, 128, -1,
          123, 131, 133, -1,
          123, 124, 131, -1,
          120, 133, 135, -1,
          120, 123, 133, -1,
          119, 135, 137, -1,
          119, 120, 135, -1,
          116, 137, 139, -1,
          116, 119, 137, -1,
          114, 139, 141, -1,
          114, 116, 139, -1,
          112, 141, 143, -1,
          112, 114, 141, -1,
          111, 143, 145, -1,
          111, 112, 143, -1,
          109, 145, 147, -1,
          109, 111, 145, -1,
          106, 147, 149, -1,
          106, 109, 147, -1,
          104, 149, 151, -1,
          104, 106, 149, -1,
          102, 151, 153, -1,
          102, 104, 151, -1,
          100, 153, 155, -1,
          100, 102, 153, -1,
          98, 155, 157, -1,
          98, 100, 155, -1,
          96, 157, 159, -1,
          96, 98, 157, -1,
          94, 159, 161, -1,
          94, 96, 159, -1,
          92, 161, 163, -1,
          92, 94, 161, -1,
          91, 163, 165, -1,
          91, 92, 163, -1,
          88, 91, 165, -1,
          88, 165, 167, -1,
          88, 167, 169, -1,
          86, 88, 169, -1,
          84, 86, 169, -1,
          84, 169, 171, -1,
          82, 84, 171, -1,
          82, 171, 173, -1,
          80, 173, 175, -1,
          80, 175, 177, -1,
          80, 82, 173, -1,
          78, 80, 177, -1,
          76, 177, 179, -1,
          76, 78, 177, -1,
          74, 179, 181, -1,
          74, 181, 183, -1,
          74, 76, 179, -1,
          72, 183, 185, -1,
          72, 74, 183, -1,
          71, 185, 187, -1,
          71, 72, 185, -1,
          68, 187, 189, -1,
          68, 71, 187, -1,
          66, 68, 189, -1,
          64, 189, 191, -1,
          64, 191, 193, -1,
          64, 66, 189, -1,
          62, 193, 195, -1,
          62, 64, 193, -1,
          60, 62, 195, -1,
          58, 195, 197, -1,
          58, 197, 199, -1,
          58, 60, 195, -1,
          56, 58, 199, -1,
          54, 199, 201, -1,
          54, 56, 199, -1,
          52, 201, 202, -1,
          52, 202, 205, -1,
          52, 54, 201, -1,
          50, 52, 205, -1,
          48, 205, 207, -1,
          48, 50, 205, -1,
          46, 207, 209, -1,
          46, 209, 211, -1,
          46, 48, 207, -1,
          44, 211, 213, -1,
          44, 46, 211, -1,
          42, 44, 213, -1,
          40, 42, 213, -1,
          40, 213, 215, -1,
          38, 40, 215, -1,
          38, 215, 216, -1,
          36, 38, 216, -1,
          36, 216, 219, -1,
          36, 219, 220, -1,
          34, 36, 220, -1,
          32, 34, 220, -1,
          32, 220, 222, -1,
          32, 222, 225, -1,
          30, 32, 225, -1,
          30, 225, 227, -1,
          29, 30, 227, -1,
          29, 227, 228, -1,
          27, 29, 228, -1,
          25, 27, 228, -1,
          25, 228, 230, -1,
          23, 25, 230, -1,
          23, 230, 232, -1,
          23, 232, 234, -1,
          21, 23, 234, -1,
          19, 21, 234, -1,
          19, 234, 236, -1,
          17, 19, 236, -1,
          17, 236, 239, -1,
          15, 239, 240, -1,
          15, 17, 239, -1,
          15, 240, 243, -1,
          13, 15, 243, -1,
          11, 13, 243, -1,
          11, 243, 245, -1,
          9, 245, 246, -1,
          9, 11, 245, -1,
          7, 246, 249, -1,
          7, 249, 251, -1,
          7, 9, 246, -1,
          5, 251, 253, -1,
          5, 7, 251, -1,
          3, 5, 253, -1,
          1, 253, 254, -1,
          1, 3, 253, -1,
          256, 130, 129, -1,
          252, 257, 255, -1,
          258, 136, 134, -1,
          258, 134, 132, -1,
          258, 132, 130, -1,
          258, 130, 256, -1,
          259, 260, 261, -1,
          259, 256, 260, -1,
          259, 258, 256, -1,
          262, 136, 258, -1,
          262, 258, 259, -1,
          262, 142, 140, -1,
          262, 140, 138, -1,
          262, 138, 136, -1,
          263, 261, 264, -1,
          263, 259, 261, -1,
          265, 259, 263, -1,
          265, 262, 259, -1,
          266, 267, 268, -1,
          266, 264, 267, -1,
          266, 263, 264, -1,
          269, 262, 265, -1,
          269, 142, 262, -1,
          269, 146, 144, -1,
          269, 144, 142, -1,
          270, 263, 266, -1,
          270, 265, 263, -1,
          271, 146, 269, -1,
          271, 150, 148, -1,
          271, 148, 146, -1,
          272, 268, 273, -1,
          272, 266, 268, -1,
          274, 269, 265, -1,
          274, 265, 270, -1,
          275, 270, 266, -1,
          275, 266, 272, -1,
          276, 271, 269, -1,
          276, 150, 271, -1,
          276, 269, 274, -1,
          276, 152, 150, -1,
          277, 278, 279, -1,
          277, 273, 278, -1,
          277, 272, 273, -1,
          280, 270, 275, -1,
          280, 274, 270, -1,
          281, 152, 276, -1,
          281, 154, 152, -1,
          282, 272, 277, -1,
          282, 275, 272, -1,
          283, 276, 274, -1,
          283, 274, 280, -1,
          284, 279, 285, -1,
          284, 277, 279, -1,
          286, 275, 282, -1,
          286, 280, 275, -1,
          287, 154, 281, -1,
          287, 276, 283, -1,
          287, 158, 156, -1,
          287, 156, 154, -1,
          287, 281, 276, -1,
          288, 282, 277, -1,
          288, 277, 284, -1,
          289, 280, 286, -1,
          289, 283, 280, -1,
          290, 291, 292, -1,
          290, 285, 291, -1,
          290, 284, 285, -1,
          293, 282, 288, -1,
          293, 286, 282, -1,
          294, 287, 283, -1,
          294, 283, 289, -1,
          295, 288, 284, -1,
          295, 284, 290, -1,
          296, 289, 286, -1,
          296, 286, 293, -1,
          297, 287, 294, -1,
          297, 164, 162, -1,
          297, 162, 160, -1,
          297, 158, 287, -1,
          297, 160, 158, -1,
          298, 292, 299, -1,
          298, 290, 292, -1,
          300, 288, 295, -1,
          300, 293, 288, -1,
          301, 289, 296, -1,
          301, 294, 289, -1,
          302, 290, 298, -1,
          302, 295, 290, -1,
          303, 293, 300, -1,
          303, 296, 293, -1,
          304, 294, 301, -1,
          304, 297, 294, -1,
          305, 299, 306, -1,
          305, 298, 299, -1,
          307, 295, 302, -1,
          307, 300, 295, -1,
          308, 301, 296, -1,
          308, 296, 303, -1,
          309, 168, 166, -1,
          309, 166, 164, -1,
          309, 164, 297, -1,
          309, 297, 304, -1,
          310, 302, 298, -1,
          310, 298, 305, -1,
          311, 303, 300, -1,
          311, 300, 307, -1,
          312, 301, 308, -1,
          312, 304, 301, -1,
          313, 306, 314, -1,
          313, 314, 315, -1,
          313, 305, 306, -1,
          316, 307, 302, -1,
          316, 302, 310, -1,
          317, 303, 311, -1,
          317, 308, 303, -1,
          318, 172, 170, -1,
          318, 170, 168, -1,
          318, 168, 309, -1,
          318, 309, 304, -1,
          318, 304, 312, -1,
          319, 305, 313, -1,
          319, 310, 305, -1,
          320, 307, 316, -1,
          320, 311, 307, -1,
          321, 308, 317, -1,
          321, 312, 308, -1,
          322, 315, 323, -1,
          322, 313, 315, -1,
          324, 310, 319, -1,
          324, 316, 310, -1,
          325, 311, 320, -1,
          325, 317, 311, -1,
          326, 312, 321, -1,
          326, 318, 312, -1,
          327, 313, 322, -1,
          327, 319, 313, -1,
          328, 316, 324, -1,
          328, 320, 316, -1,
          329, 317, 325, -1,
          329, 321, 317, -1,
          330, 323, 331, -1,
          330, 331, 332, -1,
          330, 322, 323, -1,
          333, 318, 326, -1,
          333, 176, 174, -1,
          333, 174, 172, -1,
          333, 172, 318, -1,
          334, 319, 327, -1,
          334, 324, 319, -1,
          335, 325, 320, -1,
          335, 320, 328, -1,
          336, 326, 321, -1,
          336, 321, 329, -1,
          337, 322, 330, -1,
          337, 327, 322, -1,
          338, 324, 334, -1,
          338, 328, 324, -1,
          339, 329, 325, -1,
          339, 325, 335, -1,
          340, 332, 341, -1,
          340, 330, 332, -1,
          342, 176, 333, -1,
          342, 326, 336, -1,
          342, 180, 178, -1,
          342, 178, 176, -1,
          342, 333, 326, -1,
          343, 327, 337, -1,
          343, 334, 327, -1,
          344, 335, 328, -1,
          344, 328, 338, -1,
          345, 336, 329, -1,
          345, 329, 339, -1,
          346, 337, 330, -1,
          346, 330, 340, -1,
          347, 338, 334, -1,
          347, 334, 343, -1,
          348, 335, 344, -1,
          348, 339, 335, -1,
          349, 341, 350, -1,
          349, 350, 351, -1,
          349, 340, 341, -1,
          352, 342, 336, -1,
          352, 184, 182, -1,
          352, 182, 180, -1,
          352, 336, 345, -1,
          352, 180, 342, -1,
          353, 343, 337, -1,
          353, 337, 346, -1,
          354, 344, 338, -1,
          354, 338, 347, -1,
          355, 339, 348, -1,
          355, 345, 339, -1,
          356, 346, 340, -1,
          356, 340, 349, -1,
          357, 343, 353, -1,
          357, 347, 343, -1,
          358, 348, 344, -1,
          358, 344, 354, -1,
          359, 351, 360, -1,
          359, 349, 351, -1,
          361, 345, 355, -1,
          361, 188, 186, -1,
          361, 186, 184, -1,
          361, 352, 345, -1,
          361, 184, 352, -1,
          362, 346, 356, -1,
          362, 353, 346, -1,
          363, 347, 357, -1,
          363, 354, 347, -1,
          364, 348, 358, -1,
          364, 355, 348, -1,
          365, 349, 359, -1,
          365, 356, 349, -1,
          366, 353, 362, -1,
          366, 357, 353, -1,
          367, 354, 363, -1,
          367, 358, 354, -1,
          368, 360, 369, -1,
          368, 369, 257, -1,
          368, 359, 360, -1,
          370, 361, 355, -1,
          370, 194, 192, -1,
          370, 192, 190, -1,
          370, 190, 188, -1,
          370, 188, 361, -1,
          370, 355, 364, -1,
          371, 356, 365, -1,
          371, 362, 356, -1,
          372, 363, 357, -1,
          372, 357, 366, -1,
          373, 358, 367, -1,
          373, 364, 358, -1,
          374, 365, 359, -1,
          374, 359, 368, -1,
          375, 362, 371, -1,
          375, 366, 362, -1,
          376, 367, 363, -1,
          376, 363, 372, -1,
          377, 252, 250, -1,
          377, 250, 248, -1,
          377, 248, 247, -1,
          377, 257, 252, -1,
          377, 368, 257, -1,
          378, 364, 373, -1,
          378, 198, 196, -1,
          378, 196, 194, -1,
          378, 370, 364, -1,
          378, 194, 370, -1,
          379, 371, 365, -1,
          379, 365, 374, -1,
          380, 372, 366, -1,
          380, 366, 375, -1,
          381, 367, 376, -1,
          381, 373, 367, -1,
          382, 374, 368, -1,
          382, 247, 244, -1,
          382, 244, 242, -1,
          382, 242, 241, -1,
          382, 377, 247, -1,
          382, 368, 377, -1,
          383, 371, 379, -1,
          383, 375, 371, -1,
          384, 372, 380, -1,
          384, 376, 372, -1,
          385, 373, 381, -1,
          385, 378, 373, -1,
          385, 203, 200, -1,
          385, 198, 378, -1,
          385, 200, 198, -1,
          386, 374, 382, -1,
          386, 241, 238, -1,
          386, 238, 237, -1,
          386, 382, 241, -1,
          386, 379, 374, -1,
          387, 380, 375, -1,
          387, 375, 383, -1,
          388, 381, 376, -1,
          388, 376, 384, -1,
          389, 233, 231, -1,
          389, 383, 379, -1,
          389, 379, 386, -1,
          390, 380, 387, -1,
          390, 384, 380, -1,
          391, 206, 204, -1,
          391, 204, 203, -1,
          391, 385, 381, -1,
          391, 203, 385, -1,
          391, 381, 388, -1,
          392, 229, 226, -1,
          392, 226, 224, -1,
          392, 387, 383, -1,
          392, 383, 389, -1,
          393, 384, 390, -1,
          393, 214, 212, -1,
          393, 212, 210, -1,
          393, 388, 384, -1,
          394, 237, 235, -1,
          394, 235, 233, -1,
          394, 233, 389, -1,
          394, 386, 237, -1,
          394, 389, 386, -1,
          395, 392, 224, -1,
          395, 224, 223, -1,
          395, 223, 221, -1,
          395, 221, 218, -1,
          395, 387, 392, -1,
          395, 390, 387, -1,
          396, 393, 210, -1,
          396, 388, 393, -1,
          396, 210, 208, -1,
          396, 208, 206, -1,
          396, 391, 388, -1,
          396, 206, 391, -1,
          397, 392, 389, -1,
          397, 231, 229, -1,
          397, 229, 392, -1,
          397, 389, 231, -1,
          398, 395, 218, -1,
          398, 390, 395, -1,
          398, 218, 217, -1,
          398, 217, 214, -1,
          398, 214, 393, -1,
          398, 393, 390, -1,
          2, 399, 0, -1,
          400, 127, 125, -1,
          33, 401, 35, -1,
          31, 401, 33, -1,
          43, 402, 45, -1,
          41, 402, 43, -1,
          39, 402, 41, -1,
          31, 403, 401, -1,
          28, 403, 31, -1,
          26, 403, 28, -1,
          24, 403, 26, -1,
          51, 404, 53, -1,
          49, 404, 51, -1,
          47, 404, 49, -1,
          401, 405, 35, -1,
          37, 405, 39, -1,
          35, 405, 37, -1,
          39, 405, 402, -1,
          22, 406, 24, -1,
          20, 406, 22, -1,
          18, 406, 20, -1,
          24, 406, 403, -1,
          45, 407, 47, -1,
          47, 407, 404, -1,
          402, 407, 45, -1,
          401, 408, 405, -1,
          403, 408, 401, -1,
          16, 409, 18, -1,
          14, 409, 16, -1,
          12, 409, 14, -1,
          18, 409, 406, -1,
          404, 410, 53, -1,
          55, 410, 57, -1,
          53, 410, 55, -1,
          402, 411, 407, -1,
          405, 411, 402, -1,
          403, 412, 408, -1,
          406, 412, 403, -1,
          10, 413, 12, -1,
          8, 413, 10, -1,
          12, 413, 409, -1,
          404, 414, 410, -1,
          407, 414, 404, -1,
          405, 415, 411, -1,
          408, 415, 405, -1,
          409, 416, 406, -1,
          406, 416, 412, -1,
          59, 417, 61, -1,
          57, 417, 59, -1,
          410, 417, 57, -1,
          411, 418, 407, -1,
          407, 418, 414, -1,
          408, 419, 415, -1,
          412, 419, 408, -1,
          409, 420, 416, -1,
          413, 420, 409, -1,
          410, 421, 417, -1,
          414, 421, 410, -1,
          411, 422, 418, -1,
          415, 422, 411, -1,
          416, 423, 412, -1,
          412, 423, 419, -1,
          8, 424, 413, -1,
          413, 424, 420, -1,
          6, 424, 8, -1,
          4, 424, 6, -1,
          0, 424, 4, -1,
          399, 424, 0, -1,
          425, 424, 399, -1,
          65, 426, 67, -1,
          63, 426, 65, -1,
          61, 426, 63, -1,
          417, 426, 61, -1,
          418, 427, 414, -1,
          414, 427, 421, -1,
          419, 428, 415, -1,
          415, 428, 422, -1,
          416, 429, 423, -1,
          420, 429, 416, -1,
          417, 430, 426, -1,
          421, 430, 417, -1,
          418, 431, 427, -1,
          422, 431, 418, -1,
          419, 432, 428, -1,
          423, 432, 419, -1,
          424, 433, 420, -1,
          425, 433, 424, -1,
          420, 433, 429, -1,
          434, 433, 435, -1,
          435, 433, 425, -1,
          69, 436, 70, -1,
          67, 436, 69, -1,
          426, 436, 67, -1,
          421, 437, 430, -1,
          427, 437, 421, -1,
          428, 438, 422, -1,
          422, 438, 431, -1,
          423, 439, 432, -1,
          429, 439, 423, -1,
          430, 440, 426, -1,
          426, 440, 436, -1,
          431, 441, 427, -1,
          427, 441, 437, -1,
          432, 442, 428, -1,
          428, 442, 438, -1,
          429, 443, 439, -1,
          433, 443, 429, -1,
          444, 443, 434, -1,
          434, 443, 433, -1,
          436, 445, 70, -1,
          73, 445, 75, -1,
          70, 445, 73, -1,
          437, 446, 430, -1,
          430, 446, 440, -1,
          431, 447, 441, -1,
          438, 447, 431, -1,
          432, 448, 442, -1,
          439, 448, 432, -1,
          436, 449, 445, -1,
          440, 449, 436, -1,
          441, 450, 437, -1,
          437, 450, 446, -1,
          442, 451, 438, -1,
          438, 451, 447, -1,
          439, 452, 448, -1,
          443, 452, 439, -1,
          453, 452, 444, -1,
          444, 452, 443, -1,
          79, 454, 81, -1,
          77, 454, 79, -1,
          75, 454, 77, -1,
          445, 454, 75, -1,
          440, 455, 449, -1,
          446, 455, 440, -1,
          441, 456, 450, -1,
          447, 456, 441, -1,
          448, 457, 442, -1,
          442, 457, 451, -1,
          445, 458, 454, -1,
          449, 458, 445, -1,
          446, 459, 455, -1,
          450, 459, 446, -1,
          451, 460, 447, -1,
          447, 460, 456, -1,
          452, 461, 448, -1,
          448, 461, 457, -1,
          453, 461, 452, -1,
          462, 461, 463, -1,
          463, 461, 453, -1,
          449, 464, 458, -1,
          455, 464, 449, -1,
          450, 465, 459, -1,
          456, 465, 450, -1,
          451, 466, 460, -1,
          457, 466, 451, -1,
          81, 467, 83, -1,
          458, 467, 454, -1,
          454, 467, 81, -1,
          459, 468, 455, -1,
          455, 468, 464, -1,
          456, 469, 465, -1,
          460, 469, 456, -1,
          461, 470, 457, -1,
          457, 470, 466, -1,
          462, 470, 461, -1,
          471, 470, 462, -1,
          464, 472, 458, -1,
          458, 472, 467, -1,
          465, 473, 459, -1,
          459, 473, 468, -1,
          460, 474, 469, -1,
          466, 474, 460, -1,
          87, 475, 89, -1,
          85, 475, 87, -1,
          83, 475, 85, -1,
          467, 475, 83, -1,
          468, 476, 464, -1,
          464, 476, 472, -1,
          465, 477, 473, -1,
          469, 477, 465, -1,
          470, 478, 466, -1,
          471, 478, 470, -1,
          466, 478, 474, -1,
          479, 478, 480, -1,
          480, 478, 471, -1,
          467, 481, 475, -1,
          472, 481, 467, -1,
          468, 482, 476, -1,
          473, 482, 468, -1,
          474, 483, 469, -1,
          469, 483, 477, -1,
          476, 484, 472, -1,
          472, 484, 481, -1,
          473, 485, 482, -1,
          477, 485, 473, -1,
          474, 486, 483, -1,
          478, 486, 474, -1,
          487, 486, 479, -1,
          479, 486, 478, -1,
          90, 488, 93, -1,
          89, 488, 90, -1,
          481, 488, 475, -1,
          475, 488, 89, -1,
          482, 489, 476, -1,
          476, 489, 484, -1,
          483, 490, 477, -1,
          477, 490, 485, -1,
          484, 491, 481, -1,
          481, 491, 488, -1,
          485, 492, 482, -1,
          482, 492, 489, -1,
          493, 494, 487, -1,
          486, 494, 483, -1,
          483, 494, 490, -1,
          487, 494, 486, -1,
          95, 495, 97, -1,
          93, 495, 95, -1,
          488, 495, 93, -1,
          484, 496, 491, -1,
          489, 496, 484, -1,
          490, 497, 485, -1,
          485, 497, 492, -1,
          488, 498, 495, -1,
          491, 498, 488, -1,
          489, 499, 496, -1,
          492, 499, 489, -1,
          494, 500, 490, -1,
          493, 500, 494, -1,
          501, 500, 493, -1,
          502, 500, 501, -1,
          490, 500, 497, -1,
          496, 503, 491, -1,
          491, 503, 498, -1,
          492, 504, 499, -1,
          497, 504, 492, -1,
          101, 505, 103, -1,
          495, 505, 97, -1,
          99, 505, 101, -1,
          97, 505, 99, -1,
          498, 505, 495, -1,
          499, 506, 496, -1,
          496, 506, 503, -1,
          500, 507, 497, -1,
          497, 507, 504, -1,
          502, 507, 500, -1,
          508, 507, 502, -1,
          498, 509, 505, -1,
          503, 509, 498, -1,
          504, 510, 499, -1,
          499, 510, 506, -1,
          503, 511, 509, -1,
          506, 511, 503, -1,
          507, 512, 504, -1,
          504, 512, 510, -1,
          508, 512, 507, -1,
          513, 512, 508, -1,
          514, 512, 513, -1,
          107, 515, 108, -1,
          105, 515, 107, -1,
          103, 515, 105, -1,
          509, 515, 505, -1,
          505, 515, 103, -1,
          510, 516, 506, -1,
          506, 516, 511, -1,
          511, 517, 509, -1,
          509, 517, 515, -1,
          512, 518, 510, -1,
          510, 518, 516, -1,
          514, 518, 512, -1,
          519, 518, 514, -1,
          516, 520, 511, -1,
          511, 520, 517, -1,
          113, 521, 115, -1,
          110, 521, 113, -1,
          108, 521, 110, -1,
          515, 521, 108, -1,
          517, 521, 515, -1,
          516, 522, 520, -1,
          518, 522, 516, -1,
          519, 522, 518, -1,
          523, 522, 519, -1,
          520, 524, 517, -1,
          517, 524, 521, -1,
          522, 525, 520, -1,
          520, 525, 524, -1,
          526, 525, 523, -1,
          527, 525, 526, -1,
          523, 525, 522, -1,
          117, 528, 118, -1,
          115, 528, 117, -1,
          521, 528, 115, -1,
          524, 528, 521, -1,
          122, 529, 125, -1,
          121, 529, 122, -1,
          118, 529, 121, -1,
          528, 529, 118, -1,
          525, 529, 524, -1,
          125, 529, 400, -1,
          400, 529, 527, -1,
          527, 529, 525, -1,
          524, 529, 528, -1,
          530, 399, 2, -1,
          400, 531, 127, -1,
          532, 533, 530, -1,
          534, 533, 532, -1,
          535, 533, 534, -1,
          530, 533, 399, -1,
          533, 536, 399, -1,
          425, 536, 435, -1,
          399, 536, 425, -1,
          535, 537, 533, -1,
          538, 537, 535, -1,
          539, 537, 538, -1,
          540, 537, 539, -1,
          533, 537, 536, -1,
          536, 541, 435, -1,
          435, 541, 434, -1,
          537, 542, 536, -1,
          536, 542, 541, -1,
          541, 543, 434, -1,
          444, 543, 453, -1,
          434, 543, 444, -1,
          544, 545, 540, -1,
          546, 545, 544, -1,
          537, 545, 542, -1,
          540, 545, 537, -1,
          542, 547, 541, -1,
          541, 547, 543, -1,
          548, 549, 546, -1,
          550, 549, 548, -1,
          546, 549, 545, -1,
          453, 551, 463, -1,
          543, 551, 453, -1,
          542, 552, 547, -1,
          545, 552, 542, -1,
          547, 553, 543, -1,
          543, 553, 551, -1,
          545, 554, 552, -1,
          549, 554, 545, -1,
          550, 554, 549, -1,
          551, 555, 463, -1,
          463, 555, 462, -1,
          552, 556, 547, -1,
          547, 556, 553, -1,
          557, 558, 550, -1,
          559, 558, 557, -1,
          560, 558, 559, -1,
          550, 558, 554, -1,
          551, 561, 555, -1,
          553, 561, 551, -1,
          554, 562, 552, -1,
          552, 562, 556, -1,
          555, 563, 462, -1,
          471, 563, 480, -1,
          462, 563, 471, -1,
          556, 564, 553, -1,
          553, 564, 561, -1,
          565, 566, 560, -1,
          554, 566, 562, -1,
          558, 566, 554, -1,
          560, 566, 558, -1,
          561, 567, 555, -1,
          555, 567, 563, -1,
          556, 568, 564, -1,
          562, 568, 556, -1,
          563, 569, 480, -1,
          480, 569, 479, -1,
          561, 570, 567, -1,
          564, 570, 561, -1,
          562, 571, 568, -1,
          566, 571, 562, -1,
          567, 572, 563, -1,
          563, 572, 569, -1,
          568, 573, 564, -1,
          564, 573, 570, -1,
          565, 574, 566, -1,
          575, 574, 565, -1,
          576, 574, 575, -1,
          577, 574, 576, -1,
          566, 574, 571, -1,
          569, 578, 479, -1,
          479, 578, 487, -1,
          487, 578, 493, -1,
          570, 579, 567, -1,
          567, 579, 572, -1,
          568, 580, 573, -1,
          571, 580, 568, -1,
          569, 581, 578, -1,
          572, 581, 569, -1,
          573, 582, 570, -1,
          570, 582, 579, -1,
          571, 583, 580, -1,
          574, 583, 571, -1,
          578, 584, 493, -1,
          493, 584, 501, -1,
          579, 585, 572, -1,
          572, 585, 581, -1,
          573, 586, 582, -1,
          580, 586, 573, -1,
          587, 588, 577, -1,
          589, 588, 587, -1,
          590, 588, 589, -1,
          577, 588, 574, -1,
          574, 588, 583, -1,
          581, 591, 578, -1,
          578, 591, 584, -1,
          582, 592, 579, -1,
          579, 592, 585, -1,
          583, 593, 580, -1,
          580, 593, 586, -1,
          584, 594, 501, -1,
          501, 594, 502, -1,
          502, 594, 508, -1,
          585, 595, 581, -1,
          581, 595, 591, -1,
          586, 596, 582, -1,
          582, 596, 592, -1,
          597, 598, 590, -1,
          590, 598, 588, -1,
          588, 598, 583, -1,
          583, 598, 593, -1,
          584, 599, 594, -1,
          591, 599, 584, -1,
          592, 600, 585, -1,
          585, 600, 595, -1,
          586, 601, 596, -1,
          593, 601, 586, -1,
          508, 602, 513, -1,
          594, 602, 508, -1,
          591, 603, 599, -1,
          595, 603, 591, -1,
          596, 604, 592, -1,
          592, 604, 600, -1,
          593, 605, 601, -1,
          598, 605, 593, -1,
          594, 606, 602, -1,
          599, 606, 594, -1,
          600, 607, 595, -1,
          595, 607, 603, -1,
          596, 608, 604, -1,
          601, 608, 596, -1,
          597, 609, 598, -1,
          610, 609, 597, -1,
          611, 609, 610, -1,
          612, 609, 611, -1,
          598, 609, 605, -1,
          602, 613, 513, -1,
          513, 613, 514, -1,
          599, 614, 606, -1,
          603, 614, 599, -1,
          604, 615, 600, -1,
          600, 615, 607, -1,
          601, 616, 608, -1,
          605, 616, 601, -1,
          606, 617, 602, -1,
          602, 617, 613, -1,
          603, 618, 614, -1,
          607, 618, 603, -1,
          604, 619, 615, -1,
          608, 619, 604, -1,
          620, 621, 612, -1,
          622, 621, 620, -1,
          612, 621, 609, -1,
          609, 621, 605, -1,
          605, 621, 616, -1,
          613, 623, 514, -1,
          514, 623, 519, -1,
          519, 623, 523, -1,
          614, 624, 606, -1,
          606, 624, 617, -1,
          607, 625, 618, -1,
          615, 625, 607, -1,
          616, 626, 608, -1,
          608, 626, 619, -1,
          613, 627, 623, -1,
          617, 627, 613, -1,
          614, 628, 624, -1,
          618, 628, 614, -1,
          619, 629, 615, -1,
          615, 629, 625, -1,
          621, 630, 616, -1,
          631, 630, 622, -1,
          632, 630, 631, -1,
          622, 630, 621, -1,
          616, 630, 626, -1,
          623, 633, 523, -1,
          523, 633, 526, -1,
          617, 634, 627, -1,
          624, 634, 617, -1,
          625, 635, 618, -1,
          618, 635, 628, -1,
          619, 636, 629, -1,
          626, 636, 619, -1,
          627, 637, 623, -1,
          623, 637, 633, -1,
          628, 638, 624, -1,
          624, 638, 634, -1,
          625, 639, 635, -1,
          629, 639, 625, -1,
          632, 640, 630, -1,
          641, 640, 632, -1,
          642, 640, 641, -1,
          630, 640, 626, -1,
          626, 640, 636, -1,
          526, 643, 527, -1,
          527, 643, 400, -1,
          633, 643, 526, -1,
          627, 644, 637, -1,
          634, 644, 627, -1,
          628, 645, 638, -1,
          635, 645, 628, -1,
          629, 646, 639, -1,
          636, 646, 629, -1,
          637, 647, 633, -1,
          633, 647, 643, -1,
          634, 648, 644, -1,
          638, 648, 634, -1,
          639, 649, 635, -1,
          635, 649, 645, -1,
          640, 650, 636, -1,
          651, 650, 642, -1,
          652, 650, 651, -1,
          653, 650, 652, -1,
          642, 650, 640, -1,
          636, 650, 646, -1,
          400, 654, 531, -1,
          643, 654, 400, -1,
          655, 654, 656, -1,
          657, 654, 655, -1,
          531, 654, 657, -1,
          637, 658, 647, -1,
          644, 658, 637, -1,
          645, 659, 638, -1,
          638, 659, 648, -1,
          639, 660, 649, -1,
          646, 660, 639, -1,
          654, 661, 656, -1,
          662, 661, 663, -1,
          664, 661, 662, -1,
          656, 661, 664, -1,
          647, 661, 643, -1,
          643, 661, 654, -1,
          644, 665, 658, -1,
          648, 665, 644, -1,
          649, 666, 645, -1,
          645, 666, 659, -1,
          653, 667, 650, -1,
          650, 667, 646, -1,
          668, 667, 653, -1,
          669, 667, 668, -1,
          646, 667, 660, -1,
          658, 670, 647, -1,
          661, 670, 663, -1,
          647, 670, 661, -1,
          671, 670, 672, -1,
          663, 670, 671, -1,
          659, 673, 648, -1,
          648, 673, 665, -1,
          649, 674, 666, -1,
          660, 674, 649, -1,
          658, 675, 670, -1,
          665, 675, 658, -1,
          659, 676, 673, -1,
          666, 676, 659, -1,
          677, 678, 669, -1,
          679, 678, 677, -1,
          669, 678, 667, -1,
          667, 678, 660, -1,
          660, 678, 674, -1,
          673, 680, 665, -1,
          665, 680, 675, -1,
          681, 680, 682, -1,
          674, 683, 666, -1,
          684, 683, 685, -1,
          666, 683, 676, -1,
          675, 686, 670, -1,
          687, 686, 688, -1,
          672, 686, 687, -1,
          670, 686, 672, -1,
          688, 686, 675, -1,
          689, 690, 691, -1,
          692, 690, 689, -1,
          682, 690, 692, -1,
          673, 690, 680, -1,
          676, 690, 673, -1,
          680, 690, 682, -1,
          693, 694, 679, -1,
          695, 694, 693, -1,
          685, 694, 695, -1,
          679, 694, 678, -1,
          674, 694, 683, -1,
          678, 694, 674, -1,
          683, 694, 685, -1,
          680, 696, 675, -1,
          697, 696, 681, -1,
          698, 696, 697, -1,
          688, 696, 698, -1,
          675, 696, 688, -1,
          681, 696, 680, -1,
          699, 700, 684, -1,
          701, 700, 699, -1,
          691, 700, 701, -1,
          690, 700, 691, -1,
          683, 700, 676, -1,
          684, 700, 683, -1,
          676, 700, 690, -1,
          256, 129, 702, -1,
          255, 257, 703, -1,
          704, 705, 706, -1,
          704, 706, 707, -1,
          708, 709, 710, -1,
          708, 710, 711, -1,
          712, 713, 714, -1,
          712, 714, 715, -1,
          712, 715, 705, -1,
          712, 705, 704, -1,
          716, 717, 718, -1,
          716, 718, 719, -1,
          720, 707, 721, -1,
          720, 721, 709, -1,
          720, 704, 707, -1,
          720, 709, 708, -1,
          722, 713, 712, -1,
          722, 723, 724, -1,
          722, 724, 725, -1,
          722, 725, 713, -1,
          726, 717, 716, -1,
          726, 711, 727, -1,
          726, 727, 717, -1,
          726, 708, 711, -1,
          728, 704, 720, -1,
          728, 712, 704, -1,
          729, 730, 731, -1,
          729, 731, 732, -1,
          729, 723, 722, -1,
          729, 732, 723, -1,
          733, 716, 719, -1,
          733, 719, 734, -1,
          733, 734, 735, -1,
          736, 720, 708, -1,
          736, 708, 726, -1,
          737, 722, 712, -1,
          737, 712, 728, -1,
          738, 730, 729, -1,
          738, 739, 740, -1,
          738, 740, 730, -1,
          741, 716, 733, -1,
          741, 726, 716, -1,
          742, 728, 720, -1,
          742, 720, 736, -1,
          743, 729, 722, -1,
          743, 722, 737, -1,
          744, 735, 745, -1,
          744, 745, 746, -1,
          744, 733, 735, -1,
          747, 726, 741, -1,
          747, 736, 726, -1,
          748, 728, 742, -1,
          748, 737, 728, -1,
          749, 729, 743, -1,
          749, 738, 729, -1,
          750, 741, 733, -1,
          750, 733, 744, -1,
          751, 742, 736, -1,
          751, 736, 747, -1,
          752, 737, 748, -1,
          752, 743, 737, -1,
          753, 746, 754, -1,
          753, 754, 755, -1,
          753, 744, 746, -1,
          756, 738, 749, -1,
          756, 260, 256, -1,
          756, 702, 757, -1,
          756, 757, 758, -1,
          756, 758, 739, -1,
          756, 739, 738, -1,
          756, 256, 702, -1,
          759, 741, 750, -1,
          759, 747, 741, -1,
          760, 748, 742, -1,
          760, 742, 751, -1,
          761, 743, 752, -1,
          761, 749, 743, -1,
          762, 750, 744, -1,
          762, 744, 753, -1,
          763, 751, 747, -1,
          763, 747, 759, -1,
          764, 752, 748, -1,
          764, 748, 760, -1,
          765, 755, 766, -1,
          765, 766, 767, -1,
          765, 767, 768, -1,
          765, 753, 755, -1,
          769, 260, 756, -1,
          769, 749, 761, -1,
          769, 264, 261, -1,
          769, 261, 260, -1,
          769, 756, 749, -1,
          770, 759, 750, -1,
          770, 750, 762, -1,
          771, 751, 763, -1,
          771, 760, 751, -1,
          772, 752, 764, -1,
          772, 761, 752, -1,
          773, 753, 765, -1,
          773, 762, 753, -1,
          774, 763, 759, -1,
          774, 759, 770, -1,
          775, 764, 760, -1,
          775, 760, 771, -1,
          776, 765, 768, -1,
          776, 768, 777, -1,
          776, 777, 778, -1,
          779, 267, 264, -1,
          779, 769, 761, -1,
          779, 264, 769, -1,
          779, 761, 772, -1,
          780, 770, 762, -1,
          780, 762, 773, -1,
          781, 763, 774, -1,
          781, 771, 763, -1,
          782, 772, 764, -1,
          782, 764, 775, -1,
          783, 765, 776, -1,
          783, 773, 765, -1,
          784, 770, 780, -1,
          784, 774, 770, -1,
          785, 771, 781, -1,
          785, 775, 771, -1,
          786, 776, 778, -1,
          786, 778, 787, -1,
          786, 787, 788, -1,
          789, 772, 782, -1,
          789, 273, 268, -1,
          789, 268, 267, -1,
          789, 267, 779, -1,
          789, 779, 772, -1,
          790, 773, 783, -1,
          790, 780, 773, -1,
          791, 774, 784, -1,
          791, 781, 774, -1,
          792, 775, 785, -1,
          792, 782, 775, -1,
          793, 783, 776, -1,
          793, 776, 786, -1,
          794, 780, 790, -1,
          794, 784, 780, -1,
          795, 781, 791, -1,
          795, 785, 781, -1,
          796, 786, 788, -1,
          796, 788, 797, -1,
          796, 797, 798, -1,
          799, 278, 273, -1,
          799, 782, 792, -1,
          799, 789, 782, -1,
          799, 273, 789, -1,
          800, 783, 793, -1,
          800, 790, 783, -1,
          801, 784, 794, -1,
          801, 791, 784, -1,
          802, 792, 785, -1,
          802, 785, 795, -1,
          803, 786, 796, -1,
          803, 793, 786, -1,
          804, 794, 790, -1,
          804, 790, 800, -1,
          805, 791, 801, -1,
          805, 795, 791, -1,
          806, 279, 278, -1,
          806, 278, 799, -1,
          806, 792, 802, -1,
          806, 799, 792, -1,
          807, 793, 803, -1,
          807, 800, 793, -1,
          808, 794, 804, -1,
          808, 801, 794, -1,
          809, 802, 795, -1,
          809, 795, 805, -1,
          810, 803, 796, -1,
          810, 796, 798, -1,
          810, 798, 811, -1,
          810, 811, 812, -1,
          813, 800, 807, -1,
          813, 804, 800, -1,
          814, 805, 801, -1,
          814, 801, 808, -1,
          815, 291, 285, -1,
          815, 285, 279, -1,
          815, 279, 806, -1,
          815, 806, 802, -1,
          815, 802, 809, -1,
          816, 803, 810, -1,
          816, 807, 803, -1,
          817, 808, 804, -1,
          817, 804, 813, -1,
          818, 809, 805, -1,
          818, 805, 814, -1,
          819, 810, 812, -1,
          819, 812, 820, -1,
          819, 820, 821, -1,
          822, 807, 816, -1,
          822, 813, 807, -1,
          823, 808, 817, -1,
          823, 814, 808, -1,
          824, 292, 291, -1,
          824, 815, 809, -1,
          824, 291, 815, -1,
          824, 809, 818, -1,
          825, 810, 819, -1,
          825, 816, 810, -1,
          826, 813, 822, -1,
          826, 817, 813, -1,
          827, 814, 823, -1,
          827, 818, 814, -1,
          828, 816, 825, -1,
          828, 822, 816, -1,
          829, 817, 826, -1,
          829, 823, 817, -1,
          830, 306, 299, -1,
          830, 824, 818, -1,
          830, 818, 827, -1,
          830, 299, 292, -1,
          830, 292, 824, -1,
          831, 819, 821, -1,
          831, 821, 832, -1,
          831, 832, 833, -1,
          831, 825, 819, -1,
          834, 826, 822, -1,
          834, 822, 828, -1,
          835, 823, 829, -1,
          835, 827, 823, -1,
          836, 828, 825, -1,
          836, 825, 831, -1,
          837, 829, 826, -1,
          837, 826, 834, -1,
          838, 314, 306, -1,
          838, 830, 827, -1,
          838, 827, 835, -1,
          838, 306, 830, -1,
          839, 833, 840, -1,
          839, 840, 841, -1,
          839, 831, 833, -1,
          842, 834, 828, -1,
          842, 828, 836, -1,
          843, 835, 829, -1,
          843, 829, 837, -1,
          844, 836, 831, -1,
          844, 831, 839, -1,
          845, 834, 842, -1,
          845, 837, 834, -1,
          846, 315, 314, -1,
          846, 323, 315, -1,
          846, 314, 838, -1,
          846, 838, 835, -1,
          846, 835, 843, -1,
          847, 836, 844, -1,
          847, 842, 836, -1,
          848, 843, 837, -1,
          848, 837, 845, -1,
          849, 839, 841, -1,
          849, 841, 850, -1,
          849, 850, 851, -1,
          849, 851, 852, -1,
          849, 844, 839, -1,
          853, 842, 847, -1,
          853, 845, 842, -1,
          854, 331, 323, -1,
          854, 323, 846, -1,
          854, 846, 843, -1,
          854, 843, 848, -1,
          855, 844, 849, -1,
          855, 847, 844, -1,
          856, 848, 845, -1,
          856, 845, 853, -1,
          857, 847, 855, -1,
          857, 853, 847, -1,
          858, 332, 331, -1,
          858, 341, 332, -1,
          858, 854, 848, -1,
          858, 331, 854, -1,
          858, 848, 856, -1,
          859, 855, 849, -1,
          859, 849, 852, -1,
          859, 852, 860, -1,
          859, 860, 861, -1,
          859, 861, 862, -1,
          863, 856, 853, -1,
          863, 853, 857, -1,
          864, 857, 855, -1,
          864, 855, 859, -1,
          865, 350, 341, -1,
          865, 341, 858, -1,
          865, 858, 856, -1,
          865, 856, 863, -1,
          866, 857, 864, -1,
          866, 863, 857, -1,
          867, 864, 859, -1,
          867, 862, 868, -1,
          867, 868, 869, -1,
          867, 869, 870, -1,
          867, 859, 862, -1,
          871, 351, 350, -1,
          871, 350, 865, -1,
          871, 863, 866, -1,
          871, 865, 863, -1,
          872, 866, 864, -1,
          872, 864, 867, -1,
          873, 866, 872, -1,
          873, 871, 866, -1,
          873, 360, 351, -1,
          873, 369, 360, -1,
          873, 351, 871, -1,
          874, 867, 870, -1,
          874, 870, 875, -1,
          874, 875, 876, -1,
          874, 872, 867, -1,
          877, 369, 873, -1,
          877, 257, 369, -1,
          877, 872, 874, -1,
          877, 874, 876, -1,
          877, 703, 257, -1,
          877, 876, 878, -1,
          877, 878, 879, -1,
          877, 879, 703, -1,
          877, 873, 872, -1,
          880, 1, 254, -1,
          880, 254, 881, -1,
          882, 881, 883, -1,
          882, 880, 881, -1,
          884, 883, 885, -1,
          884, 882, 883, -1,
          886, 885, 887, -1,
          886, 884, 885, -1,
          888, 887, 889, -1,
          888, 886, 887, -1,
          890, 889, 891, -1,
          890, 888, 889, -1,
          892, 891, 893, -1,
          892, 890, 891, -1,
          894, 893, 895, -1,
          894, 892, 893, -1,
          896, 895, 897, -1,
          896, 894, 895, -1,
          898, 897, 899, -1,
          898, 896, 897, -1,
          900, 899, 901, -1,
          900, 898, 899, -1,
          902, 901, 903, -1,
          902, 900, 901, -1,
          904, 903, 905, -1,
          904, 902, 903, -1,
          906, 905, 907, -1,
          906, 904, 905, -1,
          908, 907, 909, -1,
          908, 906, 907, -1,
          910, 909, 911, -1,
          910, 908, 909, -1,
          912, 911, 913, -1,
          912, 910, 911, -1,
          914, 913, 915, -1,
          914, 912, 913, -1,
          916, 914, 915, -1,
          916, 915, 917, -1,
          918, 916, 917, -1,
          918, 917, 919, -1,
          920, 918, 919, -1,
          920, 919, 921, -1,
          922, 920, 921, -1,
          922, 921, 923, -1,
          924, 923, 925, -1,
          924, 922, 923, -1,
          926, 925, 927, -1,
          926, 924, 925, -1,
          928, 927, 929, -1,
          928, 926, 927, -1,
          930, 929, 931, -1,
          930, 928, 929, -1,
          932, 931, 933, -1,
          932, 930, 931, -1,
          934, 933, 935, -1,
          934, 932, 933, -1,
          936, 935, 937, -1,
          936, 934, 935, -1,
          938, 937, 939, -1,
          938, 936, 937, -1,
          940, 939, 941, -1,
          940, 938, 939, -1,
          942, 941, 943, -1,
          942, 940, 941, -1,
          944, 943, 945, -1,
          944, 942, 943, -1,
          946, 945, 947, -1,
          946, 944, 945, -1,
          948, 947, 949, -1,
          948, 946, 947, -1,
          950, 949, 951, -1,
          950, 948, 949, -1,
          952, 951, 953, -1,
          952, 950, 951, -1,
          954, 953, 955, -1,
          954, 952, 953, -1,
          956, 955, 957, -1,
          956, 954, 955, -1,
          958, 957, 959, -1,
          958, 956, 957, -1,
          960, 959, 961, -1,
          960, 958, 959, -1,
          962, 961, 963, -1,
          962, 960, 961, -1,
          964, 962, 963, -1,
          964, 963, 965, -1,
          966, 964, 965, -1,
          966, 965, 967, -1,
          968, 966, 967, -1,
          968, 967, 969, -1,
          970, 968, 969, -1,
          970, 969, 971, -1,
          972, 970, 971, -1,
          972, 971, 973, -1,
          974, 972, 973, -1,
          974, 973, 975, -1,
          976, 974, 975, -1,
          976, 975, 977, -1,
          978, 976, 977, -1,
          978, 977, 979, -1,
          980, 978, 979, -1,
          980, 979, 981, -1,
          982, 980, 981, -1,
          982, 981, 983, -1,
          982, 983, 984, -1,
          985, 982, 984, -1,
          986, 985, 984, -1,
          986, 984, 987, -1,
          988, 986, 987, -1,
          988, 987, 989, -1,
          990, 988, 989, -1,
          990, 989, 991, -1,
          992, 991, 993, -1,
          992, 990, 991, -1,
          994, 993, 995, -1,
          994, 992, 993, -1,
          996, 995, 997, -1,
          996, 994, 995, -1,
          998, 997, 999, -1,
          998, 996, 997, -1,
          1000, 999, 1001, -1,
          1000, 998, 999, -1,
          1002, 1001, 1003, -1,
          1002, 1000, 1001, -1,
          126, 1003, 128, -1,
          126, 1002, 1003, -1,
          254, 255, 703, -1,
          881, 254, 703, -1,
          881, 703, 879, -1,
          883, 881, 879, -1,
          883, 879, 878, -1,
          885, 883, 878, -1,
          885, 878, 876, -1,
          887, 885, 876, -1,
          887, 876, 875, -1,
          889, 887, 875, -1,
          889, 875, 870, -1,
          891, 889, 870, -1,
          891, 870, 869, -1,
          893, 869, 868, -1,
          893, 891, 869, -1,
          895, 868, 862, -1,
          895, 893, 868, -1,
          897, 862, 861, -1,
          897, 895, 862, -1,
          899, 861, 860, -1,
          899, 897, 861, -1,
          901, 860, 852, -1,
          901, 899, 860, -1,
          903, 852, 851, -1,
          903, 901, 852, -1,
          905, 851, 850, -1,
          905, 903, 851, -1,
          907, 850, 841, -1,
          907, 905, 850, -1,
          909, 841, 840, -1,
          909, 907, 841, -1,
          911, 840, 833, -1,
          911, 909, 840, -1,
          913, 833, 832, -1,
          913, 911, 833, -1,
          915, 913, 832, -1,
          915, 832, 821, -1,
          917, 915, 821, -1,
          917, 821, 820, -1,
          919, 917, 820, -1,
          919, 820, 812, -1,
          921, 919, 812, -1,
          921, 812, 811, -1,
          923, 921, 811, -1,
          923, 811, 798, -1,
          925, 923, 798, -1,
          927, 925, 798, -1,
          927, 797, 788, -1,
          927, 798, 797, -1,
          929, 927, 788, -1,
          929, 788, 787, -1,
          931, 929, 787, -1,
          931, 787, 778, -1,
          933, 778, 777, -1,
          933, 931, 778, -1,
          935, 777, 768, -1,
          935, 933, 777, -1,
          937, 768, 767, -1,
          937, 935, 768, -1,
          939, 937, 767, -1,
          941, 766, 755, -1,
          941, 767, 766, -1,
          941, 939, 767, -1,
          943, 755, 754, -1,
          943, 941, 755, -1,
          945, 943, 754, -1,
          947, 754, 746, -1,
          947, 945, 754, -1,
          949, 745, 735, -1,
          949, 746, 745, -1,
          949, 947, 746, -1,
          951, 735, 734, -1,
          951, 949, 735, -1,
          953, 951, 734, -1,
          955, 719, 718, -1,
          955, 734, 719, -1,
          955, 953, 734, -1,
          957, 718, 717, -1,
          957, 955, 718, -1,
          959, 717, 727, -1,
          959, 957, 717, -1,
          961, 727, 711, -1,
          961, 959, 727, -1,
          963, 711, 710, -1,
          963, 961, 711, -1,
          965, 963, 710, -1,
          965, 710, 709, -1,
          967, 965, 709, -1,
          967, 709, 721, -1,
          969, 967, 721, -1,
          969, 721, 707, -1,
          971, 969, 707, -1,
          971, 707, 706, -1,
          973, 706, 705, -1,
          973, 971, 706, -1,
          975, 705, 715, -1,
          975, 973, 705, -1,
          977, 715, 714, -1,
          977, 975, 715, -1,
          979, 714, 713, -1,
          979, 977, 714, -1,
          981, 713, 725, -1,
          981, 979, 713, -1,
          983, 725, 724, -1,
          983, 981, 725, -1,
          984, 983, 724, -1,
          987, 723, 732, -1,
          987, 724, 723, -1,
          987, 984, 724, -1,
          989, 987, 732, -1,
          991, 732, 731, -1,
          991, 989, 732, -1,
          993, 730, 740, -1,
          993, 731, 730, -1,
          993, 991, 731, -1,
          995, 993, 740, -1,
          997, 739, 758, -1,
          997, 740, 739, -1,
          997, 995, 740, -1,
          999, 758, 757, -1,
          999, 997, 758, -1,
          1001, 757, 702, -1,
          1001, 999, 757, -1,
          1003, 1001, 702, -1,
          128, 702, 129, -1,
          128, 1003, 702, -1,
          531, 126, 127, -1,
          1002, 126, 531, -1,
          657, 1002, 531, -1,
          1000, 1002, 657, -1,
          655, 1000, 657, -1,
          998, 1000, 655, -1,
          656, 998, 655, -1,
          996, 998, 656, -1,
          664, 996, 656, -1,
          994, 996, 664, -1,
          662, 994, 664, -1,
          992, 994, 662, -1,
          663, 992, 662, -1,
          990, 992, 663, -1,
          671, 990, 663, -1,
          988, 990, 671, -1,
          672, 988, 671, -1,
          986, 988, 672, -1,
          687, 986, 672, -1,
          985, 986, 687, -1,
          688, 985, 687, -1,
          982, 985, 688, -1,
          698, 982, 688, -1,
          980, 982, 698, -1,
          697, 980, 698, -1,
          978, 980, 697, -1,
          681, 978, 697, -1,
          976, 978, 681, -1,
          682, 976, 681, -1,
          974, 976, 682, -1,
          692, 974, 682, -1,
          972, 974, 692, -1,
          689, 972, 692, -1,
          970, 972, 689, -1,
          691, 970, 689, -1,
          968, 970, 691, -1,
          701, 968, 691, -1,
          966, 968, 701, -1,
          699, 966, 701, -1,
          964, 966, 699, -1,
          684, 964, 699, -1,
          962, 964, 684, -1,
          685, 962, 684, -1,
          960, 962, 685, -1,
          695, 960, 685, -1,
          958, 960, 695, -1,
          693, 958, 695, -1,
          956, 958, 693, -1,
          679, 956, 693, -1,
          954, 956, 679, -1,
          677, 954, 679, -1,
          952, 954, 677, -1,
          669, 952, 677, -1,
          950, 952, 669, -1,
          668, 950, 669, -1,
          948, 950, 668, -1,
          653, 948, 668, -1,
          946, 948, 653, -1,
          652, 946, 653, -1,
          944, 946, 652, -1,
          651, 944, 652, -1,
          942, 944, 651, -1,
          642, 942, 651, -1,
          940, 942, 642, -1,
          641, 940, 642, -1,
          938, 940, 641, -1,
          632, 938, 641, -1,
          936, 938, 632, -1,
          631, 936, 632, -1,
          934, 936, 631, -1,
          622, 934, 631, -1,
          932, 934, 622, -1,
          930, 622, 620, -1,
          930, 932, 622, -1,
          612, 930, 620, -1,
          928, 930, 612, -1,
          611, 928, 612, -1,
          926, 928, 611, -1,
          610, 926, 611, -1,
          924, 926, 610, -1,
          597, 924, 610, -1,
          922, 924, 597, -1,
          590, 922, 597, -1,
          920, 922, 590, -1,
          589, 920, 590, -1,
          918, 920, 589, -1,
          916, 918, 589, -1,
          916, 589, 587, -1,
          577, 916, 587, -1,
          914, 916, 577, -1,
          576, 914, 577, -1,
          912, 914, 576, -1,
          575, 912, 576, -1,
          910, 912, 575, -1,
          565, 910, 575, -1,
          908, 910, 565, -1,
          560, 908, 565, -1,
          906, 908, 560, -1,
          559, 906, 560, -1,
          904, 906, 559, -1,
          902, 559, 557, -1,
          902, 904, 559, -1,
          900, 557, 550, -1,
          900, 902, 557, -1,
          548, 900, 550, -1,
          898, 900, 548, -1,
          546, 898, 548, -1,
          896, 898, 546, -1,
          894, 546, 544, -1,
          894, 896, 546, -1,
          540, 894, 544, -1,
          892, 894, 540, -1,
          539, 892, 540, -1,
          890, 892, 539, -1,
          538, 890, 539, -1,
          888, 890, 538, -1,
          535, 888, 538, -1,
          886, 888, 535, -1,
          884, 535, 534, -1,
          884, 886, 535, -1,
          532, 884, 534, -1,
          882, 884, 532, -1,
          880, 532, 530, -1,
          880, 882, 532, -1,
          2, 880, 530, -1,
          1, 880, 2, -1
        ]
      }
    }
}
