#VRML V2.0 utf8
WorldInfo {
  title "Exported triangle mesh to VRML97"
  info ["Created by FreeCAD"
        "<https://www.freecad.org>"]
}

Transform {
  scale 1 1 1
  rotation 0 0 1 0
  scaleOrientation 0 0 1 0
  center 0.000 0.000 0.000
  translation 0.000 0.000 0.000
  children
    Shape { 
      appearance
      Appearance {
        material
        Material {
          diffuseColor 0.8 0.8 0.8
        }
      }
      geometry
      IndexedFaceSet {
        coord
        Coordinate {
          point [
            0.623 -12.485 -2.027,
            0.000 -12.700 -1.815,
            0.000 -12.500 -2.027,
            0.633 -12.684 -1.815,
            1.245 -12.438 -2.027,
            1.265 -12.637 -1.815,
            1.863 -12.361 -2.027,
            1.893 -12.558 -1.815,
            2.477 -12.253 -2.027,
            2.516 -12.448 -1.815,
            3.085 -12.114 -2.027,
            3.134 -12.307 -1.815,
            3.685 -11.945 -2.027,
            3.743 -12.136 -1.815,
            4.275 -11.747 -2.027,
            4.344 -11.934 -1.815,
            4.856 -11.519 -2.027,
            4.933 -11.703 -1.815,
            5.424 -11.262 -2.027,
            5.510 -11.442 -1.815,
            5.978 -10.978 -2.027,
            6.074 -11.153 -1.815,
            6.518 -10.667 -2.027,
            6.622 -10.837 -1.815,
            7.042 -10.328 -2.027,
            7.154 -10.493 -1.815,
            7.548 -9.964 -2.027,
            7.668 -10.124 -1.815,
            8.035 -9.576 -2.027,
            8.163 -9.729 -1.815,
            8.502 -9.163 -2.027,
            8.638 -9.310 -1.815,
            8.949 -8.728 -2.027,
            9.092 -8.868 -1.815,
            9.373 -8.271 -2.027,
            9.522 -8.403 -1.815,
            9.773 -7.794 -2.027,
            9.929 -7.918 -1.815,
            10.150 -7.297 -2.027,
            10.312 -7.414 -1.815,
            10.501 -6.782 -2.027,
            10.668 -6.890 -1.815,
            10.826 -6.250 -2.027,
            10.999 -6.350 -1.815,
            11.124 -5.703 -2.027,
            11.301 -5.794 -1.815,
            11.394 -5.141 -2.027,
            11.576 -5.223 -1.815,
            11.636 -4.567 -2.027,
            11.822 -4.640 -1.815,
            11.849 -3.981 -2.027,
            12.039 -4.045 -1.815,
            12.033 -3.386 -2.027,
            12.225 -3.440 -1.815,
            12.187 -2.782 -2.027,
            12.382 -2.826 -1.815,
            12.311 -2.171 -2.027,
            12.507 -2.205 -1.815,
            12.601 -1.579 -1.815,
            12.403 -1.554 -2.027,
            12.465 -0.934 -2.027,
            12.664 -0.949 -1.815,
            12.696 -0.317 -1.815,
            12.497 -0.312 -2.027,
            12.497 0.312 -2.027,
            12.696 0.317 -1.815,
            12.664 0.949 -1.815,
            12.465 0.934 -2.027,
            12.601 1.579 -1.815,
            12.403 1.554 -2.027,
            12.507 2.205 -1.815,
            12.311 2.171 -2.027,
            12.187 2.782 -2.027,
            12.382 2.826 -1.815,
            12.225 3.440 -1.815,
            12.033 3.386 -2.027,
            11.849 3.981 -2.027,
            12.039 4.045 -1.815,
            11.636 4.567 -2.027,
            11.822 4.640 -1.815,
            11.394 5.141 -2.027,
            11.576 5.223 -1.815,
            11.301 5.794 -1.815,
            11.124 5.703 -2.027,
            10.826 6.250 -2.027,
            10.999 6.350 -1.815,
            10.501 6.782 -2.027,
            10.668 6.890 -1.815,
            10.312 7.414 -1.815,
            10.150 7.297 -2.027,
            9.773 7.794 -2.027,
            9.929 7.918 -1.815,
            9.522 8.403 -1.815,
            9.373 8.271 -2.027,
            8.949 8.728 -2.027,
            9.092 8.868 -1.815,
            8.638 9.310 -1.815,
            8.502 9.163 -2.027,
            8.163 9.729 -1.815,
            8.035 9.576 -2.027,
            7.668 10.124 -1.815,
            7.548 9.964 -2.027,
            7.154 10.493 -1.815,
            7.042 10.328 -2.027,
            6.622 10.837 -1.815,
            6.518 10.667 -2.027,
            6.074 11.153 -1.815,
            5.978 10.978 -2.027,
            5.510 11.442 -1.815,
            5.424 11.262 -2.027,
            4.856 11.519 -2.027,
            4.933 11.703 -1.815,
            4.275 11.747 -2.027,
            4.344 11.934 -1.815,
            3.685 11.945 -2.027,
            3.743 12.136 -1.815,
            3.085 12.114 -2.027,
            3.134 12.307 -1.815,
            2.516 12.448 -1.815,
            2.477 12.253 -2.027,
            1.863 12.361 -2.027,
            1.893 12.558 -1.815,
            1.245 12.438 -2.027,
            1.265 12.637 -1.815,
            0.633 12.684 -1.815,
            0.623 12.485 -2.027,
            0.000 12.700 -1.815,
            0.000 12.500 -2.027,
            0.626 12.543 2.368,
            0.000 12.700 2.227,
            0.000 12.559 2.368,
            0.633 12.684 2.227,
            1.265 12.637 2.227,
            1.250 12.496 2.368,
            1.893 12.558 2.227,
            1.872 12.418 2.368,
            2.516 12.448 2.227,
            2.488 12.310 2.368,
            3.134 12.307 2.227,
            3.099 12.170 2.368,
            3.743 12.136 2.227,
            3.702 12.001 2.368,
            4.344 11.934 2.227,
            4.295 11.801 2.368,
            4.933 11.703 2.227,
            4.878 11.572 2.368,
            5.449 11.315 2.368,
            5.510 11.442 2.227,
            6.074 11.153 2.227,
            6.006 11.029 2.368,
            6.622 10.837 2.227,
            6.548 10.716 2.368,
            7.154 10.493 2.227,
            7.074 10.376 2.368,
            7.583 10.011 2.368,
            7.668 10.124 2.227,
            8.163 9.729 2.227,
            8.072 9.620 2.368,
            8.638 9.310 2.227,
            8.542 9.206 2.368,
            9.092 8.868 2.227,
            8.990 8.769 2.368,
            9.522 8.403 2.227,
            9.416 8.310 2.368,
            9.929 7.918 2.227,
            9.819 7.830 2.368,
            10.312 7.414 2.227,
            10.197 7.331 2.368,
            10.668 6.890 2.227,
            10.550 6.814 2.368,
            10.999 6.350 2.227,
            10.876 6.279 2.368,
            11.301 5.794 2.227,
            11.176 5.729 2.368,
            11.576 5.223 2.227,
            11.447 5.165 2.368,
            11.822 4.640 2.227,
            11.690 4.588 2.368,
            12.039 4.045 2.227,
            11.905 4.000 2.368,
            12.225 3.440 2.227,
            12.089 3.401 2.368,
            12.382 2.826 2.227,
            12.244 2.795 2.368,
            12.507 2.205 2.227,
            12.368 2.181 2.368,
            12.601 1.579 2.227,
            12.461 1.562 2.368,
            12.664 0.949 2.227,
            12.523 0.939 2.368,
            12.696 0.317 2.227,
            12.555 0.313 2.368,
            12.696 -0.317 2.227,
            12.555 -0.313 2.368,
            12.664 -0.949 2.227,
            12.523 -0.939 2.368,
            12.601 -1.579 2.227,
            12.461 -1.562 2.368,
            12.507 -2.205 2.227,
            12.368 -2.181 2.368,
            12.382 -2.826 2.227,
            12.244 -2.795 2.368,
            12.225 -3.440 2.227,
            12.089 -3.401 2.368,
            12.039 -4.045 2.227,
            11.905 -4.000 2.368,
            11.690 -4.588 2.368,
            11.822 -4.640 2.227,
            11.447 -5.165 2.368,
            11.576 -5.223 2.227,
            11.301 -5.794 2.227,
            11.176 -5.729 2.368,
            10.876 -6.279 2.368,
            10.999 -6.350 2.227,
            10.668 -6.890 2.227,
            10.550 -6.814 2.368,
            10.312 -7.414 2.227,
            10.197 -7.331 2.368,
            9.819 -7.830 2.368,
            9.929 -7.918 2.227,
            9.416 -8.310 2.368,
            9.522 -8.403 2.227,
            9.092 -8.868 2.227,
            8.990 -8.769 2.368,
            8.638 -9.310 2.227,
            8.542 -9.206 2.368,
            8.163 -9.729 2.227,
            8.072 -9.620 2.368,
            7.583 -10.011 2.368,
            7.668 -10.124 2.227,
            7.154 -10.493 2.227,
            7.074 -10.376 2.368,
            6.548 -10.716 2.368,
            6.622 -10.837 2.227,
            6.074 -11.153 2.227,
            6.006 -11.029 2.368,
            5.449 -11.315 2.368,
            5.510 -11.442 2.227,
            4.933 -11.703 2.227,
            4.878 -11.572 2.368,
            4.344 -11.934 2.227,
            4.295 -11.801 2.368,
            3.743 -12.136 2.227,
            3.702 -12.001 2.368,
            3.099 -12.170 2.368,
            3.134 -12.307 2.227,
            2.516 -12.448 2.227,
            2.488 -12.310 2.368,
            1.893 -12.558 2.227,
            1.872 -12.418 2.368,
            1.250 -12.496 2.368,
            1.265 -12.637 2.227,
            0.633 -12.684 2.227,
            0.626 -12.543 2.368,
            -0.000 -12.559 2.368,
            0.000 -12.700 2.227,
            0.000 -8.336 -2.226,
            0.000 8.336 -2.226,
            6.251 -8.333 -2.136,
            0.000 -4.169 -2.345,
            6.251 0.000 -2.296,
            0.000 0.000 -2.385,
            0.000 4.169 -2.345,
            6.251 8.333 -2.136,
            0.000 8.384 1.950,
            -0.000 -8.384 1.950,
            6.289 9.412 2.226,
            6.289 3.141 1.850,
            0.000 0.000 1.615,
            0.000 4.195 1.699,
            6.289 -3.141 1.850,
            -0.000 -4.195 1.699,
            6.289 -9.412 2.226,
            -0.626 12.543 2.368,
            -1.250 12.496 2.368,
            -1.872 12.418 2.368,
            -2.488 12.310 2.368,
            -3.099 12.170 2.368,
            -3.702 12.001 2.368,
            -4.295 11.801 2.368,
            -0.626 -12.543 2.368,
            -1.250 -12.496 2.368,
            -1.872 -12.418 2.368,
            -2.488 -12.310 2.368,
            -3.099 -12.170 2.368,
            -3.702 -12.001 2.368,
            -4.295 -11.801 2.368,
            -4.878 11.572 2.368,
            -6.289 9.412 2.226,
            -5.449 11.315 2.368,
            -6.006 11.029 2.368,
            -6.548 10.716 2.368,
            -7.074 10.376 2.368,
            -7.583 10.011 2.368,
            -8.072 9.620 2.368,
            -8.542 9.206 2.368,
            -8.990 8.769 2.368,
            -9.416 8.310 2.368,
            -6.289 3.141 1.850,
            -9.819 7.830 2.368,
            -10.197 7.331 2.368,
            -10.550 6.814 2.368,
            -10.876 6.279 2.368,
            -11.176 5.729 2.368,
            -11.447 5.165 2.368,
            -11.690 4.588 2.368,
            -11.905 4.000 2.368,
            -12.089 3.401 2.368,
            -12.244 2.795 2.368,
            -12.368 2.181 2.368,
            -12.461 1.562 2.368,
            -12.523 0.939 2.368,
            -12.555 0.313 2.368,
            -6.289 -3.141 1.850,
            -12.555 -0.313 2.368,
            -12.523 -0.939 2.368,
            -12.461 -1.562 2.368,
            -12.368 -2.181 2.368,
            -12.244 -2.795 2.368,
            -12.089 -3.401 2.368,
            -11.905 -4.000 2.368,
            -11.690 -4.588 2.368,
            -11.447 -5.165 2.368,
            -11.176 -5.729 2.368,
            -10.876 -6.279 2.368,
            -10.550 -6.814 2.368,
            -10.197 -7.331 2.368,
            -9.819 -7.830 2.368,
            -9.416 -8.310 2.368,
            -8.990 -8.769 2.368,
            -6.289 -9.412 2.226,
            -8.542 -9.206 2.368,
            -8.072 -9.620 2.368,
            -7.583 -10.011 2.368,
            -7.074 -10.376 2.368,
            -6.548 -10.716 2.368,
            -6.006 -11.029 2.368,
            -5.449 -11.315 2.368,
            -4.878 -11.572 2.368,
            -0.623 -12.485 -2.027,
            -1.245 -12.438 -2.027,
            -1.863 -12.361 -2.027,
            -2.477 -12.253 -2.027,
            -3.085 -12.114 -2.027,
            -3.685 -11.945 -2.027,
            -4.275 -11.747 -2.027,
            -4.275 11.747 -2.027,
            -3.685 11.945 -2.027,
            -3.085 12.114 -2.027,
            -2.477 12.253 -2.027,
            -1.863 12.361 -2.027,
            -1.245 12.438 -2.027,
            -0.623 12.485 -2.027,
            -6.251 -8.333 -2.136,
            -4.856 -11.519 -2.027,
            -5.424 -11.262 -2.027,
            -5.978 -10.978 -2.027,
            -6.518 -10.667 -2.027,
            -7.042 -10.328 -2.027,
            -7.548 -9.964 -2.027,
            -8.035 -9.576 -2.027,
            -8.502 -9.163 -2.027,
            -8.949 -8.728 -2.027,
            -9.373 -8.271 -2.027,
            -9.773 -7.794 -2.027,
            -10.150 -7.297 -2.027,
            -10.501 -6.782 -2.027,
            -10.826 -6.250 -2.027,
            -6.251 0.000 -2.296,
            -11.124 -5.703 -2.027,
            -11.394 -5.141 -2.027,
            -11.636 -4.567 -2.027,
            -11.849 -3.981 -2.027,
            -12.033 -3.386 -2.027,
            -12.187 -2.782 -2.027,
            -12.311 -2.171 -2.027,
            -12.403 -1.554 -2.027,
            -12.465 -0.934 -2.027,
            -12.497 -0.312 -2.027,
            -12.497 0.312 -2.027,
            -12.465 0.934 -2.027,
            -12.403 1.554 -2.027,
            -12.311 2.171 -2.027,
            -12.187 2.782 -2.027,
            -12.033 3.386 -2.027,
            -11.849 3.981 -2.027,
            -11.636 4.567 -2.027,
            -11.394 5.141 -2.027,
            -11.124 5.703 -2.027,
            -10.826 6.250 -2.027,
            -6.251 8.333 -2.136,
            -10.501 6.782 -2.027,
            -10.150 7.297 -2.027,
            -9.773 7.794 -2.027,
            -9.373 8.271 -2.027,
            -8.949 8.728 -2.027,
            -8.502 9.163 -2.027,
            -8.035 9.576 -2.027,
            -7.548 9.964 -2.027,
            -7.042 10.328 -2.027,
            -6.518 10.667 -2.027,
            -5.978 10.978 -2.027,
            -5.424 11.262 -2.027,
            -4.856 11.519 -2.027,
            -0.633 12.684 2.227,
            -0.633 12.684 -1.815,
            -1.265 12.637 2.227,
            -1.265 12.637 -1.815,
            -1.893 12.558 2.227,
            -1.893 12.558 -1.815,
            -2.516 12.448 -1.815,
            -2.516 12.448 2.227,
            -3.134 12.307 2.227,
            -3.134 12.307 -1.815,
            -3.743 12.136 2.227,
            -3.743 12.136 -1.815,
            -4.344 11.934 2.227,
            -4.344 11.934 -1.815,
            -4.933 11.703 -1.815,
            -4.933 11.703 2.227,
            -5.510 11.442 2.227,
            -5.510 11.442 -1.815,
            -6.074 11.153 2.227,
            -6.074 11.153 -1.815,
            -6.622 10.837 2.227,
            -6.622 10.837 -1.815,
            -7.154 10.493 2.227,
            -7.154 10.493 -1.815,
            -7.668 10.124 2.227,
            -7.668 10.124 -1.815,
            -8.163 9.729 2.227,
            -8.163 9.729 -1.815,
            -8.638 9.310 2.227,
            -8.638 9.310 -1.815,
            -9.092 8.868 2.227,
            -9.092 8.868 -1.815,
            -9.522 8.403 2.227,
            -9.522 8.403 -1.815,
            -9.929 7.918 2.227,
            -9.929 7.918 -1.815,
            -10.312 7.414 2.227,
            -10.312 7.414 -1.815,
            -10.668 6.890 2.227,
            -10.668 6.890 -1.815,
            -10.999 6.350 2.227,
            -10.999 6.350 -1.815,
            -11.301 5.794 2.227,
            -11.301 5.794 -1.815,
            -11.576 5.223 2.227,
            -11.576 5.223 -1.815,
            -11.822 4.640 2.227,
            -11.822 4.640 -1.815,
            -12.039 4.045 -1.815,
            -12.039 4.045 2.227,
            -12.225 3.440 2.227,
            -12.225 3.440 -1.815,
            -12.382 2.826 2.227,
            -12.382 2.826 -1.815,
            -12.507 2.205 -1.815,
            -12.507 2.205 2.227,
            -12.601 1.579 2.227,
            -12.601 1.579 -1.815,
            -12.664 0.949 2.227,
            -12.664 0.949 -1.815,
            -12.696 0.317 2.227,
            -12.696 0.317 -1.815,
            -12.696 -0.317 -1.815,
            -12.696 -0.317 2.227,
            -12.664 -0.949 2.227,
            -12.664 -0.949 -1.815,
            -12.601 -1.579 -1.815,
            -12.601 -1.579 2.227,
            -12.507 -2.205 2.227,
            -12.507 -2.205 -1.815,
            -12.382 -2.826 -1.815,
            -12.382 -2.826 2.227,
            -12.225 -3.440 2.227,
            -12.225 -3.440 -1.815,
            -12.039 -4.045 -1.815,
            -12.039 -4.045 2.227,
            -11.822 -4.640 2.227,
            -11.822 -4.640 -1.815,
            -11.576 -5.223 -1.815,
            -11.576 -5.223 2.227,
            -11.301 -5.794 2.227,
            -11.301 -5.794 -1.815,
            -10.999 -6.350 -1.815,
            -10.999 -6.350 2.227,
            -10.668 -6.890 2.227,
            -10.668 -6.890 -1.815,
            -10.312 -7.414 -1.815,
            -10.312 -7.414 2.227,
            -9.929 -7.918 2.227,
            -9.929 -7.918 -1.815,
            -9.522 -8.403 -1.815,
            -9.522 -8.403 2.227,
            -9.092 -8.868 2.227,
            -9.092 -8.868 -1.815,
            -8.638 -9.310 -1.815,
            -8.638 -9.310 2.227,
            -8.163 -9.729 2.227,
            -8.163 -9.729 -1.815,
            -7.668 -10.124 -1.815,
            -7.668 -10.124 2.227,
            -7.154 -10.493 2.227,
            -7.154 -10.493 -1.815,
            -6.622 -10.837 2.227,
            -6.622 -10.837 -1.815,
            -6.074 -11.153 2.227,
            -6.074 -11.153 -1.815,
            -5.510 -11.442 -1.815,
            -5.510 -11.442 2.227,
            -4.933 -11.703 2.227,
            -4.933 -11.703 -1.815,
            -4.344 -11.934 -1.815,
            -4.344 -11.934 2.227,
            -3.743 -12.136 -1.815,
            -3.743 -12.136 2.227,
            -3.134 -12.307 2.227,
            -3.134 -12.307 -1.815,
            -2.516 -12.448 -1.815,
            -2.516 -12.448 2.227,
            -1.893 -12.558 2.227,
            -1.893 -12.558 -1.815,
            -1.265 -12.637 -1.815,
            -1.265 -12.637 2.227,
            -0.633 -12.684 2.227,
            -0.633 -12.684 -1.815
          ]
        }
        coordIndex [
          0, 1, 2, -1,
          3, 1, 0, -1,
          4, 3, 0, -1,
          5, 3, 4, -1,
          6, 5, 4, -1,
          7, 5, 6, -1,
          8, 7, 6, -1,
          9, 7, 8, -1,
          10, 9, 8, -1,
          11, 9, 10, -1,
          12, 11, 10, -1,
          13, 11, 12, -1,
          14, 13, 12, -1,
          15, 13, 14, -1,
          16, 15, 14, -1,
          17, 15, 16, -1,
          18, 17, 16, -1,
          19, 17, 18, -1,
          20, 19, 18, -1,
          21, 19, 20, -1,
          22, 21, 20, -1,
          23, 21, 22, -1,
          24, 23, 22, -1,
          25, 23, 24, -1,
          26, 25, 24, -1,
          27, 25, 26, -1,
          28, 27, 26, -1,
          29, 27, 28, -1,
          30, 29, 28, -1,
          31, 29, 30, -1,
          32, 31, 30, -1,
          33, 31, 32, -1,
          34, 33, 32, -1,
          35, 33, 34, -1,
          36, 35, 34, -1,
          37, 35, 36, -1,
          38, 37, 36, -1,
          39, 37, 38, -1,
          40, 39, 38, -1,
          41, 39, 40, -1,
          42, 41, 40, -1,
          43, 41, 42, -1,
          44, 43, 42, -1,
          45, 43, 44, -1,
          46, 45, 44, -1,
          47, 45, 46, -1,
          48, 47, 46, -1,
          49, 47, 48, -1,
          50, 49, 48, -1,
          51, 49, 50, -1,
          52, 51, 50, -1,
          53, 51, 52, -1,
          54, 53, 52, -1,
          55, 53, 54, -1,
          56, 55, 54, -1,
          57, 55, 56, -1,
          58, 56, 59, -1,
          58, 57, 56, -1,
          60, 58, 59, -1,
          61, 58, 60, -1,
          62, 60, 63, -1,
          62, 61, 60, -1,
          64, 62, 63, -1,
          65, 62, 64, -1,
          66, 64, 67, -1,
          66, 65, 64, -1,
          68, 67, 69, -1,
          68, 66, 67, -1,
          70, 69, 71, -1,
          70, 68, 69, -1,
          72, 70, 71, -1,
          73, 70, 72, -1,
          74, 72, 75, -1,
          74, 73, 72, -1,
          76, 74, 75, -1,
          77, 74, 76, -1,
          78, 77, 76, -1,
          79, 77, 78, -1,
          80, 79, 78, -1,
          81, 79, 80, -1,
          82, 80, 83, -1,
          82, 81, 80, -1,
          84, 82, 83, -1,
          85, 82, 84, -1,
          86, 85, 84, -1,
          87, 85, 86, -1,
          88, 87, 86, -1,
          88, 86, 89, -1,
          90, 88, 89, -1,
          91, 88, 90, -1,
          92, 91, 90, -1,
          92, 90, 93, -1,
          94, 92, 93, -1,
          95, 92, 94, -1,
          96, 94, 97, -1,
          96, 95, 94, -1,
          98, 97, 99, -1,
          98, 96, 97, -1,
          100, 99, 101, -1,
          100, 98, 99, -1,
          102, 101, 103, -1,
          102, 100, 101, -1,
          104, 103, 105, -1,
          104, 102, 103, -1,
          106, 105, 107, -1,
          106, 104, 105, -1,
          108, 107, 109, -1,
          108, 106, 107, -1,
          110, 108, 109, -1,
          111, 108, 110, -1,
          112, 111, 110, -1,
          113, 111, 112, -1,
          114, 113, 112, -1,
          115, 113, 114, -1,
          116, 115, 114, -1,
          117, 115, 116, -1,
          118, 116, 119, -1,
          118, 117, 116, -1,
          120, 118, 119, -1,
          121, 118, 120, -1,
          122, 121, 120, -1,
          123, 121, 122, -1,
          124, 122, 125, -1,
          124, 123, 122, -1,
          126, 125, 127, -1,
          126, 124, 125, -1,
          128, 129, 130, -1,
          131, 129, 128, -1,
          132, 131, 128, -1,
          132, 128, 133, -1,
          134, 132, 133, -1,
          134, 133, 135, -1,
          136, 134, 135, -1,
          136, 135, 137, -1,
          138, 136, 137, -1,
          138, 137, 139, -1,
          140, 138, 139, -1,
          140, 139, 141, -1,
          142, 141, 143, -1,
          142, 140, 141, -1,
          144, 143, 145, -1,
          144, 142, 143, -1,
          146, 144, 145, -1,
          147, 144, 146, -1,
          148, 146, 149, -1,
          148, 147, 146, -1,
          150, 149, 151, -1,
          150, 148, 149, -1,
          152, 151, 153, -1,
          152, 150, 151, -1,
          154, 152, 153, -1,
          155, 152, 154, -1,
          156, 154, 157, -1,
          156, 155, 154, -1,
          158, 157, 159, -1,
          158, 156, 157, -1,
          160, 159, 161, -1,
          160, 158, 159, -1,
          162, 161, 163, -1,
          162, 160, 161, -1,
          164, 162, 163, -1,
          164, 163, 165, -1,
          166, 164, 165, -1,
          166, 165, 167, -1,
          168, 166, 167, -1,
          168, 167, 169, -1,
          170, 168, 169, -1,
          170, 169, 171, -1,
          172, 170, 171, -1,
          172, 171, 173, -1,
          174, 172, 173, -1,
          174, 173, 175, -1,
          176, 174, 175, -1,
          176, 175, 177, -1,
          178, 176, 177, -1,
          178, 177, 179, -1,
          180, 178, 179, -1,
          180, 179, 181, -1,
          182, 181, 183, -1,
          182, 180, 181, -1,
          184, 183, 185, -1,
          184, 182, 183, -1,
          186, 185, 187, -1,
          186, 184, 185, -1,
          188, 187, 189, -1,
          188, 186, 187, -1,
          190, 189, 191, -1,
          190, 188, 189, -1,
          192, 191, 193, -1,
          192, 190, 191, -1,
          194, 193, 195, -1,
          194, 192, 193, -1,
          196, 195, 197, -1,
          196, 194, 195, -1,
          198, 197, 199, -1,
          198, 196, 197, -1,
          200, 199, 201, -1,
          200, 198, 199, -1,
          202, 201, 203, -1,
          202, 200, 201, -1,
          204, 203, 205, -1,
          204, 202, 203, -1,
          206, 204, 205, -1,
          207, 204, 206, -1,
          208, 207, 206, -1,
          209, 207, 208, -1,
          210, 208, 211, -1,
          210, 209, 208, -1,
          212, 210, 211, -1,
          213, 210, 212, -1,
          214, 213, 212, -1,
          214, 212, 215, -1,
          216, 214, 215, -1,
          216, 215, 217, -1,
          218, 216, 217, -1,
          219, 216, 218, -1,
          220, 219, 218, -1,
          221, 219, 220, -1,
          222, 221, 220, -1,
          222, 220, 223, -1,
          224, 223, 225, -1,
          224, 222, 223, -1,
          226, 225, 227, -1,
          226, 224, 225, -1,
          228, 226, 227, -1,
          229, 226, 228, -1,
          230, 228, 231, -1,
          230, 229, 228, -1,
          232, 230, 231, -1,
          233, 230, 232, -1,
          234, 232, 235, -1,
          234, 233, 232, -1,
          236, 234, 235, -1,
          237, 234, 236, -1,
          238, 236, 239, -1,
          238, 237, 236, -1,
          240, 239, 241, -1,
          240, 238, 239, -1,
          242, 241, 243, -1,
          242, 240, 241, -1,
          244, 242, 243, -1,
          245, 242, 244, -1,
          246, 244, 247, -1,
          246, 245, 244, -1,
          248, 247, 249, -1,
          248, 246, 247, -1,
          250, 248, 249, -1,
          251, 248, 250, -1,
          252, 250, 253, -1,
          252, 251, 250, -1,
          254, 252, 253, -1,
          255, 252, 254, -1,
          252, 1, 3, -1,
          252, 255, 1, -1,
          251, 3, 5, -1,
          251, 252, 3, -1,
          248, 5, 7, -1,
          248, 251, 5, -1,
          246, 7, 9, -1,
          246, 248, 7, -1,
          245, 9, 11, -1,
          245, 246, 9, -1,
          242, 11, 13, -1,
          242, 13, 15, -1,
          242, 245, 11, -1,
          240, 242, 15, -1,
          238, 15, 17, -1,
          238, 240, 15, -1,
          237, 17, 19, -1,
          237, 238, 17, -1,
          234, 19, 21, -1,
          234, 237, 19, -1,
          233, 21, 23, -1,
          233, 234, 21, -1,
          230, 23, 25, -1,
          230, 25, 27, -1,
          230, 233, 23, -1,
          229, 230, 27, -1,
          226, 27, 29, -1,
          226, 229, 27, -1,
          224, 29, 31, -1,
          224, 226, 29, -1,
          222, 31, 33, -1,
          222, 224, 31, -1,
          221, 33, 35, -1,
          221, 222, 33, -1,
          219, 35, 37, -1,
          219, 221, 35, -1,
          216, 219, 37, -1,
          216, 37, 39, -1,
          214, 216, 39, -1,
          214, 39, 41, -1,
          213, 214, 41, -1,
          213, 41, 43, -1,
          210, 213, 43, -1,
          210, 43, 45, -1,
          209, 45, 47, -1,
          209, 210, 45, -1,
          207, 47, 49, -1,
          207, 209, 47, -1,
          204, 49, 51, -1,
          204, 207, 49, -1,
          202, 51, 53, -1,
          202, 204, 51, -1,
          200, 53, 55, -1,
          200, 202, 53, -1,
          198, 55, 57, -1,
          198, 200, 55, -1,
          196, 57, 58, -1,
          196, 198, 57, -1,
          194, 58, 61, -1,
          194, 196, 58, -1,
          192, 61, 62, -1,
          192, 194, 61, -1,
          190, 62, 65, -1,
          190, 65, 66, -1,
          190, 192, 62, -1,
          188, 190, 66, -1,
          186, 66, 68, -1,
          186, 68, 70, -1,
          186, 188, 66, -1,
          184, 186, 70, -1,
          182, 70, 73, -1,
          182, 73, 74, -1,
          182, 184, 70, -1,
          180, 182, 74, -1,
          178, 74, 77, -1,
          178, 77, 79, -1,
          178, 180, 74, -1,
          176, 178, 79, -1,
          174, 79, 81, -1,
          174, 81, 82, -1,
          174, 176, 79, -1,
          172, 174, 82, -1,
          170, 82, 85, -1,
          170, 85, 87, -1,
          170, 172, 82, -1,
          168, 170, 87, -1,
          166, 168, 87, -1,
          166, 87, 88, -1,
          164, 166, 88, -1,
          164, 88, 91, -1,
          162, 164, 91, -1,
          162, 91, 92, -1,
          162, 92, 95, -1,
          160, 162, 95, -1,
          158, 160, 95, -1,
          158, 95, 96, -1,
          158, 96, 98, -1,
          156, 158, 98, -1,
          156, 98, 100, -1,
          155, 156, 100, -1,
          155, 100, 102, -1,
          152, 155, 102, -1,
          150, 152, 102, -1,
          150, 102, 104, -1,
          148, 150, 104, -1,
          148, 104, 106, -1,
          148, 106, 108, -1,
          147, 148, 108, -1,
          144, 147, 108, -1,
          144, 108, 111, -1,
          144, 111, 113, -1,
          142, 144, 113, -1,
          140, 113, 115, -1,
          140, 115, 117, -1,
          140, 142, 113, -1,
          138, 140, 117, -1,
          136, 117, 118, -1,
          136, 138, 117, -1,
          134, 118, 121, -1,
          134, 136, 118, -1,
          132, 121, 123, -1,
          132, 123, 124, -1,
          132, 134, 121, -1,
          131, 132, 124, -1,
          129, 124, 126, -1,
          129, 131, 124, -1,
          256, 10, 8, -1,
          256, 8, 6, -1,
          256, 6, 4, -1,
          256, 4, 0, -1,
          256, 0, 2, -1,
          12, 10, 256, -1,
          14, 12, 256, -1,
          125, 257, 127, -1,
          122, 257, 125, -1,
          120, 257, 122, -1,
          119, 257, 120, -1,
          116, 257, 119, -1,
          114, 257, 116, -1,
          112, 257, 114, -1,
          258, 256, 259, -1,
          258, 42, 40, -1,
          258, 40, 38, -1,
          258, 38, 36, -1,
          258, 36, 34, -1,
          258, 34, 32, -1,
          258, 32, 30, -1,
          258, 30, 28, -1,
          258, 28, 26, -1,
          258, 26, 24, -1,
          258, 24, 22, -1,
          258, 22, 20, -1,
          258, 20, 18, -1,
          258, 18, 16, -1,
          258, 16, 14, -1,
          258, 14, 256, -1,
          260, 259, 261, -1,
          260, 261, 262, -1,
          260, 84, 83, -1,
          260, 83, 80, -1,
          260, 80, 78, -1,
          260, 78, 76, -1,
          260, 76, 75, -1,
          260, 75, 72, -1,
          260, 72, 71, -1,
          260, 71, 69, -1,
          260, 69, 67, -1,
          260, 67, 64, -1,
          260, 64, 63, -1,
          260, 63, 60, -1,
          260, 60, 59, -1,
          260, 59, 56, -1,
          260, 56, 54, -1,
          260, 54, 52, -1,
          260, 52, 50, -1,
          260, 50, 48, -1,
          260, 48, 46, -1,
          260, 46, 44, -1,
          260, 44, 42, -1,
          260, 42, 258, -1,
          260, 258, 259, -1,
          263, 262, 257, -1,
          263, 112, 110, -1,
          263, 110, 109, -1,
          263, 109, 107, -1,
          263, 107, 105, -1,
          263, 105, 103, -1,
          263, 103, 101, -1,
          263, 101, 99, -1,
          263, 99, 97, -1,
          263, 97, 94, -1,
          263, 94, 93, -1,
          263, 93, 90, -1,
          263, 90, 89, -1,
          263, 89, 86, -1,
          263, 86, 84, -1,
          263, 84, 260, -1,
          263, 257, 112, -1,
          263, 260, 262, -1,
          141, 264, 143, -1,
          139, 264, 141, -1,
          137, 264, 139, -1,
          135, 264, 137, -1,
          133, 264, 135, -1,
          128, 264, 133, -1,
          130, 264, 128, -1,
          241, 265, 243, -1,
          265, 244, 243, -1,
          265, 247, 244, -1,
          265, 249, 247, -1,
          265, 250, 249, -1,
          265, 253, 250, -1,
          265, 254, 253, -1,
          161, 266, 163, -1,
          159, 266, 161, -1,
          157, 266, 159, -1,
          154, 266, 157, -1,
          153, 266, 154, -1,
          151, 266, 153, -1,
          149, 266, 151, -1,
          146, 266, 149, -1,
          145, 266, 146, -1,
          143, 266, 145, -1,
          264, 266, 143, -1,
          189, 267, 191, -1,
          187, 267, 189, -1,
          185, 267, 187, -1,
          183, 267, 185, -1,
          181, 267, 183, -1,
          179, 267, 181, -1,
          177, 267, 179, -1,
          175, 267, 177, -1,
          173, 267, 175, -1,
          171, 267, 173, -1,
          169, 267, 171, -1,
          167, 267, 169, -1,
          165, 267, 167, -1,
          163, 267, 165, -1,
          268, 267, 269, -1,
          269, 267, 264, -1,
          264, 267, 266, -1,
          266, 267, 163, -1,
          218, 270, 220, -1,
          217, 270, 218, -1,
          215, 270, 217, -1,
          212, 270, 215, -1,
          211, 270, 212, -1,
          208, 270, 211, -1,
          206, 270, 208, -1,
          205, 270, 206, -1,
          203, 270, 205, -1,
          201, 270, 203, -1,
          199, 270, 201, -1,
          197, 270, 199, -1,
          195, 270, 197, -1,
          193, 270, 195, -1,
          191, 270, 193, -1,
          267, 270, 191, -1,
          271, 270, 268, -1,
          265, 270, 271, -1,
          268, 270, 267, -1,
          239, 272, 241, -1,
          236, 272, 239, -1,
          235, 272, 236, -1,
          232, 272, 235, -1,
          231, 272, 232, -1,
          228, 272, 231, -1,
          227, 272, 228, -1,
          225, 272, 227, -1,
          223, 272, 225, -1,
          220, 272, 223, -1,
          265, 272, 270, -1,
          241, 272, 265, -1,
          270, 272, 220, -1,
          273, 264, 130, -1,
          274, 264, 273, -1,
          275, 264, 274, -1,
          276, 264, 275, -1,
          277, 264, 276, -1,
          277, 278, 264, -1,
          278, 279, 264, -1,
          265, 280, 254, -1,
          265, 281, 280, -1,
          265, 282, 281, -1,
          265, 283, 282, -1,
          265, 284, 283, -1,
          265, 285, 284, -1,
          265, 286, 285, -1,
          287, 288, 279, -1,
          289, 288, 287, -1,
          290, 288, 289, -1,
          291, 288, 290, -1,
          292, 288, 291, -1,
          293, 288, 292, -1,
          294, 288, 293, -1,
          295, 288, 294, -1,
          296, 288, 295, -1,
          297, 288, 296, -1,
          279, 288, 264, -1,
          297, 298, 288, -1,
          288, 298, 264, -1,
          299, 298, 297, -1,
          300, 298, 299, -1,
          301, 298, 300, -1,
          302, 298, 301, -1,
          303, 298, 302, -1,
          304, 298, 303, -1,
          305, 298, 304, -1,
          306, 298, 305, -1,
          307, 298, 306, -1,
          308, 298, 307, -1,
          309, 298, 308, -1,
          310, 298, 309, -1,
          311, 298, 310, -1,
          312, 298, 311, -1,
          269, 298, 268, -1,
          264, 298, 269, -1,
          298, 313, 268, -1,
          314, 313, 312, -1,
          315, 313, 314, -1,
          316, 313, 315, -1,
          317, 313, 316, -1,
          318, 313, 317, -1,
          319, 313, 318, -1,
          320, 313, 319, -1,
          321, 313, 320, -1,
          322, 313, 321, -1,
          323, 313, 322, -1,
          324, 313, 323, -1,
          325, 313, 324, -1,
          326, 313, 325, -1,
          327, 313, 326, -1,
          328, 313, 327, -1,
          312, 313, 298, -1,
          268, 313, 271, -1,
          329, 330, 328, -1,
          331, 330, 329, -1,
          332, 330, 331, -1,
          333, 330, 332, -1,
          334, 330, 333, -1,
          335, 330, 334, -1,
          336, 330, 335, -1,
          337, 330, 336, -1,
          338, 330, 337, -1,
          286, 330, 338, -1,
          271, 330, 265, -1,
          313, 330, 271, -1,
          265, 330, 286, -1,
          328, 330, 313, -1,
          256, 2, 339, -1,
          256, 339, 340, -1,
          256, 340, 341, -1,
          256, 341, 342, -1,
          256, 342, 343, -1,
          256, 343, 344, -1,
          256, 344, 345, -1,
          257, 346, 347, -1,
          348, 257, 347, -1,
          349, 257, 348, -1,
          350, 257, 349, -1,
          351, 257, 350, -1,
          352, 257, 351, -1,
          127, 257, 352, -1,
          353, 259, 256, -1,
          353, 345, 354, -1,
          353, 354, 355, -1,
          353, 355, 356, -1,
          353, 356, 357, -1,
          353, 357, 358, -1,
          353, 358, 359, -1,
          353, 359, 360, -1,
          353, 360, 361, -1,
          353, 361, 362, -1,
          353, 362, 363, -1,
          353, 363, 364, -1,
          353, 364, 365, -1,
          353, 365, 366, -1,
          353, 366, 367, -1,
          353, 256, 345, -1,
          368, 262, 261, -1,
          368, 261, 259, -1,
          368, 367, 369, -1,
          368, 369, 370, -1,
          368, 370, 371, -1,
          368, 371, 372, -1,
          368, 372, 373, -1,
          368, 373, 374, -1,
          368, 374, 375, -1,
          368, 375, 376, -1,
          368, 376, 377, -1,
          368, 377, 378, -1,
          368, 378, 379, -1,
          368, 379, 380, -1,
          368, 380, 381, -1,
          368, 381, 382, -1,
          368, 382, 383, -1,
          368, 383, 384, -1,
          368, 384, 385, -1,
          368, 385, 386, -1,
          368, 386, 387, -1,
          368, 387, 388, -1,
          368, 388, 389, -1,
          368, 259, 353, -1,
          368, 353, 367, -1,
          390, 257, 262, -1,
          390, 389, 391, -1,
          390, 391, 392, -1,
          390, 392, 393, -1,
          390, 393, 394, -1,
          390, 394, 395, -1,
          390, 395, 396, -1,
          390, 396, 397, -1,
          390, 397, 398, -1,
          390, 398, 399, -1,
          390, 399, 400, -1,
          390, 400, 401, -1,
          390, 368, 389, -1,
          390, 401, 402, -1,
          390, 402, 403, -1,
          390, 403, 346, -1,
          390, 262, 368, -1,
          390, 346, 257, -1,
          404, 129, 126, -1,
          404, 126, 405, -1,
          406, 405, 407, -1,
          406, 404, 405, -1,
          408, 407, 409, -1,
          408, 409, 410, -1,
          408, 406, 407, -1,
          411, 408, 410, -1,
          412, 410, 413, -1,
          412, 411, 410, -1,
          414, 413, 415, -1,
          414, 412, 413, -1,
          416, 415, 417, -1,
          416, 417, 418, -1,
          416, 414, 415, -1,
          419, 416, 418, -1,
          420, 418, 421, -1,
          420, 419, 418, -1,
          422, 421, 423, -1,
          422, 420, 421, -1,
          424, 423, 425, -1,
          424, 422, 423, -1,
          426, 425, 427, -1,
          426, 424, 425, -1,
          428, 427, 429, -1,
          428, 426, 427, -1,
          430, 429, 431, -1,
          430, 428, 429, -1,
          432, 431, 433, -1,
          432, 430, 431, -1,
          434, 433, 435, -1,
          434, 432, 433, -1,
          436, 435, 437, -1,
          436, 434, 435, -1,
          438, 437, 439, -1,
          438, 436, 437, -1,
          440, 438, 439, -1,
          440, 439, 441, -1,
          442, 440, 441, -1,
          442, 441, 443, -1,
          444, 442, 443, -1,
          444, 443, 445, -1,
          446, 444, 445, -1,
          446, 445, 447, -1,
          448, 447, 449, -1,
          448, 446, 447, -1,
          450, 449, 451, -1,
          450, 448, 449, -1,
          450, 451, 452, -1,
          453, 450, 452, -1,
          454, 452, 455, -1,
          454, 453, 452, -1,
          456, 455, 457, -1,
          456, 457, 458, -1,
          456, 454, 455, -1,
          459, 456, 458, -1,
          460, 458, 461, -1,
          460, 459, 458, -1,
          462, 461, 463, -1,
          462, 460, 461, -1,
          464, 463, 465, -1,
          464, 465, 466, -1,
          464, 462, 463, -1,
          467, 464, 466, -1,
          468, 466, 469, -1,
          468, 469, 470, -1,
          468, 467, 466, -1,
          471, 468, 470, -1,
          472, 470, 473, -1,
          472, 473, 474, -1,
          472, 471, 470, -1,
          475, 472, 474, -1,
          476, 474, 477, -1,
          476, 477, 478, -1,
          476, 475, 474, -1,
          479, 476, 478, -1,
          480, 478, 481, -1,
          480, 481, 482, -1,
          480, 479, 478, -1,
          483, 480, 482, -1,
          484, 482, 485, -1,
          484, 485, 486, -1,
          484, 483, 482, -1,
          487, 484, 486, -1,
          488, 487, 486, -1,
          488, 486, 489, -1,
          488, 489, 490, -1,
          491, 488, 490, -1,
          492, 491, 490, -1,
          492, 490, 493, -1,
          492, 493, 494, -1,
          495, 492, 494, -1,
          496, 495, 494, -1,
          496, 494, 497, -1,
          496, 497, 498, -1,
          499, 496, 498, -1,
          500, 499, 498, -1,
          500, 498, 501, -1,
          500, 501, 502, -1,
          503, 500, 502, -1,
          504, 503, 502, -1,
          504, 502, 505, -1,
          506, 504, 505, -1,
          506, 505, 507, -1,
          508, 506, 507, -1,
          508, 507, 509, -1,
          508, 509, 510, -1,
          511, 508, 510, -1,
          512, 511, 510, -1,
          512, 510, 513, -1,
          512, 513, 514, -1,
          515, 512, 514, -1,
          515, 514, 516, -1,
          517, 515, 516, -1,
          518, 517, 516, -1,
          518, 516, 519, -1,
          518, 519, 520, -1,
          521, 518, 520, -1,
          522, 520, 523, -1,
          522, 523, 524, -1,
          522, 521, 520, -1,
          525, 522, 524, -1,
          526, 524, 527, -1,
          526, 525, 524, -1,
          255, 527, 1, -1,
          255, 526, 527, -1,
          526, 255, 254, -1,
          526, 254, 280, -1,
          525, 526, 280, -1,
          525, 280, 281, -1,
          522, 525, 281, -1,
          522, 281, 282, -1,
          283, 522, 282, -1,
          521, 522, 283, -1,
          518, 521, 283, -1,
          518, 283, 284, -1,
          517, 518, 284, -1,
          517, 284, 285, -1,
          515, 285, 286, -1,
          515, 517, 285, -1,
          512, 286, 338, -1,
          512, 515, 286, -1,
          511, 338, 337, -1,
          511, 512, 338, -1,
          508, 337, 336, -1,
          508, 511, 337, -1,
          506, 336, 335, -1,
          506, 508, 336, -1,
          504, 335, 334, -1,
          504, 506, 335, -1,
          333, 504, 334, -1,
          503, 504, 333, -1,
          500, 333, 332, -1,
          500, 503, 333, -1,
          499, 332, 331, -1,
          499, 500, 332, -1,
          496, 331, 329, -1,
          496, 499, 331, -1,
          495, 329, 328, -1,
          495, 496, 329, -1,
          492, 495, 328, -1,
          492, 328, 327, -1,
          491, 492, 327, -1,
          491, 327, 326, -1,
          488, 491, 326, -1,
          488, 326, 325, -1,
          487, 488, 325, -1,
          487, 325, 324, -1,
          484, 487, 324, -1,
          484, 324, 323, -1,
          483, 484, 323, -1,
          483, 323, 322, -1,
          480, 483, 322, -1,
          480, 322, 321, -1,
          479, 480, 321, -1,
          479, 321, 320, -1,
          476, 479, 320, -1,
          476, 320, 319, -1,
          475, 476, 319, -1,
          475, 319, 318, -1,
          472, 318, 317, -1,
          472, 475, 318, -1,
          471, 317, 316, -1,
          471, 472, 317, -1,
          468, 316, 315, -1,
          468, 471, 316, -1,
          467, 315, 314, -1,
          467, 468, 315, -1,
          464, 314, 312, -1,
          464, 467, 314, -1,
          462, 312, 311, -1,
          462, 464, 312, -1,
          460, 311, 310, -1,
          460, 462, 311, -1,
          459, 310, 309, -1,
          459, 460, 310, -1,
          456, 309, 308, -1,
          456, 459, 309, -1,
          454, 308, 307, -1,
          454, 456, 308, -1,
          453, 307, 306, -1,
          453, 454, 307, -1,
          305, 453, 306, -1,
          450, 453, 305, -1,
          448, 305, 304, -1,
          448, 450, 305, -1,
          303, 448, 304, -1,
          446, 448, 303, -1,
          302, 446, 303, -1,
          444, 446, 302, -1,
          442, 444, 302, -1,
          442, 302, 301, -1,
          300, 442, 301, -1,
          440, 442, 300, -1,
          438, 440, 300, -1,
          438, 300, 299, -1,
          297, 438, 299, -1,
          436, 438, 297, -1,
          296, 436, 297, -1,
          434, 436, 296, -1,
          295, 434, 296, -1,
          432, 434, 295, -1,
          294, 432, 295, -1,
          430, 432, 294, -1,
          293, 430, 294, -1,
          428, 430, 293, -1,
          426, 293, 292, -1,
          426, 428, 293, -1,
          291, 426, 292, -1,
          424, 426, 291, -1,
          422, 291, 290, -1,
          422, 424, 291, -1,
          289, 422, 290, -1,
          420, 422, 289, -1,
          419, 289, 287, -1,
          419, 420, 289, -1,
          279, 419, 287, -1,
          416, 419, 279, -1,
          278, 416, 279, -1,
          414, 416, 278, -1,
          412, 278, 277, -1,
          412, 414, 278, -1,
          276, 412, 277, -1,
          411, 412, 276, -1,
          275, 411, 276, -1,
          408, 411, 275, -1,
          406, 275, 274, -1,
          406, 408, 275, -1,
          273, 406, 274, -1,
          404, 406, 273, -1,
          129, 273, 130, -1,
          129, 404, 273, -1,
          352, 126, 127, -1,
          405, 126, 352, -1,
          351, 405, 352, -1,
          407, 405, 351, -1,
          350, 407, 351, -1,
          409, 407, 350, -1,
          349, 409, 350, -1,
          410, 409, 349, -1,
          348, 410, 349, -1,
          413, 410, 348, -1,
          347, 413, 348, -1,
          415, 413, 347, -1,
          346, 415, 347, -1,
          417, 415, 346, -1,
          403, 417, 346, -1,
          418, 417, 403, -1,
          402, 418, 403, -1,
          421, 418, 402, -1,
          401, 421, 402, -1,
          423, 421, 401, -1,
          400, 423, 401, -1,
          425, 423, 400, -1,
          399, 425, 400, -1,
          427, 425, 399, -1,
          398, 427, 399, -1,
          429, 427, 398, -1,
          397, 429, 398, -1,
          431, 429, 397, -1,
          396, 431, 397, -1,
          433, 431, 396, -1,
          395, 433, 396, -1,
          435, 433, 395, -1,
          394, 435, 395, -1,
          437, 435, 394, -1,
          393, 437, 394, -1,
          439, 437, 393, -1,
          392, 439, 393, -1,
          441, 439, 392, -1,
          391, 441, 392, -1,
          443, 441, 391, -1,
          389, 443, 391, -1,
          445, 443, 389, -1,
          388, 445, 389, -1,
          447, 445, 388, -1,
          387, 447, 388, -1,
          449, 447, 387, -1,
          386, 449, 387, -1,
          451, 449, 386, -1,
          385, 451, 386, -1,
          452, 451, 385, -1,
          384, 452, 385, -1,
          455, 452, 384, -1,
          457, 384, 383, -1,
          457, 455, 384, -1,
          382, 457, 383, -1,
          458, 457, 382, -1,
          381, 458, 382, -1,
          461, 458, 381, -1,
          380, 461, 381, -1,
          463, 461, 380, -1,
          379, 463, 380, -1,
          465, 463, 379, -1,
          378, 465, 379, -1,
          466, 465, 378, -1,
          377, 466, 378, -1,
          469, 466, 377, -1,
          376, 469, 377, -1,
          470, 469, 376, -1,
          375, 470, 376, -1,
          473, 470, 375, -1,
          374, 473, 375, -1,
          474, 473, 374, -1,
          373, 474, 374, -1,
          477, 474, 373, -1,
          478, 373, 372, -1,
          478, 477, 373, -1,
          371, 478, 372, -1,
          481, 478, 371, -1,
          482, 371, 370, -1,
          482, 481, 371, -1,
          369, 482, 370, -1,
          485, 482, 369, -1,
          367, 485, 369, -1,
          486, 485, 367, -1,
          489, 486, 367, -1,
          489, 367, 366, -1,
          365, 489, 366, -1,
          490, 489, 365, -1,
          364, 490, 365, -1,
          493, 490, 364, -1,
          494, 493, 364, -1,
          494, 364, 363, -1,
          362, 494, 363, -1,
          497, 494, 362, -1,
          361, 497, 362, -1,
          498, 497, 361, -1,
          360, 498, 361, -1,
          501, 498, 360, -1,
          359, 501, 360, -1,
          502, 501, 359, -1,
          358, 502, 359, -1,
          505, 502, 358, -1,
          507, 358, 357, -1,
          507, 505, 358, -1,
          356, 507, 357, -1,
          509, 507, 356, -1,
          355, 509, 356, -1,
          510, 509, 355, -1,
          354, 510, 355, -1,
          513, 510, 354, -1,
          514, 354, 345, -1,
          514, 513, 354, -1,
          344, 514, 345, -1,
          516, 514, 344, -1,
          343, 516, 344, -1,
          519, 516, 343, -1,
          520, 343, 342, -1,
          520, 519, 343, -1,
          341, 520, 342, -1,
          523, 520, 341, -1,
          340, 523, 341, -1,
          524, 523, 340, -1,
          527, 340, 339, -1,
          527, 524, 340, -1,
          2, 527, 339, -1,
          1, 527, 2, -1
        ]
      }
    }
}
