#VRML V2.0 utf8
WorldInfo {
  title "Exported triangle mesh to VRML97"
  info ["Created by FreeCAD"
        "<https://www.freecad.org>"]
}

Transform {
  scale 1 1 1
  rotation 0 0 1 0
  scaleOrientation 0 0 1 0
  center 0.000 0.000 0.000
  translation 0.000 0.000 0.000
  children
    Shape { 
      appearance
      Appearance {
        material
        Material {
          diffuseColor 0.8 0.8 0.8
        }
      }
      geometry
      IndexedFaceSet {
        coord
        Coordinate {
          point [
            -6.000 -4.859 0.726,
            6.000 -4.859 0.726,
            6.000 -3.900 0.934,
            -5.859 -5.000 0.691,
            5.859 -5.000 0.691,
            -6.000 -3.900 0.934,
            -6.000 -2.933 1.096,
            6.000 -2.933 1.096,
            -6.000 -1.959 1.212,
            6.000 -1.959 1.212,
            -6.000 -0.981 1.282,
            6.000 -0.981 1.282,
            -6.000 0.000 1.305,
            6.000 0.000 1.305,
            -5.859 -5.000 -1.164,
            -6.000 -4.859 -1.164,
            -5.929 -4.929 -1.234,
            -6.000 4.859 0.726,
            -6.000 4.859 -1.164,
            -6.000 3.900 0.934,
            -6.000 2.933 1.096,
            -6.000 1.959 1.212,
            -6.000 0.981 1.282,
            -5.859 -4.859 -1.305,
            -5.929 4.929 -1.234,
            -5.859 4.859 -1.305,
            5.929 -4.929 -1.234,
            5.859 -5.000 -1.164,
            5.859 -4.859 -1.305,
            6.000 0.981 1.282,
            6.000 1.959 1.212,
            6.000 2.933 1.096,
            6.000 3.900 0.934,
            6.000 4.859 0.726,
            -5.859 5.000 0.691,
            5.859 5.000 0.691,
            6.000 -4.859 -1.164,
            5.859 4.859 -1.305,
            5.929 4.929 -1.234,
            6.000 4.859 -1.164,
            5.859 5.000 -1.164,
            -5.859 5.000 -1.164
          ]
        }
        coordIndex [
          0, 1, 2, -1,
          0, 3, 4, -1,
          0, 4, 1, -1,
          5, 0, 2, -1,
          6, 2, 7, -1,
          6, 5, 2, -1,
          8, 7, 9, -1,
          8, 6, 7, -1,
          10, 9, 11, -1,
          10, 8, 9, -1,
          12, 11, 13, -1,
          12, 10, 11, -1,
          14, 15, 16, -1,
          14, 3, 15, -1,
          3, 0, 15, -1,
          6, 15, 5, -1,
          5, 15, 0, -1,
          6, 8, 15, -1,
          8, 10, 15, -1,
          10, 12, 15, -1,
          17, 18, 19, -1,
          19, 18, 20, -1,
          20, 18, 21, -1,
          21, 18, 22, -1,
          22, 18, 12, -1,
          12, 18, 15, -1,
          15, 23, 16, -1,
          15, 18, 23, -1,
          24, 25, 18, -1,
          18, 25, 23, -1,
          23, 14, 16, -1,
          26, 27, 28, -1,
          28, 27, 23, -1,
          23, 27, 14, -1,
          27, 4, 14, -1,
          14, 4, 3, -1,
          12, 13, 29, -1,
          22, 12, 29, -1,
          21, 30, 31, -1,
          21, 29, 30, -1,
          21, 22, 29, -1,
          20, 21, 31, -1,
          19, 32, 33, -1,
          19, 31, 32, -1,
          19, 20, 31, -1,
          17, 19, 33, -1,
          34, 33, 35, -1,
          34, 17, 33, -1,
          36, 27, 26, -1,
          1, 4, 36, -1,
          36, 4, 27, -1,
          28, 36, 26, -1,
          28, 37, 36, -1,
          38, 39, 37, -1,
          37, 39, 36, -1,
          36, 7, 2, -1,
          36, 2, 1, -1,
          9, 7, 36, -1,
          11, 9, 36, -1,
          13, 11, 36, -1,
          39, 33, 32, -1,
          39, 32, 31, -1,
          39, 31, 30, -1,
          39, 30, 29, -1,
          39, 29, 13, -1,
          39, 13, 36, -1,
          40, 39, 38, -1,
          40, 35, 39, -1,
          35, 33, 39, -1,
          41, 25, 24, -1,
          38, 37, 40, -1,
          40, 37, 41, -1,
          41, 37, 25, -1,
          18, 41, 24, -1,
          17, 34, 18, -1,
          18, 34, 41, -1,
          35, 40, 34, -1,
          34, 40, 41, -1,
          25, 28, 23, -1,
          37, 28, 25, -1
        ]
      }
    }
}
