#VRML V2.0 utf8
WorldInfo {
  title "Exported triangle mesh to VRML97"
  info ["Created by FreeCAD"
        "<https://www.freecad.org>"]
}

Transform {
  scale 1 1 1
  rotation 0 0 1 0
  scaleOrientation 0 0 1 0
  center 0.000 0.000 0.000
  translation 0.000 0.000 0.000
  children
    Shape { 
      appearance
      Appearance {
        material
        Material {
          diffuseColor 0.8 0.8 0.8
        }
      }
      geometry
      IndexedFaceSet {
        coord
        Coordinate {
          point [
            -6.000 -4.859 0.198,
            -5.859 -5.000 0.081,
            5.859 -5.000 0.081,
            6.000 -4.859 0.198,
            -6.000 -4.561 0.426,
            6.000 -4.561 0.426,
            -6.000 -4.252 0.639,
            6.000 -4.252 0.639,
            -6.000 -3.934 0.837,
            6.000 -3.934 0.837,
            -6.000 -3.606 1.020,
            6.000 -3.606 1.020,
            -6.000 -3.270 1.186,
            6.000 -3.270 1.186,
            -6.000 -2.926 1.336,
            6.000 -2.926 1.336,
            -6.000 -2.576 1.469,
            6.000 -2.576 1.469,
            6.000 -2.219 1.586,
            -6.000 -2.219 1.586,
            -6.000 -1.857 1.684,
            6.000 -1.857 1.684,
            6.000 -1.491 1.765,
            -6.000 -1.491 1.765,
            -6.000 -1.121 1.828,
            6.000 -1.121 1.828,
            -6.000 -0.749 1.874,
            6.000 -0.749 1.874,
            -6.000 -0.375 1.901,
            6.000 -0.375 1.901,
            6.000 0.000 1.910,
            -6.000 0.000 1.910,
            -5.859 -5.000 -1.769,
            -6.000 -4.859 -1.769,
            -5.929 -4.929 -1.839,
            -6.000 4.859 0.198,
            -6.000 4.859 -1.769,
            -6.000 4.561 0.426,
            -6.000 4.252 0.639,
            -6.000 3.934 0.837,
            -6.000 3.606 1.020,
            -6.000 3.270 1.186,
            -6.000 2.926 1.336,
            -6.000 2.576 1.469,
            -6.000 2.219 1.586,
            -6.000 1.857 1.684,
            -6.000 1.491 1.765,
            -6.000 1.121 1.828,
            -6.000 0.749 1.874,
            -6.000 0.375 1.901,
            -5.859 -4.859 -1.910,
            -5.929 4.929 -1.839,
            -5.859 4.859 -1.910,
            5.929 -4.929 -1.839,
            5.859 -5.000 -1.769,
            5.859 -4.859 -1.910,
            6.000 0.375 1.901,
            6.000 0.749 1.874,
            6.000 1.121 1.828,
            6.000 1.491 1.765,
            6.000 1.857 1.684,
            6.000 2.219 1.586,
            6.000 2.576 1.469,
            6.000 2.926 1.336,
            6.000 3.270 1.186,
            6.000 3.606 1.020,
            6.000 3.934 0.837,
            6.000 4.252 0.639,
            6.000 4.561 0.426,
            6.000 4.859 0.198,
            -5.859 5.000 0.081,
            5.859 5.000 0.081,
            6.000 -4.859 -1.769,
            5.859 4.859 -1.910,
            5.929 4.929 -1.839,
            6.000 4.859 -1.769,
            5.859 5.000 -1.769,
            -5.859 5.000 -1.769
          ]
        }
        coordIndex [
          0, 1, 2, -1,
          0, 2, 3, -1,
          4, 3, 5, -1,
          4, 0, 3, -1,
          6, 5, 7, -1,
          6, 4, 5, -1,
          8, 7, 9, -1,
          8, 6, 7, -1,
          10, 9, 11, -1,
          10, 8, 9, -1,
          12, 11, 13, -1,
          12, 10, 11, -1,
          14, 13, 15, -1,
          14, 12, 13, -1,
          16, 17, 18, -1,
          16, 15, 17, -1,
          16, 14, 15, -1,
          19, 16, 18, -1,
          20, 21, 22, -1,
          20, 18, 21, -1,
          20, 19, 18, -1,
          23, 20, 22, -1,
          24, 22, 25, -1,
          24, 23, 22, -1,
          26, 25, 27, -1,
          26, 24, 25, -1,
          28, 29, 30, -1,
          28, 27, 29, -1,
          28, 26, 27, -1,
          31, 28, 30, -1,
          32, 33, 34, -1,
          32, 1, 33, -1,
          1, 0, 33, -1,
          23, 33, 20, -1,
          20, 33, 19, -1,
          19, 33, 16, -1,
          16, 33, 14, -1,
          14, 33, 12, -1,
          12, 33, 10, -1,
          10, 33, 8, -1,
          8, 33, 6, -1,
          6, 33, 4, -1,
          4, 33, 0, -1,
          23, 24, 33, -1,
          24, 26, 33, -1,
          26, 28, 33, -1,
          28, 31, 33, -1,
          35, 36, 37, -1,
          37, 36, 38, -1,
          38, 36, 39, -1,
          39, 36, 40, -1,
          40, 36, 41, -1,
          41, 36, 42, -1,
          42, 36, 43, -1,
          43, 36, 44, -1,
          44, 36, 45, -1,
          45, 36, 46, -1,
          46, 36, 47, -1,
          47, 36, 48, -1,
          48, 36, 49, -1,
          49, 36, 31, -1,
          31, 36, 33, -1,
          33, 50, 34, -1,
          51, 52, 36, -1,
          36, 52, 33, -1,
          33, 52, 50, -1,
          50, 32, 34, -1,
          53, 54, 55, -1,
          55, 54, 50, -1,
          50, 54, 32, -1,
          54, 2, 32, -1,
          32, 2, 1, -1,
          49, 31, 30, -1,
          49, 30, 56, -1,
          48, 56, 57, -1,
          48, 49, 56, -1,
          47, 57, 58, -1,
          47, 48, 57, -1,
          46, 59, 60, -1,
          46, 58, 59, -1,
          46, 47, 58, -1,
          45, 46, 60, -1,
          44, 61, 62, -1,
          44, 60, 61, -1,
          44, 45, 60, -1,
          43, 44, 62, -1,
          42, 63, 64, -1,
          42, 62, 63, -1,
          42, 43, 62, -1,
          41, 42, 64, -1,
          40, 64, 65, -1,
          40, 41, 64, -1,
          39, 65, 66, -1,
          39, 40, 65, -1,
          38, 66, 67, -1,
          38, 39, 66, -1,
          37, 67, 68, -1,
          37, 38, 67, -1,
          35, 68, 69, -1,
          35, 37, 68, -1,
          70, 69, 71, -1,
          70, 35, 69, -1,
          72, 54, 53, -1,
          3, 2, 72, -1,
          72, 2, 54, -1,
          55, 72, 53, -1,
          55, 73, 72, -1,
          74, 75, 73, -1,
          73, 75, 72, -1,
          72, 22, 21, -1,
          72, 21, 18, -1,
          72, 18, 17, -1,
          72, 17, 15, -1,
          72, 15, 13, -1,
          72, 13, 11, -1,
          72, 11, 9, -1,
          72, 9, 7, -1,
          72, 7, 5, -1,
          72, 5, 3, -1,
          25, 22, 72, -1,
          27, 25, 72, -1,
          29, 27, 72, -1,
          30, 29, 72, -1,
          75, 69, 68, -1,
          75, 68, 67, -1,
          75, 67, 66, -1,
          75, 66, 65, -1,
          75, 65, 64, -1,
          75, 64, 63, -1,
          75, 63, 62, -1,
          75, 62, 61, -1,
          75, 61, 60, -1,
          75, 60, 59, -1,
          75, 59, 58, -1,
          75, 58, 57, -1,
          75, 57, 56, -1,
          75, 56, 30, -1,
          75, 30, 72, -1,
          76, 75, 74, -1,
          76, 71, 75, -1,
          71, 69, 75, -1,
          77, 52, 51, -1,
          74, 73, 76, -1,
          76, 73, 77, -1,
          77, 73, 52, -1,
          36, 77, 51, -1,
          35, 70, 36, -1,
          36, 70, 77, -1,
          71, 76, 70, -1,
          70, 76, 77, -1,
          52, 55, 50, -1,
          73, 55, 52, -1
        ]
      }
    }
}
