#VRML V2.0 utf8
WorldInfo {
  title "Exported triangle mesh to VRML97"
  info ["Created by FreeCAD"
        "<https://www.freecad.org>"]
}

Transform {
  scale 1 1 1
  rotation 0 0 1 0
  scaleOrientation 0 0 1 0
  center 0.000 0.000 0.000
  translation 0.000 0.000 0.000
  children
    Shape { 
      appearance
      Appearance {
        material
        Material {
          diffuseColor 0.8 0.8 0.8
        }
      }
      geometry
      IndexedFaceSet {
        coord
        Coordinate {
          point [
            -4.396 -3.462 0.028,
            -4.359 -3.500 -0.040,
            4.359 -3.500 -0.040,
            4.419 -3.439 0.068,
            -4.435 -3.424 0.095,
            4.459 -3.400 0.135,
            -4.500 -3.359 0.200,
            4.500 -3.359 0.200,
            -4.500 -3.253 0.359,
            4.500 -3.253 0.359,
            -4.500 -3.139 0.512,
            4.500 -3.139 0.512,
            4.500 -3.019 0.659,
            -4.500 -3.019 0.659,
            -4.500 -2.891 0.800,
            4.500 -2.891 0.800,
            -4.500 -2.757 0.935,
            4.500 -2.757 0.935,
            4.500 -2.617 1.064,
            -4.500 -2.617 1.064,
            -4.500 -2.470 1.186,
            4.500 -2.470 1.186,
            -4.500 -2.318 1.300,
            4.500 -2.318 1.300,
            -4.500 -2.161 1.407,
            4.500 -2.161 1.407,
            -4.500 -1.999 1.507,
            4.500 -1.999 1.507,
            -4.500 -1.832 1.598,
            4.500 -1.832 1.598,
            -4.500 -1.661 1.682,
            4.500 -1.661 1.682,
            -4.500 -1.486 1.757,
            4.500 -1.486 1.757,
            -4.500 -1.308 1.824,
            4.500 -1.308 1.824,
            -4.500 -1.127 1.882,
            4.500 -1.127 1.882,
            -4.500 -0.943 1.932,
            4.500 -0.943 1.932,
            -4.500 -0.757 1.972,
            4.500 -0.757 1.972,
            -4.500 -0.569 2.004,
            4.500 -0.569 2.004,
            -4.500 -0.380 2.027,
            4.500 -0.380 2.027,
            -4.500 -0.190 2.040,
            4.500 -0.190 2.040,
            -4.500 0.000 2.045,
            4.500 0.000 2.045,
            -4.500 -3.359 -1.904,
            -4.359 -3.359 -2.045,
            -4.429 -3.429 -1.974,
            -4.429 3.429 -1.974,
            -4.359 3.359 -2.045,
            -4.500 3.359 -1.904,
            -4.359 -3.500 -1.904,
            4.429 -3.429 -1.974,
            4.359 -3.500 -1.904,
            4.359 -3.359 -2.045,
            -4.500 0.190 2.040,
            4.500 0.190 2.040,
            -4.500 0.380 2.027,
            4.500 0.380 2.027,
            4.500 0.569 2.004,
            -4.500 0.569 2.004,
            -4.500 0.757 1.972,
            4.500 0.757 1.972,
            -4.500 0.943 1.932,
            4.500 0.943 1.932,
            -4.500 1.127 1.882,
            4.500 1.127 1.882,
            -4.500 1.308 1.824,
            4.500 1.308 1.824,
            -4.500 1.486 1.757,
            4.500 1.486 1.757,
            4.500 1.661 1.682,
            -4.500 1.661 1.682,
            -4.500 1.832 1.598,
            4.500 1.832 1.598,
            -4.500 1.999 1.507,
            4.500 1.999 1.507,
            -4.500 2.161 1.407,
            4.500 2.161 1.407,
            4.500 2.318 1.300,
            -4.500 2.318 1.300,
            -4.500 2.470 1.186,
            4.500 2.470 1.186,
            -4.500 2.617 1.064,
            4.500 2.617 1.064,
            -4.500 2.757 0.935,
            4.500 2.757 0.935,
            4.500 2.891 0.800,
            -4.500 2.891 0.800,
            -4.500 3.019 0.659,
            4.500 3.019 0.659,
            4.500 3.139 0.512,
            -4.500 3.139 0.512,
            -4.500 3.253 0.359,
            4.500 3.253 0.359,
            4.500 3.359 0.200,
            -4.500 3.359 0.200,
            -4.459 3.400 0.135,
            4.435 3.424 0.095,
            -4.419 3.439 0.068,
            4.396 3.462 0.028,
            -4.359 3.500 -0.040,
            4.359 3.500 -0.040,
            -4.359 3.500 -1.904,
            4.359 3.500 -1.904,
            4.429 3.429 -1.974,
            4.359 3.359 -2.045,
            4.500 3.359 -1.904,
            4.500 -3.359 -1.904
          ]
        }
        coordIndex [
          0, 1, 2, -1,
          0, 2, 3, -1,
          4, 3, 5, -1,
          4, 0, 3, -1,
          6, 5, 7, -1,
          6, 4, 5, -1,
          8, 7, 9, -1,
          8, 6, 7, -1,
          10, 11, 12, -1,
          10, 9, 11, -1,
          10, 8, 9, -1,
          13, 10, 12, -1,
          14, 12, 15, -1,
          14, 13, 12, -1,
          16, 17, 18, -1,
          16, 15, 17, -1,
          16, 14, 15, -1,
          19, 16, 18, -1,
          20, 18, 21, -1,
          20, 19, 18, -1,
          22, 21, 23, -1,
          22, 20, 21, -1,
          24, 22, 23, -1,
          24, 23, 25, -1,
          26, 24, 25, -1,
          26, 25, 27, -1,
          28, 27, 29, -1,
          28, 26, 27, -1,
          30, 29, 31, -1,
          30, 28, 29, -1,
          32, 31, 33, -1,
          32, 30, 31, -1,
          34, 33, 35, -1,
          34, 32, 33, -1,
          36, 35, 37, -1,
          36, 34, 35, -1,
          38, 37, 39, -1,
          38, 36, 37, -1,
          40, 39, 41, -1,
          40, 38, 39, -1,
          42, 41, 43, -1,
          42, 40, 41, -1,
          44, 43, 45, -1,
          44, 42, 43, -1,
          46, 45, 47, -1,
          46, 44, 45, -1,
          48, 47, 49, -1,
          48, 46, 47, -1,
          50, 51, 52, -1,
          53, 54, 55, -1,
          55, 54, 50, -1,
          50, 54, 51, -1,
          51, 56, 52, -1,
          57, 58, 59, -1,
          59, 58, 51, -1,
          51, 58, 56, -1,
          58, 2, 56, -1,
          56, 2, 1, -1,
          60, 48, 49, -1,
          60, 49, 61, -1,
          62, 63, 64, -1,
          62, 61, 63, -1,
          62, 60, 61, -1,
          65, 62, 64, -1,
          66, 64, 67, -1,
          66, 65, 64, -1,
          68, 67, 69, -1,
          68, 66, 67, -1,
          70, 69, 71, -1,
          70, 68, 69, -1,
          72, 71, 73, -1,
          72, 70, 71, -1,
          74, 75, 76, -1,
          74, 73, 75, -1,
          74, 72, 73, -1,
          77, 74, 76, -1,
          78, 76, 79, -1,
          78, 77, 76, -1,
          80, 79, 81, -1,
          80, 78, 79, -1,
          82, 80, 81, -1,
          82, 83, 84, -1,
          82, 81, 83, -1,
          85, 82, 84, -1,
          86, 84, 87, -1,
          86, 85, 84, -1,
          88, 87, 89, -1,
          88, 86, 87, -1,
          90, 91, 92, -1,
          90, 89, 91, -1,
          90, 88, 89, -1,
          93, 90, 92, -1,
          94, 95, 96, -1,
          94, 92, 95, -1,
          94, 93, 92, -1,
          97, 94, 96, -1,
          98, 99, 100, -1,
          98, 96, 99, -1,
          98, 97, 96, -1,
          101, 98, 100, -1,
          102, 100, 103, -1,
          102, 101, 100, -1,
          104, 103, 105, -1,
          104, 102, 103, -1,
          106, 105, 107, -1,
          106, 104, 105, -1,
          48, 50, 46, -1,
          46, 50, 44, -1,
          44, 50, 42, -1,
          42, 50, 40, -1,
          40, 50, 38, -1,
          38, 50, 36, -1,
          36, 50, 34, -1,
          34, 50, 32, -1,
          32, 50, 30, -1,
          30, 50, 28, -1,
          28, 50, 26, -1,
          26, 50, 24, -1,
          24, 50, 22, -1,
          22, 50, 20, -1,
          20, 50, 19, -1,
          19, 50, 16, -1,
          16, 50, 14, -1,
          14, 50, 13, -1,
          13, 50, 10, -1,
          10, 50, 8, -1,
          8, 50, 6, -1,
          101, 55, 98, -1,
          98, 55, 97, -1,
          97, 55, 94, -1,
          94, 55, 93, -1,
          93, 55, 90, -1,
          90, 55, 88, -1,
          88, 55, 86, -1,
          86, 55, 85, -1,
          85, 55, 82, -1,
          82, 55, 80, -1,
          80, 55, 78, -1,
          78, 55, 77, -1,
          77, 55, 74, -1,
          74, 55, 72, -1,
          72, 55, 70, -1,
          70, 55, 68, -1,
          68, 55, 66, -1,
          66, 55, 65, -1,
          65, 55, 62, -1,
          62, 55, 60, -1,
          60, 55, 48, -1,
          48, 55, 50, -1,
          56, 50, 52, -1,
          56, 1, 50, -1,
          1, 0, 50, -1,
          0, 4, 50, -1,
          4, 6, 50, -1,
          55, 108, 53, -1,
          55, 106, 108, -1,
          55, 104, 106, -1,
          55, 102, 104, -1,
          55, 101, 102, -1,
          107, 109, 106, -1,
          106, 109, 108, -1,
          108, 54, 53, -1,
          110, 111, 109, -1,
          109, 111, 108, -1,
          108, 111, 54, -1,
          109, 112, 110, -1,
          109, 107, 112, -1,
          107, 105, 112, -1,
          105, 103, 112, -1,
          103, 100, 112, -1,
          113, 49, 47, -1,
          113, 47, 45, -1,
          113, 45, 43, -1,
          113, 43, 41, -1,
          113, 41, 39, -1,
          113, 39, 37, -1,
          113, 37, 35, -1,
          113, 35, 33, -1,
          113, 33, 31, -1,
          113, 31, 29, -1,
          113, 29, 27, -1,
          113, 27, 25, -1,
          113, 25, 23, -1,
          113, 23, 21, -1,
          113, 21, 18, -1,
          113, 18, 17, -1,
          113, 17, 15, -1,
          113, 15, 12, -1,
          113, 12, 11, -1,
          113, 11, 9, -1,
          113, 9, 7, -1,
          112, 100, 99, -1,
          112, 99, 96, -1,
          112, 96, 95, -1,
          112, 95, 92, -1,
          112, 92, 91, -1,
          112, 91, 89, -1,
          112, 89, 87, -1,
          112, 87, 84, -1,
          112, 84, 83, -1,
          112, 83, 81, -1,
          112, 81, 79, -1,
          112, 79, 76, -1,
          112, 76, 75, -1,
          112, 75, 73, -1,
          112, 73, 71, -1,
          112, 71, 69, -1,
          112, 69, 67, -1,
          112, 67, 64, -1,
          112, 64, 63, -1,
          112, 63, 61, -1,
          112, 61, 49, -1,
          112, 49, 113, -1,
          113, 58, 57, -1,
          113, 2, 58, -1,
          113, 3, 2, -1,
          113, 5, 3, -1,
          113, 7, 5, -1,
          59, 113, 57, -1,
          110, 112, 111, -1,
          111, 112, 59, -1,
          59, 112, 113, -1,
          54, 59, 51, -1,
          111, 59, 54, -1
        ]
      }
    }
}
