#VRML V2.0 utf8
WorldInfo {
  title "Exported triangle mesh to VRML97"
  info ["Created by FreeCAD"
        "<https://www.freecad.org>"]
}

Transform {
  scale 1 1 1
  rotation 0 0 1 0
  scaleOrientation 0 0 1 0
  center 0.000 0.000 0.000
  translation 0.000 0.000 0.000
  children
    Shape { 
      appearance
      Appearance {
        material
        Material {
          diffuseColor 0.8 0.8 0.8
        }
      }
      geometry
      IndexedFaceSet {
        coord
        Coordinate {
          point [
            -11.000 -9.859 0.050,
            11.000 -9.859 0.050,
            11.000 -8.679 0.504,
            -10.859 -10.000 -0.008,
            10.859 -10.000 -0.008,
            -11.000 -8.679 0.504,
            -11.000 -7.478 0.899,
            11.000 -7.478 0.899,
            11.000 -6.259 1.236,
            -11.000 -6.259 1.236,
            -11.000 -5.025 1.512,
            11.000 -5.025 1.512,
            -11.000 -3.779 1.727,
            11.000 -3.779 1.727,
            -11.000 -2.525 1.881,
            11.000 -2.525 1.881,
            -11.000 -1.264 1.974,
            11.000 -1.264 1.974,
            -11.000 0.000 2.005,
            11.000 0.000 2.005,
            -10.859 -10.000 -1.864,
            -11.000 -9.859 -1.864,
            -10.929 -9.929 -1.934,
            -11.000 9.859 0.050,
            -11.000 9.859 -1.864,
            -11.000 8.679 0.504,
            -11.000 7.478 0.899,
            -11.000 6.259 1.236,
            -11.000 5.025 1.512,
            -11.000 3.779 1.727,
            -11.000 2.525 1.881,
            -11.000 1.264 1.974,
            -10.859 -9.859 -2.005,
            -10.929 9.929 -1.934,
            -10.859 9.859 -2.005,
            10.929 -9.929 -1.934,
            10.859 -10.000 -1.864,
            10.859 -9.859 -2.005,
            11.000 1.264 1.974,
            11.000 2.525 1.881,
            11.000 3.779 1.727,
            11.000 5.025 1.512,
            11.000 6.259 1.236,
            11.000 7.478 0.899,
            11.000 8.679 0.504,
            11.000 9.859 0.050,
            -10.859 10.000 -0.008,
            10.859 10.000 -0.008,
            11.000 -9.859 -1.864,
            10.859 9.859 -2.005,
            10.929 9.929 -1.934,
            11.000 9.859 -1.864,
            10.859 10.000 -1.864,
            -10.859 10.000 -1.864
          ]
        }
        coordIndex [
          0, 1, 2, -1,
          0, 3, 4, -1,
          0, 4, 1, -1,
          5, 0, 2, -1,
          6, 7, 8, -1,
          6, 2, 7, -1,
          6, 5, 2, -1,
          9, 6, 8, -1,
          10, 8, 11, -1,
          10, 9, 8, -1,
          12, 11, 13, -1,
          12, 10, 11, -1,
          14, 13, 15, -1,
          14, 12, 13, -1,
          16, 15, 17, -1,
          16, 14, 15, -1,
          18, 17, 19, -1,
          18, 16, 17, -1,
          20, 21, 22, -1,
          20, 3, 21, -1,
          3, 0, 21, -1,
          6, 21, 5, -1,
          5, 21, 0, -1,
          6, 9, 21, -1,
          9, 10, 21, -1,
          10, 12, 21, -1,
          12, 14, 21, -1,
          14, 16, 21, -1,
          16, 18, 21, -1,
          23, 24, 25, -1,
          25, 24, 26, -1,
          26, 24, 27, -1,
          27, 24, 28, -1,
          28, 24, 29, -1,
          29, 24, 30, -1,
          30, 24, 31, -1,
          31, 24, 18, -1,
          18, 24, 21, -1,
          21, 32, 22, -1,
          33, 34, 24, -1,
          24, 34, 21, -1,
          21, 34, 32, -1,
          32, 20, 22, -1,
          35, 36, 37, -1,
          37, 36, 32, -1,
          32, 36, 20, -1,
          36, 4, 20, -1,
          20, 4, 3, -1,
          31, 18, 19, -1,
          31, 19, 38, -1,
          30, 38, 39, -1,
          30, 31, 38, -1,
          29, 39, 40, -1,
          29, 30, 39, -1,
          28, 41, 42, -1,
          28, 40, 41, -1,
          28, 29, 40, -1,
          27, 28, 42, -1,
          26, 43, 44, -1,
          26, 42, 43, -1,
          26, 27, 42, -1,
          25, 26, 44, -1,
          23, 44, 45, -1,
          23, 25, 44, -1,
          46, 45, 47, -1,
          46, 23, 45, -1,
          48, 36, 35, -1,
          1, 4, 48, -1,
          48, 4, 36, -1,
          37, 48, 35, -1,
          37, 49, 48, -1,
          50, 51, 49, -1,
          49, 51, 48, -1,
          48, 7, 2, -1,
          48, 2, 1, -1,
          8, 7, 48, -1,
          11, 8, 48, -1,
          13, 11, 48, -1,
          15, 13, 48, -1,
          17, 15, 48, -1,
          19, 17, 48, -1,
          51, 45, 44, -1,
          51, 44, 43, -1,
          51, 43, 42, -1,
          51, 42, 41, -1,
          51, 41, 40, -1,
          51, 40, 39, -1,
          51, 39, 38, -1,
          51, 38, 19, -1,
          51, 19, 48, -1,
          52, 51, 50, -1,
          52, 47, 51, -1,
          47, 45, 51, -1,
          53, 34, 33, -1,
          50, 49, 52, -1,
          52, 49, 53, -1,
          53, 49, 34, -1,
          24, 53, 33, -1,
          23, 46, 24, -1,
          24, 46, 53, -1,
          46, 47, 53, -1,
          47, 52, 53, -1,
          34, 49, 32, -1,
          49, 37, 32, -1
        ]
      }
    }
}
