#VRML V2.0 utf8
WorldInfo {
  title "Exported triangle mesh to VRML97"
  info ["Created by FreeCAD"
        "<https://www.freecad.org>"]
}

Transform {
  scale 1 1 1
  rotation 0 0 1 0
  scaleOrientation 0 0 1 0
  center 0.000 0.000 0.000
  translation 0.000 0.000 0.000
  children
    Shape { 
      appearance
      Appearance {
        material
        Material {
          diffuseColor 0.8 0.8 0.8
        }
      }
      geometry
      IndexedFaceSet {
        coord
        Coordinate {
          point [
            -45.000 -49.859 -7.521,
            -44.859 -50.000 -7.640,
            44.859 -50.000 -7.640,
            45.000 -49.859 -7.521,
            -45.000 -46.836 -5.108,
            45.000 -46.836 -5.108,
            -45.000 -43.696 -2.849,
            45.000 -43.696 -2.849,
            45.000 -40.448 -0.749,
            -45.000 -40.448 -0.749,
            -45.000 -37.099 1.186,
            45.000 -37.099 1.186,
            -45.000 -33.657 2.952,
            45.000 -33.657 2.952,
            45.000 -30.132 4.544,
            -45.000 -30.132 4.544,
            -45.000 -26.532 5.958,
            45.000 -26.532 5.958,
            45.000 -22.865 7.191,
            -45.000 -22.865 7.191,
            45.000 -19.142 8.239,
            -45.000 -19.142 8.239,
            45.000 -15.371 9.101,
            -45.000 -15.371 9.101,
            -45.000 -11.562 9.773,
            45.000 -11.562 9.773,
            -45.000 -7.724 10.254,
            45.000 -7.724 10.254,
            45.000 -3.867 10.543,
            -45.000 -3.867 10.543,
            -45.000 0.000 10.640,
            45.000 0.000 10.640,
            45.000 -49.859 -10.499,
            44.859 -50.000 -10.499,
            44.929 -49.929 -10.569,
            45.000 49.859 -10.499,
            45.000 49.859 -7.521,
            45.000 46.836 -5.108,
            45.000 43.696 -2.849,
            45.000 40.448 -0.749,
            45.000 37.099 1.186,
            45.000 33.657 2.952,
            45.000 30.132 4.544,
            45.000 26.532 5.958,
            45.000 22.865 7.191,
            45.000 19.142 8.239,
            45.000 15.371 9.101,
            45.000 11.562 9.773,
            45.000 7.724 10.254,
            45.000 3.867 10.543,
            44.859 50.000 -10.499,
            44.929 49.929 -10.569,
            44.859 50.000 -7.640,
            -44.859 50.000 -7.640,
            -44.859 50.000 -10.499,
            -45.000 49.859 -10.499,
            -44.929 49.929 -10.569,
            -45.000 49.859 -7.521,
            -44.859 49.859 -10.640,
            44.859 49.859 -10.640,
            44.859 -49.859 -10.640,
            -44.859 -49.859 -10.640,
            -44.859 -50.000 -10.499,
            -44.929 -49.929 -10.569,
            -45.000 3.867 10.543,
            -45.000 7.724 10.254,
            -45.000 11.562 9.773,
            -45.000 15.371 9.101,
            -45.000 19.142 8.239,
            -45.000 22.865 7.191,
            -45.000 26.532 5.958,
            -45.000 30.132 4.544,
            -45.000 33.657 2.952,
            -45.000 37.099 1.186,
            -45.000 40.448 -0.749,
            -45.000 43.696 -2.849,
            -45.000 46.836 -5.108,
            -45.000 -49.859 -10.499
          ]
        }
        coordIndex [
          0, 1, 2, -1,
          0, 2, 3, -1,
          4, 3, 5, -1,
          4, 0, 3, -1,
          6, 7, 8, -1,
          6, 5, 7, -1,
          6, 4, 5, -1,
          9, 6, 8, -1,
          10, 8, 11, -1,
          10, 9, 8, -1,
          12, 13, 14, -1,
          12, 11, 13, -1,
          12, 10, 11, -1,
          15, 12, 14, -1,
          16, 17, 18, -1,
          16, 14, 17, -1,
          16, 15, 14, -1,
          19, 18, 20, -1,
          19, 16, 18, -1,
          21, 20, 22, -1,
          21, 19, 20, -1,
          23, 21, 22, -1,
          24, 22, 25, -1,
          24, 23, 22, -1,
          26, 27, 28, -1,
          26, 25, 27, -1,
          26, 24, 25, -1,
          29, 26, 28, -1,
          30, 28, 31, -1,
          30, 29, 28, -1,
          32, 33, 34, -1,
          3, 2, 32, -1,
          32, 2, 33, -1,
          32, 8, 7, -1,
          32, 7, 5, -1,
          32, 5, 3, -1,
          11, 8, 32, -1,
          13, 11, 32, -1,
          14, 13, 32, -1,
          17, 14, 32, -1,
          18, 17, 32, -1,
          20, 18, 32, -1,
          22, 20, 32, -1,
          25, 22, 32, -1,
          27, 25, 32, -1,
          28, 27, 32, -1,
          31, 28, 32, -1,
          35, 36, 37, -1,
          35, 37, 38, -1,
          35, 38, 39, -1,
          35, 39, 40, -1,
          35, 40, 41, -1,
          35, 41, 42, -1,
          35, 42, 43, -1,
          35, 43, 44, -1,
          35, 44, 45, -1,
          35, 45, 46, -1,
          35, 46, 47, -1,
          35, 47, 48, -1,
          35, 48, 49, -1,
          35, 49, 31, -1,
          35, 31, 32, -1,
          50, 35, 51, -1,
          50, 52, 35, -1,
          52, 36, 35, -1,
          52, 50, 53, -1,
          53, 50, 54, -1,
          55, 54, 56, -1,
          57, 53, 55, -1,
          55, 53, 54, -1,
          54, 58, 56, -1,
          51, 59, 50, -1,
          50, 59, 54, -1,
          54, 59, 58, -1,
          58, 60, 61, -1,
          59, 60, 58, -1,
          61, 62, 63, -1,
          34, 33, 60, -1,
          60, 33, 61, -1,
          61, 33, 62, -1,
          33, 2, 62, -1,
          62, 2, 1, -1,
          64, 30, 31, -1,
          64, 31, 49, -1,
          65, 49, 48, -1,
          65, 64, 49, -1,
          66, 48, 47, -1,
          66, 65, 48, -1,
          67, 47, 46, -1,
          67, 66, 47, -1,
          68, 46, 45, -1,
          68, 67, 46, -1,
          69, 44, 43, -1,
          69, 45, 44, -1,
          69, 68, 45, -1,
          70, 69, 43, -1,
          71, 42, 41, -1,
          71, 43, 42, -1,
          71, 70, 43, -1,
          72, 71, 41, -1,
          73, 41, 40, -1,
          73, 72, 41, -1,
          74, 40, 39, -1,
          74, 73, 40, -1,
          75, 39, 38, -1,
          75, 74, 39, -1,
          76, 37, 36, -1,
          76, 38, 37, -1,
          76, 75, 38, -1,
          57, 76, 36, -1,
          53, 36, 52, -1,
          53, 57, 36, -1,
          9, 77, 6, -1,
          6, 77, 4, -1,
          4, 77, 0, -1,
          9, 10, 77, -1,
          10, 12, 77, -1,
          12, 15, 77, -1,
          15, 16, 77, -1,
          16, 19, 77, -1,
          19, 21, 77, -1,
          21, 23, 77, -1,
          23, 24, 77, -1,
          24, 26, 77, -1,
          26, 29, 77, -1,
          29, 30, 77, -1,
          57, 55, 76, -1,
          76, 55, 75, -1,
          75, 55, 74, -1,
          74, 55, 73, -1,
          73, 55, 72, -1,
          72, 55, 71, -1,
          71, 55, 70, -1,
          70, 55, 69, -1,
          69, 55, 68, -1,
          68, 55, 67, -1,
          67, 55, 66, -1,
          66, 55, 65, -1,
          65, 55, 64, -1,
          64, 55, 30, -1,
          30, 55, 77, -1,
          62, 77, 63, -1,
          62, 1, 77, -1,
          1, 0, 77, -1
        ]
      }
    }
}
