#VRML V2.0 utf8
WorldInfo {
  title "Exported triangle mesh to VRML97"
  info ["Created by FreeCAD"
        "<https://www.freecad.org>"]
}

Transform {
  scale 1 1 1
  rotation 0 0 1 0
  scaleOrientation 0 0 1 0
  center 0.000 0.000 0.000
  translation 0.000 0.000 0.000
  children
    Shape { 
      appearance
      Appearance {
        material
        Material {
          diffuseColor 0.8 0.8 0.8
        }
      }
      geometry
      IndexedFaceSet {
        coord
        Coordinate {
          point [
            -5.901 -4.957 -0.763,
            -5.859 -5.000 -0.915,
            5.859 -5.000 -0.915,
            5.901 -4.957 -0.763,
            -5.948 -4.910 -0.612,
            5.948 -4.910 -0.612,
            -6.000 -4.859 -0.463,
            6.000 -4.859 -0.463,
            -6.000 -4.766 -0.227,
            6.000 -4.766 -0.227,
            -6.000 -4.663 0.003,
            6.000 -4.663 0.003,
            6.000 -4.548 0.228,
            -6.000 -4.548 0.228,
            6.000 -4.423 0.447,
            -6.000 -4.423 0.447,
            -6.000 -4.287 0.660,
            6.000 -4.287 0.660,
            -6.000 -4.140 0.866,
            6.000 -4.140 0.866,
            -6.000 -3.984 1.065,
            6.000 -3.984 1.065,
            6.000 -3.818 1.256,
            -6.000 -3.818 1.256,
            6.000 -3.643 1.438,
            -6.000 -3.643 1.438,
            -6.000 -3.460 1.612,
            6.000 -3.460 1.612,
            -6.000 -3.268 1.776,
            6.000 -3.268 1.776,
            -6.000 -3.068 1.931,
            6.000 -3.068 1.931,
            -6.000 -2.861 2.076,
            6.000 -2.861 2.076,
            -6.000 -2.648 2.211,
            6.000 -2.648 2.211,
            -6.000 -2.428 2.335,
            6.000 -2.428 2.335,
            -6.000 -2.202 2.448,
            6.000 -2.202 2.448,
            6.000 -1.970 2.550,
            -6.000 -1.970 2.550,
            -6.000 -1.735 2.640,
            6.000 -1.735 2.640,
            6.000 -1.495 2.719,
            -6.000 -1.495 2.719,
            -6.000 -1.251 2.786,
            6.000 -1.251 2.786,
            -6.000 -1.004 2.842,
            6.000 -1.004 2.842,
            -6.000 -0.755 2.885,
            6.000 -0.755 2.885,
            -6.000 -0.505 2.915,
            6.000 -0.505 2.915,
            -6.000 -0.253 2.934,
            6.000 -0.253 2.934,
            -6.000 0.000 2.940,
            6.000 0.000 2.940,
            -5.859 -5.000 -2.799,
            -6.000 -4.859 -2.799,
            -5.929 -4.929 -2.869,
            -6.000 4.859 -0.463,
            -6.000 4.859 -2.799,
            -6.000 4.766 -0.227,
            -6.000 4.663 0.003,
            -6.000 4.548 0.228,
            -6.000 4.423 0.447,
            -6.000 4.287 0.660,
            -6.000 4.140 0.866,
            -6.000 3.984 1.065,
            -6.000 3.818 1.256,
            -6.000 3.643 1.438,
            -6.000 3.460 1.612,
            -6.000 3.268 1.776,
            -6.000 3.068 1.931,
            -6.000 2.861 2.076,
            -6.000 2.648 2.211,
            -6.000 2.428 2.335,
            -6.000 2.202 2.448,
            -6.000 1.970 2.550,
            -6.000 1.735 2.640,
            -6.000 1.495 2.719,
            -6.000 1.251 2.786,
            -6.000 1.004 2.842,
            -6.000 0.755 2.885,
            -6.000 0.505 2.915,
            -6.000 0.253 2.934,
            -5.859 -4.859 -2.940,
            -5.929 4.929 -2.869,
            -5.859 4.859 -2.940,
            5.929 -4.929 -2.869,
            5.859 -5.000 -2.799,
            5.859 -4.859 -2.940,
            6.000 0.253 2.934,
            6.000 0.505 2.915,
            6.000 0.755 2.885,
            6.000 1.004 2.842,
            6.000 1.251 2.786,
            6.000 1.495 2.719,
            6.000 1.735 2.640,
            6.000 1.970 2.550,
            6.000 2.202 2.448,
            6.000 2.428 2.335,
            6.000 2.648 2.211,
            6.000 2.861 2.076,
            6.000 3.068 1.931,
            6.000 3.268 1.776,
            6.000 3.460 1.612,
            6.000 3.643 1.438,
            6.000 3.818 1.256,
            6.000 3.984 1.065,
            6.000 4.140 0.866,
            6.000 4.287 0.660,
            6.000 4.423 0.447,
            6.000 4.548 0.228,
            6.000 4.663 0.003,
            6.000 4.766 -0.227,
            6.000 4.859 -0.463,
            5.948 4.910 -0.612,
            -5.948 4.910 -0.612,
            5.901 4.957 -0.763,
            -5.901 4.957 -0.763,
            -5.859 5.000 -0.915,
            5.859 5.000 -0.915,
            6.000 -4.859 -2.799,
            5.859 4.859 -2.940,
            5.929 4.929 -2.869,
            6.000 4.859 -2.799,
            5.859 5.000 -2.799,
            -5.859 5.000 -2.799
          ]
        }
        coordIndex [
          0, 1, 2, -1,
          0, 2, 3, -1,
          4, 3, 5, -1,
          4, 0, 3, -1,
          6, 5, 7, -1,
          6, 4, 5, -1,
          8, 7, 9, -1,
          8, 6, 7, -1,
          10, 11, 12, -1,
          10, 9, 11, -1,
          10, 8, 9, -1,
          13, 12, 14, -1,
          13, 10, 12, -1,
          15, 13, 14, -1,
          16, 14, 17, -1,
          16, 15, 14, -1,
          18, 17, 19, -1,
          18, 16, 17, -1,
          20, 18, 19, -1,
          20, 21, 22, -1,
          20, 19, 21, -1,
          23, 20, 22, -1,
          23, 22, 24, -1,
          25, 23, 24, -1,
          26, 24, 27, -1,
          26, 25, 24, -1,
          28, 27, 29, -1,
          28, 26, 27, -1,
          30, 29, 31, -1,
          30, 28, 29, -1,
          32, 31, 33, -1,
          32, 30, 31, -1,
          34, 33, 35, -1,
          34, 32, 33, -1,
          36, 35, 37, -1,
          36, 34, 35, -1,
          38, 39, 40, -1,
          38, 37, 39, -1,
          38, 36, 37, -1,
          41, 38, 40, -1,
          42, 43, 44, -1,
          42, 40, 43, -1,
          42, 41, 40, -1,
          45, 42, 44, -1,
          46, 44, 47, -1,
          46, 45, 44, -1,
          48, 47, 49, -1,
          48, 46, 47, -1,
          50, 49, 51, -1,
          50, 48, 49, -1,
          52, 51, 53, -1,
          52, 50, 51, -1,
          54, 53, 55, -1,
          54, 52, 53, -1,
          56, 55, 57, -1,
          56, 54, 55, -1,
          58, 59, 60, -1,
          58, 1, 59, -1,
          6, 59, 4, -1,
          4, 59, 0, -1,
          0, 59, 1, -1,
          56, 59, 54, -1,
          54, 59, 52, -1,
          52, 59, 50, -1,
          50, 59, 48, -1,
          48, 59, 46, -1,
          46, 59, 45, -1,
          45, 59, 42, -1,
          42, 59, 41, -1,
          41, 59, 38, -1,
          38, 59, 36, -1,
          36, 59, 34, -1,
          34, 59, 32, -1,
          32, 59, 30, -1,
          30, 59, 28, -1,
          28, 59, 26, -1,
          26, 59, 25, -1,
          25, 59, 23, -1,
          23, 59, 20, -1,
          20, 59, 18, -1,
          18, 59, 16, -1,
          16, 59, 15, -1,
          15, 59, 13, -1,
          13, 59, 10, -1,
          10, 59, 8, -1,
          8, 59, 6, -1,
          61, 62, 63, -1,
          63, 62, 64, -1,
          64, 62, 65, -1,
          65, 62, 66, -1,
          66, 62, 67, -1,
          67, 62, 68, -1,
          68, 62, 69, -1,
          69, 62, 70, -1,
          70, 62, 71, -1,
          71, 62, 72, -1,
          56, 62, 59, -1,
          72, 62, 73, -1,
          73, 62, 74, -1,
          74, 62, 75, -1,
          75, 62, 76, -1,
          76, 62, 77, -1,
          77, 62, 78, -1,
          78, 62, 79, -1,
          79, 62, 80, -1,
          80, 62, 81, -1,
          81, 62, 82, -1,
          82, 62, 83, -1,
          83, 62, 84, -1,
          84, 62, 85, -1,
          85, 62, 86, -1,
          86, 62, 56, -1,
          59, 87, 60, -1,
          88, 89, 62, -1,
          62, 89, 59, -1,
          59, 89, 87, -1,
          87, 58, 60, -1,
          90, 91, 92, -1,
          92, 91, 87, -1,
          87, 91, 58, -1,
          91, 2, 58, -1,
          58, 2, 1, -1,
          86, 56, 57, -1,
          86, 57, 93, -1,
          85, 93, 94, -1,
          85, 86, 93, -1,
          84, 95, 96, -1,
          84, 94, 95, -1,
          84, 85, 94, -1,
          83, 84, 96, -1,
          82, 96, 97, -1,
          82, 83, 96, -1,
          81, 98, 99, -1,
          81, 97, 98, -1,
          81, 82, 97, -1,
          80, 99, 100, -1,
          80, 81, 99, -1,
          79, 80, 100, -1,
          78, 79, 100, -1,
          78, 100, 101, -1,
          77, 78, 101, -1,
          77, 102, 103, -1,
          77, 101, 102, -1,
          76, 77, 103, -1,
          75, 76, 103, -1,
          75, 103, 104, -1,
          74, 104, 105, -1,
          74, 75, 104, -1,
          73, 105, 106, -1,
          73, 74, 105, -1,
          72, 106, 107, -1,
          72, 73, 106, -1,
          71, 108, 109, -1,
          71, 107, 108, -1,
          71, 72, 107, -1,
          70, 71, 109, -1,
          69, 109, 110, -1,
          69, 70, 109, -1,
          68, 110, 111, -1,
          68, 69, 110, -1,
          67, 111, 112, -1,
          67, 68, 111, -1,
          66, 112, 113, -1,
          66, 67, 112, -1,
          65, 113, 114, -1,
          65, 66, 113, -1,
          64, 114, 115, -1,
          64, 65, 114, -1,
          63, 115, 116, -1,
          63, 64, 115, -1,
          61, 116, 117, -1,
          61, 117, 118, -1,
          61, 63, 116, -1,
          119, 118, 120, -1,
          119, 61, 118, -1,
          121, 119, 120, -1,
          122, 120, 123, -1,
          122, 121, 120, -1,
          124, 91, 90, -1,
          124, 2, 91, -1,
          124, 7, 5, -1,
          124, 5, 3, -1,
          124, 3, 2, -1,
          92, 124, 90, -1,
          92, 125, 124, -1,
          126, 127, 125, -1,
          125, 127, 124, -1,
          124, 57, 55, -1,
          124, 55, 53, -1,
          124, 53, 51, -1,
          124, 51, 49, -1,
          124, 49, 47, -1,
          124, 47, 44, -1,
          124, 44, 43, -1,
          124, 43, 40, -1,
          124, 40, 39, -1,
          124, 39, 37, -1,
          124, 37, 35, -1,
          124, 35, 33, -1,
          124, 33, 31, -1,
          124, 31, 29, -1,
          124, 29, 27, -1,
          124, 27, 24, -1,
          124, 24, 22, -1,
          124, 22, 21, -1,
          124, 21, 19, -1,
          124, 19, 17, -1,
          124, 17, 14, -1,
          124, 14, 12, -1,
          124, 12, 11, -1,
          124, 11, 9, -1,
          124, 9, 7, -1,
          127, 117, 116, -1,
          127, 116, 115, -1,
          127, 115, 114, -1,
          127, 114, 113, -1,
          127, 113, 112, -1,
          127, 112, 111, -1,
          127, 111, 110, -1,
          127, 110, 109, -1,
          127, 109, 108, -1,
          127, 57, 124, -1,
          127, 108, 107, -1,
          127, 107, 106, -1,
          127, 106, 105, -1,
          127, 105, 104, -1,
          127, 104, 103, -1,
          127, 103, 102, -1,
          127, 102, 101, -1,
          127, 101, 100, -1,
          127, 100, 99, -1,
          127, 99, 98, -1,
          127, 98, 97, -1,
          127, 97, 96, -1,
          127, 96, 95, -1,
          127, 95, 94, -1,
          127, 94, 93, -1,
          127, 93, 57, -1,
          128, 127, 126, -1,
          128, 123, 127, -1,
          117, 127, 118, -1,
          118, 127, 120, -1,
          120, 127, 123, -1,
          129, 89, 88, -1,
          126, 125, 128, -1,
          128, 125, 129, -1,
          129, 125, 89, -1,
          62, 129, 88, -1,
          62, 122, 129, -1,
          62, 61, 119, -1,
          62, 119, 121, -1,
          62, 121, 122, -1,
          123, 128, 122, -1,
          122, 128, 129, -1,
          89, 92, 87, -1,
          125, 92, 89, -1
        ]
      }
    }
}
