#VRML V2.0 utf8
WorldInfo {
  title "Exported triangle mesh to VRML97"
  info ["Created by FreeCAD"
        "<https://www.freecad.org>"]
}

Transform {
  scale 1 1 1
  rotation 0 0 1 0
  scaleOrientation 0 0 1 0
  center 0.000 0.000 0.000
  translation 0.000 0.000 0.000
  children
    Shape { 
      appearance
      Appearance {
        material
        Material {
          diffuseColor 0.8 0.8 0.8
        }
      }
      geometry
      IndexedFaceSet {
        coord
        Coordinate {
          point [
            22.250 -15.000 1.250,
            22.359 -15.000 1.142,
            22.500 -14.859 1.009,
            22.250 -10.004 1.522,
            22.500 -9.910 1.276,
            22.250 -5.003 1.686,
            22.500 -4.956 1.437,
            22.250 0.000 1.740,
            22.500 0.000 1.490,
            -22.250 -15.000 1.250,
            -22.250 -10.004 1.522,
            -22.250 -5.003 1.686,
            -22.250 0.000 1.740,
            22.250 5.003 1.686,
            -22.250 5.003 1.686,
            22.250 10.004 1.522,
            -22.250 10.004 1.522,
            22.250 15.000 1.250,
            -22.250 15.000 1.250,
            -22.359 -15.000 -1.599,
            -22.359 -15.000 1.142,
            22.359 -15.000 -1.599,
            -22.359 14.859 -1.740,
            22.359 -14.859 -1.740,
            -22.359 -14.859 -1.740,
            22.359 14.859 -1.740,
            -22.359 15.000 -1.599,
            -22.359 15.000 1.142,
            22.359 15.000 1.142,
            22.359 15.000 -1.599,
            22.500 -14.859 -1.599,
            22.500 14.859 -1.599,
            22.500 14.859 1.009,
            22.500 9.910 1.276,
            22.500 4.956 1.437,
            -22.500 -14.859 1.009,
            -22.500 -7.433 1.370,
            -22.500 -14.859 -1.599,
            -22.500 7.433 1.370,
            -22.500 14.859 -1.599,
            -22.500 -0.000 1.490,
            -22.500 14.859 1.009,
            -22.429 14.929 -1.669,
            22.429 14.929 -1.669,
            -22.429 -14.929 -1.669,
            22.429 -14.929 -1.669
          ]
        }
        coordIndex [
          0, 1, 2, -1,
          3, 2, 4, -1,
          3, 0, 2, -1,
          5, 4, 6, -1,
          5, 3, 4, -1,
          7, 6, 8, -1,
          7, 5, 6, -1,
          9, 0, 3, -1,
          10, 3, 5, -1,
          10, 9, 3, -1,
          11, 5, 7, -1,
          11, 10, 5, -1,
          12, 11, 7, -1,
          12, 7, 13, -1,
          14, 13, 15, -1,
          14, 12, 13, -1,
          16, 15, 17, -1,
          16, 14, 15, -1,
          18, 16, 17, -1,
          19, 9, 20, -1,
          19, 21, 9, -1,
          1, 0, 21, -1,
          21, 0, 9, -1,
          22, 23, 24, -1,
          25, 23, 22, -1,
          18, 26, 27, -1,
          28, 29, 17, -1,
          17, 29, 18, -1,
          18, 29, 26, -1,
          4, 2, 30, -1,
          6, 4, 30, -1,
          31, 32, 33, -1,
          31, 33, 34, -1,
          30, 31, 34, -1,
          30, 34, 8, -1,
          30, 8, 6, -1,
          35, 36, 37, -1,
          38, 39, 40, -1,
          41, 39, 38, -1,
          39, 37, 36, -1,
          39, 36, 40, -1,
          26, 22, 42, -1,
          26, 29, 22, -1,
          43, 25, 29, -1,
          29, 25, 22, -1,
          24, 19, 44, -1,
          45, 21, 23, -1,
          23, 21, 24, -1,
          24, 21, 19, -1,
          37, 24, 44, -1,
          42, 22, 39, -1,
          39, 22, 37, -1,
          37, 22, 24, -1,
          23, 30, 45, -1,
          43, 31, 25, -1,
          25, 31, 23, -1,
          23, 31, 30, -1,
          29, 31, 43, -1,
          28, 32, 29, -1,
          29, 32, 31, -1,
          39, 26, 42, -1,
          39, 41, 26, -1,
          41, 27, 26, -1,
          30, 21, 45, -1,
          30, 2, 21, -1,
          2, 1, 21, -1,
          19, 37, 44, -1,
          20, 35, 19, -1,
          19, 35, 37, -1,
          18, 27, 41, -1,
          16, 18, 41, -1,
          38, 16, 41, -1,
          14, 16, 38, -1,
          40, 14, 38, -1,
          12, 14, 40, -1,
          11, 12, 40, -1,
          36, 11, 40, -1,
          10, 11, 36, -1,
          35, 10, 36, -1,
          9, 35, 20, -1,
          9, 10, 35, -1,
          34, 7, 8, -1,
          13, 7, 34, -1,
          33, 13, 34, -1,
          15, 13, 33, -1,
          32, 15, 33, -1,
          17, 32, 28, -1,
          17, 15, 32, -1
        ]
      }
    }
}
