#VRML V2.0 utf8
WorldInfo {
  title "Exported triangle mesh to VRML97"
  info ["Created by FreeCAD"
        "<https://www.freecad.org>"]
}

Transform {
  scale 1 1 1
  rotation 0 0 1 0
  scaleOrientation 0 0 1 0
  center 0.000 0.000 0.000
  translation 0.000 0.000 0.000
  children
    Shape { 
      appearance
      Appearance {
        material
        Material {
          diffuseColor 0.8 0.8 0.8
        }
      }
      geometry
      IndexedFaceSet {
        coord
        Coordinate {
          point [
            10.359 9.500 -4.281,
            10.500 9.359 -4.281,
            10.429 9.429 -4.352,
            10.359 9.500 4.281,
            10.500 9.359 4.423,
            10.500 -6.820 0.332,
            10.500 -7.161 0.678,
            10.500 -9.359 -4.281,
            10.500 -6.462 0.003,
            10.500 -7.485 1.041,
            10.500 -6.088 -0.308,
            10.500 -7.791 1.419,
            10.500 -5.699 -0.600,
            10.500 -8.077 1.813,
            10.500 -5.296 -0.872,
            10.500 -8.344 2.219,
            10.500 -4.880 -1.124,
            10.500 -8.590 2.639,
            10.500 -4.452 -1.355,
            10.500 -8.815 3.070,
            10.500 -4.013 -1.565,
            10.500 -9.018 3.512,
            10.500 -3.565 -1.753,
            10.500 -9.200 3.963,
            10.500 -3.107 -1.918,
            10.500 -9.359 4.423,
            10.500 -2.642 -2.060,
            10.500 -2.171 -2.180,
            10.500 -1.694 -2.275,
            10.500 -1.213 -2.347,
            10.500 -0.729 -2.396,
            10.500 -0.243 -2.420,
            10.500 4.880 -1.124,
            10.500 5.296 -0.872,
            10.500 4.452 -1.355,
            10.500 4.013 -1.565,
            10.500 3.565 -1.753,
            10.500 3.107 -1.918,
            10.500 2.642 -2.060,
            10.500 2.171 -2.180,
            10.500 1.694 -2.275,
            10.500 1.213 -2.347,
            10.500 0.729 -2.396,
            10.500 0.243 -2.420,
            10.500 5.699 -0.600,
            10.500 6.088 -0.308,
            10.500 6.462 0.003,
            10.500 6.820 0.332,
            10.500 7.161 0.678,
            10.500 7.485 1.041,
            10.500 7.791 1.419,
            10.500 8.077 1.813,
            10.500 8.344 2.219,
            10.500 8.590 2.639,
            10.500 8.815 3.070,
            10.500 9.018 3.512,
            10.500 9.200 3.963,
            -10.500 9.359 4.423,
            -10.500 9.200 3.963,
            -10.500 9.018 3.512,
            -10.500 8.815 3.070,
            -10.500 8.590 2.639,
            -10.500 8.344 2.219,
            -10.500 8.077 1.813,
            -10.500 7.791 1.419,
            -10.500 7.485 1.041,
            -10.500 7.161 0.678,
            -10.500 6.820 0.332,
            -10.500 6.462 0.003,
            -10.500 6.088 -0.308,
            -10.500 5.699 -0.600,
            -10.500 5.296 -0.872,
            -10.500 4.880 -1.124,
            -10.500 4.452 -1.355,
            -10.500 4.013 -1.565,
            -10.500 3.565 -1.753,
            -10.500 3.107 -1.918,
            -10.500 2.642 -2.060,
            -10.500 2.171 -2.180,
            -10.500 1.694 -2.275,
            -10.500 1.213 -2.347,
            -10.500 0.729 -2.396,
            -10.500 0.243 -2.420,
            -10.500 -0.243 -2.420,
            -10.500 -0.729 -2.396,
            -10.500 -1.213 -2.347,
            -10.500 -1.694 -2.275,
            -10.500 -2.171 -2.180,
            -10.500 -2.642 -2.060,
            -10.500 -3.107 -1.918,
            -10.500 -3.565 -1.753,
            -10.500 -4.013 -1.565,
            -10.500 -4.452 -1.355,
            -10.500 -4.880 -1.124,
            -10.500 -5.296 -0.872,
            -10.500 -5.699 -0.600,
            -10.500 -6.088 -0.308,
            -10.500 -6.462 0.003,
            -10.500 -6.820 0.332,
            -10.500 -7.161 0.678,
            -10.500 -7.485 1.041,
            -10.500 -7.791 1.419,
            -10.500 -8.077 1.813,
            -10.500 -8.344 2.219,
            -10.500 -8.590 2.639,
            -10.500 -8.815 3.070,
            -10.500 -9.018 3.512,
            -10.500 -9.200 3.963,
            -10.500 -9.359 4.423,
            -10.500 -9.359 -4.281,
            -10.500 9.359 -4.281,
            -10.359 -9.500 -4.281,
            -10.429 -9.429 -4.352,
            -10.359 -9.500 4.281,
            -10.359 -9.359 -4.423,
            -10.429 9.429 -4.352,
            -10.359 9.359 -4.423,
            10.429 -9.429 -4.352,
            10.359 -9.500 -4.281,
            10.359 -9.359 -4.423,
            10.359 -9.500 4.281,
            10.359 9.359 -4.423,
            -10.359 9.500 -4.281,
            -10.359 9.500 4.281
          ]
        }
        coordIndex [
          0, 1, 2, -1,
          0, 3, 1, -1,
          3, 4, 1, -1,
          5, 6, 7, -1,
          7, 8, 5, -1,
          6, 9, 7, -1,
          7, 10, 8, -1,
          9, 11, 7, -1,
          7, 12, 10, -1,
          11, 13, 7, -1,
          7, 14, 12, -1,
          13, 15, 7, -1,
          7, 16, 14, -1,
          15, 17, 7, -1,
          7, 18, 16, -1,
          17, 19, 7, -1,
          7, 20, 18, -1,
          19, 21, 7, -1,
          7, 22, 20, -1,
          21, 23, 7, -1,
          7, 24, 22, -1,
          23, 25, 7, -1,
          7, 26, 24, -1,
          7, 27, 26, -1,
          7, 28, 27, -1,
          7, 29, 28, -1,
          7, 30, 29, -1,
          7, 31, 30, -1,
          32, 1, 33, -1,
          34, 1, 32, -1,
          35, 1, 34, -1,
          36, 1, 35, -1,
          37, 1, 36, -1,
          38, 1, 37, -1,
          39, 1, 38, -1,
          40, 1, 39, -1,
          41, 1, 40, -1,
          42, 1, 41, -1,
          43, 1, 42, -1,
          1, 44, 33, -1,
          1, 45, 44, -1,
          1, 46, 45, -1,
          1, 47, 46, -1,
          1, 48, 47, -1,
          1, 49, 48, -1,
          1, 50, 49, -1,
          1, 51, 50, -1,
          1, 52, 51, -1,
          1, 53, 52, -1,
          1, 54, 53, -1,
          1, 55, 54, -1,
          1, 4, 56, -1,
          1, 56, 55, -1,
          7, 1, 31, -1,
          31, 1, 43, -1,
          57, 58, 4, -1,
          4, 58, 56, -1,
          56, 59, 55, -1,
          55, 59, 54, -1,
          58, 59, 56, -1,
          59, 60, 54, -1,
          54, 61, 53, -1,
          60, 61, 54, -1,
          53, 62, 52, -1,
          52, 62, 51, -1,
          61, 62, 53, -1,
          62, 63, 51, -1,
          51, 64, 50, -1,
          63, 64, 51, -1,
          50, 65, 49, -1,
          64, 65, 50, -1,
          49, 66, 48, -1,
          65, 66, 49, -1,
          48, 67, 47, -1,
          66, 67, 48, -1,
          47, 68, 46, -1,
          67, 68, 47, -1,
          46, 69, 45, -1,
          68, 69, 46, -1,
          45, 70, 44, -1,
          69, 70, 45, -1,
          44, 71, 33, -1,
          70, 71, 44, -1,
          33, 72, 32, -1,
          71, 72, 33, -1,
          32, 73, 34, -1,
          72, 73, 32, -1,
          34, 74, 35, -1,
          73, 74, 34, -1,
          35, 75, 36, -1,
          74, 75, 35, -1,
          36, 76, 37, -1,
          37, 76, 38, -1,
          75, 76, 36, -1,
          76, 77, 38, -1,
          38, 78, 39, -1,
          77, 78, 38, -1,
          39, 79, 40, -1,
          40, 79, 41, -1,
          78, 79, 39, -1,
          79, 80, 41, -1,
          80, 81, 41, -1,
          41, 81, 42, -1,
          81, 82, 42, -1,
          42, 82, 43, -1,
          43, 82, 31, -1,
          82, 83, 31, -1,
          83, 84, 31, -1,
          31, 84, 30, -1,
          30, 84, 29, -1,
          84, 85, 29, -1,
          85, 86, 29, -1,
          29, 86, 28, -1,
          86, 87, 28, -1,
          28, 87, 27, -1,
          27, 87, 26, -1,
          87, 88, 26, -1,
          26, 89, 24, -1,
          88, 89, 26, -1,
          24, 89, 22, -1,
          89, 90, 22, -1,
          22, 91, 20, -1,
          90, 91, 22, -1,
          20, 92, 18, -1,
          18, 92, 16, -1,
          91, 92, 20, -1,
          16, 93, 14, -1,
          92, 93, 16, -1,
          93, 94, 14, -1,
          14, 95, 12, -1,
          94, 95, 14, -1,
          12, 96, 10, -1,
          95, 96, 12, -1,
          10, 97, 8, -1,
          96, 97, 10, -1,
          8, 98, 5, -1,
          97, 98, 8, -1,
          5, 99, 6, -1,
          98, 99, 5, -1,
          6, 100, 9, -1,
          9, 100, 11, -1,
          99, 100, 6, -1,
          100, 101, 11, -1,
          11, 102, 13, -1,
          13, 102, 15, -1,
          101, 102, 11, -1,
          102, 103, 15, -1,
          15, 104, 17, -1,
          17, 104, 19, -1,
          103, 104, 15, -1,
          104, 105, 19, -1,
          105, 106, 19, -1,
          19, 106, 21, -1,
          21, 106, 23, -1,
          106, 107, 23, -1,
          107, 108, 23, -1,
          23, 108, 25, -1,
          99, 98, 109, -1,
          97, 109, 98, -1,
          100, 99, 109, -1,
          96, 109, 97, -1,
          101, 100, 109, -1,
          95, 109, 96, -1,
          102, 101, 109, -1,
          94, 109, 95, -1,
          103, 102, 109, -1,
          93, 109, 94, -1,
          104, 103, 109, -1,
          92, 109, 93, -1,
          105, 104, 109, -1,
          91, 109, 92, -1,
          106, 105, 109, -1,
          90, 109, 91, -1,
          107, 106, 109, -1,
          89, 109, 90, -1,
          108, 107, 109, -1,
          88, 109, 89, -1,
          87, 109, 88, -1,
          86, 109, 87, -1,
          85, 109, 86, -1,
          84, 109, 85, -1,
          83, 109, 84, -1,
          110, 72, 71, -1,
          110, 73, 72, -1,
          110, 74, 73, -1,
          110, 75, 74, -1,
          110, 76, 75, -1,
          110, 77, 76, -1,
          110, 78, 77, -1,
          110, 79, 78, -1,
          110, 80, 79, -1,
          110, 81, 80, -1,
          110, 82, 81, -1,
          70, 110, 71, -1,
          69, 110, 70, -1,
          68, 110, 69, -1,
          67, 110, 68, -1,
          66, 110, 67, -1,
          65, 110, 66, -1,
          64, 110, 65, -1,
          63, 110, 64, -1,
          62, 110, 63, -1,
          61, 110, 62, -1,
          60, 110, 61, -1,
          59, 110, 60, -1,
          57, 110, 58, -1,
          58, 110, 59, -1,
          110, 109, 83, -1,
          110, 83, 82, -1,
          111, 109, 112, -1,
          111, 113, 109, -1,
          113, 108, 109, -1,
          109, 114, 112, -1,
          115, 116, 110, -1,
          110, 116, 109, -1,
          109, 116, 114, -1,
          114, 111, 112, -1,
          117, 118, 119, -1,
          119, 118, 114, -1,
          114, 118, 111, -1,
          111, 118, 113, -1,
          118, 120, 113, -1,
          120, 25, 113, -1,
          113, 25, 108, -1,
          7, 118, 117, -1,
          25, 120, 7, -1,
          7, 120, 118, -1,
          119, 7, 117, -1,
          2, 1, 121, -1,
          121, 1, 119, -1,
          119, 1, 7, -1,
          116, 121, 114, -1,
          121, 119, 114, -1,
          122, 116, 115, -1,
          2, 121, 0, -1,
          0, 121, 122, -1,
          122, 121, 116, -1,
          110, 122, 115, -1,
          57, 123, 110, -1,
          110, 123, 122, -1,
          3, 0, 123, -1,
          123, 0, 122, -1,
          4, 3, 57, -1,
          57, 3, 123, -1
        ]
      }
    }
}
