#VRML V2.0 utf8
WorldInfo {
  title "Exported triangle mesh to VRML97"
  info ["Created by FreeCAD"
        "<https://www.freecad.org>"]
}

Transform {
  scale 1 1 1
  rotation 0 0 1 0
  scaleOrientation 0 0 1 0
  center 0.000 0.000 0.000
  translation 0.000 0.000 0.000
  children
    Shape { 
      appearance
      Appearance {
        material
        Material {
          diffuseColor 0.8 0.8 0.8
        }
      }
      geometry
      IndexedFaceSet {
        coord
        Coordinate {
          point [
            4.000 2.859 1.836,
            -4.000 2.859 1.836,
            4.000 2.776 1.697,
            -4.000 2.776 1.697,
            -4.000 2.687 1.563,
            4.000 2.687 1.563,
            -4.000 2.591 1.433,
            4.000 2.591 1.433,
            -4.000 2.489 1.308,
            4.000 2.489 1.308,
            -4.000 2.381 1.188,
            4.000 2.381 1.188,
            -4.000 2.267 1.073,
            4.000 2.267 1.073,
            -4.000 2.147 0.965,
            4.000 2.147 0.965,
            -4.000 2.023 0.862,
            4.000 2.023 0.862,
            -4.000 1.893 0.766,
            4.000 1.893 0.766,
            -4.000 1.759 0.676,
            4.000 1.759 0.676,
            -4.000 1.621 0.593,
            4.000 1.621 0.593,
            -4.000 1.478 0.516,
            4.000 1.478 0.516,
            -4.000 1.333 0.447,
            4.000 1.333 0.447,
            4.000 1.184 0.385,
            -4.000 1.184 0.385,
            -4.000 1.032 0.331,
            4.000 1.032 0.331,
            4.000 0.877 0.284,
            -4.000 0.877 0.284,
            -4.000 0.721 0.244,
            4.000 0.721 0.244,
            -4.000 0.562 0.213,
            4.000 0.562 0.213,
            -4.000 0.403 0.189,
            4.000 0.403 0.189,
            -4.000 0.242 0.173,
            4.000 0.242 0.173,
            -4.000 0.081 0.165,
            4.000 0.081 0.165,
            -4.000 -0.081 0.165,
            4.000 -0.081 0.165,
            -4.000 -0.242 0.173,
            4.000 -0.242 0.173,
            4.000 -0.403 0.189,
            -4.000 -0.403 0.189,
            -4.000 -0.562 0.213,
            4.000 -0.562 0.213,
            -4.000 -0.721 0.244,
            4.000 -0.721 0.244,
            -4.000 -0.877 0.284,
            4.000 -0.877 0.284,
            -4.000 -1.032 0.331,
            4.000 -1.032 0.331,
            4.000 -1.184 0.385,
            -4.000 -1.184 0.385,
            -4.000 -1.333 0.447,
            4.000 -1.333 0.447,
            -4.000 -1.478 0.516,
            4.000 -1.478 0.516,
            -4.000 -1.621 0.593,
            4.000 -1.621 0.593,
            -4.000 -1.759 0.676,
            4.000 -1.759 0.676,
            -4.000 -1.893 0.766,
            4.000 -1.893 0.766,
            -4.000 -2.023 0.862,
            4.000 -2.023 0.862,
            4.000 -2.147 0.965,
            -4.000 -2.147 0.965,
            -4.000 -2.267 1.073,
            4.000 -2.267 1.073,
            4.000 -2.381 1.188,
            -4.000 -2.381 1.188,
            -4.000 -2.489 1.308,
            4.000 -2.489 1.308,
            -4.000 -2.591 1.433,
            4.000 -2.591 1.433,
            4.000 -2.687 1.563,
            -4.000 -2.687 1.563,
            -4.000 -2.776 1.697,
            4.000 -2.776 1.697,
            -4.000 -2.859 1.836,
            4.000 -2.859 1.836,
            3.859 -3.000 -1.694,
            3.859 -3.000 1.694,
            -3.859 -3.000 -1.694,
            -3.859 -3.000 1.694,
            -3.859 2.859 -1.836,
            3.859 2.859 -1.836,
            -3.859 -2.859 -1.836,
            3.859 -2.859 -1.836,
            3.859 3.000 1.694,
            3.859 3.000 -1.694,
            -3.859 3.000 1.694,
            -3.859 3.000 -1.694,
            4.000 -2.859 -1.694,
            4.000 2.859 -1.694,
            -4.000 -2.859 -1.694,
            -4.000 2.859 -1.694,
            -3.929 2.929 -1.765,
            3.929 2.929 -1.765,
            -3.929 -2.929 -1.765,
            3.929 -2.929 -1.765
          ]
        }
        coordIndex [
          0, 1, 2, -1,
          1, 3, 2, -1,
          3, 4, 2, -1,
          2, 4, 5, -1,
          4, 6, 5, -1,
          5, 6, 7, -1,
          7, 8, 9, -1,
          6, 8, 7, -1,
          8, 10, 9, -1,
          9, 10, 11, -1,
          11, 12, 13, -1,
          10, 12, 11, -1,
          13, 14, 15, -1,
          12, 14, 13, -1,
          15, 16, 17, -1,
          14, 16, 15, -1,
          17, 18, 19, -1,
          16, 18, 17, -1,
          19, 20, 21, -1,
          18, 20, 19, -1,
          21, 22, 23, -1,
          20, 22, 21, -1,
          23, 24, 25, -1,
          22, 24, 23, -1,
          25, 26, 27, -1,
          27, 26, 28, -1,
          24, 26, 25, -1,
          26, 29, 28, -1,
          28, 30, 31, -1,
          31, 30, 32, -1,
          29, 30, 28, -1,
          30, 33, 32, -1,
          32, 34, 35, -1,
          33, 34, 32, -1,
          35, 36, 37, -1,
          34, 36, 35, -1,
          37, 38, 39, -1,
          36, 38, 37, -1,
          39, 40, 41, -1,
          38, 40, 39, -1,
          41, 42, 43, -1,
          40, 42, 41, -1,
          43, 44, 45, -1,
          42, 44, 43, -1,
          45, 46, 47, -1,
          47, 46, 48, -1,
          44, 46, 45, -1,
          46, 49, 48, -1,
          48, 50, 51, -1,
          49, 50, 48, -1,
          51, 52, 53, -1,
          50, 52, 51, -1,
          53, 54, 55, -1,
          52, 54, 53, -1,
          54, 56, 55, -1,
          55, 56, 57, -1,
          57, 56, 58, -1,
          56, 59, 58, -1,
          59, 60, 58, -1,
          58, 60, 61, -1,
          60, 62, 61, -1,
          61, 62, 63, -1,
          62, 64, 63, -1,
          63, 64, 65, -1,
          64, 66, 65, -1,
          65, 66, 67, -1,
          66, 68, 67, -1,
          67, 68, 69, -1,
          68, 70, 69, -1,
          69, 70, 71, -1,
          71, 70, 72, -1,
          70, 73, 72, -1,
          73, 74, 72, -1,
          72, 74, 75, -1,
          75, 74, 76, -1,
          74, 77, 76, -1,
          76, 78, 79, -1,
          77, 78, 76, -1,
          79, 80, 81, -1,
          81, 80, 82, -1,
          78, 80, 79, -1,
          80, 83, 82, -1,
          82, 84, 85, -1,
          83, 84, 82, -1,
          85, 86, 87, -1,
          84, 86, 85, -1,
          88, 89, 90, -1,
          90, 89, 91, -1,
          92, 93, 94, -1,
          93, 95, 94, -1,
          96, 97, 98, -1,
          98, 97, 99, -1,
          75, 76, 100, -1,
          100, 72, 75, -1,
          76, 79, 100, -1,
          100, 71, 72, -1,
          79, 81, 100, -1,
          100, 69, 71, -1,
          81, 82, 100, -1,
          100, 67, 69, -1,
          82, 85, 100, -1,
          100, 65, 67, -1,
          85, 87, 100, -1,
          100, 63, 65, -1,
          100, 61, 63, -1,
          100, 58, 61, -1,
          100, 57, 58, -1,
          100, 55, 57, -1,
          100, 53, 55, -1,
          100, 51, 53, -1,
          100, 48, 51, -1,
          100, 47, 48, -1,
          100, 45, 47, -1,
          100, 43, 45, -1,
          35, 101, 32, -1,
          37, 101, 35, -1,
          39, 101, 37, -1,
          41, 101, 39, -1,
          43, 101, 41, -1,
          100, 101, 43, -1,
          101, 31, 32, -1,
          101, 28, 31, -1,
          101, 27, 28, -1,
          101, 25, 27, -1,
          101, 23, 25, -1,
          101, 21, 23, -1,
          101, 19, 21, -1,
          101, 17, 19, -1,
          101, 15, 17, -1,
          101, 13, 15, -1,
          101, 11, 13, -1,
          101, 9, 11, -1,
          101, 7, 9, -1,
          101, 5, 7, -1,
          101, 2, 5, -1,
          101, 0, 2, -1,
          77, 74, 102, -1,
          73, 102, 74, -1,
          78, 77, 102, -1,
          70, 102, 73, -1,
          80, 78, 102, -1,
          68, 102, 70, -1,
          83, 80, 102, -1,
          66, 102, 68, -1,
          84, 83, 102, -1,
          64, 102, 66, -1,
          86, 84, 102, -1,
          62, 102, 64, -1,
          60, 102, 62, -1,
          59, 102, 60, -1,
          56, 102, 59, -1,
          54, 102, 56, -1,
          52, 102, 54, -1,
          50, 102, 52, -1,
          49, 102, 50, -1,
          46, 102, 49, -1,
          44, 102, 46, -1,
          42, 102, 44, -1,
          103, 34, 33, -1,
          103, 36, 34, -1,
          103, 38, 36, -1,
          103, 40, 38, -1,
          103, 42, 40, -1,
          103, 102, 42, -1,
          30, 103, 33, -1,
          29, 103, 30, -1,
          26, 103, 29, -1,
          24, 103, 26, -1,
          22, 103, 24, -1,
          20, 103, 22, -1,
          18, 103, 20, -1,
          16, 103, 18, -1,
          14, 103, 16, -1,
          12, 103, 14, -1,
          10, 103, 12, -1,
          8, 103, 10, -1,
          6, 103, 8, -1,
          4, 103, 6, -1,
          3, 103, 4, -1,
          1, 103, 3, -1,
          1, 0, 98, -1,
          0, 96, 98, -1,
          89, 87, 91, -1,
          91, 87, 86, -1,
          99, 92, 104, -1,
          105, 93, 97, -1,
          97, 93, 99, -1,
          99, 93, 92, -1,
          94, 90, 106, -1,
          107, 88, 95, -1,
          95, 88, 94, -1,
          94, 88, 90, -1,
          102, 94, 106, -1,
          104, 92, 103, -1,
          103, 92, 102, -1,
          102, 92, 94, -1,
          95, 100, 107, -1,
          95, 93, 100, -1,
          105, 101, 93, -1,
          93, 101, 100, -1,
          97, 101, 105, -1,
          97, 96, 101, -1,
          96, 0, 101, -1,
          103, 99, 104, -1,
          1, 98, 103, -1,
          103, 98, 99, -1,
          100, 88, 107, -1,
          87, 89, 100, -1,
          100, 89, 88, -1,
          90, 102, 106, -1,
          90, 91, 102, -1,
          91, 86, 102, -1
        ]
      }
    }
}
