#VRML V2.0 utf8
WorldInfo {
  title "Exported triangle mesh to VRML97"
  info ["Created by FreeCAD"
        "<https://www.freecad.org>"]
}

Transform {
  scale 1 1 1
  rotation 0 0 1 0
  scaleOrientation 0 0 1 0
  center 0.000 0.000 0.000
  translation 0.000 0.000 0.000
  children
    Shape { 
      appearance
      Appearance {
        material
        Material {
          diffuseColor 0.8 0.8 0.8
        }
      }
      geometry
      IndexedFaceSet {
        coord
        Coordinate {
          point [
            16.000 14.859 1.607,
            -16.000 14.859 1.607,
            16.000 4.953 1.417,
            -16.000 4.953 1.417,
            16.000 -4.953 1.417,
            -16.000 -4.953 1.417,
            16.000 -14.859 1.607,
            -16.000 -14.859 1.607,
            -15.859 -15.000 -1.465,
            15.859 -15.000 -1.465,
            -15.859 -15.000 1.465,
            15.859 -15.000 1.465,
            -15.859 14.859 -1.607,
            15.859 14.859 -1.607,
            -15.859 -14.859 -1.607,
            15.859 -14.859 -1.607,
            -15.859 15.000 1.465,
            15.859 15.000 1.465,
            -15.859 15.000 -1.465,
            15.859 15.000 -1.465,
            16.000 -14.859 -1.465,
            16.000 14.859 -1.465,
            -16.000 -14.859 -1.465,
            -16.000 14.859 -1.465,
            -15.929 14.929 -1.536,
            15.929 14.929 -1.536,
            -15.929 -14.929 -1.536,
            15.929 -14.929 -1.536
          ]
        }
        coordIndex [
          0, 1, 2, -1,
          2, 3, 4, -1,
          1, 3, 2, -1,
          4, 5, 6, -1,
          3, 5, 4, -1,
          5, 7, 6, -1,
          8, 9, 10, -1,
          9, 11, 10, -1,
          12, 13, 14, -1,
          13, 15, 14, -1,
          16, 17, 18, -1,
          17, 19, 18, -1,
          20, 4, 6, -1,
          21, 0, 2, -1,
          20, 21, 2, -1,
          20, 2, 4, -1,
          5, 22, 7, -1,
          1, 23, 3, -1,
          23, 22, 5, -1,
          23, 5, 3, -1,
          1, 0, 16, -1,
          0, 17, 16, -1,
          11, 6, 10, -1,
          10, 6, 7, -1,
          18, 12, 24, -1,
          18, 19, 12, -1,
          25, 13, 19, -1,
          19, 13, 12, -1,
          14, 8, 26, -1,
          27, 9, 15, -1,
          15, 9, 14, -1,
          14, 9, 8, -1,
          22, 14, 26, -1,
          24, 12, 23, -1,
          23, 12, 22, -1,
          22, 12, 14, -1,
          15, 20, 27, -1,
          15, 13, 20, -1,
          25, 21, 13, -1,
          13, 21, 20, -1,
          19, 21, 25, -1,
          19, 17, 21, -1,
          17, 0, 21, -1,
          23, 18, 24, -1,
          1, 16, 23, -1,
          23, 16, 18, -1,
          20, 9, 27, -1,
          6, 11, 20, -1,
          20, 11, 9, -1,
          8, 22, 26, -1,
          8, 10, 22, -1,
          10, 7, 22, -1
        ]
      }
    }
}
