#VRML V2.0 utf8
WorldInfo {
  title "Exported triangle mesh to VRML97"
  info ["Created by FreeCAD"
        "<https://www.freecad.org>"]
}

Transform {
  scale 1 1 1
  rotation 0 0 1 0
  scaleOrientation 0 0 1 0
  center 0.000 0.000 0.000
  translation 0.000 0.000 0.000
  children
    Shape { 
      appearance
      Appearance {
        material
        Material {
          diffuseColor 0.8 0.8 0.8
        }
      }
      geometry
      IndexedFaceSet {
        coord
        Coordinate {
          point [
            5.859 5.000 1.148,
            5.859 5.000 -1.148,
            -5.859 5.000 1.148,
            -5.859 5.000 -1.148,
            -5.859 4.859 -1.290,
            -5.929 4.929 -1.219,
            5.929 4.929 -1.219,
            5.859 4.859 -1.290,
            -6.000 -4.859 -1.148,
            -5.859 -4.859 -1.290,
            -5.929 -4.929 -1.219,
            -6.000 4.859 -1.148,
            -5.859 -5.000 -1.148,
            5.929 -4.929 -1.219,
            5.859 -5.000 -1.148,
            5.859 -4.859 -1.290,
            5.859 -5.000 1.148,
            -5.859 -5.000 1.148,
            6.000 -4.859 1.290,
            -6.000 -4.859 1.290,
            -6.000 4.859 1.290,
            -6.000 3.900 1.082,
            6.000 4.859 1.290,
            6.000 3.900 1.082,
            -6.000 2.933 0.920,
            6.000 2.933 0.920,
            -6.000 1.959 0.803,
            6.000 1.959 0.803,
            -6.000 0.981 0.734,
            6.000 0.981 0.734,
            -6.000 0.000 0.710,
            6.000 0.000 0.710,
            6.000 -0.981 0.734,
            -6.000 -0.981 0.734,
            -6.000 -1.959 0.803,
            6.000 -1.959 0.803,
            6.000 -2.933 0.920,
            -6.000 -2.933 0.920,
            -6.000 -3.900 1.082,
            6.000 -3.900 1.082,
            6.000 4.859 -1.148,
            6.000 -4.859 -1.148
          ]
        }
        coordIndex [
          0, 1, 2, -1,
          2, 1, 3, -1,
          3, 4, 5, -1,
          6, 7, 1, -1,
          1, 7, 3, -1,
          3, 7, 4, -1,
          8, 9, 10, -1,
          5, 4, 11, -1,
          11, 4, 8, -1,
          8, 4, 9, -1,
          9, 12, 10, -1,
          13, 14, 15, -1,
          15, 14, 9, -1,
          9, 14, 12, -1,
          14, 16, 12, -1,
          12, 16, 17, -1,
          16, 18, 17, -1,
          17, 18, 19, -1,
          20, 21, 22, -1,
          22, 21, 23, -1,
          23, 24, 25, -1,
          21, 24, 23, -1,
          25, 26, 27, -1,
          24, 26, 25, -1,
          27, 28, 29, -1,
          26, 28, 27, -1,
          29, 30, 31, -1,
          31, 30, 32, -1,
          28, 30, 29, -1,
          30, 33, 32, -1,
          32, 34, 35, -1,
          35, 34, 36, -1,
          33, 34, 32, -1,
          34, 37, 36, -1,
          36, 38, 39, -1,
          37, 38, 36, -1,
          39, 19, 18, -1,
          38, 19, 39, -1,
          38, 8, 19, -1,
          37, 8, 38, -1,
          34, 8, 37, -1,
          33, 8, 34, -1,
          30, 8, 33, -1,
          11, 28, 26, -1,
          11, 30, 28, -1,
          11, 8, 30, -1,
          24, 11, 26, -1,
          21, 11, 24, -1,
          20, 11, 21, -1,
          12, 8, 10, -1,
          12, 17, 8, -1,
          17, 19, 8, -1,
          11, 3, 5, -1,
          20, 2, 11, -1,
          11, 2, 3, -1,
          22, 0, 20, -1,
          20, 0, 2, -1,
          1, 40, 6, -1,
          1, 0, 40, -1,
          0, 22, 40, -1,
          41, 39, 18, -1,
          41, 36, 39, -1,
          41, 35, 36, -1,
          41, 32, 35, -1,
          41, 31, 32, -1,
          29, 40, 27, -1,
          31, 40, 29, -1,
          41, 40, 31, -1,
          40, 25, 27, -1,
          40, 23, 25, -1,
          40, 22, 23, -1,
          41, 14, 13, -1,
          18, 16, 41, -1,
          41, 16, 14, -1,
          15, 41, 13, -1,
          15, 7, 41, -1,
          6, 40, 7, -1,
          7, 40, 41, -1,
          4, 7, 9, -1,
          7, 15, 9, -1
        ]
      }
    }
}
