#VRML V2.0 utf8
WorldInfo {
  title "Exported triangle mesh to VRML97"
  info ["Created by FreeCAD"
        "<https://www.freecad.org>"]
}

Transform {
  scale 1 1 1
  rotation 0 0 1 0
  scaleOrientation 0 0 1 0
  center 0.000 0.000 0.000
  translation 0.000 0.000 0.000
  children
    Shape { 
      appearance
      Appearance {
        material
        Material {
          diffuseColor 0.8 0.8 0.8
        }
      }
      geometry
      IndexedFaceSet {
        coord
        Coordinate {
          point [
            -6.000 -3.900 1.082,
            -6.000 -4.859 -1.148,
            -6.000 -4.859 1.290,
            -6.000 -2.933 0.920,
            -6.000 -1.959 0.803,
            -6.000 -0.981 0.734,
            -6.000 0.000 0.710,
            -6.000 4.859 -1.148,
            -6.000 0.981 0.734,
            -6.000 1.959 0.803,
            -6.000 2.933 0.920,
            -6.000 3.900 1.082,
            -6.000 4.859 1.290,
            -5.859 -5.000 -1.148,
            -5.929 -4.929 -1.219,
            -5.859 -5.000 1.148,
            -5.859 -4.859 -1.290,
            -5.929 4.929 -1.219,
            -5.859 4.859 -1.290,
            5.929 -4.929 -1.219,
            5.859 -5.000 -1.148,
            5.859 -4.859 -1.290,
            5.859 -5.000 1.148,
            6.000 -4.859 1.290,
            6.000 4.859 1.290,
            6.000 3.900 1.082,
            6.000 2.933 0.920,
            6.000 1.959 0.803,
            6.000 0.981 0.734,
            6.000 0.000 0.710,
            6.000 -0.981 0.734,
            6.000 -1.959 0.803,
            6.000 -2.933 0.920,
            6.000 -3.900 1.082,
            6.000 -4.859 -1.148,
            6.000 4.859 -1.148,
            5.859 4.859 -1.290,
            5.929 4.929 -1.219,
            -5.859 5.000 -1.148,
            5.859 5.000 -1.148,
            -5.859 5.000 1.148,
            5.859 5.000 1.148
          ]
        }
        coordIndex [
          0, 1, 2, -1,
          3, 1, 0, -1,
          4, 1, 3, -1,
          5, 1, 4, -1,
          6, 1, 5, -1,
          7, 8, 9, -1,
          7, 6, 8, -1,
          7, 1, 6, -1,
          10, 7, 9, -1,
          11, 7, 10, -1,
          12, 7, 11, -1,
          13, 1, 14, -1,
          13, 15, 1, -1,
          15, 2, 1, -1,
          1, 16, 14, -1,
          17, 18, 7, -1,
          7, 18, 1, -1,
          1, 18, 16, -1,
          16, 13, 14, -1,
          19, 20, 21, -1,
          21, 20, 16, -1,
          16, 20, 13, -1,
          20, 22, 13, -1,
          13, 22, 15, -1,
          22, 23, 15, -1,
          15, 23, 2, -1,
          12, 11, 24, -1,
          24, 11, 25, -1,
          25, 10, 26, -1,
          11, 10, 25, -1,
          26, 9, 27, -1,
          10, 9, 26, -1,
          27, 8, 28, -1,
          9, 8, 27, -1,
          28, 6, 29, -1,
          29, 6, 30, -1,
          8, 6, 28, -1,
          6, 5, 30, -1,
          30, 4, 31, -1,
          31, 4, 32, -1,
          5, 4, 30, -1,
          4, 3, 32, -1,
          32, 0, 33, -1,
          3, 0, 32, -1,
          33, 2, 23, -1,
          0, 2, 33, -1,
          34, 33, 23, -1,
          34, 32, 33, -1,
          34, 31, 32, -1,
          34, 30, 31, -1,
          34, 29, 30, -1,
          28, 35, 27, -1,
          29, 35, 28, -1,
          34, 35, 29, -1,
          35, 26, 27, -1,
          35, 25, 26, -1,
          35, 24, 25, -1,
          34, 20, 19, -1,
          23, 22, 34, -1,
          34, 22, 20, -1,
          21, 34, 19, -1,
          21, 36, 34, -1,
          37, 35, 36, -1,
          36, 35, 34, -1,
          18, 36, 16, -1,
          36, 21, 16, -1,
          38, 18, 17, -1,
          37, 36, 39, -1,
          39, 36, 38, -1,
          38, 36, 18, -1,
          7, 38, 17, -1,
          12, 40, 7, -1,
          7, 40, 38, -1,
          41, 39, 40, -1,
          40, 39, 38, -1,
          24, 41, 12, -1,
          12, 41, 40, -1,
          39, 35, 37, -1,
          39, 41, 35, -1,
          41, 24, 35, -1
        ]
      }
    }
}
