#VRML V2.0 utf8
WorldInfo {
  title "Exported triangle mesh to VRML97"
  info ["Created by FreeCAD"
        "<https://www.freecad.org>"]
}

Transform {
  scale 1 1 1
  rotation 0 0 1 0
  scaleOrientation 0 0 1 0
  center 0.000 0.000 0.000
  translation 0.000 0.000 0.000
  children
    Shape { 
      appearance
      Appearance {
        material
        Material {
          diffuseColor 0.8 0.8 0.8
        }
      }
      geometry
      IndexedFaceSet {
        coord
        Coordinate {
          point [
            -10.859 -10.000 -1.836,
            -11.000 -9.859 -1.836,
            -10.929 -9.929 -1.907,
            -10.859 -10.000 1.836,
            -11.000 -9.859 1.977,
            -11.000 -8.679 1.524,
            -11.000 -7.478 1.128,
            -11.000 -6.259 0.792,
            -11.000 -5.025 0.516,
            -11.000 -3.779 0.301,
            -11.000 -2.525 0.146,
            -11.000 -1.264 0.054,
            -11.000 9.859 -1.836,
            -11.000 5.025 0.516,
            -11.000 6.259 0.792,
            -11.000 3.779 0.301,
            -11.000 2.525 0.146,
            -11.000 1.264 0.054,
            -11.000 7.478 1.128,
            -11.000 8.679 1.524,
            -11.000 9.859 1.977,
            -11.000 0.000 0.023,
            11.000 9.859 1.977,
            11.000 8.679 1.524,
            11.000 7.478 1.128,
            11.000 6.259 0.792,
            11.000 5.025 0.516,
            11.000 3.779 0.301,
            11.000 2.525 0.146,
            11.000 1.264 0.054,
            11.000 0.000 0.023,
            11.000 -1.264 0.054,
            11.000 -2.525 0.146,
            11.000 -3.779 0.301,
            11.000 -5.025 0.516,
            11.000 -6.259 0.792,
            11.000 -7.478 1.128,
            11.000 -8.679 1.524,
            11.000 -9.859 1.977,
            10.859 -10.000 1.836,
            10.859 -10.000 -1.836,
            -10.859 -9.859 -1.977,
            10.929 -9.929 -1.907,
            10.859 -9.859 -1.977,
            -10.929 9.929 -1.907,
            -10.859 9.859 -1.977,
            -10.859 10.000 -1.836,
            -10.859 10.000 1.836,
            10.859 10.000 1.836,
            10.859 10.000 -1.836,
            10.929 9.929 -1.907,
            10.859 9.859 -1.977,
            11.000 9.859 -1.836,
            11.000 -9.859 -1.836
          ]
        }
        coordIndex [
          0, 1, 2, -1,
          0, 3, 1, -1,
          3, 4, 1, -1,
          5, 1, 4, -1,
          6, 1, 5, -1,
          7, 1, 6, -1,
          8, 1, 7, -1,
          9, 1, 8, -1,
          10, 1, 9, -1,
          11, 1, 10, -1,
          12, 13, 14, -1,
          12, 15, 13, -1,
          12, 16, 15, -1,
          12, 17, 16, -1,
          18, 12, 14, -1,
          19, 12, 18, -1,
          20, 12, 19, -1,
          12, 1, 21, -1,
          21, 1, 11, -1,
          12, 21, 17, -1,
          20, 19, 22, -1,
          22, 19, 23, -1,
          23, 18, 24, -1,
          19, 18, 23, -1,
          24, 14, 25, -1,
          18, 14, 24, -1,
          25, 13, 26, -1,
          14, 13, 25, -1,
          26, 15, 27, -1,
          13, 15, 26, -1,
          27, 16, 28, -1,
          28, 16, 29, -1,
          15, 16, 27, -1,
          16, 17, 29, -1,
          29, 21, 30, -1,
          17, 21, 29, -1,
          30, 11, 31, -1,
          31, 11, 32, -1,
          21, 11, 30, -1,
          11, 10, 32, -1,
          32, 9, 33, -1,
          10, 9, 32, -1,
          33, 8, 34, -1,
          34, 8, 35, -1,
          9, 8, 33, -1,
          8, 7, 35, -1,
          35, 6, 36, -1,
          7, 6, 35, -1,
          36, 5, 37, -1,
          37, 5, 38, -1,
          6, 5, 36, -1,
          5, 4, 38, -1,
          39, 38, 3, -1,
          3, 38, 4, -1,
          40, 39, 0, -1,
          0, 39, 3, -1,
          41, 0, 2, -1,
          42, 40, 43, -1,
          43, 40, 41, -1,
          41, 40, 0, -1,
          1, 41, 2, -1,
          44, 45, 12, -1,
          12, 45, 1, -1,
          1, 45, 41, -1,
          12, 46, 44, -1,
          20, 47, 12, -1,
          12, 47, 46, -1,
          48, 49, 47, -1,
          47, 49, 46, -1,
          46, 45, 44, -1,
          50, 51, 49, -1,
          49, 51, 46, -1,
          46, 51, 45, -1,
          49, 52, 50, -1,
          49, 48, 52, -1,
          48, 22, 52, -1,
          53, 37, 38, -1,
          53, 36, 37, -1,
          53, 35, 36, -1,
          53, 34, 35, -1,
          53, 33, 34, -1,
          53, 32, 33, -1,
          53, 31, 32, -1,
          26, 52, 25, -1,
          27, 52, 26, -1,
          28, 52, 27, -1,
          29, 52, 28, -1,
          52, 24, 25, -1,
          52, 23, 24, -1,
          52, 22, 23, -1,
          53, 52, 30, -1,
          53, 30, 31, -1,
          30, 52, 29, -1,
          53, 40, 42, -1,
          38, 39, 53, -1,
          53, 39, 40, -1,
          43, 53, 42, -1,
          43, 51, 53, -1,
          50, 52, 51, -1,
          51, 52, 53, -1,
          45, 51, 41, -1,
          51, 43, 41, -1,
          22, 48, 20, -1,
          20, 48, 47, -1
        ]
      }
    }
}
