#VRML V2.0 utf8
WorldInfo {
  title "Exported triangle mesh to VRML97"
  info ["Created by FreeCAD"
        "<https://www.freecad.org>"]
}

Transform {
  scale 1 1 1
  rotation 0 0 1 0
  scaleOrientation 0 0 1 0
  center 0.000 0.000 0.000
  translation 0.000 0.000 0.000
  children
    Shape { 
      appearance
      Appearance {
        material
        Material {
          diffuseColor 0.8 0.8 0.8
        }
      }
      geometry
      IndexedFaceSet {
        coord
        Coordinate {
          point [
            -6.000 4.859 1.856,
            -6.000 4.561 1.628,
            6.000 4.859 1.856,
            6.000 4.561 1.628,
            -6.000 4.252 1.415,
            6.000 4.252 1.415,
            -6.000 3.934 1.217,
            6.000 3.934 1.217,
            6.000 3.606 1.034,
            -6.000 3.606 1.034,
            6.000 3.270 0.868,
            -6.000 3.270 0.868,
            -6.000 2.926 0.718,
            6.000 2.926 0.718,
            6.000 2.576 0.585,
            -6.000 2.576 0.585,
            -6.000 2.219 0.468,
            6.000 2.219 0.468,
            -6.000 1.857 0.370,
            6.000 1.857 0.370,
            -6.000 1.491 0.289,
            6.000 1.491 0.289,
            -6.000 1.121 0.226,
            6.000 1.121 0.226,
            -6.000 0.749 0.180,
            6.000 0.749 0.180,
            -6.000 0.375 0.153,
            6.000 0.375 0.153,
            -6.000 0.000 0.144,
            6.000 0.000 0.144,
            6.000 -0.375 0.153,
            -6.000 -0.375 0.153,
            -6.000 -0.749 0.180,
            6.000 -0.749 0.180,
            -6.000 -1.121 0.226,
            6.000 -1.121 0.226,
            6.000 -1.491 0.289,
            -6.000 -1.491 0.289,
            -6.000 -1.857 0.370,
            6.000 -1.857 0.370,
            6.000 -2.219 0.468,
            -6.000 -2.219 0.468,
            -6.000 -2.576 0.585,
            6.000 -2.576 0.585,
            6.000 -2.926 0.718,
            -6.000 -2.926 0.718,
            -6.000 -3.270 0.868,
            6.000 -3.270 0.868,
            -6.000 -3.606 1.034,
            6.000 -3.606 1.034,
            6.000 -3.934 1.217,
            -6.000 -3.934 1.217,
            -6.000 -4.252 1.415,
            6.000 -4.252 1.415,
            -6.000 -4.561 1.628,
            6.000 -4.561 1.628,
            6.000 -4.859 1.856,
            -6.000 -4.859 1.856,
            5.859 -5.000 -1.715,
            5.859 -5.000 1.715,
            -5.859 -5.000 -1.715,
            -5.859 -5.000 1.715,
            -5.859 4.859 -1.856,
            5.859 4.859 -1.856,
            -5.859 -4.859 -1.856,
            5.859 -4.859 -1.856,
            5.859 5.000 1.715,
            5.859 5.000 -1.715,
            -5.859 5.000 1.715,
            -5.859 5.000 -1.715,
            6.000 -4.859 -1.715,
            6.000 4.859 -1.715,
            -6.000 -4.859 -1.715,
            -6.000 4.859 -1.715,
            -5.929 4.929 -1.785,
            5.929 4.929 -1.785,
            -5.929 -4.929 -1.785,
            5.929 -4.929 -1.785
          ]
        }
        coordIndex [
          0, 1, 2, -1,
          2, 1, 3, -1,
          3, 4, 5, -1,
          1, 4, 3, -1,
          5, 6, 7, -1,
          7, 6, 8, -1,
          4, 6, 5, -1,
          8, 9, 10, -1,
          6, 9, 8, -1,
          9, 11, 10, -1,
          10, 12, 13, -1,
          13, 12, 14, -1,
          11, 12, 10, -1,
          12, 15, 14, -1,
          14, 16, 17, -1,
          15, 16, 14, -1,
          17, 18, 19, -1,
          16, 18, 17, -1,
          19, 20, 21, -1,
          18, 20, 19, -1,
          20, 22, 21, -1,
          21, 22, 23, -1,
          22, 24, 23, -1,
          23, 24, 25, -1,
          25, 26, 27, -1,
          24, 26, 25, -1,
          27, 28, 29, -1,
          29, 28, 30, -1,
          26, 28, 27, -1,
          28, 31, 30, -1,
          30, 32, 33, -1,
          31, 32, 30, -1,
          33, 34, 35, -1,
          35, 34, 36, -1,
          32, 34, 33, -1,
          34, 37, 36, -1,
          36, 38, 39, -1,
          39, 38, 40, -1,
          37, 38, 36, -1,
          38, 41, 40, -1,
          40, 42, 43, -1,
          43, 42, 44, -1,
          41, 42, 40, -1,
          42, 45, 44, -1,
          44, 46, 47, -1,
          45, 46, 44, -1,
          47, 48, 49, -1,
          49, 48, 50, -1,
          46, 48, 47, -1,
          48, 51, 50, -1,
          50, 52, 53, -1,
          51, 52, 50, -1,
          53, 54, 55, -1,
          55, 54, 56, -1,
          52, 54, 53, -1,
          54, 57, 56, -1,
          58, 59, 60, -1,
          60, 59, 61, -1,
          62, 63, 64, -1,
          63, 65, 64, -1,
          66, 67, 68, -1,
          68, 67, 69, -1,
          70, 55, 56, -1,
          70, 53, 55, -1,
          70, 50, 53, -1,
          70, 49, 50, -1,
          70, 47, 49, -1,
          70, 44, 47, -1,
          70, 43, 44, -1,
          70, 40, 43, -1,
          70, 39, 40, -1,
          70, 36, 39, -1,
          70, 35, 36, -1,
          70, 33, 35, -1,
          70, 30, 33, -1,
          70, 29, 30, -1,
          19, 71, 17, -1,
          21, 71, 19, -1,
          23, 71, 21, -1,
          25, 71, 23, -1,
          27, 71, 25, -1,
          29, 71, 27, -1,
          70, 71, 29, -1,
          71, 14, 17, -1,
          71, 13, 14, -1,
          71, 10, 13, -1,
          71, 8, 10, -1,
          71, 7, 8, -1,
          71, 5, 7, -1,
          71, 3, 5, -1,
          71, 2, 3, -1,
          54, 72, 57, -1,
          52, 72, 54, -1,
          51, 72, 52, -1,
          48, 72, 51, -1,
          46, 72, 48, -1,
          45, 72, 46, -1,
          42, 72, 45, -1,
          41, 72, 42, -1,
          38, 72, 41, -1,
          37, 72, 38, -1,
          34, 72, 37, -1,
          32, 72, 34, -1,
          31, 72, 32, -1,
          28, 72, 31, -1,
          73, 18, 16, -1,
          73, 20, 18, -1,
          73, 22, 20, -1,
          73, 24, 22, -1,
          73, 26, 24, -1,
          73, 28, 26, -1,
          73, 72, 28, -1,
          15, 73, 16, -1,
          12, 73, 15, -1,
          11, 73, 12, -1,
          9, 73, 11, -1,
          6, 73, 9, -1,
          4, 73, 6, -1,
          1, 73, 4, -1,
          0, 73, 1, -1,
          2, 66, 0, -1,
          0, 66, 68, -1,
          59, 56, 61, -1,
          61, 56, 57, -1,
          69, 62, 74, -1,
          75, 63, 67, -1,
          67, 63, 69, -1,
          69, 63, 62, -1,
          64, 60, 76, -1,
          77, 58, 65, -1,
          65, 58, 64, -1,
          64, 58, 60, -1,
          72, 64, 76, -1,
          74, 62, 73, -1,
          73, 62, 72, -1,
          72, 62, 64, -1,
          65, 70, 77, -1,
          65, 63, 70, -1,
          75, 71, 63, -1,
          63, 71, 70, -1,
          67, 71, 75, -1,
          67, 66, 71, -1,
          66, 2, 71, -1,
          73, 69, 74, -1,
          0, 68, 73, -1,
          73, 68, 69, -1,
          70, 58, 77, -1,
          56, 59, 70, -1,
          70, 59, 58, -1,
          60, 72, 76, -1,
          60, 61, 72, -1,
          61, 57, 72, -1
        ]
      }
    }
}
