#VRML V2.0 utf8
WorldInfo {
  title "Exported triangle mesh to VRML97"
  info ["Created by FreeCAD"
        "<https://www.freecad.org>"]
}

Transform {
  scale 1 1 1
  rotation 0 0 1 0
  scaleOrientation 0 0 1 0
  center 0.000 0.000 0.000
  translation 0.000 0.000 0.000
  children
    Shape { 
      appearance
      Appearance {
        material
        Material {
          diffuseColor 0.8 0.8 0.8
        }
      }
      geometry
      IndexedFaceSet {
        coord
        Coordinate {
          point [
            7.359 -6.500 -2.842,
            7.359 -6.500 2.842,
            -7.359 -6.500 -2.842,
            -7.359 -6.500 2.842,
            7.500 -6.359 2.983,
            -7.500 -6.359 2.983,
            -7.500 6.359 2.983,
            -7.500 6.196 2.672,
            7.500 6.359 2.983,
            7.500 6.196 2.672,
            -7.500 6.019 2.369,
            7.500 6.019 2.369,
            7.500 5.827 2.075,
            -7.500 5.827 2.075,
            -7.500 5.621 1.792,
            7.500 5.621 1.792,
            -7.500 5.400 1.518,
            7.500 5.400 1.518,
            7.500 5.167 1.256,
            -7.500 5.167 1.256,
            -7.500 4.921 1.006,
            7.500 4.921 1.006,
            7.500 4.662 0.769,
            -7.500 4.662 0.769,
            -7.500 4.392 0.544,
            7.500 4.392 0.544,
            7.500 4.112 0.333,
            -7.500 4.112 0.333,
            7.500 3.821 0.137,
            -7.500 3.821 0.137,
            -7.500 3.521 -0.045,
            7.500 3.521 -0.045,
            -7.500 3.213 -0.212,
            7.500 3.213 -0.212,
            -7.500 2.896 -0.364,
            7.500 2.896 -0.364,
            7.500 2.572 -0.499,
            -7.500 2.572 -0.499,
            -7.500 2.242 -0.619,
            7.500 2.242 -0.619,
            -7.500 1.907 -0.722,
            7.500 1.907 -0.722,
            -7.500 1.566 -0.808,
            7.500 1.566 -0.808,
            -7.500 1.222 -0.877,
            7.500 1.222 -0.877,
            -7.500 0.875 -0.929,
            7.500 0.875 -0.929,
            7.500 0.526 -0.964,
            -7.500 0.526 -0.964,
            -7.500 0.175 -0.981,
            7.500 0.175 -0.981,
            -7.500 -0.175 -0.981,
            7.500 -0.175 -0.981,
            7.500 -0.526 -0.964,
            -7.500 -0.526 -0.964,
            -7.500 -0.875 -0.929,
            7.500 -0.875 -0.929,
            -7.500 -1.222 -0.877,
            7.500 -1.222 -0.877,
            -7.500 -1.566 -0.808,
            7.500 -1.566 -0.808,
            -7.500 -1.907 -0.722,
            7.500 -1.907 -0.722,
            -7.500 -2.242 -0.619,
            7.500 -2.242 -0.619,
            7.500 -2.572 -0.499,
            -7.500 -2.572 -0.499,
            -7.500 -2.896 -0.364,
            7.500 -2.896 -0.364,
            -7.500 -3.213 -0.212,
            7.500 -3.213 -0.212,
            -7.500 -3.521 -0.045,
            7.500 -3.521 -0.045,
            -7.500 -3.821 0.137,
            7.500 -3.821 0.137,
            -7.500 -4.112 0.333,
            7.500 -4.112 0.333,
            -7.500 -4.392 0.544,
            7.500 -4.392 0.544,
            -7.500 -4.662 0.769,
            7.500 -4.662 0.769,
            -7.500 -4.921 1.006,
            7.500 -4.921 1.006,
            -7.500 -5.167 1.256,
            7.500 -5.167 1.256,
            -7.500 -5.400 1.518,
            7.500 -5.400 1.518,
            -7.500 -5.621 1.792,
            7.500 -5.621 1.792,
            -7.500 -5.827 2.075,
            7.500 -5.827 2.075,
            -7.500 -6.019 2.369,
            7.500 -6.019 2.369,
            -7.500 -6.196 2.672,
            7.500 -6.196 2.672,
            -7.500 -6.359 -2.842,
            -7.500 6.359 -2.842,
            -7.429 -6.429 -2.912,
            -7.359 -6.359 -2.983,
            -7.429 6.429 -2.912,
            -7.359 6.359 -2.983,
            7.429 -6.429 -2.912,
            7.359 -6.359 -2.983,
            7.359 6.359 -2.983,
            -7.359 6.500 -2.842,
            7.429 6.429 -2.912,
            7.359 6.500 -2.842,
            -7.359 6.500 2.842,
            7.359 6.500 2.842,
            7.500 6.359 -2.842,
            7.500 -6.359 -2.842
          ]
        }
        coordIndex [
          0, 1, 2, -1,
          2, 1, 3, -1,
          1, 4, 3, -1,
          3, 4, 5, -1,
          6, 7, 8, -1,
          8, 7, 9, -1,
          9, 10, 11, -1,
          11, 10, 12, -1,
          7, 10, 9, -1,
          10, 13, 12, -1,
          12, 14, 15, -1,
          13, 14, 12, -1,
          15, 16, 17, -1,
          17, 16, 18, -1,
          14, 16, 15, -1,
          16, 19, 18, -1,
          18, 20, 21, -1,
          21, 20, 22, -1,
          19, 20, 18, -1,
          20, 23, 22, -1,
          22, 24, 25, -1,
          25, 24, 26, -1,
          23, 24, 22, -1,
          26, 27, 28, -1,
          24, 27, 26, -1,
          27, 29, 28, -1,
          28, 30, 31, -1,
          29, 30, 28, -1,
          31, 32, 33, -1,
          30, 32, 31, -1,
          33, 34, 35, -1,
          35, 34, 36, -1,
          32, 34, 33, -1,
          34, 37, 36, -1,
          36, 38, 39, -1,
          37, 38, 36, -1,
          39, 40, 41, -1,
          38, 40, 39, -1,
          41, 42, 43, -1,
          40, 42, 41, -1,
          43, 44, 45, -1,
          42, 44, 43, -1,
          45, 46, 47, -1,
          47, 46, 48, -1,
          44, 46, 45, -1,
          46, 49, 48, -1,
          48, 50, 51, -1,
          49, 50, 48, -1,
          51, 52, 53, -1,
          53, 52, 54, -1,
          50, 52, 51, -1,
          52, 55, 54, -1,
          54, 56, 57, -1,
          55, 56, 54, -1,
          57, 58, 59, -1,
          56, 58, 57, -1,
          58, 60, 59, -1,
          59, 60, 61, -1,
          60, 62, 61, -1,
          61, 62, 63, -1,
          62, 64, 63, -1,
          63, 64, 65, -1,
          65, 64, 66, -1,
          64, 67, 66, -1,
          67, 68, 66, -1,
          66, 68, 69, -1,
          68, 70, 69, -1,
          69, 70, 71, -1,
          70, 72, 71, -1,
          71, 72, 73, -1,
          72, 74, 73, -1,
          73, 74, 75, -1,
          74, 76, 75, -1,
          75, 76, 77, -1,
          77, 78, 79, -1,
          76, 78, 77, -1,
          79, 80, 81, -1,
          78, 80, 79, -1,
          81, 82, 83, -1,
          80, 82, 81, -1,
          83, 84, 85, -1,
          82, 84, 83, -1,
          85, 86, 87, -1,
          84, 86, 85, -1,
          87, 88, 89, -1,
          86, 88, 87, -1,
          89, 90, 91, -1,
          88, 90, 89, -1,
          91, 92, 93, -1,
          90, 92, 91, -1,
          93, 94, 95, -1,
          95, 94, 4, -1,
          92, 94, 93, -1,
          94, 5, 4, -1,
          84, 82, 96, -1,
          80, 96, 82, -1,
          86, 84, 96, -1,
          78, 96, 80, -1,
          88, 86, 96, -1,
          76, 96, 78, -1,
          90, 88, 96, -1,
          74, 96, 76, -1,
          92, 90, 96, -1,
          72, 96, 74, -1,
          94, 92, 96, -1,
          70, 96, 72, -1,
          5, 94, 96, -1,
          68, 96, 70, -1,
          67, 96, 68, -1,
          64, 96, 67, -1,
          62, 96, 64, -1,
          60, 96, 62, -1,
          58, 96, 60, -1,
          56, 96, 58, -1,
          55, 96, 56, -1,
          52, 96, 55, -1,
          50, 96, 52, -1,
          97, 32, 30, -1,
          97, 34, 32, -1,
          97, 37, 34, -1,
          97, 38, 37, -1,
          97, 40, 38, -1,
          97, 42, 40, -1,
          97, 44, 42, -1,
          97, 46, 44, -1,
          97, 49, 46, -1,
          97, 50, 49, -1,
          97, 96, 50, -1,
          29, 97, 30, -1,
          27, 97, 29, -1,
          24, 97, 27, -1,
          23, 97, 24, -1,
          20, 97, 23, -1,
          19, 97, 20, -1,
          16, 97, 19, -1,
          14, 97, 16, -1,
          13, 97, 14, -1,
          10, 97, 13, -1,
          7, 97, 10, -1,
          6, 97, 7, -1,
          2, 96, 98, -1,
          2, 3, 96, -1,
          3, 5, 96, -1,
          96, 99, 98, -1,
          100, 101, 97, -1,
          97, 101, 96, -1,
          96, 101, 99, -1,
          99, 2, 98, -1,
          102, 0, 103, -1,
          103, 0, 99, -1,
          99, 0, 2, -1,
          101, 104, 99, -1,
          104, 103, 99, -1,
          105, 101, 100, -1,
          106, 104, 107, -1,
          107, 104, 105, -1,
          105, 104, 101, -1,
          97, 105, 100, -1,
          6, 108, 97, -1,
          97, 108, 105, -1,
          109, 107, 108, -1,
          108, 107, 105, -1,
          8, 109, 6, -1,
          6, 109, 108, -1,
          107, 110, 106, -1,
          107, 109, 110, -1,
          109, 8, 110, -1,
          83, 85, 111, -1,
          111, 81, 83, -1,
          85, 87, 111, -1,
          111, 79, 81, -1,
          87, 89, 111, -1,
          111, 77, 79, -1,
          89, 91, 111, -1,
          111, 75, 77, -1,
          91, 93, 111, -1,
          111, 73, 75, -1,
          93, 95, 111, -1,
          111, 71, 73, -1,
          95, 4, 111, -1,
          111, 69, 71, -1,
          111, 66, 69, -1,
          111, 65, 66, -1,
          111, 63, 65, -1,
          111, 61, 63, -1,
          111, 59, 61, -1,
          111, 57, 59, -1,
          111, 54, 57, -1,
          111, 53, 54, -1,
          111, 51, 53, -1,
          111, 110, 51, -1,
          33, 110, 31, -1,
          35, 110, 33, -1,
          36, 110, 35, -1,
          39, 110, 36, -1,
          41, 110, 39, -1,
          43, 110, 41, -1,
          45, 110, 43, -1,
          47, 110, 45, -1,
          48, 110, 47, -1,
          51, 110, 48, -1,
          110, 28, 31, -1,
          110, 26, 28, -1,
          110, 25, 26, -1,
          110, 22, 25, -1,
          110, 21, 22, -1,
          110, 18, 21, -1,
          110, 17, 18, -1,
          110, 15, 17, -1,
          110, 12, 15, -1,
          110, 11, 12, -1,
          110, 9, 11, -1,
          110, 8, 9, -1,
          111, 0, 102, -1,
          4, 1, 111, -1,
          111, 1, 0, -1,
          103, 111, 102, -1,
          106, 110, 104, -1,
          104, 110, 103, -1,
          103, 110, 111, -1
        ]
      }
    }
}
