#VRML V2.0 utf8
WorldInfo {
  title "Exported triangle mesh to VRML97"
  info ["Created by FreeCAD"
        "<https://www.freecad.org>"]
}

Transform {
  scale 1 1 1
  rotation 0 0 1 0
  scaleOrientation 0 0 1 0
  center 0.000 0.000 0.000
  translation 0.000 0.000 0.000
  children
    Shape { 
      appearance
      Appearance {
        material
        Material {
          diffuseColor 0.8 0.8 0.8
        }
      }
      geometry
      IndexedFaceSet {
        coord
        Coordinate {
          point [
            -7.478 4.772 1.499,
            -7.500 4.750 1.488,
            7.478 4.772 1.499,
            7.500 4.750 1.488,
            -7.500 4.249 1.276,
            7.500 4.249 1.276,
            -7.500 3.739 1.087,
            7.500 3.739 1.087,
            -7.500 3.221 0.922,
            7.500 3.221 0.922,
            7.500 2.695 0.782,
            -7.500 2.695 0.782,
            -7.500 2.163 0.667,
            7.500 2.163 0.667,
            7.500 1.627 0.577,
            -7.500 1.627 0.577,
            -7.500 1.087 0.513,
            7.500 1.087 0.513,
            -7.500 0.544 0.474,
            7.500 0.544 0.474,
            7.500 -0.000 0.462,
            -7.500 -0.000 0.462,
            -7.500 -0.544 0.474,
            7.500 -0.544 0.474,
            -7.500 -1.087 0.513,
            7.500 -1.087 0.513,
            7.500 -1.627 0.577,
            -7.500 -1.627 0.577,
            -7.500 -2.163 0.667,
            7.500 -2.163 0.667,
            -7.500 -2.695 0.782,
            7.500 -2.695 0.782,
            -7.500 -3.221 0.922,
            7.500 -3.221 0.922,
            7.500 -3.739 1.087,
            -7.500 -3.739 1.087,
            -7.500 -4.249 1.276,
            7.500 -4.249 1.276,
            -7.500 -4.750 1.488,
            7.500 -4.750 1.488,
            -7.478 -4.772 1.499,
            7.478 -4.772 1.499,
            7.250 -5.000 -1.288,
            7.250 -5.000 1.355,
            -7.250 -5.000 -1.288,
            -7.250 -5.000 1.355,
            -7.250 4.750 -1.538,
            7.250 4.750 -1.538,
            -7.250 -4.750 -1.538,
            7.250 -4.750 -1.538,
            7.250 5.000 1.355,
            7.250 5.000 -1.288,
            -7.250 5.000 1.355,
            -7.250 5.000 -1.288,
            7.500 -4.750 -1.288,
            7.500 4.750 -1.288,
            -7.500 -4.750 -1.288,
            -7.500 4.750 -1.288
          ]
        }
        coordIndex [
          0, 1, 2, -1,
          2, 1, 3, -1,
          3, 4, 5, -1,
          1, 4, 3, -1,
          5, 6, 7, -1,
          4, 6, 5, -1,
          7, 8, 9, -1,
          9, 8, 10, -1,
          6, 8, 7, -1,
          8, 11, 10, -1,
          10, 12, 13, -1,
          13, 12, 14, -1,
          11, 12, 10, -1,
          12, 15, 14, -1,
          14, 16, 17, -1,
          15, 16, 14, -1,
          17, 18, 19, -1,
          19, 18, 20, -1,
          16, 18, 17, -1,
          18, 21, 20, -1,
          20, 22, 23, -1,
          21, 22, 20, -1,
          23, 24, 25, -1,
          25, 24, 26, -1,
          22, 24, 23, -1,
          24, 27, 26, -1,
          27, 28, 26, -1,
          26, 28, 29, -1,
          28, 30, 29, -1,
          29, 30, 31, -1,
          30, 32, 31, -1,
          31, 32, 33, -1,
          33, 32, 34, -1,
          32, 35, 34, -1,
          34, 36, 37, -1,
          35, 36, 34, -1,
          36, 38, 37, -1,
          37, 38, 39, -1,
          39, 40, 41, -1,
          38, 40, 39, -1,
          42, 43, 44, -1,
          44, 43, 45, -1,
          46, 47, 48, -1,
          47, 49, 48, -1,
          50, 51, 52, -1,
          52, 51, 53, -1,
          54, 37, 39, -1,
          54, 34, 37, -1,
          54, 33, 34, -1,
          54, 31, 33, -1,
          54, 29, 31, -1,
          54, 26, 29, -1,
          54, 25, 26, -1,
          54, 23, 25, -1,
          54, 20, 23, -1,
          14, 55, 13, -1,
          17, 55, 14, -1,
          19, 55, 17, -1,
          20, 55, 19, -1,
          54, 55, 20, -1,
          55, 10, 13, -1,
          55, 9, 10, -1,
          55, 7, 9, -1,
          55, 5, 7, -1,
          55, 3, 5, -1,
          36, 56, 38, -1,
          35, 56, 36, -1,
          32, 56, 35, -1,
          30, 56, 32, -1,
          28, 56, 30, -1,
          27, 56, 28, -1,
          24, 56, 27, -1,
          22, 56, 24, -1,
          21, 56, 22, -1,
          57, 15, 12, -1,
          57, 16, 15, -1,
          57, 18, 16, -1,
          57, 21, 18, -1,
          57, 56, 21, -1,
          11, 57, 12, -1,
          8, 57, 11, -1,
          6, 57, 8, -1,
          4, 57, 6, -1,
          1, 57, 4, -1,
          50, 52, 2, -1,
          2, 52, 0, -1,
          51, 50, 55, -1,
          55, 50, 3, -1,
          3, 50, 2, -1,
          47, 53, 51, -1,
          47, 46, 53, -1,
          1, 0, 52, -1,
          57, 52, 53, -1,
          57, 1, 52, -1,
          51, 55, 47, -1,
          53, 46, 57, -1,
          49, 55, 54, -1,
          49, 47, 55, -1,
          42, 48, 49, -1,
          42, 44, 48, -1,
          48, 57, 46, -1,
          56, 57, 48, -1,
          54, 42, 49, -1,
          56, 48, 44, -1,
          41, 43, 39, -1,
          43, 54, 39, -1,
          43, 42, 54, -1,
          45, 56, 44, -1,
          38, 45, 40, -1,
          38, 56, 45, -1,
          41, 40, 45, -1,
          41, 45, 43, -1
        ]
      }
    }
}
