#VRML V2.0 utf8
WorldInfo {
  title "Exported triangle mesh to VRML97"
  info ["Created by FreeCAD"
        "<https://www.freecad.org>"]
}

Transform {
  scale 1 1 1
  rotation 0 0 1 0
  scaleOrientation 0 0 1 0
  center 0.000 0.000 0.000
  translation 0.000 0.000 0.000
  children
    Shape { 
      appearance
      Appearance {
        material
        Material {
          diffuseColor 0.8 0.8 0.8
        }
      }
      geometry
      IndexedFaceSet {
        coord
        Coordinate {
          point [
            5.356 24.120 1.000,
            5.328 24.094 1.000,
            5.343 24.106 1.000,
            5.364 24.130 1.000,
            5.294 24.075 1.000,
            5.312 24.083 1.000,
            5.371 24.140 1.000,
            5.283 24.070 1.000,
            5.376 24.149 1.000,
            5.391 24.183 1.000,
            5.385 24.167 1.000,
            5.394 24.196 1.000,
            5.270 24.066 1.000,
            5.397 24.207 1.000,
            5.252 24.062 1.000,
            5.399 24.226 1.000,
            5.382 24.350 1.000,
            5.376 24.359 1.000,
            5.388 24.338 1.000,
            5.352 24.387 1.000,
            5.393 24.322 1.000,
            5.365 24.374 1.000,
            5.337 24.398 1.000,
            5.398 24.304 1.000,
            5.321 24.407 1.000,
            5.399 24.293 1.000,
            5.310 24.413 1.000,
            5.401 24.282 1.000,
            5.299 24.417 1.000,
            5.289 24.420 1.000,
            5.271 24.425 1.000,
            5.401 24.265 1.000,
            5.401 24.246 1.000,
            5.252 24.428 1.000,
            5.234 24.430 1.000,
            5.230 24.058 1.000,
            5.205 24.433 1.000,
            5.210 24.056 1.000,
            5.176 24.433 1.000,
            5.188 24.054 1.000,
            5.155 24.053 1.000,
            5.022 24.433 1.000,
            5.022 24.053 1.000,
            35.700 0.300 1.000,
            5.718 23.547 1.000,
            0.300 0.300 1.000,
            35.700 24.700 1.000,
            5.565 23.547 1.000,
            5.022 23.547 1.000,
            5.455 24.052 1.000,
            5.447 24.044 1.000,
            5.468 24.066 1.000,
            5.477 24.077 1.000,
            5.486 24.089 1.000,
            5.496 24.103 1.000,
            5.505 24.118 1.000,
            5.514 24.136 1.000,
            5.518 24.146 1.000,
            5.524 24.163 1.000,
            5.528 24.174 1.000,
            4.895 23.547 1.000,
            5.531 24.186 1.000,
            5.533 24.198 1.000,
            5.536 24.211 1.000,
            5.538 24.230 1.000,
            5.540 24.247 1.000,
            5.230 23.939 1.000,
            5.541 24.273 1.000,
            5.540 24.300 1.000,
            5.539 24.313 1.000,
            5.537 24.326 1.000,
            5.535 24.337 1.000,
            5.532 24.350 1.000,
            5.528 24.365 1.000,
            5.522 24.382 1.000,
            5.518 24.391 1.000,
            4.667 23.547 1.000,
            5.513 24.401 1.000,
            5.507 24.412 1.000,
            5.022 23.939 1.000,
            5.500 24.423 1.000,
            5.491 24.434 1.000,
            5.481 24.446 1.000,
            5.470 24.459 1.000,
            4.667 23.661 1.000,
            4.471 23.971 1.000,
            4.447 23.946 1.000,
            4.421 23.922 1.000,
            4.497 23.999 1.000,
            4.516 24.021 1.000,
            4.346 23.851 1.000,
            4.534 24.043 1.000,
            4.276 23.789 1.000,
            4.549 24.063 1.000,
            3.984 23.547 1.000,
            4.895 24.547 1.000,
            4.629 24.295 1.000,
            4.628 24.267 1.000,
            4.628 24.318 1.000,
            4.628 24.329 1.000,
            4.626 24.340 1.000,
            4.623 24.359 1.000,
            4.620 24.371 1.000,
            4.616 24.386 1.000,
            4.610 24.403 1.000,
            4.606 24.413 1.000,
            4.601 24.423 1.000,
            4.595 24.433 1.000,
            4.588 24.444 1.000,
            4.580 24.456 1.000,
            3.667 23.547 1.000,
            3.984 23.686 1.000,
            4.481 24.349 1.000,
            4.474 24.367 1.000,
            4.484 24.339 1.000,
            4.570 24.468 1.000,
            4.465 24.383 1.000,
            4.559 24.480 1.000,
            4.545 24.493 1.000,
            4.445 24.407 1.000,
            4.486 24.329 1.000,
            4.455 24.396 1.000,
            4.532 24.505 1.000,
            4.435 24.416 1.000,
            4.523 24.511 1.000,
            4.514 24.517 1.000,
            3.541 23.547 1.000,
            3.819 23.825 1.000,
            4.125 23.806 1.000,
            4.425 24.424 1.000,
            4.415 24.430 1.000,
            4.505 24.523 1.000,
            4.405 24.435 1.000,
            4.488 24.318 1.000,
            4.489 24.307 1.000,
            4.494 24.529 1.000,
            4.483 24.534 1.000,
            4.388 24.443 1.000,
            4.490 24.291 1.000,
            4.471 24.540 1.000,
            4.372 24.448 1.000,
            4.359 24.451 1.000,
            4.489 24.275 1.000,
            4.454 24.547 1.000,
            4.348 24.454 1.000,
            4.489 24.264 1.000,
            4.436 24.553 1.000,
            3.819 23.939 1.000,
            4.194 23.866 1.000,
            4.262 23.930 1.000,
            4.329 24.456 1.000,
            4.487 24.251 1.000,
            4.418 24.558 1.000,
            4.311 24.458 1.000,
            4.485 24.237 1.000,
            4.481 24.218 1.000,
            3.667 23.825 1.000,
            4.400 24.562 1.000,
            4.292 24.458 1.000,
            4.477 24.204 1.000,
            4.471 24.187 1.000,
            4.378 24.566 1.000,
            4.463 24.170 1.000,
            4.267 24.457 1.000,
            4.458 24.159 1.000,
            4.248 24.456 1.000,
            4.452 24.148 1.000,
            4.443 24.133 1.000,
            4.354 24.569 1.000,
            4.225 24.453 1.000,
            4.431 24.116 1.000,
            5.171 24.547 1.000,
            4.332 24.571 1.000,
            4.202 24.448 1.000,
            4.415 24.094 1.000,
            4.182 24.443 1.000,
            4.157 24.436 1.000,
            4.374 24.045 1.000,
            4.129 24.427 1.000,
            4.109 24.419 1.000,
            4.089 24.410 1.000,
            4.065 24.399 1.000,
            4.337 24.006 1.000,
            4.045 24.388 1.000,
            4.030 24.379 1.000,
            4.016 24.370 1.000,
            4.009 24.370 1.000,
            3.667 23.939 1.000,
            3.541 23.825 1.000,
            3.059 23.825 1.000,
            4.031 24.520 1.000,
            3.667 24.547 1.000,
            4.009 24.510 1.000,
            4.050 24.527 1.000,
            4.080 24.537 1.000,
            4.120 24.549 1.000,
            4.155 24.557 1.000,
            4.189 24.563 1.000,
            4.220 24.568 1.000,
            4.247 24.570 1.000,
            3.546 24.547 1.000,
            4.271 24.572 1.000,
            2.452 23.547 1.000,
            3.059 23.981 1.000,
            2.895 24.032 1.000,
            2.883 24.019 1.000,
            2.863 24.000 1.000,
            2.907 24.045 1.000,
            2.849 23.988 1.000,
            2.917 24.060 1.000,
            2.834 23.977 1.000,
            2.923 24.069 1.000,
            2.818 23.967 1.000,
            2.930 24.080 1.000,
            2.802 23.958 1.000,
            2.939 24.097 1.000,
            2.785 23.950 1.000,
            2.947 24.115 1.000,
            2.769 23.943 1.000,
            2.953 24.132 1.000,
            2.751 23.937 1.000,
            2.957 24.144 1.000,
            2.733 23.931 1.000,
            2.962 24.162 1.000,
            2.715 23.927 1.000,
            2.966 24.180 1.000,
            2.968 24.197 1.000,
            2.694 23.922 1.000,
            2.970 24.215 1.000,
            2.670 23.919 1.000,
            2.971 24.242 1.000,
            2.643 23.916 1.000,
            2.970 24.264 1.000,
            2.614 23.915 1.000,
            2.970 24.275 1.000,
            2.969 24.286 1.000,
            2.584 23.914 1.000,
            2.967 24.304 1.000,
            2.963 24.322 1.000,
            2.960 24.338 1.000,
            2.954 24.356 1.000,
            2.950 24.366 1.000,
            2.946 24.376 1.000,
            2.940 24.388 1.000,
            2.452 23.914 1.000,
            2.933 24.400 1.000,
            2.925 24.412 1.000,
            2.916 24.425 1.000,
            2.135 23.610 1.000,
            2.072 23.582 1.000,
            2.325 23.547 1.000,
            2.047 23.571 1.000,
            2.904 24.439 1.000,
            2.019 23.561 1.000,
            1.991 23.552 1.000,
            2.891 24.453 1.000,
            2.884 24.460 1.000,
            1.959 23.543 1.000,
            2.872 24.470 1.000,
            1.935 23.537 1.000,
            1.906 23.531 1.000,
            2.135 23.762 1.000,
            2.853 24.484 1.000,
            1.884 23.527 1.000,
            2.839 24.493 1.000,
            1.857 23.524 1.000,
            2.825 24.501 1.000,
            1.833 23.523 1.000,
            2.810 24.508 1.000,
            1.816 23.522 1.000,
            2.794 24.515 1.000,
            1.798 23.522 1.000,
            2.776 24.522 1.000,
            2.759 24.528 1.000,
            1.747 23.524 1.000,
            2.741 24.532 1.000,
            2.721 24.537 1.000,
            2.699 24.540 1.000,
            2.671 24.544 1.000,
            1.768 23.637 1.000,
            1.743 23.639 1.000,
            1.755 23.637 1.000,
            2.638 24.546 1.000,
            2.593 24.547 1.000,
            1.595 23.697 1.000,
            1.569 23.719 1.000,
            1.580 23.709 1.000,
            1.609 23.687 1.000,
            1.623 23.679 1.000,
            1.636 23.672 1.000,
            1.652 23.664 1.000,
            1.670 23.657 1.000,
            2.135 24.332 1.000,
            2.126 23.762 1.000,
            2.126 24.332 1.000,
            1.538 23.752 1.000,
            1.553 23.735 1.000,
            1.688 23.651 1.000,
            1.525 23.771 1.000,
            1.531 23.761 1.000,
            1.705 23.646 1.000,
            1.514 23.787 1.000,
            2.105 23.745 1.000,
            2.086 24.362 1.000,
            2.094 23.736 1.000,
            1.505 23.804 1.000,
            1.725 23.642 1.000,
            2.084 23.729 1.000,
            2.066 24.375 1.000,
            2.065 23.716 1.000,
            1.793 23.636 1.000,
            1.495 23.824 1.000,
            2.325 24.547 1.000,
            2.135 24.486 1.000,
            1.487 23.843 1.000,
            1.833 23.637 1.000,
            1.480 23.861 1.000,
            2.104 24.501 1.000,
            1.474 23.879 1.000,
            1.468 23.898 1.000,
            2.072 24.515 1.000,
            1.853 23.639 1.000,
            1.464 23.918 1.000,
            2.048 24.525 1.000,
            1.875 23.642 1.000,
            1.459 23.943 1.000,
            1.898 23.646 1.000,
            2.023 24.534 1.000,
            1.920 23.651 1.000,
            1.456 23.970 1.000,
            1.942 23.657 1.000,
            1.454 23.995 1.000,
            1.964 23.665 1.000,
            1.985 23.673 1.000,
            2.006 23.682 1.000,
            1.111 23.654 1.000,
            1.102 23.645 1.000,
            1.449 23.650 1.000,
            1.470 23.630 1.000,
            1.999 24.542 1.000,
            1.120 23.663 1.000,
            1.425 23.676 1.000,
            1.094 23.638 1.000,
            1.126 23.671 1.000,
            1.481 23.620 1.000,
            1.083 23.628 1.000,
            1.492 23.611 1.000,
            1.413 23.692 1.000,
            1.134 23.681 1.000,
            1.062 23.613 1.000,
            1.508 23.600 1.000,
            1.402 23.707 1.000,
            1.142 23.693 1.000,
            1.048 23.604 1.000,
            1.524 23.589 1.000,
            1.151 23.708 1.000,
            1.391 23.724 1.000,
            1.032 23.595 1.000,
            1.541 23.580 1.000,
            1.380 23.743 1.000,
            1.159 23.724 1.000,
            1.164 23.735 1.000,
            1.015 23.586 1.000,
            1.558 23.571 1.000,
            1.974 24.549 1.000,
            1.169 23.746 1.000,
            1.370 23.763 1.000,
            0.998 23.579 1.000,
            1.577 23.562 1.000,
            1.360 23.785 1.000,
            1.173 23.759 1.000,
            0.980 23.572 1.000,
            1.595 23.555 1.000,
            2.026 23.692 1.000,
            1.452 24.045 1.000,
            2.046 23.704 1.000,
            2.040 24.391 1.000,
            1.177 23.773 1.000,
            0.961 23.566 1.000,
            1.614 23.549 1.000,
            1.949 24.555 1.000,
            1.180 23.788 1.000,
            1.351 23.809 1.000,
            1.452 24.069 1.000,
            2.016 24.405 1.000,
            1.996 24.415 1.000,
            0.943 23.561 1.000,
            1.636 23.542 1.000,
            1.183 23.806 1.000,
            1.344 23.829 1.000,
            0.922 23.557 1.000,
            1.664 23.535 1.000,
            1.923 24.561 1.000,
            1.453 24.093 1.000,
            1.977 24.423 1.000,
            1.958 24.430 1.000,
            1.185 23.824 1.000,
            1.337 23.851 1.000,
            0.897 23.553 1.000,
            1.693 23.530 1.000,
            1.456 24.120 1.000,
            1.938 24.437 1.000,
            1.918 24.443 1.000,
            1.186 23.853 1.000,
            1.331 23.874 1.000,
            1.898 24.565 1.000,
            1.326 23.899 1.000,
            1.186 23.869 1.000,
            0.862 23.550 1.000,
            1.721 23.526 1.000,
            1.459 24.147 1.000,
            1.898 24.447 1.000,
            1.877 24.451 1.000,
            1.185 23.881 1.000,
            1.869 24.569 1.000,
            1.463 24.171 1.000,
            1.857 24.454 1.000,
            1.836 24.456 1.000,
            1.183 23.894 1.000,
            1.321 23.926 1.000,
            0.826 23.548 1.000,
            1.181 23.908 1.000,
            1.469 24.197 1.000,
            1.814 24.458 1.000,
            1.842 24.571 1.000,
            1.318 23.952 1.000,
            1.179 23.919 1.000,
            1.475 24.218 1.000,
            1.481 24.237 1.000,
            1.791 24.458 1.000,
            1.315 23.979 1.000,
            1.176 23.932 1.000,
            0.790 23.547 1.000,
            1.761 24.457 1.000,
            1.488 24.256 1.000,
            1.171 23.948 1.000,
            1.497 24.276 1.000,
            1.743 24.456 1.000,
            1.505 24.293 1.000,
            1.660 24.435 1.000,
            1.632 24.422 1.000,
            1.671 24.439 1.000,
            1.649 24.430 1.000,
            1.164 23.965 1.000,
            1.313 24.012 1.000,
            1.531 24.334 1.000,
            1.514 24.309 1.000,
            1.521 24.319 1.000,
            1.725 24.453 1.000,
            1.708 24.450 1.000,
            1.594 24.398 1.000,
            1.576 24.383 1.000,
            1.604 24.405 1.000,
            1.586 24.391 1.000,
            1.567 24.374 1.000,
            1.549 24.356 1.000,
            1.689 24.445 1.000,
            1.617 24.413 1.000,
            1.160 23.975 1.000,
            1.313 24.046 1.000,
            1.154 23.985 1.000,
            1.148 23.996 1.000,
            1.140 24.007 1.000,
            1.315 24.103 1.000,
            1.131 24.019 1.000,
            1.121 24.031 1.000,
            1.316 24.123 1.000,
            1.108 24.044 1.000,
            0.439 23.547 1.000,
            1.047 24.086 1.000,
            1.033 24.166 1.000,
            1.036 24.091 1.000,
            1.058 24.080 1.000,
            1.045 24.178 1.000,
            1.067 24.074 1.000,
            1.023 24.157 1.000,
            1.024 24.096 1.000,
            1.014 24.149 1.000,
            1.058 24.193 1.000,
            1.077 24.068 1.000,
            1.085 24.062 1.000,
            1.003 24.140 1.000,
            1.006 24.102 1.000,
            1.064 24.202 1.000,
            1.093 24.056 1.000,
            0.991 24.132 1.000,
            0.990 24.107 1.000,
            1.070 24.212 1.000,
            0.980 24.126 1.000,
            0.966 24.113 1.000,
            1.077 24.224 1.000,
            1.320 24.158 1.000,
            0.966 24.118 1.000,
            1.082 24.237 1.000,
            1.326 24.190 1.000,
            1.088 24.251 1.000,
            1.332 24.218 1.000,
            1.092 24.268 1.000,
            1.339 24.243 1.000,
            1.095 24.286 1.000,
            1.347 24.268 1.000,
            1.097 24.300 1.000,
            1.097 24.321 1.000,
            1.356 24.292 1.000,
            1.097 24.336 1.000,
            1.365 24.314 1.000,
            1.096 24.348 1.000,
            1.374 24.333 1.000,
            1.095 24.361 1.000,
            1.093 24.374 1.000,
            1.384 24.351 1.000,
            1.090 24.384 1.000,
            1.087 24.397 1.000,
            1.395 24.370 1.000,
            1.405 24.385 1.000,
            1.082 24.411 1.000,
            1.417 24.402 1.000,
            1.074 24.428 1.000,
            1.069 24.437 1.000,
            1.424 24.410 1.000,
            1.432 24.419 1.000,
            1.447 24.437 1.000,
            1.063 24.446 1.000,
            1.056 24.455 1.000,
            1.048 24.465 1.000,
            1.470 24.459 1.000,
            1.038 24.475 1.000,
            1.485 24.472 1.000,
            1.026 24.485 1.000,
            1.500 24.483 1.000,
            1.014 24.494 1.000,
            1.516 24.494 1.000,
            1.535 24.506 1.000,
            1.553 24.516 1.000,
            0.994 24.505 1.000,
            1.570 24.525 1.000,
            0.975 24.515 1.000,
            1.589 24.533 1.000,
            0.964 24.519 1.000,
            1.610 24.541 1.000,
            0.954 24.523 1.000,
            1.633 24.549 1.000,
            0.936 24.529 1.000,
            0.919 24.534 1.000,
            1.654 24.555 1.000,
            1.678 24.560 1.000,
            0.903 24.537 1.000,
            0.884 24.540 1.000,
            0.300 24.700 1.000,
            1.799 24.572 1.000,
            1.706 24.565 1.000,
            1.727 24.568 1.000,
            1.750 24.570 1.000,
            1.774 24.572 1.000,
            0.821 24.545 1.000,
            0.731 24.547 1.000,
            0.866 24.542 1.000,
            0.439 24.547 1.000,
            4.295 24.572 1.000,
            5.230 24.546 1.000,
            5.259 24.543 1.000,
            5.291 24.540 1.000,
            5.304 24.538 1.000,
            5.315 24.536 1.000,
            5.333 24.532 1.000,
            5.351 24.527 1.000,
            5.369 24.522 1.000,
            5.379 24.518 1.000,
            5.391 24.512 1.000,
            5.403 24.506 1.000,
            5.413 24.501 1.000,
            5.427 24.493 1.000,
            5.444 24.480 1.000,
            5.456 24.471 1.000,
            4.125 23.661 1.000,
            4.620 24.209 1.000,
            4.615 24.191 1.000,
            4.609 24.172 1.000,
            4.604 24.159 1.000,
            4.596 24.141 1.000,
            4.588 24.123 1.000,
            4.580 24.108 1.000,
            4.571 24.094 1.000,
            4.623 24.227 1.000,
            4.626 24.248 1.000,
            5.341 23.979 1.000,
            5.356 23.986 1.000,
            5.367 23.991 1.000,
            5.379 23.997 1.000,
            5.392 24.005 1.000,
            5.408 24.014 1.000,
            5.424 24.026 1.000,
            5.439 24.037 1.000,
            3.541 23.939 1.000,
            3.541 24.385 1.000,
            3.158 23.939 1.000,
            2.786 24.103 1.000,
            2.759 24.076 1.000,
            2.774 24.089 1.000,
            2.726 24.055 1.000,
            2.743 24.065 1.000,
            2.806 24.130 1.000,
            2.814 24.147 1.000,
            2.801 24.122 1.000,
            2.715 24.050 1.000,
            2.794 24.113 1.000,
            2.820 24.162 1.000,
            2.701 24.045 1.000,
            2.824 24.174 1.000,
            2.826 24.185 1.000,
            2.829 24.203 1.000,
            2.685 24.040 1.000,
            2.831 24.221 1.000,
            2.667 24.036 1.000,
            2.804 24.348 1.000,
            2.798 24.357 1.000,
            2.811 24.336 1.000,
            2.787 24.370 1.000,
            2.773 24.383 1.000,
            2.759 24.394 1.000,
            2.817 24.322 1.000,
            2.823 24.305 1.000,
            2.743 24.403 1.000,
            2.826 24.295 1.000,
            2.828 24.284 1.000,
            2.732 24.408 1.000,
            2.721 24.413 1.000,
            2.830 24.272 1.000,
            2.710 24.417 1.000,
            2.831 24.259 1.000,
            2.699 24.420 1.000,
            2.680 24.425 1.000,
            2.832 24.239 1.000,
            2.664 24.428 1.000,
            2.646 24.430 1.000,
            2.648 24.033 1.000,
            2.629 24.432 1.000,
            2.625 24.031 1.000,
            2.614 24.432 1.000,
            2.601 24.029 1.000,
            2.582 24.433 1.000,
            2.563 24.028 1.000,
            2.452 24.433 1.000,
            2.452 24.028 1.000,
            0.990 23.714 1.000,
            0.960 23.694 1.000,
            0.975 23.703 1.000,
            1.033 23.768 1.000,
            1.038 23.781 1.000,
            1.025 23.754 1.000,
            1.007 23.730 1.000,
            1.041 23.792 1.000,
            0.999 23.722 1.000,
            1.014 23.738 1.000,
            1.044 23.810 1.000,
            0.944 23.686 1.000,
            1.046 23.828 1.000,
            0.928 23.680 1.000,
            1.047 23.847 1.000,
            0.918 23.677 1.000,
            1.022 23.952 1.000,
            1.015 23.963 1.000,
            1.030 23.939 1.000,
            1.007 23.971 1.000,
            1.037 23.922 1.000,
            0.994 23.983 1.000,
            1.040 23.912 1.000,
            1.042 23.901 1.000,
            0.979 23.993 1.000,
            1.044 23.889 1.000,
            0.963 24.002 1.000,
            0.950 24.007 1.000,
            1.046 23.872 1.000,
            0.940 24.011 1.000,
            0.927 24.015 1.000,
            0.914 24.018 1.000,
            0.903 24.021 1.000,
            0.884 24.023 1.000,
            0.896 23.672 1.000,
            0.876 23.669 1.000,
            0.906 23.674 1.000,
            0.857 24.026 1.000,
            0.849 23.665 1.000,
            0.829 24.027 1.000,
            0.813 23.663 1.000,
            0.774 24.028 1.000,
            0.741 23.661 1.000,
            0.566 24.028 1.000,
            0.566 23.661 1.000,
            0.922 24.192 1.000,
            0.929 24.200 1.000,
            0.914 24.185 1.000,
            0.946 24.229 1.000,
            0.901 24.175 1.000,
            0.939 24.215 1.000,
            0.950 24.241 1.000,
            0.885 24.166 1.000,
            0.953 24.251 1.000,
            0.956 24.268 1.000,
            0.867 24.158 1.000,
            0.944 24.370 1.000,
            0.922 24.396 1.000,
            0.948 24.361 1.000,
            0.934 24.384 1.000,
            0.952 24.349 1.000,
            0.908 24.406 1.000,
            0.956 24.335 1.000,
            0.895 24.412 1.000,
            0.957 24.321 1.000,
            0.886 24.417 1.000,
            0.873 24.421 1.000,
            0.958 24.304 1.000,
            0.860 24.424 1.000,
            0.849 24.426 1.000,
            0.958 24.286 1.000,
            0.830 24.429 1.000,
            0.837 24.149 1.000,
            0.824 24.147 1.000,
            0.849 24.152 1.000,
            0.795 24.431 1.000,
            0.805 24.145 1.000,
            0.782 24.143 1.000,
            0.759 24.433 1.000,
            0.736 24.142 1.000,
            0.722 24.433 1.000,
            0.566 24.142 1.000,
            0.566 24.433 1.000,
            0.000 25.000 0.700,
            0.000 25.000 0.300,
            0.000 0.000 0.700,
            0.000 0.000 0.300,
            36.000 0.000 0.300,
            36.000 0.000 0.700,
            36.000 25.000 0.300,
            36.000 25.000 0.700,
            0.300 24.700 0.000,
            35.700 24.700 0.000,
            35.700 0.300 0.000,
            0.300 0.300 0.000
          ]
        }
        coordIndex [
          0, 1, 2, -1,
          3, 1, 0, -1,
          1, 4, 5, -1,
          6, 7, 3, -1,
          3, 7, 1, -1,
          1, 7, 4, -1,
          8, 9, 6, -1,
          10, 9, 8, -1,
          6, 9, 7, -1,
          7, 11, 12, -1,
          9, 11, 7, -1,
          12, 13, 14, -1,
          11, 13, 12, -1,
          13, 15, 14, -1,
          16, 17, 18, -1,
          18, 19, 20, -1,
          21, 19, 17, -1,
          17, 19, 18, -1,
          20, 22, 23, -1,
          19, 22, 20, -1,
          23, 24, 25, -1,
          22, 24, 23, -1,
          25, 26, 27, -1,
          24, 26, 25, -1,
          26, 28, 27, -1,
          28, 29, 27, -1,
          27, 30, 31, -1,
          31, 30, 32, -1,
          29, 30, 27, -1,
          30, 33, 32, -1,
          33, 34, 32, -1,
          32, 34, 15, -1,
          14, 34, 35, -1,
          15, 34, 14, -1,
          34, 36, 35, -1,
          35, 36, 37, -1,
          36, 38, 37, -1,
          39, 38, 40, -1,
          37, 38, 39, -1,
          40, 41, 42, -1,
          38, 41, 40, -1,
          43, 44, 45, -1,
          46, 44, 43, -1,
          44, 47, 45, -1,
          47, 48, 45, -1,
          49, 50, 44, -1,
          44, 51, 49, -1,
          44, 52, 51, -1,
          44, 53, 52, -1,
          44, 54, 53, -1,
          44, 55, 54, -1,
          44, 56, 55, -1,
          44, 57, 56, -1,
          44, 58, 57, -1,
          44, 59, 58, -1,
          48, 60, 45, -1,
          44, 61, 59, -1,
          44, 62, 61, -1,
          44, 63, 62, -1,
          44, 64, 63, -1,
          44, 65, 64, -1,
          47, 66, 48, -1,
          44, 67, 65, -1,
          44, 68, 67, -1,
          44, 69, 68, -1,
          44, 70, 69, -1,
          44, 71, 70, -1,
          46, 71, 44, -1,
          46, 72, 71, -1,
          46, 73, 72, -1,
          46, 74, 73, -1,
          46, 75, 74, -1,
          60, 76, 45, -1,
          46, 77, 75, -1,
          46, 78, 77, -1,
          66, 79, 48, -1,
          46, 80, 78, -1,
          46, 81, 80, -1,
          46, 82, 81, -1,
          46, 83, 82, -1,
          60, 84, 76, -1,
          84, 85, 86, -1,
          86, 87, 84, -1,
          84, 88, 85, -1,
          84, 89, 88, -1,
          87, 90, 84, -1,
          84, 91, 89, -1,
          90, 92, 84, -1,
          84, 93, 91, -1,
          76, 94, 45, -1,
          95, 96, 97, -1,
          95, 98, 96, -1,
          95, 99, 98, -1,
          95, 100, 99, -1,
          95, 101, 100, -1,
          95, 102, 101, -1,
          95, 103, 102, -1,
          95, 104, 103, -1,
          95, 105, 104, -1,
          95, 106, 105, -1,
          95, 107, 106, -1,
          95, 108, 107, -1,
          95, 109, 108, -1,
          94, 110, 45, -1,
          111, 110, 94, -1,
          112, 113, 114, -1,
          95, 115, 109, -1,
          113, 116, 114, -1,
          95, 117, 115, -1,
          95, 118, 117, -1,
          114, 119, 120, -1,
          121, 119, 116, -1,
          116, 119, 114, -1,
          95, 122, 118, -1,
          119, 123, 120, -1,
          95, 124, 122, -1,
          95, 125, 124, -1,
          110, 126, 45, -1,
          111, 127, 110, -1,
          128, 127, 111, -1,
          129, 130, 123, -1,
          123, 130, 120, -1,
          95, 131, 125, -1,
          130, 132, 120, -1,
          133, 132, 134, -1,
          120, 132, 133, -1,
          95, 135, 131, -1,
          95, 136, 135, -1,
          134, 137, 138, -1,
          132, 137, 134, -1,
          95, 139, 136, -1,
          137, 140, 138, -1,
          138, 141, 142, -1,
          140, 141, 138, -1,
          95, 143, 139, -1,
          141, 144, 142, -1,
          142, 144, 145, -1,
          95, 146, 143, -1,
          128, 147, 127, -1,
          148, 147, 128, -1,
          149, 147, 148, -1,
          144, 150, 145, -1,
          145, 150, 151, -1,
          95, 152, 146, -1,
          150, 153, 151, -1,
          154, 153, 155, -1,
          151, 153, 154, -1,
          127, 156, 110, -1,
          95, 157, 152, -1,
          153, 158, 155, -1,
          159, 158, 160, -1,
          155, 158, 159, -1,
          95, 161, 157, -1,
          162, 163, 164, -1,
          160, 163, 162, -1,
          158, 163, 160, -1,
          163, 165, 164, -1,
          166, 165, 167, -1,
          164, 165, 166, -1,
          95, 168, 161, -1,
          165, 169, 167, -1,
          167, 169, 170, -1,
          171, 172, 95, -1,
          95, 172, 168, -1,
          169, 173, 170, -1,
          170, 173, 174, -1,
          173, 175, 174, -1,
          174, 176, 177, -1,
          175, 176, 174, -1,
          176, 178, 177, -1,
          178, 179, 177, -1,
          179, 180, 177, -1,
          180, 181, 177, -1,
          177, 181, 182, -1,
          181, 183, 182, -1,
          183, 184, 182, -1,
          184, 185, 182, -1,
          149, 185, 147, -1,
          182, 185, 149, -1,
          185, 186, 147, -1,
          147, 186, 187, -1,
          188, 189, 126, -1,
          190, 191, 192, -1,
          193, 191, 190, -1,
          186, 191, 187, -1,
          194, 191, 193, -1,
          195, 191, 194, -1,
          196, 191, 195, -1,
          197, 191, 196, -1,
          198, 191, 197, -1,
          199, 191, 198, -1,
          192, 191, 186, -1,
          199, 200, 191, -1,
          201, 200, 199, -1,
          126, 202, 45, -1,
          189, 202, 126, -1,
          203, 204, 205, -1,
          205, 206, 203, -1,
          203, 206, 189, -1,
          203, 207, 204, -1,
          206, 208, 189, -1,
          203, 209, 207, -1,
          208, 210, 189, -1,
          203, 211, 209, -1,
          210, 212, 189, -1,
          203, 213, 211, -1,
          212, 214, 189, -1,
          203, 215, 213, -1,
          214, 216, 189, -1,
          203, 217, 215, -1,
          216, 218, 189, -1,
          203, 219, 217, -1,
          218, 220, 189, -1,
          203, 221, 219, -1,
          220, 222, 189, -1,
          203, 223, 221, -1,
          189, 224, 202, -1,
          222, 224, 189, -1,
          203, 225, 223, -1,
          203, 226, 225, -1,
          224, 227, 202, -1,
          203, 228, 226, -1,
          227, 229, 202, -1,
          200, 230, 203, -1,
          203, 230, 228, -1,
          229, 231, 202, -1,
          200, 232, 230, -1,
          231, 233, 202, -1,
          200, 234, 232, -1,
          200, 235, 234, -1,
          233, 236, 202, -1,
          200, 237, 235, -1,
          200, 238, 237, -1,
          200, 239, 238, -1,
          200, 240, 239, -1,
          200, 241, 240, -1,
          200, 242, 241, -1,
          200, 243, 242, -1,
          236, 244, 202, -1,
          200, 245, 243, -1,
          200, 246, 245, -1,
          200, 247, 246, -1,
          248, 249, 250, -1,
          249, 251, 250, -1,
          200, 252, 247, -1,
          251, 253, 250, -1,
          253, 254, 250, -1,
          200, 255, 252, -1,
          200, 256, 255, -1,
          254, 257, 250, -1,
          200, 258, 256, -1,
          257, 259, 250, -1,
          259, 260, 250, -1,
          250, 261, 248, -1,
          200, 262, 258, -1,
          260, 263, 250, -1,
          200, 264, 262, -1,
          263, 265, 250, -1,
          250, 265, 202, -1,
          200, 266, 264, -1,
          202, 267, 45, -1,
          265, 267, 202, -1,
          200, 268, 266, -1,
          267, 269, 45, -1,
          200, 270, 268, -1,
          269, 271, 45, -1,
          200, 272, 270, -1,
          200, 273, 272, -1,
          271, 274, 45, -1,
          200, 275, 273, -1,
          200, 276, 275, -1,
          200, 277, 276, -1,
          200, 278, 277, -1,
          279, 280, 281, -1,
          200, 282, 278, -1,
          200, 283, 282, -1,
          284, 285, 286, -1,
          287, 285, 284, -1,
          288, 285, 287, -1,
          289, 285, 288, -1,
          290, 285, 289, -1,
          291, 285, 290, -1,
          261, 292, 293, -1,
          292, 294, 293, -1,
          285, 295, 296, -1,
          297, 295, 291, -1,
          291, 295, 285, -1,
          295, 298, 299, -1,
          300, 301, 297, -1,
          297, 301, 295, -1,
          295, 301, 298, -1,
          302, 303, 304, -1,
          293, 303, 302, -1,
          294, 303, 293, -1,
          279, 305, 280, -1,
          306, 305, 300, -1,
          280, 305, 306, -1,
          300, 305, 301, -1,
          307, 308, 309, -1,
          304, 308, 307, -1,
          303, 308, 304, -1,
          310, 311, 279, -1,
          279, 311, 305, -1,
          312, 313, 292, -1,
          310, 314, 311, -1,
          315, 316, 310, -1,
          310, 316, 314, -1,
          312, 317, 313, -1,
          315, 318, 316, -1,
          315, 319, 318, -1,
          312, 320, 317, -1,
          321, 322, 315, -1,
          315, 322, 319, -1,
          312, 323, 320, -1,
          324, 325, 321, -1,
          321, 325, 322, -1,
          326, 325, 324, -1,
          312, 327, 323, -1,
          328, 329, 326, -1,
          326, 329, 325, -1,
          330, 331, 328, -1,
          332, 331, 330, -1,
          333, 331, 332, -1,
          334, 331, 333, -1,
          328, 331, 329, -1,
          335, 336, 337, -1,
          337, 336, 338, -1,
          312, 339, 327, -1,
          337, 340, 335, -1,
          341, 340, 337, -1,
          336, 342, 338, -1,
          341, 343, 340, -1,
          344, 345, 346, -1,
          338, 345, 344, -1,
          342, 345, 338, -1,
          347, 348, 341, -1,
          341, 348, 343, -1,
          345, 349, 346, -1,
          346, 349, 350, -1,
          351, 352, 347, -1,
          347, 352, 348, -1,
          350, 353, 354, -1,
          349, 353, 350, -1,
          351, 355, 352, -1,
          356, 355, 351, -1,
          354, 357, 358, -1,
          353, 357, 354, -1,
          359, 360, 356, -1,
          356, 360, 355, -1,
          359, 361, 360, -1,
          358, 362, 363, -1,
          357, 362, 358, -1,
          312, 364, 339, -1,
          359, 365, 361, -1,
          366, 365, 359, -1,
          362, 367, 363, -1,
          363, 367, 368, -1,
          369, 370, 366, -1,
          366, 370, 365, -1,
          367, 371, 368, -1,
          368, 371, 372, -1,
          373, 374, 334, -1,
          375, 374, 373, -1,
          309, 374, 375, -1,
          308, 374, 309, -1,
          334, 374, 331, -1,
          376, 374, 308, -1,
          369, 377, 370, -1,
          371, 378, 372, -1,
          372, 378, 379, -1,
          312, 380, 364, -1,
          369, 381, 377, -1,
          382, 381, 369, -1,
          376, 383, 374, -1,
          384, 383, 376, -1,
          385, 383, 384, -1,
          378, 386, 379, -1,
          379, 386, 387, -1,
          382, 388, 381, -1,
          389, 388, 382, -1,
          386, 390, 387, -1,
          387, 390, 391, -1,
          312, 392, 380, -1,
          385, 393, 383, -1,
          394, 393, 385, -1,
          395, 393, 394, -1,
          389, 396, 388, -1,
          397, 396, 389, -1,
          390, 398, 391, -1,
          391, 398, 399, -1,
          395, 400, 393, -1,
          401, 400, 395, -1,
          402, 400, 401, -1,
          397, 403, 396, -1,
          404, 403, 397, -1,
          312, 405, 392, -1,
          406, 407, 404, -1,
          404, 407, 403, -1,
          398, 408, 399, -1,
          399, 408, 409, -1,
          402, 410, 400, -1,
          411, 410, 402, -1,
          412, 410, 411, -1,
          406, 413, 407, -1,
          312, 414, 405, -1,
          412, 415, 410, -1,
          416, 415, 412, -1,
          417, 415, 416, -1,
          406, 418, 413, -1,
          419, 418, 406, -1,
          409, 420, 274, -1,
          408, 420, 409, -1,
          419, 421, 418, -1,
          417, 422, 415, -1,
          423, 422, 417, -1,
          312, 424, 414, -1,
          283, 424, 312, -1,
          425, 426, 419, -1,
          419, 426, 421, -1,
          423, 427, 422, -1,
          423, 428, 427, -1,
          429, 428, 423, -1,
          430, 431, 425, -1,
          425, 431, 426, -1,
          274, 432, 45, -1,
          420, 432, 274, -1,
          433, 434, 429, -1,
          429, 434, 428, -1,
          430, 435, 431, -1,
          433, 436, 434, -1,
          437, 438, 433, -1,
          433, 438, 436, -1,
          439, 440, 441, -1,
          442, 440, 439, -1,
          430, 443, 435, -1,
          444, 443, 430, -1,
          437, 445, 438, -1,
          446, 445, 447, -1,
          438, 445, 446, -1,
          448, 445, 437, -1,
          449, 445, 448, -1,
          450, 451, 452, -1,
          453, 451, 450, -1,
          440, 454, 441, -1,
          449, 454, 445, -1,
          451, 454, 452, -1,
          445, 454, 455, -1,
          456, 454, 449, -1,
          441, 454, 456, -1,
          457, 454, 440, -1,
          452, 454, 457, -1,
          444, 458, 443, -1,
          459, 460, 444, -1,
          444, 460, 458, -1,
          459, 461, 460, -1,
          459, 462, 461, -1,
          463, 464, 459, -1,
          459, 464, 462, -1,
          463, 465, 464, -1,
          466, 467, 463, -1,
          463, 467, 465, -1,
          432, 468, 45, -1,
          469, 470, 471, -1,
          472, 470, 469, -1,
          472, 473, 470, -1,
          474, 473, 472, -1,
          470, 475, 471, -1,
          471, 475, 476, -1,
          475, 477, 476, -1,
          474, 478, 473, -1,
          479, 478, 474, -1,
          480, 478, 479, -1,
          477, 481, 476, -1,
          476, 481, 482, -1,
          480, 483, 478, -1,
          484, 483, 480, -1,
          481, 485, 482, -1,
          482, 485, 486, -1,
          466, 487, 467, -1,
          484, 487, 483, -1,
          467, 487, 484, -1,
          485, 488, 486, -1,
          488, 489, 486, -1,
          466, 490, 487, -1,
          491, 490, 466, -1,
          488, 492, 489, -1,
          491, 493, 490, -1,
          494, 493, 491, -1,
          494, 495, 493, -1,
          496, 497, 494, -1,
          494, 497, 495, -1,
          498, 499, 496, -1,
          496, 499, 497, -1,
          500, 501, 498, -1,
          498, 501, 499, -1,
          500, 502, 501, -1,
          503, 502, 500, -1,
          503, 504, 502, -1,
          505, 506, 503, -1,
          503, 506, 504, -1,
          507, 508, 505, -1,
          505, 508, 506, -1,
          507, 509, 508, -1,
          510, 511, 507, -1,
          507, 511, 509, -1,
          510, 512, 511, -1,
          513, 512, 510, -1,
          514, 515, 513, -1,
          513, 515, 512, -1,
          516, 517, 514, -1,
          514, 517, 515, -1,
          516, 518, 517, -1,
          519, 518, 516, -1,
          520, 518, 519, -1,
          521, 522, 520, -1,
          520, 522, 518, -1,
          521, 523, 522, -1,
          521, 524, 523, -1,
          525, 524, 521, -1,
          525, 526, 524, -1,
          527, 526, 525, -1,
          527, 528, 526, -1,
          529, 528, 527, -1,
          529, 530, 528, -1,
          531, 530, 529, -1,
          532, 530, 531, -1,
          533, 534, 532, -1,
          532, 534, 530, -1,
          535, 536, 533, -1,
          533, 536, 534, -1,
          537, 538, 535, -1,
          535, 538, 536, -1,
          539, 540, 537, -1,
          537, 540, 538, -1,
          541, 542, 539, -1,
          539, 542, 540, -1,
          541, 543, 542, -1,
          544, 543, 541, -1,
          545, 546, 544, -1,
          544, 546, 543, -1,
          545, 547, 546, -1,
          424, 548, 549, -1,
          550, 548, 545, -1,
          551, 548, 550, -1,
          552, 548, 551, -1,
          553, 548, 552, -1,
          549, 548, 553, -1,
          545, 548, 547, -1,
          554, 548, 555, -1,
          556, 548, 554, -1,
          547, 548, 556, -1,
          555, 548, 557, -1,
          557, 548, 468, -1,
          548, 45, 468, -1,
          46, 548, 558, -1,
          46, 558, 172, -1,
          46, 172, 171, -1,
          46, 171, 559, -1,
          46, 559, 560, -1,
          46, 560, 561, -1,
          46, 561, 562, -1,
          46, 562, 563, -1,
          46, 563, 564, -1,
          46, 564, 565, -1,
          46, 565, 566, -1,
          46, 566, 567, -1,
          46, 567, 568, -1,
          46, 568, 569, -1,
          46, 569, 570, -1,
          46, 570, 571, -1,
          46, 571, 572, -1,
          46, 572, 573, -1,
          46, 573, 83, -1,
          558, 548, 201, -1,
          201, 548, 200, -1,
          200, 548, 283, -1,
          283, 548, 424, -1,
          250, 312, 261, -1,
          261, 312, 292, -1,
          574, 84, 92, -1,
          60, 95, 84, -1,
          84, 95, 575, -1,
          84, 575, 576, -1,
          84, 576, 577, -1,
          84, 577, 578, -1,
          84, 578, 579, -1,
          84, 579, 580, -1,
          84, 580, 581, -1,
          84, 581, 582, -1,
          84, 582, 93, -1,
          575, 95, 583, -1,
          583, 95, 584, -1,
          584, 95, 97, -1,
          585, 44, 586, -1,
          586, 44, 587, -1,
          587, 44, 588, -1,
          588, 44, 589, -1,
          589, 44, 590, -1,
          590, 44, 591, -1,
          591, 44, 592, -1,
          592, 44, 50, -1,
          585, 66, 47, -1,
          591, 2, 590, -1,
          590, 2, 589, -1,
          591, 0, 2, -1,
          50, 0, 592, -1,
          592, 0, 591, -1,
          49, 3, 50, -1,
          50, 3, 0, -1,
          2, 1, 589, -1,
          589, 1, 588, -1,
          49, 6, 3, -1,
          52, 6, 51, -1,
          51, 6, 49, -1,
          588, 5, 587, -1,
          587, 5, 586, -1,
          586, 5, 585, -1,
          1, 5, 588, -1,
          52, 8, 6, -1,
          53, 8, 52, -1,
          5, 4, 585, -1,
          55, 10, 54, -1,
          54, 10, 53, -1,
          53, 10, 8, -1,
          4, 7, 585, -1,
          55, 9, 10, -1,
          57, 9, 56, -1,
          56, 9, 55, -1,
          7, 12, 585, -1,
          58, 11, 57, -1,
          57, 11, 9, -1,
          585, 14, 66, -1,
          12, 14, 585, -1,
          62, 13, 61, -1,
          61, 13, 59, -1,
          59, 13, 58, -1,
          58, 13, 11, -1,
          64, 15, 63, -1,
          63, 15, 62, -1,
          62, 15, 13, -1,
          14, 35, 66, -1,
          65, 32, 64, -1,
          64, 32, 15, -1,
          35, 37, 66, -1,
          65, 31, 32, -1,
          67, 31, 65, -1,
          37, 39, 66, -1,
          67, 27, 31, -1,
          68, 27, 67, -1,
          68, 25, 27, -1,
          69, 25, 68, -1,
          39, 40, 66, -1,
          72, 23, 71, -1,
          69, 23, 25, -1,
          71, 23, 70, -1,
          70, 23, 69, -1,
          48, 79, 60, -1,
          40, 79, 66, -1,
          72, 20, 23, -1,
          74, 20, 73, -1,
          73, 20, 72, -1,
          74, 18, 20, -1,
          78, 18, 77, -1,
          77, 18, 75, -1,
          75, 18, 74, -1,
          81, 16, 80, -1,
          80, 16, 78, -1,
          78, 16, 18, -1,
          82, 17, 81, -1,
          81, 17, 16, -1,
          82, 83, 17, -1,
          83, 21, 17, -1,
          83, 573, 21, -1,
          40, 42, 79, -1,
          79, 42, 60, -1,
          573, 572, 21, -1,
          21, 572, 19, -1,
          572, 571, 19, -1,
          571, 570, 19, -1,
          19, 570, 22, -1,
          570, 569, 22, -1,
          22, 568, 24, -1,
          569, 568, 22, -1,
          568, 567, 24, -1,
          567, 566, 24, -1,
          24, 566, 26, -1,
          26, 565, 28, -1,
          566, 565, 26, -1,
          28, 564, 29, -1,
          565, 564, 28, -1,
          564, 563, 29, -1,
          29, 562, 30, -1,
          563, 562, 29, -1,
          30, 561, 33, -1,
          562, 561, 30, -1,
          561, 560, 33, -1,
          33, 560, 34, -1,
          560, 559, 34, -1,
          34, 559, 36, -1,
          559, 171, 36, -1,
          36, 171, 38, -1,
          171, 41, 38, -1,
          171, 95, 41, -1,
          42, 95, 60, -1,
          41, 95, 42, -1,
          44, 585, 47, -1,
          593, 594, 595, -1,
          574, 94, 76, -1,
          90, 149, 92, -1,
          86, 182, 87, -1,
          87, 182, 90, -1,
          90, 182, 149, -1,
          88, 177, 85, -1,
          85, 177, 86, -1,
          86, 177, 182, -1,
          149, 148, 92, -1,
          89, 174, 88, -1,
          88, 174, 177, -1,
          92, 128, 574, -1,
          148, 128, 92, -1,
          91, 170, 89, -1,
          89, 170, 174, -1,
          93, 167, 91, -1,
          91, 167, 170, -1,
          582, 166, 93, -1,
          93, 166, 167, -1,
          581, 164, 582, -1,
          582, 164, 166, -1,
          128, 111, 574, -1,
          574, 111, 94, -1,
          580, 162, 581, -1,
          581, 162, 164, -1,
          579, 160, 580, -1,
          580, 160, 162, -1,
          577, 159, 578, -1,
          578, 159, 579, -1,
          579, 159, 160, -1,
          576, 155, 577, -1,
          577, 155, 159, -1,
          575, 154, 576, -1,
          576, 154, 155, -1,
          583, 154, 575, -1,
          583, 151, 154, -1,
          584, 151, 583, -1,
          584, 145, 151, -1,
          97, 145, 584, -1,
          97, 142, 145, -1,
          97, 138, 142, -1,
          96, 138, 97, -1,
          96, 134, 138, -1,
          99, 134, 98, -1,
          98, 134, 96, -1,
          99, 133, 134, -1,
          100, 133, 99, -1,
          100, 120, 133, -1,
          101, 120, 100, -1,
          101, 114, 120, -1,
          103, 114, 102, -1,
          102, 114, 101, -1,
          103, 112, 114, -1,
          105, 112, 104, -1,
          104, 112, 103, -1,
          105, 113, 112, -1,
          108, 113, 107, -1,
          107, 113, 106, -1,
          106, 113, 105, -1,
          115, 116, 109, -1,
          108, 116, 113, -1,
          109, 116, 108, -1,
          115, 117, 116, -1,
          117, 121, 116, -1,
          117, 118, 121, -1,
          118, 119, 121, -1,
          118, 122, 119, -1,
          119, 124, 123, -1,
          122, 124, 119, -1,
          124, 125, 123, -1,
          125, 131, 123, -1,
          123, 135, 129, -1,
          131, 135, 123, -1,
          129, 136, 130, -1,
          135, 136, 129, -1,
          136, 139, 130, -1,
          130, 143, 132, -1,
          139, 143, 130, -1,
          132, 146, 137, -1,
          143, 146, 132, -1,
          137, 152, 140, -1,
          146, 152, 137, -1,
          140, 157, 141, -1,
          152, 157, 140, -1,
          141, 161, 144, -1,
          157, 161, 141, -1,
          144, 168, 150, -1,
          161, 168, 144, -1,
          168, 172, 150, -1,
          150, 172, 153, -1,
          172, 558, 153, -1,
          153, 558, 158, -1,
          558, 201, 158, -1,
          158, 201, 163, -1,
          201, 199, 163, -1,
          163, 199, 165, -1,
          199, 198, 165, -1,
          165, 198, 169, -1,
          184, 186, 185, -1,
          198, 197, 169, -1,
          169, 197, 173, -1,
          197, 196, 173, -1,
          173, 196, 175, -1,
          175, 196, 176, -1,
          196, 195, 176, -1,
          176, 195, 178, -1,
          195, 194, 178, -1,
          178, 194, 179, -1,
          194, 193, 179, -1,
          179, 193, 180, -1,
          193, 190, 180, -1,
          180, 190, 181, -1,
          184, 192, 186, -1,
          181, 192, 183, -1,
          183, 192, 184, -1,
          190, 192, 181, -1,
          84, 574, 76, -1,
          596, 597, 598, -1,
          597, 599, 600, -1,
          596, 599, 597, -1,
          601, 602, 603, -1,
          596, 604, 599, -1,
          605, 606, 596, -1,
          603, 606, 605, -1,
          602, 606, 603, -1,
          596, 607, 604, -1,
          606, 608, 596, -1,
          596, 608, 607, -1,
          608, 609, 607, -1,
          607, 610, 611, -1,
          609, 610, 607, -1,
          611, 612, 613, -1,
          610, 612, 611, -1,
          614, 615, 616, -1,
          615, 617, 616, -1,
          617, 618, 616, -1,
          618, 619, 616, -1,
          620, 619, 621, -1,
          616, 619, 620, -1,
          619, 622, 621, -1,
          623, 622, 624, -1,
          621, 622, 623, -1,
          622, 625, 624, -1,
          624, 626, 627, -1,
          625, 626, 624, -1,
          627, 628, 629, -1,
          626, 628, 627, -1,
          628, 630, 629, -1,
          629, 631, 632, -1,
          630, 631, 629, -1,
          632, 631, 612, -1,
          631, 633, 612, -1,
          612, 633, 613, -1,
          633, 634, 613, -1,
          613, 634, 635, -1,
          634, 636, 635, -1,
          635, 636, 637, -1,
          637, 638, 639, -1,
          636, 638, 637, -1,
          639, 640, 641, -1,
          638, 640, 639, -1,
          641, 642, 643, -1,
          640, 642, 641, -1,
          127, 187, 156, -1,
          147, 187, 127, -1,
          156, 188, 110, -1,
          110, 188, 126, -1,
          187, 593, 156, -1,
          156, 593, 188, -1,
          188, 595, 189, -1,
          593, 595, 188, -1,
          187, 594, 593, -1,
          594, 203, 595, -1,
          595, 203, 189, -1,
          594, 200, 203, -1,
          191, 200, 594, -1,
          187, 191, 594, -1,
          206, 598, 208, -1,
          205, 596, 206, -1,
          206, 596, 598, -1,
          208, 597, 210, -1,
          210, 597, 212, -1,
          598, 597, 208, -1,
          204, 605, 205, -1,
          205, 605, 596, -1,
          209, 603, 207, -1,
          207, 603, 204, -1,
          204, 603, 605, -1,
          212, 600, 214, -1,
          214, 600, 216, -1,
          597, 600, 212, -1,
          213, 601, 211, -1,
          211, 601, 209, -1,
          209, 601, 603, -1,
          216, 599, 218, -1,
          600, 599, 216, -1,
          215, 602, 213, -1,
          213, 602, 601, -1,
          218, 604, 220, -1,
          599, 604, 218, -1,
          219, 606, 217, -1,
          217, 606, 215, -1,
          215, 606, 602, -1,
          220, 607, 222, -1,
          222, 607, 224, -1,
          604, 607, 220, -1,
          221, 608, 219, -1,
          219, 608, 606, -1,
          224, 611, 227, -1,
          607, 611, 224, -1,
          223, 609, 221, -1,
          221, 609, 608, -1,
          227, 613, 229, -1,
          611, 613, 227, -1,
          226, 610, 225, -1,
          225, 610, 223, -1,
          223, 610, 609, -1,
          229, 635, 231, -1,
          613, 635, 229, -1,
          228, 612, 226, -1,
          226, 612, 610, -1,
          635, 637, 231, -1,
          231, 637, 233, -1,
          230, 632, 228, -1,
          228, 632, 612, -1,
          232, 632, 230, -1,
          232, 629, 632, -1,
          234, 629, 232, -1,
          233, 639, 236, -1,
          637, 639, 233, -1,
          234, 627, 629, -1,
          237, 627, 235, -1,
          235, 627, 234, -1,
          237, 624, 627, -1,
          238, 624, 237, -1,
          202, 244, 250, -1,
          236, 641, 244, -1,
          639, 641, 236, -1,
          238, 623, 624, -1,
          239, 623, 238, -1,
          239, 621, 623, -1,
          241, 621, 240, -1,
          240, 621, 239, -1,
          241, 620, 621, -1,
          243, 620, 242, -1,
          242, 620, 241, -1,
          243, 616, 620, -1,
          246, 616, 245, -1,
          245, 616, 243, -1,
          246, 614, 616, -1,
          252, 614, 247, -1,
          247, 614, 246, -1,
          252, 615, 614, -1,
          252, 255, 615, -1,
          641, 643, 244, -1,
          244, 643, 250, -1,
          256, 617, 255, -1,
          255, 617, 615, -1,
          256, 258, 617, -1,
          258, 618, 617, -1,
          258, 262, 618, -1,
          618, 264, 619, -1,
          262, 264, 618, -1,
          264, 266, 619, -1,
          619, 268, 622, -1,
          266, 268, 619, -1,
          622, 270, 625, -1,
          268, 270, 622, -1,
          625, 272, 626, -1,
          270, 272, 625, -1,
          272, 273, 626, -1,
          626, 273, 628, -1,
          273, 275, 628, -1,
          628, 275, 630, -1,
          275, 276, 630, -1,
          630, 276, 631, -1,
          276, 277, 631, -1,
          631, 277, 633, -1,
          277, 278, 633, -1,
          633, 278, 634, -1,
          278, 282, 634, -1,
          634, 282, 636, -1,
          636, 282, 638, -1,
          282, 283, 638, -1,
          638, 283, 640, -1,
          283, 642, 640, -1,
          643, 312, 250, -1,
          283, 312, 642, -1,
          642, 312, 643, -1,
          644, 645, 646, -1,
          647, 648, 649, -1,
          650, 651, 652, -1,
          653, 651, 650, -1,
          649, 651, 653, -1,
          648, 651, 649, -1,
          652, 654, 644, -1,
          651, 654, 652, -1,
          655, 656, 657, -1,
          645, 656, 655, -1,
          644, 656, 645, -1,
          654, 656, 644, -1,
          657, 658, 659, -1,
          656, 658, 657, -1,
          660, 661, 662, -1,
          662, 663, 664, -1,
          661, 663, 662, -1,
          663, 665, 664, -1,
          664, 665, 666, -1,
          667, 668, 669, -1,
          666, 668, 667, -1,
          665, 668, 666, -1,
          668, 670, 669, -1,
          670, 671, 669, -1,
          669, 671, 672, -1,
          671, 673, 672, -1,
          673, 674, 672, -1,
          672, 675, 658, -1,
          674, 675, 672, -1,
          675, 676, 658, -1,
          658, 676, 659, -1,
          676, 677, 659, -1,
          678, 677, 679, -1,
          680, 677, 678, -1,
          659, 677, 680, -1,
          677, 681, 679, -1,
          679, 681, 682, -1,
          681, 683, 682, -1,
          682, 683, 684, -1,
          683, 685, 684, -1,
          684, 685, 686, -1,
          686, 687, 688, -1,
          685, 687, 686, -1,
          689, 690, 691, -1,
          691, 692, 693, -1,
          694, 692, 690, -1,
          690, 692, 691, -1,
          693, 695, 696, -1,
          692, 695, 693, -1,
          695, 697, 696, -1,
          696, 698, 699, -1,
          697, 698, 696, -1,
          700, 701, 702, -1,
          703, 701, 700, -1,
          704, 705, 706, -1,
          702, 705, 704, -1,
          701, 705, 702, -1,
          706, 707, 708, -1,
          705, 707, 706, -1,
          707, 709, 708, -1,
          708, 710, 711, -1,
          709, 710, 708, -1,
          710, 712, 711, -1,
          711, 713, 714, -1,
          712, 713, 711, -1,
          713, 715, 714, -1,
          714, 715, 698, -1,
          716, 715, 717, -1,
          718, 715, 716, -1,
          699, 715, 718, -1,
          698, 715, 699, -1,
          715, 719, 717, -1,
          720, 719, 721, -1,
          717, 719, 720, -1,
          719, 722, 721, -1,
          721, 722, 723, -1,
          723, 724, 725, -1,
          722, 724, 723, -1,
          724, 726, 725, -1,
          293, 302, 261, -1,
          261, 302, 248, -1,
          302, 304, 248, -1,
          304, 307, 248, -1,
          307, 309, 248, -1,
          248, 375, 249, -1,
          309, 375, 248, -1,
          375, 373, 249, -1,
          249, 334, 251, -1,
          373, 334, 249, -1,
          251, 333, 253, -1,
          334, 333, 251, -1,
          253, 332, 254, -1,
          333, 332, 253, -1,
          254, 330, 257, -1,
          332, 330, 254, -1,
          257, 328, 259, -1,
          330, 328, 257, -1,
          259, 326, 260, -1,
          328, 326, 259, -1,
          260, 324, 263, -1,
          326, 324, 260, -1,
          324, 321, 263, -1,
          263, 321, 265, -1,
          321, 315, 265, -1,
          265, 315, 267, -1,
          267, 315, 269, -1,
          269, 310, 271, -1,
          315, 310, 269, -1,
          271, 279, 274, -1,
          310, 279, 271, -1,
          279, 281, 274, -1,
          274, 280, 409, -1,
          281, 280, 274, -1,
          409, 306, 399, -1,
          280, 306, 409, -1,
          399, 300, 391, -1,
          306, 300, 399, -1,
          391, 297, 387, -1,
          300, 297, 391, -1,
          387, 291, 379, -1,
          297, 291, 387, -1,
          379, 290, 372, -1,
          291, 290, 379, -1,
          372, 289, 368, -1,
          290, 289, 372, -1,
          368, 288, 363, -1,
          289, 288, 368, -1,
          363, 287, 358, -1,
          288, 287, 363, -1,
          358, 284, 354, -1,
          354, 284, 350, -1,
          287, 284, 358, -1,
          350, 286, 346, -1,
          284, 286, 350, -1,
          346, 285, 344, -1,
          286, 285, 346, -1,
          285, 338, 344, -1,
          285, 296, 338, -1,
          296, 337, 338, -1,
          296, 295, 337, -1,
          299, 341, 295, -1,
          295, 341, 337, -1,
          292, 303, 294, -1,
          299, 347, 341, -1,
          298, 347, 299, -1,
          298, 351, 347, -1,
          301, 351, 298, -1,
          301, 356, 351, -1,
          305, 356, 301, -1,
          292, 313, 303, -1,
          303, 313, 308, -1,
          305, 359, 356, -1,
          311, 359, 305, -1,
          311, 366, 359, -1,
          313, 317, 308, -1,
          308, 317, 376, -1,
          314, 369, 311, -1,
          311, 369, 366, -1,
          317, 320, 376, -1,
          376, 320, 384, -1,
          316, 382, 314, -1,
          314, 382, 369, -1,
          320, 323, 384, -1,
          384, 323, 385, -1,
          316, 389, 382, -1,
          318, 389, 316, -1,
          323, 327, 385, -1,
          385, 327, 394, -1,
          319, 397, 318, -1,
          318, 397, 389, -1,
          322, 404, 319, -1,
          319, 404, 397, -1,
          327, 339, 394, -1,
          394, 339, 395, -1,
          325, 406, 322, -1,
          322, 406, 404, -1,
          395, 364, 401, -1,
          339, 364, 395, -1,
          329, 419, 325, -1,
          325, 419, 406, -1,
          401, 380, 402, -1,
          364, 380, 401, -1,
          329, 425, 419, -1,
          402, 392, 411, -1,
          380, 392, 402, -1,
          331, 430, 329, -1,
          329, 430, 425, -1,
          411, 405, 412, -1,
          392, 405, 411, -1,
          331, 444, 430, -1,
          374, 444, 331, -1,
          412, 414, 416, -1,
          416, 414, 417, -1,
          405, 414, 412, -1,
          417, 424, 423, -1,
          414, 424, 417, -1,
          374, 459, 444, -1,
          383, 459, 374, -1,
          423, 549, 429, -1,
          424, 549, 423, -1,
          383, 463, 459, -1,
          393, 463, 383, -1,
          429, 553, 433, -1,
          549, 553, 429, -1,
          400, 466, 393, -1,
          393, 466, 463, -1,
          433, 552, 437, -1,
          553, 552, 433, -1,
          400, 491, 466, -1,
          410, 491, 400, -1,
          437, 551, 448, -1,
          552, 551, 437, -1,
          448, 550, 449, -1,
          551, 550, 448, -1,
          415, 494, 410, -1,
          410, 494, 491, -1,
          550, 545, 449, -1,
          449, 545, 456, -1,
          415, 496, 494, -1,
          422, 496, 415, -1,
          545, 544, 456, -1,
          456, 544, 441, -1,
          422, 498, 496, -1,
          427, 498, 422, -1,
          441, 541, 439, -1,
          544, 541, 441, -1,
          427, 500, 498, -1,
          428, 500, 427, -1,
          439, 539, 442, -1,
          541, 539, 439, -1,
          428, 503, 500, -1,
          434, 503, 428, -1,
          442, 537, 440, -1,
          539, 537, 442, -1,
          434, 505, 503, -1,
          436, 505, 434, -1,
          440, 535, 457, -1,
          537, 535, 440, -1,
          436, 507, 505, -1,
          457, 533, 452, -1,
          535, 533, 457, -1,
          438, 510, 436, -1,
          436, 510, 507, -1,
          452, 532, 450, -1,
          533, 532, 452, -1,
          446, 513, 438, -1,
          438, 513, 510, -1,
          450, 531, 453, -1,
          532, 531, 450, -1,
          447, 514, 446, -1,
          446, 514, 513, -1,
          531, 529, 453, -1,
          453, 529, 451, -1,
          447, 516, 514, -1,
          445, 519, 447, -1,
          447, 519, 516, -1,
          451, 527, 454, -1,
          529, 527, 451, -1,
          445, 520, 519, -1,
          527, 525, 454, -1,
          454, 525, 455, -1,
          455, 521, 445, -1,
          445, 521, 520, -1,
          525, 521, 455, -1,
          727, 728, 729, -1,
          729, 728, 730, -1,
          731, 732, 730, -1,
          730, 732, 729, -1,
          733, 734, 731, -1,
          731, 734, 732, -1,
          734, 733, 727, -1,
          727, 733, 728, -1,
          342, 652, 345, -1,
          345, 652, 349, -1,
          342, 650, 652, -1,
          336, 650, 342, -1,
          343, 653, 340, -1,
          340, 653, 335, -1,
          335, 653, 336, -1,
          336, 653, 650, -1,
          652, 644, 349, -1,
          349, 644, 353, -1,
          353, 646, 357, -1,
          644, 646, 353, -1,
          352, 649, 348, -1,
          348, 649, 343, -1,
          343, 649, 653, -1,
          646, 645, 357, -1,
          357, 645, 362, -1,
          362, 645, 367, -1,
          352, 647, 649, -1,
          360, 647, 355, -1,
          355, 647, 352, -1,
          367, 655, 371, -1,
          645, 655, 367, -1,
          365, 648, 361, -1,
          361, 648, 360, -1,
          360, 648, 647, -1,
          377, 651, 370, -1,
          370, 651, 365, -1,
          365, 651, 648, -1,
          655, 657, 371, -1,
          371, 657, 378, -1,
          657, 659, 378, -1,
          378, 659, 386, -1,
          388, 654, 381, -1,
          381, 654, 377, -1,
          377, 654, 651, -1,
          386, 680, 390, -1,
          659, 680, 386, -1,
          390, 678, 398, -1,
          680, 678, 390, -1,
          396, 656, 388, -1,
          388, 656, 654, -1,
          398, 679, 408, -1,
          678, 679, 398, -1,
          403, 658, 396, -1,
          407, 658, 403, -1,
          396, 658, 656, -1,
          679, 682, 408, -1,
          408, 682, 420, -1,
          418, 672, 413, -1,
          413, 672, 407, -1,
          407, 672, 658, -1,
          418, 669, 672, -1,
          426, 669, 421, -1,
          421, 669, 418, -1,
          682, 684, 420, -1,
          420, 684, 432, -1,
          426, 667, 669, -1,
          435, 667, 431, -1,
          431, 667, 426, -1,
          435, 666, 667, -1,
          443, 666, 435, -1,
          443, 664, 666, -1,
          460, 664, 458, -1,
          458, 664, 443, -1,
          460, 662, 664, -1,
          464, 662, 462, -1,
          462, 662, 461, -1,
          461, 662, 460, -1,
          684, 686, 432, -1,
          464, 660, 662, -1,
          465, 660, 464, -1,
          465, 467, 660, -1,
          467, 661, 660, -1,
          467, 484, 661, -1,
          484, 663, 661, -1,
          484, 480, 663, -1,
          480, 479, 663, -1,
          663, 474, 665, -1,
          479, 474, 663, -1,
          474, 472, 665, -1,
          665, 469, 668, -1,
          472, 469, 665, -1,
          469, 471, 668, -1,
          668, 476, 670, -1,
          471, 476, 668, -1,
          686, 688, 432, -1,
          476, 482, 670, -1,
          688, 468, 432, -1,
          670, 486, 671, -1,
          482, 486, 670, -1,
          671, 489, 673, -1,
          673, 489, 674, -1,
          674, 489, 675, -1,
          675, 489, 676, -1,
          676, 489, 677, -1,
          486, 489, 671, -1,
          488, 689, 492, -1,
          689, 691, 492, -1,
          488, 690, 689, -1,
          481, 690, 485, -1,
          485, 690, 488, -1,
          691, 693, 492, -1,
          481, 694, 690, -1,
          475, 694, 477, -1,
          477, 694, 481, -1,
          693, 696, 492, -1,
          492, 696, 489, -1,
          475, 692, 694, -1,
          473, 692, 470, -1,
          470, 692, 475, -1,
          489, 699, 677, -1,
          696, 699, 489, -1,
          473, 695, 692, -1,
          478, 695, 473, -1,
          478, 697, 695, -1,
          487, 697, 483, -1,
          483, 697, 478, -1,
          677, 718, 681, -1,
          699, 718, 677, -1,
          681, 716, 683, -1,
          718, 716, 681, -1,
          487, 698, 697, -1,
          495, 698, 493, -1,
          493, 698, 490, -1,
          490, 698, 487, -1,
          716, 717, 683, -1,
          499, 714, 497, -1,
          497, 714, 495, -1,
          495, 714, 698, -1,
          683, 720, 685, -1,
          717, 720, 683, -1,
          499, 711, 714, -1,
          502, 711, 501, -1,
          501, 711, 499, -1,
          720, 721, 685, -1,
          502, 708, 711, -1,
          504, 708, 502, -1,
          504, 706, 708, -1,
          509, 706, 508, -1,
          508, 706, 506, -1,
          506, 706, 504, -1,
          512, 704, 511, -1,
          511, 704, 509, -1,
          509, 704, 706, -1,
          721, 723, 685, -1,
          517, 702, 515, -1,
          515, 702, 512, -1,
          512, 702, 704, -1,
          517, 700, 702, -1,
          524, 700, 523, -1,
          523, 700, 522, -1,
          522, 700, 518, -1,
          518, 700, 517, -1,
          526, 703, 524, -1,
          524, 703, 700, -1,
          526, 528, 703, -1,
          688, 687, 468, -1,
          723, 687, 685, -1,
          528, 530, 703, -1,
          703, 530, 701, -1,
          530, 534, 701, -1,
          534, 536, 701, -1,
          701, 536, 705, -1,
          536, 538, 705, -1,
          538, 540, 705, -1,
          705, 540, 707, -1,
          723, 725, 687, -1,
          540, 542, 707, -1,
          707, 542, 709, -1,
          542, 543, 709, -1,
          709, 543, 710, -1,
          543, 546, 710, -1,
          546, 547, 710, -1,
          710, 547, 712, -1,
          547, 556, 712, -1,
          712, 556, 713, -1,
          713, 556, 715, -1,
          556, 554, 715, -1,
          715, 554, 719, -1,
          719, 554, 722, -1,
          554, 555, 722, -1,
          722, 555, 724, -1,
          555, 726, 724, -1,
          725, 557, 687, -1,
          555, 557, 726, -1,
          726, 557, 725, -1,
          687, 557, 468, -1,
          735, 736, 737, -1,
          735, 737, 738, -1,
          733, 736, 735, -1,
          733, 735, 728, -1,
          728, 735, 738, -1,
          728, 738, 730, -1,
          736, 733, 731, -1,
          736, 731, 737, -1,
          737, 730, 738, -1,
          737, 731, 730, -1,
          732, 43, 729, -1,
          729, 43, 45, -1,
          732, 734, 43, -1,
          734, 46, 43, -1,
          45, 548, 729, -1,
          548, 727, 729, -1,
          548, 46, 727, -1,
          46, 734, 727, -1
        ]
      }
    }
}
