#VRML V2.0 utf8
WorldInfo {
  title "Exported triangle mesh to VRML97"
  info ["Created by FreeCAD"
        "<https://www.freecad.org>"]
}

Transform {
  scale 1 1 1
  rotation 0 0 1 0
  scaleOrientation 0 0 1 0
  center 0.000 0.000 0.000
  translation 0.000 0.000 0.000
  children
    Shape { 
      appearance
      Appearance {
        material
        Material {
          diffuseColor 0.8 0.8 0.8
        }
      }
      geometry
      IndexedFaceSet {
        coord
        Coordinate {
          point [
            21.073 15.189 -11.334,
            21.033 15.189 -11.333,
            21.073 15.188 -11.334,
            21.033 15.188 -11.333,
            20.993 15.189 -11.330,
            20.993 15.188 -11.330,
            20.953 15.189 -11.325,
            20.953 15.188 -11.325,
            20.914 15.189 -11.318,
            20.914 15.188 -11.318,
            20.875 15.189 -11.309,
            20.875 15.188 -11.309,
            20.837 15.189 -11.299,
            20.837 15.188 -11.299,
            20.799 15.189 -11.286,
            20.799 15.188 -11.286,
            20.762 15.189 -11.271,
            20.762 15.188 -11.271,
            20.725 15.189 -11.255,
            20.725 15.188 -11.255,
            20.690 15.189 -11.237,
            20.690 15.188 -11.237,
            20.655 15.189 -11.217,
            20.655 15.188 -11.217,
            20.622 15.189 -11.195,
            20.622 15.188 -11.195,
            20.590 15.189 -11.172,
            20.590 15.188 -11.172,
            20.558 15.189 -11.147,
            20.558 15.188 -11.147,
            20.528 15.189 -11.121,
            20.528 15.188 -11.121,
            20.500 15.189 -11.093,
            20.500 15.188 -11.093,
            20.473 15.189 -11.064,
            20.473 15.188 -11.064,
            20.447 15.189 -11.033,
            20.447 15.188 -11.033,
            20.423 15.189 -11.001,
            20.423 15.188 -11.001,
            20.401 15.189 -10.968,
            20.401 15.188 -10.968,
            20.380 15.189 -10.934,
            20.380 15.188 -10.934,
            20.361 15.189 -10.899,
            20.361 15.188 -10.899,
            20.343 15.189 -10.863,
            20.343 15.188 -10.863,
            20.328 15.189 -10.826,
            20.328 15.188 -10.826,
            20.314 15.189 -10.789,
            20.314 15.188 -10.789,
            20.302 15.189 -10.751,
            20.302 15.188 -10.751,
            20.293 15.189 -10.712,
            20.293 15.188 -10.712,
            20.285 15.189 -10.673,
            20.285 15.188 -10.673,
            20.279 15.189 -10.634,
            20.279 15.188 -10.634,
            20.275 15.189 -10.594,
            20.275 15.188 -10.594,
            20.273 15.189 -10.554,
            20.273 15.188 -10.554,
            20.273 15.189 -10.514,
            20.273 15.188 -10.514,
            20.275 15.189 -10.474,
            20.275 15.188 -10.474,
            20.279 15.189 -10.435,
            20.279 15.188 -10.435,
            20.285 15.189 -10.395,
            20.285 15.188 -10.395,
            20.293 15.189 -10.356,
            20.293 15.188 -10.356,
            20.302 15.189 -10.317,
            20.302 15.188 -10.317,
            20.314 15.189 -10.279,
            20.314 15.188 -10.279,
            20.328 15.189 -10.242,
            20.328 15.188 -10.242,
            20.343 15.189 -10.205,
            20.343 15.188 -10.205,
            20.361 15.189 -10.169,
            20.361 15.188 -10.169,
            20.380 15.189 -10.134,
            20.380 15.188 -10.134,
            20.401 15.189 -10.100,
            20.401 15.188 -10.100,
            20.423 15.189 -10.067,
            20.423 15.188 -10.067,
            20.447 15.189 -10.035,
            20.447 15.188 -10.035,
            20.473 15.189 -10.005,
            20.473 15.188 -10.005,
            20.500 15.189 -9.976,
            20.500 15.188 -9.976,
            20.528 15.189 -9.948,
            20.528 15.188 -9.948,
            20.558 15.189 -9.921,
            20.558 15.188 -9.921,
            20.590 15.189 -9.896,
            20.590 15.188 -9.896,
            20.622 15.189 -9.873,
            20.622 15.188 -9.873,
            20.655 15.189 -9.852,
            20.655 15.188 -9.852,
            20.690 15.189 -9.832,
            20.690 15.188 -9.832,
            20.725 15.189 -9.813,
            20.725 15.188 -9.813,
            20.762 15.189 -9.797,
            20.762 15.188 -9.797,
            20.799 15.189 -9.782,
            20.799 15.188 -9.782,
            20.837 15.189 -9.770,
            20.837 15.188 -9.770,
            20.875 15.189 -9.759,
            20.875 15.188 -9.759,
            20.914 15.189 -9.750,
            20.914 15.188 -9.750,
            20.953 15.189 -9.743,
            20.953 15.188 -9.743,
            20.993 15.189 -9.738,
            20.993 15.188 -9.738,
            21.033 15.189 -9.735,
            21.033 15.188 -9.735,
            21.073 15.189 -9.734,
            21.073 15.188 -9.734,
            38.158 14.989 -8.489,
            18.558 14.989 -8.489,
            38.158 -4.611 -8.489,
            18.558 -4.611 -8.489,
            18.358 14.989 -8.689,
            18.358 -4.611 -28.348,
            18.358 -4.611 -8.689,
            18.358 14.989 -28.348,
            18.558 15.189 -8.689,
            21.112 15.189 -9.735,
            21.152 15.189 -9.738,
            21.192 15.189 -9.743,
            21.231 15.189 -9.750,
            21.270 15.189 -9.759,
            21.308 15.189 -9.770,
            21.866 15.189 -10.634,
            37.876 15.189 -8.689,
            21.860 15.189 -10.673,
            21.853 15.189 -10.712,
            21.843 15.189 -10.751,
            21.831 15.189 -10.789,
            21.817 15.189 -10.826,
            21.802 15.189 -10.863,
            21.784 15.189 -10.899,
            21.765 15.189 -10.934,
            21.745 15.189 -10.968,
            21.722 15.189 -11.001,
            21.698 15.189 -11.033,
            21.672 15.189 -11.064,
            21.645 15.189 -11.093,
            21.617 15.189 -11.121,
            21.346 15.189 -9.782,
            21.383 15.189 -9.797,
            21.420 15.189 -9.813,
            21.455 15.189 -9.832,
            21.490 15.189 -9.852,
            21.523 15.189 -9.873,
            21.556 15.189 -9.896,
            21.587 15.189 -9.921,
            21.617 15.189 -9.948,
            21.645 15.189 -9.976,
            21.672 15.189 -10.005,
            21.698 15.189 -10.035,
            21.722 15.189 -10.067,
            21.745 15.189 -10.100,
            21.765 15.189 -10.134,
            21.784 15.189 -10.169,
            21.802 15.189 -10.205,
            21.817 15.189 -10.242,
            21.831 15.189 -10.279,
            21.843 15.189 -10.317,
            21.853 15.189 -10.356,
            21.860 15.189 -10.395,
            21.866 15.189 -10.435,
            21.870 15.189 -10.474,
            21.872 15.189 -10.514,
            21.872 15.189 -10.554,
            21.870 15.189 -10.594,
            18.558 15.189 -28.007,
            21.587 15.189 -11.147,
            21.556 15.189 -11.172,
            21.523 15.189 -11.195,
            21.490 15.189 -11.217,
            21.455 15.189 -11.237,
            21.420 15.189 -11.255,
            21.383 15.189 -11.271,
            21.346 15.189 -11.286,
            21.308 15.189 -11.299,
            21.270 15.189 -11.309,
            21.231 15.189 -11.318,
            21.192 15.189 -11.325,
            21.152 15.189 -11.330,
            21.112 15.189 -11.333,
            18.558 -4.811 -28.007,
            37.876 -4.811 -8.689,
            18.558 -4.811 -8.689,
            18.500 14.989 -28.348,
            18.500 -4.611 -28.348,
            38.258 14.989 -8.589,
            38.258 -4.611 -8.589,
            38.358 14.989 -28.289,
            38.358 14.989 -8.689,
            38.358 -4.611 -8.689,
            38.358 -4.611 -28.289,
            18.500 14.989 -28.489,
            38.158 -4.611 -28.489,
            18.500 -4.611 -28.489,
            38.158 14.989 -28.489,
            38.158 15.189 -28.289,
            18.841 15.189 -28.289,
            38.158 15.189 -8.972,
            18.841 -4.811 -28.289,
            38.158 -4.811 -28.289,
            38.158 -4.811 -8.972,
            21.112 15.188 -9.735,
            21.152 15.188 -9.738,
            21.192 15.188 -9.743,
            21.231 15.188 -9.750,
            21.270 15.188 -9.759,
            21.308 15.188 -9.770,
            21.346 15.188 -9.782,
            21.383 15.188 -9.797,
            21.420 15.188 -9.813,
            21.455 15.188 -9.832,
            21.490 15.188 -9.852,
            21.523 15.188 -9.873,
            21.556 15.188 -9.896,
            21.587 15.188 -9.921,
            21.617 15.188 -9.948,
            21.645 15.188 -9.976,
            21.672 15.188 -10.005,
            21.698 15.188 -10.035,
            21.722 15.188 -10.067,
            21.745 15.188 -10.100,
            21.765 15.188 -10.134,
            21.784 15.188 -10.169,
            21.802 15.188 -10.205,
            21.817 15.188 -10.242,
            21.831 15.188 -10.279,
            21.843 15.188 -10.317,
            21.853 15.188 -10.356,
            21.860 15.188 -10.395,
            21.866 15.188 -10.435,
            21.870 15.188 -10.474,
            21.872 15.188 -10.514,
            21.872 15.188 -10.554,
            21.870 15.188 -10.594,
            21.866 15.188 -10.634,
            21.860 15.188 -10.673,
            21.853 15.188 -10.712,
            21.843 15.188 -10.751,
            21.831 15.188 -10.789,
            21.817 15.188 -10.826,
            21.802 15.188 -10.863,
            21.784 15.188 -10.899,
            21.765 15.188 -10.934,
            21.745 15.188 -10.968,
            21.722 15.188 -11.001,
            21.698 15.188 -11.033,
            21.672 15.188 -11.064,
            21.645 15.188 -11.093,
            21.617 15.188 -11.121,
            21.587 15.188 -11.147,
            21.556 15.188 -11.172,
            21.523 15.188 -11.195,
            21.490 15.188 -11.217,
            21.455 15.188 -11.237,
            21.420 15.188 -11.255,
            21.383 15.188 -11.271,
            21.346 15.188 -11.286,
            21.308 15.188 -11.299,
            21.270 15.188 -11.309,
            21.231 15.188 -11.318,
            21.192 15.188 -11.325,
            21.152 15.188 -11.330,
            21.112 15.188 -11.333
          ]
        }
        coordIndex [
          0, 1, 2, -1,
          2, 1, 3, -1,
          1, 4, 3, -1,
          3, 4, 5, -1,
          4, 6, 5, -1,
          5, 6, 7, -1,
          6, 8, 7, -1,
          7, 8, 9, -1,
          8, 10, 9, -1,
          9, 10, 11, -1,
          10, 12, 11, -1,
          11, 12, 13, -1,
          12, 14, 13, -1,
          13, 14, 15, -1,
          14, 16, 15, -1,
          15, 16, 17, -1,
          16, 18, 17, -1,
          17, 18, 19, -1,
          18, 20, 19, -1,
          19, 20, 21, -1,
          20, 22, 21, -1,
          21, 22, 23, -1,
          23, 24, 25, -1,
          22, 24, 23, -1,
          25, 26, 27, -1,
          24, 26, 25, -1,
          27, 28, 29, -1,
          26, 28, 27, -1,
          29, 30, 31, -1,
          28, 30, 29, -1,
          31, 32, 33, -1,
          30, 32, 31, -1,
          33, 34, 35, -1,
          32, 34, 33, -1,
          34, 36, 35, -1,
          35, 36, 37, -1,
          36, 38, 37, -1,
          37, 38, 39, -1,
          38, 40, 39, -1,
          39, 40, 41, -1,
          40, 42, 41, -1,
          41, 42, 43, -1,
          42, 44, 43, -1,
          43, 44, 45, -1,
          44, 46, 45, -1,
          45, 46, 47, -1,
          46, 48, 47, -1,
          47, 48, 49, -1,
          48, 50, 49, -1,
          49, 50, 51, -1,
          50, 52, 51, -1,
          51, 52, 53, -1,
          52, 54, 53, -1,
          53, 54, 55, -1,
          54, 56, 55, -1,
          55, 56, 57, -1,
          56, 58, 57, -1,
          57, 58, 59, -1,
          58, 60, 59, -1,
          59, 60, 61, -1,
          60, 62, 61, -1,
          61, 62, 63, -1,
          62, 64, 63, -1,
          63, 64, 65, -1,
          64, 66, 65, -1,
          65, 66, 67, -1,
          66, 68, 67, -1,
          67, 68, 69, -1,
          68, 70, 69, -1,
          69, 70, 71, -1,
          71, 72, 73, -1,
          70, 72, 71, -1,
          73, 74, 75, -1,
          72, 74, 73, -1,
          75, 76, 77, -1,
          74, 76, 75, -1,
          77, 78, 79, -1,
          76, 78, 77, -1,
          79, 80, 81, -1,
          78, 80, 79, -1,
          81, 82, 83, -1,
          80, 82, 81, -1,
          83, 84, 85, -1,
          82, 84, 83, -1,
          84, 86, 85, -1,
          85, 86, 87, -1,
          86, 88, 87, -1,
          87, 88, 89, -1,
          88, 90, 89, -1,
          89, 90, 91, -1,
          91, 92, 93, -1,
          90, 92, 91, -1,
          93, 94, 95, -1,
          92, 94, 93, -1,
          95, 96, 97, -1,
          94, 96, 95, -1,
          97, 98, 99, -1,
          96, 98, 97, -1,
          99, 100, 101, -1,
          98, 100, 99, -1,
          101, 102, 103, -1,
          100, 102, 101, -1,
          103, 104, 105, -1,
          102, 104, 103, -1,
          105, 106, 107, -1,
          104, 106, 105, -1,
          107, 108, 109, -1,
          106, 108, 107, -1,
          109, 110, 111, -1,
          108, 110, 109, -1,
          111, 112, 113, -1,
          110, 112, 111, -1,
          113, 114, 115, -1,
          112, 114, 113, -1,
          115, 116, 117, -1,
          114, 116, 115, -1,
          117, 118, 119, -1,
          116, 118, 117, -1,
          119, 120, 121, -1,
          118, 120, 119, -1,
          121, 122, 123, -1,
          120, 122, 121, -1,
          123, 124, 125, -1,
          122, 124, 123, -1,
          124, 126, 125, -1,
          125, 126, 127, -1,
          128, 129, 130, -1,
          130, 129, 131, -1,
          132, 133, 134, -1,
          132, 135, 133, -1,
          136, 96, 94, -1,
          94, 92, 136, -1,
          136, 98, 96, -1,
          92, 90, 136, -1,
          136, 100, 98, -1,
          90, 88, 136, -1,
          136, 102, 100, -1,
          88, 86, 136, -1,
          136, 104, 102, -1,
          86, 84, 136, -1,
          136, 106, 104, -1,
          84, 82, 136, -1,
          136, 108, 106, -1,
          82, 80, 136, -1,
          136, 110, 108, -1,
          80, 78, 136, -1,
          136, 112, 110, -1,
          78, 76, 136, -1,
          136, 114, 112, -1,
          76, 74, 136, -1,
          136, 116, 114, -1,
          74, 72, 136, -1,
          136, 118, 116, -1,
          72, 70, 136, -1,
          136, 120, 118, -1,
          70, 68, 136, -1,
          136, 122, 120, -1,
          68, 66, 136, -1,
          136, 124, 122, -1,
          66, 64, 136, -1,
          136, 126, 124, -1,
          64, 62, 136, -1,
          136, 137, 126, -1,
          62, 60, 136, -1,
          136, 138, 137, -1,
          60, 58, 136, -1,
          136, 139, 138, -1,
          58, 56, 136, -1,
          136, 140, 139, -1,
          56, 54, 136, -1,
          136, 141, 140, -1,
          54, 52, 136, -1,
          136, 142, 141, -1,
          52, 50, 136, -1,
          50, 48, 136, -1,
          48, 46, 136, -1,
          46, 44, 136, -1,
          44, 42, 136, -1,
          42, 40, 136, -1,
          143, 144, 145, -1,
          145, 144, 146, -1,
          146, 144, 147, -1,
          136, 144, 142, -1,
          147, 144, 148, -1,
          148, 144, 149, -1,
          149, 144, 150, -1,
          150, 144, 151, -1,
          151, 144, 152, -1,
          152, 144, 153, -1,
          153, 144, 154, -1,
          154, 144, 155, -1,
          155, 144, 156, -1,
          156, 144, 157, -1,
          157, 144, 158, -1,
          142, 144, 159, -1,
          159, 144, 160, -1,
          160, 144, 161, -1,
          161, 144, 162, -1,
          162, 144, 163, -1,
          163, 144, 164, -1,
          164, 144, 165, -1,
          165, 144, 166, -1,
          166, 144, 167, -1,
          167, 144, 168, -1,
          168, 144, 169, -1,
          169, 144, 170, -1,
          170, 144, 171, -1,
          171, 144, 172, -1,
          172, 144, 173, -1,
          173, 144, 174, -1,
          174, 144, 175, -1,
          175, 144, 176, -1,
          176, 144, 177, -1,
          177, 144, 178, -1,
          178, 144, 179, -1,
          179, 144, 180, -1,
          180, 144, 181, -1,
          181, 144, 182, -1,
          182, 144, 183, -1,
          183, 144, 184, -1,
          184, 144, 185, -1,
          185, 144, 143, -1,
          144, 186, 158, -1,
          0, 186, 1, -1,
          1, 186, 4, -1,
          4, 186, 6, -1,
          6, 186, 8, -1,
          8, 186, 10, -1,
          10, 186, 12, -1,
          12, 186, 14, -1,
          14, 186, 16, -1,
          16, 186, 18, -1,
          18, 186, 20, -1,
          20, 186, 22, -1,
          158, 186, 187, -1,
          22, 186, 24, -1,
          187, 186, 188, -1,
          24, 186, 26, -1,
          188, 186, 189, -1,
          26, 186, 28, -1,
          189, 186, 190, -1,
          28, 186, 30, -1,
          190, 186, 191, -1,
          30, 186, 32, -1,
          191, 186, 192, -1,
          32, 186, 34, -1,
          192, 186, 193, -1,
          34, 186, 36, -1,
          193, 186, 194, -1,
          36, 186, 38, -1,
          194, 186, 195, -1,
          38, 186, 40, -1,
          195, 186, 196, -1,
          196, 186, 197, -1,
          197, 186, 198, -1,
          40, 186, 136, -1,
          198, 186, 199, -1,
          199, 186, 200, -1,
          200, 186, 0, -1,
          201, 202, 203, -1,
          132, 136, 186, -1,
          135, 132, 186, -1,
          135, 204, 133, -1,
          133, 204, 205, -1,
          203, 134, 201, -1,
          134, 133, 201, -1,
          129, 132, 131, -1,
          131, 132, 134, -1,
          136, 132, 129, -1,
          186, 204, 135, -1,
          205, 201, 133, -1,
          131, 134, 203, -1,
          128, 144, 129, -1,
          129, 144, 136, -1,
          186, 144, 204, -1,
          144, 206, 204, -1,
          202, 201, 205, -1,
          207, 202, 205, -1,
          202, 131, 203, -1,
          202, 130, 131, -1,
          206, 144, 128, -1,
          207, 130, 202, -1,
          206, 128, 207, -1,
          207, 128, 130, -1,
          208, 209, 210, -1,
          208, 210, 211, -1,
          212, 213, 214, -1,
          212, 215, 213, -1,
          216, 217, 218, -1,
          219, 220, 221, -1,
          216, 215, 217, -1,
          215, 212, 217, -1,
          215, 208, 213, -1,
          213, 208, 211, -1,
          213, 220, 219, -1,
          214, 213, 219, -1,
          204, 212, 205, -1,
          205, 212, 214, -1,
          204, 217, 212, -1,
          216, 208, 215, -1,
          211, 220, 213, -1,
          219, 205, 214, -1,
          218, 217, 204, -1,
          206, 218, 204, -1,
          218, 208, 216, -1,
          218, 209, 208, -1,
          210, 221, 211, -1,
          211, 221, 220, -1,
          219, 221, 205, -1,
          221, 207, 205, -1,
          209, 218, 206, -1,
          221, 210, 207, -1,
          209, 206, 210, -1,
          210, 206, 207, -1,
          126, 137, 127, -1,
          127, 137, 222, -1,
          137, 138, 222, -1,
          222, 138, 223, -1,
          138, 139, 223, -1,
          223, 139, 224, -1,
          139, 140, 224, -1,
          224, 140, 225, -1,
          140, 141, 225, -1,
          225, 141, 226, -1,
          141, 142, 226, -1,
          226, 142, 227, -1,
          142, 159, 227, -1,
          227, 159, 228, -1,
          159, 160, 228, -1,
          228, 160, 229, -1,
          160, 161, 229, -1,
          229, 161, 230, -1,
          230, 162, 231, -1,
          161, 162, 230, -1,
          231, 163, 232, -1,
          162, 163, 231, -1,
          232, 164, 233, -1,
          163, 164, 232, -1,
          233, 165, 234, -1,
          164, 165, 233, -1,
          234, 166, 235, -1,
          165, 166, 234, -1,
          235, 167, 236, -1,
          166, 167, 235, -1,
          236, 168, 237, -1,
          167, 168, 236, -1,
          237, 169, 238, -1,
          168, 169, 237, -1,
          169, 170, 238, -1,
          238, 170, 239, -1,
          170, 171, 239, -1,
          239, 171, 240, -1,
          171, 172, 240, -1,
          240, 172, 241, -1,
          172, 173, 241, -1,
          241, 173, 242, -1,
          173, 174, 242, -1,
          242, 174, 243, -1,
          174, 175, 243, -1,
          243, 175, 244, -1,
          175, 176, 244, -1,
          244, 176, 245, -1,
          176, 177, 245, -1,
          245, 177, 246, -1,
          177, 178, 246, -1,
          246, 178, 247, -1,
          178, 179, 247, -1,
          247, 179, 248, -1,
          179, 180, 248, -1,
          248, 180, 249, -1,
          180, 181, 249, -1,
          249, 181, 250, -1,
          181, 182, 250, -1,
          250, 182, 251, -1,
          182, 183, 251, -1,
          251, 183, 252, -1,
          183, 184, 252, -1,
          252, 184, 253, -1,
          184, 185, 253, -1,
          253, 185, 254, -1,
          185, 143, 254, -1,
          254, 143, 255, -1,
          143, 145, 255, -1,
          255, 145, 256, -1,
          145, 146, 256, -1,
          256, 146, 257, -1,
          257, 147, 258, -1,
          146, 147, 257, -1,
          258, 148, 259, -1,
          147, 148, 258, -1,
          259, 149, 260, -1,
          148, 149, 259, -1,
          260, 150, 261, -1,
          149, 150, 260, -1,
          261, 151, 262, -1,
          150, 151, 261, -1,
          262, 152, 263, -1,
          151, 152, 262, -1,
          152, 153, 263, -1,
          263, 153, 264, -1,
          153, 154, 264, -1,
          264, 154, 265, -1,
          265, 155, 266, -1,
          154, 155, 265, -1,
          266, 156, 267, -1,
          155, 156, 266, -1,
          267, 157, 268, -1,
          156, 157, 267, -1,
          268, 158, 269, -1,
          157, 158, 268, -1,
          269, 187, 270, -1,
          158, 187, 269, -1,
          270, 188, 271, -1,
          187, 188, 270, -1,
          271, 189, 272, -1,
          188, 189, 271, -1,
          272, 190, 273, -1,
          189, 190, 272, -1,
          273, 191, 274, -1,
          190, 191, 273, -1,
          274, 192, 275, -1,
          191, 192, 274, -1,
          275, 193, 276, -1,
          192, 193, 275, -1,
          276, 194, 277, -1,
          193, 194, 276, -1,
          277, 195, 278, -1,
          194, 195, 277, -1,
          278, 196, 279, -1,
          195, 196, 278, -1,
          279, 197, 280, -1,
          196, 197, 279, -1,
          280, 198, 281, -1,
          197, 198, 280, -1,
          281, 199, 282, -1,
          198, 199, 281, -1,
          282, 200, 283, -1,
          199, 200, 282, -1,
          200, 0, 283, -1,
          283, 0, 2, -1,
          25, 27, 29, -1,
          21, 23, 25, -1,
          57, 53, 55, -1,
          73, 69, 71, -1,
          279, 280, 281, -1,
          276, 277, 278, -1,
          276, 278, 279, -1,
          81, 75, 77, -1,
          81, 77, 79, -1,
          81, 73, 75, -1,
          85, 81, 83, -1,
          85, 73, 81, -1,
          273, 274, 275, -1,
          273, 275, 276, -1,
          89, 85, 87, -1,
          89, 73, 85, -1,
          270, 271, 272, -1,
          270, 272, 273, -1,
          269, 270, 273, -1,
          95, 91, 93, -1,
          99, 89, 91, -1,
          99, 95, 97, -1,
          99, 91, 95, -1,
          101, 89, 99, -1,
          265, 266, 267, -1,
          265, 267, 268, -1,
          265, 268, 269, -1,
          264, 265, 269, -1,
          263, 264, 269, -1,
          107, 101, 103, -1,
          107, 103, 105, -1,
          107, 89, 101, -1,
          111, 107, 109, -1,
          113, 107, 111, -1,
          259, 260, 261, -1,
          259, 261, 262, -1,
          259, 262, 263, -1,
          115, 107, 113, -1,
          117, 107, 115, -1,
          121, 117, 119, -1,
          255, 256, 257, -1,
          123, 107, 117, -1,
          123, 117, 121, -1,
          222, 125, 127, -1,
          250, 251, 252, -1,
          224, 222, 223, -1,
          224, 125, 222, -1,
          224, 123, 125, -1,
          249, 250, 252, -1,
          226, 224, 225, -1,
          247, 248, 249, -1,
          227, 224, 226, -1,
          228, 224, 227, -1,
          245, 246, 247, -1,
          242, 243, 244, -1,
          242, 244, 245, -1,
          242, 247, 249, -1,
          242, 245, 247, -1,
          241, 242, 249, -1,
          241, 249, 252, -1,
          241, 252, 253, -1,
          233, 123, 224, -1,
          233, 224, 228, -1,
          233, 228, 229, -1,
          233, 229, 230, -1,
          233, 89, 107, -1,
          233, 230, 231, -1,
          233, 69, 73, -1,
          233, 231, 232, -1,
          233, 25, 29, -1,
          233, 21, 25, -1,
          233, 73, 89, -1,
          233, 107, 123, -1,
          233, 281, 282, -1,
          233, 282, 283, -1,
          233, 283, 2, -1,
          233, 2, 3, -1,
          233, 3, 5, -1,
          233, 5, 7, -1,
          233, 7, 9, -1,
          233, 9, 11, -1,
          233, 11, 13, -1,
          233, 13, 15, -1,
          233, 15, 17, -1,
          233, 17, 19, -1,
          233, 19, 21, -1,
          233, 29, 31, -1,
          233, 53, 57, -1,
          233, 31, 33, -1,
          233, 33, 35, -1,
          233, 35, 37, -1,
          233, 37, 39, -1,
          233, 39, 41, -1,
          233, 41, 43, -1,
          233, 43, 45, -1,
          233, 45, 47, -1,
          233, 47, 49, -1,
          233, 49, 51, -1,
          233, 51, 53, -1,
          233, 57, 59, -1,
          233, 59, 61, -1,
          233, 61, 63, -1,
          233, 63, 65, -1,
          233, 65, 67, -1,
          233, 67, 69, -1,
          235, 233, 234, -1,
          238, 239, 240, -1,
          236, 233, 235, -1,
          237, 281, 233, -1,
          237, 273, 276, -1,
          237, 276, 279, -1,
          237, 240, 241, -1,
          237, 253, 254, -1,
          237, 254, 255, -1,
          237, 257, 258, -1,
          237, 258, 259, -1,
          237, 241, 253, -1,
          237, 259, 263, -1,
          237, 263, 269, -1,
          237, 233, 236, -1,
          237, 279, 281, -1,
          237, 269, 273, -1,
          237, 238, 240, -1,
          237, 255, 257, -1
        ]
      }
    }
}
