#VRML V2.0 utf8
WorldInfo {
  title "Exported triangle mesh to VRML97"
  info ["Created by FreeCAD"
        "<https://www.freecad.org>"]
}

Transform {
  scale 1 1 1
  rotation 0 0 1 0
  scaleOrientation 0 0 1 0
  center 0.000 0.000 0.000
  translation 0.000 0.000 0.000
  children
    Shape { 
      appearance
      Appearance {
        material
        Material {
          diffuseColor 0.8 0.8 0.8
        }
      }
      geometry
      IndexedFaceSet {
        coord
        Coordinate {
          point [
            -13.611 11.775 0.500,
            -13.633 11.756 0.500,
            -13.624 11.762 0.500,
            -13.601 11.787 0.500,
            -13.643 11.751 0.500,
            -13.594 11.798 0.500,
            -13.654 11.746 0.500,
            -13.590 11.808 0.500,
            -13.584 11.825 0.500,
            -13.666 11.743 0.500,
            -13.681 11.740 0.500,
            -13.580 11.842 0.500,
            -13.579 11.860 0.500,
            -13.612 11.946 0.500,
            -13.635 11.963 0.500,
            -13.605 11.937 0.500,
            -13.620 11.953 0.500,
            -13.586 11.903 0.500,
            -13.649 11.970 0.500,
            -13.582 11.888 0.500,
            -13.591 11.916 0.500,
            -13.598 11.928 0.500,
            -13.661 11.974 0.500,
            -13.580 11.876 0.500,
            -13.672 11.976 0.500,
            -13.689 11.979 0.500,
            -13.696 11.737 0.500,
            -13.707 11.981 0.500,
            -13.716 11.736 0.500,
            -13.725 11.982 0.500,
            -13.748 11.735 0.500,
            -13.954 11.982 0.500,
            -13.954 11.735 0.500,
            17.800 12.300 0.500,
            -13.407 11.300 0.500,
            17.800 -12.300 0.500,
            -17.800 -12.300 0.500,
            -13.532 11.300 0.500,
            -13.534 11.513 0.500,
            -13.525 11.722 0.500,
            -13.550 11.539 0.500,
            -13.535 11.712 0.500,
            -13.559 11.552 0.500,
            -13.514 11.733 0.500,
            -13.544 11.704 0.500,
            -13.568 11.565 0.500,
            -13.504 11.747 0.500,
            -13.554 11.697 0.500,
            -13.581 11.582 0.500,
            -13.954 11.300 0.500,
            -13.671 11.533 0.500,
            -13.628 11.463 0.500,
            -13.563 11.692 0.500,
            -13.594 11.597 0.500,
            -13.495 11.762 0.500,
            -13.695 11.567 0.500,
            -13.581 11.683 0.500,
            -13.603 11.606 0.500,
            -13.486 11.780 0.500,
            -13.596 11.676 0.500,
            -13.615 11.618 0.500,
            -13.483 11.789 0.500,
            -13.479 11.799 0.500,
            -13.608 11.671 0.500,
            -13.627 11.628 0.500,
            -13.476 11.810 0.500,
            -13.619 11.668 0.500,
            -13.474 11.822 0.500,
            -13.633 11.664 0.500,
            -13.640 11.637 0.500,
            -13.472 11.833 0.500,
            -13.647 11.661 0.500,
            -13.654 11.645 0.500,
            -13.471 11.845 0.500,
            -13.675 11.656 0.500,
            -13.470 11.863 0.500,
            -13.471 11.881 0.500,
            -13.473 11.900 0.500,
            -13.477 11.918 0.500,
            -13.480 11.929 0.500,
            -13.484 11.942 0.500,
            -13.790 11.642 0.500,
            -13.801 11.644 0.500,
            -13.771 11.636 0.500,
            -13.490 11.956 0.500,
            -13.816 11.645 0.500,
            -13.728 11.607 0.500,
            -13.718 11.597 0.500,
            -13.737 11.615 0.500,
            -13.753 11.627 0.500,
            -13.498 11.974 0.500,
            -13.828 11.646 0.500,
            -13.708 11.585 0.500,
            -13.504 11.983 0.500,
            -13.843 11.646 0.500,
            -13.510 11.992 0.500,
            -13.518 12.002 0.500,
            -13.527 12.012 0.500,
            -13.954 11.646 0.500,
            -14.063 11.300 0.500,
            -14.284 11.358 0.500,
            -14.294 11.347 0.500,
            -14.305 11.338 0.500,
            -14.315 11.330 0.500,
            -14.273 11.371 0.500,
            -14.325 11.323 0.500,
            -14.263 11.386 0.500,
            -14.334 11.317 0.500,
            -14.253 11.403 0.500,
            -14.352 11.308 0.500,
            -14.248 11.412 0.500,
            -14.243 11.422 0.500,
            -14.367 11.302 0.500,
            -14.236 11.439 0.500,
            -14.380 11.299 0.500,
            -14.391 11.296 0.500,
            -14.230 11.458 0.500,
            -14.224 11.477 0.500,
            -14.410 11.293 0.500,
            -14.219 11.496 0.500,
            -14.429 11.291 0.500,
            -14.215 11.517 0.500,
            -14.448 11.290 0.500,
            -14.222 11.875 0.500,
            -14.063 12.070 0.500,
            -14.229 11.898 0.500,
            -14.216 11.850 0.500,
            -14.212 11.830 0.500,
            -14.237 11.919 0.500,
            -14.245 11.939 0.500,
            -14.253 11.957 0.500,
            -14.259 11.968 0.500,
            -14.470 11.291 0.500,
            -14.942 11.300 0.500,
            -14.484 11.292 0.500,
            -14.497 11.294 0.500,
            -14.509 11.297 0.500,
            -14.520 11.299 0.500,
            -14.529 11.302 0.500,
            -14.547 11.309 0.500,
            -14.561 11.316 0.500,
            -14.572 11.322 0.500,
            -14.581 11.328 0.500,
            -14.595 11.339 0.500,
            -14.608 11.351 0.500,
            -14.620 11.364 0.500,
            -14.634 11.385 0.500,
            -14.642 11.399 0.500,
            -14.648 11.410 0.500,
            -14.655 11.427 0.500,
            -14.662 11.445 0.500,
            -14.669 11.464 0.500,
            -14.675 11.485 0.500,
            -14.681 11.511 0.500,
            -14.686 11.542 0.500,
            -14.266 11.979 0.500,
            -14.272 11.988 0.500,
            -14.690 11.575 0.500,
            -14.279 11.997 0.500,
            -14.286 12.006 0.500,
            -14.693 11.609 0.500,
            -14.294 12.014 0.500,
            -14.302 12.021 0.500,
            -14.311 12.028 0.500,
            -15.041 11.300 0.500,
            -14.320 12.035 0.500,
            -14.330 12.041 0.500,
            -14.341 12.046 0.500,
            -14.352 12.052 0.500,
            -14.364 12.056 0.500,
            -14.376 12.060 0.500,
            -14.388 12.064 0.500,
            -14.400 12.066 0.500,
            -14.412 12.068 0.500,
            -14.427 12.070 0.500,
            -14.448 12.070 0.500,
            -15.426 11.300 0.500,
            -15.541 11.300 0.500,
            -15.142 11.826 0.500,
            -15.173 11.808 0.500,
            -15.185 11.802 0.500,
            -15.196 11.797 0.500,
            -15.219 11.787 0.500,
            -14.671 11.888 0.500,
            -14.942 12.070 0.500,
            -14.676 11.870 0.500,
            -14.665 11.909 0.500,
            -14.658 11.927 0.500,
            -14.654 11.937 0.500,
            -14.645 11.955 0.500,
            -14.636 11.971 0.500,
            -14.626 11.986 0.500,
            -14.615 12.000 0.500,
            -14.605 12.011 0.500,
            -14.594 12.021 0.500,
            -14.584 12.029 0.500,
            -14.574 12.036 0.500,
            -14.565 12.042 0.500,
            -14.556 12.047 0.500,
            -14.539 12.055 0.500,
            -14.525 12.060 0.500,
            -14.512 12.063 0.500,
            -14.502 12.065 0.500,
            -14.484 12.068 0.500,
            -14.466 12.070 0.500,
            -15.022 12.042 0.500,
            -15.016 12.051 0.500,
            -15.028 12.033 0.500,
            -15.910 11.300 0.500,
            -15.196 11.890 0.500,
            -15.426 12.070 0.500,
            -15.219 11.878 0.500,
            -15.180 11.899 0.500,
            -15.162 11.910 0.500,
            -15.139 11.925 0.500,
            -15.120 11.939 0.500,
            -15.101 11.955 0.500,
            -15.082 11.972 0.500,
            -15.067 11.987 0.500,
            -15.053 12.001 0.500,
            -15.040 12.017 0.500,
            -15.006 12.070 0.500,
            -16.227 11.372 0.500,
            -16.234 11.365 0.500,
            -16.019 11.300 0.500,
            -16.219 11.380 0.500,
            -16.248 11.352 0.500,
            -16.213 11.389 0.500,
            -16.206 11.398 0.500,
            -16.262 11.342 0.500,
            -16.199 11.408 0.500,
            -16.276 11.333 0.500,
            -16.193 11.419 0.500,
            -16.289 11.326 0.500,
            -16.188 11.429 0.500,
            -16.183 11.440 0.500,
            -16.306 11.318 0.500,
            -16.317 11.313 0.500,
            -16.178 11.452 0.500,
            -16.175 11.464 0.500,
            -16.336 11.307 0.500,
            -16.172 11.475 0.500,
            -16.170 11.485 0.500,
            -16.354 11.301 0.500,
            -16.168 11.499 0.500,
            -16.372 11.297 0.500,
            -16.390 11.294 0.500,
            -16.404 11.292 0.500,
            -16.419 11.291 0.500,
            -16.447 11.290 0.500,
            -16.466 11.290 0.500,
            -16.479 11.291 0.500,
            -16.279 11.540 0.500,
            -16.285 11.558 0.500,
            -16.277 11.529 0.500,
            -16.293 11.572 0.500,
            -16.302 11.582 0.500,
            -16.310 11.590 0.500,
            -16.276 11.513 0.500,
            -16.325 11.601 0.500,
            -16.282 11.477 0.500,
            -16.289 11.460 0.500,
            -16.277 11.495 0.500,
            -16.341 11.610 0.500,
            -16.327 11.414 0.500,
            -16.336 11.408 0.500,
            -16.313 11.427 0.500,
            -16.302 11.439 0.500,
            -16.294 11.450 0.500,
            -16.358 11.617 0.500,
            -16.346 11.403 0.500,
            -16.357 11.397 0.500,
            -16.370 11.392 0.500,
            -16.371 11.622 0.500,
            -16.384 11.388 0.500,
            -16.388 11.628 0.500,
            -16.431 11.380 0.500,
            -16.452 11.379 0.500,
            -16.418 11.381 0.500,
            -16.400 11.384 0.500,
            -16.509 11.385 0.500,
            -16.520 11.388 0.500,
            -16.495 11.382 0.500,
            -16.480 11.380 0.500,
            -16.468 11.380 0.500,
            -16.267 11.687 0.500,
            -16.187 11.853 0.500,
            -16.282 11.696 0.500,
            -16.252 11.678 0.500,
            -16.239 11.669 0.500,
            -16.228 11.659 0.500,
            -16.219 11.650 0.500,
            -16.211 11.641 0.500,
            -16.204 11.633 0.500,
            -16.198 11.624 0.500,
            -16.019 12.070 0.500,
            -16.196 11.910 0.500,
            -16.191 11.891 0.500,
            -16.199 11.921 0.500,
            -16.204 11.934 0.500,
            -16.296 11.853 0.500,
            -16.301 11.705 0.500,
            -16.359 11.726 0.500,
            -16.395 11.736 0.500,
            -16.344 11.721 0.500,
            -16.326 11.715 0.500,
            -16.314 11.710 0.500,
            -16.211 11.949 0.500,
            -16.648 11.502 0.500,
            -16.509 11.661 0.500,
            -16.651 11.513 0.500,
            -16.644 11.493 0.500,
            -16.636 11.475 0.500,
            -16.627 11.459 0.500,
            -16.617 11.446 0.500,
            -16.606 11.435 0.500,
            -16.596 11.425 0.500,
            -16.585 11.418 0.500,
            -16.576 11.411 0.500,
            -16.566 11.406 0.500,
            -16.548 11.397 0.500,
            -16.533 11.392 0.500,
            -16.654 11.524 0.500,
            -16.220 11.966 0.500,
            -16.446 11.750 0.500,
            -16.298 11.872 0.500,
            -16.301 11.884 0.500,
            -16.657 11.541 0.500,
            -16.226 11.976 0.500,
            -16.306 11.901 0.500,
            -16.233 11.985 0.500,
            -16.661 11.567 0.500,
            -16.313 11.916 0.500,
            -16.557 11.676 0.500,
            -16.241 11.995 0.500,
            -16.321 11.929 0.500,
            -16.251 12.005 0.500,
            -16.329 11.941 0.500,
            -16.586 11.686 0.500,
            -16.262 12.016 0.500,
            -16.338 11.950 0.500,
            -16.686 11.367 0.500,
            -16.933 11.362 0.500,
            -16.672 11.355 0.500,
            -16.699 11.380 0.500,
            -16.926 11.369 0.500,
            -16.919 11.377 0.500,
            -16.664 11.349 0.500,
            -16.948 11.350 0.500,
            -16.655 11.342 0.500,
            -16.710 11.393 0.500,
            -16.912 11.386 0.500,
            -16.606 11.694 0.500,
            -16.905 11.396 0.500,
            -16.719 11.406 0.500,
            -16.275 12.026 0.500,
            -16.645 11.336 0.500,
            -16.963 11.340 0.500,
            -16.635 11.330 0.500,
            -16.727 11.418 0.500,
            -16.899 11.406 0.500,
            -16.977 11.332 0.500,
            -16.624 11.325 0.500,
            -16.733 11.429 0.500,
            -16.893 11.417 0.500,
            -16.615 11.698 0.500,
            -16.739 11.439 0.500,
            -16.888 11.429 0.500,
            -16.991 11.326 0.500,
            -16.612 11.319 0.500,
            -16.355 11.964 0.500,
            -16.346 11.958 0.500,
            -16.883 11.440 0.500,
            -16.744 11.449 0.500,
            -17.003 11.321 0.500,
            -16.600 11.314 0.500,
            -16.291 12.036 0.500,
            -16.626 11.703 0.500,
            -16.748 11.459 0.500,
            -16.879 11.452 0.500,
            -17.015 11.317 0.500,
            -16.582 11.308 0.500,
            -16.754 11.476 0.500,
            -16.875 11.463 0.500,
            -17.033 11.312 0.500,
            -16.564 11.303 0.500,
            -16.372 11.974 0.500,
            -16.760 11.494 0.500,
            -16.873 11.475 0.500,
            -16.308 12.046 0.500,
            -16.763 11.506 0.500,
            -16.871 11.487 0.500,
            -17.053 11.308 0.500,
            -16.545 11.299 0.500,
            -16.647 11.714 0.500,
            -16.387 11.980 0.500,
            -16.766 11.524 0.500,
            -16.869 11.500 0.500,
            -17.071 11.305 0.500,
            -16.527 11.296 0.500,
            -16.326 12.054 0.500,
            -16.660 11.723 0.500,
            -16.770 11.567 0.500,
            -16.401 11.984 0.500,
            -16.768 11.543 0.500,
            -16.869 11.521 0.500,
            -16.336 12.058 0.500,
            -16.412 11.986 0.500,
            -17.100 11.302 0.500,
            -16.508 11.293 0.500,
            -16.672 11.731 0.500,
            -16.769 11.555 0.500,
            -16.869 11.538 0.500,
            -16.347 12.062 0.500,
            -17.113 11.301 0.500,
            -16.426 11.989 0.500,
            -16.497 11.763 0.500,
            -16.682 11.740 0.500,
            -17.126 11.300 0.500,
            -16.871 11.556 0.500,
            -16.440 11.990 0.500,
            -16.365 12.067 0.500,
            -16.590 11.798 0.500,
            -16.614 11.820 0.500,
            -16.604 11.808 0.500,
            -16.691 11.748 0.500,
            -16.452 11.991 0.500,
            -16.875 11.573 0.500,
            -17.152 11.300 0.500,
            -16.699 11.757 0.500,
            -16.384 12.072 0.500,
            -16.622 11.834 0.500,
            -16.468 11.991 0.500,
            -16.516 11.768 0.500,
            -16.878 11.584 0.500,
            -16.628 11.849 0.500,
            -16.402 12.075 0.500,
            -16.883 11.596 0.500,
            -16.488 11.991 0.500,
            -16.579 11.792 0.500,
            -16.630 11.860 0.500,
            -16.507 11.989 0.500,
            -16.534 11.774 0.500,
            -16.420 12.078 0.500,
            -16.889 11.610 0.500,
            -16.631 11.876 0.500,
            -16.522 11.987 0.500,
            -16.552 11.780 0.500,
            -16.439 12.079 0.500,
            -16.536 11.985 0.500,
            -16.705 11.764 0.500,
            -16.899 11.625 0.500,
            -16.630 11.894 0.500,
            -16.548 11.981 0.500,
            -16.560 11.977 0.500,
            -16.566 11.786 0.500,
            -16.716 11.780 0.500,
            -16.905 11.634 0.500,
            -16.570 11.973 0.500,
            -16.578 11.968 0.500,
            -16.626 11.911 0.500,
            -16.612 11.936 0.500,
            -16.618 11.927 0.500,
            -16.593 11.957 0.500,
            -16.604 11.946 0.500,
            -16.911 11.642 0.500,
            -16.940 11.669 0.500,
            -16.950 11.748 0.500,
            -16.952 11.678 0.500,
            -16.960 11.739 0.500,
            -16.929 11.660 0.500,
            -16.940 11.759 0.500,
            -16.968 11.732 0.500,
            -16.967 11.687 0.500,
            -16.919 11.651 0.500,
            -16.929 11.774 0.500,
            -16.979 11.725 0.500,
            -16.984 11.694 0.500,
            -16.923 11.782 0.500,
            -16.990 11.717 0.500,
            -16.996 11.699 0.500,
            -16.723 11.794 0.500,
            -16.918 11.792 0.500,
            -17.000 11.712 0.500,
            -16.913 11.802 0.500,
            -16.728 11.806 0.500,
            -17.014 11.705 0.500,
            -16.908 11.814 0.500,
            -16.732 11.816 0.500,
            -16.904 11.828 0.500,
            -16.737 11.833 0.500,
            -17.441 11.300 0.500,
            -16.739 11.851 0.500,
            -16.900 11.843 0.500,
            -16.899 11.855 0.500,
            -16.740 11.869 0.500,
            -16.739 11.888 0.500,
            -16.898 11.871 0.500,
            -16.738 11.901 0.500,
            -16.899 11.889 0.500,
            -16.736 11.911 0.500,
            -16.902 11.908 0.500,
            -16.733 11.922 0.500,
            -16.729 11.933 0.500,
            -16.906 11.926 0.500,
            -16.910 11.936 0.500,
            -16.725 11.944 0.500,
            -16.720 11.955 0.500,
            -16.915 11.949 0.500,
            -16.715 11.966 0.500,
            -16.922 11.963 0.500,
            -16.709 11.976 0.500,
            -16.702 11.985 0.500,
            -16.932 11.980 0.500,
            -16.696 11.994 0.500,
            -16.938 11.988 0.500,
            -16.689 12.002 0.500,
            -16.945 11.997 0.500,
            -16.675 12.015 0.500,
            -16.954 12.007 0.500,
            -16.963 12.016 0.500,
            -16.661 12.027 0.500,
            -16.975 12.025 0.500,
            -16.647 12.036 0.500,
            -16.988 12.034 0.500,
            -16.634 12.044 0.500,
            -16.617 12.052 0.500,
            -17.004 12.043 0.500,
            -17.022 12.051 0.500,
            -16.606 12.057 0.500,
            -16.595 12.061 0.500,
            -17.031 12.054 0.500,
            -16.577 12.066 0.500,
            -17.041 12.057 0.500,
            -16.560 12.071 0.500,
            -17.052 12.060 0.500,
            -17.063 12.063 0.500,
            -16.541 12.075 0.500,
            -17.079 12.065 0.500,
            -17.091 12.067 0.500,
            -17.800 12.300 0.500,
            -15.535 12.070 0.500,
            -15.904 12.070 0.500,
            -16.523 12.077 0.500,
            -16.510 12.079 0.500,
            -16.498 12.079 0.500,
            -16.473 12.080 0.500,
            -17.128 12.070 0.500,
            -17.153 12.070 0.500,
            -17.104 12.068 0.500,
            -17.441 12.070 0.500,
            -13.729 12.070 0.500,
            -13.697 12.070 0.500,
            -13.674 12.069 0.500,
            -13.650 12.066 0.500,
            -13.631 12.064 0.500,
            -13.613 12.060 0.500,
            -13.602 12.057 0.500,
            -13.592 12.054 0.500,
            -13.583 12.050 0.500,
            -13.565 12.042 0.500,
            -13.550 12.033 0.500,
            -13.537 12.023 0.500,
            -15.910 11.875 0.500,
            -15.535 11.496 0.500,
            -16.167 11.519 0.500,
            -16.168 11.537 0.500,
            -16.170 11.554 0.500,
            -16.174 11.572 0.500,
            -16.177 11.582 0.500,
            -16.182 11.594 0.500,
            -16.188 11.608 0.500,
            -16.188 11.872 0.500,
            -15.041 11.900 0.500,
            -15.058 11.884 0.500,
            -15.073 11.872 0.500,
            -15.090 11.859 0.500,
            -15.109 11.846 0.500,
            -14.695 11.680 0.500,
            -14.694 11.738 0.500,
            -14.691 11.776 0.500,
            -14.686 11.819 0.500,
            -14.683 11.841 0.500,
            -14.695 11.645 0.500,
            -14.201 11.680 0.500,
            -14.203 11.622 0.500,
            -14.206 11.575 0.500,
            -14.209 11.549 0.500,
            -14.202 11.707 0.500,
            -14.202 11.734 0.500,
            -14.205 11.769 0.500,
            -14.206 11.790 0.500,
            -14.208 11.807 0.500,
            -14.408 11.386 0.500,
            -14.435 11.380 0.500,
            -14.424 11.381 0.500,
            -14.391 11.393 0.500,
            -14.376 11.403 0.500,
            -14.448 11.379 0.500,
            -14.485 11.385 0.500,
            -14.512 11.397 0.500,
            -14.503 11.392 0.500,
            -14.467 11.380 0.500,
            -14.523 11.405 0.500,
            -14.361 11.415 0.500,
            -14.354 11.423 0.500,
            -14.536 11.416 0.500,
            -14.347 11.431 0.500,
            -14.549 11.430 0.500,
            -14.341 11.439 0.500,
            -14.331 11.456 0.500,
            -14.555 11.438 0.500,
            -14.567 11.460 0.500,
            -14.561 11.448 0.500,
            -14.572 11.472 0.500,
            -14.324 11.474 0.500,
            -14.577 11.487 0.500,
            -14.319 11.490 0.500,
            -14.314 11.509 0.500,
            -14.581 11.502 0.500,
            -14.311 11.528 0.500,
            -14.585 11.520 0.500,
            -14.307 11.556 0.500,
            -14.588 11.543 0.500,
            -14.303 11.593 0.500,
            -14.592 11.577 0.500,
            -14.301 11.637 0.500,
            -14.595 11.618 0.500,
            -14.300 11.680 0.500,
            -14.597 11.680 0.500,
            -14.302 11.743 0.500,
            -14.596 11.719 0.500,
            -14.305 11.789 0.500,
            -14.594 11.757 0.500,
            -14.308 11.812 0.500,
            -14.591 11.795 0.500,
            -14.384 11.963 0.500,
            -14.430 11.980 0.500,
            -14.372 11.955 0.500,
            -14.394 11.969 0.500,
            -14.411 11.976 0.500,
            -14.311 11.835 0.500,
            -14.587 11.825 0.500,
            -14.315 11.854 0.500,
            -14.583 11.846 0.500,
            -14.449 11.982 0.500,
            -14.360 11.944 0.500,
            -14.319 11.870 0.500,
            -14.579 11.864 0.500,
            -14.324 11.885 0.500,
            -14.573 11.882 0.500,
            -14.329 11.898 0.500,
            -14.334 11.910 0.500,
            -14.567 11.899 0.500,
            -14.340 11.920 0.500,
            -14.347 11.929 0.500,
            -14.561 11.913 0.500,
            -14.480 11.978 0.500,
            -14.515 11.964 0.500,
            -14.466 11.981 0.500,
            -14.494 11.974 0.500,
            -14.506 11.969 0.500,
            -14.529 11.954 0.500,
            -14.541 11.942 0.500,
            -14.552 11.929 0.500,
            -17.006 11.434 0.500,
            -17.028 11.414 0.500,
            -17.020 11.420 0.500,
            -17.038 11.408 0.500,
            -16.997 11.447 0.500,
            -17.049 11.403 0.500,
            -16.991 11.458 0.500,
            -16.987 11.468 0.500,
            -17.061 11.398 0.500,
            -16.981 11.486 0.500,
            -17.071 11.396 0.500,
            -16.978 11.504 0.500,
            -17.085 11.393 0.500,
            -16.977 11.522 0.500,
            -17.011 11.615 0.500,
            -17.031 11.631 0.500,
            -17.002 11.604 0.500,
            -17.021 11.624 0.500,
            -17.041 11.637 0.500,
            -16.993 11.590 0.500,
            -17.051 11.641 0.500,
            -16.986 11.574 0.500,
            -16.981 11.556 0.500,
            -17.069 11.647 0.500,
            -16.978 11.541 0.500,
            -17.084 11.650 0.500,
            -17.101 11.391 0.500,
            -17.097 11.652 0.500,
            -17.117 11.390 0.500,
            -17.117 11.654 0.500,
            -17.128 11.655 0.500,
            -17.151 11.389 0.500,
            -17.140 11.655 0.500,
            -17.163 11.656 0.500,
            -17.333 11.389 0.500,
            -17.333 11.656 0.500,
            -17.030 11.786 0.500,
            -17.023 11.797 0.500,
            -17.042 11.775 0.500,
            -17.018 11.807 0.500,
            -17.057 11.764 0.500,
            -17.067 11.759 0.500,
            -17.011 11.824 0.500,
            -17.008 11.843 0.500,
            -17.081 11.754 0.500,
            -17.091 11.751 0.500,
            -17.103 11.749 0.500,
            -17.007 11.861 0.500,
            -17.039 11.949 0.500,
            -17.059 11.964 0.500,
            -17.030 11.939 0.500,
            -17.049 11.958 0.500,
            -17.069 11.969 0.500,
            -17.022 11.926 0.500,
            -17.015 11.911 0.500,
            -17.088 11.974 0.500,
            -17.010 11.893 0.500,
            -17.008 11.879 0.500,
            -17.104 11.977 0.500,
            -17.122 11.979 0.500,
            -17.124 11.746 0.500,
            -17.139 11.980 0.500,
            -17.143 11.745 0.500,
            -17.154 11.981 0.500,
            -17.174 11.745 0.500,
            -17.186 11.982 0.500,
            -17.333 11.745 0.500,
            -17.333 11.982 0.500,
            18.000 12.300 -0.300,
            18.000 12.300 0.300,
            18.000 -12.300 -0.300,
            18.000 -12.300 0.300,
            17.800 12.500 0.300,
            17.800 12.500 -0.300,
            -17.800 12.500 0.300,
            -17.800 12.500 -0.300,
            -18.000 12.300 0.300,
            -18.000 12.300 -0.300,
            -18.000 -12.300 0.300,
            -18.000 -12.300 -0.300,
            17.800 -12.500 -0.300,
            17.800 -12.500 0.300,
            -17.800 -12.500 -0.300,
            -17.800 -12.500 0.300,
            -17.800 12.300 -0.500,
            17.800 12.300 -0.500,
            17.800 -12.300 -0.500,
            -17.800 -12.300 -0.500
          ]
        }
        coordIndex [
          0, 1, 2, -1,
          3, 1, 0, -1,
          3, 4, 1, -1,
          5, 6, 3, -1,
          7, 6, 5, -1,
          3, 6, 4, -1,
          8, 9, 7, -1,
          7, 9, 6, -1,
          8, 10, 9, -1,
          8, 11, 10, -1,
          11, 12, 10, -1,
          13, 14, 15, -1,
          16, 14, 13, -1,
          17, 18, 19, -1,
          20, 18, 17, -1,
          21, 18, 20, -1,
          15, 18, 21, -1,
          14, 18, 15, -1,
          19, 22, 23, -1,
          18, 22, 19, -1,
          23, 24, 12, -1,
          12, 24, 10, -1,
          22, 24, 23, -1,
          10, 25, 26, -1,
          24, 25, 10, -1,
          26, 27, 28, -1,
          25, 27, 26, -1,
          28, 29, 30, -1,
          27, 29, 28, -1,
          30, 31, 32, -1,
          29, 31, 30, -1,
          33, 34, 35, -1,
          35, 34, 36, -1,
          34, 37, 36, -1,
          38, 39, 40, -1,
          40, 41, 42, -1,
          39, 41, 40, -1,
          38, 43, 39, -1,
          42, 44, 45, -1,
          41, 44, 42, -1,
          38, 46, 43, -1,
          44, 47, 45, -1,
          45, 47, 48, -1,
          37, 49, 36, -1,
          50, 49, 51, -1,
          51, 49, 37, -1,
          47, 52, 48, -1,
          48, 52, 53, -1,
          38, 54, 46, -1,
          34, 54, 38, -1,
          50, 55, 49, -1,
          52, 56, 53, -1,
          53, 56, 57, -1,
          34, 58, 54, -1,
          56, 59, 57, -1,
          57, 59, 60, -1,
          34, 61, 58, -1,
          34, 62, 61, -1,
          59, 63, 60, -1,
          60, 63, 64, -1,
          34, 65, 62, -1,
          63, 66, 64, -1,
          34, 67, 65, -1,
          64, 68, 69, -1,
          66, 68, 64, -1,
          34, 70, 67, -1,
          69, 71, 72, -1,
          68, 71, 69, -1,
          34, 73, 70, -1,
          71, 74, 72, -1,
          34, 75, 73, -1,
          34, 76, 75, -1,
          33, 76, 34, -1,
          33, 77, 76, -1,
          33, 78, 77, -1,
          33, 79, 78, -1,
          33, 80, 79, -1,
          81, 82, 83, -1,
          33, 84, 80, -1,
          82, 85, 83, -1,
          86, 85, 87, -1,
          88, 85, 86, -1,
          89, 85, 88, -1,
          83, 85, 89, -1,
          33, 90, 84, -1,
          85, 91, 87, -1,
          87, 91, 92, -1,
          33, 93, 90, -1,
          55, 94, 49, -1,
          91, 94, 92, -1,
          92, 94, 55, -1,
          33, 95, 93, -1,
          33, 96, 95, -1,
          33, 97, 96, -1,
          94, 98, 49, -1,
          99, 100, 101, -1,
          101, 102, 99, -1,
          102, 103, 99, -1,
          99, 104, 100, -1,
          103, 105, 99, -1,
          99, 106, 104, -1,
          105, 107, 99, -1,
          99, 108, 106, -1,
          107, 109, 99, -1,
          99, 110, 108, -1,
          99, 111, 110, -1,
          109, 112, 99, -1,
          99, 113, 111, -1,
          112, 114, 99, -1,
          114, 115, 99, -1,
          99, 116, 113, -1,
          99, 117, 116, -1,
          115, 118, 99, -1,
          99, 119, 117, -1,
          118, 120, 99, -1,
          99, 120, 49, -1,
          49, 120, 36, -1,
          99, 121, 119, -1,
          120, 122, 36, -1,
          123, 124, 125, -1,
          126, 124, 123, -1,
          127, 124, 126, -1,
          124, 128, 125, -1,
          124, 129, 128, -1,
          124, 130, 129, -1,
          124, 131, 130, -1,
          132, 133, 122, -1,
          134, 133, 132, -1,
          135, 133, 134, -1,
          136, 133, 135, -1,
          137, 133, 136, -1,
          138, 133, 137, -1,
          139, 133, 138, -1,
          140, 133, 139, -1,
          141, 133, 140, -1,
          142, 133, 141, -1,
          143, 133, 142, -1,
          144, 133, 143, -1,
          145, 133, 144, -1,
          122, 133, 36, -1,
          146, 133, 145, -1,
          147, 133, 146, -1,
          148, 133, 147, -1,
          149, 133, 148, -1,
          150, 133, 149, -1,
          151, 133, 150, -1,
          152, 133, 151, -1,
          153, 133, 152, -1,
          154, 133, 153, -1,
          124, 155, 131, -1,
          124, 156, 155, -1,
          154, 157, 133, -1,
          124, 158, 156, -1,
          124, 159, 158, -1,
          157, 160, 133, -1,
          124, 161, 159, -1,
          124, 162, 161, -1,
          124, 163, 162, -1,
          133, 164, 36, -1,
          124, 165, 163, -1,
          124, 166, 165, -1,
          124, 167, 166, -1,
          124, 168, 167, -1,
          124, 169, 168, -1,
          124, 170, 169, -1,
          124, 171, 170, -1,
          124, 172, 171, -1,
          124, 173, 172, -1,
          124, 174, 173, -1,
          124, 175, 174, -1,
          164, 176, 36, -1,
          176, 177, 36, -1,
          178, 179, 164, -1,
          179, 180, 164, -1,
          180, 181, 164, -1,
          164, 182, 176, -1,
          181, 182, 164, -1,
          183, 184, 185, -1,
          186, 184, 183, -1,
          187, 184, 186, -1,
          188, 184, 187, -1,
          189, 184, 188, -1,
          190, 184, 189, -1,
          191, 184, 190, -1,
          192, 184, 191, -1,
          193, 184, 192, -1,
          194, 184, 193, -1,
          195, 184, 194, -1,
          196, 184, 195, -1,
          197, 184, 196, -1,
          198, 184, 197, -1,
          199, 184, 198, -1,
          200, 184, 199, -1,
          201, 184, 200, -1,
          202, 184, 201, -1,
          203, 184, 202, -1,
          204, 184, 203, -1,
          175, 184, 204, -1,
          205, 206, 207, -1,
          177, 208, 36, -1,
          209, 210, 211, -1,
          212, 210, 209, -1,
          213, 210, 212, -1,
          214, 210, 213, -1,
          215, 210, 214, -1,
          216, 210, 215, -1,
          217, 210, 216, -1,
          218, 210, 217, -1,
          219, 210, 218, -1,
          220, 210, 219, -1,
          207, 210, 220, -1,
          221, 210, 206, -1,
          211, 210, 182, -1,
          206, 210, 207, -1,
          222, 223, 224, -1,
          224, 225, 222, -1,
          223, 226, 224, -1,
          224, 227, 225, -1,
          224, 228, 227, -1,
          226, 229, 224, -1,
          224, 230, 228, -1,
          229, 231, 224, -1,
          224, 232, 230, -1,
          231, 233, 224, -1,
          224, 234, 232, -1,
          224, 235, 234, -1,
          233, 236, 224, -1,
          236, 237, 224, -1,
          224, 238, 235, -1,
          224, 239, 238, -1,
          237, 240, 224, -1,
          224, 241, 239, -1,
          224, 242, 241, -1,
          240, 243, 224, -1,
          224, 244, 242, -1,
          243, 245, 224, -1,
          245, 246, 224, -1,
          246, 247, 224, -1,
          224, 248, 208, -1,
          247, 248, 224, -1,
          208, 248, 36, -1,
          248, 249, 36, -1,
          249, 250, 36, -1,
          250, 251, 36, -1,
          252, 253, 254, -1,
          255, 256, 253, -1,
          256, 257, 253, -1,
          254, 257, 258, -1,
          253, 257, 254, -1,
          257, 259, 258, -1,
          260, 259, 261, -1,
          262, 259, 260, -1,
          258, 259, 262, -1,
          259, 263, 261, -1,
          264, 263, 265, -1,
          266, 263, 264, -1,
          267, 263, 266, -1,
          268, 263, 267, -1,
          261, 263, 268, -1,
          263, 269, 265, -1,
          270, 269, 271, -1,
          265, 269, 270, -1,
          272, 273, 274, -1,
          271, 273, 272, -1,
          269, 273, 271, -1,
          273, 275, 274, -1,
          276, 275, 277, -1,
          278, 275, 276, -1,
          279, 275, 278, -1,
          274, 275, 279, -1,
          280, 275, 281, -1,
          282, 275, 280, -1,
          283, 275, 282, -1,
          284, 275, 283, -1,
          277, 275, 284, -1,
          285, 286, 287, -1,
          288, 286, 285, -1,
          289, 286, 288, -1,
          290, 286, 289, -1,
          291, 286, 290, -1,
          292, 286, 291, -1,
          293, 286, 292, -1,
          294, 286, 293, -1,
          295, 296, 297, -1,
          295, 298, 296, -1,
          295, 299, 298, -1,
          286, 300, 287, -1,
          287, 300, 301, -1,
          302, 300, 303, -1,
          304, 300, 302, -1,
          305, 300, 304, -1,
          306, 300, 305, -1,
          301, 300, 306, -1,
          295, 307, 299, -1,
          308, 309, 310, -1,
          311, 309, 308, -1,
          312, 309, 311, -1,
          313, 309, 312, -1,
          314, 309, 313, -1,
          315, 309, 314, -1,
          316, 309, 315, -1,
          275, 309, 281, -1,
          317, 309, 316, -1,
          318, 309, 317, -1,
          319, 309, 318, -1,
          320, 309, 319, -1,
          321, 309, 320, -1,
          281, 309, 321, -1,
          309, 322, 310, -1,
          295, 323, 307, -1,
          300, 324, 303, -1,
          325, 324, 300, -1,
          326, 324, 325, -1,
          309, 327, 322, -1,
          295, 328, 323, -1,
          326, 329, 324, -1,
          295, 330, 328, -1,
          309, 331, 327, -1,
          329, 332, 324, -1,
          309, 333, 331, -1,
          295, 334, 330, -1,
          332, 335, 324, -1,
          295, 336, 334, -1,
          335, 337, 324, -1,
          333, 338, 331, -1,
          295, 339, 336, -1,
          337, 340, 324, -1,
          341, 342, 343, -1,
          344, 345, 341, -1,
          341, 345, 342, -1,
          344, 346, 345, -1,
          347, 348, 349, -1,
          343, 348, 347, -1,
          342, 348, 343, -1,
          350, 351, 344, -1,
          344, 351, 346, -1,
          338, 352, 331, -1,
          350, 353, 351, -1,
          354, 353, 350, -1,
          295, 355, 339, -1,
          356, 357, 358, -1,
          349, 357, 356, -1,
          348, 357, 349, -1,
          359, 360, 354, -1,
          354, 360, 353, -1,
          358, 361, 362, -1,
          357, 361, 358, -1,
          363, 364, 359, -1,
          359, 364, 360, -1,
          352, 365, 331, -1,
          366, 367, 363, -1,
          363, 367, 364, -1,
          362, 368, 369, -1,
          361, 368, 362, -1,
          340, 370, 324, -1,
          371, 370, 340, -1,
          366, 372, 367, -1,
          373, 372, 366, -1,
          369, 374, 375, -1,
          368, 374, 369, -1,
          295, 376, 355, -1,
          365, 377, 331, -1,
          378, 379, 373, -1,
          373, 379, 372, -1,
          375, 380, 381, -1,
          374, 380, 375, -1,
          382, 383, 378, -1,
          378, 383, 379, -1,
          381, 384, 385, -1,
          380, 384, 381, -1,
          370, 386, 324, -1,
          387, 388, 382, -1,
          382, 388, 383, -1,
          295, 389, 376, -1,
          390, 391, 387, -1,
          387, 391, 388, -1,
          384, 392, 385, -1,
          385, 392, 393, -1,
          377, 394, 331, -1,
          386, 395, 324, -1,
          396, 397, 390, -1,
          390, 397, 391, -1,
          392, 398, 393, -1,
          393, 398, 399, -1,
          295, 400, 389, -1,
          394, 401, 331, -1,
          331, 401, 402, -1,
          395, 403, 324, -1,
          404, 405, 396, -1,
          396, 405, 397, -1,
          295, 406, 400, -1,
          403, 407, 324, -1,
          398, 408, 399, -1,
          399, 408, 409, -1,
          401, 410, 402, -1,
          411, 412, 404, -1,
          404, 412, 405, -1,
          295, 413, 406, -1,
          408, 414, 409, -1,
          409, 414, 251, -1,
          407, 415, 324, -1,
          324, 415, 416, -1,
          410, 417, 402, -1,
          414, 418, 251, -1,
          411, 419, 412, -1,
          402, 419, 411, -1,
          415, 420, 416, -1,
          295, 421, 413, -1,
          422, 423, 424, -1,
          417, 425, 402, -1,
          420, 426, 416, -1,
          402, 427, 419, -1,
          418, 428, 251, -1,
          251, 428, 36, -1,
          425, 429, 402, -1,
          295, 430, 421, -1,
          422, 431, 423, -1,
          426, 432, 416, -1,
          416, 432, 433, -1,
          402, 434, 427, -1,
          422, 435, 431, -1,
          295, 436, 430, -1,
          402, 437, 434, -1,
          432, 438, 433, -1,
          439, 440, 422, -1,
          422, 440, 435, -1,
          433, 441, 442, -1,
          438, 441, 433, -1,
          295, 443, 436, -1,
          402, 444, 437, -1,
          439, 445, 440, -1,
          442, 446, 447, -1,
          441, 446, 442, -1,
          295, 448, 443, -1,
          446, 449, 447, -1,
          450, 451, 429, -1,
          429, 451, 402, -1,
          402, 451, 444, -1,
          439, 452, 445, -1,
          449, 453, 447, -1,
          447, 454, 455, -1,
          453, 454, 447, -1,
          456, 457, 450, -1,
          450, 457, 451, -1,
          454, 458, 455, -1,
          458, 459, 455, -1,
          460, 461, 462, -1,
          452, 461, 460, -1,
          439, 461, 452, -1,
          459, 463, 455, -1,
          455, 464, 439, -1,
          439, 464, 461, -1,
          463, 464, 455, -1,
          456, 465, 457, -1,
          466, 467, 468, -1,
          467, 469, 468, -1,
          470, 471, 466, -1,
          466, 471, 467, -1,
          468, 472, 473, -1,
          469, 472, 468, -1,
          474, 475, 470, -1,
          470, 475, 471, -1,
          473, 476, 477, -1,
          472, 476, 473, -1,
          456, 478, 465, -1,
          465, 478, 474, -1,
          474, 478, 475, -1,
          477, 479, 480, -1,
          476, 479, 477, -1,
          481, 482, 456, -1,
          456, 482, 478, -1,
          479, 483, 480, -1,
          481, 484, 482, -1,
          485, 484, 481, -1,
          483, 486, 480, -1,
          485, 487, 484, -1,
          488, 487, 485, -1,
          488, 489, 487, -1,
          490, 489, 488, -1,
          428, 491, 36, -1,
          492, 493, 490, -1,
          490, 493, 489, -1,
          492, 494, 493, -1,
          495, 494, 492, -1,
          496, 497, 495, -1,
          495, 497, 494, -1,
          498, 499, 496, -1,
          496, 499, 497, -1,
          500, 501, 498, -1,
          502, 501, 500, -1,
          498, 501, 499, -1,
          503, 504, 502, -1,
          502, 504, 501, -1,
          503, 505, 504, -1,
          506, 505, 503, -1,
          507, 508, 506, -1,
          506, 508, 505, -1,
          509, 510, 507, -1,
          511, 510, 509, -1,
          507, 510, 508, -1,
          512, 513, 511, -1,
          511, 513, 510, -1,
          514, 515, 512, -1,
          512, 515, 513, -1,
          516, 517, 514, -1,
          514, 517, 515, -1,
          518, 519, 516, -1,
          516, 519, 517, -1,
          518, 520, 519, -1,
          521, 522, 518, -1,
          518, 522, 520, -1,
          523, 524, 521, -1,
          525, 524, 523, -1,
          521, 524, 522, -1,
          526, 527, 525, -1,
          525, 527, 524, -1,
          526, 528, 527, -1,
          529, 528, 526, -1,
          530, 531, 529, -1,
          529, 531, 528, -1,
          532, 533, 530, -1,
          530, 533, 531, -1,
          534, 535, 532, -1,
          532, 535, 533, -1,
          534, 536, 535, -1,
          537, 538, 534, -1,
          534, 538, 536, -1,
          537, 539, 538, -1,
          221, 540, 210, -1,
          210, 540, 541, -1,
          491, 540, 36, -1,
          542, 540, 295, -1,
          543, 540, 537, -1,
          544, 540, 543, -1,
          545, 540, 544, -1,
          546, 540, 545, -1,
          547, 540, 548, -1,
          549, 540, 547, -1,
          539, 540, 549, -1,
          537, 540, 539, -1,
          295, 540, 448, -1,
          448, 540, 546, -1,
          184, 540, 221, -1,
          548, 540, 550, -1,
          550, 540, 491, -1,
          541, 540, 542, -1,
          33, 540, 551, -1,
          33, 551, 552, -1,
          33, 552, 553, -1,
          33, 553, 554, -1,
          33, 554, 555, -1,
          33, 555, 556, -1,
          33, 556, 557, -1,
          33, 557, 558, -1,
          33, 558, 559, -1,
          33, 559, 560, -1,
          33, 560, 561, -1,
          33, 561, 562, -1,
          33, 562, 97, -1,
          551, 540, 124, -1,
          124, 540, 175, -1,
          175, 540, 184, -1,
          177, 563, 208, -1,
          210, 176, 182, -1,
          542, 564, 541, -1,
          224, 295, 565, -1,
          224, 565, 244, -1,
          565, 295, 566, -1,
          566, 295, 567, -1,
          567, 295, 568, -1,
          568, 295, 569, -1,
          569, 295, 570, -1,
          570, 295, 571, -1,
          571, 295, 294, -1,
          294, 295, 286, -1,
          286, 295, 572, -1,
          572, 295, 297, -1,
          164, 573, 574, -1,
          164, 574, 575, -1,
          164, 575, 576, -1,
          164, 576, 577, -1,
          164, 577, 178, -1,
          184, 133, 578, -1,
          184, 578, 579, -1,
          184, 579, 580, -1,
          184, 580, 581, -1,
          184, 581, 582, -1,
          184, 582, 185, -1,
          578, 133, 583, -1,
          583, 133, 160, -1,
          99, 124, 584, -1,
          99, 584, 585, -1,
          99, 585, 586, -1,
          99, 586, 587, -1,
          99, 587, 121, -1,
          584, 124, 588, -1,
          588, 124, 589, -1,
          589, 124, 590, -1,
          590, 124, 591, -1,
          591, 124, 592, -1,
          592, 124, 127, -1,
          593, 594, 595, -1,
          596, 594, 593, -1,
          597, 594, 596, -1,
          597, 598, 594, -1,
          599, 600, 601, -1,
          602, 600, 599, -1,
          597, 603, 598, -1,
          602, 603, 600, -1,
          604, 603, 597, -1,
          598, 603, 602, -1,
          605, 606, 604, -1,
          604, 606, 603, -1,
          607, 608, 605, -1,
          609, 608, 607, -1,
          610, 608, 609, -1,
          605, 608, 606, -1,
          611, 612, 613, -1,
          608, 612, 611, -1,
          610, 612, 608, -1,
          610, 614, 612, -1,
          615, 614, 610, -1,
          615, 616, 614, -1,
          617, 616, 615, -1,
          618, 619, 617, -1,
          617, 619, 616, -1,
          620, 621, 618, -1,
          618, 621, 619, -1,
          622, 623, 620, -1,
          620, 623, 621, -1,
          624, 625, 622, -1,
          622, 625, 623, -1,
          626, 627, 624, -1,
          624, 627, 625, -1,
          628, 629, 626, -1,
          626, 629, 627, -1,
          630, 631, 628, -1,
          628, 631, 629, -1,
          632, 633, 630, -1,
          630, 633, 631, -1,
          634, 635, 632, -1,
          632, 635, 633, -1,
          636, 637, 638, -1,
          639, 637, 636, -1,
          640, 637, 639, -1,
          641, 642, 634, -1,
          634, 642, 635, -1,
          643, 644, 641, -1,
          641, 644, 642, -1,
          638, 645, 646, -1,
          637, 645, 638, -1,
          647, 648, 643, -1,
          643, 648, 644, -1,
          649, 650, 647, -1,
          651, 650, 649, -1,
          647, 650, 648, -1,
          652, 653, 651, -1,
          654, 653, 652, -1,
          655, 653, 654, -1,
          646, 653, 655, -1,
          651, 653, 650, -1,
          646, 656, 653, -1,
          645, 656, 646, -1,
          657, 658, 659, -1,
          660, 658, 657, -1,
          661, 658, 660, -1,
          658, 662, 659, -1,
          645, 663, 656, -1,
          662, 663, 659, -1,
          656, 663, 664, -1,
          659, 663, 645, -1,
          34, 38, 37, -1,
          38, 51, 37, -1,
          40, 51, 38, -1,
          40, 42, 51, -1,
          42, 50, 51, -1,
          53, 50, 48, -1,
          48, 50, 45, -1,
          45, 50, 42, -1,
          53, 57, 50, -1,
          57, 60, 50, -1,
          60, 55, 50, -1,
          64, 55, 60, -1,
          64, 69, 55, -1,
          69, 92, 55, -1,
          69, 72, 92, -1,
          92, 74, 87, -1,
          72, 74, 92, -1,
          74, 86, 87, -1,
          74, 88, 86, -1,
          74, 89, 88, -1,
          41, 0, 44, -1,
          44, 0, 47, -1,
          47, 0, 52, -1,
          0, 2, 52, -1,
          52, 2, 56, -1,
          43, 3, 39, -1,
          39, 3, 41, -1,
          41, 3, 0, -1,
          2, 1, 56, -1,
          56, 1, 59, -1,
          46, 5, 43, -1,
          43, 5, 3, -1,
          1, 4, 59, -1,
          59, 4, 63, -1,
          63, 4, 66, -1,
          46, 7, 5, -1,
          58, 7, 54, -1,
          54, 7, 46, -1,
          4, 6, 66, -1,
          66, 6, 68, -1,
          58, 8, 7, -1,
          65, 8, 62, -1,
          62, 8, 61, -1,
          61, 8, 58, -1,
          6, 9, 68, -1,
          68, 9, 71, -1,
          9, 10, 71, -1,
          71, 10, 74, -1,
          73, 11, 70, -1,
          70, 11, 67, -1,
          67, 11, 65, -1,
          65, 11, 8, -1,
          10, 26, 74, -1,
          76, 12, 75, -1,
          75, 12, 73, -1,
          73, 12, 11, -1,
          26, 28, 74, -1,
          74, 28, 89, -1,
          77, 23, 76, -1,
          76, 23, 12, -1,
          79, 19, 78, -1,
          78, 19, 77, -1,
          77, 19, 23, -1,
          28, 30, 89, -1,
          89, 30, 83, -1,
          83, 30, 81, -1,
          81, 30, 82, -1,
          82, 30, 85, -1,
          85, 30, 91, -1,
          30, 94, 91, -1,
          84, 17, 80, -1,
          80, 17, 79, -1,
          79, 17, 19, -1,
          90, 20, 84, -1,
          84, 20, 17, -1,
          96, 21, 95, -1,
          95, 21, 93, -1,
          93, 21, 90, -1,
          90, 21, 20, -1,
          97, 15, 96, -1,
          96, 15, 21, -1,
          97, 13, 15, -1,
          97, 562, 13, -1,
          13, 561, 16, -1,
          562, 561, 13, -1,
          49, 98, 99, -1,
          561, 560, 16, -1,
          16, 559, 14, -1,
          560, 559, 16, -1,
          559, 558, 14, -1,
          558, 557, 14, -1,
          14, 556, 18, -1,
          557, 556, 14, -1,
          30, 32, 94, -1,
          94, 32, 98, -1,
          18, 555, 22, -1,
          556, 555, 18, -1,
          22, 554, 24, -1,
          555, 554, 22, -1,
          24, 553, 25, -1,
          554, 553, 24, -1,
          553, 552, 25, -1,
          25, 552, 27, -1,
          552, 551, 27, -1,
          27, 551, 29, -1,
          551, 31, 29, -1,
          98, 124, 99, -1,
          31, 124, 32, -1,
          551, 124, 31, -1,
          32, 124, 98, -1,
          100, 604, 101, -1,
          101, 604, 102, -1,
          100, 605, 604, -1,
          104, 605, 100, -1,
          104, 607, 605, -1,
          106, 607, 104, -1,
          604, 597, 102, -1,
          102, 597, 103, -1,
          103, 597, 105, -1,
          105, 597, 107, -1,
          106, 609, 607, -1,
          108, 609, 106, -1,
          107, 596, 109, -1,
          109, 596, 112, -1,
          597, 596, 107, -1,
          108, 610, 609, -1,
          111, 610, 110, -1,
          110, 610, 108, -1,
          112, 593, 114, -1,
          114, 593, 115, -1,
          596, 593, 112, -1,
          111, 615, 610, -1,
          116, 615, 113, -1,
          113, 615, 111, -1,
          115, 595, 118, -1,
          593, 595, 115, -1,
          116, 617, 615, -1,
          117, 617, 116, -1,
          595, 594, 118, -1,
          118, 594, 120, -1,
          119, 618, 117, -1,
          117, 618, 617, -1,
          594, 598, 120, -1,
          120, 598, 122, -1,
          122, 598, 132, -1,
          121, 620, 119, -1,
          119, 620, 618, -1,
          598, 602, 132, -1,
          132, 602, 134, -1,
          134, 602, 135, -1,
          586, 622, 587, -1,
          587, 622, 121, -1,
          121, 622, 620, -1,
          602, 599, 135, -1,
          135, 599, 136, -1,
          136, 599, 137, -1,
          137, 599, 138, -1,
          599, 601, 138, -1,
          138, 601, 139, -1,
          585, 624, 586, -1,
          586, 624, 622, -1,
          139, 600, 140, -1,
          140, 600, 141, -1,
          601, 600, 139, -1,
          600, 603, 141, -1,
          141, 603, 142, -1,
          603, 143, 142, -1,
          584, 626, 585, -1,
          585, 626, 624, -1,
          603, 606, 143, -1,
          606, 144, 143, -1,
          606, 608, 144, -1,
          584, 628, 626, -1,
          588, 628, 584, -1,
          608, 145, 144, -1,
          611, 146, 608, -1,
          608, 146, 145, -1,
          611, 147, 146, -1,
          613, 147, 611, -1,
          588, 630, 628, -1,
          590, 630, 589, -1,
          589, 630, 588, -1,
          612, 148, 613, -1,
          613, 148, 147, -1,
          614, 149, 612, -1,
          612, 149, 148, -1,
          590, 632, 630, -1,
          592, 632, 591, -1,
          591, 632, 590, -1,
          616, 150, 614, -1,
          614, 150, 149, -1,
          126, 634, 127, -1,
          592, 634, 632, -1,
          127, 634, 592, -1,
          619, 151, 616, -1,
          616, 151, 150, -1,
          126, 641, 634, -1,
          123, 641, 126, -1,
          621, 152, 619, -1,
          619, 152, 151, -1,
          125, 643, 123, -1,
          123, 643, 641, -1,
          125, 647, 643, -1,
          623, 153, 621, -1,
          621, 153, 152, -1,
          128, 649, 125, -1,
          125, 649, 647, -1,
          129, 651, 128, -1,
          128, 651, 649, -1,
          625, 154, 623, -1,
          623, 154, 153, -1,
          130, 652, 129, -1,
          129, 652, 651, -1,
          155, 654, 131, -1,
          131, 654, 130, -1,
          130, 654, 652, -1,
          627, 157, 625, -1,
          625, 157, 154, -1,
          156, 655, 155, -1,
          155, 655, 654, -1,
          156, 158, 655, -1,
          627, 160, 157, -1,
          158, 646, 655, -1,
          159, 646, 158, -1,
          159, 161, 646, -1,
          161, 162, 646, -1,
          162, 638, 646, -1,
          162, 163, 638, -1,
          629, 583, 627, -1,
          627, 583, 160, -1,
          163, 165, 638, -1,
          165, 166, 638, -1,
          638, 166, 636, -1,
          629, 578, 583, -1,
          631, 578, 629, -1,
          166, 167, 636, -1,
          636, 167, 639, -1,
          167, 168, 639, -1,
          168, 169, 639, -1,
          631, 579, 578, -1,
          633, 579, 631, -1,
          169, 170, 639, -1,
          639, 170, 640, -1,
          170, 171, 640, -1,
          171, 172, 640, -1,
          640, 172, 637, -1,
          633, 580, 579, -1,
          635, 580, 633, -1,
          172, 173, 637, -1,
          637, 174, 645, -1,
          173, 174, 637, -1,
          635, 581, 580, -1,
          642, 581, 635, -1,
          174, 175, 645, -1,
          642, 582, 581, -1,
          644, 582, 642, -1,
          645, 204, 659, -1,
          175, 204, 645, -1,
          644, 185, 582, -1,
          648, 185, 644, -1,
          659, 203, 657, -1,
          204, 203, 659, -1,
          648, 183, 185, -1,
          203, 202, 657, -1,
          650, 186, 648, -1,
          648, 186, 183, -1,
          657, 201, 660, -1,
          202, 201, 657, -1,
          201, 200, 660, -1,
          650, 187, 186, -1,
          653, 187, 650, -1,
          653, 188, 187, -1,
          200, 199, 660, -1,
          660, 199, 661, -1,
          653, 189, 188, -1,
          656, 189, 653, -1,
          199, 198, 661, -1,
          661, 198, 658, -1,
          656, 190, 189, -1,
          664, 190, 656, -1,
          198, 197, 658, -1,
          197, 196, 658, -1,
          658, 196, 662, -1,
          664, 191, 190, -1,
          196, 195, 662, -1,
          664, 192, 191, -1,
          663, 192, 664, -1,
          195, 194, 662, -1,
          662, 194, 663, -1,
          194, 193, 663, -1,
          663, 193, 192, -1,
          133, 184, 573, -1,
          218, 217, 573, -1,
          573, 219, 218, -1,
          573, 216, 574, -1,
          217, 216, 573, -1,
          573, 220, 219, -1,
          574, 215, 575, -1,
          216, 215, 574, -1,
          184, 207, 573, -1,
          573, 207, 220, -1,
          184, 205, 207, -1,
          575, 214, 576, -1,
          576, 214, 577, -1,
          215, 214, 575, -1,
          184, 206, 205, -1,
          577, 213, 178, -1,
          214, 213, 577, -1,
          184, 221, 206, -1,
          213, 212, 178, -1,
          178, 209, 179, -1,
          212, 209, 178, -1,
          179, 211, 180, -1,
          180, 211, 181, -1,
          181, 211, 182, -1,
          209, 211, 179, -1,
          573, 164, 133, -1,
          176, 564, 177, -1,
          176, 210, 564, -1,
          210, 541, 564, -1,
          208, 563, 224, -1,
          563, 295, 224, -1,
          542, 295, 563, -1,
          564, 542, 563, -1,
          563, 177, 564, -1,
          665, 666, 667, -1,
          665, 668, 666, -1,
          669, 670, 665, -1,
          671, 670, 669, -1,
          665, 670, 668, -1,
          672, 673, 671, -1,
          671, 673, 670, -1,
          672, 674, 673, -1,
          675, 676, 677, -1,
          673, 676, 675, -1,
          674, 676, 673, -1,
          676, 678, 677, -1,
          679, 680, 681, -1,
          682, 680, 679, -1,
          681, 683, 684, -1,
          680, 683, 681, -1,
          684, 685, 686, -1,
          683, 685, 684, -1,
          687, 688, 689, -1,
          686, 688, 687, -1,
          685, 688, 686, -1,
          689, 690, 678, -1,
          677, 690, 691, -1,
          678, 690, 677, -1,
          688, 690, 689, -1,
          691, 692, 693, -1,
          690, 692, 691, -1,
          692, 694, 693, -1,
          693, 695, 696, -1,
          694, 695, 693, -1,
          695, 697, 696, -1,
          697, 698, 696, -1,
          696, 698, 699, -1,
          698, 700, 699, -1,
          701, 702, 703, -1,
          703, 704, 705, -1,
          702, 704, 703, -1,
          704, 706, 705, -1,
          704, 707, 706, -1,
          706, 708, 709, -1,
          709, 708, 710, -1,
          707, 708, 706, -1,
          708, 711, 710, -1,
          708, 712, 711, -1,
          713, 714, 715, -1,
          716, 714, 713, -1,
          715, 717, 718, -1,
          714, 717, 715, -1,
          719, 720, 721, -1,
          718, 720, 719, -1,
          717, 720, 718, -1,
          722, 723, 712, -1,
          721, 723, 722, -1,
          712, 723, 711, -1,
          720, 723, 721, -1,
          711, 724, 725, -1,
          723, 724, 711, -1,
          725, 726, 727, -1,
          724, 726, 725, -1,
          727, 728, 729, -1,
          726, 728, 727, -1,
          729, 730, 731, -1,
          728, 730, 729, -1,
          730, 732, 731, -1,
          223, 266, 226, -1,
          226, 266, 229, -1,
          223, 267, 266, -1,
          225, 267, 222, -1,
          222, 267, 223, -1,
          229, 264, 231, -1,
          266, 264, 229, -1,
          231, 265, 233, -1,
          264, 265, 231, -1,
          225, 268, 267, -1,
          228, 268, 227, -1,
          227, 268, 225, -1,
          233, 270, 236, -1,
          236, 270, 237, -1,
          265, 270, 233, -1,
          228, 261, 268, -1,
          234, 261, 232, -1,
          232, 261, 230, -1,
          230, 261, 228, -1,
          237, 271, 240, -1,
          270, 271, 237, -1,
          234, 260, 261, -1,
          238, 260, 235, -1,
          235, 260, 234, -1,
          240, 272, 243, -1,
          271, 272, 240, -1,
          243, 274, 245, -1,
          272, 274, 243, -1,
          238, 262, 260, -1,
          244, 262, 242, -1,
          242, 262, 241, -1,
          241, 262, 239, -1,
          239, 262, 238, -1,
          245, 279, 246, -1,
          274, 279, 245, -1,
          244, 258, 262, -1,
          565, 258, 244, -1,
          246, 278, 247, -1,
          247, 278, 248, -1,
          279, 278, 246, -1,
          565, 254, 258, -1,
          567, 254, 566, -1,
          566, 254, 565, -1,
          248, 276, 249, -1,
          278, 276, 248, -1,
          567, 252, 254, -1,
          569, 252, 568, -1,
          568, 252, 567, -1,
          249, 277, 250, -1,
          276, 277, 249, -1,
          569, 253, 252, -1,
          294, 253, 571, -1,
          571, 253, 570, -1,
          570, 253, 569, -1,
          250, 284, 251, -1,
          277, 284, 250, -1,
          251, 283, 409, -1,
          284, 283, 251, -1,
          294, 255, 253, -1,
          292, 255, 293, -1,
          293, 255, 294, -1,
          292, 291, 255, -1,
          283, 282, 409, -1,
          291, 256, 255, -1,
          291, 290, 256, -1,
          409, 280, 399, -1,
          282, 280, 409, -1,
          399, 281, 393, -1,
          280, 281, 399, -1,
          256, 289, 257, -1,
          290, 289, 256, -1,
          393, 321, 385, -1,
          281, 321, 393, -1,
          257, 288, 259, -1,
          289, 288, 257, -1,
          385, 320, 381, -1,
          381, 320, 375, -1,
          321, 320, 385, -1,
          288, 285, 259, -1,
          320, 319, 375, -1,
          375, 319, 369, -1,
          259, 287, 263, -1,
          285, 287, 259, -1,
          319, 318, 369, -1,
          369, 318, 362, -1,
          362, 318, 358, -1,
          318, 317, 358, -1,
          358, 317, 356, -1,
          287, 301, 263, -1,
          317, 316, 356, -1,
          356, 316, 349, -1,
          349, 316, 347, -1,
          301, 306, 263, -1,
          263, 306, 269, -1,
          347, 315, 343, -1,
          316, 315, 347, -1,
          306, 305, 269, -1,
          269, 305, 273, -1,
          315, 341, 343, -1,
          315, 314, 341, -1,
          305, 304, 273, -1,
          273, 304, 275, -1,
          314, 344, 341, -1,
          304, 302, 275, -1,
          314, 313, 344, -1,
          313, 350, 344, -1,
          312, 354, 313, -1,
          313, 354, 350, -1,
          302, 303, 275, -1,
          312, 359, 354, -1,
          572, 300, 286, -1,
          312, 363, 359, -1,
          296, 325, 297, -1,
          297, 325, 572, -1,
          572, 325, 300, -1,
          311, 366, 312, -1,
          312, 366, 363, -1,
          298, 326, 296, -1,
          296, 326, 325, -1,
          311, 373, 366, -1,
          275, 324, 309, -1,
          303, 324, 275, -1,
          308, 378, 311, -1,
          311, 378, 373, -1,
          307, 329, 299, -1,
          299, 329, 298, -1,
          298, 329, 326, -1,
          328, 332, 323, -1,
          323, 332, 307, -1,
          307, 332, 329, -1,
          310, 382, 308, -1,
          308, 382, 378, -1,
          334, 335, 330, -1,
          330, 335, 328, -1,
          328, 335, 332, -1,
          322, 387, 310, -1,
          310, 387, 382, -1,
          334, 336, 335, -1,
          324, 416, 309, -1,
          309, 416, 333, -1,
          327, 390, 322, -1,
          322, 390, 387, -1,
          336, 337, 335, -1,
          336, 339, 337, -1,
          416, 433, 333, -1,
          339, 340, 337, -1,
          327, 396, 390, -1,
          339, 355, 340, -1,
          355, 371, 340, -1,
          333, 442, 338, -1,
          433, 442, 333, -1,
          331, 404, 327, -1,
          327, 404, 396, -1,
          331, 411, 404, -1,
          355, 376, 371, -1,
          442, 447, 338, -1,
          331, 402, 411, -1,
          338, 455, 352, -1,
          447, 455, 338, -1,
          352, 455, 365, -1,
          371, 389, 370, -1,
          376, 389, 371, -1,
          365, 439, 377, -1,
          455, 439, 365, -1,
          370, 400, 386, -1,
          389, 400, 370, -1,
          377, 422, 394, -1,
          394, 422, 401, -1,
          439, 422, 377, -1,
          400, 406, 386, -1,
          386, 413, 395, -1,
          406, 413, 386, -1,
          401, 424, 410, -1,
          422, 424, 401, -1,
          424, 417, 410, -1,
          395, 421, 403, -1,
          413, 421, 395, -1,
          424, 423, 417, -1,
          423, 425, 417, -1,
          423, 429, 425, -1,
          403, 430, 407, -1,
          421, 430, 403, -1,
          431, 450, 423, -1,
          423, 450, 429, -1,
          430, 436, 407, -1,
          407, 436, 415, -1,
          431, 456, 450, -1,
          436, 443, 415, -1,
          415, 443, 420, -1,
          431, 481, 456, -1,
          443, 448, 420, -1,
          420, 448, 426, -1,
          431, 485, 481, -1,
          435, 485, 431, -1,
          435, 488, 485, -1,
          448, 546, 426, -1,
          426, 546, 432, -1,
          432, 546, 438, -1,
          440, 490, 435, -1,
          435, 490, 488, -1,
          546, 545, 438, -1,
          438, 544, 441, -1,
          545, 544, 438, -1,
          440, 492, 490, -1,
          441, 543, 446, -1,
          544, 543, 441, -1,
          445, 495, 440, -1,
          440, 495, 492, -1,
          446, 537, 449, -1,
          543, 537, 446, -1,
          445, 496, 495, -1,
          449, 534, 453, -1,
          537, 534, 449, -1,
          452, 498, 445, -1,
          445, 498, 496, -1,
          453, 532, 454, -1,
          534, 532, 453, -1,
          452, 500, 498, -1,
          452, 502, 500, -1,
          454, 530, 458, -1,
          532, 530, 454, -1,
          452, 503, 502, -1,
          460, 503, 452, -1,
          530, 529, 458, -1,
          529, 526, 458, -1,
          458, 526, 459, -1,
          460, 506, 503, -1,
          460, 507, 506, -1,
          459, 525, 463, -1,
          526, 525, 459, -1,
          460, 509, 507, -1,
          462, 509, 460, -1,
          525, 523, 463, -1,
          462, 511, 509, -1,
          462, 512, 511, -1,
          523, 521, 463, -1,
          463, 521, 464, -1,
          462, 514, 512, -1,
          461, 514, 462, -1,
          521, 518, 464, -1,
          461, 516, 514, -1,
          518, 516, 464, -1,
          464, 516, 461, -1,
          733, 734, 735, -1,
          735, 734, 736, -1,
          737, 738, 739, -1,
          739, 738, 740, -1,
          741, 742, 743, -1,
          743, 742, 744, -1,
          745, 746, 747, -1,
          747, 746, 748, -1,
          348, 667, 357, -1,
          357, 667, 361, -1,
          346, 665, 345, -1,
          345, 665, 342, -1,
          342, 665, 348, -1,
          348, 665, 667, -1,
          667, 666, 361, -1,
          361, 666, 368, -1,
          353, 669, 351, -1,
          351, 669, 346, -1,
          346, 669, 665, -1,
          666, 668, 368, -1,
          368, 668, 374, -1,
          364, 671, 360, -1,
          360, 671, 353, -1,
          353, 671, 669, -1,
          668, 670, 374, -1,
          374, 670, 380, -1,
          380, 670, 384, -1,
          372, 672, 367, -1,
          367, 672, 364, -1,
          364, 672, 671, -1,
          670, 673, 384, -1,
          384, 673, 392, -1,
          673, 675, 392, -1,
          388, 674, 383, -1,
          383, 674, 379, -1,
          379, 674, 372, -1,
          372, 674, 672, -1,
          675, 677, 392, -1,
          392, 677, 398, -1,
          397, 676, 391, -1,
          391, 676, 388, -1,
          388, 676, 674, -1,
          677, 691, 398, -1,
          398, 691, 408, -1,
          412, 678, 405, -1,
          405, 678, 397, -1,
          397, 678, 676, -1,
          691, 693, 408, -1,
          408, 693, 414, -1,
          414, 693, 418, -1,
          427, 689, 419, -1,
          419, 689, 412, -1,
          412, 689, 678, -1,
          427, 687, 689, -1,
          437, 687, 434, -1,
          434, 687, 427, -1,
          693, 696, 418, -1,
          418, 696, 428, -1,
          457, 686, 451, -1,
          451, 686, 444, -1,
          444, 686, 437, -1,
          437, 686, 687, -1,
          474, 684, 465, -1,
          465, 684, 457, -1,
          457, 684, 686, -1,
          474, 470, 684, -1,
          470, 681, 684, -1,
          470, 466, 681, -1,
          681, 468, 679, -1,
          466, 468, 681, -1,
          679, 473, 682, -1,
          468, 473, 679, -1,
          682, 477, 680, -1,
          473, 477, 682, -1,
          477, 480, 680, -1,
          680, 486, 683, -1,
          683, 486, 685, -1,
          685, 486, 688, -1,
          480, 486, 680, -1,
          696, 699, 428, -1,
          486, 690, 688, -1,
          699, 491, 428, -1,
          479, 703, 483, -1,
          483, 703, 486, -1,
          479, 701, 703, -1,
          472, 701, 476, -1,
          476, 701, 479, -1,
          472, 702, 701, -1,
          467, 702, 469, -1,
          469, 702, 472, -1,
          703, 705, 486, -1,
          467, 704, 702, -1,
          475, 704, 471, -1,
          471, 704, 467, -1,
          705, 706, 486, -1,
          486, 709, 690, -1,
          706, 709, 486, -1,
          475, 707, 704, -1,
          484, 707, 482, -1,
          482, 707, 478, -1,
          478, 707, 475, -1,
          690, 710, 692, -1,
          709, 710, 690, -1,
          484, 708, 707, -1,
          493, 708, 489, -1,
          489, 708, 487, -1,
          487, 708, 484, -1,
          692, 711, 694, -1,
          710, 711, 692, -1,
          497, 712, 494, -1,
          494, 712, 493, -1,
          493, 712, 708, -1,
          694, 725, 695, -1,
          711, 725, 694, -1,
          501, 722, 499, -1,
          499, 722, 497, -1,
          497, 722, 712, -1,
          695, 727, 697, -1,
          697, 727, 698, -1,
          725, 727, 695, -1,
          505, 721, 504, -1,
          504, 721, 501, -1,
          501, 721, 722, -1,
          727, 729, 698, -1,
          510, 719, 508, -1,
          508, 719, 505, -1,
          505, 719, 721, -1,
          515, 718, 513, -1,
          513, 718, 510, -1,
          510, 718, 719, -1,
          519, 715, 517, -1,
          517, 715, 515, -1,
          515, 715, 718, -1,
          519, 520, 715, -1,
          699, 700, 491, -1,
          729, 700, 698, -1,
          520, 713, 715, -1,
          520, 522, 713, -1,
          522, 524, 713, -1,
          713, 524, 716, -1,
          524, 527, 716, -1,
          716, 527, 714, -1,
          527, 528, 714, -1,
          729, 731, 700, -1,
          528, 531, 714, -1,
          714, 531, 717, -1,
          531, 533, 717, -1,
          533, 535, 717, -1,
          717, 535, 720, -1,
          535, 536, 720, -1,
          536, 538, 720, -1,
          720, 538, 723, -1,
          538, 539, 723, -1,
          723, 549, 724, -1,
          539, 549, 723, -1,
          724, 547, 726, -1,
          549, 547, 724, -1,
          547, 548, 726, -1,
          726, 548, 728, -1,
          728, 548, 730, -1,
          548, 732, 730, -1,
          731, 550, 700, -1,
          700, 550, 491, -1,
          732, 550, 731, -1,
          548, 550, 732, -1,
          749, 750, 751, -1,
          749, 751, 752, -1,
          737, 734, 738, -1,
          738, 734, 733, -1,
          737, 33, 734, -1,
          733, 750, 738, -1,
          540, 33, 739, -1,
          33, 737, 739, -1,
          736, 734, 35, -1,
          734, 33, 35, -1,
          735, 736, 745, -1,
          736, 746, 745, -1,
          750, 733, 735, -1,
          750, 735, 751, -1,
          738, 750, 749, -1,
          738, 749, 740, -1,
          741, 739, 742, -1,
          742, 739, 740, -1,
          739, 741, 540, -1,
          736, 35, 746, -1,
          735, 745, 751, -1,
          742, 740, 749, -1,
          540, 741, 36, -1,
          36, 741, 743, -1,
          746, 35, 748, -1,
          748, 35, 36, -1,
          751, 745, 747, -1,
          751, 747, 752, -1,
          742, 749, 752, -1,
          742, 752, 744, -1,
          748, 36, 743, -1,
          747, 744, 752, -1,
          747, 748, 744, -1,
          748, 743, 744, -1
        ]
      }
    }
}
