#VRML V2.0 utf8
WorldInfo {
  title "Exported triangle mesh to VRML97"
  info ["Created by FreeCAD"
        "<https://www.freecad.org>"]
}

Transform {
  scale 1 1 1
  rotation 0 0 1 0
  scaleOrientation 0 0 1 0
  center 0.000 0.000 0.000
  translation 0.000 0.000 0.000
  children
    Shape { 
      appearance
      Appearance {
        material
        Material {
          diffuseColor 0.8 0.8 0.8
        }
      }
      geometry
      IndexedFaceSet {
        coord
        Coordinate {
          point [
            -13.640 11.775 0.500,
            -13.662 11.756 0.500,
            -13.654 11.762 0.500,
            -13.631 11.787 0.500,
            -13.672 11.751 0.500,
            -13.624 11.798 0.500,
            -13.683 11.746 0.500,
            -13.619 11.808 0.500,
            -13.613 11.825 0.500,
            -13.696 11.743 0.500,
            -13.710 11.740 0.500,
            -13.610 11.842 0.500,
            -13.609 11.860 0.500,
            -13.642 11.946 0.500,
            -13.665 11.963 0.500,
            -13.635 11.937 0.500,
            -13.649 11.953 0.500,
            -13.615 11.903 0.500,
            -13.679 11.970 0.500,
            -13.611 11.888 0.500,
            -13.621 11.916 0.500,
            -13.628 11.928 0.500,
            -13.691 11.974 0.500,
            -13.610 11.876 0.500,
            -13.701 11.976 0.500,
            -13.719 11.979 0.500,
            -13.726 11.737 0.500,
            -13.737 11.981 0.500,
            -13.745 11.736 0.500,
            -13.754 11.982 0.500,
            -13.778 11.735 0.500,
            -13.984 11.982 0.500,
            -13.984 11.735 0.500,
            17.800 12.300 0.500,
            -13.437 11.300 0.500,
            17.800 -12.300 0.500,
            -17.800 -12.300 0.500,
            -13.561 11.300 0.500,
            -13.563 11.513 0.500,
            -13.554 11.722 0.500,
            -13.580 11.539 0.500,
            -13.564 11.712 0.500,
            -13.589 11.552 0.500,
            -13.544 11.733 0.500,
            -13.574 11.704 0.500,
            -13.598 11.565 0.500,
            -13.534 11.747 0.500,
            -13.584 11.697 0.500,
            -13.611 11.582 0.500,
            -13.984 11.300 0.500,
            -13.701 11.533 0.500,
            -13.658 11.463 0.500,
            -13.593 11.692 0.500,
            -13.624 11.597 0.500,
            -13.525 11.762 0.500,
            -13.724 11.567 0.500,
            -13.610 11.683 0.500,
            -13.632 11.606 0.500,
            -13.516 11.780 0.500,
            -13.625 11.676 0.500,
            -13.645 11.618 0.500,
            -13.512 11.789 0.500,
            -13.509 11.799 0.500,
            -13.638 11.671 0.500,
            -13.657 11.628 0.500,
            -13.506 11.810 0.500,
            -13.649 11.668 0.500,
            -13.504 11.822 0.500,
            -13.662 11.664 0.500,
            -13.670 11.637 0.500,
            -13.502 11.833 0.500,
            -13.676 11.661 0.500,
            -13.683 11.645 0.500,
            -13.501 11.845 0.500,
            -13.704 11.656 0.500,
            -13.500 11.863 0.500,
            -13.501 11.881 0.500,
            -13.503 11.900 0.500,
            -13.506 11.918 0.500,
            -13.509 11.929 0.500,
            -13.513 11.942 0.500,
            -13.819 11.642 0.500,
            -13.831 11.644 0.500,
            -13.800 11.636 0.500,
            -13.519 11.956 0.500,
            -13.846 11.645 0.500,
            -13.758 11.607 0.500,
            -13.748 11.597 0.500,
            -13.767 11.615 0.500,
            -13.783 11.627 0.500,
            -13.528 11.974 0.500,
            -13.858 11.646 0.500,
            -13.738 11.585 0.500,
            -13.533 11.983 0.500,
            -13.873 11.646 0.500,
            -13.540 11.992 0.500,
            -13.547 12.002 0.500,
            -13.556 12.012 0.500,
            -13.984 11.646 0.500,
            -14.093 11.300 0.500,
            -14.313 11.358 0.500,
            -14.324 11.347 0.500,
            -14.334 11.338 0.500,
            -14.345 11.330 0.500,
            -14.303 11.371 0.500,
            -14.354 11.323 0.500,
            -14.293 11.386 0.500,
            -14.363 11.317 0.500,
            -14.282 11.403 0.500,
            -14.381 11.308 0.500,
            -14.278 11.412 0.500,
            -14.273 11.422 0.500,
            -14.397 11.302 0.500,
            -14.266 11.439 0.500,
            -14.410 11.299 0.500,
            -14.421 11.296 0.500,
            -14.259 11.458 0.500,
            -14.254 11.477 0.500,
            -14.440 11.293 0.500,
            -14.249 11.496 0.500,
            -14.459 11.291 0.500,
            -14.244 11.517 0.500,
            -14.478 11.290 0.500,
            -14.252 11.875 0.500,
            -14.093 12.070 0.500,
            -14.259 11.898 0.500,
            -14.246 11.850 0.500,
            -14.242 11.830 0.500,
            -14.267 11.919 0.500,
            -14.275 11.939 0.500,
            -14.283 11.957 0.500,
            -14.289 11.968 0.500,
            -14.500 11.291 0.500,
            -14.972 11.300 0.500,
            -14.514 11.292 0.500,
            -14.527 11.294 0.500,
            -14.539 11.297 0.500,
            -14.549 11.299 0.500,
            -14.559 11.302 0.500,
            -14.576 11.309 0.500,
            -14.590 11.316 0.500,
            -14.602 11.322 0.500,
            -14.611 11.328 0.500,
            -14.625 11.339 0.500,
            -14.638 11.351 0.500,
            -14.650 11.364 0.500,
            -14.664 11.385 0.500,
            -14.672 11.399 0.500,
            -14.677 11.410 0.500,
            -14.685 11.427 0.500,
            -14.692 11.445 0.500,
            -14.698 11.464 0.500,
            -14.704 11.485 0.500,
            -14.710 11.511 0.500,
            -14.716 11.542 0.500,
            -14.295 11.979 0.500,
            -14.302 11.988 0.500,
            -14.720 11.575 0.500,
            -14.308 11.997 0.500,
            -14.315 12.006 0.500,
            -14.723 11.609 0.500,
            -14.323 12.014 0.500,
            -14.332 12.021 0.500,
            -14.340 12.028 0.500,
            -15.071 11.300 0.500,
            -14.350 12.035 0.500,
            -14.360 12.041 0.500,
            -14.370 12.046 0.500,
            -14.381 12.052 0.500,
            -14.393 12.056 0.500,
            -14.405 12.060 0.500,
            -14.417 12.064 0.500,
            -14.430 12.066 0.500,
            -14.442 12.068 0.500,
            -14.456 12.070 0.500,
            -14.478 12.070 0.500,
            -15.486 11.372 0.500,
            -15.493 11.365 0.500,
            -15.479 11.380 0.500,
            -15.507 11.352 0.500,
            -15.472 11.389 0.500,
            -15.465 11.398 0.500,
            -15.522 11.342 0.500,
            -15.458 11.408 0.500,
            -15.535 11.333 0.500,
            -15.452 11.419 0.500,
            -15.548 11.326 0.500,
            -15.447 11.429 0.500,
            -15.442 11.440 0.500,
            -15.565 11.318 0.500,
            -15.576 11.313 0.500,
            -15.437 11.452 0.500,
            -15.434 11.464 0.500,
            -15.595 11.307 0.500,
            -15.431 11.475 0.500,
            -15.429 11.485 0.500,
            -15.613 11.301 0.500,
            -15.427 11.499 0.500,
            -15.631 11.297 0.500,
            -15.649 11.294 0.500,
            -15.426 11.519 0.500,
            -15.664 11.292 0.500,
            -15.427 11.537 0.500,
            -15.678 11.291 0.500,
            -15.706 11.290 0.500,
            -15.171 11.826 0.500,
            -15.202 11.808 0.500,
            -15.725 11.290 0.500,
            -15.214 11.802 0.500,
            -15.225 11.797 0.500,
            -15.433 11.572 0.500,
            -15.249 11.787 0.500,
            -15.436 11.582 0.500,
            -15.429 11.554 0.500,
            -15.441 11.594 0.500,
            -14.701 11.888 0.500,
            -14.972 12.070 0.500,
            -14.706 11.870 0.500,
            -14.695 11.909 0.500,
            -14.688 11.927 0.500,
            -14.683 11.937 0.500,
            -14.675 11.955 0.500,
            -14.666 11.971 0.500,
            -14.655 11.986 0.500,
            -14.645 12.000 0.500,
            -14.634 12.011 0.500,
            -14.624 12.021 0.500,
            -14.614 12.029 0.500,
            -14.604 12.036 0.500,
            -14.595 12.042 0.500,
            -14.586 12.047 0.500,
            -14.569 12.055 0.500,
            -14.554 12.060 0.500,
            -14.542 12.063 0.500,
            -14.531 12.065 0.500,
            -14.514 12.068 0.500,
            -14.496 12.070 0.500,
            -15.448 11.608 0.500,
            -15.457 11.624 0.500,
            -15.463 11.633 0.500,
            -15.058 12.033 0.500,
            -15.046 12.051 0.500,
            -15.070 12.017 0.500,
            -15.052 12.042 0.500,
            -15.538 11.540 0.500,
            -15.544 11.558 0.500,
            -15.536 11.529 0.500,
            -15.036 12.070 0.500,
            -15.470 11.641 0.500,
            -15.478 11.650 0.500,
            -15.552 11.572 0.500,
            -15.561 11.582 0.500,
            -15.569 11.590 0.500,
            -15.535 11.513 0.500,
            -15.584 11.601 0.500,
            -15.541 11.477 0.500,
            -15.548 11.460 0.500,
            -15.536 11.495 0.500,
            -15.586 11.414 0.500,
            -15.600 11.610 0.500,
            -15.595 11.408 0.500,
            -15.572 11.427 0.500,
            -15.561 11.439 0.500,
            -15.554 11.450 0.500,
            -15.605 11.403 0.500,
            -15.617 11.617 0.500,
            -15.616 11.397 0.500,
            -15.629 11.392 0.500,
            -15.630 11.622 0.500,
            -15.643 11.388 0.500,
            -15.690 11.380 0.500,
            -15.648 11.628 0.500,
            -15.711 11.379 0.500,
            -15.677 11.381 0.500,
            -15.659 11.384 0.500,
            -15.768 11.385 0.500,
            -15.779 11.388 0.500,
            -15.754 11.382 0.500,
            -15.740 11.380 0.500,
            -15.727 11.380 0.500,
            -15.526 11.687 0.500,
            -15.446 11.853 0.500,
            -15.542 11.696 0.500,
            -15.511 11.678 0.500,
            -15.499 11.669 0.500,
            -15.488 11.659 0.500,
            -15.249 11.878 0.500,
            -15.448 11.872 0.500,
            -15.450 11.891 0.500,
            -15.455 11.910 0.500,
            -15.458 11.921 0.500,
            -15.463 11.934 0.500,
            -15.555 11.853 0.500,
            -15.560 11.705 0.500,
            -15.618 11.726 0.500,
            -15.654 11.736 0.500,
            -15.603 11.721 0.500,
            -15.585 11.715 0.500,
            -15.573 11.710 0.500,
            -15.470 11.949 0.500,
            -15.226 11.890 0.500,
            -15.768 11.661 0.500,
            -15.907 11.502 0.500,
            -15.910 11.513 0.500,
            -15.904 11.493 0.500,
            -15.896 11.475 0.500,
            -15.886 11.459 0.500,
            -15.876 11.446 0.500,
            -15.866 11.435 0.500,
            -15.855 11.425 0.500,
            -15.845 11.418 0.500,
            -15.835 11.411 0.500,
            -15.825 11.406 0.500,
            -15.807 11.397 0.500,
            -15.792 11.392 0.500,
            -15.913 11.524 0.500,
            -15.479 11.966 0.500,
            -15.210 11.899 0.500,
            -15.191 11.910 0.500,
            -15.705 11.750 0.500,
            -15.557 11.872 0.500,
            -15.560 11.884 0.500,
            -15.917 11.541 0.500,
            -15.485 11.976 0.500,
            -15.169 11.925 0.500,
            -15.566 11.901 0.500,
            -15.492 11.985 0.500,
            -15.149 11.939 0.500,
            -15.130 11.955 0.500,
            -15.920 11.567 0.500,
            -15.572 11.916 0.500,
            -15.816 11.676 0.500,
            -15.500 11.995 0.500,
            -15.112 11.972 0.500,
            -15.096 11.987 0.500,
            -15.083 12.001 0.500,
            -15.580 11.929 0.500,
            -15.510 12.005 0.500,
            -15.588 11.941 0.500,
            -15.845 11.686 0.500,
            -15.521 12.016 0.500,
            -15.597 11.950 0.500,
            -15.865 11.694 0.500,
            -15.534 12.026 0.500,
            -15.958 11.380 0.500,
            -16.197 11.372 0.500,
            -15.945 11.367 0.500,
            -16.204 11.365 0.500,
            -15.931 11.355 0.500,
            -16.190 11.380 0.500,
            -16.219 11.352 0.500,
            -15.923 11.349 0.500,
            -15.969 11.393 0.500,
            -16.183 11.389 0.500,
            -15.875 11.698 0.500,
            -16.176 11.398 0.500,
            -15.978 11.406 0.500,
            -15.914 11.342 0.500,
            -16.233 11.342 0.500,
            -15.904 11.336 0.500,
            -15.986 11.418 0.500,
            -16.170 11.408 0.500,
            -15.605 11.958 0.500,
            -15.614 11.964 0.500,
            -16.246 11.333 0.500,
            -15.894 11.330 0.500,
            -15.993 11.429 0.500,
            -16.163 11.419 0.500,
            -16.259 11.326 0.500,
            -15.883 11.325 0.500,
            -15.550 12.036 0.500,
            -15.998 11.439 0.500,
            -16.158 11.429 0.500,
            -15.885 11.703 0.500,
            -16.003 11.449 0.500,
            -16.153 11.440 0.500,
            -16.276 11.318 0.500,
            -15.871 11.319 0.500,
            -16.287 11.313 0.500,
            -15.859 11.314 0.500,
            -16.007 11.459 0.500,
            -16.149 11.452 0.500,
            -15.631 11.974 0.500,
            -16.013 11.476 0.500,
            -16.145 11.464 0.500,
            -15.841 11.308 0.500,
            -16.306 11.307 0.500,
            -15.823 11.303 0.500,
            -15.567 12.046 0.500,
            -16.019 11.494 0.500,
            -16.142 11.475 0.500,
            -15.906 11.714 0.500,
            -16.140 11.485 0.500,
            -16.324 11.301 0.500,
            -15.804 11.299 0.500,
            -15.647 11.980 0.500,
            -16.022 11.506 0.500,
            -16.139 11.499 0.500,
            -16.025 11.524 0.500,
            -15.585 12.054 0.500,
            -16.343 11.297 0.500,
            -15.786 11.296 0.500,
            -15.920 11.723 0.500,
            -16.029 11.567 0.500,
            -15.660 11.984 0.500,
            -15.595 12.058 0.500,
            -16.361 11.294 0.500,
            -15.768 11.293 0.500,
            -16.027 11.543 0.500,
            -16.138 11.519 0.500,
            -15.671 11.986 0.500,
            -15.931 11.731 0.500,
            -16.375 11.292 0.500,
            -15.738 11.291 0.500,
            -15.606 12.062 0.500,
            -15.685 11.989 0.500,
            -15.757 11.763 0.500,
            -16.138 11.537 0.500,
            -16.028 11.555 0.500,
            -16.389 11.291 0.500,
            -15.941 11.740 0.500,
            -15.699 11.990 0.500,
            -15.624 12.067 0.500,
            -15.849 11.798 0.500,
            -15.873 11.820 0.500,
            -15.863 11.808 0.500,
            -16.141 11.554 0.500,
            -15.950 11.748 0.500,
            -15.711 11.991 0.500,
            -16.417 11.290 0.500,
            -15.958 11.757 0.500,
            -15.643 12.072 0.500,
            -15.881 11.834 0.500,
            -16.144 11.572 0.500,
            -15.727 11.991 0.500,
            -15.775 11.768 0.500,
            -16.436 11.290 0.500,
            -15.964 11.764 0.500,
            -16.148 11.582 0.500,
            -15.887 11.849 0.500,
            -15.661 12.075 0.500,
            -15.748 11.991 0.500,
            -16.450 11.291 0.500,
            -16.152 11.594 0.500,
            -15.838 11.792 0.500,
            -15.889 11.860 0.500,
            -15.766 11.989 0.500,
            -15.794 11.774 0.500,
            -15.679 12.078 0.500,
            -15.891 11.876 0.500,
            -16.159 11.608 0.500,
            -15.781 11.987 0.500,
            -15.811 11.780 0.500,
            -15.698 12.079 0.500,
            -15.795 11.985 0.500,
            -15.889 11.894 0.500,
            -15.808 11.981 0.500,
            -16.168 11.624 0.500,
            -15.819 11.977 0.500,
            -15.825 11.786 0.500,
            -15.829 11.973 0.500,
            -15.838 11.968 0.500,
            -15.975 11.780 0.500,
            -16.174 11.633 0.500,
            -15.871 11.936 0.500,
            -15.885 11.911 0.500,
            -15.877 11.927 0.500,
            -15.852 11.957 0.500,
            -15.863 11.946 0.500,
            -16.249 11.540 0.500,
            -16.256 11.558 0.500,
            -16.247 11.529 0.500,
            -15.982 11.794 0.500,
            -16.181 11.641 0.500,
            -16.189 11.650 0.500,
            -16.264 11.572 0.500,
            -16.272 11.582 0.500,
            -16.280 11.590 0.500,
            -16.246 11.513 0.500,
            -16.252 11.477 0.500,
            -16.295 11.601 0.500,
            -16.259 11.460 0.500,
            -16.248 11.495 0.500,
            -16.265 11.450 0.500,
            -16.311 11.610 0.500,
            -16.272 11.439 0.500,
            -16.298 11.414 0.500,
            -16.306 11.408 0.500,
            -16.283 11.427 0.500,
            -16.328 11.617 0.500,
            -16.316 11.403 0.500,
            -16.328 11.397 0.500,
            -16.341 11.622 0.500,
            -16.340 11.392 0.500,
            -16.355 11.388 0.500,
            -16.479 11.385 0.500,
            -16.359 11.628 0.500,
            -16.490 11.388 0.500,
            -16.465 11.382 0.500,
            -16.451 11.380 0.500,
            -16.439 11.380 0.500,
            -16.422 11.379 0.500,
            -16.402 11.380 0.500,
            -16.388 11.381 0.500,
            -16.370 11.384 0.500,
            -16.157 11.853 0.500,
            -15.988 11.806 0.500,
            -15.991 11.816 0.500,
            -15.996 11.833 0.500,
            -15.998 11.851 0.500,
            -16.237 11.687 0.500,
            -16.253 11.696 0.500,
            -15.999 11.869 0.500,
            -16.222 11.678 0.500,
            -16.210 11.669 0.500,
            -16.199 11.659 0.500,
            -15.998 11.888 0.500,
            -16.159 11.872 0.500,
            -15.997 11.901 0.500,
            -16.162 11.891 0.500,
            -15.995 11.911 0.500,
            -16.166 11.910 0.500,
            -15.992 11.922 0.500,
            -15.989 11.933 0.500,
            -16.169 11.921 0.500,
            -15.984 11.944 0.500,
            -16.174 11.934 0.500,
            -16.266 11.853 0.500,
            -16.271 11.705 0.500,
            -16.330 11.726 0.500,
            -16.366 11.736 0.500,
            -16.314 11.721 0.500,
            -16.297 11.715 0.500,
            -16.284 11.710 0.500,
            -15.979 11.955 0.500,
            -16.181 11.949 0.500,
            -15.974 11.966 0.500,
            -16.618 11.502 0.500,
            -16.479 11.661 0.500,
            -16.621 11.513 0.500,
            -16.615 11.493 0.500,
            -16.607 11.475 0.500,
            -16.597 11.459 0.500,
            -16.587 11.446 0.500,
            -16.577 11.435 0.500,
            -16.566 11.425 0.500,
            -16.556 11.418 0.500,
            -16.546 11.411 0.500,
            -16.537 11.406 0.500,
            -16.519 11.397 0.500,
            -16.503 11.392 0.500,
            -16.624 11.524 0.500,
            -15.968 11.976 0.500,
            -16.191 11.966 0.500,
            -16.416 11.750 0.500,
            -16.269 11.872 0.500,
            -16.271 11.884 0.500,
            -16.628 11.541 0.500,
            -15.962 11.985 0.500,
            -16.196 11.976 0.500,
            -16.277 11.901 0.500,
            -15.955 11.994 0.500,
            -16.203 11.985 0.500,
            -16.631 11.567 0.500,
            -16.283 11.916 0.500,
            -16.528 11.676 0.500,
            -15.948 12.002 0.500,
            -16.212 11.995 0.500,
            -16.291 11.929 0.500,
            -15.934 12.015 0.500,
            -16.221 12.005 0.500,
            -16.299 11.941 0.500,
            -16.556 11.686 0.500,
            -15.920 12.027 0.500,
            -16.232 12.016 0.500,
            -16.308 11.950 0.500,
            -16.656 11.367 0.500,
            -16.903 11.362 0.500,
            -16.642 11.355 0.500,
            -16.896 11.369 0.500,
            -16.669 11.380 0.500,
            -16.889 11.377 0.500,
            -16.918 11.350 0.500,
            -16.634 11.349 0.500,
            -16.625 11.342 0.500,
            -16.882 11.386 0.500,
            -16.680 11.393 0.500,
            -16.577 11.694 0.500,
            -16.689 11.406 0.500,
            -16.876 11.396 0.500,
            -15.907 12.036 0.500,
            -16.246 12.026 0.500,
            -16.933 11.340 0.500,
            -16.616 11.336 0.500,
            -16.605 11.330 0.500,
            -16.870 11.406 0.500,
            -16.697 11.418 0.500,
            -16.947 11.332 0.500,
            -16.594 11.325 0.500,
            -16.864 11.417 0.500,
            -16.704 11.429 0.500,
            -16.586 11.698 0.500,
            -16.709 11.439 0.500,
            -16.858 11.429 0.500,
            -16.961 11.326 0.500,
            -16.583 11.319 0.500,
            -16.325 11.964 0.500,
            -16.317 11.958 0.500,
            -16.853 11.440 0.500,
            -16.714 11.449 0.500,
            -16.974 11.321 0.500,
            -16.570 11.314 0.500,
            -16.261 12.036 0.500,
            -15.893 12.044 0.500,
            -16.597 11.703 0.500,
            -16.849 11.452 0.500,
            -16.718 11.459 0.500,
            -16.986 11.317 0.500,
            -16.552 11.308 0.500,
            -16.846 11.463 0.500,
            -16.725 11.476 0.500,
            -17.004 11.312 0.500,
            -16.534 11.303 0.500,
            -16.343 11.974 0.500,
            -16.730 11.494 0.500,
            -16.843 11.475 0.500,
            -16.278 12.046 0.500,
            -15.876 12.052 0.500,
            -16.841 11.487 0.500,
            -16.733 11.506 0.500,
            -17.023 11.308 0.500,
            -16.515 11.299 0.500,
            -16.617 11.714 0.500,
            -16.358 11.980 0.500,
            -16.736 11.524 0.500,
            -16.840 11.500 0.500,
            -17.041 11.305 0.500,
            -16.498 11.296 0.500,
            -15.865 12.057 0.500,
            -16.296 12.054 0.500,
            -16.631 11.723 0.500,
            -16.740 11.567 0.500,
            -16.371 11.984 0.500,
            -16.839 11.521 0.500,
            -16.739 11.543 0.500,
            -15.854 12.061 0.500,
            -16.307 12.058 0.500,
            -16.382 11.986 0.500,
            -17.071 11.302 0.500,
            -16.479 11.293 0.500,
            -16.642 11.731 0.500,
            -16.740 11.555 0.500,
            -16.840 11.538 0.500,
            -15.837 12.066 0.500,
            -16.318 12.062 0.500,
            -17.084 11.301 0.500,
            -16.396 11.989 0.500,
            -16.468 11.763 0.500,
            -16.653 11.740 0.500,
            -17.097 11.300 0.500,
            -16.842 11.556 0.500,
            -16.410 11.990 0.500,
            -15.819 12.071 0.500,
            -16.335 12.067 0.500,
            -16.560 11.798 0.500,
            -16.585 11.820 0.500,
            -16.574 11.808 0.500,
            -16.661 11.748 0.500,
            -16.422 11.991 0.500,
            -16.846 11.573 0.500,
            -17.123 11.300 0.500,
            -16.669 11.757 0.500,
            -16.354 12.072 0.500,
            -15.800 12.075 0.500,
            -16.593 11.834 0.500,
            -16.439 11.991 0.500,
            -16.487 11.768 0.500,
            -16.849 11.584 0.500,
            -16.598 11.849 0.500,
            -16.373 12.075 0.500,
            -15.782 12.077 0.500,
            -16.853 11.596 0.500,
            -16.459 11.991 0.500,
            -16.601 11.860 0.500,
            -16.549 11.792 0.500,
            -16.477 11.989 0.500,
            -16.505 11.774 0.500,
            -15.770 12.079 0.500,
            -16.391 12.078 0.500,
            -16.860 11.610 0.500,
            -16.602 11.876 0.500,
            -16.492 11.987 0.500,
            -16.522 11.780 0.500,
            -15.757 12.079 0.500,
            -16.409 12.079 0.500,
            -16.506 11.985 0.500,
            -16.869 11.625 0.500,
            -16.676 11.764 0.500,
            -16.600 11.894 0.500,
            -16.519 11.981 0.500,
            -16.530 11.977 0.500,
            -16.537 11.786 0.500,
            -16.875 11.634 0.500,
            -16.686 11.780 0.500,
            -16.540 11.973 0.500,
            -16.549 11.968 0.500,
            -16.583 11.936 0.500,
            -16.596 11.911 0.500,
            -16.589 11.927 0.500,
            -16.564 11.957 0.500,
            -16.575 11.946 0.500,
            -16.882 11.642 0.500,
            -16.910 11.669 0.500,
            -16.921 11.748 0.500,
            -16.923 11.678 0.500,
            -16.930 11.739 0.500,
            -16.910 11.759 0.500,
            -16.899 11.660 0.500,
            -16.939 11.732 0.500,
            -16.938 11.687 0.500,
            -16.890 11.651 0.500,
            -16.899 11.774 0.500,
            -16.949 11.725 0.500,
            -16.954 11.694 0.500,
            -16.894 11.782 0.500,
            -16.961 11.717 0.500,
            -16.966 11.699 0.500,
            -16.694 11.794 0.500,
            -16.888 11.792 0.500,
            -16.970 11.712 0.500,
            -16.699 11.806 0.500,
            -16.883 11.802 0.500,
            -16.984 11.705 0.500,
            -16.702 11.816 0.500,
            -16.878 11.814 0.500,
            -16.874 11.828 0.500,
            -16.707 11.833 0.500,
            -17.412 11.300 0.500,
            -16.710 11.851 0.500,
            -16.871 11.843 0.500,
            -16.710 11.869 0.500,
            -16.869 11.855 0.500,
            -16.869 11.871 0.500,
            -16.709 11.888 0.500,
            -16.708 11.901 0.500,
            -16.870 11.889 0.500,
            -16.872 11.908 0.500,
            -16.706 11.911 0.500,
            -16.703 11.922 0.500,
            -16.877 11.926 0.500,
            -16.700 11.933 0.500,
            -16.880 11.936 0.500,
            -16.696 11.944 0.500,
            -16.691 11.955 0.500,
            -16.885 11.949 0.500,
            -16.893 11.963 0.500,
            -16.685 11.966 0.500,
            -16.679 11.976 0.500,
            -16.903 11.980 0.500,
            -16.673 11.985 0.500,
            -16.909 11.988 0.500,
            -16.666 11.994 0.500,
            -16.916 11.997 0.500,
            -16.660 12.002 0.500,
            -16.924 12.007 0.500,
            -16.646 12.015 0.500,
            -16.934 12.016 0.500,
            -16.945 12.025 0.500,
            -16.632 12.027 0.500,
            -16.959 12.034 0.500,
            -16.618 12.036 0.500,
            -16.605 12.044 0.500,
            -16.588 12.052 0.500,
            -16.974 12.043 0.500,
            -16.992 12.051 0.500,
            -16.576 12.057 0.500,
            -17.002 12.054 0.500,
            -16.566 12.061 0.500,
            -17.012 12.057 0.500,
            -16.548 12.066 0.500,
            -17.022 12.060 0.500,
            -16.531 12.071 0.500,
            -17.033 12.063 0.500,
            -17.050 12.065 0.500,
            -16.511 12.075 0.500,
            -17.061 12.067 0.500,
            -17.800 12.300 0.500,
            -16.443 12.080 0.500,
            -17.123 12.070 0.500,
            -17.412 12.070 0.500,
            -15.732 12.080 0.500,
            -16.493 12.077 0.500,
            -16.481 12.079 0.500,
            -16.468 12.079 0.500,
            -17.099 12.070 0.500,
            -17.074 12.068 0.500,
            -13.758 12.070 0.500,
            -13.727 12.070 0.500,
            -13.704 12.069 0.500,
            -13.680 12.066 0.500,
            -13.661 12.064 0.500,
            -13.642 12.060 0.500,
            -13.632 12.057 0.500,
            -13.622 12.054 0.500,
            -13.612 12.050 0.500,
            -13.595 12.042 0.500,
            -13.580 12.033 0.500,
            -13.567 12.023 0.500,
            -15.071 11.900 0.500,
            -15.088 11.884 0.500,
            -15.103 11.872 0.500,
            -15.119 11.859 0.500,
            -15.138 11.846 0.500,
            -14.725 11.680 0.500,
            -14.724 11.738 0.500,
            -14.721 11.776 0.500,
            -14.716 11.819 0.500,
            -14.712 11.841 0.500,
            -14.724 11.645 0.500,
            -14.231 11.680 0.500,
            -14.232 11.622 0.500,
            -14.236 11.575 0.500,
            -14.239 11.549 0.500,
            -14.231 11.707 0.500,
            -14.232 11.734 0.500,
            -14.234 11.769 0.500,
            -14.236 11.790 0.500,
            -14.238 11.807 0.500,
            -14.438 11.386 0.500,
            -14.464 11.380 0.500,
            -14.454 11.381 0.500,
            -14.421 11.393 0.500,
            -14.405 11.403 0.500,
            -14.478 11.379 0.500,
            -14.515 11.385 0.500,
            -14.542 11.397 0.500,
            -14.532 11.392 0.500,
            -14.497 11.380 0.500,
            -14.553 11.405 0.500,
            -14.391 11.415 0.500,
            -14.384 11.423 0.500,
            -14.565 11.416 0.500,
            -14.377 11.431 0.500,
            -14.578 11.430 0.500,
            -14.371 11.439 0.500,
            -14.361 11.456 0.500,
            -14.585 11.438 0.500,
            -14.597 11.460 0.500,
            -14.591 11.448 0.500,
            -14.602 11.472 0.500,
            -14.354 11.474 0.500,
            -14.606 11.487 0.500,
            -14.349 11.490 0.500,
            -14.344 11.509 0.500,
            -14.611 11.502 0.500,
            -14.340 11.528 0.500,
            -14.614 11.520 0.500,
            -14.336 11.556 0.500,
            -14.618 11.543 0.500,
            -14.333 11.593 0.500,
            -14.622 11.577 0.500,
            -14.330 11.637 0.500,
            -14.625 11.618 0.500,
            -14.330 11.680 0.500,
            -14.626 11.680 0.500,
            -14.331 11.743 0.500,
            -14.626 11.719 0.500,
            -14.335 11.789 0.500,
            -14.624 11.757 0.500,
            -14.337 11.812 0.500,
            -14.621 11.795 0.500,
            -14.413 11.963 0.500,
            -14.460 11.980 0.500,
            -14.402 11.955 0.500,
            -14.423 11.969 0.500,
            -14.441 11.976 0.500,
            -14.341 11.835 0.500,
            -14.616 11.825 0.500,
            -14.345 11.854 0.500,
            -14.613 11.846 0.500,
            -14.479 11.982 0.500,
            -14.390 11.944 0.500,
            -14.349 11.870 0.500,
            -14.608 11.864 0.500,
            -14.353 11.885 0.500,
            -14.603 11.882 0.500,
            -14.358 11.898 0.500,
            -14.364 11.910 0.500,
            -14.597 11.899 0.500,
            -14.370 11.920 0.500,
            -14.376 11.929 0.500,
            -14.591 11.913 0.500,
            -14.510 11.978 0.500,
            -14.544 11.964 0.500,
            -14.496 11.981 0.500,
            -14.524 11.974 0.500,
            -14.535 11.969 0.500,
            -14.558 11.954 0.500,
            -14.571 11.942 0.500,
            -14.582 11.929 0.500,
            -16.977 11.434 0.500,
            -16.998 11.414 0.500,
            -16.990 11.420 0.500,
            -17.008 11.408 0.500,
            -16.968 11.447 0.500,
            -17.019 11.403 0.500,
            -16.961 11.458 0.500,
            -16.957 11.468 0.500,
            -17.032 11.398 0.500,
            -16.951 11.486 0.500,
            -17.042 11.396 0.500,
            -16.949 11.504 0.500,
            -17.055 11.393 0.500,
            -16.948 11.522 0.500,
            -16.982 11.615 0.500,
            -17.002 11.631 0.500,
            -16.972 11.604 0.500,
            -16.992 11.624 0.500,
            -17.012 11.637 0.500,
            -16.964 11.590 0.500,
            -17.021 11.641 0.500,
            -16.956 11.574 0.500,
            -16.951 11.556 0.500,
            -17.039 11.647 0.500,
            -16.949 11.541 0.500,
            -17.055 11.650 0.500,
            -17.071 11.391 0.500,
            -17.068 11.652 0.500,
            -17.088 11.390 0.500,
            -17.087 11.654 0.500,
            -17.099 11.655 0.500,
            -17.121 11.389 0.500,
            -17.110 11.655 0.500,
            -17.133 11.656 0.500,
            -17.303 11.389 0.500,
            -17.303 11.656 0.500,
            -17.001 11.786 0.500,
            -16.993 11.797 0.500,
            -17.012 11.775 0.500,
            -16.988 11.807 0.500,
            -17.028 11.764 0.500,
            -17.037 11.759 0.500,
            -16.982 11.824 0.500,
            -16.978 11.843 0.500,
            -17.052 11.754 0.500,
            -17.062 11.751 0.500,
            -17.073 11.749 0.500,
            -16.977 11.861 0.500,
            -17.010 11.949 0.500,
            -17.029 11.964 0.500,
            -17.001 11.939 0.500,
            -17.020 11.958 0.500,
            -17.039 11.969 0.500,
            -16.993 11.926 0.500,
            -16.986 11.911 0.500,
            -17.058 11.974 0.500,
            -16.980 11.893 0.500,
            -16.978 11.879 0.500,
            -17.074 11.977 0.500,
            -17.093 11.979 0.500,
            -17.095 11.746 0.500,
            -17.109 11.980 0.500,
            -17.113 11.745 0.500,
            -17.125 11.981 0.500,
            -17.144 11.745 0.500,
            -17.156 11.982 0.500,
            -17.303 11.745 0.500,
            -17.303 11.982 0.500,
            18.000 12.300 -0.300,
            18.000 12.300 0.300,
            18.000 -12.300 -0.300,
            18.000 -12.300 0.300,
            17.800 12.500 0.300,
            17.800 12.500 -0.300,
            -17.800 12.500 0.300,
            -17.800 12.500 -0.300,
            -18.000 12.300 0.300,
            -18.000 12.300 -0.300,
            -18.000 -12.300 0.300,
            -18.000 -12.300 -0.300,
            17.800 -12.500 -0.300,
            17.800 -12.500 0.300,
            -17.800 -12.500 -0.300,
            -17.800 -12.500 0.300,
            -17.800 12.300 -0.500,
            17.800 12.300 -0.500,
            17.800 -12.300 -0.500,
            -17.800 -12.300 -0.500
          ]
        }
        coordIndex [
          0, 1, 2, -1,
          3, 1, 0, -1,
          3, 4, 1, -1,
          5, 6, 3, -1,
          7, 6, 5, -1,
          3, 6, 4, -1,
          8, 9, 7, -1,
          7, 9, 6, -1,
          8, 10, 9, -1,
          8, 11, 10, -1,
          11, 12, 10, -1,
          13, 14, 15, -1,
          16, 14, 13, -1,
          17, 18, 19, -1,
          20, 18, 17, -1,
          21, 18, 20, -1,
          15, 18, 21, -1,
          14, 18, 15, -1,
          19, 22, 23, -1,
          18, 22, 19, -1,
          23, 24, 12, -1,
          12, 24, 10, -1,
          22, 24, 23, -1,
          10, 25, 26, -1,
          24, 25, 10, -1,
          26, 27, 28, -1,
          25, 27, 26, -1,
          28, 29, 30, -1,
          27, 29, 28, -1,
          30, 31, 32, -1,
          29, 31, 30, -1,
          33, 34, 35, -1,
          35, 34, 36, -1,
          34, 37, 36, -1,
          38, 39, 40, -1,
          39, 41, 40, -1,
          40, 41, 42, -1,
          38, 43, 39, -1,
          41, 44, 42, -1,
          42, 44, 45, -1,
          38, 46, 43, -1,
          44, 47, 45, -1,
          45, 47, 48, -1,
          37, 49, 36, -1,
          50, 49, 51, -1,
          51, 49, 37, -1,
          48, 52, 53, -1,
          47, 52, 48, -1,
          38, 54, 46, -1,
          34, 54, 38, -1,
          50, 55, 49, -1,
          53, 56, 57, -1,
          52, 56, 53, -1,
          34, 58, 54, -1,
          56, 59, 57, -1,
          57, 59, 60, -1,
          34, 61, 58, -1,
          34, 62, 61, -1,
          59, 63, 60, -1,
          60, 63, 64, -1,
          34, 65, 62, -1,
          63, 66, 64, -1,
          34, 67, 65, -1,
          64, 68, 69, -1,
          66, 68, 64, -1,
          34, 70, 67, -1,
          69, 71, 72, -1,
          68, 71, 69, -1,
          34, 73, 70, -1,
          71, 74, 72, -1,
          34, 75, 73, -1,
          34, 76, 75, -1,
          33, 76, 34, -1,
          33, 77, 76, -1,
          33, 78, 77, -1,
          33, 79, 78, -1,
          33, 80, 79, -1,
          81, 82, 83, -1,
          33, 84, 80, -1,
          82, 85, 83, -1,
          86, 85, 87, -1,
          88, 85, 86, -1,
          89, 85, 88, -1,
          83, 85, 89, -1,
          33, 90, 84, -1,
          87, 91, 92, -1,
          85, 91, 87, -1,
          33, 93, 90, -1,
          91, 94, 92, -1,
          92, 94, 55, -1,
          55, 94, 49, -1,
          33, 95, 93, -1,
          33, 96, 95, -1,
          33, 97, 96, -1,
          94, 98, 49, -1,
          99, 100, 101, -1,
          101, 102, 99, -1,
          102, 103, 99, -1,
          99, 104, 100, -1,
          103, 105, 99, -1,
          99, 106, 104, -1,
          105, 107, 99, -1,
          99, 108, 106, -1,
          107, 109, 99, -1,
          99, 110, 108, -1,
          99, 111, 110, -1,
          109, 112, 99, -1,
          99, 113, 111, -1,
          112, 114, 99, -1,
          114, 115, 99, -1,
          99, 116, 113, -1,
          99, 117, 116, -1,
          115, 118, 99, -1,
          99, 119, 117, -1,
          49, 120, 36, -1,
          118, 120, 99, -1,
          99, 120, 49, -1,
          99, 121, 119, -1,
          120, 122, 36, -1,
          123, 124, 125, -1,
          126, 124, 123, -1,
          127, 124, 126, -1,
          124, 128, 125, -1,
          124, 129, 128, -1,
          124, 130, 129, -1,
          124, 131, 130, -1,
          132, 133, 122, -1,
          134, 133, 132, -1,
          135, 133, 134, -1,
          136, 133, 135, -1,
          137, 133, 136, -1,
          138, 133, 137, -1,
          139, 133, 138, -1,
          140, 133, 139, -1,
          141, 133, 140, -1,
          142, 133, 141, -1,
          143, 133, 142, -1,
          144, 133, 143, -1,
          145, 133, 144, -1,
          146, 133, 145, -1,
          122, 133, 36, -1,
          147, 133, 146, -1,
          148, 133, 147, -1,
          149, 133, 148, -1,
          150, 133, 149, -1,
          151, 133, 150, -1,
          152, 133, 151, -1,
          153, 133, 152, -1,
          154, 133, 153, -1,
          124, 155, 131, -1,
          124, 156, 155, -1,
          154, 157, 133, -1,
          124, 158, 156, -1,
          124, 159, 158, -1,
          157, 160, 133, -1,
          124, 161, 159, -1,
          124, 162, 161, -1,
          124, 163, 162, -1,
          133, 164, 36, -1,
          124, 165, 163, -1,
          124, 166, 165, -1,
          124, 167, 166, -1,
          124, 168, 167, -1,
          124, 169, 168, -1,
          124, 170, 169, -1,
          124, 171, 170, -1,
          124, 172, 171, -1,
          124, 173, 172, -1,
          124, 174, 173, -1,
          124, 175, 174, -1,
          176, 177, 164, -1,
          164, 178, 176, -1,
          177, 179, 164, -1,
          164, 180, 178, -1,
          164, 181, 180, -1,
          179, 182, 164, -1,
          164, 183, 181, -1,
          182, 184, 164, -1,
          164, 185, 183, -1,
          184, 186, 164, -1,
          164, 187, 185, -1,
          164, 188, 187, -1,
          186, 189, 164, -1,
          189, 190, 164, -1,
          164, 191, 188, -1,
          164, 192, 191, -1,
          190, 193, 164, -1,
          164, 194, 192, -1,
          164, 195, 194, -1,
          193, 196, 164, -1,
          164, 197, 195, -1,
          196, 198, 164, -1,
          198, 199, 164, -1,
          164, 200, 197, -1,
          199, 201, 164, -1,
          164, 202, 200, -1,
          201, 203, 164, -1,
          164, 203, 36, -1,
          203, 204, 36, -1,
          205, 206, 164, -1,
          204, 207, 36, -1,
          206, 208, 164, -1,
          208, 209, 164, -1,
          210, 211, 212, -1,
          213, 211, 210, -1,
          202, 211, 213, -1,
          209, 211, 164, -1,
          164, 211, 202, -1,
          211, 214, 212, -1,
          215, 216, 217, -1,
          218, 216, 215, -1,
          219, 216, 218, -1,
          220, 216, 219, -1,
          221, 216, 220, -1,
          222, 216, 221, -1,
          223, 216, 222, -1,
          224, 216, 223, -1,
          225, 216, 224, -1,
          226, 216, 225, -1,
          227, 216, 226, -1,
          228, 216, 227, -1,
          229, 216, 228, -1,
          230, 216, 229, -1,
          231, 216, 230, -1,
          232, 216, 231, -1,
          233, 216, 232, -1,
          234, 216, 233, -1,
          235, 216, 234, -1,
          236, 216, 235, -1,
          175, 216, 236, -1,
          211, 237, 214, -1,
          211, 238, 237, -1,
          211, 239, 238, -1,
          240, 241, 242, -1,
          243, 241, 240, -1,
          244, 245, 246, -1,
          241, 247, 242, -1,
          211, 248, 239, -1,
          211, 249, 248, -1,
          250, 251, 245, -1,
          246, 252, 253, -1,
          245, 252, 246, -1,
          251, 252, 245, -1,
          252, 254, 253, -1,
          255, 254, 256, -1,
          257, 254, 255, -1,
          253, 254, 257, -1,
          258, 259, 260, -1,
          261, 259, 258, -1,
          262, 259, 261, -1,
          263, 259, 262, -1,
          256, 259, 263, -1,
          254, 259, 256, -1,
          264, 265, 266, -1,
          260, 265, 264, -1,
          259, 265, 260, -1,
          267, 268, 269, -1,
          266, 268, 267, -1,
          265, 268, 266, -1,
          270, 271, 272, -1,
          273, 271, 270, -1,
          274, 271, 273, -1,
          269, 271, 274, -1,
          268, 271, 269, -1,
          275, 271, 276, -1,
          277, 271, 275, -1,
          278, 271, 277, -1,
          279, 271, 278, -1,
          272, 271, 279, -1,
          280, 281, 282, -1,
          283, 281, 280, -1,
          284, 281, 283, -1,
          285, 281, 284, -1,
          249, 281, 285, -1,
          211, 281, 249, -1,
          286, 281, 211, -1,
          286, 287, 281, -1,
          286, 288, 287, -1,
          286, 289, 288, -1,
          286, 290, 289, -1,
          286, 291, 290, -1,
          282, 292, 293, -1,
          294, 292, 295, -1,
          296, 292, 294, -1,
          297, 292, 296, -1,
          298, 292, 297, -1,
          293, 292, 298, -1,
          281, 292, 282, -1,
          286, 299, 291, -1,
          300, 299, 286, -1,
          271, 301, 276, -1,
          302, 301, 303, -1,
          304, 301, 302, -1,
          305, 301, 304, -1,
          306, 301, 305, -1,
          307, 301, 306, -1,
          308, 301, 307, -1,
          309, 301, 308, -1,
          310, 301, 309, -1,
          311, 301, 310, -1,
          312, 301, 311, -1,
          313, 301, 312, -1,
          314, 301, 313, -1,
          276, 301, 314, -1,
          301, 315, 303, -1,
          300, 316, 299, -1,
          317, 316, 300, -1,
          318, 316, 317, -1,
          292, 319, 295, -1,
          320, 319, 292, -1,
          321, 319, 320, -1,
          301, 322, 315, -1,
          318, 323, 316, -1,
          324, 323, 318, -1,
          321, 325, 319, -1,
          324, 326, 323, -1,
          327, 326, 324, -1,
          328, 326, 327, -1,
          301, 329, 322, -1,
          325, 330, 319, -1,
          301, 331, 329, -1,
          328, 332, 326, -1,
          333, 332, 328, -1,
          334, 332, 333, -1,
          335, 332, 334, -1,
          242, 332, 335, -1,
          330, 336, 319, -1,
          247, 337, 242, -1,
          242, 337, 332, -1,
          336, 338, 319, -1,
          331, 339, 329, -1,
          247, 340, 337, -1,
          338, 341, 319, -1,
          339, 342, 329, -1,
          247, 343, 340, -1,
          344, 345, 346, -1,
          346, 347, 348, -1,
          345, 347, 346, -1,
          344, 349, 345, -1,
          348, 350, 351, -1,
          347, 350, 348, -1,
          352, 353, 344, -1,
          344, 353, 349, -1,
          342, 354, 329, -1,
          352, 355, 353, -1,
          356, 355, 352, -1,
          357, 358, 359, -1,
          351, 358, 357, -1,
          350, 358, 351, -1,
          360, 361, 356, -1,
          356, 361, 355, -1,
          362, 363, 341, -1,
          341, 363, 319, -1,
          359, 364, 365, -1,
          358, 364, 359, -1,
          366, 367, 360, -1,
          360, 367, 361, -1,
          365, 368, 369, -1,
          364, 368, 365, -1,
          247, 370, 343, -1,
          371, 372, 366, -1,
          366, 372, 367, -1,
          354, 373, 329, -1,
          374, 375, 371, -1,
          371, 375, 372, -1,
          369, 376, 377, -1,
          368, 376, 369, -1,
          377, 378, 379, -1,
          376, 378, 377, -1,
          380, 381, 374, -1,
          374, 381, 375, -1,
          363, 382, 319, -1,
          383, 384, 380, -1,
          380, 384, 381, -1,
          385, 386, 387, -1,
          379, 386, 385, -1,
          378, 386, 379, -1,
          247, 388, 370, -1,
          389, 390, 383, -1,
          383, 390, 384, -1,
          373, 391, 329, -1,
          389, 392, 390, -1,
          387, 393, 394, -1,
          386, 393, 387, -1,
          382, 395, 319, -1,
          396, 397, 389, -1,
          398, 397, 396, -1,
          389, 397, 392, -1,
          247, 399, 388, -1,
          394, 400, 401, -1,
          393, 400, 394, -1,
          329, 402, 403, -1,
          391, 402, 329, -1,
          395, 404, 319, -1,
          247, 405, 399, -1,
          401, 406, 407, -1,
          400, 406, 401, -1,
          408, 409, 398, -1,
          398, 409, 397, -1,
          404, 410, 319, -1,
          402, 411, 403, -1,
          407, 412, 413, -1,
          406, 412, 407, -1,
          247, 414, 405, -1,
          410, 415, 319, -1,
          319, 415, 416, -1,
          408, 417, 409, -1,
          418, 417, 408, -1,
          412, 419, 413, -1,
          413, 419, 207, -1,
          411, 420, 403, -1,
          415, 421, 416, -1,
          247, 422, 414, -1,
          423, 424, 425, -1,
          418, 426, 417, -1,
          403, 426, 418, -1,
          420, 427, 403, -1,
          421, 428, 416, -1,
          207, 429, 36, -1,
          419, 429, 207, -1,
          427, 430, 403, -1,
          247, 431, 422, -1,
          423, 432, 424, -1,
          403, 433, 426, -1,
          416, 434, 435, -1,
          428, 434, 416, -1,
          429, 436, 36, -1,
          430, 437, 403, -1,
          403, 438, 433, -1,
          423, 439, 432, -1,
          247, 440, 431, -1,
          434, 441, 435, -1,
          436, 442, 36, -1,
          403, 443, 438, -1,
          444, 445, 423, -1,
          423, 445, 439, -1,
          435, 446, 447, -1,
          441, 446, 435, -1,
          247, 448, 440, -1,
          444, 449, 445, -1,
          403, 450, 443, -1,
          447, 451, 452, -1,
          446, 451, 447, -1,
          247, 453, 448, -1,
          451, 454, 452, -1,
          444, 455, 449, -1,
          454, 456, 452, -1,
          437, 457, 403, -1,
          403, 457, 450, -1,
          456, 458, 452, -1,
          452, 458, 459, -1,
          458, 460, 459, -1,
          460, 461, 459, -1,
          462, 463, 437, -1,
          437, 463, 457, -1,
          444, 464, 455, -1,
          465, 464, 466, -1,
          455, 464, 465, -1,
          461, 467, 459, -1,
          444, 468, 464, -1,
          459, 468, 444, -1,
          467, 468, 459, -1,
          469, 470, 471, -1,
          472, 473, 462, -1,
          462, 473, 463, -1,
          472, 474, 473, -1,
          475, 476, 470, -1,
          470, 477, 471, -1,
          476, 477, 470, -1,
          471, 477, 478, -1,
          479, 480, 481, -1,
          482, 480, 479, -1,
          478, 480, 482, -1,
          477, 480, 478, -1,
          483, 484, 485, -1,
          481, 484, 483, -1,
          480, 484, 481, -1,
          486, 484, 487, -1,
          488, 484, 486, -1,
          485, 484, 488, -1,
          484, 489, 487, -1,
          490, 489, 491, -1,
          487, 489, 490, -1,
          489, 492, 491, -1,
          493, 492, 494, -1,
          491, 492, 493, -1,
          495, 496, 497, -1,
          498, 496, 495, -1,
          499, 496, 498, -1,
          500, 496, 499, -1,
          501, 496, 500, -1,
          502, 496, 501, -1,
          492, 496, 494, -1,
          503, 496, 502, -1,
          504, 496, 503, -1,
          494, 496, 504, -1,
          472, 505, 474, -1,
          506, 505, 472, -1,
          507, 505, 506, -1,
          508, 505, 507, -1,
          509, 505, 508, -1,
          510, 505, 511, -1,
          512, 505, 509, -1,
          513, 505, 510, -1,
          514, 505, 513, -1,
          515, 505, 514, -1,
          474, 505, 515, -1,
          516, 517, 512, -1,
          512, 517, 505, -1,
          518, 519, 516, -1,
          516, 519, 517, -1,
          520, 521, 518, -1,
          522, 521, 520, -1,
          518, 521, 519, -1,
          523, 524, 522, -1,
          522, 524, 521, -1,
          525, 526, 523, -1,
          523, 526, 524, -1,
          505, 527, 511, -1,
          511, 527, 528, -1,
          529, 527, 530, -1,
          531, 527, 529, -1,
          532, 527, 531, -1,
          533, 527, 532, -1,
          528, 527, 533, -1,
          534, 535, 525, -1,
          536, 535, 534, -1,
          525, 535, 526, -1,
          537, 538, 539, -1,
          540, 538, 537, -1,
          541, 538, 540, -1,
          542, 538, 541, -1,
          543, 538, 542, -1,
          544, 538, 543, -1,
          545, 538, 544, -1,
          546, 538, 545, -1,
          547, 538, 546, -1,
          548, 538, 547, -1,
          549, 538, 548, -1,
          550, 538, 549, -1,
          497, 538, 550, -1,
          496, 538, 497, -1,
          538, 551, 539, -1,
          552, 553, 536, -1,
          536, 553, 535, -1,
          527, 554, 530, -1,
          555, 554, 527, -1,
          556, 554, 555, -1,
          538, 557, 551, -1,
          558, 559, 552, -1,
          552, 559, 553, -1,
          556, 560, 554, -1,
          561, 562, 558, -1,
          558, 562, 559, -1,
          538, 563, 557, -1,
          560, 564, 554, -1,
          538, 565, 563, -1,
          566, 567, 561, -1,
          561, 567, 562, -1,
          564, 568, 554, -1,
          569, 570, 566, -1,
          566, 570, 567, -1,
          568, 571, 554, -1,
          565, 572, 563, -1,
          573, 574, 569, -1,
          569, 574, 570, -1,
          571, 575, 554, -1,
          576, 577, 578, -1,
          576, 579, 577, -1,
          580, 579, 576, -1,
          580, 581, 579, -1,
          577, 582, 578, -1,
          583, 582, 584, -1,
          578, 582, 583, -1,
          580, 585, 581, -1,
          586, 585, 580, -1,
          572, 587, 563, -1,
          588, 589, 586, -1,
          586, 589, 585, -1,
          590, 591, 573, -1,
          573, 591, 574, -1,
          582, 592, 584, -1,
          593, 592, 594, -1,
          584, 592, 593, -1,
          588, 595, 589, -1,
          596, 595, 588, -1,
          594, 597, 598, -1,
          592, 597, 594, -1,
          596, 599, 595, -1,
          600, 599, 596, -1,
          587, 601, 563, -1,
          602, 603, 600, -1,
          600, 603, 599, -1,
          598, 604, 605, -1,
          597, 604, 598, -1,
          575, 606, 554, -1,
          607, 606, 575, -1,
          602, 608, 603, -1,
          609, 608, 602, -1,
          605, 610, 611, -1,
          604, 610, 605, -1,
          590, 612, 591, -1,
          613, 612, 590, -1,
          601, 614, 563, -1,
          609, 615, 608, -1,
          616, 615, 609, -1,
          610, 617, 611, -1,
          611, 617, 618, -1,
          616, 619, 615, -1,
          620, 619, 616, -1,
          618, 621, 622, -1,
          617, 621, 618, -1,
          606, 623, 554, -1,
          624, 625, 620, -1,
          620, 625, 619, -1,
          613, 626, 612, -1,
          627, 626, 613, -1,
          624, 628, 625, -1,
          629, 628, 624, -1,
          622, 630, 631, -1,
          621, 630, 622, -1,
          614, 632, 563, -1,
          623, 633, 554, -1,
          634, 635, 629, -1,
          629, 635, 628, -1,
          631, 636, 637, -1,
          630, 636, 631, -1,
          638, 639, 627, -1,
          627, 639, 626, -1,
          563, 640, 641, -1,
          632, 640, 563, -1,
          633, 642, 554, -1,
          634, 643, 635, -1,
          644, 643, 634, -1,
          645, 646, 638, -1,
          638, 646, 639, -1,
          642, 647, 554, -1,
          637, 648, 649, -1,
          636, 648, 637, -1,
          640, 650, 641, -1,
          651, 652, 644, -1,
          644, 652, 643, -1,
          653, 654, 645, -1,
          645, 654, 646, -1,
          649, 655, 442, -1,
          648, 655, 649, -1,
          554, 656, 657, -1,
          647, 656, 554, -1,
          650, 658, 641, -1,
          655, 659, 442, -1,
          651, 660, 652, -1,
          641, 660, 651, -1,
          656, 661, 657, -1,
          662, 663, 653, -1,
          653, 663, 654, -1,
          664, 665, 666, -1,
          658, 667, 641, -1,
          661, 668, 657, -1,
          641, 669, 660, -1,
          442, 670, 36, -1,
          659, 670, 442, -1,
          667, 671, 641, -1,
          662, 672, 663, -1,
          673, 672, 662, -1,
          664, 674, 665, -1,
          668, 675, 657, -1,
          657, 675, 676, -1,
          641, 677, 669, -1,
          664, 678, 674, -1,
          673, 679, 672, -1,
          680, 679, 673, -1,
          641, 681, 677, -1,
          675, 682, 676, -1,
          664, 683, 678, -1,
          684, 683, 664, -1,
          682, 685, 676, -1,
          676, 685, 686, -1,
          687, 688, 680, -1,
          680, 688, 679, -1,
          641, 689, 681, -1,
          684, 690, 683, -1,
          686, 691, 692, -1,
          685, 691, 686, -1,
          693, 694, 687, -1,
          687, 694, 688, -1,
          691, 695, 692, -1,
          641, 696, 689, -1,
          671, 696, 641, -1,
          697, 696, 671, -1,
          684, 698, 690, -1,
          695, 699, 692, -1,
          692, 700, 701, -1,
          699, 700, 692, -1,
          697, 702, 696, -1,
          703, 702, 697, -1,
          700, 704, 701, -1,
          704, 705, 701, -1,
          684, 706, 698, -1,
          707, 706, 708, -1,
          698, 706, 707, -1,
          705, 709, 701, -1,
          684, 710, 706, -1,
          701, 710, 684, -1,
          709, 710, 701, -1,
          703, 711, 702, -1,
          712, 713, 714, -1,
          713, 715, 714, -1,
          712, 716, 713, -1,
          717, 716, 712, -1,
          715, 718, 714, -1,
          714, 718, 719, -1,
          720, 721, 717, -1,
          717, 721, 716, -1,
          719, 722, 723, -1,
          718, 722, 719, -1,
          711, 724, 720, -1,
          720, 724, 721, -1,
          703, 724, 711, -1,
          723, 725, 726, -1,
          722, 725, 723, -1,
          727, 728, 703, -1,
          703, 728, 724, -1,
          725, 729, 726, -1,
          730, 731, 727, -1,
          727, 731, 728, -1,
          729, 732, 726, -1,
          733, 734, 730, -1,
          730, 734, 731, -1,
          733, 735, 734, -1,
          736, 735, 733, -1,
          670, 737, 36, -1,
          738, 739, 736, -1,
          736, 739, 735, -1,
          740, 741, 738, -1,
          738, 741, 739, -1,
          740, 742, 741, -1,
          743, 742, 740, -1,
          744, 745, 743, -1,
          743, 745, 742, -1,
          744, 746, 745, -1,
          747, 746, 744, -1,
          748, 746, 747, -1,
          748, 749, 746, -1,
          750, 749, 748, -1,
          750, 751, 749, -1,
          752, 751, 750, -1,
          753, 754, 752, -1,
          752, 754, 751, -1,
          753, 755, 754, -1,
          756, 755, 753, -1,
          757, 755, 756, -1,
          757, 758, 755, -1,
          759, 758, 757, -1,
          759, 760, 758, -1,
          761, 760, 759, -1,
          761, 762, 760, -1,
          763, 762, 761, -1,
          763, 764, 762, -1,
          765, 764, 763, -1,
          765, 766, 764, -1,
          765, 767, 766, -1,
          768, 767, 765, -1,
          768, 769, 767, -1,
          770, 769, 768, -1,
          771, 769, 770, -1,
          772, 773, 771, -1,
          771, 773, 769, -1,
          772, 774, 773, -1,
          775, 774, 772, -1,
          775, 776, 774, -1,
          777, 776, 775, -1,
          777, 778, 776, -1,
          779, 778, 777, -1,
          779, 780, 778, -1,
          781, 780, 779, -1,
          781, 782, 780, -1,
          781, 783, 782, -1,
          784, 783, 781, -1,
          784, 785, 783, -1,
          694, 786, 787, -1,
          216, 786, 247, -1,
          788, 786, 789, -1,
          789, 786, 737, -1,
          790, 786, 693, -1,
          175, 786, 216, -1,
          737, 786, 36, -1,
          791, 786, 784, -1,
          792, 786, 791, -1,
          784, 786, 785, -1,
          793, 786, 792, -1,
          787, 786, 793, -1,
          693, 786, 694, -1,
          453, 786, 790, -1,
          794, 786, 788, -1,
          795, 786, 794, -1,
          785, 786, 795, -1,
          247, 786, 453, -1,
          33, 786, 796, -1,
          33, 796, 797, -1,
          33, 797, 798, -1,
          33, 798, 799, -1,
          33, 799, 800, -1,
          33, 800, 801, -1,
          33, 801, 802, -1,
          33, 802, 803, -1,
          33, 803, 804, -1,
          33, 804, 805, -1,
          33, 805, 806, -1,
          33, 806, 807, -1,
          33, 807, 97, -1,
          796, 786, 124, -1,
          124, 786, 175, -1,
          164, 808, 809, -1,
          164, 809, 810, -1,
          164, 810, 811, -1,
          164, 811, 812, -1,
          164, 812, 205, -1,
          216, 133, 813, -1,
          216, 813, 814, -1,
          216, 814, 815, -1,
          216, 815, 816, -1,
          216, 816, 817, -1,
          216, 817, 217, -1,
          813, 133, 818, -1,
          818, 133, 160, -1,
          99, 124, 819, -1,
          99, 819, 820, -1,
          99, 820, 821, -1,
          99, 821, 822, -1,
          99, 822, 121, -1,
          819, 124, 823, -1,
          823, 124, 824, -1,
          824, 124, 825, -1,
          825, 124, 826, -1,
          826, 124, 827, -1,
          827, 124, 127, -1,
          828, 829, 830, -1,
          831, 829, 828, -1,
          832, 829, 831, -1,
          832, 833, 829, -1,
          834, 835, 836, -1,
          837, 835, 834, -1,
          832, 838, 833, -1,
          837, 838, 835, -1,
          839, 838, 832, -1,
          833, 838, 837, -1,
          840, 841, 839, -1,
          839, 841, 838, -1,
          842, 843, 840, -1,
          844, 843, 842, -1,
          845, 843, 844, -1,
          840, 843, 841, -1,
          846, 847, 848, -1,
          843, 847, 846, -1,
          845, 847, 843, -1,
          845, 849, 847, -1,
          850, 849, 845, -1,
          850, 851, 849, -1,
          852, 851, 850, -1,
          853, 854, 852, -1,
          852, 854, 851, -1,
          855, 856, 853, -1,
          853, 856, 854, -1,
          857, 858, 855, -1,
          855, 858, 856, -1,
          859, 860, 857, -1,
          857, 860, 858, -1,
          861, 862, 859, -1,
          859, 862, 860, -1,
          863, 864, 861, -1,
          861, 864, 862, -1,
          865, 866, 863, -1,
          863, 866, 864, -1,
          867, 868, 865, -1,
          865, 868, 866, -1,
          869, 870, 867, -1,
          867, 870, 868, -1,
          871, 872, 873, -1,
          874, 872, 871, -1,
          875, 872, 874, -1,
          876, 877, 869, -1,
          869, 877, 870, -1,
          878, 879, 876, -1,
          876, 879, 877, -1,
          873, 880, 881, -1,
          872, 880, 873, -1,
          882, 883, 878, -1,
          878, 883, 879, -1,
          884, 885, 882, -1,
          886, 885, 884, -1,
          882, 885, 883, -1,
          887, 888, 886, -1,
          889, 888, 887, -1,
          890, 888, 889, -1,
          881, 888, 890, -1,
          886, 888, 885, -1,
          881, 891, 888, -1,
          880, 891, 881, -1,
          892, 893, 894, -1,
          895, 893, 892, -1,
          896, 893, 895, -1,
          893, 897, 894, -1,
          880, 898, 891, -1,
          897, 898, 894, -1,
          891, 898, 899, -1,
          894, 898, 880, -1,
          34, 38, 37, -1,
          38, 51, 37, -1,
          40, 51, 38, -1,
          40, 42, 51, -1,
          42, 50, 51, -1,
          53, 50, 48, -1,
          48, 50, 45, -1,
          45, 50, 42, -1,
          53, 57, 50, -1,
          57, 60, 50, -1,
          60, 55, 50, -1,
          64, 55, 60, -1,
          64, 69, 55, -1,
          69, 92, 55, -1,
          69, 72, 92, -1,
          92, 74, 87, -1,
          72, 74, 92, -1,
          74, 86, 87, -1,
          74, 88, 86, -1,
          74, 89, 88, -1,
          41, 0, 44, -1,
          44, 0, 47, -1,
          47, 0, 52, -1,
          0, 2, 52, -1,
          52, 2, 56, -1,
          43, 3, 39, -1,
          39, 3, 41, -1,
          41, 3, 0, -1,
          2, 1, 56, -1,
          56, 1, 59, -1,
          46, 5, 43, -1,
          43, 5, 3, -1,
          1, 4, 59, -1,
          59, 4, 63, -1,
          63, 4, 66, -1,
          46, 7, 5, -1,
          58, 7, 54, -1,
          54, 7, 46, -1,
          4, 6, 66, -1,
          66, 6, 68, -1,
          58, 8, 7, -1,
          65, 8, 62, -1,
          62, 8, 61, -1,
          61, 8, 58, -1,
          6, 9, 68, -1,
          68, 9, 71, -1,
          9, 10, 71, -1,
          71, 10, 74, -1,
          73, 11, 70, -1,
          70, 11, 67, -1,
          67, 11, 65, -1,
          65, 11, 8, -1,
          10, 26, 74, -1,
          76, 12, 75, -1,
          75, 12, 73, -1,
          73, 12, 11, -1,
          26, 28, 74, -1,
          74, 28, 89, -1,
          77, 23, 76, -1,
          76, 23, 12, -1,
          79, 19, 78, -1,
          78, 19, 77, -1,
          77, 19, 23, -1,
          28, 30, 89, -1,
          89, 30, 83, -1,
          83, 30, 81, -1,
          81, 30, 82, -1,
          82, 30, 85, -1,
          85, 30, 91, -1,
          30, 94, 91, -1,
          84, 17, 80, -1,
          80, 17, 79, -1,
          79, 17, 19, -1,
          90, 20, 84, -1,
          84, 20, 17, -1,
          96, 21, 95, -1,
          95, 21, 93, -1,
          93, 21, 90, -1,
          90, 21, 20, -1,
          97, 15, 96, -1,
          96, 15, 21, -1,
          97, 13, 15, -1,
          97, 807, 13, -1,
          13, 806, 16, -1,
          807, 806, 13, -1,
          49, 98, 99, -1,
          806, 805, 16, -1,
          16, 804, 14, -1,
          805, 804, 16, -1,
          804, 803, 14, -1,
          803, 802, 14, -1,
          14, 801, 18, -1,
          802, 801, 14, -1,
          30, 32, 94, -1,
          94, 32, 98, -1,
          18, 800, 22, -1,
          801, 800, 18, -1,
          22, 799, 24, -1,
          800, 799, 22, -1,
          24, 798, 25, -1,
          799, 798, 24, -1,
          798, 797, 25, -1,
          25, 797, 27, -1,
          797, 796, 27, -1,
          27, 796, 29, -1,
          796, 31, 29, -1,
          98, 124, 99, -1,
          31, 124, 32, -1,
          796, 124, 31, -1,
          32, 124, 98, -1,
          100, 839, 101, -1,
          101, 839, 102, -1,
          100, 840, 839, -1,
          104, 840, 100, -1,
          104, 842, 840, -1,
          106, 842, 104, -1,
          839, 832, 102, -1,
          102, 832, 103, -1,
          103, 832, 105, -1,
          105, 832, 107, -1,
          106, 844, 842, -1,
          108, 844, 106, -1,
          107, 831, 109, -1,
          109, 831, 112, -1,
          832, 831, 107, -1,
          108, 845, 844, -1,
          111, 845, 110, -1,
          110, 845, 108, -1,
          112, 828, 114, -1,
          114, 828, 115, -1,
          831, 828, 112, -1,
          111, 850, 845, -1,
          116, 850, 113, -1,
          113, 850, 111, -1,
          115, 830, 118, -1,
          828, 830, 115, -1,
          116, 852, 850, -1,
          117, 852, 116, -1,
          830, 829, 118, -1,
          118, 829, 120, -1,
          119, 853, 117, -1,
          117, 853, 852, -1,
          829, 833, 120, -1,
          120, 833, 122, -1,
          122, 833, 132, -1,
          121, 855, 119, -1,
          119, 855, 853, -1,
          833, 837, 132, -1,
          132, 837, 134, -1,
          134, 837, 135, -1,
          821, 857, 822, -1,
          822, 857, 121, -1,
          121, 857, 855, -1,
          837, 834, 135, -1,
          135, 834, 136, -1,
          136, 834, 137, -1,
          137, 834, 138, -1,
          834, 836, 138, -1,
          138, 836, 139, -1,
          820, 859, 821, -1,
          821, 859, 857, -1,
          139, 835, 140, -1,
          140, 835, 141, -1,
          836, 835, 139, -1,
          835, 838, 141, -1,
          141, 838, 142, -1,
          838, 143, 142, -1,
          819, 861, 820, -1,
          820, 861, 859, -1,
          838, 841, 143, -1,
          841, 144, 143, -1,
          841, 843, 144, -1,
          819, 863, 861, -1,
          823, 863, 819, -1,
          843, 145, 144, -1,
          846, 146, 843, -1,
          843, 146, 145, -1,
          846, 147, 146, -1,
          848, 147, 846, -1,
          823, 865, 863, -1,
          825, 865, 824, -1,
          824, 865, 823, -1,
          847, 148, 848, -1,
          848, 148, 147, -1,
          849, 149, 847, -1,
          847, 149, 148, -1,
          825, 867, 865, -1,
          827, 867, 826, -1,
          826, 867, 825, -1,
          851, 150, 849, -1,
          849, 150, 149, -1,
          126, 869, 127, -1,
          827, 869, 867, -1,
          127, 869, 827, -1,
          854, 151, 851, -1,
          851, 151, 150, -1,
          126, 876, 869, -1,
          123, 876, 126, -1,
          856, 152, 854, -1,
          854, 152, 151, -1,
          125, 878, 123, -1,
          123, 878, 876, -1,
          125, 882, 878, -1,
          858, 153, 856, -1,
          856, 153, 152, -1,
          128, 884, 125, -1,
          125, 884, 882, -1,
          129, 886, 128, -1,
          128, 886, 884, -1,
          860, 154, 858, -1,
          858, 154, 153, -1,
          130, 887, 129, -1,
          129, 887, 886, -1,
          155, 889, 131, -1,
          131, 889, 130, -1,
          130, 889, 887, -1,
          862, 157, 860, -1,
          860, 157, 154, -1,
          156, 890, 155, -1,
          155, 890, 889, -1,
          156, 158, 890, -1,
          862, 160, 157, -1,
          158, 881, 890, -1,
          159, 881, 158, -1,
          159, 161, 881, -1,
          161, 162, 881, -1,
          162, 873, 881, -1,
          162, 163, 873, -1,
          864, 818, 862, -1,
          862, 818, 160, -1,
          163, 165, 873, -1,
          165, 166, 873, -1,
          873, 166, 871, -1,
          864, 813, 818, -1,
          866, 813, 864, -1,
          166, 167, 871, -1,
          871, 167, 874, -1,
          167, 168, 874, -1,
          168, 169, 874, -1,
          866, 814, 813, -1,
          868, 814, 866, -1,
          169, 170, 874, -1,
          874, 170, 875, -1,
          170, 171, 875, -1,
          171, 172, 875, -1,
          875, 172, 872, -1,
          868, 815, 814, -1,
          870, 815, 868, -1,
          172, 173, 872, -1,
          872, 174, 880, -1,
          173, 174, 872, -1,
          870, 816, 815, -1,
          877, 816, 870, -1,
          174, 175, 880, -1,
          877, 817, 816, -1,
          879, 817, 877, -1,
          880, 236, 894, -1,
          175, 236, 880, -1,
          879, 217, 817, -1,
          883, 217, 879, -1,
          894, 235, 892, -1,
          236, 235, 894, -1,
          883, 215, 217, -1,
          235, 234, 892, -1,
          885, 218, 883, -1,
          883, 218, 215, -1,
          892, 233, 895, -1,
          234, 233, 892, -1,
          233, 232, 895, -1,
          885, 219, 218, -1,
          888, 219, 885, -1,
          888, 220, 219, -1,
          232, 231, 895, -1,
          895, 231, 896, -1,
          888, 221, 220, -1,
          891, 221, 888, -1,
          231, 230, 896, -1,
          896, 230, 893, -1,
          891, 222, 221, -1,
          899, 222, 891, -1,
          230, 229, 893, -1,
          229, 228, 893, -1,
          893, 228, 897, -1,
          899, 223, 222, -1,
          228, 227, 897, -1,
          899, 224, 223, -1,
          898, 224, 899, -1,
          227, 226, 897, -1,
          897, 226, 898, -1,
          226, 225, 898, -1,
          898, 225, 224, -1,
          133, 216, 808, -1,
          334, 333, 808, -1,
          808, 335, 334, -1,
          808, 328, 809, -1,
          333, 328, 808, -1,
          808, 242, 335, -1,
          809, 327, 810, -1,
          328, 327, 809, -1,
          216, 240, 808, -1,
          808, 240, 242, -1,
          216, 243, 240, -1,
          810, 324, 811, -1,
          811, 324, 812, -1,
          327, 324, 810, -1,
          216, 241, 243, -1,
          812, 318, 205, -1,
          324, 318, 812, -1,
          216, 247, 241, -1,
          318, 317, 205, -1,
          205, 300, 206, -1,
          317, 300, 205, -1,
          206, 286, 208, -1,
          208, 286, 209, -1,
          209, 286, 211, -1,
          300, 286, 206, -1,
          808, 164, 133, -1,
          177, 261, 179, -1,
          179, 261, 182, -1,
          177, 262, 261, -1,
          178, 262, 176, -1,
          176, 262, 177, -1,
          182, 258, 184, -1,
          261, 258, 182, -1,
          184, 260, 186, -1,
          258, 260, 184, -1,
          178, 263, 262, -1,
          181, 263, 180, -1,
          180, 263, 178, -1,
          186, 264, 189, -1,
          189, 264, 190, -1,
          260, 264, 186, -1,
          181, 256, 263, -1,
          187, 256, 185, -1,
          185, 256, 183, -1,
          183, 256, 181, -1,
          190, 266, 193, -1,
          264, 266, 190, -1,
          187, 255, 256, -1,
          191, 255, 188, -1,
          188, 255, 187, -1,
          193, 267, 196, -1,
          266, 267, 193, -1,
          196, 269, 198, -1,
          267, 269, 196, -1,
          191, 257, 255, -1,
          197, 257, 195, -1,
          195, 257, 194, -1,
          194, 257, 192, -1,
          192, 257, 191, -1,
          198, 274, 199, -1,
          269, 274, 198, -1,
          197, 253, 257, -1,
          200, 253, 197, -1,
          199, 273, 201, -1,
          201, 273, 203, -1,
          274, 273, 199, -1,
          200, 246, 253, -1,
          213, 246, 202, -1,
          202, 246, 200, -1,
          203, 270, 204, -1,
          273, 270, 203, -1,
          213, 244, 246, -1,
          212, 244, 210, -1,
          210, 244, 213, -1,
          204, 272, 207, -1,
          270, 272, 204, -1,
          212, 245, 244, -1,
          238, 245, 237, -1,
          237, 245, 214, -1,
          214, 245, 212, -1,
          207, 279, 413, -1,
          272, 279, 207, -1,
          413, 278, 407, -1,
          279, 278, 413, -1,
          238, 250, 245, -1,
          248, 250, 239, -1,
          239, 250, 238, -1,
          248, 249, 250, -1,
          278, 277, 407, -1,
          249, 251, 250, -1,
          249, 285, 251, -1,
          407, 275, 401, -1,
          277, 275, 407, -1,
          401, 276, 394, -1,
          275, 276, 401, -1,
          251, 284, 252, -1,
          285, 284, 251, -1,
          394, 314, 387, -1,
          276, 314, 394, -1,
          252, 283, 254, -1,
          284, 283, 252, -1,
          387, 313, 385, -1,
          385, 313, 379, -1,
          314, 313, 387, -1,
          283, 280, 254, -1,
          313, 312, 379, -1,
          379, 312, 377, -1,
          254, 282, 259, -1,
          280, 282, 254, -1,
          312, 311, 377, -1,
          377, 311, 369, -1,
          369, 311, 365, -1,
          311, 310, 365, -1,
          365, 310, 359, -1,
          282, 293, 259, -1,
          310, 309, 359, -1,
          359, 309, 357, -1,
          357, 309, 351, -1,
          293, 298, 259, -1,
          259, 298, 265, -1,
          351, 308, 348, -1,
          309, 308, 351, -1,
          298, 297, 265, -1,
          265, 297, 268, -1,
          308, 346, 348, -1,
          308, 307, 346, -1,
          297, 296, 268, -1,
          268, 296, 271, -1,
          307, 344, 346, -1,
          296, 294, 271, -1,
          307, 306, 344, -1,
          306, 352, 344, -1,
          305, 356, 306, -1,
          306, 356, 352, -1,
          294, 295, 271, -1,
          305, 360, 356, -1,
          287, 292, 281, -1,
          305, 366, 360, -1,
          289, 320, 288, -1,
          288, 320, 287, -1,
          287, 320, 292, -1,
          304, 371, 305, -1,
          305, 371, 366, -1,
          290, 321, 289, -1,
          289, 321, 320, -1,
          304, 374, 371, -1,
          271, 319, 301, -1,
          295, 319, 271, -1,
          302, 380, 304, -1,
          304, 380, 374, -1,
          299, 325, 291, -1,
          291, 325, 290, -1,
          290, 325, 321, -1,
          323, 330, 316, -1,
          316, 330, 299, -1,
          299, 330, 325, -1,
          303, 383, 302, -1,
          302, 383, 380, -1,
          332, 336, 326, -1,
          326, 336, 323, -1,
          323, 336, 330, -1,
          315, 389, 303, -1,
          303, 389, 383, -1,
          332, 337, 336, -1,
          319, 416, 301, -1,
          301, 416, 331, -1,
          322, 396, 315, -1,
          315, 396, 389, -1,
          337, 338, 336, -1,
          337, 340, 338, -1,
          416, 435, 331, -1,
          340, 341, 338, -1,
          322, 398, 396, -1,
          340, 343, 341, -1,
          343, 362, 341, -1,
          331, 447, 339, -1,
          435, 447, 331, -1,
          329, 408, 322, -1,
          322, 408, 398, -1,
          329, 418, 408, -1,
          343, 370, 362, -1,
          447, 452, 339, -1,
          329, 403, 418, -1,
          339, 459, 342, -1,
          452, 459, 339, -1,
          342, 459, 354, -1,
          362, 388, 363, -1,
          370, 388, 362, -1,
          354, 444, 373, -1,
          459, 444, 354, -1,
          363, 399, 382, -1,
          388, 399, 363, -1,
          373, 423, 391, -1,
          391, 423, 402, -1,
          444, 423, 373, -1,
          399, 405, 382, -1,
          382, 414, 395, -1,
          405, 414, 382, -1,
          402, 425, 411, -1,
          423, 425, 402, -1,
          425, 420, 411, -1,
          395, 422, 404, -1,
          414, 422, 395, -1,
          425, 424, 420, -1,
          424, 427, 420, -1,
          424, 430, 427, -1,
          404, 431, 410, -1,
          422, 431, 404, -1,
          432, 437, 424, -1,
          424, 437, 430, -1,
          431, 440, 410, -1,
          410, 440, 415, -1,
          432, 462, 437, -1,
          440, 448, 415, -1,
          415, 448, 421, -1,
          432, 472, 462, -1,
          448, 453, 421, -1,
          421, 453, 428, -1,
          432, 506, 472, -1,
          439, 506, 432, -1,
          439, 507, 506, -1,
          453, 790, 428, -1,
          428, 790, 434, -1,
          434, 790, 441, -1,
          445, 508, 439, -1,
          439, 508, 507, -1,
          790, 693, 441, -1,
          441, 687, 446, -1,
          693, 687, 441, -1,
          445, 509, 508, -1,
          446, 680, 451, -1,
          687, 680, 446, -1,
          449, 512, 445, -1,
          445, 512, 509, -1,
          451, 673, 454, -1,
          680, 673, 451, -1,
          449, 516, 512, -1,
          454, 662, 456, -1,
          673, 662, 454, -1,
          455, 518, 449, -1,
          449, 518, 516, -1,
          456, 653, 458, -1,
          662, 653, 456, -1,
          455, 520, 518, -1,
          455, 522, 520, -1,
          458, 645, 460, -1,
          653, 645, 458, -1,
          455, 523, 522, -1,
          465, 523, 455, -1,
          645, 638, 460, -1,
          638, 627, 460, -1,
          460, 627, 461, -1,
          465, 525, 523, -1,
          465, 534, 525, -1,
          461, 613, 467, -1,
          627, 613, 461, -1,
          465, 536, 534, -1,
          466, 536, 465, -1,
          613, 590, 467, -1,
          466, 552, 536, -1,
          466, 558, 552, -1,
          590, 573, 467, -1,
          467, 573, 468, -1,
          466, 561, 558, -1,
          464, 561, 466, -1,
          573, 569, 468, -1,
          464, 566, 561, -1,
          569, 566, 468, -1,
          468, 566, 464, -1,
          900, 901, 902, -1,
          900, 903, 901, -1,
          904, 905, 900, -1,
          906, 905, 904, -1,
          900, 905, 903, -1,
          907, 908, 906, -1,
          906, 908, 905, -1,
          907, 909, 908, -1,
          910, 911, 912, -1,
          908, 911, 910, -1,
          909, 911, 908, -1,
          911, 913, 912, -1,
          914, 915, 916, -1,
          917, 915, 914, -1,
          916, 918, 919, -1,
          915, 918, 916, -1,
          919, 920, 921, -1,
          918, 920, 919, -1,
          922, 923, 924, -1,
          921, 923, 922, -1,
          920, 923, 921, -1,
          924, 925, 913, -1,
          912, 925, 926, -1,
          913, 925, 912, -1,
          923, 925, 924, -1,
          926, 927, 928, -1,
          925, 927, 926, -1,
          927, 929, 928, -1,
          928, 930, 931, -1,
          929, 930, 928, -1,
          930, 932, 931, -1,
          932, 933, 931, -1,
          931, 933, 934, -1,
          933, 935, 934, -1,
          936, 937, 938, -1,
          938, 939, 940, -1,
          937, 939, 938, -1,
          939, 941, 940, -1,
          939, 942, 941, -1,
          941, 943, 944, -1,
          944, 943, 945, -1,
          942, 943, 941, -1,
          943, 946, 945, -1,
          943, 947, 946, -1,
          948, 949, 950, -1,
          951, 949, 948, -1,
          950, 952, 953, -1,
          949, 952, 950, -1,
          954, 955, 956, -1,
          953, 955, 954, -1,
          952, 955, 953, -1,
          957, 958, 947, -1,
          956, 958, 957, -1,
          947, 958, 946, -1,
          955, 958, 956, -1,
          946, 959, 960, -1,
          958, 959, 946, -1,
          960, 961, 962, -1,
          959, 961, 960, -1,
          962, 963, 964, -1,
          961, 963, 962, -1,
          964, 965, 966, -1,
          963, 965, 964, -1,
          965, 967, 966, -1,
          347, 488, 350, -1,
          350, 488, 358, -1,
          347, 485, 488, -1,
          349, 485, 345, -1,
          345, 485, 347, -1,
          358, 486, 364, -1,
          488, 486, 358, -1,
          364, 487, 368, -1,
          486, 487, 364, -1,
          349, 483, 485, -1,
          355, 483, 353, -1,
          353, 483, 349, -1,
          368, 490, 376, -1,
          376, 490, 378, -1,
          487, 490, 368, -1,
          355, 481, 483, -1,
          372, 481, 367, -1,
          367, 481, 361, -1,
          361, 481, 355, -1,
          378, 491, 386, -1,
          490, 491, 378, -1,
          372, 479, 481, -1,
          381, 479, 375, -1,
          375, 479, 372, -1,
          386, 493, 393, -1,
          491, 493, 386, -1,
          393, 494, 400, -1,
          493, 494, 393, -1,
          381, 482, 479, -1,
          397, 482, 392, -1,
          392, 482, 390, -1,
          390, 482, 384, -1,
          384, 482, 381, -1,
          400, 504, 406, -1,
          494, 504, 400, -1,
          397, 478, 482, -1,
          409, 478, 397, -1,
          406, 503, 412, -1,
          412, 503, 419, -1,
          504, 503, 406, -1,
          409, 471, 478, -1,
          426, 471, 417, -1,
          417, 471, 409, -1,
          419, 502, 429, -1,
          503, 502, 419, -1,
          426, 469, 471, -1,
          438, 469, 433, -1,
          433, 469, 426, -1,
          429, 501, 436, -1,
          502, 501, 429, -1,
          438, 470, 469, -1,
          457, 470, 450, -1,
          450, 470, 443, -1,
          443, 470, 438, -1,
          436, 500, 442, -1,
          501, 500, 436, -1,
          442, 499, 649, -1,
          500, 499, 442, -1,
          457, 475, 470, -1,
          473, 475, 463, -1,
          463, 475, 457, -1,
          473, 474, 475, -1,
          499, 498, 649, -1,
          474, 476, 475, -1,
          474, 515, 476, -1,
          649, 495, 637, -1,
          498, 495, 649, -1,
          637, 497, 631, -1,
          495, 497, 637, -1,
          476, 514, 477, -1,
          515, 514, 476, -1,
          631, 550, 622, -1,
          497, 550, 631, -1,
          477, 513, 480, -1,
          514, 513, 477, -1,
          622, 549, 618, -1,
          618, 549, 611, -1,
          550, 549, 622, -1,
          513, 510, 480, -1,
          549, 548, 611, -1,
          611, 548, 605, -1,
          480, 511, 484, -1,
          510, 511, 480, -1,
          548, 547, 605, -1,
          605, 547, 598, -1,
          598, 547, 594, -1,
          547, 546, 594, -1,
          594, 546, 593, -1,
          511, 528, 484, -1,
          546, 545, 593, -1,
          593, 545, 584, -1,
          584, 545, 583, -1,
          528, 533, 484, -1,
          484, 533, 489, -1,
          583, 544, 578, -1,
          545, 544, 583, -1,
          533, 532, 489, -1,
          489, 532, 492, -1,
          544, 576, 578, -1,
          544, 543, 576, -1,
          532, 531, 492, -1,
          492, 531, 496, -1,
          543, 580, 576, -1,
          531, 529, 496, -1,
          543, 542, 580, -1,
          542, 586, 580, -1,
          541, 588, 542, -1,
          542, 588, 586, -1,
          529, 530, 496, -1,
          541, 596, 588, -1,
          517, 527, 505, -1,
          541, 600, 596, -1,
          521, 555, 519, -1,
          519, 555, 517, -1,
          517, 555, 527, -1,
          540, 602, 541, -1,
          541, 602, 600, -1,
          524, 556, 521, -1,
          521, 556, 555, -1,
          540, 609, 602, -1,
          496, 554, 538, -1,
          530, 554, 496, -1,
          537, 616, 540, -1,
          540, 616, 609, -1,
          535, 560, 526, -1,
          526, 560, 524, -1,
          524, 560, 556, -1,
          559, 564, 553, -1,
          553, 564, 535, -1,
          535, 564, 560, -1,
          539, 620, 537, -1,
          537, 620, 616, -1,
          567, 568, 562, -1,
          562, 568, 559, -1,
          559, 568, 564, -1,
          551, 624, 539, -1,
          539, 624, 620, -1,
          567, 570, 568, -1,
          554, 657, 538, -1,
          538, 657, 565, -1,
          557, 629, 551, -1,
          551, 629, 624, -1,
          570, 571, 568, -1,
          570, 574, 571, -1,
          657, 676, 565, -1,
          574, 575, 571, -1,
          557, 634, 629, -1,
          574, 591, 575, -1,
          591, 607, 575, -1,
          565, 686, 572, -1,
          676, 686, 565, -1,
          563, 644, 557, -1,
          557, 644, 634, -1,
          563, 651, 644, -1,
          591, 612, 607, -1,
          686, 692, 572, -1,
          563, 641, 651, -1,
          572, 701, 587, -1,
          692, 701, 572, -1,
          587, 701, 601, -1,
          607, 626, 606, -1,
          612, 626, 607, -1,
          601, 684, 614, -1,
          701, 684, 601, -1,
          606, 639, 623, -1,
          626, 639, 606, -1,
          614, 664, 632, -1,
          632, 664, 640, -1,
          684, 664, 614, -1,
          639, 646, 623, -1,
          623, 654, 633, -1,
          646, 654, 623, -1,
          640, 666, 650, -1,
          664, 666, 640, -1,
          666, 658, 650, -1,
          633, 663, 642, -1,
          654, 663, 633, -1,
          666, 665, 658, -1,
          665, 667, 658, -1,
          665, 671, 667, -1,
          642, 672, 647, -1,
          663, 672, 642, -1,
          674, 697, 665, -1,
          665, 697, 671, -1,
          672, 679, 647, -1,
          647, 679, 656, -1,
          674, 703, 697, -1,
          679, 688, 656, -1,
          656, 688, 661, -1,
          674, 727, 703, -1,
          688, 694, 661, -1,
          661, 694, 668, -1,
          674, 730, 727, -1,
          678, 730, 674, -1,
          678, 733, 730, -1,
          694, 787, 668, -1,
          668, 787, 675, -1,
          675, 787, 682, -1,
          683, 736, 678, -1,
          678, 736, 733, -1,
          787, 793, 682, -1,
          682, 792, 685, -1,
          793, 792, 682, -1,
          683, 738, 736, -1,
          685, 791, 691, -1,
          792, 791, 685, -1,
          690, 740, 683, -1,
          683, 740, 738, -1,
          691, 784, 695, -1,
          791, 784, 691, -1,
          690, 743, 740, -1,
          695, 781, 699, -1,
          784, 781, 695, -1,
          698, 744, 690, -1,
          690, 744, 743, -1,
          699, 779, 700, -1,
          781, 779, 699, -1,
          698, 747, 744, -1,
          698, 748, 747, -1,
          700, 777, 704, -1,
          779, 777, 700, -1,
          698, 750, 748, -1,
          707, 750, 698, -1,
          777, 775, 704, -1,
          775, 772, 704, -1,
          704, 772, 705, -1,
          707, 752, 750, -1,
          707, 753, 752, -1,
          705, 771, 709, -1,
          772, 771, 705, -1,
          707, 756, 753, -1,
          708, 756, 707, -1,
          771, 770, 709, -1,
          708, 757, 756, -1,
          708, 759, 757, -1,
          770, 768, 709, -1,
          709, 768, 710, -1,
          708, 761, 759, -1,
          706, 761, 708, -1,
          768, 765, 710, -1,
          706, 763, 761, -1,
          765, 763, 710, -1,
          710, 763, 706, -1,
          968, 969, 970, -1,
          970, 969, 971, -1,
          972, 973, 974, -1,
          974, 973, 975, -1,
          976, 977, 978, -1,
          978, 977, 979, -1,
          980, 981, 982, -1,
          982, 981, 983, -1,
          582, 902, 592, -1,
          592, 902, 597, -1,
          581, 900, 579, -1,
          579, 900, 577, -1,
          577, 900, 582, -1,
          582, 900, 902, -1,
          902, 901, 597, -1,
          597, 901, 604, -1,
          589, 904, 585, -1,
          585, 904, 581, -1,
          581, 904, 900, -1,
          901, 903, 604, -1,
          604, 903, 610, -1,
          599, 906, 595, -1,
          595, 906, 589, -1,
          589, 906, 904, -1,
          903, 905, 610, -1,
          610, 905, 617, -1,
          617, 905, 621, -1,
          608, 907, 603, -1,
          603, 907, 599, -1,
          599, 907, 906, -1,
          905, 908, 621, -1,
          621, 908, 630, -1,
          908, 910, 630, -1,
          625, 909, 619, -1,
          619, 909, 615, -1,
          615, 909, 608, -1,
          608, 909, 907, -1,
          910, 912, 630, -1,
          630, 912, 636, -1,
          635, 911, 628, -1,
          628, 911, 625, -1,
          625, 911, 909, -1,
          912, 926, 636, -1,
          636, 926, 648, -1,
          652, 913, 643, -1,
          643, 913, 635, -1,
          635, 913, 911, -1,
          926, 928, 648, -1,
          648, 928, 655, -1,
          655, 928, 659, -1,
          669, 924, 660, -1,
          660, 924, 652, -1,
          652, 924, 913, -1,
          669, 922, 924, -1,
          681, 922, 677, -1,
          677, 922, 669, -1,
          928, 931, 659, -1,
          659, 931, 670, -1,
          702, 921, 696, -1,
          696, 921, 689, -1,
          689, 921, 681, -1,
          681, 921, 922, -1,
          720, 919, 711, -1,
          711, 919, 702, -1,
          702, 919, 921, -1,
          720, 717, 919, -1,
          717, 916, 919, -1,
          717, 712, 916, -1,
          916, 714, 914, -1,
          712, 714, 916, -1,
          914, 719, 917, -1,
          714, 719, 914, -1,
          917, 723, 915, -1,
          719, 723, 917, -1,
          723, 726, 915, -1,
          915, 732, 918, -1,
          918, 732, 920, -1,
          920, 732, 923, -1,
          726, 732, 915, -1,
          931, 934, 670, -1,
          732, 925, 923, -1,
          934, 737, 670, -1,
          725, 938, 729, -1,
          729, 938, 732, -1,
          725, 936, 938, -1,
          718, 936, 722, -1,
          722, 936, 725, -1,
          718, 937, 936, -1,
          713, 937, 715, -1,
          715, 937, 718, -1,
          938, 940, 732, -1,
          713, 939, 937, -1,
          721, 939, 716, -1,
          716, 939, 713, -1,
          940, 941, 732, -1,
          732, 944, 925, -1,
          941, 944, 732, -1,
          721, 942, 939, -1,
          731, 942, 728, -1,
          728, 942, 724, -1,
          724, 942, 721, -1,
          925, 945, 927, -1,
          944, 945, 925, -1,
          731, 943, 942, -1,
          739, 943, 735, -1,
          735, 943, 734, -1,
          734, 943, 731, -1,
          927, 946, 929, -1,
          945, 946, 927, -1,
          742, 947, 741, -1,
          741, 947, 739, -1,
          739, 947, 943, -1,
          929, 960, 930, -1,
          946, 960, 929, -1,
          746, 957, 745, -1,
          745, 957, 742, -1,
          742, 957, 947, -1,
          930, 962, 932, -1,
          932, 962, 933, -1,
          960, 962, 930, -1,
          751, 956, 749, -1,
          749, 956, 746, -1,
          746, 956, 957, -1,
          962, 964, 933, -1,
          755, 954, 754, -1,
          754, 954, 751, -1,
          751, 954, 956, -1,
          760, 953, 758, -1,
          758, 953, 755, -1,
          755, 953, 954, -1,
          764, 950, 762, -1,
          762, 950, 760, -1,
          760, 950, 953, -1,
          764, 766, 950, -1,
          934, 935, 737, -1,
          964, 935, 933, -1,
          766, 948, 950, -1,
          766, 767, 948, -1,
          767, 769, 948, -1,
          948, 769, 951, -1,
          769, 773, 951, -1,
          951, 773, 949, -1,
          773, 774, 949, -1,
          964, 966, 935, -1,
          774, 776, 949, -1,
          949, 776, 952, -1,
          776, 778, 952, -1,
          778, 780, 952, -1,
          952, 780, 955, -1,
          780, 782, 955, -1,
          782, 783, 955, -1,
          955, 783, 958, -1,
          783, 785, 958, -1,
          958, 795, 959, -1,
          785, 795, 958, -1,
          959, 794, 961, -1,
          795, 794, 959, -1,
          794, 788, 961, -1,
          961, 788, 963, -1,
          963, 788, 965, -1,
          788, 967, 965, -1,
          966, 789, 935, -1,
          935, 789, 737, -1,
          967, 789, 966, -1,
          788, 789, 967, -1,
          984, 985, 986, -1,
          984, 986, 987, -1,
          972, 969, 973, -1,
          973, 969, 968, -1,
          972, 33, 969, -1,
          968, 985, 973, -1,
          786, 33, 974, -1,
          33, 972, 974, -1,
          971, 969, 35, -1,
          969, 33, 35, -1,
          970, 971, 980, -1,
          971, 981, 980, -1,
          985, 968, 970, -1,
          985, 970, 986, -1,
          973, 985, 984, -1,
          973, 984, 975, -1,
          976, 974, 977, -1,
          977, 974, 975, -1,
          974, 976, 786, -1,
          971, 35, 981, -1,
          970, 980, 986, -1,
          977, 975, 984, -1,
          786, 976, 36, -1,
          36, 976, 978, -1,
          981, 35, 983, -1,
          983, 35, 36, -1,
          986, 980, 982, -1,
          986, 982, 987, -1,
          977, 984, 987, -1,
          977, 987, 979, -1,
          983, 36, 978, -1,
          982, 979, 987, -1,
          982, 983, 979, -1,
          983, 978, 979, -1
        ]
      }
    }
}
