#VRML V2.0 utf8
WorldInfo {
  title "Exported triangle mesh to VRML97"
  info ["Created by FreeCAD"
        "<https://www.freecad.org>"]
}

Transform {
  scale 1 1 1
  rotation 0 0 1 0
  scaleOrientation 0 0 1 0
  center 0.000 0.000 0.000
  translation 0.000 0.000 0.000
  children
    Shape { 
      appearance
      Appearance {
        material
        Material {
          diffuseColor 0.8 0.8 0.8
        }
      }
      geometry
      IndexedFaceSet {
        coord
        Coordinate {
          point [
            35.700 0.300 1.000,
            8.503 23.496 1.000,
            0.300 0.300 1.000,
            35.700 24.700 1.000,
            8.503 23.610 1.000,
            8.307 23.920 1.000,
            8.282 23.895 1.000,
            8.257 23.871 1.000,
            8.333 23.948 1.000,
            8.352 23.970 1.000,
            8.181 23.800 1.000,
            8.370 23.992 1.000,
            8.111 23.738 1.000,
            8.385 24.012 1.000,
            8.406 24.043 1.000,
            8.415 24.058 1.000,
            8.423 24.072 1.000,
            8.432 24.090 1.000,
            8.440 24.108 1.000,
            8.445 24.122 1.000,
            7.819 23.496 1.000,
            8.451 24.140 1.000,
            8.455 24.158 1.000,
            8.459 24.177 1.000,
            8.462 24.197 1.000,
            8.464 24.216 1.000,
            8.465 24.244 1.000,
            8.464 24.267 1.000,
            8.463 24.278 1.000,
            8.462 24.289 1.000,
            8.458 24.308 1.000,
            8.456 24.320 1.000,
            8.451 24.335 1.000,
            8.445 24.353 1.000,
            8.441 24.362 1.000,
            8.436 24.372 1.000,
            8.431 24.382 1.000,
            8.424 24.393 1.000,
            8.415 24.405 1.000,
            8.317 24.298 1.000,
            8.309 24.316 1.000,
            8.320 24.289 1.000,
            8.406 24.417 1.000,
            8.301 24.332 1.000,
            8.394 24.430 1.000,
            7.534 23.575 1.000,
            7.522 23.563 1.000,
            7.543 23.585 1.000,
            7.504 23.547 1.000,
            7.552 23.596 1.000,
            7.491 23.537 1.000,
            7.561 23.608 1.000,
            7.482 23.531 1.000,
            7.568 23.618 1.000,
            7.465 23.521 1.000,
            7.819 23.635 1.000,
            7.578 23.634 1.000,
            8.381 24.442 1.000,
            7.449 23.512 1.000,
            7.586 23.650 1.000,
            7.433 23.504 1.000,
            7.594 23.668 1.000,
            8.291 24.345 1.000,
            8.280 24.356 1.000,
            8.322 24.278 1.000,
            7.598 23.679 1.000,
            7.415 23.497 1.000,
            7.602 23.691 1.000,
            7.398 23.491 1.000,
            8.270 24.365 1.000,
            7.607 23.709 1.000,
            7.379 23.486 1.000,
            7.611 23.725 1.000,
            7.357 23.481 1.000,
            7.613 23.741 1.000,
            8.260 24.373 1.000,
            8.250 24.379 1.000,
            7.336 23.477 1.000,
            8.241 24.384 1.000,
            8.324 24.267 1.000,
            8.325 24.256 1.000,
            7.615 23.760 1.000,
            7.315 23.474 1.000,
            8.223 24.392 1.000,
            8.325 24.240 1.000,
            7.616 23.788 1.000,
            7.300 23.473 1.000,
            7.284 23.472 1.000,
            8.208 24.397 1.000,
            7.960 23.755 1.000,
            7.615 23.815 1.000,
            8.194 24.401 1.000,
            8.325 24.224 1.000,
            7.614 23.829 1.000,
            7.254 23.471 1.000,
            8.183 24.403 1.000,
            8.324 24.213 1.000,
            7.430 23.654 1.000,
            7.403 23.630 1.000,
            7.416 23.641 1.000,
            7.613 23.842 1.000,
            7.389 23.620 1.000,
            7.438 23.664 1.000,
            7.374 23.612 1.000,
            7.445 23.674 1.000,
            8.165 24.406 1.000,
            8.323 24.200 1.000,
            7.611 23.853 1.000,
            7.364 23.608 1.000,
            7.228 23.471 1.000,
            7.460 23.700 1.000,
            7.466 23.715 1.000,
            7.450 23.683 1.000,
            7.608 23.866 1.000,
            7.470 23.728 1.000,
            8.320 24.186 1.000,
            8.146 24.407 1.000,
            8.316 24.167 1.000,
            7.472 23.740 1.000,
            7.604 23.881 1.000,
            8.029 23.815 1.000,
            7.475 23.753 1.000,
            7.353 23.603 1.000,
            8.312 24.153 1.000,
            8.127 24.408 1.000,
            8.306 24.136 1.000,
            7.476 23.768 1.000,
            7.338 23.598 1.000,
            7.597 23.899 1.000,
            8.299 24.119 1.000,
            8.103 24.407 1.000,
            8.294 24.108 1.000,
            7.592 23.908 1.000,
            8.083 24.405 1.000,
            8.288 24.098 1.000,
            8.278 24.082 1.000,
            8.060 24.402 1.000,
            8.267 24.065 1.000,
            8.037 24.397 1.000,
            8.251 24.044 1.000,
            8.017 24.393 1.000,
            7.992 24.385 1.000,
            8.209 23.994 1.000,
            7.965 24.376 1.000,
            7.945 24.369 1.000,
            7.924 24.360 1.000,
            7.900 24.348 1.000,
            8.173 23.955 1.000,
            7.880 24.337 1.000,
            7.866 24.328 1.000,
            7.851 24.319 1.000,
            8.097 23.879 1.000,
            7.844 24.319 1.000,
            7.587 23.918 1.000,
            7.580 23.928 1.000,
            7.451 23.902 1.000,
            7.427 23.930 1.000,
            7.456 23.893 1.000,
            7.440 23.917 1.000,
            7.413 23.941 1.000,
            7.462 23.881 1.000,
            7.396 23.951 1.000,
            7.468 23.866 1.000,
            7.385 23.956 1.000,
            7.472 23.848 1.000,
            7.374 23.960 1.000,
            7.543 23.973 1.000,
            7.530 24.123 1.000,
            7.526 23.986 1.000,
            7.521 24.114 1.000,
            7.518 23.992 1.000,
            7.512 24.106 1.000,
            7.508 23.998 1.000,
            7.539 24.133 1.000,
            7.556 23.960 1.000,
            7.497 24.093 1.000,
            7.493 24.006 1.000,
            7.548 24.145 1.000,
            7.564 23.951 1.000,
            7.474 23.838 1.000,
            7.364 23.964 1.000,
            7.476 23.827 1.000,
            7.482 24.083 1.000,
            7.482 24.011 1.000,
            7.558 24.159 1.000,
            7.573 23.939 1.000,
            7.469 24.075 1.000,
            7.463 24.019 1.000,
            7.567 24.174 1.000,
            7.458 24.069 1.000,
            7.446 24.026 1.000,
            7.575 24.192 1.000,
            7.441 24.061 1.000,
            7.579 24.202 1.000,
            7.345 23.968 1.000,
            7.477 23.815 1.000,
            7.430 24.057 1.000,
            7.427 24.032 1.000,
            7.582 24.212 1.000,
            7.420 24.053 1.000,
            7.416 24.035 1.000,
            7.585 24.223 1.000,
            7.587 24.234 1.000,
            7.325 23.972 1.000,
            7.477 23.796 1.000,
            7.477 23.780 1.000,
            7.398 24.048 1.000,
            7.398 24.038 1.000,
            7.589 24.246 1.000,
            7.590 24.258 1.000,
            7.306 23.974 1.000,
            7.292 23.975 1.000,
            7.321 23.594 1.000,
            7.591 24.276 1.000,
            7.283 23.587 1.000,
            7.276 23.976 1.000,
            7.270 23.585 1.000,
            7.303 23.590 1.000,
            7.591 24.292 1.000,
            7.590 24.305 1.000,
            7.247 23.977 1.000,
            7.250 23.585 1.000,
            7.208 23.587 1.000,
            7.190 23.589 1.000,
            7.218 23.586 1.000,
            7.229 23.585 1.000,
            7.588 24.319 1.000,
            7.411 24.151 1.000,
            7.429 24.174 1.000,
            7.403 24.144 1.000,
            7.418 24.159 1.000,
            7.585 24.333 1.000,
            7.436 24.188 1.000,
            7.441 24.200 1.000,
            7.582 24.344 1.000,
            7.844 24.459 1.000,
            7.445 24.210 1.000,
            7.393 24.136 1.000,
            7.449 24.228 1.000,
            7.382 24.128 1.000,
            7.578 24.357 1.000,
            6.997 23.656 1.000,
            7.186 23.977 1.000,
            6.968 23.673 1.000,
            7.016 23.645 1.000,
            7.036 23.636 1.000,
            7.054 23.627 1.000,
            7.073 23.620 1.000,
            7.092 23.613 1.000,
            7.111 23.607 1.000,
            7.131 23.601 1.000,
            7.150 23.596 1.000,
            7.170 23.592 1.000,
            7.572 24.373 1.000,
            7.563 24.390 1.000,
            7.557 24.400 1.000,
            7.550 24.410 1.000,
            7.448 24.298 1.000,
            7.444 24.313 1.000,
            7.451 24.283 1.000,
            7.543 24.420 1.000,
            7.438 24.326 1.000,
            7.533 24.430 1.000,
            7.522 24.441 1.000,
            6.958 23.534 1.000,
            6.660 23.582 1.000,
            6.648 23.569 1.000,
            6.630 23.552 1.000,
            6.672 23.595 1.000,
            6.618 23.542 1.000,
            6.682 23.609 1.000,
            6.602 23.531 1.000,
            6.688 23.618 1.000,
            6.586 23.521 1.000,
            6.697 23.634 1.000,
            7.511 24.451 1.000,
            6.570 23.512 1.000,
            6.983 23.524 1.000,
            6.706 23.650 1.000,
            6.553 23.504 1.000,
            7.007 23.514 1.000,
            6.958 23.673 1.000,
            6.714 23.668 1.000,
            7.433 24.336 1.000,
            7.409 24.364 1.000,
            7.422 24.351 1.000,
            6.534 23.496 1.000,
            7.034 23.506 1.000,
            6.721 23.685 1.000,
            7.493 24.464 1.000,
            6.516 23.490 1.000,
            7.060 23.498 1.000,
            6.727 23.703 1.000,
            7.394 24.376 1.000,
            6.498 23.485 1.000,
            7.087 23.491 1.000,
            7.114 23.485 1.000,
            6.732 23.723 1.000,
            7.475 24.475 1.000,
            6.479 23.480 1.000,
            7.145 23.480 1.000,
            7.380 24.384 1.000,
            7.452 24.264 1.000,
            6.737 23.742 1.000,
            7.466 24.480 1.000,
            7.867 24.469 1.000,
            7.371 24.388 1.000,
            7.451 24.246 1.000,
            6.460 23.477 1.000,
            7.179 23.475 1.000,
            6.740 23.762 1.000,
            7.456 24.485 1.000,
            7.885 24.476 1.000,
            6.440 23.474 1.000,
            6.742 23.781 1.000,
            7.353 24.395 1.000,
            6.425 23.473 1.000,
            7.208 23.472 1.000,
            7.439 24.493 1.000,
            7.915 24.486 1.000,
            6.410 23.472 1.000,
            7.338 24.399 1.000,
            6.743 23.811 1.000,
            7.428 24.497 1.000,
            7.325 24.402 1.000,
            7.370 24.121 1.000,
            7.314 24.404 1.000,
            7.356 24.114 1.000,
            7.340 24.108 1.000,
            6.381 23.471 1.000,
            7.410 24.503 1.000,
            7.956 24.498 1.000,
            6.742 23.840 1.000,
            7.301 24.405 1.000,
            7.322 24.102 1.000,
            6.558 23.661 1.000,
            6.566 23.671 1.000,
            6.545 23.646 1.000,
            6.573 23.682 1.000,
            6.532 23.634 1.000,
            6.502 23.613 1.000,
            6.517 23.623 1.000,
            6.741 23.854 1.000,
            7.392 24.508 1.000,
            7.990 24.506 1.000,
            6.583 23.700 1.000,
            6.578 23.691 1.000,
            7.287 24.407 1.000,
            7.304 24.098 1.000,
            7.293 24.096 1.000,
            6.481 23.603 1.000,
            6.492 23.608 1.000,
            6.590 23.718 1.000,
            6.740 23.869 1.000,
            6.466 23.598 1.000,
            6.337 23.472 1.000,
            7.374 24.512 1.000,
            8.024 24.512 1.000,
            6.594 23.733 1.000,
            6.448 23.593 1.000,
            6.597 23.745 1.000,
            7.259 24.408 1.000,
            7.275 24.093 1.000,
            6.737 23.887 1.000,
            6.599 23.756 1.000,
            6.428 23.589 1.000,
            7.352 24.516 1.000,
            8.056 24.517 1.000,
            6.601 23.769 1.000,
            7.235 24.407 1.000,
            7.256 24.092 1.000,
            7.232 24.091 1.000,
            6.733 23.906 1.000,
            7.219 24.405 1.000,
            8.082 24.520 1.000,
            7.328 24.519 1.000,
            6.727 23.924 1.000,
            7.201 24.403 1.000,
            6.724 23.934 1.000,
            7.304 24.520 1.000,
            8.106 24.521 1.000,
            7.180 24.399 1.000,
            7.186 24.091 1.000,
            6.719 23.945 1.000,
            7.160 24.394 1.000,
            6.714 23.956 1.000,
            7.134 24.388 1.000,
            7.264 24.521 1.000,
            8.130 24.521 1.000,
            7.114 24.381 1.000,
            7.086 24.370 1.000,
            7.062 24.359 1.000,
            7.043 24.351 1.000,
            7.024 24.340 1.000,
            7.007 24.330 1.000,
            6.587 23.895 1.000,
            6.581 23.907 1.000,
            6.593 23.880 1.000,
            6.990 24.319 1.000,
            6.984 24.319 1.000,
            6.691 23.994 1.000,
            6.680 24.008 1.000,
            6.700 23.981 1.000,
            6.708 23.968 1.000,
            6.667 24.022 1.000,
            6.660 24.029 1.000,
            6.565 23.931 1.000,
            6.552 23.944 1.000,
            6.576 23.916 1.000,
            6.537 23.956 1.000,
            6.601 23.851 1.000,
            6.603 23.835 1.000,
            6.599 23.862 1.000,
            6.525 23.964 1.000,
            6.502 23.977 1.000,
            6.515 23.970 1.000,
            6.603 23.824 1.000,
            6.489 23.982 1.000,
            6.477 23.986 1.000,
            6.466 23.989 1.000,
            6.604 23.810 1.000,
            6.448 23.993 1.000,
            6.603 23.794 1.000,
            6.603 23.783 1.000,
            6.427 23.997 1.000,
            6.410 23.587 1.000,
            6.400 24.000 1.000,
            6.397 23.585 1.000,
            6.376 23.585 1.000,
            6.386 24.001 1.000,
            6.351 23.586 1.000,
            6.371 24.002 1.000,
            6.339 23.587 1.000,
            6.326 23.588 1.000,
            6.730 24.382 1.000,
            6.984 24.459 1.000,
            6.648 24.040 1.000,
            6.630 24.054 1.000,
            6.502 24.106 1.000,
            6.481 24.109 1.000,
            6.522 24.101 1.000,
            6.540 24.096 1.000,
            6.557 24.091 1.000,
            6.574 24.084 1.000,
            6.592 24.076 1.000,
            6.601 24.071 1.000,
            6.611 24.066 1.000,
            6.308 23.591 1.000,
            6.342 24.002 1.000,
            6.287 23.595 1.000,
            6.267 23.600 1.000,
            6.309 24.002 1.000,
            6.246 23.607 1.000,
            6.286 24.000 1.000,
            6.222 23.615 1.000,
            6.197 23.625 1.000,
            6.258 23.998 1.000,
            6.177 23.634 1.000,
            7.006 24.468 1.000,
            6.730 24.496 1.000,
            7.024 24.476 1.000,
            7.050 24.485 1.000,
            7.094 24.498 1.000,
            7.128 24.506 1.000,
            7.153 24.511 1.000,
            7.184 24.516 1.000,
            7.213 24.519 1.000,
            7.226 24.520 1.000,
            6.216 23.992 1.000,
            6.150 23.647 1.000,
            6.134 23.656 1.000,
            6.176 23.985 1.000,
            6.122 23.663 1.000,
            6.107 23.673 1.000,
            6.135 23.977 1.000,
            6.097 23.673 1.000,
            5.870 23.876 1.000,
            6.097 23.530 1.000,
            6.262 24.382 1.000,
            6.299 24.114 1.000,
            6.262 24.111 1.000,
            6.337 24.116 1.000,
            6.374 24.116 1.000,
            6.419 24.115 1.000,
            6.451 24.113 1.000,
            5.870 23.990 1.000,
            6.305 23.475 1.000,
            5.363 23.496 1.000,
            6.273 23.479 1.000,
            6.244 23.484 1.000,
            6.218 23.490 1.000,
            6.192 23.496 1.000,
            6.166 23.504 1.000,
            6.141 23.512 1.000,
            6.130 23.516 1.000,
            6.119 23.520 1.000,
            5.211 23.496 1.000,
            6.135 24.496 1.000,
            5.452 23.876 1.000,
            5.452 23.990 1.000,
            4.667 23.496 1.000,
            5.100 24.001 1.000,
            5.092 23.994 1.000,
            5.113 24.015 1.000,
            5.084 23.987 1.000,
            5.123 24.026 1.000,
            5.069 23.975 1.000,
            5.132 24.038 1.000,
            5.141 24.052 1.000,
            5.151 24.068 1.000,
            5.160 24.085 1.000,
            5.164 24.095 1.000,
            5.170 24.112 1.000,
            5.173 24.123 1.000,
            4.541 23.496 1.000,
            5.176 24.135 1.000,
            5.179 24.147 1.000,
            5.181 24.160 1.000,
            5.184 24.179 1.000,
            5.185 24.196 1.000,
            4.876 23.889 1.000,
            5.186 24.222 1.000,
            5.185 24.249 1.000,
            5.184 24.262 1.000,
            5.182 24.275 1.000,
            5.181 24.286 1.000,
            5.178 24.299 1.000,
            5.174 24.314 1.000,
            5.168 24.331 1.000,
            5.164 24.340 1.000,
            5.159 24.350 1.000,
            5.153 24.361 1.000,
            4.667 23.889 1.000,
            5.145 24.372 1.000,
            5.137 24.384 1.000,
            5.127 24.396 1.000,
            5.115 24.408 1.000,
            4.186 23.496 1.000,
            5.101 24.421 1.000,
            5.090 24.429 1.000,
            5.072 24.442 1.000,
            5.059 24.450 1.000,
            5.049 24.455 1.000,
            5.037 24.461 1.000,
            4.059 23.496 1.000,
            4.338 23.775 1.000,
            5.024 24.467 1.000,
            5.014 24.471 1.000,
            4.996 24.477 1.000,
            4.978 24.481 1.000,
            4.961 24.485 1.000,
            4.949 24.487 1.000,
            4.937 24.489 1.000,
            4.905 24.493 1.000,
            4.186 23.775 1.000,
            4.875 24.495 1.000,
            4.059 23.775 1.000,
            3.578 23.775 1.000,
            3.206 23.496 1.000,
            4.338 23.889 1.000,
            4.186 24.496 1.000,
            4.186 23.889 1.000,
            4.541 24.496 1.000,
            3.058 23.496 1.000,
            2.645 23.496 1.000,
            2.500 23.496 1.000,
            4.065 24.496 1.000,
            3.465 24.496 1.000,
            3.578 23.930 1.000,
            2.021 23.589 1.000,
            2.008 23.576 1.000,
            2.033 23.603 1.000,
            1.994 23.563 1.000,
            2.044 23.617 1.000,
            1.973 23.548 1.000,
            2.053 23.630 1.000,
            1.958 23.538 1.000,
            2.062 23.645 1.000,
            1.942 23.528 1.000,
            2.070 23.662 1.000,
            1.925 23.519 1.000,
            2.078 23.680 1.000,
            1.906 23.510 1.000,
            2.084 23.697 1.000,
            1.885 23.501 1.000,
            2.089 23.711 1.000,
            1.866 23.495 1.000,
            2.092 23.727 1.000,
            1.848 23.489 1.000,
            1.828 23.484 1.000,
            1.807 23.480 1.000,
            1.786 23.476 1.000,
            1.760 23.474 1.000,
            1.744 23.472 1.000,
            1.728 23.472 1.000,
            1.931 23.672 1.000,
            1.949 23.707 1.000,
            1.919 23.658 1.000,
            1.939 23.685 1.000,
            1.945 23.697 1.000,
            1.954 23.724 1.000,
            1.696 23.471 1.000,
            1.957 23.742 1.000,
            1.958 23.760 1.000,
            1.659 23.471 1.000,
            1.632 23.473 1.000,
            1.944 23.834 1.000,
            1.938 23.844 1.000,
            1.949 23.822 1.000,
            1.931 23.853 1.000,
            1.924 23.860 1.000,
            1.910 23.872 1.000,
            1.953 23.808 1.000,
            1.956 23.793 1.000,
            1.897 23.880 1.000,
            1.957 23.779 1.000,
            1.886 23.887 1.000,
            1.876 23.891 1.000,
            1.859 23.898 1.000,
            1.894 23.636 1.000,
            1.883 23.628 1.000,
            1.903 23.643 1.000,
            1.912 23.650 1.000,
            1.842 23.904 1.000,
            1.871 23.621 1.000,
            1.856 23.614 1.000,
            1.825 23.909 1.000,
            1.805 23.596 1.000,
            1.788 23.593 1.000,
            1.823 23.601 1.000,
            1.841 23.607 1.000,
            1.773 23.921 1.000,
            1.726 23.586 1.000,
            1.697 23.585 1.000,
            1.748 23.587 1.000,
            1.767 23.589 1.000,
            1.986 23.992 1.000,
            2.059 24.294 1.000,
            1.970 24.001 1.000,
            2.002 23.981 1.000,
            2.017 23.970 1.000,
            2.031 23.958 1.000,
            2.042 23.946 1.000,
            2.052 23.935 1.000,
            2.060 23.924 1.000,
            2.067 23.913 1.000,
            1.923 24.022 1.000,
            2.050 24.294 1.000,
            1.901 24.030 1.000,
            1.942 24.014 1.000,
            1.959 24.006 1.000,
            1.681 23.937 1.000,
            1.596 23.595 1.000,
            1.565 23.602 1.000,
            1.628 23.590 1.000,
            1.648 23.587 1.000,
            1.660 23.586 1.000,
            1.672 23.585 1.000,
            2.025 24.312 1.000,
            1.871 24.039 1.000,
            2.010 24.323 1.000,
            1.995 24.332 1.000,
            1.589 23.954 1.000,
            1.503 23.620 1.000,
            1.475 23.630 1.000,
            1.537 23.609 1.000,
            1.973 24.344 1.000,
            2.237 24.496 1.000,
            2.059 24.451 1.000,
            1.950 24.355 1.000,
            1.829 24.049 1.000,
            1.452 23.640 1.000,
            1.555 23.962 1.000,
            1.431 23.650 1.000,
            2.040 24.459 1.000,
            1.533 23.968 1.000,
            1.404 23.665 1.000,
            1.386 23.675 1.000,
            1.924 24.365 1.000,
            2.021 24.467 1.000,
            1.370 23.686 1.000,
            1.510 23.976 1.000,
            1.355 23.696 1.000,
            1.894 24.376 1.000,
            1.785 24.058 1.000,
            1.989 24.478 1.000,
            1.111 23.603 1.000,
            1.102 23.594 1.000,
            1.325 23.549 1.000,
            1.120 23.612 1.000,
            1.094 23.587 1.000,
            1.491 23.984 1.000,
            1.335 23.711 1.000,
            1.126 23.620 1.000,
            1.083 23.578 1.000,
            1.134 23.630 1.000,
            1.062 23.562 1.000,
            1.142 23.642 1.000,
            1.048 23.553 1.000,
            1.151 23.657 1.000,
            1.032 23.544 1.000,
            1.871 24.384 1.000,
            1.159 23.674 1.000,
            1.325 23.711 1.000,
            1.473 23.992 1.000,
            1.164 23.684 1.000,
            1.015 23.535 1.000,
            1.359 23.535 1.000,
            1.169 23.695 1.000,
            0.998 23.528 1.000,
            1.394 23.522 1.000,
            1.954 24.488 1.000,
            1.173 23.708 1.000,
            0.980 23.521 1.000,
            1.423 23.512 1.000,
            1.457 24.000 1.000,
            1.846 24.390 1.000,
            1.177 23.722 1.000,
            0.961 23.515 1.000,
            1.453 23.503 1.000,
            1.180 23.738 1.000,
            1.447 24.006 1.000,
            0.943 23.510 1.000,
            1.483 23.495 1.000,
            1.183 23.755 1.000,
            1.437 24.012 1.000,
            1.819 24.396 1.000,
            1.918 24.497 1.000,
            0.922 23.506 1.000,
            1.514 23.488 1.000,
            1.185 23.774 1.000,
            0.897 23.502 1.000,
            1.548 23.482 1.000,
            1.790 24.401 1.000,
            1.698 24.073 1.000,
            1.186 23.802 1.000,
            1.883 24.505 1.000,
            1.186 23.818 1.000,
            0.862 23.499 1.000,
            1.591 23.476 1.000,
            1.766 24.404 1.000,
            1.185 23.830 1.000,
            1.183 23.844 1.000,
            1.743 24.406 1.000,
            1.846 24.512 1.000,
            1.502 24.140 1.000,
            1.487 24.157 1.000,
            1.494 24.148 1.000,
            0.826 23.497 1.000,
            1.422 24.023 1.000,
            1.181 23.857 1.000,
            1.724 24.407 1.000,
            1.510 24.133 1.000,
            1.480 24.169 1.000,
            1.179 23.868 1.000,
            1.704 24.408 1.000,
            1.406 24.035 1.000,
            1.176 23.881 1.000,
            0.790 23.496 1.000,
            1.525 24.122 1.000,
            1.475 24.182 1.000,
            2.367 24.496 1.000,
            1.806 24.517 1.000,
            1.393 24.048 1.000,
            1.171 23.897 1.000,
            1.470 24.197 1.000,
            1.538 24.115 1.000,
            1.678 24.407 1.000,
            1.612 24.090 1.000,
            1.467 24.214 1.000,
            1.658 24.405 1.000,
            1.382 24.060 1.000,
            1.164 23.915 1.000,
            1.766 24.520 1.000,
            1.550 24.109 1.000,
            1.465 24.227 1.000,
            1.639 24.403 1.000,
            1.372 24.072 1.000,
            1.160 23.924 1.000,
            1.629 24.401 1.000,
            1.154 23.934 1.000,
            1.611 24.397 1.000,
            1.364 24.084 1.000,
            1.148 23.945 1.000,
            1.592 24.392 1.000,
            1.590 24.095 1.000,
            1.576 24.386 1.000,
            1.358 24.095 1.000,
            1.140 23.956 1.000,
            1.352 24.106 1.000,
            1.561 24.380 1.000,
            1.579 24.099 1.000,
            1.548 24.373 1.000,
            1.568 24.102 1.000,
            1.537 24.366 1.000,
            1.475 24.298 1.000,
            1.487 24.319 1.000,
            1.480 24.308 1.000,
            1.469 24.281 1.000,
            1.526 24.359 1.000,
            1.517 24.352 1.000,
            1.465 24.244 1.000,
            1.496 24.332 1.000,
            1.466 24.263 1.000,
            1.510 24.345 1.000,
            1.348 24.115 1.000,
            1.131 23.968 1.000,
            1.340 24.134 1.000,
            1.121 23.980 1.000,
            1.336 24.150 1.000,
            1.108 23.993 1.000,
            0.439 23.496 1.000,
            1.047 24.035 1.000,
            1.033 24.115 1.000,
            1.036 24.040 1.000,
            1.058 24.029 1.000,
            1.045 24.127 1.000,
            1.067 24.023 1.000,
            1.023 24.106 1.000,
            1.024 24.045 1.000,
            1.014 24.098 1.000,
            1.058 24.143 1.000,
            1.077 24.017 1.000,
            1.085 24.011 1.000,
            1.003 24.090 1.000,
            1.006 24.051 1.000,
            1.064 24.152 1.000,
            1.093 24.005 1.000,
            0.991 24.082 1.000,
            0.990 24.056 1.000,
            1.070 24.162 1.000,
            0.980 24.075 1.000,
            0.966 24.062 1.000,
            1.332 24.163 1.000,
            1.077 24.173 1.000,
            0.966 24.067 1.000,
            1.330 24.174 1.000,
            1.082 24.186 1.000,
            1.088 24.200 1.000,
            1.328 24.188 1.000,
            1.092 24.217 1.000,
            1.326 24.203 1.000,
            1.326 24.215 1.000,
            1.325 24.231 1.000,
            1.095 24.235 1.000,
            1.097 24.249 1.000,
            1.326 24.254 1.000,
            1.097 24.270 1.000,
            1.328 24.268 1.000,
            1.097 24.286 1.000,
            1.330 24.280 1.000,
            1.332 24.293 1.000,
            1.096 24.297 1.000,
            1.095 24.310 1.000,
            1.336 24.307 1.000,
            1.093 24.323 1.000,
            1.340 24.320 1.000,
            1.090 24.334 1.000,
            1.344 24.331 1.000,
            1.087 24.346 1.000,
            1.350 24.342 1.000,
            1.356 24.354 1.000,
            1.082 24.360 1.000,
            1.362 24.365 1.000,
            1.074 24.377 1.000,
            1.069 24.386 1.000,
            1.370 24.376 1.000,
            1.063 24.395 1.000,
            1.377 24.387 1.000,
            1.386 24.397 1.000,
            1.398 24.410 1.000,
            1.056 24.405 1.000,
            1.048 24.414 1.000,
            1.412 24.423 1.000,
            1.038 24.424 1.000,
            1.422 24.432 1.000,
            1.026 24.434 1.000,
            1.437 24.443 1.000,
            1.452 24.454 1.000,
            1.014 24.443 1.000,
            0.994 24.454 1.000,
            1.469 24.464 1.000,
            1.486 24.473 1.000,
            0.975 24.464 1.000,
            1.502 24.481 1.000,
            0.964 24.468 1.000,
            0.954 24.472 1.000,
            1.520 24.489 1.000,
            0.936 24.478 1.000,
            1.538 24.496 1.000,
            0.919 24.483 1.000,
            1.556 24.501 1.000,
            0.903 24.486 1.000,
            1.576 24.507 1.000,
            0.300 24.700 1.000,
            3.334 24.496 1.000,
            2.920 24.496 1.000,
            0.821 24.494 1.000,
            0.731 24.496 1.000,
            0.866 24.491 1.000,
            0.884 24.489 1.000,
            2.786 24.496 1.000,
            0.439 24.496 1.000,
            1.706 24.521 1.000,
            1.596 24.511 1.000,
            1.621 24.516 1.000,
            1.649 24.519 1.000,
            1.663 24.520 1.000,
            1.677 24.521 1.000,
            8.167 24.520 1.000,
            8.189 24.519 1.000,
            8.214 24.515 1.000,
            8.236 24.511 1.000,
            8.254 24.507 1.000,
            8.271 24.502 1.000,
            8.290 24.496 1.000,
            8.307 24.489 1.000,
            8.319 24.484 1.000,
            8.330 24.478 1.000,
            8.340 24.472 1.000,
            8.350 24.466 1.000,
            8.359 24.460 1.000,
            8.367 24.454 1.000,
            7.239 24.521 1.000,
            4.816 24.496 1.000,
            3.128 23.657 1.000,
            2.581 23.665 1.000,
            2.072 23.902 1.000,
            2.077 23.893 1.000,
            2.084 23.875 1.000,
            2.088 23.859 1.000,
            2.091 23.846 1.000,
            2.094 23.828 1.000,
            2.096 23.811 1.000,
            2.097 23.795 1.000,
            2.097 23.779 1.000,
            2.096 23.758 1.000,
            2.095 23.744 1.000,
            2.849 24.326 1.000,
            4.986 23.929 1.000,
            5.002 23.935 1.000,
            5.013 23.940 1.000,
            5.025 23.946 1.000,
            5.038 23.954 1.000,
            5.054 23.964 1.000,
            7.960 23.610 1.000,
            5.002 24.069 1.000,
            4.973 24.043 1.000,
            4.988 24.055 1.000,
            5.010 24.079 1.000,
            4.940 24.024 1.000,
            4.957 24.032 1.000,
            5.016 24.089 1.000,
            4.929 24.019 1.000,
            5.022 24.098 1.000,
            5.036 24.132 1.000,
            5.031 24.116 1.000,
            5.040 24.145 1.000,
            4.916 24.015 1.000,
            5.042 24.157 1.000,
            4.898 24.011 1.000,
            5.045 24.176 1.000,
            5.028 24.299 1.000,
            5.022 24.308 1.000,
            5.034 24.287 1.000,
            4.997 24.336 1.000,
            5.039 24.272 1.000,
            5.011 24.323 1.000,
            4.982 24.347 1.000,
            5.043 24.253 1.000,
            4.966 24.357 1.000,
            5.045 24.242 1.000,
            4.955 24.362 1.000,
            5.046 24.231 1.000,
            4.945 24.366 1.000,
            4.935 24.369 1.000,
            4.917 24.374 1.000,
            5.047 24.214 1.000,
            5.046 24.195 1.000,
            4.898 24.377 1.000,
            4.879 24.380 1.000,
            4.876 24.007 1.000,
            4.851 24.382 1.000,
            4.856 24.005 1.000,
            4.822 24.382 1.000,
            4.834 24.003 1.000,
            4.800 24.002 1.000,
            4.667 24.382 1.000,
            4.667 24.002 1.000,
            4.059 23.889 1.000,
            4.059 24.335 1.000,
            3.677 23.889 1.000,
            0.990 23.663 1.000,
            0.960 23.643 1.000,
            0.975 23.652 1.000,
            1.033 23.718 1.000,
            1.038 23.730 1.000,
            1.025 23.703 1.000,
            1.007 23.680 1.000,
            1.041 23.741 1.000,
            0.999 23.671 1.000,
            1.014 23.688 1.000,
            1.044 23.759 1.000,
            0.944 23.635 1.000,
            1.046 23.778 1.000,
            0.928 23.630 1.000,
            1.047 23.796 1.000,
            0.918 23.626 1.000,
            1.022 23.902 1.000,
            1.015 23.912 1.000,
            1.030 23.888 1.000,
            1.007 23.920 1.000,
            1.037 23.871 1.000,
            0.994 23.932 1.000,
            1.040 23.861 1.000,
            1.042 23.850 1.000,
            0.979 23.942 1.000,
            1.044 23.838 1.000,
            0.963 23.951 1.000,
            0.950 23.957 1.000,
            1.046 23.821 1.000,
            0.940 23.960 1.000,
            0.927 23.965 1.000,
            0.914 23.968 1.000,
            0.903 23.970 1.000,
            0.884 23.972 1.000,
            0.896 23.621 1.000,
            0.876 23.618 1.000,
            0.906 23.623 1.000,
            0.857 23.975 1.000,
            0.849 23.615 1.000,
            0.829 23.976 1.000,
            0.813 23.612 1.000,
            0.774 23.977 1.000,
            0.741 23.610 1.000,
            0.566 23.977 1.000,
            0.566 23.610 1.000,
            0.922 24.141 1.000,
            0.929 24.149 1.000,
            0.914 24.134 1.000,
            0.946 24.178 1.000,
            0.901 24.124 1.000,
            0.939 24.164 1.000,
            0.950 24.190 1.000,
            0.885 24.115 1.000,
            0.953 24.200 1.000,
            0.956 24.218 1.000,
            0.867 24.107 1.000,
            0.944 24.319 1.000,
            0.922 24.345 1.000,
            0.948 24.310 1.000,
            0.934 24.333 1.000,
            0.952 24.298 1.000,
            0.908 24.355 1.000,
            0.956 24.284 1.000,
            0.895 24.362 1.000,
            0.957 24.270 1.000,
            0.886 24.366 1.000,
            0.873 24.370 1.000,
            0.958 24.253 1.000,
            0.860 24.373 1.000,
            0.849 24.375 1.000,
            0.958 24.235 1.000,
            0.830 24.378 1.000,
            0.837 24.098 1.000,
            0.824 24.096 1.000,
            0.849 24.101 1.000,
            0.795 24.380 1.000,
            0.805 24.094 1.000,
            0.782 24.092 1.000,
            0.759 24.382 1.000,
            0.736 24.091 1.000,
            0.722 24.382 1.000,
            0.566 24.091 1.000,
            0.566 24.382 1.000,
            0.000 25.000 0.700,
            0.000 25.000 0.300,
            0.000 0.000 0.700,
            0.000 0.000 0.300,
            36.000 0.000 0.300,
            36.000 0.000 0.700,
            36.000 25.000 0.300,
            36.000 25.000 0.700,
            0.300 24.700 0.000,
            35.700 24.700 0.000,
            35.700 0.300 0.000,
            0.300 0.300 0.000
          ]
        }
        coordIndex [
          0, 1, 2, -1,
          3, 1, 0, -1,
          3, 4, 1, -1,
          4, 5, 6, -1,
          6, 7, 4, -1,
          4, 8, 5, -1,
          4, 9, 8, -1,
          7, 10, 4, -1,
          4, 11, 9, -1,
          10, 12, 4, -1,
          4, 13, 11, -1,
          4, 14, 13, -1,
          4, 15, 14, -1,
          4, 16, 15, -1,
          4, 17, 16, -1,
          4, 18, 17, -1,
          4, 19, 18, -1,
          1, 20, 2, -1,
          4, 21, 19, -1,
          4, 22, 21, -1,
          4, 23, 22, -1,
          4, 24, 23, -1,
          4, 25, 24, -1,
          4, 26, 25, -1,
          3, 27, 4, -1,
          4, 27, 26, -1,
          3, 28, 27, -1,
          3, 29, 28, -1,
          3, 30, 29, -1,
          3, 31, 30, -1,
          3, 32, 31, -1,
          3, 33, 32, -1,
          3, 34, 33, -1,
          3, 35, 34, -1,
          3, 36, 35, -1,
          3, 37, 36, -1,
          3, 38, 37, -1,
          39, 40, 41, -1,
          3, 42, 38, -1,
          40, 43, 41, -1,
          3, 44, 42, -1,
          20, 45, 46, -1,
          20, 47, 45, -1,
          46, 48, 20, -1,
          20, 49, 47, -1,
          48, 50, 20, -1,
          20, 51, 49, -1,
          50, 52, 20, -1,
          20, 53, 51, -1,
          52, 54, 20, -1,
          55, 56, 20, -1,
          20, 56, 53, -1,
          3, 57, 44, -1,
          54, 58, 20, -1,
          55, 59, 56, -1,
          58, 60, 20, -1,
          55, 61, 59, -1,
          62, 63, 43, -1,
          43, 63, 41, -1,
          41, 63, 64, -1,
          55, 65, 61, -1,
          60, 66, 20, -1,
          55, 67, 65, -1,
          66, 68, 20, -1,
          63, 69, 64, -1,
          55, 70, 67, -1,
          68, 71, 20, -1,
          55, 72, 70, -1,
          71, 73, 20, -1,
          55, 74, 72, -1,
          75, 76, 69, -1,
          69, 76, 64, -1,
          73, 77, 20, -1,
          76, 78, 64, -1,
          79, 78, 80, -1,
          64, 78, 79, -1,
          55, 81, 74, -1,
          77, 82, 20, -1,
          78, 83, 80, -1,
          80, 83, 84, -1,
          55, 85, 81, -1,
          82, 86, 20, -1,
          20, 86, 2, -1,
          86, 87, 2, -1,
          83, 88, 84, -1,
          89, 90, 55, -1,
          55, 90, 85, -1,
          84, 91, 92, -1,
          88, 91, 84, -1,
          89, 93, 90, -1,
          87, 94, 2, -1,
          92, 95, 96, -1,
          91, 95, 92, -1,
          97, 98, 99, -1,
          89, 100, 93, -1,
          97, 101, 98, -1,
          102, 103, 97, -1,
          104, 103, 102, -1,
          97, 103, 101, -1,
          95, 105, 96, -1,
          96, 105, 106, -1,
          89, 107, 100, -1,
          104, 108, 103, -1,
          94, 109, 2, -1,
          110, 111, 112, -1,
          89, 113, 107, -1,
          111, 114, 112, -1,
          115, 116, 117, -1,
          106, 116, 115, -1,
          105, 116, 106, -1,
          114, 118, 112, -1,
          112, 118, 104, -1,
          104, 118, 108, -1,
          89, 119, 113, -1,
          120, 119, 89, -1,
          108, 121, 122, -1,
          118, 121, 108, -1,
          123, 124, 125, -1,
          117, 124, 123, -1,
          116, 124, 117, -1,
          122, 126, 127, -1,
          121, 126, 122, -1,
          120, 128, 119, -1,
          129, 130, 131, -1,
          125, 130, 129, -1,
          124, 130, 125, -1,
          120, 132, 128, -1,
          130, 133, 131, -1,
          134, 133, 135, -1,
          131, 133, 134, -1,
          135, 136, 137, -1,
          133, 136, 135, -1,
          137, 138, 139, -1,
          136, 138, 137, -1,
          138, 140, 139, -1,
          140, 141, 139, -1,
          139, 141, 142, -1,
          141, 143, 142, -1,
          143, 144, 142, -1,
          144, 145, 142, -1,
          142, 146, 147, -1,
          145, 146, 142, -1,
          146, 148, 147, -1,
          148, 149, 147, -1,
          147, 150, 151, -1,
          151, 150, 120, -1,
          149, 150, 147, -1,
          132, 152, 153, -1,
          120, 152, 132, -1,
          150, 152, 120, -1,
          153, 152, 154, -1,
          155, 156, 157, -1,
          158, 156, 155, -1,
          157, 159, 160, -1,
          156, 159, 157, -1,
          159, 161, 160, -1,
          160, 161, 162, -1,
          162, 163, 164, -1,
          161, 163, 162, -1,
          163, 165, 164, -1,
          166, 167, 168, -1,
          168, 167, 169, -1,
          170, 171, 172, -1,
          168, 171, 170, -1,
          169, 171, 168, -1,
          166, 173, 167, -1,
          174, 173, 166, -1,
          172, 175, 176, -1,
          171, 175, 172, -1,
          174, 177, 173, -1,
          178, 177, 174, -1,
          179, 180, 181, -1,
          164, 180, 179, -1,
          165, 180, 164, -1,
          176, 182, 183, -1,
          175, 182, 176, -1,
          178, 184, 177, -1,
          185, 184, 178, -1,
          183, 186, 187, -1,
          182, 186, 183, -1,
          185, 188, 184, -1,
          152, 188, 154, -1,
          154, 188, 185, -1,
          187, 189, 190, -1,
          186, 189, 187, -1,
          152, 191, 188, -1,
          189, 192, 190, -1,
          152, 193, 191, -1,
          181, 194, 195, -1,
          180, 194, 181, -1,
          192, 196, 190, -1,
          190, 196, 197, -1,
          152, 198, 193, -1,
          197, 199, 200, -1,
          196, 199, 197, -1,
          152, 201, 198, -1,
          152, 202, 201, -1,
          195, 203, 204, -1,
          194, 203, 195, -1,
          204, 203, 205, -1,
          200, 206, 207, -1,
          199, 206, 200, -1,
          152, 208, 202, -1,
          152, 209, 208, -1,
          203, 210, 205, -1,
          205, 210, 126, -1,
          126, 210, 127, -1,
          210, 211, 127, -1,
          127, 211, 212, -1,
          152, 213, 209, -1,
          214, 215, 216, -1,
          217, 215, 214, -1,
          212, 215, 217, -1,
          211, 215, 212, -1,
          152, 218, 213, -1,
          152, 219, 218, -1,
          216, 220, 221, -1,
          222, 220, 223, -1,
          224, 220, 222, -1,
          225, 220, 224, -1,
          221, 220, 225, -1,
          215, 220, 216, -1,
          152, 226, 219, -1,
          227, 228, 229, -1,
          230, 228, 227, -1,
          152, 231, 226, -1,
          232, 233, 228, -1,
          152, 234, 231, -1,
          235, 234, 152, -1,
          233, 236, 228, -1,
          228, 236, 229, -1,
          229, 236, 237, -1,
          236, 238, 237, -1,
          237, 238, 239, -1,
          235, 240, 234, -1,
          241, 242, 243, -1,
          244, 242, 241, -1,
          245, 242, 244, -1,
          246, 242, 245, -1,
          247, 242, 246, -1,
          248, 242, 247, -1,
          249, 242, 248, -1,
          250, 242, 249, -1,
          251, 242, 250, -1,
          252, 242, 251, -1,
          223, 242, 252, -1,
          220, 242, 223, -1,
          235, 253, 240, -1,
          235, 254, 253, -1,
          235, 255, 254, -1,
          235, 256, 255, -1,
          257, 258, 259, -1,
          235, 260, 256, -1,
          258, 261, 259, -1,
          235, 262, 260, -1,
          235, 263, 262, -1,
          264, 265, 266, -1,
          266, 267, 264, -1,
          264, 268, 265, -1,
          267, 269, 264, -1,
          264, 270, 268, -1,
          269, 271, 264, -1,
          264, 272, 270, -1,
          271, 273, 264, -1,
          264, 274, 272, -1,
          235, 275, 263, -1,
          264, 276, 277, -1,
          273, 276, 264, -1,
          264, 278, 274, -1,
          277, 279, 280, -1,
          276, 279, 277, -1,
          281, 282, 264, -1,
          264, 282, 278, -1,
          283, 284, 261, -1,
          285, 284, 283, -1,
          261, 284, 259, -1,
          279, 286, 280, -1,
          280, 286, 287, -1,
          281, 288, 282, -1,
          235, 289, 275, -1,
          287, 290, 291, -1,
          286, 290, 287, -1,
          281, 292, 288, -1,
          284, 293, 259, -1,
          290, 294, 291, -1,
          295, 294, 296, -1,
          291, 294, 295, -1,
          281, 297, 292, -1,
          235, 298, 289, -1,
          294, 299, 296, -1,
          296, 299, 300, -1,
          293, 301, 259, -1,
          259, 301, 302, -1,
          281, 303, 297, -1,
          235, 304, 298, -1,
          305, 304, 235, -1,
          301, 306, 302, -1,
          302, 306, 307, -1,
          299, 308, 300, -1,
          300, 308, 309, -1,
          281, 310, 303, -1,
          305, 311, 304, -1,
          312, 311, 305, -1,
          308, 313, 309, -1,
          281, 314, 310, -1,
          306, 315, 307, -1,
          309, 316, 317, -1,
          313, 316, 309, -1,
          312, 318, 311, -1,
          319, 318, 312, -1,
          316, 320, 317, -1,
          317, 320, 109, -1,
          109, 320, 2, -1,
          315, 321, 307, -1,
          238, 321, 239, -1,
          307, 321, 238, -1,
          281, 322, 314, -1,
          319, 323, 318, -1,
          321, 324, 239, -1,
          239, 324, 325, -1,
          324, 326, 325, -1,
          327, 326, 328, -1,
          325, 326, 327, -1,
          320, 329, 2, -1,
          319, 330, 323, -1,
          331, 330, 319, -1,
          281, 332, 322, -1,
          326, 333, 328, -1,
          328, 333, 334, -1,
          335, 336, 337, -1,
          336, 338, 337, -1,
          337, 338, 339, -1,
          339, 340, 341, -1,
          281, 342, 332, -1,
          331, 343, 330, -1,
          344, 343, 331, -1,
          338, 345, 339, -1,
          346, 345, 338, -1,
          333, 347, 334, -1,
          348, 347, 349, -1,
          334, 347, 348, -1,
          340, 350, 351, -1,
          345, 352, 339, -1,
          243, 353, 281, -1,
          281, 353, 342, -1,
          242, 353, 243, -1,
          339, 354, 340, -1,
          340, 354, 350, -1,
          352, 354, 339, -1,
          329, 355, 2, -1,
          344, 356, 343, -1,
          357, 356, 344, -1,
          352, 358, 354, -1,
          358, 359, 354, -1,
          358, 360, 359, -1,
          349, 361, 362, -1,
          347, 361, 349, -1,
          242, 363, 353, -1,
          360, 364, 359, -1,
          364, 365, 359, -1,
          357, 366, 356, -1,
          367, 366, 357, -1,
          364, 368, 365, -1,
          361, 369, 362, -1,
          370, 369, 371, -1,
          362, 369, 370, -1,
          242, 372, 363, -1,
          369, 373, 371, -1,
          374, 375, 367, -1,
          367, 375, 366, -1,
          242, 376, 372, -1,
          373, 377, 371, -1,
          242, 378, 376, -1,
          374, 379, 375, -1,
          380, 379, 374, -1,
          377, 381, 371, -1,
          371, 381, 382, -1,
          242, 383, 378, -1,
          382, 383, 242, -1,
          381, 384, 382, -1,
          382, 385, 383, -1,
          384, 386, 382, -1,
          380, 387, 379, -1,
          388, 387, 380, -1,
          386, 389, 382, -1,
          389, 390, 382, -1,
          390, 391, 382, -1,
          391, 392, 382, -1,
          392, 393, 382, -1,
          393, 394, 382, -1,
          395, 396, 397, -1,
          394, 398, 382, -1,
          398, 399, 382, -1,
          400, 399, 401, -1,
          402, 399, 400, -1,
          403, 399, 402, -1,
          385, 399, 403, -1,
          382, 399, 385, -1,
          399, 404, 401, -1,
          399, 405, 404, -1,
          406, 407, 408, -1,
          407, 409, 408, -1,
          410, 409, 411, -1,
          412, 409, 410, -1,
          397, 409, 412, -1,
          408, 409, 396, -1,
          396, 409, 397, -1,
          409, 413, 411, -1,
          413, 414, 411, -1,
          415, 414, 413, -1,
          411, 414, 416, -1,
          414, 417, 416, -1,
          417, 418, 416, -1,
          416, 419, 420, -1,
          418, 419, 416, -1,
          419, 421, 420, -1,
          422, 421, 423, -1,
          420, 421, 422, -1,
          368, 424, 365, -1,
          423, 424, 368, -1,
          365, 424, 425, -1,
          421, 424, 423, -1,
          424, 426, 425, -1,
          427, 426, 428, -1,
          425, 426, 427, -1,
          428, 429, 430, -1,
          426, 429, 428, -1,
          429, 431, 430, -1,
          432, 431, 433, -1,
          430, 431, 432, -1,
          399, 434, 405, -1,
          435, 434, 399, -1,
          436, 434, 437, -1,
          405, 434, 436, -1,
          438, 434, 439, -1,
          440, 434, 438, -1,
          441, 434, 440, -1,
          442, 434, 441, -1,
          443, 434, 442, -1,
          444, 434, 443, -1,
          445, 434, 444, -1,
          446, 434, 445, -1,
          437, 434, 446, -1,
          447, 448, 449, -1,
          433, 448, 447, -1,
          431, 448, 433, -1,
          450, 451, 452, -1,
          449, 451, 450, -1,
          448, 451, 449, -1,
          452, 453, 454, -1,
          451, 453, 452, -1,
          455, 456, 457, -1,
          454, 456, 455, -1,
          453, 456, 454, -1,
          458, 459, 435, -1,
          460, 459, 458, -1,
          461, 459, 460, -1,
          462, 459, 461, -1,
          463, 459, 462, -1,
          464, 459, 463, -1,
          465, 459, 464, -1,
          466, 459, 465, -1,
          467, 459, 466, -1,
          435, 459, 434, -1,
          456, 468, 457, -1,
          469, 468, 470, -1,
          457, 468, 469, -1,
          468, 471, 470, -1,
          472, 471, 473, -1,
          470, 471, 472, -1,
          471, 474, 473, -1,
          473, 474, 475, -1,
          475, 476, 477, -1,
          474, 476, 475, -1,
          434, 478, 439, -1,
          479, 478, 480, -1,
          481, 478, 479, -1,
          482, 478, 481, -1,
          483, 478, 482, -1,
          484, 478, 483, -1,
          439, 478, 484, -1,
          474, 485, 476, -1,
          486, 487, 355, -1,
          488, 487, 486, -1,
          489, 487, 488, -1,
          476, 487, 477, -1,
          490, 487, 489, -1,
          491, 487, 490, -1,
          492, 487, 491, -1,
          493, 487, 492, -1,
          494, 487, 493, -1,
          495, 487, 494, -1,
          477, 487, 495, -1,
          355, 487, 2, -1,
          487, 496, 2, -1,
          467, 497, 459, -1,
          476, 498, 487, -1,
          497, 499, 485, -1,
          496, 500, 2, -1,
          501, 502, 498, -1,
          498, 503, 501, -1,
          502, 504, 498, -1,
          498, 505, 503, -1,
          504, 506, 498, -1,
          499, 507, 498, -1,
          498, 507, 505, -1,
          499, 508, 507, -1,
          499, 509, 508, -1,
          499, 510, 509, -1,
          499, 511, 510, -1,
          499, 512, 511, -1,
          499, 513, 512, -1,
          500, 514, 2, -1,
          499, 515, 513, -1,
          499, 516, 515, -1,
          499, 517, 516, -1,
          499, 518, 517, -1,
          499, 519, 518, -1,
          496, 520, 500, -1,
          499, 521, 519, -1,
          499, 522, 521, -1,
          499, 523, 522, -1,
          499, 524, 523, -1,
          499, 525, 524, -1,
          499, 526, 525, -1,
          499, 527, 526, -1,
          497, 527, 499, -1,
          497, 528, 527, -1,
          497, 529, 528, -1,
          497, 530, 529, -1,
          497, 531, 530, -1,
          520, 532, 500, -1,
          497, 533, 531, -1,
          497, 534, 533, -1,
          497, 535, 534, -1,
          497, 536, 535, -1,
          514, 537, 2, -1,
          497, 538, 536, -1,
          497, 539, 538, -1,
          497, 540, 539, -1,
          497, 541, 540, -1,
          497, 542, 541, -1,
          497, 543, 542, -1,
          537, 544, 2, -1,
          514, 545, 537, -1,
          497, 546, 543, -1,
          497, 547, 546, -1,
          497, 548, 547, -1,
          497, 549, 548, -1,
          497, 550, 549, -1,
          497, 551, 550, -1,
          497, 552, 551, -1,
          497, 553, 552, -1,
          545, 554, 537, -1,
          497, 555, 553, -1,
          556, 557, 544, -1,
          544, 558, 2, -1,
          557, 558, 544, -1,
          559, 560, 561, -1,
          562, 560, 559, -1,
          558, 563, 2, -1,
          563, 564, 2, -1,
          564, 565, 2, -1,
          566, 567, 568, -1,
          569, 570, 565, -1,
          565, 571, 569, -1,
          570, 572, 565, -1,
          565, 573, 571, -1,
          572, 574, 565, -1,
          565, 575, 573, -1,
          574, 576, 565, -1,
          565, 577, 575, -1,
          576, 578, 565, -1,
          565, 579, 577, -1,
          578, 580, 565, -1,
          565, 581, 579, -1,
          580, 582, 565, -1,
          565, 583, 581, -1,
          582, 584, 565, -1,
          565, 585, 583, -1,
          584, 586, 565, -1,
          565, 587, 585, -1,
          586, 588, 565, -1,
          588, 589, 565, -1,
          589, 590, 565, -1,
          590, 591, 565, -1,
          591, 592, 565, -1,
          565, 593, 2, -1,
          592, 593, 565, -1,
          593, 594, 2, -1,
          595, 596, 597, -1,
          598, 596, 595, -1,
          599, 596, 598, -1,
          596, 600, 597, -1,
          594, 601, 2, -1,
          600, 602, 597, -1,
          602, 603, 597, -1,
          601, 604, 2, -1,
          604, 605, 2, -1,
          606, 607, 608, -1,
          609, 610, 607, -1,
          607, 610, 608, -1,
          610, 611, 608, -1,
          608, 611, 612, -1,
          613, 614, 615, -1,
          612, 614, 613, -1,
          611, 614, 612, -1,
          614, 616, 615, -1,
          615, 617, 603, -1,
          616, 617, 615, -1,
          617, 618, 603, -1,
          619, 618, 620, -1,
          621, 618, 619, -1,
          622, 618, 621, -1,
          597, 618, 622, -1,
          603, 618, 597, -1,
          618, 623, 620, -1,
          624, 623, 625, -1,
          620, 623, 624, -1,
          623, 626, 625, -1,
          627, 626, 628, -1,
          629, 626, 627, -1,
          630, 626, 629, -1,
          625, 626, 630, -1,
          626, 631, 628, -1,
          632, 631, 633, -1,
          634, 631, 632, -1,
          635, 631, 634, -1,
          628, 631, 635, -1,
          636, 637, 638, -1,
          639, 637, 636, -1,
          640, 637, 639, -1,
          641, 637, 640, -1,
          642, 637, 641, -1,
          643, 637, 642, -1,
          644, 637, 643, -1,
          645, 637, 644, -1,
          646, 647, 648, -1,
          649, 647, 646, -1,
          650, 647, 649, -1,
          638, 647, 650, -1,
          637, 647, 638, -1,
          631, 651, 633, -1,
          652, 651, 653, -1,
          654, 651, 652, -1,
          655, 651, 654, -1,
          656, 651, 655, -1,
          657, 651, 656, -1,
          633, 651, 657, -1,
          648, 658, 659, -1,
          647, 658, 648, -1,
          658, 660, 659, -1,
          660, 661, 659, -1,
          651, 662, 653, -1,
          663, 662, 664, -1,
          665, 662, 663, -1,
          653, 662, 665, -1,
          661, 666, 659, -1,
          667, 668, 637, -1,
          659, 669, 670, -1,
          666, 669, 659, -1,
          671, 672, 673, -1,
          664, 672, 671, -1,
          662, 672, 664, -1,
          667, 674, 668, -1,
          672, 675, 673, -1,
          676, 675, 677, -1,
          673, 675, 676, -1,
          669, 678, 670, -1,
          667, 679, 674, -1,
          680, 681, 682, -1,
          677, 681, 680, -1,
          675, 681, 677, -1,
          678, 683, 670, -1,
          670, 683, 684, -1,
          667, 685, 679, -1,
          686, 687, 688, -1,
          688, 689, 686, -1,
          687, 690, 688, -1,
          682, 691, 692, -1,
          681, 691, 682, -1,
          688, 693, 689, -1,
          690, 694, 688, -1,
          688, 695, 693, -1,
          694, 696, 688, -1,
          688, 697, 695, -1,
          696, 698, 688, -1,
          688, 699, 697, -1,
          698, 700, 688, -1,
          683, 701, 684, -1,
          688, 702, 699, -1,
          703, 702, 688, -1,
          691, 704, 692, -1,
          703, 705, 702, -1,
          700, 706, 688, -1,
          688, 706, 707, -1,
          703, 708, 705, -1,
          706, 709, 707, -1,
          707, 709, 710, -1,
          667, 711, 685, -1,
          703, 712, 708, -1,
          709, 713, 710, -1,
          710, 713, 714, -1,
          704, 715, 692, -1,
          701, 716, 684, -1,
          703, 717, 712, -1,
          713, 718, 714, -1,
          714, 718, 719, -1,
          703, 720, 717, -1,
          715, 721, 692, -1,
          718, 722, 719, -1,
          719, 722, 723, -1,
          703, 724, 720, -1,
          721, 725, 692, -1,
          716, 726, 684, -1,
          667, 727, 711, -1,
          723, 728, 729, -1,
          722, 728, 723, -1,
          703, 730, 724, -1,
          729, 731, 732, -1,
          728, 731, 729, -1,
          684, 733, 734, -1,
          726, 733, 684, -1,
          703, 735, 730, -1,
          667, 736, 727, -1,
          703, 737, 735, -1,
          731, 738, 732, -1,
          732, 738, 739, -1,
          733, 740, 734, -1,
          703, 741, 737, -1,
          692, 742, 703, -1,
          703, 742, 741, -1,
          740, 743, 734, -1,
          667, 744, 736, -1,
          745, 746, 747, -1,
          738, 748, 739, -1,
          739, 748, 605, -1,
          749, 750, 725, -1,
          692, 750, 742, -1,
          725, 750, 692, -1,
          743, 751, 734, -1,
          752, 753, 745, -1,
          745, 753, 746, -1,
          749, 754, 750, -1,
          751, 755, 734, -1,
          756, 757, 749, -1,
          749, 757, 754, -1,
          748, 758, 605, -1,
          605, 758, 2, -1,
          759, 760, 752, -1,
          752, 760, 753, -1,
          761, 762, 667, -1,
          667, 762, 744, -1,
          763, 764, 756, -1,
          756, 764, 757, -1,
          759, 765, 760, -1,
          766, 765, 759, -1,
          734, 767, 768, -1,
          755, 767, 734, -1,
          766, 769, 765, -1,
          767, 770, 768, -1,
          771, 772, 763, -1,
          763, 772, 764, -1,
          761, 773, 762, -1,
          774, 775, 766, -1,
          766, 775, 769, -1,
          770, 776, 768, -1,
          777, 778, 771, -1,
          771, 778, 772, -1,
          776, 779, 768, -1,
          777, 780, 778, -1,
          779, 781, 768, -1,
          782, 783, 777, -1,
          777, 783, 780, -1,
          768, 784, 785, -1,
          781, 784, 768, -1,
          784, 786, 785, -1,
          787, 788, 782, -1,
          789, 788, 787, -1,
          782, 788, 783, -1,
          785, 790, 791, -1,
          786, 790, 785, -1,
          790, 792, 791, -1,
          791, 792, 793, -1,
          792, 794, 793, -1,
          795, 796, 797, -1,
          798, 796, 795, -1,
          793, 799, 774, -1,
          794, 799, 793, -1,
          775, 800, 801, -1,
          799, 800, 774, -1,
          774, 800, 775, -1,
          798, 802, 796, -1,
          803, 802, 798, -1,
          801, 802, 803, -1,
          800, 804, 801, -1,
          801, 804, 802, -1,
          805, 806, 789, -1,
          789, 806, 788, -1,
          807, 808, 805, -1,
          805, 808, 806, -1,
          809, 810, 807, -1,
          807, 810, 808, -1,
          758, 811, 2, -1,
          812, 813, 814, -1,
          815, 813, 812, -1,
          815, 816, 813, -1,
          817, 816, 815, -1,
          813, 818, 814, -1,
          814, 818, 819, -1,
          818, 820, 819, -1,
          817, 821, 816, -1,
          822, 821, 817, -1,
          823, 821, 822, -1,
          820, 824, 819, -1,
          819, 824, 825, -1,
          823, 826, 821, -1,
          827, 826, 823, -1,
          824, 828, 825, -1,
          825, 828, 829, -1,
          827, 830, 826, -1,
          810, 830, 827, -1,
          828, 831, 829, -1,
          831, 832, 829, -1,
          833, 834, 809, -1,
          809, 834, 810, -1,
          810, 834, 830, -1,
          831, 835, 832, -1,
          836, 837, 833, -1,
          833, 837, 834, -1,
          836, 838, 837, -1,
          839, 838, 836, -1,
          839, 840, 838, -1,
          841, 840, 839, -1,
          842, 840, 841, -1,
          843, 844, 842, -1,
          842, 844, 840, -1,
          843, 845, 844, -1,
          846, 845, 843, -1,
          846, 847, 845, -1,
          848, 847, 846, -1,
          848, 849, 847, -1,
          850, 849, 848, -1,
          851, 852, 850, -1,
          850, 852, 849, -1,
          851, 853, 852, -1,
          854, 853, 851, -1,
          854, 855, 853, -1,
          856, 855, 854, -1,
          856, 857, 855, -1,
          858, 857, 856, -1,
          858, 859, 857, -1,
          860, 859, 858, -1,
          861, 862, 860, -1,
          860, 862, 859, -1,
          863, 864, 861, -1,
          861, 864, 862, -1,
          863, 865, 864, -1,
          866, 865, 863, -1,
          866, 867, 865, -1,
          868, 867, 866, -1,
          869, 867, 868, -1,
          870, 871, 869, -1,
          869, 871, 867, -1,
          870, 872, 871, -1,
          873, 874, 870, -1,
          875, 874, 873, -1,
          870, 874, 872, -1,
          875, 876, 874, -1,
          877, 876, 875, -1,
          878, 879, 877, -1,
          877, 879, 876, -1,
          878, 880, 879, -1,
          881, 880, 878, -1,
          882, 880, 881, -1,
          882, 883, 880, -1,
          884, 883, 882, -1,
          884, 885, 883, -1,
          884, 886, 885, -1,
          887, 886, 884, -1,
          887, 888, 886, -1,
          889, 888, 887, -1,
          889, 890, 888, -1,
          891, 890, 889, -1,
          891, 892, 890, -1,
          893, 892, 891, -1,
          893, 894, 892, -1,
          895, 894, 896, -1,
          897, 894, 898, -1,
          899, 894, 897, -1,
          900, 894, 899, -1,
          892, 894, 900, -1,
          901, 894, 761, -1,
          896, 894, 901, -1,
          898, 894, 902, -1,
          902, 894, 811, -1,
          773, 894, 903, -1,
          761, 894, 773, -1,
          904, 894, 893, -1,
          905, 894, 904, -1,
          906, 894, 905, -1,
          907, 894, 906, -1,
          908, 894, 907, -1,
          903, 894, 908, -1,
          894, 2, 811, -1,
          3, 894, 387, -1,
          3, 387, 388, -1,
          3, 388, 909, -1,
          3, 909, 910, -1,
          3, 910, 911, -1,
          3, 911, 912, -1,
          3, 912, 913, -1,
          3, 913, 914, -1,
          3, 914, 915, -1,
          3, 915, 916, -1,
          3, 916, 917, -1,
          3, 917, 918, -1,
          3, 918, 919, -1,
          3, 919, 920, -1,
          3, 920, 921, -1,
          3, 921, 922, -1,
          3, 922, 57, -1,
          387, 894, 923, -1,
          923, 894, 467, -1,
          467, 894, 497, -1,
          497, 894, 555, -1,
          555, 894, 924, -1,
          924, 894, 562, -1,
          562, 894, 560, -1,
          560, 894, 566, -1,
          566, 894, 567, -1,
          567, 894, 895, -1,
          896, 925, 895, -1,
          926, 901, 761, -1,
          565, 667, 637, -1,
          565, 637, 645, -1,
          565, 645, 927, -1,
          565, 927, 928, -1,
          565, 928, 929, -1,
          565, 929, 930, -1,
          565, 930, 931, -1,
          565, 931, 932, -1,
          565, 932, 933, -1,
          565, 933, 934, -1,
          565, 934, 935, -1,
          565, 935, 936, -1,
          565, 936, 937, -1,
          565, 937, 587, -1,
          938, 564, 563, -1,
          567, 558, 568, -1,
          568, 558, 557, -1,
          514, 562, 545, -1,
          545, 562, 559, -1,
          939, 487, 940, -1,
          940, 487, 941, -1,
          941, 487, 942, -1,
          942, 487, 943, -1,
          943, 487, 944, -1,
          944, 487, 506, -1,
          506, 487, 498, -1,
          474, 497, 485, -1,
          945, 4, 12, -1,
          945, 20, 1, -1,
          10, 151, 12, -1,
          6, 147, 7, -1,
          7, 147, 10, -1,
          10, 147, 151, -1,
          8, 142, 5, -1,
          5, 142, 6, -1,
          6, 142, 147, -1,
          151, 120, 12, -1,
          9, 139, 8, -1,
          8, 139, 142, -1,
          12, 89, 945, -1,
          120, 89, 12, -1,
          11, 137, 9, -1,
          9, 137, 139, -1,
          13, 135, 11, -1,
          11, 135, 137, -1,
          14, 134, 13, -1,
          13, 134, 135, -1,
          15, 131, 14, -1,
          14, 131, 134, -1,
          89, 55, 945, -1,
          945, 55, 20, -1,
          16, 129, 15, -1,
          15, 129, 131, -1,
          17, 125, 16, -1,
          16, 125, 129, -1,
          19, 123, 18, -1,
          18, 123, 17, -1,
          17, 123, 125, -1,
          21, 117, 19, -1,
          19, 117, 123, -1,
          22, 115, 21, -1,
          21, 115, 117, -1,
          23, 115, 22, -1,
          23, 106, 115, -1,
          24, 106, 23, -1,
          24, 96, 106, -1,
          25, 96, 24, -1,
          25, 92, 96, -1,
          25, 84, 92, -1,
          26, 84, 25, -1,
          26, 80, 84, -1,
          28, 80, 27, -1,
          27, 80, 26, -1,
          28, 79, 80, -1,
          29, 79, 28, -1,
          29, 64, 79, -1,
          30, 64, 29, -1,
          30, 41, 64, -1,
          32, 41, 31, -1,
          31, 41, 30, -1,
          32, 39, 41, -1,
          34, 39, 33, -1,
          33, 39, 32, -1,
          34, 40, 39, -1,
          37, 40, 36, -1,
          36, 40, 35, -1,
          35, 40, 34, -1,
          42, 43, 38, -1,
          37, 43, 40, -1,
          38, 43, 37, -1,
          42, 44, 43, -1,
          44, 62, 43, -1,
          44, 57, 62, -1,
          57, 63, 62, -1,
          57, 922, 63, -1,
          63, 921, 69, -1,
          922, 921, 63, -1,
          921, 920, 69, -1,
          920, 919, 69, -1,
          69, 918, 75, -1,
          919, 918, 69, -1,
          75, 917, 76, -1,
          918, 917, 75, -1,
          917, 916, 76, -1,
          76, 915, 78, -1,
          916, 915, 76, -1,
          78, 914, 83, -1,
          915, 914, 78, -1,
          83, 913, 88, -1,
          914, 913, 83, -1,
          88, 912, 91, -1,
          913, 912, 88, -1,
          91, 911, 95, -1,
          912, 911, 91, -1,
          95, 910, 105, -1,
          911, 910, 95, -1,
          910, 909, 105, -1,
          105, 909, 116, -1,
          909, 388, 116, -1,
          116, 388, 124, -1,
          388, 380, 124, -1,
          124, 380, 130, -1,
          380, 374, 130, -1,
          130, 374, 133, -1,
          374, 367, 133, -1,
          133, 367, 136, -1,
          149, 152, 150, -1,
          367, 357, 136, -1,
          136, 357, 138, -1,
          357, 344, 138, -1,
          138, 344, 140, -1,
          140, 344, 141, -1,
          344, 331, 141, -1,
          141, 331, 143, -1,
          331, 319, 143, -1,
          143, 319, 144, -1,
          319, 312, 144, -1,
          144, 312, 145, -1,
          312, 305, 145, -1,
          145, 305, 146, -1,
          149, 235, 152, -1,
          146, 235, 148, -1,
          148, 235, 149, -1,
          305, 235, 146, -1,
          4, 945, 1, -1,
          48, 99, 50, -1,
          50, 99, 52, -1,
          45, 97, 46, -1,
          46, 97, 48, -1,
          48, 97, 99, -1,
          52, 98, 54, -1,
          99, 98, 52, -1,
          47, 102, 45, -1,
          45, 102, 97, -1,
          47, 104, 102, -1,
          51, 104, 49, -1,
          49, 104, 47, -1,
          98, 101, 54, -1,
          54, 101, 58, -1,
          58, 101, 60, -1,
          51, 112, 104, -1,
          53, 112, 51, -1,
          101, 103, 60, -1,
          60, 103, 66, -1,
          59, 110, 56, -1,
          56, 110, 53, -1,
          53, 110, 112, -1,
          66, 108, 68, -1,
          103, 108, 66, -1,
          65, 111, 61, -1,
          61, 111, 59, -1,
          59, 111, 110, -1,
          68, 122, 71, -1,
          108, 122, 68, -1,
          67, 114, 65, -1,
          65, 114, 111, -1,
          122, 127, 71, -1,
          71, 127, 73, -1,
          72, 118, 70, -1,
          70, 118, 67, -1,
          67, 118, 114, -1,
          73, 212, 77, -1,
          127, 212, 73, -1,
          74, 121, 72, -1,
          72, 121, 118, -1,
          212, 217, 77, -1,
          77, 217, 82, -1,
          81, 126, 74, -1,
          74, 126, 121, -1,
          85, 205, 81, -1,
          81, 205, 126, -1,
          82, 214, 86, -1,
          86, 214, 87, -1,
          217, 214, 82, -1,
          87, 216, 94, -1,
          214, 216, 87, -1,
          90, 204, 85, -1,
          85, 204, 205, -1,
          94, 221, 109, -1,
          216, 221, 94, -1,
          90, 195, 204, -1,
          93, 195, 90, -1,
          107, 181, 100, -1,
          100, 181, 93, -1,
          93, 181, 195, -1,
          109, 225, 317, -1,
          221, 225, 109, -1,
          119, 179, 113, -1,
          113, 179, 107, -1,
          107, 179, 181, -1,
          225, 224, 317, -1,
          128, 164, 119, -1,
          119, 164, 179, -1,
          317, 222, 309, -1,
          224, 222, 317, -1,
          154, 162, 153, -1,
          153, 162, 132, -1,
          132, 162, 128, -1,
          128, 162, 164, -1,
          222, 223, 309, -1,
          178, 160, 185, -1,
          185, 160, 154, -1,
          154, 160, 162, -1,
          309, 252, 300, -1,
          223, 252, 309, -1,
          166, 157, 174, -1,
          174, 157, 178, -1,
          178, 157, 160, -1,
          300, 251, 296, -1,
          252, 251, 300, -1,
          166, 155, 157, -1,
          166, 168, 155, -1,
          251, 250, 296, -1,
          296, 250, 295, -1,
          168, 170, 155, -1,
          170, 158, 155, -1,
          170, 172, 158, -1,
          250, 249, 295, -1,
          295, 249, 291, -1,
          158, 176, 156, -1,
          172, 176, 158, -1,
          249, 248, 291, -1,
          291, 248, 287, -1,
          176, 183, 156, -1,
          248, 247, 287, -1,
          156, 187, 159, -1,
          183, 187, 156, -1,
          247, 246, 287, -1,
          287, 246, 280, -1,
          159, 190, 161, -1,
          187, 190, 159, -1,
          280, 245, 277, -1,
          246, 245, 280, -1,
          190, 197, 161, -1,
          161, 200, 163, -1,
          197, 200, 161, -1,
          277, 244, 264, -1,
          245, 244, 277, -1,
          163, 207, 165, -1,
          165, 207, 180, -1,
          180, 207, 194, -1,
          200, 207, 163, -1,
          207, 203, 194, -1,
          244, 241, 264, -1,
          243, 281, 241, -1,
          241, 281, 264, -1,
          182, 227, 186, -1,
          186, 227, 189, -1,
          227, 229, 189, -1,
          189, 229, 192, -1,
          175, 230, 182, -1,
          182, 230, 227, -1,
          192, 237, 196, -1,
          229, 237, 192, -1,
          175, 228, 230, -1,
          169, 228, 171, -1,
          171, 228, 175, -1,
          196, 239, 199, -1,
          199, 239, 206, -1,
          237, 239, 196, -1,
          239, 325, 206, -1,
          169, 232, 228, -1,
          173, 232, 167, -1,
          167, 232, 169, -1,
          325, 327, 206, -1,
          177, 233, 173, -1,
          173, 233, 232, -1,
          188, 236, 184, -1,
          184, 236, 177, -1,
          177, 236, 233, -1,
          327, 328, 206, -1,
          198, 238, 193, -1,
          193, 238, 191, -1,
          191, 238, 188, -1,
          188, 238, 236, -1,
          206, 334, 207, -1,
          207, 334, 203, -1,
          328, 334, 206, -1,
          203, 348, 210, -1,
          334, 348, 203, -1,
          208, 307, 202, -1,
          202, 307, 201, -1,
          201, 307, 198, -1,
          198, 307, 238, -1,
          210, 349, 211, -1,
          348, 349, 210, -1,
          213, 302, 209, -1,
          209, 302, 208, -1,
          208, 302, 307, -1,
          211, 362, 215, -1,
          349, 362, 211, -1,
          219, 259, 218, -1,
          218, 259, 213, -1,
          213, 259, 302, -1,
          215, 370, 220, -1,
          362, 370, 215, -1,
          234, 257, 231, -1,
          231, 257, 226, -1,
          226, 257, 219, -1,
          219, 257, 259, -1,
          220, 371, 242, -1,
          370, 371, 220, -1,
          253, 258, 240, -1,
          240, 258, 234, -1,
          234, 258, 257, -1,
          254, 261, 253, -1,
          253, 261, 258, -1,
          255, 261, 254, -1,
          255, 283, 261, -1,
          262, 283, 260, -1,
          260, 283, 256, -1,
          256, 283, 255, -1,
          371, 382, 242, -1,
          262, 285, 283, -1,
          263, 285, 262, -1,
          263, 275, 285, -1,
          275, 284, 285, -1,
          275, 289, 284, -1,
          289, 298, 284, -1,
          284, 298, 293, -1,
          298, 304, 293, -1,
          304, 311, 293, -1,
          311, 318, 293, -1,
          293, 318, 301, -1,
          318, 323, 301, -1,
          301, 323, 306, -1,
          323, 330, 306, -1,
          330, 343, 306, -1,
          306, 343, 315, -1,
          315, 356, 321, -1,
          343, 356, 315, -1,
          321, 366, 324, -1,
          356, 366, 321, -1,
          324, 375, 326, -1,
          326, 375, 333, -1,
          366, 375, 324, -1,
          333, 379, 347, -1,
          375, 379, 333, -1,
          347, 387, 361, -1,
          379, 387, 347, -1,
          361, 923, 369, -1,
          387, 923, 361, -1,
          923, 467, 369, -1,
          369, 466, 373, -1,
          467, 466, 369, -1,
          373, 465, 377, -1,
          377, 465, 381, -1,
          466, 465, 373, -1,
          394, 399, 398, -1,
          381, 464, 384, -1,
          465, 464, 381, -1,
          464, 463, 384, -1,
          384, 463, 386, -1,
          386, 462, 389, -1,
          463, 462, 386, -1,
          389, 461, 390, -1,
          462, 461, 389, -1,
          390, 460, 391, -1,
          461, 460, 390, -1,
          460, 458, 391, -1,
          391, 458, 392, -1,
          394, 435, 399, -1,
          458, 435, 392, -1,
          392, 435, 393, -1,
          393, 435, 394, -1,
          266, 337, 267, -1,
          267, 337, 269, -1,
          269, 339, 271, -1,
          337, 339, 269, -1,
          265, 335, 266, -1,
          266, 335, 337, -1,
          270, 336, 268, -1,
          268, 336, 265, -1,
          265, 336, 335, -1,
          339, 341, 271, -1,
          271, 341, 273, -1,
          273, 341, 276, -1,
          272, 338, 270, -1,
          270, 338, 336, -1,
          276, 340, 279, -1,
          341, 340, 276, -1,
          274, 346, 272, -1,
          272, 346, 338, -1,
          340, 351, 279, -1,
          279, 351, 286, -1,
          278, 345, 274, -1,
          274, 345, 346, -1,
          286, 350, 290, -1,
          351, 350, 286, -1,
          288, 352, 282, -1,
          282, 352, 278, -1,
          278, 352, 345, -1,
          290, 354, 294, -1,
          294, 354, 299, -1,
          350, 354, 290, -1,
          292, 358, 288, -1,
          288, 358, 352, -1,
          299, 359, 308, -1,
          354, 359, 299, -1,
          297, 360, 292, -1,
          292, 360, 358, -1,
          297, 364, 360, -1,
          303, 364, 297, -1,
          308, 365, 313, -1,
          359, 365, 308, -1,
          310, 368, 303, -1,
          303, 368, 364, -1,
          313, 425, 316, -1,
          316, 425, 320, -1,
          365, 425, 313, -1,
          314, 423, 310, -1,
          310, 423, 368, -1,
          425, 427, 320, -1,
          320, 427, 329, -1,
          322, 422, 314, -1,
          314, 422, 423, -1,
          322, 420, 422, -1,
          427, 428, 329, -1,
          322, 416, 420, -1,
          332, 416, 322, -1,
          342, 411, 332, -1,
          332, 411, 416, -1,
          329, 430, 355, -1,
          428, 430, 329, -1,
          355, 432, 486, -1,
          430, 432, 355, -1,
          342, 410, 411, -1,
          363, 410, 353, -1,
          353, 410, 342, -1,
          432, 433, 486, -1,
          372, 412, 363, -1,
          363, 412, 410, -1,
          486, 447, 488, -1,
          433, 447, 486, -1,
          383, 397, 378, -1,
          378, 397, 376, -1,
          376, 397, 372, -1,
          372, 397, 412, -1,
          403, 395, 385, -1,
          385, 395, 383, -1,
          383, 395, 397, -1,
          488, 449, 489, -1,
          447, 449, 488, -1,
          402, 396, 403, -1,
          403, 396, 395, -1,
          449, 450, 489, -1,
          489, 450, 490, -1,
          401, 408, 400, -1,
          400, 408, 402, -1,
          402, 408, 396, -1,
          450, 452, 490, -1,
          490, 452, 491, -1,
          401, 406, 408, -1,
          404, 406, 401, -1,
          404, 405, 406, -1,
          405, 436, 406, -1,
          436, 407, 406, -1,
          452, 454, 491, -1,
          491, 454, 492, -1,
          436, 437, 407, -1,
          407, 437, 409, -1,
          492, 455, 493, -1,
          454, 455, 492, -1,
          437, 446, 409, -1,
          455, 457, 493, -1,
          493, 457, 494, -1,
          494, 457, 495, -1,
          446, 445, 409, -1,
          409, 445, 413, -1,
          445, 444, 413, -1,
          495, 469, 477, -1,
          457, 469, 495, -1,
          444, 443, 413, -1,
          413, 443, 415, -1,
          469, 470, 477, -1,
          443, 442, 415, -1,
          415, 442, 414, -1,
          470, 472, 477, -1,
          442, 441, 414, -1,
          414, 441, 417, -1,
          473, 475, 472, -1,
          472, 475, 477, -1,
          441, 440, 417, -1,
          417, 440, 418, -1,
          440, 438, 418, -1,
          418, 438, 419, -1,
          438, 439, 419, -1,
          419, 439, 421, -1,
          439, 484, 421, -1,
          421, 484, 424, -1,
          426, 483, 429, -1,
          484, 483, 424, -1,
          424, 483, 426, -1,
          429, 482, 431, -1,
          431, 482, 448, -1,
          483, 482, 429, -1,
          448, 481, 451, -1,
          482, 481, 448, -1,
          451, 479, 453, -1,
          481, 479, 451, -1,
          453, 480, 456, -1,
          456, 480, 468, -1,
          468, 480, 471, -1,
          471, 480, 474, -1,
          479, 480, 453, -1,
          459, 478, 434, -1,
          480, 497, 474, -1,
          478, 497, 480, -1,
          459, 497, 478, -1,
          946, 947, 948, -1,
          949, 947, 946, -1,
          947, 950, 951, -1,
          952, 953, 949, -1,
          949, 953, 947, -1,
          947, 953, 950, -1,
          954, 955, 952, -1,
          956, 955, 954, -1,
          952, 955, 953, -1,
          953, 957, 958, -1,
          955, 957, 953, -1,
          958, 959, 960, -1,
          957, 959, 958, -1,
          959, 961, 960, -1,
          962, 963, 964, -1,
          964, 965, 966, -1,
          967, 965, 963, -1,
          963, 965, 964, -1,
          966, 968, 969, -1,
          965, 968, 966, -1,
          969, 970, 971, -1,
          968, 970, 969, -1,
          971, 972, 973, -1,
          970, 972, 971, -1,
          972, 974, 973, -1,
          974, 975, 973, -1,
          973, 976, 977, -1,
          977, 976, 978, -1,
          975, 976, 973, -1,
          976, 979, 978, -1,
          979, 980, 978, -1,
          978, 980, 961, -1,
          960, 980, 981, -1,
          961, 980, 960, -1,
          980, 982, 981, -1,
          981, 982, 983, -1,
          982, 984, 983, -1,
          985, 984, 986, -1,
          983, 984, 985, -1,
          986, 987, 988, -1,
          984, 987, 986, -1,
          476, 499, 498, -1,
          485, 499, 476, -1,
          989, 990, 991, -1,
          939, 520, 496, -1,
          506, 948, 944, -1,
          944, 948, 943, -1,
          506, 946, 948, -1,
          502, 946, 504, -1,
          504, 946, 506, -1,
          501, 949, 502, -1,
          502, 949, 946, -1,
          948, 947, 943, -1,
          943, 947, 942, -1,
          501, 952, 949, -1,
          505, 952, 503, -1,
          503, 952, 501, -1,
          942, 951, 941, -1,
          941, 951, 940, -1,
          940, 951, 939, -1,
          947, 951, 942, -1,
          505, 954, 952, -1,
          507, 954, 505, -1,
          951, 950, 939, -1,
          509, 956, 508, -1,
          508, 956, 507, -1,
          507, 956, 954, -1,
          950, 953, 939, -1,
          509, 955, 956, -1,
          511, 955, 510, -1,
          510, 955, 509, -1,
          953, 958, 939, -1,
          512, 957, 511, -1,
          511, 957, 955, -1,
          939, 960, 520, -1,
          958, 960, 939, -1,
          516, 959, 515, -1,
          515, 959, 513, -1,
          513, 959, 512, -1,
          512, 959, 957, -1,
          518, 961, 517, -1,
          517, 961, 516, -1,
          516, 961, 959, -1,
          960, 981, 520, -1,
          519, 978, 518, -1,
          518, 978, 961, -1,
          981, 983, 520, -1,
          519, 977, 978, -1,
          521, 977, 519, -1,
          983, 985, 520, -1,
          521, 973, 977, -1,
          522, 973, 521, -1,
          522, 971, 973, -1,
          523, 971, 522, -1,
          985, 986, 520, -1,
          526, 969, 525, -1,
          523, 969, 971, -1,
          525, 969, 524, -1,
          524, 969, 523, -1,
          500, 532, 514, -1,
          986, 532, 520, -1,
          526, 966, 969, -1,
          528, 966, 527, -1,
          527, 966, 526, -1,
          528, 964, 966, -1,
          531, 964, 530, -1,
          530, 964, 529, -1,
          529, 964, 528, -1,
          534, 962, 533, -1,
          533, 962, 531, -1,
          531, 962, 964, -1,
          535, 963, 534, -1,
          534, 963, 962, -1,
          535, 536, 963, -1,
          536, 967, 963, -1,
          536, 538, 967, -1,
          986, 988, 532, -1,
          532, 988, 514, -1,
          538, 539, 967, -1,
          967, 539, 965, -1,
          539, 540, 965, -1,
          540, 541, 965, -1,
          965, 541, 968, -1,
          541, 542, 968, -1,
          968, 543, 970, -1,
          542, 543, 968, -1,
          543, 546, 970, -1,
          546, 547, 970, -1,
          970, 547, 972, -1,
          972, 548, 974, -1,
          547, 548, 972, -1,
          974, 549, 975, -1,
          548, 549, 974, -1,
          549, 550, 975, -1,
          975, 551, 976, -1,
          550, 551, 975, -1,
          976, 552, 979, -1,
          551, 552, 976, -1,
          552, 553, 979, -1,
          979, 553, 980, -1,
          553, 555, 980, -1,
          980, 555, 982, -1,
          555, 924, 982, -1,
          982, 924, 984, -1,
          924, 987, 984, -1,
          924, 562, 987, -1,
          988, 562, 514, -1,
          987, 562, 988, -1,
          487, 939, 496, -1,
          545, 561, 554, -1,
          559, 561, 545, -1,
          554, 556, 537, -1,
          537, 556, 544, -1,
          561, 989, 554, -1,
          554, 989, 556, -1,
          556, 991, 557, -1,
          989, 991, 556, -1,
          561, 990, 989, -1,
          990, 568, 991, -1,
          991, 568, 557, -1,
          990, 566, 568, -1,
          560, 566, 990, -1,
          561, 560, 990, -1,
          558, 925, 563, -1,
          558, 567, 925, -1,
          564, 926, 565, -1,
          567, 895, 925, -1,
          896, 901, 938, -1,
          761, 667, 926, -1,
          926, 667, 565, -1,
          938, 563, 925, -1,
          564, 938, 901, -1,
          564, 901, 926, -1,
          925, 896, 938, -1,
          992, 993, 994, -1,
          995, 996, 997, -1,
          998, 999, 1000, -1,
          1001, 999, 998, -1,
          997, 999, 1001, -1,
          996, 999, 997, -1,
          1000, 1002, 992, -1,
          999, 1002, 1000, -1,
          1003, 1004, 1005, -1,
          993, 1004, 1003, -1,
          992, 1004, 993, -1,
          1002, 1004, 992, -1,
          1005, 1006, 1007, -1,
          1004, 1006, 1005, -1,
          1008, 1009, 1010, -1,
          1010, 1011, 1012, -1,
          1009, 1011, 1010, -1,
          1011, 1013, 1012, -1,
          1012, 1013, 1014, -1,
          1015, 1016, 1017, -1,
          1014, 1016, 1015, -1,
          1013, 1016, 1014, -1,
          1016, 1018, 1017, -1,
          1018, 1019, 1017, -1,
          1017, 1019, 1020, -1,
          1019, 1021, 1020, -1,
          1021, 1022, 1020, -1,
          1020, 1023, 1006, -1,
          1022, 1023, 1020, -1,
          1023, 1024, 1006, -1,
          1006, 1024, 1007, -1,
          1024, 1025, 1007, -1,
          1026, 1025, 1027, -1,
          1028, 1025, 1026, -1,
          1007, 1025, 1028, -1,
          1025, 1029, 1027, -1,
          1027, 1029, 1030, -1,
          1029, 1031, 1030, -1,
          1030, 1031, 1032, -1,
          1031, 1033, 1032, -1,
          1032, 1033, 1034, -1,
          1034, 1035, 1036, -1,
          1033, 1035, 1034, -1,
          1037, 1038, 1039, -1,
          1039, 1040, 1041, -1,
          1042, 1040, 1038, -1,
          1038, 1040, 1039, -1,
          1041, 1043, 1044, -1,
          1040, 1043, 1041, -1,
          1043, 1045, 1044, -1,
          1044, 1046, 1047, -1,
          1045, 1046, 1044, -1,
          1048, 1049, 1050, -1,
          1051, 1049, 1048, -1,
          1052, 1053, 1054, -1,
          1050, 1053, 1052, -1,
          1049, 1053, 1050, -1,
          1054, 1055, 1056, -1,
          1053, 1055, 1054, -1,
          1055, 1057, 1056, -1,
          1056, 1058, 1059, -1,
          1057, 1058, 1056, -1,
          1058, 1060, 1059, -1,
          1059, 1061, 1062, -1,
          1060, 1061, 1059, -1,
          1061, 1063, 1062, -1,
          1062, 1063, 1046, -1,
          1064, 1063, 1065, -1,
          1066, 1063, 1064, -1,
          1047, 1063, 1066, -1,
          1046, 1063, 1047, -1,
          1063, 1067, 1065, -1,
          1068, 1067, 1069, -1,
          1065, 1067, 1068, -1,
          1067, 1070, 1069, -1,
          1069, 1070, 1071, -1,
          1071, 1072, 1073, -1,
          1070, 1072, 1071, -1,
          1072, 1074, 1073, -1,
          572, 622, 574, -1,
          570, 597, 572, -1,
          572, 597, 622, -1,
          622, 621, 574, -1,
          571, 595, 569, -1,
          569, 595, 570, -1,
          570, 595, 597, -1,
          574, 619, 576, -1,
          621, 619, 574, -1,
          576, 620, 578, -1,
          578, 620, 580, -1,
          619, 620, 576, -1,
          575, 598, 573, -1,
          573, 598, 571, -1,
          571, 598, 595, -1,
          580, 624, 582, -1,
          620, 624, 580, -1,
          575, 599, 598, -1,
          577, 599, 575, -1,
          581, 596, 579, -1,
          579, 596, 577, -1,
          577, 596, 599, -1,
          624, 625, 582, -1,
          582, 625, 584, -1,
          584, 630, 586, -1,
          625, 630, 584, -1,
          583, 600, 581, -1,
          581, 600, 596, -1,
          586, 629, 588, -1,
          630, 629, 586, -1,
          937, 602, 587, -1,
          587, 602, 585, -1,
          585, 602, 583, -1,
          583, 602, 600, -1,
          588, 627, 589, -1,
          629, 627, 588, -1,
          935, 603, 936, -1,
          936, 603, 937, -1,
          937, 603, 602, -1,
          589, 628, 590, -1,
          590, 628, 591, -1,
          627, 628, 589, -1,
          591, 635, 592, -1,
          628, 635, 591, -1,
          934, 615, 935, -1,
          935, 615, 603, -1,
          934, 613, 615, -1,
          932, 613, 933, -1,
          933, 613, 934, -1,
          592, 634, 593, -1,
          635, 634, 592, -1,
          931, 612, 932, -1,
          932, 612, 613, -1,
          593, 632, 594, -1,
          634, 632, 593, -1,
          929, 608, 930, -1,
          930, 608, 931, -1,
          931, 608, 612, -1,
          632, 633, 594, -1,
          594, 633, 601, -1,
          645, 606, 927, -1,
          927, 606, 928, -1,
          928, 606, 929, -1,
          929, 606, 608, -1,
          643, 607, 644, -1,
          644, 607, 645, -1,
          645, 607, 606, -1,
          601, 657, 604, -1,
          633, 657, 601, -1,
          642, 609, 643, -1,
          643, 609, 607, -1,
          657, 656, 604, -1,
          642, 641, 609, -1,
          641, 610, 609, -1,
          604, 655, 605, -1,
          656, 655, 604, -1,
          641, 640, 610, -1,
          655, 654, 605, -1,
          605, 654, 739, -1,
          640, 639, 610, -1,
          610, 639, 611, -1,
          654, 652, 739, -1,
          739, 652, 732, -1,
          639, 636, 611, -1,
          636, 638, 611, -1,
          611, 638, 614, -1,
          652, 653, 732, -1,
          732, 653, 729, -1,
          638, 650, 614, -1,
          614, 650, 616, -1,
          650, 649, 616, -1,
          616, 649, 617, -1,
          653, 665, 729, -1,
          729, 665, 723, -1,
          649, 646, 617, -1,
          617, 646, 618, -1,
          723, 663, 719, -1,
          665, 663, 723, -1,
          646, 648, 618, -1,
          618, 648, 623, -1,
          719, 664, 714, -1,
          663, 664, 719, -1,
          648, 659, 623, -1,
          623, 659, 626, -1,
          714, 671, 710, -1,
          664, 671, 714, -1,
          710, 673, 707, -1,
          671, 673, 710, -1,
          659, 670, 626, -1,
          626, 670, 631, -1,
          707, 676, 688, -1,
          673, 676, 707, -1,
          670, 684, 631, -1,
          631, 684, 651, -1,
          637, 658, 647, -1,
          676, 677, 688, -1,
          677, 680, 688, -1,
          680, 682, 688, -1,
          684, 734, 651, -1,
          651, 734, 662, -1,
          692, 703, 682, -1,
          682, 703, 688, -1,
          658, 668, 660, -1,
          660, 668, 661, -1,
          637, 668, 658, -1,
          668, 674, 661, -1,
          661, 674, 666, -1,
          674, 679, 666, -1,
          666, 679, 669, -1,
          734, 768, 662, -1,
          662, 768, 672, -1,
          679, 685, 669, -1,
          669, 685, 678, -1,
          768, 785, 672, -1,
          785, 791, 672, -1,
          672, 791, 675, -1,
          791, 793, 675, -1,
          675, 793, 681, -1,
          685, 711, 678, -1,
          678, 711, 683, -1,
          681, 774, 691, -1,
          793, 774, 681, -1,
          691, 766, 704, -1,
          774, 766, 691, -1,
          711, 727, 683, -1,
          683, 727, 701, -1,
          704, 759, 715, -1,
          715, 759, 721, -1,
          721, 759, 725, -1,
          766, 759, 704, -1,
          727, 736, 701, -1,
          701, 736, 716, -1,
          725, 752, 749, -1,
          759, 752, 725, -1,
          749, 745, 756, -1,
          752, 745, 749, -1,
          747, 763, 745, -1,
          745, 763, 756, -1,
          736, 744, 716, -1,
          716, 744, 726, -1,
          746, 771, 747, -1,
          747, 771, 763, -1,
          746, 777, 771, -1,
          744, 762, 726, -1,
          726, 762, 733, -1,
          733, 762, 740, -1,
          746, 782, 777, -1,
          753, 787, 746, -1,
          746, 787, 782, -1,
          753, 789, 787, -1,
          762, 773, 740, -1,
          740, 773, 743, -1,
          743, 773, 751, -1,
          760, 805, 753, -1,
          753, 805, 789, -1,
          760, 807, 805, -1,
          765, 809, 760, -1,
          760, 809, 807, -1,
          773, 903, 751, -1,
          751, 903, 755, -1,
          765, 833, 809, -1,
          903, 908, 755, -1,
          755, 908, 767, -1,
          769, 836, 765, -1,
          765, 836, 833, -1,
          908, 907, 767, -1,
          767, 907, 770, -1,
          769, 839, 836, -1,
          907, 906, 770, -1,
          769, 841, 839, -1,
          775, 842, 769, -1,
          769, 842, 841, -1,
          906, 905, 770, -1,
          770, 905, 776, -1,
          776, 905, 779, -1,
          775, 843, 842, -1,
          801, 843, 775, -1,
          779, 904, 781, -1,
          905, 904, 779, -1,
          801, 846, 843, -1,
          904, 893, 781, -1,
          781, 893, 784, -1,
          801, 848, 846, -1,
          803, 848, 801, -1,
          784, 891, 786, -1,
          893, 891, 784, -1,
          803, 850, 848, -1,
          891, 889, 786, -1,
          803, 851, 850, -1,
          889, 887, 786, -1,
          786, 887, 790, -1,
          803, 854, 851, -1,
          798, 854, 803, -1,
          887, 884, 790, -1,
          790, 884, 792, -1,
          798, 856, 854, -1,
          798, 858, 856, -1,
          884, 882, 792, -1,
          792, 882, 794, -1,
          798, 860, 858, -1,
          795, 860, 798, -1,
          794, 881, 799, -1,
          882, 881, 794, -1,
          795, 861, 860, -1,
          881, 878, 799, -1,
          799, 878, 800, -1,
          797, 863, 795, -1,
          795, 863, 861, -1,
          878, 877, 800, -1,
          800, 877, 804, -1,
          797, 866, 863, -1,
          797, 868, 866, -1,
          796, 868, 797, -1,
          877, 875, 804, -1,
          804, 875, 802, -1,
          796, 869, 868, -1,
          875, 873, 802, -1,
          796, 870, 869, -1,
          873, 870, 802, -1,
          802, 870, 796, -1,
          1075, 1076, 1077, -1,
          1077, 1076, 1078, -1,
          1079, 1080, 1078, -1,
          1078, 1080, 1077, -1,
          1081, 1082, 1079, -1,
          1079, 1082, 1080, -1,
          1082, 1081, 1075, -1,
          1075, 1081, 1076, -1,
          690, 1000, 694, -1,
          694, 1000, 696, -1,
          690, 998, 1000, -1,
          687, 998, 690, -1,
          693, 1001, 689, -1,
          689, 1001, 686, -1,
          686, 1001, 687, -1,
          687, 1001, 998, -1,
          1000, 992, 696, -1,
          696, 992, 698, -1,
          698, 994, 700, -1,
          992, 994, 698, -1,
          697, 997, 695, -1,
          695, 997, 693, -1,
          693, 997, 1001, -1,
          994, 993, 700, -1,
          700, 993, 706, -1,
          706, 993, 709, -1,
          697, 995, 997, -1,
          702, 995, 699, -1,
          699, 995, 697, -1,
          709, 1003, 713, -1,
          993, 1003, 709, -1,
          708, 996, 705, -1,
          705, 996, 702, -1,
          702, 996, 995, -1,
          717, 999, 712, -1,
          712, 999, 708, -1,
          708, 999, 996, -1,
          1003, 1005, 713, -1,
          713, 1005, 718, -1,
          1005, 1007, 718, -1,
          718, 1007, 722, -1,
          724, 1002, 720, -1,
          720, 1002, 717, -1,
          717, 1002, 999, -1,
          722, 1028, 728, -1,
          1007, 1028, 722, -1,
          728, 1026, 731, -1,
          1028, 1026, 728, -1,
          730, 1004, 724, -1,
          724, 1004, 1002, -1,
          731, 1027, 738, -1,
          1026, 1027, 731, -1,
          735, 1006, 730, -1,
          737, 1006, 735, -1,
          730, 1006, 1004, -1,
          1027, 1030, 738, -1,
          738, 1030, 748, -1,
          742, 1020, 741, -1,
          741, 1020, 737, -1,
          737, 1020, 1006, -1,
          742, 1017, 1020, -1,
          754, 1017, 750, -1,
          750, 1017, 742, -1,
          1030, 1032, 748, -1,
          748, 1032, 758, -1,
          754, 1015, 1017, -1,
          764, 1015, 757, -1,
          757, 1015, 754, -1,
          764, 1014, 1015, -1,
          772, 1014, 764, -1,
          772, 1012, 1014, -1,
          780, 1012, 778, -1,
          778, 1012, 772, -1,
          780, 1010, 1012, -1,
          806, 1010, 788, -1,
          788, 1010, 783, -1,
          783, 1010, 780, -1,
          1032, 1034, 758, -1,
          806, 1008, 1010, -1,
          808, 1008, 806, -1,
          808, 810, 1008, -1,
          810, 1009, 1008, -1,
          810, 827, 1009, -1,
          827, 1011, 1009, -1,
          827, 823, 1011, -1,
          823, 822, 1011, -1,
          1011, 817, 1013, -1,
          822, 817, 1011, -1,
          817, 815, 1013, -1,
          1013, 812, 1016, -1,
          815, 812, 1013, -1,
          812, 814, 1016, -1,
          1016, 819, 1018, -1,
          814, 819, 1016, -1,
          1034, 1036, 758, -1,
          819, 825, 1018, -1,
          1036, 811, 758, -1,
          1018, 829, 1019, -1,
          825, 829, 1018, -1,
          1019, 832, 1021, -1,
          1021, 832, 1022, -1,
          1022, 832, 1023, -1,
          1023, 832, 1024, -1,
          1024, 832, 1025, -1,
          829, 832, 1019, -1,
          831, 1037, 835, -1,
          1037, 1039, 835, -1,
          831, 1038, 1037, -1,
          824, 1038, 828, -1,
          828, 1038, 831, -1,
          1039, 1041, 835, -1,
          824, 1042, 1038, -1,
          818, 1042, 820, -1,
          820, 1042, 824, -1,
          1041, 1044, 835, -1,
          835, 1044, 832, -1,
          818, 1040, 1042, -1,
          816, 1040, 813, -1,
          813, 1040, 818, -1,
          832, 1047, 1025, -1,
          1044, 1047, 832, -1,
          816, 1043, 1040, -1,
          821, 1043, 816, -1,
          821, 1045, 1043, -1,
          830, 1045, 826, -1,
          826, 1045, 821, -1,
          1025, 1066, 1029, -1,
          1047, 1066, 1025, -1,
          1029, 1064, 1031, -1,
          1066, 1064, 1029, -1,
          830, 1046, 1045, -1,
          838, 1046, 837, -1,
          837, 1046, 834, -1,
          834, 1046, 830, -1,
          1064, 1065, 1031, -1,
          844, 1062, 840, -1,
          840, 1062, 838, -1,
          838, 1062, 1046, -1,
          1031, 1068, 1033, -1,
          1065, 1068, 1031, -1,
          844, 1059, 1062, -1,
          847, 1059, 845, -1,
          845, 1059, 844, -1,
          1068, 1069, 1033, -1,
          847, 1056, 1059, -1,
          849, 1056, 847, -1,
          849, 1054, 1056, -1,
          855, 1054, 853, -1,
          853, 1054, 852, -1,
          852, 1054, 849, -1,
          859, 1052, 857, -1,
          857, 1052, 855, -1,
          855, 1052, 1054, -1,
          1069, 1071, 1033, -1,
          864, 1050, 862, -1,
          862, 1050, 859, -1,
          859, 1050, 1052, -1,
          864, 1048, 1050, -1,
          872, 1048, 871, -1,
          871, 1048, 867, -1,
          867, 1048, 865, -1,
          865, 1048, 864, -1,
          874, 1051, 872, -1,
          872, 1051, 1048, -1,
          874, 876, 1051, -1,
          1036, 1035, 811, -1,
          1071, 1035, 1033, -1,
          876, 879, 1051, -1,
          1051, 879, 1049, -1,
          879, 880, 1049, -1,
          880, 883, 1049, -1,
          1049, 883, 1053, -1,
          883, 885, 1053, -1,
          885, 886, 1053, -1,
          1053, 886, 1055, -1,
          1071, 1073, 1035, -1,
          886, 888, 1055, -1,
          1055, 888, 1057, -1,
          888, 890, 1057, -1,
          1057, 890, 1058, -1,
          890, 892, 1058, -1,
          892, 900, 1058, -1,
          1058, 900, 1060, -1,
          900, 899, 1060, -1,
          1060, 899, 1061, -1,
          1061, 899, 1063, -1,
          899, 897, 1063, -1,
          1063, 897, 1067, -1,
          1067, 897, 1070, -1,
          897, 898, 1070, -1,
          1070, 898, 1072, -1,
          898, 1074, 1072, -1,
          1073, 902, 1035, -1,
          898, 902, 1074, -1,
          1074, 902, 1073, -1,
          1035, 902, 811, -1,
          1083, 1084, 1085, -1,
          1083, 1085, 1086, -1,
          1081, 1084, 1083, -1,
          1081, 1083, 1076, -1,
          1076, 1083, 1086, -1,
          1076, 1086, 1078, -1,
          1084, 1081, 1079, -1,
          1084, 1079, 1085, -1,
          1085, 1078, 1086, -1,
          1085, 1079, 1078, -1,
          1080, 0, 1077, -1,
          1077, 0, 2, -1,
          1080, 1082, 0, -1,
          1082, 3, 0, -1,
          2, 894, 1077, -1,
          894, 1075, 1077, -1,
          3, 1082, 894, -1,
          894, 1082, 1075, -1
        ]
      }
    }
}
