#VRML V2.0 utf8
WorldInfo {
  title "Exported triangle mesh to VRML97"
  info ["Created by FreeCAD"
        "<https://www.freecad.org>"]
}

Transform {
  scale 1 1 1
  rotation 0 0 1 0
  scaleOrientation 0 0 1 0
  center 0.000 0.000 0.000
  translation 0.000 0.000 0.000
  children
    Shape { 
      appearance
      Appearance {
        material
        Material {
          diffuseColor 0.8 0.8 0.8
        }
      }
      geometry
      IndexedFaceSet {
        coord
        Coordinate {
          point [
            -0.276 6.147 0.109,
            -0.290 6.343 0.306,
            0.000 6.350 0.306,
            0.000 6.153 0.109,
            -0.553 6.128 0.109,
            -0.581 6.323 0.305,
            -0.835 6.096 0.109,
            -0.871 6.290 0.305,
            -1.117 6.050 0.108,
            -1.161 6.243 0.305,
            -1.395 5.992 0.108,
            -1.448 6.183 0.304,
            -1.671 5.922 0.107,
            -1.734 6.109 0.304,
            -1.934 6.048 0.303,
            -1.943 5.838 0.106,
            -2.145 5.977 0.302,
            -2.211 5.742 0.106,
            -2.353 5.898 0.302,
            -2.473 5.634 0.105,
            -2.552 5.815 0.301,
            -2.745 5.726 0.300,
            -2.730 5.514 0.104,
            -2.937 5.630 0.300,
            -2.982 5.382 0.102,
            -3.127 5.527 0.299,
            -3.228 5.238 0.101,
            -3.314 5.416 0.298,
            -3.500 5.299 0.297,
            -3.466 5.083 0.100,
            -3.682 5.174 0.296,
            -3.698 4.917 0.098,
            -3.861 5.041 0.295,
            -3.922 4.741 0.097,
            -4.027 4.910 0.293,
            -4.181 4.780 0.292,
            -4.137 4.555 0.095,
            -4.331 4.644 0.291,
            -4.342 4.359 0.093,
            -4.478 4.502 0.290,
            -4.611 4.366 0.289,
            -4.538 4.154 0.092,
            -4.740 4.225 0.288,
            -4.725 3.940 0.090,
            -4.867 4.078 0.286,
            -4.991 3.926 0.285,
            -4.902 3.717 0.088,
            -5.112 3.768 0.284,
            -5.069 3.486 0.086,
            -5.228 3.604 0.282,
            -5.336 3.443 0.281,
            -5.225 3.248 0.084,
            -5.435 3.283 0.280,
            -5.369 3.003 0.082,
            -5.532 3.118 0.278,
            -5.625 2.946 0.277,
            -5.503 2.751 0.079,
            -5.715 2.768 0.275,
            -5.624 2.495 0.077,
            -5.800 2.584 0.274,
            -5.879 2.400 0.272,
            -5.733 2.233 0.075,
            -5.945 2.233 0.271,
            -5.830 1.966 0.073,
            -6.007 2.058 0.269,
            -6.067 1.874 0.268,
            -5.914 1.694 0.070,
            -6.123 1.683 0.266,
            -5.986 1.418 0.068,
            -6.174 1.484 0.265,
            -6.220 1.276 0.263,
            -6.045 1.140 0.065,
            -6.258 1.076 0.261,
            -6.091 0.859 0.063,
            -6.297 0.824 0.259,
            -6.124 0.576 0.060,
            -6.329 0.525 0.256,
            -6.145 0.293 0.058,
            -6.344 0.275 0.254,
            -6.152 0.009 0.055,
            -6.350 -0.000 0.252,
            -6.145 -0.275 0.053,
            -6.343 -0.309 0.249,
            -6.126 -0.558 0.051,
            -6.323 -0.586 0.247,
            -6.300 -0.796 0.245,
            -6.093 -0.841 0.048,
            -6.269 -1.013 0.243,
            -6.047 -1.122 0.046,
            -6.232 -1.217 0.242,
            -5.989 -1.401 0.043,
            -6.171 -1.496 0.239,
            -5.918 -1.677 0.041,
            -6.098 -1.773 0.237,
            -6.036 -1.971 0.235,
            -5.834 -1.948 0.038,
            -5.972 -2.159 0.234,
            -5.738 -2.216 0.036,
            -5.904 -2.338 0.232,
            -5.630 -2.478 0.034,
            -5.827 -2.523 0.231,
            -5.739 -2.719 0.229,
            -5.509 -2.735 0.032,
            -5.645 -2.907 0.227,
            -5.377 -2.987 0.029,
            -5.548 -3.089 0.226,
            -5.447 -3.264 0.224,
            -5.232 -3.232 0.027,
            -5.343 -3.432 0.223,
            -5.077 -3.471 0.025,
            -5.231 -3.600 0.222,
            -5.108 -3.773 0.220,
            -4.911 -3.702 0.023,
            -4.981 -3.939 0.219,
            -4.735 -3.925 0.021,
            -4.850 -4.098 0.217,
            -4.548 -4.140 0.019,
            -4.716 -4.252 0.216,
            -4.580 -4.399 0.215,
            -4.352 -4.346 0.017,
            -4.436 -4.544 0.214,
            -4.147 -4.542 0.016,
            -4.280 -4.691 0.212,
            -4.121 -4.831 0.211,
            -3.933 -4.728 0.014,
            -3.959 -4.965 0.210,
            -3.710 -4.905 0.013,
            -3.793 -5.093 0.209,
            -3.479 -5.071 0.011,
            -3.624 -5.214 0.208,
            -3.453 -5.329 0.207,
            -3.240 -5.227 0.010,
            -3.280 -5.438 0.206,
            -2.995 -5.371 0.009,
            -3.104 -5.540 0.205,
            -2.926 -5.636 0.204,
            -2.743 -5.504 0.007,
            -2.747 -5.725 0.204,
            -2.486 -5.625 0.006,
            -2.567 -5.808 0.203,
            -2.382 -5.886 0.202,
            -2.224 -5.734 0.005,
            -2.188 -5.961 0.202,
            -1.957 -5.830 0.005,
            -1.992 -6.029 0.201,
            -1.794 -6.091 0.200,
            -1.685 -5.915 0.004,
            -1.594 -6.146 0.200,
            -1.409 -5.986 0.003,
            -1.394 -6.195 0.200,
            -1.131 -6.045 0.003,
            -1.192 -6.237 0.199,
            -0.989 -6.272 0.199,
            -0.851 -6.091 0.002,
            -0.786 -6.301 0.199,
            -0.568 -6.124 0.002,
            -0.582 -6.323 0.199,
            -0.379 -6.339 0.198,
            -0.284 -6.143 0.002,
            -0.189 -6.347 0.198,
            0.000 -6.150 0.002,
            0.000 -6.350 0.198,
            -6.142 0.307 3.000,
            -6.350 0.000 2.800,
            -6.150 0.000 3.000,
            -6.342 0.317 2.800,
            -6.119 0.612 3.000,
            -6.318 0.632 2.800,
            -6.081 0.917 3.000,
            -6.279 0.946 2.800,
            -6.028 1.219 3.000,
            -6.224 1.258 2.800,
            -5.960 1.518 3.000,
            -6.154 1.567 2.800,
            -5.877 1.813 3.000,
            -6.068 1.872 2.800,
            -5.779 2.103 3.000,
            -5.967 2.172 2.800,
            -5.667 2.389 3.000,
            -5.851 2.467 2.800,
            -5.541 2.668 3.000,
            -5.721 2.755 2.800,
            -5.401 2.941 3.000,
            -5.577 3.037 2.800,
            -5.248 3.207 3.000,
            -5.418 3.311 2.800,
            -5.081 3.464 3.000,
            -5.247 3.577 2.800,
            -4.902 3.713 3.000,
            -5.062 3.834 2.800,
            -4.711 3.953 3.000,
            -4.864 4.082 2.800,
            -4.508 4.183 3.000,
            -4.655 4.319 2.800,
            -4.294 4.403 3.000,
            -4.434 4.546 2.800,
            -4.069 4.611 3.000,
            -4.202 4.761 2.800,
            -3.834 4.808 3.000,
            -3.959 4.965 2.800,
            -3.590 4.993 3.000,
            -3.707 5.156 2.800,
            -3.337 5.166 3.000,
            -3.445 5.334 2.800,
            -3.075 5.326 3.000,
            -3.175 5.499 2.800,
            -2.806 5.473 3.000,
            -2.897 5.651 2.800,
            -2.529 5.606 3.000,
            -2.612 5.788 2.800,
            -2.247 5.725 3.000,
            -2.320 5.911 2.800,
            -1.959 5.830 3.000,
            -2.022 6.019 2.800,
            -1.666 5.920 3.000,
            -1.720 6.113 2.800,
            -1.369 5.996 3.000,
            -1.413 6.191 2.800,
            -1.068 6.057 3.000,
            -1.103 6.254 2.800,
            -0.790 6.301 2.800,
            -0.765 6.102 3.000,
            -0.460 6.133 3.000,
            -0.475 6.332 2.800,
            -0.153 6.148 3.000,
            -0.158 6.348 2.800,
            0.158 6.348 2.800,
            0.153 6.148 3.000,
            0.460 6.133 3.000,
            0.475 6.332 2.800,
            0.765 6.102 3.000,
            0.790 6.301 2.800,
            1.068 6.057 3.000,
            1.103 6.254 2.800,
            1.413 6.191 2.800,
            1.369 5.996 3.000,
            1.666 5.920 3.000,
            1.720 6.113 2.800,
            1.959 5.830 3.000,
            2.022 6.019 2.800,
            2.320 5.911 2.800,
            2.247 5.725 3.000,
            2.612 5.788 2.800,
            2.529 5.606 3.000,
            2.806 5.473 3.000,
            2.897 5.651 2.800,
            3.075 5.326 3.000,
            3.175 5.499 2.800,
            3.445 5.334 2.800,
            3.337 5.166 3.000,
            3.590 4.993 3.000,
            3.707 5.156 2.800,
            3.959 4.965 2.800,
            3.834 4.808 3.000,
            4.069 4.611 3.000,
            4.202 4.761 2.800,
            4.434 4.546 2.800,
            4.294 4.403 3.000,
            4.508 4.183 3.000,
            4.655 4.319 2.800,
            4.711 3.953 3.000,
            4.864 4.082 2.800,
            4.902 3.713 3.000,
            5.062 3.834 2.800,
            5.247 3.577 2.800,
            5.081 3.464 3.000,
            5.248 3.207 3.000,
            5.418 3.311 2.800,
            5.401 2.941 3.000,
            5.577 3.037 2.800,
            5.541 2.668 3.000,
            5.721 2.755 2.800,
            5.667 2.389 3.000,
            5.851 2.467 2.800,
            5.779 2.103 3.000,
            5.967 2.172 2.800,
            5.877 1.813 3.000,
            6.068 1.872 2.800,
            5.960 1.518 3.000,
            6.154 1.567 2.800,
            6.224 1.258 2.800,
            6.028 1.219 3.000,
            6.081 0.917 3.000,
            6.279 0.946 2.800,
            6.119 0.612 3.000,
            6.318 0.632 2.800,
            6.342 0.317 2.800,
            6.142 0.307 3.000,
            6.150 0.000 3.000,
            6.350 0.000 2.800,
            0.189 6.347 0.306,
            0.379 6.339 0.306,
            0.582 6.323 0.305,
            0.786 6.301 0.305,
            0.989 6.272 0.305,
            1.192 6.237 0.305,
            1.394 6.195 0.304,
            1.594 6.146 0.304,
            1.794 6.091 0.303,
            1.992 6.029 0.303,
            2.188 5.961 0.302,
            2.382 5.886 0.302,
            2.567 5.808 0.301,
            2.747 5.725 0.300,
            2.926 5.636 0.300,
            3.104 5.540 0.299,
            3.280 5.438 0.298,
            3.453 5.329 0.297,
            3.624 5.214 0.296,
            3.793 5.093 0.295,
            3.959 4.965 0.294,
            4.121 4.831 0.293,
            4.280 4.691 0.292,
            4.436 4.544 0.290,
            4.580 4.399 0.289,
            4.716 4.252 0.288,
            4.850 4.098 0.287,
            4.981 3.939 0.285,
            5.108 3.773 0.284,
            5.231 3.600 0.282,
            5.343 3.432 0.281,
            5.447 3.264 0.280,
            5.548 3.089 0.278,
            5.645 2.907 0.277,
            5.739 2.719 0.275,
            5.827 2.523 0.273,
            5.904 2.338 0.272,
            5.972 2.159 0.270,
            6.036 1.971 0.269,
            6.098 1.773 0.267,
            6.171 1.496 0.265,
            6.232 1.217 0.262,
            6.269 1.013 0.261,
            6.300 0.796 0.259,
            6.323 0.586 0.257,
            6.343 0.309 0.255,
            6.350 0.000 0.252,
            6.344 -0.275 0.250,
            6.342 -0.317 2.800,
            6.329 -0.525 0.248,
            6.318 -0.632 2.800,
            6.297 -0.824 0.245,
            6.279 -0.946 2.800,
            6.258 -1.076 0.243,
            6.224 -1.258 2.800,
            6.220 -1.276 0.241,
            6.174 -1.484 0.239,
            6.154 -1.567 2.800,
            6.123 -1.683 0.238,
            6.068 -1.872 2.800,
            6.067 -1.875 0.236,
            6.007 -2.058 0.235,
            5.967 -2.172 2.800,
            5.945 -2.233 0.233,
            5.879 -2.400 0.232,
            5.851 -2.467 2.800,
            5.800 -2.584 0.230,
            5.721 -2.755 2.800,
            5.715 -2.768 0.229,
            5.625 -2.946 0.227,
            5.577 -3.037 2.800,
            5.532 -3.118 0.226,
            5.418 -3.311 2.800,
            5.435 -3.284 0.224,
            5.336 -3.443 0.223,
            5.247 -3.577 2.800,
            5.228 -3.604 0.221,
            5.111 -3.768 0.220,
            5.062 -3.834 2.800,
            4.991 -3.926 0.219,
            4.864 -4.082 2.800,
            4.867 -4.079 0.217,
            4.740 -4.225 0.216,
            4.655 -4.319 2.800,
            4.611 -4.366 0.215,
            4.434 -4.546 2.800,
            4.478 -4.502 0.214,
            4.331 -4.644 0.213,
            4.202 -4.761 2.800,
            4.180 -4.780 0.212,
            4.027 -4.910 0.210,
            3.959 -4.965 2.800,
            3.861 -5.041 0.209,
            3.707 -5.156 2.800,
            3.682 -5.174 0.208,
            3.499 -5.299 0.207,
            3.445 -5.334 2.800,
            3.314 -5.416 0.206,
            3.175 -5.499 2.800,
            3.127 -5.527 0.205,
            2.897 -5.651 2.800,
            2.937 -5.630 0.204,
            2.745 -5.726 0.204,
            2.612 -5.788 2.800,
            2.552 -5.815 0.203,
            2.320 -5.911 2.800,
            2.353 -5.898 0.202,
            2.145 -5.977 0.201,
            2.022 -6.019 2.800,
            1.934 -6.048 0.201,
            1.720 -6.113 2.800,
            1.734 -6.109 0.200,
            1.448 -6.183 0.200,
            1.413 -6.191 2.800,
            1.161 -6.243 0.199,
            1.103 -6.254 2.800,
            0.871 -6.290 0.199,
            0.790 -6.301 2.800,
            0.581 -6.323 0.199,
            0.475 -6.332 2.800,
            0.290 -6.343 0.198,
            0.158 -6.348 2.800,
            -0.158 -6.348 2.800,
            -0.475 -6.332 2.800,
            -0.790 -6.301 2.800,
            -1.103 -6.254 2.800,
            -1.413 -6.191 2.800,
            -1.720 -6.113 2.800,
            -2.022 -6.019 2.800,
            -2.320 -5.911 2.800,
            -2.612 -5.788 2.800,
            -2.897 -5.651 2.800,
            -3.175 -5.499 2.800,
            -3.445 -5.334 2.800,
            -3.707 -5.156 2.800,
            -3.959 -4.965 2.800,
            -4.202 -4.761 2.800,
            -4.434 -4.546 2.800,
            -4.655 -4.319 2.800,
            -4.864 -4.082 2.800,
            -5.062 -3.834 2.800,
            -5.247 -3.577 2.800,
            -5.418 -3.311 2.800,
            -5.577 -3.037 2.800,
            -5.721 -2.755 2.800,
            -5.851 -2.467 2.800,
            -5.967 -2.172 2.800,
            -6.068 -1.872 2.800,
            -6.154 -1.567 2.800,
            -6.224 -1.258 2.800,
            -6.279 -0.946 2.800,
            -6.318 -0.632 2.800,
            -6.342 -0.317 2.800,
            -4.902 -3.713 3.000,
            -4.711 -3.953 3.000,
            -4.508 -4.183 3.000,
            -4.294 -4.403 3.000,
            -5.248 -3.207 3.000,
            -5.081 -3.464 3.000,
            -4.069 -4.611 3.000,
            -3.834 -4.808 3.000,
            -2.806 -5.473 3.000,
            -3.590 -4.993 3.000,
            -3.337 -5.166 3.000,
            -3.075 -5.326 3.000,
            -5.541 -2.668 3.000,
            -5.401 -2.941 3.000,
            -2.247 -5.725 3.000,
            -2.529 -5.606 3.000,
            -1.369 -5.996 3.000,
            -1.959 -5.830 3.000,
            -1.666 -5.920 3.000,
            -6.028 -1.219 3.000,
            -5.960 -1.518 3.000,
            -5.877 -1.813 3.000,
            -0.765 -6.102 3.000,
            -1.068 -6.057 3.000,
            -6.119 -0.612 3.000,
            -6.081 -0.917 3.000,
            -5.779 -2.103 3.000,
            -5.667 -2.389 3.000,
            -6.142 -0.307 3.000,
            0.153 -6.148 3.000,
            -0.460 -6.133 3.000,
            -0.153 -6.148 3.000,
            0.765 -6.102 3.000,
            0.460 -6.133 3.000,
            1.666 -5.920 3.000,
            1.068 -6.057 3.000,
            1.369 -5.996 3.000,
            2.247 -5.725 3.000,
            1.959 -5.830 3.000,
            2.806 -5.473 3.000,
            2.529 -5.606 3.000,
            3.337 -5.166 3.000,
            3.075 -5.326 3.000,
            3.590 -4.993 3.000,
            3.834 -4.808 3.000,
            4.069 -4.611 3.000,
            4.508 -4.183 3.000,
            4.294 -4.403 3.000,
            5.081 -3.464 3.000,
            4.711 -3.953 3.000,
            4.902 -3.713 3.000,
            5.401 -2.941 3.000,
            5.248 -3.207 3.000,
            5.667 -2.389 3.000,
            5.541 -2.668 3.000,
            5.877 -1.813 3.000,
            5.779 -2.103 3.000,
            6.142 -0.307 3.000,
            5.960 -1.518 3.000,
            6.028 -1.219 3.000,
            6.081 -0.917 3.000,
            6.119 -0.612 3.000,
            0.282 6.147 0.109,
            0.565 6.127 0.109,
            0.846 6.094 0.109,
            1.126 6.049 0.108,
            2.214 5.741 0.106,
            2.731 5.514 0.104,
            1.948 5.837 0.106,
            2.475 5.634 0.105,
            2.982 5.382 0.102,
            1.677 5.920 0.107,
            3.226 5.239 0.101,
            1.403 5.991 0.108,
            3.464 5.085 0.100,
            4.336 4.365 0.094,
            4.532 4.162 0.092,
            4.131 4.560 0.095,
            4.718 3.949 0.090,
            3.917 4.745 0.097,
            4.894 3.727 0.088,
            3.694 4.920 0.098,
            5.061 3.498 0.086,
            5.616 2.512 0.077,
            5.822 1.987 0.073,
            5.494 2.768 0.080,
            5.725 2.252 0.075,
            5.907 1.717 0.070,
            5.361 3.017 0.082,
            5.980 1.443 0.068,
            5.216 3.261 0.084,
            6.040 1.166 0.066,
            0.181 -6.147 0.002,
            6.152 0.041 0.056,
            6.147 -0.242 0.053,
            6.143 0.323 0.058,
            0.362 -6.139 0.002,
            6.129 -0.524 0.051,
            6.122 0.605 0.061,
            6.098 -0.805 0.048,
            6.087 0.886 0.063,
            6.054 -1.085 0.046,
            0.925 -6.080 0.002,
            1.479 -5.970 0.003,
            1.203 -6.031 0.003,
            0.644 -6.116 0.002,
            2.022 -5.808 0.005,
            2.546 -5.598 0.007,
            2.287 -5.709 0.006,
            5.753 -2.176 0.036,
            5.529 -2.694 0.032,
            5.847 -1.909 0.039,
            5.647 -2.437 0.034,
            2.801 -5.475 0.008,
            5.399 -2.946 0.030,
            5.929 -1.638 0.041,
            1.752 -5.895 0.004,
            3.050 -5.340 0.009,
            5.258 -3.191 0.028,
            5.998 -1.363 0.044,
            3.293 -5.194 0.010,
            5.105 -3.430 0.025,
            3.528 -5.037 0.011,
            4.941 -3.661 0.023,
            3.757 -4.869 0.013,
            4.768 -3.885 0.022,
            3.977 -4.691 0.014,
            4.584 -4.100 0.020,
            4.189 -4.503 0.016,
            4.391 -4.307 0.018
          ]
        }
        coordIndex [
          0, 1, 2, -1,
          0, 2, 3, -1,
          4, 5, 1, -1,
          4, 1, 0, -1,
          6, 7, 5, -1,
          6, 5, 4, -1,
          8, 9, 7, -1,
          8, 7, 6, -1,
          10, 11, 9, -1,
          10, 9, 8, -1,
          12, 13, 11, -1,
          12, 14, 13, -1,
          12, 11, 10, -1,
          15, 16, 14, -1,
          15, 14, 12, -1,
          17, 18, 16, -1,
          17, 16, 15, -1,
          19, 18, 17, -1,
          19, 20, 18, -1,
          19, 21, 20, -1,
          22, 21, 19, -1,
          22, 23, 21, -1,
          24, 23, 22, -1,
          24, 25, 23, -1,
          26, 27, 25, -1,
          26, 28, 27, -1,
          26, 25, 24, -1,
          29, 30, 28, -1,
          29, 28, 26, -1,
          31, 32, 30, -1,
          31, 30, 29, -1,
          33, 34, 32, -1,
          33, 35, 34, -1,
          33, 32, 31, -1,
          36, 37, 35, -1,
          36, 35, 33, -1,
          38, 39, 37, -1,
          38, 40, 39, -1,
          38, 37, 36, -1,
          41, 42, 40, -1,
          41, 40, 38, -1,
          43, 44, 42, -1,
          43, 45, 44, -1,
          43, 42, 41, -1,
          46, 47, 45, -1,
          46, 45, 43, -1,
          48, 49, 47, -1,
          48, 50, 49, -1,
          48, 47, 46, -1,
          51, 52, 50, -1,
          51, 50, 48, -1,
          53, 54, 52, -1,
          53, 55, 54, -1,
          53, 52, 51, -1,
          56, 57, 55, -1,
          56, 55, 53, -1,
          58, 59, 57, -1,
          58, 60, 59, -1,
          58, 57, 56, -1,
          61, 62, 60, -1,
          61, 60, 58, -1,
          63, 64, 62, -1,
          63, 65, 64, -1,
          63, 62, 61, -1,
          66, 67, 65, -1,
          66, 65, 63, -1,
          68, 69, 67, -1,
          68, 70, 69, -1,
          68, 67, 66, -1,
          71, 72, 70, -1,
          71, 70, 68, -1,
          73, 72, 71, -1,
          73, 74, 72, -1,
          75, 74, 73, -1,
          75, 76, 74, -1,
          77, 76, 75, -1,
          77, 78, 76, -1,
          79, 78, 77, -1,
          79, 80, 78, -1,
          81, 82, 80, -1,
          81, 80, 79, -1,
          83, 84, 82, -1,
          83, 85, 84, -1,
          83, 82, 81, -1,
          86, 87, 85, -1,
          86, 85, 83, -1,
          88, 89, 87, -1,
          88, 87, 86, -1,
          90, 91, 89, -1,
          90, 89, 88, -1,
          92, 93, 91, -1,
          92, 94, 93, -1,
          92, 91, 90, -1,
          95, 96, 94, -1,
          95, 94, 92, -1,
          97, 98, 96, -1,
          97, 96, 95, -1,
          99, 100, 98, -1,
          99, 101, 100, -1,
          99, 98, 97, -1,
          102, 103, 101, -1,
          102, 101, 99, -1,
          104, 105, 103, -1,
          104, 106, 105, -1,
          104, 103, 102, -1,
          107, 108, 106, -1,
          107, 106, 104, -1,
          109, 110, 108, -1,
          109, 111, 110, -1,
          109, 108, 107, -1,
          112, 113, 111, -1,
          112, 111, 109, -1,
          114, 115, 113, -1,
          114, 113, 112, -1,
          116, 117, 115, -1,
          116, 118, 117, -1,
          116, 115, 114, -1,
          119, 120, 118, -1,
          119, 118, 116, -1,
          121, 122, 120, -1,
          121, 123, 122, -1,
          121, 120, 119, -1,
          124, 123, 121, -1,
          124, 125, 123, -1,
          126, 125, 124, -1,
          126, 127, 125, -1,
          128, 127, 126, -1,
          128, 129, 127, -1,
          128, 130, 129, -1,
          131, 130, 128, -1,
          131, 132, 130, -1,
          133, 132, 131, -1,
          133, 134, 132, -1,
          133, 135, 134, -1,
          136, 135, 133, -1,
          136, 137, 135, -1,
          138, 137, 136, -1,
          138, 139, 137, -1,
          138, 140, 139, -1,
          141, 140, 138, -1,
          141, 142, 140, -1,
          143, 142, 141, -1,
          143, 144, 142, -1,
          143, 145, 144, -1,
          146, 145, 143, -1,
          146, 147, 145, -1,
          148, 149, 147, -1,
          148, 147, 146, -1,
          150, 151, 149, -1,
          150, 152, 151, -1,
          150, 149, 148, -1,
          153, 154, 152, -1,
          153, 152, 150, -1,
          155, 156, 154, -1,
          155, 157, 156, -1,
          155, 154, 153, -1,
          158, 159, 157, -1,
          158, 157, 155, -1,
          160, 161, 159, -1,
          160, 159, 158, -1,
          162, 163, 164, -1,
          165, 163, 162, -1,
          166, 165, 162, -1,
          167, 165, 166, -1,
          168, 167, 166, -1,
          169, 167, 168, -1,
          170, 169, 168, -1,
          171, 169, 170, -1,
          172, 171, 170, -1,
          173, 171, 172, -1,
          174, 173, 172, -1,
          175, 173, 174, -1,
          176, 175, 174, -1,
          177, 175, 176, -1,
          178, 177, 176, -1,
          179, 177, 178, -1,
          180, 179, 178, -1,
          181, 179, 180, -1,
          182, 181, 180, -1,
          183, 181, 182, -1,
          184, 183, 182, -1,
          185, 183, 184, -1,
          186, 185, 184, -1,
          187, 185, 186, -1,
          188, 187, 186, -1,
          189, 187, 188, -1,
          190, 189, 188, -1,
          191, 189, 190, -1,
          192, 191, 190, -1,
          193, 191, 192, -1,
          194, 193, 192, -1,
          195, 193, 194, -1,
          196, 195, 194, -1,
          197, 195, 196, -1,
          198, 197, 196, -1,
          199, 197, 198, -1,
          200, 199, 198, -1,
          201, 199, 200, -1,
          202, 201, 200, -1,
          203, 201, 202, -1,
          204, 203, 202, -1,
          205, 203, 204, -1,
          206, 205, 204, -1,
          207, 205, 206, -1,
          208, 207, 206, -1,
          209, 207, 208, -1,
          210, 209, 208, -1,
          211, 209, 210, -1,
          212, 211, 210, -1,
          213, 211, 212, -1,
          214, 213, 212, -1,
          215, 213, 214, -1,
          216, 215, 214, -1,
          217, 215, 216, -1,
          218, 217, 216, -1,
          219, 217, 218, -1,
          220, 218, 221, -1,
          220, 219, 218, -1,
          222, 220, 221, -1,
          223, 220, 222, -1,
          224, 223, 222, -1,
          225, 223, 224, -1,
          226, 224, 227, -1,
          226, 225, 224, -1,
          228, 226, 227, -1,
          229, 226, 228, -1,
          230, 229, 228, -1,
          231, 229, 230, -1,
          232, 231, 230, -1,
          233, 231, 232, -1,
          234, 232, 235, -1,
          234, 233, 232, -1,
          236, 234, 235, -1,
          237, 234, 236, -1,
          238, 237, 236, -1,
          239, 237, 238, -1,
          240, 238, 241, -1,
          240, 239, 238, -1,
          242, 241, 243, -1,
          242, 240, 241, -1,
          244, 242, 243, -1,
          245, 242, 244, -1,
          246, 245, 244, -1,
          247, 245, 246, -1,
          248, 247, 246, -1,
          248, 246, 249, -1,
          250, 248, 249, -1,
          251, 248, 250, -1,
          252, 251, 250, -1,
          252, 250, 253, -1,
          254, 252, 253, -1,
          255, 252, 254, -1,
          256, 255, 254, -1,
          256, 254, 257, -1,
          258, 256, 257, -1,
          259, 256, 258, -1,
          260, 259, 258, -1,
          261, 259, 260, -1,
          262, 261, 260, -1,
          263, 261, 262, -1,
          264, 262, 265, -1,
          264, 263, 262, -1,
          266, 264, 265, -1,
          267, 264, 266, -1,
          268, 267, 266, -1,
          269, 267, 268, -1,
          270, 269, 268, -1,
          271, 269, 270, -1,
          272, 271, 270, -1,
          273, 271, 272, -1,
          274, 273, 272, -1,
          275, 273, 274, -1,
          276, 275, 274, -1,
          277, 275, 276, -1,
          278, 277, 276, -1,
          279, 277, 278, -1,
          280, 278, 281, -1,
          280, 279, 278, -1,
          282, 280, 281, -1,
          283, 280, 282, -1,
          284, 283, 282, -1,
          285, 283, 284, -1,
          286, 284, 287, -1,
          286, 285, 284, -1,
          288, 286, 287, -1,
          289, 286, 288, -1,
          78, 163, 165, -1,
          78, 80, 163, -1,
          76, 165, 167, -1,
          76, 78, 165, -1,
          74, 167, 169, -1,
          74, 76, 167, -1,
          72, 169, 171, -1,
          72, 74, 169, -1,
          70, 72, 171, -1,
          69, 171, 173, -1,
          69, 70, 171, -1,
          67, 173, 175, -1,
          67, 69, 173, -1,
          65, 67, 175, -1,
          64, 175, 177, -1,
          64, 65, 175, -1,
          62, 64, 177, -1,
          60, 177, 179, -1,
          60, 62, 177, -1,
          59, 60, 179, -1,
          59, 179, 181, -1,
          57, 59, 181, -1,
          55, 57, 181, -1,
          55, 181, 183, -1,
          54, 183, 185, -1,
          54, 55, 183, -1,
          52, 54, 185, -1,
          50, 185, 187, -1,
          50, 52, 185, -1,
          49, 50, 187, -1,
          47, 187, 189, -1,
          47, 49, 187, -1,
          45, 189, 191, -1,
          45, 47, 189, -1,
          44, 45, 191, -1,
          42, 191, 193, -1,
          42, 44, 191, -1,
          40, 193, 195, -1,
          40, 42, 193, -1,
          39, 40, 195, -1,
          37, 195, 197, -1,
          37, 39, 195, -1,
          35, 37, 197, -1,
          34, 197, 199, -1,
          34, 35, 197, -1,
          32, 199, 201, -1,
          32, 34, 199, -1,
          30, 32, 201, -1,
          28, 201, 203, -1,
          28, 30, 201, -1,
          27, 203, 205, -1,
          27, 28, 203, -1,
          25, 205, 207, -1,
          25, 27, 205, -1,
          23, 25, 207, -1,
          21, 207, 209, -1,
          21, 23, 207, -1,
          20, 209, 211, -1,
          20, 21, 209, -1,
          18, 20, 211, -1,
          16, 211, 213, -1,
          16, 18, 211, -1,
          14, 213, 215, -1,
          14, 16, 213, -1,
          13, 14, 215, -1,
          11, 215, 217, -1,
          11, 13, 215, -1,
          9, 217, 219, -1,
          9, 11, 217, -1,
          7, 219, 220, -1,
          7, 9, 219, -1,
          5, 7, 220, -1,
          5, 220, 223, -1,
          1, 5, 223, -1,
          1, 223, 225, -1,
          2, 1, 225, -1,
          2, 225, 226, -1,
          290, 2, 226, -1,
          291, 290, 226, -1,
          291, 226, 229, -1,
          292, 291, 229, -1,
          292, 229, 231, -1,
          293, 292, 231, -1,
          294, 293, 231, -1,
          294, 231, 233, -1,
          295, 294, 233, -1,
          295, 233, 234, -1,
          296, 295, 234, -1,
          297, 234, 237, -1,
          297, 296, 234, -1,
          298, 237, 239, -1,
          298, 297, 237, -1,
          299, 298, 239, -1,
          300, 239, 240, -1,
          300, 299, 239, -1,
          301, 240, 242, -1,
          301, 300, 240, -1,
          302, 301, 242, -1,
          303, 242, 245, -1,
          303, 302, 242, -1,
          304, 303, 245, -1,
          305, 245, 247, -1,
          305, 304, 245, -1,
          306, 247, 248, -1,
          306, 305, 247, -1,
          307, 306, 248, -1,
          308, 248, 251, -1,
          308, 307, 248, -1,
          309, 251, 252, -1,
          309, 308, 251, -1,
          310, 309, 252, -1,
          311, 252, 255, -1,
          311, 310, 252, -1,
          312, 255, 256, -1,
          312, 311, 255, -1,
          313, 312, 256, -1,
          314, 256, 259, -1,
          314, 313, 256, -1,
          315, 259, 261, -1,
          315, 314, 259, -1,
          316, 315, 261, -1,
          317, 316, 261, -1,
          317, 261, 263, -1,
          318, 317, 263, -1,
          318, 263, 264, -1,
          319, 318, 264, -1,
          320, 319, 264, -1,
          320, 264, 267, -1,
          321, 320, 267, -1,
          322, 321, 267, -1,
          322, 267, 269, -1,
          323, 322, 269, -1,
          323, 269, 271, -1,
          324, 323, 271, -1,
          325, 324, 271, -1,
          325, 271, 273, -1,
          326, 325, 273, -1,
          326, 273, 275, -1,
          327, 326, 275, -1,
          328, 327, 275, -1,
          328, 275, 277, -1,
          329, 328, 277, -1,
          329, 277, 279, -1,
          330, 329, 279, -1,
          330, 279, 280, -1,
          331, 330, 280, -1,
          332, 331, 280, -1,
          332, 280, 283, -1,
          333, 332, 283, -1,
          333, 283, 285, -1,
          334, 285, 286, -1,
          334, 333, 285, -1,
          335, 286, 289, -1,
          335, 334, 286, -1,
          336, 335, 289, -1,
          337, 336, 289, -1,
          337, 289, 338, -1,
          339, 338, 340, -1,
          339, 337, 338, -1,
          341, 340, 342, -1,
          341, 339, 340, -1,
          343, 342, 344, -1,
          343, 341, 342, -1,
          345, 343, 344, -1,
          346, 344, 347, -1,
          346, 345, 344, -1,
          348, 347, 349, -1,
          348, 346, 347, -1,
          350, 348, 349, -1,
          351, 349, 352, -1,
          351, 350, 349, -1,
          353, 351, 352, -1,
          354, 352, 355, -1,
          354, 353, 352, -1,
          356, 354, 355, -1,
          356, 355, 357, -1,
          358, 356, 357, -1,
          359, 358, 357, -1,
          359, 357, 360, -1,
          361, 360, 362, -1,
          361, 359, 360, -1,
          363, 361, 362, -1,
          364, 362, 365, -1,
          364, 363, 362, -1,
          366, 364, 365, -1,
          367, 365, 368, -1,
          367, 366, 365, -1,
          369, 368, 370, -1,
          369, 367, 368, -1,
          371, 369, 370, -1,
          372, 370, 373, -1,
          372, 371, 370, -1,
          374, 373, 375, -1,
          374, 372, 373, -1,
          376, 374, 375, -1,
          377, 375, 378, -1,
          377, 376, 375, -1,
          379, 377, 378, -1,
          380, 378, 381, -1,
          380, 379, 378, -1,
          382, 381, 383, -1,
          382, 380, 381, -1,
          384, 382, 383, -1,
          385, 383, 386, -1,
          385, 384, 383, -1,
          387, 386, 388, -1,
          387, 385, 386, -1,
          389, 388, 390, -1,
          389, 387, 388, -1,
          391, 389, 390, -1,
          392, 390, 393, -1,
          392, 391, 390, -1,
          394, 393, 395, -1,
          394, 392, 393, -1,
          396, 394, 395, -1,
          397, 395, 398, -1,
          397, 396, 395, -1,
          399, 398, 400, -1,
          399, 397, 398, -1,
          401, 399, 400, -1,
          402, 400, 403, -1,
          402, 401, 400, -1,
          404, 403, 405, -1,
          404, 402, 403, -1,
          406, 405, 407, -1,
          406, 404, 405, -1,
          408, 406, 407, -1,
          408, 407, 409, -1,
          410, 408, 409, -1,
          410, 409, 411, -1,
          161, 410, 411, -1,
          161, 411, 412, -1,
          159, 161, 412, -1,
          157, 159, 412, -1,
          157, 412, 413, -1,
          156, 157, 413, -1,
          156, 413, 414, -1,
          154, 156, 414, -1,
          152, 154, 414, -1,
          152, 414, 415, -1,
          151, 152, 415, -1,
          151, 415, 416, -1,
          149, 151, 416, -1,
          147, 416, 417, -1,
          147, 149, 416, -1,
          145, 417, 418, -1,
          145, 147, 417, -1,
          144, 145, 418, -1,
          142, 418, 419, -1,
          142, 144, 418, -1,
          140, 419, 420, -1,
          140, 142, 419, -1,
          139, 140, 420, -1,
          137, 420, 421, -1,
          137, 139, 420, -1,
          135, 137, 421, -1,
          134, 421, 422, -1,
          134, 135, 421, -1,
          132, 422, 423, -1,
          132, 134, 422, -1,
          130, 132, 423, -1,
          129, 423, 424, -1,
          129, 130, 423, -1,
          127, 424, 425, -1,
          127, 129, 424, -1,
          125, 127, 425, -1,
          123, 425, 426, -1,
          123, 125, 425, -1,
          122, 426, 427, -1,
          122, 123, 426, -1,
          120, 122, 427, -1,
          118, 427, 428, -1,
          118, 120, 427, -1,
          117, 428, 429, -1,
          117, 118, 428, -1,
          115, 117, 429, -1,
          113, 115, 429, -1,
          113, 429, 430, -1,
          111, 113, 430, -1,
          111, 430, 431, -1,
          110, 111, 431, -1,
          108, 110, 431, -1,
          108, 431, 432, -1,
          106, 108, 432, -1,
          105, 106, 432, -1,
          105, 432, 433, -1,
          103, 105, 433, -1,
          103, 433, 434, -1,
          101, 103, 434, -1,
          100, 101, 434, -1,
          100, 434, 435, -1,
          98, 100, 435, -1,
          98, 435, 436, -1,
          96, 98, 436, -1,
          94, 96, 436, -1,
          94, 436, 437, -1,
          93, 94, 437, -1,
          93, 437, 438, -1,
          91, 93, 438, -1,
          91, 438, 439, -1,
          89, 91, 439, -1,
          87, 89, 439, -1,
          87, 439, 440, -1,
          85, 87, 440, -1,
          85, 440, 441, -1,
          84, 441, 442, -1,
          84, 85, 441, -1,
          82, 442, 163, -1,
          82, 84, 442, -1,
          80, 82, 163, -1,
          443, 444, 445, -1,
          443, 445, 446, -1,
          447, 448, 443, -1,
          447, 446, 449, -1,
          447, 449, 450, -1,
          447, 443, 446, -1,
          451, 450, 452, -1,
          451, 452, 453, -1,
          451, 453, 454, -1,
          451, 447, 450, -1,
          455, 456, 447, -1,
          457, 451, 458, -1,
          459, 457, 460, -1,
          459, 460, 461, -1,
          462, 463, 464, -1,
          465, 459, 466, -1,
          465, 451, 457, -1,
          465, 457, 459, -1,
          467, 468, 462, -1,
          467, 464, 469, -1,
          467, 469, 470, -1,
          467, 470, 455, -1,
          467, 462, 464, -1,
          471, 467, 455, -1,
          472, 465, 473, -1,
          472, 473, 474, -1,
          162, 164, 471, -1,
          475, 472, 476, -1,
          475, 465, 472, -1,
          168, 166, 162, -1,
          168, 455, 447, -1,
          168, 162, 471, -1,
          168, 471, 455, -1,
          172, 170, 168, -1,
          477, 475, 478, -1,
          477, 478, 479, -1,
          176, 172, 168, -1,
          176, 174, 172, -1,
          480, 477, 481, -1,
          482, 475, 477, -1,
          482, 480, 483, -1,
          482, 477, 480, -1,
          182, 180, 178, -1,
          182, 178, 176, -1,
          484, 475, 482, -1,
          484, 482, 485, -1,
          486, 475, 484, -1,
          188, 186, 184, -1,
          487, 465, 475, -1,
          487, 475, 486, -1,
          487, 451, 465, -1,
          190, 188, 184, -1,
          488, 451, 487, -1,
          194, 192, 190, -1,
          194, 184, 182, -1,
          194, 176, 168, -1,
          194, 182, 176, -1,
          194, 190, 184, -1,
          194, 168, 447, -1,
          489, 488, 490, -1,
          198, 196, 194, -1,
          198, 194, 447, -1,
          491, 492, 493, -1,
          494, 489, 492, -1,
          494, 491, 495, -1,
          494, 492, 491, -1,
          206, 204, 202, -1,
          206, 202, 200, -1,
          206, 200, 198, -1,
          208, 206, 198, -1,
          496, 494, 497, -1,
          496, 488, 489, -1,
          496, 489, 494, -1,
          212, 210, 208, -1,
          498, 451, 488, -1,
          498, 488, 496, -1,
          498, 496, 499, -1,
          214, 212, 208, -1,
          214, 208, 198, -1,
          216, 214, 198, -1,
          221, 218, 216, -1,
          222, 221, 216, -1,
          500, 498, 501, -1,
          500, 501, 502, -1,
          500, 502, 503, -1,
          500, 503, 504, -1,
          224, 222, 216, -1,
          288, 498, 500, -1,
          287, 498, 288, -1,
          228, 224, 216, -1,
          228, 227, 224, -1,
          282, 498, 287, -1,
          282, 287, 284, -1,
          232, 228, 216, -1,
          232, 198, 447, -1,
          232, 230, 228, -1,
          232, 216, 198, -1,
          281, 498, 282, -1,
          281, 447, 451, -1,
          281, 451, 498, -1,
          235, 232, 447, -1,
          278, 447, 281, -1,
          270, 276, 274, -1,
          270, 274, 272, -1,
          268, 276, 270, -1,
          249, 246, 244, -1,
          249, 244, 243, -1,
          249, 243, 241, -1,
          249, 241, 238, -1,
          249, 238, 236, -1,
          249, 236, 235, -1,
          265, 276, 268, -1,
          265, 268, 266, -1,
          250, 249, 235, -1,
          262, 276, 265, -1,
          262, 278, 276, -1,
          260, 447, 278, -1,
          260, 278, 262, -1,
          257, 235, 447, -1,
          257, 250, 235, -1,
          257, 447, 260, -1,
          257, 260, 258, -1,
          257, 254, 253, -1,
          257, 253, 250, -1,
          38, 36, 41, -1,
          41, 33, 43, -1,
          36, 33, 41, -1,
          43, 31, 46, -1,
          33, 31, 43, -1,
          46, 29, 48, -1,
          31, 29, 46, -1,
          56, 61, 58, -1,
          53, 63, 56, -1,
          56, 63, 61, -1,
          19, 15, 22, -1,
          17, 15, 19, -1,
          51, 66, 53, -1,
          53, 66, 63, -1,
          22, 12, 24, -1,
          15, 12, 22, -1,
          48, 68, 51, -1,
          51, 68, 66, -1,
          24, 10, 26, -1,
          12, 10, 24, -1,
          48, 71, 68, -1,
          26, 8, 29, -1,
          10, 8, 26, -1,
          77, 81, 79, -1,
          75, 81, 77, -1,
          3, 505, 0, -1,
          75, 83, 81, -1,
          73, 83, 75, -1,
          505, 506, 0, -1,
          0, 506, 4, -1,
          71, 86, 73, -1,
          73, 86, 83, -1,
          506, 507, 4, -1,
          4, 507, 6, -1,
          71, 88, 86, -1,
          507, 508, 6, -1,
          6, 508, 8, -1,
          95, 99, 97, -1,
          509, 510, 511, -1,
          512, 510, 509, -1,
          95, 102, 99, -1,
          92, 102, 95, -1,
          511, 513, 514, -1,
          510, 513, 511, -1,
          92, 104, 102, -1,
          90, 104, 92, -1,
          514, 515, 516, -1,
          513, 515, 514, -1,
          90, 107, 104, -1,
          88, 107, 90, -1,
          516, 517, 508, -1,
          515, 517, 516, -1,
          29, 517, 48, -1,
          8, 517, 29, -1,
          508, 517, 8, -1,
          88, 109, 107, -1,
          518, 519, 520, -1,
          116, 121, 119, -1,
          114, 121, 116, -1,
          520, 521, 522, -1,
          519, 521, 520, -1,
          114, 124, 121, -1,
          112, 124, 114, -1,
          522, 523, 524, -1,
          521, 523, 522, -1,
          112, 126, 124, -1,
          109, 126, 112, -1,
          524, 525, 517, -1,
          517, 525, 48, -1,
          523, 525, 524, -1,
          109, 128, 126, -1,
          136, 141, 138, -1,
          526, 527, 528, -1,
          529, 527, 526, -1,
          136, 143, 141, -1,
          133, 143, 136, -1,
          527, 530, 528, -1,
          528, 530, 531, -1,
          133, 146, 143, -1,
          131, 146, 133, -1,
          531, 532, 533, -1,
          530, 532, 531, -1,
          71, 534, 88, -1,
          532, 534, 533, -1,
          525, 534, 48, -1,
          533, 534, 525, -1,
          48, 534, 71, -1,
          131, 153, 146, -1,
          148, 153, 150, -1,
          146, 153, 148, -1,
          131, 155, 153, -1,
          158, 535, 160, -1,
          536, 537, 538, -1,
          158, 539, 535, -1,
          155, 539, 158, -1,
          538, 540, 541, -1,
          537, 540, 538, -1,
          541, 542, 543, -1,
          540, 542, 541, -1,
          534, 544, 88, -1,
          543, 544, 534, -1,
          542, 544, 543, -1,
          545, 546, 547, -1,
          548, 546, 545, -1,
          549, 550, 551, -1,
          552, 553, 554, -1,
          555, 553, 552, -1,
          549, 556, 550, -1,
          554, 557, 558, -1,
          553, 557, 554, -1,
          559, 560, 549, -1,
          549, 560, 556, -1,
          558, 561, 562, -1,
          557, 561, 558, -1,
          131, 563, 155, -1,
          155, 563, 539, -1,
          559, 563, 560, -1,
          548, 563, 546, -1,
          546, 563, 559, -1,
          539, 563, 548, -1,
          128, 563, 131, -1,
          88, 564, 109, -1,
          561, 564, 562, -1,
          562, 564, 544, -1,
          544, 564, 88, -1,
          109, 564, 128, -1,
          128, 564, 563, -1,
          564, 565, 563, -1,
          564, 566, 565, -1,
          566, 567, 565, -1,
          566, 568, 567, -1,
          568, 569, 567, -1,
          568, 570, 569, -1,
          570, 571, 569, -1,
          570, 572, 571, -1,
          500, 289, 288, -1,
          338, 289, 500, -1,
          504, 338, 500, -1,
          340, 338, 504, -1,
          503, 340, 504, -1,
          342, 340, 503, -1,
          502, 342, 503, -1,
          344, 342, 502, -1,
          501, 344, 502, -1,
          347, 344, 501, -1,
          498, 347, 501, -1,
          349, 347, 498, -1,
          499, 349, 498, -1,
          352, 349, 499, -1,
          496, 352, 499, -1,
          355, 352, 496, -1,
          497, 355, 496, -1,
          357, 355, 497, -1,
          494, 357, 497, -1,
          360, 357, 494, -1,
          495, 360, 494, -1,
          362, 360, 495, -1,
          491, 362, 495, -1,
          365, 362, 491, -1,
          493, 365, 491, -1,
          368, 365, 493, -1,
          492, 368, 493, -1,
          370, 368, 492, -1,
          489, 370, 492, -1,
          373, 370, 489, -1,
          490, 373, 489, -1,
          375, 373, 490, -1,
          488, 375, 490, -1,
          378, 375, 488, -1,
          487, 378, 488, -1,
          381, 378, 487, -1,
          486, 381, 487, -1,
          383, 381, 486, -1,
          484, 383, 486, -1,
          386, 383, 484, -1,
          485, 386, 484, -1,
          388, 386, 485, -1,
          482, 388, 485, -1,
          390, 388, 482, -1,
          483, 390, 482, -1,
          393, 390, 483, -1,
          480, 393, 483, -1,
          395, 393, 480, -1,
          481, 395, 480, -1,
          398, 395, 481, -1,
          477, 398, 481, -1,
          400, 398, 477, -1,
          403, 477, 479, -1,
          403, 400, 477, -1,
          478, 403, 479, -1,
          405, 403, 478, -1,
          475, 405, 478, -1,
          407, 405, 475, -1,
          476, 407, 475, -1,
          409, 407, 476, -1,
          472, 409, 476, -1,
          411, 409, 472, -1,
          474, 411, 472, -1,
          412, 411, 474, -1,
          473, 412, 474, -1,
          413, 412, 473, -1,
          465, 413, 473, -1,
          414, 413, 465, -1,
          415, 465, 466, -1,
          415, 414, 465, -1,
          459, 415, 466, -1,
          416, 415, 459, -1,
          461, 416, 459, -1,
          417, 416, 461, -1,
          418, 461, 460, -1,
          418, 417, 461, -1,
          457, 418, 460, -1,
          419, 418, 457, -1,
          458, 419, 457, -1,
          420, 419, 458, -1,
          421, 458, 451, -1,
          421, 420, 458, -1,
          422, 451, 454, -1,
          422, 421, 451, -1,
          423, 454, 453, -1,
          423, 422, 454, -1,
          424, 423, 453, -1,
          424, 453, 452, -1,
          450, 424, 452, -1,
          425, 424, 450, -1,
          426, 425, 450, -1,
          426, 450, 449, -1,
          427, 426, 449, -1,
          427, 449, 446, -1,
          445, 427, 446, -1,
          428, 427, 445, -1,
          429, 445, 444, -1,
          429, 428, 445, -1,
          430, 444, 443, -1,
          430, 429, 444, -1,
          431, 443, 448, -1,
          431, 430, 443, -1,
          432, 448, 447, -1,
          432, 431, 448, -1,
          456, 432, 447, -1,
          433, 432, 456, -1,
          434, 456, 455, -1,
          434, 433, 456, -1,
          470, 434, 455, -1,
          435, 434, 470, -1,
          436, 470, 469, -1,
          436, 435, 470, -1,
          437, 469, 464, -1,
          437, 436, 469, -1,
          463, 437, 464, -1,
          438, 437, 463, -1,
          439, 463, 462, -1,
          439, 438, 463, -1,
          468, 439, 462, -1,
          440, 439, 468, -1,
          441, 468, 467, -1,
          441, 440, 468, -1,
          442, 467, 471, -1,
          442, 441, 467, -1,
          163, 471, 164, -1,
          163, 442, 471, -1,
          535, 410, 161, -1,
          535, 161, 160, -1,
          539, 408, 410, -1,
          539, 410, 535, -1,
          548, 406, 408, -1,
          548, 408, 539, -1,
          545, 404, 406, -1,
          545, 406, 548, -1,
          547, 402, 404, -1,
          547, 404, 545, -1,
          546, 401, 402, -1,
          546, 402, 547, -1,
          559, 399, 401, -1,
          559, 401, 546, -1,
          549, 397, 399, -1,
          549, 399, 559, -1,
          551, 396, 397, -1,
          551, 394, 396, -1,
          551, 397, 549, -1,
          550, 392, 394, -1,
          550, 394, 551, -1,
          556, 392, 550, -1,
          556, 391, 392, -1,
          560, 391, 556, -1,
          560, 389, 391, -1,
          560, 387, 389, -1,
          563, 387, 560, -1,
          563, 385, 387, -1,
          565, 385, 563, -1,
          565, 384, 385, -1,
          567, 384, 565, -1,
          567, 382, 384, -1,
          567, 380, 382, -1,
          569, 380, 567, -1,
          569, 379, 380, -1,
          571, 379, 569, -1,
          571, 377, 379, -1,
          571, 376, 377, -1,
          572, 376, 571, -1,
          572, 374, 376, -1,
          570, 374, 572, -1,
          570, 372, 374, -1,
          570, 371, 372, -1,
          568, 371, 570, -1,
          568, 369, 371, -1,
          566, 369, 568, -1,
          566, 367, 369, -1,
          566, 366, 367, -1,
          564, 366, 566, -1,
          564, 364, 366, -1,
          561, 364, 564, -1,
          561, 363, 364, -1,
          561, 361, 363, -1,
          557, 361, 561, -1,
          557, 359, 361, -1,
          553, 359, 557, -1,
          553, 358, 359, -1,
          553, 356, 358, -1,
          555, 356, 553, -1,
          555, 354, 356, -1,
          552, 353, 354, -1,
          552, 351, 353, -1,
          552, 354, 555, -1,
          554, 350, 351, -1,
          554, 351, 552, -1,
          558, 348, 350, -1,
          558, 346, 348, -1,
          558, 350, 554, -1,
          562, 346, 558, -1,
          562, 345, 346, -1,
          544, 345, 562, -1,
          544, 343, 345, -1,
          542, 343, 544, -1,
          542, 341, 343, -1,
          540, 341, 542, -1,
          540, 339, 341, -1,
          540, 337, 339, -1,
          537, 337, 540, -1,
          537, 336, 337, -1,
          536, 335, 336, -1,
          536, 336, 537, -1,
          538, 334, 335, -1,
          538, 335, 536, -1,
          541, 333, 334, -1,
          541, 334, 538, -1,
          543, 332, 333, -1,
          543, 333, 541, -1,
          534, 331, 332, -1,
          534, 332, 543, -1,
          532, 330, 331, -1,
          532, 331, 534, -1,
          530, 329, 330, -1,
          530, 328, 329, -1,
          530, 330, 532, -1,
          527, 327, 328, -1,
          527, 328, 530, -1,
          529, 326, 327, -1,
          529, 325, 326, -1,
          529, 327, 527, -1,
          526, 324, 325, -1,
          526, 325, 529, -1,
          528, 323, 324, -1,
          528, 324, 526, -1,
          531, 322, 323, -1,
          531, 321, 322, -1,
          531, 323, 528, -1,
          533, 320, 321, -1,
          533, 321, 531, -1,
          525, 319, 320, -1,
          525, 318, 319, -1,
          525, 320, 533, -1,
          523, 317, 318, -1,
          523, 318, 525, -1,
          521, 316, 317, -1,
          521, 315, 316, -1,
          521, 317, 523, -1,
          519, 314, 315, -1,
          519, 315, 521, -1,
          518, 313, 314, -1,
          518, 314, 519, -1,
          520, 313, 518, -1,
          520, 312, 313, -1,
          520, 311, 312, -1,
          522, 311, 520, -1,
          522, 310, 311, -1,
          524, 310, 522, -1,
          524, 309, 310, -1,
          524, 308, 309, -1,
          517, 308, 524, -1,
          517, 307, 308, -1,
          515, 307, 517, -1,
          515, 306, 307, -1,
          513, 306, 515, -1,
          513, 305, 306, -1,
          513, 304, 305, -1,
          510, 303, 304, -1,
          510, 304, 513, -1,
          512, 302, 303, -1,
          512, 301, 302, -1,
          512, 303, 510, -1,
          509, 300, 301, -1,
          509, 301, 512, -1,
          511, 299, 300, -1,
          511, 298, 299, -1,
          511, 300, 509, -1,
          514, 297, 298, -1,
          514, 298, 511, -1,
          516, 296, 297, -1,
          516, 297, 514, -1,
          508, 295, 296, -1,
          508, 294, 295, -1,
          508, 296, 516, -1,
          507, 293, 294, -1,
          507, 294, 508, -1,
          506, 292, 293, -1,
          506, 291, 292, -1,
          506, 293, 507, -1,
          505, 290, 291, -1,
          505, 291, 506, -1,
          3, 2, 290, -1,
          3, 290, 505, -1
        ]
      }
    }
}
