#VRML V2.0 utf8
WorldInfo {
  title "Exported triangle mesh to VRML97"
  info ["Created by FreeCAD"
        "<https://www.freecad.org>"]
}

Transform {
  scale 1 1 1
  rotation 0 0 1 0
  scaleOrientation 0 0 1 0
  center 0.000 0.000 0.000
  translation 0.000 0.000 0.000
  children
    Shape { 
      appearance
      Appearance {
        material
        Material {
          diffuseColor 0.8 0.8 0.8
        }
      }
      geometry
      IndexedFaceSet {
        coord
        Coordinate {
          point [
            0.000 52.000 3.000,
            0.000 52.000 0.000,
            0.000 0.000 3.000,
            0.000 0.000 0.000,
            35.000 0.000 3.000,
            35.000 0.000 0.000,
            35.000 52.000 3.000,
            35.000 52.000 0.000
          ]
        }
        coordIndex [
          0, 1, 2, -1,
          2, 1, 3, -1,
          3, 4, 2, -1,
          5, 4, 3, -1,
          5, 6, 4, -1,
          7, 6, 5, -1,
          6, 7, 0, -1,
          0, 7, 1, -1,
          6, 0, 4, -1,
          4, 0, 2, -1,
          1, 7, 5, -1,
          1, 5, 3, -1
        ]
      }
    }
}
