#VRML V2.0 utf8
WorldInfo {
  title "Exported triangle mesh to VRML97"
  info ["Created by FreeCAD"
        "<https://www.freecad.org>"]
}

Transform {
  scale 1 1 1
  rotation 0 0 1 0
  scaleOrientation 0 0 1 0
  center 0.000 0.000 0.000
  translation 0.000 0.000 0.000
  children
    Shape { 
      appearance
      Appearance {
        material
        Material {
          diffuseColor 0.8 0.8 0.8
        }
      }
      geometry
      IndexedFaceSet {
        coord
        Coordinate {
          point [
            -1.125 3.625 2.250,
            3.573 -1.073 -2.250,
            -1.125 3.625 -2.250,
            3.573 -1.073 2.250,
            -1.000 -1.250 -2.250,
            3.573 -1.250 2.250,
            -1.000 -1.250 2.250,
            3.573 -1.250 -2.250,
            -1.250 -1.000 2.250,
            -1.250 3.500 -2.250,
            -1.250 -1.000 -2.250,
            -1.250 3.500 2.250,
            -1.000 3.146 -2.500,
            3.146 -1.000 -2.500,
            -1.000 -1.000 -2.500,
            3.146 -1.000 2.500,
            -1.000 3.146 2.500,
            -1.000 -1.000 2.500
          ]
        }
        coordIndex [
          0, 1, 2, -1,
          0, 3, 1, -1,
          4, 5, 6, -1,
          7, 5, 4, -1,
          8, 9, 10, -1,
          11, 9, 8, -1,
          12, 13, 14, -1,
          15, 16, 17, -1,
          13, 4, 14, -1,
          7, 4, 13, -1,
          1, 3, 7, -1,
          3, 5, 7, -1,
          6, 15, 17, -1,
          6, 5, 15, -1,
          6, 8, 4, -1,
          4, 8, 10, -1,
          4, 10, 14, -1,
          13, 1, 7, -1,
          3, 15, 5, -1,
          6, 17, 8, -1,
          12, 14, 10, -1,
          9, 12, 10, -1,
          12, 1, 13, -1,
          2, 1, 12, -1,
          3, 16, 15, -1,
          3, 0, 16, -1,
          17, 16, 8, -1,
          16, 11, 8, -1,
          2, 12, 9, -1,
          16, 0, 11, -1,
          11, 0, 9, -1,
          9, 0, 2, -1
        ]
      }
    }
}
