#VRML V2.0 utf8
WorldInfo {
  title "Exported triangle mesh to VRML97"
  info ["Created by FreeCAD"
        "<https://www.freecad.org>"]
}

Transform {
  scale 1 1 1
  rotation 0 0 1 0
  scaleOrientation 0 0 1 0
  center 0.000 0.000 0.000
  translation 0.000 0.000 0.000
  children
    Shape { 
      appearance
      Appearance {
        material
        Material {
          diffuseColor 0.8 0.8 0.8
        }
      }
      geometry
      IndexedFaceSet {
        coord
        Coordinate {
          point [
            -7.261 7.250 -7.412,
            7.438 -7.250 7.287,
            -7.261 -7.250 -7.412,
            7.438 7.250 7.287,
            -7.438 7.250 7.412,
            -7.438 7.250 -7.412,
            -7.438 -7.250 7.412,
            -7.438 -7.250 -7.412,
            7.312 7.250 7.412,
            7.312 -7.250 7.412,
            6.959 7.500 7.162,
            -7.188 7.500 -6.985,
            -7.188 7.500 7.162,
            -7.188 -7.500 -6.985,
            6.959 -7.500 7.162,
            -7.188 -7.500 7.162
          ]
        }
        coordIndex [
          0, 1, 2, -1,
          0, 3, 1, -1,
          4, 5, 6, -1,
          6, 5, 7, -1,
          8, 6, 9, -1,
          8, 4, 6, -1,
          10, 11, 12, -1,
          13, 14, 15, -1,
          3, 9, 1, -1,
          8, 9, 3, -1,
          10, 8, 3, -1,
          4, 10, 12, -1,
          4, 8, 10, -1,
          15, 14, 6, -1,
          14, 9, 6, -1,
          9, 14, 1, -1,
          3, 0, 11, -1,
          3, 11, 10, -1,
          11, 4, 12, -1,
          5, 4, 11, -1,
          13, 6, 7, -1,
          13, 15, 6, -1,
          13, 2, 14, -1,
          14, 2, 1, -1,
          11, 0, 5, -1,
          2, 13, 7, -1,
          5, 2, 7, -1,
          0, 2, 5, -1
        ]
      }
    }
}
