#VRML V2.0 utf8
WorldInfo {
  title "Exported triangle mesh to VRML97"
  info ["Created by FreeCAD"
        "<https://www.freecad.org>"]
}

Transform {
  scale 1 1 1
  rotation 0 0 1 0
  scaleOrientation 0 0 1 0
  center 0.000 0.000 0.000
  translation 0.000 0.000 0.000
  children
    Shape { 
      appearance
      Appearance {
        material
        Material {
          diffuseColor 0.8 0.8 0.8
        }
      }
      geometry
      IndexedFaceSet {
        coord
        Coordinate {
          point [
            -1.844 19.823 11.745,
            17.854 0.125 11.745,
            -1.844 19.823 -7.755,
            17.854 0.125 -7.755,
            -2.021 0.250 11.745,
            -2.021 19.823 11.745,
            -2.021 0.250 -7.755,
            -2.021 19.823 -7.755,
            -1.771 0.000 -7.755,
            17.729 0.000 11.745,
            -1.771 0.000 11.745,
            17.729 0.000 -7.755,
            17.376 0.250 11.995,
            -1.771 19.396 11.995,
            -1.771 0.250 11.995,
            -1.771 19.396 -8.005,
            17.376 0.250 -8.005,
            -1.771 0.250 -8.005
          ]
        }
        coordIndex [
          0, 1, 2, -1,
          2, 1, 3, -1,
          4, 5, 6, -1,
          6, 5, 7, -1,
          8, 9, 10, -1,
          11, 9, 8, -1,
          12, 13, 14, -1,
          15, 16, 17, -1,
          10, 12, 14, -1,
          10, 9, 12, -1,
          4, 6, 10, -1,
          10, 6, 8, -1,
          17, 16, 8, -1,
          16, 11, 8, -1,
          9, 3, 1, -1,
          9, 11, 3, -1,
          1, 12, 9, -1,
          14, 4, 10, -1,
          6, 17, 8, -1,
          16, 3, 11, -1,
          1, 0, 13, -1,
          1, 13, 12, -1,
          13, 4, 14, -1,
          5, 4, 13, -1,
          15, 6, 7, -1,
          15, 17, 6, -1,
          16, 2, 3, -1,
          16, 15, 2, -1,
          13, 0, 5, -1,
          2, 15, 7, -1,
          5, 2, 7, -1,
          0, 2, 5, -1
        ]
      }
    }
}
